<svg xmlns="http://www.w3.org/2000/svg" width="800" height="800" viewbox="0 0 800 800">
<path d="M 0.50 0.50 C 0.50 266.50, 0.50 532.50, 0.50 798.50 C 266.50 799.50, 532.50 799.50, 798.50 799.50 C 799.50 533.50, 799.50 267.50, 799.50 1.50 C 533.50 0.50, 267.50 0.50, 1.50 0.50 Z" fill="rgb(254.80086540461826,254.38047014770126,253.61712086540462)" stroke="rgb(254.80086540461826,254.38047014770126,253.61712086540462)" stroke-width="1" />
<path d="M 393.50 40.50 C 389.62 42.73, 384.06 40.91, 379.50 41.50 C 373.06 40.78, 368.68 42.60, 363.50 42.50 C 358.33 45.16, 351.70 41.91, 347.50 44.50 C 341.11 44.22, 336.67 46.25, 331.50 46.50 C 327.81 46.30, 325.58 47.22, 323.50 48.50 C 319.81 48.30, 317.58 49.22, 315.50 50.50 C 309.46 51.74, 304.00 51.95, 299.50 54.50 C 296.30 55.49, 293.70 55.51, 291.50 56.50 C 288.05 56.89, 286.17 58.64, 283.50 58.50 C 280.51 60.33, 277.23 59.05, 275.50 61.50 C 271.57 61.72, 269.96 64.15, 267.50 64.50 C 261.92 66.71, 257.24 68.67, 252.50 70.50 C 249.39 72.38, 246.61 72.62, 244.50 74.50 C 241.51 77.33, 238.23 76.05, 236.50 78.50 C 232.91 79.88, 231.09 82.12, 228.50 82.50 C 224.94 83.29, 223.60 87.03, 220.50 86.50 C 217.58 89.83, 214.22 88.68, 212.50 91.50 C 209.29 94.13, 206.02 93.21, 204.50 96.50 C 201.35 98.62, 199.38 101.15, 196.50 101.50 C 193.85 103.22, 192.30 106.65, 189.50 106.50 C 183.81 112.25, 178.29 115.00, 173.50 119.50 C 169.57 120.64, 169.14 123.49, 166.50 125.50 C 163.12 126.83, 162.08 129.48, 159.50 131.50 C 156.12 133.15, 155.84 137.23, 152.50 137.50 C 149.37 140.71, 148.46 143.38, 145.50 144.50 C 143.10 147.11, 142.21 150.42, 139.50 150.50 C 137.38 154.46, 134.71 155.37, 132.50 157.50 C 131.22 161.37, 128.86 163.22, 126.50 164.50 C 125.38 168.78, 122.50 169.34, 120.50 171.50 C 116.84 177.50, 113.28 182.55, 109.50 187.50 C 105.69 193.72, 101.19 198.23, 98.50 203.50 C 94.72 206.23, 95.22 209.33, 93.50 211.50 C 92.21 214.85, 89.95 216.80, 89.50 219.50 C 87.54 226.07, 81.80 229.66, 81.50 235.50 C 79.06 241.87, 75.06 246.18, 73.50 251.50 C 69.05 256.90, 69.16 262.77, 66.50 267.50 C 65.64 271.17, 63.89 273.05, 63.50 275.50 C 63.28 279.43, 60.85 281.04, 60.50 283.50 C 58.93 289.68, 56.33 294.01, 56.50 299.50 C 55.22 302.58, 54.30 304.81, 54.50 307.50 C 53.00 310.90, 52.84 313.45, 51.50 315.50 C 51.58 319.00, 49.77 320.73, 50.50 323.50 C 49.04 326.78, 50.54 329.87, 48.50 331.50 C 45.91 334.04, 49.09 337.96, 46.50 339.50 C 46.68 343.05, 46.56 345.47, 45.50 347.50 C 45.11 353.48, 43.96 358.14, 44.50 363.50 C 42.55 368.83, 43.89 374.52, 43.50 379.50 C 43.50 385.50, 43.50 390.50, 43.50 395.50 C 43.50 406.50, 43.50 416.50, 43.50 426.50 C 44.44 432.25, 44.75 437.26, 44.50 442.50 C 45.47 448.79, 46.34 453.70, 47.50 458.50 C 47.30 462.19, 48.22 464.42, 49.50 466.50 C 48.77 470.27, 50.58 472.00, 50.50 474.50 C 51.00 477.90, 51.16 480.45, 52.50 482.50 C 53.00 485.90, 53.16 488.45, 54.50 490.50 C 55.49 493.70, 55.51 496.30, 56.50 498.50 C 58.18 501.42, 56.54 504.70, 58.50 506.50 C 60.90 512.20, 62.65 517.16, 63.50 522.50 C 64.41 526.29, 66.21 528.29, 67.50 530.50 C 69.33 533.49, 68.05 536.77, 70.50 538.50 C 70.38 542.43, 74.08 543.79, 74.50 546.50 C 74.88 550.09, 77.12 551.91, 77.50 554.50 C 81.77 560.25, 81.62 566.42, 86.50 570.50 C 87.79 573.71, 88.51 576.16, 89.50 578.50 C 93.28 581.23, 92.78 584.33, 94.50 586.50 C 96.71 589.75, 97.77 592.47, 100.50 594.50 C 100.78 598.37, 103.14 600.22, 105.50 601.50 C 107.32 608.13, 113.19 612.08, 115.50 617.50 C 119.23 620.39, 118.77 623.61, 121.50 625.50 C 125.23 627.39, 124.77 630.61, 127.50 632.50 C 132.58 638.47, 136.56 642.47, 141.50 647.50 C 147.17 653.17, 151.83 657.83, 156.50 662.50 C 162.36 667.84, 166.65 673.55, 172.50 675.50 C 175.27 677.56, 175.24 680.45, 178.50 680.50 C 182.65 681.85, 182.48 685.86, 185.50 686.50 C 190.77 692.27, 197.03 693.22, 201.50 698.50 C 207.57 701.00, 211.65 705.87, 217.50 706.50 C 223.05 711.58, 228.90 712.54, 233.50 716.50 C 239.38 719.45, 244.73 721.28, 249.50 724.50 C 255.42 727.04, 260.66 728.79, 265.50 731.50 C 271.30 733.99, 276.62 735.21, 281.50 737.50 C 285.43 736.72, 287.04 739.15, 289.50 739.50 C 292.90 741.00, 295.45 741.16, 297.50 742.50 C 303.70 743.35, 308.48 745.22, 313.50 746.50 C 316.30 748.46, 319.58 746.82, 321.50 748.50 C 325.00 748.42, 326.73 750.23, 329.50 749.50 C 332.13 751.54, 335.22 750.04, 337.50 750.50 C 341.00 751.42, 342.73 753.23, 345.50 752.50 C 351.05 754.24, 356.80 753.10, 361.50 754.50 C 367.68 754.40, 372.06 756.22, 377.50 755.50 C 383.25 756.44, 388.26 756.75, 393.50 756.50 C 399.17 756.50, 403.83 756.50, 408.50 756.50 C 413.70 753.91, 420.33 757.16, 424.50 754.50 C 430.92 755.19, 435.08 752.81, 440.50 753.50 C 444.00 753.58, 445.73 751.77, 448.50 752.50 C 451.42 750.82, 454.70 752.46, 456.50 750.50 C 460.26 751.20, 461.74 748.80, 464.50 749.50 C 468.17 749.64, 470.05 747.89, 472.50 747.50 C 478.94 747.22, 483.55 744.96, 488.50 743.50 C 492.43 744.28, 494.04 741.85, 496.50 741.50 C 499.90 741.00, 502.45 740.84, 504.50 739.50 C 510.30 737.34, 515.29 735.67, 520.50 734.50 C 526.41 731.29, 531.73 730.06, 536.50 727.50 C 539.22 724.68, 542.58 725.83, 544.50 723.50 C 548.53 723.18, 549.91 719.88, 552.50 719.50 C 558.48 716.78, 563.35 713.81, 568.50 711.50 C 572.43 710.62, 573.79 706.92, 576.50 706.50 C 579.83 705.17, 582.05 703.55, 584.50 702.50 C 590.33 697.75, 595.78 695.51, 600.50 691.50 C 606.43 686.66, 610.98 681.92, 616.50 679.50 C 619.52 675.75, 622.48 675.25, 624.50 672.50 C 625.66 669.16, 629.80 669.46, 631.50 667.50 C 635.98 661.82, 642.21 657.59, 646.50 652.50 C 651.01 646.91, 655.98 642.50, 659.50 637.50 C 662.71 635.25, 663.77 632.53, 666.50 630.50 C 667.85 627.62, 670.38 625.65, 672.50 623.50 C 676.50 617.64, 679.39 612.32, 683.50 607.50 C 685.55 604.05, 687.17 601.83, 688.50 599.50 C 691.28 597.21, 691.72 594.37, 694.50 592.50 C 697.98 586.42, 701.19 581.65, 703.50 576.50 C 705.99 570.15, 709.74 565.74, 711.50 560.50 C 712.35 556.69, 716.15 555.51, 715.50 552.50 C 717.49 549.16, 718.21 546.71, 719.50 544.50 C 722.44 538.75, 724.05 533.45, 726.50 528.50 C 727.36 524.83, 729.11 522.95, 729.50 520.50 C 731.95 517.77, 730.67 514.49, 732.50 512.50 C 735.26 506.95, 734.44 500.92, 737.50 496.50 C 737.42 493.00, 739.23 491.27, 738.50 488.50 C 739.89 485.05, 741.64 483.17, 741.50 480.50 C 740.80 476.74, 743.20 475.26, 742.50 472.50 C 744.46 469.70, 742.82 466.42, 744.50 464.50 C 745.49 458.63, 747.17 454.05, 746.50 448.50 C 746.96 442.14, 748.11 437.48, 748.50 432.50 C 749.44 426.75, 749.75 421.74, 749.50 416.50 C 748.97 410.13, 750.74 404.49, 750.50 400.50 C 751.11 394.44, 749.72 390.21, 749.50 385.50 C 749.11 379.52, 750.45 373.83, 748.50 369.50 C 749.19 363.08, 746.81 358.92, 747.50 353.50 C 747.83 347.09, 746.21 342.48, 745.50 337.50 C 743.46 334.87, 744.96 331.78, 744.50 329.50 C 744.23 325.73, 742.42 324.00, 742.50 321.50 C 742.09 314.84, 739.21 310.62, 738.50 305.50 C 737.91 298.92, 734.33 294.98, 734.50 289.50 C 732.30 283.31, 730.97 278.17, 728.50 273.50 C 728.59 269.71, 726.79 267.71, 725.50 265.50 C 724.75 262.06, 722.44 260.27, 722.50 257.50 C 719.46 251.52, 717.05 246.69, 715.50 241.50 C 713.63 237.98, 712.69 235.48, 710.50 233.50 C 709.63 229.98, 708.69 227.48, 706.50 225.50 C 704.48 219.23, 700.52 214.77, 698.50 209.50 C 695.17 203.08, 690.29 198.72, 687.50 193.50 C 681.46 188.07, 680.54 181.93, 675.50 177.50 C 671.47 171.51, 667.53 166.49, 663.50 161.50 C 657.98 155.30, 653.12 152.05, 649.50 146.50 C 643.83 141.83, 639.17 137.17, 634.50 132.50 C 628.87 126.26, 623.22 123.52, 618.50 118.50 C 612.71 114.00, 607.46 110.59, 602.50 106.50 C 596.34 102.54, 591.82 98.06, 586.50 95.50 C 580.63 91.52, 575.24 89.81, 570.50 86.50 C 567.52 83.65, 564.48 84.35, 562.50 82.50 C 559.39 79.62, 556.61 79.38, 554.50 77.50 C 548.33 75.58, 544.18 71.18, 538.50 70.50 C 534.91 69.12, 533.09 66.88, 530.50 66.50 C 526.57 66.28, 524.96 63.85, 522.50 63.50 C 518.63 63.14, 517.37 59.86, 514.50 60.50 C 510.95 59.68, 508.53 59.56, 506.50 58.50 C 500.05 57.25, 495.91 53.84, 490.50 53.50 C 487.45 52.16, 484.90 52.00, 482.50 51.50 C 479.70 49.54, 476.42 51.18, 474.50 49.50 C 471.42 48.22, 469.19 47.30, 466.50 47.50 C 463.47 46.44, 461.05 46.32, 458.50 46.50 C 455.58 44.82, 452.30 46.46, 450.50 44.50 C 446.95 44.68, 444.53 44.56, 442.50 43.50 C 436.20 43.57, 431.14 43.02, 426.50 41.50 C 420.50 41.50, 415.50 41.50, 410.50 41.50 C 407.72 38.56, 403.80 42.30, 402.50 40.50 C 398.95 41.68, 396.53 41.56, 394.50 40.50 Z" fill="rgb(237.0355575625371,199.02321948164035,129.60305829998143)" stroke="rgb(237.0355575625371,199.02321948164035,129.60305829998143)" stroke-width="1" />
<path d="M 407.50 148.50 C 403.16 150.61, 398.00 150.77, 393.50 152.50 C 387.06 153.30, 383.26 157.05, 378.50 158.50 C 372.61 160.29, 367.83 161.36, 363.50 163.50 C 357.20 166.44, 352.63 171.15, 347.50 174.50 C 342.99 180.23, 337.76 184.25, 335.50 189.50 C 329.26 194.52, 328.60 200.43, 323.50 204.50 C 322.09 207.88, 319.29 209.27, 318.50 211.50 C 315.65 214.48, 316.35 217.52, 314.50 219.50 C 311.81 222.41, 312.76 225.83, 309.50 227.50 C 306.66 230.62, 305.78 233.15, 304.50 235.50 C 302.38 240.98, 300.84 245.70, 299.50 250.50 C 298.80 256.71, 296.03 261.05, 293.50 265.50 C 292.08 268.19, 291.12 270.07, 291.50 272.50 C 291.15 276.51, 287.35 277.69, 287.50 280.50 C 285.77 286.61, 283.80 291.63, 281.50 296.50 C 279.44 301.59, 281.80 307.51, 279.50 311.50 C 278.78 317.42, 276.98 321.89, 275.50 326.50 C 273.18 331.48, 275.82 337.52, 273.50 341.50 C 271.55 346.83, 272.89 352.52, 272.50 357.50 C 272.14 363.16, 273.40 368.48, 271.50 372.50 C 269.52 374.82, 270.92 377.53, 270.50 379.50 C 271.20 383.26, 268.80 384.74, 269.50 387.50 C 267.27 392.38, 269.09 397.94, 268.50 402.50 C 268.58 408.60, 268.01 413.98, 269.50 418.50 C 269.28 424.21, 267.89 428.44, 268.50 433.50 C 267.99 439.65, 270.43 443.59, 270.50 448.50 C 271.29 453.98, 271.83 458.56, 271.50 463.50 C 272.07 469.68, 274.67 474.01, 274.50 479.50 C 279.25 484.17, 278.16 490.25, 281.50 494.50 C 285.73 499.24, 285.60 504.79, 287.50 509.50 C 289.99 512.16, 290.33 514.71, 292.50 516.50 C 294.52 520.25, 297.48 520.75, 299.50 523.50 C 304.99 528.07, 311.38 527.04, 315.50 531.50 C 317.74 534.01, 321.26 530.99, 322.50 533.50 C 325.90 534.00, 328.45 534.16, 330.50 535.50 C 337.11 535.56, 341.49 538.58, 345.50 542.50 C 350.71 544.93, 355.16 546.80, 360.50 546.50 C 366.86 547.62, 371.50 549.49, 376.50 550.50 C 380.00 551.08, 381.33 549.90, 381.50 547.50 C 381.42 544.00, 383.23 542.27, 382.50 539.50 C 382.50 533.83, 382.50 529.17, 382.50 524.50 C 382.50 518.83, 382.50 514.17, 382.50 509.50 C 383.05 503.37, 386.19 498.27, 383.50 493.50 C 382.71 490.03, 384.92 488.81, 384.50 486.50 C 383.39 481.77, 381.16 484.68, 378.50 484.50 C 372.87 481.74, 368.21 479.05, 363.50 476.50 C 362.39 473.26, 360.29 472.80, 358.50 470.50 C 355.69 468.22, 354.75 465.59, 352.50 463.50 C 351.63 459.98, 350.69 457.48, 348.50 455.50 C 345.05 452.77, 346.33 449.49, 344.50 447.50 C 343.24 442.26, 341.15 436.94, 343.50 432.50 C 344.23 429.67, 344.87 427.79, 344.50 425.50 C 347.42 422.68, 350.78 421.20, 352.50 424.50 C 358.22 427.82, 358.59 434.45, 361.50 438.50 C 363.77 444.66, 367.30 449.31, 369.50 454.50 C 371.66 457.53, 372.95 459.29, 375.50 459.50 C 378.52 462.25, 381.48 462.75, 383.50 465.50 C 388.20 463.29, 388.84 457.37, 388.50 452.50 C 387.20 447.45, 390.60 442.75, 389.50 437.50 C 387.94 432.21, 387.94 425.79, 389.50 421.50 C 391.21 416.13, 391.43 411.14, 392.50 406.50 C 390.52 404.18, 391.92 401.47, 391.50 399.50 C 388.63 395.72, 385.79 395.28, 383.50 393.50 C 378.20 390.17, 371.81 389.44, 369.50 383.50 C 366.43 381.47, 364.24 379.49, 364.50 376.50 C 363.23 372.47, 360.58 372.25, 359.50 369.50 C 359.43 363.59, 356.99 359.65, 357.50 354.50 C 358.09 348.45, 355.74 344.62, 356.50 339.50 C 358.29 336.69, 358.12 334.07, 360.50 332.50 C 363.85 330.96, 366.52 331.48, 368.50 333.50 C 369.78 336.58, 370.70 338.81, 370.50 341.50 C 373.92 344.53, 373.28 346.51, 372.50 349.50 C 372.14 356.56, 377.45 359.85, 379.50 364.50 C 382.53 370.43, 385.98 375.19, 390.50 379.50 C 394.45 380.88, 393.29 377.21, 393.50 375.50 C 393.36 371.83, 395.11 369.95, 395.50 367.50 C 393.52 364.04, 396.04 362.43, 395.50 359.50 C 397.54 356.87, 396.04 353.78, 396.50 351.50 C 396.24 345.59, 398.26 341.62, 397.50 336.50 C 396.70 329.75, 398.87 325.24, 400.50 320.50 C 400.13 317.21, 400.77 315.33, 401.50 313.50 C 402.04 309.57, 399.52 307.96, 401.50 305.50 C 401.50 299.50, 401.50 294.50, 401.50 289.50 C 401.42 286.19, 401.07 283.77, 403.50 282.50 C 405.13 279.30, 407.77 276.03, 410.50 276.50 C 414.08 276.76, 415.40 280.07, 417.50 281.50 C 420.95 283.23, 419.67 286.51, 421.50 288.50 C 419.60 293.52, 420.86 298.84, 420.50 303.50 C 419.78 310.21, 422.77 314.39, 423.50 319.50 C 423.04 323.19, 423.04 323.81, 423.50 326.50 C 424.61 330.19, 420.63 332.42, 423.50 334.50 C 428.64 331.48, 432.16 326.20, 434.50 321.50 C 440.09 316.90, 438.01 310.13, 443.50 306.50 C 448.67 306.86, 444.62 310.78, 446.50 312.50 C 446.50 315.83, 446.50 318.17, 446.50 320.50 C 446.44 326.97, 443.93 331.01, 442.50 335.50 C 442.45 338.52, 441.96 340.50, 440.50 342.50 C 438.92 345.87, 434.89 347.22, 435.50 350.50 C 433.19 357.10, 423.71 357.61, 425.50 364.50 C 424.21 367.70, 424.21 370.30, 425.50 372.50 C 425.50 375.83, 425.50 378.17, 425.50 380.50 C 425.48 386.30, 425.89 391.27, 424.50 395.50 C 427.93 400.02, 426.00 405.76, 426.50 410.50 C 424.52 412.82, 425.92 415.53, 425.50 417.50 C 425.58 421.00, 423.77 422.73, 424.50 425.50 C 424.10 431.39, 422.26 437.29, 424.50 441.50 C 423.77 444.33, 423.13 446.21, 423.50 448.50 C 424.04 452.43, 421.52 454.04, 423.50 456.50 C 428.06 453.89, 426.42 447.72, 429.50 443.50 C 430.70 440.17, 433.63 438.97, 433.50 436.50 C 434.96 433.22, 433.46 430.13, 435.50 428.50 C 435.85 425.04, 438.28 423.43, 437.50 420.50 C 440.09 417.96, 436.91 414.04, 439.50 412.50 C 440.25 406.79, 443.83 400.85, 449.50 401.50 C 455.84 403.19, 455.66 409.56, 455.50 414.50 C 456.38 420.58, 455.35 424.02, 455.50 429.50 C 456.28 435.96, 454.04 440.17, 454.50 445.50 C 452.52 447.82, 453.92 450.53, 453.50 452.50 C 452.21 455.71, 451.49 458.16, 450.50 460.50 C 450.29 463.97, 448.08 465.19, 448.50 467.50 C 449.11 471.78, 445.08 473.13, 443.50 475.50 C 440.50 478.50, 438.50 480.50, 436.50 482.50 C 436.18 486.88, 432.07 486.57, 431.50 489.50 C 428.12 491.83, 427.08 494.48, 424.50 496.50 C 423.22 499.72, 423.10 502.42, 421.50 504.50 C 420.74 510.62, 423.09 514.45, 422.50 519.50 C 420.58 522.95, 422.35 524.83, 422.50 527.50 C 420.46 530.13, 421.96 533.22, 421.50 535.50 C 421.50 538.50, 421.50 540.50, 421.50 542.50 C 423.04 546.43, 420.52 548.04, 422.50 550.50 C 423.72 553.70, 427.33 553.62, 429.50 553.50 C 432.13 551.46, 435.22 552.96, 437.50 552.50 C 443.73 552.20, 447.88 550.28, 452.50 549.50 C 458.96 550.09, 463.07 547.41, 467.50 545.50 C 470.97 546.29, 472.19 544.08, 474.50 544.50 C 477.42 542.82, 480.70 544.46, 482.50 542.50 C 488.46 539.73, 493.54 537.27, 498.50 534.50 C 503.76 529.43, 509.77 525.87, 512.50 520.50 C 513.76 513.83, 516.74 509.30, 521.50 505.50 C 526.18 500.11, 529.58 495.62, 531.50 490.50 C 533.55 484.93, 535.03 480.13, 534.50 474.50 C 534.24 468.59, 536.26 464.62, 535.50 459.50 C 535.72 453.79, 537.11 449.56, 536.50 444.50 C 536.44 438.58, 533.66 434.79, 534.50 429.50 C 535.49 426.30, 535.51 423.70, 536.50 421.50 C 535.44 418.47, 535.32 416.05, 535.50 413.50 C 535.83 407.56, 535.29 402.98, 534.50 398.50 C 534.50 392.83, 534.50 388.17, 534.50 383.50 C 533.50 372.50, 533.50 362.50, 533.50 352.50 C 530.96 347.61, 534.13 341.36, 531.50 337.50 C 530.06 332.02, 531.70 326.26, 528.50 322.50 C 527.17 319.78, 528.22 317.07, 526.50 315.50 C 526.04 312.22, 527.54 309.13, 525.50 307.50 C 526.20 303.74, 523.80 302.26, 524.50 299.50 C 525.23 295.73, 523.42 294.00, 523.50 291.50 C 520.99 289.26, 524.01 285.74, 521.50 284.50 C 521.11 281.05, 519.36 279.17, 519.50 276.50 C 516.99 274.26, 520.01 270.74, 517.50 269.50 C 517.11 266.05, 515.36 264.17, 515.50 261.50 C 513.40 256.15, 512.91 251.14, 511.50 246.50 C 511.59 242.71, 509.79 240.71, 508.50 238.50 C 507.51 235.16, 506.79 232.71, 505.50 230.50 C 506.50 223.87, 502.33 220.38, 501.50 215.50 C 498.31 209.77, 495.19 205.43, 493.50 200.50 C 489.90 194.53, 487.27 189.57, 482.50 185.50 C 480.62 178.35, 473.16 174.92, 470.50 169.50 C 464.97 164.16, 460.34 160.08, 455.50 156.50 C 449.74 153.93, 445.26 150.66, 439.50 150.50 C 433.82 149.87, 429.66 147.99, 424.50 148.50 C 418.50 148.50, 413.50 148.50, 408.50 148.50 Z" fill="rgb(253.9475046358676,224.9719713443349,1.2809402473352098)" stroke="rgb(253.9475046358676,224.9719713443349,1.2809402473352098)" stroke-width="1" />
<path d="M 410.50 276.50 C 408.07 280.05, 403.03 280.73, 403.50 285.50 C 400.90 289.31, 401.65 293.09, 401.50 296.50 C 401.81 304.77, 399.73 311.04, 400.50 318.50 C 400.46 323.09, 397.72 325.57, 398.50 329.50 C 396.90 333.31, 397.65 337.09, 397.50 340.50 C 398.27 345.29, 395.96 347.81, 396.50 351.50 C 396.93 356.62, 395.47 359.96, 394.50 363.50 C 395.04 368.19, 392.73 370.71, 393.50 374.50 C 392.63 381.50, 386.74 374.37, 385.50 372.50 C 382.56 368.00, 379.11 365.13, 377.50 361.50 C 375.68 356.76, 373.35 353.64, 373.50 349.50 C 372.40 345.07, 371.17 341.69, 369.50 338.50 C 367.99 334.00, 366.08 331.34, 361.50 332.50 C 354.19 338.77, 357.15 347.88, 356.50 355.50 C 356.47 360.54, 359.27 362.99, 359.50 366.50 C 359.51 371.38, 362.81 373.90, 363.50 377.50 C 365.77 381.62, 367.03 385.73, 370.50 387.50 C 374.38 390.60, 377.44 393.26, 381.50 393.50 C 386.38 395.23, 389.51 399.29, 391.50 402.50 C 391.50 406.83, 391.50 410.17, 391.50 413.50 C 391.28 418.43, 388.54 420.91, 388.50 424.50 C 388.00 429.41, 386.85 432.73, 388.50 436.50 C 389.20 441.26, 387.50 444.03, 387.50 447.50 C 387.50 451.83, 387.50 455.17, 387.50 458.50 C 385.71 464.48, 379.78 464.29, 377.50 460.50 C 372.38 456.16, 370.29 451.98, 366.50 448.50 C 364.35 444.09, 362.24 441.08, 361.50 437.50 C 359.26 433.13, 357.74 429.87, 356.50 426.50 C 352.65 424.47, 348.91 422.19, 345.50 424.50 C 343.68 429.10, 343.32 432.90, 342.50 436.50 C 342.25 441.21, 344.36 443.95, 344.50 447.50 C 346.64 451.77, 347.97 455.39, 350.50 458.50 C 351.65 463.33, 354.76 466.33, 357.50 469.50 C 361.93 473.26, 364.58 477.92, 368.50 479.50 C 372.87 481.41, 375.46 485.20, 379.50 485.50 C 384.76 484.98, 384.68 490.32, 384.50 493.50 C 384.35 497.91, 385.10 501.69, 383.50 504.50 C 383.85 509.45, 381.72 512.37, 382.50 516.50 C 382.84 521.11, 382.28 524.35, 381.50 527.50 C 380.80 532.26, 382.50 535.03, 382.50 538.50 C 381.50 546.83, 381.50 554.17, 381.50 561.50 C 382.04 569.86, 379.73 576.04, 380.50 583.50 C 381.27 588.29, 378.96 590.81, 379.50 594.50 C 379.50 599.17, 379.50 602.83, 379.50 606.50 C 379.50 614.50, 379.50 621.50, 379.50 628.50 C 378.70 631.30, 380.77 631.92, 380.50 633.50 C 377.69 636.00, 381.54 637.43, 380.50 639.50 C 383.71 643.65, 375.42 647.02, 373.50 644.50 C 368.89 644.16, 365.65 644.72, 362.50 645.50 C 358.17 645.50, 354.83 645.50, 351.50 645.50 C 347.30 647.50, 344.35 649.09, 340.50 648.50 C 335.07 647.67, 332.93 652.33, 328.50 651.50 C 323.67 653.65, 320.67 656.76, 317.50 659.50 C 314.20 663.16, 313.00 666.68, 312.50 670.50 C 311.32 675.32, 311.65 678.93, 314.50 681.50 C 318.87 684.56, 322.91 685.99, 326.50 688.50 C 330.48 690.36, 334.07 690.74, 337.50 691.50 C 340.30 690.70, 340.92 692.77, 342.50 692.50 C 345.00 689.69, 346.43 693.54, 348.50 692.50 C 352.83 692.50, 356.17 692.50, 359.50 692.50 C 363.50 694.78, 367.52 694.60, 371.50 694.50 C 376.20 695.80, 379.53 691.68, 382.50 694.50 C 386.83 694.50, 390.17 694.50, 393.50 694.50 C 398.19 695.04, 400.71 692.73, 404.50 693.50 C 409.19 694.04, 411.71 691.73, 415.50 692.50 C 420.11 692.84, 423.35 692.28, 426.50 691.50 C 431.21 691.75, 433.95 689.64, 437.50 689.50 C 441.91 688.35, 445.69 689.10, 448.50 687.50 C 452.86 686.09, 456.67 685.77, 460.50 685.50 C 464.27 683.47, 467.81 683.31, 471.50 683.50 C 475.30 681.41, 480.52 681.65, 481.50 677.50 C 486.02 673.58, 483.51 669.81, 482.50 666.50 C 479.97 662.28, 478.91 656.97, 474.50 655.50 C 469.64 654.78, 467.60 650.64, 463.50 651.50 C 458.61 651.18, 456.57 647.40, 452.50 648.50 C 447.61 648.18, 445.57 644.40, 441.50 645.50 C 437.39 643.48, 432.76 645.14, 429.50 643.50 C 425.17 643.50, 421.83 643.50, 418.50 643.50 C 413.54 644.31, 410.54 639.49, 413.50 636.50 C 415.83 632.44, 417.67 629.18, 418.50 625.50 C 418.50 621.03, 420.20 618.26, 419.50 614.50 C 419.41 606.19, 419.30 598.87, 421.50 592.50 C 419.34 588.92, 421.04 584.75, 420.50 581.50 C 420.72 576.79, 419.80 572.60, 421.50 569.50 C 420.73 564.71, 423.04 562.19, 422.50 558.50 C 423.27 553.71, 420.96 551.19, 421.50 547.50 C 421.50 543.17, 421.50 539.83, 421.50 536.50 C 420.59 531.38, 424.01 528.04, 421.50 524.50 C 422.27 519.65, 422.27 517.35, 421.50 513.50 C 421.11 508.74, 420.24 505.82, 422.50 502.50 C 424.52 498.04, 425.56 494.17, 429.50 491.50 C 434.67 487.86, 435.88 482.40, 439.50 480.50 C 442.70 476.16, 445.95 474.59, 447.50 470.50 C 450.04 466.81, 449.43 462.81, 450.50 459.50 C 452.99 455.51, 454.05 452.34, 453.50 448.50 C 452.91 443.65, 456.09 441.35, 455.50 437.50 C 456.88 433.88, 454.27 429.19, 456.50 426.50 C 454.72 424.76, 455.79 422.85, 455.50 421.50 C 456.48 418.90, 453.99 416.88, 456.50 415.50 C 454.66 411.51, 456.55 406.98, 453.50 404.50 C 451.00 398.40, 445.09 401.67, 442.50 404.50 C 440.22 408.86, 439.03 412.25, 437.50 415.50 C 437.75 420.21, 435.64 422.95, 435.50 426.50 C 434.35 430.91, 435.10 434.69, 433.50 437.50 C 429.00 440.03, 428.97 445.56, 426.50 448.50 C 423.39 441.24, 425.01 433.43, 424.50 426.50 C 425.40 417.99, 425.30 410.48, 426.50 403.50 C 424.66 396.13, 425.82 388.51, 425.50 381.50 C 425.91 373.39, 424.23 365.42, 427.50 359.50 C 431.85 356.03, 434.84 353.32, 436.50 349.50 C 437.46 344.60, 441.94 342.57, 441.50 338.50 C 442.86 334.31, 445.04 331.47, 444.50 327.50 C 445.50 322.83, 445.50 319.17, 445.50 315.50 C 446.25 311.97, 445.07 304.76, 442.50 308.50 C 440.06 313.06, 438.81 316.71, 435.50 319.50 C 433.71 324.20, 430.93 327.48, 427.50 330.50 C 422.92 328.76, 422.62 324.67, 422.50 320.50 C 420.12 316.88, 422.73 312.19, 420.50 309.50 C 420.50 305.17, 420.50 301.83, 420.50 298.50 C 420.50 294.17, 420.50 290.83, 420.50 287.50 C 419.83 281.41, 414.11 280.51, 411.50 276.50 Z" fill="rgb(240.00109289617487,211.16284153005464,29.20655737704918)" stroke="rgb(240.00109289617487,211.16284153005464,29.20655737704918)" stroke-width="1" />
<path d="M 408.50 277.50 C 403.43 281.70, 401.60 287.24, 401.50 293.50 C 401.50 300.17, 401.50 305.83, 401.50 311.50 C 401.50 315.17, 401.50 317.83, 401.50 320.50 C 399.14 323.88, 399.86 327.12, 398.50 329.50 C 398.32 336.23, 399.14 342.38, 397.50 347.50 C 398.38 354.47, 395.96 359.08, 395.50 364.50 C 396.28 368.63, 394.00 370.49, 394.50 373.50 C 394.27 376.44, 393.44 382.68, 390.50 379.50 C 384.28 373.20, 380.07 367.48, 376.50 361.50 C 374.37 357.89, 374.14 354.90, 372.50 352.50 C 373.37 348.39, 372.66 346.55, 371.50 343.50 C 370.11 340.05, 368.36 338.17, 368.50 335.50 C 367.24 332.35, 362.15 331.47, 360.50 333.50 C 358.01 336.96, 356.07 339.24, 356.50 342.50 C 356.75 346.20, 358.10 348.45, 357.50 351.50 C 356.80 358.87, 359.45 363.86, 360.50 369.50 C 361.84 373.16, 364.76 375.17, 364.50 378.50 C 366.08 382.24, 368.55 385.72, 371.50 386.50 C 374.53 390.70, 377.82 390.88, 380.50 392.50 C 384.14 394.23, 386.96 395.52, 389.50 397.50 C 393.91 403.23, 392.30 410.12, 391.50 415.50 C 391.73 419.54, 389.27 421.46, 389.50 424.50 C 389.25 428.20, 387.90 430.45, 388.50 433.50 C 390.25 440.61, 388.31 445.62, 388.50 451.50 C 388.92 457.69, 388.36 465.88, 381.50 464.50 C 377.84 461.48, 374.83 460.32, 372.50 457.50 C 368.66 454.18, 368.80 450.63, 365.50 448.50 C 364.16 444.84, 361.24 442.83, 361.50 439.50 C 360.82 435.29, 357.85 433.44, 357.50 430.50 C 355.72 426.55, 352.24 424.08, 349.50 423.50 C 345.50 423.74, 344.06 426.38, 344.50 429.50 C 344.13 432.65, 342.13 435.93, 343.50 437.50 C 342.72 441.63, 345.00 443.49, 344.50 446.50 C 345.66 450.65, 347.34 453.17, 349.50 455.50 C 352.30 458.70, 352.33 462.04, 354.50 464.50 C 356.37 468.88, 358.97 470.30, 361.50 472.50 C 364.53 476.16, 366.21 477.75, 369.50 478.50 C 372.53 482.70, 375.82 482.88, 378.50 484.50 C 383.35 482.76, 384.17 485.40, 385.50 488.50 C 383.92 491.04, 383.92 494.96, 385.50 496.50 C 386.10 500.55, 384.75 502.80, 384.50 505.50 C 382.86 511.62, 383.68 517.77, 383.50 523.50 C 383.50 530.17, 383.50 535.83, 383.50 541.50 C 381.58 544.65, 383.64 548.45, 381.50 550.50 C 381.00 554.51, 383.28 556.37, 382.50 559.50 C 380.27 563.23, 382.94 565.37, 382.50 568.50 C 382.10 572.55, 380.75 574.80, 380.50 577.50 C 382.47 581.13, 380.84 583.69, 380.50 586.50 C 380.50 590.17, 380.50 592.83, 380.50 595.50 C 379.01 602.51, 381.27 607.37, 380.50 613.50 C 380.74 620.86, 379.99 625.90, 380.50 631.50 C 380.96 634.78, 379.46 637.87, 381.50 639.50 C 380.71 644.60, 386.02 643.50, 387.50 646.50 C 389.03 650.74, 393.12 651.39, 395.50 652.50 C 398.44 649.41, 401.90 650.99, 404.50 650.50 C 408.17 647.11, 408.83 643.89, 411.50 641.50 C 410.59 637.04, 413.75 635.27, 414.50 632.50 C 417.56 626.27, 419.22 620.88, 418.50 614.50 C 420.20 610.74, 417.80 609.26, 418.50 606.50 C 417.72 602.37, 420.00 600.51, 419.50 597.50 C 421.59 594.56, 420.01 591.10, 420.50 588.50 C 421.00 584.49, 418.72 582.63, 419.50 579.50 C 421.59 576.56, 420.01 573.10, 420.50 570.50 C 420.00 566.49, 422.28 564.63, 421.50 561.50 C 420.89 554.95, 422.76 548.37, 420.50 543.50 C 420.04 536.84, 420.96 531.75, 421.50 526.50 C 422.12 519.44, 420.71 514.22, 420.50 508.50 C 419.18 504.29, 422.15 502.44, 422.50 499.50 C 424.57 495.58, 426.97 493.22, 428.50 490.50 C 433.21 488.91, 433.44 484.33, 436.50 482.50 C 438.52 478.81, 441.81 475.52, 444.50 474.50 C 445.18 470.29, 448.15 468.44, 448.50 465.50 C 449.79 461.96, 449.18 458.62, 451.50 456.50 C 452.86 453.12, 452.14 449.88, 453.50 447.50 C 453.99 443.90, 452.41 440.44, 454.50 438.50 C 453.88 431.44, 455.29 426.22, 455.50 420.50 C 452.31 415.10, 457.53 405.77, 451.50 403.50 C 447.77 402.20, 445.36 402.69, 443.50 404.50 C 441.08 407.99, 440.88 410.99, 439.50 413.50 C 436.85 416.35, 440.15 420.65, 437.50 422.50 C 436.76 426.14, 434.73 428.24, 435.50 431.50 C 436.03 435.94, 433.93 438.29, 431.50 440.50 C 429.83 444.03, 428.46 446.68, 427.50 449.50 C 423.40 453.02, 424.79 446.33, 424.50 444.50 C 422.41 441.56, 423.99 438.10, 423.50 435.50 C 422.75 428.72, 425.10 424.22, 424.50 418.50 C 426.52 412.53, 425.06 406.12, 425.50 400.50 C 423.24 394.63, 425.11 388.05, 424.50 382.50 C 426.77 375.53, 422.51 369.80, 425.50 364.50 C 424.55 360.22, 427.58 358.59, 429.50 356.50 C 433.32 353.17, 434.48 350.16, 436.50 347.50 C 438.25 343.73, 441.41 341.96, 440.50 338.50 C 442.01 334.77, 443.95 332.63, 443.50 329.50 C 444.01 322.49, 446.27 317.63, 445.50 311.50 C 445.59 305.41, 441.43 308.52, 441.50 311.50 C 438.98 315.23, 437.85 318.11, 435.50 320.50 C 434.41 324.54, 432.06 327.07, 429.50 329.50 C 426.69 334.81, 421.84 330.59, 422.50 327.50 C 423.28 323.37, 421.00 321.51, 421.50 318.50 C 422.00 314.49, 419.72 312.63, 420.50 309.50 C 419.50 302.83, 419.50 297.17, 419.50 291.50 C 421.56 288.38, 418.64 285.04, 418.50 282.50 C 414.97 280.49, 413.28 276.47, 409.50 277.50 Z" fill="rgb(192.76939377885415,164.76795580110496,75.10292893362598)" stroke="rgb(192.76939377885415,164.76795580110496,75.10292893362598)" stroke-width="1" />
<path d="M 621.50 246.50 C 618.51 250.83, 622.29 255.72, 621.50 260.50 C 621.42 264.00, 623.23 265.73, 622.50 268.50 C 624.52 271.48, 625.04 274.15, 623.50 276.50 C 623.50 282.17, 623.50 286.83, 623.50 291.50 C 622.53 294.37, 621.36 298.76, 618.50 295.50 C 618.70 292.25, 618.91 288.52, 615.50 289.50 C 612.33 287.90, 610.37 286.82, 608.50 285.50 C 606.52 282.65, 603.85 282.46, 601.50 281.50 C 595.58 279.64, 590.54 278.07, 585.50 276.50 C 578.95 275.54, 573.99 279.46, 571.50 283.50 C 566.63 288.49, 567.95 296.40, 572.50 299.50 C 575.07 302.88, 577.69 302.71, 579.50 304.50 C 581.52 308.09, 583.53 310.29, 579.50 312.50 C 577.47 316.46, 574.77 316.79, 572.50 318.50 C 571.47 322.51, 566.53 323.49, 566.50 326.50 C 565.25 329.67, 563.59 331.68, 561.50 333.50 C 558.91 336.04, 562.09 339.96, 559.50 341.50 C 559.20 345.23, 559.69 347.64, 561.50 349.50 C 565.15 351.52, 565.21 354.35, 568.50 353.50 C 571.79 353.13, 573.67 353.77, 575.50 354.50 C 579.53 356.18, 580.91 352.88, 583.50 352.50 C 587.41 352.90, 589.61 351.57, 591.50 349.50 C 595.01 345.60, 592.16 352.74, 594.50 353.50 C 593.44 356.53, 593.32 358.95, 593.50 361.50 C 591.04 364.48, 594.64 367.15, 594.50 369.50 C 593.83 373.39, 597.75 374.37, 596.50 377.50 C 599.59 380.81, 599.34 382.89, 597.50 385.50 C 598.10 388.67, 599.18 390.63, 600.50 392.50 C 603.42 395.18, 606.70 393.54, 608.50 395.50 C 612.27 395.77, 614.00 397.58, 616.50 397.50 C 619.71 395.37, 622.38 394.46, 623.50 391.50 C 625.80 389.04, 625.55 386.52, 626.50 384.50 C 629.69 381.66, 630.20 379.12, 630.50 376.50 C 630.50 373.17, 630.50 370.83, 630.50 368.50 C 629.55 364.73, 632.58 360.48, 634.50 364.50 C 637.36 366.16, 639.25 367.77, 641.50 368.50 C 645.63 368.47, 646.61 367.75, 649.50 368.50 C 653.02 368.63, 655.52 367.69, 657.50 365.50 C 660.01 363.86, 660.51 360.33, 661.50 358.50 C 659.09 355.64, 662.77 353.23, 661.50 350.50 C 660.11 347.05, 658.36 345.17, 658.50 342.50 C 654.83 336.09, 649.24 331.89, 646.50 326.50 C 646.10 323.33, 647.18 321.37, 648.50 319.50 C 650.28 317.09, 654.44 317.15, 653.50 313.50 C 659.21 307.79, 664.50 303.33, 666.50 297.50 C 670.90 291.77, 665.16 285.80, 660.50 285.50 C 656.11 285.04, 655.59 287.56, 653.50 289.50 C 649.22 289.89, 647.87 293.92, 645.50 295.50 C 643.07 296.55, 639.76 301.87, 639.50 297.50 C 640.23 293.73, 638.42 292.00, 638.50 289.50 C 639.23 285.73, 637.42 284.00, 637.50 281.50 C 638.23 277.73, 636.42 276.00, 636.50 273.50 C 635.16 270.45, 635.00 267.90, 634.50 265.50 C 634.15 262.04, 631.72 260.43, 632.50 257.50 C 631.00 254.10, 630.84 251.55, 629.50 249.50 C 627.64 246.69, 625.23 246.20, 622.50 246.50 Z" fill="rgb(241.92592592592592,160.09465020576133,25.078189300411523)" stroke="rgb(241.92592592592592,160.09465020576133,25.078189300411523)" stroke-width="1" />
<path d="M 412.50 642.50 C 408.52 644.62, 409.25 650.25, 405.50 651.50 C 400.01 650.18, 397.50 653.63, 393.50 653.50 C 388.25 651.43, 387.13 645.95, 383.50 644.50 C 378.83 644.50, 375.17 644.50, 371.50 644.50 C 366.18 644.55, 364.41 644.81, 360.50 645.50 C 355.65 645.72, 351.22 644.54, 348.50 647.50 C 344.10 648.47, 340.40 648.73, 336.50 648.50 C 331.98 651.18, 328.02 651.82, 324.50 653.50 C 319.84 656.06, 316.62 660.31, 314.50 663.50 C 313.27 668.21, 310.30 671.20, 310.50 675.50 C 312.81 680.56, 316.55 683.25, 320.50 684.50 C 325.07 687.40, 328.36 689.98, 332.50 690.50 C 336.31 692.10, 340.09 691.35, 343.50 691.50 C 348.21 691.73, 351.44 693.11, 355.50 692.50 C 360.62 692.07, 363.96 693.53, 367.50 694.50 C 372.40 694.73, 376.10 694.47, 379.50 693.50 C 382.30 692.70, 382.92 694.77, 384.50 694.50 C 387.57 695.54, 389.00 691.69, 390.50 694.50 C 395.54 694.72, 399.28 694.25, 402.50 692.50 C 406.41 694.85, 410.87 693.07, 413.50 691.50 C 417.72 694.18, 421.46 690.15, 425.50 691.50 C 430.24 691.82, 433.22 690.31, 436.50 689.50 C 441.61 689.31, 444.63 689.10, 448.50 687.50 C 452.86 686.09, 456.67 685.77, 460.50 685.50 C 464.22 682.54, 468.65 683.72, 472.50 683.50 C 476.36 681.26, 481.58 681.06, 482.50 676.50 C 486.84 671.39, 482.10 668.23, 481.50 664.50 C 479.54 659.99, 477.01 655.22, 472.50 654.50 C 467.82 652.54, 464.25 651.29, 460.50 650.50 C 456.87 647.80, 453.20 647.62, 449.50 647.50 C 445.51 644.87, 440.88 646.20, 437.50 644.50 C 432.55 644.85, 429.63 642.72, 425.50 643.50 C 420.93 642.94, 416.40 644.68, 413.50 642.50 Z" fill="rgb(242.91062230265905,152.40136433245164,2.478212446053181)" stroke="rgb(242.91062230265905,152.40136433245164,2.478212446053181)" stroke-width="1" />
<path d="M 187.50 366.50 C 183.31 368.03, 180.90 371.08, 180.50 375.50 C 179.10 380.34, 178.75 384.61, 177.50 388.50 C 176.78 393.70, 175.28 397.16, 173.50 400.50 C 172.17 403.44, 171.10 405.08, 169.50 406.50 C 168.56 409.47, 167.72 412.44, 165.50 412.50 C 162.79 413.54, 160.54 415.79, 160.50 417.50 C 157.90 419.33, 155.88 419.13, 154.50 420.50 C 150.16 426.93, 145.78 424.45, 141.50 422.50 C 137.08 420.90, 133.69 419.23, 129.50 419.50 C 124.60 421.30, 121.07 416.12, 116.50 416.50 C 112.10 414.53, 108.40 414.27, 104.50 414.50 C 99.67 412.42, 95.33 412.58, 91.50 411.50 C 87.19 413.93, 82.16 415.85, 81.50 420.50 C 81.05 426.38, 87.71 428.31, 86.50 433.50 C 87.39 438.63, 90.96 441.64, 92.50 445.50 C 97.38 449.27, 100.99 453.16, 103.50 457.50 C 109.03 460.47, 110.69 465.34, 114.50 468.50 C 118.75 473.98, 122.51 476.42, 126.50 480.50 C 130.79 485.08, 134.87 486.75, 138.50 489.50 C 143.49 492.19, 147.64 494.49, 151.50 497.50 C 155.90 500.15, 160.25 500.50, 163.50 503.50 C 167.93 506.55, 172.32 507.26, 176.50 508.50 C 181.27 508.57, 186.40 508.54, 187.50 504.50 C 186.66 499.30, 184.76 495.95, 185.50 491.50 C 186.11 486.44, 184.73 483.21, 184.50 479.50 C 184.31 474.30, 183.55 470.34, 182.50 466.50 C 182.42 461.59, 180.92 458.27, 180.50 454.50 C 178.79 449.66, 178.10 445.39, 176.50 441.50 C 175.27 436.79, 172.30 433.80, 172.50 429.50 C 174.01 424.02, 176.68 420.02, 180.50 416.50 C 183.81 412.10, 185.19 407.90, 188.50 404.50 C 190.19 399.51, 192.18 395.65, 193.50 391.50 C 194.32 386.90, 194.68 383.10, 195.50 379.50 C 195.81 373.41, 192.09 369.98, 188.50 366.50 Z" fill="rgb(243.73846153846154,209.46153846153845,79.6923076923077)" stroke="rgb(243.73846153846154,209.46153846153845,79.6923076923077)" stroke-width="1" />
<path d="M 185.50 367.50 C 181.65 370.26, 181.28 374.47, 180.50 378.50 C 179.28 383.41, 177.90 387.25, 177.50 391.50 C 175.61 393.52, 176.86 395.84, 176.50 397.50 C 173.58 399.65, 173.19 401.43, 173.50 403.50 C 168.01 407.23, 169.38 414.09, 163.50 414.50 C 160.98 420.57, 154.99 418.69, 152.50 423.50 C 147.46 427.48, 143.34 422.34, 139.50 421.50 C 134.80 420.91, 131.84 418.54, 127.50 419.50 C 122.94 417.78, 118.57 417.00, 114.50 415.50 C 108.96 414.38, 106.32 415.62, 102.50 413.50 C 100.48 411.61, 98.16 412.86, 96.50 412.50 C 93.78 412.12, 91.07 410.15, 89.50 412.50 C 85.37 415.82, 81.30 416.19, 81.50 421.50 C 82.33 426.85, 87.92 429.22, 86.50 434.50 C 90.09 438.65, 89.91 443.35, 93.50 446.50 C 98.47 450.24, 101.51 454.36, 104.50 458.50 C 110.33 461.52, 111.95 467.40, 116.50 470.50 C 119.10 476.27, 125.69 477.05, 127.50 481.50 C 132.16 484.85, 135.22 488.66, 139.50 489.50 C 144.73 492.29, 148.34 495.55, 152.50 497.50 C 156.84 500.96, 161.28 500.76, 164.50 503.50 C 167.88 503.77, 168.95 506.23, 170.50 507.50 C 173.79 507.13, 175.67 507.77, 177.50 508.50 C 181.58 507.81, 187.61 508.38, 187.50 504.50 C 186.06 499.54, 184.99 495.85, 185.50 491.50 C 186.01 486.15, 184.94 482.46, 184.50 478.50 C 184.01 473.43, 183.98 469.17, 182.50 465.50 C 182.18 460.55, 181.31 456.83, 179.50 453.50 C 179.78 447.97, 176.69 444.84, 176.50 440.50 C 174.35 435.90, 171.55 432.98, 172.50 428.50 C 173.27 422.71, 178.16 419.64, 180.50 415.50 C 182.64 410.48, 187.23 407.88, 187.50 403.50 C 191.35 398.99, 191.10 394.20, 193.50 390.50 C 192.93 385.13, 195.26 381.95, 194.50 377.50 C 194.58 372.42, 191.23 366.86, 186.50 367.50 Z" fill="rgb(253.90270448548813,224.89643799472296,1.954650395778364)" stroke="rgb(253.90270448548813,224.89643799472296,1.954650395778364)" stroke-width="1" />
<path d="M 230.50 148.50 C 227.71 149.53, 225.39 151.71, 222.50 152.50 C 218.29 153.18, 216.44 156.15, 213.50 156.50 C 209.51 158.05, 207.08 160.97, 204.50 163.50 C 203.21 167.80, 200.03 170.31, 198.50 173.50 C 195.35 176.83, 195.16 179.97, 193.50 182.50 C 190.95 186.13, 191.83 190.19, 188.50 192.50 C 189.44 196.83, 186.07 198.38, 186.50 201.50 C 183.24 205.37, 178.84 205.00, 179.50 209.50 C 177.70 214.33, 182.26 214.62, 184.50 215.50 C 188.73 216.94, 191.13 219.40, 194.50 219.50 C 198.63 220.05, 200.77 221.99, 203.50 222.50 C 207.03 223.96, 210.39 223.43, 213.50 223.50 C 217.10 224.01, 220.56 225.59, 222.50 223.50 C 226.79 223.53, 230.25 223.97, 232.50 221.50 C 236.44 221.15, 238.29 218.18, 241.50 218.50 C 245.87 217.40, 248.27 214.94, 251.50 214.50 C 255.42 212.12, 257.99 209.87, 260.50 207.50 C 262.43 203.04, 265.92 202.50, 267.50 199.50 C 269.83 195.69, 273.10 193.69, 273.50 190.50 C 276.49 187.27, 275.37 182.31, 278.50 181.50 C 283.04 181.23, 283.01 176.82, 283.50 174.50 C 282.57 169.85, 286.49 167.73, 289.50 167.50 C 293.52 165.68, 295.38 162.08, 298.50 161.50 C 301.95 158.16, 306.10 155.97, 307.50 153.50 C 303.46 154.27, 301.54 156.73, 298.50 156.50 C 294.29 157.66, 291.71 159.34, 288.50 159.50 C 285.12 160.86, 281.88 160.14, 279.50 161.50 C 275.72 164.32, 272.15 161.20, 269.50 160.50 C 265.38 158.92, 263.52 155.32, 260.50 154.50 C 256.48 152.54, 253.52 151.46, 250.50 150.50 C 244.18 148.19, 237.83 148.37, 231.50 148.50 Z" fill="rgb(241.13235294117646,161.5343137254902,27.67156862745098)" stroke="rgb(241.13235294117646,161.5343137254902,27.67156862745098)" stroke-width="1" />
<path d="M 232.50 149.50 C 230.26 151.52, 226.41 149.67, 224.50 152.50 C 220.08 152.67, 218.82 157.07, 215.50 156.50 C 211.09 157.40, 210.13 159.90, 207.50 162.50 C 202.68 163.93, 203.50 168.77, 200.50 170.50 C 197.77 174.14, 196.48 176.96, 194.50 179.50 C 194.15 183.44, 191.18 185.29, 191.50 188.50 C 188.34 191.69, 189.07 195.07, 187.50 197.50 C 185.75 201.54, 184.09 205.05, 180.50 206.50 C 178.30 210.40, 178.56 213.84, 182.50 214.50 C 187.20 214.00, 188.10 219.27, 191.50 218.50 C 194.86 220.25, 197.55 221.18, 200.50 221.50 C 204.51 222.00, 206.37 224.28, 209.50 223.50 C 216.17 223.50, 221.83 223.50, 227.50 223.50 C 230.99 222.08, 233.99 221.88, 236.50 220.50 C 240.39 217.89, 243.98 217.99, 246.50 215.50 C 250.60 215.21, 252.40 211.79, 255.50 211.50 C 259.35 209.10, 261.45 206.43, 262.50 203.50 C 267.07 201.85, 268.04 197.59, 270.50 195.50 C 272.46 191.68, 273.83 189.03, 275.50 186.50 C 275.32 181.57, 279.12 180.70, 281.50 179.50 C 282.75 175.80, 284.10 173.55, 283.50 170.50 C 287.32 168.21, 289.69 165.82, 292.50 164.50 C 296.36 161.16, 299.69 159.96, 302.50 157.50 C 298.99 157.88, 295.99 158.08, 293.50 159.50 C 289.34 161.59, 287.17 160.89, 284.50 161.50 C 280.80 162.75, 278.55 164.10, 275.50 163.50 C 270.81 164.41, 268.87 159.46, 265.50 162.50 C 259.78 162.19, 266.38 157.15, 261.50 156.50 C 258.14 153.75, 255.45 152.82, 252.50 152.50 C 245.10 151.81, 240.00 148.96, 233.50 149.50 Z" fill="rgb(241.98078699427305,154.13800110844264,4.58802881950859)" stroke="rgb(241.98078699427305,154.13800110844264,4.58802881950859)" stroke-width="1" />
<path d="M 579.50 276.50 C 576.99 278.81, 572.60 280.13, 571.50 283.50 C 567.17 286.40, 568.93 290.40, 568.50 293.50 C 569.40 298.12, 573.63 299.65, 575.50 301.50 C 579.56 304.21, 582.24 307.38, 581.50 311.50 C 577.14 313.97, 574.67 317.57, 571.50 319.50 C 568.46 322.58, 566.46 324.61, 566.50 328.50 C 564.54 332.27, 559.65 333.37, 560.50 337.50 C 559.05 341.35, 559.05 345.65, 560.50 348.50 C 563.92 351.68, 567.10 356.95, 570.50 353.50 C 574.09 354.41, 577.91 356.86, 580.50 354.50 C 583.80 350.82, 588.75 354.51, 590.50 350.50 C 594.98 347.09, 595.59 355.70, 593.50 357.50 C 593.74 362.21, 592.12 364.18, 593.50 367.50 C 593.96 372.47, 596.14 375.31, 597.50 378.50 C 602.81 381.93, 594.75 385.58, 598.50 388.50 C 600.05 392.97, 603.38 395.23, 607.50 394.50 C 611.34 396.56, 614.52 396.79, 617.50 397.50 C 620.44 394.78, 623.95 392.04, 624.50 388.50 C 624.85 383.38, 629.26 382.94, 629.50 379.50 C 629.50 375.17, 629.50 371.83, 629.50 368.50 C 625.80 369.30, 623.68 366.51, 624.50 362.50 C 622.15 358.26, 618.76 357.54, 615.50 356.50 C 614.57 352.39, 614.04 349.03, 615.50 346.50 C 615.32 341.43, 614.64 339.39, 615.50 335.50 C 615.50 331.50, 615.50 328.50, 615.50 325.50 C 616.35 321.44, 618.47 318.90, 618.50 315.50 C 618.50 311.50, 618.50 308.50, 618.50 305.50 C 619.16 301.32, 620.46 297.56, 618.50 294.50 C 619.23 288.93, 614.90 289.78, 612.50 287.50 C 608.82 283.93, 605.28 282.43, 601.50 281.50 C 597.44 280.65, 594.90 278.53, 591.50 278.50 C 587.03 277.50, 584.26 275.80, 580.50 276.50 Z" fill="rgb(242.8871829105474,152.81174899866488,4.2256341789052065)" stroke="rgb(242.8871829105474,152.81174899866488,4.2256341789052065)" stroke-width="1" />
<path d="M 624.50 246.50 C 621.96 247.48, 618.49 250.80, 621.50 253.50 C 622.03 257.42, 622.97 260.17, 622.50 263.50 C 624.42 266.65, 622.36 270.45, 624.50 272.50 C 624.75 276.74, 622.73 279.04, 623.50 282.50 C 623.50 286.17, 623.50 288.83, 623.50 291.50 C 623.89 296.08, 620.11 297.92, 620.50 301.50 C 620.09 308.94, 621.81 316.26, 618.50 321.50 C 617.50 328.50, 617.50 334.50, 617.50 340.50 C 617.99 344.10, 616.41 347.56, 618.50 349.50 C 620.47 354.00, 623.10 355.11, 626.50 356.50 C 629.60 360.46, 631.54 362.40, 634.50 364.50 C 638.55 365.53, 641.52 370.55, 644.50 367.50 C 648.45 368.84, 651.80 370.82, 654.50 367.50 C 658.90 365.08, 660.46 361.90, 661.50 358.50 C 661.01 354.90, 662.59 351.44, 660.50 349.50 C 658.02 345.98, 659.74 341.71, 656.50 339.50 C 654.03 335.61, 650.97 333.39, 649.50 330.50 C 645.05 327.03, 644.96 323.36, 647.50 320.50 C 651.96 317.69, 652.12 315.24, 654.50 312.50 C 656.35 308.49, 661.99 307.32, 662.50 303.50 C 664.55 299.25, 668.34 297.13, 668.50 293.50 C 668.11 288.79, 664.56 286.65, 661.50 285.50 C 656.77 284.83, 655.55 287.11, 653.50 289.50 C 649.01 291.33, 646.45 294.39, 643.50 296.50 C 639.67 300.86, 637.61 298.20, 638.50 294.50 C 638.32 290.71, 639.22 287.06, 637.50 284.50 C 638.25 276.77, 635.38 271.55, 634.50 265.50 C 632.91 261.74, 632.89 258.34, 631.50 255.50 C 630.41 251.31, 629.25 247.77, 625.50 246.50 Z" fill="rgb(242.8935372186959,152.70311598384305,3.8358338141950377)" stroke="rgb(242.8935372186959,152.70311598384305,3.8358338141950377)" stroke-width="1" />
<path d="M 615.50 499.50 C 610.86 502.93, 610.01 506.66, 605.50 510.50 C 602.33 511.89, 600.37 507.63, 598.50 510.50 C 596.18 512.48, 593.47 511.08, 591.50 511.50 C 586.45 512.24, 581.43 516.02, 584.50 520.50 C 585.35 524.10, 581.62 523.95, 580.50 526.50 C 580.75 530.72, 576.29 528.53, 575.50 531.50 C 572.81 536.49, 570.51 540.64, 567.50 544.50 C 566.54 549.85, 564.53 553.76, 564.50 558.50 C 564.63 563.24, 563.21 568.39, 566.50 571.50 C 571.44 576.35, 573.50 580.50, 579.50 579.50 C 584.89 579.77, 587.82 576.52, 592.50 577.50 C 595.57 575.15, 596.88 576.35, 599.50 576.50 C 602.88 573.93, 602.71 571.31, 604.50 569.50 C 608.89 566.16, 611.01 560.78, 614.50 557.50 C 616.41 551.97, 619.39 546.50, 624.50 545.50 C 630.21 542.76, 628.45 537.34, 630.50 533.50 C 627.78 530.93, 628.83 528.22, 627.50 526.50 C 625.89 524.10, 622.58 523.21, 622.50 520.50 C 626.77 515.73, 626.05 511.53, 625.50 506.50 C 628.15 500.35, 621.03 498.49, 616.50 499.50 Z" fill="rgb(207.6595744680851,173.7659574468085,78.85106382978724)" stroke="rgb(207.6595744680851,173.7659574468085,78.85106382978724)" stroke-width="1" />
<path d="M 579.50 276.50 C 577.27 277.29, 575.88 280.09, 573.50 280.50 C 571.92 283.87, 567.89 285.22, 568.50 288.50 C 567.91 295.82, 572.55 300.27, 577.50 303.50 C 580.29 305.31, 580.12 307.93, 582.50 309.50 C 578.74 312.00, 578.13 315.91, 575.50 316.50 C 571.22 317.81, 571.38 322.07, 568.50 323.50 C 567.11 325.95, 565.36 327.83, 565.50 330.50 C 561.07 330.40, 562.11 334.15, 560.50 335.50 C 561.23 339.27, 559.42 341.00, 559.50 343.50 C 559.83 350.05, 565.82 354.45, 571.50 353.50 C 574.77 353.51, 575.97 356.12, 578.50 355.50 C 581.74 353.62, 583.53 351.63, 586.50 352.50 C 590.87 352.73, 590.71 347.53, 593.50 347.50 C 596.57 350.51, 597.90 346.03, 597.50 343.50 C 597.26 338.55, 601.64 342.31, 600.50 344.50 C 600.83 340.10, 604.75 342.21, 603.50 345.50 C 604.55 349.76, 607.44 349.73, 609.50 351.50 C 612.71 351.38, 610.92 347.26, 611.50 345.50 C 613.48 343.18, 612.08 340.47, 612.50 338.50 C 613.56 335.47, 613.68 333.05, 613.50 330.50 C 613.42 327.00, 615.23 325.27, 614.50 322.50 C 613.87 318.22, 621.22 316.87, 618.50 314.50 C 618.08 311.53, 619.48 308.82, 617.50 307.50 C 616.72 303.57, 619.15 301.96, 619.50 299.50 C 619.58 296.00, 617.77 294.27, 618.50 291.50 C 615.06 289.75, 613.27 287.44, 610.50 287.50 C 607.39 281.30, 600.80 282.58, 596.50 280.50 C 590.35 278.87, 586.31 275.54, 580.50 276.50 Z" fill="rgb(242.9673784104389,152.21915776986953,2.2538552787663106)" stroke="rgb(242.9673784104389,152.21915776986953,2.2538552787663106)" stroke-width="1" />
<path d="M 582.50 524.50 C 580.95 527.42, 579.82 529.63, 576.50 530.50 C 574.56 534.80, 572.02 537.44, 570.50 540.50 C 566.67 543.41, 568.52 547.26, 566.50 549.50 C 566.39 554.06, 563.58 556.69, 565.50 559.50 C 564.21 562.77, 564.46 565.68, 564.50 568.50 C 566.01 573.32, 571.65 574.49, 572.50 577.50 C 575.20 578.75, 577.45 580.10, 580.50 579.50 C 584.84 579.65, 586.98 576.90, 590.50 577.50 C 594.82 577.03, 596.08 574.74, 599.50 576.50 C 603.26 574.84, 602.55 568.68, 606.50 568.50 C 607.45 564.12, 611.87 562.60, 612.50 559.50 C 616.19 556.06, 617.00 552.84, 617.50 549.50 C 614.37 545.20, 610.82 545.34, 608.50 542.50 C 604.74 540.91, 600.79 542.22, 598.50 539.50 C 595.22 536.18, 594.12 532.72, 590.50 532.50 C 586.72 530.81, 586.45 525.08, 583.50 524.50 Z" fill="rgb(218.7055183084064,175.85714285714286,40.43011861784425)" stroke="rgb(218.7055183084064,175.85714285714286,40.43011861784425)" stroke-width="1" />
<path d="M 446.50 402.50 C 442.19 405.35, 441.26 409.59, 439.50 413.50 C 439.93 418.62, 438.47 421.96, 437.50 425.50 C 434.59 429.67, 438.22 434.00, 435.50 437.50 C 431.04 441.56, 429.74 445.52, 428.50 449.50 C 428.43 455.10, 423.62 457.33, 423.50 461.50 C 422.73 466.40, 422.47 470.10, 421.50 473.50 C 421.50 478.17, 421.50 481.83, 421.50 485.50 C 421.86 488.16, 420.61 490.48, 422.50 491.50 C 423.36 494.29, 424.62 497.54, 425.50 493.50 C 429.73 488.62, 433.77 486.94, 435.50 482.50 C 438.44 480.08, 439.28 478.21, 440.50 476.50 C 442.88 475.01, 445.74 474.61, 445.50 472.50 C 447.99 468.31, 448.84 464.45, 449.50 460.50 C 452.42 456.49, 452.19 452.18, 453.50 448.50 C 454.20 444.40, 453.28 440.21, 453.50 436.50 C 454.50 431.83, 454.50 428.17, 454.50 424.50 C 454.50 419.83, 454.50 416.17, 454.50 412.50 C 455.21 407.26, 452.42 401.69, 447.50 402.50 Z" fill="rgb(191.47745208568207,163.5022547914318,76.42784667418263)" stroke="rgb(191.47745208568207,163.5022547914318,76.42784667418263)" stroke-width="1" />
<path d="M 615.50 499.50 C 612.98 502.30, 610.47 503.37, 609.50 506.50 C 606.88 508.18, 604.41 513.82, 601.50 510.50 C 597.86 509.84, 594.68 513.25, 592.50 511.50 C 588.97 512.01, 585.33 513.21, 584.50 515.50 C 584.00 519.51, 586.28 521.37, 585.50 524.50 C 587.77 527.69, 588.98 532.07, 592.50 531.50 C 596.64 534.83, 597.60 538.07, 600.50 540.50 C 604.56 540.22, 607.18 540.99, 609.50 542.50 C 613.20 544.09, 615.11 547.57, 618.50 547.50 C 622.59 546.53, 625.38 545.82, 627.50 543.50 C 628.75 539.80, 630.10 537.55, 629.50 534.50 C 628.76 530.86, 626.73 528.76, 627.50 525.50 C 623.29 524.33, 621.75 521.75, 622.50 518.50 C 626.05 517.10, 625.48 512.93, 625.50 510.50 C 625.50 506.83, 625.50 504.17, 625.50 501.50 C 622.56 498.41, 619.10 499.99, 616.50 499.50 Z" fill="rgb(135.6893676164003,126.1626129256428,66.72828353022932)" stroke="rgb(135.6893676164003,126.1626129256428,66.72828353022932)" stroke-width="1" />
<path d="M 346.50 424.50 C 344.09 429.25, 343.34 434.68, 343.50 440.50 C 344.22 444.56, 344.99 447.18, 346.50 449.50 C 347.18 453.58, 350.37 455.61, 351.50 458.50 C 352.84 462.11, 354.56 464.14, 355.50 466.50 C 357.62 471.01, 361.29 470.71, 363.50 473.50 C 365.06 477.73, 369.59 477.21, 371.50 479.50 C 374.55 482.99, 377.25 483.90, 380.50 483.50 C 387.85 483.05, 384.77 474.17, 385.50 469.50 C 384.41 466.72, 381.13 463.97, 378.50 463.50 C 375.07 459.60, 371.83 458.64, 369.50 455.50 C 367.27 451.93, 365.38 449.22, 363.50 446.50 C 361.83 442.97, 360.46 440.32, 359.50 437.50 C 357.17 434.25, 357.83 430.75, 355.50 428.50 C 353.45 425.01, 350.75 424.10, 347.50 424.50 Z" fill="rgb(191.66265060240963,163.66092943201377,76.21170395869191)" stroke="rgb(191.66265060240963,163.66092943201377,76.21170395869191)" stroke-width="1" />
<path d="M 362.50 332.50 C 359.89 333.90, 357.19 336.12, 357.50 339.50 C 356.27 342.86, 358.14 345.29, 357.50 348.50 C 359.28 352.63, 357.00 354.49, 357.50 357.50 C 358.62 361.12, 360.31 363.50, 360.50 366.50 C 359.47 371.28, 363.49 372.97, 365.50 375.50 C 364.97 379.94, 367.07 382.29, 369.50 384.50 C 372.74 388.20, 375.53 389.56, 378.50 390.50 C 382.57 390.87, 383.69 395.93, 387.50 394.50 C 391.73 398.07, 392.19 394.34, 392.50 391.50 C 393.79 388.23, 393.54 385.32, 393.50 382.50 C 389.69 380.44, 387.43 378.80, 386.50 375.50 C 382.54 372.09, 380.80 369.18, 378.50 366.50 C 377.41 362.73, 373.52 361.13, 374.50 357.50 C 372.97 353.68, 370.52 351.21, 372.50 348.50 C 372.82 344.29, 369.85 342.44, 369.50 339.50 C 368.18 335.63, 367.60 331.32, 363.50 332.50 Z" fill="rgb(191.4463480613165,163.45085662759243,76.46798917944093)" stroke="rgb(191.4463480613165,163.45085662759243,76.46798917944093)" stroke-width="1" />
<path d="M 186.50 366.50 C 184.63 367.98, 180.81 369.23, 181.50 372.50 C 180.75 376.13, 179.82 378.69, 179.50 381.50 C 179.11 384.95, 177.36 386.83, 177.50 389.50 C 175.36 392.55, 177.42 396.35, 175.50 398.50 C 173.17 401.83, 171.55 404.05, 170.50 406.50 C 167.78 410.15, 166.81 413.29, 163.50 414.50 C 162.20 416.22, 158.60 420.14, 160.50 420.50 C 162.68 423.89, 163.93 426.73, 167.50 426.50 C 171.08 429.21, 172.92 426.62, 174.50 424.50 C 176.08 420.38, 179.68 418.52, 180.50 415.50 C 183.69 412.52, 184.63 410.02, 185.50 407.50 C 188.36 404.05, 189.87 401.46, 190.50 398.50 C 192.37 392.11, 195.24 387.55, 194.50 381.50 C 195.04 378.22, 196.54 375.13, 194.50 373.50 C 192.23 370.31, 191.02 365.93, 187.50 366.50 Z" fill="rgb(253.64,224.62358974358975,4.4512820512820515)" stroke="rgb(253.64,224.62358974358975,4.4512820512820515)" stroke-width="1" />
<path d="M 480.50 249.50 C 480.94 250.40, 479.49 253.17, 481.50 252.50 C 484.84 253.23, 482.94 249.50, 481.50 250.50 Z" fill="rgb(241.76923076923077,206.15384615384616,95.46153846153847)" stroke="rgb(241.76923076923077,206.15384615384616,95.46153846153847)" stroke-width="1" />
</svg>