<svg xmlns="http://www.w3.org/2000/svg" width="800" height="800" viewbox="0 0 800 800">
<path d="M 0.00 0.00 C 0.00 266.00, 0.00 532.00, 0.00 798.00 C 266.00 799.00, 532.00 799.00, 798.00 799.00 C 799.00 533.00, 799.00 267.00, 799.00 1.00 C 533.00 0.00, 267.00 0.00, 1.00 0.00 Z" fill="rgb(254.79826235435917,254.37237176911745,253.5990441274943)" stroke="rgb(254.79826235435917,254.37237176911745,253.5990441274943)" stroke-width="1" />
<path d="M 393.00 40.00 C 389.12 42.23, 383.56 40.41, 379.00 41.00 C 372.56 40.28, 368.18 42.10, 363.00 42.00 C 357.83 44.66, 351.20 41.41, 347.00 44.00 C 340.61 43.72, 336.17 45.75, 331.00 46.00 C 327.31 45.80, 325.08 46.72, 323.00 48.00 C 319.31 47.80, 317.08 48.72, 315.00 50.00 C 308.96 51.24, 303.50 51.45, 299.00 54.00 C 295.80 54.99, 293.20 55.01, 291.00 56.00 C 287.55 56.39, 285.67 58.14, 283.00 58.00 C 280.01 59.83, 276.73 58.55, 275.00 61.00 C 271.07 61.22, 269.46 63.65, 267.00 64.00 C 261.42 66.21, 256.74 68.17, 252.00 70.00 C 248.89 71.88, 246.11 72.12, 244.00 74.00 C 241.01 76.83, 237.73 75.55, 236.00 78.00 C 232.41 79.38, 230.59 81.62, 228.00 82.00 C 224.44 82.79, 223.10 86.53, 220.00 86.00 C 217.08 89.33, 213.72 88.18, 212.00 91.00 C 208.79 93.63, 205.52 92.71, 204.00 96.00 C 200.85 98.12, 198.88 100.65, 196.00 101.00 C 193.35 102.72, 191.80 106.15, 189.00 106.00 C 183.31 111.75, 177.79 114.50, 173.00 119.00 C 169.07 120.14, 168.64 122.99, 166.00 125.00 C 162.62 126.33, 161.58 128.98, 159.00 131.00 C 155.62 132.65, 155.34 136.73, 152.00 137.00 C 148.87 140.21, 147.96 142.88, 145.00 144.00 C 142.60 146.61, 141.71 149.92, 139.00 150.00 C 136.88 153.96, 134.21 154.87, 132.00 157.00 C 130.72 160.87, 128.36 162.72, 126.00 164.00 C 124.88 168.28, 122.00 168.84, 120.00 171.00 C 116.34 177.00, 112.78 182.05, 109.00 187.00 C 105.19 193.22, 100.69 197.73, 98.00 203.00 C 94.22 205.73, 94.72 208.83, 93.00 211.00 C 91.71 214.35, 89.45 216.30, 89.00 219.00 C 87.04 225.57, 81.30 229.16, 81.00 235.00 C 78.56 241.37, 74.56 245.68, 73.00 251.00 C 68.55 256.40, 68.66 262.27, 66.00 267.00 C 65.14 270.67, 63.39 272.55, 63.00 275.00 C 62.78 278.93, 60.35 280.54, 60.00 283.00 C 58.43 289.18, 55.83 293.51, 56.00 299.00 C 54.72 302.08, 53.80 304.31, 54.00 307.00 C 52.50 310.40, 52.34 312.95, 51.00 315.00 C 51.08 318.50, 49.27 320.23, 50.00 323.00 C 48.54 326.28, 50.04 329.37, 48.00 331.00 C 45.41 333.54, 48.59 337.46, 46.00 339.00 C 46.18 342.55, 46.06 344.97, 45.00 347.00 C 44.61 352.98, 43.46 357.64, 44.00 363.00 C 42.05 368.33, 43.39 374.02, 43.00 379.00 C 43.00 385.00, 43.00 390.00, 43.00 395.00 C 43.00 406.00, 43.00 416.00, 43.00 426.00 C 43.94 431.75, 44.25 436.76, 44.00 442.00 C 44.97 448.29, 45.84 453.20, 47.00 458.00 C 46.80 461.69, 47.72 463.92, 49.00 466.00 C 48.27 469.77, 50.08 471.50, 50.00 474.00 C 50.50 477.40, 50.66 479.95, 52.00 482.00 C 52.50 485.40, 52.66 487.95, 54.00 490.00 C 54.99 493.20, 55.01 495.80, 56.00 498.00 C 57.68 500.92, 56.04 504.20, 58.00 506.00 C 60.40 511.70, 62.15 516.66, 63.00 522.00 C 63.91 525.79, 65.71 527.79, 67.00 530.00 C 68.83 532.99, 67.55 536.27, 70.00 538.00 C 69.88 541.93, 73.58 543.29, 74.00 546.00 C 74.38 549.59, 76.62 551.41, 77.00 554.00 C 81.27 559.75, 81.12 565.92, 86.00 570.00 C 87.29 573.21, 88.01 575.66, 89.00 578.00 C 92.78 580.73, 92.28 583.83, 94.00 586.00 C 96.21 589.25, 97.27 591.97, 100.00 594.00 C 100.28 597.87, 102.64 599.72, 105.00 601.00 C 106.82 607.63, 112.69 611.58, 115.00 617.00 C 118.73 619.89, 118.27 623.11, 121.00 625.00 C 124.73 626.89, 124.27 630.11, 127.00 632.00 C 132.08 637.97, 136.06 641.97, 141.00 647.00 C 146.67 652.67, 151.33 657.33, 156.00 662.00 C 161.86 667.34, 166.15 673.05, 172.00 675.00 C 174.77 677.06, 174.74 679.95, 178.00 680.00 C 182.15 681.35, 181.98 685.36, 185.00 686.00 C 190.27 691.77, 196.53 692.72, 201.00 698.00 C 207.07 700.50, 211.15 705.37, 217.00 706.00 C 222.55 711.08, 228.40 712.04, 233.00 716.00 C 238.88 718.95, 244.23 720.78, 249.00 724.00 C 254.92 726.54, 260.16 728.29, 265.00 731.00 C 270.80 733.49, 276.12 734.71, 281.00 737.00 C 284.93 736.22, 286.54 738.65, 289.00 739.00 C 292.40 740.50, 294.95 740.66, 297.00 742.00 C 303.20 742.85, 307.98 744.72, 313.00 746.00 C 315.80 747.96, 319.08 746.32, 321.00 748.00 C 324.50 747.92, 326.23 749.73, 329.00 749.00 C 331.63 751.04, 334.72 749.54, 337.00 750.00 C 340.50 750.92, 342.23 752.73, 345.00 752.00 C 350.55 753.74, 356.30 752.60, 361.00 754.00 C 367.18 753.90, 371.56 755.72, 377.00 755.00 C 382.75 755.94, 387.76 756.25, 393.00 756.00 C 398.67 756.00, 403.33 756.00, 408.00 756.00 C 413.20 753.41, 419.83 756.66, 424.00 754.00 C 430.42 754.69, 434.58 752.31, 440.00 753.00 C 443.50 753.08, 445.23 751.27, 448.00 752.00 C 450.92 750.32, 454.20 751.96, 456.00 750.00 C 459.76 750.70, 461.24 748.30, 464.00 749.00 C 467.67 749.14, 469.55 747.39, 472.00 747.00 C 478.44 746.72, 483.05 744.46, 488.00 743.00 C 491.93 743.78, 493.54 741.35, 496.00 741.00 C 499.40 740.50, 501.95 740.34, 504.00 739.00 C 509.80 736.84, 514.79 735.17, 520.00 734.00 C 525.91 730.79, 531.23 729.56, 536.00 727.00 C 538.72 724.18, 542.08 725.33, 544.00 723.00 C 548.03 722.68, 549.41 719.38, 552.00 719.00 C 557.98 716.28, 562.85 713.31, 568.00 711.00 C 571.93 710.12, 573.29 706.42, 576.00 706.00 C 579.33 704.67, 581.55 703.05, 584.00 702.00 C 589.83 697.25, 595.28 695.01, 600.00 691.00 C 605.93 686.16, 610.48 681.42, 616.00 679.00 C 619.02 675.25, 621.98 674.75, 624.00 672.00 C 625.16 668.66, 629.30 668.96, 631.00 667.00 C 635.48 661.32, 641.71 657.09, 646.00 652.00 C 650.51 646.41, 655.48 642.00, 659.00 637.00 C 662.21 634.75, 663.27 632.03, 666.00 630.00 C 667.35 627.12, 669.88 625.15, 672.00 623.00 C 676.00 617.14, 678.89 611.82, 683.00 607.00 C 685.05 603.55, 686.67 601.33, 688.00 599.00 C 690.78 596.71, 691.22 593.87, 694.00 592.00 C 697.48 585.92, 700.69 581.15, 703.00 576.00 C 705.49 569.65, 709.24 565.24, 711.00 560.00 C 711.85 556.19, 715.65 555.01, 715.00 552.00 C 716.99 548.66, 717.71 546.21, 719.00 544.00 C 721.94 538.25, 723.55 532.95, 726.00 528.00 C 726.86 524.33, 728.61 522.45, 729.00 520.00 C 731.45 517.27, 730.17 513.99, 732.00 512.00 C 734.76 506.45, 733.94 500.42, 737.00 496.00 C 736.92 492.50, 738.73 490.77, 738.00 488.00 C 739.39 484.55, 741.14 482.67, 741.00 480.00 C 740.30 476.24, 742.70 474.76, 742.00 472.00 C 743.96 469.20, 742.32 465.92, 744.00 464.00 C 744.99 458.13, 746.67 453.55, 746.00 448.00 C 746.46 441.64, 747.61 436.98, 748.00 432.00 C 748.94 426.25, 749.25 421.24, 749.00 416.00 C 748.47 409.63, 750.24 403.99, 750.00 400.00 C 750.61 393.94, 749.22 389.71, 749.00 385.00 C 748.61 379.02, 749.95 373.33, 748.00 369.00 C 748.69 362.58, 746.31 358.42, 747.00 353.00 C 747.33 346.59, 745.71 341.98, 745.00 337.00 C 742.96 334.37, 744.46 331.28, 744.00 329.00 C 743.73 325.23, 741.92 323.50, 742.00 321.00 C 741.59 314.34, 738.71 310.12, 738.00 305.00 C 737.41 298.42, 733.83 294.48, 734.00 289.00 C 731.80 282.81, 730.47 277.67, 728.00 273.00 C 728.09 269.21, 726.29 267.21, 725.00 265.00 C 724.25 261.56, 721.94 259.77, 722.00 257.00 C 718.96 251.02, 716.55 246.19, 715.00 241.00 C 713.13 237.48, 712.19 234.98, 710.00 233.00 C 709.13 229.48, 708.19 226.98, 706.00 225.00 C 703.98 218.73, 700.02 214.27, 698.00 209.00 C 694.67 202.58, 689.79 198.22, 687.00 193.00 C 680.96 187.57, 680.04 181.43, 675.00 177.00 C 670.97 171.01, 667.03 165.99, 663.00 161.00 C 657.48 154.80, 652.62 151.55, 649.00 146.00 C 643.33 141.33, 638.67 136.67, 634.00 132.00 C 628.37 125.76, 622.72 123.02, 618.00 118.00 C 612.21 113.50, 606.96 110.09, 602.00 106.00 C 595.84 102.04, 591.32 97.56, 586.00 95.00 C 580.13 91.02, 574.74 89.31, 570.00 86.00 C 567.02 83.15, 563.98 83.85, 562.00 82.00 C 558.89 79.12, 556.11 78.88, 554.00 77.00 C 547.83 75.08, 543.68 70.68, 538.00 70.00 C 534.41 68.62, 532.59 66.38, 530.00 66.00 C 526.07 65.78, 524.46 63.35, 522.00 63.00 C 518.13 62.64, 516.87 59.36, 514.00 60.00 C 510.45 59.18, 508.03 59.06, 506.00 58.00 C 499.55 56.75, 495.41 53.34, 490.00 53.00 C 486.95 51.66, 484.40 51.50, 482.00 51.00 C 479.20 49.04, 475.92 50.68, 474.00 49.00 C 470.92 47.72, 468.69 46.80, 466.00 47.00 C 462.97 45.94, 460.55 45.82, 458.00 46.00 C 455.08 44.32, 451.80 45.96, 450.00 44.00 C 446.45 44.18, 444.03 44.06, 442.00 43.00 C 435.70 43.07, 430.64 42.52, 426.00 41.00 C 420.00 41.00, 415.00 41.00, 410.00 41.00 C 407.22 38.06, 403.30 41.80, 402.00 40.00 C 398.45 41.18, 396.03 41.06, 394.00 40.00 Z" fill="rgb(237.03943586025483,199.0202862961843,129.53434424766186)" stroke="rgb(237.03943586025483,199.0202862961843,129.53434424766186)" stroke-width="1" />
<path d="M 407.00 148.00 C 402.66 150.11, 397.50 150.27, 393.00 152.00 C 386.56 152.80, 382.76 156.55, 378.00 158.00 C 372.11 159.79, 367.33 160.86, 363.00 163.00 C 356.70 165.94, 352.13 170.65, 347.00 174.00 C 342.49 179.73, 337.26 183.75, 335.00 189.00 C 328.76 194.02, 328.10 199.93, 323.00 204.00 C 321.59 207.38, 318.79 208.77, 318.00 211.00 C 315.15 213.98, 315.85 217.02, 314.00 219.00 C 311.31 221.91, 312.26 225.33, 309.00 227.00 C 306.16 230.12, 305.28 232.65, 304.00 235.00 C 301.88 240.48, 300.34 245.20, 299.00 250.00 C 298.30 256.21, 295.53 260.55, 293.00 265.00 C 291.58 267.69, 290.62 269.57, 291.00 272.00 C 290.65 276.01, 286.85 277.19, 287.00 280.00 C 285.27 286.11, 283.30 291.13, 281.00 296.00 C 278.94 301.09, 281.30 307.01, 279.00 311.00 C 278.28 316.92, 276.48 321.39, 275.00 326.00 C 272.68 330.98, 275.32 337.02, 273.00 341.00 C 271.05 346.33, 272.39 352.02, 272.00 357.00 C 271.64 362.66, 272.90 367.98, 271.00 372.00 C 269.02 374.32, 270.42 377.03, 270.00 379.00 C 270.70 382.76, 268.30 384.24, 269.00 387.00 C 266.77 391.88, 268.59 397.44, 268.00 402.00 C 268.08 408.10, 267.51 413.48, 269.00 418.00 C 268.78 423.71, 267.39 427.94, 268.00 433.00 C 267.49 439.15, 269.93 443.09, 270.00 448.00 C 270.79 453.48, 271.33 458.06, 271.00 463.00 C 271.57 469.18, 274.17 473.51, 274.00 479.00 C 278.75 483.67, 277.66 489.75, 281.00 494.00 C 285.23 498.74, 285.10 504.29, 287.00 509.00 C 289.49 511.66, 289.83 514.21, 292.00 516.00 C 294.02 519.75, 296.98 520.25, 299.00 523.00 C 304.49 527.57, 310.88 526.54, 315.00 531.00 C 317.24 533.51, 320.76 530.49, 322.00 533.00 C 325.40 533.50, 327.95 533.66, 330.00 535.00 C 336.61 535.06, 340.99 538.08, 345.00 542.00 C 350.21 544.43, 354.66 546.30, 360.00 546.00 C 366.36 547.12, 371.00 548.99, 376.00 550.00 C 379.50 550.58, 380.83 549.40, 381.00 547.00 C 380.92 543.50, 382.73 541.77, 382.00 539.00 C 382.00 533.33, 382.00 528.67, 382.00 524.00 C 382.00 518.33, 382.00 513.67, 382.00 509.00 C 382.55 502.87, 385.69 497.77, 383.00 493.00 C 382.21 489.53, 384.42 488.31, 384.00 486.00 C 382.89 481.27, 380.66 484.18, 378.00 484.00 C 372.37 481.24, 367.71 478.55, 363.00 476.00 C 361.89 472.76, 359.79 472.30, 358.00 470.00 C 355.19 467.72, 354.25 465.09, 352.00 463.00 C 351.13 459.48, 350.19 456.98, 348.00 455.00 C 344.55 452.27, 345.83 448.99, 344.00 447.00 C 342.74 441.76, 340.65 436.44, 343.00 432.00 C 343.73 429.17, 344.37 427.29, 344.00 425.00 C 346.92 422.18, 350.28 420.70, 352.00 424.00 C 357.72 427.32, 358.09 433.95, 361.00 438.00 C 363.27 444.16, 366.80 448.81, 369.00 454.00 C 371.16 457.03, 372.45 458.79, 375.00 459.00 C 378.02 461.75, 380.98 462.25, 383.00 465.00 C 387.70 462.79, 388.34 456.87, 388.00 452.00 C 386.70 446.95, 390.10 442.25, 389.00 437.00 C 387.44 431.71, 387.44 425.29, 389.00 421.00 C 390.71 415.63, 390.93 410.64, 392.00 406.00 C 390.02 403.68, 391.42 400.97, 391.00 399.00 C 388.13 395.22, 385.29 394.78, 383.00 393.00 C 377.70 389.67, 371.31 388.94, 369.00 383.00 C 365.93 380.97, 363.74 378.99, 364.00 376.00 C 362.73 371.97, 360.08 371.75, 359.00 369.00 C 358.93 363.09, 356.49 359.15, 357.00 354.00 C 357.59 347.95, 355.24 344.12, 356.00 339.00 C 357.79 336.19, 357.62 333.57, 360.00 332.00 C 363.35 330.46, 366.02 330.98, 368.00 333.00 C 369.28 336.08, 370.20 338.31, 370.00 341.00 C 373.42 344.03, 372.78 346.01, 372.00 349.00 C 371.64 356.06, 376.95 359.35, 379.00 364.00 C 382.03 369.93, 385.48 374.69, 390.00 379.00 C 393.95 380.38, 392.79 376.71, 393.00 375.00 C 392.86 371.33, 394.61 369.45, 395.00 367.00 C 393.02 363.54, 395.54 361.93, 395.00 359.00 C 397.04 356.37, 395.54 353.28, 396.00 351.00 C 395.74 345.09, 397.76 341.12, 397.00 336.00 C 396.20 329.25, 398.37 324.74, 400.00 320.00 C 399.63 316.71, 400.27 314.83, 401.00 313.00 C 401.54 309.07, 399.02 307.46, 401.00 305.00 C 401.00 299.00, 401.00 294.00, 401.00 289.00 C 400.92 285.69, 400.57 283.27, 403.00 282.00 C 404.63 278.80, 407.27 275.53, 410.00 276.00 C 413.58 276.26, 414.90 279.57, 417.00 281.00 C 420.45 282.73, 419.17 286.01, 421.00 288.00 C 419.10 293.02, 420.36 298.34, 420.00 303.00 C 419.28 309.71, 422.27 313.89, 423.00 319.00 C 422.54 322.69, 422.54 323.31, 423.00 326.00 C 424.11 329.69, 420.13 331.92, 423.00 334.00 C 428.14 330.98, 431.66 325.70, 434.00 321.00 C 439.59 316.40, 437.51 309.63, 443.00 306.00 C 448.17 306.36, 444.12 310.28, 446.00 312.00 C 446.00 315.33, 446.00 317.67, 446.00 320.00 C 445.94 326.47, 443.43 330.51, 442.00 335.00 C 441.95 338.02, 441.46 340.00, 440.00 342.00 C 438.42 345.37, 434.39 346.72, 435.00 350.00 C 432.69 356.60, 423.21 357.11, 425.00 364.00 C 423.71 367.20, 423.71 369.80, 425.00 372.00 C 425.00 375.33, 425.00 377.67, 425.00 380.00 C 424.98 385.80, 425.39 390.77, 424.00 395.00 C 427.43 399.52, 425.50 405.26, 426.00 410.00 C 424.02 412.32, 425.42 415.03, 425.00 417.00 C 425.08 420.50, 423.27 422.23, 424.00 425.00 C 423.60 430.89, 421.76 436.79, 424.00 441.00 C 423.27 443.83, 422.63 445.71, 423.00 448.00 C 423.54 451.93, 421.02 453.54, 423.00 456.00 C 427.56 453.39, 425.92 447.22, 429.00 443.00 C 430.20 439.67, 433.13 438.47, 433.00 436.00 C 434.46 432.72, 432.96 429.63, 435.00 428.00 C 435.35 424.54, 437.78 422.93, 437.00 420.00 C 439.59 417.46, 436.41 413.54, 439.00 412.00 C 439.75 406.29, 443.33 400.35, 449.00 401.00 C 455.34 402.69, 455.16 409.06, 455.00 414.00 C 455.88 420.08, 454.85 423.52, 455.00 429.00 C 455.78 435.46, 453.54 439.67, 454.00 445.00 C 452.02 447.32, 453.42 450.03, 453.00 452.00 C 451.71 455.21, 450.99 457.66, 450.00 460.00 C 449.79 463.47, 447.58 464.69, 448.00 467.00 C 448.61 471.28, 444.58 472.63, 443.00 475.00 C 440.00 478.00, 438.00 480.00, 436.00 482.00 C 435.68 486.38, 431.57 486.07, 431.00 489.00 C 427.62 491.33, 426.58 493.98, 424.00 496.00 C 422.72 499.22, 422.60 501.92, 421.00 504.00 C 420.24 510.12, 422.59 513.95, 422.00 519.00 C 420.08 522.45, 421.85 524.33, 422.00 527.00 C 419.96 529.63, 421.46 532.72, 421.00 535.00 C 421.00 538.00, 421.00 540.00, 421.00 542.00 C 422.54 545.93, 420.02 547.54, 422.00 550.00 C 423.22 553.20, 426.83 553.12, 429.00 553.00 C 431.63 550.96, 434.72 552.46, 437.00 552.00 C 443.23 551.70, 447.38 549.78, 452.00 549.00 C 458.46 549.59, 462.57 546.91, 467.00 545.00 C 470.47 545.79, 471.69 543.58, 474.00 544.00 C 476.92 542.32, 480.20 543.96, 482.00 542.00 C 487.96 539.23, 493.04 536.77, 498.00 534.00 C 503.26 528.93, 509.27 525.37, 512.00 520.00 C 513.26 513.33, 516.24 508.80, 521.00 505.00 C 525.68 499.61, 529.08 495.12, 531.00 490.00 C 533.05 484.43, 534.53 479.63, 534.00 474.00 C 533.74 468.09, 535.76 464.12, 535.00 459.00 C 535.22 453.29, 536.61 449.06, 536.00 444.00 C 535.94 438.08, 533.16 434.29, 534.00 429.00 C 534.99 425.80, 535.01 423.20, 536.00 421.00 C 534.94 417.97, 534.82 415.55, 535.00 413.00 C 535.33 407.06, 534.79 402.48, 534.00 398.00 C 534.00 392.33, 534.00 387.67, 534.00 383.00 C 533.00 372.00, 533.00 362.00, 533.00 352.00 C 530.46 347.11, 533.63 340.86, 531.00 337.00 C 529.56 331.52, 531.20 325.76, 528.00 322.00 C 526.67 319.28, 527.72 316.57, 526.00 315.00 C 525.54 311.72, 527.04 308.63, 525.00 307.00 C 525.70 303.24, 523.30 301.76, 524.00 299.00 C 524.73 295.23, 522.92 293.50, 523.00 291.00 C 520.49 288.76, 523.51 285.24, 521.00 284.00 C 520.61 280.55, 518.86 278.67, 519.00 276.00 C 516.49 273.76, 519.51 270.24, 517.00 269.00 C 516.61 265.55, 514.86 263.67, 515.00 261.00 C 512.90 255.65, 512.41 250.64, 511.00 246.00 C 511.09 242.21, 509.29 240.21, 508.00 238.00 C 507.01 234.66, 506.29 232.21, 505.00 230.00 C 506.00 223.37, 501.83 219.88, 501.00 215.00 C 497.81 209.27, 494.69 204.93, 493.00 200.00 C 489.40 194.03, 486.77 189.07, 482.00 185.00 C 480.12 177.85, 472.66 174.42, 470.00 169.00 C 464.47 163.66, 459.84 159.58, 455.00 156.00 C 449.24 153.43, 444.76 150.16, 439.00 150.00 C 433.32 149.37, 429.16 147.49, 424.00 148.00 C 418.00 148.00, 413.00 148.00, 408.00 148.00 Z" fill="rgb(253.91243514331825,224.92155842770063,1.463593560348392)" stroke="rgb(253.91243514331825,224.92155842770063,1.463593560348392)" stroke-width="1" />
<path d="M 410.00 276.00 C 407.57 279.55, 402.53 280.23, 403.00 285.00 C 400.40 288.81, 401.15 292.59, 401.00 296.00 C 401.31 304.27, 399.23 310.54, 400.00 318.00 C 399.96 322.59, 397.22 325.07, 398.00 329.00 C 396.40 332.81, 397.15 336.59, 397.00 340.00 C 397.77 344.79, 395.46 347.31, 396.00 351.00 C 396.43 356.12, 394.97 359.46, 394.00 363.00 C 394.54 367.69, 392.23 370.21, 393.00 374.00 C 392.13 381.00, 386.24 373.87, 385.00 372.00 C 382.06 367.50, 378.61 364.63, 377.00 361.00 C 375.18 356.26, 372.85 353.14, 373.00 349.00 C 371.90 344.57, 370.67 341.19, 369.00 338.00 C 367.49 333.50, 365.58 330.84, 361.00 332.00 C 353.69 338.27, 356.65 347.38, 356.00 355.00 C 355.97 360.04, 358.77 362.49, 359.00 366.00 C 359.01 370.88, 362.31 373.40, 363.00 377.00 C 365.27 381.12, 366.53 385.23, 370.00 387.00 C 373.88 390.10, 376.94 392.76, 381.00 393.00 C 385.88 394.73, 389.01 398.79, 391.00 402.00 C 391.00 406.33, 391.00 409.67, 391.00 413.00 C 390.78 417.93, 388.04 420.41, 388.00 424.00 C 387.50 428.91, 386.35 432.23, 388.00 436.00 C 388.70 440.76, 387.00 443.53, 387.00 447.00 C 387.00 451.33, 387.00 454.67, 387.00 458.00 C 385.21 463.98, 379.28 463.79, 377.00 460.00 C 371.88 455.66, 369.79 451.48, 366.00 448.00 C 363.85 443.59, 361.74 440.58, 361.00 437.00 C 358.76 432.63, 357.24 429.37, 356.00 426.00 C 352.15 423.97, 348.41 421.69, 345.00 424.00 C 343.18 428.60, 342.82 432.40, 342.00 436.00 C 341.75 440.71, 343.86 443.45, 344.00 447.00 C 346.14 451.27, 347.47 454.89, 350.00 458.00 C 351.15 462.83, 354.26 465.83, 357.00 469.00 C 361.43 472.76, 364.08 477.42, 368.00 479.00 C 372.37 480.91, 374.96 484.70, 379.00 485.00 C 384.26 484.48, 384.18 489.82, 384.00 493.00 C 383.85 497.41, 384.60 501.19, 383.00 504.00 C 383.35 508.95, 381.22 511.87, 382.00 516.00 C 382.34 520.61, 381.78 523.85, 381.00 527.00 C 380.30 531.76, 382.00 534.53, 382.00 538.00 C 381.00 546.33, 381.00 553.67, 381.00 561.00 C 381.54 569.36, 379.23 575.54, 380.00 583.00 C 380.77 587.79, 378.46 590.31, 379.00 594.00 C 379.00 598.67, 379.00 602.33, 379.00 606.00 C 379.00 614.00, 379.00 621.00, 379.00 628.00 C 378.20 630.80, 380.27 631.42, 380.00 633.00 C 377.19 635.50, 381.04 636.93, 380.00 639.00 C 383.21 643.15, 374.92 646.52, 373.00 644.00 C 368.39 643.66, 365.15 644.22, 362.00 645.00 C 357.67 645.00, 354.33 645.00, 351.00 645.00 C 346.80 647.00, 343.85 648.59, 340.00 648.00 C 334.57 647.17, 332.43 651.83, 328.00 651.00 C 323.17 653.15, 320.17 656.26, 317.00 659.00 C 313.70 662.66, 312.50 666.18, 312.00 670.00 C 310.82 674.82, 311.15 678.43, 314.00 681.00 C 318.37 684.06, 322.41 685.49, 326.00 688.00 C 329.98 689.86, 333.57 690.24, 337.00 691.00 C 339.80 690.20, 340.42 692.27, 342.00 692.00 C 344.50 689.19, 345.93 693.04, 348.00 692.00 C 352.33 692.00, 355.67 692.00, 359.00 692.00 C 363.00 694.28, 367.02 694.10, 371.00 694.00 C 375.70 695.30, 379.03 691.18, 382.00 694.00 C 386.33 694.00, 389.67 694.00, 393.00 694.00 C 397.69 694.54, 400.21 692.23, 404.00 693.00 C 408.69 693.54, 411.21 691.23, 415.00 692.00 C 419.61 692.34, 422.85 691.78, 426.00 691.00 C 430.71 691.25, 433.45 689.14, 437.00 689.00 C 441.41 687.85, 445.19 688.60, 448.00 687.00 C 452.36 685.59, 456.17 685.27, 460.00 685.00 C 463.77 682.97, 467.31 682.81, 471.00 683.00 C 474.80 680.91, 480.02 681.15, 481.00 677.00 C 485.52 673.08, 483.01 669.31, 482.00 666.00 C 479.47 661.78, 478.41 656.47, 474.00 655.00 C 469.14 654.28, 467.10 650.14, 463.00 651.00 C 458.11 650.68, 456.07 646.90, 452.00 648.00 C 447.11 647.68, 445.07 643.90, 441.00 645.00 C 436.89 642.98, 432.26 644.64, 429.00 643.00 C 424.67 643.00, 421.33 643.00, 418.00 643.00 C 413.04 643.81, 410.04 638.99, 413.00 636.00 C 415.33 631.94, 417.17 628.68, 418.00 625.00 C 418.00 620.53, 419.70 617.76, 419.00 614.00 C 418.91 605.69, 418.80 598.37, 421.00 592.00 C 418.84 588.42, 420.54 584.25, 420.00 581.00 C 420.22 576.29, 419.30 572.10, 421.00 569.00 C 420.23 564.21, 422.54 561.69, 422.00 558.00 C 422.77 553.21, 420.46 550.69, 421.00 547.00 C 421.00 542.67, 421.00 539.33, 421.00 536.00 C 420.09 530.88, 423.51 527.54, 421.00 524.00 C 421.77 519.15, 421.77 516.85, 421.00 513.00 C 420.61 508.24, 419.74 505.32, 422.00 502.00 C 424.02 497.54, 425.06 493.67, 429.00 491.00 C 434.17 487.36, 435.38 481.90, 439.00 480.00 C 442.20 475.66, 445.45 474.09, 447.00 470.00 C 449.54 466.31, 448.93 462.31, 450.00 459.00 C 452.49 455.01, 453.55 451.84, 453.00 448.00 C 452.41 443.15, 455.59 440.85, 455.00 437.00 C 456.38 433.38, 453.77 428.69, 456.00 426.00 C 454.22 424.26, 455.29 422.35, 455.00 421.00 C 455.98 418.40, 453.49 416.38, 456.00 415.00 C 454.16 411.01, 456.05 406.48, 453.00 404.00 C 450.50 397.90, 444.59 401.17, 442.00 404.00 C 439.72 408.36, 438.53 411.75, 437.00 415.00 C 437.25 419.71, 435.14 422.45, 435.00 426.00 C 433.85 430.41, 434.60 434.19, 433.00 437.00 C 428.50 439.53, 428.47 445.06, 426.00 448.00 C 422.89 440.74, 424.51 432.93, 424.00 426.00 C 424.90 417.49, 424.80 409.98, 426.00 403.00 C 424.16 395.63, 425.32 388.01, 425.00 381.00 C 425.41 372.89, 423.73 364.92, 427.00 359.00 C 431.35 355.53, 434.34 352.82, 436.00 349.00 C 436.96 344.10, 441.44 342.07, 441.00 338.00 C 442.36 333.81, 444.54 330.97, 444.00 327.00 C 445.00 322.33, 445.00 318.67, 445.00 315.00 C 445.75 311.47, 444.57 304.26, 442.00 308.00 C 439.56 312.56, 438.31 316.21, 435.00 319.00 C 433.21 323.70, 430.43 326.98, 427.00 330.00 C 422.42 328.26, 422.12 324.17, 422.00 320.00 C 419.62 316.38, 422.23 311.69, 420.00 309.00 C 420.00 304.67, 420.00 301.33, 420.00 298.00 C 420.00 293.67, 420.00 290.33, 420.00 287.00 C 419.33 280.91, 413.61 280.01, 411.00 276.00 Z" fill="rgb(236.956008583691,206.29935622317598,33.04077253218884)" stroke="rgb(236.956008583691,206.29935622317598,33.04077253218884)" stroke-width="1" />
<path d="M 408.00 277.00 C 402.93 281.20, 401.10 286.74, 401.00 293.00 C 401.00 299.67, 401.00 305.33, 401.00 311.00 C 401.00 314.67, 401.00 317.33, 401.00 320.00 C 398.64 323.38, 399.36 326.62, 398.00 329.00 C 397.82 335.73, 398.64 341.88, 397.00 347.00 C 397.88 353.97, 395.46 358.58, 395.00 364.00 C 395.78 368.13, 393.50 369.99, 394.00 373.00 C 393.77 375.94, 392.94 382.18, 390.00 379.00 C 383.78 372.70, 379.57 366.98, 376.00 361.00 C 373.87 357.39, 373.64 354.40, 372.00 352.00 C 372.87 347.89, 372.16 346.05, 371.00 343.00 C 369.61 339.55, 367.86 337.67, 368.00 335.00 C 366.74 331.85, 361.65 330.97, 360.00 333.00 C 357.51 336.46, 355.57 338.74, 356.00 342.00 C 356.25 345.70, 357.60 347.95, 357.00 351.00 C 356.30 358.37, 358.95 363.36, 360.00 369.00 C 361.34 372.66, 364.26 374.67, 364.00 378.00 C 365.58 381.74, 368.05 385.22, 371.00 386.00 C 374.03 390.20, 377.32 390.38, 380.00 392.00 C 383.64 393.73, 386.46 395.02, 389.00 397.00 C 393.41 402.73, 391.80 409.62, 391.00 415.00 C 391.23 419.04, 388.77 420.96, 389.00 424.00 C 388.75 427.70, 387.40 429.95, 388.00 433.00 C 389.75 440.11, 387.81 445.12, 388.00 451.00 C 388.42 457.19, 387.86 465.38, 381.00 464.00 C 377.34 460.98, 374.33 459.82, 372.00 457.00 C 368.16 453.68, 368.30 450.13, 365.00 448.00 C 363.66 444.34, 360.74 442.33, 361.00 439.00 C 360.32 434.79, 357.35 432.94, 357.00 430.00 C 355.22 426.05, 351.74 423.58, 349.00 423.00 C 345.00 423.24, 343.56 425.88, 344.00 429.00 C 343.63 432.15, 341.63 435.43, 343.00 437.00 C 342.22 441.13, 344.50 442.99, 344.00 446.00 C 345.16 450.15, 346.84 452.67, 349.00 455.00 C 351.80 458.20, 351.83 461.54, 354.00 464.00 C 355.87 468.38, 358.47 469.80, 361.00 472.00 C 364.03 475.66, 365.71 477.25, 369.00 478.00 C 372.03 482.20, 375.32 482.38, 378.00 484.00 C 382.85 482.26, 383.67 484.90, 385.00 488.00 C 383.42 490.54, 383.42 494.46, 385.00 496.00 C 385.60 500.05, 384.25 502.30, 384.00 505.00 C 382.36 511.12, 383.18 517.27, 383.00 523.00 C 383.00 529.67, 383.00 535.33, 383.00 541.00 C 381.08 544.15, 383.14 547.95, 381.00 550.00 C 380.50 554.01, 382.78 555.87, 382.00 559.00 C 379.77 562.73, 382.44 564.87, 382.00 568.00 C 381.60 572.05, 380.25 574.30, 380.00 577.00 C 381.97 580.63, 380.34 583.19, 380.00 586.00 C 380.00 589.67, 380.00 592.33, 380.00 595.00 C 378.51 602.01, 380.77 606.87, 380.00 613.00 C 380.24 620.36, 379.49 625.40, 380.00 631.00 C 380.46 634.28, 378.96 637.37, 381.00 639.00 C 380.21 644.10, 385.52 643.00, 387.00 646.00 C 388.53 650.24, 392.62 650.89, 395.00 652.00 C 397.94 648.91, 401.40 650.49, 404.00 650.00 C 407.67 646.61, 408.33 643.39, 411.00 641.00 C 410.09 636.54, 413.25 634.77, 414.00 632.00 C 417.06 625.77, 418.72 620.38, 418.00 614.00 C 419.70 610.24, 417.30 608.76, 418.00 606.00 C 417.22 601.87, 419.50 600.01, 419.00 597.00 C 421.09 594.06, 419.51 590.60, 420.00 588.00 C 420.50 583.99, 418.22 582.13, 419.00 579.00 C 421.09 576.06, 419.51 572.60, 420.00 570.00 C 419.50 565.99, 421.78 564.13, 421.00 561.00 C 420.39 554.45, 422.26 547.87, 420.00 543.00 C 419.54 536.34, 420.46 531.25, 421.00 526.00 C 421.62 518.94, 420.21 513.72, 420.00 508.00 C 418.68 503.79, 421.65 501.94, 422.00 499.00 C 424.07 495.08, 426.47 492.72, 428.00 490.00 C 432.71 488.41, 432.94 483.83, 436.00 482.00 C 438.02 478.31, 441.31 475.02, 444.00 474.00 C 444.68 469.79, 447.65 467.94, 448.00 465.00 C 449.29 461.46, 448.68 458.12, 451.00 456.00 C 452.36 452.62, 451.64 449.38, 453.00 447.00 C 453.49 443.40, 451.91 439.94, 454.00 438.00 C 453.38 430.94, 454.79 425.72, 455.00 420.00 C 451.81 414.60, 457.03 405.27, 451.00 403.00 C 447.27 401.70, 444.86 402.19, 443.00 404.00 C 440.58 407.49, 440.38 410.49, 439.00 413.00 C 436.35 415.85, 439.65 420.15, 437.00 422.00 C 436.26 425.64, 434.23 427.74, 435.00 431.00 C 435.53 435.44, 433.43 437.79, 431.00 440.00 C 429.33 443.53, 427.96 446.18, 427.00 449.00 C 422.90 452.52, 424.29 445.83, 424.00 444.00 C 421.91 441.06, 423.49 437.60, 423.00 435.00 C 422.25 428.22, 424.60 423.72, 424.00 418.00 C 426.02 412.03, 424.56 405.62, 425.00 400.00 C 422.74 394.13, 424.61 387.55, 424.00 382.00 C 426.27 375.03, 422.01 369.30, 425.00 364.00 C 424.05 359.72, 427.08 358.09, 429.00 356.00 C 432.82 352.67, 433.98 349.66, 436.00 347.00 C 437.75 343.23, 440.91 341.46, 440.00 338.00 C 441.51 334.27, 443.45 332.13, 443.00 329.00 C 443.51 321.99, 445.77 317.13, 445.00 311.00 C 445.09 304.91, 440.93 308.02, 441.00 311.00 C 438.48 314.73, 437.35 317.61, 435.00 320.00 C 433.91 324.04, 431.56 326.57, 429.00 329.00 C 426.19 334.31, 421.34 330.09, 422.00 327.00 C 422.78 322.87, 420.50 321.01, 421.00 318.00 C 421.50 313.99, 419.22 312.13, 420.00 309.00 C 419.00 302.33, 419.00 296.67, 419.00 291.00 C 421.06 287.88, 418.14 284.54, 418.00 282.00 C 414.47 279.99, 412.78 275.97, 409.00 277.00 Z" fill="rgb(193.17730496453902,165.21208691715708,74.73328806398068)" stroke="rgb(193.17730496453902,165.21208691715708,74.73328806398068)" stroke-width="1" />
<path d="M 621.00 246.00 C 618.01 250.33, 621.79 255.22, 621.00 260.00 C 620.92 263.50, 622.73 265.23, 622.00 268.00 C 624.02 270.98, 624.54 273.65, 623.00 276.00 C 623.00 281.67, 623.00 286.33, 623.00 291.00 C 622.03 293.87, 620.86 298.26, 618.00 295.00 C 618.20 291.75, 618.41 288.02, 615.00 289.00 C 611.83 287.40, 609.87 286.32, 608.00 285.00 C 606.02 282.15, 603.35 281.96, 601.00 281.00 C 595.08 279.14, 590.04 277.57, 585.00 276.00 C 578.45 275.04, 573.49 278.96, 571.00 283.00 C 566.13 287.99, 567.45 295.90, 572.00 299.00 C 574.57 302.38, 577.19 302.21, 579.00 304.00 C 581.02 307.59, 583.03 309.79, 579.00 312.00 C 576.97 315.96, 574.27 316.29, 572.00 318.00 C 570.97 322.01, 566.03 322.99, 566.00 326.00 C 564.75 329.17, 563.09 331.18, 561.00 333.00 C 558.41 335.54, 561.59 339.46, 559.00 341.00 C 558.70 344.73, 559.19 347.14, 561.00 349.00 C 564.65 351.02, 564.71 353.85, 568.00 353.00 C 571.29 352.63, 573.17 353.27, 575.00 354.00 C 579.03 355.68, 580.41 352.38, 583.00 352.00 C 586.91 352.40, 589.11 351.07, 591.00 349.00 C 594.51 345.10, 591.66 352.24, 594.00 353.00 C 592.94 356.03, 592.82 358.45, 593.00 361.00 C 590.54 363.98, 594.14 366.65, 594.00 369.00 C 593.33 372.89, 597.25 373.87, 596.00 377.00 C 599.09 380.31, 598.84 382.39, 597.00 385.00 C 597.60 388.17, 598.68 390.13, 600.00 392.00 C 602.92 394.68, 606.20 393.04, 608.00 395.00 C 611.77 395.27, 613.50 397.08, 616.00 397.00 C 619.21 394.87, 621.88 393.96, 623.00 391.00 C 625.30 388.54, 625.05 386.02, 626.00 384.00 C 629.19 381.16, 629.70 378.62, 630.00 376.00 C 630.00 372.67, 630.00 370.33, 630.00 368.00 C 629.05 364.23, 632.08 359.98, 634.00 364.00 C 636.86 365.66, 638.75 367.27, 641.00 368.00 C 645.13 367.97, 646.11 367.25, 649.00 368.00 C 652.52 368.13, 655.02 367.19, 657.00 365.00 C 659.51 363.36, 660.01 359.83, 661.00 358.00 C 658.59 355.14, 662.27 352.73, 661.00 350.00 C 659.61 346.55, 657.86 344.67, 658.00 342.00 C 654.33 335.59, 648.74 331.39, 646.00 326.00 C 645.60 322.83, 646.68 320.87, 648.00 319.00 C 649.78 316.59, 653.94 316.65, 653.00 313.00 C 658.71 307.29, 664.00 302.83, 666.00 297.00 C 670.40 291.27, 664.66 285.30, 660.00 285.00 C 655.61 284.54, 655.09 287.06, 653.00 289.00 C 648.72 289.39, 647.37 293.42, 645.00 295.00 C 642.57 296.05, 639.26 301.37, 639.00 297.00 C 639.73 293.23, 637.92 291.50, 638.00 289.00 C 638.73 285.23, 636.92 283.50, 637.00 281.00 C 637.73 277.23, 635.92 275.50, 636.00 273.00 C 634.66 269.95, 634.50 267.40, 634.00 265.00 C 633.65 261.54, 631.22 259.93, 632.00 257.00 C 630.50 253.60, 630.34 251.05, 629.00 249.00 C 627.14 246.19, 624.73 245.70, 622.00 246.00 Z" fill="rgb(241.84014869888475,160.77695167286245,27.69888475836431)" stroke="rgb(241.84014869888475,160.77695167286245,27.69888475836431)" stroke-width="1" />
<path d="M 412.00 642.00 C 408.02 644.12, 408.75 649.75, 405.00 651.00 C 399.51 649.68, 397.00 653.13, 393.00 653.00 C 387.75 650.93, 386.63 645.45, 383.00 644.00 C 378.33 644.00, 374.67 644.00, 371.00 644.00 C 365.68 644.05, 363.91 644.31, 360.00 645.00 C 355.15 645.22, 350.72 644.04, 348.00 647.00 C 343.60 647.97, 339.90 648.23, 336.00 648.00 C 331.48 650.68, 327.52 651.32, 324.00 653.00 C 319.34 655.56, 316.12 659.81, 314.00 663.00 C 312.77 667.71, 309.80 670.70, 310.00 675.00 C 312.31 680.06, 316.05 682.75, 320.00 684.00 C 324.57 686.90, 327.86 689.48, 332.00 690.00 C 335.81 691.60, 339.59 690.85, 343.00 691.00 C 347.71 691.23, 350.94 692.61, 355.00 692.00 C 360.12 691.57, 363.46 693.03, 367.00 694.00 C 371.90 694.23, 375.60 693.97, 379.00 693.00 C 381.80 692.20, 382.42 694.27, 384.00 694.00 C 387.07 695.04, 388.50 691.19, 390.00 694.00 C 395.04 694.22, 398.78 693.75, 402.00 692.00 C 405.91 694.35, 410.37 692.57, 413.00 691.00 C 417.22 693.68, 420.96 689.65, 425.00 691.00 C 429.74 691.32, 432.72 689.81, 436.00 689.00 C 441.11 688.81, 444.13 688.60, 448.00 687.00 C 452.36 685.59, 456.17 685.27, 460.00 685.00 C 463.72 682.04, 468.15 683.22, 472.00 683.00 C 475.86 680.76, 481.08 680.56, 482.00 676.00 C 486.34 670.89, 481.60 667.73, 481.00 664.00 C 479.04 659.49, 476.51 654.72, 472.00 654.00 C 467.32 652.04, 463.75 650.79, 460.00 650.00 C 456.37 647.30, 452.70 647.12, 449.00 647.00 C 445.01 644.37, 440.38 645.70, 437.00 644.00 C 432.05 644.35, 429.13 642.22, 425.00 643.00 C 420.43 642.44, 415.90 644.18, 413.00 642.00 Z" fill="rgb(242.79053583855253,152.61739735560195,3.114961725817676)" stroke="rgb(242.79053583855253,152.61739735560195,3.114961725817676)" stroke-width="1" />
<path d="M 187.00 366.00 C 182.81 367.53, 180.40 370.58, 180.00 375.00 C 178.60 379.84, 178.25 384.11, 177.00 388.00 C 176.28 393.20, 174.78 396.66, 173.00 400.00 C 171.67 402.94, 170.60 404.58, 169.00 406.00 C 168.06 408.97, 167.22 411.94, 165.00 412.00 C 162.29 413.04, 160.04 415.29, 160.00 417.00 C 157.40 418.83, 155.38 418.63, 154.00 420.00 C 149.66 426.43, 145.28 423.95, 141.00 422.00 C 136.58 420.40, 133.19 418.73, 129.00 419.00 C 124.10 420.80, 120.57 415.62, 116.00 416.00 C 111.60 414.03, 107.90 413.77, 104.00 414.00 C 99.17 411.92, 94.83 412.08, 91.00 411.00 C 86.69 413.43, 81.66 415.35, 81.00 420.00 C 80.55 425.88, 87.21 427.81, 86.00 433.00 C 86.89 438.13, 90.46 441.14, 92.00 445.00 C 96.88 448.77, 100.49 452.66, 103.00 457.00 C 108.53 459.97, 110.19 464.84, 114.00 468.00 C 118.25 473.48, 122.01 475.92, 126.00 480.00 C 130.29 484.58, 134.37 486.25, 138.00 489.00 C 142.99 491.69, 147.14 493.99, 151.00 497.00 C 155.40 499.65, 159.75 500.00, 163.00 503.00 C 167.43 506.05, 171.82 506.76, 176.00 508.00 C 180.77 508.07, 185.90 508.04, 187.00 504.00 C 186.16 498.80, 184.26 495.45, 185.00 491.00 C 185.61 485.94, 184.23 482.71, 184.00 479.00 C 183.81 473.80, 183.05 469.84, 182.00 466.00 C 181.92 461.09, 180.42 457.77, 180.00 454.00 C 178.29 449.16, 177.60 444.89, 176.00 441.00 C 174.77 436.29, 171.80 433.30, 172.00 429.00 C 173.51 423.52, 176.18 419.52, 180.00 416.00 C 183.31 411.60, 184.69 407.40, 188.00 404.00 C 189.69 399.01, 191.68 395.15, 193.00 391.00 C 193.82 386.40, 194.18 382.60, 195.00 379.00 C 195.31 372.91, 191.59 369.48, 188.00 366.00 Z" fill="rgb(243.89705882352942,209.76470588235293,79.16176470588235)" stroke="rgb(243.89705882352942,209.76470588235293,79.16176470588235)" stroke-width="1" />
<path d="M 185.00 367.00 C 181.15 369.76, 180.78 373.97, 180.00 378.00 C 178.78 382.91, 177.40 386.75, 177.00 391.00 C 175.11 393.02, 176.36 395.34, 176.00 397.00 C 173.08 399.15, 172.69 400.93, 173.00 403.00 C 167.51 406.73, 168.88 413.59, 163.00 414.00 C 160.48 420.07, 154.49 418.19, 152.00 423.00 C 146.96 426.98, 142.84 421.84, 139.00 421.00 C 134.30 420.41, 131.34 418.04, 127.00 419.00 C 122.44 417.28, 118.07 416.50, 114.00 415.00 C 108.46 413.88, 105.82 415.12, 102.00 413.00 C 99.98 411.11, 97.66 412.36, 96.00 412.00 C 93.28 411.62, 90.57 409.65, 89.00 412.00 C 84.87 415.32, 80.80 415.69, 81.00 421.00 C 81.83 426.35, 87.42 428.72, 86.00 434.00 C 89.59 438.15, 89.41 442.85, 93.00 446.00 C 97.97 449.74, 101.01 453.86, 104.00 458.00 C 109.83 461.02, 111.45 466.90, 116.00 470.00 C 118.60 475.77, 125.19 476.55, 127.00 481.00 C 131.66 484.35, 134.72 488.16, 139.00 489.00 C 144.23 491.79, 147.84 495.05, 152.00 497.00 C 156.34 500.46, 160.78 500.26, 164.00 503.00 C 167.38 503.27, 168.45 505.73, 170.00 507.00 C 173.29 506.63, 175.17 507.27, 177.00 508.00 C 181.08 507.31, 187.11 507.88, 187.00 504.00 C 185.56 499.04, 184.49 495.35, 185.00 491.00 C 185.51 485.65, 184.44 481.96, 184.00 478.00 C 183.51 472.93, 183.48 468.67, 182.00 465.00 C 181.68 460.05, 180.81 456.33, 179.00 453.00 C 179.28 447.47, 176.19 444.34, 176.00 440.00 C 173.85 435.40, 171.05 432.48, 172.00 428.00 C 172.77 422.21, 177.66 419.14, 180.00 415.00 C 182.14 409.98, 186.73 407.38, 187.00 403.00 C 190.85 398.49, 190.60 393.70, 193.00 390.00 C 192.43 384.63, 194.76 381.45, 194.00 377.00 C 194.08 371.92, 190.73 366.36, 186.00 367.00 Z" fill="rgb(253.84969476983997,224.81009734367265,2.337403068800528)" stroke="rgb(253.84969476983997,224.81009734367265,2.337403068800528)" stroke-width="1" />
<path d="M 230.00 148.00 C 227.21 149.03, 224.89 151.21, 222.00 152.00 C 217.79 152.68, 215.94 155.65, 213.00 156.00 C 209.01 157.55, 206.58 160.47, 204.00 163.00 C 202.71 167.30, 199.53 169.81, 198.00 173.00 C 194.85 176.33, 194.66 179.47, 193.00 182.00 C 190.45 185.63, 191.33 189.69, 188.00 192.00 C 188.94 196.33, 185.57 197.88, 186.00 201.00 C 182.74 204.87, 178.34 204.50, 179.00 209.00 C 177.20 213.83, 181.76 214.12, 184.00 215.00 C 188.23 216.44, 190.63 218.90, 194.00 219.00 C 198.13 219.55, 200.27 221.49, 203.00 222.00 C 206.53 223.46, 209.89 222.93, 213.00 223.00 C 216.60 223.51, 220.06 225.09, 222.00 223.00 C 226.29 223.03, 229.75 223.47, 232.00 221.00 C 235.94 220.65, 237.79 217.68, 241.00 218.00 C 245.37 216.90, 247.77 214.44, 251.00 214.00 C 254.92 211.62, 257.49 209.37, 260.00 207.00 C 261.93 202.54, 265.42 202.00, 267.00 199.00 C 269.33 195.19, 272.60 193.19, 273.00 190.00 C 275.99 186.77, 274.87 181.81, 278.00 181.00 C 282.54 180.73, 282.51 176.32, 283.00 174.00 C 282.07 169.35, 285.99 167.23, 289.00 167.00 C 293.02 165.18, 294.88 161.58, 298.00 161.00 C 301.45 157.66, 305.60 155.47, 307.00 153.00 C 302.96 153.77, 301.04 156.23, 298.00 156.00 C 293.79 157.16, 291.21 158.84, 288.00 159.00 C 284.62 160.36, 281.38 159.64, 279.00 161.00 C 275.22 163.82, 271.65 160.70, 269.00 160.00 C 264.88 158.42, 263.02 154.82, 260.00 154.00 C 255.98 152.04, 253.02 150.96, 250.00 150.00 C 243.68 147.69, 237.33 147.87, 231.00 148.00 Z" fill="rgb(240.41484716157206,167.97379912663754,45.96943231441048)" stroke="rgb(240.41484716157206,167.97379912663754,45.96943231441048)" stroke-width="1" />
<path d="M 232.00 149.00 C 229.76 151.02, 225.91 149.17, 224.00 152.00 C 219.58 152.17, 218.32 156.57, 215.00 156.00 C 210.59 156.90, 209.63 159.40, 207.00 162.00 C 202.18 163.43, 203.00 168.27, 200.00 170.00 C 197.27 173.64, 195.98 176.46, 194.00 179.00 C 193.65 182.94, 190.68 184.79, 191.00 188.00 C 187.84 191.19, 188.57 194.57, 187.00 197.00 C 185.25 201.04, 183.59 204.55, 180.00 206.00 C 177.80 209.90, 178.06 213.34, 182.00 214.00 C 186.70 213.50, 187.60 218.77, 191.00 218.00 C 194.36 219.75, 197.05 220.68, 200.00 221.00 C 204.01 221.50, 205.87 223.78, 209.00 223.00 C 215.67 223.00, 221.33 223.00, 227.00 223.00 C 230.49 221.58, 233.49 221.38, 236.00 220.00 C 239.89 217.39, 243.48 217.49, 246.00 215.00 C 250.10 214.71, 251.90 211.29, 255.00 211.00 C 258.85 208.60, 260.95 205.93, 262.00 203.00 C 266.57 201.35, 267.54 197.09, 270.00 195.00 C 271.96 191.18, 273.33 188.53, 275.00 186.00 C 274.82 181.07, 278.62 180.20, 281.00 179.00 C 282.25 175.30, 283.60 173.05, 283.00 170.00 C 286.82 167.71, 289.19 165.32, 292.00 164.00 C 295.86 160.66, 299.19 159.46, 302.00 157.00 C 298.49 157.38, 295.49 157.58, 293.00 159.00 C 288.84 161.09, 286.67 160.39, 284.00 161.00 C 280.30 162.25, 278.05 163.60, 275.00 163.00 C 270.31 163.91, 268.37 158.96, 265.00 162.00 C 259.28 161.69, 265.88 156.65, 261.00 156.00 C 257.64 153.25, 254.95 152.32, 252.00 152.00 C 244.60 151.31, 239.50 148.46, 233.00 149.00 Z" fill="rgb(241.95864869854162,154.33357947203248,5.0961786966955875)" stroke="rgb(241.95864869854162,154.33357947203248,5.0961786966955875)" stroke-width="1" />
<path d="M 579.00 276.00 C 576.49 278.31, 572.10 279.63, 571.00 283.00 C 566.67 285.90, 568.43 289.90, 568.00 293.00 C 568.90 297.62, 573.13 299.15, 575.00 301.00 C 579.06 303.71, 581.74 306.88, 581.00 311.00 C 576.64 313.47, 574.17 317.07, 571.00 319.00 C 567.96 322.08, 565.96 324.11, 566.00 328.00 C 564.04 331.77, 559.15 332.87, 560.00 337.00 C 558.55 340.85, 558.55 345.15, 560.00 348.00 C 563.42 351.18, 566.60 356.45, 570.00 353.00 C 573.59 353.91, 577.41 356.36, 580.00 354.00 C 583.30 350.32, 588.25 354.01, 590.00 350.00 C 594.48 346.59, 595.09 355.20, 593.00 357.00 C 593.24 361.71, 591.62 363.68, 593.00 367.00 C 593.46 371.97, 595.64 374.81, 597.00 378.00 C 602.31 381.43, 594.25 385.08, 598.00 388.00 C 599.55 392.47, 602.88 394.73, 607.00 394.00 C 610.84 396.06, 614.02 396.29, 617.00 397.00 C 619.94 394.28, 623.45 391.54, 624.00 388.00 C 624.35 382.88, 628.76 382.44, 629.00 379.00 C 629.00 374.67, 629.00 371.33, 629.00 368.00 C 625.30 368.80, 623.18 366.01, 624.00 362.00 C 621.65 357.76, 618.26 357.04, 615.00 356.00 C 614.07 351.89, 613.54 348.53, 615.00 346.00 C 614.82 340.93, 614.14 338.89, 615.00 335.00 C 615.00 331.00, 615.00 328.00, 615.00 325.00 C 615.85 320.94, 617.97 318.40, 618.00 315.00 C 618.00 311.00, 618.00 308.00, 618.00 305.00 C 618.66 300.82, 619.96 297.06, 618.00 294.00 C 618.73 288.43, 614.40 289.28, 612.00 287.00 C 608.32 283.43, 604.78 281.93, 601.00 281.00 C 596.94 280.15, 594.40 278.03, 591.00 278.00 C 586.53 277.00, 583.76 275.30, 580.00 276.00 Z" fill="rgb(242.81944444444446,153.3042328042328,5.382936507936508)" stroke="rgb(242.81944444444446,153.3042328042328,5.382936507936508)" stroke-width="1" />
<path d="M 624.00 246.00 C 621.46 246.98, 617.99 250.30, 621.00 253.00 C 621.53 256.92, 622.47 259.67, 622.00 263.00 C 623.92 266.15, 621.86 269.95, 624.00 272.00 C 624.25 276.24, 622.23 278.54, 623.00 282.00 C 623.00 285.67, 623.00 288.33, 623.00 291.00 C 623.39 295.58, 619.61 297.42, 620.00 301.00 C 619.59 308.44, 621.31 315.76, 618.00 321.00 C 617.00 328.00, 617.00 334.00, 617.00 340.00 C 617.49 343.60, 615.91 347.06, 618.00 349.00 C 619.97 353.50, 622.60 354.61, 626.00 356.00 C 629.10 359.96, 631.04 361.90, 634.00 364.00 C 638.05 365.03, 641.02 370.05, 644.00 367.00 C 647.95 368.34, 651.30 370.32, 654.00 367.00 C 658.40 364.58, 659.96 361.40, 661.00 358.00 C 660.51 354.40, 662.09 350.94, 660.00 349.00 C 657.52 345.48, 659.24 341.21, 656.00 339.00 C 653.53 335.11, 650.47 332.89, 649.00 330.00 C 644.55 326.53, 644.46 322.86, 647.00 320.00 C 651.46 317.19, 651.62 314.74, 654.00 312.00 C 655.85 307.99, 661.49 306.82, 662.00 303.00 C 664.05 298.75, 667.84 296.63, 668.00 293.00 C 667.61 288.29, 664.06 286.15, 661.00 285.00 C 656.27 284.33, 655.05 286.61, 653.00 289.00 C 648.51 290.83, 645.95 293.89, 643.00 296.00 C 639.17 300.36, 637.11 297.70, 638.00 294.00 C 637.82 290.21, 638.72 286.56, 637.00 284.00 C 637.75 276.27, 634.88 271.05, 634.00 265.00 C 632.41 261.24, 632.39 257.84, 631.00 255.00 C 629.91 250.81, 628.75 247.27, 625.00 246.00 Z" fill="rgb(242.87698986975397,152.832995658466,4.099276410998553)" stroke="rgb(242.87698986975397,152.832995658466,4.099276410998553)" stroke-width="1" />
<path d="M 615.00 499.00 C 610.36 502.43, 609.51 506.16, 605.00 510.00 C 601.83 511.39, 599.87 507.13, 598.00 510.00 C 595.68 511.98, 592.97 510.58, 591.00 511.00 C 585.95 511.74, 580.93 515.52, 584.00 520.00 C 584.85 523.60, 581.12 523.45, 580.00 526.00 C 580.25 530.22, 575.79 528.03, 575.00 531.00 C 572.31 535.99, 570.01 540.14, 567.00 544.00 C 566.04 549.35, 564.03 553.26, 564.00 558.00 C 564.13 562.74, 562.71 567.89, 566.00 571.00 C 570.94 575.85, 573.00 580.00, 579.00 579.00 C 584.39 579.27, 587.32 576.02, 592.00 577.00 C 595.07 574.65, 596.38 575.85, 599.00 576.00 C 602.38 573.43, 602.21 570.81, 604.00 569.00 C 608.39 565.66, 610.51 560.28, 614.00 557.00 C 615.91 551.47, 618.89 546.00, 624.00 545.00 C 629.71 542.26, 627.95 536.84, 630.00 533.00 C 627.28 530.43, 628.33 527.72, 627.00 526.00 C 625.39 523.60, 622.08 522.71, 622.00 520.00 C 626.27 515.23, 625.55 511.03, 625.00 506.00 C 627.65 499.85, 620.53 497.99, 616.00 499.00 Z" fill="rgb(206.5593220338983,173.32203389830508,80.33898305084746)" stroke="rgb(206.5593220338983,173.32203389830508,80.33898305084746)" stroke-width="1" />
<path d="M 579.00 276.00 C 576.77 276.79, 575.38 279.59, 573.00 280.00 C 571.42 283.37, 567.39 284.72, 568.00 288.00 C 567.41 295.32, 572.05 299.77, 577.00 303.00 C 579.79 304.81, 579.62 307.43, 582.00 309.00 C 578.24 311.50, 577.63 315.41, 575.00 316.00 C 570.72 317.31, 570.88 321.57, 568.00 323.00 C 566.61 325.45, 564.86 327.33, 565.00 330.00 C 560.57 329.90, 561.61 333.65, 560.00 335.00 C 560.73 338.77, 558.92 340.50, 559.00 343.00 C 559.33 349.55, 565.32 353.95, 571.00 353.00 C 574.27 353.01, 575.47 355.62, 578.00 355.00 C 581.24 353.12, 583.03 351.13, 586.00 352.00 C 590.37 352.23, 590.21 347.03, 593.00 347.00 C 596.07 350.01, 597.40 345.53, 597.00 343.00 C 596.76 338.05, 601.14 341.81, 600.00 344.00 C 600.33 339.60, 604.25 341.71, 603.00 345.00 C 604.05 349.26, 606.94 349.23, 609.00 351.00 C 612.21 350.88, 610.42 346.76, 611.00 345.00 C 612.98 342.68, 611.58 339.97, 612.00 338.00 C 613.06 334.97, 613.18 332.55, 613.00 330.00 C 612.92 326.50, 614.73 324.77, 614.00 322.00 C 613.37 317.72, 620.72 316.37, 618.00 314.00 C 617.58 311.03, 618.98 308.32, 617.00 307.00 C 616.22 303.07, 618.65 301.46, 619.00 299.00 C 619.08 295.50, 617.27 293.77, 618.00 291.00 C 614.56 289.25, 612.77 286.94, 610.00 287.00 C 606.89 280.80, 600.30 282.08, 596.00 280.00 C 589.85 278.37, 585.81 275.04, 580.00 276.00 Z" fill="rgb(242.91528436018956,152.61848341232226,3.3367890995260665)" stroke="rgb(242.91528436018956,152.61848341232226,3.3367890995260665)" stroke-width="1" />
<path d="M 582.00 524.00 C 580.45 526.92, 579.32 529.13, 576.00 530.00 C 574.06 534.30, 571.52 536.94, 570.00 540.00 C 566.17 542.91, 568.02 546.76, 566.00 549.00 C 565.89 553.56, 563.08 556.19, 565.00 559.00 C 563.71 562.27, 563.96 565.18, 564.00 568.00 C 565.51 572.82, 571.15 573.99, 572.00 577.00 C 574.70 578.25, 576.95 579.60, 580.00 579.00 C 584.34 579.15, 586.48 576.40, 590.00 577.00 C 594.32 576.53, 595.58 574.24, 599.00 576.00 C 602.76 574.34, 602.05 568.18, 606.00 568.00 C 606.95 563.62, 611.37 562.10, 612.00 559.00 C 615.69 555.56, 616.50 552.34, 617.00 549.00 C 613.87 544.70, 610.32 544.84, 608.00 542.00 C 604.24 540.41, 600.29 541.72, 598.00 539.00 C 594.72 535.68, 593.62 532.22, 590.00 532.00 C 586.22 530.31, 585.95 524.58, 583.00 524.00 Z" fill="rgb(218.72835051546392,175.97319587628866,41.217525773195874)" stroke="rgb(218.72835051546392,175.97319587628866,41.217525773195874)" stroke-width="1" />
<path d="M 446.00 402.00 C 441.69 404.85, 440.76 409.09, 439.00 413.00 C 439.43 418.12, 437.97 421.46, 437.00 425.00 C 434.09 429.17, 437.72 433.50, 435.00 437.00 C 430.54 441.06, 429.24 445.02, 428.00 449.00 C 427.93 454.60, 423.12 456.83, 423.00 461.00 C 422.23 465.90, 421.97 469.60, 421.00 473.00 C 421.00 477.67, 421.00 481.33, 421.00 485.00 C 421.36 487.66, 420.11 489.98, 422.00 491.00 C 422.86 493.79, 424.12 497.04, 425.00 493.00 C 429.23 488.12, 433.27 486.44, 435.00 482.00 C 437.94 479.58, 438.78 477.71, 440.00 476.00 C 442.38 474.51, 445.24 474.11, 445.00 472.00 C 447.49 467.81, 448.34 463.95, 449.00 460.00 C 451.92 455.99, 451.69 451.68, 453.00 448.00 C 453.70 443.90, 452.78 439.71, 453.00 436.00 C 454.00 431.33, 454.00 427.67, 454.00 424.00 C 454.00 419.33, 454.00 415.67, 454.00 412.00 C 454.71 406.76, 451.92 401.19, 447.00 402.00 Z" fill="rgb(191.8981324278438,163.94963214487834,75.9247311827957)" stroke="rgb(191.8981324278438,163.94963214487834,75.9247311827957)" stroke-width="1" />
<path d="M 615.00 499.00 C 612.48 501.80, 609.97 502.87, 609.00 506.00 C 606.38 507.68, 603.91 513.32, 601.00 510.00 C 597.36 509.34, 594.18 512.75, 592.00 511.00 C 588.47 511.51, 584.83 512.71, 584.00 515.00 C 583.50 519.01, 585.78 520.87, 585.00 524.00 C 587.27 527.19, 588.48 531.57, 592.00 531.00 C 596.14 534.33, 597.10 537.57, 600.00 540.00 C 604.06 539.72, 606.68 540.49, 609.00 542.00 C 612.70 543.59, 614.61 547.07, 618.00 547.00 C 622.09 546.03, 624.88 545.32, 627.00 543.00 C 628.25 539.30, 629.60 537.05, 629.00 534.00 C 628.26 530.36, 626.23 528.26, 627.00 525.00 C 622.79 523.83, 621.25 521.25, 622.00 518.00 C 625.55 516.60, 624.98 512.43, 625.00 510.00 C 625.00 506.33, 625.00 503.67, 625.00 501.00 C 622.06 497.91, 618.60 499.49, 616.00 499.00 Z" fill="rgb(136.60528144544824,126.84155663655316,67.38429464906184)" stroke="rgb(136.60528144544824,126.84155663655316,67.38429464906184)" stroke-width="1" />
<path d="M 346.00 424.00 C 343.59 428.75, 342.84 434.18, 343.00 440.00 C 343.72 444.06, 344.49 446.68, 346.00 449.00 C 346.68 453.08, 349.87 455.11, 351.00 458.00 C 352.34 461.61, 354.06 463.64, 355.00 466.00 C 357.12 470.51, 360.79 470.21, 363.00 473.00 C 364.56 477.23, 369.09 476.71, 371.00 479.00 C 374.05 482.49, 376.75 483.40, 380.00 483.00 C 387.35 482.55, 384.27 473.67, 385.00 469.00 C 383.91 466.22, 380.63 463.47, 378.00 463.00 C 374.57 459.10, 371.33 458.14, 369.00 455.00 C 366.77 451.43, 364.88 448.72, 363.00 446.00 C 361.33 442.47, 359.96 439.82, 359.00 437.00 C 356.67 433.75, 357.33 430.25, 355.00 428.00 C 352.95 424.51, 350.25 423.60, 347.00 424.00 Z" fill="rgb(191.8578811369509,163.86735572782084,75.98277347114556)" stroke="rgb(191.8578811369509,163.86735572782084,75.98277347114556)" stroke-width="1" />
<path d="M 362.00 332.00 C 359.39 333.40, 356.69 335.62, 357.00 339.00 C 355.77 342.36, 357.64 344.79, 357.00 348.00 C 358.78 352.13, 356.50 353.99, 357.00 357.00 C 358.12 360.62, 359.81 363.00, 360.00 366.00 C 358.97 370.78, 362.99 372.47, 365.00 375.00 C 364.47 379.44, 366.57 381.79, 369.00 384.00 C 372.24 387.70, 375.03 389.06, 378.00 390.00 C 382.07 390.37, 383.19 395.43, 387.00 394.00 C 391.23 397.57, 391.69 393.84, 392.00 391.00 C 393.29 387.73, 393.04 384.82, 393.00 382.00 C 389.19 379.94, 386.93 378.30, 386.00 375.00 C 382.04 371.59, 380.30 368.68, 378.00 366.00 C 376.91 362.23, 373.02 360.63, 374.00 357.00 C 372.47 353.18, 370.02 350.71, 372.00 348.00 C 372.32 343.79, 369.35 341.94, 369.00 339.00 C 367.68 335.13, 367.10 330.82, 363.00 332.00 Z" fill="rgb(192.0244122965642,164.02983725135624,75.76672694394213)" stroke="rgb(192.0244122965642,164.02983725135624,75.76672694394213)" stroke-width="1" />
<path d="M 186.00 366.00 C 184.13 367.48, 180.31 368.73, 181.00 372.00 C 180.25 375.63, 179.32 378.19, 179.00 381.00 C 178.61 384.45, 176.86 386.33, 177.00 389.00 C 174.86 392.05, 176.92 395.85, 175.00 398.00 C 172.67 401.33, 171.05 403.55, 170.00 406.00 C 167.28 409.65, 166.31 412.79, 163.00 414.00 C 161.70 415.72, 158.10 419.64, 160.00 420.00 C 162.18 423.39, 163.43 426.23, 167.00 426.00 C 170.58 428.71, 172.42 426.12, 174.00 424.00 C 175.58 419.88, 179.18 418.02, 180.00 415.00 C 183.19 412.02, 184.13 409.52, 185.00 407.00 C 187.86 403.55, 189.37 400.96, 190.00 398.00 C 191.87 391.61, 194.74 387.05, 194.00 381.00 C 194.54 377.72, 196.04 374.63, 194.00 373.00 C 191.73 369.81, 190.52 365.43, 187.00 366.00 Z" fill="rgb(253.2316326530612,223.97040816326532,7.454081632653061)" stroke="rgb(253.2316326530612,223.97040816326532,7.454081632653061)" stroke-width="1" />
<path d="M 480.00 249.00 C 480.44 249.90, 478.99 252.67, 481.00 252.00 C 484.34 252.73, 482.44 249.00, 481.00 250.00 Z" fill="rgb(242.42857142857142,207.28571428571428,88.92857142857143)" stroke="rgb(242.42857142857142,207.28571428571428,88.92857142857143)" stroke-width="1" />
</svg>