<svg xmlns="http://www.w3.org/2000/svg" width="800" height="800" viewbox="0 0 800 800">
<path d="M 0.50 0.50 C 0.50 4.17, 0.50 7.83, 0.50 11.50 C 0.50 16.17, 0.50 19.83, 0.50 23.50 C 0.50 28.17, 0.50 31.83, 0.50 35.50 C 0.50 40.50, 0.50 44.50, 0.50 48.50 C 0.50 53.17, 0.50 56.83, 0.50 60.50 C 0.50 65.50, 0.50 69.50, 0.50 73.50 C 0.50 78.17, 0.50 81.83, 0.50 85.50 C 0.50 90.50, 0.50 94.50, 0.50 98.50 C 0.50 103.17, 0.50 106.83, 0.50 110.50 C 0.50 115.50, 0.50 119.50, 0.50 123.50 C 0.50 128.17, 0.50 131.83, 0.50 135.50 C 0.50 140.50, 0.50 144.50, 0.50 148.50 C 0.50 153.17, 0.50 156.83, 0.50 160.50 C 0.50 165.50, 0.50 169.50, 0.50 173.50 C 0.50 178.17, 0.50 181.83, 0.50 185.50 C 0.50 190.50, 0.50 194.50, 0.50 198.50 C 0.50 203.17, 0.50 206.83, 0.50 210.50 C 0.50 215.50, 0.50 219.50, 0.50 223.50 C 0.50 228.17, 0.50 231.83, 0.50 235.50 C 0.50 240.50, 0.50 244.50, 0.50 248.50 C 0.50 253.17, 0.50 256.83, 0.50 260.50 C 0.50 265.50, 0.50 269.50, 0.50 273.50 C 0.50 278.17, 0.50 281.83, 0.50 285.50 C 0.50 290.50, 0.50 294.50, 0.50 298.50 C 0.50 303.17, 0.50 306.83, 0.50 310.50 C 0.50 315.50, 0.50 319.50, 0.50 323.50 C 0.50 328.17, 0.50 331.83, 0.50 335.50 C 0.50 340.50, 0.50 344.50, 0.50 348.50 C 0.50 353.17, 0.50 356.83, 0.50 360.50 C 0.50 365.50, 0.50 369.50, 0.50 373.50 C 0.50 378.17, 0.50 381.83, 0.50 385.50 C 0.50 390.50, 0.50 394.50, 0.50 398.50 C 0.50 403.17, 0.50 406.83, 0.50 410.50 C 0.50 415.50, 0.50 419.50, 0.50 423.50 C 0.50 428.17, 0.50 431.83, 0.50 435.50 C 0.50 440.50, 0.50 444.50, 0.50 448.50 C 0.50 453.17, 0.50 456.83, 0.50 460.50 C 0.50 465.50, 0.50 469.50, 0.50 473.50 C 0.50 478.17, 0.50 481.83, 0.50 485.50 C 0.50 490.50, 0.50 494.50, 0.50 498.50 C 0.50 503.17, 0.50 506.83, 0.50 510.50 C 0.50 515.50, 0.50 519.50, 0.50 523.50 C 0.50 528.17, 0.50 531.83, 0.50 535.50 C 0.50 540.50, 0.50 544.50, 0.50 548.50 C 0.50 553.17, 0.50 556.83, 0.50 560.50 C 0.50 565.50, 0.50 569.50, 0.50 573.50 C 0.50 578.17, 0.50 581.83, 0.50 585.50 C 0.50 590.50, 0.50 594.50, 0.50 598.50 C 0.50 603.17, 0.50 606.83, 0.50 610.50 C 0.50 615.50, 0.50 619.50, 0.50 623.50 C 0.50 628.17, 0.50 631.83, 0.50 635.50 C 0.50 640.50, 0.50 644.50, 0.50 648.50 C 0.50 653.17, 0.50 656.83, 0.50 660.50 C 0.50 665.50, 0.50 669.50, 0.50 673.50 C 0.50 678.17, 0.50 681.83, 0.50 685.50 C 0.50 690.50, 0.50 694.50, 0.50 698.50 C 0.50 703.17, 0.50 706.83, 0.50 710.50 C 0.50 715.50, 0.50 719.50, 0.50 723.50 C 0.50 728.17, 0.50 731.83, 0.50 735.50 C 0.50 740.50, 0.50 744.50, 0.50 748.50 C 0.50 753.17, 0.50 756.83, 0.50 760.50 C 0.50 765.50, 0.50 769.50, 0.50 773.50 C 0.50 778.17, 0.50 781.83, 0.50 785.50 C 0.50 790.50, 0.50 794.50, 0.50 798.50 C 4.17 799.50, 7.83 799.50, 11.50 799.50 C 16.17 799.50, 19.83 799.50, 23.50 799.50 C 28.17 799.50, 31.83 799.50, 35.50 799.50 C 40.50 799.50, 44.50 799.50, 48.50 799.50 C 53.17 799.50, 56.83 799.50, 60.50 799.50 C 65.50 799.50, 69.50 799.50, 73.50 799.50 C 78.17 799.50, 81.83 799.50, 85.50 799.50 C 90.50 799.50, 94.50 799.50, 98.50 799.50 C 103.17 799.50, 106.83 799.50, 110.50 799.50 C 115.50 799.50, 119.50 799.50, 123.50 799.50 C 128.17 799.50, 131.83 799.50, 135.50 799.50 C 140.50 799.50, 144.50 799.50, 148.50 799.50 C 153.17 799.50, 156.83 799.50, 160.50 799.50 C 165.50 799.50, 169.50 799.50, 173.50 799.50 C 178.17 799.50, 181.83 799.50, 185.50 799.50 C 190.50 799.50, 194.50 799.50, 198.50 799.50 C 203.17 799.50, 206.83 799.50, 210.50 799.50 C 215.50 799.50, 219.50 799.50, 223.50 799.50 C 228.17 799.50, 231.83 799.50, 235.50 799.50 C 240.50 799.50, 244.50 799.50, 248.50 799.50 C 253.17 799.50, 256.83 799.50, 260.50 799.50 C 265.50 799.50, 269.50 799.50, 273.50 799.50 C 278.17 799.50, 281.83 799.50, 285.50 799.50 C 290.50 799.50, 294.50 799.50, 298.50 799.50 C 303.17 799.50, 306.83 799.50, 310.50 799.50 C 315.50 799.50, 319.50 799.50, 323.50 799.50 C 328.17 799.50, 331.83 799.50, 335.50 799.50 C 340.50 799.50, 344.50 799.50, 348.50 799.50 C 353.17 799.50, 356.83 799.50, 360.50 799.50 C 365.50 799.50, 369.50 799.50, 373.50 799.50 C 378.17 799.50, 381.83 799.50, 385.50 799.50 C 390.50 799.50, 394.50 799.50, 398.50 799.50 C 403.17 799.50, 406.83 799.50, 410.50 799.50 C 415.50 799.50, 419.50 799.50, 423.50 799.50 C 428.17 799.50, 431.83 799.50, 435.50 799.50 C 440.50 799.50, 444.50 799.50, 448.50 799.50 C 453.17 799.50, 456.83 799.50, 460.50 799.50 C 465.50 799.50, 469.50 799.50, 473.50 799.50 C 478.17 799.50, 481.83 799.50, 485.50 799.50 C 490.50 799.50, 494.50 799.50, 498.50 799.50 C 503.17 799.50, 506.83 799.50, 510.50 799.50 C 515.50 799.50, 519.50 799.50, 523.50 799.50 C 528.17 799.50, 531.83 799.50, 535.50 799.50 C 540.50 799.50, 544.50 799.50, 548.50 799.50 C 553.17 799.50, 556.83 799.50, 560.50 799.50 C 565.50 799.50, 569.50 799.50, 573.50 799.50 C 578.17 799.50, 581.83 799.50, 585.50 799.50 C 590.50 799.50, 594.50 799.50, 598.50 799.50 C 603.17 799.50, 606.83 799.50, 610.50 799.50 C 615.50 799.50, 619.50 799.50, 623.50 799.50 C 628.17 799.50, 631.83 799.50, 635.50 799.50 C 640.50 799.50, 644.50 799.50, 648.50 799.50 C 653.17 799.50, 656.83 799.50, 660.50 799.50 C 665.50 799.50, 669.50 799.50, 673.50 799.50 C 678.17 799.50, 681.83 799.50, 685.50 799.50 C 690.50 799.50, 694.50 799.50, 698.50 799.50 C 703.17 799.50, 706.83 799.50, 710.50 799.50 C 715.50 799.50, 719.50 799.50, 723.50 799.50 C 728.17 799.50, 731.83 799.50, 735.50 799.50 C 740.50 799.50, 744.50 799.50, 748.50 799.50 C 753.17 799.50, 756.83 799.50, 760.50 799.50 C 765.50 799.50, 769.50 799.50, 773.50 799.50 C 778.17 799.50, 781.83 799.50, 785.50 799.50 C 790.50 799.50, 794.50 799.50, 798.50 799.50 C 799.50 795.83, 799.50 792.17, 799.50 788.50 C 799.50 783.83, 799.50 780.17, 799.50 776.50 C 799.50 771.83, 799.50 768.17, 799.50 764.50 C 799.50 759.50, 799.50 755.50, 799.50 751.50 C 799.50 746.83, 799.50 743.17, 799.50 739.50 C 799.50 734.50, 799.50 730.50, 799.50 726.50 C 799.50 721.83, 799.50 718.17, 799.50 714.50 C 799.50 709.50, 799.50 705.50, 799.50 701.50 C 799.50 696.83, 799.50 693.17, 799.50 689.50 C 799.50 684.50, 799.50 680.50, 799.50 676.50 C 799.50 671.83, 799.50 668.17, 799.50 664.50 C 799.50 659.50, 799.50 655.50, 799.50 651.50 C 799.50 646.83, 799.50 643.17, 799.50 639.50 C 799.50 634.50, 799.50 630.50, 799.50 626.50 C 799.50 621.83, 799.50 618.17, 799.50 614.50 C 799.50 609.50, 799.50 605.50, 799.50 601.50 C 799.50 596.83, 799.50 593.17, 799.50 589.50 C 799.50 584.50, 799.50 580.50, 799.50 576.50 C 799.50 571.83, 799.50 568.17, 799.50 564.50 C 799.50 559.50, 799.50 555.50, 799.50 551.50 C 799.50 546.83, 799.50 543.17, 799.50 539.50 C 799.50 534.50, 799.50 530.50, 799.50 526.50 C 799.50 521.83, 799.50 518.17, 799.50 514.50 C 799.50 509.50, 799.50 505.50, 799.50 501.50 C 799.50 496.83, 799.50 493.17, 799.50 489.50 C 799.50 484.50, 799.50 480.50, 799.50 476.50 C 799.50 471.83, 799.50 468.17, 799.50 464.50 C 799.50 459.50, 799.50 455.50, 799.50 451.50 C 799.50 446.83, 799.50 443.17, 799.50 439.50 C 799.50 434.50, 799.50 430.50, 799.50 426.50 C 799.50 421.83, 799.50 418.17, 799.50 414.50 C 799.50 409.50, 799.50 405.50, 799.50 401.50 C 799.50 396.83, 799.50 393.17, 799.50 389.50 C 799.50 384.50, 799.50 380.50, 799.50 376.50 C 799.50 371.83, 799.50 368.17, 799.50 364.50 C 799.50 359.50, 799.50 355.50, 799.50 351.50 C 799.50 346.83, 799.50 343.17, 799.50 339.50 C 799.50 334.50, 799.50 330.50, 799.50 326.50 C 799.50 321.83, 799.50 318.17, 799.50 314.50 C 799.50 309.50, 799.50 305.50, 799.50 301.50 C 799.50 296.83, 799.50 293.17, 799.50 289.50 C 799.50 284.50, 799.50 280.50, 799.50 276.50 C 799.50 271.83, 799.50 268.17, 799.50 264.50 C 799.50 259.50, 799.50 255.50, 799.50 251.50 C 799.50 246.83, 799.50 243.17, 799.50 239.50 C 799.50 234.50, 799.50 230.50, 799.50 226.50 C 799.50 221.83, 799.50 218.17, 799.50 214.50 C 799.50 209.50, 799.50 205.50, 799.50 201.50 C 799.50 196.83, 799.50 193.17, 799.50 189.50 C 799.50 184.50, 799.50 180.50, 799.50 176.50 C 799.50 171.83, 799.50 168.17, 799.50 164.50 C 799.50 159.50, 799.50 155.50, 799.50 151.50 C 799.50 146.83, 799.50 143.17, 799.50 139.50 C 799.50 134.50, 799.50 130.50, 799.50 126.50 C 799.50 121.83, 799.50 118.17, 799.50 114.50 C 799.50 109.50, 799.50 105.50, 799.50 101.50 C 799.50 96.83, 799.50 93.17, 799.50 89.50 C 799.50 84.50, 799.50 80.50, 799.50 76.50 C 799.50 71.83, 799.50 68.17, 799.50 64.50 C 799.50 59.50, 799.50 55.50, 799.50 51.50 C 799.50 46.83, 799.50 43.17, 799.50 39.50 C 799.50 34.50, 799.50 30.50, 799.50 26.50 C 799.50 21.83, 799.50 18.17, 799.50 14.50 C 799.50 9.50, 799.50 5.50, 799.50 1.50 C 795.83 0.50, 792.17 0.50, 788.50 0.50 C 783.83 0.50, 780.17 0.50, 776.50 0.50 C 771.83 0.50, 768.17 0.50, 764.50 0.50 C 759.50 0.50, 755.50 0.50, 751.50 0.50 C 746.83 0.50, 743.17 0.50, 739.50 0.50 C 734.50 0.50, 730.50 0.50, 726.50 0.50 C 721.83 0.50, 718.17 0.50, 714.50 0.50 C 709.50 0.50, 705.50 0.50, 701.50 0.50 C 696.83 0.50, 693.17 0.50, 689.50 0.50 C 684.50 0.50, 680.50 0.50, 676.50 0.50 C 671.83 0.50, 668.17 0.50, 664.50 0.50 C 659.50 0.50, 655.50 0.50, 651.50 0.50 C 646.83 0.50, 643.17 0.50, 639.50 0.50 C 634.50 0.50, 630.50 0.50, 626.50 0.50 C 621.83 0.50, 618.17 0.50, 614.50 0.50 C 609.50 0.50, 605.50 0.50, 601.50 0.50 C 596.83 0.50, 593.17 0.50, 589.50 0.50 C 584.50 0.50, 580.50 0.50, 576.50 0.50 C 571.83 0.50, 568.17 0.50, 564.50 0.50 C 559.50 0.50, 555.50 0.50, 551.50 0.50 C 546.83 0.50, 543.17 0.50, 539.50 0.50 C 534.50 0.50, 530.50 0.50, 526.50 0.50 C 521.83 0.50, 518.17 0.50, 514.50 0.50 C 509.50 0.50, 505.50 0.50, 501.50 0.50 C 496.83 0.50, 493.17 0.50, 489.50 0.50 C 484.50 0.50, 480.50 0.50, 476.50 0.50 C 471.83 0.50, 468.17 0.50, 464.50 0.50 C 459.50 0.50, 455.50 0.50, 451.50 0.50 C 446.83 0.50, 443.17 0.50, 439.50 0.50 C 434.50 0.50, 430.50 0.50, 426.50 0.50 C 421.83 0.50, 418.17 0.50, 414.50 0.50 C 409.50 0.50, 405.50 0.50, 401.50 0.50 C 396.83 0.50, 393.17 0.50, 389.50 0.50 C 384.50 0.50, 380.50 0.50, 376.50 0.50 C 371.83 0.50, 368.17 0.50, 364.50 0.50 C 359.50 0.50, 355.50 0.50, 351.50 0.50 C 346.83 0.50, 343.17 0.50, 339.50 0.50 C 334.50 0.50, 330.50 0.50, 326.50 0.50 C 321.83 0.50, 318.17 0.50, 314.50 0.50 C 309.50 0.50, 305.50 0.50, 301.50 0.50 C 296.83 0.50, 293.17 0.50, 289.50 0.50 C 284.50 0.50, 280.50 0.50, 276.50 0.50 C 271.83 0.50, 268.17 0.50, 264.50 0.50 C 259.50 0.50, 255.50 0.50, 251.50 0.50 C 246.83 0.50, 243.17 0.50, 239.50 0.50 C 234.50 0.50, 230.50 0.50, 226.50 0.50 C 221.83 0.50, 218.17 0.50, 214.50 0.50 C 209.50 0.50, 205.50 0.50, 201.50 0.50 C 196.83 0.50, 193.17 0.50, 189.50 0.50 C 184.50 0.50, 180.50 0.50, 176.50 0.50 C 171.83 0.50, 168.17 0.50, 164.50 0.50 C 159.50 0.50, 155.50 0.50, 151.50 0.50 C 146.83 0.50, 143.17 0.50, 139.50 0.50 C 134.50 0.50, 130.50 0.50, 126.50 0.50 C 121.83 0.50, 118.17 0.50, 114.50 0.50 C 109.50 0.50, 105.50 0.50, 101.50 0.50 C 96.83 0.50, 93.17 0.50, 89.50 0.50 C 84.50 0.50, 80.50 0.50, 76.50 0.50 C 71.83 0.50, 68.17 0.50, 64.50 0.50 C 59.50 0.50, 55.50 0.50, 51.50 0.50 C 46.83 0.50, 43.17 0.50, 39.50 0.50 C 34.50 0.50, 30.50 0.50, 26.50 0.50 C 21.83 0.50, 18.17 0.50, 14.50 0.50 C 9.50 0.50, 5.50 0.50, 1.50 0.50 Z" fill="rgb(254.7991629710368,254.37517368767004,253.6052984099778)" stroke="rgb(254.7991629710368,254.37517368767004,253.6052984099778)" stroke-width="1" />
<path d="M 393.50 40.50 C 389.62 42.73, 384.06 40.91, 379.50 41.50 C 373.06 40.78, 368.68 42.60, 363.50 42.50 C 358.33 45.16, 351.70 41.91, 347.50 44.50 C 341.11 44.22, 336.67 46.25, 331.50 46.50 C 325.35 47.46, 320.16 48.34, 315.50 50.50 C 309.46 51.74, 304.00 51.95, 299.50 54.50 C 293.50 55.84, 288.55 57.30, 283.50 58.50 C 277.42 60.32, 272.63 62.82, 267.50 64.50 C 261.92 66.71, 257.24 68.67, 252.50 70.50 C 246.63 73.48, 241.69 76.28, 236.50 78.50 C 230.21 81.14, 225.62 84.45, 220.50 86.50 C 214.49 90.46, 209.20 92.78, 204.50 96.50 C 198.67 100.91, 194.53 103.61, 189.50 106.50 C 183.81 112.25, 178.29 115.00, 173.50 119.50 C 168.13 123.71, 163.80 126.68, 159.50 131.50 C 154.60 136.41, 150.08 140.62, 145.50 144.50 C 141.13 150.27, 136.85 153.64, 132.50 157.50 C 128.92 163.64, 124.63 167.42, 120.50 171.50 C 116.84 177.50, 113.28 182.55, 109.50 187.50 C 105.69 193.72, 101.19 198.23, 98.50 203.50 C 93.94 209.13, 92.48 214.63, 89.50 219.50 C 87.54 226.07, 81.80 229.66, 81.50 235.50 C 79.06 241.87, 75.06 246.18, 73.50 251.50 C 69.05 256.90, 69.16 262.77, 66.50 267.50 C 64.45 273.75, 62.18 278.50, 60.50 283.50 C 58.93 289.68, 56.33 294.01, 56.50 299.50 C 53.91 305.12, 53.87 310.79, 51.50 315.50 C 50.04 321.31, 50.19 326.79, 48.50 331.50 C 46.31 337.01, 47.30 342.83, 45.50 347.50 C 45.11 353.48, 43.96 358.14, 44.50 363.50 C 42.55 368.83, 43.89 374.52, 43.50 379.50 C 43.50 385.50, 43.50 390.50, 43.50 395.50 C 43.50 401.17, 43.50 405.83, 43.50 410.50 C 43.50 416.50, 43.50 421.50, 43.50 426.50 C 44.44 432.25, 44.75 437.26, 44.50 442.50 C 45.47 448.79, 46.34 453.70, 47.50 458.50 C 48.15 464.64, 49.95 469.31, 50.50 474.50 C 51.72 480.55, 52.50 485.77, 54.50 490.50 C 56.32 496.30, 56.60 501.74, 58.50 506.50 C 60.90 512.20, 62.65 517.16, 63.50 522.50 C 66.07 528.68, 68.32 533.57, 70.50 538.50 C 73.22 544.34, 75.58 549.33, 77.50 554.50 C 81.77 560.25, 81.62 566.42, 86.50 570.50 C 88.18 576.91, 92.55 581.20, 94.50 586.50 C 99.53 591.55, 100.05 598.54, 105.50 601.50 C 107.32 608.13, 113.19 612.08, 115.50 617.50 C 119.78 623.92, 124.22 627.08, 127.50 632.50 C 132.58 638.47, 136.56 642.47, 141.50 647.50 C 147.17 653.17, 151.83 657.83, 156.50 662.50 C 162.36 667.84, 166.65 673.55, 172.50 675.50 C 175.80 680.82, 181.92 682.00, 185.50 686.50 C 190.77 692.27, 197.03 693.22, 201.50 698.50 C 207.57 701.00, 211.65 705.87, 217.50 706.50 C 223.05 711.58, 228.90 712.54, 233.50 716.50 C 239.38 719.45, 244.73 721.28, 249.50 724.50 C 255.42 727.04, 260.66 728.79, 265.50 731.50 C 271.30 733.99, 276.62 735.21, 281.50 737.50 C 287.98 738.01, 292.30 741.32, 297.50 742.50 C 303.70 743.35, 308.48 745.22, 313.50 746.50 C 319.23 748.15, 324.24 749.12, 329.50 749.50 C 335.46 750.60, 340.26 752.08, 345.50 752.50 C 351.05 754.24, 356.80 753.10, 361.50 754.50 C 367.68 754.40, 372.06 756.22, 377.50 755.50 C 383.25 756.44, 388.26 756.75, 393.50 756.50 C 399.17 756.50, 403.83 756.50, 408.50 756.50 C 413.70 753.91, 420.33 757.16, 424.50 754.50 C 430.92 755.19, 435.08 752.81, 440.50 753.50 C 446.33 752.08, 452.02 752.75, 456.50 750.50 C 462.55 749.63, 467.95 749.59, 472.50 747.50 C 478.94 747.22, 483.55 744.96, 488.50 743.50 C 494.61 742.43, 499.67 741.24, 504.50 739.50 C 510.30 737.34, 515.29 735.67, 520.50 734.50 C 526.41 731.29, 531.73 730.06, 536.50 727.50 C 542.17 724.04, 547.63 722.49, 552.50 719.50 C 558.48 716.78, 563.35 713.81, 568.50 711.50 C 574.52 707.89, 579.44 705.02, 584.50 702.50 C 590.33 697.75, 595.78 695.51, 600.50 691.50 C 606.43 686.66, 610.98 681.92, 616.50 679.50 C 622.67 674.48, 626.10 670.41, 631.50 667.50 C 635.98 661.82, 642.21 657.59, 646.50 652.50 C 651.01 646.91, 655.98 642.50, 659.50 637.50 C 664.80 632.35, 668.09 628.60, 672.50 623.50 C 676.50 617.64, 679.39 612.32, 683.50 607.50 C 687.13 600.95, 690.59 597.56, 694.50 592.50 C 697.98 586.42, 701.19 581.65, 703.50 576.50 C 705.99 570.15, 709.74 565.74, 711.50 560.50 C 714.92 554.54, 717.26 549.54, 719.50 544.50 C 722.44 538.75, 724.05 533.45, 726.50 528.50 C 728.42 522.19, 730.82 517.49, 732.50 512.50 C 735.26 506.95, 734.44 500.92, 737.50 496.50 C 737.83 490.08, 740.59 485.68, 741.50 480.50 C 742.15 474.35, 743.20 469.38, 744.50 464.50 C 745.49 458.63, 747.17 454.05, 746.50 448.50 C 746.96 442.14, 748.11 437.48, 748.50 432.50 C 749.44 426.75, 749.75 421.74, 749.50 416.50 C 748.97 410.13, 750.74 404.49, 750.50 400.50 C 751.11 394.44, 749.72 390.21, 749.50 385.50 C 749.11 379.52, 750.45 373.83, 748.50 369.50 C 749.19 363.08, 746.81 358.92, 747.50 353.50 C 747.83 347.09, 746.21 342.48, 745.50 337.50 C 743.81 331.79, 743.96 326.31, 742.50 321.50 C 742.09 314.84, 739.21 310.62, 738.50 305.50 C 737.91 298.92, 734.33 294.98, 734.50 289.50 C 732.30 283.31, 730.97 278.17, 728.50 273.50 C 727.69 267.01, 723.54 262.90, 722.50 257.50 C 719.46 251.52, 717.05 246.69, 715.50 241.50 C 711.91 235.47, 710.18 230.08, 706.50 225.50 C 704.48 219.23, 700.52 214.77, 698.50 209.50 C 695.17 203.08, 690.29 198.72, 687.50 193.50 C 681.46 188.07, 680.54 181.93, 675.50 177.50 C 671.47 171.51, 667.53 166.49, 663.50 161.50 C 657.98 155.30, 653.12 152.05, 649.50 146.50 C 643.83 141.83, 639.17 137.17, 634.50 132.50 C 628.87 126.26, 623.22 123.52, 618.50 118.50 C 612.71 114.00, 607.46 110.59, 602.50 106.50 C 596.34 102.54, 591.82 98.06, 586.50 95.50 C 580.63 91.52, 575.24 89.81, 570.50 86.50 C 564.13 83.72, 559.48 80.21, 554.50 77.50 C 548.33 75.58, 544.18 71.18, 538.50 70.50 C 532.65 67.14, 527.58 65.31, 522.50 63.50 C 516.63 60.84, 511.66 59.44, 506.50 58.50 C 500.05 57.25, 495.91 53.84, 490.50 53.50 C 484.89 51.22, 479.37 51.14, 474.50 49.50 C 469.06 47.14, 463.79 46.80, 458.50 46.50 C 452.88 44.59, 447.25 45.10, 442.50 43.50 C 436.20 43.57, 431.14 43.02, 426.50 41.50 C 420.50 41.50, 415.50 41.50, 410.50 41.50 C 404.42 38.46, 399.96 43.72, 394.50 40.50 Z" fill="rgb(237.03505182412925,199.020915322977,129.5983311428977)" stroke="rgb(237.03505182412925,199.020915322977,129.5983311428977)" stroke-width="1" />
<path d="M 407.50 148.50 C 403.16 150.61, 398.00 150.77, 393.50 152.50 C 387.06 153.30, 383.26 157.05, 378.50 158.50 C 372.61 160.29, 367.83 161.36, 363.50 163.50 C 357.20 166.44, 352.63 171.15, 347.50 174.50 C 342.99 180.23, 337.76 184.25, 335.50 189.50 C 329.26 194.52, 328.60 200.43, 323.50 204.50 C 319.60 210.07, 315.94 214.32, 314.50 219.50 C 311.70 225.72, 306.51 229.95, 304.50 235.50 C 302.38 240.98, 300.84 245.70, 299.50 250.50 C 298.80 256.71, 296.03 261.05, 293.50 265.50 C 290.95 270.94, 290.35 276.19, 287.50 280.50 C 285.77 286.61, 283.80 291.63, 281.50 296.50 C 279.44 301.59, 281.80 307.51, 279.50 311.50 C 278.78 317.42, 276.98 321.89, 275.50 326.50 C 273.18 331.48, 275.82 337.52, 273.50 341.50 C 271.55 346.83, 272.89 352.52, 272.50 357.50 C 272.14 363.16, 273.40 368.48, 271.50 372.50 C 269.55 377.64, 270.97 383.17, 269.50 387.50 C 267.27 392.38, 269.09 397.94, 268.50 402.50 C 268.58 408.60, 268.01 413.98, 269.50 418.50 C 269.28 424.21, 267.89 428.44, 268.50 433.50 C 267.99 439.65, 270.43 443.59, 270.50 448.50 C 271.29 453.98, 271.83 458.56, 271.50 463.50 C 272.07 469.68, 274.67 474.01, 274.50 479.50 C 279.25 484.17, 278.16 490.25, 281.50 494.50 C 285.73 499.24, 285.60 504.79, 287.50 509.50 C 291.61 515.17, 294.13 520.00, 299.50 523.50 C 304.99 528.07, 311.38 527.04, 315.50 531.50 C 320.88 533.53, 326.25 533.17, 330.50 535.50 C 337.11 535.56, 341.49 538.58, 345.50 542.50 C 350.71 544.93, 355.16 546.80, 360.50 546.50 C 366.86 547.62, 371.50 549.49, 376.50 550.50 C 383.03 551.27, 381.62 543.38, 382.50 539.50 C 382.50 533.83, 382.50 529.17, 382.50 524.50 C 382.50 518.83, 382.50 514.17, 382.50 509.50 C 383.05 503.37, 386.19 498.27, 383.50 493.50 C 384.94 487.81, 385.03 481.00, 378.50 484.50 C 372.87 481.74, 368.21 479.05, 363.50 476.50 C 359.92 471.63, 355.41 468.60, 352.50 463.50 C 351.10 456.97, 345.25 453.29, 344.50 447.50 C 343.24 442.26, 341.15 436.94, 343.50 432.50 C 343.47 427.14, 347.59 418.76, 352.50 424.50 C 358.22 427.82, 358.59 434.45, 361.50 438.50 C 363.77 444.66, 367.30 449.31, 369.50 454.50 C 373.27 460.32, 379.93 460.42, 383.50 465.50 C 388.20 463.29, 388.84 457.37, 388.50 452.50 C 387.20 447.45, 390.60 442.75, 389.50 437.50 C 387.94 432.21, 387.94 425.79, 389.50 421.50 C 391.21 416.13, 391.43 411.14, 392.50 406.50 C 391.92 400.14, 388.97 395.28, 383.50 393.50 C 378.20 390.17, 371.81 389.44, 369.50 383.50 C 363.68 379.26, 363.97 373.18, 359.50 369.50 C 359.43 363.59, 356.99 359.65, 357.50 354.50 C 358.09 348.45, 355.74 344.62, 356.50 339.50 C 358.01 333.68, 364.03 328.90, 368.50 333.50 C 369.57 339.74, 373.91 344.44, 372.50 349.50 C 372.14 356.56, 377.45 359.85, 379.50 364.50 C 382.53 370.43, 385.98 375.19, 390.50 379.50 C 395.45 378.38, 392.37 370.92, 395.50 367.50 C 393.57 361.91, 397.57 357.03, 396.50 351.50 C 396.24 345.59, 398.26 341.62, 397.50 336.50 C 396.70 329.75, 398.87 325.24, 400.50 320.50 C 401.59 314.55, 400.89 309.74, 401.50 305.50 C 401.50 299.50, 401.50 294.50, 401.50 289.50 C 401.11 283.35, 405.71 277.58, 410.50 276.50 C 416.43 279.27, 420.51 283.10, 421.50 288.50 C 419.60 293.52, 420.86 298.84, 420.50 303.50 C 419.78 310.21, 422.77 314.39, 423.50 319.50 C 423.93 324.67, 422.32 330.42, 423.50 334.50 C 428.64 331.48, 432.16 326.20, 434.50 321.50 C 440.09 316.90, 438.01 310.13, 443.50 306.50 C 448.29 308.78, 445.64 315.33, 446.50 320.50 C 446.44 326.97, 443.93 331.01, 442.50 335.50 C 444.36 341.80, 436.27 345.41, 435.50 350.50 C 433.19 357.10, 423.71 357.61, 425.50 364.50 C 423.32 370.04, 426.66 375.08, 425.50 380.50 C 425.48 386.30, 425.89 391.27, 424.50 395.50 C 427.93 400.02, 426.00 405.76, 426.50 410.50 C 424.85 415.76, 425.39 420.92, 424.50 425.50 C 424.10 431.39, 422.26 437.29, 424.50 441.50 C 423.32 446.77, 422.68 452.69, 423.50 456.50 C 428.06 453.89, 426.42 447.72, 429.50 443.50 C 433.90 438.55, 434.15 433.30, 435.50 428.50 C 438.21 423.07, 437.51 417.23, 439.50 412.50 C 440.25 406.79, 443.83 400.85, 449.50 401.50 C 455.84 403.19, 455.66 409.56, 455.50 414.50 C 456.38 420.58, 455.35 424.02, 455.50 429.50 C 456.28 435.96, 454.04 440.17, 454.50 445.50 C 452.91 451.06, 453.20 456.40, 450.50 460.50 C 448.87 466.73, 448.85 472.22, 443.50 475.50 C 437.50 480.64, 435.05 485.47, 431.50 489.50 C 425.64 493.41, 423.58 499.51, 421.50 504.50 C 420.74 510.62, 423.09 514.45, 422.50 519.50 C 420.58 522.95, 422.35 524.83, 422.50 527.50 C 420.46 530.13, 421.96 533.22, 421.50 535.50 C 421.72 541.79, 422.12 546.17, 422.50 550.50 C 426.21 556.11, 432.71 551.35, 437.50 552.50 C 443.73 552.20, 447.88 550.28, 452.50 549.50 C 458.96 550.09, 463.07 547.41, 467.50 545.50 C 473.28 544.77, 478.12 544.20, 482.50 542.50 C 488.46 539.73, 493.54 537.27, 498.50 534.50 C 503.76 529.43, 509.77 525.87, 512.50 520.50 C 513.76 513.83, 516.74 509.30, 521.50 505.50 C 526.18 500.11, 529.58 495.62, 531.50 490.50 C 533.55 484.93, 535.03 480.13, 534.50 474.50 C 534.24 468.59, 536.26 464.62, 535.50 459.50 C 535.72 453.79, 537.11 449.56, 536.50 444.50 C 536.44 438.58, 533.66 434.79, 534.50 429.50 C 537.06 423.56, 535.84 419.04, 535.50 413.50 C 535.83 407.56, 535.29 402.98, 534.50 398.50 C 534.50 392.83, 534.50 388.17, 534.50 383.50 C 533.50 377.83, 533.50 373.17, 533.50 368.50 C 533.50 362.50, 533.50 357.50, 533.50 352.50 C 530.96 347.61, 534.13 341.36, 531.50 337.50 C 530.06 332.02, 531.70 326.26, 528.50 322.50 C 526.23 317.36, 527.37 311.81, 525.50 307.50 C 524.41 301.67, 524.79 296.24, 523.50 291.50 C 522.12 285.85, 520.63 281.25, 519.50 276.50 C 518.12 270.85, 516.63 266.25, 515.50 261.50 C 513.40 256.15, 512.91 251.14, 511.50 246.50 C 510.17 240.22, 507.53 235.49, 505.50 230.50 C 506.50 223.87, 502.33 220.38, 501.50 215.50 C 498.31 209.77, 495.19 205.43, 493.50 200.50 C 489.90 194.53, 487.27 189.57, 482.50 185.50 C 480.62 178.35, 473.16 174.92, 470.50 169.50 C 464.97 164.16, 460.34 160.08, 455.50 156.50 C 449.74 153.93, 445.26 150.66, 439.50 150.50 C 433.82 149.87, 429.66 147.99, 424.50 148.50 C 418.50 148.50, 413.50 148.50, 408.50 148.50 Z" fill="rgb(253.9503134587168,224.97687074829932,1.264279044951314)" stroke="rgb(253.9503134587168,224.97687074829932,1.264279044951314)" stroke-width="1" />
<path d="M 410.50 276.50 C 408.07 280.05, 403.03 280.73, 403.50 285.50 C 400.90 289.31, 401.65 293.09, 401.50 296.50 C 401.81 304.77, 399.73 311.04, 400.50 318.50 C 400.46 323.09, 397.72 325.57, 398.50 329.50 C 396.90 333.31, 397.65 337.09, 397.50 340.50 C 398.27 345.29, 395.96 347.81, 396.50 351.50 C 396.93 356.62, 395.47 359.96, 394.50 363.50 C 395.04 368.19, 392.73 370.71, 393.50 374.50 C 392.63 381.50, 386.74 374.37, 385.50 372.50 C 382.56 368.00, 379.11 365.13, 377.50 361.50 C 375.68 356.76, 373.35 353.64, 373.50 349.50 C 372.40 345.07, 371.17 341.69, 369.50 338.50 C 367.99 334.00, 366.08 331.34, 361.50 332.50 C 358.47 336.54, 355.33 339.13, 356.50 343.50 C 356.50 348.17, 356.50 351.83, 356.50 355.50 C 356.47 360.54, 359.27 362.99, 359.50 366.50 C 359.51 371.38, 362.81 373.90, 363.50 377.50 C 365.77 381.62, 367.03 385.73, 370.50 387.50 C 374.38 390.60, 377.44 393.26, 381.50 393.50 C 386.38 395.23, 389.51 399.29, 391.50 402.50 C 391.50 406.83, 391.50 410.17, 391.50 413.50 C 391.28 418.43, 388.54 420.91, 388.50 424.50 C 388.00 429.41, 386.85 432.73, 388.50 436.50 C 388.18 444.50, 386.93 451.13, 387.50 458.50 C 385.71 464.48, 379.78 464.29, 377.50 460.50 C 372.38 456.16, 370.29 451.98, 366.50 448.50 C 362.69 440.42, 359.15 433.65, 356.50 426.50 C 352.65 424.47, 348.91 422.19, 345.50 424.50 C 343.68 429.10, 343.32 432.90, 342.50 436.50 C 343.35 445.25, 345.73 452.37, 350.50 458.50 C 351.65 463.33, 354.76 466.33, 357.50 469.50 C 361.93 473.26, 364.58 477.92, 368.50 479.50 C 372.87 481.41, 375.46 485.20, 379.50 485.50 C 384.76 484.98, 384.68 490.32, 384.50 493.50 C 384.35 497.91, 385.10 501.69, 383.50 504.50 C 383.85 509.45, 381.72 512.37, 382.50 516.50 C 382.84 521.11, 382.28 524.35, 381.50 527.50 C 380.80 532.26, 382.50 535.03, 382.50 538.50 C 381.50 542.83, 381.50 546.17, 381.50 549.50 C 381.50 554.17, 381.50 557.83, 381.50 561.50 C 382.04 569.86, 379.73 576.04, 380.50 583.50 C 381.27 588.29, 378.96 590.81, 379.50 594.50 C 379.50 599.17, 379.50 602.83, 379.50 606.50 C 379.50 614.50, 379.50 621.50, 379.50 628.50 C 380.95 633.31, 379.30 635.78, 380.50 639.50 C 383.71 643.65, 375.42 647.02, 373.50 644.50 C 365.35 644.48, 358.93 646.20, 351.50 645.50 C 347.30 647.50, 344.35 649.09, 340.50 648.50 C 335.07 647.67, 332.93 652.33, 328.50 651.50 C 320.24 655.47, 313.45 662.51, 312.50 670.50 C 311.32 675.32, 311.65 678.93, 314.50 681.50 C 318.87 684.56, 322.91 685.99, 326.50 688.50 C 330.48 690.36, 334.07 690.74, 337.50 691.50 C 342.31 692.95, 344.78 691.30, 348.50 692.50 C 352.83 692.50, 356.17 692.50, 359.50 692.50 C 363.50 694.78, 367.52 694.60, 371.50 694.50 C 376.20 695.80, 379.53 691.68, 382.50 694.50 C 386.83 694.50, 390.17 694.50, 393.50 694.50 C 401.46 693.73, 408.47 693.11, 415.50 692.50 C 420.11 692.84, 423.35 692.28, 426.50 691.50 C 431.21 691.75, 433.95 689.64, 437.50 689.50 C 441.91 688.35, 445.69 689.10, 448.50 687.50 C 452.86 686.09, 456.67 685.77, 460.50 685.50 C 464.27 683.47, 467.81 683.31, 471.50 683.50 C 475.30 681.41, 480.52 681.65, 481.50 677.50 C 486.02 673.58, 483.51 669.81, 482.50 666.50 C 479.97 662.28, 478.91 656.97, 474.50 655.50 C 469.64 654.78, 467.60 650.64, 463.50 651.50 C 458.61 651.18, 456.57 647.40, 452.50 648.50 C 447.61 648.18, 445.57 644.40, 441.50 645.50 C 437.39 643.48, 432.76 645.14, 429.50 643.50 C 425.17 643.50, 421.83 643.50, 418.50 643.50 C 413.54 644.31, 410.54 639.49, 413.50 636.50 C 415.83 632.44, 417.67 629.18, 418.50 625.50 C 418.50 621.03, 420.20 618.26, 419.50 614.50 C 419.50 610.17, 419.50 606.83, 419.50 603.50 C 420.93 599.48, 419.62 595.33, 421.50 592.50 C 419.34 588.92, 421.04 584.75, 420.50 581.50 C 420.72 576.79, 419.80 572.60, 421.50 569.50 C 420.73 564.71, 423.04 562.19, 422.50 558.50 C 423.27 553.71, 420.96 551.19, 421.50 547.50 C 421.50 543.17, 421.50 539.83, 421.50 536.50 C 420.59 531.38, 424.01 528.04, 421.50 524.50 C 422.27 519.65, 422.27 517.35, 421.50 513.50 C 421.11 508.74, 420.24 505.82, 422.50 502.50 C 424.52 498.04, 425.56 494.17, 429.50 491.50 C 434.67 487.86, 435.88 482.40, 439.50 480.50 C 446.49 474.57, 449.54 467.62, 450.50 459.50 C 452.99 455.51, 454.05 452.34, 453.50 448.50 C 452.91 443.65, 456.09 441.35, 455.50 437.50 C 456.88 433.88, 454.27 429.19, 456.50 426.50 C 455.04 422.28, 455.63 418.55, 456.50 415.50 C 454.66 411.51, 456.55 406.98, 453.50 404.50 C 451.00 398.40, 445.09 401.67, 442.50 404.50 C 440.22 408.86, 439.03 412.25, 437.50 415.50 C 437.75 420.21, 435.64 422.95, 435.50 426.50 C 434.35 430.91, 435.10 434.69, 433.50 437.50 C 429.00 440.03, 428.97 445.56, 426.50 448.50 C 423.39 441.24, 425.01 433.43, 424.50 426.50 C 425.50 422.17, 425.50 418.83, 425.50 415.50 C 424.72 410.37, 426.85 407.45, 426.50 403.50 C 424.66 396.13, 425.82 388.51, 425.50 381.50 C 425.91 373.39, 424.23 365.42, 427.50 359.50 C 431.85 356.03, 434.84 353.32, 436.50 349.50 C 437.46 344.60, 441.94 342.57, 441.50 338.50 C 442.86 334.31, 445.04 331.47, 444.50 327.50 C 445.50 322.83, 445.50 319.17, 445.50 315.50 C 446.25 311.97, 445.07 304.76, 442.50 308.50 C 440.06 313.06, 438.81 316.71, 435.50 319.50 C 433.71 324.20, 430.93 327.48, 427.50 330.50 C 422.92 328.76, 422.62 324.67, 422.50 320.50 C 420.12 316.88, 422.73 312.19, 420.50 309.50 C 420.50 305.17, 420.50 301.83, 420.50 298.50 C 420.50 294.17, 420.50 290.83, 420.50 287.50 C 419.83 281.41, 414.11 280.51, 411.50 276.50 Z" fill="rgb(239.69607843137254,211.0566448801743,29.93028322440087)" stroke="rgb(239.69607843137254,211.0566448801743,29.93028322440087)" stroke-width="1" />
<path d="M 408.50 277.50 C 403.43 281.70, 401.60 287.24, 401.50 293.50 C 401.50 300.17, 401.50 305.83, 401.50 311.50 C 402.42 318.96, 399.60 323.88, 398.50 329.50 C 398.32 336.23, 399.14 342.38, 397.50 347.50 C 398.38 354.47, 395.96 359.08, 395.50 364.50 C 394.21 369.70, 396.00 381.25, 390.50 379.50 C 384.28 373.20, 380.07 367.48, 376.50 361.50 C 372.43 354.76, 373.40 349.04, 371.50 343.50 C 369.33 337.78, 367.15 329.24, 360.50 333.50 C 354.62 339.19, 357.39 345.53, 357.50 351.50 C 356.80 358.87, 359.45 363.86, 360.50 369.50 C 365.22 375.21, 364.50 383.69, 371.50 386.50 C 377.38 392.73, 384.44 392.70, 389.50 397.50 C 393.91 403.23, 392.30 410.12, 391.50 415.50 C 390.25 422.06, 388.38 427.37, 388.50 433.50 C 390.25 440.61, 388.31 445.62, 388.50 451.50 C 388.92 457.69, 388.36 465.88, 381.50 464.50 C 373.90 460.45, 369.80 454.09, 365.50 448.50 C 361.27 442.48, 360.43 436.06, 357.50 430.50 C 355.15 422.85, 343.05 420.80, 344.50 429.50 C 341.92 435.74, 343.87 440.68, 344.50 446.50 C 346.61 453.95, 352.03 458.61, 354.50 464.50 C 358.61 470.74, 363.89 476.34, 369.50 478.50 C 372.53 482.70, 375.82 482.88, 378.50 484.50 C 383.35 482.76, 384.17 485.40, 385.50 488.50 C 382.66 494.38, 387.58 500.36, 384.50 505.50 C 382.86 511.62, 383.68 517.77, 383.50 523.50 C 383.50 530.17, 383.50 535.83, 383.50 541.50 C 381.62 548.09, 381.39 553.60, 382.50 559.50 C 380.27 563.23, 382.94 565.37, 382.50 568.50 C 382.10 572.55, 380.75 574.80, 380.50 577.50 C 382.44 583.55, 379.39 589.47, 380.50 595.50 C 379.01 602.51, 381.27 607.37, 380.50 613.50 C 380.74 620.86, 379.99 625.90, 380.50 631.50 C 379.80 639.10, 381.68 643.91, 387.50 646.50 C 389.03 650.74, 393.12 651.39, 395.50 652.50 C 398.44 649.41, 401.90 650.99, 404.50 650.50 C 410.86 644.81, 411.10 638.00, 414.50 632.50 C 417.56 626.27, 419.22 620.88, 418.50 614.50 C 418.23 608.28, 418.23 602.72, 419.50 597.50 C 422.14 591.35, 419.60 584.88, 419.50 579.50 C 421.40 573.35, 420.14 566.88, 421.50 561.50 C 420.89 554.95, 422.76 548.37, 420.50 543.50 C 420.04 536.84, 420.96 531.75, 421.50 526.50 C 422.12 519.44, 420.71 514.22, 420.50 508.50 C 420.76 501.11, 425.02 495.97, 428.50 490.50 C 435.64 486.33, 437.76 477.42, 444.50 474.50 C 447.83 467.97, 448.68 461.83, 451.50 456.50 C 453.96 450.44, 452.53 443.76, 454.50 438.50 C 453.88 431.44, 455.29 426.22, 455.50 420.50 C 452.31 415.10, 457.53 405.77, 451.50 403.50 C 443.20 401.06, 441.11 408.49, 439.50 413.50 C 436.85 416.35, 440.15 420.65, 437.50 422.50 C 436.76 426.14, 434.73 428.24, 435.50 431.50 C 435.24 439.16, 428.60 443.19, 427.50 449.50 C 423.18 450.20, 424.02 440.23, 423.50 435.50 C 422.75 428.72, 425.10 424.22, 424.50 418.50 C 426.52 412.53, 425.06 406.12, 425.50 400.50 C 423.24 394.63, 425.11 388.05, 424.50 382.50 C 426.77 375.53, 422.51 369.80, 425.50 364.50 C 425.78 356.76, 434.62 353.57, 436.50 347.50 C 440.26 341.15, 442.73 335.68, 443.50 329.50 C 444.01 322.49, 446.27 317.63, 445.50 311.50 C 445.59 305.41, 441.43 308.52, 441.50 311.50 C 438.98 315.23, 437.85 318.11, 435.50 320.50 C 433.89 326.00, 424.16 338.26, 422.50 327.50 C 422.16 320.70, 420.84 315.30, 420.50 309.50 C 419.50 302.83, 419.50 297.17, 419.50 291.50 C 421.73 285.22, 415.68 277.85, 409.50 277.50 Z" fill="rgb(192.7217002576148,164.7221548719503,75.12441278981665)" stroke="rgb(192.7217002576148,164.7221548719503,75.12441278981665)" stroke-width="1" />
<path d="M 621.50 246.50 C 618.51 250.83, 622.29 255.72, 621.50 260.50 C 621.30 266.77, 625.57 271.76, 623.50 276.50 C 623.50 282.17, 623.50 286.83, 623.50 291.50 C 622.53 294.37, 621.36 298.76, 618.50 295.50 C 618.70 292.25, 618.91 288.52, 615.50 289.50 C 609.11 287.42, 607.26 281.90, 601.50 281.50 C 595.58 279.64, 590.54 278.07, 585.50 276.50 C 578.95 275.54, 573.99 279.46, 571.50 283.50 C 566.63 288.49, 567.95 296.40, 572.50 299.50 C 577.30 303.20, 585.51 308.15, 579.50 312.50 C 575.03 317.85, 569.14 320.67, 566.50 326.50 C 562.62 331.53, 560.29 336.19, 559.50 341.50 C 558.61 348.15, 563.87 353.37, 568.50 353.50 C 574.99 353.66, 579.00 357.32, 583.50 352.50 C 591.16 352.86, 593.21 343.64, 594.50 353.50 C 593.17 359.59, 592.03 364.89, 594.50 369.50 C 594.80 375.89, 600.99 381.00, 597.50 385.50 C 598.21 392.38, 603.48 394.52, 608.50 395.50 C 615.16 397.92, 620.92 397.50, 623.50 391.50 C 625.88 385.85, 629.91 381.89, 630.50 376.50 C 630.87 371.82, 628.70 359.67, 634.50 364.50 C 639.11 369.62, 644.93 368.10, 649.50 368.50 C 656.04 367.91, 660.41 364.07, 661.50 358.50 C 661.95 352.81, 659.94 347.56, 658.50 342.50 C 654.83 336.09, 649.24 331.89, 646.50 326.50 C 645.80 319.36, 652.20 318.38, 653.50 313.50 C 659.21 307.79, 664.50 303.33, 666.50 297.50 C 670.90 291.77, 665.16 285.80, 660.50 285.50 C 654.29 287.08, 650.32 291.47, 645.50 295.50 C 638.78 303.76, 639.67 293.86, 638.50 289.50 C 637.97 283.44, 637.48 278.37, 636.50 273.50 C 634.76 267.67, 633.57 262.61, 632.50 257.50 C 631.06 251.44, 629.22 245.03, 622.50 246.50 Z" fill="rgb(242.15384615384616,158.26923076923077,20.358974358974358)" stroke="rgb(242.15384615384616,158.26923076923077,20.358974358974358)" stroke-width="1" />
<path d="M 412.50 642.50 C 408.52 644.62, 409.25 650.25, 405.50 651.50 C 400.01 650.18, 397.50 653.63, 393.50 653.50 C 388.25 651.43, 387.13 645.95, 383.50 644.50 C 378.83 644.50, 375.17 644.50, 371.50 644.50 C 366.18 644.55, 364.41 644.81, 360.50 645.50 C 355.65 645.72, 351.22 644.54, 348.50 647.50 C 344.10 648.47, 340.40 648.73, 336.50 648.50 C 331.98 651.18, 328.02 651.82, 324.50 653.50 C 319.84 656.06, 316.62 660.31, 314.50 663.50 C 313.27 668.21, 310.30 671.20, 310.50 675.50 C 312.81 680.56, 316.55 683.25, 320.50 684.50 C 325.07 687.40, 328.36 689.98, 332.50 690.50 C 336.31 692.10, 340.09 691.35, 343.50 691.50 C 348.21 691.73, 351.44 693.11, 355.50 692.50 C 360.62 692.07, 363.96 693.53, 367.50 694.50 C 372.40 694.73, 376.10 694.47, 379.50 693.50 C 383.81 695.47, 387.81 693.18, 390.50 694.50 C 395.54 694.72, 399.28 694.25, 402.50 692.50 C 406.41 694.85, 410.87 693.07, 413.50 691.50 C 417.72 694.18, 421.46 690.15, 425.50 691.50 C 430.24 691.82, 433.22 690.31, 436.50 689.50 C 441.61 689.31, 444.63 689.10, 448.50 687.50 C 452.86 686.09, 456.67 685.77, 460.50 685.50 C 464.22 682.54, 468.65 683.72, 472.50 683.50 C 476.36 681.26, 481.58 681.06, 482.50 676.50 C 486.84 671.39, 482.10 668.23, 481.50 664.50 C 479.54 659.99, 477.01 655.22, 472.50 654.50 C 467.82 652.54, 464.25 651.29, 460.50 650.50 C 456.87 647.80, 453.20 647.62, 449.50 647.50 C 445.51 644.87, 440.88 646.20, 437.50 644.50 C 432.55 644.85, 429.63 642.72, 425.50 643.50 C 420.93 642.94, 416.40 644.68, 413.50 642.50 Z" fill="rgb(242.9229375696767,152.34057971014494,2.3167502787068006)" stroke="rgb(242.9229375696767,152.34057971014494,2.3167502787068006)" stroke-width="1" />
<path d="M 187.50 366.50 C 183.31 368.03, 180.90 371.08, 180.50 375.50 C 179.10 380.34, 178.75 384.61, 177.50 388.50 C 176.78 393.70, 175.28 397.16, 173.50 400.50 C 170.33 405.06, 168.64 410.31, 165.50 412.50 C 160.61 415.48, 159.13 419.77, 154.50 420.50 C 150.16 426.93, 145.78 424.45, 141.50 422.50 C 137.08 420.90, 133.69 419.23, 129.50 419.50 C 124.60 421.30, 121.07 416.12, 116.50 416.50 C 112.10 414.53, 108.40 414.27, 104.50 414.50 C 99.67 412.42, 95.33 412.58, 91.50 411.50 C 87.19 413.93, 82.16 415.85, 81.50 420.50 C 81.05 426.38, 87.71 428.31, 86.50 433.50 C 87.39 438.63, 90.96 441.64, 92.50 445.50 C 97.38 449.27, 100.99 453.16, 103.50 457.50 C 109.03 460.47, 110.69 465.34, 114.50 468.50 C 118.75 473.98, 122.51 476.42, 126.50 480.50 C 130.79 485.08, 134.87 486.75, 138.50 489.50 C 143.49 492.19, 147.64 494.49, 151.50 497.50 C 155.90 500.15, 160.25 500.50, 163.50 503.50 C 167.93 506.55, 172.32 507.26, 176.50 508.50 C 181.27 508.57, 186.40 508.54, 187.50 504.50 C 186.66 499.30, 184.76 495.95, 185.50 491.50 C 186.11 486.44, 184.73 483.21, 184.50 479.50 C 184.31 474.30, 183.55 470.34, 182.50 466.50 C 182.42 461.59, 180.92 458.27, 180.50 454.50 C 178.79 449.66, 178.10 445.39, 176.50 441.50 C 175.27 436.79, 172.30 433.80, 172.50 429.50 C 174.01 424.02, 176.68 420.02, 180.50 416.50 C 183.81 412.10, 185.19 407.90, 188.50 404.50 C 190.19 399.51, 192.18 395.65, 193.50 391.50 C 194.32 386.90, 194.68 383.10, 195.50 379.50 C 195.81 373.41, 192.09 369.98, 188.50 366.50 Z" fill="rgb(244.72,210.88,72.58)" stroke="rgb(244.72,210.88,72.58)" stroke-width="1" />
<path d="M 185.50 367.50 C 181.65 370.26, 181.28 374.47, 180.50 378.50 C 179.28 383.41, 177.90 387.25, 177.50 391.50 C 177.15 396.57, 173.52 399.29, 173.50 403.50 C 168.01 407.23, 169.38 414.09, 163.50 414.50 C 160.98 420.57, 154.99 418.69, 152.50 423.50 C 147.46 427.48, 143.34 422.34, 139.50 421.50 C 134.80 420.91, 131.84 418.54, 127.50 419.50 C 122.94 417.78, 118.57 417.00, 114.50 415.50 C 108.96 414.38, 106.32 415.62, 102.50 413.50 C 97.93 412.64, 92.83 410.62, 89.50 412.50 C 85.37 415.82, 81.30 416.19, 81.50 421.50 C 82.33 426.85, 87.92 429.22, 86.50 434.50 C 90.09 438.65, 89.91 443.35, 93.50 446.50 C 98.47 450.24, 101.51 454.36, 104.50 458.50 C 110.33 461.52, 111.95 467.40, 116.50 470.50 C 119.10 476.27, 125.69 477.05, 127.50 481.50 C 132.16 484.85, 135.22 488.66, 139.50 489.50 C 144.73 492.29, 148.34 495.55, 152.50 497.50 C 156.84 500.96, 161.28 500.76, 164.50 503.50 C 169.33 506.24, 173.17 507.97, 177.50 508.50 C 181.58 507.81, 187.61 508.38, 187.50 504.50 C 186.06 499.54, 184.99 495.85, 185.50 491.50 C 186.01 486.15, 184.94 482.46, 184.50 478.50 C 184.01 473.43, 183.98 469.17, 182.50 465.50 C 182.18 460.55, 181.31 456.83, 179.50 453.50 C 179.78 447.97, 176.69 444.84, 176.50 440.50 C 174.35 435.90, 171.55 432.98, 172.50 428.50 C 173.27 422.71, 178.16 419.64, 180.50 415.50 C 182.64 410.48, 187.23 407.88, 187.50 403.50 C 191.35 398.99, 191.10 394.20, 193.50 390.50 C 192.93 385.13, 195.26 381.95, 194.50 377.50 C 194.58 372.42, 191.23 366.86, 186.50 367.50 Z" fill="rgb(253.92258171013535,224.92703862660943,1.804060746120832)" stroke="rgb(253.92258171013535,224.92703862660943,1.804060746120832)" stroke-width="1" />
<path d="M 230.50 148.50 C 225.01 151.58, 219.30 154.16, 213.50 156.50 C 205.43 160.13, 203.00 167.87, 198.50 173.50 C 193.52 180.09, 193.08 187.15, 188.50 192.50 C 189.44 196.83, 186.07 198.38, 186.50 201.50 C 183.24 205.37, 178.84 205.00, 179.50 209.50 C 180.32 216.64, 189.20 217.14, 194.50 219.50 C 201.72 220.97, 206.67 224.51, 213.50 223.50 C 220.73 224.06, 227.34 224.53, 232.50 221.50 C 239.38 218.88, 245.41 216.63, 251.50 214.50 C 258.94 210.59, 262.75 203.97, 267.50 199.50 C 273.49 193.73, 274.76 185.82, 278.50 181.50 C 286.56 179.83, 280.09 166.55, 289.50 167.50 C 296.21 162.77, 303.23 158.35, 307.50 153.50 C 300.28 155.63, 294.87 158.71, 288.50 159.50 C 281.54 160.43, 275.16 164.69, 269.50 160.50 C 262.75 155.90, 257.22 151.77, 250.50 150.50 C 244.18 148.19, 237.83 148.37, 231.50 148.50 Z" fill="rgb(241.29901960784315,160.08333333333334,23.774509803921568)" stroke="rgb(241.29901960784315,160.08333333333334,23.774509803921568)" stroke-width="1" />
<path d="M 232.50 149.50 C 226.34 150.64, 221.38 154.68, 215.50 156.50 C 208.93 159.55, 204.24 165.02, 200.50 170.50 C 196.14 176.88, 193.00 182.35, 191.50 188.50 C 187.49 195.23, 187.56 203.38, 180.50 206.50 C 178.30 210.40, 178.56 213.84, 182.50 214.50 C 187.20 214.00, 188.10 219.27, 191.50 218.50 C 197.66 221.40, 203.27 223.18, 209.50 223.50 C 216.17 223.50, 221.83 223.50, 227.50 223.50 C 234.65 221.20, 240.68 218.60, 246.50 215.50 C 253.01 212.59, 260.20 209.96, 262.50 203.50 C 269.79 199.26, 272.09 191.90, 275.50 186.50 C 275.32 181.57, 279.12 180.70, 281.50 179.50 C 282.75 175.80, 284.10 173.55, 283.50 170.50 C 290.60 165.75, 296.45 161.37, 302.50 157.50 C 295.81 158.39, 289.98 162.05, 284.50 161.50 C 280.80 162.75, 278.55 164.10, 275.50 163.50 C 270.81 164.41, 268.87 159.46, 265.50 162.50 C 263.55 158.64, 259.72 152.43, 252.50 152.50 C 245.10 151.81, 240.00 148.96, 233.50 149.50 Z" fill="rgb(241.9874027417562,154.07576880326047,4.41756206002223)" stroke="rgb(241.9874027417562,154.07576880326047,4.41756206002223)" stroke-width="1" />
<path d="M 579.50 276.50 C 573.68 280.25, 566.72 285.15, 568.50 293.50 C 570.78 301.94, 582.77 302.33, 581.50 311.50 C 574.84 317.03, 567.39 321.16, 566.50 328.50 C 564.54 332.27, 559.65 333.37, 560.50 337.50 C 559.05 341.35, 559.05 345.65, 560.50 348.50 C 563.92 351.68, 567.10 356.95, 570.50 353.50 C 574.09 354.41, 577.91 356.86, 580.50 354.50 C 583.80 350.82, 588.75 354.51, 590.50 350.50 C 594.98 347.09, 595.59 355.70, 593.50 357.50 C 593.74 362.21, 592.12 364.18, 593.50 367.50 C 593.96 372.47, 596.14 375.31, 597.50 378.50 C 602.81 381.93, 594.75 385.58, 598.50 388.50 C 600.05 392.97, 603.38 395.23, 607.50 394.50 C 611.34 396.56, 614.52 396.79, 617.50 397.50 C 620.44 394.78, 623.95 392.04, 624.50 388.50 C 624.85 383.38, 629.26 382.94, 629.50 379.50 C 629.50 375.17, 629.50 371.83, 629.50 368.50 C 625.80 369.30, 623.68 366.51, 624.50 362.50 C 622.15 358.26, 618.76 357.54, 615.50 356.50 C 614.94 348.23, 615.37 342.05, 615.50 335.50 C 614.51 327.34, 616.66 321.49, 618.50 315.50 C 617.24 307.45, 620.83 300.66, 618.50 294.50 C 619.23 288.93, 614.90 289.78, 612.50 287.50 C 608.82 283.93, 605.28 282.43, 601.50 281.50 C 594.13 279.11, 588.04 276.06, 580.50 276.50 Z" fill="rgb(242.89872568745807,152.72568745808184,3.9684775318578134)" stroke="rgb(242.89872568745807,152.72568745808184,3.9684775318578134)" stroke-width="1" />
<path d="M 624.50 246.50 C 616.33 249.64, 624.19 257.21, 622.50 263.50 C 624.69 270.43, 624.26 276.14, 623.50 282.50 C 624.34 290.26, 622.77 296.03, 620.50 301.50 C 620.09 308.94, 621.81 316.26, 618.50 321.50 C 617.50 328.50, 617.50 334.50, 617.50 340.50 C 616.27 348.65, 620.04 354.98, 626.50 356.50 C 631.46 362.38, 638.20 369.53, 644.50 367.50 C 651.80 372.58, 660.19 365.14, 661.50 358.50 C 661.99 350.61, 659.54 344.93, 656.50 339.50 C 653.02 332.57, 641.72 327.25, 647.50 320.50 C 651.96 317.69, 652.12 315.24, 654.50 312.50 C 656.35 308.49, 661.99 307.32, 662.50 303.50 C 664.55 299.25, 668.34 297.13, 668.50 293.50 C 668.11 288.79, 664.56 286.65, 661.50 285.50 C 653.83 286.36, 649.71 293.05, 643.50 296.50 C 639.67 300.86, 637.61 298.20, 638.50 294.50 C 638.32 290.71, 639.22 287.06, 637.50 284.50 C 638.25 276.77, 635.38 271.55, 634.50 265.50 C 631.21 258.69, 632.64 249.79, 625.50 246.50 Z" fill="rgb(242.90193809661557,152.63089383858838,3.6262655481631474)" stroke="rgb(242.90193809661557,152.63089383858838,3.6262655481631474)" stroke-width="1" />
<path d="M 615.50 499.50 C 610.86 502.93, 610.01 506.66, 605.50 510.50 C 600.13 507.70, 596.82 512.44, 591.50 511.50 C 586.45 512.24, 581.43 516.02, 584.50 520.50 C 582.10 524.89, 580.09 529.20, 575.50 531.50 C 572.81 536.49, 570.51 540.64, 567.50 544.50 C 566.54 549.85, 564.53 553.76, 564.50 558.50 C 564.63 563.24, 563.21 568.39, 566.50 571.50 C 571.44 576.35, 573.50 580.50, 579.50 579.50 C 584.89 579.77, 587.82 576.52, 592.50 577.50 C 597.83 576.15, 602.79 575.65, 604.50 569.50 C 608.89 566.16, 611.01 560.78, 614.50 557.50 C 616.41 551.97, 619.39 546.50, 624.50 545.50 C 630.21 542.76, 628.45 537.34, 630.50 533.50 C 628.60 527.32, 625.70 524.36, 622.50 520.50 C 626.77 515.73, 626.05 511.53, 625.50 506.50 C 628.15 500.35, 621.03 498.49, 616.50 499.50 Z" fill="rgb(202.45714285714286,170.28571428571428,78.22857142857143)" stroke="rgb(202.45714285714286,170.28571428571428,78.22857142857143)" stroke-width="1" />
<path d="M 579.50 276.50 C 575.27 279.66, 569.93 282.97, 568.50 288.50 C 567.91 295.82, 572.55 300.27, 577.50 303.50 C 584.06 308.20, 580.42 313.38, 575.50 316.50 C 570.33 320.83, 565.77 324.66, 565.50 330.50 C 558.95 331.75, 561.33 339.82, 559.50 343.50 C 559.83 350.05, 565.82 354.45, 571.50 353.50 C 577.49 358.19, 580.98 351.94, 586.50 352.50 C 591.30 346.05, 597.75 350.32, 597.50 343.50 C 599.86 343.46, 603.06 341.01, 603.50 345.50 C 605.40 351.95, 614.27 353.57, 611.50 345.50 C 612.98 340.17, 613.11 335.28, 613.50 330.50 C 613.31 323.94, 617.40 318.16, 618.50 314.50 C 618.67 308.35, 616.06 303.81, 619.50 299.50 C 619.50 292.75, 616.60 287.94, 610.50 287.50 C 607.39 281.30, 600.80 282.58, 596.50 280.50 C 590.35 278.87, 586.31 275.54, 580.50 276.50 Z" fill="rgb(242.98156956004757,152.1076099881094,1.9563020214030915)" stroke="rgb(242.98156956004757,152.1076099881094,1.9563020214030915)" stroke-width="1" />
<path d="M 582.50 524.50 C 578.86 530.13, 573.14 533.50, 570.50 540.50 C 566.67 543.41, 568.52 547.26, 566.50 549.50 C 566.39 554.06, 563.58 556.69, 565.50 559.50 C 561.29 567.42, 568.36 573.58, 572.50 577.50 C 578.50 581.00, 584.71 578.48, 590.50 577.50 C 594.82 577.03, 596.08 574.74, 599.50 576.50 C 603.26 574.84, 602.55 568.68, 606.50 568.50 C 609.77 561.06, 617.50 556.88, 617.50 549.50 C 611.72 542.55, 604.47 542.57, 598.50 539.50 C 595.22 536.18, 594.12 532.72, 590.50 532.50 C 586.72 530.81, 586.45 525.08, 583.50 524.50 Z" fill="rgb(218.68782249742003,175.82559339525284,40.26780185758514)" stroke="rgb(218.68782249742003,175.82559339525284,40.26780185758514)" stroke-width="1" />
<path d="M 446.50 402.50 C 442.19 405.35, 441.26 409.59, 439.50 413.50 C 439.93 418.62, 438.47 421.96, 437.50 425.50 C 434.59 429.67, 438.22 434.00, 435.50 437.50 C 431.04 441.56, 429.74 445.52, 428.50 449.50 C 428.43 455.10, 423.62 457.33, 423.50 461.50 C 422.73 466.40, 422.47 470.10, 421.50 473.50 C 421.50 478.17, 421.50 481.83, 421.50 485.50 C 420.92 489.44, 423.78 498.65, 425.50 493.50 C 429.73 488.62, 433.77 486.94, 435.50 482.50 C 438.96 477.37, 443.13 475.57, 445.50 472.50 C 447.99 468.31, 448.84 464.45, 449.50 460.50 C 452.42 456.49, 452.19 452.18, 453.50 448.50 C 454.20 444.40, 453.28 440.21, 453.50 436.50 C 454.50 431.83, 454.50 428.17, 454.50 424.50 C 454.50 419.83, 454.50 416.17, 454.50 412.50 C 455.21 407.26, 452.42 401.69, 447.50 402.50 Z" fill="rgb(191.37584650112868,163.40237020316027,76.54909706546276)" stroke="rgb(191.37584650112868,163.40237020316027,76.54909706546276)" stroke-width="1" />
<path d="M 615.50 499.50 C 609.78 502.46, 608.91 513.11, 601.50 510.50 C 595.41 513.32, 588.01 509.64, 584.50 515.50 C 585.16 522.05, 586.05 530.28, 592.50 531.50 C 596.64 534.83, 597.60 538.07, 600.50 540.50 C 604.56 540.22, 607.18 540.99, 609.50 542.50 C 614.96 548.59, 622.29 548.04, 627.50 543.50 C 631.32 536.65, 627.82 531.27, 627.50 525.50 C 617.34 522.14, 627.34 516.37, 625.50 510.50 C 627.12 502.77, 623.86 497.41, 616.50 499.50 Z" fill="rgb(135.258199581298,125.86252616887649,66.54012561060712)" stroke="rgb(135.258199581298,125.86252616887649,66.54012561060712)" stroke-width="1" />
<path d="M 346.50 424.50 C 344.09 429.25, 343.34 434.68, 343.50 440.50 C 344.32 448.21, 347.95 453.34, 351.50 458.50 C 354.01 465.66, 358.06 470.37, 363.50 473.50 C 368.66 477.54, 373.95 483.85, 380.50 483.50 C 387.85 483.05, 384.77 474.17, 385.50 469.50 C 381.47 463.87, 374.15 461.00, 369.50 455.50 C 364.84 449.38, 361.94 443.54, 359.50 437.50 C 356.58 431.70, 355.61 422.96, 347.50 424.50 Z" fill="rgb(191.50129421915443,163.49784296807593,76.40724762726488)" stroke="rgb(191.50129421915443,163.49784296807593,76.40724762726488)" stroke-width="1" />
<path d="M 362.50 332.50 C 355.79 335.53, 357.36 342.51, 357.50 348.50 C 356.73 355.78, 358.36 360.89, 360.50 366.50 C 359.47 371.28, 363.49 372.97, 365.50 375.50 C 364.97 379.94, 367.07 382.29, 369.50 384.50 C 375.58 389.90, 381.55 392.19, 387.50 394.50 C 393.87 398.04, 392.97 386.98, 393.50 382.50 C 387.03 378.28, 383.57 371.75, 378.50 366.50 C 375.07 360.58, 371.01 354.14, 372.50 348.50 C 369.68 342.74, 369.87 332.97, 363.50 332.50 Z" fill="rgb(191.35862691960253,163.3595302619693,76.57181571815718)" stroke="rgb(191.35862691960253,163.3595302619693,76.57181571815718)" stroke-width="1" />
<path d="M 186.50 366.50 C 180.12 368.88, 181.28 376.31, 179.50 381.50 C 177.28 387.46, 176.93 393.21, 175.50 398.50 C 170.80 404.43, 168.96 411.23, 163.50 414.50 C 157.85 419.42, 161.64 425.09, 167.50 426.50 C 174.47 430.08, 176.95 418.86, 180.50 415.50 C 184.91 409.34, 188.63 404.30, 190.50 398.50 C 192.37 392.11, 195.24 387.55, 194.50 381.50 C 196.31 374.64, 192.79 367.90, 187.50 366.50 Z" fill="rgb(253.67831449126413,224.68242548818088,4.1623843782117165)" stroke="rgb(253.67831449126413,224.68242548818088,4.1623843782117165)" stroke-width="1" />
<path d="M 480.50 249.50 C 479.42 255.19, 486.87 251.34, 480.50 249.50 Z" fill="rgb(241.0,204.91666666666666,100.83333333333333)" stroke="rgb(241.0,204.91666666666666,100.83333333333333)" stroke-width="1" />
</svg>