<svg xmlns="http://www.w3.org/2000/svg" width="800" height="800" viewbox="0 0 800 800">
<path d="M 0.50 0.50 C 0.50 4.17, 0.50 7.83, 0.50 11.50 C 0.50 16.17, 0.50 19.83, 0.50 23.50 C 0.50 28.17, 0.50 31.83, 0.50 35.50 C 0.50 40.50, 0.50 44.50, 0.50 48.50 C 0.50 53.17, 0.50 56.83, 0.50 60.50 C 0.50 65.50, 0.50 69.50, 0.50 73.50 C 0.50 78.17, 0.50 81.83, 0.50 85.50 C 0.50 90.50, 0.50 94.50, 0.50 98.50 C 0.50 103.17, 0.50 106.83, 0.50 110.50 C 0.50 115.50, 0.50 119.50, 0.50 123.50 C 0.50 128.17, 0.50 131.83, 0.50 135.50 C 0.50 140.50, 0.50 144.50, 0.50 148.50 C 0.50 153.17, 0.50 156.83, 0.50 160.50 C 0.50 165.50, 0.50 169.50, 0.50 173.50 C 0.50 178.17, 0.50 181.83, 0.50 185.50 C 0.50 190.50, 0.50 194.50, 0.50 198.50 C 0.50 203.17, 0.50 206.83, 0.50 210.50 C 0.50 215.50, 0.50 219.50, 0.50 223.50 C 0.50 228.17, 0.50 231.83, 0.50 235.50 C 0.50 240.50, 0.50 244.50, 0.50 248.50 C 0.50 253.17, 0.50 256.83, 0.50 260.50 C 0.50 265.50, 0.50 269.50, 0.50 273.50 C 0.50 278.17, 0.50 281.83, 0.50 285.50 C 0.50 290.50, 0.50 294.50, 0.50 298.50 C 0.50 303.17, 0.50 306.83, 0.50 310.50 C 0.50 315.50, 0.50 319.50, 0.50 323.50 C 0.50 328.17, 0.50 331.83, 0.50 335.50 C 0.50 340.50, 0.50 344.50, 0.50 348.50 C 0.50 353.17, 0.50 356.83, 0.50 360.50 C 0.50 365.50, 0.50 369.50, 0.50 373.50 C 0.50 378.17, 0.50 381.83, 0.50 385.50 C 0.50 390.50, 0.50 394.50, 0.50 398.50 C 0.50 403.17, 0.50 406.83, 0.50 410.50 C 0.50 415.50, 0.50 419.50, 0.50 423.50 C 0.50 428.17, 0.50 431.83, 0.50 435.50 C 0.50 440.50, 0.50 444.50, 0.50 448.50 C 0.50 453.17, 0.50 456.83, 0.50 460.50 C 0.50 465.50, 0.50 469.50, 0.50 473.50 C 0.50 478.17, 0.50 481.83, 0.50 485.50 C 0.50 490.50, 0.50 494.50, 0.50 498.50 C 0.50 503.17, 0.50 506.83, 0.50 510.50 C 0.50 515.50, 0.50 519.50, 0.50 523.50 C 0.50 528.17, 0.50 531.83, 0.50 535.50 C 0.50 540.50, 0.50 544.50, 0.50 548.50 C 0.50 553.17, 0.50 556.83, 0.50 560.50 C 0.50 565.50, 0.50 569.50, 0.50 573.50 C 0.50 578.17, 0.50 581.83, 0.50 585.50 C 0.50 590.50, 0.50 594.50, 0.50 598.50 C 0.50 603.17, 0.50 606.83, 0.50 610.50 C 0.50 615.50, 0.50 619.50, 0.50 623.50 C 0.50 628.17, 0.50 631.83, 0.50 635.50 C 0.50 640.50, 0.50 644.50, 0.50 648.50 C 0.50 653.17, 0.50 656.83, 0.50 660.50 C 0.50 665.50, 0.50 669.50, 0.50 673.50 C 0.50 678.17, 0.50 681.83, 0.50 685.50 C 0.50 690.50, 0.50 694.50, 0.50 698.50 C 0.50 703.17, 0.50 706.83, 0.50 710.50 C 0.50 715.50, 0.50 719.50, 0.50 723.50 C 0.50 728.17, 0.50 731.83, 0.50 735.50 C 0.50 740.50, 0.50 744.50, 0.50 748.50 C 0.50 753.17, 0.50 756.83, 0.50 760.50 C 0.50 765.50, 0.50 769.50, 0.50 773.50 C 0.50 778.17, 0.50 781.83, 0.50 785.50 C 0.50 790.50, 0.50 794.50, 0.50 798.50 C 4.17 799.50, 7.83 799.50, 11.50 799.50 C 16.17 799.50, 19.83 799.50, 23.50 799.50 C 28.17 799.50, 31.83 799.50, 35.50 799.50 C 40.50 799.50, 44.50 799.50, 48.50 799.50 C 53.17 799.50, 56.83 799.50, 60.50 799.50 C 65.50 799.50, 69.50 799.50, 73.50 799.50 C 78.17 799.50, 81.83 799.50, 85.50 799.50 C 90.50 799.50, 94.50 799.50, 98.50 799.50 C 103.17 799.50, 106.83 799.50, 110.50 799.50 C 115.50 799.50, 119.50 799.50, 123.50 799.50 C 128.17 799.50, 131.83 799.50, 135.50 799.50 C 140.50 799.50, 144.50 799.50, 148.50 799.50 C 153.17 799.50, 156.83 799.50, 160.50 799.50 C 165.50 799.50, 169.50 799.50, 173.50 799.50 C 178.17 799.50, 181.83 799.50, 185.50 799.50 C 190.50 799.50, 194.50 799.50, 198.50 799.50 C 203.17 799.50, 206.83 799.50, 210.50 799.50 C 215.50 799.50, 219.50 799.50, 223.50 799.50 C 228.17 799.50, 231.83 799.50, 235.50 799.50 C 240.50 799.50, 244.50 799.50, 248.50 799.50 C 253.17 799.50, 256.83 799.50, 260.50 799.50 C 265.50 799.50, 269.50 799.50, 273.50 799.50 C 278.17 799.50, 281.83 799.50, 285.50 799.50 C 290.50 799.50, 294.50 799.50, 298.50 799.50 C 303.17 799.50, 306.83 799.50, 310.50 799.50 C 315.50 799.50, 319.50 799.50, 323.50 799.50 C 328.17 799.50, 331.83 799.50, 335.50 799.50 C 340.50 799.50, 344.50 799.50, 348.50 799.50 C 353.17 799.50, 356.83 799.50, 360.50 799.50 C 365.50 799.50, 369.50 799.50, 373.50 799.50 C 378.17 799.50, 381.83 799.50, 385.50 799.50 C 390.50 799.50, 394.50 799.50, 398.50 799.50 C 403.17 799.50, 406.83 799.50, 410.50 799.50 C 415.50 799.50, 419.50 799.50, 423.50 799.50 C 428.17 799.50, 431.83 799.50, 435.50 799.50 C 440.50 799.50, 444.50 799.50, 448.50 799.50 C 453.17 799.50, 456.83 799.50, 460.50 799.50 C 465.50 799.50, 469.50 799.50, 473.50 799.50 C 478.17 799.50, 481.83 799.50, 485.50 799.50 C 490.50 799.50, 494.50 799.50, 498.50 799.50 C 503.17 799.50, 506.83 799.50, 510.50 799.50 C 515.50 799.50, 519.50 799.50, 523.50 799.50 C 528.17 799.50, 531.83 799.50, 535.50 799.50 C 540.50 799.50, 544.50 799.50, 548.50 799.50 C 553.17 799.50, 556.83 799.50, 560.50 799.50 C 565.50 799.50, 569.50 799.50, 573.50 799.50 C 578.17 799.50, 581.83 799.50, 585.50 799.50 C 590.50 799.50, 594.50 799.50, 598.50 799.50 C 603.17 799.50, 606.83 799.50, 610.50 799.50 C 615.50 799.50, 619.50 799.50, 623.50 799.50 C 628.17 799.50, 631.83 799.50, 635.50 799.50 C 640.50 799.50, 644.50 799.50, 648.50 799.50 C 653.17 799.50, 656.83 799.50, 660.50 799.50 C 665.50 799.50, 669.50 799.50, 673.50 799.50 C 678.17 799.50, 681.83 799.50, 685.50 799.50 C 690.50 799.50, 694.50 799.50, 698.50 799.50 C 703.17 799.50, 706.83 799.50, 710.50 799.50 C 715.50 799.50, 719.50 799.50, 723.50 799.50 C 728.17 799.50, 731.83 799.50, 735.50 799.50 C 740.50 799.50, 744.50 799.50, 748.50 799.50 C 753.17 799.50, 756.83 799.50, 760.50 799.50 C 765.50 799.50, 769.50 799.50, 773.50 799.50 C 778.17 799.50, 781.83 799.50, 785.50 799.50 C 790.50 799.50, 794.50 799.50, 798.50 799.50 C 799.50 795.83, 799.50 792.17, 799.50 788.50 C 799.50 783.83, 799.50 780.17, 799.50 776.50 C 799.50 771.83, 799.50 768.17, 799.50 764.50 C 799.50 759.50, 799.50 755.50, 799.50 751.50 C 799.50 746.83, 799.50 743.17, 799.50 739.50 C 799.50 734.50, 799.50 730.50, 799.50 726.50 C 799.50 721.83, 799.50 718.17, 799.50 714.50 C 799.50 709.50, 799.50 705.50, 799.50 701.50 C 799.50 696.83, 799.50 693.17, 799.50 689.50 C 799.50 684.50, 799.50 680.50, 799.50 676.50 C 799.50 671.83, 799.50 668.17, 799.50 664.50 C 799.50 659.50, 799.50 655.50, 799.50 651.50 C 799.50 646.83, 799.50 643.17, 799.50 639.50 C 799.50 634.50, 799.50 630.50, 799.50 626.50 C 799.50 621.83, 799.50 618.17, 799.50 614.50 C 799.50 609.50, 799.50 605.50, 799.50 601.50 C 799.50 596.83, 799.50 593.17, 799.50 589.50 C 799.50 584.50, 799.50 580.50, 799.50 576.50 C 799.50 571.83, 799.50 568.17, 799.50 564.50 C 799.50 559.50, 799.50 555.50, 799.50 551.50 C 799.50 546.83, 799.50 543.17, 799.50 539.50 C 799.50 534.50, 799.50 530.50, 799.50 526.50 C 799.50 521.83, 799.50 518.17, 799.50 514.50 C 799.50 509.50, 799.50 505.50, 799.50 501.50 C 799.50 496.83, 799.50 493.17, 799.50 489.50 C 799.50 484.50, 799.50 480.50, 799.50 476.50 C 799.50 471.83, 799.50 468.17, 799.50 464.50 C 799.50 459.50, 799.50 455.50, 799.50 451.50 C 799.50 446.83, 799.50 443.17, 799.50 439.50 C 799.50 434.50, 799.50 430.50, 799.50 426.50 C 799.50 421.83, 799.50 418.17, 799.50 414.50 C 799.50 409.50, 799.50 405.50, 799.50 401.50 C 799.50 396.83, 799.50 393.17, 799.50 389.50 C 799.50 384.50, 799.50 380.50, 799.50 376.50 C 799.50 371.83, 799.50 368.17, 799.50 364.50 C 799.50 359.50, 799.50 355.50, 799.50 351.50 C 799.50 346.83, 799.50 343.17, 799.50 339.50 C 799.50 334.50, 799.50 330.50, 799.50 326.50 C 799.50 321.83, 799.50 318.17, 799.50 314.50 C 799.50 309.50, 799.50 305.50, 799.50 301.50 C 799.50 296.83, 799.50 293.17, 799.50 289.50 C 799.50 284.50, 799.50 280.50, 799.50 276.50 C 799.50 271.83, 799.50 268.17, 799.50 264.50 C 799.50 259.50, 799.50 255.50, 799.50 251.50 C 799.50 246.83, 799.50 243.17, 799.50 239.50 C 799.50 234.50, 799.50 230.50, 799.50 226.50 C 799.50 221.83, 799.50 218.17, 799.50 214.50 C 799.50 209.50, 799.50 205.50, 799.50 201.50 C 799.50 196.83, 799.50 193.17, 799.50 189.50 C 799.50 184.50, 799.50 180.50, 799.50 176.50 C 799.50 171.83, 799.50 168.17, 799.50 164.50 C 799.50 159.50, 799.50 155.50, 799.50 151.50 C 799.50 146.83, 799.50 143.17, 799.50 139.50 C 799.50 134.50, 799.50 130.50, 799.50 126.50 C 799.50 121.83, 799.50 118.17, 799.50 114.50 C 799.50 109.50, 799.50 105.50, 799.50 101.50 C 799.50 96.83, 799.50 93.17, 799.50 89.50 C 799.50 84.50, 799.50 80.50, 799.50 76.50 C 799.50 71.83, 799.50 68.17, 799.50 64.50 C 799.50 59.50, 799.50 55.50, 799.50 51.50 C 799.50 46.83, 799.50 43.17, 799.50 39.50 C 799.50 34.50, 799.50 30.50, 799.50 26.50 C 799.50 21.83, 799.50 18.17, 799.50 14.50 C 799.50 9.50, 799.50 5.50, 799.50 1.50 C 795.83 0.50, 792.17 0.50, 788.50 0.50 C 783.83 0.50, 780.17 0.50, 776.50 0.50 C 771.83 0.50, 768.17 0.50, 764.50 0.50 C 759.50 0.50, 755.50 0.50, 751.50 0.50 C 746.83 0.50, 743.17 0.50, 739.50 0.50 C 734.50 0.50, 730.50 0.50, 726.50 0.50 C 721.83 0.50, 718.17 0.50, 714.50 0.50 C 709.50 0.50, 705.50 0.50, 701.50 0.50 C 696.83 0.50, 693.17 0.50, 689.50 0.50 C 684.50 0.50, 680.50 0.50, 676.50 0.50 C 671.83 0.50, 668.17 0.50, 664.50 0.50 C 659.50 0.50, 655.50 0.50, 651.50 0.50 C 646.83 0.50, 643.17 0.50, 639.50 0.50 C 634.50 0.50, 630.50 0.50, 626.50 0.50 C 621.83 0.50, 618.17 0.50, 614.50 0.50 C 609.50 0.50, 605.50 0.50, 601.50 0.50 C 596.83 0.50, 593.17 0.50, 589.50 0.50 C 584.50 0.50, 580.50 0.50, 576.50 0.50 C 571.83 0.50, 568.17 0.50, 564.50 0.50 C 559.50 0.50, 555.50 0.50, 551.50 0.50 C 546.83 0.50, 543.17 0.50, 539.50 0.50 C 534.50 0.50, 530.50 0.50, 526.50 0.50 C 521.83 0.50, 518.17 0.50, 514.50 0.50 C 509.50 0.50, 505.50 0.50, 501.50 0.50 C 496.83 0.50, 493.17 0.50, 489.50 0.50 C 484.50 0.50, 480.50 0.50, 476.50 0.50 C 471.83 0.50, 468.17 0.50, 464.50 0.50 C 459.50 0.50, 455.50 0.50, 451.50 0.50 C 446.83 0.50, 443.17 0.50, 439.50 0.50 C 434.50 0.50, 430.50 0.50, 426.50 0.50 C 421.83 0.50, 418.17 0.50, 414.50 0.50 C 409.50 0.50, 405.50 0.50, 401.50 0.50 C 396.83 0.50, 393.17 0.50, 389.50 0.50 C 384.50 0.50, 380.50 0.50, 376.50 0.50 C 371.83 0.50, 368.17 0.50, 364.50 0.50 C 359.50 0.50, 355.50 0.50, 351.50 0.50 C 346.83 0.50, 343.17 0.50, 339.50 0.50 C 334.50 0.50, 330.50 0.50, 326.50 0.50 C 321.83 0.50, 318.17 0.50, 314.50 0.50 C 309.50 0.50, 305.50 0.50, 301.50 0.50 C 296.83 0.50, 293.17 0.50, 289.50 0.50 C 284.50 0.50, 280.50 0.50, 276.50 0.50 C 271.83 0.50, 268.17 0.50, 264.50 0.50 C 259.50 0.50, 255.50 0.50, 251.50 0.50 C 246.83 0.50, 243.17 0.50, 239.50 0.50 C 234.50 0.50, 230.50 0.50, 226.50 0.50 C 221.83 0.50, 218.17 0.50, 214.50 0.50 C 209.50 0.50, 205.50 0.50, 201.50 0.50 C 196.83 0.50, 193.17 0.50, 189.50 0.50 C 184.50 0.50, 180.50 0.50, 176.50 0.50 C 171.83 0.50, 168.17 0.50, 164.50 0.50 C 159.50 0.50, 155.50 0.50, 151.50 0.50 C 146.83 0.50, 143.17 0.50, 139.50 0.50 C 134.50 0.50, 130.50 0.50, 126.50 0.50 C 121.83 0.50, 118.17 0.50, 114.50 0.50 C 109.50 0.50, 105.50 0.50, 101.50 0.50 C 96.83 0.50, 93.17 0.50, 89.50 0.50 C 84.50 0.50, 80.50 0.50, 76.50 0.50 C 71.83 0.50, 68.17 0.50, 64.50 0.50 C 59.50 0.50, 55.50 0.50, 51.50 0.50 C 46.83 0.50, 43.17 0.50, 39.50 0.50 C 34.50 0.50, 30.50 0.50, 26.50 0.50 C 21.83 0.50, 18.17 0.50, 14.50 0.50 C 9.50 0.50, 5.50 0.50, 1.50 0.50 Z" fill="rgb(254.7991629710368,254.37517368767004,253.6052984099778)" stroke="rgb(254.7991629710368,254.37517368767004,253.6052984099778)" stroke-width="1" />
<path d="M 393.50 40.50 C 389.62 42.73, 384.06 40.91, 379.50 41.50 C 373.06 40.78, 368.68 42.60, 363.50 42.50 C 358.33 45.16, 351.70 41.91, 347.50 44.50 C 341.11 44.22, 336.67 46.25, 331.50 46.50 C 327.81 46.30, 325.58 47.22, 323.50 48.50 C 319.81 48.30, 317.58 49.22, 315.50 50.50 C 309.46 51.74, 304.00 51.95, 299.50 54.50 C 293.50 55.84, 288.55 57.30, 283.50 58.50 C 280.51 60.33, 277.23 59.05, 275.50 61.50 C 271.57 61.72, 269.96 64.15, 267.50 64.50 C 261.92 66.71, 257.24 68.67, 252.50 70.50 C 249.39 72.38, 246.61 72.62, 244.50 74.50 C 241.51 77.33, 238.23 76.05, 236.50 78.50 C 232.91 79.88, 231.09 82.12, 228.50 82.50 C 224.94 83.29, 223.60 87.03, 220.50 86.50 C 217.58 89.83, 214.22 88.68, 212.50 91.50 C 209.29 94.13, 206.02 93.21, 204.50 96.50 C 201.35 98.62, 199.38 101.15, 196.50 101.50 C 193.85 103.22, 192.30 106.65, 189.50 106.50 C 183.81 112.25, 178.29 115.00, 173.50 119.50 C 169.57 120.64, 169.14 123.49, 166.50 125.50 C 163.12 126.83, 162.08 129.48, 159.50 131.50 C 154.60 136.41, 150.08 140.62, 145.50 144.50 C 141.13 150.27, 136.85 153.64, 132.50 157.50 C 131.22 161.37, 128.86 163.22, 126.50 164.50 C 125.38 168.78, 122.50 169.34, 120.50 171.50 C 116.84 177.50, 113.28 182.55, 109.50 187.50 C 105.69 193.72, 101.19 198.23, 98.50 203.50 C 93.94 209.13, 92.48 214.63, 89.50 219.50 C 87.54 226.07, 81.80 229.66, 81.50 235.50 C 79.06 241.87, 75.06 246.18, 73.50 251.50 C 69.05 256.90, 69.16 262.77, 66.50 267.50 C 64.45 273.75, 62.18 278.50, 60.50 283.50 C 58.93 289.68, 56.33 294.01, 56.50 299.50 C 53.91 305.12, 53.87 310.79, 51.50 315.50 C 50.04 321.31, 50.19 326.79, 48.50 331.50 C 46.31 337.01, 47.30 342.83, 45.50 347.50 C 45.11 353.48, 43.96 358.14, 44.50 363.50 C 42.55 368.83, 43.89 374.52, 43.50 379.50 C 43.50 385.50, 43.50 390.50, 43.50 395.50 C 43.50 401.17, 43.50 405.83, 43.50 410.50 C 43.50 416.50, 43.50 421.50, 43.50 426.50 C 44.44 432.25, 44.75 437.26, 44.50 442.50 C 45.47 448.79, 46.34 453.70, 47.50 458.50 C 47.30 462.19, 48.22 464.42, 49.50 466.50 C 48.77 470.27, 50.58 472.00, 50.50 474.50 C 51.72 480.55, 52.50 485.77, 54.50 490.50 C 56.32 496.30, 56.60 501.74, 58.50 506.50 C 60.90 512.20, 62.65 517.16, 63.50 522.50 C 64.41 526.29, 66.21 528.29, 67.50 530.50 C 69.33 533.49, 68.05 536.77, 70.50 538.50 C 70.38 542.43, 74.08 543.79, 74.50 546.50 C 74.88 550.09, 77.12 551.91, 77.50 554.50 C 81.77 560.25, 81.62 566.42, 86.50 570.50 C 87.79 573.71, 88.51 576.16, 89.50 578.50 C 93.28 581.23, 92.78 584.33, 94.50 586.50 C 96.71 589.75, 97.77 592.47, 100.50 594.50 C 100.78 598.37, 103.14 600.22, 105.50 601.50 C 107.32 608.13, 113.19 612.08, 115.50 617.50 C 119.78 623.92, 124.22 627.08, 127.50 632.50 C 132.58 638.47, 136.56 642.47, 141.50 647.50 C 147.17 653.17, 151.83 657.83, 156.50 662.50 C 162.36 667.84, 166.65 673.55, 172.50 675.50 C 175.27 677.56, 175.24 680.45, 178.50 680.50 C 182.65 681.85, 182.48 685.86, 185.50 686.50 C 190.77 692.27, 197.03 693.22, 201.50 698.50 C 207.57 701.00, 211.65 705.87, 217.50 706.50 C 223.05 711.58, 228.90 712.54, 233.50 716.50 C 239.38 719.45, 244.73 721.28, 249.50 724.50 C 255.42 727.04, 260.66 728.79, 265.50 731.50 C 271.30 733.99, 276.62 735.21, 281.50 737.50 C 285.43 736.72, 287.04 739.15, 289.50 739.50 C 292.90 741.00, 295.45 741.16, 297.50 742.50 C 303.70 743.35, 308.48 745.22, 313.50 746.50 C 319.23 748.15, 324.24 749.12, 329.50 749.50 C 332.13 751.54, 335.22 750.04, 337.50 750.50 C 341.00 751.42, 342.73 753.23, 345.50 752.50 C 351.05 754.24, 356.80 753.10, 361.50 754.50 C 367.68 754.40, 372.06 756.22, 377.50 755.50 C 383.25 756.44, 388.26 756.75, 393.50 756.50 C 399.17 756.50, 403.83 756.50, 408.50 756.50 C 413.70 753.91, 420.33 757.16, 424.50 754.50 C 430.92 755.19, 435.08 752.81, 440.50 753.50 C 446.33 752.08, 452.02 752.75, 456.50 750.50 C 462.55 749.63, 467.95 749.59, 472.50 747.50 C 478.94 747.22, 483.55 744.96, 488.50 743.50 C 492.43 744.28, 494.04 741.85, 496.50 741.50 C 499.90 741.00, 502.45 740.84, 504.50 739.50 C 510.30 737.34, 515.29 735.67, 520.50 734.50 C 526.41 731.29, 531.73 730.06, 536.50 727.50 C 542.17 724.04, 547.63 722.49, 552.50 719.50 C 558.48 716.78, 563.35 713.81, 568.50 711.50 C 574.52 707.89, 579.44 705.02, 584.50 702.50 C 590.33 697.75, 595.78 695.51, 600.50 691.50 C 606.43 686.66, 610.98 681.92, 616.50 679.50 C 622.67 674.48, 626.10 670.41, 631.50 667.50 C 635.98 661.82, 642.21 657.59, 646.50 652.50 C 651.01 646.91, 655.98 642.50, 659.50 637.50 C 664.80 632.35, 668.09 628.60, 672.50 623.50 C 676.50 617.64, 679.39 612.32, 683.50 607.50 C 687.13 600.95, 690.59 597.56, 694.50 592.50 C 697.98 586.42, 701.19 581.65, 703.50 576.50 C 705.99 570.15, 709.74 565.74, 711.50 560.50 C 714.92 554.54, 717.26 549.54, 719.50 544.50 C 722.44 538.75, 724.05 533.45, 726.50 528.50 C 728.42 522.19, 730.82 517.49, 732.50 512.50 C 735.26 506.95, 734.44 500.92, 737.50 496.50 C 737.42 493.00, 739.23 491.27, 738.50 488.50 C 739.89 485.05, 741.64 483.17, 741.50 480.50 C 742.15 474.35, 743.20 469.38, 744.50 464.50 C 745.49 458.63, 747.17 454.05, 746.50 448.50 C 746.96 442.14, 748.11 437.48, 748.50 432.50 C 749.44 426.75, 749.75 421.74, 749.50 416.50 C 748.97 410.13, 750.74 404.49, 750.50 400.50 C 751.11 394.44, 749.72 390.21, 749.50 385.50 C 749.11 379.52, 750.45 373.83, 748.50 369.50 C 749.19 363.08, 746.81 358.92, 747.50 353.50 C 747.83 347.09, 746.21 342.48, 745.50 337.50 C 743.81 331.79, 743.96 326.31, 742.50 321.50 C 742.09 314.84, 739.21 310.62, 738.50 305.50 C 737.91 298.92, 734.33 294.98, 734.50 289.50 C 732.30 283.31, 730.97 278.17, 728.50 273.50 C 727.69 267.01, 723.54 262.90, 722.50 257.50 C 719.46 251.52, 717.05 246.69, 715.50 241.50 C 711.91 235.47, 710.18 230.08, 706.50 225.50 C 704.48 219.23, 700.52 214.77, 698.50 209.50 C 695.17 203.08, 690.29 198.72, 687.50 193.50 C 681.46 188.07, 680.54 181.93, 675.50 177.50 C 671.47 171.51, 667.53 166.49, 663.50 161.50 C 657.98 155.30, 653.12 152.05, 649.50 146.50 C 643.83 141.83, 639.17 137.17, 634.50 132.50 C 628.87 126.26, 623.22 123.52, 618.50 118.50 C 612.71 114.00, 607.46 110.59, 602.50 106.50 C 596.34 102.54, 591.82 98.06, 586.50 95.50 C 580.63 91.52, 575.24 89.81, 570.50 86.50 C 567.52 83.65, 564.48 84.35, 562.50 82.50 C 559.39 79.62, 556.61 79.38, 554.50 77.50 C 548.33 75.58, 544.18 71.18, 538.50 70.50 C 532.65 67.14, 527.58 65.31, 522.50 63.50 C 518.63 63.14, 517.37 59.86, 514.50 60.50 C 510.95 59.68, 508.53 59.56, 506.50 58.50 C 500.05 57.25, 495.91 53.84, 490.50 53.50 C 484.89 51.22, 479.37 51.14, 474.50 49.50 C 469.06 47.14, 463.79 46.80, 458.50 46.50 C 452.88 44.59, 447.25 45.10, 442.50 43.50 C 439.17 43.50, 436.83 43.50, 434.50 43.50 C 431.22 42.04, 428.13 43.54, 426.50 41.50 C 420.50 41.50, 415.50 41.50, 410.50 41.50 C 407.72 38.56, 403.80 42.30, 402.50 40.50 C 398.95 41.68, 396.53 41.56, 394.50 40.50 Z" fill="rgb(237.03505182412925,199.020915322977,129.5983311428977)" stroke="rgb(237.03505182412925,199.020915322977,129.5983311428977)" stroke-width="1" />
<path d="M 407.50 148.50 C 403.16 150.61, 398.00 150.77, 393.50 152.50 C 387.06 153.30, 383.26 157.05, 378.50 158.50 C 372.61 160.29, 367.83 161.36, 363.50 163.50 C 357.20 166.44, 352.63 171.15, 347.50 174.50 C 342.99 180.23, 337.76 184.25, 335.50 189.50 C 329.26 194.52, 328.60 200.43, 323.50 204.50 C 322.09 207.88, 319.29 209.27, 318.50 211.50 C 315.65 214.48, 316.35 217.52, 314.50 219.50 C 311.81 222.41, 312.76 225.83, 309.50 227.50 C 306.66 230.62, 305.78 233.15, 304.50 235.50 C 302.38 240.98, 300.84 245.70, 299.50 250.50 C 298.80 256.71, 296.03 261.05, 293.50 265.50 C 290.95 270.94, 290.35 276.19, 287.50 280.50 C 285.77 286.61, 283.80 291.63, 281.50 296.50 C 279.44 301.59, 281.80 307.51, 279.50 311.50 C 278.78 317.42, 276.98 321.89, 275.50 326.50 C 273.18 331.48, 275.82 337.52, 273.50 341.50 C 271.55 346.83, 272.89 352.52, 272.50 357.50 C 272.14 363.16, 273.40 368.48, 271.50 372.50 C 269.55 377.64, 270.97 383.17, 269.50 387.50 C 267.27 392.38, 269.09 397.94, 268.50 402.50 C 268.58 408.60, 268.01 413.98, 269.50 418.50 C 269.28 424.21, 267.89 428.44, 268.50 433.50 C 267.99 439.65, 270.43 443.59, 270.50 448.50 C 271.29 453.98, 271.83 458.56, 271.50 463.50 C 272.07 469.68, 274.67 474.01, 274.50 479.50 C 279.25 484.17, 278.16 490.25, 281.50 494.50 C 285.73 499.24, 285.60 504.79, 287.50 509.50 C 291.61 515.17, 294.13 520.00, 299.50 523.50 C 304.99 528.07, 311.38 527.04, 315.50 531.50 C 320.88 533.53, 326.25 533.17, 330.50 535.50 C 337.11 535.56, 341.49 538.58, 345.50 542.50 C 350.71 544.93, 355.16 546.80, 360.50 546.50 C 366.86 547.62, 371.50 549.49, 376.50 550.50 C 385.88 547.91, 381.25 532.92, 382.50 524.50 C 380.72 512.83, 386.24 503.20, 383.50 493.50 C 388.36 479.53, 369.95 485.29, 363.50 476.50 C 354.80 468.63, 349.38 457.62, 344.50 447.50 C 340.93 439.85, 342.01 418.70, 352.50 424.50 C 361.00 433.11, 363.18 445.43, 369.50 454.50 C 394.09 480.78, 388.07 437.96, 389.50 421.50 C 403.81 393.39, 364.59 390.67, 359.50 369.50 C 357.55 359.23, 357.11 349.33, 356.50 339.50 C 358.01 333.68, 364.03 328.90, 368.50 333.50 C 369.57 339.74, 373.91 344.44, 372.50 349.50 C 379.07 379.14, 401.05 386.33, 396.50 351.50 C 396.94 328.92, 403.34 311.30, 401.50 289.50 C 401.11 283.35, 405.71 277.58, 410.50 276.50 C 416.43 279.27, 420.51 283.10, 421.50 288.50 C 419.17 299.17, 420.37 310.75, 423.50 319.50 C 419.43 336.31, 428.90 335.63, 434.50 321.50 C 440.09 316.90, 438.01 310.13, 443.50 306.50 C 448.29 308.78, 445.64 315.33, 446.50 320.50 C 448.38 345.51, 418.74 355.60, 425.50 380.50 C 427.85 401.80, 423.17 421.26, 424.50 441.50 C 419.76 475.03, 438.60 425.25, 439.50 412.50 C 440.08 397.26, 459.96 399.98, 455.50 414.50 C 456.20 424.84, 455.28 435.57, 454.50 445.50 C 451.18 456.31, 450.99 467.42, 443.50 475.50 C 434.62 486.34, 425.45 492.84, 421.50 504.50 C 422.61 516.33, 422.35 525.10, 421.50 535.50 C 421.72 541.79, 422.12 546.17, 422.50 550.50 C 426.21 556.11, 432.71 551.35, 437.50 552.50 C 443.73 552.20, 447.88 550.28, 452.50 549.50 C 458.96 550.09, 463.07 547.41, 467.50 545.50 C 473.28 544.77, 478.12 544.20, 482.50 542.50 C 488.46 539.73, 493.54 537.27, 498.50 534.50 C 503.76 529.43, 509.77 525.87, 512.50 520.50 C 513.76 513.83, 516.74 509.30, 521.50 505.50 C 526.18 500.11, 529.58 495.62, 531.50 490.50 C 533.55 484.93, 535.03 480.13, 534.50 474.50 C 534.24 468.59, 536.26 464.62, 535.50 459.50 C 535.72 453.79, 537.11 449.56, 536.50 444.50 C 536.44 438.58, 533.66 434.79, 534.50 429.50 C 537.06 423.56, 535.84 419.04, 535.50 413.50 C 535.83 407.56, 535.29 402.98, 534.50 398.50 C 534.50 392.83, 534.50 388.17, 534.50 383.50 C 533.50 377.83, 533.50 373.17, 533.50 368.50 C 533.50 362.50, 533.50 357.50, 533.50 352.50 C 530.96 347.61, 534.13 341.36, 531.50 337.50 C 530.06 332.02, 531.70 326.26, 528.50 322.50 C 526.23 317.36, 527.37 311.81, 525.50 307.50 C 524.41 301.67, 524.79 296.24, 523.50 291.50 C 522.12 285.85, 520.63 281.25, 519.50 276.50 C 518.12 270.85, 516.63 266.25, 515.50 261.50 C 513.40 256.15, 512.91 251.14, 511.50 246.50 C 510.17 240.22, 507.53 235.49, 505.50 230.50 C 506.50 223.87, 502.33 220.38, 501.50 215.50 C 498.31 209.77, 495.19 205.43, 493.50 200.50 C 489.90 194.53, 487.27 189.57, 482.50 185.50 C 480.62 178.35, 473.16 174.92, 470.50 169.50 C 464.97 164.16, 460.34 160.08, 455.50 156.50 C 449.74 153.93, 445.26 150.66, 439.50 150.50 C 433.82 149.87, 429.66 147.99, 424.50 148.50 C 418.50 148.50, 413.50 148.50, 408.50 148.50 Z" fill="rgb(253.9503134587168,224.97687074829932,1.264279044951314)" stroke="rgb(253.9503134587168,224.97687074829932,1.264279044951314)" stroke-width="1" />
<path d="M 410.50 276.50 C 396.93 285.40, 402.61 303.97, 400.50 318.50 C 398.77 326.20, 397.19 332.96, 397.50 340.50 C 398.27 345.29, 395.96 347.81, 396.50 351.50 C 396.93 356.62, 395.47 359.96, 394.50 363.50 C 395.04 368.19, 392.73 370.71, 393.50 374.50 C 392.63 381.50, 386.74 374.37, 385.50 372.50 C 382.56 368.00, 379.11 365.13, 377.50 361.50 C 375.68 356.76, 373.35 353.64, 373.50 349.50 C 370.27 342.97, 370.70 331.05, 361.50 332.50 C 354.19 338.77, 357.15 347.88, 356.50 355.50 C 357.89 364.17, 360.40 370.96, 363.50 377.50 C 365.77 381.62, 367.03 385.73, 370.50 387.50 C 374.38 390.60, 377.44 393.26, 381.50 393.50 C 386.38 395.23, 389.51 399.29, 391.50 402.50 C 391.50 406.83, 391.50 410.17, 391.50 413.50 C 391.28 418.43, 388.54 420.91, 388.50 424.50 C 388.00 429.41, 386.85 432.73, 388.50 436.50 C 389.20 441.26, 387.50 444.03, 387.50 447.50 C 387.50 451.83, 387.50 455.17, 387.50 458.50 C 385.71 464.48, 379.78 464.29, 377.50 460.50 C 372.38 456.16, 370.29 451.98, 366.50 448.50 C 362.69 440.42, 359.15 433.65, 356.50 426.50 C 347.36 418.49, 341.99 428.56, 342.50 436.50 C 343.35 445.25, 345.73 452.37, 350.50 458.50 C 351.65 463.33, 354.76 466.33, 357.50 469.50 C 361.93 473.26, 364.58 477.92, 368.50 479.50 C 372.87 481.41, 375.46 485.20, 379.50 485.50 C 384.76 484.98, 384.68 490.32, 384.50 493.50 C 384.35 497.91, 385.10 501.69, 383.50 504.50 C 383.85 509.45, 381.72 512.37, 382.50 516.50 C 382.84 521.11, 382.28 524.35, 381.50 527.50 C 380.80 532.26, 382.50 535.03, 382.50 538.50 C 381.50 542.83, 381.50 546.17, 381.50 549.50 C 381.50 554.17, 381.50 557.83, 381.50 561.50 C 382.04 569.86, 379.73 576.04, 380.50 583.50 C 379.69 591.64, 379.18 598.90, 379.50 606.50 C 379.50 610.83, 379.50 614.17, 379.50 617.50 C 379.50 621.83, 379.50 625.17, 379.50 628.50 C 380.14 635.31, 383.92 648.07, 373.50 644.50 C 356.98 644.78, 342.56 647.70, 328.50 651.50 C 309.85 658.34, 305.42 684.42, 326.50 688.50 C 341.05 694.27, 356.40 691.36, 371.50 694.50 C 386.38 694.20, 401.35 694.63, 415.50 692.50 C 431.97 692.10, 445.42 686.84, 460.50 685.50 C 467.57 681.80, 478.01 685.09, 481.50 677.50 C 486.74 669.77, 480.38 659.71, 474.50 655.50 C 459.33 649.63, 444.99 645.19, 429.50 643.50 C 422.81 643.35, 408.77 645.64, 413.50 636.50 C 415.83 632.44, 417.67 629.18, 418.50 625.50 C 418.50 621.03, 420.20 618.26, 419.50 614.50 C 419.41 606.19, 419.30 598.87, 421.50 592.50 C 419.73 585.06, 420.01 575.96, 421.50 569.50 C 422.38 561.47, 423.01 554.46, 421.50 547.50 C 420.60 538.95, 422.93 530.93, 421.50 524.50 C 423.80 516.56, 418.67 508.86, 422.50 502.50 C 424.52 498.04, 425.56 494.17, 429.50 491.50 C 434.67 487.86, 435.88 482.40, 439.50 480.50 C 442.70 476.16, 445.95 474.59, 447.50 470.50 C 450.04 466.81, 449.43 462.81, 450.50 459.50 C 452.99 455.51, 454.05 452.34, 453.50 448.50 C 452.91 443.65, 456.09 441.35, 455.50 437.50 C 456.88 433.88, 454.27 429.19, 456.50 426.50 C 455.04 422.28, 455.63 418.55, 456.50 415.50 C 454.66 411.51, 456.55 406.98, 453.50 404.50 C 451.00 398.40, 445.09 401.67, 442.50 404.50 C 440.22 408.86, 439.03 412.25, 437.50 415.50 C 437.75 420.21, 435.64 422.95, 435.50 426.50 C 434.35 430.91, 435.10 434.69, 433.50 437.50 C 429.00 440.03, 428.97 445.56, 426.50 448.50 C 423.90 444.69, 424.65 440.91, 424.50 437.50 C 424.50 433.17, 424.50 429.83, 424.50 426.50 C 425.40 417.99, 425.30 410.48, 426.50 403.50 C 425.72 399.35, 425.16 396.11, 425.50 392.50 C 425.50 388.17, 425.50 384.83, 425.50 381.50 C 425.91 373.39, 424.23 365.42, 427.50 359.50 C 431.85 356.03, 434.84 353.32, 436.50 349.50 C 437.46 344.60, 441.94 342.57, 441.50 338.50 C 445.20 331.15, 445.88 323.54, 445.50 315.50 C 445.68 300.10, 439.48 314.77, 435.50 319.50 C 433.71 324.20, 430.93 327.48, 427.50 330.50 C 422.92 328.76, 422.62 324.67, 422.50 320.50 C 420.58 313.02, 420.35 305.84, 420.50 298.50 C 421.70 288.31, 419.14 281.47, 411.50 276.50 Z" fill="rgb(239.69607843137254,211.0566448801743,29.93028322440087)" stroke="rgb(239.69607843137254,211.0566448801743,29.93028322440087)" stroke-width="1" />
<path d="M 408.50 277.50 C 403.43 281.70, 401.60 287.24, 401.50 293.50 C 401.50 297.17, 401.50 299.83, 401.50 302.50 C 401.50 306.17, 401.50 308.83, 401.50 311.50 C 401.50 315.17, 401.50 317.83, 401.50 320.50 C 399.14 323.88, 399.86 327.12, 398.50 329.50 C 398.50 333.17, 398.50 335.83, 398.50 338.50 C 399.10 342.55, 397.75 344.80, 397.50 347.50 C 398.38 354.47, 395.96 359.08, 395.50 364.50 C 396.28 368.63, 394.00 370.49, 394.50 373.50 C 394.27 376.44, 393.44 382.68, 390.50 379.50 C 384.28 373.20, 380.07 367.48, 376.50 361.50 C 372.43 354.76, 373.40 349.04, 371.50 343.50 C 369.33 337.78, 367.15 329.24, 360.50 333.50 C 354.62 339.19, 357.39 345.53, 357.50 351.50 C 356.80 358.87, 359.45 363.86, 360.50 369.50 C 365.22 375.21, 364.50 383.69, 371.50 386.50 C 377.38 392.73, 384.44 392.70, 389.50 397.50 C 392.01 400.82, 392.78 403.44, 392.50 406.50 C 393.28 410.63, 391.00 412.49, 391.50 415.50 C 391.73 419.54, 389.27 421.46, 389.50 424.50 C 389.25 428.20, 387.90 430.45, 388.50 433.50 C 389.50 437.17, 389.50 439.83, 389.50 442.50 C 388.21 445.77, 388.46 448.68, 388.50 451.50 C 388.92 457.69, 388.36 465.88, 381.50 464.50 C 373.90 460.45, 369.80 454.09, 365.50 448.50 C 361.27 442.48, 360.43 436.06, 357.50 430.50 C 355.15 422.85, 343.05 420.80, 344.50 429.50 C 339.97 442.41, 348.39 454.43, 354.50 464.50 C 358.61 470.74, 363.89 476.34, 369.50 478.50 C 374.49 486.82, 384.14 480.84, 385.50 488.50 C 383.92 491.04, 383.92 494.96, 385.50 496.50 C 386.10 500.55, 384.75 502.80, 384.50 505.50 C 384.25 509.20, 382.90 511.45, 383.50 514.50 C 383.50 518.17, 383.50 520.83, 383.50 523.50 C 383.50 527.17, 383.50 529.83, 383.50 532.50 C 383.50 536.17, 383.50 538.83, 383.50 541.50 C 381.58 544.65, 383.64 548.45, 381.50 550.50 C 381.00 554.51, 383.28 556.37, 382.50 559.50 C 380.27 563.23, 382.94 565.37, 382.50 568.50 C 382.10 572.55, 380.75 574.80, 380.50 577.50 C 382.47 581.13, 380.84 583.69, 380.50 586.50 C 380.50 590.17, 380.50 592.83, 380.50 595.50 C 379.99 599.10, 378.41 602.56, 380.50 604.50 C 380.50 608.17, 380.50 610.83, 380.50 613.50 C 380.50 617.17, 380.50 619.83, 380.50 622.50 C 379.63 626.53, 380.70 628.03, 380.50 631.50 C 380.96 634.78, 379.46 637.87, 381.50 639.50 C 380.71 644.60, 386.02 643.50, 387.50 646.50 C 389.03 650.74, 393.12 651.39, 395.50 652.50 C 398.44 649.41, 401.90 650.99, 404.50 650.50 C 408.17 647.11, 408.83 643.89, 411.50 641.50 C 410.59 637.04, 413.75 635.27, 414.50 632.50 C 416.63 628.89, 416.86 625.90, 418.50 623.50 C 418.50 619.83, 418.50 617.17, 418.50 614.50 C 420.20 610.74, 417.80 609.26, 418.50 606.50 C 417.72 602.37, 420.00 600.51, 419.50 597.50 C 421.59 594.56, 420.01 591.10, 420.50 588.50 C 421.00 584.49, 418.72 582.63, 419.50 579.50 C 421.59 576.56, 420.01 573.10, 420.50 570.50 C 420.00 566.49, 422.28 564.63, 421.50 561.50 C 421.50 557.83, 421.50 555.17, 421.50 552.50 C 421.01 548.90, 422.59 545.44, 420.50 543.50 C 420.04 536.84, 420.96 531.75, 421.50 526.50 C 421.50 522.83, 421.50 520.17, 421.50 517.50 C 421.25 513.80, 419.90 511.55, 420.50 508.50 C 420.76 501.11, 425.02 495.97, 428.50 490.50 C 435.64 486.33, 437.76 477.42, 444.50 474.50 C 449.53 462.26, 453.28 450.90, 454.50 438.50 C 453.91 426.11, 457.91 412.22, 451.50 403.50 C 443.20 401.06, 441.11 408.49, 439.50 413.50 C 438.71 420.39, 436.01 425.49, 435.50 431.50 C 435.24 439.16, 428.60 443.19, 427.50 449.50 C 423.40 453.02, 424.79 446.33, 424.50 444.50 C 422.41 441.56, 423.99 438.10, 423.50 435.50 C 422.75 428.72, 425.10 424.22, 424.50 418.50 C 425.79 415.23, 425.54 412.32, 425.50 409.50 C 425.50 405.83, 425.50 403.17, 425.50 400.50 C 423.41 397.56, 424.99 394.10, 424.50 391.50 C 424.50 387.83, 424.50 385.17, 424.50 382.50 C 425.50 378.83, 425.50 376.17, 425.50 373.50 C 424.99 369.90, 423.41 366.44, 425.50 364.50 C 424.55 360.22, 427.58 358.59, 429.50 356.50 C 433.32 353.17, 434.48 350.16, 436.50 347.50 C 438.25 343.73, 441.41 341.96, 440.50 338.50 C 442.01 334.77, 443.95 332.63, 443.50 329.50 C 444.99 325.90, 443.41 322.44, 445.50 320.50 C 445.50 316.83, 445.50 314.17, 445.50 311.50 C 445.59 305.41, 441.43 308.52, 441.50 311.50 C 438.98 315.23, 437.85 318.11, 435.50 320.50 C 434.41 324.54, 432.06 327.07, 429.50 329.50 C 426.69 334.81, 421.84 330.59, 422.50 327.50 C 423.28 323.37, 421.00 321.51, 421.50 318.50 C 422.00 314.49, 419.72 312.63, 420.50 309.50 C 419.50 305.83, 419.50 303.17, 419.50 300.50 C 419.50 296.83, 419.50 294.17, 419.50 291.50 C 421.56 288.38, 418.64 285.04, 418.50 282.50 C 414.97 280.49, 413.28 276.47, 409.50 277.50 Z" fill="rgb(192.7217002576148,164.7221548719503,75.12441278981665)" stroke="rgb(192.7217002576148,164.7221548719503,75.12441278981665)" stroke-width="1" />
<path d="M 621.50 246.50 C 618.51 250.83, 622.29 255.72, 621.50 260.50 C 621.30 266.77, 625.57 271.76, 623.50 276.50 C 624.93 288.47, 621.98 303.20, 615.50 289.50 C 606.12 282.43, 595.80 279.68, 585.50 276.50 C 573.28 275.13, 562.04 291.15, 572.50 299.50 C 590.71 308.28, 572.44 317.30, 566.50 326.50 C 558.31 333.96, 555.92 352.11, 568.50 353.50 C 579.03 361.24, 593.12 342.06, 594.50 353.50 C 588.89 365.32, 599.83 376.42, 597.50 385.50 C 600.01 395.98, 618.27 402.09, 623.50 391.50 C 625.88 385.85, 629.91 381.89, 630.50 376.50 C 630.87 371.82, 628.70 359.67, 634.50 364.50 C 643.77 371.91, 659.14 370.51, 661.50 358.50 C 662.77 346.07, 653.52 335.83, 646.50 326.50 C 649.15 315.04, 661.83 308.73, 666.50 297.50 C 670.56 280.75, 650.90 285.54, 645.50 295.50 C 635.56 304.09, 639.77 279.80, 636.50 273.50 C 631.58 264.31, 634.97 246.94, 622.50 246.50 Z" fill="rgb(242.15384615384616,158.26923076923077,20.358974358974358)" stroke="rgb(242.15384615384616,158.26923076923077,20.358974358974358)" stroke-width="1" />
<path d="M 412.50 642.50 C 408.52 644.62, 409.25 650.25, 405.50 651.50 C 400.01 650.18, 397.50 653.63, 393.50 653.50 C 388.25 651.43, 387.13 645.95, 383.50 644.50 C 378.83 644.50, 375.17 644.50, 371.50 644.50 C 366.18 644.55, 364.41 644.81, 360.50 645.50 C 355.65 645.72, 351.22 644.54, 348.50 647.50 C 344.10 648.47, 340.40 648.73, 336.50 648.50 C 331.98 651.18, 328.02 651.82, 324.50 653.50 C 319.84 656.06, 316.62 660.31, 314.50 663.50 C 313.27 668.21, 310.30 671.20, 310.50 675.50 C 312.81 680.56, 316.55 683.25, 320.50 684.50 C 325.07 687.40, 328.36 689.98, 332.50 690.50 C 336.31 692.10, 340.09 691.35, 343.50 691.50 C 348.21 691.73, 351.44 693.11, 355.50 692.50 C 360.62 692.07, 363.96 693.53, 367.50 694.50 C 372.40 694.73, 376.10 694.47, 379.50 693.50 C 383.81 695.47, 387.81 693.18, 390.50 694.50 C 395.54 694.72, 399.28 694.25, 402.50 692.50 C 406.41 694.85, 410.87 693.07, 413.50 691.50 C 417.72 694.18, 421.46 690.15, 425.50 691.50 C 430.24 691.82, 433.22 690.31, 436.50 689.50 C 441.61 689.31, 444.63 689.10, 448.50 687.50 C 452.86 686.09, 456.67 685.77, 460.50 685.50 C 464.22 682.54, 468.65 683.72, 472.50 683.50 C 476.36 681.26, 481.58 681.06, 482.50 676.50 C 486.84 671.39, 482.10 668.23, 481.50 664.50 C 479.54 659.99, 477.01 655.22, 472.50 654.50 C 467.82 652.54, 464.25 651.29, 460.50 650.50 C 456.87 647.80, 453.20 647.62, 449.50 647.50 C 445.51 644.87, 440.88 646.20, 437.50 644.50 C 432.55 644.85, 429.63 642.72, 425.50 643.50 C 420.93 642.94, 416.40 644.68, 413.50 642.50 Z" fill="rgb(242.9229375696767,152.34057971014494,2.3167502787068006)" stroke="rgb(242.9229375696767,152.34057971014494,2.3167502787068006)" stroke-width="1" />
<path d="M 187.50 366.50 C 178.36 369.63, 180.55 381.06, 177.50 388.50 C 176.43 398.47, 170.11 406.39, 165.50 412.50 C 157.52 417.67, 150.24 429.19, 141.50 422.50 C 132.53 418.19, 124.36 420.52, 116.50 416.50 C 107.37 414.49, 99.48 412.89, 91.50 411.50 C 78.36 415.41, 82.16 425.56, 86.50 433.50 C 95.90 451.64, 112.35 465.58, 126.50 480.50 C 142.91 492.73, 158.93 502.49, 176.50 508.50 C 195.39 507.89, 181.92 479.13, 182.50 466.50 C 183.56 448.29, 162.87 430.61, 180.50 416.50 C 189.75 402.43, 203.62 380.67, 188.50 366.50 Z" fill="rgb(244.72,210.88,72.58)" stroke="rgb(244.72,210.88,72.58)" stroke-width="1" />
<path d="M 185.50 367.50 C 175.54 381.75, 179.61 404.73, 163.50 414.50 C 160.98 420.57, 154.99 418.69, 152.50 423.50 C 147.46 427.48, 143.34 422.34, 139.50 421.50 C 134.80 420.91, 131.84 418.54, 127.50 419.50 C 122.94 417.78, 118.57 417.00, 114.50 415.50 C 108.96 414.38, 106.32 415.62, 102.50 413.50 C 97.93 412.64, 92.83 410.62, 89.50 412.50 C 85.37 415.82, 81.30 416.19, 81.50 421.50 C 82.33 426.85, 87.92 429.22, 86.50 434.50 C 90.09 438.65, 89.91 443.35, 93.50 446.50 C 98.47 450.24, 101.51 454.36, 104.50 458.50 C 110.33 461.52, 111.95 467.40, 116.50 470.50 C 119.10 476.27, 125.69 477.05, 127.50 481.50 C 132.16 484.85, 135.22 488.66, 139.50 489.50 C 144.73 492.29, 148.34 495.55, 152.50 497.50 C 156.84 500.96, 161.28 500.76, 164.50 503.50 C 169.33 506.24, 173.17 507.97, 177.50 508.50 C 181.58 507.81, 187.61 508.38, 187.50 504.50 C 186.06 499.54, 184.99 495.85, 185.50 491.50 C 186.01 486.15, 184.94 482.46, 184.50 478.50 C 184.01 473.43, 183.98 469.17, 182.50 465.50 C 182.18 460.55, 181.31 456.83, 179.50 453.50 C 179.78 447.97, 176.69 444.84, 176.50 440.50 C 169.29 431.53, 173.68 421.67, 180.50 415.50 C 189.18 402.63, 204.04 376.62, 186.50 367.50 Z" fill="rgb(253.92258171013535,224.92703862660943,1.804060746120832)" stroke="rgb(253.92258171013535,224.92703862660943,1.804060746120832)" stroke-width="1" />
<path d="M 230.50 148.50 C 225.01 151.58, 219.30 154.16, 213.50 156.50 C 205.43 160.13, 203.00 167.87, 198.50 173.50 C 191.03 186.10, 188.05 200.49, 179.50 209.50 C 185.95 219.51, 200.85 222.37, 213.50 223.50 C 228.61 225.46, 239.39 218.38, 251.50 214.50 C 258.94 210.59, 262.75 203.97, 267.50 199.50 C 273.49 193.73, 274.76 185.82, 278.50 181.50 C 286.56 179.83, 280.09 166.55, 289.50 167.50 C 296.21 162.77, 303.23 158.35, 307.50 153.50 C 303.46 154.27, 301.54 156.73, 298.50 156.50 C 294.29 157.66, 291.71 159.34, 288.50 159.50 C 285.12 160.86, 281.88 160.14, 279.50 161.50 C 275.72 164.32, 272.15 161.20, 269.50 160.50 C 265.38 158.92, 263.52 155.32, 260.50 154.50 C 256.48 152.54, 253.52 151.46, 250.50 150.50 C 246.87 149.75, 244.31 148.82, 241.50 148.50 C 237.50 148.50, 234.50 148.50, 231.50 148.50 Z" fill="rgb(241.29901960784315,160.08333333333334,23.774509803921568)" stroke="rgb(241.29901960784315,160.08333333333334,23.774509803921568)" stroke-width="1" />
<path d="M 232.50 149.50 C 230.26 151.52, 226.41 149.67, 224.50 152.50 C 220.08 152.67, 218.82 157.07, 215.50 156.50 C 211.09 157.40, 210.13 159.90, 207.50 162.50 C 202.68 163.93, 203.50 168.77, 200.50 170.50 C 197.77 174.14, 196.48 176.96, 194.50 179.50 C 194.15 183.44, 191.18 185.29, 191.50 188.50 C 188.34 191.69, 189.07 195.07, 187.50 197.50 C 185.75 201.54, 184.09 205.05, 180.50 206.50 C 178.30 210.40, 178.56 213.84, 182.50 214.50 C 187.20 214.00, 188.10 219.27, 191.50 218.50 C 194.86 220.25, 197.55 221.18, 200.50 221.50 C 204.51 222.00, 206.37 224.28, 209.50 223.50 C 213.17 223.50, 215.83 223.50, 218.50 223.50 C 222.17 223.50, 224.83 223.50, 227.50 223.50 C 230.99 222.08, 233.99 221.88, 236.50 220.50 C 240.39 217.89, 243.98 217.99, 246.50 215.50 C 250.60 215.21, 252.40 211.79, 255.50 211.50 C 259.35 209.10, 261.45 206.43, 262.50 203.50 C 267.07 201.85, 268.04 197.59, 270.50 195.50 C 272.46 191.68, 273.83 189.03, 275.50 186.50 C 275.32 181.57, 279.12 180.70, 281.50 179.50 C 282.75 175.80, 284.10 173.55, 283.50 170.50 C 287.32 168.21, 289.69 165.82, 292.50 164.50 C 296.36 161.16, 299.69 159.96, 302.50 157.50 C 298.99 157.88, 295.99 158.08, 293.50 159.50 C 289.34 161.59, 287.17 160.89, 284.50 161.50 C 280.80 162.75, 278.55 164.10, 275.50 163.50 C 270.81 164.41, 268.87 159.46, 265.50 162.50 C 259.78 162.19, 266.38 157.15, 261.50 156.50 C 258.14 153.75, 255.45 152.82, 252.50 152.50 C 248.45 152.10, 246.20 150.75, 243.50 150.50 C 239.58 149.97, 236.83 149.03, 233.50 149.50 Z" fill="rgb(241.9874027417562,154.07576880326047,4.41756206002223)" stroke="rgb(241.9874027417562,154.07576880326047,4.41756206002223)" stroke-width="1" />
<path d="M 579.50 276.50 C 573.68 280.25, 566.72 285.15, 568.50 293.50 C 570.78 301.94, 582.77 302.33, 581.50 311.50 C 569.23 321.27, 557.45 333.20, 560.50 348.50 C 566.28 356.15, 574.13 354.77, 580.50 354.50 C 588.06 351.91, 598.20 345.76, 593.50 357.50 C 593.74 362.21, 592.12 364.18, 593.50 367.50 C 593.96 372.47, 596.14 375.31, 597.50 378.50 C 602.81 381.93, 594.75 385.58, 598.50 388.50 C 600.05 392.97, 603.38 395.23, 607.50 394.50 C 611.34 396.56, 614.52 396.79, 617.50 397.50 C 620.44 394.78, 623.95 392.04, 624.50 388.50 C 624.85 383.38, 629.26 382.94, 629.50 379.50 C 629.50 375.17, 629.50 371.83, 629.50 368.50 C 625.80 369.30, 623.68 366.51, 624.50 362.50 C 622.15 358.26, 618.76 357.54, 615.50 356.50 C 614.57 352.39, 614.04 349.03, 615.50 346.50 C 615.32 341.43, 614.64 339.39, 615.50 335.50 C 615.50 331.50, 615.50 328.50, 615.50 325.50 C 616.35 321.44, 618.47 318.90, 618.50 315.50 C 617.24 307.45, 620.83 300.66, 618.50 294.50 C 611.27 282.87, 594.49 277.84, 580.50 276.50 Z" fill="rgb(242.89872568745807,152.72568745808184,3.9684775318578134)" stroke="rgb(242.89872568745807,152.72568745808184,3.9684775318578134)" stroke-width="1" />
<path d="M 624.50 246.50 C 621.96 247.48, 618.49 250.80, 621.50 253.50 C 622.03 257.42, 622.97 260.17, 622.50 263.50 C 624.42 266.65, 622.36 270.45, 624.50 272.50 C 624.75 276.74, 622.73 279.04, 623.50 282.50 C 623.50 286.17, 623.50 288.83, 623.50 291.50 C 623.89 296.08, 620.11 297.92, 620.50 301.50 C 620.50 305.50, 620.50 308.50, 620.50 311.50 C 621.18 316.06, 619.63 318.69, 618.50 321.50 C 617.50 325.17, 617.50 327.83, 617.50 330.50 C 617.50 334.50, 617.50 337.50, 617.50 340.50 C 617.99 344.10, 616.41 347.56, 618.50 349.50 C 620.47 354.00, 623.10 355.11, 626.50 356.50 C 629.60 360.46, 631.54 362.40, 634.50 364.50 C 638.55 365.53, 641.52 370.55, 644.50 367.50 C 648.45 368.84, 651.80 370.82, 654.50 367.50 C 658.90 365.08, 660.46 361.90, 661.50 358.50 C 661.01 354.90, 662.59 351.44, 660.50 349.50 C 658.02 345.98, 659.74 341.71, 656.50 339.50 C 654.03 335.61, 650.97 333.39, 649.50 330.50 C 645.05 327.03, 644.96 323.36, 647.50 320.50 C 651.96 317.69, 652.12 315.24, 654.50 312.50 C 656.35 308.49, 661.99 307.32, 662.50 303.50 C 664.55 299.25, 668.34 297.13, 668.50 293.50 C 668.11 288.79, 664.56 286.65, 661.50 285.50 C 656.77 284.83, 655.55 287.11, 653.50 289.50 C 649.01 291.33, 646.45 294.39, 643.50 296.50 C 639.67 300.86, 637.61 298.20, 638.50 294.50 C 638.32 290.71, 639.22 287.06, 637.50 284.50 C 637.01 280.90, 638.59 277.44, 636.50 275.50 C 636.34 271.29, 634.66 268.71, 634.50 265.50 C 632.91 261.74, 632.89 258.34, 631.50 255.50 C 630.41 251.31, 629.25 247.77, 625.50 246.50 Z" fill="rgb(242.90193809661557,152.63089383858838,3.6262655481631474)" stroke="rgb(242.90193809661557,152.63089383858838,3.6262655481631474)" stroke-width="1" />
<path d="M 615.50 499.50 C 608.76 509.07, 602.72 511.96, 591.50 511.50 C 579.40 514.69, 587.97 527.67, 575.50 531.50 C 563.94 544.97, 556.39 575.76, 579.50 579.50 C 589.31 576.10, 600.82 579.85, 604.50 569.50 C 613.60 563.02, 614.97 549.48, 624.50 545.50 C 633.37 537.73, 629.09 526.76, 622.50 520.50 C 627.73 513.52, 629.12 496.39, 616.50 499.50 Z" fill="rgb(202.45714285714286,170.28571428571428,78.22857142857143)" stroke="rgb(202.45714285714286,170.28571428571428,78.22857142857143)" stroke-width="1" />
<path d="M 579.50 276.50 C 575.27 279.66, 569.93 282.97, 568.50 288.50 C 567.80 292.26, 570.20 293.74, 569.50 296.50 C 572.53 300.23, 575.25 301.29, 577.50 303.50 C 580.29 305.31, 580.12 307.93, 582.50 309.50 C 578.74 312.00, 578.13 315.91, 575.50 316.50 C 571.22 317.81, 571.38 322.07, 568.50 323.50 C 567.11 325.95, 565.36 327.83, 565.50 330.50 C 558.95 331.75, 561.33 339.82, 559.50 343.50 C 559.83 350.05, 565.82 354.45, 571.50 353.50 C 574.77 353.51, 575.97 356.12, 578.50 355.50 C 581.74 353.62, 583.53 351.63, 586.50 352.50 C 590.87 352.73, 590.71 347.53, 593.50 347.50 C 596.57 350.51, 597.90 346.03, 597.50 343.50 C 597.26 338.55, 601.64 342.31, 600.50 344.50 C 600.83 340.10, 604.75 342.21, 603.50 345.50 C 604.55 349.76, 607.44 349.73, 609.50 351.50 C 612.71 351.38, 610.92 347.26, 611.50 345.50 C 613.48 343.18, 612.08 340.47, 612.50 338.50 C 613.56 335.47, 613.68 333.05, 613.50 330.50 C 613.42 327.00, 615.23 325.27, 614.50 322.50 C 613.87 318.22, 621.22 316.87, 618.50 314.50 C 618.08 311.53, 619.48 308.82, 617.50 307.50 C 616.72 303.57, 619.15 301.96, 619.50 299.50 C 619.58 296.00, 617.77 294.27, 618.50 291.50 C 615.06 289.75, 613.27 287.44, 610.50 287.50 C 607.39 281.30, 600.80 282.58, 596.50 280.50 C 590.35 278.87, 586.31 275.54, 580.50 276.50 Z" fill="rgb(242.98156956004757,152.1076099881094,1.9563020214030915)" stroke="rgb(242.98156956004757,152.1076099881094,1.9563020214030915)" stroke-width="1" />
<path d="M 582.50 524.50 C 580.95 527.42, 579.82 529.63, 576.50 530.50 C 574.56 534.80, 572.02 537.44, 570.50 540.50 C 566.67 543.41, 568.52 547.26, 566.50 549.50 C 566.39 554.06, 563.58 556.69, 565.50 559.50 C 564.21 562.77, 564.46 565.68, 564.50 568.50 C 566.01 573.32, 571.65 574.49, 572.50 577.50 C 575.20 578.75, 577.45 580.10, 580.50 579.50 C 584.84 579.65, 586.98 576.90, 590.50 577.50 C 594.82 577.03, 596.08 574.74, 599.50 576.50 C 603.26 574.84, 602.55 568.68, 606.50 568.50 C 607.45 564.12, 611.87 562.60, 612.50 559.50 C 616.19 556.06, 617.00 552.84, 617.50 549.50 C 614.37 545.20, 610.82 545.34, 608.50 542.50 C 604.74 540.91, 600.79 542.22, 598.50 539.50 C 595.22 536.18, 594.12 532.72, 590.50 532.50 C 586.72 530.81, 586.45 525.08, 583.50 524.50 Z" fill="rgb(218.68782249742003,175.82559339525284,40.26780185758514)" stroke="rgb(218.68782249742003,175.82559339525284,40.26780185758514)" stroke-width="1" />
<path d="M 446.50 402.50 C 442.19 405.35, 441.26 409.59, 439.50 413.50 C 439.93 418.62, 438.47 421.96, 437.50 425.50 C 434.59 429.67, 438.22 434.00, 435.50 437.50 C 431.04 441.56, 429.74 445.52, 428.50 449.50 C 428.43 455.10, 423.62 457.33, 423.50 461.50 C 422.73 466.40, 422.47 470.10, 421.50 473.50 C 421.50 478.17, 421.50 481.83, 421.50 485.50 C 420.92 489.44, 423.78 498.65, 425.50 493.50 C 429.73 488.62, 433.77 486.94, 435.50 482.50 C 438.96 477.37, 443.13 475.57, 445.50 472.50 C 447.99 468.31, 448.84 464.45, 449.50 460.50 C 452.42 456.49, 452.19 452.18, 453.50 448.50 C 454.20 444.40, 453.28 440.21, 453.50 436.50 C 454.50 431.83, 454.50 428.17, 454.50 424.50 C 454.50 419.83, 454.50 416.17, 454.50 412.50 C 455.21 407.26, 452.42 401.69, 447.50 402.50 Z" fill="rgb(191.37584650112868,163.40237020316027,76.54909706546276)" stroke="rgb(191.37584650112868,163.40237020316027,76.54909706546276)" stroke-width="1" />
<path d="M 615.50 499.50 C 612.98 502.30, 610.47 503.37, 609.50 506.50 C 606.88 508.18, 604.41 513.82, 601.50 510.50 C 597.86 509.84, 594.68 513.25, 592.50 511.50 C 588.97 512.01, 585.33 513.21, 584.50 515.50 C 584.00 519.51, 586.28 521.37, 585.50 524.50 C 587.77 527.69, 588.98 532.07, 592.50 531.50 C 596.64 534.83, 597.60 538.07, 600.50 540.50 C 604.56 540.22, 607.18 540.99, 609.50 542.50 C 613.20 544.09, 615.11 547.57, 618.50 547.50 C 622.59 546.53, 625.38 545.82, 627.50 543.50 C 628.75 539.80, 630.10 537.55, 629.50 534.50 C 628.76 530.86, 626.73 528.76, 627.50 525.50 C 623.29 524.33, 621.75 521.75, 622.50 518.50 C 626.05 517.10, 625.48 512.93, 625.50 510.50 C 625.50 506.83, 625.50 504.17, 625.50 501.50 C 622.56 498.41, 619.10 499.99, 616.50 499.50 Z" fill="rgb(135.258199581298,125.86252616887649,66.54012561060712)" stroke="rgb(135.258199581298,125.86252616887649,66.54012561060712)" stroke-width="1" />
<path d="M 346.50 424.50 C 345.22 426.58, 344.30 428.81, 344.50 431.50 C 342.41 434.44, 343.99 437.90, 343.50 440.50 C 344.22 444.56, 344.99 447.18, 346.50 449.50 C 347.18 453.58, 350.37 455.61, 351.50 458.50 C 352.84 462.11, 354.56 464.14, 355.50 466.50 C 357.62 471.01, 361.29 470.71, 363.50 473.50 C 365.06 477.73, 369.59 477.21, 371.50 479.50 C 374.55 482.99, 377.25 483.90, 380.50 483.50 C 384.44 484.20, 385.57 480.80, 385.50 478.50 C 385.50 474.83, 385.50 472.17, 385.50 469.50 C 384.41 466.72, 381.13 463.97, 378.50 463.50 C 375.07 459.60, 371.83 458.64, 369.50 455.50 C 367.27 451.93, 365.38 449.22, 363.50 446.50 C 361.83 442.97, 360.46 440.32, 359.50 437.50 C 357.17 434.25, 357.83 430.75, 355.50 428.50 C 353.45 425.01, 350.75 424.10, 347.50 424.50 Z" fill="rgb(191.50129421915443,163.49784296807593,76.40724762726488)" stroke="rgb(191.50129421915443,163.49784296807593,76.40724762726488)" stroke-width="1" />
<path d="M 362.50 332.50 C 359.89 333.90, 357.19 336.12, 357.50 339.50 C 356.27 342.86, 358.14 345.29, 357.50 348.50 C 359.28 352.63, 357.00 354.49, 357.50 357.50 C 358.62 361.12, 360.31 363.50, 360.50 366.50 C 359.47 371.28, 363.49 372.97, 365.50 375.50 C 364.97 379.94, 367.07 382.29, 369.50 384.50 C 372.74 388.20, 375.53 389.56, 378.50 390.50 C 382.57 390.87, 383.69 395.93, 387.50 394.50 C 391.73 398.07, 392.19 394.34, 392.50 391.50 C 393.79 388.23, 393.54 385.32, 393.50 382.50 C 389.69 380.44, 387.43 378.80, 386.50 375.50 C 382.54 372.09, 380.80 369.18, 378.50 366.50 C 377.41 362.73, 373.52 361.13, 374.50 357.50 C 372.97 353.68, 370.52 351.21, 372.50 348.50 C 372.82 344.29, 369.85 342.44, 369.50 339.50 C 368.18 335.63, 367.60 331.32, 363.50 332.50 Z" fill="rgb(191.35862691960253,163.3595302619693,76.57181571815718)" stroke="rgb(191.35862691960253,163.3595302619693,76.57181571815718)" stroke-width="1" />
<path d="M 186.50 366.50 C 184.63 367.98, 180.81 369.23, 181.50 372.50 C 180.75 376.13, 179.82 378.69, 179.50 381.50 C 179.11 384.95, 177.36 386.83, 177.50 389.50 C 175.36 392.55, 177.42 396.35, 175.50 398.50 C 173.17 401.83, 171.55 404.05, 170.50 406.50 C 167.78 410.15, 166.81 413.29, 163.50 414.50 C 162.20 416.22, 158.60 420.14, 160.50 420.50 C 162.68 423.89, 163.93 426.73, 167.50 426.50 C 171.08 429.21, 172.92 426.62, 174.50 424.50 C 176.08 420.38, 179.68 418.52, 180.50 415.50 C 183.69 412.52, 184.63 410.02, 185.50 407.50 C 188.36 404.05, 189.87 401.46, 190.50 398.50 C 191.36 394.83, 193.11 392.95, 193.50 390.50 C 194.79 387.23, 194.54 384.32, 194.50 381.50 C 195.04 378.22, 196.54 375.13, 194.50 373.50 C 192.23 370.31, 191.02 365.93, 187.50 366.50 Z" fill="rgb(253.67831449126413,224.68242548818088,4.1623843782117165)" stroke="rgb(253.67831449126413,224.68242548818088,4.1623843782117165)" stroke-width="1" />
<path d="M 480.50 249.50 C 479.42 255.19, 486.87 251.34, 480.50 249.50 Z" fill="rgb(241.0,204.91666666666666,100.83333333333333)" stroke="rgb(241.0,204.91666666666666,100.83333333333333)" stroke-width="1" />
</svg>