<svg xmlns="http://www.w3.org/2000/svg" width="800" height="800" viewbox="0 0 800 800">
<path d="M 0.50 0.50 C 0.50 4.17, 0.50 7.83, 0.50 11.50 C 0.50 16.50, 0.50 20.50, 0.50 24.50 C 0.50 29.17, 0.50 32.83, 0.50 36.50 C 0.50 41.50, 0.50 45.50, 0.50 49.50 C 0.50 54.17, 0.50 57.83, 0.50 61.50 C 0.50 66.50, 0.50 70.50, 0.50 74.50 C 0.50 79.17, 0.50 82.83, 0.50 86.50 C 0.50 91.50, 0.50 95.50, 0.50 99.50 C 0.50 104.17, 0.50 107.83, 0.50 111.50 C 0.50 116.50, 0.50 120.50, 0.50 124.50 C 0.50 129.17, 0.50 132.83, 0.50 136.50 C 0.50 141.50, 0.50 145.50, 0.50 149.50 C 0.50 154.17, 0.50 157.83, 0.50 161.50 C 0.50 166.50, 0.50 170.50, 0.50 174.50 C 0.50 179.17, 0.50 182.83, 0.50 186.50 C 0.50 191.50, 0.50 195.50, 0.50 199.50 C 0.50 204.17, 0.50 207.83, 0.50 211.50 C 0.50 216.50, 0.50 220.50, 0.50 224.50 C 0.50 229.17, 0.50 232.83, 0.50 236.50 C 0.50 241.50, 0.50 245.50, 0.50 249.50 C 0.50 254.17, 0.50 257.83, 0.50 261.50 C 0.50 266.50, 0.50 270.50, 0.50 274.50 C 0.50 279.17, 0.50 282.83, 0.50 286.50 C 0.50 291.50, 0.50 295.50, 0.50 299.50 C 0.50 304.17, 0.50 307.83, 0.50 311.50 C 0.50 316.50, 0.50 320.50, 0.50 324.50 C 0.50 329.17, 0.50 332.83, 0.50 336.50 C 0.50 341.50, 0.50 345.50, 0.50 349.50 C 0.50 354.17, 0.50 357.83, 0.50 361.50 C 0.50 366.50, 0.50 370.50, 0.50 374.50 C 0.50 379.17, 0.50 382.83, 0.50 386.50 C 0.50 391.50, 0.50 395.50, 0.50 399.50 C 0.50 404.17, 0.50 407.83, 0.50 411.50 C 0.50 416.50, 0.50 420.50, 0.50 424.50 C 0.50 429.17, 0.50 432.83, 0.50 436.50 C 0.50 441.50, 0.50 445.50, 0.50 449.50 C 0.50 454.17, 0.50 457.83, 0.50 461.50 C 0.50 466.50, 0.50 470.50, 0.50 474.50 C 0.50 479.17, 0.50 482.83, 0.50 486.50 C 0.50 491.50, 0.50 495.50, 0.50 499.50 C 0.50 504.17, 0.50 507.83, 0.50 511.50 C 0.50 516.50, 0.50 520.50, 0.50 524.50 C 0.50 529.17, 0.50 532.83, 0.50 536.50 C 0.50 541.50, 0.50 545.50, 0.50 549.50 C 0.50 554.17, 0.50 557.83, 0.50 561.50 C 0.50 566.50, 0.50 570.50, 0.50 574.50 C 0.50 579.17, 0.50 582.83, 0.50 586.50 C 0.50 591.50, 0.50 595.50, 0.50 599.50 C 0.50 604.17, 0.50 607.83, 0.50 611.50 C 0.50 616.50, 0.50 620.50, 0.50 624.50 C 0.50 629.17, 0.50 632.83, 0.50 636.50 C 0.50 641.50, 0.50 645.50, 0.50 649.50 C 0.50 654.17, 0.50 657.83, 0.50 661.50 C 0.50 666.50, 0.50 670.50, 0.50 674.50 C 0.50 679.17, 0.50 682.83, 0.50 686.50 C 0.50 691.50, 0.50 695.50, 0.50 699.50 C 0.50 704.17, 0.50 707.83, 0.50 711.50 C 0.50 716.50, 0.50 720.50, 0.50 724.50 C 0.50 729.17, 0.50 732.83, 0.50 736.50 C 0.50 741.50, 0.50 745.50, 0.50 749.50 C 0.50 754.17, 0.50 757.83, 0.50 761.50 C 0.50 766.50, 0.50 770.50, 0.50 774.50 C 0.50 779.17, 0.50 782.83, 0.50 786.50 C 0.50 791.50, 0.50 795.50, 0.50 799.50 C 5.17 799.50, 8.83 799.50, 12.50 799.50 C 17.17 799.50, 20.83 799.50, 24.50 799.50 C 29.17 799.50, 32.83 799.50, 36.50 799.50 C 41.50 799.50, 45.50 799.50, 49.50 799.50 C 54.17 799.50, 57.83 799.50, 61.50 799.50 C 66.17 799.50, 69.83 799.50, 73.50 799.50 C 78.17 799.50, 81.83 799.50, 85.50 799.50 C 90.50 799.50, 94.50 799.50, 98.50 799.50 C 103.17 799.50, 106.83 799.50, 110.50 799.50 C 115.17 799.50, 118.83 799.50, 122.50 799.50 C 127.17 799.50, 130.83 799.50, 134.50 799.50 C 139.50 799.50, 143.50 799.50, 147.50 799.50 C 152.17 799.50, 155.83 799.50, 159.50 799.50 C 164.50 799.50, 168.50 799.50, 172.50 799.50 C 177.17 799.50, 180.83 799.50, 184.50 799.50 C 189.50 799.50, 193.50 799.50, 197.50 799.50 C 202.17 799.50, 205.83 799.50, 209.50 799.50 C 214.17 799.50, 217.83 799.50, 221.50 799.50 C 226.17 799.50, 229.83 799.50, 233.50 799.50 C 238.50 799.50, 242.50 799.50, 246.50 799.50 C 251.17 799.50, 254.83 799.50, 258.50 799.50 C 263.17 799.50, 266.83 799.50, 270.50 799.50 C 275.17 799.50, 278.83 799.50, 282.50 799.50 C 287.50 799.50, 291.50 799.50, 295.50 799.50 C 300.17 799.50, 303.83 799.50, 307.50 799.50 C 312.17 799.50, 315.83 799.50, 319.50 799.50 C 324.17 799.50, 327.83 799.50, 331.50 799.50 C 336.50 799.50, 340.50 799.50, 344.50 799.50 C 349.17 799.50, 352.83 799.50, 356.50 799.50 C 361.50 799.50, 365.50 799.50, 369.50 799.50 C 374.17 799.50, 377.83 799.50, 381.50 799.50 C 386.50 799.50, 390.50 799.50, 394.50 799.50 C 399.17 799.50, 402.83 799.50, 406.50 799.50 C 411.17 799.50, 414.83 799.50, 418.50 799.50 C 423.17 799.50, 426.83 799.50, 430.50 799.50 C 435.50 799.50, 439.50 799.50, 443.50 799.50 C 448.17 799.50, 451.83 799.50, 455.50 799.50 C 460.17 799.50, 463.83 799.50, 467.50 799.50 C 472.17 799.50, 475.83 799.50, 479.50 799.50 C 484.50 799.50, 488.50 799.50, 492.50 799.50 C 497.17 799.50, 500.83 799.50, 504.50 799.50 C 509.17 799.50, 512.83 799.50, 516.50 799.50 C 521.17 799.50, 524.83 799.50, 528.50 799.50 C 533.50 799.50, 537.50 799.50, 541.50 799.50 C 546.17 799.50, 549.83 799.50, 553.50 799.50 C 558.50 799.50, 562.50 799.50, 566.50 799.50 C 571.17 799.50, 574.83 799.50, 578.50 799.50 C 583.50 799.50, 587.50 799.50, 591.50 799.50 C 596.17 799.50, 599.83 799.50, 603.50 799.50 C 608.17 799.50, 611.83 799.50, 615.50 799.50 C 620.17 799.50, 623.83 799.50, 627.50 799.50 C 632.50 799.50, 636.50 799.50, 640.50 799.50 C 645.17 799.50, 648.83 799.50, 652.50 799.50 C 657.17 799.50, 660.83 799.50, 664.50 799.50 C 669.17 799.50, 672.83 799.50, 676.50 799.50 C 681.50 799.50, 685.50 799.50, 689.50 799.50 C 694.17 799.50, 697.83 799.50, 701.50 799.50 C 706.17 799.50, 709.83 799.50, 713.50 799.50 C 718.17 799.50, 721.83 799.50, 725.50 799.50 C 730.50 799.50, 734.50 799.50, 738.50 799.50 C 743.17 799.50, 746.83 799.50, 750.50 799.50 C 755.50 799.50, 759.50 799.50, 763.50 799.50 C 768.17 799.50, 771.83 799.50, 775.50 799.50 C 780.50 799.50, 784.50 799.50, 788.50 799.50 C 792.54 798.54, 799.64 801.64, 799.50 797.50 C 799.50 792.83, 799.50 789.17, 799.50 785.50 C 799.50 780.83, 799.50 777.17, 799.50 773.50 C 799.50 768.83, 799.50 765.17, 799.50 761.50 C 799.50 756.50, 799.50 752.50, 799.50 748.50 C 799.50 743.83, 799.50 740.17, 799.50 736.50 C 799.50 731.50, 799.50 727.50, 799.50 723.50 C 799.50 718.83, 799.50 715.17, 799.50 711.50 C 799.50 706.50, 799.50 702.50, 799.50 698.50 C 799.50 693.83, 799.50 690.17, 799.50 686.50 C 799.50 681.50, 799.50 677.50, 799.50 673.50 C 799.50 668.83, 799.50 665.17, 799.50 661.50 C 799.50 656.50, 799.50 652.50, 799.50 648.50 C 799.50 643.83, 799.50 640.17, 799.50 636.50 C 799.50 631.50, 799.50 627.50, 799.50 623.50 C 799.50 618.83, 799.50 615.17, 799.50 611.50 C 799.50 606.50, 799.50 602.50, 799.50 598.50 C 799.50 593.83, 799.50 590.17, 799.50 586.50 C 799.50 581.83, 799.50 578.17, 799.50 574.50 C 799.50 569.83, 799.50 566.17, 799.50 562.50 C 799.50 557.50, 799.50 553.50, 799.50 549.50 C 799.50 544.83, 799.50 541.17, 799.50 537.50 C 799.50 532.50, 799.50 528.50, 799.50 524.50 C 799.50 519.83, 799.50 516.17, 799.50 512.50 C 799.50 507.50, 799.50 503.50, 799.50 499.50 C 799.50 494.83, 799.50 491.17, 799.50 487.50 C 799.50 482.50, 799.50 478.50, 799.50 474.50 C 799.50 469.83, 799.50 466.17, 799.50 462.50 C 799.50 457.50, 799.50 453.50, 799.50 449.50 C 799.50 444.83, 799.50 441.17, 799.50 437.50 C 799.50 432.50, 799.50 428.50, 799.50 424.50 C 799.50 419.83, 799.50 416.17, 799.50 412.50 C 799.50 407.50, 799.50 403.50, 799.50 399.50 C 799.50 394.83, 799.50 391.17, 799.50 387.50 C 799.50 382.83, 799.50 379.17, 799.50 375.50 C 799.50 370.83, 799.50 367.17, 799.50 363.50 C 799.50 358.50, 799.50 354.50, 799.50 350.50 C 799.50 345.83, 799.50 342.17, 799.50 338.50 C 799.50 333.50, 799.50 329.50, 799.50 325.50 C 799.50 320.83, 799.50 317.17, 799.50 313.50 C 799.50 308.50, 799.50 304.50, 799.50 300.50 C 799.50 295.83, 799.50 292.17, 799.50 288.50 C 799.50 283.50, 799.50 279.50, 799.50 275.50 C 799.50 270.83, 799.50 267.17, 799.50 263.50 C 799.50 258.50, 799.50 254.50, 799.50 250.50 C 799.50 245.83, 799.50 242.17, 799.50 238.50 C 799.50 233.50, 799.50 229.50, 799.50 225.50 C 799.50 220.83, 799.50 217.17, 799.50 213.50 C 799.50 208.50, 799.50 204.50, 799.50 200.50 C 799.50 195.83, 799.50 192.17, 799.50 188.50 C 799.50 183.50, 799.50 179.50, 799.50 175.50 C 799.50 170.83, 799.50 167.17, 799.50 163.50 C 799.50 158.50, 799.50 154.50, 799.50 150.50 C 799.50 145.83, 799.50 142.17, 799.50 138.50 C 799.50 133.50, 799.50 129.50, 799.50 125.50 C 799.50 120.83, 799.50 117.17, 799.50 113.50 C 799.50 108.50, 799.50 104.50, 799.50 100.50 C 799.50 95.83, 799.50 92.17, 799.50 88.50 C 799.50 83.50, 799.50 79.50, 799.50 75.50 C 799.50 70.83, 799.50 67.17, 799.50 63.50 C 799.50 58.50, 799.50 54.50, 799.50 50.50 C 799.50 45.83, 799.50 42.17, 799.50 38.50 C 799.50 33.50, 799.50 29.50, 799.50 25.50 C 799.50 20.83, 799.50 17.17, 799.50 13.50 C 799.50 8.50, 799.50 4.50, 799.50 0.50 C 794.83 0.50, 791.17 0.50, 787.50 0.50 C 782.83 0.50, 779.17 0.50, 775.50 0.50 C 770.83 0.50, 767.17 0.50, 763.50 0.50 C 758.50 0.50, 754.50 0.50, 750.50 0.50 C 745.83 0.50, 742.17 0.50, 738.50 0.50 C 733.50 0.50, 729.50 0.50, 725.50 0.50 C 720.83 0.50, 717.17 0.50, 713.50 0.50 C 708.50 0.50, 704.50 0.50, 700.50 0.50 C 695.83 0.50, 692.17 0.50, 688.50 0.50 C 683.50 0.50, 679.50 0.50, 675.50 0.50 C 670.83 0.50, 667.17 0.50, 663.50 0.50 C 658.50 0.50, 654.50 0.50, 650.50 0.50 C 645.83 0.50, 642.17 0.50, 638.50 0.50 C 633.50 0.50, 629.50 0.50, 625.50 0.50 C 620.83 0.50, 617.17 0.50, 613.50 0.50 C 608.50 0.50, 604.50 0.50, 600.50 0.50 C 595.83 0.50, 592.17 0.50, 588.50 0.50 C 583.50 0.50, 579.50 0.50, 575.50 0.50 C 570.83 0.50, 567.17 0.50, 563.50 0.50 C 558.50 0.50, 554.50 0.50, 550.50 0.50 C 545.83 0.50, 542.17 0.50, 538.50 0.50 C 533.50 0.50, 529.50 0.50, 525.50 0.50 C 520.83 0.50, 517.17 0.50, 513.50 0.50 C 508.50 0.50, 504.50 0.50, 500.50 0.50 C 495.83 0.50, 492.17 0.50, 488.50 0.50 C 483.50 0.50, 479.50 0.50, 475.50 0.50 C 470.83 0.50, 467.17 0.50, 463.50 0.50 C 458.50 0.50, 454.50 0.50, 450.50 0.50 C 445.83 0.50, 442.17 0.50, 438.50 0.50 C 433.50 0.50, 429.50 0.50, 425.50 0.50 C 420.83 0.50, 417.17 0.50, 413.50 0.50 C 408.50 0.50, 404.50 0.50, 400.50 0.50 C 395.83 0.50, 392.17 0.50, 388.50 0.50 C 383.83 0.50, 380.17 0.50, 376.50 0.50 C 371.83 0.50, 368.17 0.50, 364.50 0.50 C 359.50 0.50, 355.50 0.50, 351.50 0.50 C 346.83 0.50, 343.17 0.50, 339.50 0.50 C 334.50 0.50, 330.50 0.50, 326.50 0.50 C 321.83 0.50, 318.17 0.50, 314.50 0.50 C 309.50 0.50, 305.50 0.50, 301.50 0.50 C 296.83 0.50, 293.17 0.50, 289.50 0.50 C 284.50 0.50, 280.50 0.50, 276.50 0.50 C 271.83 0.50, 268.17 0.50, 264.50 0.50 C 259.50 0.50, 255.50 0.50, 251.50 0.50 C 246.83 0.50, 243.17 0.50, 239.50 0.50 C 234.50 0.50, 230.50 0.50, 226.50 0.50 C 221.83 0.50, 218.17 0.50, 214.50 0.50 C 209.50 0.50, 205.50 0.50, 201.50 0.50 C 196.83 0.50, 193.17 0.50, 189.50 0.50 C 184.50 0.50, 180.50 0.50, 176.50 0.50 C 171.83 0.50, 168.17 0.50, 164.50 0.50 C 159.50 0.50, 155.50 0.50, 151.50 0.50 C 146.83 0.50, 143.17 0.50, 139.50 0.50 C 134.50 0.50, 130.50 0.50, 126.50 0.50 C 121.83 0.50, 118.17 0.50, 114.50 0.50 C 109.50 0.50, 105.50 0.50, 101.50 0.50 C 96.83 0.50, 93.17 0.50, 89.50 0.50 C 84.50 0.50, 80.50 0.50, 76.50 0.50 C 71.83 0.50, 68.17 0.50, 64.50 0.50 C 59.50 0.50, 55.50 0.50, 51.50 0.50 C 46.83 0.50, 43.17 0.50, 39.50 0.50 C 34.50 0.50, 30.50 0.50, 26.50 0.50 C 21.83 0.50, 18.17 0.50, 14.50 0.50 C 9.50 0.50, 5.50 0.50, 1.50 0.50 Z" fill="rgb(254.80190233672857,254.38369615871113,253.62432178283737)" stroke="rgb(254.80190233672857,254.38369615871113,253.62432178283737)" stroke-width="1" />
<path d="M 393.50 40.50 C 390.60 42.68, 386.07 40.94, 382.50 41.50 C 377.50 41.50, 373.50 41.50, 369.50 41.50 C 363.45 41.91, 359.62 44.26, 354.50 43.50 C 348.44 44.03, 343.37 44.52, 338.50 45.50 C 332.67 46.90, 326.91 46.07, 322.50 48.50 C 316.53 49.91, 311.38 50.87, 306.50 52.50 C 302.46 52.27, 300.54 54.73, 297.50 54.50 C 293.58 55.57, 290.91 56.21, 288.50 57.50 C 284.52 58.21, 281.82 59.60, 278.50 59.50 C 274.42 62.44, 270.74 62.93, 267.50 64.50 C 262.92 66.37, 259.08 67.63, 255.50 69.50 C 250.87 71.58, 246.62 72.18, 243.50 75.50 C 238.67 75.84, 236.40 78.92, 233.50 80.50 C 230.25 82.83, 226.75 82.17, 224.50 84.50 C 220.18 87.20, 216.90 89.00, 213.50 90.50 C 211.00 94.85, 207.00 92.15, 205.50 95.50 C 201.73 97.10, 200.16 100.61, 197.50 101.50 C 192.37 105.71, 186.23 108.67, 181.50 113.50 C 176.54 116.13, 173.41 119.75, 169.50 121.50 C 164.56 126.89, 159.36 130.09, 155.50 135.50 C 150.67 137.49, 149.98 142.51, 146.50 143.50 C 143.24 147.04, 141.77 150.17, 138.50 151.50 C 136.51 155.98, 131.49 156.67, 130.50 160.50 C 127.20 163.65, 125.09 166.07, 123.50 169.50 C 120.12 172.34, 118.42 175.47, 116.50 178.50 C 113.25 181.59, 112.31 184.22, 110.50 186.50 C 105.80 192.82, 101.67 197.96, 98.50 203.50 C 93.58 207.84, 94.59 213.23, 90.50 216.50 C 87.88 220.11, 88.43 224.02, 85.50 226.50 C 83.30 230.55, 81.89 233.52, 80.50 236.50 C 78.98 240.89, 76.47 243.88, 75.50 247.50 C 73.65 252.17, 70.15 254.75, 69.50 258.50 C 68.76 263.08, 66.65 266.09, 65.50 269.50 C 63.48 273.55, 63.11 277.28, 61.50 280.50 C 58.81 284.27, 59.41 288.40, 57.50 291.50 C 56.44 297.95, 55.83 303.58, 53.50 308.50 C 52.75 312.13, 51.82 314.69, 51.50 317.50 C 49.96 320.80, 50.37 323.92, 49.50 326.50 C 50.44 330.83, 47.07 332.38, 47.50 335.50 C 46.97 339.42, 46.03 342.17, 46.50 345.50 C 45.97 349.83, 45.03 352.58, 44.50 355.50 C 44.50 359.50, 44.50 362.50, 44.50 365.50 C 43.50 369.50, 43.50 372.50, 43.50 375.50 C 43.50 379.50, 43.50 382.50, 43.50 385.50 C 43.50 389.50, 43.50 392.50, 43.50 395.50 C 43.50 399.83, 43.50 403.17, 43.50 406.50 C 43.50 410.83, 43.50 414.17, 43.50 417.50 C 43.50 421.17, 43.50 423.83, 43.50 426.50 C 43.25 430.74, 45.27 433.04, 44.50 436.50 C 44.32 440.05, 44.44 442.47, 45.50 444.50 C 45.63 451.06, 47.37 455.94, 47.50 461.50 C 50.13 465.49, 48.80 470.12, 50.50 473.50 C 50.57 477.42, 51.21 480.09, 52.50 482.50 C 53.26 489.07, 55.74 493.93, 56.50 499.50 C 58.52 502.74, 56.67 506.59, 59.50 508.50 C 60.39 512.21, 61.88 514.68, 62.50 517.50 C 63.63 521.11, 63.86 524.10, 65.50 526.50 C 67.99 530.02, 67.89 533.61, 69.50 536.50 C 70.59 540.74, 72.74 543.54, 74.50 546.50 C 75.27 550.73, 77.73 553.27, 78.50 556.50 C 81.17 560.69, 82.40 564.07, 83.50 567.50 C 88.10 571.51, 87.48 576.26, 90.50 579.50 C 93.35 582.48, 93.54 585.15, 94.50 587.50 C 96.34 591.51, 100.95 592.96, 100.50 596.50 C 100.91 600.62, 105.92 599.74, 105.50 602.50 C 107.96 606.92, 110.13 610.46, 113.50 613.50 C 114.97 617.39, 118.03 619.61, 119.50 622.50 C 121.82 625.78, 125.28 626.88, 125.50 630.50 C 131.26 636.60, 134.52 640.48, 139.50 645.50 C 145.83 651.83, 151.17 657.17, 156.50 662.50 C 161.94 668.04, 166.50 672.30, 171.50 675.50 C 175.57 677.05, 176.03 681.36, 180.50 681.50 C 183.55 686.56, 188.71 687.11, 191.50 691.50 C 196.17 694.17, 199.89 696.69, 203.50 699.50 C 208.80 703.06, 213.57 705.47, 218.50 707.50 C 224.48 711.22, 229.42 714.02, 234.50 716.50 C 241.12 719.47, 246.26 722.60, 251.50 725.50 C 257.20 727.42, 261.68 729.87, 266.50 731.50 C 271.98 734.75, 277.48 735.55, 282.50 737.50 C 288.99 738.80, 293.64 742.10, 299.50 742.50 C 302.82 744.35, 306.30 743.38, 308.50 745.50 C 312.54 745.27, 314.46 747.73, 317.50 747.50 C 320.88 748.86, 324.12 748.14, 326.50 749.50 C 330.51 749.00, 332.37 751.28, 335.50 750.50 C 339.70 751.50, 342.65 753.09, 346.50 752.50 C 350.08 754.66, 354.25 752.96, 357.50 753.50 C 362.21 754.72, 366.40 753.80, 369.50 755.50 C 375.74 755.25, 380.75 755.56, 385.50 756.50 C 391.83 756.50, 397.17 756.50, 402.50 756.50 C 407.11 756.84, 410.35 756.28, 413.50 755.50 C 417.75 754.96, 421.92 756.66, 424.50 754.50 C 430.29 755.28, 433.86 753.08, 438.50 753.50 C 444.32 753.19, 448.89 752.31, 453.50 751.50 C 458.65 750.38, 462.75 749.16, 467.50 749.50 C 473.14 747.43, 478.13 747.21, 482.50 745.50 C 486.49 742.87, 491.12 744.20, 494.50 742.50 C 499.57 741.47, 503.34 740.73, 506.50 738.50 C 512.12 736.72, 517.09 735.78, 521.50 733.50 C 527.18 730.73, 532.51 729.51, 537.50 727.50 C 542.80 724.08, 547.60 722.87, 551.50 719.50 C 555.98 718.19, 559.31 716.51, 562.50 714.50 C 567.53 712.37, 571.17 710.32, 574.50 707.50 C 579.47 706.37, 582.26 703.38, 585.50 701.50 C 591.00 698.24, 595.12 695.06, 599.50 692.50 C 604.12 687.24, 608.77 685.48, 612.50 681.50 C 617.88 678.91, 622.61 674.32, 625.50 671.50 C 629.93 668.91, 632.35 666.80, 634.50 663.50 C 638.50 660.50, 641.50 657.50, 644.50 654.50 C 647.51 649.76, 651.44 646.81, 654.50 643.50 C 657.63 638.64, 661.54 637.27, 663.50 633.50 C 668.08 630.48, 668.12 627.21, 671.50 624.50 C 672.45 620.12, 676.87 618.60, 677.50 615.50 C 679.58 611.12, 683.42 608.88, 684.50 605.50 C 686.94 600.97, 689.52 599.50, 691.50 596.50 C 694.06 593.07, 696.41 590.54, 697.50 587.50 C 699.37 583.17, 701.61 580.41, 703.50 577.50 C 706.12 573.89, 705.57 569.98, 708.50 567.50 C 710.51 563.31, 712.19 559.98, 713.50 556.50 C 715.89 552.52, 717.30 549.55, 718.50 546.50 C 720.85 542.45, 721.70 538.78, 723.50 535.50 C 726.53 530.59, 727.33 525.76, 729.50 521.50 C 730.92 518.01, 731.12 515.01, 732.50 512.50 C 735.26 506.95, 734.44 500.92, 737.50 496.50 C 738.03 490.50, 739.89 486.05, 741.50 481.50 C 741.18 475.42, 743.82 471.58, 743.50 466.50 C 744.36 462.17, 745.11 459.20, 746.50 456.50 C 745.89 451.44, 747.27 448.21, 747.50 444.50 C 746.74 439.05, 749.07 435.87, 748.50 431.50 C 749.47 427.10, 749.73 423.40, 749.50 419.50 C 749.82 414.16, 748.65 409.21, 750.50 405.50 C 749.77 400.64, 750.91 396.32, 750.50 391.50 C 748.37 388.24, 750.02 384.42, 749.50 381.50 C 748.96 377.25, 750.66 373.08, 748.50 370.50 C 748.50 366.83, 748.50 364.17, 748.50 361.50 C 747.50 357.83, 747.50 355.17, 747.50 352.50 C 748.10 348.45, 746.75 346.20, 746.50 343.50 C 746.18 339.69, 745.25 337.13, 744.50 334.50 C 744.78 327.64, 741.86 323.10, 741.50 317.50 C 740.10 312.53, 739.70 308.14, 737.50 304.50 C 737.39 299.13, 735.29 295.59, 734.50 291.50 C 732.90 286.61, 732.21 282.34, 730.50 278.50 C 728.41 273.34, 727.84 268.56, 725.50 264.50 C 724.56 260.73, 722.25 258.94, 721.50 256.50 C 718.64 251.19, 717.25 246.27, 715.50 241.50 C 713.55 236.54, 710.11 233.60, 709.50 229.50 C 707.55 226.48, 706.49 224.50, 705.50 222.50 C 702.06 217.49, 700.52 212.69, 697.50 208.50 C 694.92 204.27, 692.51 200.97, 690.50 197.50 C 686.75 193.20, 684.25 189.80, 681.50 186.50 C 678.78 181.05, 675.22 176.95, 672.50 172.50 C 667.54 166.82, 664.35 161.81, 659.50 157.50 C 654.58 152.60, 650.87 148.07, 646.50 144.50 C 640.83 138.83, 636.17 134.17, 631.50 129.50 C 626.11 125.30, 622.10 121.18, 617.50 118.50 C 612.19 114.11, 607.99 110.45, 603.50 107.50 C 599.78 104.62, 597.07 102.73, 594.50 100.50 C 590.32 98.27, 587.68 95.73, 584.50 94.50 C 580.89 90.88, 576.98 91.43, 574.50 88.50 C 570.58 86.63, 568.02 83.91, 564.50 83.50 C 561.09 80.09, 557.38 79.78, 554.50 77.50 C 549.92 76.09, 546.61 74.03, 543.50 71.50 C 537.69 70.66, 533.74 67.73, 529.50 65.50 C 525.29 65.82, 523.44 62.85, 520.50 62.50 C 516.84 60.68, 513.94 59.43, 510.50 59.50 C 505.70 57.68, 501.58 56.63, 497.50 55.50 C 493.24 52.39, 488.01 54.01, 484.50 51.50 C 478.27 50.71, 473.32 49.28, 468.50 47.50 C 463.32 46.47, 458.50 46.97, 454.50 45.50 C 449.27 44.59, 444.84 44.15, 440.50 43.50 C 436.45 44.10, 434.20 42.75, 431.50 42.50 C 427.26 42.75, 424.96 40.73, 421.50 41.50 C 417.50 41.50, 414.50 41.50, 411.50 41.50 C 408.58 40.87, 405.30 39.28, 403.50 41.50 C 400.45 42.63, 396.65 41.32, 394.50 40.50 Z" fill="rgb(237.03367479272006,199.0188664811226,129.60111180730615)" stroke="rgb(237.03367479272006,199.0188664811226,129.60111180730615)" stroke-width="1" />
<path d="M 407.50 148.50 C 403.16 150.61, 398.00 150.77, 393.50 152.50 C 386.74 153.66, 382.26 156.93, 377.50 159.50 C 371.33 160.76, 366.08 161.82, 361.50 164.50 C 357.31 167.52, 353.56 169.16, 350.50 172.50 C 344.97 175.47, 343.31 180.34, 339.50 183.50 C 336.48 187.16, 335.32 190.17, 332.50 192.50 C 329.52 196.04, 328.23 198.86, 326.50 201.50 C 322.16 205.56, 320.52 209.31, 317.50 212.50 C 316.43 217.36, 314.04 220.25, 312.50 223.50 C 306.77 228.84, 305.08 234.85, 302.50 240.50 C 300.18 245.76, 299.95 250.88, 298.50 255.50 C 296.83 259.03, 295.46 261.68, 294.50 264.50 C 292.08 267.99, 291.88 270.99, 290.50 273.50 C 289.75 277.27, 286.59 279.04, 287.50 282.50 C 286.40 286.87, 283.94 289.27, 283.50 292.50 C 282.27 297.35, 280.01 300.35, 280.50 304.50 C 280.93 309.62, 279.47 312.96, 278.50 316.50 C 277.54 320.52, 276.46 323.48, 275.50 326.50 C 273.90 330.31, 274.65 334.09, 274.50 337.50 C 272.72 343.04, 272.15 348.08, 272.50 353.50 C 272.50 359.83, 272.50 365.17, 272.50 370.50 C 270.36 375.17, 270.37 379.31, 270.50 383.50 C 270.28 387.63, 268.00 389.49, 268.50 392.50 C 268.50 396.50, 268.50 399.50, 268.50 402.50 C 268.32 409.04, 268.44 414.47, 269.50 419.50 C 269.50 423.97, 267.80 426.74, 268.50 430.50 C 268.65 434.91, 267.90 438.69, 269.50 441.50 C 270.80 446.57, 270.20 451.43, 271.50 455.50 C 271.17 461.44, 271.71 466.02, 272.50 470.50 C 274.53 475.15, 273.39 479.71, 276.50 482.50 C 279.65 486.88, 279.10 491.80, 281.50 495.50 C 286.48 500.68, 285.35 506.98, 288.50 511.50 C 291.80 515.00, 292.71 519.59, 296.50 520.50 C 299.90 524.95, 303.29 526.00, 306.50 527.50 C 312.40 527.80, 315.30 532.92, 320.50 532.50 C 324.89 534.17, 328.78 534.62, 332.50 535.50 C 337.57 536.52, 341.28 538.42, 344.50 541.50 C 349.46 543.93, 353.17 545.95, 357.50 546.50 C 361.08 547.37, 364.20 546.96, 366.50 548.50 C 370.48 549.21, 373.66 549.44, 376.50 550.50 C 385.06 549.17, 381.63 536.46, 382.50 529.50 C 379.27 509.62, 394.57 482.83, 371.50 480.50 C 361.79 475.59, 354.70 468.13, 350.50 458.50 C 341.94 448.63, 340.27 433.89, 346.50 423.50 C 358.95 422.72, 360.06 439.85, 365.50 447.50 C 392.10 487.84, 388.11 434.61, 391.50 413.50 C 398.21 392.92, 371.87 393.03, 365.50 379.50 C 359.31 367.01, 348.31 337.90, 365.50 331.50 C 374.83 346.83, 374.34 366.67, 390.50 379.50 C 397.00 366.33, 396.69 348.26, 397.50 330.50 C 406.30 314.37, 395.28 293.02, 406.50 278.50 C 412.69 273.73, 417.61 281.56, 420.50 284.50 C 421.30 295.92, 418.80 309.52, 423.50 319.50 C 423.55 325.27, 420.90 340.76, 428.50 330.50 C 435.27 322.29, 437.73 313.71, 443.50 306.50 C 448.21 307.88, 445.43 311.92, 446.50 315.50 C 446.85 320.45, 444.72 323.37, 445.50 327.50 C 441.44 336.16, 441.51 343.32, 435.50 350.50 C 430.29 357.11, 423.85 360.59, 424.50 368.50 C 428.54 398.46, 422.95 427.77, 423.50 455.50 C 437.33 444.94, 430.93 409.23, 450.50 401.50 C 457.85 407.02, 455.15 417.77, 455.50 424.50 C 455.94 448.91, 451.24 470.20, 434.50 486.50 C 421.05 495.20, 421.56 509.78, 421.50 523.50 C 421.71 531.44, 422.02 541.50, 421.50 548.50 C 422.70 553.50, 426.90 553.83, 430.50 553.50 C 436.55 553.09, 440.38 550.74, 445.50 551.50 C 451.33 549.41, 456.76 549.79, 461.50 548.50 C 465.55 545.82, 469.42 546.12, 472.50 544.50 C 477.01 544.27, 480.27 543.42, 483.50 542.50 C 488.00 538.95, 492.73 538.39, 496.50 535.50 C 501.84 531.99, 505.73 528.38, 509.50 524.50 C 514.21 520.35, 513.89 515.52, 515.50 511.50 C 521.77 505.89, 525.52 500.65, 529.50 495.50 C 531.05 490.92, 532.69 487.38, 533.50 483.50 C 535.68 479.60, 533.94 475.07, 534.50 471.50 C 536.07 465.68, 535.36 459.91, 535.50 454.50 C 536.11 448.52, 537.45 442.83, 535.50 438.50 C 533.56 432.92, 534.34 426.67, 536.50 422.50 C 535.72 418.35, 535.16 415.11, 535.50 411.50 C 535.73 406.60, 535.47 402.90, 534.50 399.50 C 534.50 395.17, 534.50 391.83, 534.50 388.50 C 535.04 383.81, 532.73 381.29, 533.50 377.50 C 533.50 371.83, 533.50 367.17, 533.50 362.50 C 533.75 356.26, 533.44 351.25, 532.50 346.50 C 532.43 342.39, 532.96 339.03, 531.50 336.50 C 530.72 332.35, 530.16 329.11, 530.50 325.50 C 528.20 321.29, 527.58 317.80, 526.50 314.50 C 527.27 309.71, 524.96 307.19, 525.50 303.50 C 524.35 299.09, 525.10 295.31, 523.50 292.50 C 521.99 288.38, 522.83 284.28, 520.50 281.50 C 519.75 277.87, 518.82 275.31, 518.50 272.50 C 517.37 268.89, 517.14 265.90, 515.50 263.50 C 515.18 259.69, 514.25 257.13, 513.50 254.50 C 511.96 251.20, 512.37 248.08, 511.50 245.50 C 511.15 241.56, 508.18 239.71, 508.50 236.50 C 506.77 232.53, 504.93 230.01, 505.50 226.50 C 505.15 222.56, 502.18 220.71, 502.50 217.50 C 500.37 213.75, 498.63 211.25, 497.50 208.50 C 495.54 204.68, 494.17 202.03, 492.50 199.50 C 489.76 195.81, 488.95 192.32, 486.50 189.50 C 480.18 184.05, 479.55 177.65, 473.50 173.50 C 469.57 168.28, 465.72 164.43, 461.50 161.50 C 457.11 156.69, 452.68 155.39, 448.50 153.50 C 444.53 151.77, 442.01 149.93, 438.50 150.50 C 434.66 149.44, 431.48 149.21, 428.50 148.50 C 424.50 148.50, 421.50 148.50, 418.50 148.50 C 414.50 148.50, 411.50 148.50, 408.50 148.50 Z" fill="rgb(253.94634497659345,224.97172541644994,1.2799983995518744)" stroke="rgb(253.94634497659345,224.97172541644994,1.2799983995518744)" stroke-width="1" />
<path d="M 410.50 276.50 C 397.46 284.33, 402.73 301.33, 400.50 314.50 C 401.53 320.54, 398.46 323.87, 398.50 328.50 C 397.01 334.02, 397.58 339.40, 397.50 344.50 C 395.42 349.91, 397.44 356.03, 395.50 360.50 C 392.73 366.57, 395.48 373.93, 391.50 378.50 C 385.57 373.95, 382.99 369.30, 379.50 364.50 C 374.70 358.58, 374.30 352.25, 372.50 346.50 C 369.61 341.11, 370.02 331.35, 362.50 332.50 C 354.72 337.38, 356.70 345.89, 356.50 353.50 C 358.38 361.55, 359.19 369.04, 362.50 375.50 C 364.03 381.07, 367.28 386.23, 371.50 387.50 C 376.01 392.82, 381.08 393.39, 385.50 395.50 C 392.39 400.08, 391.67 406.41, 391.50 412.50 C 389.58 416.12, 390.92 420.09, 388.50 422.50 C 389.27 427.29, 386.96 429.81, 387.50 433.50 C 389.22 439.94, 387.40 444.32, 387.50 449.50 C 387.72 455.46, 388.11 461.92, 382.50 463.50 C 374.99 459.70, 370.95 452.68, 365.50 447.50 C 362.33 440.71, 359.70 434.69, 357.50 428.50 C 354.38 424.84, 347.96 421.36, 344.50 425.50 C 341.76 433.66, 342.64 441.27, 344.50 448.50 C 346.15 453.25, 349.65 455.83, 350.50 459.50 C 352.96 463.92, 355.13 467.46, 358.50 470.50 C 363.03 474.82, 366.14 479.18, 370.50 480.50 C 373.91 486.18, 381.27 483.69, 383.50 487.50 C 384.50 492.50, 384.50 496.50, 384.50 500.50 C 383.19 505.24, 383.30 509.55, 382.50 513.50 C 382.50 517.50, 382.50 520.50, 382.50 523.50 C 380.37 526.76, 382.02 530.58, 381.50 533.50 C 384.41 537.20, 380.33 540.17, 381.50 543.50 C 381.50 549.83, 381.50 555.17, 381.50 560.50 C 382.25 567.61, 380.31 572.62, 380.50 578.50 C 380.80 588.43, 378.73 596.38, 379.50 605.50 C 379.50 610.83, 379.50 615.17, 379.50 619.50 C 379.82 624.84, 378.65 629.79, 380.50 633.50 C 379.99 638.98, 383.09 646.17, 374.50 645.50 C 364.12 645.71, 353.47 643.87, 345.50 648.50 C 329.45 647.96, 314.28 657.59, 311.50 672.50 C 310.61 681.04, 318.40 683.56, 323.50 686.50 C 335.90 692.85, 347.15 692.47, 360.50 692.50 C 367.66 695.26, 375.29 694.65, 381.50 693.50 C 400.98 694.00, 419.44 693.45, 436.50 689.50 C 451.05 686.22, 465.73 685.67, 478.50 680.50 C 488.93 672.96, 481.29 660.02, 473.50 654.50 C 464.12 650.00, 454.02 649.66, 445.50 645.50 C 435.60 644.59, 427.04 642.86, 417.50 643.50 C 407.14 641.21, 417.05 632.61, 417.50 627.50 C 417.81 622.41, 420.19 619.59, 419.50 615.50 C 419.50 610.50, 419.50 606.50, 419.50 602.50 C 421.71 595.37, 420.46 590.15, 420.50 583.50 C 419.79 576.07, 421.55 570.66, 421.50 564.50 C 423.68 560.60, 421.94 556.07, 422.50 552.50 C 420.80 542.40, 422.56 532.41, 421.50 524.50 C 422.38 518.57, 422.17 513.38, 420.50 508.50 C 422.87 501.91, 423.86 495.74, 429.50 491.50 C 436.54 485.62, 437.94 478.83, 444.50 475.50 C 449.29 467.96, 449.91 460.12, 453.50 453.50 C 452.52 446.82, 455.04 442.59, 455.50 437.50 C 456.59 434.56, 455.01 431.10, 455.50 428.50 C 454.61 423.91, 456.98 420.70, 455.50 417.50 C 457.37 413.51, 454.97 408.88, 454.50 405.50 C 452.19 401.07, 448.21 399.19, 445.50 402.50 C 440.09 404.84, 441.08 409.41, 438.50 412.50 C 436.77 418.33, 436.71 423.86, 434.50 428.50 C 436.60 437.14, 429.06 439.06, 428.50 445.50 C 427.12 450.86, 423.82 445.50, 424.50 443.50 C 424.50 438.17, 424.50 433.83, 424.50 429.50 C 426.07 423.68, 425.36 417.91, 425.50 412.50 C 425.42 407.68, 428.20 403.06, 425.50 399.50 C 425.50 393.83, 425.50 389.17, 425.50 384.50 C 425.50 378.83, 425.50 374.17, 425.50 369.50 C 425.62 364.80, 425.80 361.13, 428.50 358.50 C 433.13 355.39, 436.10 351.41, 437.50 347.50 C 440.92 343.56, 441.23 339.33, 442.50 335.50 C 446.06 327.51, 447.44 313.92, 443.50 307.50 C 441.54 310.32, 440.17 312.97, 438.50 315.50 C 434.15 319.94, 434.31 325.25, 429.50 328.50 C 427.07 333.15, 423.76 329.79, 423.50 327.50 C 422.28 321.73, 421.22 316.89, 421.50 311.50 C 420.50 305.50, 420.50 300.50, 420.50 295.50 C 421.81 286.19, 417.69 281.25, 411.50 276.50 Z" fill="rgb(239.60418963616317,210.48291069459756,32.35832414553473)" stroke="rgb(239.60418963616317,210.48291069459756,32.35832414553473)" stroke-width="1" />
<path d="M 408.50 277.50 C 405.47 279.74, 404.24 282.73, 402.50 285.50 C 400.93 291.32, 401.64 297.09, 401.50 302.50 C 401.50 308.83, 401.50 314.17, 401.50 319.50 C 398.67 322.41, 400.52 326.26, 398.50 328.50 C 398.50 333.50, 398.50 337.50, 398.50 341.50 C 397.22 346.44, 397.45 351.01, 397.50 355.50 C 395.75 359.72, 395.28 363.46, 395.50 367.50 C 393.63 372.14, 395.40 377.29, 392.50 380.50 C 386.91 376.08, 383.07 371.34, 379.50 366.50 C 375.44 361.55, 374.07 356.48, 372.50 351.50 C 373.08 344.58, 366.39 324.29, 358.50 336.50 C 354.80 341.97, 358.08 346.62, 357.50 351.50 C 357.18 359.52, 359.26 365.54, 361.50 371.50 C 365.65 376.69, 364.93 382.90, 370.50 386.50 C 376.80 392.99, 385.02 392.44, 390.50 398.50 C 391.75 402.20, 393.10 404.45, 392.50 407.50 C 392.75 411.74, 390.73 414.04, 391.50 417.50 C 389.10 422.26, 389.37 427.11, 388.50 431.50 C 389.76 436.08, 390.40 441.96, 388.50 445.50 C 388.50 450.83, 388.50 455.17, 388.50 459.50 C 387.68 464.04, 383.09 466.14, 380.50 463.50 C 372.37 459.54, 367.68 451.89, 364.50 445.50 C 359.79 438.32, 359.35 430.79, 353.50 425.50 C 349.20 422.24, 343.84 423.93, 344.50 428.50 C 341.46 438.86, 344.50 449.54, 350.50 457.50 C 354.43 466.87, 361.50 473.75, 368.50 478.50 C 372.88 485.61, 381.97 482.18, 384.50 486.50 C 387.16 489.19, 383.26 491.07, 384.50 493.50 C 385.95 497.35, 385.95 501.65, 384.50 504.50 C 384.06 509.46, 382.99 513.15, 383.50 517.50 C 383.50 522.83, 383.50 527.17, 383.50 531.50 C 383.48 537.30, 383.89 542.27, 382.50 546.50 C 382.67 550.08, 379.81 553.20, 382.50 555.50 C 383.10 559.55, 381.75 561.80, 381.50 564.50 C 381.87 568.85, 381.99 572.51, 380.50 575.50 C 379.80 579.26, 382.20 580.74, 381.50 583.50 C 380.96 590.16, 380.04 595.25, 379.50 600.50 C 380.03 604.42, 380.97 607.17, 380.50 610.50 C 380.50 614.83, 380.50 618.17, 380.50 621.50 C 380.99 625.21, 379.10 626.34, 380.50 628.50 C 380.08 634.15, 380.87 638.29, 381.50 642.50 C 387.90 644.53, 389.23 651.17, 394.50 652.50 C 397.40 649.17, 401.40 650.93, 404.50 650.50 C 407.76 646.27, 411.00 643.46, 411.50 639.50 C 412.34 634.49, 416.60 631.90, 416.50 627.50 C 418.64 622.83, 418.63 618.69, 418.50 614.50 C 419.50 610.03, 417.80 607.26, 418.50 603.50 C 419.42 598.94, 420.57 595.47, 420.50 591.50 C 421.73 585.86, 417.54 581.49, 420.50 577.50 C 420.45 572.01, 420.22 567.44, 421.50 563.50 C 421.50 559.83, 421.50 557.17, 421.50 554.50 C 421.50 550.50, 421.50 547.50, 421.50 544.50 C 420.86 538.84, 419.60 533.52, 421.50 529.50 C 421.50 523.83, 421.50 519.17, 421.50 514.50 C 421.37 509.27, 417.66 505.65, 421.50 502.50 C 424.03 497.44, 426.18 493.23, 429.50 489.50 C 436.25 481.16, 444.96 475.29, 448.50 466.50 C 454.44 448.30, 455.85 428.54, 454.50 409.50 C 455.08 403.15, 448.43 400.95, 444.50 403.50 C 440.75 409.38, 438.40 414.44, 438.50 420.50 C 434.84 425.87, 436.22 432.33, 434.50 437.50 C 429.25 441.44, 429.35 451.09, 424.50 450.50 C 425.09 444.45, 422.74 440.62, 423.50 435.50 C 422.75 428.72, 425.10 424.22, 424.50 418.50 C 425.79 415.23, 425.54 412.32, 425.50 409.50 C 425.50 405.83, 425.50 403.17, 425.50 400.50 C 423.30 396.27, 425.07 391.40, 424.50 387.50 C 424.34 382.30, 426.24 378.95, 425.50 374.50 C 422.80 369.94, 425.58 365.32, 425.50 361.50 C 429.19 356.98, 432.70 353.39, 435.50 349.50 C 439.02 345.13, 440.51 340.92, 441.50 336.50 C 442.73 331.65, 444.99 328.65, 444.50 324.50 C 445.92 318.90, 445.92 313.10, 444.50 308.50 C 440.68 309.87, 439.58 315.85, 436.50 319.50 C 434.99 325.53, 429.86 328.65, 426.50 332.50 C 422.98 330.80, 421.93 328.48, 422.50 325.50 C 422.58 322.00, 420.77 320.27, 421.50 317.50 C 421.08 312.73, 419.58 309.41, 419.50 305.50 C 419.50 300.83, 419.50 297.17, 419.50 293.50 C 420.39 289.31, 420.32 286.46, 418.50 283.50 C 415.01 282.01, 413.79 276.06, 409.50 277.50 Z" fill="rgb(192.8256200846945,164.82630066545676,74.98941318814278)" stroke="rgb(192.8256200846945,164.82630066545676,74.98941318814278)" stroke-width="1" />
<path d="M 621.50 246.50 C 618.51 251.80, 622.77 257.53, 621.50 263.50 C 623.33 271.20, 624.46 275.45, 623.50 282.50 C 623.17 287.95, 624.78 294.66, 620.50 296.50 C 619.40 287.81, 609.60 287.33, 604.50 282.50 C 592.03 275.52, 568.38 272.34, 568.50 292.50 C 601.36 311.70, 548.53 326.08, 562.50 350.50 C 578.64 361.88, 600.88 337.19, 593.50 365.50 C 595.22 371.95, 595.90 377.83, 599.50 382.50 C 594.73 393.94, 609.19 395.99, 616.50 397.50 C 623.80 394.30, 624.31 387.41, 628.50 382.50 C 631.14 376.38, 630.32 370.23, 630.50 364.50 C 636.86 366.23, 644.69 369.20, 651.50 369.50 C 667.53 362.76, 661.21 342.77, 651.50 333.50 C 640.83 324.39, 650.57 318.10, 655.50 311.50 C 661.61 304.76, 670.18 298.09, 667.50 290.50 C 658.29 275.54, 644.85 302.36, 639.50 296.50 C 638.01 282.82, 636.39 270.19, 632.50 258.50 C 630.15 252.90, 630.36 244.76, 622.50 246.50 Z" fill="rgb(241.28880866425993,165.0974729241877,38.772563176895304)" stroke="rgb(241.28880866425993,165.0974729241877,38.772563176895304)" stroke-width="1" />
<path d="M 412.50 642.50 C 409.72 644.37, 409.28 647.21, 407.50 649.50 C 405.56 652.59, 402.10 651.01, 399.50 651.50 C 396.93 654.54, 393.65 653.53, 391.50 652.50 C 387.46 649.27, 386.63 645.88, 383.50 644.50 C 379.83 644.50, 377.17 644.50, 374.50 644.50 C 370.40 643.91, 366.40 645.39, 364.50 644.50 C 361.24 646.63, 357.42 644.98, 354.50 645.50 C 348.29 646.80, 343.60 649.34, 337.50 648.50 C 333.03 651.45, 328.34 651.46, 324.50 653.50 C 320.58 655.09, 318.93 658.74, 316.50 660.50 C 314.32 666.37, 310.63 670.20, 310.50 675.50 C 312.81 680.56, 316.55 683.25, 320.50 684.50 C 326.32 688.75, 331.61 690.84, 337.50 691.50 C 341.17 691.50, 343.83 691.50, 346.50 691.50 C 349.44 693.59, 352.90 692.01, 355.50 692.50 C 359.96 691.73, 362.26 693.75, 365.50 693.50 C 369.83 694.50, 373.17 694.50, 376.50 694.50 C 381.29 692.73, 383.81 695.04, 387.50 694.50 C 393.23 695.82, 399.03 693.93, 403.50 692.50 C 408.35 694.09, 411.30 692.50, 414.50 691.50 C 418.26 693.20, 419.74 690.80, 422.50 691.50 C 427.11 691.84, 430.35 691.28, 433.50 690.50 C 437.38 686.61, 441.41 690.41, 444.50 688.50 C 450.49 686.68, 455.79 685.60, 461.50 685.50 C 464.53 683.44, 466.95 683.32, 469.50 683.50 C 473.83 684.44, 475.38 681.07, 478.50 681.50 C 482.70 677.47, 484.99 674.06, 484.50 669.50 C 480.20 665.37, 481.53 660.33, 477.50 657.50 C 474.17 654.35, 471.03 654.16, 468.50 652.50 C 465.20 650.96, 462.08 651.37, 459.50 650.50 C 455.06 647.16, 450.23 648.16, 446.50 646.50 C 440.99 644.31, 435.17 645.30, 430.50 643.50 C 427.17 643.50, 424.83 643.50, 422.50 643.50 C 418.90 643.01, 415.44 644.59, 413.50 642.50 Z" fill="rgb(242.9186969232911,152.37839342892943,2.4236391479883057)" stroke="rgb(242.9186969232911,152.37839342892943,2.4236391479883057)" stroke-width="1" />
<path d="M 187.50 366.50 C 176.47 372.37, 179.84 388.41, 174.50 398.50 C 170.98 404.33, 168.80 410.33, 164.50 413.50 C 159.90 418.96, 154.31 420.29, 149.50 424.50 C 137.66 418.83, 125.37 420.82, 114.50 415.50 C 102.73 414.31, 86.63 406.07, 81.50 420.50 C 86.68 440.87, 101.23 454.51, 115.50 469.50 C 132.81 488.26, 153.81 500.41, 175.50 507.50 C 183.26 509.46, 189.46 506.77, 186.50 499.50 C 185.95 483.29, 183.64 469.22, 180.50 455.50 C 179.94 443.66, 167.72 432.86, 175.50 422.50 C 186.77 406.59, 204.98 383.37, 188.50 366.50 Z" fill="rgb(242.08536585365854,206.70731707317074,92.35365853658537)" stroke="rgb(242.08536585365854,206.70731707317074,92.35365853658537)" stroke-width="1" />
<path d="M 185.50 367.50 C 177.47 376.36, 180.32 389.72, 174.50 399.50 C 171.83 409.14, 164.81 413.37, 159.50 419.50 C 154.02 418.73, 152.98 426.27, 148.50 425.50 C 144.46 423.46, 141.21 421.92, 137.50 421.50 C 133.88 417.96, 128.03 420.41, 125.50 419.50 C 121.31 416.69, 116.69 417.31, 113.50 414.50 C 110.84 414.86, 108.52 413.61, 107.50 415.50 C 102.91 414.46, 100.43 411.72, 96.50 412.50 C 93.30 411.21, 90.70 411.21, 88.50 412.50 C 84.70 415.80, 82.83 415.96, 81.50 419.50 C 80.50 426.27, 88.18 428.45, 86.50 434.50 C 90.48 439.75, 90.76 445.77, 96.50 448.50 C 99.78 452.52, 102.51 455.36, 104.50 458.50 C 109.87 460.76, 110.75 466.01, 114.50 468.50 C 118.70 475.25, 125.11 477.21, 128.50 482.50 C 133.56 485.68, 136.85 489.75, 141.50 490.50 C 146.56 494.03, 150.77 496.18, 154.50 499.50 C 159.88 500.25, 163.06 503.90, 167.50 504.50 C 170.01 509.29, 174.47 505.97, 176.50 508.50 C 181.24 508.82, 184.22 507.31, 187.50 506.50 C 186.17 503.78, 187.22 501.07, 185.50 499.50 C 185.50 494.50, 185.50 490.50, 185.50 486.50 C 185.75 482.26, 183.73 479.96, 184.50 476.50 C 183.97 472.58, 183.03 469.83, 183.50 466.50 C 182.64 462.17, 181.89 459.20, 180.50 456.50 C 179.05 450.08, 178.14 444.43, 175.50 439.50 C 171.39 433.99, 171.39 426.01, 175.50 421.50 C 187.23 407.54, 205.13 379.27, 186.50 367.50 Z" fill="rgb(253.88978583196047,224.87710049423393,2.047611202635914)" stroke="rgb(253.88978583196047,224.87710049423393,2.047611202635914)" stroke-width="1" />
<path d="M 230.50 148.50 C 225.62 151.12, 220.74 153.75, 215.50 155.50 C 208.68 157.01, 204.06 163.52, 202.50 168.50 C 194.18 175.93, 194.16 185.38, 188.50 192.50 C 190.77 202.94, 172.22 207.27, 181.50 214.50 C 194.23 220.91, 207.25 224.19, 221.50 224.50 C 233.26 223.94, 241.14 217.44, 250.50 214.50 C 262.24 206.53, 272.66 196.31, 276.50 183.50 C 282.10 181.01, 284.46 176.75, 283.50 170.50 C 287.36 167.49, 291.03 167.44, 293.50 164.50 C 299.31 161.65, 302.91 156.88, 307.50 154.50 C 304.70 154.99, 301.72 156.03, 298.50 156.50 C 293.95 157.64, 291.21 159.75, 287.50 159.50 C 283.42 161.12, 279.55 160.82, 276.50 162.50 C 272.29 162.82, 270.44 159.85, 267.50 159.50 C 263.69 157.17, 261.69 153.90, 258.50 153.50 C 253.32 151.94, 249.76 149.87, 245.50 149.50 C 240.95 147.28, 235.73 149.08, 231.50 148.50 Z" fill="rgb(241.009900990099,162.63861386138615,30.792079207920793)" stroke="rgb(241.009900990099,162.63861386138615,30.792079207920793)" stroke-width="1" />
<path d="M 232.50 149.50 C 230.26 151.52, 226.41 149.67, 224.50 152.50 C 220.08 152.67, 218.82 157.07, 215.50 156.50 C 212.42 157.82, 210.36 157.76, 209.50 160.50 C 203.80 164.39, 201.65 169.20, 198.50 173.50 C 196.01 177.43, 194.11 180.20, 193.50 183.50 C 191.89 187.80, 189.99 190.57, 188.50 193.50 C 188.82 197.71, 185.85 199.56, 185.50 202.50 C 181.46 205.67, 178.84 207.66, 178.50 211.50 C 181.62 216.29, 186.19 214.18, 188.50 217.50 C 194.34 218.60, 197.96 221.66, 202.50 222.50 C 206.60 224.20, 210.79 223.28, 214.50 223.50 C 219.50 223.50, 223.50 223.50, 227.50 223.50 C 230.99 222.08, 233.99 221.88, 236.50 220.50 C 240.01 218.12, 243.01 217.92, 245.50 216.50 C 249.83 215.76, 251.84 212.84, 254.50 211.50 C 259.82 209.58, 261.00 204.47, 264.50 202.50 C 270.85 196.86, 272.35 190.63, 276.50 185.50 C 275.25 179.59, 282.56 181.65, 282.50 177.50 C 284.30 173.43, 282.64 168.47, 287.50 167.50 C 292.67 162.97, 297.97 161.16, 302.50 157.50 C 296.70 157.84, 292.59 160.85, 287.50 161.50 C 283.58 162.50, 280.36 163.77, 276.50 163.50 C 271.35 164.86, 269.11 159.45, 265.50 162.50 C 260.55 162.44, 264.10 159.47, 263.50 157.50 C 260.47 155.43, 258.49 153.24, 255.50 153.50 C 251.32 151.47, 247.56 151.82, 244.50 150.50 C 240.03 150.50, 237.26 148.80, 233.50 149.50 Z" fill="rgb(241.9807763401109,154.14048059149724,4.592606284658041)" stroke="rgb(241.9807763401109,154.14048059149724,4.592606284658041)" stroke-width="1" />
<path d="M 579.50 276.50 C 571.34 279.63, 563.14 292.49, 572.50 298.50 C 584.98 305.24, 580.77 314.64, 571.50 320.50 C 564.64 329.38, 552.17 343.81, 565.50 353.50 C 574.74 354.95, 581.44 354.83, 589.50 351.50 C 593.03 346.09, 595.44 351.68, 594.50 354.50 C 592.87 358.10, 594.13 361.90, 592.50 364.50 C 594.37 368.08, 593.96 371.20, 595.50 373.50 C 597.22 376.67, 596.72 379.77, 599.50 381.50 C 597.48 384.48, 596.96 387.15, 598.50 389.50 C 600.01 393.51, 603.63 394.82, 606.50 394.50 C 609.41 397.33, 613.26 395.48, 615.50 397.50 C 618.12 395.87, 622.70 393.87, 623.50 390.50 C 625.75 387.31, 625.33 382.94, 628.50 382.50 C 630.63 379.24, 628.98 375.42, 629.50 372.50 C 631.67 364.64, 623.71 370.74, 624.50 364.50 C 624.67 358.61, 618.77 357.66, 615.50 356.50 C 613.25 350.20, 617.48 345.14, 614.50 340.50 C 616.74 335.29, 614.90 329.39, 615.50 324.50 C 620.89 317.85, 616.68 308.22, 619.50 301.50 C 621.18 289.68, 612.37 288.17, 605.50 282.50 C 596.43 280.68, 589.57 275.91, 580.50 276.50 Z" fill="rgb(242.86151797603196,153.017310252996,4.812916111850866)" stroke="rgb(242.86151797603196,153.017310252996,4.812916111850866)" stroke-width="1" />
<path d="M 624.50 246.50 C 621.96 247.48, 618.49 250.80, 621.50 253.50 C 621.75 257.20, 623.10 259.45, 622.50 262.50 C 623.18 267.50, 624.12 271.38, 624.50 275.50 C 622.52 277.82, 623.92 280.53, 623.50 282.50 C 623.50 286.83, 623.50 290.17, 623.50 293.50 C 620.32 297.93, 620.22 302.64, 620.50 307.50 C 620.28 312.21, 621.20 316.40, 619.50 319.50 C 616.72 323.90, 617.78 328.48, 617.50 332.50 C 617.50 337.50, 617.50 341.50, 617.50 345.50 C 618.06 350.60, 620.84 355.61, 625.50 355.50 C 629.43 360.13, 631.87 362.57, 635.50 365.50 C 639.54 368.01, 642.79 369.08, 646.50 367.50 C 651.01 370.81, 654.72 367.97, 657.50 365.50 C 661.10 362.16, 661.15 358.77, 661.50 355.50 C 662.54 350.79, 659.38 348.82, 659.50 345.50 C 659.56 340.37, 654.58 338.74, 653.50 335.50 C 650.22 331.48, 647.49 328.64, 645.50 325.50 C 645.96 319.91, 652.27 318.62, 652.50 314.50 C 656.12 309.30, 661.24 307.22, 663.50 302.50 C 664.83 299.08, 666.60 297.26, 668.50 295.50 C 668.90 291.59, 667.57 289.39, 665.50 287.50 C 661.04 285.51, 656.03 284.33, 654.50 288.50 C 648.81 291.65, 645.00 295.90, 640.50 298.50 C 636.70 295.98, 640.92 292.18, 638.50 288.50 C 637.97 284.58, 637.03 281.83, 637.50 278.50 C 636.06 274.35, 636.33 270.49, 634.50 267.50 C 633.74 263.07, 633.36 259.48, 631.50 256.50 C 630.80 251.86, 629.54 247.92, 625.50 246.50 Z" fill="rgb(242.88184438040346,152.79596541786742,4.061095100864553)" stroke="rgb(242.88184438040346,152.79596541786742,4.061095100864553)" stroke-width="1" />
<path d="M 615.50 499.50 C 610.86 502.93, 610.01 506.66, 605.50 510.50 C 598.34 508.78, 578.09 511.37, 585.50 522.50 C 572.49 532.93, 563.15 549.21, 564.50 565.50 C 567.75 582.17, 585.45 581.12, 596.50 575.50 C 603.15 575.46, 604.29 568.38, 608.50 565.50 C 616.50 559.46, 615.43 546.90, 625.50 545.50 C 630.38 541.89, 628.37 536.84, 630.50 533.50 C 630.16 525.66, 619.01 522.82, 624.50 516.50 C 625.95 508.76, 628.19 496.56, 616.50 499.50 Z" fill="rgb(217.9,182.05,92.68333333333334)" stroke="rgb(217.9,182.05,92.68333333333334)" stroke-width="1" />
<path d="M 579.50 276.50 C 575.25 278.87, 573.02 281.93, 569.50 285.50 C 568.96 288.78, 567.46 291.87, 569.50 293.50 C 569.20 297.62, 573.07 300.50, 575.50 301.50 C 579.46 303.53, 579.79 306.23, 581.50 308.50 C 578.68 312.86, 576.94 316.84, 572.50 318.50 C 568.26 323.32, 566.01 326.57, 564.50 331.50 C 560.79 332.03, 560.62 335.94, 560.50 338.50 C 559.08 342.10, 559.08 345.90, 560.50 348.50 C 563.72 351.11, 565.54 353.67, 568.50 353.50 C 572.76 352.73, 574.86 354.76, 577.50 355.50 C 580.76 354.31, 582.43 351.72, 585.50 352.50 C 590.46 353.60, 590.63 347.72, 593.50 347.50 C 598.55 351.59, 596.41 342.26, 598.50 340.50 C 600.76 348.60, 602.79 337.82, 603.50 344.50 C 605.12 348.86, 607.30 351.42, 611.50 351.50 C 610.80 346.74, 612.50 343.97, 612.50 340.50 C 612.73 335.79, 614.11 332.56, 613.50 328.50 C 615.56 324.47, 613.93 319.91, 617.50 317.50 C 620.14 315.23, 617.52 312.81, 618.50 310.50 C 617.14 307.12, 617.14 303.88, 618.50 301.50 C 620.28 297.37, 618.00 295.51, 618.50 292.50 C 615.17 287.97, 609.35 288.48, 607.50 283.50 C 602.75 281.57, 598.16 281.64, 594.50 279.50 C 589.59 277.49, 585.45 276.01, 580.50 276.50 Z" fill="rgb(242.9635447540012,152.24629519857734,2.297866034380557)" stroke="rgb(242.9635447540012,152.24629519857734,2.297866034380557)" stroke-width="1" />
<path d="M 582.50 524.50 C 580.56 526.06, 581.09 530.40, 577.50 529.50 C 574.98 533.56, 572.44 536.20, 571.50 539.50 C 566.85 542.54, 568.43 546.75, 566.50 549.50 C 566.39 554.06, 563.58 556.69, 565.50 559.50 C 562.61 565.95, 565.48 572.02, 570.50 575.50 C 572.55 578.21, 573.46 578.95, 576.50 579.50 C 579.78 579.04, 582.87 580.54, 584.50 578.50 C 587.77 577.21, 590.68 577.46, 593.50 577.50 C 596.07 573.40, 598.78 578.91, 600.50 575.50 C 601.83 570.40, 607.54 568.98, 608.50 564.50 C 612.24 560.33, 615.35 557.33, 616.50 553.50 C 619.98 548.17, 612.05 545.34, 609.50 543.50 C 603.73 541.63, 597.28 541.23, 595.50 535.50 C 588.88 533.01, 587.05 527.74, 583.50 524.50 Z" fill="rgb(218.7561855670103,175.90463917525773,40.52783505154639)" stroke="rgb(218.7561855670103,175.90463917525773,40.52783505154639)" stroke-width="1" />
<path d="M 446.50 402.50 C 443.30 405.34, 440.44 408.31, 440.50 412.50 C 440.20 417.26, 438.50 420.03, 438.50 423.50 C 437.89 426.67, 433.63 428.63, 436.50 430.50 C 436.80 434.23, 436.31 436.64, 434.50 438.50 C 431.77 441.20, 430.28 442.99, 430.50 445.50 C 427.09 450.19, 427.71 455.14, 424.50 458.50 C 422.21 464.24, 422.59 469.67, 421.50 474.50 C 421.50 480.50, 421.50 485.50, 421.50 490.50 C 422.70 493.50, 424.60 497.99, 425.50 493.50 C 431.90 488.02, 434.70 483.60, 439.50 478.50 C 440.83 474.66, 445.26 475.65, 445.50 472.50 C 447.99 468.31, 448.84 464.45, 449.50 460.50 C 452.10 455.88, 453.97 450.53, 452.50 446.50 C 452.89 440.44, 454.28 436.21, 454.50 431.50 C 454.50 425.50, 454.50 420.50, 454.50 415.50 C 455.19 409.41, 454.04 401.80, 447.50 402.50 Z" fill="rgb(191.40811724915446,163.4334836527621,76.51071025930102)" stroke="rgb(191.40811724915446,163.4334836527621,76.51071025930102)" stroke-width="1" />
<path d="M 615.50 499.50 C 614.20 501.56, 611.01 502.88, 610.50 504.50 C 608.29 508.98, 603.48 513.88, 599.50 509.50 C 595.13 512.10, 593.19 511.93, 589.50 511.50 C 584.97 513.28, 583.74 515.62, 584.50 519.50 C 584.54 524.31, 587.31 526.58, 588.50 529.50 C 592.45 531.77, 596.50 533.93, 597.50 537.50 C 600.01 542.29, 604.47 538.97, 606.50 541.50 C 610.52 542.32, 613.02 544.39, 615.50 546.50 C 620.65 546.27, 626.94 546.66, 628.50 541.50 C 631.43 536.40, 628.24 531.43, 627.50 527.50 C 626.15 523.73, 619.37 522.11, 623.50 517.50 C 626.28 514.10, 625.22 509.52, 625.50 505.50 C 626.83 498.75, 620.32 499.24, 616.50 499.50 Z" fill="rgb(135.42439024390245,125.97212543554006,66.57491289198606)" stroke="rgb(135.42439024390245,125.97212543554006,66.57491289198606)" stroke-width="1" />
<path d="M 346.50 424.50 C 344.17 427.28, 345.01 431.38, 343.50 434.50 C 343.35 440.97, 344.92 445.74, 346.50 450.50 C 347.05 455.04, 351.66 456.49, 352.50 459.50 C 354.86 464.44, 356.49 470.45, 361.50 471.50 C 365.15 477.74, 370.96 477.52, 374.50 482.50 C 378.38 484.28, 384.53 484.54, 385.50 480.50 C 385.50 475.50, 385.50 471.50, 385.50 467.50 C 379.67 463.08, 374.04 460.61, 369.50 455.50 C 365.43 449.94, 362.48 444.92, 360.50 439.50 C 359.40 435.13, 356.94 432.73, 356.50 429.50 C 354.83 425.06, 350.73 424.13, 347.50 424.50 Z" fill="rgb(191.78159931212383,163.78503869303526,76.06792777300086)" stroke="rgb(191.78159931212383,163.78503869303526,76.06792777300086)" stroke-width="1" />
<path d="M 362.50 332.50 C 359.50 333.98, 356.88 336.72, 357.50 340.50 C 355.45 342.65, 358.63 344.43, 357.50 346.50 C 358.86 349.88, 358.86 353.12, 357.50 355.50 C 357.65 361.19, 361.56 364.31, 360.50 369.50 C 366.48 373.46, 364.27 379.81, 368.50 383.50 C 371.74 387.53, 374.73 388.76, 377.50 390.50 C 382.16 389.43, 382.84 395.57, 386.50 394.50 C 388.77 395.51, 392.40 398.21, 391.50 394.50 C 391.96 389.81, 394.27 387.29, 393.50 383.50 C 391.46 381.40, 387.90 380.24, 387.50 377.50 C 384.71 373.55, 381.26 370.87, 379.50 367.50 C 378.62 363.57, 374.92 362.21, 374.50 359.50 C 372.08 354.09, 371.58 350.59, 372.50 345.50 C 371.12 341.91, 368.88 340.09, 368.50 337.50 C 367.24 334.40, 367.12 331.37, 363.50 332.50 Z" fill="rgb(191.55945945945945,163.56666666666666,76.33153153153152)" stroke="rgb(191.55945945945945,163.56666666666666,76.33153153153152)" stroke-width="1" />
<path d="M 186.50 366.50 C 180.28 368.32, 181.99 375.24, 179.50 379.50 C 179.45 385.89, 176.01 389.88, 176.50 395.50 C 173.86 400.04, 172.14 403.96, 169.50 407.50 C 167.95 413.53, 162.52 413.56, 160.50 417.50 C 159.89 421.13, 163.57 427.08, 168.50 426.50 C 172.74 428.40, 174.28 424.89, 175.50 422.50 C 178.90 417.72, 182.10 414.28, 184.50 410.50 C 186.74 405.93, 189.72 402.67, 190.50 398.50 C 191.36 394.83, 193.11 392.95, 193.50 390.50 C 194.79 387.23, 194.54 384.32, 194.50 381.50 C 195.04 378.22, 196.54 375.13, 194.50 373.50 C 192.23 370.31, 191.02 365.93, 187.50 366.50 Z" fill="rgb(253.56720977596743,224.5142566191446,4.992871690427698)" stroke="rgb(253.56720977596743,224.5142566191446,4.992871690427698)" stroke-width="1" />
<path d="M 480.50 249.50 C 479.42 255.19, 486.87 251.34, 480.50 249.50 Z" fill="rgb(240.27272727272728,203.63636363636363,106.36363636363636)" stroke="rgb(240.27272727272728,203.63636363636363,106.36363636363636)" stroke-width="1" />
</svg>