<svg xmlns="http://www.w3.org/2000/svg" width="3081" height="3716" viewbox="0 0 3081 3716">
<path d="M 1.50 1.81 C -1000.45 8944.38, 7415.94 -1206.64, 1.50 1.81 Z" fill="rgb(nan,nan,nan)" stroke="rgb(nan,nan,nan)" stroke-width="1" />
<path d="M 1.50 1.81 C 1.50 38.10, 1.50 74.39, 1.50 110.68 C 1.50 151.81, 1.50 189.31, 1.50 226.81 C 1.50 267.93, 1.50 305.43, 1.50 342.93 C 1.50 384.06, 1.50 421.56, 1.50 459.06 C 1.50 500.18, 1.50 537.68, 1.50 575.18 C 1.50 616.31, 1.50 653.81, 1.50 691.31 C 1.50 732.43, 1.50 769.93, 1.50 807.43 C 1.50 848.56, 1.50 886.06, 1.50 923.56 C 1.50 964.68, 1.50 1002.18, 1.50 1039.68 C 1.50 1080.81, 1.50 1118.31, 1.50 1155.81 C 1.50 1196.93, 1.50 1234.43, 1.50 1271.93 C 1.50 1313.06, 1.50 1350.56, 1.50 1388.06 C 1.50 1429.18, 1.50 1466.68, 1.50 1504.18 C 1.50 1545.31, 1.50 1582.81, 1.50 1620.31 C 1.50 1661.43, 1.50 1698.93, 1.50 1736.43 C 1.50 1777.56, 1.50 1815.06, 1.50 1852.56 C 1.50 1893.68, 1.50 1931.18, 1.50 1968.68 C 1.50 2009.81, 1.50 2047.31, 1.50 2084.81 C 1.50 2125.93, 1.50 2163.43, 1.50 2200.93 C 1.50 2242.06, 1.50 2279.56, 1.50 2317.06 C 1.50 2358.18, 1.50 2395.68, 1.50 2433.18 C 1.50 2474.31, 1.50 2511.81, 1.50 2549.31 C 1.50 2590.43, 1.50 2627.93, 1.50 2665.43 C 1.50 2706.56, 1.50 2744.06, 1.50 2781.56 C 1.50 2822.68, 1.50 2860.18, 1.50 2897.68 C 1.50 2938.81, 1.50 2976.31, 1.50 3013.81 C 1.50 3054.93, 1.50 3092.43, 1.50 3129.93 C 1.50 3171.06, 1.50 3208.56, 1.50 3246.06 C 1.50 3325.89, 1.50 3402.10, 1.50 3478.31 C 1.50 3558.14, 1.50 3634.35, 1.50 3710.56 C 218.14 3714.19, 434.77 3714.19, 651.40 3714.19 C 871.04 3714.19, 1087.68 3714.19, 1304.31 3714.19 C 1602.18 3714.19, 1897.04 3714.19, 2191.90 3714.19 C 2489.77 3714.19, 2784.63 3714.19, 3079.50 3714.19 C 3079.50 3403.31, 3079.50 3096.06, 3079.50 2788.81 C 3079.50 2632.77, 3079.50 2480.36, 3079.50 2327.94 C 3079.50 2286.82, 3079.50 2249.32, 3079.50 2211.82 C 3079.50 2170.69, 3079.50 2133.19, 3079.50 2095.69 C 3079.50 2054.57, 3079.50 2017.07, 3079.50 1979.57 C 3079.50 1938.44, 3079.50 1900.94, 3079.50 1863.44 C 3079.50 1823.53, 3079.50 1787.24, 3079.50 1750.95 C 3079.50 1709.82, 3079.50 1672.32, 3079.50 1634.82 C 3079.50 1593.69, 3079.50 1556.20, 3079.50 1518.70 C 3079.50 1477.57, 3079.50 1440.07, 3079.50 1402.57 C 3079.50 1361.44, 3079.50 1323.95, 3079.50 1286.45 C 3079.50 1245.32, 3079.50 1207.82, 3079.50 1170.32 C 3079.50 1129.19, 3079.50 1091.70, 3079.50 1054.20 C 3079.50 1013.07, 3079.50 975.57, 3079.50 938.07 C 3079.50 898.15, 3079.50 861.87, 3079.50 825.58 C 3079.50 784.45, 3079.50 746.95, 3079.50 709.45 C 3079.50 668.32, 3079.50 630.82, 3079.50 593.33 C 3079.50 552.20, 3079.50 514.70, 3079.50 477.20 C 3079.50 436.07, 3079.50 398.57, 3079.50 361.08 C 3079.50 319.95, 3079.50 282.45, 3079.50 244.95 C 3079.50 203.82, 3079.50 166.32, 3079.50 128.83 C 3079.50 87.70, 3079.50 50.20, 3079.50 12.70 C 3080.66 -5.64, 3060.74 5.08, 3052.42 1.81 C 3019.32 1.81, 2989.23 1.81, 2959.14 1.81 C 2925.04 1.81, 2893.95 1.81, 2862.86 1.81 C 2829.77 1.81, 2799.68 1.81, 2769.59 1.81 C 2735.49 1.81, 2704.40 1.81, 2673.31 1.81 C 2640.21 1.81, 2610.12 1.81, 2580.04 1.81 C 2545.94 1.81, 2514.85 1.81, 2483.76 1.81 C 2449.66 1.81, 2418.56 1.81, 2387.47 1.81 C 2353.37 1.81, 2322.28 1.81, 2291.19 1.81 C 2258.10 1.81, 2228.01 1.81, 2197.92 1.81 C 2163.82 1.81, 2132.73 1.81, 2101.64 1.81 C 2068.54 1.81, 2038.45 1.81, 2008.37 1.81 C 1974.27 1.81, 1943.18 1.81, 1912.09 1.81 C 1878.99 1.81, 1848.90 1.81, 1818.81 1.81 C 1784.71 1.81, 1753.62 1.81, 1722.53 1.81 C 1688.43 1.81, 1657.34 1.81, 1626.25 1.81 C 1592.15 1.81, 1561.06 1.81, 1529.97 1.81 C 1496.87 1.81, 1466.78 1.81, 1436.70 1.81 C 1402.60 1.81, 1371.51 1.81, 1340.42 1.81 C 1307.32 1.81, 1277.23 1.81, 1247.14 1.81 C 1213.04 1.81, 1181.95 1.81, 1150.86 1.81 C 1117.77 1.81, 1087.68 1.81, 1057.59 1.81 C 1023.49 1.81, 992.40 1.81, 961.31 1.81 C 927.21 1.81, 896.12 1.81, 865.03 1.81 C 830.93 1.81, 799.84 1.81, 768.75 1.81 C 735.65 1.81, 705.56 1.81, 675.47 1.81 C 641.37 1.81, 610.28 1.81, 579.19 1.81 C 545.09 1.81, 514.00 1.81, 482.91 1.81 C 448.81 1.81, 417.72 1.81, 386.63 1.81 C 353.53 1.81, 323.44 1.81, 293.36 1.81 C 259.26 1.81, 228.17 1.81, 197.08 1.81 C 162.98 1.81, 131.89 1.81, 100.79 1.81 C 66.69 1.81, 35.60 1.81, 4.51 1.81 Z" fill="rgb(253.18507667675587,252.48590558439668,252.5740138760856)" stroke="rgb(253.18507667675587,252.48590558439668,252.5740138760856)" stroke-width="1" />
<path d="M 3073.48 2356.97 C 3035.75 2376.24, 3000.98 2356.83, 2962.15 2367.86 C 2915.51 2372.26, 2868.87 2368.04, 2829.77 2375.12 C 2805.22 2367.92, 2797.74 2390.73, 2778.62 2386.01 C 2732.94 2390.05, 2687.31 2389.92, 2640.21 2389.63 C 2620.15 2389.63, 2603.10 2389.63, 2586.05 2389.63 C 2558.66 2387.00, 2537.45 2393.63, 2513.84 2393.26 C 2468.95 2391.52, 2431.06 2389.94, 2387.47 2389.63 C 2342.34 2389.63, 2300.22 2389.63, 2258.10 2389.63 C 2253.44 2427.02, 2250.75 2461.76, 2252.08 2498.50 C 2252.08 2538.42, 2252.08 2574.71, 2252.08 2611.00 C 2252.08 2650.92, 2252.08 2687.21, 2252.08 2723.49 C 2252.08 2764.62, 2252.08 2802.12, 2252.08 2839.62 C 2251.93 2898.43, 2250.04 2954.78, 2252.08 3006.55 C 2243.01 3025.51, 2252.17 3056.71, 2249.07 3071.87 C 2186.22 3084.26, 2114.04 3070.65, 2059.52 3086.38 C 2058.21 3121.60, 2051.21 3148.85, 2053.50 3180.74 C 2050.69 3235.11, 2055.61 3287.79, 2056.51 3336.78 C 2058.58 3362.51, 2051.42 3380.00, 2053.50 3402.10 C 2006.69 3413.74, 1957.92 3407.27, 1912.09 3409.36 C 1882.00 3409.36, 1854.92 3409.36, 1827.84 3409.36 C 1788.73 3409.36, 1752.62 3409.36, 1716.51 3409.36 C 1675.56 3416.02, 1641.48 3411.41, 1602.18 3412.99 C 1563.29 3413.26, 1537.46 3408.51, 1502.89 3412.99 C 1486.08 3413.39, 1473.86 3420.32, 1460.77 3412.99 C 1409.49 3418.73, 1366.81 3416.95, 1316.35 3420.24 C 1276.14 3413.20, 1246.28 3420.17, 1208.03 3423.87 C 1186.97 3423.87, 1168.91 3423.87, 1150.86 3423.87 C 1115.53 3421.50, 1085.94 3427.09, 1054.58 3427.50 C 1019.48 3427.50, 987.38 3427.50, 955.29 3427.50 C 936.23 3427.50, 920.19 3427.50, 904.14 3427.50 C 852.48 3422.19, 804.05 3426.93, 759.72 3427.50 C 707.71 3428.09, 663.71 3422.27, 612.29 3423.87 C 575.97 3421.53, 546.41 3430.12, 513.00 3427.50 C 465.86 3427.50, 421.73 3427.50, 377.60 3427.50 C 330.47 3427.50, 286.34 3427.50, 242.21 3427.50 C 221.54 3420.01, 200.59 3434.01, 182.03 3423.87 C 145.49 3425.71, 116.83 3423.74, 82.74 3434.76 C 58.38 3420.49, 36.24 3449.39, 16.55 3431.13 C -9.16 3438.13, 5.77 3477.99, 1.50 3500.08 C 1.50 3537.58, 1.50 3571.45, 1.50 3605.32 C 1.50 3644.03, 1.50 3679.11, 1.50 3714.19 C 35.60 3714.19, 66.69 3714.19, 97.79 3714.19 C 131.89 3714.19, 162.98 3714.19, 194.07 3714.19 C 228.17 3714.19, 259.26 3714.19, 290.35 3714.19 C 324.45 3714.19, 355.54 3714.19, 386.63 3714.19 C 420.73 3714.19, 451.82 3714.19, 482.91 3714.19 C 517.01 3714.19, 548.10 3714.19, 579.19 3714.19 C 613.29 3714.19, 644.38 3714.19, 675.47 3714.19 C 709.57 3714.19, 740.66 3714.19, 771.75 3714.19 C 810.87 3714.19, 846.97 3714.19, 883.08 3714.19 C 923.20 3714.19, 960.31 3714.19, 997.41 3714.19 C 1037.53 3714.19, 1074.64 3714.19, 1111.75 3714.19 C 1151.86 3714.19, 1188.97 3714.19, 1226.08 3714.19 C 1266.20 3714.19, 1303.31 3714.19, 1340.42 3714.19 C 1380.53 3714.19, 1417.64 3714.19, 1454.75 3714.19 C 1494.87 3714.19, 1531.98 3714.19, 1569.08 3714.19 C 1609.20 3714.19, 1646.31 3714.19, 1683.42 3714.19 C 1722.53 3714.19, 1758.64 3714.19, 1794.74 3714.19 C 1834.86 3714.19, 1871.97 3714.19, 1909.08 3714.19 C 1949.19 3714.19, 1986.30 3714.19, 2023.41 3714.19 C 2063.53 3714.19, 2100.64 3714.19, 2137.74 3714.19 C 2177.86 3714.19, 2214.97 3714.19, 2252.08 3714.19 C 2292.20 3714.19, 2329.30 3714.19, 2366.41 3714.19 C 2406.53 3714.19, 2443.64 3714.19, 2480.75 3714.19 C 2520.86 3714.19, 2557.97 3714.19, 2595.08 3714.19 C 2637.20 3714.19, 2676.32 3714.19, 2715.43 3714.19 C 2757.56 3714.19, 2796.67 3714.19, 2835.78 3714.19 C 2877.91 3714.19, 2917.02 3714.19, 2956.14 3714.19 C 2999.26 3714.19, 3039.38 3714.19, 3079.50 3714.19 C 3079.50 3658.54, 3079.50 3606.53, 3079.50 3554.51 C 3079.50 3497.66, 3079.50 3444.44, 3079.50 3391.21 C 3079.50 3335.57, 3079.50 3283.56, 3079.50 3231.54 C 3079.50 3174.69, 3079.50 3121.46, 3079.50 3068.24 C 3079.50 3012.60, 3079.50 2960.58, 3079.50 2908.57 C 3079.50 2851.72, 3079.50 2798.49, 3079.50 2745.27 C 3079.50 2689.62, 3079.50 2637.61, 3079.50 2585.60 C 3079.50 2528.74, 3079.50 2475.52, 3079.50 2422.29 C 3077.54 2399.26, 3083.45 2370.35, 3076.49 2356.97 Z" fill="rgb(255.0,255.0,255.0)" stroke="rgb(255.0,255.0,255.0)" stroke-width="1" />
<path d="M 2288.18 1050.57 C 2203.81 1066.93, 2114.21 1068.07, 2029.43 1083.23 C 2004.32 1145.64, 2005.76 1199.90, 2041.46 1253.79 C 2017.60 1311.52, 2051.94 1379.75, 2068.54 1417.09 C 2219.88 1475.14, 2157.25 1720.24, 2113.67 1852.56 C 2078.11 1906.64, 2023.42 1866.55, 1993.32 1827.15 C 1884.46 1725.47, 1959.87 1490.44, 1797.75 1460.63 C 1739.90 1400.63, 1676.31 1459.99, 1617.22 1478.78 C 1572.97 1498.76, 1526.98 1501.33, 1484.84 1515.07 C 1358.15 1530.93, 1235.90 1525.48, 1111.75 1511.44 C 1052.93 1519.91, 1021.88 1443.60, 976.35 1449.75 C 843.20 1543.91, 751.86 1727.99, 588.22 1729.17 C 468.13 1650.21, 657.54 1627.18, 678.48 1540.47 C 718.81 1466.08, 752.06 1386.53, 804.85 1329.99 C 675.74 1351.16, 567.00 1426.52, 452.82 1486.04 C 334.81 1570.80, 194.91 1679.41, 215.13 1870.70 C 244.92 2027.11, 387.65 2066.22, 491.94 2110.21 C 691.70 2136.55, 903.49 2139.31, 1099.71 2121.10 C 1206.66 2113.28, 1308.95 2100.65, 1412.63 2092.06 C 1467.12 2083.35, 1513.65 2060.23, 1569.08 2063.03 C 1624.21 2053.74, 1676.11 2043.83, 1725.54 2026.74 C 1802.14 2009.00, 1877.52 1996.43, 1945.18 1961.42 C 1992.04 1946.10, 2041.72 1947.74, 2080.58 1917.88 C 2137.54 1900.13, 2187.20 1869.89, 2240.04 1848.93 C 2430.86 1775.83, 2619.72 1646.81, 2733.48 1442.49 C 2772.91 1372.67, 2803.12 1257.80, 2748.53 1188.47 C 2621.55 1065.94, 2455.98 1059.38, 2291.19 1050.57 Z" fill="rgb(181.67866323907455,62.3560411311054,21.88688946015424)" stroke="rgb(181.67866323907455,62.3560411311054,21.88688946015424)" stroke-width="1" />
<path d="M 1514.93 339.30 C 1369.26 574.59, 1076.70 237.54, 1123.78 513.49 C 1137.59 534.88, 1151.57 551.05, 1156.88 571.55 C 1175.59 583.84, 1182.04 607.96, 1195.99 622.36 C 1245.82 801.25, 1094.41 1008.66, 1102.72 1217.50 C 937.92 1238.66, 768.72 1315.04, 702.55 1511.44 C 671.81 1573.06, 624.49 1626.98, 576.18 1649.34 C 528.16 1662.79, 557.96 1721.09, 591.23 1721.92 C 689.90 1711.60, 763.86 1658.10, 825.91 1580.39 C 867.98 1544.10, 901.12 1498.71, 940.25 1471.52 C 976.10 1429.28, 1021.26 1428.32, 1066.62 1431.60 C 1102.95 1436.42, 1069.78 1506.80, 1105.73 1504.18 C 1232.08 1523.44, 1327.72 1545.54, 1430.68 1515.07 C 1480.23 1522.47, 1520.55 1496.84, 1563.07 1504.18 C 1822.59 1275.39, 1946.23 1647.54, 2029.43 1852.56 C 2166.88 1861.79, 2164.20 1609.44, 2140.75 1493.29 C 1991.41 1384.17, 1909.52 1074.39, 2116.68 1003.39 C 1865.61 952.57, 1893.90 287.24, 1517.93 339.30 Z" fill="rgb(170.11653116531164,140.37262872628727,135.54471544715446)" stroke="rgb(170.11653116531164,140.37262872628727,135.54471544715446)" stroke-width="1" />
<path d="M 1517.93 339.30 C 1448.14 345.92, 1379.94 376.34, 1334.40 437.28 C 1287.02 529.26, 1221.11 408.01, 1180.95 375.59 C 936.90 380.56, 1338.91 669.70, 1183.96 800.17 C 1122.53 935.01, 1139.28 1105.28, 1090.69 1242.90 C 953.08 1271.71, 843.93 1261.27, 720.60 1482.41 C 704.44 1543.01, 662.48 1574.90, 633.35 1620.31 C 504.45 1967.36, 1108.65 1159.33, 1090.69 1482.41 C 1219.12 1536.83, 1372.71 1518.21, 1511.92 1500.55 C 1594.90 1487.13, 1670.21 1441.22, 1743.59 1420.72 C 1782.71 1450.23, 1820.85 1470.23, 1857.93 1493.29 C 1877.61 1505.20, 1895.02 1519.54, 1906.07 1540.47 C 1918.79 1554.97, 1914.37 1574.41, 1915.09 1591.28 C 1921.47 1643.40, 1932.75 1689.45, 1942.17 1736.43 C 1952.86 1773.77, 1974.48 1800.52, 1996.33 1827.15 C 2025.73 1854.38, 2062.85 1893.00, 2095.62 1863.44 C 2128.47 1812.27, 2135.00 1753.08, 2146.77 1696.51 C 2157.58 1657.57, 2152.84 1614.49, 2158.81 1576.76 C 2154.12 1516.72, 2135.63 1453.80, 2086.60 1435.23 C 2038.71 1404.75, 2035.61 1336.48, 2017.39 1286.45 C 1935.15 1175.39, 2041.91 1023.84, 2134.74 985.25 C 2039.16 939.98, 1873.84 835.78, 1869.96 655.02 C 1846.04 452.89, 1686.78 329.07, 1520.94 339.30 Z" fill="rgb(91.1975806451613,102.34274193548387,141.33064516129033)" stroke="rgb(91.1975806451613,102.34274193548387,141.33064516129033)" stroke-width="1" />
<path d="M 1505.90 339.30 C 1430.71 352.88, 1352.82 389.41, 1310.33 473.57 C 1249.55 474.83, 1216.00 406.01, 1177.94 361.08 C 1148.94 353.50, 1101.88 348.74, 1090.69 390.11 C 1090.01 454.61, 1120.62 499.85, 1141.84 549.78 C 1168.79 605.07, 1223.21 641.50, 1229.09 702.19 C 1217.54 746.07, 1188.61 777.63, 1177.94 818.32 C 1167.06 845.92, 1160.88 872.25, 1153.87 898.15 C 1141.38 946.52, 1134.25 992.43, 1129.80 1039.68 C 1121.90 1090.05, 1117.19 1138.38, 1108.74 1184.84 C 1103.55 1212.07, 1099.21 1236.10, 1096.70 1261.04 C 1082.59 1325.05, 1073.96 1390.86, 1090.69 1453.38 C 1081.02 1516.16, 1139.67 1502.71, 1171.92 1507.81 C 1200.41 1513.18, 1228.57 1510.76, 1253.16 1518.70 C 1308.38 1519.36, 1360.23 1518.98, 1409.62 1511.44 C 1445.33 1509.59, 1481.43 1517.61, 1508.91 1500.55 C 1544.99 1496.15, 1576.65 1487.64, 1608.20 1478.78 C 1656.97 1450.57, 1707.30 1439.31, 1752.62 1413.46 C 1768.17 1443.29, 1802.65 1446.59, 1824.83 1467.89 C 1867.16 1485.92, 1912.97 1514.85, 1924.12 1569.50 C 1918.93 1624.70, 1932.97 1666.65, 1942.17 1711.03 C 1956.64 1718.95, 1950.21 1744.56, 1957.22 1758.21 C 1976.93 1787.93, 1989.13 1821.10, 2017.39 1834.41 C 2033.11 1866.10, 2067.15 1876.13, 2092.61 1863.44 C 2118.38 1830.80, 2120.22 1787.71, 2134.74 1750.95 C 2145.46 1709.75, 2146.99 1667.59, 2152.79 1627.56 C 2153.81 1586.45, 2151.88 1538.37, 2143.76 1500.55 C 2140.96 1476.51, 2119.93 1479.34, 2116.68 1471.52 C 2090.07 1435.68, 2051.54 1418.76, 2041.46 1369.91 C 2022.22 1333.80, 2026.07 1289.78, 1999.34 1261.04 C 1942.72 1205.54, 2019.88 1146.42, 2014.38 1079.60 C 2257.46 942.40, 1934.42 951.97, 1891.02 760.26 C 1884.27 729.17, 1876.19 702.38, 1872.97 673.16 C 1870.70 656.06, 1864.37 646.13, 1863.94 633.24 C 1849.58 560.87, 1825.35 489.51, 1776.69 444.54 C 1750.21 421.02, 1728.60 395.72, 1701.47 386.48 C 1662.85 361.06, 1624.48 347.31, 1584.13 339.30 C 1557.05 339.30, 1532.98 339.30, 1508.91 339.30 Z" fill="rgb(149.4552875188107,174.1994961010534,223.6676661042455)" stroke="rgb(149.4552875188107,174.1994961010534,223.6676661042455)" stroke-width="1" />
<path d="M 2026.42 1946.91 C 1882.91 1995.32, 1737.74 2038.90, 1587.14 2066.66 C 1440.60 2099.81, 1287.54 2105.19, 1141.84 2131.98 C 1133.85 2280.82, 1167.15 2433.82, 1153.87 2585.60 C 1162.38 2700.92, 1145.09 2806.21, 1123.78 2908.57 C 1109.16 2998.13, 1071.60 3071.11, 1027.50 3140.82 C 995.36 3183.11, 965.36 3230.16, 922.19 3235.17 C 883.09 3227.18, 844.36 3226.84, 813.88 3202.51 C 800.20 3187.37, 776.94 3199.89, 771.75 3180.74 C 736.33 3146.85, 709.97 3099.92, 672.46 3068.24 C 658.92 3040.27, 637.28 3036.96, 618.31 3021.06 C 555.50 3003.86, 583.09 3102.36, 594.24 3137.19 C 623.12 3184.47, 645.08 3230.07, 675.47 3271.46 C 717.72 3315.79, 755.75 3358.23, 807.86 3373.07 C 864.56 3412.80, 933.04 3409.49, 1000.42 3409.36 C 1047.00 3411.14, 1088.45 3406.75, 1129.80 3402.10 C 1213.34 3384.40, 1290.41 3356.62, 1361.48 3311.38 C 1427.57 3267.32, 1491.54 3225.85, 1548.02 3162.59 C 1582.22 3127.89, 1610.75 3093.21, 1638.29 3057.35 C 1675.81 3006.05, 1704.08 2955.25, 1740.58 2908.57 C 1808.39 2806.23, 1865.36 2703.60, 1906.07 2592.85 C 1942.53 2467.73, 1985.02 2350.75, 2005.36 2222.71 C 2018.76 2149.81, 2045.96 2087.43, 2047.48 2012.23 C 2050.01 1987.27, 2059.76 1940.39, 2029.43 1946.91 Z" fill="rgb(85.948,113.65866666666666,172.57066666666665)" stroke="rgb(85.948,113.65866666666666,172.57066666666665)" stroke-width="1" />
<path d="M 786.80 1326.37 C 773.62 1336.65, 755.57 1332.71, 741.67 1340.88 C 700.63 1356.36, 661.74 1369.31, 627.33 1395.31 C 582.08 1413.82, 540.41 1433.99, 500.96 1460.63 C 452.70 1484.69, 410.29 1517.00, 368.58 1551.36 C 345.85 1575.58, 320.53 1591.06, 305.39 1616.68 C 276.17 1635.87, 264.47 1673.70, 245.22 1696.51 C 238.25 1730.21, 216.44 1752.85, 218.14 1787.24 C 207.58 1842.55, 218.32 1898.13, 239.20 1936.02 C 272.95 2009.51, 334.80 2036.08, 389.64 2066.66 C 428.62 2088.62, 468.76 2098.44, 506.98 2113.84 C 534.80 2112.89, 556.77 2120.23, 582.20 2117.47 C 617.64 2123.04, 651.71 2123.84, 684.50 2128.35 C 710.96 2125.53, 730.66 2133.61, 753.70 2131.98 C 785.37 2130.31, 815.47 2135.59, 837.95 2131.98 C 869.04 2131.98, 897.12 2131.98, 925.20 2131.98 C 957.67 2134.78, 983.32 2126.50, 1012.46 2128.35 C 1044.39 2123.05, 1072.60 2119.28, 1102.72 2121.10 C 1130.41 2117.52, 1154.13 2111.17, 1180.95 2113.84 C 1208.77 2109.44, 1234.61 2108.04, 1259.18 2102.95 C 1304.84 2102.06, 1345.55 2095.55, 1388.56 2095.69 C 1404.97 2091.94, 1416.37 2085.96, 1430.68 2088.44 C 1479.14 2080.19, 1518.98 2059.23, 1566.07 2059.40 C 1582.92 2053.47, 1600.38 2058.08, 1614.22 2052.15 C 1630.38 2052.98, 1639.75 2042.81, 1653.33 2044.89 C 1699.07 2032.86, 1741.97 2021.31, 1785.72 2012.23 C 1811.00 2006.81, 1832.29 1998.48, 1854.92 1994.08 C 1899.23 1981.82, 1936.52 1961.47, 1978.28 1954.17 C 1998.70 1939.19, 2022.21 1941.99, 2041.46 1932.39 C 2051.73 1900.03, 2067.87 1915.78, 2092.61 1906.99 C 2090.01 1875.59, 2066.71 1890.49, 2050.49 1877.96 C 2016.95 1863.06, 1996.70 1829.49, 1972.26 1805.38 C 1947.07 1767.82, 1932.87 1729.90, 1924.12 1689.26 C 1918.91 1647.52, 1909.19 1611.66, 1912.09 1569.50 C 1892.99 1501.68, 1831.99 1491.42, 1791.73 1457.01 C 1770.15 1455.89, 1757.39 1437.87, 1740.58 1431.60 C 1644.38 1466.69, 1555.67 1514.84, 1451.74 1518.70 C 1348.01 1524.83, 1260.49 1532.05, 1162.90 1518.70 C 1109.73 1507.64, 1054.75 1510.63, 1015.47 1467.89 C 1007.80 1454.12, 995.78 1434.99, 985.38 1446.12 C 942.68 1467.12, 908.37 1503.81, 874.05 1540.47 C 838.51 1574.22, 804.83 1622.86, 765.74 1645.71 C 731.24 1679.21, 696.38 1702.91, 657.42 1714.66 C 618.21 1730.02, 566.58 1743.29, 546.10 1692.88 C 537.44 1647.82, 582.02 1619.85, 615.30 1627.56 C 652.85 1574.09, 698.57 1526.12, 717.60 1460.63 C 736.14 1423.52, 760.23 1398.43, 774.76 1366.28 C 785.57 1354.01, 821.13 1319.72, 789.81 1326.37 Z" fill="rgb(248.34062739622556,108.17157833297092,21.86694439040022)" stroke="rgb(248.34062739622556,108.17157833297092,21.86694439040022)" stroke-width="1" />
<path d="M 2008.37 1950.54 C 1967.41 1968.45, 1922.33 1974.36, 1882.00 1994.08 C 1829.42 2004.45, 1785.28 2026.99, 1734.57 2030.37 C 1696.49 2037.23, 1665.09 2054.78, 1629.26 2059.40 C 1589.49 2062.34, 1553.05 2066.19, 1517.93 2073.92 C 1477.54 2087.41, 1436.19 2089.38, 1397.58 2099.32 C 1356.26 2102.36, 1320.19 2111.93, 1280.24 2110.21 C 1235.60 2119.39, 1190.18 2117.57, 1147.85 2124.72 C 1132.87 2148.78, 1141.39 2179.44, 1138.83 2204.56 C 1136.43 2251.51, 1143.78 2289.97, 1144.84 2331.57 C 1147.54 2376.78, 1153.24 2415.35, 1156.88 2454.96 C 1157.84 2486.18, 1156.31 2512.53, 1153.87 2538.42 C 1152.21 2596.97, 1163.98 2648.50, 1156.88 2701.72 C 1153.68 2752.52, 1143.37 2794.63, 1138.83 2839.62 C 1127.49 2898.53, 1112.86 2952.17, 1099.71 3006.55 C 1081.81 3042.41, 1069.43 3077.41, 1048.56 3108.16 C 1026.06 3145.13, 1004.11 3180.13, 976.35 3206.14 C 945.36 3236.60, 909.03 3244.87, 877.06 3231.54 C 838.93 3229.96, 813.93 3198.94, 780.78 3191.62 C 766.56 3160.40, 727.92 3149.80, 714.59 3119.04 C 692.73 3088.20, 662.72 3079.38, 645.39 3046.47 C 596.87 3043.13, 678.79 3024.76, 633.35 3024.69 C 603.70 3012.74, 565.65 3053.06, 588.22 3086.38 C 583.39 3123.55, 603.29 3149.79, 624.32 3140.82 C 611.42 3193.57, 658.39 3225.11, 675.47 3264.20 C 716.33 3318.28, 761.14 3357.22, 813.88 3373.07 C 830.74 3390.85, 851.32 3389.03, 868.04 3398.47 C 896.67 3404.11, 919.61 3402.65, 946.26 3409.36 C 971.60 3403.94, 987.49 3412.14, 1009.45 3405.73 C 1047.84 3407.97, 1077.47 3405.11, 1111.75 3402.10 C 1151.54 3394.39, 1189.63 3390.51, 1223.07 3373.07 C 1258.70 3367.12, 1287.69 3350.63, 1316.35 3333.15 C 1336.44 3334.75, 1344.39 3309.78, 1361.48 3311.38 C 1373.98 3307.18, 1381.56 3301.06, 1388.56 3293.23 C 1431.68 3266.40, 1468.47 3233.51, 1505.90 3202.51 C 1554.42 3157.46, 1601.42 3101.29, 1641.29 3050.10 C 1662.73 3020.31, 1684.13 2991.55, 1701.47 2963.00 C 1742.12 2903.08, 1785.63 2848.21, 1812.80 2785.19 C 1849.61 2726.35, 1876.37 2667.63, 1900.05 2607.37 C 1917.76 2561.02, 1930.79 2517.47, 1942.17 2473.10 C 1952.14 2441.41, 1960.45 2412.52, 1966.24 2382.38 C 1987.23 2328.49, 1996.63 2273.95, 2005.36 2219.08 C 2013.57 2177.04, 2024.19 2139.84, 2035.45 2102.95 C 2042.15 2061.96, 2049.55 2024.94, 2047.48 1983.20 C 2060.00 1949.79, 2030.56 1947.11, 2011.38 1950.54 Z" fill="rgb(128.6559595757232,159.32183601010607,220.3956169933331)" stroke="rgb(128.6559595757232,159.32183601010607,220.3956169933331)" stroke-width="1" />
<path d="M 2071.55 1950.54 C 2032.00 2133.11, 1998.95 2328.25, 1942.17 2505.76 C 1891.61 2705.69, 1775.21 2869.89, 1665.36 3031.95 C 1622.88 3099.28, 1560.80 3149.13, 1523.95 3209.77 C 1455.90 3438.76, 1444.14 3389.00, 1707.49 3394.84 C 1737.70 3401.53, 1768.65 3397.31, 1797.75 3398.47 C 1879.62 3396.18, 1961.66 3403.14, 2038.45 3394.84 C 2040.00 3306.51, 2046.80 3225.95, 2044.47 3140.82 C 2022.80 2987.62, 2231.23 3139.60, 2237.03 3024.69 C 2237.03 2722.28, 2237.03 2423.50, 2237.03 2124.72 C 2257.69 1997.82, 2131.98 2000.57, 2074.56 1950.54 Z" fill="rgb(237.41902313624678,238.98200514138819,242.91002570694087)" stroke="rgb(237.41902313624678,238.98200514138819,242.91002570694087)" stroke-width="1" />
<path d="M 2074.56 1950.54 C 2025.12 2163.77, 1985.42 2400.49, 1909.08 2607.37 C 1885.14 2649.69, 1877.65 2696.59, 1851.91 2734.38 C 1819.68 2788.75, 1797.53 2843.02, 1761.65 2890.42 C 1740.38 2920.06, 1724.02 2948.52, 1701.47 2973.89 C 1669.01 3027.25, 1637.23 3074.20, 1599.17 3119.04 C 1580.14 3143.11, 1563.67 3157.84, 1548.02 3173.48 C 1537.96 3206.14, 1573.96 3178.77, 1584.13 3191.62 C 1625.28 3185.49, 1668.76 3187.45, 1710.50 3187.99 C 1738.54 3208.54, 1724.71 3246.24, 1725.54 3282.35 C 1722.21 3321.68, 1725.91 3353.59, 1722.53 3391.21 C 1736.23 3399.25, 1751.93 3392.73, 1764.65 3394.84 C 1779.76 3398.05, 1787.77 3394.86, 1800.76 3398.47 C 1830.85 3398.47, 1857.93 3398.47, 1885.01 3398.47 C 1916.10 3398.47, 1944.18 3398.47, 1972.26 3398.47 C 1998.19 3397.34, 2023.54 3403.26, 2041.46 3387.58 C 2041.46 3344.04, 2041.46 3304.12, 2041.46 3264.20 C 2047.80 3223.32, 2042.96 3180.48, 2044.47 3140.82 C 2046.09 3114.72, 2039.22 3088.01, 2053.50 3071.87 C 2109.61 3064.66, 2166.93 3069.76, 2221.99 3068.24 C 2249.35 3044.21, 2231.61 2985.32, 2237.03 2948.49 C 2236.53 2681.13, 2238.85 2414.87, 2234.03 2157.38 C 2266.39 2014.71, 2147.44 2001.35, 2077.57 1954.17 Z" fill="rgb(243.27410709813154,244.9277663677804,248.753143315133)" stroke="rgb(243.27410709813154,244.9277663677804,248.753143315133)" stroke-width="1" />
<path d="M 2279.16 1050.57 C 2230.91 1060.61, 2179.43 1063.19, 2131.73 1065.08 C 2096.35 1076.17, 2058.68 1071.82, 2026.42 1083.23 C 2020.52 1118.94, 1999.27 1159.91, 2008.37 1184.84 C 2027.03 1207.20, 2046.70 1238.82, 2038.45 1268.30 C 2024.51 1323.15, 2047.53 1369.66, 2068.54 1409.83 C 2107.73 1442.31, 2157.90 1472.56, 2158.81 1533.21 C 2168.79 1593.57, 2163.33 1654.67, 2152.79 1707.40 C 2151.45 1734.64, 2139.41 1752.90, 2137.74 1776.35 C 2131.50 1820.46, 2110.56 1852.09, 2092.61 1885.22 C 2100.38 1917.60, 2129.57 1896.01, 2143.76 1892.47 C 2174.65 1883.20, 2195.49 1857.07, 2225.00 1856.19 C 2265.30 1840.29, 2300.21 1821.09, 2336.32 1805.38 C 2354.47 1793.54, 2369.33 1784.56, 2384.47 1776.35 C 2408.54 1765.48, 2428.48 1751.31, 2450.66 1743.69 C 2500.10 1711.68, 2544.24 1676.63, 2586.05 1634.82 C 2615.89 1604.94, 2638.06 1571.29, 2664.28 1544.10 C 2702.88 1495.15, 2736.67 1443.80, 2757.56 1388.06 C 2766.13 1357.09, 2777.69 1332.75, 2781.63 1304.59 C 2779.99 1251.05, 2771.00 1200.40, 2736.49 1170.32 C 2720.15 1157.88, 2707.28 1147.73, 2694.37 1137.66 C 2651.80 1109.13, 2608.23 1092.28, 2561.98 1083.23 C 2535.43 1074.43, 2510.67 1072.81, 2486.76 1068.71 C 2452.63 1064.47, 2424.24 1055.89, 2393.49 1054.20 C 2356.23 1047.59, 2318.31 1051.67, 2282.17 1050.57 Z" fill="rgb(242.896120559525,82.87322632585287,13.323085438261044)" stroke="rgb(242.896120559525,82.87322632585287,13.323085438261044)" stroke-width="1" />
<path d="M 2375.44 332.04 C 2129.01 307.09, 2291.98 690.20, 2243.05 883.64 C 2243.05 913.88, 2243.05 940.49, 2243.05 967.10 C 2199.87 997.58, 2152.51 1017.49, 2113.67 1039.68 C 2162.73 1037.23, 2205.14 1058.75, 2249.07 1046.94 C 2362.71 1033.33, 2471.33 1054.61, 2574.02 1075.97 C 2649.13 1092.54, 2713.20 1144.93, 2775.61 1181.21 C 2772.02 978.36, 2773.45 815.94, 2778.62 644.13 C 2760.10 529.58, 2843.09 314.19, 2697.38 335.67 C 2582.32 327.33, 2491.35 340.72, 2378.45 332.04 Z" fill="rgb(246.2437888198758,218.63664596273293,206.6583850931677)" stroke="rgb(246.2437888198758,218.63664596273293,206.6583850931677)" stroke-width="1" />
<path d="M 2778.62 1355.40 C 2711.87 1539.30, 2561.08 1697.68, 2411.54 1772.72 C 2302.20 1841.68, 2183.32 1874.12, 2074.56 1936.02 C 2127.94 1978.72, 2188.38 1997.19, 2240.04 2041.26 C 2242.49 2158.79, 2247.24 2249.56, 2246.06 2360.60 C 2287.65 2388.54, 2351.88 2368.66, 2402.52 2375.12 C 2530.91 2367.98, 2667.99 2389.34, 2781.63 2364.23 C 2779.62 2027.24, 2785.63 1689.88, 2778.62 1359.03 Z" fill="rgb(240.38095238095238,224.47619047619048,219.0952380952381)" stroke="rgb(240.38095238095238,224.47619047619048,219.0952380952381)" stroke-width="1" />
<path d="M 2778.62 1384.43 C 2655.65 1651.55, 2501.34 1730.08, 2273.14 1848.93 C 2204.21 1868.79, 2143.37 1903.44, 2080.58 1932.39 C 2114.74 1975.89, 2192.97 1997.66, 2243.05 2041.26 C 2241.26 2145.48, 2248.31 2241.64, 2246.06 2342.46 C 2238.80 2390.68, 2284.33 2376.02, 2303.23 2375.12 C 2458.61 2376.65, 2622.35 2374.37, 2778.62 2367.86 C 2779.34 2038.07, 2786.10 1707.81, 2778.62 1388.06 Z" fill="rgb(238.99348534201954,224.0260586319218,219.4885993485342)" stroke="rgb(238.99348534201954,224.0260586319218,219.4885993485342)" stroke-width="1" />
<path d="M 2327.30 332.04 C 2304.20 349.32, 2245.77 312.32, 2246.06 357.45 C 2246.06 414.30, 2246.06 467.52, 2246.06 520.75 C 2246.06 577.60, 2246.06 630.82, 2246.06 684.05 C 2246.06 740.90, 2246.06 794.13, 2246.06 847.35 C 2246.06 904.20, 2246.06 957.43, 2246.06 1010.65 C 2239.53 1069.01, 2304.66 1032.57, 2327.30 1039.68 C 2360.76 1045.17, 2394.66 1040.63, 2423.58 1050.57 C 2457.95 1054.63, 2488.50 1061.03, 2519.86 1065.08 C 2568.06 1072.39, 2610.98 1086.29, 2652.25 1105.00 C 2684.09 1120.96, 2710.38 1144.33, 2739.50 1159.44 C 2755.87 1152.56, 2745.01 1116.49, 2748.53 1097.74 C 2745.59 1039.64, 2742.33 973.37, 2748.53 912.67 C 2745.09 806.45, 2750.17 701.96, 2748.53 586.07 C 2748.29 501.74, 2749.21 415.24, 2748.53 335.67 C 2710.78 330.51, 2673.75 337.76, 2637.20 335.67 C 2614.14 335.67, 2594.08 335.67, 2574.02 335.67 C 2531.61 337.26, 2499.70 331.27, 2462.69 335.67 C 2445.68 342.92, 2427.43 328.02, 2414.55 335.67 C 2385.81 323.71, 2354.88 341.23, 2330.31 332.04 Z" fill="rgb(246.37386793282334,213.1253846830212,203.76335765995486)" stroke="rgb(246.37386793282334,213.1253846830212,203.76335765995486)" stroke-width="1" />
<path d="M 2065.53 1950.54 C 2060.87 1960.60, 2057.37 1971.24, 2056.51 1983.20 C 2052.12 2049.62, 2046.11 2113.12, 2023.41 2168.27 C 2011.78 2198.13, 2014.49 2231.52, 2005.36 2258.99 C 2004.05 2281.62, 1998.24 2298.36, 1996.33 2317.06 C 1982.88 2370.87, 1965.74 2417.71, 1951.20 2465.84 C 1942.47 2507.62, 1929.84 2543.82, 1921.11 2581.97 C 1899.02 2635.68, 1879.29 2685.44, 1857.93 2734.38 C 1825.12 2788.81, 1911.03 2730.85, 1927.13 2756.15 C 1965.81 2744.25, 1976.54 2757.88, 2011.38 2748.90 C 2024.37 2765.55, 2031.16 2778.91, 2044.47 2788.81 C 2044.66 2834.19, 2043.49 2878.11, 2047.48 2919.46 C 2054.35 2967.57, 2041.05 3025.72, 2059.52 3068.24 C 2102.48 3066.56, 2144.90 3072.05, 2182.88 3064.61 C 2204.58 3063.72, 2220.59 3073.78, 2234.03 3053.72 C 2237.03 2993.24, 2237.03 2932.76, 2237.03 2872.28 C 2237.03 2806.96, 2237.03 2745.27, 2237.03 2683.58 C 2237.03 2619.47, 2237.03 2558.98, 2237.03 2498.50 C 2237.04 2429.86, 2237.32 2373.81, 2237.03 2309.80 C 2237.03 2278.35, 2237.03 2250.53, 2237.03 2222.71 C 2233.30 2171.73, 2236.55 2126.95, 2234.03 2081.18 C 2231.29 2066.97, 2242.82 2057.26, 2234.03 2048.52 C 2180.77 2007.88, 2125.35 1977.20, 2068.54 1950.54 Z" fill="rgb(244.27251058233674,245.7633255250072,248.38174495541034)" stroke="rgb(244.27251058233674,245.7633255250072,248.38174495541034)" stroke-width="1" />
<path d="M 2580.04 1652.97 C 2542.06 1686.51, 2504.10 1720.13, 2462.69 1743.69 C 2414.43 1771.14, 2368.53 1793.11, 2324.29 1819.90 C 2304.31 1832.72, 2284.39 1836.95, 2267.12 1848.93 C 2232.06 1859.43, 2200.68 1871.88, 2170.84 1888.85 C 2134.74 1902.88, 2103.54 1918.77, 2071.55 1932.39 C 2083.66 1951.57, 2122.37 1965.46, 2143.76 1983.20 C 2173.36 2000.34, 2202.28 2010.72, 2228.01 2030.37 C 2252.29 2043.15, 2239.66 2077.78, 2243.05 2099.32 C 2241.06 2169.77, 2248.19 2232.02, 2246.06 2298.91 C 2247.54 2326.50, 2242.78 2353.57, 2249.07 2375.12 C 2293.20 2375.12, 2334.32 2375.12, 2375.44 2375.12 C 2427.59 2375.12, 2476.73 2375.12, 2525.88 2375.12 C 2547.76 2373.39, 2569.16 2379.00, 2586.05 2371.49 C 2586.05 2314.64, 2586.05 2261.41, 2586.05 2208.19 C 2586.05 2151.34, 2586.05 2098.11, 2586.05 2044.89 C 2586.05 1988.04, 2586.05 1934.81, 2586.05 1881.59 C 2586.05 1824.74, 2586.05 1771.51, 2586.05 1718.29 C 2584.09 1695.25, 2590.00 1666.35, 2583.05 1652.97 Z" fill="rgb(239.71436773360125,219.87502990287547,213.32386010238744)" stroke="rgb(239.71436773360125,219.87502990287547,213.32386010238744)" stroke-width="1" />
<path d="M 747.68 2552.94 C 673.72 2649.21, 510.39 2672.92, 528.04 2835.99 C 530.22 2861.02, 547.57 2888.03, 528.04 2904.94 C 450.57 2834.42, 326.11 2852.04, 254.24 2915.83 C 203.02 2994.46, 205.64 3111.93, 206.10 3209.77 C 259.83 3216.92, 313.89 3213.82, 365.57 3209.77 C 435.81 3192.31, 534.01 3228.74, 567.16 3137.19 C 586.87 3086.25, 553.11 2975.28, 627.33 3021.06 C 814.15 3047.87, 902.64 2679.63, 750.69 2556.56 Z" fill="rgb(110.6094674556213,139.10650887573965,201.79881656804733)" stroke="rgb(110.6094674556213,139.10650887573965,201.79881656804733)" stroke-width="1" />
<path d="M 672.46 1025.17 C 665.67 1032.89, 654.18 1026.91, 645.39 1028.79 C 635.36 1028.79, 628.34 1028.79, 621.31 1028.79 C 564.15 1028.79, 509.99 1028.79, 455.83 1028.79 C 276.46 1029.74, 405.96 1358.81, 368.58 1500.55 C 362.25 1563.78, 407.80 1502.55, 428.75 1493.29 C 624.28 1369.61, 831.56 1292.54, 1039.54 1217.50 C 1106.48 1147.35, 922.11 1103.27, 919.19 1028.79 C 844.19 1030.05, 767.53 1026.68, 702.55 1028.79 C 691.72 1027.01, 681.31 1032.75, 675.47 1025.17 Z" fill="rgb(214.66037735849056,204.64150943396226,206.0)" stroke="rgb(214.66037735849056,204.64150943396226,206.0)" stroke-width="1" />
<path d="M 380.61 1028.79 C 352.98 1157.95, 376.27 1321.62, 368.58 1464.26 C 352.14 1566.42, 412.38 1505.61, 449.81 1478.78 C 563.57 1417.33, 671.32 1350.78, 789.81 1315.48 C 877.79 1270.83, 965.95 1235.47, 1057.59 1210.24 C 1058.74 1121.78, 948.33 1121.70, 931.22 1050.57 C 754.85 1008.23, 559.24 1041.67, 383.62 1028.79 Z" fill="rgb(251.32432432432432,230.59459459459458,219.40540540540542)" stroke="rgb(251.32432432432432,230.59459459459458,219.40540540540542)" stroke-width="1" />
<path d="M 479.90 1025.17 C 445.66 1035.94, 402.82 1021.65, 368.58 1032.42 C 368.58 1075.97, 368.58 1115.89, 368.58 1155.81 C 368.58 1199.35, 368.58 1239.27, 368.58 1279.19 C 368.58 1322.74, 368.58 1362.65, 368.58 1402.57 C 368.58 1447.33, 368.58 1488.46, 368.58 1529.58 C 400.43 1521.92, 425.10 1489.70, 455.83 1475.15 C 489.25 1459.64, 516.25 1437.85, 546.10 1424.35 C 594.70 1399.10, 641.09 1379.77, 684.50 1351.77 C 725.39 1340.70, 760.68 1322.11, 798.83 1311.85 C 823.06 1298.79, 805.54 1264.85, 810.87 1232.01 C 810.38 1160.02, 811.70 1089.44, 810.87 1028.79 C 756.55 1030.97, 708.91 1022.46, 657.42 1025.17 C 609.66 1024.32, 573.85 1027.41, 534.06 1025.17 C 512.85 1023.71, 498.37 1031.26, 482.91 1025.17 Z" fill="rgb(252.64463601532566,226.14610472541506,212.3904853128991)" stroke="rgb(252.64463601532566,226.14610472541506,212.3904853128991)" stroke-width="1" />
<path d="M 2778.62 1366.28 C 2735.36 1475.12, 2660.89 1568.32, 2595.08 1645.71 C 2593.37 1688.35, 2591.30 1723.60, 2595.08 1761.83 C 2589.75 1779.22, 2596.70 1788.35, 2595.08 1801.75 C 2595.83 1843.38, 2588.62 1877.09, 2595.08 1914.25 C 2593.74 1964.72, 2594.09 2006.00, 2592.07 2052.15 C 2592.76 2079.70, 2594.00 2096.80, 2595.08 2121.10 C 2595.57 2179.69, 2594.40 2241.58, 2595.08 2291.65 C 2593.35 2320.07, 2587.93 2350.84, 2595.08 2375.12 C 2627.17 2375.12, 2656.26 2375.12, 2685.34 2375.12 C 2718.44 2375.12, 2748.53 2375.12, 2778.62 2375.12 C 2781.63 2331.57, 2781.63 2291.65, 2781.63 2251.74 C 2781.63 2206.98, 2781.63 2165.85, 2781.63 2124.72 C 2781.63 2081.18, 2781.63 2041.26, 2781.63 2001.34 C 2781.63 1956.59, 2781.63 1915.46, 2781.63 1874.33 C 2782.63 1824.74, 2779.03 1776.47, 2784.63 1732.80 C 2777.93 1617.09, 2786.63 1489.34, 2778.62 1369.91 Z" fill="rgb(243.98456977804804,238.7261325630891,235.6508817269687)" stroke="rgb(243.98456977804804,238.7261325630891,235.6508817269687)" stroke-width="1" />
<path d="M 1126.79 2139.24 C 1066.53 2197.14, 1009.23 2262.31, 955.29 2331.57 C 955.80 2396.43, 964.32 2453.66, 961.31 2516.65 C 961.20 2552.53, 960.99 2576.72, 973.34 2603.74 C 986.40 2635.80, 990.30 2668.81, 994.40 2701.72 C 991.79 2733.37, 991.65 2762.62, 985.38 2788.81 C 984.91 2851.24, 964.73 2900.18, 943.26 2948.49 C 934.84 2980.83, 914.23 3001.95, 904.14 3028.32 C 925.12 3086.02, 951.87 3251.62, 1009.45 3151.71 C 1041.72 3104.91, 1066.95 3059.73, 1090.69 3013.81 C 1103.43 2949.05, 1126.11 2892.88, 1132.81 2828.73 C 1140.22 2814.50, 1131.81 2795.99, 1138.83 2785.19 C 1151.94 2720.78, 1154.49 2647.74, 1147.85 2581.97 C 1145.53 2536.76, 1151.86 2499.50, 1150.86 2458.58 C 1143.21 2392.87, 1142.03 2327.55, 1132.81 2266.25 C 1130.86 2223.18, 1136.75 2179.82, 1129.80 2142.87 Z" fill="rgb(228.25414364640883,230.57872928176795,236.45580110497238)" stroke="rgb(228.25414364640883,230.57872928176795,236.45580110497238)" stroke-width="1" />
<path d="M 1117.77 2150.13 C 1089.77 2173.58, 1065.17 2206.90, 1039.54 2237.22 C 1011.83 2271.53, 981.90 2297.09, 961.31 2331.57 C 962.73 2371.28, 958.11 2410.38, 964.32 2444.07 C 964.32 2485.20, 964.32 2522.69, 964.32 2560.19 C 984.55 2602.57, 986.90 2650.24, 1003.43 2690.83 C 1001.54 2709.74, 999.16 2724.78, 1000.42 2741.64 C 985.13 2780.35, 992.29 2826.64, 976.35 2861.39 C 980.45 2894.74, 952.80 2917.67, 958.30 2948.49 C 931.75 2974.69, 924.09 3010.75, 904.14 3035.58 C 928.87 3086.94, 934.91 3154.73, 967.33 3191.62 C 1007.30 3160.07, 1027.14 3117.26, 1054.58 3075.50 C 1069.50 3042.81, 1084.90 3017.02, 1096.70 2984.78 C 1102.18 2928.77, 1124.09 2884.62, 1129.80 2832.36 C 1131.80 2777.13, 1151.99 2734.61, 1147.85 2679.95 C 1150.16 2637.69, 1146.47 2595.38, 1147.85 2552.94 C 1147.85 2508.18, 1147.85 2467.05, 1147.85 2425.92 C 1141.17 2409.62, 1144.93 2391.72, 1138.83 2378.75 C 1137.04 2324.66, 1126.56 2270.68, 1129.80 2222.71 C 1120.54 2200.43, 1135.30 2159.19, 1120.77 2150.13 Z" fill="rgb(234.83496207701285,237.08809801633606,242.0046674445741)" stroke="rgb(234.83496207701285,237.08809801633606,242.0046674445741)" stroke-width="1" />
<path d="M 284.33 2015.86 C 278.69 2106.91, 261.16 2229.34, 356.54 2240.85 C 531.04 2346.82, 747.55 2324.01, 949.27 2327.94 C 1002.70 2259.75, 1064.34 2205.63, 1111.75 2135.61 C 1075.97 2127.68, 1038.22 2132.62, 1006.44 2139.24 C 872.40 2146.70, 744.07 2142.72, 612.29 2131.98 C 488.77 2131.68, 384.48 2084.18, 287.34 2015.86 Z" fill="rgb(236.45833333333334,179.80555555555554,165.95833333333334)" stroke="rgb(236.45833333333334,179.80555555555554,165.95833333333334)" stroke-width="1" />
<path d="M 284.33 2019.49 C 282.36 2068.60, 288.30 2121.66, 281.32 2168.27 C 284.97 2212.52, 322.66 2221.11, 347.52 2237.22 C 363.35 2249.23, 378.86 2253.41, 392.65 2262.62 C 432.55 2280.68, 468.56 2301.32, 509.99 2306.17 C 557.82 2311.92, 602.77 2317.29, 648.39 2320.69 C 669.10 2320.00, 684.15 2327.03, 702.55 2324.31 C 729.73 2322.31, 750.33 2330.71, 774.76 2327.94 C 789.81 2327.94, 801.84 2327.94, 813.88 2327.94 C 853.88 2324.18, 895.26 2329.59, 934.23 2327.94 C 963.23 2327.32, 975.22 2287.67, 994.40 2273.51 C 1023.24 2243.13, 1043.25 2215.14, 1069.62 2190.04 C 1089.98 2169.67, 1130.09 2122.86, 1081.66 2131.98 C 1052.32 2130.73, 1027.62 2134.25, 1003.43 2139.24 C 971.16 2139.95, 943.44 2145.12, 913.17 2142.87 C 881.23 2144.54, 849.85 2139.06, 822.90 2146.50 C 771.23 2141.46, 722.02 2138.04, 672.46 2135.61 C 617.08 2131.42, 565.00 2126.38, 513.00 2121.10 C 480.79 2114.67, 450.84 2110.45, 425.74 2092.06 C 376.35 2071.52, 331.64 2046.09, 287.34 2019.49 Z" fill="rgb(245.31988916256157,207.57543103448276,195.40386391625617)" stroke="rgb(245.31988916256157,207.57543103448276,195.40386391625617)" stroke-width="1" />
<path d="M 1099.71 332.04 C 1077.41 347.25, 1021.22 313.23, 1027.50 364.71 C 1021.75 393.78, 1025.60 424.03, 1024.49 451.80 C 1024.49 511.07, 1024.49 566.71, 1024.49 622.36 C 1022.35 649.33, 1027.66 668.95, 1027.50 691.31 C 1028.28 718.81, 1022.20 739.25, 1024.49 763.88 C 1024.49 830.41, 1024.49 893.32, 1024.49 956.22 C 1020.65 981.88, 1036.31 1029.44, 1006.44 1025.17 C 970.52 1022.66, 907.80 1034.56, 955.29 1075.97 C 1021.01 1097.92, 1103.84 1272.88, 1111.75 1123.15 C 1122.41 1042.63, 1128.82 963.61, 1147.85 890.90 C 1156.24 856.42, 1167.01 828.26, 1177.94 800.17 C 1193.37 754.05, 1248.12 705.71, 1208.03 658.65 C 1169.98 599.95, 1124.67 546.76, 1105.73 480.83 C 1089.62 446.57, 1073.67 401.56, 1093.69 368.33 C 1097.38 338.21, 1126.27 344.40, 1141.84 335.67 C 1155.70 339.27, 1179.51 337.29, 1177.94 361.08 C 1375.37 480.58, 1353.06 411.16, 1277.23 332.04 C 1216.69 334.63, 1157.11 333.39, 1102.72 332.04 Z" fill="rgb(249.44870210135971,250.60370828182943,252.2592088998764)" stroke="rgb(249.44870210135971,250.60370828182943,252.2592088998764)" stroke-width="1" />
<path d="M 1981.29 332.04 C 1903.79 354.62, 1722.96 278.43, 1779.70 437.28 C 1823.45 483.18, 1846.01 534.53, 1860.94 589.70 C 1873.74 643.25, 1881.03 695.92, 1894.03 745.74 C 1906.10 788.23, 1937.53 815.92, 1954.21 850.98 C 1969.67 868.10, 1979.83 844.22, 1990.31 840.09 C 2043.99 830.73, 2097.19 759.01, 2074.56 694.94 C 2076.02 631.97, 2082.89 576.84, 2080.58 517.12 C 2080.58 455.43, 2080.58 397.37, 2080.58 339.30 C 2044.56 338.08, 2015.17 330.19, 1984.30 335.67 Z" fill="rgb(241.9517937219731,243.04770802192326,245.05505729945193)" stroke="rgb(241.9517937219731,243.04770802192326,245.05505729945193)" stroke-width="1" />
<path d="M 392.65 2857.76 C 347.74 2864.17, 305.54 2878.47, 266.28 2901.31 C 212.49 2946.58, 216.65 3023.38, 209.11 3090.01 C 200.29 3128.95, 203.78 3170.40, 203.09 3209.77 C 243.04 3216.03, 271.61 3212.76, 311.41 3213.40 C 351.04 3215.40, 382.62 3202.73, 419.73 3206.14 C 450.34 3201.63, 479.80 3206.14, 503.97 3195.25 C 534.29 3191.49, 563.82 3163.38, 570.17 3129.93 C 583.56 3095.30, 569.41 3060.02, 573.17 3024.69 C 569.87 2992.80, 561.72 2966.96, 546.10 2944.86 C 536.95 2922.41, 533.18 2900.43, 513.00 2897.68 C 479.08 2860.99, 436.95 2860.59, 395.66 2857.76 Z" fill="rgb(99.13369596335528,133.04485160797785,209.1066895696154)" stroke="rgb(99.13369596335528,133.04485160797785,209.1066895696154)" stroke-width="1" />
<path d="M 2092.61 332.04 C 2053.20 496.92, 2162.96 791.59, 1981.29 854.61 C 1992.87 918.91, 2090.63 949.83, 2152.79 956.22 C 2186.05 992.83, 2147.36 998.48, 2125.71 1010.65 C 2087.52 1033.77, 2064.55 1048.78, 2110.67 1032.42 C 2152.72 1004.90, 2198.34 994.35, 2237.03 959.85 C 2239.20 844.76, 2244.25 757.58, 2243.05 651.39 C 2238.24 558.10, 2243.66 442.46, 2237.03 335.67 C 2186.97 337.16, 2141.37 334.39, 2095.62 332.04 Z" fill="rgb(230.02662721893492,232.22485207100593,236.6449704142012)" stroke="rgb(230.02662721893492,232.22485207100593,236.6449704142012)" stroke-width="1" />
<path d="M 1060.60 1221.13 C 1016.18 1231.89, 971.36 1241.47, 931.22 1264.67 C 911.23 1270.93, 893.77 1275.77, 877.06 1282.82 C 829.21 1298.86, 799.98 1344.96, 771.75 1388.06 C 738.32 1428.64, 721.51 1472.39, 702.55 1515.07 C 690.02 1548.07, 663.38 1570.39, 648.39 1598.53 C 624.21 1639.19, 591.49 1642.63, 561.14 1652.97 C 534.21 1668.24, 554.27 1705.03, 570.17 1714.66 C 626.44 1731.07, 674.97 1699.75, 720.60 1678.37 C 748.23 1644.82, 786.05 1626.83, 810.87 1598.53 C 853.10 1540.91, 903.50 1500.19, 949.27 1457.01 C 985.22 1423.68, 1037.22 1421.71, 1078.65 1435.23 C 1082.00 1372.92, 1078.11 1312.12, 1093.69 1261.04 C 1099.59 1228.28, 1087.76 1214.01, 1063.61 1221.13 Z" fill="rgb(130.6652201524132,155.14267569856054,206.20544030482642)" stroke="rgb(130.6652201524132,155.14267569856054,206.20544030482642)" stroke-width="1" />
<path d="M 744.68 2552.94 C 705.56 2596.76, 662.43 2628.93, 618.31 2658.17 C 566.73 2683.50, 532.01 2742.73, 525.03 2803.33 C 525.37 2834.70, 535.81 2857.39, 540.08 2883.17 C 541.37 2925.90, 570.47 2961.31, 576.18 3002.92 C 617.49 3004.92, 647.51 3047.05, 687.51 3028.32 C 730.64 3007.35, 768.29 2957.91, 789.81 2912.20 C 810.39 2865.37, 823.19 2819.78, 828.92 2770.67 C 827.52 2737.71, 833.10 2704.89, 822.90 2679.95 C 800.15 2635.33, 783.17 2580.48, 747.68 2552.94 Z" fill="rgb(97.77801471372214,133.49056402601556,209.36965561360486)" stroke="rgb(97.77801471372214,133.49056402601556,209.36965561360486)" stroke-width="1" />
<path d="M 305.39 1025.17 C 274.99 1044.89, 200.31 999.27, 200.08 1057.83 C 200.08 1202.98, 200.08 1344.51, 200.08 1486.04 C 208.57 1555.56, 183.24 1817.84, 224.15 1725.54 C 250.00 1642.47, 320.39 1594.00, 362.56 1533.21 C 357.90 1357.38, 378.83 1177.46, 353.53 1025.17 C 338.22 1028.10, 320.40 1033.16, 308.40 1025.17 Z" fill="rgb(242.63888888888889,232.61111111111111,228.63888888888889)" stroke="rgb(242.63888888888889,232.61111111111111,228.63888888888889)" stroke-width="1" />
<path d="M 254.24 2182.79 C 258.74 2238.45, 256.66 2298.48, 263.27 2356.97 C 262.89 2409.71, 260.16 2452.58, 263.27 2498.50 C 259.98 2528.80, 265.21 2558.83, 263.27 2589.22 C 263.09 2692.71, 264.63 2801.29, 260.26 2894.05 C 294.89 2883.51, 323.59 2864.43, 356.54 2857.76 C 403.57 2842.26, 492.56 2882.03, 452.82 2803.33 C 362.05 2679.28, 416.37 2486.37, 401.67 2327.94 C 401.67 2312.22, 401.67 2300.12, 401.67 2288.03 C 364.82 2243.76, 302.52 2224.61, 257.25 2182.79 Z" fill="rgb(214.9090909090909,221.7396694214876,235.53719008264463)" stroke="rgb(214.9090909090909,221.7396694214876,235.53719008264463)" stroke-width="1" />
<path d="M 263.27 2186.42 C 257.00 2231.98, 266.23 2274.02, 263.27 2324.31 C 263.27 2370.28, 263.27 2412.62, 263.27 2454.96 C 263.27 2500.92, 263.27 2543.26, 263.27 2585.60 C 263.27 2631.56, 263.27 2673.90, 263.27 2716.24 C 263.27 2763.41, 263.27 2806.96, 263.27 2850.51 C 270.52 2867.40, 260.35 2882.55, 266.28 2894.05 C 295.05 2879.33, 320.61 2864.02, 350.52 2861.39 C 374.41 2848.54, 470.32 2857.67, 434.77 2839.62 C 455.40 2794.83, 427.69 2765.95, 410.70 2723.49 C 402.90 2699.48, 400.20 2678.06, 401.67 2654.54 C 401.67 2589.22, 401.67 2527.53, 401.67 2465.84 C 401.67 2400.52, 401.67 2338.83, 401.67 2277.14 C 355.41 2248.97, 309.18 2224.36, 266.28 2190.04 Z" fill="rgb(207.34436473038647,217.2125665355242,239.1783152048137)" stroke="rgb(207.34436473038647,217.2125665355242,239.1783152048137)" stroke-width="1" />
<path d="M 765.74 2552.94 C 785.09 2603.31, 830.76 2653.27, 834.94 2716.24 C 836.97 2740.73, 832.11 2758.16, 831.93 2777.93 C 825.52 2837.17, 810.51 2888.50, 783.79 2933.97 C 755.27 2982.94, 716.39 3024.96, 678.48 3046.47 C 698.10 3072.50, 715.76 3107.34, 738.66 3122.67 C 798.94 3109.06, 836.83 3039.00, 895.11 3028.32 C 913.04 3004.36, 923.06 2981.58, 934.23 2959.37 C 959.75 2902.62, 979.86 2848.30, 982.37 2785.19 C 994.07 2722.97, 989.90 2654.25, 967.33 2603.74 C 956.59 2582.94, 959.27 2556.32, 937.24 2552.94 C 879.07 2552.94, 823.91 2552.94, 768.75 2552.94 Z" fill="rgb(239.0421752265861,243.70006042296072,250.52012084592144)" stroke="rgb(239.0421752265861,243.70006042296072,250.52012084592144)" stroke-width="1" />
<path d="M 209.11 1025.17 C 194.68 1029.96, 201.66 1050.77, 200.08 1065.08 C 200.08 1106.21, 200.08 1143.71, 200.08 1181.21 C 200.08 1223.55, 200.08 1262.25, 200.08 1300.96 C 200.08 1343.30, 200.08 1382.01, 200.08 1420.72 C 200.08 1463.05, 200.08 1501.76, 200.08 1540.47 C 247.54 1549.29, 334.68 1571.48, 365.57 1529.58 C 365.30 1491.75, 365.76 1445.33, 365.57 1406.20 C 365.57 1362.65, 365.57 1322.74, 365.57 1282.82 C 365.65 1240.17, 364.20 1208.75, 365.57 1170.32 C 369.80 1120.31, 359.77 1083.93, 362.56 1032.42 C 314.84 1020.50, 261.90 1027.46, 212.12 1025.17 Z" fill="rgb(245.43054869006426,240.06216015818092,236.9557587740979)" stroke="rgb(245.43054869006426,240.06216015818092,236.9557587740979)" stroke-width="1" />
<path d="M 537.07 3187.99 C 492.64 3218.94, 431.66 3201.73, 380.61 3213.40 C 323.63 3228.41, 247.98 3207.10, 203.09 3231.54 C 203.09 3290.81, 203.09 3346.46, 203.09 3402.10 C 308.38 3425.43, 445.86 3417.08, 543.09 3409.36 C 546.10 3353.71, 546.10 3301.70, 546.10 3249.69 C 543.66 3227.54, 551.85 3198.35, 540.08 3187.99 Z" fill="rgb(217.19230769230768,224.97692307692307,241.37692307692308)" stroke="rgb(217.19230769230768,224.97692307692307,241.37692307692308)" stroke-width="1" />
<path d="M 537.07 3195.25 C 523.03 3205.94, 507.51 3212.32, 488.93 3209.77 C 447.44 3208.33, 412.08 3211.65, 377.60 3213.40 C 359.62 3214.80, 345.59 3218.98, 329.46 3217.03 C 287.03 3218.05, 251.46 3226.65, 212.12 3224.28 C 196.68 3230.77, 205.96 3256.72, 203.09 3271.46 C 205.06 3319.36, 199.14 3367.58, 206.10 3409.36 C 258.52 3419.26, 314.31 3415.73, 368.58 3416.62 C 394.24 3418.92, 418.27 3411.77, 434.77 3416.62 C 468.51 3408.52, 504.29 3415.13, 537.07 3412.99 C 548.77 3361.89, 537.40 3304.41, 546.10 3256.94 C 549.98 3230.67, 540.25 3209.25, 540.08 3195.25 Z" fill="rgb(215.7214676034348,223.4448087431694,239.50523028883686)" stroke="rgb(215.7214676034348,223.4448087431694,239.50523028883686)" stroke-width="1" />
<path d="M 407.69 2280.77 C 409.31 2300.22, 405.84 2317.14, 404.68 2335.20 C 400.90 2383.11, 406.52 2433.60, 404.68 2480.36 C 406.35 2515.11, 401.14 2549.66, 407.69 2578.34 C 406.37 2618.44, 405.34 2647.34, 404.68 2683.58 C 451.27 2696.88, 541.43 2701.32, 564.15 2690.83 C 567.16 2627.93, 567.16 2568.66, 567.16 2509.39 C 567.16 2445.28, 567.16 2384.80, 567.16 2324.31 C 551.33 2314.70, 535.79 2316.65, 522.02 2313.43 C 479.02 2313.88, 447.86 2288.59, 410.70 2280.77 Z" fill="rgb(243.73610169491525,244.815593220339,248.95203389830507)" stroke="rgb(243.73610169491525,244.815593220339,248.95203389830507)" stroke-width="1" />
<path d="M 2158.81 332.04 C 2152.10 346.13, 2157.57 366.30, 2155.80 382.85 C 2155.80 432.44, 2155.80 478.41, 2155.80 524.38 C 2155.80 575.18, 2155.80 622.36, 2155.80 669.53 C 2155.80 719.13, 2155.80 765.09, 2155.80 811.06 C 2155.80 861.87, 2155.80 909.04, 2155.80 956.22 C 2166.98 977.97, 2200.67 957.85, 2218.98 967.10 C 2253.52 967.93, 2240.37 920.88, 2243.05 894.53 C 2243.05 846.14, 2243.05 801.38, 2243.05 756.63 C 2243.05 708.24, 2243.05 663.49, 2243.05 618.73 C 2243.05 570.34, 2243.05 525.59, 2243.05 480.83 C 2243.05 431.24, 2243.05 385.27, 2243.05 339.30 C 2212.59 338.46, 2188.69 330.94, 2161.81 332.04 Z" fill="rgb(231.32398397252433,234.1646632322076,240.99045983590918)" stroke="rgb(231.32398397252433,234.1646632322076,240.99045983590918)" stroke-width="1" />
<path d="M 2089.60 335.67 C 2083.04 346.20, 2088.27 362.62, 2086.60 375.59 C 2086.60 411.88, 2086.60 444.54, 2086.60 477.20 C 2088.14 516.31, 2084.24 554.94, 2086.60 586.07 C 2083.45 647.19, 2086.00 697.69, 2086.60 753.00 C 2055.44 796.25, 2032.01 840.99, 1987.31 847.35 C 1966.78 914.93, 2085.98 947.21, 2140.75 956.22 C 2162.95 945.71, 2148.11 901.09, 2152.79 876.38 C 2152.79 809.85, 2152.79 746.95, 2152.79 684.05 C 2152.79 617.52, 2152.79 554.62, 2152.79 491.72 C 2151.64 443.86, 2155.55 390.94, 2149.78 353.82 C 2151.11 320.76, 2110.26 342.21, 2092.61 335.67 Z" fill="rgb(187.3037942449707,193.2908072319837,207.83167812579578)" stroke="rgb(187.3037942449707,193.2908072319837,207.83167812579578)" stroke-width="1" />
<path d="M 573.17 2317.06 C 566.43 2332.33, 571.97 2353.74, 570.17 2371.49 C 570.17 2424.71, 570.17 2474.31, 570.17 2523.90 C 570.17 2578.34, 570.17 2629.14, 570.17 2679.95 C 605.57 2661.46, 638.73 2641.59, 669.46 2614.63 C 697.21 2593.60, 720.53 2568.44, 744.68 2545.68 C 747.68 2508.18, 747.68 2474.31, 747.68 2440.44 C 749.39 2403.29, 744.08 2366.27, 750.69 2335.20 C 725.32 2331.24, 704.80 2325.54, 681.49 2327.94 C 645.11 2322.21, 609.34 2323.43, 576.18 2317.06 Z" fill="rgb(219.75075926300872,227.22190726867788,241.35351285685363)" stroke="rgb(219.75075926300872,227.22190726867788,241.35351285685363)" stroke-width="1" />
<path d="M 209.11 2124.72 C 195.23 2134.02, 201.50 2160.33, 200.08 2179.16 C 200.08 2237.22, 200.08 2291.65, 200.08 2346.09 C 200.08 2405.36, 200.08 2461.00, 200.08 2516.65 C 200.08 2574.71, 200.08 2629.14, 200.08 2683.58 C 200.08 2742.85, 200.08 2798.49, 200.08 2854.13 C 197.54 2901.86, 198.29 3024.93, 230.17 2937.60 C 272.13 2903.62, 253.33 2852.22, 257.25 2803.33 C 257.25 2738.01, 257.25 2676.32, 257.25 2614.63 C 257.25 2584.39, 257.25 2557.77, 257.25 2531.16 C 259.58 2489.58, 253.13 2456.01, 254.24 2418.67 C 254.24 2378.75, 254.24 2342.46, 254.24 2306.17 C 256.54 2265.82, 250.44 2233.28, 251.23 2197.30 C 264.19 2163.22, 225.46 2149.76, 212.12 2128.35 Z" fill="rgb(236.53729603729604,239.74638694638693,245.34289044289045)" stroke="rgb(236.53729603729604,239.74638694638693,245.34289044289045)" stroke-width="1" />
<path d="M 825.91 1025.17 C 801.58 1024.73, 819.13 1065.90, 813.88 1090.49 C 813.88 1129.19, 813.88 1164.27, 813.88 1199.35 C 814.25 1237.60, 813.35 1278.40, 813.88 1308.22 C 859.26 1282.54, 905.05 1266.81, 949.27 1246.53 C 990.52 1231.87, 1028.97 1217.86, 1069.62 1210.24 C 1070.74 1184.27, 1055.36 1170.26, 1042.55 1155.81 C 1007.58 1123.45, 974.98 1096.61, 940.25 1075.97 C 938.60 1000.38, 869.31 1032.02, 828.92 1025.17 Z" fill="rgb(241.70582684595422,244.96319886765747,249.7791932059448)" stroke="rgb(241.70582684595422,244.96319886765747,249.7791932059448)" stroke-width="1" />
<path d="M 753.70 2331.57 C 747.21 2340.93, 752.31 2356.07, 750.69 2367.86 C 750.69 2387.22, 750.69 2402.94, 750.69 2418.67 C 753.75 2460.69, 752.12 2502.99, 753.70 2542.05 C 773.76 2545.68, 790.81 2545.68, 807.86 2545.68 C 855.90 2547.18, 903.19 2542.11, 946.26 2549.31 C 956.79 2517.63, 949.95 2471.77, 952.28 2433.18 C 954.15 2396.67, 949.87 2366.86, 949.27 2335.20 C 915.20 2332.86, 882.14 2328.33, 852.99 2335.20 C 818.53 2335.04, 786.44 2336.75, 756.71 2331.57 Z" fill="rgb(213.07550461001745,220.96361824071766,239.54248691751806)" stroke="rgb(213.07550461001745,220.96361824071766,239.54248691751806)" stroke-width="1" />
<path d="M 1535.99 3187.99 C 1515.90 3198.14, 1519.50 3232.11, 1523.95 3253.31 C 1524.15 3297.98, 1523.47 3357.38, 1523.95 3398.47 C 1558.05 3398.47, 1589.14 3398.47, 1620.23 3398.47 C 1654.33 3398.47, 1685.42 3398.47, 1716.51 3398.47 C 1716.51 3357.34, 1716.51 3319.84, 1716.51 3282.35 C 1710.36 3248.73, 1734.01 3181.38, 1692.44 3191.62 C 1639.11 3190.94, 1587.50 3193.97, 1539.00 3187.99 Z" fill="rgb(248.8228450555262,247.9153886832364,252.874405076679)" stroke="rgb(248.8228450555262,247.9153886832364,252.874405076679)" stroke-width="1" />
<path d="M 1903.06 785.66 C 1917.61 840.25, 1922.81 899.52, 1933.15 956.22 C 1936.69 1021.65, 1956.08 1075.53, 1966.24 1134.03 C 1969.74 1157.53, 1975.09 1200.96, 1975.27 1202.98 C 2011.19 1170.67, 2003.36 1112.35, 2023.41 1072.34 C 2053.12 1028.82, 2094.79 1032.52, 2122.70 996.13 C 2131.05 984.47, 2150.64 972.38, 2143.76 963.47 C 2082.84 955.35, 2029.72 936.89, 1987.31 887.27 C 1946.42 871.13, 1935.86 819.43, 1906.07 789.29 Z" fill="rgb(23.15105837075048,44.65683130211674,102.25176395125081)" stroke="rgb(23.15105837075048,44.65683130211674,102.25176395125081)" stroke-width="1" />
<path d="M 2754.55 332.04 C 2742.17 340.52, 2751.35 366.34, 2748.53 382.85 C 2748.53 440.91, 2748.53 495.35, 2748.53 549.78 C 2748.53 607.84, 2748.53 662.28, 2748.53 716.71 C 2748.53 774.77, 2748.53 829.21, 2748.53 883.64 C 2748.53 941.70, 2748.53 996.13, 2748.53 1050.57 C 2748.53 1092.91, 2748.53 1131.61, 2748.53 1170.32 C 2758.20 1184.81, 2779.12 1223.22, 2784.63 1195.72 C 2784.63 1142.50, 2784.63 1092.91, 2784.63 1043.31 C 2784.63 990.09, 2784.63 940.49, 2784.63 890.90 C 2784.63 837.67, 2784.63 788.08, 2784.63 738.48 C 2784.63 684.05, 2784.63 633.24, 2784.63 582.44 C 2784.63 542.52, 2784.63 506.23, 2784.63 469.94 C 2784.63 428.82, 2784.63 391.32, 2784.63 353.82 C 2788.17 330.64, 2769.08 331.12, 2757.56 332.04 Z" fill="rgb(254.96539456662356,238.9395213454075,235.3767787839586)" stroke="rgb(254.96539456662356,238.9395213454075,235.3767787839586)" stroke-width="1" />
<path d="M 1505.90 3213.40 C 1475.72 3240.23, 1443.72 3261.78, 1412.63 3285.97 C 1326.33 3343.99, 1238.37 3384.77, 1144.84 3409.36 C 1116.79 3422.42, 1325.86 3391.44, 1403.60 3402.10 C 1440.49 3400.25, 1477.03 3406.15, 1508.91 3398.47 C 1514.99 3346.37, 1520.86 3259.48, 1508.91 3213.40 Z" fill="rgb(219.29577464788733,224.5211267605634,235.56338028169014)" stroke="rgb(219.29577464788733,224.5211267605634,235.56338028169014)" stroke-width="1" />
<path d="M 1508.91 3217.03 C 1507.95 3229.81, 1492.38 3220.90, 1487.85 3231.54 C 1444.96 3263.70, 1406.21 3295.50, 1364.49 3318.63 C 1322.01 3339.38, 1285.50 3365.11, 1244.13 3376.70 C 1214.05 3388.79, 1185.74 3393.68, 1159.89 3405.73 C 1069.53 3413.38, 1170.05 3413.69, 1199.00 3416.62 C 1209.70 3412.52, 1218.73 3415.94, 1223.07 3405.73 C 1257.17 3402.10, 1288.26 3402.10, 1319.35 3402.10 C 1354.46 3402.10, 1386.55 3402.10, 1418.64 3402.10 C 1452.35 3402.66, 1482.79 3402.47, 1511.92 3398.47 C 1513.69 3337.06, 1517.85 3264.04, 1511.92 3217.03 Z" fill="rgb(217.75210237659962,223.23875685557587,234.82486288848264)" stroke="rgb(217.75210237659962,223.23875685557587,234.82486288848264)" stroke-width="1" />
<path d="M 1779.70 332.04 C 1770.52 368.07, 1761.98 436.36, 1797.75 455.43 C 1819.09 455.72, 1838.13 454.48, 1857.93 455.43 C 1901.39 454.38, 1937.94 461.42, 1981.29 459.06 C 2010.45 438.61, 1991.20 378.34, 2002.35 342.93 C 2055.53 338.39, 1968.31 333.04, 1954.21 335.67 C 1920.25 331.32, 1892.14 332.66, 1854.92 332.04 C 1828.84 332.04, 1805.77 332.04, 1782.71 332.04 Z" fill="rgb(241.09812905689193,242.14394807178311,245.3245513554792)" stroke="rgb(241.09812905689193,242.14394807178311,245.3245513554792)" stroke-width="1" />
<path d="M 579.19 3126.30 C 574.40 3150.82, 559.70 3177.67, 573.17 3202.51 C 567.79 3245.37, 558.13 3282.47, 561.14 3325.89 C 556.59 3356.34, 559.28 3378.18, 558.13 3409.36 C 590.86 3421.12, 628.67 3414.44, 663.44 3416.62 C 721.03 3433.21, 685.31 3355.00, 699.54 3318.63 C 668.62 3272.38, 638.95 3229.12, 612.29 3184.37 C 604.59 3160.42, 589.86 3145.13, 582.20 3126.30 Z" fill="rgb(245.8878975950349,246.77618308766486,249.2788983708301)" stroke="rgb(245.8878975950349,246.77618308766486,249.2788983708301)" stroke-width="1" />
<path d="M 1725.54 1435.23 C 1683.10 1452.46, 1640.37 1468.82, 1599.17 1489.67 C 1579.33 1495.13, 1561.68 1498.23, 1545.01 1504.18 C 1497.77 1514.35, 1450.15 1526.46, 1403.60 1518.70 C 1357.23 1527.48, 1311.22 1528.57, 1265.20 1529.58 C 1230.27 1518.40, 1192.57 1524.04, 1159.89 1515.07 C 1135.95 1513.42, 1089.61 1510.51, 1102.72 1547.73 C 1136.18 1548.59, 1163.16 1555.94, 1192.98 1554.99 C 1226.12 1553.17, 1254.32 1556.94, 1283.25 1558.62 C 1334.82 1555.06, 1381.06 1567.29, 1427.67 1558.62 C 1443.43 1551.23, 1459.13 1552.42, 1472.80 1547.73 C 1511.83 1540.21, 1547.28 1531.04, 1584.13 1525.96 C 1627.93 1517.04, 1667.80 1509.07, 1707.49 1500.55 C 1713.52 1477.08, 1721.18 1458.04, 1728.55 1438.86 Z" fill="rgb(251.8009861048857,150.82160466158672,58.109367996414164)" stroke="rgb(251.8009861048857,150.82160466158672,58.109367996414164)" stroke-width="1" />
<path d="M 880.07 3039.21 C 761.33 3081.50, 716.42 3188.01, 865.03 3217.03 C 1004.24 3280.56, 933.77 3092.92, 883.08 3039.21 Z" fill="rgb(217.07766990291262,225.90291262135923,240.25242718446603)" stroke="rgb(217.07766990291262,225.90291262135923,240.25242718446603)" stroke-width="1" />
<path d="M 877.06 3039.21 C 829.69 3059.97, 796.59 3111.04, 747.68 3129.93 C 771.56 3175.93, 820.30 3201.99, 862.02 3217.03 C 891.06 3228.78, 973.49 3244.04, 949.27 3184.37 C 923.41 3137.46, 918.41 3062.19, 880.07 3039.21 Z" fill="rgb(221.2439024390244,227.85365853658536,238.8780487804878)" stroke="rgb(221.2439024390244,227.85365853658536,238.8780487804878)" stroke-width="1" />
<path d="M 880.07 3039.21 C 867.89 3048.97, 851.49 3046.44, 840.96 3060.98 C 812.88 3099.53, 772.36 3105.91, 747.68 3137.19 C 782.66 3178.27, 821.30 3205.05, 865.03 3217.03 C 895.36 3222.07, 973.67 3242.22, 949.27 3184.37 C 935.45 3147.26, 920.12 3114.53, 910.16 3079.13 C 901.04 3063.01, 898.56 3037.01, 883.08 3039.21 Z" fill="rgb(234.21880733944954,238.89266055045871,247.09587155963303)" stroke="rgb(234.21880733944954,238.89266055045871,247.09587155963303)" stroke-width="1" />
<path d="M 2778.62 1348.14 C 2765.03 1396.63, 2743.29 1441.04, 2715.43 1482.41 C 2683.02 1532.74, 2649.15 1572.87, 2613.13 1616.68 C 2637.22 1628.75, 2674.30 1621.54, 2703.40 1623.94 C 2731.77 1619.26, 2769.87 1633.44, 2784.63 1616.68 C 2784.63 1588.86, 2784.63 1564.66, 2784.63 1540.47 C 2783.45 1474.03, 2787.49 1408.61, 2781.63 1348.14 Z" fill="rgb(249.88038740920098,244.4135593220339,242.0179176755448)" stroke="rgb(249.88038740920098,244.4135593220339,242.0179176755448)" stroke-width="1" />
<path d="M 1027.50 1021.54 C 1000.78 1046.43, 924.78 998.12, 934.23 1065.08 C 979.30 1098.68, 1026.27 1126.17, 1060.60 1170.32 C 1079.52 1177.94, 1073.69 1205.46, 1090.69 1202.98 C 1117.39 1166.05, 1108.82 1116.64, 1117.77 1075.97 C 1121.73 1056.54, 1132.92 1007.89, 1105.73 1025.17 C 1078.14 1017.00, 1056.69 1028.73, 1030.51 1021.54 Z" fill="rgb(247.23526315789474,248.88,251.5821052631579)" stroke="rgb(247.23526315789474,248.88,251.5821052631579)" stroke-width="1" />
<path d="M 206.10 1870.70 C 195.53 1943.84, 201.74 2025.36, 200.08 2102.95 C 213.99 2134.69, 243.14 2157.73, 266.28 2175.53 C 298.54 2169.75, 271.04 2095.94, 287.34 2066.66 C 287.75 1987.27, 210.54 1949.86, 209.11 1870.70 Z" fill="rgb(247.832,214.08,199.592)" stroke="rgb(247.832,214.08,199.592)" stroke-width="1" />
<path d="M 410.70 2694.46 C 413.79 2755.04, 477.13 2791.41, 458.84 2854.13 C 491.13 2853.71, 505.97 2887.89, 531.05 2890.42 C 533.59 2851.14, 510.47 2820.33, 522.02 2785.19 C 528.95 2746.60, 588.47 2681.29, 522.02 2694.46 C 483.91 2694.46, 448.81 2694.46, 413.71 2694.46 Z" fill="rgb(234.24740259740258,238.68246753246754,247.92662337662338)" stroke="rgb(234.24740259740258,238.68246753246754,247.92662337662338)" stroke-width="1" />
<path d="M 209.11 1892.47 C 200.16 1961.94, 196.67 2041.64, 203.09 2113.84 C 215.69 2130.37, 232.32 2145.52, 245.22 2157.38 C 292.59 2213.05, 275.16 2115.24, 278.31 2081.18 C 299.16 1997.73, 222.46 1964.34, 209.11 1896.10 Z" fill="rgb(251.8507462686567,235.11194029850745,227.53731343283582)" stroke="rgb(251.8507462686567,235.11194029850745,227.53731343283582)" stroke-width="1" />
<path d="M 305.39 1551.36 C 276.76 1559.73, 242.82 1552.64, 212.12 1554.99 C 186.39 1562.98, 210.80 1605.63, 200.08 1623.94 C 200.08 1665.06, 200.08 1702.56, 200.08 1740.06 C 200.08 1771.99, 200.08 1837.39, 200.08 1841.67 C 202.91 1815.88, 200.76 1792.74, 212.12 1776.35 C 229.42 1689.76, 284.92 1615.85, 341.50 1562.24 C 339.26 1549.08, 317.98 1560.45, 308.40 1551.36 Z" fill="rgb(250.03857566765578,238.83086053412464,236.11424332344214)" stroke="rgb(250.03857566765578,238.83086053412464,236.11424332344214)" stroke-width="1" />
<path d="M 209.11 1892.47 C 202.91 1941.29, 203.12 1986.16, 203.09 2037.63 C 203.09 2061.82, 203.09 2082.39, 203.09 2102.95 C 225.11 2126.13, 249.52 2173.93, 275.30 2168.27 C 277.37 2118.02, 280.21 2063.55, 275.30 2015.86 C 241.34 1987.56, 226.34 1935.71, 209.11 1896.10 Z" fill="rgb(253.48257575757575,241.9409090909091,235.8)" stroke="rgb(253.48257575757575,241.9409090909091,235.8)" stroke-width="1" />
<path d="M 2077.57 767.51 C 2052.34 797.14, 2035.76 843.16, 1996.33 840.09 C 1943.73 869.57, 1996.35 887.09, 2017.39 912.67 C 2039.67 927.57, 2060.14 938.96, 2083.59 941.70 C 2078.62 886.31, 2088.14 818.67, 2080.58 767.51 Z" fill="rgb(205.64057971014492,209.00289855072464,217.2415458937198)" stroke="rgb(205.64057971014492,209.00289855072464,217.2415458937198)" stroke-width="1" />
<path d="M 1195.99 332.04 C 1166.28 364.43, 1225.24 413.21, 1253.16 444.54 C 1303.23 491.97, 1293.34 440.37, 1289.27 393.74 C 1309.17 311.32, 1241.29 334.45, 1199.00 332.04 Z" fill="rgb(243.6858695652174,246.62065217391304,249.85434782608695)" stroke="rgb(243.6858695652174,246.62065217391304,249.85434782608695)" stroke-width="1" />
<path d="M 705.56 3318.63 C 687.55 3388.78, 709.00 3438.13, 774.76 3416.62 C 944.65 3429.00, 764.23 3370.80, 708.57 3322.26 Z" fill="rgb(213.36144578313252,219.25301204819277,232.0)" stroke="rgb(213.36144578313252,219.25301204819277,232.0)" stroke-width="1" />
<path d="M 203.09 1554.99 C 195.34 1584.20, 194.99 1635.43, 233.18 1620.31 C 260.41 1615.61, 286.48 1637.14, 302.38 1605.79 C 312.51 1585.78, 359.34 1565.76, 338.49 1554.99 C 292.35 1554.99, 249.23 1554.99, 206.10 1554.99 Z" fill="rgb(253.02695763799744,242.67394094993583,242.392811296534)" stroke="rgb(253.02695763799744,242.67394094993583,242.392811296534)" stroke-width="1" />
<path d="M 705.56 3318.63 C 701.67 3355.72, 689.41 3437.49, 735.65 3412.99 C 778.72 3416.94, 813.93 3411.93, 862.02 3412.99 C 858.55 3400.70, 840.39 3401.11, 828.92 3394.84 C 784.54 3373.58, 744.49 3352.12, 708.57 3318.63 Z" fill="rgb(210.74657534246575,217.5082191780822,232.05890410958904)" stroke="rgb(210.74657534246575,217.5082191780822,232.05890410958904)" stroke-width="1" />
<path d="M 1614.22 332.04 C 1644.22 353.62, 1724.88 380.30, 1767.66 422.77 C 1805.76 294.00, 1680.96 339.24, 1617.22 332.04 Z" fill="rgb(212.71428571428572,215.28571428571428,221.68571428571428)" stroke="rgb(212.71428571428572,215.28571428571428,221.68571428571428)" stroke-width="1" />
<path d="M 1617.22 332.04 C 1599.12 337.91, 1611.86 336.84, 1623.24 342.93 C 1675.30 361.05, 1723.03 383.03, 1764.65 422.77 C 1763.76 390.26, 1776.71 362.12, 1767.66 335.67 C 1716.51 332.04, 1668.37 332.04, 1620.23 332.04 Z" fill="rgb(201.77433628318585,205.31710914454277,215.42477876106196)" stroke="rgb(201.77433628318585,205.31710914454277,215.42477876106196)" stroke-width="1" />
<path d="M 988.39 1594.90 C 977.64 1635.44, 951.62 1668.33, 919.19 1685.63 C 928.62 1704.94, 954.40 1679.73, 973.34 1682.00 C 1003.33 1671.36, 1060.81 1694.16, 1054.58 1645.71 C 1025.65 1637.87, 1019.02 1592.43, 991.40 1594.90 Z" fill="rgb(252.27316293929712,151.91054313099042,52.757188498402556)" stroke="rgb(252.27316293929712,151.91054313099042,52.757188498402556)" stroke-width="1" />
<path d="M 1292.27 332.04 C 1292.34 367.06, 1289.80 416.04, 1298.29 451.80 C 1304.26 483.44, 1317.89 446.47, 1325.37 437.28 C 1357.77 412.67, 1342.91 369.58, 1346.43 335.67 C 1327.38 332.04, 1311.33 332.04, 1295.28 332.04 Z" fill="rgb(248.91593695271453,252.74255691768826,253.69352014010508)" stroke="rgb(248.91593695271453,252.74255691768826,253.69352014010508)" stroke-width="1" />
<path d="M 1349.44 332.04 C 1322.90 465.43, 1414.30 341.08, 1472.80 339.30 C 1483.75 327.11, 1387.57 333.72, 1352.45 332.04 Z" fill="rgb(175.26315789473685,185.8421052631579,204.94736842105263)" stroke="rgb(175.26315789473685,185.8421052631579,204.94736842105263)" stroke-width="1" />
<path d="M 1352.45 332.04 C 1340.29 346.59, 1346.38 389.57, 1352.45 404.62 C 1383.31 378.75, 1413.80 360.58, 1445.72 346.56 C 1455.85 340.81, 1496.44 335.15, 1469.79 335.67 C 1431.76 328.38, 1392.44 333.62, 1355.46 332.04 Z" fill="rgb(218.01956521739132,223.37173913043478,233.81304347826088)" stroke="rgb(218.01956521739132,223.37173913043478,233.81304347826088)" stroke-width="1" />
<path d="M 1027.50 1431.60 C 982.09 1428.98, 1024.54 1483.71, 1048.56 1486.04 C 1077.19 1510.62, 1084.48 1484.44, 1084.67 1457.01 C 1075.58 1428.67, 1048.54 1438.35, 1030.51 1431.60 Z" fill="rgb(200.8457300275482,187.35537190082644,180.17355371900825)" stroke="rgb(200.8457300275482,187.35537190082644,180.17355371900825)" stroke-width="1" />
</svg>