<svg xmlns="http://www.w3.org/2000/svg" width="3081" height="3716" viewbox="0 0 3081 3716">
<path d="M 1.50 1.81 C -1000.45 8944.38, 7415.94 -1206.64, 1.50 1.81 Z" fill="rgb(nan,nan,nan)" stroke="rgb(nan,nan,nan)" stroke-width="1" />
<path d="M 1.50 1.81 C 1.50 56.25, 1.50 110.68, 1.50 165.12 C 1.50 223.18, 1.50 277.61, 1.50 332.04 C 1.50 390.11, 1.50 444.54, 1.50 498.97 C 1.50 558.25, 1.50 613.89, 1.50 669.53 C 1.50 727.60, 1.50 782.03, 1.50 836.46 C 1.50 894.53, 1.50 948.96, 1.50 1003.39 C 1.50 1061.46, 1.50 1115.89, 1.50 1170.32 C 1.50 1229.59, 1.50 1285.24, 1.50 1340.88 C 1.50 1398.94, 1.50 1453.38, 1.50 1507.81 C 1.50 1565.87, 1.50 1620.31, 1.50 1674.74 C 1.50 1732.80, 1.50 1787.24, 1.50 1841.67 C 1.50 1900.94, 1.50 1956.59, 1.50 2012.23 C 1.50 2070.29, 1.50 2124.72, 1.50 2179.16 C 1.50 2237.22, 1.50 2291.65, 1.50 2346.09 C 1.50 2404.15, 1.50 2458.58, 1.50 2513.02 C 1.50 2572.29, 1.50 2627.93, 1.50 2683.58 C 1.50 2741.64, 1.50 2796.07, 1.50 2850.51 C 1.50 2909.78, 1.50 2965.42, 1.50 3021.06 C 1.50 3080.34, 1.50 3135.98, 1.50 3191.62 C 1.50 3250.90, 1.50 3306.54, 1.50 3362.18 C -28.37 4069.56, 948.57 3558.99, 1373.51 3714.19 C 2039.44 3555.70, 3391.66 4228.59, 3079.50 2894.05 C 3079.50 2652.13, 3079.50 2413.83, 3079.50 2175.53 C 3079.50 2113.84, 3079.50 2055.78, 3079.50 1997.71 C 3079.50 1934.81, 3079.50 1875.54, 3079.50 1816.27 C 3079.50 1753.37, 3079.50 1694.09, 3079.50 1634.82 C 3079.50 1571.92, 3079.50 1512.65, 3079.50 1453.38 C 3079.50 1391.69, 3079.50 1333.62, 3079.50 1275.56 C 3079.50 1212.66, 3079.50 1153.39, 3079.50 1094.12 C 3079.50 1032.42, 3079.50 974.36, 3079.50 916.30 C 3079.50 853.40, 3079.50 794.13, 3079.50 734.85 C 3079.50 673.16, 3079.50 615.10, 3079.50 557.04 C 3079.50 494.14, 3079.50 434.86, 3079.50 375.59 C 3079.50 312.69, 3079.50 253.42, 3079.50 194.15 C 3079.50 131.25, 3079.50 71.97, 3079.50 12.70 C 3080.66 -5.64, 3060.74 5.08, 3052.42 1.81 C 3019.32 1.81, 2989.23 1.81, 2959.14 1.81 C 2925.04 1.81, 2893.95 1.81, 2862.86 1.81 C 2829.77 1.81, 2799.68 1.81, 2769.59 1.81 C 2735.49 1.81, 2704.40 1.81, 2673.31 1.81 C 2640.21 1.81, 2610.12 1.81, 2580.04 1.81 C 2545.94 1.81, 2514.85 1.81, 2483.76 1.81 C 2449.66 1.81, 2418.56 1.81, 2387.47 1.81 C 2353.37 1.81, 2322.28 1.81, 2291.19 1.81 C 2258.10 1.81, 2228.01 1.81, 2197.92 1.81 C 2163.82 1.81, 2132.73 1.81, 2101.64 1.81 C 2068.54 1.81, 2038.45 1.81, 2008.37 1.81 C 1974.27 1.81, 1943.18 1.81, 1912.09 1.81 C 1878.99 1.81, 1848.90 1.81, 1818.81 1.81 C 1784.71 1.81, 1753.62 1.81, 1722.53 1.81 C 1688.43 1.81, 1657.34 1.81, 1626.25 1.81 C 1592.15 1.81, 1561.06 1.81, 1529.97 1.81 C 1496.87 1.81, 1466.78 1.81, 1436.70 1.81 C 1402.60 1.81, 1371.51 1.81, 1340.42 1.81 C 1307.32 1.81, 1277.23 1.81, 1247.14 1.81 C 1213.04 1.81, 1181.95 1.81, 1150.86 1.81 C 1117.77 1.81, 1087.68 1.81, 1057.59 1.81 C 1023.49 1.81, 992.40 1.81, 961.31 1.81 C 927.21 1.81, 896.12 1.81, 865.03 1.81 C 830.93 1.81, 799.84 1.81, 768.75 1.81 C 735.65 1.81, 705.56 1.81, 675.47 1.81 C 641.37 1.81, 610.28 1.81, 579.19 1.81 C 545.09 1.81, 514.00 1.81, 482.91 1.81 C 448.81 1.81, 417.72 1.81, 386.63 1.81 C 353.53 1.81, 323.44 1.81, 293.36 1.81 C 259.26 1.81, 228.17 1.81, 197.08 1.81 C 162.98 1.81, 131.89 1.81, 100.79 1.81 C 66.69 1.81, 35.60 1.81, 4.51 1.81 Z" fill="rgb(253.07308872263414,252.34298803785836,252.4316771228235)" stroke="rgb(253.07308872263414,252.34298803785836,252.4316771228235)" stroke-width="1" />
<path d="M 3073.48 2356.97 C 3035.75 2376.24, 3000.98 2356.83, 2962.15 2367.86 C 2915.51 2372.26, 2868.87 2368.04, 2829.77 2375.12 C 2805.22 2367.92, 2797.74 2390.73, 2778.62 2386.01 C 2732.94 2390.05, 2687.31 2389.92, 2640.21 2389.63 C 2620.15 2389.63, 2603.10 2389.63, 2586.05 2389.63 C 2558.66 2387.00, 2537.45 2393.63, 2513.84 2393.26 C 2468.95 2391.52, 2431.06 2389.94, 2387.47 2389.63 C 2342.34 2389.63, 2300.22 2389.63, 2258.10 2389.63 C 2254.41 2423.87, 2250.54 2454.40, 2252.08 2487.62 C 2252.08 2523.90, 2252.08 2556.56, 2252.08 2589.22 C 2252.08 2625.51, 2252.08 2658.17, 2252.08 2690.83 C 2252.08 2727.12, 2252.08 2759.78, 2252.08 2792.44 C 2252.07 2833.23, 2251.54 2861.53, 2252.08 2897.68 C 2250.73 2933.71, 2250.79 2971.14, 2252.08 3002.92 C 2243.15 3021.70, 2259.74 3071.47, 2240.04 3075.50 C 2219.61 3072.69, 2205.76 3080.31, 2188.89 3079.13 C 2143.83 3080.52, 2099.64 3075.72, 2059.52 3082.76 C 2054.28 3106.55, 2056.60 3130.48, 2053.50 3151.71 C 2054.68 3179.71, 2054.04 3195.89, 2053.50 3220.65 C 2057.31 3240.15, 2054.68 3251.45, 2053.50 3267.83 C 2056.86 3312.57, 2057.07 3352.07, 2053.50 3394.84 C 2039.65 3419.00, 2006.75 3405.42, 1984.30 3409.36 C 1938.16 3409.36, 1895.04 3409.36, 1851.91 3409.36 C 1809.79 3409.36, 1770.67 3409.36, 1731.56 3409.36 C 1712.19 3406.73, 1699.00 3413.33, 1683.42 3412.99 C 1646.33 3412.08, 1611.91 3413.47, 1575.10 3412.99 C 1543.48 3409.51, 1512.56 3410.09, 1481.83 3416.62 C 1442.42 3412.99, 1402.64 3418.68, 1367.49 3416.62 C 1333.30 3426.13, 1296.66 3415.96, 1268.20 3416.62 C 1250.68 3418.37, 1238.84 3414.63, 1226.08 3423.87 C 1195.99 3423.87, 1168.91 3423.87, 1141.84 3423.87 C 1110.48 3421.38, 1085.06 3427.43, 1057.59 3427.50 C 1020.48 3427.50, 986.38 3427.50, 952.28 3427.50 C 913.14 3429.29, 880.45 3421.07, 843.97 3423.87 C 820.84 3422.00, 804.22 3430.30, 783.79 3427.50 C 753.68 3433.34, 722.50 3422.40, 696.53 3427.50 C 667.56 3420.13, 637.22 3425.50, 609.28 3423.87 C 573.09 3421.92, 543.45 3430.28, 509.99 3427.50 C 462.85 3427.50, 418.72 3427.50, 374.59 3427.50 C 327.46 3427.50, 283.33 3427.50, 239.20 3427.50 C 219.42 3419.33, 195.30 3436.94, 179.02 3420.24 C 144.24 3426.38, 115.65 3423.63, 82.74 3434.76 C 59.65 3419.34, 37.50 3450.31, 19.56 3431.13 C 12.29 3443.28, -3.04 3432.49, 1.50 3449.28 C 1.50 3495.24, 1.50 3537.58, 1.50 3579.92 C 1.50 3625.88, 1.50 3668.22, 1.50 3710.56 C 34.60 3714.19, 67.70 3714.19, 100.79 3714.19 C 137.90 3714.19, 172.00 3714.19, 206.10 3714.19 C 243.21 3714.19, 277.31 3714.19, 311.41 3714.19 C 348.52 3714.19, 382.62 3714.19, 416.72 3714.19 C 453.83 3714.19, 487.93 3714.19, 522.02 3714.19 C 559.13 3714.19, 593.23 3714.19, 627.33 3714.19 C 664.44 3714.19, 698.54 3714.19, 732.64 3714.19 C 769.75 3714.19, 803.85 3714.19, 837.95 3714.19 C 876.06 3714.19, 911.16 3714.19, 946.26 3714.19 C 985.38 3714.19, 1021.48 3714.19, 1057.59 3714.19 C 1095.70 3714.19, 1130.80 3714.19, 1165.91 3714.19 C 1205.02 3714.19, 1241.13 3714.19, 1277.23 3714.19 C 1315.34 3714.19, 1350.44 3714.19, 1385.55 3714.19 C 1424.66 3714.19, 1460.77 3714.19, 1496.87 3714.19 C 1534.98 3714.19, 1570.09 3714.19, 1605.19 3714.19 C 1644.30 3714.19, 1680.41 3714.19, 1716.51 3714.19 C 1754.63 3714.19, 1789.73 3714.19, 1824.83 3714.19 C 1863.94 3714.19, 1900.05 3714.19, 1936.16 3714.19 C 1974.27 3714.19, 2009.37 3714.19, 2044.47 3714.19 C 2083.59 3714.19, 2119.69 3714.19, 2155.80 3714.19 C 2193.91 3714.19, 2229.01 3714.19, 2264.11 3714.19 C 2303.23 3714.19, 2339.33 3714.19, 2375.44 3714.19 C 2413.55 3714.19, 2448.65 3714.19, 2483.76 3714.19 C 2522.87 3714.19, 2558.98 3714.19, 2595.08 3714.19 C 2637.20 3714.19, 2676.32 3714.19, 2715.43 3714.19 C 2757.56 3714.19, 2796.67 3714.19, 2835.78 3714.19 C 2877.91 3714.19, 2917.02 3714.19, 2956.14 3714.19 C 2999.26 3714.19, 3039.38 3714.19, 3079.50 3714.19 C 3079.50 3658.54, 3079.50 3606.53, 3079.50 3554.51 C 3079.50 3497.66, 3079.50 3444.44, 3079.50 3391.21 C 3079.50 3335.57, 3079.50 3283.56, 3079.50 3231.54 C 3079.50 3174.69, 3079.50 3121.46, 3079.50 3068.24 C 3079.50 3012.60, 3079.50 2960.58, 3079.50 2908.57 C 3079.50 2851.72, 3079.50 2798.49, 3079.50 2745.27 C 3079.50 2689.62, 3079.50 2637.61, 3079.50 2585.60 C 3079.50 2528.74, 3079.50 2475.52, 3079.50 2422.29 C 3077.54 2399.26, 3083.45 2370.35, 3076.49 2356.97 Z" fill="rgb(254.99996448190944,254.99992304413715,254.9998993654101)" stroke="rgb(254.99996448190944,254.99992304413715,254.9998993654101)" stroke-width="1" />
<path d="M 2288.18 1050.57 C 2182.07 1074.38, 1929.96 1035.29, 2035.45 1235.64 C 2026.85 1304.16, 2040.42 1389.49, 2080.58 1424.35 C 2167.30 1459.13, 2176.73 1581.53, 2155.80 1682.00 C 2143.89 1744.88, 2136.97 1810.68, 2107.66 1856.19 C 2095.69 1875.34, 2076.74 1889.06, 2059.52 1877.96 C 1993.46 1846.77, 1939.56 1772.57, 1927.13 1692.88 C 1916.31 1643.98, 1914.99 1593.95, 1906.07 1547.73 C 1859.13 1486.71, 1784.33 1442.34, 1725.54 1435.23 C 1624.14 1477.36, 1526.31 1521.11, 1412.63 1518.70 C 1274.60 1516.83, 1109.63 1552.36, 1003.43 1449.75 C 910.58 1458.52, 846.72 1597.94, 765.74 1645.71 C 709.88 1703.12, 648.36 1731.68, 576.18 1729.17 C 518.16 1702.86, 551.41 1619.96, 600.25 1627.56 C 660.56 1567.04, 884.88 1263.11, 720.60 1348.14 C 592.40 1407.81, 466.89 1462.97, 356.54 1562.24 C 285.42 1624.02, 217.49 1703.12, 215.13 1812.64 C 205.39 1904.29, 247.88 1982.93, 308.40 2019.49 C 348.95 2048.25, 388.80 2066.68, 428.75 2084.81 C 488.76 2114.43, 552.74 2120.05, 618.31 2121.10 C 765.80 2138.10, 925.80 2137.36, 1066.62 2121.10 C 1132.77 2122.00, 1192.77 2113.71, 1253.16 2106.58 C 1342.98 2097.83, 1432.53 2097.05, 1511.92 2066.66 C 1568.22 2061.53, 1622.31 2058.70, 1671.38 2041.26 C 1726.36 2028.63, 1777.08 2012.37, 1830.85 2004.97 C 1904.31 1984.43, 1968.23 1948.48, 2041.46 1939.65 C 2100.74 1906.30, 2162.83 1889.90, 2218.98 1856.19 C 2283.76 1834.73, 2341.60 1801.80, 2399.51 1769.09 C 2549.28 1696.06, 2686.65 1548.73, 2760.56 1384.43 C 2841.01 1069.78, 2476.77 1059.66, 2291.19 1050.57 Z" fill="rgb(181.96612466124662,62.97831978319783,21.336043360433603)" stroke="rgb(181.96612466124662,62.97831978319783,21.336043360433603)" stroke-width="1" />
<path d="M 1514.93 339.30 C 1314.27 540.25, 935.01 238.04, 1223.07 669.53 C 1198.27 816.69, 1120.19 948.01, 1123.78 1112.26 C 1134.47 1278.47, 980.48 1217.63, 901.13 1279.19 C 815.33 1305.45, 766.17 1389.74, 720.60 1475.15 C 711.71 1482.52, 710.72 1492.30, 705.56 1500.55 C 695.56 1608.24, 516.73 1633.34, 570.17 1707.40 C 625.51 1736.67, 685.60 1696.40, 732.64 1671.11 C 754.22 1647.08, 777.58 1628.48, 804.85 1613.05 C 838.11 1557.18, 889.13 1525.48, 922.19 1482.41 C 947.51 1457.80, 975.82 1443.79, 1003.43 1427.97 C 1032.04 1444.26, 1081.55 1410.35, 1084.67 1457.01 C 1078.74 1535.96, 1164.98 1502.83, 1205.02 1515.07 C 1235.76 1541.21, 1365.29 1538.55, 1382.54 1515.07 C 1451.38 1521.21, 1513.96 1505.56, 1572.09 1500.55 C 1582.22 1486.56, 1604.57 1477.36, 1629.26 1475.15 C 1645.49 1441.78, 1698.04 1460.39, 1713.51 1427.97 C 1987.00 1352.77, 1953.77 2133.30, 2140.75 1714.66 C 2168.64 1606.27, 2166.47 1465.43, 2062.52 1417.09 C 2029.56 1345.48, 2010.31 1276.70, 1975.27 1210.24 C 2003.14 1161.89, 2006.74 1104.31, 2026.42 1054.20 C 2290.72 950.19, 1817.58 911.57, 1869.96 662.28 C 1847.66 459.71, 1687.89 325.55, 1517.93 339.30 Z" fill="rgb(174.15859030837004,141.3237885462555,135.88105726872246)" stroke="rgb(174.15859030837004,141.3237885462555,135.88105726872246)" stroke-width="1" />
<path d="M 1517.93 339.30 C 1368.89 349.23, 1275.69 577.25, 1165.91 361.08 C 958.76 418.11, 1301.08 635.20, 1202.01 763.88 C 1129.12 898.84, 1133.51 1068.77, 1102.72 1221.13 C 980.15 1267.03, 1018.42 1253.94, 955.29 1279.19 C 771.38 1260.82, 739.04 1577.52, 555.12 1671.11 C 765.74 1851.26, 1035.06 1147.04, 1096.70 1496.92 C 1188.66 1514.30, 1281.74 1525.02, 1373.51 1515.07 C 1512.94 1524.37, 1629.30 1460.08, 1743.59 1420.72 C 1773.57 1441.60, 1799.89 1460.75, 1827.84 1475.15 C 1865.44 1489.81, 1901.42 1519.97, 1915.09 1562.24 C 1913.27 1613.34, 1926.25 1653.40, 1933.15 1696.51 C 1941.08 1751.75, 1965.79 1793.48, 1999.34 1830.78 C 2028.61 1856.41, 2068.05 1895.65, 2098.63 1859.81 C 2102.49 1843.22, 2115.83 1836.49, 2116.68 1823.53 C 2128.40 1776.19, 2143.14 1735.50, 2146.77 1689.26 C 2153.34 1653.74, 2157.20 1622.01, 2155.80 1587.65 C 2154.39 1548.85, 2152.17 1512.58, 2137.74 1482.41 C 2115.44 1444.81, 2080.45 1436.98, 2059.52 1409.83 C 2027.12 1344.45, 2024.29 1269.44, 1975.27 1217.50 C 2013.88 1156.25, 2001.88 1054.47, 2071.55 1028.79 C 2101.49 1025.03, 2175.76 958.81, 2113.67 959.85 C 1971.13 937.69, 1877.44 776.36, 1860.94 618.73 C 1826.05 435.46, 1675.90 330.95, 1520.94 339.30 Z" fill="rgb(94.87139107611549,101.2217847769029,136.65748031496062)" stroke="rgb(94.87139107611549,101.2217847769029,136.65748031496062)" stroke-width="1" />
<path d="M 1505.90 339.30 C 1481.23 347.73, 1453.69 347.82, 1430.68 361.08 C 1381.96 382.16, 1335.81 420.48, 1310.33 473.57 C 1248.05 476.15, 1215.94 400.77, 1174.93 361.08 C 1147.03 358.91, 1103.24 346.24, 1093.69 386.48 C 1087.61 423.68, 1099.27 449.89, 1108.74 477.20 C 1127.54 533.14, 1159.78 577.24, 1189.98 622.36 C 1209.85 650.97, 1238.75 678.37, 1226.08 713.08 C 1198.98 768.63, 1171.50 820.35, 1159.89 880.01 C 1141.74 931.39, 1136.46 984.07, 1129.80 1036.05 C 1125.17 1073.74, 1120.89 1107.98, 1114.76 1141.29 C 1106.52 1200.96, 1097.16 1256.43, 1087.68 1311.85 C 1073.04 1371.83, 1087.73 1434.50, 1093.69 1493.29 C 1133.80 1507.64, 1174.24 1508.61, 1214.05 1511.44 C 1257.02 1523.08, 1302.92 1517.39, 1346.43 1518.70 C 1365.16 1509.48, 1387.88 1520.66, 1403.60 1511.44 C 1442.49 1510.08, 1481.17 1516.86, 1511.92 1500.55 C 1557.59 1491.75, 1601.52 1486.63, 1638.29 1460.63 C 1678.67 1445.69, 1716.93 1433.31, 1752.62 1413.46 C 1768.17 1443.29, 1802.65 1446.59, 1824.83 1467.89 C 1841.09 1481.58, 1860.59 1477.09, 1872.97 1493.29 C 1908.78 1518.62, 1931.82 1561.87, 1924.12 1613.05 C 1920.27 1635.33, 1931.95 1646.22, 1930.14 1663.85 C 1947.00 1706.45, 1951.51 1742.54, 1969.25 1783.61 C 1990.71 1791.54, 1988.66 1829.18, 2011.38 1830.78 C 2027.21 1864.35, 2065.27 1877.20, 2092.61 1863.44 C 2118.38 1830.80, 2120.22 1787.71, 2134.74 1750.95 C 2145.46 1709.75, 2146.99 1667.59, 2152.79 1627.56 C 2153.81 1586.45, 2151.88 1538.37, 2143.76 1500.55 C 2140.96 1476.51, 2119.93 1479.34, 2116.68 1471.52 C 2090.07 1435.68, 2051.54 1418.76, 2041.46 1369.91 C 2027.99 1344.81, 2026.87 1317.17, 2017.39 1293.71 C 2000.48 1254.87, 1949.94 1210.34, 1993.32 1173.95 C 1996.68 1066.60, 2067.29 1027.36, 2128.72 977.99 C 2036.09 945.21, 1928.78 873.61, 1888.02 749.37 C 1877.86 701.55, 1866.89 657.76, 1860.94 611.47 C 1849.05 556.79, 1828.15 511.75, 1800.76 469.94 C 1773.84 437.91, 1742.37 412.34, 1713.51 390.11 C 1682.74 372.94, 1654.44 357.34, 1623.24 350.19 C 1585.77 336.44, 1546.75 339.58, 1508.91 339.30 Z" fill="rgb(149.4139283962727,174.1727362934407,223.66925191327257)" stroke="rgb(149.4139283962727,174.1727362934407,223.66925191327257)" stroke-width="1" />
<path d="M 2026.42 1946.91 C 1955.43 1967.61, 1886.01 1992.87, 1815.80 2015.86 C 1625.27 2057.34, 1439.36 2103.52, 1241.13 2113.84 C 1066.09 2086.67, 1169.37 2337.37, 1156.88 2462.21 C 1156.19 2617.16, 1162.43 2775.55, 1120.77 2915.83 C 1103.42 3010.37, 1065.05 3090.78, 1009.45 3162.59 C 981.28 3200.62, 953.79 3237.03, 913.17 3235.17 C 866.30 3232.04, 829.00 3213.45, 792.82 3191.62 C 767.40 3200.75, 775.35 3161.07, 756.71 3162.59 C 745.20 3141.24, 726.14 3140.65, 720.60 3122.67 C 684.01 3075.70, 656.58 3042.10, 615.30 3017.44 C 567.10 3002.51, 577.14 3074.20, 585.21 3104.53 C 586.18 3137.17, 610.23 3153.15, 618.31 3177.11 C 642.85 3218.72, 663.59 3261.08, 693.53 3293.23 C 732.79 3327.90, 767.16 3366.62, 813.88 3373.07 C 866.89 3411.37, 929.42 3409.55, 991.40 3409.36 C 1030.27 3410.38, 1065.30 3408.93, 1099.71 3405.73 C 1129.23 3402.15, 1155.40 3397.57, 1180.95 3391.21 C 1261.72 3369.88, 1332.85 3332.85, 1400.59 3285.97 C 1453.40 3251.38, 1500.82 3213.50, 1545.01 3166.22 C 1600.94 3109.75, 1646.40 3047.64, 1689.44 2984.78 C 1733.00 2915.34, 1785.65 2854.07, 1815.80 2781.56 C 1879.24 2678.91, 1918.95 2569.55, 1948.19 2454.96 C 1990.53 2334.06, 2005.44 2203.10, 2038.45 2081.18 C 2037.19 2037.93, 2073.54 1956.52, 2029.43 1946.91 Z" fill="rgb(86.90736040609137,112.03807106598985,168.39340101522842)" stroke="rgb(86.90736040609137,112.03807106598985,168.39340101522842)" stroke-width="1" />
<path d="M 786.80 1326.37 C 774.82 1337.21, 756.98 1330.99, 744.68 1340.88 C 702.95 1353.14, 665.83 1370.03, 630.34 1391.69 C 594.86 1405.81, 565.16 1424.38, 534.06 1438.86 C 498.26 1463.96, 461.97 1475.21, 431.76 1504.18 C 387.77 1526.77, 354.69 1568.74, 317.43 1598.53 C 302.38 1623.79, 285.55 1631.17, 272.30 1652.97 C 248.07 1690.72, 233.47 1729.50, 218.14 1769.09 C 215.58 1823.93, 205.24 1891.06, 239.20 1925.13 C 250.80 1977.22, 290.88 2011.13, 326.45 2030.37 C 363.27 2056.43, 401.00 2071.03, 437.78 2088.44 C 465.39 2094.84, 486.32 2108.32, 509.99 2113.84 C 536.61 2113.47, 557.81 2120.10, 582.20 2117.47 C 613.10 2120.44, 639.93 2126.50, 669.46 2124.72 C 701.88 2125.69, 728.05 2132.47, 756.71 2131.98 C 778.87 2132.93, 799.60 2129.24, 816.89 2135.61 C 866.96 2132.42, 922.38 2131.68, 973.34 2131.98 C 1015.99 2130.39, 1050.45 2117.32, 1090.69 2121.10 C 1125.58 2120.99, 1153.62 2109.69, 1186.97 2113.84 C 1201.06 2105.74, 1218.00 2114.68, 1229.09 2106.58 C 1276.57 2101.03, 1322.69 2100.28, 1367.49 2095.69 C 1409.60 2091.30, 1447.74 2084.13, 1484.84 2073.92 C 1522.98 2062.12, 1560.76 2058.04, 1599.17 2055.78 C 1631.51 2046.32, 1664.16 2046.52, 1692.44 2034.00 C 1726.22 2025.81, 1757.07 2017.85, 1788.73 2012.23 C 1813.09 2002.90, 1837.20 2001.61, 1857.93 1990.46 C 1909.18 1975.03, 1957.27 1959.15, 2005.36 1943.28 C 2018.07 1935.77, 2031.76 1939.90, 2041.46 1932.39 C 2054.72 1907.02, 2057.44 1908.31, 2083.59 1910.62 C 2096.34 1908.68, 2091.08 1882.55, 2080.58 1885.22 C 2045.82 1876.12, 2011.70 1857.99, 1990.31 1823.53 C 1956.50 1794.66, 1942.81 1752.43, 1930.14 1714.66 C 1920.35 1679.05, 1918.69 1643.00, 1912.09 1609.42 C 1917.85 1563.57, 1900.15 1525.34, 1869.96 1507.81 C 1825.51 1478.01, 1782.53 1456.30, 1740.58 1431.60 C 1585.56 1509.62, 1406.93 1537.09, 1232.10 1525.96 C 1162.94 1511.32, 1088.49 1520.83, 1030.51 1482.41 C 1011.84 1471.98, 1008.26 1445.47, 991.40 1442.49 C 948.62 1462.07, 914.60 1498.38, 880.07 1533.21 C 853.16 1555.63, 831.17 1585.95, 807.86 1613.05 C 757.81 1641.35, 722.11 1699.06, 669.46 1707.40 C 648.33 1715.68, 632.39 1726.66, 612.29 1725.54 C 573.92 1740.07, 521.93 1691.97, 555.12 1649.34 C 576.02 1615.06, 620.59 1644.48, 630.34 1605.79 C 666.10 1566.15, 695.02 1519.83, 714.59 1471.52 C 734.09 1428.23, 759.27 1396.01, 780.78 1359.03 C 788.87 1345.40, 819.83 1320.79, 789.81 1326.37 Z" fill="rgb(248.3275384544955,108.1639466214979,21.87380974180553)" stroke="rgb(248.3275384544955,108.1639466214979,21.87380974180553)" stroke-width="1" />
<path d="M 2008.37 1950.54 C 1967.41 1968.45, 1922.33 1974.36, 1882.00 1994.08 C 1829.42 2004.45, 1785.28 2026.99, 1734.57 2030.37 C 1696.49 2037.23, 1665.09 2054.78, 1629.26 2059.40 C 1589.49 2062.34, 1553.05 2066.19, 1517.93 2073.92 C 1477.54 2087.41, 1436.19 2089.38, 1397.58 2099.32 C 1356.26 2102.36, 1320.19 2111.93, 1280.24 2110.21 C 1235.60 2119.39, 1190.18 2117.57, 1147.85 2124.72 C 1132.13 2156.87, 1141.89 2196.62, 1138.83 2229.96 C 1139.47 2290.92, 1149.53 2343.54, 1150.86 2400.52 C 1158.04 2439.07, 1157.14 2478.01, 1156.88 2516.65 C 1149.66 2575.13, 1163.57 2628.86, 1156.88 2679.95 C 1153.57 2745.91, 1142.25 2804.25, 1135.82 2865.02 C 1121.60 2917.45, 1111.25 2966.68, 1096.70 3013.81 C 1077.85 3047.99, 1068.09 3083.08, 1045.55 3111.79 C 1025.40 3148.28, 1002.46 3180.93, 976.35 3206.14 C 944.16 3238.31, 907.84 3243.51, 874.05 3231.54 C 835.59 3224.41, 802.07 3197.81, 771.75 3184.37 C 747.09 3148.34, 714.93 3130.25, 693.53 3093.64 C 665.21 3086.73, 653.78 3040.87, 630.34 3046.47 C 683.31 3021.67, 586.37 3006.98, 582.20 3057.35 C 588.13 3087.38, 585.69 3143.17, 612.29 3140.82 C 633.82 3137.11, 617.18 3160.43, 621.31 3173.48 C 639.70 3205.97, 656.48 3235.64, 675.47 3264.20 C 709.51 3312.35, 748.59 3342.19, 789.81 3365.81 C 800.35 3373.78, 813.56 3365.24, 819.90 3376.70 C 854.37 3397.29, 889.39 3401.69, 922.19 3405.73 C 960.22 3406.32, 987.71 3408.83, 1024.49 3405.73 C 1042.38 3409.80, 1055.57 3403.90, 1072.63 3405.73 C 1112.06 3401.56, 1158.44 3396.73, 1195.99 3383.96 C 1228.86 3367.05, 1265.73 3370.59, 1292.27 3344.04 C 1320.06 3336.92, 1341.66 3320.54, 1364.49 3307.75 C 1399.04 3286.09, 1431.04 3265.74, 1460.77 3238.80 C 1499.47 3216.41, 1526.25 3179.88, 1557.05 3151.71 C 1591.24 3111.03, 1619.08 3080.01, 1647.31 3042.84 C 1668.42 3005.27, 1695.94 2979.03, 1713.51 2941.23 C 1753.46 2889.22, 1788.92 2840.10, 1812.80 2785.19 C 1849.61 2726.35, 1876.37 2667.63, 1900.05 2607.37 C 1912.11 2581.27, 1915.78 2556.11, 1927.13 2534.79 C 1937.08 2480.02, 1956.50 2433.62, 1966.24 2382.38 C 1979.34 2347.12, 1990.30 2315.93, 1993.32 2280.77 C 2000.84 2242.52, 2007.37 2208.90, 2014.38 2175.53 C 2020.77 2155.65, 2025.39 2138.52, 2029.43 2121.10 C 2040.10 2071.62, 2050.33 2027.04, 2047.48 1975.94 C 2053.25 1943.63, 2028.08 1951.01, 2011.38 1950.54 Z" fill="rgb(128.69058116232466,159.35935203740814,220.43329993319972)" stroke="rgb(128.69058116232466,159.35935203740814,220.43329993319972)" stroke-width="1" />
<path d="M 2071.55 1950.54 C 2003.07 2275.21, 1950.16 2617.06, 1764.65 2886.79 C 1691.03 2995.10, 1618.41 3100.48, 1532.98 3195.25 C 1423.72 3450.51, 1481.64 3383.74, 1752.62 3398.47 C 1820.82 3398.47, 1886.01 3398.47, 1951.20 3398.47 C 1982.55 3390.21, 2044.53 3420.66, 2041.46 3369.44 C 2040.55 3294.69, 2046.78 3227.15, 2044.47 3155.33 C 2021.45 3015.22, 2165.55 3088.55, 2231.02 3064.61 C 2239.03 2726.99, 2239.05 2382.50, 2234.03 2048.52 C 2183.37 2006.16, 2127.89 1981.48, 2074.56 1950.54 Z" fill="rgb(236.7826086956522,238.78804347826087,242.8641304347826)" stroke="rgb(236.7826086956522,238.78804347826087,242.8641304347826)" stroke-width="1" />
<path d="M 2074.56 1950.54 C 2045.41 2000.06, 2058.25 2088.32, 2032.44 2146.50 C 1993.46 2348.42, 1940.54 2538.24, 1863.94 2716.24 C 1824.10 2774.85, 1802.30 2837.35, 1761.65 2890.42 C 1740.17 2922.88, 1718.36 2951.53, 1698.46 2981.15 C 1663.15 3032.11, 1635.00 3078.89, 1596.16 3122.67 C 1577.92 3145.27, 1562.78 3158.67, 1548.02 3173.48 C 1537.38 3205.90, 1572.00 3179.03, 1581.12 3191.62 C 1620.45 3186.23, 1662.41 3186.93, 1701.47 3187.99 C 1729.45 3173.71, 1720.66 3214.82, 1731.56 3227.91 C 1719.78 3282.75, 1728.92 3333.81, 1722.53 3387.58 C 1746.95 3399.40, 1775.90 3391.65, 1797.75 3398.47 C 1833.86 3398.47, 1866.95 3398.47, 1900.05 3398.47 C 1937.16 3398.47, 1971.26 3398.47, 2005.36 3398.47 C 2063.69 3404.67, 2034.11 3318.38, 2041.46 3275.09 C 2044.90 3241.22, 2044.87 3209.26, 2044.47 3177.11 C 2047.01 3141.08, 2038.56 3103.20, 2050.49 3075.50 C 2107.73 3065.02, 2165.85 3069.51, 2221.99 3068.24 C 2249.92 3039.69, 2231.23 2975.43, 2237.03 2933.97 C 2238.07 2632.93, 2236.28 2341.33, 2234.03 2048.52 C 2181.52 2009.85, 2128.96 1983.70, 2077.57 1954.17 Z" fill="rgb(243.27015764635004,244.93367808012852,248.76799879505975)" stroke="rgb(243.27015764635004,244.93367808012852,248.76799879505975)" stroke-width="1" />
<path d="M 2279.16 1050.57 C 2230.91 1060.61, 2179.43 1063.19, 2131.73 1065.08 C 2096.35 1076.17, 2058.68 1071.82, 2026.42 1083.23 C 2021.92 1120.33, 1994.54 1163.56, 2011.38 1188.47 C 2025.60 1209.14, 2038.68 1228.90, 2041.46 1253.79 C 2018.16 1310.68, 2045.99 1370.40, 2071.55 1413.46 C 2117.68 1443.20, 2163.20 1486.85, 2161.81 1551.36 C 2163.30 1580.13, 2168.16 1608.46, 2161.81 1631.19 C 2160.65 1675.95, 2153.45 1714.07, 2143.76 1750.95 C 2135.38 1803.46, 2116.82 1845.75, 2092.61 1885.22 C 2115.15 1924.60, 2159.17 1877.80, 2185.89 1870.70 C 2234.72 1849.74, 2281.40 1834.89, 2324.29 1809.01 C 2369.77 1784.11, 2412.96 1761.33, 2456.68 1740.06 C 2507.26 1707.26, 2551.56 1668.56, 2595.08 1627.56 C 2640.54 1569.62, 2683.81 1525.06, 2718.44 1467.89 C 2733.19 1445.55, 2742.32 1424.04, 2751.54 1402.57 C 2764.72 1368.07, 2775.54 1337.51, 2781.63 1304.59 C 2778.78 1258.17, 2776.05 1215.31, 2748.53 1184.84 C 2711.24 1146.36, 2670.24 1122.32, 2628.18 1101.37 C 2587.71 1089.79, 2551.34 1075.05, 2510.83 1072.34 C 2496.66 1073.24, 2488.42 1065.60, 2477.74 1065.08 C 2431.80 1059.67, 2389.94 1051.15, 2345.35 1050.57 C 2322.28 1050.57, 2302.23 1050.57, 2282.17 1050.57 Z" fill="rgb(242.92838984117395,82.89536610536383,13.330413551813537)" stroke="rgb(242.92838984117395,82.89536610536383,13.330413551813537)" stroke-width="1" />
<path d="M 2375.44 332.04 C 2322.27 344.74, 2215.96 304.78, 2246.06 408.25 C 2210.27 593.19, 2317.18 884.55, 2176.86 1010.65 C 2144.30 1017.15, 2084.64 1050.68, 2149.78 1043.31 C 2199.68 1053.04, 2246.90 1049.83, 2294.20 1043.31 C 2462.53 1042.82, 2618.77 1068.78, 2751.54 1163.06 C 2806.03 1076.68, 2755.82 787.97, 2778.62 644.13 C 2760.42 528.33, 2843.53 311.23, 2694.37 335.67 C 2580.69 327.19, 2490.35 340.85, 2378.45 332.04 Z" fill="rgb(246.03681885125184,218.89985272459498,207.340206185567)" stroke="rgb(246.03681885125184,218.89985272459498,207.340206185567)" stroke-width="1" />
<path d="M 2778.62 1355.40 C 2710.86 1542.19, 2557.20 1701.02, 2405.53 1776.35 C 2298.66 1841.34, 2184.60 1876.62, 2077.57 1932.39 C 2132.69 1999.29, 2273.67 1992.69, 2243.05 2135.61 C 2246.53 2203.16, 2245.20 2258.30, 2246.06 2324.31 C 2231.06 2401.10, 2306.02 2367.97, 2342.34 2375.12 C 2490.53 2375.11, 2628.20 2375.00, 2772.60 2375.12 C 2787.64 2049.01, 2781.62 1691.09, 2778.62 1359.03 Z" fill="rgb(240.47222222222223,217.58333333333334,210.16666666666666)" stroke="rgb(240.47222222222223,217.58333333333334,210.16666666666666)" stroke-width="1" />
<path d="M 2778.62 1384.43 C 2635.79 1718.88, 2366.09 1795.76, 2077.57 1932.39 C 2090.70 1955.18, 2120.33 1960.70, 2140.75 1979.57 C 2286.39 2000.53, 2236.12 2193.25, 2246.06 2327.94 C 2234.18 2402.77, 2305.02 2370.91, 2336.32 2375.12 C 2483.10 2378.38, 2626.31 2369.56, 2772.60 2371.49 C 2787.36 2048.96, 2782.07 1709.16, 2778.62 1388.06 Z" fill="rgb(239.17846153846153,225.3230769230769,221.19384615384615)" stroke="rgb(239.17846153846153,225.3230769230769,221.19384615384615)" stroke-width="1" />
<path d="M 2327.30 332.04 C 2304.20 349.32, 2245.77 312.32, 2246.06 357.45 C 2246.06 413.09, 2246.06 465.10, 2246.06 517.12 C 2246.06 573.97, 2246.06 627.20, 2246.06 680.42 C 2246.06 737.27, 2246.06 790.50, 2246.06 843.72 C 2246.06 900.57, 2246.06 953.80, 2246.06 1007.02 C 2236.62 1069.50, 2303.68 1033.18, 2327.30 1039.68 C 2360.76 1045.17, 2394.66 1040.63, 2423.58 1050.57 C 2457.95 1054.63, 2488.50 1061.03, 2519.86 1065.08 C 2568.06 1072.39, 2610.98 1086.29, 2652.25 1105.00 C 2684.09 1120.96, 2710.38 1144.33, 2739.50 1159.44 C 2757.97 1112.49, 2740.62 1047.21, 2745.52 992.51 C 2747.53 832.59, 2749.12 691.92, 2748.53 524.38 C 2743.61 461.50, 2751.95 393.11, 2748.53 335.67 C 2710.78 330.51, 2673.75 337.76, 2637.20 335.67 C 2614.14 335.67, 2594.08 335.67, 2574.02 335.67 C 2531.61 337.26, 2499.70 331.27, 2462.69 335.67 C 2445.68 342.92, 2427.43 328.02, 2414.55 335.67 C 2385.81 323.71, 2354.88 341.23, 2330.31 332.04 Z" fill="rgb(246.37336225342204,213.12791277075945,203.76598176861975)" stroke="rgb(246.37336225342204,213.12791277075945,203.76598176861975)" stroke-width="1" />
<path d="M 2065.53 1950.54 C 2053.70 1972.34, 2059.24 1993.46, 2056.51 2019.49 C 2053.63 2074.87, 2038.22 2118.85, 2026.42 2164.64 C 2007.65 2224.47, 2007.34 2288.39, 1987.31 2342.46 C 1979.87 2371.79, 1974.97 2398.75, 1963.23 2422.29 C 1946.04 2485.12, 1933.15 2546.48, 1912.09 2603.74 C 1892.00 2654.32, 1873.55 2700.59, 1851.91 2745.27 C 1843.09 2777.93, 1906.98 2737.94, 1924.12 2752.53 C 1955.59 2751.41, 1959.11 2755.16, 1981.29 2745.27 C 1989.64 2774.73, 2009.04 2734.98, 2014.38 2756.15 C 2030.57 2760.69, 2026.12 2782.49, 2038.45 2781.56 C 2043.49 2825.41, 2044.22 2878.55, 2047.48 2923.08 C 2054.52 2969.43, 2041.04 3027.22, 2059.52 3068.24 C 2094.62 3068.24, 2126.71 3068.24, 2158.81 3068.24 C 2187.78 3060.52, 2220.21 3079.54, 2237.03 3050.10 C 2237.03 2985.99, 2237.03 2925.50, 2237.03 2865.02 C 2237.03 2800.91, 2237.03 2740.43, 2237.03 2679.95 C 2237.03 2615.84, 2237.03 2555.35, 2237.03 2494.87 C 2237.08 2426.26, 2237.28 2370.44, 2237.03 2306.17 C 2237.03 2279.56, 2237.03 2256.57, 2237.03 2233.59 C 2237.00 2180.78, 2231.21 2139.38, 2237.03 2092.06 C 2226.99 2075.07, 2243.20 2058.14, 2234.03 2044.89 C 2209.67 2030.00, 2190.98 2011.01, 2167.83 2004.97 C 2132.54 1984.96, 2102.31 1962.60, 2068.54 1950.54 Z" fill="rgb(244.27690601380218,245.76721163325666,248.38489976996385)" stroke="rgb(244.27690601380218,245.76721163325666,248.38489976996385)" stroke-width="1" />
<path d="M 2580.04 1652.97 C 2542.06 1686.51, 2504.10 1720.13, 2462.69 1743.69 C 2414.43 1771.14, 2368.53 1793.11, 2324.29 1819.90 C 2304.31 1832.72, 2284.39 1836.95, 2267.12 1848.93 C 2232.06 1859.43, 2200.68 1871.88, 2170.84 1888.85 C 2134.74 1902.88, 2103.54 1918.77, 2071.55 1932.39 C 2069.29 1945.38, 2094.44 1947.21, 2101.64 1957.79 C 2146.22 1987.71, 2192.29 2004.55, 2234.03 2034.00 C 2252.52 2088.25, 2235.60 2155.06, 2246.06 2208.19 C 2247.94 2265.82, 2242.23 2323.60, 2249.07 2375.12 C 2300.22 2375.12, 2348.36 2375.12, 2396.50 2375.12 C 2447.65 2375.12, 2495.79 2375.12, 2543.93 2375.12 C 2558.68 2373.05, 2573.34 2379.47, 2583.05 2371.49 C 2586.05 2315.85, 2586.05 2260.20, 2586.05 2204.56 C 2586.05 2144.08, 2586.05 2087.23, 2586.05 2030.37 C 2586.05 1971.10, 2586.05 1915.46, 2586.05 1859.81 C 2586.05 1799.33, 2586.05 1742.48, 2586.05 1685.63 C 2584.22 1673.32, 2589.83 1655.67, 2583.05 1652.97 Z" fill="rgb(239.71352721706688,219.87410312828854,213.32545680665837)" stroke="rgb(239.71352721706688,219.87410312828854,213.32545680665837)" stroke-width="1" />
<path d="M 747.68 2552.94 C 652.00 2648.45, 478.59 2710.37, 534.06 2897.68 C 0.64 2681.55, 284.26 3606.87, 576.18 3068.24 C 573.81 3044.88, 569.79 3025.81, 585.21 3010.18 C 729.91 3096.55, 841.57 2873.70, 828.92 2719.87 C 820.36 2654.87, 790.18 2598.94, 750.69 2556.56 Z" fill="rgb(129.44811320754718,154.42924528301887,208.20754716981133)" stroke="rgb(129.44811320754718,154.42924528301887,208.20754716981133)" stroke-width="1" />
<path d="M 672.46 1025.17 C 662.76 1033.15, 648.10 1026.73, 636.36 1028.79 C 578.19 1028.79, 523.03 1028.79, 467.87 1028.79 C 271.18 1010.47, 406.52 1352.30, 368.58 1493.29 C 355.14 1570.44, 419.14 1493.71, 443.80 1482.41 C 641.75 1364.07, 848.99 1285.19, 1057.59 1210.24 C 1021.14 1129.33, 937.41 1018.49, 843.97 1028.79 C 782.55 1027.02, 728.28 1031.01, 675.47 1025.17 Z" fill="rgb(222.0952380952381,212.04761904761904,213.66666666666666)" stroke="rgb(222.0952380952381,212.04761904761904,213.66666666666666)" stroke-width="1" />
<path d="M 380.61 1028.79 C 379.50 1148.36, 317.41 1544.28, 422.73 1496.92 C 617.53 1376.96, 820.11 1292.05, 1027.50 1221.13 C 1025.14 949.75, 592.80 1045.82, 383.62 1028.79 Z" fill="rgb(238.8235294117647,215.58823529411765,203.62745098039215)" stroke="rgb(238.8235294117647,215.58823529411765,203.62745098039215)" stroke-width="1" />
<path d="M 479.90 1025.17 C 446.26 1033.56, 407.29 1026.43, 371.59 1028.79 C 368.58 1094.12, 368.58 1155.81, 368.58 1217.50 C 368.58 1284.03, 368.58 1346.93, 368.58 1409.83 C 370.57 1452.18, 364.58 1500.53, 371.59 1533.21 C 419.09 1498.21, 464.95 1467.17, 513.00 1442.49 C 548.53 1424.38, 578.96 1403.83, 612.29 1391.69 C 651.89 1369.12, 689.29 1348.90, 729.63 1337.25 C 756.24 1323.30, 782.74 1317.75, 807.86 1308.22 C 811.79 1275.13, 810.30 1223.14, 810.87 1177.58 C 810.62 1127.49, 811.50 1087.42, 810.87 1043.31 C 801.47 1013.71, 757.74 1039.51, 735.65 1025.17 C 687.12 1024.96, 635.68 1025.44, 594.24 1025.17 C 554.13 1024.53, 516.87 1030.72, 482.91 1025.17 Z" fill="rgb(252.64098308330674,226.1388445579317,212.3822534312161)" stroke="rgb(252.64098308330674,226.1388445579317,212.3822534312161)" stroke-width="1" />
<path d="M 2778.62 1366.28 C 2736.43 1467.62, 2671.44 1560.96, 2604.11 1631.19 C 2582.66 1659.74, 2597.93 1698.19, 2592.07 1729.17 C 2593.25 1749.18, 2595.89 1760.49, 2592.07 1776.35 C 2599.87 1798.08, 2586.35 1819.10, 2595.08 1838.04 C 2594.54 1894.40, 2590.31 1942.01, 2595.08 1994.08 C 2591.66 2030.65, 2597.07 2059.37, 2592.07 2092.06 C 2595.08 2139.24, 2595.08 2182.79, 2595.08 2226.33 C 2593.30 2246.51, 2598.78 2266.68, 2592.07 2280.77 C 2599.09 2306.74, 2588.29 2331.40, 2592.07 2356.97 C 2587.68 2380.19, 2606.22 2374.58, 2616.14 2375.12 C 2645.23 2375.12, 2671.30 2375.12, 2697.38 2375.12 C 2726.46 2375.12, 2752.54 2375.12, 2778.62 2375.12 C 2781.63 2331.57, 2781.63 2291.65, 2781.63 2251.74 C 2781.63 2206.98, 2781.63 2165.85, 2781.63 2124.72 C 2781.63 2081.18, 2781.63 2041.26, 2781.63 2001.34 C 2781.63 1956.59, 2781.63 1915.46, 2781.63 1874.33 C 2782.63 1824.74, 2779.03 1776.47, 2784.63 1732.80 C 2777.93 1617.09, 2786.63 1489.34, 2778.62 1369.91 Z" fill="rgb(243.98450554458452,238.72254291356523,235.64658970074433)" stroke="rgb(243.98450554458452,238.72254291356523,235.64658970074433)" stroke-width="1" />
<path d="M 1126.79 2139.24 C 1073.53 2185.97, 1030.18 2245.74, 979.36 2298.91 C 936.83 2337.62, 964.04 2399.61, 961.31 2447.70 C 961.74 2496.16, 959.64 2543.31, 964.32 2581.97 C 981.05 2626.80, 994.60 2668.08, 994.40 2716.24 C 987.69 2733.24, 995.10 2753.67, 988.39 2767.04 C 984.98 2837.47, 970.12 2898.54, 940.25 2952.12 C 932.83 2990.58, 888.64 3021.55, 910.16 3060.98 C 935.12 3100.57, 936.52 3158.78, 967.33 3184.37 C 1003.72 3182.65, 1033.32 3107.92, 1060.60 3071.87 C 1095.96 3020.74, 1102.17 2958.68, 1117.77 2901.31 C 1122.18 2877.03, 1132.75 2860.95, 1132.81 2839.62 C 1136.33 2786.36, 1148.16 2740.88, 1150.86 2690.83 C 1150.86 2660.59, 1150.86 2633.98, 1150.86 2607.37 C 1140.48 2545.85, 1157.48 2483.60, 1147.85 2425.92 C 1142.62 2379.36, 1141.77 2334.23, 1135.82 2291.65 C 1128.57 2242.26, 1137.56 2188.38, 1129.80 2142.87 Z" fill="rgb(228.82005494505495,230.86813186813185,236.50686813186815)" stroke="rgb(228.82005494505495,230.86813186813185,236.50686813186815)" stroke-width="1" />
<path d="M 1117.77 2150.13 C 1089.77 2173.58, 1065.17 2206.90, 1039.54 2237.22 C 1011.83 2271.53, 981.90 2297.09, 961.31 2331.57 C 962.73 2371.28, 958.11 2410.38, 964.32 2444.07 C 964.32 2485.20, 964.32 2522.69, 964.32 2560.19 C 984.55 2602.57, 986.90 2650.24, 1003.43 2690.83 C 1001.54 2709.74, 999.16 2724.78, 1000.42 2741.64 C 985.13 2780.35, 992.29 2826.64, 976.35 2861.39 C 980.45 2894.74, 952.80 2917.67, 958.30 2948.49 C 931.75 2974.69, 924.09 3010.75, 904.14 3035.58 C 916.46 3078.28, 937.37 3113.05, 943.26 3155.33 C 954.66 3169.55, 953.66 3189.87, 967.33 3191.62 C 1007.30 3160.07, 1027.14 3117.26, 1054.58 3075.50 C 1069.50 3042.81, 1084.90 3017.02, 1096.70 2984.78 C 1102.18 2928.77, 1124.09 2884.62, 1129.80 2832.36 C 1131.80 2777.13, 1151.99 2734.61, 1147.85 2679.95 C 1150.16 2637.69, 1146.47 2595.38, 1147.85 2552.94 C 1147.85 2508.18, 1147.85 2467.05, 1147.85 2425.92 C 1141.17 2409.62, 1144.93 2391.72, 1138.83 2378.75 C 1137.04 2324.66, 1126.56 2270.68, 1129.80 2222.71 C 1120.54 2200.43, 1135.30 2159.19, 1120.77 2150.13 Z" fill="rgb(234.8488160291439,237.1007650273224,242.01449908925318)" stroke="rgb(234.8488160291439,237.1007650273224,242.01449908925318)" stroke-width="1" />
<path d="M 284.33 2015.86 C 280.39 2066.12, 278.57 2125.41, 284.33 2175.53 C 422.08 2338.17, 651.87 2322.43, 849.98 2327.94 C 964.82 2359.99, 1014.33 2243.14, 1087.68 2168.27 C 1142.80 2111.10, 1043.15 2137.33, 1012.46 2135.61 C 941.07 2144.52, 875.71 2138.04, 807.86 2146.50 C 620.23 2135.82, 432.77 2137.01, 287.34 2015.86 Z" fill="rgb(232.7422680412371,181.28865979381445,167.7422680412371)" stroke="rgb(232.7422680412371,181.28865979381445,167.7422680412371)" stroke-width="1" />
<path d="M 284.33 2019.49 C 282.36 2068.60, 288.30 2121.66, 281.32 2168.27 C 283.16 2206.22, 311.93 2215.29, 332.47 2229.96 C 378.87 2258.02, 425.68 2276.11, 470.88 2298.91 C 515.68 2308.83, 560.10 2311.12, 603.26 2317.06 C 647.18 2320.09, 687.11 2325.98, 729.63 2324.31 C 758.00 2334.66, 791.56 2321.13, 816.89 2331.57 C 851.77 2323.89, 888.31 2329.79, 922.19 2327.94 C 944.78 2332.67, 958.55 2320.49, 970.33 2302.54 C 1014.21 2248.23, 1057.75 2203.92, 1099.71 2153.76 C 1110.34 2137.80, 1109.47 2133.34, 1093.69 2131.98 C 1041.44 2129.46, 997.15 2141.40, 949.27 2142.87 C 904.32 2144.61, 859.85 2138.97, 819.90 2146.50 C 791.90 2143.83, 766.83 2141.39, 741.67 2139.24 C 712.47 2141.29, 689.87 2132.86, 663.44 2135.61 C 635.64 2132.37, 610.53 2130.06, 585.21 2128.35 C 559.96 2126.43, 538.24 2123.02, 516.01 2121.10 C 482.42 2115.77, 451.79 2110.60, 425.74 2092.06 C 376.35 2071.52, 331.64 2046.09, 287.34 2019.49 Z" fill="rgb(245.3131445282438,207.55163921810066,195.37617361859319)" stroke="rgb(245.3131445282438,207.55163921810066,195.37617361859319)" stroke-width="1" />
<path d="M 1099.71 332.04 C 1077.41 347.25, 1021.22 313.23, 1027.50 364.71 C 1021.75 393.78, 1025.60 424.03, 1024.49 451.80 C 1024.49 511.07, 1024.49 566.71, 1024.49 622.36 C 1022.35 649.33, 1027.66 668.95, 1027.50 691.31 C 1028.28 718.81, 1022.20 739.25, 1024.49 763.88 C 1024.49 830.41, 1024.49 893.32, 1024.49 956.22 C 1020.65 981.88, 1036.31 1029.44, 1006.44 1025.17 C 970.52 1022.66, 907.80 1034.56, 955.29 1075.97 C 1021.01 1097.92, 1103.84 1272.88, 1111.75 1123.15 C 1122.41 1042.63, 1128.82 963.61, 1147.85 890.90 C 1156.24 856.42, 1167.01 828.26, 1177.94 800.17 C 1193.37 754.05, 1248.12 705.71, 1208.03 658.65 C 1169.98 599.95, 1124.67 546.76, 1105.73 480.83 C 1089.62 446.57, 1073.67 401.56, 1093.69 368.33 C 1097.38 338.21, 1126.27 344.40, 1141.84 335.67 C 1333.34 491.05, 1384.00 418.34, 1277.23 332.04 C 1216.69 334.63, 1157.11 333.39, 1102.72 332.04 Z" fill="rgb(249.42649235323137,250.5828811050814,252.24210656142083)" stroke="rgb(249.42649235323137,250.5828811050814,252.24210656142083)" stroke-width="1" />
<path d="M 1981.29 332.04 C 1900.65 347.42, 1706.87 287.45, 1788.73 448.17 C 1823.52 486.36, 1842.42 527.36, 1854.92 571.55 C 1864.68 605.05, 1870.69 635.30, 1875.98 665.90 C 1881.13 702.21, 1890.75 731.16, 1900.05 760.26 C 1914.65 792.93, 1937.52 817.84, 1951.20 847.35 C 1969.98 872.95, 1984.66 837.49, 1999.34 832.83 C 2041.55 829.60, 2072.22 778.01, 2080.58 734.85 C 2075.27 712.69, 2077.22 695.29, 2077.57 676.79 C 2076.04 627.14, 2082.90 585.31, 2080.58 538.89 C 2080.58 503.81, 2080.58 472.36, 2080.58 440.91 C 2080.58 404.62, 2080.58 371.96, 2080.58 339.30 C 2044.56 338.08, 2015.17 330.19, 1984.30 335.67 Z" fill="rgb(241.9596713965646,243.0572566591984,245.06547174508339)" stroke="rgb(241.9596713965646,243.0572566591984,245.06547174508339)" stroke-width="1" />
<path d="M 392.65 2857.76 C 357.26 2864.90, 321.13 2869.87, 290.35 2890.42 C 253.77 2905.08, 223.68 2943.89, 221.15 2988.40 C 215.36 3012.21, 215.99 3034.09, 212.12 3053.72 C 206.63 3106.62, 197.38 3162.02, 206.10 3213.40 C 239.41 3215.64, 258.84 3213.82, 290.35 3213.40 C 321.58 3215.51, 347.46 3210.82, 374.59 3209.77 C 392.32 3203.97, 410.07 3210.64, 422.73 3202.51 C 452.41 3201.81, 480.70 3205.82, 503.97 3195.25 C 533.93 3191.89, 560.86 3164.62, 570.17 3133.56 C 573.22 3112.52, 581.54 3090.07, 573.17 3071.87 C 575.99 3021.20, 570.61 2978.25, 546.10 2944.86 C 536.95 2922.41, 533.18 2900.43, 513.00 2897.68 C 479.08 2860.99, 436.95 2860.59, 395.66 2857.76 Z" fill="rgb(99.12270992366412,133.03349236641222,209.08692748091602)" stroke="rgb(99.12270992366412,133.03349236641222,209.08692748091602)" stroke-width="1" />
<path d="M 2092.61 332.04 C 2078.20 457.50, 2090.22 606.47, 2086.60 742.11 C 2083.23 775.18, 2058.02 783.66, 2047.48 811.06 C 2038.03 820.70, 2030.06 831.06, 2020.40 836.46 C 1913.11 864.96, 2061.11 943.90, 2107.66 948.96 C 2146.00 942.23, 2195.00 986.10, 2146.77 1003.39 C 2129.94 1005.13, 2047.18 1065.07, 2101.64 1028.79 C 2129.24 1030.63, 2143.15 1010.14, 2164.82 1003.39 C 2279.73 988.88, 2232.16 817.80, 2240.04 734.85 C 2230.90 606.26, 2262.27 443.29, 2221.99 335.67 C 2176.77 337.64, 2136.69 333.41, 2095.62 332.04 Z" fill="rgb(228.2943396226415,230.52830188679246,235.1622641509434)" stroke="rgb(228.2943396226415,230.52830188679246,235.1622641509434)" stroke-width="1" />
<path d="M 1060.60 1221.13 C 1023.82 1230.07, 986.75 1238.13, 952.28 1253.79 C 928.30 1269.57, 902.00 1269.82, 880.07 1282.82 C 854.42 1298.02, 825.90 1304.11, 810.87 1333.62 C 765.19 1385.03, 730.72 1446.35, 705.56 1507.81 C 694.33 1544.38, 664.65 1568.10, 648.39 1598.53 C 624.21 1639.19, 591.49 1642.63, 561.14 1652.97 C 534.21 1668.24, 554.27 1705.03, 570.17 1714.66 C 590.29 1725.69, 609.80 1720.46, 627.33 1718.29 C 660.30 1704.61, 692.09 1696.26, 720.60 1678.37 C 748.23 1644.82, 786.05 1626.83, 810.87 1598.53 C 853.10 1540.91, 903.50 1500.19, 949.27 1457.01 C 985.22 1423.68, 1037.22 1421.71, 1078.65 1435.23 C 1082.00 1372.92, 1078.11 1312.12, 1093.69 1261.04 C 1099.59 1228.28, 1087.76 1214.01, 1063.61 1221.13 Z" fill="rgb(130.63835645451658,155.13745631684847,206.21391506936354)" stroke="rgb(130.63835645451658,155.13745631684847,206.21391506936354)" stroke-width="1" />
<path d="M 744.68 2552.94 C 699.34 2603.95, 648.35 2638.48, 597.24 2672.69 C 558.48 2694.43, 541.33 2742.37, 528.04 2781.56 C 520.24 2827.58, 539.51 2857.96, 540.08 2897.68 C 553.22 2925.37, 561.13 2953.54, 570.17 2981.15 C 574.06 3017.48, 607.84 3002.65, 624.32 3021.06 C 654.79 3040.69, 693.91 3033.64, 717.60 3010.18 C 736.41 2995.97, 748.39 2974.23, 762.73 2959.37 C 792.10 2915.14, 810.46 2870.54, 819.90 2821.47 C 832.69 2784.03, 828.14 2741.54, 828.92 2701.72 C 809.63 2647.11, 786.38 2587.14, 747.68 2552.94 Z" fill="rgb(97.71236530459831,133.43145204310252,209.34268643977381)" stroke="rgb(97.71236530459831,133.43145204310252,209.34268643977381)" stroke-width="1" />
<path d="M 305.39 1025.17 C 274.99 1044.89, 200.31 999.27, 200.08 1057.83 C 200.08 1202.98, 200.08 1344.51, 200.08 1486.04 C 208.57 1555.56, 183.24 1817.84, 224.15 1725.54 C 250.00 1642.47, 320.39 1594.00, 362.56 1533.21 C 363.51 1369.38, 367.45 1218.64, 362.56 1065.08 C 380.25 1010.79, 330.62 1034.55, 308.40 1025.17 Z" fill="rgb(225.88235294117646,200.05882352941177,191.35294117647058)" stroke="rgb(225.88235294117646,200.05882352941177,191.35294117647058)" stroke-width="1" />
<path d="M 254.24 2182.79 C 255.13 2211.12, 259.57 2251.57, 257.25 2280.77 C 267.37 2355.91, 259.21 2428.50, 263.27 2494.87 C 261.63 2620.98, 266.54 2758.16, 260.26 2883.17 C 285.24 2901.29, 322.35 2858.12, 356.54 2857.76 C 408.16 2844.74, 495.76 2879.63, 449.81 2796.07 C 375.85 2710.09, 408.75 2574.35, 401.67 2458.58 C 395.72 2395.68, 413.65 2310.16, 392.65 2269.88 C 342.88 2246.10, 300.31 2213.74, 257.25 2182.79 Z" fill="rgb(214.77826086956523,221.69130434782608,235.4913043478261)" stroke="rgb(214.77826086956523,221.69130434782608,235.4913043478261)" stroke-width="1" />
<path d="M 263.27 2186.42 C 257.00 2231.98, 266.23 2274.02, 263.27 2324.31 C 263.27 2370.28, 263.27 2412.62, 263.27 2454.96 C 263.27 2500.92, 263.27 2543.26, 263.27 2585.60 C 263.27 2631.56, 263.27 2673.90, 263.27 2716.24 C 263.27 2763.41, 263.27 2806.96, 263.27 2850.51 C 270.52 2867.40, 260.35 2882.55, 266.28 2894.05 C 295.05 2879.33, 320.61 2864.02, 350.52 2861.39 C 374.41 2848.54, 470.32 2857.67, 434.77 2839.62 C 455.40 2794.83, 427.69 2765.95, 410.70 2723.49 C 402.90 2699.48, 400.20 2678.06, 401.67 2654.54 C 401.67 2589.22, 401.67 2527.53, 401.67 2465.84 C 401.67 2400.52, 401.67 2338.83, 401.67 2277.14 C 355.41 2248.97, 309.18 2224.36, 266.28 2190.04 Z" fill="rgb(207.34436473038647,217.2125665355242,239.1783152048137)" stroke="rgb(207.34436473038647,217.2125665355242,239.1783152048137)" stroke-width="1" />
<path d="M 765.74 2552.94 C 761.51 2566.03, 780.24 2580.16, 786.80 2592.85 C 806.51 2635.57, 831.99 2670.27, 834.94 2716.24 C 836.97 2740.73, 832.11 2758.16, 831.93 2777.93 C 825.52 2837.17, 810.51 2888.50, 783.79 2933.97 C 755.27 2982.94, 716.39 3024.96, 678.48 3046.47 C 698.10 3072.50, 715.76 3107.34, 738.66 3122.67 C 769.17 3115.23, 792.10 3094.48, 816.89 3079.13 C 839.45 3043.70, 868.74 3040.27, 895.11 3028.32 C 913.04 3004.36, 923.06 2981.58, 934.23 2959.37 C 959.75 2902.62, 979.86 2848.30, 982.37 2785.19 C 986.98 2764.71, 986.68 2745.42, 988.39 2727.12 C 990.77 2673.04, 979.46 2629.42, 961.31 2589.22 C 958.84 2561.54, 940.76 2548.39, 919.19 2552.94 C 867.03 2552.94, 817.89 2552.94, 768.75 2552.94 Z" fill="rgb(239.0819474572186,243.7300554350446,250.529043142926)" stroke="rgb(239.0819474572186,243.7300554350446,250.529043142926)" stroke-width="1" />
<path d="M 209.11 1025.17 C 194.68 1029.96, 201.66 1050.77, 200.08 1065.08 C 200.08 1106.21, 200.08 1143.71, 200.08 1181.21 C 200.08 1223.55, 200.08 1262.25, 200.08 1300.96 C 200.08 1343.30, 200.08 1382.01, 200.08 1420.72 C 200.08 1463.05, 200.08 1501.76, 200.08 1540.47 C 226.46 1560.24, 262.90 1547.10, 293.36 1551.36 C 319.42 1546.30, 357.28 1565.13, 365.57 1533.21 C 365.15 1495.07, 365.87 1449.19, 365.57 1409.83 C 365.57 1365.07, 365.57 1323.95, 365.57 1282.82 C 365.65 1240.17, 364.20 1208.75, 365.57 1170.32 C 369.80 1120.31, 359.77 1083.93, 362.56 1032.42 C 314.84 1020.50, 261.90 1027.46, 212.12 1025.17 Z" fill="rgb(245.42213467930569,240.04936599778407,236.94127785300998)" stroke="rgb(245.42213467930569,240.04936599778407,236.94127785300998)" stroke-width="1" />
<path d="M 537.07 3187.99 C 492.64 3218.94, 431.66 3201.73, 380.61 3213.40 C 323.63 3228.41, 247.98 3207.10, 203.09 3231.54 C 208.72 3291.83, 191.59 3370.81, 212.12 3412.99 C 324.92 3416.98, 448.02 3421.04, 543.09 3409.36 C 546.10 3353.71, 546.10 3301.70, 546.10 3249.69 C 543.66 3227.54, 551.85 3198.35, 540.08 3187.99 Z" fill="rgb(218.6793893129771,226.0229007633588,241.4885496183206)" stroke="rgb(218.6793893129771,226.0229007633588,241.4885496183206)" stroke-width="1" />
<path d="M 537.07 3195.25 C 523.03 3205.94, 507.51 3212.32, 488.93 3209.77 C 447.44 3208.33, 412.08 3211.65, 377.60 3213.40 C 359.62 3214.80, 345.59 3218.98, 329.46 3217.03 C 287.03 3218.05, 251.46 3226.65, 212.12 3224.28 C 196.68 3230.77, 205.96 3256.72, 203.09 3271.46 C 205.06 3319.36, 199.14 3367.58, 206.10 3409.36 C 231.97 3414.79, 257.23 3418.37, 284.33 3416.62 C 314.42 3416.62, 341.50 3416.62, 368.58 3416.62 C 394.24 3418.92, 418.27 3411.77, 434.77 3416.62 C 468.51 3408.52, 504.29 3415.13, 537.07 3412.99 C 548.77 3361.89, 537.40 3304.41, 546.10 3256.94 C 549.98 3230.67, 540.25 3209.25, 540.08 3195.25 Z" fill="rgb(215.7204871955028,223.4439412866958,239.50515302935665)" stroke="rgb(215.7204871955028,223.4439412866958,239.50515302935665)" stroke-width="1" />
<path d="M 407.69 2280.77 C 409.31 2300.22, 405.84 2317.14, 404.68 2335.20 C 400.90 2383.11, 406.52 2433.60, 404.68 2480.36 C 406.35 2515.11, 401.14 2549.66, 407.69 2578.34 C 406.37 2618.44, 405.34 2647.34, 404.68 2683.58 C 449.26 2699.59, 539.01 2695.92, 561.14 2694.46 C 570.77 2679.12, 565.44 2661.45, 567.16 2647.29 C 567.16 2607.37, 567.16 2571.08, 567.16 2534.79 C 567.16 2494.87, 567.16 2458.58, 567.16 2422.29 C 560.87 2383.06, 586.70 2305.18, 537.07 2317.06 C 487.44 2318.55, 452.20 2290.56, 410.70 2280.77 Z" fill="rgb(243.73622647906424,244.81454483810816,248.95219528733685)" stroke="rgb(243.73622647906424,244.81454483810816,248.95219528733685)" stroke-width="1" />
<path d="M 2158.81 332.04 C 2152.14 344.94, 2157.54 363.87, 2155.80 379.22 C 2155.80 421.56, 2155.80 460.27, 2155.80 498.97 C 2155.80 541.31, 2155.80 580.02, 2155.80 618.73 C 2155.80 661.07, 2155.80 699.77, 2155.80 738.48 C 2155.80 780.82, 2155.80 819.53, 2155.80 858.24 C 2157.83 908.55, 2140.52 994.07, 2197.92 963.47 C 2249.11 988.21, 2245.59 920.56, 2243.05 880.01 C 2243.05 834.04, 2243.05 791.71, 2243.05 749.37 C 2243.05 702.19, 2243.05 658.65, 2243.05 615.10 C 2243.05 569.13, 2243.05 526.80, 2243.05 484.46 C 2243.05 437.28, 2243.05 393.74, 2243.05 350.19 C 2228.34 325.36, 2187.54 338.05, 2161.81 332.04 Z" fill="rgb(231.32467532467533,234.16653934300993,240.99140565317035)" stroke="rgb(231.32467532467533,234.16653934300993,240.99140565317035)" stroke-width="1" />
<path d="M 2089.60 335.67 C 2083.04 346.20, 2088.27 362.62, 2086.60 375.59 C 2086.60 411.88, 2086.60 444.54, 2086.60 477.20 C 2088.12 519.47, 2084.09 558.60, 2086.60 593.33 C 2079.16 610.72, 2089.75 624.29, 2086.60 640.50 C 2087.63 686.30, 2084.61 714.36, 2086.60 756.63 C 2058.72 823.84, 1995.04 829.71, 1972.26 872.75 C 2026.34 923.66, 2083.69 952.66, 2149.78 956.22 C 2152.79 913.88, 2152.79 875.17, 2152.79 836.46 C 2152.79 794.13, 2152.79 755.42, 2152.79 716.71 C 2152.79 674.37, 2152.79 635.66, 2152.79 596.96 C 2152.79 553.41, 2152.79 513.49, 2152.79 473.57 C 2152.79 437.28, 2152.79 404.62, 2152.79 371.96 C 2164.44 323.21, 2118.28 337.30, 2092.61 335.67 Z" fill="rgb(187.4798785117692,193.45482156416097,207.96026322450012)" stroke="rgb(187.4798785117692,193.45482156416097,207.96026322450012)" stroke-width="1" />
<path d="M 573.17 2317.06 C 566.43 2332.33, 571.97 2353.74, 570.17 2371.49 C 570.17 2424.71, 570.17 2474.31, 570.17 2523.90 C 570.17 2578.34, 570.17 2629.14, 570.17 2679.95 C 605.57 2661.46, 638.73 2641.59, 669.46 2614.63 C 697.21 2593.60, 720.53 2568.44, 744.68 2545.68 C 747.68 2508.18, 747.68 2474.31, 747.68 2440.44 C 749.39 2403.29, 744.08 2366.27, 750.69 2335.20 C 725.32 2331.24, 704.80 2325.54, 681.49 2327.94 C 645.11 2322.21, 609.34 2323.43, 576.18 2317.06 Z" fill="rgb(219.75075926300872,227.22190726867788,241.35351285685363)" stroke="rgb(219.75075926300872,227.22190726867788,241.35351285685363)" stroke-width="1" />
<path d="M 209.11 2124.72 C 195.23 2134.02, 201.50 2160.33, 200.08 2179.16 C 200.08 2237.22, 200.08 2291.65, 200.08 2346.09 C 200.08 2405.36, 200.08 2461.00, 200.08 2516.65 C 200.08 2574.71, 200.08 2629.14, 200.08 2683.58 C 200.08 2742.85, 200.08 2798.49, 200.08 2854.13 C 197.54 2901.86, 198.29 3024.93, 230.17 2937.60 C 272.13 2903.62, 253.33 2852.22, 257.25 2803.33 C 257.25 2757.36, 257.25 2715.03, 257.25 2672.69 C 257.25 2625.51, 257.25 2581.97, 257.25 2538.42 C 259.52 2494.45, 253.56 2458.22, 254.24 2418.67 C 254.24 2376.33, 254.24 2337.62, 254.24 2298.91 C 258.89 2256.60, 242.88 2216.82, 257.25 2182.79 C 246.45 2158.70, 226.71 2145.96, 212.12 2128.35 Z" fill="rgb(236.52596041909197,239.73643771827707,245.33806752037253)" stroke="rgb(236.52596041909197,239.73643771827707,245.33806752037253)" stroke-width="1" />
<path d="M 825.91 1025.17 C 801.58 1024.73, 819.13 1065.90, 813.88 1090.49 C 813.88 1129.19, 813.88 1164.27, 813.88 1199.35 C 814.25 1237.60, 813.35 1278.40, 813.88 1308.22 C 859.26 1282.54, 905.05 1266.81, 949.27 1246.53 C 990.52 1231.87, 1028.97 1217.86, 1069.62 1210.24 C 1071.14 1186.39, 1057.25 1171.69, 1045.55 1159.44 C 1010.06 1124.51, 976.04 1097.65, 940.25 1075.97 C 922.68 1063.60, 940.63 1028.76, 922.19 1028.79 C 886.68 1024.81, 859.49 1026.09, 828.92 1025.17 Z" fill="rgb(241.70913801224683,244.96726330664154,249.78097032501176)" stroke="rgb(241.70913801224683,244.96726330664154,249.78097032501176)" stroke-width="1" />
<path d="M 753.70 2331.57 C 747.21 2340.93, 752.31 2356.07, 750.69 2367.86 C 750.69 2387.22, 750.69 2402.94, 750.69 2418.67 C 753.75 2460.69, 752.12 2502.99, 753.70 2542.05 C 773.76 2545.68, 790.81 2545.68, 807.86 2545.68 C 855.90 2547.18, 903.19 2542.11, 946.26 2549.31 C 956.79 2517.63, 949.95 2471.77, 952.28 2433.18 C 954.15 2396.67, 949.87 2366.86, 949.27 2335.20 C 915.20 2332.86, 882.14 2328.33, 852.99 2335.20 C 818.53 2335.04, 786.44 2336.75, 756.71 2331.57 Z" fill="rgb(213.07550461001745,220.96361824071766,239.54248691751806)" stroke="rgb(213.07550461001745,220.96361824071766,239.54248691751806)" stroke-width="1" />
<path d="M 1535.99 3187.99 C 1515.90 3198.14, 1519.50 3232.11, 1523.95 3253.31 C 1524.15 3297.98, 1523.47 3357.38, 1523.95 3398.47 C 1558.05 3398.47, 1589.14 3398.47, 1620.23 3398.47 C 1654.33 3398.47, 1685.42 3398.47, 1716.51 3398.47 C 1716.51 3357.34, 1716.51 3319.84, 1716.51 3282.35 C 1710.36 3248.73, 1734.01 3181.38, 1692.44 3191.62 C 1639.11 3190.94, 1587.50 3193.97, 1539.00 3187.99 Z" fill="rgb(248.8228450555262,247.9153886832364,252.874405076679)" stroke="rgb(248.8228450555262,247.9153886832364,252.874405076679)" stroke-width="1" />
<path d="M 1903.06 785.66 C 1905.76 802.04, 1908.69 818.30, 1915.09 832.83 C 1920.42 876.72, 1926.05 916.84, 1933.15 956.22 C 1936.69 1021.65, 1956.08 1075.53, 1966.24 1134.03 C 1969.74 1157.53, 1975.09 1200.96, 1975.27 1202.98 C 2011.19 1170.67, 2003.36 1112.35, 2023.41 1072.34 C 2053.12 1028.82, 2094.79 1032.52, 2122.70 996.13 C 2131.05 984.47, 2150.64 972.38, 2143.76 963.47 C 2101.75 957.39, 2065.64 946.54, 2032.44 927.19 C 2014.97 915.09, 2001.43 900.33, 1987.31 887.27 C 1946.42 871.13, 1935.86 819.43, 1906.07 789.29 Z" fill="rgb(23.16768194934274,44.68483488297531,102.29624879769156)" stroke="rgb(23.16768194934274,44.68483488297531,102.29624879769156)" stroke-width="1" />
<path d="M 2754.55 332.04 C 2742.17 340.52, 2751.35 366.34, 2748.53 382.85 C 2748.53 440.91, 2748.53 495.35, 2748.53 549.78 C 2748.53 607.84, 2748.53 662.28, 2748.53 716.71 C 2748.53 774.77, 2748.53 829.21, 2748.53 883.64 C 2748.53 941.70, 2748.53 996.13, 2748.53 1050.57 C 2748.53 1092.91, 2748.53 1131.61, 2748.53 1170.32 C 2758.20 1184.81, 2779.12 1223.22, 2784.63 1195.72 C 2784.63 1142.50, 2784.63 1092.91, 2784.63 1043.31 C 2784.63 990.09, 2784.63 940.49, 2784.63 890.90 C 2784.63 837.67, 2784.63 788.08, 2784.63 738.48 C 2784.63 684.05, 2784.63 633.24, 2784.63 582.44 C 2784.63 542.52, 2784.63 506.23, 2784.63 469.94 C 2784.63 428.82, 2784.63 391.32, 2784.63 353.82 C 2788.17 330.64, 2769.08 331.12, 2757.56 332.04 Z" fill="rgb(254.96539456662356,238.9395213454075,235.3767787839586)" stroke="rgb(254.96539456662356,238.9395213454075,235.3767787839586)" stroke-width="1" />
<path d="M 1505.90 3213.40 C 1449.78 3260.48, 1391.99 3302.72, 1331.39 3336.78 C 1272.97 3367.78, 1214.71 3390.52, 1153.87 3405.73 C 1135.70 3412.61, 1093.43 3413.91, 1132.81 3412.99 C 1256.79 3399.32, 1386.19 3404.75, 1511.92 3398.47 C 1510.98 3339.11, 1522.85 3260.69, 1508.91 3213.40 Z" fill="rgb(221.25882352941176,226.1764705882353,236.78823529411764)" stroke="rgb(221.25882352941176,226.1764705882353,236.78823529411764)" stroke-width="1" />
<path d="M 1508.91 3217.03 C 1507.95 3229.81, 1492.38 3220.90, 1487.85 3231.54 C 1444.96 3263.70, 1406.21 3295.50, 1364.49 3318.63 C 1322.01 3339.38, 1285.50 3365.11, 1244.13 3376.70 C 1214.05 3388.79, 1185.74 3393.68, 1159.89 3405.73 C 1069.53 3413.38, 1170.05 3413.69, 1199.00 3416.62 C 1209.70 3412.52, 1218.73 3415.94, 1223.07 3405.73 C 1257.17 3402.10, 1288.26 3402.10, 1319.35 3402.10 C 1354.46 3402.10, 1386.55 3402.10, 1418.64 3402.10 C 1452.35 3402.66, 1482.79 3402.47, 1511.92 3398.47 C 1513.69 3337.06, 1517.85 3264.04, 1511.92 3217.03 Z" fill="rgb(217.75210237659962,223.23875685557587,234.82486288848264)" stroke="rgb(217.75210237659962,223.23875685557587,234.82486288848264)" stroke-width="1" />
<path d="M 1779.70 332.04 C 1770.52 368.07, 1761.98 436.36, 1797.75 455.43 C 1819.09 455.72, 1838.13 454.48, 1857.93 455.43 C 1901.39 454.38, 1937.94 461.42, 1981.29 459.06 C 2010.45 438.61, 1991.20 378.34, 2002.35 342.93 C 2055.53 338.39, 1968.31 333.04, 1954.21 335.67 C 1920.25 331.32, 1892.14 332.66, 1854.92 332.04 C 1828.84 332.04, 1805.77 332.04, 1782.71 332.04 Z" fill="rgb(241.09007633587785,242.13664122137405,245.31870229007635)" stroke="rgb(241.09007633587785,242.13664122137405,245.31870229007635)" stroke-width="1" />
<path d="M 579.19 3126.30 C 574.40 3150.82, 559.70 3177.67, 573.17 3202.51 C 567.79 3245.37, 558.13 3282.47, 561.14 3325.89 C 556.59 3356.34, 559.28 3378.18, 558.13 3409.36 C 590.86 3421.12, 628.67 3414.44, 663.44 3416.62 C 721.03 3433.21, 685.31 3355.00, 699.54 3318.63 C 668.62 3272.38, 638.95 3229.12, 612.29 3184.37 C 604.59 3160.42, 589.86 3145.13, 582.20 3126.30 Z" fill="rgb(245.8878975950349,246.77618308766486,249.2788983708301)" stroke="rgb(245.8878975950349,246.77618308766486,249.2788983708301)" stroke-width="1" />
<path d="M 1725.54 1435.23 C 1683.10 1452.46, 1640.37 1468.82, 1599.17 1489.67 C 1579.33 1495.13, 1561.68 1498.23, 1545.01 1504.18 C 1497.77 1514.35, 1450.15 1526.46, 1403.60 1518.70 C 1357.23 1527.48, 1311.22 1528.57, 1265.20 1529.58 C 1230.27 1518.40, 1192.57 1524.04, 1159.89 1515.07 C 1135.95 1513.42, 1089.61 1510.51, 1102.72 1547.73 C 1136.18 1548.59, 1163.16 1555.94, 1192.98 1554.99 C 1226.12 1553.17, 1254.32 1556.94, 1283.25 1558.62 C 1334.82 1555.06, 1381.06 1567.29, 1427.67 1558.62 C 1443.43 1551.23, 1459.13 1552.42, 1472.80 1547.73 C 1511.83 1540.21, 1547.28 1531.04, 1584.13 1525.96 C 1627.93 1517.04, 1667.80 1509.07, 1707.49 1500.55 C 1713.52 1477.08, 1721.18 1458.04, 1728.55 1438.86 Z" fill="rgb(251.8009861048857,150.82160466158672,58.109367996414164)" stroke="rgb(251.8009861048857,150.82160466158672,58.109367996414164)" stroke-width="1" />
<path d="M 880.07 3039.21 C 832.57 3056.73, 797.03 3109.04, 750.69 3129.93 C 770.88 3205.08, 1002.27 3290.70, 937.24 3151.71 C 916.35 3115.06, 916.70 3055.37, 883.08 3039.21 Z" fill="rgb(239.9,243.0,248.6)" stroke="rgb(239.9,243.0,248.6)" stroke-width="1" />
<path d="M 877.06 3039.21 C 828.42 3080.71, 686.37 3134.06, 801.84 3187.99 C 838.86 3216.75, 975.15 3268.28, 946.26 3173.48 C 922.87 3128.41, 915.41 3059.13, 880.07 3039.21 Z" fill="rgb(214.328125,222.890625,237.3125)" stroke="rgb(214.328125,222.890625,237.3125)" stroke-width="1" />
<path d="M 880.07 3039.21 C 867.89 3048.97, 851.49 3046.44, 840.96 3060.98 C 812.88 3099.53, 772.36 3105.91, 747.68 3137.19 C 782.66 3178.27, 821.30 3205.05, 865.03 3217.03 C 895.36 3222.07, 973.67 3242.22, 949.27 3184.37 C 935.45 3147.26, 920.12 3114.53, 910.16 3079.13 C 901.04 3063.01, 898.56 3037.01, 883.08 3039.21 Z" fill="rgb(234.21880733944954,238.89266055045871,247.09587155963303)" stroke="rgb(234.21880733944954,238.89266055045871,247.09587155963303)" stroke-width="1" />
<path d="M 2778.62 1348.14 C 2765.03 1396.63, 2743.29 1441.04, 2715.43 1482.41 C 2683.02 1532.74, 2649.15 1572.87, 2613.13 1616.68 C 2637.22 1628.75, 2674.30 1621.54, 2703.40 1623.94 C 2731.77 1619.26, 2769.87 1633.44, 2784.63 1616.68 C 2784.63 1588.86, 2784.63 1564.66, 2784.63 1540.47 C 2783.45 1474.03, 2787.49 1408.61, 2781.63 1348.14 Z" fill="rgb(249.88038740920098,244.4135593220339,242.0179176755448)" stroke="rgb(249.88038740920098,244.4135593220339,242.0179176755448)" stroke-width="1" />
<path d="M 1027.50 1021.54 C 1000.78 1046.43, 924.78 998.12, 934.23 1065.08 C 979.30 1098.68, 1026.27 1126.17, 1060.60 1170.32 C 1079.52 1177.94, 1073.69 1205.46, 1090.69 1202.98 C 1117.39 1166.05, 1108.82 1116.64, 1117.77 1075.97 C 1121.73 1056.54, 1132.92 1007.89, 1105.73 1025.17 C 1078.14 1017.00, 1056.69 1028.73, 1030.51 1021.54 Z" fill="rgb(247.23526315789474,248.88,251.5821052631579)" stroke="rgb(247.23526315789474,248.88,251.5821052631579)" stroke-width="1" />
<path d="M 206.10 1870.70 C 197.36 1945.66, 197.85 2033.26, 203.09 2110.21 C 219.92 2131.05, 279.28 2214.76, 281.32 2153.76 C 285.91 2131.65, 283.33 2114.54, 281.32 2095.69 C 291.83 2065.86, 276.57 2033.90, 278.31 2008.60 C 244.00 1967.25, 214.64 1924.93, 209.11 1870.70 Z" fill="rgb(247.72992700729927,215.03649635036496,200.90510948905109)" stroke="rgb(247.72992700729927,215.03649635036496,200.90510948905109)" stroke-width="1" />
<path d="M 410.70 2694.46 C 413.79 2755.04, 477.13 2791.41, 458.84 2854.13 C 491.13 2853.71, 505.97 2887.89, 531.05 2890.42 C 533.59 2851.14, 510.47 2820.33, 522.02 2785.19 C 528.95 2746.60, 588.47 2681.29, 522.02 2694.46 C 483.91 2694.46, 448.81 2694.46, 413.71 2694.46 Z" fill="rgb(234.24740259740258,238.68246753246754,247.92662337662338)" stroke="rgb(234.24740259740258,238.68246753246754,247.92662337662338)" stroke-width="1" />
<path d="M 209.11 1892.47 C 200.40 1960.76, 196.52 2039.27, 203.09 2110.21 C 220.24 2136.18, 244.76 2157.53, 266.28 2175.53 C 289.25 2138.69, 273.55 2059.32, 278.31 2008.60 C 245.31 1976.70, 221.85 1936.51, 209.11 1896.10 Z" fill="rgb(252.64705882352942,239.0420168067227,232.53781512605042)" stroke="rgb(252.64705882352942,239.0420168067227,232.53781512605042)" stroke-width="1" />
<path d="M 305.39 1551.36 C 274.76 1566.23, 220.84 1539.18, 200.08 1565.87 C 203.82 1616.22, 198.34 1661.53, 200.08 1711.03 C 200.08 1752.47, 200.08 1827.95, 200.08 1841.67 C 202.91 1815.88, 200.76 1792.74, 212.12 1776.35 C 229.42 1689.76, 284.92 1615.85, 341.50 1562.24 C 339.26 1549.08, 317.98 1560.45, 308.40 1551.36 Z" fill="rgb(250.0532544378698,238.85650887573965,236.1508875739645)" stroke="rgb(250.0532544378698,238.85650887573965,236.1508875739645)" stroke-width="1" />
<path d="M 209.11 1892.47 C 202.91 1941.29, 203.12 1986.16, 203.09 2037.63 C 203.09 2061.82, 203.09 2082.39, 203.09 2102.95 C 225.11 2126.13, 249.52 2173.93, 275.30 2168.27 C 277.37 2118.02, 280.21 2063.55, 275.30 2015.86 C 241.34 1987.56, 226.34 1935.71, 209.11 1896.10 Z" fill="rgb(253.48257575757575,241.9409090909091,235.8)" stroke="rgb(253.48257575757575,241.9409090909091,235.8)" stroke-width="1" />
<path d="M 2077.57 767.51 C 2052.34 797.14, 2035.76 843.16, 1996.33 840.09 C 1943.73 869.57, 1996.35 887.09, 2017.39 912.67 C 2039.67 927.57, 2060.14 938.96, 2083.59 941.70 C 2080.15 916.60, 2085.17 885.77, 2083.59 858.24 C 2083.20 822.94, 2084.51 794.39, 2080.58 767.51 Z" fill="rgb(205.68762088974856,209.04448742746615,217.2669245647969)" stroke="rgb(205.68762088974856,209.04448742746615,217.2669245647969)" stroke-width="1" />
<path d="M 1195.99 332.04 C 1166.28 364.43, 1225.24 413.21, 1253.16 444.54 C 1305.07 493.48, 1291.88 436.99, 1289.27 390.11 C 1308.35 309.68, 1239.15 335.90, 1199.00 332.04 Z" fill="rgb(243.63882863340564,246.5889370932755,249.85791757049893)" stroke="rgb(243.63882863340564,246.5889370932755,249.85791757049893)" stroke-width="1" />
<path d="M 705.56 3318.63 C 687.55 3388.78, 709.00 3438.13, 774.76 3416.62 C 944.65 3429.00, 764.23 3370.80, 708.57 3322.26 Z" fill="rgb(213.36144578313252,219.25301204819277,232.0)" stroke="rgb(213.36144578313252,219.25301204819277,232.0)" stroke-width="1" />
<path d="M 203.09 1554.99 C 195.34 1584.20, 194.99 1635.43, 233.18 1620.31 C 260.41 1615.61, 286.48 1637.14, 302.38 1605.79 C 312.51 1585.78, 359.34 1565.76, 338.49 1554.99 C 292.35 1554.99, 249.23 1554.99, 206.10 1554.99 Z" fill="rgb(253.02695763799744,242.67394094993583,242.392811296534)" stroke="rgb(253.02695763799744,242.67394094993583,242.392811296534)" stroke-width="1" />
<path d="M 705.56 3318.63 C 701.67 3355.72, 689.41 3437.49, 735.65 3412.99 C 778.72 3416.94, 813.93 3411.93, 862.02 3412.99 C 858.55 3400.70, 840.39 3401.11, 828.92 3394.84 C 784.54 3373.58, 744.49 3352.12, 708.57 3318.63 Z" fill="rgb(210.74657534246575,217.5082191780822,232.05890410958904)" stroke="rgb(210.74657534246575,217.5082191780822,232.05890410958904)" stroke-width="1" />
<path d="M 1614.22 332.04 C 1641.47 355.90, 1723.34 372.99, 1761.65 422.77 C 1811.50 301.70, 1683.29 334.13, 1617.22 332.04 Z" fill="rgb(228.83333333333334,230.77777777777777,234.91666666666666)" stroke="rgb(228.83333333333334,230.77777777777777,234.91666666666666)" stroke-width="1" />
<path d="M 1617.22 332.04 C 1599.12 337.91, 1611.86 336.84, 1623.24 342.93 C 1675.30 361.05, 1723.03 383.03, 1764.65 422.77 C 1763.76 390.26, 1776.71 362.12, 1767.66 335.67 C 1716.51 332.04, 1668.37 332.04, 1620.23 332.04 Z" fill="rgb(201.77433628318585,205.31710914454277,215.42477876106196)" stroke="rgb(201.77433628318585,205.31710914454277,215.42477876106196)" stroke-width="1" />
<path d="M 988.39 1594.90 C 977.64 1635.44, 951.62 1668.33, 919.19 1685.63 C 928.62 1704.94, 954.40 1679.73, 973.34 1682.00 C 1003.33 1671.36, 1060.81 1694.16, 1054.58 1645.71 C 1025.65 1637.87, 1019.02 1592.43, 991.40 1594.90 Z" fill="rgb(252.27316293929712,151.91054313099042,52.757188498402556)" stroke="rgb(252.27316293929712,151.91054313099042,52.757188498402556)" stroke-width="1" />
<path d="M 1292.27 332.04 C 1292.34 367.06, 1289.80 416.04, 1298.29 451.80 C 1304.26 483.44, 1317.89 446.47, 1325.37 437.28 C 1357.77 412.67, 1342.91 369.58, 1346.43 335.67 C 1327.38 332.04, 1311.33 332.04, 1295.28 332.04 Z" fill="rgb(248.92321116928446,252.75043630017453,253.6980802792321)" stroke="rgb(248.92321116928446,252.75043630017453,253.6980802792321)" stroke-width="1" />
<path d="M 1349.44 332.04 C 1323.08 469.01, 1417.70 334.20, 1478.82 339.30 C 1463.77 330.57, 1392.18 332.16, 1352.45 332.04 Z" fill="rgb(156.58333333333334,169.41666666666666,193.625)" stroke="rgb(156.58333333333334,169.41666666666666,193.625)" stroke-width="1" />
<path d="M 1352.45 332.04 C 1340.29 346.59, 1346.38 389.57, 1352.45 404.62 C 1383.31 378.75, 1413.80 360.58, 1445.72 346.56 C 1455.85 340.81, 1496.44 335.15, 1469.79 335.67 C 1431.76 328.38, 1392.44 333.62, 1355.46 332.04 Z" fill="rgb(218.01956521739132,223.37173913043478,233.81304347826088)" stroke="rgb(218.01956521739132,223.37173913043478,233.81304347826088)" stroke-width="1" />
<path d="M 1027.50 1431.60 C 982.09 1428.98, 1024.54 1483.71, 1048.56 1486.04 C 1077.19 1510.62, 1084.48 1484.44, 1084.67 1457.01 C 1075.58 1428.67, 1048.54 1438.35, 1030.51 1431.60 Z" fill="rgb(200.8457300275482,187.35537190082644,180.17355371900825)" stroke="rgb(200.8457300275482,187.35537190082644,180.17355371900825)" stroke-width="1" />
</svg>