<svg xmlns="http://www.w3.org/2000/svg" width="3081" height="3716" viewbox="0 0 3081 3716">
<path d="M 1.50 1.81 C 1.50 76.81, 1.50 151.81, 1.50 226.81 C 1.50 306.64, 1.50 382.85, 1.50 459.06 C 1.50 538.89, 1.50 615.10, 1.50 691.31 C 1.50 771.14, 1.50 847.35, 1.50 923.56 C 1.50 1003.39, 1.50 1079.60, 1.50 1155.81 C 1.50 1235.64, 1.50 1311.85, 1.50 1388.06 C 1.50 1467.89, 1.50 1544.10, 1.50 1620.31 C 1.50 1700.14, 1.50 1776.35, 1.50 1852.56 C 1.50 1932.39, 1.50 2008.60, 1.50 2084.81 C 1.50 2164.64, 1.50 2240.85, 1.50 2317.06 C 1.50 2396.89, 1.50 2473.10, 1.50 2549.31 C 1.50 2629.14, 1.50 2705.35, 1.50 2781.56 C 1.50 2861.39, 1.50 2937.60, 1.50 3013.81 C 1.50 3093.64, 1.50 3169.85, 1.50 3246.06 C 1.50 3325.89, 1.50 3402.10, 1.50 3478.31 C 1.50 3558.14, 1.50 3634.35, 1.50 3710.56 C 63.69 3714.19, 125.87 3714.19, 188.05 3714.19 C 254.24 3714.19, 317.43 3714.19, 380.61 3714.19 C 446.81 3714.19, 509.99 3714.19, 573.17 3714.19 C 639.37 3714.19, 702.55 3714.19, 765.74 3714.19 C 831.93 3714.19, 895.11 3714.19, 958.30 3714.19 C 1024.49 3714.19, 1087.68 3714.19, 1150.86 3714.19 C 1217.06 3714.19, 1280.24 3714.19, 1343.42 3714.19 C 1409.62 3714.19, 1472.80 3714.19, 1535.99 3714.19 C 1602.18 3714.19, 1665.36 3714.19, 1728.55 3714.19 C 1794.74 3714.19, 1857.93 3714.19, 1921.11 3714.19 C 1987.31 3714.19, 2050.49 3714.19, 2113.67 3714.19 C 2179.87 3714.19, 2243.05 3714.19, 2306.24 3714.19 C 2372.43 3714.19, 2435.61 3714.19, 2498.80 3714.19 C 2564.99 3714.19, 2628.18 3714.19, 2691.36 3714.19 C 2757.56 3714.19, 2820.74 3714.19, 2883.92 3714.19 C 2950.12 3714.19, 3013.30 3714.19, 3076.49 3714.19 C 3079.50 3639.19, 3079.50 3564.19, 3079.50 3489.19 C 3079.50 3409.36, 3079.50 3333.15, 3079.50 3256.94 C 3079.50 3177.11, 3079.50 3100.90, 3079.50 3024.69 C 3079.50 2944.86, 3079.50 2868.65, 3079.50 2792.44 C 3079.50 2712.61, 3079.50 2636.40, 3079.50 2560.19 C 3079.50 2480.36, 3079.50 2404.15, 3079.50 2327.94 C 3079.50 2248.11, 3079.50 2171.90, 3079.50 2095.69 C 3079.50 2015.86, 3079.50 1939.65, 3079.50 1863.44 C 3079.50 1783.61, 3079.50 1707.40, 3079.50 1631.19 C 3079.50 1551.36, 3079.50 1475.15, 3079.50 1398.94 C 3079.50 1319.11, 3079.50 1242.90, 3079.50 1166.69 C 3079.50 1086.86, 3079.50 1010.65, 3079.50 934.44 C 3079.50 854.61, 3079.50 778.40, 3079.50 702.19 C 3079.50 622.36, 3079.50 546.15, 3079.50 469.94 C 3079.50 390.11, 3079.50 313.90, 3079.50 237.69 C 3079.50 157.86, 3079.50 81.65, 3079.50 5.44 C 3017.31 1.81, 2955.13 1.81, 2892.95 1.81 C 2826.76 1.81, 2763.57 1.81, 2700.39 1.81 C 2634.19 1.81, 2571.01 1.81, 2507.83 1.81 C 2441.63 1.81, 2378.45 1.81, 2315.26 1.81 C 2249.07 1.81, 2185.89 1.81, 2122.70 1.81 C 2056.51 1.81, 1993.32 1.81, 1930.14 1.81 C 1863.94 1.81, 1800.76 1.81, 1737.58 1.81 C 1671.38 1.81, 1608.20 1.81, 1545.01 1.81 C 1478.82 1.81, 1415.64 1.81, 1352.45 1.81 C 1286.26 1.81, 1223.07 1.81, 1159.89 1.81 C 1093.69 1.81, 1030.51 1.81, 967.33 1.81 C 901.13 1.81, 837.95 1.81, 774.76 1.81 C 708.57 1.81, 645.39 1.81, 582.20 1.81 C 516.01 1.81, 452.82 1.81, 389.64 1.81 C 323.44 1.81, 260.26 1.81, 197.08 1.81 C 130.88 1.81, 67.70 1.81, 4.51 1.81 Z" fill="rgb(nan,nan,nan)" stroke="rgb(nan,nan,nan)" stroke-width="1" />
<path d="M 1.50 1.81 C 1.50 76.81, 1.50 151.81, 1.50 226.81 C 1.50 306.64, 1.50 382.85, 1.50 459.06 C 1.50 538.89, 1.50 615.10, 1.50 691.31 C 1.50 771.14, 1.50 847.35, 1.50 923.56 C 1.50 1003.39, 1.50 1079.60, 1.50 1155.81 C 1.50 1235.64, 1.50 1311.85, 1.50 1388.06 C 1.50 1467.89, 1.50 1544.10, 1.50 1620.31 C 1.50 1700.14, 1.50 1776.35, 1.50 1852.56 C 1.50 1932.39, 1.50 2008.60, 1.50 2084.81 C 1.50 2164.64, 1.50 2240.85, 1.50 2317.06 C 1.50 2396.89, 1.50 2473.10, 1.50 2549.31 C 1.50 2629.14, 1.50 2705.35, 1.50 2781.56 C 1.50 2861.39, 1.50 2937.60, 1.50 3013.81 C 1.50 3093.64, 1.50 3169.85, 1.50 3246.06 C 1.50 3325.89, 1.50 3402.10, 1.50 3478.31 C 1.50 3558.14, 1.50 3634.35, 1.50 3710.56 C 63.69 3714.19, 125.87 3714.19, 188.05 3714.19 C 254.24 3714.19, 317.43 3714.19, 380.61 3714.19 C 446.81 3714.19, 509.99 3714.19, 573.17 3714.19 C 639.37 3714.19, 702.55 3714.19, 765.74 3714.19 C 831.93 3714.19, 895.11 3714.19, 958.30 3714.19 C 1024.49 3714.19, 1087.68 3714.19, 1150.86 3714.19 C 1217.06 3714.19, 1280.24 3714.19, 1343.42 3714.19 C 1409.62 3714.19, 1472.80 3714.19, 1535.99 3714.19 C 1602.18 3714.19, 1665.36 3714.19, 1728.55 3714.19 C 1794.74 3714.19, 1857.93 3714.19, 1921.11 3714.19 C 1987.31 3714.19, 2050.49 3714.19, 2113.67 3714.19 C 2179.87 3714.19, 2243.05 3714.19, 2306.24 3714.19 C 2372.43 3714.19, 2435.61 3714.19, 2498.80 3714.19 C 2564.99 3714.19, 2628.18 3714.19, 2691.36 3714.19 C 2757.56 3714.19, 2820.74 3714.19, 2883.92 3714.19 C 2950.12 3714.19, 3013.30 3714.19, 3076.49 3714.19 C 3079.50 3639.19, 3079.50 3564.19, 3079.50 3489.19 C 3079.50 3409.36, 3079.50 3333.15, 3079.50 3256.94 C 3079.50 3177.11, 3079.50 3100.90, 3079.50 3024.69 C 3079.50 2944.86, 3079.50 2868.65, 3079.50 2792.44 C 3079.50 2712.61, 3079.50 2636.40, 3079.50 2560.19 C 3079.50 2480.36, 3079.50 2404.15, 3079.50 2327.94 C 3079.50 2248.11, 3079.50 2171.90, 3079.50 2095.69 C 3079.50 2015.86, 3079.50 1939.65, 3079.50 1863.44 C 3079.50 1783.61, 3079.50 1707.40, 3079.50 1631.19 C 3079.50 1551.36, 3079.50 1475.15, 3079.50 1398.94 C 3079.50 1319.11, 3079.50 1242.90, 3079.50 1166.69 C 3079.50 1086.86, 3079.50 1010.65, 3079.50 934.44 C 3079.50 854.61, 3079.50 778.40, 3079.50 702.19 C 3079.50 622.36, 3079.50 546.15, 3079.50 469.94 C 3079.50 390.11, 3079.50 313.90, 3079.50 237.69 C 3079.50 157.86, 3079.50 81.65, 3079.50 5.44 C 3017.31 1.81, 2955.13 1.81, 2892.95 1.81 C 2826.76 1.81, 2763.57 1.81, 2700.39 1.81 C 2634.19 1.81, 2571.01 1.81, 2507.83 1.81 C 2441.63 1.81, 2378.45 1.81, 2315.26 1.81 C 2249.07 1.81, 2185.89 1.81, 2122.70 1.81 C 2056.51 1.81, 1993.32 1.81, 1930.14 1.81 C 1863.94 1.81, 1800.76 1.81, 1737.58 1.81 C 1671.38 1.81, 1608.20 1.81, 1545.01 1.81 C 1478.82 1.81, 1415.64 1.81, 1352.45 1.81 C 1286.26 1.81, 1223.07 1.81, 1159.89 1.81 C 1093.69 1.81, 1030.51 1.81, 967.33 1.81 C 901.13 1.81, 837.95 1.81, 774.76 1.81 C 708.57 1.81, 645.39 1.81, 582.20 1.81 C 516.01 1.81, 452.82 1.81, 389.64 1.81 C 323.44 1.81, 260.26 1.81, 197.08 1.81 C 130.88 1.81, 67.70 1.81, 4.51 1.81 Z" fill="rgb(252.98110075008842,252.23563943641,252.33439797494742)" stroke="rgb(252.98110075008842,252.23563943641,252.33439797494742)" stroke-width="1" />
<path d="M 3073.48 2356.97 C 3031.07 2375.49, 2989.81 2358.20, 2947.11 2367.86 C 2899.15 2366.07, 2856.80 2377.03, 2817.73 2371.49 C 2782.06 2391.32, 2736.86 2388.21, 2691.36 2389.63 C 2645.23 2389.63, 2602.10 2389.63, 2558.98 2389.63 C 2513.28 2395.21, 2470.25 2388.33, 2429.60 2389.63 C 2384.47 2389.63, 2342.34 2389.63, 2300.22 2389.63 C 2239.53 2369.56, 2255.02 2448.70, 2252.08 2494.87 C 2252.08 2550.52, 2252.08 2602.53, 2252.08 2654.54 C 2252.08 2708.98, 2252.08 2759.78, 2252.08 2810.59 C 2250.27 2867.34, 2254.37 2918.50, 2249.07 2966.63 C 2250.70 3012.83, 2266.12 3092.04, 2206.95 3079.13 C 2160.81 3079.13, 2117.69 3079.13, 2074.56 3079.13 C 2039.60 3101.53, 2060.46 3178.95, 2053.50 3220.65 C 2053.01 3274.47, 2059.53 3325.84, 2053.50 3376.70 C 2051.65 3435.42, 1979.18 3398.67, 1945.18 3409.36 C 1899.05 3409.36, 1855.92 3409.36, 1812.80 3409.36 C 1721.31 3405.66, 1639.57 3420.25, 1554.04 3409.36 C 1508.88 3408.59, 1467.95 3418.27, 1424.66 3416.62 C 1381.49 3412.43, 1336.22 3427.07, 1292.27 3416.62 C 1250.79 3417.16, 1208.78 3426.94, 1162.90 3423.87 C 1116.38 3421.06, 1076.52 3428.84, 1033.52 3427.50 C 988.39 3427.50, 946.26 3427.50, 904.14 3427.50 C 857.29 3422.08, 810.65 3426.41, 771.75 3427.50 C 723.62 3428.54, 687.45 3424.31, 642.38 3423.87 C 595.89 3421.13, 555.83 3428.36, 513.00 3427.50 C 423.74 3427.50, 337.49 3427.50, 251.23 3427.50 C 204.25 3428.58, 159.89 3416.48, 121.86 3427.50 C 80.34 3442.08, 22.67 3418.89, 1.50 3449.28 C 1.50 3503.71, 1.50 3554.51, 1.50 3605.32 C 5.87 3655.70, -18.51 3737.11, 43.63 3714.19 C 131.89 3714.19, 217.13 3714.19, 302.38 3714.19 C 391.64 3714.19, 477.90 3714.19, 564.15 3714.19 C 652.41 3714.19, 737.65 3714.19, 822.90 3714.19 C 912.16 3714.19, 998.42 3714.19, 1084.67 3714.19 C 1172.93 3714.19, 1258.18 3714.19, 1343.42 3714.19 C 1432.69 3714.19, 1518.94 3714.19, 1605.19 3714.19 C 1693.45 3714.19, 1778.70 3714.19, 1863.94 3714.19 C 1953.21 3714.19, 2039.46 3714.19, 2125.71 3714.19 C 2213.97 3714.19, 2299.22 3714.19, 2384.47 3714.19 C 2473.73 3714.19, 2559.98 3714.19, 2646.23 3714.19 C 2734.49 3714.19, 2819.74 3714.19, 2904.99 3714.19 C 2950.12 3714.19, 2992.24 3714.19, 3034.36 3714.19 C 3099.51 3737.11, 3075.13 3655.70, 3079.50 3608.95 C 3079.50 3502.50, 3079.50 3399.68, 3079.50 3296.86 C 3079.50 3189.20, 3079.50 3085.18, 3079.50 2981.15 C 3079.50 2874.70, 3079.50 2771.88, 3079.50 2669.06 C 3077.49 2563.82, 3083.50 2452.54, 3076.49 2356.97 Z" fill="rgb(255.0,255.0,255.0)" stroke="rgb(255.0,255.0,255.0)" stroke-width="1" />
<path d="M 2288.18 1050.57 C 2217.84 1064.49, 2143.72 1067.38, 2071.55 1075.97 C 2018.87 1068.15, 2020.99 1117.50, 2008.37 1159.44 C 2011.57 1209.40, 2057.45 1244.64, 2032.44 1293.71 C 2034.21 1335.92, 2054.21 1388.24, 2065.53 1413.46 C 2101.22 1439.46, 2144.83 1451.53, 2149.78 1504.18 C 2172.69 1537.64, 2163.80 1588.72, 2161.81 1631.19 C 2163.47 1682.70, 2141.50 1718.78, 2140.75 1765.46 C 2127.21 1812.03, 2118.35 1862.02, 2080.58 1881.59 C 2034.47 1879.54, 2000.60 1838.23, 1972.26 1801.75 C 1914.54 1726.84, 1926.70 1622.14, 1900.05 1536.84 C 1871.48 1493.95, 1828.91 1483.27, 1794.74 1460.63 C 1756.75 1426.35, 1721.86 1428.77, 1683.42 1449.75 C 1612.10 1486.52, 1538.58 1504.47, 1463.78 1518.70 C 1386.03 1517.94, 1317.87 1533.02, 1244.13 1522.33 C 1169.11 1510.17, 1084.37 1523.07, 1027.50 1475.15 C 992.12 1415.54, 951.88 1468.47, 919.19 1493.29 C 881.73 1535.20, 841.86 1566.58, 813.88 1609.42 C 773.53 1634.36, 742.04 1672.69, 705.56 1696.51 C 666.08 1708.75, 634.90 1732.76, 594.24 1729.17 C 545.70 1735.91, 522.19 1649.92, 573.17 1634.82 C 621.30 1633.59, 647.94 1584.93, 675.47 1544.10 C 706.40 1501.06, 718.28 1453.63, 744.68 1413.46 C 762.64 1377.77, 836.58 1304.98, 768.75 1333.62 C 688.93 1352.90, 621.61 1399.80, 549.10 1431.60 C 467.95 1472.90, 393.59 1521.56, 326.45 1591.28 C 265.57 1651.95, 206.45 1732.01, 215.13 1838.04 C 209.50 1951.07, 292.18 2017.83, 362.56 2055.78 C 433.10 2091.17, 503.05 2119.52, 582.20 2121.10 C 657.42 2124.73, 727.77 2133.78, 801.84 2131.98 C 873.29 2131.95, 952.85 2135.93, 1021.48 2124.72 C 1094.10 2120.17, 1171.08 2120.28, 1241.13 2106.58 C 1316.79 2099.40, 1392.31 2100.57, 1460.77 2081.18 C 1533.18 2055.57, 1615.09 2066.36, 1683.42 2037.63 C 1758.44 2017.71, 1833.68 2007.16, 1903.06 1979.57 C 1976.14 1946.71, 2056.54 1943.97, 2122.70 1899.73 C 2197.94 1867.13, 2271.42 1838.16, 2342.34 1801.75 C 2420.79 1760.34, 2495.88 1721.55, 2561.98 1656.60 C 2605.29 1629.66, 2626.05 1583.83, 2661.27 1547.73 C 2695.73 1505.99, 2718.89 1466.49, 2742.51 1424.35 C 2756.08 1381.07, 2777.94 1344.62, 2778.62 1297.33 C 2777.24 1243.36, 2766.77 1198.59, 2733.48 1166.69 C 2664.79 1117.46, 2594.28 1082.25, 2513.84 1075.97 C 2437.82 1064.50, 2368.71 1045.29, 2291.19 1050.57 Z" fill="rgb(180.02011494252875,58.64655172413793,16.639367816091955)" stroke="rgb(180.02011494252875,58.64655172413793,16.639367816091955)" stroke-width="1" />
<path d="M 1514.93 339.30 C 1454.47 346.38, 1400.87 373.39, 1352.45 415.51 C 1331.15 439.67, 1315.71 482.79, 1283.25 469.94 C 1246.61 466.45, 1233.39 422.42, 1208.03 404.62 C 1192.43 376.48, 1158.01 360.24, 1132.81 364.71 C 1096.75 373.07, 1098.18 419.54, 1102.72 451.80 C 1126.43 529.49, 1167.92 585.52, 1211.04 644.13 C 1257.79 716.95, 1186.77 780.27, 1171.92 843.72 C 1151.18 911.53, 1138.13 978.06, 1129.80 1046.94 C 1115.31 1108.33, 1128.81 1204.21, 1081.66 1228.38 C 1022.67 1230.92, 965.07 1250.17, 913.17 1275.56 C 848.86 1289.09, 801.71 1339.07, 768.75 1395.31 C 715.76 1460.70, 703.91 1533.91, 648.39 1591.28 C 631.47 1629.90, 596.26 1627.09, 576.18 1649.34 C 533.73 1658.14, 551.13 1715.16, 582.20 1718.29 C 643.48 1717.30, 705.28 1699.31, 744.68 1656.60 C 801.15 1623.59, 843.94 1560.82, 892.11 1511.44 C 939.69 1474.23, 987.13 1409.29, 1051.57 1435.23 C 1093.92 1412.77, 1081.63 1482.51, 1093.69 1500.55 C 1119.70 1517.27, 1152.28 1506.10, 1177.94 1515.07 C 1223.58 1503.92, 1213.98 1534.30, 1247.14 1533.21 C 1276.24 1529.13, 1304.11 1531.35, 1331.39 1529.58 C 1384.92 1530.68, 1406.27 1505.10, 1478.82 1515.07 C 1507.46 1507.06, 1536.77 1499.28, 1563.07 1504.18 C 1585.60 1500.24, 1602.21 1472.34, 1635.28 1471.52 C 1678.78 1453.13, 1739.10 1398.16, 1785.72 1446.12 C 1846.53 1471.63, 1896.03 1496.13, 1927.13 1554.99 C 1919.26 1634.54, 1942.06 1678.86, 1954.21 1740.06 C 1975.52 1746.10, 1967.71 1801.31, 2002.35 1809.01 C 2024.94 1833.46, 2033.19 1870.47, 2068.54 1859.81 C 2132.14 1840.07, 2133.97 1749.94, 2143.76 1685.63 C 2162.49 1619.49, 2159.77 1553.42, 2137.74 1486.04 C 2115.88 1458.14, 2090.53 1431.99, 2062.52 1417.09 C 2044.60 1381.54, 2027.79 1357.10, 2026.42 1319.11 C 2015.88 1280.29, 1988.42 1256.67, 1975.27 1221.13 C 1983.78 1184.61, 2001.24 1159.71, 2005.36 1123.15 C 2020.49 1097.09, 2015.22 1047.43, 2047.48 1043.31 C 2072.05 1021.25, 2113.42 1024.13, 2119.69 988.88 C 2158.74 963.46, 2095.16 955.40, 2077.57 952.59 C 2044.27 941.26, 2019.00 926.73, 1996.33 901.78 C 1938.67 862.56, 1901.67 799.36, 1882.00 727.60 C 1865.38 658.03, 1858.81 585.23, 1830.85 528.01 C 1797.25 457.11, 1744.50 405.43, 1686.43 375.59 C 1633.47 348.31, 1578.83 334.69, 1517.93 339.30 Z" fill="rgb(175.60538116591928,130.91928251121075,118.3542600896861)" stroke="rgb(175.60538116591928,130.91928251121075,118.3542600896861)" stroke-width="1" />
<path d="M 1517.93 339.30 C 1456.11 344.11, 1401.74 370.60, 1352.45 411.88 C 1331.19 438.01, 1316.31 482.98, 1283.25 469.94 C 1248.96 462.12, 1232.61 423.97, 1208.03 404.62 C 1182.50 329.10, 1063.34 354.64, 1099.71 444.54 C 1119.19 524.41, 1166.81 585.47, 1208.03 644.13 C 1260.55 715.99, 1179.25 783.18, 1165.91 847.35 C 1148.87 916.22, 1131.94 981.52, 1129.80 1054.20 C 1109.59 1118.36, 1127.20 1212.16, 1078.65 1246.53 C 1046.58 1249.51, 1022.92 1242.12, 994.40 1257.42 C 929.88 1257.19, 1044.36 1262.67, 1000.42 1275.56 C 942.13 1277.10, 874.02 1281.26, 843.97 1315.48 C 890.88 1342.88, 806.58 1318.00, 804.85 1355.40 C 789.12 1388.34, 753.49 1405.00, 747.68 1442.49 C 705.42 1508.23, 678.99 1574.50, 627.33 1627.56 C 602.89 1649.20, 560.83 1640.26, 552.11 1674.74 C 555.14 1718.83, 597.15 1725.52, 624.32 1714.66 C 689.52 1700.14, 736.02 1652.34, 789.81 1616.68 C 842.86 1560.34, 883.20 1497.49, 943.26 1457.01 C 962.01 1429.28, 995.00 1427.92, 1021.48 1417.09 C 1024.05 1415.59, 1001.60 1371.33, 1048.56 1391.69 C 1043.47 1443.62, 1090.33 1396.49, 1087.68 1453.38 C 1081.39 1501.55, 1117.80 1505.12, 1147.85 1507.81 C 1207.44 1507.21, 1261.68 1524.89, 1316.35 1518.70 C 1373.21 1511.27, 1430.22 1513.02, 1484.84 1507.81 C 1542.90 1489.37, 1602.48 1484.08, 1653.33 1453.38 C 1683.78 1442.32, 1711.46 1432.00, 1737.58 1417.09 C 1766.79 1441.91, 1797.01 1455.03, 1824.83 1475.15 C 1856.37 1489.34, 1887.12 1506.45, 1906.07 1540.47 C 1923.86 1570.88, 1909.45 1613.74, 1924.12 1642.08 C 1934.55 1719.72, 1954.62 1799.35, 2014.38 1841.67 C 2074.61 1921.25, 2131.01 1828.04, 2134.74 1758.21 C 2150.84 1691.72, 2160.09 1619.66, 2155.80 1551.36 C 2157.60 1456.67, 2067.53 1445.99, 2044.47 1377.17 C 2028.48 1343.36, 2028.12 1305.37, 2011.38 1275.56 C 1993.25 1237.67, 1955.75 1204.33, 1996.33 1170.32 C 2007.51 1135.11, 2014.12 1101.24, 2023.41 1068.71 C 2049.95 1036.60, 2078.33 1022.26, 2107.66 1010.65 C 2191.23 941.40, 2045.72 963.31, 2017.39 916.30 C 1957.54 877.93, 1911.43 810.70, 1888.02 738.48 C 1866.64 668.78, 1864.20 593.24, 1833.86 531.63 C 1804.19 456.88, 1748.99 412.22, 1692.44 379.22 C 1639.27 348.45, 1582.85 335.90, 1520.94 339.30 Z" fill="rgb(77.06047197640117,90.23156342182891,132.97787610619469)" stroke="rgb(77.06047197640117,90.23156342182891,132.97787610619469)" stroke-width="1" />
<path d="M 1505.90 339.30 C 1460.74 347.40, 1418.30 363.41, 1379.53 390.11 C 1333.41 414.95, 1310.34 514.71, 1259.18 455.43 C 1212.29 427.69, 1190.42 339.72, 1135.82 357.45 C 1071.44 355.98, 1090.89 447.48, 1111.75 484.46 C 1133.37 544.63, 1168.69 592.82, 1205.02 640.50 C 1258.26 690.93, 1205.72 750.37, 1186.97 796.54 C 1169.13 850.58, 1148.02 897.86, 1141.84 952.59 C 1131.42 1006.53, 1127.53 1060.11, 1120.77 1112.26 C 1116.03 1169.33, 1099.28 1215.28, 1096.70 1268.30 C 1082.13 1320.55, 1078.09 1370.95, 1084.67 1424.35 C 1080.55 1491.78, 1115.33 1514.02, 1165.91 1507.81 C 1211.59 1509.84, 1251.07 1521.17, 1295.28 1518.70 C 1341.92 1520.66, 1382.28 1513.10, 1424.66 1511.44 C 1473.97 1517.54, 1511.79 1498.98, 1554.04 1493.29 C 1601.56 1483.32, 1641.48 1459.98, 1683.42 1442.49 C 1738.44 1411.03, 1764.89 1415.33, 1809.79 1457.01 C 1854.22 1481.49, 1907.22 1502.93, 1921.11 1562.24 C 1925.73 1615.17, 1924.69 1678.29, 1948.19 1711.03 C 1950.66 1775.08, 1993.37 1813.19, 2023.41 1845.30 C 2067.02 1897.28, 2119.09 1853.52, 2122.70 1794.49 C 2138.62 1743.00, 2145.18 1690.47, 2152.79 1638.45 C 2151.73 1586.42, 2156.75 1525.02, 2134.74 1482.41 C 2106.71 1453.87, 2050.68 1419.09, 2038.45 1362.65 C 2027.20 1301.66, 1992.87 1258.72, 1975.27 1206.61 C 2007.15 1163.35, 2001.60 1099.04, 2029.43 1054.20 C 2053.92 1022.47, 2163.54 996.16, 2110.67 959.85 C 2060.52 951.46, 2018.57 927.99, 1981.29 890.90 C 1939.44 849.76, 1903.06 798.65, 1888.02 742.11 C 1862.81 630.60, 1850.78 509.51, 1770.67 437.28 C 1693.39 367.32, 1609.45 329.14, 1508.91 339.30 Z" fill="rgb(149.43182621989482,174.19282153084393,223.69233665331828)" stroke="rgb(149.43182621989482,174.19282153084393,223.69233665331828)" stroke-width="1" />
<path d="M 2026.42 1946.91 C 1984.40 1964.65, 1937.34 1967.72, 1897.04 1990.46 C 1850.80 2005.18, 1807.12 2018.58, 1761.65 2026.74 C 1713.40 2034.41, 1672.10 2053.54, 1626.25 2059.40 C 1579.49 2067.76, 1533.45 2069.45, 1490.85 2081.18 C 1405.38 2110.13, 1310.67 2103.44, 1223.07 2117.47 C 1169.17 2115.50, 1125.12 2125.08, 1138.83 2197.30 C 1142.57 2255.67, 1145.83 2304.70, 1150.86 2360.60 C 1153.22 2415.91, 1158.84 2471.11, 1156.88 2520.28 C 1148.04 2575.64, 1163.05 2632.96, 1156.88 2683.58 C 1152.52 2741.76, 1144.19 2794.33, 1135.82 2846.88 C 1126.01 2905.34, 1110.31 2957.24, 1096.70 3010.18 C 1070.73 3067.88, 1041.53 3120.34, 1006.44 3169.85 C 969.66 3226.96, 922.49 3244.96, 871.04 3227.91 C 819.14 3211.97, 776.69 3191.79, 744.68 3148.08 C 701.87 3105.46, 670.12 3046.72, 624.32 3024.69 C 563.11 2986.68, 577.14 3094.84, 591.23 3129.93 C 623.79 3186.49, 651.55 3244.80, 690.52 3289.60 C 731.52 3335.73, 776.46 3360.22, 822.90 3383.96 C 866.19 3403.64, 911.01 3410.10, 958.30 3409.36 C 1054.21 3411.99, 1144.55 3407.17, 1226.08 3376.70 C 1276.47 3361.97, 1318.80 3336.16, 1361.48 3311.38 C 1409.49 3281.27, 1453.71 3248.86, 1496.87 3213.40 C 1543.86 3170.08, 1588.62 3121.81, 1626.25 3071.87 C 1671.11 3017.39, 1699.65 2959.88, 1740.58 2908.57 C 1779.99 2854.37, 1808.08 2799.64, 1836.87 2745.27 C 1870.02 2691.45, 1887.26 2634.81, 1912.09 2581.97 C 1932.09 2527.09, 1938.47 2469.04, 1960.23 2418.67 C 1974.93 2362.65, 1990.87 2310.87, 1999.34 2255.37 C 2009.05 2196.85, 2022.85 2144.01, 2038.45 2092.06 C 2037.50 2047.10, 2073.72 1959.62, 2029.43 1946.91 Z" fill="rgb(84.21428571428571,112.85576923076923,173.5151098901099)" stroke="rgb(84.21428571428571,112.85576923076923,173.5151098901099)" stroke-width="1" />
<path d="M 786.80 1326.37 C 737.57 1342.56, 687.67 1356.77, 642.38 1384.43 C 590.33 1410.83, 540.93 1432.58, 494.95 1464.26 C 440.98 1491.15, 394.17 1530.09, 347.52 1569.50 C 300.82 1620.08, 249.44 1663.98, 236.19 1732.80 C 207.61 1782.89, 209.40 1860.48, 227.16 1910.62 C 249.56 1974.24, 299.65 2022.71, 350.52 2044.89 C 398.55 2075.75, 448.37 2092.63, 497.95 2110.21 C 548.36 2120.15, 600.40 2116.54, 648.39 2124.72 C 699.09 2128.48, 746.37 2133.40, 795.82 2131.98 C 842.03 2134.11, 893.50 2130.63, 943.26 2131.98 C 995.60 2131.84, 1040.47 2118.68, 1090.69 2121.10 C 1142.34 2114.81, 1192.55 2113.08, 1241.13 2106.58 C 1291.12 2099.60, 1339.87 2097.75, 1388.56 2095.69 C 1441.84 2088.60, 1487.10 2070.53, 1535.99 2063.03 C 1587.39 2055.29, 1637.06 2051.30, 1683.42 2037.63 C 1733.78 2019.12, 1787.05 2017.82, 1833.86 1997.71 C 1886.02 1986.16, 1931.01 1962.46, 1981.29 1954.17 C 2024.96 1931.90, 2097.15 1917.22, 2080.58 1885.22 C 2024.65 1870.66, 1975.26 1821.29, 1948.19 1761.83 C 1924.32 1703.85, 1913.70 1644.37, 1912.09 1580.39 C 1902.60 1503.26, 1831.20 1490.17, 1788.73 1457.01 C 1740.01 1411.26, 1690.76 1455.20, 1641.29 1467.89 C 1593.82 1496.74, 1542.37 1501.61, 1493.86 1515.07 C 1443.95 1525.21, 1391.98 1520.60, 1343.42 1525.96 C 1291.68 1529.36, 1244.96 1529.27, 1195.99 1518.70 C 1142.30 1517.63, 1093.58 1510.84, 1048.56 1493.29 C 1019.20 1485.49, 1008.24 1433.36, 979.36 1446.12 C 949.97 1462.38, 928.10 1488.13, 904.14 1507.81 C 852.37 1555.26, 810.65 1618.88, 756.71 1652.97 C 713.47 1701.39, 660.71 1713.35, 609.28 1729.17 C 540.31 1748.59, 521.76 1625.27, 597.24 1627.56 C 648.69 1608.06, 682.58 1536.44, 708.57 1482.41 C 721.94 1423.78, 808.96 1351.91, 789.81 1326.37 Z" fill="rgb(248.34185735053399,108.15488604754982,21.848925722004097)" stroke="rgb(248.34185735053399,108.15488604754982,21.848925722004097)" stroke-width="1" />
<path d="M 2008.37 1950.54 C 1965.27 1969.27, 1917.67 1974.88, 1875.98 1997.71 C 1828.34 2007.14, 1786.39 2024.38, 1740.58 2030.37 C 1691.73 2035.06, 1654.23 2064.04, 1605.19 2059.40 C 1554.15 2061.85, 1512.07 2078.00, 1466.78 2084.81 C 1421.21 2096.60, 1376.41 2101.91, 1331.39 2106.58 C 1284.71 2112.77, 1239.10 2113.27, 1195.99 2121.10 C 1130.09 2101.26, 1136.09 2176.54, 1138.83 2229.96 C 1139.54 2289.67, 1148.96 2341.40, 1150.86 2396.89 C 1160.92 2451.28, 1155.51 2506.95, 1153.87 2560.19 C 1156.90 2617.96, 1162.94 2670.91, 1153.87 2723.49 C 1145.87 2780.36, 1141.64 2835.48, 1129.80 2886.79 C 1111.07 2944.02, 1107.65 3005.26, 1078.65 3053.72 C 1048.89 3113.63, 1013.56 3168.56, 970.33 3213.40 C 924.77 3249.46, 876.74 3236.88, 831.93 3217.03 C 784.21 3192.06, 743.24 3164.09, 714.59 3115.42 C 660.04 3074.16, 626.37 3029.55, 633.35 3024.69 C 569.45 3008.26, 575.16 3112.42, 606.27 3144.45 C 626.14 3154.67, 649.22 3247.50, 687.51 3282.35 C 729.31 3332.96, 775.56 3358.25, 822.90 3380.33 C 868.47 3403.56, 914.95 3407.03, 961.31 3405.73 C 1004.36 3407.48, 1056.17 3408.33, 1096.70 3402.10 C 1147.55 3399.09, 1192.49 3387.63, 1235.11 3369.44 C 1285.52 3358.41, 1325.30 3325.18, 1370.50 3307.75 C 1419.50 3271.52, 1465.72 3239.63, 1508.91 3198.88 C 1553.99 3158.23, 1599.04 3104.02, 1635.28 3057.35 C 1676.57 3006.84, 1704.78 2952.25, 1743.59 2901.31 C 1783.53 2847.37, 1810.02 2791.85, 1839.87 2738.01 C 1870.94 2681.94, 1892.15 2626.08, 1915.09 2571.08 C 1931.61 2514.96, 1945.18 2461.00, 1960.23 2407.78 C 1977.47 2350.32, 1993.99 2297.62, 2002.35 2240.85 C 2008.41 2181.01, 2031.50 2133.31, 2038.45 2077.55 C 2039.56 2030.98, 2075.33 1933.73, 2011.38 1950.54 Z" fill="rgb(128.66471151277713,159.33053601638323,220.40253539310837)" stroke="rgb(128.66471151277713,159.33053601638323,220.40253539310837)" stroke-width="1" />
<path d="M 2071.55 1950.54 C 2049.31 1977.66, 2058.94 2029.19, 2050.49 2066.66 C 2041.62 2112.50, 2029.98 2153.33, 2017.39 2193.67 C 2005.94 2283.36, 1984.36 2364.35, 1960.23 2444.07 C 1936.68 2533.72, 1908.80 2616.08, 1872.97 2694.46 C 1824.92 2784.11, 1781.64 2871.00, 1719.52 2948.49 C 1670.64 3035.41, 1600.76 3113.71, 1539.00 3187.99 C 1495.59 3228.81, 1514.35 3247.25, 1514.93 3300.49 C 1531.40 3358.82, 1501.58 3381.81, 1463.78 3373.07 C 1402.60 3376.83, 1477.85 3402.66, 1502.89 3387.58 C 1535.95 3401.80, 1574.27 3391.91, 1608.20 3394.84 C 1681.75 3392.14, 1748.45 3400.65, 1818.81 3398.47 C 1890.02 3398.47, 1958.22 3398.47, 2026.42 3398.47 C 2054.70 3379.20, 2035.45 3321.70, 2041.46 3285.97 C 2048.42 3244.19, 2042.52 3199.61, 2044.47 3158.96 C 2044.43 3116.04, 2038.36 3058.26, 2083.59 3068.24 C 2120.69 3068.24, 2154.79 3068.24, 2188.89 3068.24 C 2239.60 3084.78, 2241.04 3031.50, 2237.03 2988.40 C 2237.03 2943.65, 2237.03 2902.52, 2237.03 2861.39 C 2237.03 2775.51, 2237.03 2693.25, 2237.03 2611.00 C 2237.03 2523.90, 2237.03 2440.44, 2237.03 2356.97 C 2237.03 2271.09, 2237.03 2188.84, 2237.03 2106.58 C 2249.26 2047.51, 2214.61 2023.00, 2179.87 2008.60 C 2142.34 1990.45, 2109.88 1966.35, 2074.56 1950.54 Z" fill="rgb(240.9487951807229,242.92469879518072,246.28614457831324)" stroke="rgb(240.9487951807229,242.92469879518072,246.28614457831324)" stroke-width="1" />
<path d="M 2074.56 1950.54 C 2048.84 1969.11, 2064.39 2024.46, 2050.49 2055.78 C 2049.29 2102.02, 2031.69 2136.45, 2023.41 2175.53 C 2006.54 2257.17, 1996.75 2338.71, 1969.25 2411.41 C 1944.02 2493.88, 1926.69 2575.16, 1891.02 2647.29 C 1855.88 2733.03, 1811.93 2810.74, 1764.65 2886.79 C 1707.03 2967.04, 1658.87 3047.89, 1599.17 3119.04 C 1572.72 3146.53, 1514.46 3203.01, 1578.11 3187.99 C 1609.99 3187.26, 1647.75 3186.89, 1677.40 3187.99 C 1721.12 3171.00, 1738.29 3215.03, 1725.54 3253.31 C 1726.33 3297.41, 1726.29 3333.66, 1722.53 3373.07 C 1759.52 3417.10, 1844.76 3390.08, 1906.07 3398.47 C 1940.17 3398.47, 1971.26 3398.47, 2002.35 3398.47 C 2050.99 3409.50, 2041.63 3352.97, 2041.46 3315.01 C 2045.68 3235.06, 2041.68 3154.65, 2047.48 3079.13 C 2105.89 3050.14, 2193.56 3093.32, 2237.03 3050.10 C 2237.03 2967.84, 2237.03 2889.21, 2237.03 2810.59 C 2237.03 2729.54, 2237.03 2652.13, 2237.03 2574.71 C 2237.03 2492.45, 2237.03 2413.83, 2237.03 2335.20 C 2234.65 2259.42, 2233.23 2177.65, 2234.03 2099.32 C 2247.24 2040.25, 2206.32 2027.45, 2176.86 2008.60 C 2141.52 1991.14, 2110.27 1970.55, 2077.57 1954.17 Z" fill="rgb(243.3032585228699,244.96204247627654,248.7874679921675)" stroke="rgb(243.3032585228699,244.96204247627654,248.7874679921675)" stroke-width="1" />
<path d="M 2279.16 1050.57 C 2234.50 1060.47, 2184.10 1062.13, 2140.75 1065.08 C 2098.91 1084.02, 2019.84 1050.50, 2017.39 1119.52 C 1976.73 1186.50, 2064.30 1218.39, 2032.44 1282.82 C 2033.04 1350.95, 2058.36 1415.15, 2107.66 1442.49 C 2157.50 1478.72, 2166.84 1541.71, 2164.82 1605.79 C 2160.68 1669.21, 2153.44 1727.46, 2134.74 1779.98 C 2125.95 1831.44, 2058.69 1932.40, 2143.76 1892.47 C 2192.98 1865.57, 2241.36 1848.63, 2288.18 1827.15 C 2337.37 1801.87, 2384.56 1779.56, 2429.60 1750.95 C 2483.47 1727.93, 2527.70 1685.61, 2574.02 1649.34 C 2623.70 1594.92, 2668.22 1541.10, 2706.41 1486.04 C 2743.50 1430.56, 2765.84 1372.84, 2781.63 1311.85 C 2783.29 1243.57, 2763.49 1182.74, 2715.43 1152.18 C 2669.47 1117.02, 2620.85 1098.35, 2571.01 1083.23 C 2521.99 1071.48, 2473.70 1066.38, 2426.59 1057.83 C 2378.31 1049.97, 2330.38 1049.84, 2282.17 1050.57 Z" fill="rgb(242.92390347014268,82.88205541156043,13.322001056896248)" stroke="rgb(242.92390347014268,82.88205541156043,13.322001056896248)" stroke-width="1" />
<path d="M 2375.44 332.04 C 2337.57 353.18, 2240.61 301.50, 2246.06 371.96 C 2243.61 442.45, 2246.96 496.89, 2243.05 564.29 C 2240.80 626.81, 2249.26 690.65, 2243.05 756.63 C 2240.08 818.61, 2244.39 884.62, 2243.05 948.96 C 2233.27 1005.43, 2113.37 1016.05, 2125.71 1043.31 C 2182.25 1043.90, 2233.17 1057.32, 2285.18 1043.31 C 2341.81 1041.44, 2393.58 1044.96, 2444.64 1050.57 C 2498.77 1065.67, 2555.08 1065.65, 2604.11 1086.86 C 2664.43 1100.86, 2711.07 1145.93, 2763.57 1173.95 C 2800.12 1164.45, 2765.19 1057.08, 2775.61 1010.65 C 2771.46 940.21, 2772.95 878.98, 2775.61 818.32 C 2772.85 758.34, 2779.47 704.92, 2778.62 633.24 C 2786.51 563.26, 2777.44 499.41, 2781.63 440.91 C 2798.76 358.11, 2763.69 323.56, 2697.38 335.67 C 2639.93 332.41, 2591.58 334.25, 2537.91 332.04 C 2490.58 332.18, 2433.29 341.10, 2378.45 332.04 Z" fill="rgb(246.2990353697749,218.55787781350483,206.36495176848874)" stroke="rgb(246.2990353697749,218.55787781350483,206.36495176848874)" stroke-width="1" />
<path d="M 2778.62 1355.40 C 2756.96 1425.01, 2720.06 1487.02, 2673.31 1544.10 C 2626.47 1611.65, 2571.94 1662.54, 2516.85 1707.40 C 2463.47 1746.45, 2410.27 1773.64, 2357.39 1801.75 C 2302.60 1833.58, 2247.85 1853.13, 2194.91 1877.96 C 2161.64 1903.71, 2026.51 1924.72, 2110.67 1961.42 C 2154.70 2002.31, 2245.37 1999.22, 2243.05 2081.18 C 2240.38 2152.74, 2250.56 2211.82, 2243.05 2273.51 C 2247.99 2308.13, 2242.16 2342.99, 2249.07 2371.49 C 2275.71 2379.83, 2304.61 2372.80, 2330.31 2375.12 C 2385.47 2375.12, 2437.62 2375.12, 2489.77 2375.12 C 2548.69 2375.15, 2597.37 2374.75, 2652.25 2375.12 C 2695.92 2361.32, 2789.21 2409.69, 2781.63 2335.20 C 2781.63 2267.46, 2781.63 2203.35, 2781.63 2139.24 C 2781.63 2072.71, 2781.63 2009.81, 2781.63 1946.91 C 2781.63 1879.17, 2781.63 1815.06, 2781.63 1750.95 C 2781.63 1683.21, 2781.63 1619.10, 2781.63 1554.99 C 2779.72 1487.70, 2785.51 1420.20, 2778.62 1359.03 Z" fill="rgb(240.21052631578948,217.68421052631578,210.42105263157896)" stroke="rgb(240.21052631578948,217.68421052631578,210.42105263157896)" stroke-width="1" />
<path d="M 2778.62 1384.43 C 2743.21 1444.38, 2718.58 1506.71, 2667.29 1562.24 C 2640.22 1595.17, 2617.38 1623.70, 2601.10 1649.34 C 2600.93 1698.00, 2580.84 1628.14, 2552.96 1674.74 C 2501.61 1727.48, 2445.94 1755.23, 2390.48 1783.61 C 2334.22 1812.35, 2283.92 1846.08, 2228.01 1863.44 C 2177.28 1887.96, 2109.33 1909.99, 2077.57 1939.65 C 2133.80 1974.53, 2188.10 2002.64, 2240.04 2037.63 C 2242.05 2106.37, 2243.68 2170.17, 2246.06 2233.59 C 2250.26 2295.96, 2223.97 2401.16, 2297.21 2378.75 C 2347.99 2375.40, 2401.83 2375.24, 2456.68 2375.12 C 2513.76 2375.76, 2570.30 2375.38, 2619.15 2371.49 C 2674.56 2366.89, 2733.35 2380.85, 2781.63 2364.23 C 2781.63 2296.49, 2781.63 2232.38, 2781.63 2168.27 C 2781.63 2101.74, 2781.63 2038.84, 2781.63 1975.94 C 2781.63 1908.20, 2781.63 1844.09, 2781.63 1779.98 C 2783.25 1712.55, 2778.13 1645.38, 2784.63 1584.02 C 2775.66 1519.76, 2787.59 1448.68, 2778.62 1388.06 Z" fill="rgb(239.05,224.403125,219.840625)" stroke="rgb(239.05,224.403125,219.840625)" stroke-width="1" />
<path d="M 2327.30 332.04 C 2278.98 333.72, 2226.17 326.79, 2246.06 408.25 C 2246.06 467.52, 2246.06 523.17, 2246.06 578.81 C 2246.06 694.94, 2246.06 807.43, 2246.06 919.93 C 2252.47 970.91, 2222.60 1065.27, 2288.18 1043.31 C 2333.23 1035.58, 2384.90 1044.04, 2429.60 1050.57 C 2477.95 1061.33, 2526.66 1062.32, 2571.01 1075.97 C 2624.01 1090.64, 2672.30 1110.27, 2715.43 1144.92 C 2776.06 1185.93, 2734.10 1063.05, 2748.53 1028.79 C 2743.52 966.66, 2749.12 909.86, 2745.52 858.24 C 2749.63 799.12, 2747.28 747.97, 2748.53 687.68 C 2748.42 629.28, 2748.67 566.92, 2748.53 517.12 C 2747.65 457.90, 2749.81 397.54, 2748.53 346.56 C 2715.71 321.70, 2662.08 342.13, 2616.14 335.67 C 2564.72 337.59, 2517.46 332.33, 2474.73 335.67 C 2426.96 333.16, 2377.13 333.98, 2330.31 332.04 Z" fill="rgb(246.37482058642607,213.12510618354375,203.7620902779812)" stroke="rgb(246.37482058642607,213.12510618354375,203.7620902779812)" stroke-width="1" />
<path d="M 2065.53 1950.54 C 2050.62 2001.92, 2056.69 2067.50, 2038.45 2121.10 C 2016.05 2176.90, 2011.47 2237.97, 1999.34 2295.28 C 1986.96 2357.60, 1966.49 2412.24, 1951.20 2469.47 C 1933.67 2530.71, 1921.74 2591.13, 1894.03 2643.66 C 1886.37 2697.11, 1803.64 2782.54, 1888.02 2756.15 C 1937.98 2755.05, 1978.66 2742.67, 2017.39 2759.78 C 2058.36 2792.89, 2037.65 2866.41, 2047.48 2923.08 C 2060.41 2967.39, 2025.05 3072.82, 2083.59 3068.24 C 2136.24 3066.00, 2187.47 3072.90, 2228.01 3060.98 C 2244.85 3011.74, 2233.18 2944.53, 2237.03 2890.42 C 2237.03 2771.88, 2237.03 2656.96, 2237.03 2542.05 C 2236.72 2481.41, 2237.50 2420.35, 2237.03 2367.86 C 2235.06 2307.87, 2241.01 2247.54, 2234.03 2193.67 C 2226.28 2139.05, 2257.32 2057.78, 2212.96 2030.37 C 2162.47 2002.36, 2117.48 1970.71, 2068.54 1950.54 Z" fill="rgb(244.27534387189488,245.76653664545267,248.3846438103059)" stroke="rgb(244.27534387189488,245.76653664545267,248.3846438103059)" stroke-width="1" />
<path d="M 2580.04 1652.97 C 2508.58 1724.70, 2425.89 1763.71, 2345.35 1809.01 C 2266.57 1852.45, 2184.35 1877.13, 2107.66 1917.88 C 2032.40 1935.46, 2115.58 1960.03, 2143.76 1983.20 C 2177.34 2010.99, 2243.36 2010.11, 2243.05 2070.29 C 2241.58 2169.51, 2248.39 2260.96, 2246.06 2356.97 C 2262.16 2392.23, 2318.58 2367.06, 2351.37 2375.12 C 2393.49 2375.12, 2432.61 2375.12, 2471.72 2375.12 C 2510.65 2370.84, 2557.13 2384.03, 2586.05 2367.86 C 2586.05 2317.06, 2586.05 2269.88, 2586.05 2222.71 C 2586.05 2124.72, 2586.05 2030.37, 2586.05 1936.02 C 2584.05 1840.46, 2590.06 1738.85, 2583.05 1652.97 Z" fill="rgb(239.71417639181175,219.87421082839106,213.3227472737708)" stroke="rgb(239.71417639181175,219.87421082839106,213.3227472737708)" stroke-width="1" />
<path d="M 747.68 2552.94 C 711.76 2587.83, 675.64 2622.17, 636.36 2647.29 C 596.04 2675.90, 550.97 2700.33, 537.07 2756.15 C 509.01 2803.59, 543.18 2853.15, 534.06 2897.68 C 497.10 2890.14, 461.73 2852.47, 416.72 2861.39 C 333.46 2858.99, 231.65 2888.66, 221.15 2995.66 C 216.25 3046.32, 206.21 3089.27, 206.10 3137.19 C 186.39 3194.48, 219.43 3234.05, 263.27 3213.40 C 344.82 3215.30, 418.44 3202.89, 494.95 3198.88 C 541.86 3194.37, 574.95 3145.41, 576.18 3093.64 C 561.33 3035.14, 589.15 2982.46, 633.35 3028.32 C 679.76 3043.57, 719.00 3016.91, 747.68 2977.52 C 784.57 2933.83, 804.66 2886.87, 816.89 2835.99 C 850.05 2733.50, 816.68 2621.07, 750.69 2556.56 Z" fill="rgb(92.57009345794393,123.99065420560747,193.13084112149534)" stroke="rgb(92.57009345794393,123.99065420560747,193.13084112149534)" stroke-width="1" />
<path d="M 672.46 1025.17 C 599.73 1033.62, 521.61 1026.39, 446.81 1028.79 C 410.17 1031.41, 350.18 1010.74, 365.57 1075.97 C 366.94 1129.66, 363.87 1172.99, 368.58 1217.50 C 361.74 1266.06, 372.29 1311.32, 365.57 1355.40 C 372.98 1405.45, 363.18 1450.12, 368.58 1496.92 C 359.04 1571.50, 427.17 1484.94, 452.82 1475.15 C 493.43 1451.87, 531.90 1431.14, 570.17 1409.83 C 647.56 1371.83, 721.82 1333.45, 801.84 1311.85 C 879.05 1274.50, 954.75 1241.55, 1033.52 1217.50 C 1101.59 1206.91, 1029.17 1137.07, 1000.42 1119.52 C 950.58 1106.09, 938.02 1042.88, 907.15 1028.79 C 825.52 1027.64, 746.55 1031.11, 675.47 1025.17 Z" fill="rgb(230.6315789473684,206.68421052631578,195.52631578947367)" stroke="rgb(230.6315789473684,206.68421052631578,195.52631578947367)" stroke-width="1" />
<path d="M 380.61 1028.79 C 355.73 1057.96, 374.34 1117.26, 368.58 1159.44 C 368.58 1207.82, 368.58 1252.58, 368.58 1297.33 C 368.58 1345.72, 368.58 1390.48, 368.58 1435.23 C 366.22 1489.27, 362.32 1562.35, 410.70 1507.81 C 485.57 1452.06, 562.94 1415.99, 639.37 1377.17 C 676.36 1351.13, 717.10 1344.78, 753.70 1326.37 C 797.24 1317.68, 832.13 1292.59, 871.04 1279.19 C 910.37 1258.75, 948.45 1247.06, 985.38 1232.01 C 1023.09 1225.20, 1092.32 1211.07, 1045.55 1159.44 C 1010.20 1128.15, 976.65 1099.37, 937.24 1079.60 C 937.12 1013.48, 877.73 1036.42, 843.97 1032.42 C 766.39 1025.03, 686.20 1032.63, 615.30 1028.79 C 576.24 1031.73, 537.52 1027.02, 500.96 1032.42 C 459.47 1027.47, 422.98 1032.82, 383.62 1028.79 Z" fill="rgb(252.05882352941177,228.41176470588235,215.58823529411765)" stroke="rgb(252.05882352941177,228.41176470588235,215.58823529411765)" stroke-width="1" />
<path d="M 479.90 1025.17 C 452.27 1033.53, 419.34 1026.45, 389.64 1028.79 C 351.54 1027.50, 375.71 1093.65, 368.58 1123.15 C 368.58 1202.98, 368.58 1279.19, 368.58 1355.40 C 378.80 1414.09, 338.78 1581.18, 410.70 1507.81 C 474.26 1460.22, 538.47 1426.92, 603.26 1395.31 C 665.33 1358.39, 729.72 1337.02, 792.82 1311.85 C 828.48 1305.35, 803.22 1252.34, 810.87 1213.87 C 810.87 1172.74, 810.87 1135.24, 810.87 1097.74 C 813.37 1056.91, 818.82 1012.21, 771.75 1028.79 C 737.38 1028.38, 707.79 1022.80, 675.47 1025.17 C 602.37 1023.01, 542.24 1030.03, 482.91 1025.17 Z" fill="rgb(252.64043939200408,226.14024779665345,212.38478732916082)" stroke="rgb(252.64043939200408,226.14024779665345,212.38478732916082)" stroke-width="1" />
<path d="M 2778.62 1366.28 C 2739.41 1464.52, 2673.86 1552.54, 2613.13 1623.94 C 2577.04 1655.28, 2597.35 1714.46, 2595.08 1758.21 C 2590.88 1807.25, 2594.38 1852.79, 2592.07 1899.73 C 2593.23 1947.43, 2594.55 1996.29, 2592.07 2041.26 C 2596.09 2088.04, 2594.56 2134.56, 2595.08 2182.79 C 2594.64 2234.68, 2596.24 2281.24, 2592.07 2324.31 C 2575.55 2394.73, 2635.68 2371.73, 2670.30 2375.12 C 2707.41 2368.64, 2759.47 2388.56, 2781.63 2364.23 C 2781.63 2314.64, 2781.63 2268.67, 2781.63 2222.71 C 2781.63 2125.93, 2781.63 2032.79, 2781.63 1939.65 C 2781.21 1839.58, 2781.88 1739.29, 2784.63 1656.60 C 2775.78 1553.63, 2788.05 1467.65, 2778.62 1369.91 Z" fill="rgb(243.9869991636889,238.73610583136926,235.66243442560634)" stroke="rgb(243.9869991636889,238.73610583136926,235.66243442560634)" stroke-width="1" />
<path d="M 1126.79 2139.24 C 1088.31 2170.48, 1056.25 2215.26, 1021.48 2251.74 C 989.18 2289.94, 938.16 2325.39, 958.30 2382.38 C 963.91 2479.15, 953.02 2573.02, 985.38 2650.92 C 996.94 2696.63, 994.56 2743.93, 985.38 2785.19 C 986.19 2837.77, 972.04 2879.27, 955.29 2919.46 C 944.66 2968.23, 898.64 3004.11, 907.15 3053.72 C 935.25 3092.00, 929.47 3155.73, 967.33 3177.11 C 990.04 3204.20, 1030.18 3113.48, 1051.57 3086.38 C 1077.19 3041.99, 1098.01 3000.32, 1105.73 2952.12 C 1132.26 2865.92, 1142.32 2775.13, 1150.86 2683.58 C 1152.89 2634.89, 1148.02 2593.27, 1147.85 2549.31 C 1149.66 2501.72, 1152.93 2458.53, 1147.85 2415.04 C 1135.45 2325.08, 1134.04 2233.27, 1129.80 2142.87 Z" fill="rgb(227.62059620596207,229.99457994579944,235.91869918699186)" stroke="rgb(227.62059620596207,229.99457994579944,235.91869918699186)" stroke-width="1" />
<path d="M 1117.77 2150.13 C 1078.85 2181.85, 1047.22 2234.82, 1009.45 2269.88 C 967.78 2305.26, 953.80 2349.33, 961.31 2404.15 C 964.84 2450.06, 964.65 2494.21, 964.32 2538.42 C 968.53 2589.00, 989.05 2627.81, 997.41 2672.69 C 1009.46 2720.39, 990.63 2763.53, 988.39 2806.96 C 983.95 2858.81, 963.18 2896.66, 961.31 2941.23 C 941.02 2982.70, 892.36 3019.15, 913.17 3064.61 C 934.99 3107.29, 938.51 3164.53, 967.33 3191.62 C 1006.20 3162.48, 1023.51 3120.21, 1051.57 3082.76 C 1070.12 3037.77, 1097.46 3002.11, 1102.72 2952.12 C 1109.91 2904.02, 1130.88 2866.44, 1129.80 2817.85 C 1136.69 2771.10, 1150.24 2731.32, 1147.85 2683.58 C 1146.67 2596.88, 1151.27 2500.26, 1144.84 2415.04 C 1137.14 2369.20, 1136.78 2323.33, 1129.80 2280.77 C 1127.48 2234.08, 1132.83 2182.78, 1120.77 2150.13 Z" fill="rgb(234.83874963567473,237.09027980180704,242.0058292043136)" stroke="rgb(234.83874963567473,237.09027980180704,242.0058292043136)" stroke-width="1" />
<path d="M 284.33 2015.86 C 278.86 2057.17, 282.23 2102.91, 281.32 2146.50 C 269.65 2208.92, 326.79 2223.50, 359.55 2244.48 C 430.07 2291.12, 507.36 2309.28, 588.22 2317.06 C 664.99 2323.21, 740.33 2324.78, 813.88 2331.57 C 853.73 2329.60, 890.11 2326.27, 928.21 2327.94 C 975.64 2321.61, 999.20 2257.93, 1033.52 2229.96 C 1054.37 2200.21, 1144.62 2131.98, 1084.67 2131.98 C 1042.80 2129.29, 1009.20 2141.93, 970.33 2139.24 C 930.37 2147.01, 894.51 2137.77, 856.00 2142.87 C 814.96 2146.09, 779.72 2143.37, 741.67 2139.24 C 663.85 2134.91, 587.97 2133.71, 516.01 2121.10 C 430.62 2106.85, 358.58 2062.52, 287.34 2015.86 Z" fill="rgb(245.25925925925927,193.19753086419752,177.07407407407408)" stroke="rgb(245.25925925925927,193.19753086419752,177.07407407407408)" stroke-width="1" />
<path d="M 284.33 2019.49 C 284.33 2063.03, 284.33 2106.58, 284.33 2150.13 C 270.60 2211.32, 330.86 2226.14, 362.56 2244.48 C 434.13 2286.35, 505.89 2315.28, 588.22 2313.43 C 665.51 2320.48, 737.89 2329.47, 813.88 2327.94 C 851.91 2324.28, 891.23 2329.52, 928.21 2327.94 C 975.78 2317.43, 1002.43 2256.37, 1036.53 2222.71 C 1056.06 2195.95, 1142.90 2130.38, 1081.66 2131.98 C 1040.10 2131.40, 1004.03 2138.08, 967.33 2142.87 C 888.02 2139.75, 814.05 2150.35, 741.67 2139.24 C 663.46 2136.04, 589.50 2129.26, 516.01 2121.10 C 430.57 2108.22, 360.29 2059.95, 287.34 2019.49 Z" fill="rgb(245.32029565753004,207.57137357560825,195.3979057591623)" stroke="rgb(245.32029565753004,207.57137357560825,195.3979057591623)" stroke-width="1" />
<path d="M 1099.71 332.04 C 1042.16 322.64, 1011.86 352.55, 1024.49 426.40 C 1024.49 486.88, 1024.49 543.73, 1024.49 600.58 C 1025.86 663.03, 1027.79 716.38, 1024.49 774.77 C 1024.49 836.46, 1024.49 894.53, 1024.49 952.59 C 1047.45 1042.20, 975.18 1023.59, 937.24 1039.68 C 959.21 1101.49, 1028.39 1116.18, 1060.60 1163.06 C 1108.25 1245.65, 1109.72 1110.97, 1117.77 1068.71 C 1128.19 1007.22, 1131.80 945.95, 1147.85 890.90 C 1162.73 824.82, 1189.55 769.84, 1220.06 716.71 C 1225.39 644.16, 1157.94 604.65, 1132.81 546.15 C 1114.94 489.63, 1064.72 431.93, 1093.69 371.96 C 1129.77 301.97, 1185.75 352.68, 1217.06 404.62 C 1255.78 470.72, 1318.42 480.08, 1343.42 404.62 C 1335.12 290.59, 1339.60 397.88, 1313.34 426.40 C 1266.48 471.31, 1321.92 295.80, 1250.15 332.04 C 1197.61 328.41, 1148.63 336.86, 1102.72 332.04 Z" fill="rgb(249.4858875959396,250.63035404803168,252.2694974003466)" stroke="rgb(249.4858875959396,250.63035404803168,252.2694974003466)" stroke-width="1" />
<path d="M 1981.29 332.04 C 1934.62 340.47, 1882.60 333.28, 1833.86 335.67 C 1812.40 342.46, 1768.97 319.11, 1773.68 353.82 C 1778.24 391.01, 1758.97 427.01, 1788.73 448.17 C 1837.06 501.45, 1856.26 564.16, 1869.96 629.62 C 1884.45 697.01, 1888.66 765.91, 1933.15 814.69 C 1960.10 893.87, 2041.39 820.53, 2065.53 774.77 C 2093.60 719.90, 2067.09 650.96, 2080.58 589.70 C 2080.58 526.80, 2080.58 467.52, 2080.58 408.25 C 2103.29 317.55, 2030.86 332.44, 1984.30 335.67 Z" fill="rgb(241.91776397515528,243.02186335403727,245.03726708074535)" stroke="rgb(241.91776397515528,243.02186335403727,245.03726708074535)" stroke-width="1" />
<path d="M 392.65 2857.76 C 345.61 2866.23, 299.23 2876.62, 260.26 2908.57 C 216.85 2947.52, 215.82 3011.09, 212.12 3068.24 C 212.97 3113.13, 181.53 3200.37, 221.15 3213.40 C 263.18 3213.89, 315.57 3215.97, 359.55 3209.77 C 405.47 3202.58, 451.74 3205.20, 494.95 3198.88 C 546.69 3193.87, 587.64 3130.69, 573.17 3071.87 C 581.28 3003.95, 554.51 2957.09, 531.05 2908.57 C 490.66 2875.42, 447.29 2854.56, 395.66 2857.76 Z" fill="rgb(99.05821166141807,132.98005534879283,209.04847790819736)" stroke="rgb(99.05821166141807,132.98005534879283,209.04847790819736)" stroke-width="1" />
<path d="M 2092.61 332.04 C 2077.21 400.80, 2091.17 496.68, 2086.60 571.55 C 2086.60 615.10, 2086.60 655.02, 2086.60 694.94 C 2091.75 746.82, 2075.59 778.27, 2047.48 811.06 C 2032.21 841.89, 1943.71 845.10, 1987.31 883.64 C 2019.67 913.90, 2051.70 936.36, 2089.60 941.70 C 2121.17 950.52, 2178.37 953.03, 2164.82 992.51 C 2146.16 998.42, 2084.04 1035.00, 2083.59 1039.68 C 2117.24 1035.35, 2145.11 1006.71, 2179.87 999.76 C 2214.43 978.63, 2252.96 963.85, 2240.04 909.04 C 2240.72 815.59, 2243.88 753.09, 2243.05 662.28 C 2245.91 585.29, 2237.38 504.58, 2240.04 415.51 C 2241.15 371.70, 2248.86 317.96, 2200.93 335.67 C 2162.51 338.28, 2130.24 331.74, 2095.62 332.04 Z" fill="rgb(228.08,230.3272727272727,234.96363636363637)" stroke="rgb(228.08,230.3272727272727,234.96363636363637)" stroke-width="1" />
<path d="M 1060.60 1221.13 C 1003.66 1231.17, 951.43 1254.94, 898.12 1275.56 C 828.35 1292.58, 789.37 1361.77, 744.68 1424.35 C 713.66 1500.06, 677.82 1568.22, 624.32 1627.56 C 597.99 1648.69, 557.56 1639.29, 546.10 1674.74 C 554.72 1713.92, 589.12 1732.05, 618.31 1718.29 C 684.60 1708.87, 733.08 1665.50, 783.79 1623.94 C 837.48 1569.78, 888.82 1505.08, 946.26 1460.63 C 973.87 1440.10, 998.94 1424.59, 1030.51 1427.97 C 1063.92 1431.59, 1092.11 1442.54, 1081.66 1391.69 C 1063.37 1331.91, 1130.05 1223.39, 1063.61 1221.13 Z" fill="rgb(130.53365791701947,155.09790431837425,206.25391617273496)" stroke="rgb(130.53365791701947,155.09790431837425,206.25391617273496)" stroke-width="1" />
<path d="M 744.68 2552.94 C 708.09 2592.97, 668.99 2625.66, 627.33 2650.92 C 581.64 2675.35, 546.27 2718.20, 531.05 2770.67 C 514.83 2820.68, 540.03 2875.21, 546.10 2915.83 C 563.54 2969.75, 574.75 3016.13, 624.32 3021.06 C 667.97 3048.50, 716.22 3023.06, 744.68 2981.15 C 783.66 2936.79, 803.85 2888.18, 816.89 2835.99 C 830.27 2791.28, 832.68 2737.05, 825.91 2690.83 C 805.16 2641.09, 784.63 2583.87, 747.68 2552.94 Z" fill="rgb(97.65817794352691,133.3820990942994,209.30442194992008)" stroke="rgb(97.65817794352691,133.3820990942994,209.30442194992008)" stroke-width="1" />
<path d="M 305.39 1025.17 C 279.76 1033.52, 248.84 1026.46, 221.15 1028.79 C 184.69 1029.21, 206.16 1088.25, 200.08 1115.89 C 200.08 1189.68, 200.08 1259.84, 200.08 1329.99 C 200.08 1402.57, 200.08 1471.52, 200.08 1540.47 C 201.39 1609.27, 200.62 1681.71, 203.09 1754.58 C 216.08 1786.01, 221.83 1700.66, 242.21 1685.63 C 261.77 1643.30, 285.98 1618.48, 314.42 1591.28 C 340.85 1556.83, 377.45 1544.61, 362.56 1496.92 C 363.31 1455.84, 369.33 1423.34, 362.56 1388.06 C 369.34 1313.57, 361.41 1241.56, 365.57 1177.58 C 363.92 1138.48, 365.50 1110.50, 362.56 1072.34 C 381.32 1014.42, 334.96 1031.45, 308.40 1025.17 Z" fill="rgb(220.72222222222223,192.05555555555554,182.44444444444446)" stroke="rgb(220.72222222222223,192.05555555555554,182.44444444444446)" stroke-width="1" />
<path d="M 254.24 2182.79 C 257.20 2250.44, 260.99 2319.94, 263.27 2393.26 C 259.90 2464.49, 264.06 2531.37, 263.27 2607.37 C 263.27 2681.16, 263.27 2751.32, 263.27 2821.47 C 260.72 2854.81, 248.80 2919.91, 287.34 2883.17 C 316.93 2866.20, 347.94 2862.13, 377.60 2854.13 C 409.51 2851.29, 438.23 2854.32, 464.86 2854.13 C 461.35 2808.55, 440.40 2781.00, 422.73 2745.27 C 388.06 2684.29, 406.66 2601.83, 401.67 2531.16 C 401.67 2457.37, 401.67 2387.22, 401.67 2317.06 C 415.56 2264.96, 374.13 2260.54, 347.52 2244.48 C 311.70 2232.34, 288.08 2197.05, 257.25 2182.79 Z" fill="rgb(214.46153846153845,221.5897435897436,235.63247863247864)" stroke="rgb(214.46153846153845,221.5897435897436,235.63247863247864)" stroke-width="1" />
<path d="M 263.27 2186.42 C 258.94 2250.75, 265.89 2321.60, 263.27 2393.26 C 263.27 2467.05, 263.27 2537.21, 263.27 2607.37 C 263.27 2679.95, 263.27 2748.90, 263.27 2817.85 C 266.80 2853.42, 253.20 2915.04, 290.35 2883.17 C 321.04 2866.98, 350.08 2858.39, 380.61 2854.13 C 398.00 2845.98, 470.02 2858.42, 437.78 2839.62 C 439.60 2806.35, 448.01 2778.38, 419.73 2748.90 C 391.45 2685.23, 405.08 2605.75, 401.67 2534.79 C 401.67 2462.21, 401.67 2393.26, 401.67 2324.31 C 412.18 2273.96, 385.19 2261.00, 356.54 2248.11 C 323.00 2232.96, 295.13 2210.07, 266.28 2190.04 Z" fill="rgb(207.36846971798428,217.22919556171982,239.1725612575127)" stroke="rgb(207.36846971798428,217.22919556171982,239.1725612575127)" stroke-width="1" />
<path d="M 765.74 2552.94 C 786.86 2608.50, 839.22 2661.11, 834.94 2734.38 C 833.28 2804.68, 818.72 2864.90, 792.82 2919.46 C 776.42 2954.98, 751.48 2981.74, 729.63 3006.55 C 708.16 3035.59, 651.17 3039.03, 696.53 3075.50 C 740.38 3168.17, 805.72 3082.49, 849.98 3046.47 C 912.83 3034.76, 937.06 2956.47, 958.30 2897.68 C 980.32 2838.56, 985.57 2776.19, 988.39 2712.61 C 981.99 2651.53, 976.82 2564.16, 925.20 2552.94 C 871.04 2552.94, 819.90 2552.94, 768.75 2552.94 Z" fill="rgb(239.10645976181883,243.7455792132804,250.53265968964274)" stroke="rgb(239.10645976181883,243.7455792132804,250.53265968964274)" stroke-width="1" />
<path d="M 209.11 1025.17 C 188.86 1068.11, 205.51 1138.24, 200.08 1192.10 C 200.08 1253.79, 200.08 1311.85, 200.08 1369.91 C 202.06 1431.12, 196.11 1492.65, 203.09 1547.73 C 254.24 1551.36, 302.38 1551.36, 350.52 1551.36 C 378.44 1511.86, 359.73 1437.29, 365.57 1380.80 C 363.89 1317.85, 369.01 1256.24, 362.56 1202.98 C 367.56 1142.07, 364.68 1085.66, 359.55 1028.79 C 308.40 1025.17, 260.26 1025.17, 212.12 1025.17 Z" fill="rgb(245.4437607679055,240.0898350972188,236.98744769874477)" stroke="rgb(245.4437607679055,240.0898350972188,236.98744769874477)" stroke-width="1" />
<path d="M 537.07 3187.99 C 502.69 3214.87, 455.25 3203.73, 413.71 3209.77 C 370.08 3214.87, 329.03 3218.68, 287.34 3220.65 C 245.07 3221.93, 184.77 3202.87, 203.09 3275.09 C 212.06 3319.80, 183.34 3403.49, 221.15 3412.99 C 306.38 3418.89, 396.97 3415.63, 476.89 3416.62 C 522.81 3425.84, 562.30 3408.79, 546.10 3340.41 C 542.47 3288.65, 553.58 3227.66, 540.08 3187.99 Z" fill="rgb(216.43506493506493,224.41558441558442,240.75974025974025)" stroke="rgb(216.43506493506493,224.41558441558442,240.75974025974025)" stroke-width="1" />
<path d="M 537.07 3195.25 C 504.25 3221.34, 457.00 3205.40, 416.72 3209.77 C 374.44 3208.68, 332.67 3222.71, 290.35 3220.65 C 253.86 3231.77, 186.08 3200.56, 203.09 3271.46 C 209.68 3318.03, 189.05 3390.26, 215.13 3412.99 C 299.04 3420.55, 390.83 3416.53, 464.86 3412.99 C 512.52 3419.44, 560.04 3417.51, 543.09 3347.67 C 540.55 3290.44, 549.45 3232.97, 540.08 3195.25 Z" fill="rgb(215.68395563193252,223.41649742227776,239.4989845336666)" stroke="rgb(215.68395563193252,223.41649742227776,239.4989845336666)" stroke-width="1" />
<path d="M 407.69 2280.77 C 403.03 2371.71, 405.10 2470.43, 404.68 2567.45 C 415.80 2606.89, 383.54 2685.80, 425.74 2694.46 C 468.47 2696.84, 511.46 2689.68, 549.10 2698.09 C 573.79 2699.80, 566.18 2617.60, 567.16 2578.34 C 567.16 2526.32, 567.16 2477.94, 567.16 2429.55 C 561.66 2384.10, 586.40 2306.87, 534.06 2313.43 C 485.68 2317.83, 451.37 2290.05, 410.70 2280.77 Z" fill="rgb(243.74068428184282,244.8191056910569,248.9522357723577)" stroke="rgb(243.74068428184282,244.8191056910569,248.9522357723577)" stroke-width="1" />
<path d="M 2158.81 332.04 C 2151.82 388.33, 2157.78 451.08, 2155.80 509.86 C 2155.80 572.76, 2155.80 632.03, 2155.80 691.31 C 2155.80 754.21, 2155.80 813.48, 2155.80 872.75 C 2142.02 957.52, 2169.93 980.38, 2231.02 967.10 C 2254.05 918.00, 2237.78 845.63, 2243.05 789.29 C 2243.05 726.39, 2243.05 667.11, 2243.05 607.84 C 2243.05 544.94, 2243.05 485.67, 2243.05 426.40 C 2260.67 341.51, 2221.41 322.55, 2161.81 332.04 Z" fill="rgb(231.33257055682685,234.1716247139588,240.99427917620136)" stroke="rgb(231.33257055682685,234.1716247139588,240.99427917620136)" stroke-width="1" />
<path d="M 2089.60 335.67 C 2082.62 393.17, 2088.58 457.13, 2086.60 517.12 C 2086.34 584.88, 2083.27 642.46, 2086.60 702.19 C 2099.65 771.09, 2034.73 838.54, 1984.30 847.35 C 1968.07 902.79, 2061.40 938.25, 2104.65 948.96 C 2176.20 987.57, 2146.94 876.09, 2152.79 825.58 C 2152.79 761.47, 2152.79 700.98, 2152.79 640.50 C 2152.79 576.39, 2152.79 515.91, 2152.79 455.43 C 2153.15 387.48, 2166.62 310.38, 2092.61 335.67 Z" fill="rgb(187.4032994923858,193.38401015228428,207.90761421319797)" stroke="rgb(187.4032994923858,193.38401015228428,207.90761421319797)" stroke-width="1" />
<path d="M 573.17 2317.06 C 566.17 2395.11, 572.16 2479.64, 570.17 2560.19 C 572.12 2603.27, 566.22 2646.63, 573.17 2683.58 C 609.48 2655.85, 646.24 2638.19, 678.48 2607.37 C 706.54 2574.64, 758.87 2558.22, 747.68 2502.13 C 747.68 2457.37, 747.68 2416.25, 747.68 2375.12 C 763.45 2316.15, 713.60 2330.19, 681.49 2327.94 C 645.11 2322.21, 609.34 2323.43, 576.18 2317.06 Z" fill="rgb(219.73157894736843,227.20465587044535,241.3412955465587)" stroke="rgb(219.73157894736843,227.20465587044535,241.3412955465587)" stroke-width="1" />
<path d="M 209.11 2124.72 C 189.08 2181.04, 205.36 2264.37, 200.08 2331.57 C 200.08 2405.36, 200.08 2475.52, 200.08 2545.68 C 200.08 2619.47, 200.08 2689.62, 200.08 2759.78 C 204.47 2832.88, 190.37 2911.59, 209.11 2973.89 C 219.11 2941.27, 264.24 2915.73, 257.25 2875.91 C 257.25 2837.20, 257.25 2802.12, 257.25 2767.04 C 257.25 2693.25, 257.25 2623.09, 257.25 2552.94 C 258.17 2478.19, 251.93 2410.64, 254.24 2338.83 C 252.85 2300.31, 257.40 2262.46, 251.23 2229.96 C 264.17 2179.47, 244.47 2154.53, 212.12 2128.35 Z" fill="rgb(236.6488496397862,239.83244248198932,245.3697420404369)" stroke="rgb(236.6488496397862,239.83244248198932,245.3697420404369)" stroke-width="1" />
<path d="M 825.91 1025.17 C 798.50 1066.16, 821.41 1176.95, 813.88 1246.53 C 803.23 1311.50, 826.06 1314.96, 862.02 1282.82 C 896.29 1267.08, 929.63 1257.42, 961.31 1242.90 C 994.85 1227.47, 1028.87 1222.19, 1060.60 1210.24 C 1085.54 1180.72, 1022.89 1138.99, 1000.42 1119.52 C 970.15 1090.74, 923.50 1081.61, 928.21 1028.79 C 893.25 1020.28, 860.70 1028.26, 828.92 1025.17 Z" fill="rgb(241.70863732642974,244.9651682748882,249.77500588373735)" stroke="rgb(241.70863732642974,244.9651682748882,249.77500588373735)" stroke-width="1" />
<path d="M 753.70 2331.57 C 749.49 2407.00, 747.48 2486.30, 759.72 2545.68 C 823.68 2547.56, 887.32 2541.58, 946.26 2549.31 C 952.28 2486.33, 959.45 2391.26, 943.26 2331.57 C 878.36 2328.59, 817.14 2341.83, 756.71 2331.57 Z" fill="rgb(213.03952274422073,220.94630872483222,239.55804126273924)" stroke="rgb(213.03952274422073,220.94630872483222,239.55804126273924)" stroke-width="1" />
<path d="M 1535.99 3187.99 C 1507.11 3208.81, 1528.57 3255.18, 1523.95 3285.97 C 1524.57 3324.13, 1523.08 3365.15, 1523.95 3394.84 C 1583.12 3398.47, 1642.30 3398.47, 1701.47 3398.47 C 1731.91 3360.19, 1708.97 3261.15, 1716.51 3198.88 C 1659.79 3185.69, 1595.90 3197.02, 1539.00 3187.99 Z" fill="rgb(248.81203801478352,247.90681098204857,252.86404435058077)" stroke="rgb(248.81203801478352,247.90681098204857,252.86404435058077)" stroke-width="1" />
<path d="M 1903.06 785.66 C 1924.11 866.83, 1928.83 956.16, 1945.18 1039.68 C 1967.51 1119.08, 1973.77 1282.45, 2008.37 1123.15 C 2009.67 1068.53, 2052.53 1037.58, 2086.60 1025.17 C 2124.10 1009.90, 2174.54 947.33, 2107.66 956.22 C 2068.46 944.15, 2031.13 935.41, 2002.35 901.78 C 1955.94 880.58, 1937.31 827.72, 1906.07 789.29 Z" fill="rgb(22.86497754971135,44.428800513149454,102.11161000641437)" stroke="rgb(22.86497754971135,44.428800513149454,102.11161000641437)" stroke-width="1" />
<path d="M 2754.55 332.04 C 2740.64 393.29, 2752.44 476.39, 2748.53 546.15 C 2748.53 623.57, 2748.53 697.35, 2748.53 771.14 C 2748.53 847.35, 2748.53 919.93, 2748.53 992.51 C 2757.42 1063.21, 2723.81 1179.13, 2781.63 1202.98 C 2788.62 1129.77, 2782.65 1053.70, 2784.63 981.62 C 2784.63 904.20, 2784.63 830.41, 2784.63 756.63 C 2784.63 679.21, 2784.63 605.42, 2784.63 531.63 C 2784.63 491.72, 2784.63 455.43, 2784.63 419.14 C 2780.41 384.65, 2799.80 321.79, 2757.56 332.04 Z" fill="rgb(254.96666666666667,238.91844660194175,235.35533980582525)" stroke="rgb(254.96666666666667,238.91844660194175,235.35533980582525)" stroke-width="1" />
<path d="M 1505.90 3213.40 C 1430.77 3276.16, 1353.20 3331.80, 1268.20 3365.81 C 1205.46 3399.81, 1039.85 3420.80, 1195.99 3412.99 C 1267.91 3391.15, 1356.09 3406.80, 1433.69 3402.10 C 1473.49 3400.43, 1531.80 3418.22, 1514.93 3351.29 C 1511.04 3305.17, 1522.78 3243.85, 1508.91 3213.40 Z" fill="rgb(217.04054054054055,223.02702702702703,235.22972972972974)" stroke="rgb(217.04054054054055,223.02702702702703,235.22972972972974)" stroke-width="1" />
<path d="M 1508.91 3217.03 C 1474.00 3239.64, 1436.05 3276.02, 1397.58 3296.86 C 1359.66 3332.07, 1315.20 3339.50, 1277.23 3365.81 C 1236.76 3385.15, 1193.67 3388.07, 1156.88 3409.36 C 1076.81 3413.95, 1156.15 3412.33, 1186.97 3416.62 C 1258.42 3394.93, 1346.64 3404.23, 1424.66 3402.10 C 1460.99 3396.55, 1527.80 3422.57, 1514.93 3358.55 C 1514.03 3310.13, 1517.32 3251.20, 1511.92 3217.03 Z" fill="rgb(217.74057811928284,223.22502744237102,234.8199780461032)" stroke="rgb(217.74057811928284,223.22502744237102,234.8199780461032)" stroke-width="1" />
<path d="M 1779.70 332.04 C 1757.14 392.43, 1777.74 485.28, 1848.90 455.43 C 1896.27 441.34, 1989.20 494.16, 1996.33 426.40 C 1996.79 334.59, 2045.86 326.89, 1951.20 335.67 C 1901.86 329.68, 1840.47 332.93, 1782.71 332.04 Z" fill="rgb(240.9731467473525,242.02647503782148,245.23222390317702)" stroke="rgb(240.9731467473525,242.02647503782148,245.23222390317702)" stroke-width="1" />
<path d="M 579.19 3126.30 C 563.85 3184.86, 571.51 3243.20, 561.14 3307.75 C 549.65 3377.18, 553.10 3440.27, 627.33 3416.62 C 703.96 3439.72, 700.00 3383.67, 699.54 3315.01 C 653.56 3252.11, 613.93 3191.18, 582.20 3126.30 Z" fill="rgb(245.86516853932585,246.75939558310733,249.2669507942658)" stroke="rgb(245.86516853932585,246.75939558310733,249.2669507942658)" stroke-width="1" />
<path d="M 1725.54 1435.23 C 1671.42 1453.00, 1622.36 1485.48, 1566.07 1496.92 C 1513.33 1513.44, 1457.58 1525.94, 1403.60 1518.70 C 1349.67 1527.02, 1293.52 1533.31, 1241.13 1525.96 C 1199.14 1530.29, 1090.71 1484.13, 1108.74 1551.36 C 1164.52 1554.90, 1219.20 1552.86, 1271.21 1558.62 C 1328.61 1553.13, 1383.33 1571.15, 1433.69 1554.99 C 1490.25 1545.26, 1542.87 1532.80, 1596.16 1522.33 C 1652.18 1507.40, 1721.92 1521.47, 1728.55 1438.86 Z" fill="rgb(251.91039426523298,151.0497311827957,58.22715053763441)" stroke="rgb(251.91039426523298,151.0497311827957,58.22715053763441)" stroke-width="1" />
<path d="M 880.07 3039.21 C 834.38 3054.92, 800.82 3105.99, 756.71 3126.30 C 754.35 3172.63, 824.68 3197.68, 859.01 3217.03 C 892.19 3225.42, 979.96 3244.29, 949.27 3180.74 C 922.77 3135.27, 921.09 3064.78, 883.08 3039.21 Z" fill="rgb(242.54166666666666,245.25,249.70833333333334)" stroke="rgb(242.54166666666666,245.25,249.70833333333334)" stroke-width="1" />
<path d="M 877.06 3039.21 C 831.69 3055.43, 803.68 3109.24, 756.71 3122.67 C 748.89 3167.14, 820.07 3201.04, 856.00 3213.40 C 888.55 3226.02, 974.42 3247.49, 949.27 3180.74 C 924.24 3133.60, 916.80 3061.31, 880.07 3039.21 Z" fill="rgb(224.23333333333332,230.8,241.56666666666666)" stroke="rgb(224.23333333333332,230.8,241.56666666666666)" stroke-width="1" />
<path d="M 880.07 3039.21 C 835.20 3053.20, 803.48 3105.47, 759.72 3122.67 C 744.28 3171.71, 824.84 3195.74, 856.00 3217.03 C 887.84 3223.05, 974.89 3245.03, 949.27 3180.74 C 923.96 3133.71, 916.70 3066.42, 883.08 3039.21 Z" fill="rgb(234.24107959743824,238.90622140896616,247.10521500457457)" stroke="rgb(234.24107959743824,238.90622140896616,247.10521500457457)" stroke-width="1" />
<path d="M 2778.62 1348.14 C 2758.45 1416.29, 2724.91 1477.76, 2679.33 1533.21 C 2657.28 1566.43, 2628.24 1589.29, 2613.13 1623.94 C 2642.22 1623.94, 2668.29 1623.94, 2694.37 1623.94 C 2757.90 1633.27, 2803.38 1627.51, 2784.63 1540.47 C 2783.45 1474.03, 2787.49 1408.61, 2781.63 1348.14 Z" fill="rgb(250.0352998065764,244.67069632495165,242.31189555125727)" stroke="rgb(250.0352998065764,244.67069632495165,242.31189555125727)" stroke-width="1" />
<path d="M 1027.50 1021.54 C 999.45 1037.21, 899.84 1010.38, 946.26 1075.97 C 993.39 1107.93, 1038.64 1139.24, 1075.64 1184.84 C 1114.92 1225.25, 1111.11 1108.65, 1117.77 1072.34 C 1145.02 994.15, 1065.34 1033.60, 1030.51 1021.54 Z" fill="rgb(247.19349764027268,248.85002621919244,251.5789197692711)" stroke="rgb(247.19349764027268,248.85002621919244,251.5789197692711)" stroke-width="1" />
<path d="M 206.10 1870.70 C 197.99 1920.87, 200.34 1976.27, 200.08 2030.37 C 186.93 2102.43, 219.86 2148.68, 266.28 2175.53 C 295.39 2156.08, 279.62 2072.97, 281.32 2030.37 C 266.14 1978.00, 209.27 1933.61, 209.11 1870.70 Z" fill="rgb(247.94117647058823,216.69117647058823,202.90441176470588)" stroke="rgb(247.94117647058823,216.69117647058823,202.90441176470588)" stroke-width="1" />
<path d="M 410.70 2694.46 C 414.29 2753.31, 470.09 2786.00, 461.85 2846.88 C 485.41 2863.44, 556.75 2924.81, 522.02 2839.62 C 496.65 2781.95, 570.40 2722.19, 546.10 2694.46 C 499.96 2694.46, 456.83 2694.46, 413.71 2694.46 Z" fill="rgb(234.59922430510665,238.96897220426632,248.07886231415642)" stroke="rgb(234.59922430510665,238.96897220426632,248.07886231415642)" stroke-width="1" />
<path d="M 209.11 1892.47 C 200.60 1938.11, 202.14 1988.77, 200.08 2037.63 C 186.87 2108.30, 223.29 2142.17, 263.27 2175.53 C 292.30 2165.04, 271.77 2084.03, 278.31 2044.89 C 277.64 1983.58, 217.71 1953.66, 209.11 1896.10 Z" fill="rgb(252.26666666666668,237.76296296296297,230.95555555555555)" stroke="rgb(252.26666666666668,237.76296296296297,230.95555555555555)" stroke-width="1" />
<path d="M 305.39 1551.36 C 260.57 1563.21, 172.73 1527.68, 203.09 1620.31 C 200.08 1686.84, 200.08 1749.74, 200.08 1812.64 C 198.54 1882.32, 211.15 1714.48, 242.21 1692.88 C 260.70 1657.73, 281.45 1627.34, 305.39 1598.53 C 334.68 1566.11, 357.36 1554.38, 308.40 1551.36 Z" fill="rgb(249.94940476190476,238.90029761904762,236.21875)" stroke="rgb(249.94940476190476,238.90029761904762,236.21875)" stroke-width="1" />
<path d="M 209.11 1892.47 C 202.91 1941.29, 203.12 1986.16, 203.09 2037.63 C 189.01 2108.37, 229.00 2138.02, 263.27 2171.90 C 286.68 2144.91, 276.54 2079.89, 275.30 2034.00 C 262.00 1990.28, 221.07 1946.30, 209.11 1896.10 Z" fill="rgb(253.50265352539802,242.05913570887034,235.9461713419257)" stroke="rgb(253.50265352539802,242.05913570887034,235.9461713419257)" stroke-width="1" />
<path d="M 2077.57 767.51 C 2052.39 802.77, 2030.36 842.24, 1990.31 843.72 C 1942.83 879.62, 2017.95 903.56, 2038.45 923.56 C 2080.27 956.14, 2091.17 935.24, 2083.59 883.64 C 2083.05 840.80, 2085.14 800.97, 2080.58 767.51 Z" fill="rgb(206.06013579049466,209.38797284190107,217.54607177497576)" stroke="rgb(206.06013579049466,209.38797284190107,217.54607177497576)" stroke-width="1" />
<path d="M 1195.99 332.04 C 1170.93 358.01, 1206.64 393.20, 1232.10 422.77 C 1250.62 449.66, 1309.58 492.80, 1292.27 437.28 C 1283.66 405.00, 1294.97 360.74, 1286.26 335.67 C 1255.17 332.04, 1227.08 332.04, 1199.00 332.04 Z" fill="rgb(243.74545454545455,246.6909090909091,249.97433155080213)" stroke="rgb(243.74545454545455,246.6909090909091,249.97433155080213)" stroke-width="1" />
<path d="M 705.56 3318.63 C 706.43 3347.57, 686.96 3415.59, 720.60 3416.62 C 756.71 3416.62, 789.81 3416.62, 822.90 3416.62 C 889.22 3422.16, 843.66 3394.93, 810.87 3383.96 C 772.75 3369.26, 741.92 3342.09, 708.57 3322.26 Z" fill="rgb(215.4090909090909,221.11363636363637,233.95454545454547)" stroke="rgb(215.4090909090909,221.11363636363637,233.95454545454547)" stroke-width="1" />
<path d="M 203.09 1554.99 C 195.34 1584.20, 194.99 1635.43, 233.18 1620.31 C 270.23 1625.45, 298.99 1625.34, 320.44 1587.65 C 379.82 1531.12, 242.12 1564.12, 206.10 1554.99 Z" fill="rgb(253.05619412515964,242.7037037037037,242.40996168582376)" stroke="rgb(253.05619412515964,242.7037037037037,242.40996168582376)" stroke-width="1" />
<path d="M 705.56 3318.63 C 705.04 3345.35, 688.50 3422.23, 720.60 3412.99 C 756.72 3415.52, 788.73 3414.54, 822.90 3412.99 C 889.56 3418.22, 842.18 3398.96, 810.87 3383.96 C 773.37 3366.23, 739.14 3347.76, 708.57 3318.63 Z" fill="rgb(211.11914323962517,217.8326639892905,232.27576974564926)" stroke="rgb(211.11914323962517,217.8326639892905,232.27576974564926)" stroke-width="1" />
<path d="M 1614.22 332.04 C 1616.82 348.69, 1673.48 354.02, 1695.45 371.96 C 1724.95 377.73, 1774.45 459.16, 1770.67 390.11 C 1782.64 335.76, 1752.63 323.79, 1716.51 332.04 C 1681.41 332.04, 1649.32 332.04, 1617.22 332.04 Z" fill="rgb(188.875,193.5625,203.5625)" stroke="rgb(188.875,193.5625,203.5625)" stroke-width="1" />
<path d="M 1617.22 332.04 C 1596.77 343.07, 1669.41 353.17, 1686.43 368.33 C 1714.60 371.27, 1768.07 448.90, 1767.66 397.37 C 1782.88 347.08, 1760.15 319.18, 1719.52 332.04 C 1684.42 332.04, 1652.33 332.04, 1620.23 332.04 Z" fill="rgb(202.47555555555556,205.98222222222222,215.9777777777778)" stroke="rgb(202.47555555555556,205.98222222222222,215.9777777777778)" stroke-width="1" />
<path d="M 988.39 1594.90 C 969.27 1662.41, 871.46 1719.01, 979.36 1678.37 C 1005.96 1674.82, 1042.37 1683.63, 1054.58 1663.85 C 1046.16 1634.51, 1016.29 1602.86, 991.40 1594.90 Z" fill="rgb(252.2893481717011,152.51828298887122,53.17806041335453)" stroke="rgb(252.2893481717011,152.51828298887122,53.17806041335453)" stroke-width="1" />
<path d="M 1292.27 332.04 C 1293.18 362.66, 1284.41 501.15, 1319.35 444.54 C 1363.02 408.28, 1359.46 301.91, 1295.28 332.04 Z" fill="rgb(249.02256944444446,252.82986111111111,253.78472222222223)" stroke="rgb(249.02256944444446,252.82986111111111,253.78472222222223)" stroke-width="1" />
<path d="M 1349.44 332.04 C 1323.47 451.06, 1400.45 365.05, 1451.74 342.93 C 1529.06 328.58, 1384.91 332.27, 1352.45 332.04 Z" fill="rgb(216.8125,221.0625,229.75)" stroke="rgb(216.8125,221.0625,229.75)" stroke-width="1" />
<path d="M 1352.45 332.04 C 1319.10 442.02, 1399.71 370.40, 1445.72 346.56 C 1523.08 326.65, 1387.98 333.24, 1355.46 332.04 Z" fill="rgb(218.02597402597402,223.3852813852814,233.84632034632034)" stroke="rgb(218.02597402597402,223.3852813852814,233.84632034632034)" stroke-width="1" />
<path d="M 1027.50 1431.60 C 973.82 1437.23, 1044.99 1495.64, 1069.62 1496.92 C 1103.80 1465.33, 1068.17 1421.37, 1030.51 1431.60 Z" fill="rgb(203.51820728291315,190.30252100840337,183.14565826330534)" stroke="rgb(203.51820728291315,190.30252100840337,183.14565826330534)" stroke-width="1" />
</svg>