<svg xmlns="http://www.w3.org/2000/svg" width="3081" height="3716" viewbox="0 0 3081 3716">
<path d="M 1.50 1.81 C 1.50 1238.06, 1.50 2474.31, 1.50 3710.56 C 1026.50 3714.19, 2051.49 3714.19, 3076.49 3714.19 C 3079.50 2477.94, 3079.50 1241.69, 3079.50 5.44 C 2054.50 1.81, 1029.51 1.81, 4.51 1.81 Z" fill="rgb(nan,nan,nan)" stroke="rgb(nan,nan,nan)" stroke-width="1" />
<path d="M 1.50 1.81 C 1.50 1238.06, 1.50 2474.31, 1.50 3710.56 C 1026.50 3714.19, 2051.49 3714.19, 3076.49 3714.19 C 3079.50 2477.94, 3079.50 1241.69, 3079.50 5.44 C 2054.50 1.81, 1029.51 1.81, 4.51 1.81 Z" fill="rgb(252.98114759896208,252.2463432521881,252.35568643364246)" stroke="rgb(252.98114759896208,252.2463432521881,252.35568643364246)" stroke-width="1" />
<path d="M 3073.48 2356.97 C 3031.07 2375.49, 2989.81 2358.20, 2947.11 2367.86 C 2899.15 2366.07, 2856.80 2377.03, 2817.73 2371.49 C 2747.81 2400.12, 2645.99 2385.65, 2558.98 2389.63 C 2472.56 2393.66, 2390.11 2387.63, 2300.22 2389.63 C 2239.53 2369.56, 2255.02 2448.70, 2252.08 2494.87 C 2252.08 2550.52, 2252.08 2602.53, 2252.08 2654.54 C 2250.90 2764.43, 2254.68 2873.43, 2249.07 2966.63 C 2256.18 2997.03, 2249.70 3013.77, 2249.07 3042.84 C 2260.92 3086.32, 2225.74 3070.39, 2206.95 3079.13 C 2160.81 3079.13, 2117.69 3079.13, 2074.56 3079.13 C 2044.96 3077.89, 2062.77 3123.83, 2053.50 3140.82 C 2053.76 3172.97, 2054.70 3192.80, 2053.50 3220.65 C 2053.01 3274.47, 2059.53 3325.84, 2053.50 3376.70 C 2051.65 3435.42, 1979.18 3398.67, 1945.18 3409.36 C 1899.05 3409.36, 1855.92 3409.36, 1812.80 3409.36 C 1721.31 3405.66, 1639.57 3420.25, 1554.04 3409.36 C 1508.88 3408.59, 1467.95 3418.27, 1424.66 3416.62 C 1381.49 3412.43, 1336.22 3427.07, 1292.27 3416.62 C 1250.79 3417.16, 1208.78 3426.94, 1162.90 3423.87 C 1116.38 3421.06, 1076.52 3428.84, 1033.52 3427.50 C 943.42 3430.31, 853.07 3419.33, 771.75 3427.50 C 684.97 3425.53, 599.32 3421.14, 513.00 3427.50 C 423.74 3427.50, 337.49 3427.50, 251.23 3427.50 C 204.25 3428.58, 159.89 3416.48, 121.86 3427.50 C 96.65 3429.14, 81.29 3437.13, 58.67 3431.13 C 38.54 3448.86, 5.51 3417.35, 1.50 3449.28 C 1.50 3503.71, 1.50 3554.51, 1.50 3605.32 C 5.87 3655.70, -18.51 3737.11, 43.63 3714.19 C 739.66 3714.19, 1432.69 3714.19, 2125.71 3714.19 C 2301.22 3714.19, 2473.73 3714.19, 2646.23 3714.19 C 2734.49 3714.19, 2819.74 3714.19, 2904.99 3714.19 C 2950.12 3714.19, 2992.24 3714.19, 3034.36 3714.19 C 3099.51 3737.11, 3075.13 3655.70, 3079.50 3608.95 C 3079.50 3397.26, 3079.50 3189.20, 3079.50 2981.15 C 3079.50 2874.70, 3079.50 2771.88, 3079.50 2669.06 C 3077.49 2563.82, 3083.50 2452.54, 3076.49 2356.97 Z" fill="rgb(254.9997336631964,254.9996981516226,254.9996685586444)" stroke="rgb(254.9997336631964,254.9996981516226,254.9996685586444)" stroke-width="1" />
<path d="M 2288.18 1050.57 C 2217.84 1064.49, 2143.72 1067.38, 2071.55 1075.97 C 2054.71 1086.00, 2028.14 1073.10, 2023.41 1094.12 C 2011.43 1114.83, 2024.45 1144.40, 2008.37 1159.44 C 2011.57 1209.40, 2057.45 1244.64, 2032.44 1293.71 C 2034.21 1335.92, 2054.21 1388.24, 2065.53 1413.46 C 2101.22 1439.46, 2144.83 1451.53, 2149.78 1504.18 C 2172.69 1537.64, 2163.80 1588.72, 2161.81 1631.19 C 2163.47 1682.70, 2141.50 1718.78, 2140.75 1765.46 C 2127.21 1812.03, 2118.35 1862.02, 2080.58 1881.59 C 2034.47 1879.54, 2000.60 1838.23, 1972.26 1801.75 C 1914.54 1726.84, 1926.70 1622.14, 1900.05 1536.84 C 1871.48 1493.95, 1828.91 1483.27, 1794.74 1460.63 C 1756.75 1426.35, 1721.86 1428.77, 1683.42 1449.75 C 1612.10 1486.52, 1538.58 1504.47, 1463.78 1518.70 C 1386.03 1517.94, 1317.87 1533.02, 1244.13 1522.33 C 1204.44 1523.30, 1171.83 1512.43, 1135.82 1511.44 C 1094.82 1508.02, 1054.46 1502.68, 1027.50 1475.15 C 992.12 1415.54, 951.88 1468.47, 919.19 1493.29 C 881.73 1535.20, 841.86 1566.58, 813.88 1609.42 C 773.53 1634.36, 742.04 1672.69, 705.56 1696.51 C 666.08 1708.75, 634.90 1732.76, 594.24 1729.17 C 545.70 1735.91, 522.19 1649.92, 573.17 1634.82 C 621.30 1633.59, 647.94 1584.93, 675.47 1544.10 C 706.40 1501.06, 718.28 1453.63, 744.68 1413.46 C 759.94 1389.24, 774.10 1369.32, 786.80 1351.77 C 816.64 1320.24, 788.18 1325.12, 768.75 1333.62 C 688.93 1352.90, 621.61 1399.80, 549.10 1431.60 C 467.95 1472.90, 393.59 1521.56, 326.45 1591.28 C 265.57 1651.95, 206.45 1732.01, 215.13 1838.04 C 210.64 1892.76, 230.88 1931.50, 254.24 1968.68 C 284.48 2014.69, 327.27 2028.83, 362.56 2055.78 C 433.10 2091.17, 503.05 2119.52, 582.20 2121.10 C 657.42 2124.73, 727.77 2133.78, 801.84 2131.98 C 873.29 2131.95, 952.85 2135.93, 1021.48 2124.72 C 1094.10 2120.17, 1171.08 2120.28, 1241.13 2106.58 C 1316.79 2099.40, 1392.31 2100.57, 1460.77 2081.18 C 1533.18 2055.57, 1615.09 2066.36, 1683.42 2037.63 C 1758.44 2017.71, 1833.68 2007.16, 1903.06 1979.57 C 1940.15 1965.72, 1973.96 1951.06, 2011.38 1946.91 C 2054.32 1939.91, 2087.26 1916.17, 2122.70 1899.73 C 2197.94 1867.13, 2271.42 1838.16, 2342.34 1801.75 C 2420.79 1760.34, 2495.88 1721.55, 2561.98 1656.60 C 2605.29 1629.66, 2626.05 1583.83, 2661.27 1547.73 C 2695.73 1505.99, 2718.89 1466.49, 2742.51 1424.35 C 2756.08 1381.07, 2777.94 1344.62, 2778.62 1297.33 C 2777.24 1243.36, 2766.77 1198.59, 2733.48 1166.69 C 2664.79 1117.46, 2594.28 1082.25, 2513.84 1075.97 C 2437.82 1064.50, 2368.71 1045.29, 2291.19 1050.57 Z" fill="rgb(182.5861111111111,59.87638888888889,15.490277777777777)" stroke="rgb(182.5861111111111,59.87638888888889,15.490277777777777)" stroke-width="1" />
<path d="M 1514.93 339.30 C 1454.47 346.38, 1400.87 373.39, 1352.45 415.51 C 1331.15 439.67, 1315.71 482.79, 1283.25 469.94 C 1246.61 466.45, 1233.39 422.42, 1208.03 404.62 C 1192.43 376.48, 1158.01 360.24, 1132.81 364.71 C 1096.75 373.07, 1098.18 419.54, 1102.72 451.80 C 1126.43 529.49, 1167.92 585.52, 1211.04 644.13 C 1231.35 674.27, 1234.34 714.23, 1217.06 742.11 C 1199.93 777.36, 1182.39 808.77, 1171.92 843.72 C 1151.18 911.53, 1138.13 978.06, 1129.80 1046.94 C 1126.48 1082.37, 1121.86 1113.51, 1117.77 1144.92 C 1105.88 1175.32, 1115.61 1228.71, 1081.66 1228.38 C 1047.79 1220.53, 1025.66 1238.79, 997.41 1246.53 C 964.09 1246.80, 939.19 1262.81, 913.17 1275.56 C 881.41 1279.88, 858.66 1301.67, 831.93 1311.85 C 811.73 1346.12, 782.48 1362.62, 768.75 1395.31 C 715.76 1460.70, 703.91 1533.91, 648.39 1591.28 C 631.47 1629.90, 596.26 1627.09, 576.18 1649.34 C 533.73 1658.14, 551.13 1715.16, 582.20 1718.29 C 643.48 1717.30, 705.28 1699.31, 744.68 1656.60 C 769.72 1635.04, 797.90 1624.09, 816.89 1594.90 C 839.13 1559.96, 871.66 1543.43, 892.11 1511.44 C 921.59 1492.49, 939.16 1464.13, 967.33 1446.12 C 994.34 1428.12, 1022.65 1425.89, 1051.57 1435.23 C 1093.92 1412.77, 1081.63 1482.51, 1093.69 1500.55 C 1119.70 1517.27, 1152.28 1506.10, 1177.94 1515.07 C 1223.58 1503.92, 1213.98 1534.30, 1247.14 1533.21 C 1276.24 1529.13, 1304.11 1531.35, 1331.39 1529.58 C 1348.48 1523.83, 1359.64 1532.42, 1370.50 1529.58 C 1394.91 1535.08, 1365.90 1507.33, 1394.57 1515.07 C 1424.66 1515.07, 1451.74 1515.07, 1478.82 1515.07 C 1507.46 1507.06, 1536.77 1499.28, 1563.07 1504.18 C 1585.60 1500.24, 1602.21 1472.34, 1635.28 1471.52 C 1649.51 1447.96, 1687.64 1451.88, 1707.49 1438.86 C 1730.81 1412.34, 1767.83 1429.55, 1785.72 1446.12 C 1816.49 1456.21, 1840.30 1477.84, 1869.96 1482.41 C 1878.42 1517.90, 1920.49 1518.92, 1927.13 1554.99 C 1922.47 1587.58, 1932.05 1625.81, 1930.14 1652.97 C 1937.47 1688.52, 1954.21 1697.88, 1954.21 1740.06 C 1975.52 1746.10, 1967.71 1801.31, 2002.35 1809.01 C 2024.94 1833.46, 2033.19 1870.47, 2068.54 1859.81 C 2106.05 1860.74, 2118.03 1814.67, 2125.71 1783.61 C 2139.45 1754.78, 2139.86 1718.70, 2143.76 1685.63 C 2150.99 1646.89, 2155.31 1621.53, 2158.81 1587.65 C 2151.21 1551.65, 2147.98 1517.09, 2137.74 1486.04 C 2115.88 1458.14, 2090.53 1431.99, 2062.52 1417.09 C 2044.60 1381.54, 2027.79 1357.10, 2026.42 1319.11 C 2015.88 1280.29, 1988.42 1256.67, 1975.27 1221.13 C 1983.78 1184.61, 2001.24 1159.71, 2005.36 1123.15 C 2020.49 1097.09, 2015.22 1047.43, 2047.48 1043.31 C 2072.05 1021.25, 2113.42 1024.13, 2119.69 988.88 C 2158.74 963.46, 2095.16 955.40, 2077.57 952.59 C 2044.27 941.26, 2019.00 926.73, 1996.33 901.78 C 1938.67 862.56, 1901.67 799.36, 1882.00 727.60 C 1865.38 658.03, 1858.81 585.23, 1830.85 528.01 C 1819.29 485.86, 1786.78 464.34, 1767.66 437.28 C 1742.43 411.22, 1716.70 385.37, 1686.43 375.59 C 1633.47 348.31, 1578.83 334.69, 1517.93 339.30 Z" fill="rgb(163.7687074829932,131.43764172335602,129.31292517006804)" stroke="rgb(163.7687074829932,131.43764172335602,129.31292517006804)" stroke-width="1" />
<path d="M 1517.93 339.30 C 1456.11 344.11, 1401.74 370.60, 1352.45 411.88 C 1331.19 438.01, 1316.31 482.98, 1283.25 469.94 C 1248.96 462.12, 1232.61 423.97, 1208.03 404.62 C 1189.65 376.84, 1162.51 347.87, 1132.81 361.08 C 1094.26 362.91, 1087.10 413.46, 1099.71 444.54 C 1119.19 524.41, 1166.81 585.47, 1208.03 644.13 C 1232.53 671.61, 1232.26 720.05, 1211.04 745.74 C 1191.63 779.85, 1180.01 814.22, 1165.91 847.35 C 1148.87 916.22, 1131.94 981.52, 1129.80 1054.20 C 1109.59 1118.36, 1127.20 1212.16, 1078.65 1246.53 C 1046.58 1249.51, 1022.92 1242.12, 994.40 1257.42 C 929.88 1257.19, 1044.36 1262.67, 1000.42 1275.56 C 969.39 1275.23, 943.14 1280.06, 916.18 1282.82 C 884.13 1277.41, 858.80 1309.98, 843.97 1315.48 C 890.88 1342.88, 806.58 1318.00, 804.85 1355.40 C 789.12 1388.34, 753.49 1405.00, 747.68 1442.49 C 717.73 1468.21, 711.94 1509.16, 696.53 1540.47 C 670.56 1565.16, 649.46 1601.54, 627.33 1627.56 C 602.89 1649.20, 560.83 1640.26, 552.11 1674.74 C 555.14 1718.83, 597.15 1725.52, 624.32 1714.66 C 654.11 1702.88, 681.10 1691.75, 708.57 1682.00 C 735.36 1652.24, 760.95 1633.15, 789.81 1616.68 C 842.86 1560.34, 883.20 1497.49, 943.26 1457.01 C 962.01 1429.28, 995.00 1427.92, 1021.48 1417.09 C 1047.63 1400.18, 1010.16 1420.10, 1012.46 1398.94 C 1019.58 1386.59, 1038.55 1380.88, 1048.56 1391.69 C 1043.47 1443.62, 1090.33 1396.49, 1087.68 1453.38 C 1081.39 1501.55, 1117.80 1505.12, 1147.85 1507.81 C 1207.44 1507.21, 1261.68 1524.89, 1316.35 1518.70 C 1373.21 1511.27, 1430.22 1513.02, 1484.84 1507.81 C 1542.90 1489.37, 1602.48 1484.08, 1653.33 1453.38 C 1683.78 1442.32, 1711.46 1432.00, 1737.58 1417.09 C 1766.79 1441.91, 1797.01 1455.03, 1824.83 1475.15 C 1856.37 1489.34, 1887.12 1506.45, 1906.07 1540.47 C 1923.86 1570.88, 1909.45 1613.74, 1924.12 1642.08 C 1934.55 1719.72, 1954.62 1799.35, 2014.38 1841.67 C 2037.88 1868.31, 2075.29 1889.26, 2098.63 1859.81 C 2120.30 1827.34, 2125.52 1791.77, 2134.74 1758.21 C 2150.84 1691.72, 2160.09 1619.66, 2155.80 1551.36 C 2149.69 1512.80, 2140.36 1474.53, 2113.67 1453.38 C 2083.42 1433.09, 2052.78 1415.65, 2044.47 1377.17 C 2028.48 1343.36, 2028.12 1305.37, 2011.38 1275.56 C 1993.25 1237.67, 1955.75 1204.33, 1996.33 1170.32 C 2007.51 1135.11, 2014.12 1101.24, 2023.41 1068.71 C 2049.95 1036.60, 2078.33 1022.26, 2107.66 1010.65 C 2143.95 991.07, 2149.03 949.34, 2104.65 956.22 C 2072.30 946.58, 2041.94 939.90, 2017.39 916.30 C 1988.36 891.18, 1955.92 877.87, 1939.16 840.09 C 1918.44 805.64, 1894.71 776.32, 1888.02 738.48 C 1866.64 668.78, 1864.20 593.24, 1833.86 531.63 C 1804.19 456.88, 1748.99 412.22, 1692.44 379.22 C 1639.27 348.45, 1582.85 335.90, 1520.94 339.30 Z" fill="rgb(77.0488188976378,90.4992125984252,134.1811023622047)" stroke="rgb(77.0488188976378,90.4992125984252,134.1811023622047)" stroke-width="1" />
<path d="M 1505.90 339.30 C 1460.74 347.40, 1418.30 363.41, 1379.53 390.11 C 1333.41 414.95, 1310.34 514.71, 1259.18 455.43 C 1212.29 427.69, 1190.42 339.72, 1135.82 357.45 C 1071.44 355.98, 1090.89 447.48, 1111.75 484.46 C 1133.37 544.63, 1168.69 592.82, 1205.02 640.50 C 1258.26 690.93, 1205.72 750.37, 1186.97 796.54 C 1145.82 895.67, 1131.69 1003.17, 1120.77 1112.26 C 1116.03 1169.33, 1099.28 1215.28, 1096.70 1268.30 C 1082.13 1320.55, 1078.09 1370.95, 1084.67 1424.35 C 1094.84 1447.71, 1083.87 1483.50, 1099.71 1496.92 C 1121.59 1506.94, 1144.64 1504.79, 1165.91 1507.81 C 1211.59 1509.84, 1251.07 1521.17, 1295.28 1518.70 C 1341.92 1520.66, 1382.28 1513.10, 1424.66 1511.44 C 1473.97 1517.54, 1511.79 1498.98, 1554.04 1493.29 C 1601.56 1483.32, 1641.48 1459.98, 1683.42 1442.49 C 1708.81 1437.88, 1727.56 1422.67, 1749.61 1417.09 C 1763.34 1426.56, 1789.23 1446.43, 1809.79 1457.01 C 1854.22 1481.49, 1907.22 1502.93, 1921.11 1562.24 C 1925.73 1615.17, 1924.69 1678.29, 1948.19 1711.03 C 1950.66 1775.08, 1993.37 1813.19, 2023.41 1845.30 C 2067.02 1897.28, 2119.09 1853.52, 2122.70 1794.49 C 2138.62 1743.00, 2145.18 1690.47, 2152.79 1638.45 C 2151.73 1586.42, 2156.75 1525.02, 2134.74 1482.41 C 2106.71 1453.87, 2050.68 1419.09, 2038.45 1362.65 C 2026.08 1335.80, 2023.97 1307.44, 2014.38 1282.82 C 2000.94 1252.71, 1975.40 1239.06, 1975.27 1206.61 C 2007.15 1163.35, 2001.60 1099.04, 2029.43 1054.20 C 2051.55 1034.51, 2071.88 1021.98, 2092.61 1010.65 C 2117.26 1008.87, 2149.04 959.58, 2110.67 959.85 C 2060.52 951.46, 2018.57 927.99, 1981.29 890.90 C 1939.44 849.76, 1903.06 798.65, 1888.02 742.11 C 1862.81 630.60, 1850.78 509.51, 1770.67 437.28 C 1693.39 367.32, 1609.45 329.14, 1508.91 339.30 Z" fill="rgb(149.4072287232829,174.16366705444923,223.65514724332215)" stroke="rgb(149.4072287232829,174.16366705444923,223.65514724332215)" stroke-width="1" />
<path d="M 2026.42 1946.91 C 1937.26 1970.90, 1853.41 2010.35, 1761.65 2026.74 C 1713.40 2034.41, 1672.10 2053.54, 1626.25 2059.40 C 1579.49 2067.76, 1533.45 2069.45, 1490.85 2081.18 C 1405.38 2110.13, 1310.67 2103.44, 1223.07 2117.47 C 1200.21 2123.41, 1176.73 2118.78, 1156.88 2124.72 C 1125.72 2132.05, 1150.08 2173.91, 1138.83 2197.30 C 1142.57 2255.67, 1145.83 2304.70, 1150.86 2360.60 C 1153.22 2415.91, 1158.84 2471.11, 1156.88 2520.28 C 1148.04 2575.64, 1163.05 2632.96, 1156.88 2683.58 C 1147.50 2800.20, 1127.37 2907.82, 1096.70 3010.18 C 1070.73 3067.88, 1041.53 3120.34, 1006.44 3169.85 C 969.66 3226.96, 922.49 3244.96, 871.04 3227.91 C 844.35 3222.24, 823.40 3212.24, 804.85 3195.25 C 771.58 3197.37, 768.65 3164.01, 744.68 3148.08 C 701.87 3105.46, 670.12 3046.72, 624.32 3024.69 C 603.62 3006.80, 571.72 3017.75, 579.19 3050.10 C 576.21 3082.62, 587.21 3104.53, 591.23 3129.93 C 623.79 3186.49, 651.55 3244.80, 690.52 3289.60 C 731.52 3335.73, 776.46 3360.22, 822.90 3383.96 C 866.19 3403.64, 911.01 3410.10, 958.30 3409.36 C 1054.21 3411.99, 1144.55 3407.17, 1226.08 3376.70 C 1326.84 3344.57, 1412.64 3281.27, 1496.87 3213.40 C 1543.86 3170.08, 1588.62 3121.81, 1626.25 3071.87 C 1671.11 3017.39, 1699.65 2959.88, 1740.58 2908.57 C 1811.82 2803.31, 1867.08 2695.20, 1912.09 2581.97 C 1941.63 2470.91, 1979.11 2367.45, 1999.34 2255.37 C 2009.05 2196.85, 2022.85 2144.01, 2038.45 2092.06 C 2041.48 2063.04, 2047.59 2039.19, 2047.48 2012.23 C 2050.01 1987.27, 2059.76 1940.39, 2029.43 1946.91 Z" fill="rgb(81.52106741573034,110.02808988764045,170.22191011235955)" stroke="rgb(81.52106741573034,110.02808988764045,170.22191011235955)" stroke-width="1" />
<path d="M 786.80 1326.37 C 737.57 1342.56, 687.67 1356.77, 642.38 1384.43 C 590.33 1410.83, 540.93 1432.58, 494.95 1464.26 C 440.98 1491.15, 394.17 1530.09, 347.52 1569.50 C 300.82 1620.08, 249.44 1663.98, 236.19 1732.80 C 207.61 1782.89, 209.40 1860.48, 227.16 1910.62 C 249.56 1974.24, 299.65 2022.71, 350.52 2044.89 C 398.55 2075.75, 448.37 2092.63, 497.95 2110.21 C 548.36 2120.15, 600.40 2116.54, 648.39 2124.72 C 751.14 2135.59, 842.38 2131.89, 943.26 2131.98 C 995.60 2131.84, 1040.47 2118.68, 1090.69 2121.10 C 1142.34 2114.81, 1192.55 2113.08, 1241.13 2106.58 C 1291.12 2099.60, 1339.87 2097.75, 1388.56 2095.69 C 1441.84 2088.60, 1487.10 2070.53, 1535.99 2063.03 C 1587.39 2055.29, 1637.06 2051.30, 1683.42 2037.63 C 1733.78 2019.12, 1787.05 2017.82, 1833.86 1997.71 C 1886.02 1986.16, 1931.01 1962.46, 1981.29 1954.17 C 2006.21 1937.51, 2034.74 1943.73, 2053.50 1921.51 C 2048.46 1904.24, 2120.03 1915.84, 2080.58 1885.22 C 2024.65 1870.66, 1975.26 1821.29, 1948.19 1761.83 C 1924.32 1703.85, 1913.70 1644.37, 1912.09 1580.39 C 1902.60 1503.26, 1831.20 1490.17, 1788.73 1457.01 C 1740.01 1411.26, 1690.76 1455.20, 1641.29 1467.89 C 1593.82 1496.74, 1542.37 1501.61, 1493.86 1515.07 C 1443.95 1525.21, 1391.98 1520.60, 1343.42 1525.96 C 1291.68 1529.36, 1244.96 1529.27, 1195.99 1518.70 C 1142.30 1517.63, 1093.58 1510.84, 1048.56 1493.29 C 1019.20 1485.49, 1008.24 1433.36, 979.36 1446.12 C 949.97 1462.38, 928.10 1488.13, 904.14 1507.81 C 852.37 1555.26, 810.65 1618.88, 756.71 1652.97 C 713.47 1701.39, 660.71 1713.35, 609.28 1729.17 C 583.88 1730.31, 552.27 1721.93, 546.10 1689.26 C 538.37 1655.16, 572.40 1626.75, 597.24 1627.56 C 629.44 1631.00, 639.42 1590.15, 657.42 1569.50 C 679.14 1541.80, 698.26 1514.30, 708.57 1482.41 C 721.25 1448.45, 742.25 1418.18, 759.72 1395.31 C 761.49 1367.28, 825.79 1328.12, 789.81 1326.37 Z" fill="rgb(248.34648445100666,108.18081928372764,21.86606233332189)" stroke="rgb(248.34648445100666,108.18081928372764,21.86606233332189)" stroke-width="1" />
<path d="M 2008.37 1950.54 C 1965.27 1969.27, 1917.67 1974.88, 1875.98 1997.71 C 1828.34 2007.14, 1786.39 2024.38, 1740.58 2030.37 C 1691.73 2035.06, 1654.23 2064.04, 1605.19 2059.40 C 1554.15 2061.85, 1512.07 2078.00, 1466.78 2084.81 C 1378.41 2108.26, 1284.87 2107.88, 1195.99 2121.10 C 1172.85 2122.33, 1140.36 2115.10, 1138.83 2146.50 C 1138.83 2176.74, 1138.83 2203.35, 1138.83 2229.96 C 1139.54 2289.67, 1148.96 2341.40, 1150.86 2396.89 C 1160.92 2451.28, 1155.51 2506.95, 1153.87 2560.19 C 1156.90 2617.96, 1162.94 2670.91, 1153.87 2723.49 C 1145.87 2780.36, 1141.64 2835.48, 1129.80 2886.79 C 1111.07 2944.02, 1107.65 3005.26, 1078.65 3053.72 C 1048.89 3113.63, 1013.56 3168.56, 970.33 3213.40 C 924.77 3249.46, 876.74 3236.88, 831.93 3217.03 C 812.02 3196.77, 783.56 3198.86, 768.75 3180.74 C 756.66 3150.85, 719.39 3147.36, 714.59 3115.42 C 691.90 3087.35, 663.36 3080.39, 648.39 3050.10 C 594.92 3045.70, 677.99 3024.11, 633.35 3024.69 C 611.07 3017.22, 579.51 3035.48, 582.20 3064.61 C 590.38 3093.52, 585.27 3128.81, 606.27 3144.45 C 639.10 3121.48, 606.01 3191.07, 636.36 3198.88 C 654.84 3228.41, 667.76 3257.08, 687.51 3282.35 C 729.31 3332.96, 775.56 3358.25, 822.90 3380.33 C 868.47 3403.56, 914.95 3407.03, 961.31 3405.73 C 1004.36 3407.48, 1056.17 3408.33, 1096.70 3402.10 C 1147.55 3399.09, 1192.49 3387.63, 1235.11 3369.44 C 1285.52 3358.41, 1325.30 3325.18, 1370.50 3307.75 C 1419.50 3271.52, 1465.72 3239.63, 1508.91 3198.88 C 1553.99 3158.23, 1599.04 3104.02, 1635.28 3057.35 C 1676.57 3006.84, 1704.78 2952.25, 1743.59 2901.31 C 1783.53 2847.37, 1810.02 2791.85, 1839.87 2738.01 C 1870.94 2681.94, 1892.15 2626.08, 1915.09 2571.08 C 1931.61 2514.96, 1945.18 2461.00, 1960.23 2407.78 C 1977.47 2350.32, 1993.99 2297.62, 2002.35 2240.85 C 2008.41 2181.01, 2031.50 2133.31, 2038.45 2077.55 C 2041.73 2046.44, 2050.19 2023.05, 2047.48 1994.08 C 2058.41 1956.79, 2038.36 1943.58, 2011.38 1950.54 Z" fill="rgb(128.6711251071027,159.33623020686125,220.40743543236115)" stroke="rgb(128.6711251071027,159.33623020686125,220.40743543236115)" stroke-width="1" />
<path d="M 2071.55 1950.54 C 2049.31 1977.66, 2058.94 2029.19, 2050.49 2066.66 C 2041.62 2112.50, 2029.98 2153.33, 2017.39 2193.67 C 2005.94 2283.36, 1984.36 2364.35, 1960.23 2444.07 C 1936.68 2533.72, 1908.80 2616.08, 1872.97 2694.46 C 1824.92 2784.11, 1781.64 2871.00, 1719.52 2948.49 C 1670.64 3035.41, 1600.76 3113.71, 1539.00 3187.99 C 1524.04 3207.04, 1512.37 3224.95, 1502.89 3242.43 C 1525.81 3248.91, 1510.99 3279.97, 1514.93 3300.49 C 1521.90 3322.58, 1514.55 3346.48, 1514.93 3362.18 C 1500.10 3388.38, 1477.19 3355.30, 1463.78 3373.07 C 1402.60 3376.83, 1477.85 3402.66, 1502.89 3387.58 C 1535.95 3401.80, 1574.27 3391.91, 1608.20 3394.84 C 1681.75 3392.14, 1748.45 3400.65, 1818.81 3398.47 C 1890.02 3398.47, 1958.22 3398.47, 2026.42 3398.47 C 2054.70 3379.20, 2035.45 3321.70, 2041.46 3285.97 C 2048.42 3244.19, 2042.52 3199.61, 2044.47 3158.96 C 2044.43 3116.04, 2038.36 3058.26, 2083.59 3068.24 C 2120.69 3068.24, 2154.79 3068.24, 2188.89 3068.24 C 2239.60 3084.78, 2241.04 3031.50, 2237.03 2988.40 C 2237.03 2943.65, 2237.03 2902.52, 2237.03 2861.39 C 2237.03 2690.83, 2237.03 2523.90, 2237.03 2356.97 C 2237.03 2271.09, 2237.03 2188.84, 2237.03 2106.58 C 2249.26 2047.51, 2214.61 2023.00, 2179.87 2008.60 C 2142.34 1990.45, 2109.88 1966.35, 2074.56 1950.54 Z" fill="rgb(241.93424657534246,243.32054794520548,246.36986301369862)" stroke="rgb(241.93424657534246,243.32054794520548,246.36986301369862)" stroke-width="1" />
<path d="M 2074.56 1950.54 C 2048.84 1969.11, 2064.39 2024.46, 2050.49 2055.78 C 2049.29 2102.02, 2031.69 2136.45, 2023.41 2175.53 C 2006.54 2257.17, 1996.75 2338.71, 1969.25 2411.41 C 1944.02 2493.88, 1926.69 2575.16, 1891.02 2647.29 C 1855.88 2733.03, 1811.93 2810.74, 1764.65 2886.79 C 1707.03 2967.04, 1658.87 3047.89, 1599.17 3119.04 C 1572.72 3146.53, 1514.46 3203.01, 1578.11 3187.99 C 1609.99 3187.26, 1647.75 3186.89, 1677.40 3187.99 C 1721.12 3171.00, 1738.29 3215.03, 1725.54 3253.31 C 1726.33 3297.41, 1726.29 3333.66, 1722.53 3373.07 C 1729.45 3413.17, 1782.80 3386.39, 1806.78 3398.47 C 1841.88 3398.47, 1873.97 3398.47, 1906.07 3398.47 C 1940.17 3398.47, 1971.26 3398.47, 2002.35 3398.47 C 2050.99 3409.50, 2041.63 3352.97, 2041.46 3315.01 C 2045.68 3235.06, 2041.68 3154.65, 2047.48 3079.13 C 2078.52 3064.18, 2112.25 3069.43, 2143.76 3068.24 C 2176.09 3061.72, 2222.86 3084.27, 2237.03 3050.10 C 2237.03 2967.84, 2237.03 2889.21, 2237.03 2810.59 C 2237.03 2649.71, 2237.03 2492.45, 2237.03 2335.20 C 2234.65 2259.42, 2233.23 2177.65, 2234.03 2099.32 C 2247.24 2040.25, 2206.32 2027.45, 2176.86 2008.60 C 2141.52 1991.14, 2110.27 1970.55, 2077.57 1954.17 Z" fill="rgb(243.29613281837788,244.95686412198424,248.78085970808044)" stroke="rgb(243.29613281837788,244.95686412198424,248.78085970808044)" stroke-width="1" />
<path d="M 2279.16 1050.57 C 2234.50 1060.47, 2184.10 1062.13, 2140.75 1065.08 C 2098.91 1084.02, 2019.84 1050.50, 2017.39 1119.52 C 2013.56 1151.48, 1992.18 1180.31, 2017.39 1195.72 C 2035.45 1223.41, 2049.63 1255.19, 2032.44 1282.82 C 2033.04 1350.95, 2058.36 1415.15, 2107.66 1442.49 C 2157.50 1478.72, 2166.84 1541.71, 2164.82 1605.79 C 2160.68 1669.21, 2153.44 1727.46, 2134.74 1779.98 C 2130.34 1814.74, 2117.88 1841.85, 2101.64 1867.07 C 2077.25 1906.96, 2125.88 1908.40, 2143.76 1892.47 C 2192.98 1865.57, 2241.36 1848.63, 2288.18 1827.15 C 2337.37 1801.87, 2384.56 1779.56, 2429.60 1750.95 C 2483.47 1727.93, 2527.70 1685.61, 2574.02 1649.34 C 2623.70 1594.92, 2668.22 1541.10, 2706.41 1486.04 C 2743.50 1430.56, 2765.84 1372.84, 2781.63 1311.85 C 2783.29 1243.57, 2763.49 1182.74, 2715.43 1152.18 C 2669.47 1117.02, 2620.85 1098.35, 2571.01 1083.23 C 2475.58 1064.04, 2382.58 1046.51, 2282.17 1050.57 Z" fill="rgb(242.9518618293512,82.90387471990735,13.331201691885495)" stroke="rgb(242.9518618293512,82.90387471990735,13.331201691885495)" stroke-width="1" />
<path d="M 2375.44 332.04 C 2352.81 340.37, 2324.91 333.36, 2300.22 335.67 C 2273.12 332.49, 2231.68 332.12, 2246.06 371.96 C 2243.61 442.45, 2246.96 496.89, 2243.05 564.29 C 2240.80 626.81, 2249.26 690.65, 2243.05 756.63 C 2240.08 818.61, 2244.39 884.62, 2243.05 948.96 C 2239.99 985.85, 2199.23 987.93, 2179.87 1007.02 C 2160.73 1013.30, 2099.32 1037.26, 2125.71 1043.31 C 2182.25 1043.90, 2233.17 1057.32, 2285.18 1043.31 C 2399.56 1040.15, 2504.30 1056.32, 2604.11 1086.86 C 2664.43 1100.86, 2711.07 1145.93, 2763.57 1173.95 C 2791.51 1189.78, 2776.86 1130.79, 2778.62 1108.63 C 2780.87 1072.88, 2769.09 1039.92, 2775.61 1010.65 C 2768.97 977.20, 2776.84 945.02, 2772.60 916.30 C 2777.50 879.97, 2769.42 851.30, 2775.61 818.32 C 2773.99 784.33, 2775.54 760.64, 2778.62 731.22 C 2775.04 696.77, 2779.36 668.91, 2778.62 633.24 C 2786.51 563.26, 2777.44 499.41, 2781.63 440.91 C 2782.98 406.80, 2782.33 377.73, 2778.62 346.56 C 2753.61 345.68, 2728.47 329.39, 2697.38 335.67 C 2639.93 332.41, 2591.58 334.25, 2537.91 332.04 C 2490.58 332.18, 2433.29 341.10, 2378.45 332.04 Z" fill="rgb(246.41310975609755,218.16310975609755,206.0701219512195)" stroke="rgb(246.41310975609755,218.16310975609755,206.0701219512195)" stroke-width="1" />
<path d="M 2778.62 1355.40 C 2756.96 1425.01, 2720.06 1487.02, 2673.31 1544.10 C 2626.47 1611.65, 2571.94 1662.54, 2516.85 1707.40 C 2463.47 1746.45, 2410.27 1773.64, 2357.39 1801.75 C 2302.60 1833.58, 2247.85 1853.13, 2194.91 1877.96 C 2167.10 1889.64, 2143.85 1905.83, 2116.68 1910.62 C 2074.17 1920.26, 2067.97 1952.79, 2110.67 1961.42 C 2141.34 1973.72, 2162.88 2000.24, 2191.90 2004.97 C 2218.94 2022.48, 2253.08 2037.78, 2243.05 2081.18 C 2240.38 2152.74, 2250.56 2211.82, 2243.05 2273.51 C 2247.99 2308.13, 2242.16 2342.99, 2249.07 2371.49 C 2275.71 2379.83, 2304.61 2372.80, 2330.31 2375.12 C 2440.71 2375.30, 2548.07 2374.83, 2652.25 2375.12 C 2680.33 2375.12, 2705.40 2375.12, 2730.48 2375.12 C 2761.02 2377.93, 2792.67 2379.12, 2781.63 2335.20 C 2781.63 2267.46, 2781.63 2203.35, 2781.63 2139.24 C 2781.63 2007.39, 2781.63 1879.17, 2781.63 1750.95 C 2779.65 1618.38, 2785.60 1485.47, 2778.62 1359.03 Z" fill="rgb(243.59615384615384,222.84615384615384,216.05769230769232)" stroke="rgb(243.59615384615384,222.84615384615384,216.05769230769232)" stroke-width="1" />
<path d="M 2778.62 1384.43 C 2743.21 1444.38, 2718.58 1506.71, 2667.29 1562.24 C 2640.22 1595.17, 2617.38 1623.70, 2601.10 1649.34 C 2602.38 1671.78, 2590.00 1687.27, 2592.07 1660.22 C 2580.06 1646.48, 2565.51 1674.55, 2552.96 1674.74 C 2501.61 1727.48, 2445.94 1755.23, 2390.48 1783.61 C 2334.22 1812.35, 2283.92 1846.08, 2228.01 1863.44 C 2197.98 1872.28, 2175.08 1889.51, 2149.78 1899.73 C 2127.36 1916.45, 2082.49 1918.44, 2077.57 1939.65 C 2133.80 1974.53, 2188.10 2002.64, 2240.04 2037.63 C 2242.05 2106.37, 2243.68 2170.17, 2246.06 2233.59 C 2246.06 2268.67, 2246.06 2300.12, 2246.06 2331.57 C 2235.23 2383.59, 2272.62 2377.24, 2297.21 2378.75 C 2396.50 2371.34, 2519.38 2379.34, 2619.15 2371.49 C 2674.56 2366.89, 2733.35 2380.85, 2781.63 2364.23 C 2781.63 2296.49, 2781.63 2232.38, 2781.63 2168.27 C 2781.63 2036.42, 2781.63 1908.20, 2781.63 1779.98 C 2780.06 1644.51, 2785.91 1517.62, 2778.62 1388.06 Z" fill="rgb(239.03374233128835,224.23312883435582,219.59509202453987)" stroke="rgb(239.03374233128835,224.23312883435582,219.59509202453987)" stroke-width="1" />
<path d="M 2327.30 332.04 C 2307.67 340.34, 2282.80 333.38, 2261.10 335.67 C 2234.94 338.77, 2250.69 385.62, 2246.06 408.25 C 2246.06 467.52, 2246.06 523.17, 2246.06 578.81 C 2246.06 694.94, 2246.06 807.43, 2246.06 919.93 C 2252.47 970.91, 2222.60 1065.27, 2288.18 1043.31 C 2333.23 1035.58, 2384.90 1044.04, 2429.60 1050.57 C 2532.06 1066.95, 2633.47 1077.62, 2715.43 1144.92 C 2744.46 1173.51, 2754.15 1149.83, 2748.53 1115.89 C 2750.29 1081.95, 2741.10 1057.61, 2748.53 1028.79 C 2743.52 966.66, 2749.12 909.86, 2745.52 858.24 C 2749.63 799.12, 2747.28 747.97, 2748.53 687.68 C 2748.42 629.28, 2748.67 566.92, 2748.53 517.12 C 2747.65 457.90, 2749.81 397.54, 2748.53 346.56 C 2715.71 321.70, 2662.08 342.13, 2616.14 335.67 C 2564.72 337.59, 2517.46 332.33, 2474.73 335.67 C 2426.96 333.16, 2377.13 333.98, 2330.31 332.04 Z" fill="rgb(246.36902844087754,213.12243343780204,203.75993673296037)" stroke="rgb(246.36902844087754,213.12243343780204,203.75993673296037)" stroke-width="1" />
<path d="M 2065.53 1950.54 C 2050.62 2001.92, 2056.69 2067.50, 2038.45 2121.10 C 2016.05 2176.90, 2011.47 2237.97, 1999.34 2295.28 C 1986.96 2357.60, 1966.49 2412.24, 1951.20 2469.47 C 1933.67 2530.71, 1921.74 2591.13, 1894.03 2643.66 C 1884.35 2676.28, 1871.26 2703.58, 1857.93 2730.75 C 1825.68 2766.84, 1864.10 2758.36, 1888.02 2756.15 C 1909.01 2741.73, 1934.24 2759.43, 1957.22 2752.53 C 1969.27 2741.69, 2002.54 2752.76, 2017.39 2759.78 C 2058.36 2792.89, 2037.65 2866.41, 2047.48 2923.08 C 2049.52 2954.48, 2048.95 2979.76, 2050.49 3010.18 C 2046.36 3043.60, 2053.14 3078.89, 2083.59 3068.24 C 2136.24 3066.00, 2187.47 3072.90, 2228.01 3060.98 C 2244.85 3011.74, 2233.18 2944.53, 2237.03 2890.42 C 2237.03 2771.88, 2237.03 2656.96, 2237.03 2542.05 C 2235.20 2421.70, 2241.04 2308.92, 2234.03 2193.67 C 2237.19 2162.12, 2234.29 2136.08, 2234.03 2106.58 C 2235.49 2076.84, 2243.83 2037.29, 2212.96 2030.37 C 2162.47 2002.36, 2117.48 1970.71, 2068.54 1950.54 Z" fill="rgb(244.26583371008178,245.75829189100324,248.38037894044635)" stroke="rgb(244.26583371008178,245.75829189100324,248.38037894044635)" stroke-width="1" />
<path d="M 2580.04 1652.97 C 2508.58 1724.70, 2425.89 1763.71, 2345.35 1809.01 C 2266.57 1852.45, 2184.35 1877.13, 2107.66 1917.88 C 2090.20 1923.50, 2052.15 1936.90, 2083.59 1946.91 C 2105.04 1960.80, 2125.32 1969.31, 2143.76 1983.20 C 2177.34 2010.99, 2243.36 2010.11, 2243.05 2070.29 C 2241.58 2169.51, 2248.39 2260.96, 2246.06 2356.97 C 2262.16 2392.23, 2318.58 2367.06, 2351.37 2375.12 C 2393.49 2375.12, 2432.61 2375.12, 2471.72 2375.12 C 2510.65 2370.84, 2557.13 2384.03, 2586.05 2367.86 C 2586.05 2317.06, 2586.05 2269.88, 2586.05 2222.71 C 2586.05 2124.72, 2586.05 2030.37, 2586.05 1936.02 C 2584.05 1840.46, 2590.06 1738.85, 2583.05 1652.97 Z" fill="rgb(239.7139302292195,219.88141838541418,213.3348806048715)" stroke="rgb(239.7139302292195,219.88141838541418,213.3348806048715)" stroke-width="1" />
<path d="M 747.68 2552.94 C 711.76 2587.83, 675.64 2622.17, 636.36 2647.29 C 596.04 2675.90, 550.97 2700.33, 537.07 2756.15 C 509.01 2803.59, 543.18 2853.15, 534.06 2897.68 C 497.10 2890.14, 461.73 2852.47, 416.72 2861.39 C 373.15 2858.59, 336.36 2866.78, 302.38 2883.17 C 260.76 2902.70, 221.69 2939.72, 221.15 2995.66 C 216.25 3046.32, 206.21 3089.27, 206.10 3137.19 C 199.29 3159.69, 204.95 3184.79, 203.09 3206.14 C 223.82 3213.77, 245.48 3221.27, 263.27 3213.40 C 344.82 3215.30, 418.44 3202.89, 494.95 3198.88 C 541.86 3194.37, 574.95 3145.41, 576.18 3093.64 C 578.15 3064.90, 570.73 3044.30, 576.18 3024.69 C 592.05 2997.13, 617.71 3017.67, 633.35 3028.32 C 679.76 3043.57, 719.00 3016.91, 747.68 2977.52 C 784.57 2933.83, 804.66 2886.87, 816.89 2835.99 C 829.56 2792.12, 832.86 2739.57, 825.91 2694.46 C 808.19 2643.04, 787.48 2591.31, 750.69 2556.56 Z" fill="rgb(100.93006993006993,129.93006993006992,194.34265734265733)" stroke="rgb(100.93006993006993,129.93006993006992,194.34265734265733)" stroke-width="1" />
<path d="M 672.46 1025.17 C 599.73 1033.62, 521.61 1026.39, 446.81 1028.79 C 410.17 1031.41, 350.18 1010.74, 365.57 1075.97 C 366.94 1129.66, 363.87 1172.99, 368.58 1217.50 C 361.74 1266.06, 372.29 1311.32, 365.57 1355.40 C 372.98 1405.45, 363.18 1450.12, 368.58 1496.92 C 356.86 1530.55, 378.85 1540.92, 395.66 1518.70 C 416.99 1502.55, 434.42 1487.43, 452.82 1475.15 C 493.43 1451.87, 531.90 1431.14, 570.17 1409.83 C 647.56 1371.83, 721.82 1333.45, 801.84 1311.85 C 879.05 1274.50, 954.75 1241.55, 1033.52 1217.50 C 1101.59 1206.91, 1029.17 1137.07, 1000.42 1119.52 C 979.04 1104.72, 962.06 1089.51, 943.26 1079.60 C 922.39 1061.93, 938.39 1017.89, 907.15 1028.79 C 825.52 1027.64, 746.55 1031.11, 675.47 1025.17 Z" fill="rgb(232.1304347826087,216.52173913043478,212.34782608695653)" stroke="rgb(232.1304347826087,216.52173913043478,212.34782608695653)" stroke-width="1" />
<path d="M 380.61 1028.79 C 355.73 1057.96, 374.34 1117.26, 368.58 1159.44 C 368.58 1207.82, 368.58 1252.58, 368.58 1297.33 C 368.58 1345.72, 368.58 1390.48, 368.58 1435.23 C 368.58 1460.63, 368.58 1482.41, 368.58 1504.18 C 365.03 1551.41, 394.59 1514.54, 410.70 1507.81 C 485.57 1452.06, 562.94 1415.99, 639.37 1377.17 C 714.56 1332.75, 797.16 1318.66, 871.04 1279.19 C 910.37 1258.75, 948.45 1247.06, 985.38 1232.01 C 1023.09 1225.20, 1092.32 1211.07, 1045.55 1159.44 C 1010.20 1128.15, 976.65 1099.37, 937.24 1079.60 C 937.12 1013.48, 877.73 1036.42, 843.97 1032.42 C 766.39 1025.03, 686.20 1032.63, 615.30 1028.79 C 576.24 1031.73, 537.52 1027.02, 500.96 1032.42 C 459.47 1027.47, 422.98 1032.82, 383.62 1028.79 Z" fill="rgb(248.82142857142858,228.10714285714286,216.57142857142858)" stroke="rgb(248.82142857142858,228.10714285714286,216.57142857142858)" stroke-width="1" />
<path d="M 479.90 1025.17 C 452.27 1033.53, 419.34 1026.45, 389.64 1028.79 C 351.54 1027.50, 375.71 1093.65, 368.58 1123.15 C 368.58 1202.98, 368.58 1279.19, 368.58 1355.40 C 368.58 1395.31, 368.58 1431.60, 368.58 1467.89 C 368.58 1489.67, 368.58 1507.81, 368.58 1525.96 C 379.53 1538.75, 397.18 1512.00, 410.70 1507.81 C 474.26 1460.22, 538.47 1426.92, 603.26 1395.31 C 665.33 1358.39, 729.72 1337.02, 792.82 1311.85 C 828.48 1305.35, 803.22 1252.34, 810.87 1213.87 C 810.87 1172.74, 810.87 1135.24, 810.87 1097.74 C 813.37 1056.91, 818.82 1012.21, 771.75 1028.79 C 737.38 1028.38, 707.79 1022.80, 675.47 1025.17 C 602.37 1023.01, 542.24 1030.03, 482.91 1025.17 Z" fill="rgb(252.644047239068,226.13833386530482,212.3828279604213)" stroke="rgb(252.644047239068,226.13833386530482,212.3828279604213)" stroke-width="1" />
<path d="M 2778.62 1366.28 C 2758.23 1414.59, 2735.23 1461.59, 2703.40 1504.18 C 2670.55 1549.24, 2646.39 1588.14, 2613.13 1623.94 C 2577.04 1655.28, 2597.35 1714.46, 2595.08 1758.21 C 2590.88 1807.25, 2594.38 1852.79, 2592.07 1899.73 C 2593.23 1947.43, 2594.55 1996.29, 2592.07 2041.26 C 2596.09 2088.04, 2594.56 2134.56, 2595.08 2182.79 C 2594.64 2234.68, 2596.24 2281.24, 2592.07 2324.31 C 2575.55 2394.73, 2635.68 2371.73, 2670.30 2375.12 C 2707.41 2368.64, 2759.47 2388.56, 2781.63 2364.23 C 2781.63 2314.64, 2781.63 2268.67, 2781.63 2222.71 C 2781.63 2125.93, 2781.63 2032.79, 2781.63 1939.65 C 2781.21 1839.58, 2781.88 1739.29, 2784.63 1656.60 C 2777.23 1609.79, 2784.24 1556.24, 2781.63 1515.07 C 2780.91 1470.17, 2784.75 1416.44, 2778.62 1369.91 Z" fill="rgb(243.9817615320313,238.71935557413178,235.6441218937609)" stroke="rgb(243.9817615320313,238.71935557413178,235.6441218937609)" stroke-width="1" />
<path d="M 1126.79 2139.24 C 1088.31 2170.48, 1056.25 2215.26, 1021.48 2251.74 C 989.18 2289.94, 938.16 2325.39, 958.30 2382.38 C 959.74 2429.33, 962.79 2471.86, 961.31 2516.65 C 954.97 2570.18, 977.84 2604.80, 985.38 2650.92 C 996.94 2696.63, 994.56 2743.93, 985.38 2785.19 C 986.19 2837.77, 972.04 2879.27, 955.29 2919.46 C 944.66 2968.23, 898.64 3004.11, 907.15 3053.72 C 935.25 3092.00, 929.47 3155.73, 967.33 3177.11 C 971.77 3211.51, 994.88 3165.32, 1006.44 3155.33 C 1025.91 3131.14, 1036.69 3107.74, 1051.57 3086.38 C 1077.19 3041.99, 1098.01 3000.32, 1105.73 2952.12 C 1132.26 2865.92, 1142.32 2775.13, 1150.86 2683.58 C 1152.89 2634.89, 1148.02 2593.27, 1147.85 2549.31 C 1149.66 2501.72, 1152.93 2458.53, 1147.85 2415.04 C 1135.45 2325.08, 1134.04 2233.27, 1129.80 2142.87 Z" fill="rgb(227.88331071913163,230.29308005427407,236.29579375848033)" stroke="rgb(227.88331071913163,230.29308005427407,236.29579375848033)" stroke-width="1" />
<path d="M 1117.77 2150.13 C 1078.85 2181.85, 1047.22 2234.82, 1009.45 2269.88 C 967.78 2305.26, 953.80 2349.33, 961.31 2404.15 C 964.84 2450.06, 964.65 2494.21, 964.32 2538.42 C 968.53 2589.00, 989.05 2627.81, 997.41 2672.69 C 1009.46 2720.39, 990.63 2763.53, 988.39 2806.96 C 983.95 2858.81, 963.18 2896.66, 961.31 2941.23 C 941.02 2982.70, 892.36 3019.15, 913.17 3064.61 C 934.99 3107.29, 938.51 3164.53, 967.33 3191.62 C 1006.20 3162.48, 1023.51 3120.21, 1051.57 3082.76 C 1070.12 3037.77, 1097.46 3002.11, 1102.72 2952.12 C 1109.91 2904.02, 1130.88 2866.44, 1129.80 2817.85 C 1136.69 2771.10, 1150.24 2731.32, 1147.85 2683.58 C 1146.67 2596.88, 1151.27 2500.26, 1144.84 2415.04 C 1137.14 2369.20, 1136.78 2323.33, 1129.80 2280.77 C 1127.48 2234.08, 1132.83 2182.78, 1120.77 2150.13 Z" fill="rgb(234.8067128785115,237.05837285662167,241.97635899306823)" stroke="rgb(234.8067128785115,237.05837285662167,241.97635899306823)" stroke-width="1" />
<path d="M 284.33 2015.86 C 278.86 2057.17, 282.23 2102.91, 281.32 2146.50 C 269.65 2208.92, 326.79 2223.50, 359.55 2244.48 C 430.07 2291.12, 507.36 2309.28, 588.22 2317.06 C 664.99 2323.21, 740.33 2324.78, 813.88 2331.57 C 853.73 2329.60, 890.11 2326.27, 928.21 2327.94 C 975.64 2321.61, 999.20 2257.93, 1033.52 2229.96 C 1054.80 2210.55, 1070.71 2187.87, 1087.68 2168.27 C 1109.56 2147.67, 1116.99 2126.65, 1084.67 2131.98 C 1042.80 2129.29, 1009.20 2141.93, 970.33 2139.24 C 930.37 2147.01, 894.51 2137.77, 856.00 2142.87 C 814.96 2146.09, 779.72 2143.37, 741.67 2139.24 C 663.85 2134.91, 587.97 2133.71, 516.01 2121.10 C 430.62 2106.85, 358.58 2062.52, 287.34 2015.86 Z" fill="rgb(243.93827160493828,193.7037037037037,177.93827160493828)" stroke="rgb(243.93827160493828,193.7037037037037,177.93827160493828)" stroke-width="1" />
<path d="M 284.33 2019.49 C 284.33 2063.03, 284.33 2106.58, 284.33 2150.13 C 270.60 2211.32, 330.86 2226.14, 362.56 2244.48 C 434.13 2286.35, 505.89 2315.28, 588.22 2313.43 C 665.51 2320.48, 737.89 2329.47, 813.88 2327.94 C 851.91 2324.28, 891.23 2329.52, 928.21 2327.94 C 975.78 2317.43, 1002.43 2256.37, 1036.53 2222.71 C 1057.02 2203.18, 1070.80 2186.45, 1087.68 2168.27 C 1110.69 2143.88, 1111.63 2126.94, 1081.66 2131.98 C 1040.10 2131.40, 1004.03 2138.08, 967.33 2142.87 C 888.02 2139.75, 814.05 2150.35, 741.67 2139.24 C 663.46 2136.04, 589.50 2129.26, 516.01 2121.10 C 430.57 2108.22, 360.29 2059.95, 287.34 2019.49 Z" fill="rgb(245.30807109332923,207.5121951219512,195.33007617142417)" stroke="rgb(245.30807109332923,207.5121951219512,195.33007617142417)" stroke-width="1" />
<path d="M 1099.71 332.04 C 1079.46 342.67, 1050.76 328.68, 1030.51 339.30 C 1024.81 368.91, 1024.06 397.36, 1024.49 426.40 C 1024.49 486.88, 1024.49 543.73, 1024.49 600.58 C 1028.38 719.06, 1022.44 834.53, 1024.49 952.59 C 1020.20 979.12, 1037.05 1028.77, 1006.44 1025.17 C 981.12 1030.22, 952.32 1025.73, 937.24 1039.68 C 959.21 1101.49, 1028.39 1116.18, 1060.60 1163.06 C 1080.83 1205.41, 1103.58 1199.66, 1105.73 1155.81 C 1111.58 1125.27, 1113.27 1096.29, 1117.77 1068.71 C 1128.19 1007.22, 1131.80 945.95, 1147.85 890.90 C 1162.73 824.82, 1189.55 769.84, 1220.06 716.71 C 1225.39 644.16, 1157.94 604.65, 1132.81 546.15 C 1114.94 489.63, 1064.72 431.93, 1093.69 371.96 C 1096.19 337.59, 1135.31 336.51, 1153.87 339.30 C 1181.60 351.08, 1189.62 382.14, 1217.06 404.62 C 1239.80 430.59, 1259.03 456.35, 1286.26 462.69 C 1317.46 465.44, 1322.71 422.08, 1343.42 404.62 C 1339.53 378.85, 1352.47 317.68, 1328.38 357.45 C 1335.85 377.80, 1333.07 410.07, 1313.34 426.40 C 1288.61 468.53, 1292.18 399.74, 1289.27 379.22 C 1297.42 339.64, 1277.95 324.64, 1250.15 332.04 C 1197.61 328.41, 1148.63 336.86, 1102.72 332.04 Z" fill="rgb(249.41369524984577,250.5676742751388,252.22109808760024)" stroke="rgb(249.41369524984577,250.5676742751388,252.22109808760024)" stroke-width="1" />
<path d="M 1981.29 332.04 C 1934.62 340.47, 1882.60 333.28, 1833.86 335.67 C 1812.40 342.46, 1768.97 319.11, 1773.68 353.82 C 1778.24 391.01, 1758.97 427.01, 1788.73 448.17 C 1837.06 501.45, 1856.26 564.16, 1869.96 629.62 C 1884.45 697.01, 1888.66 765.91, 1933.15 814.69 C 1945.77 861.10, 1977.17 865.10, 1999.34 832.83 C 2034.34 835.01, 2048.64 801.13, 2065.53 774.77 C 2094.47 749.79, 2070.34 709.78, 2077.57 684.05 C 2076.47 649.13, 2078.38 619.34, 2080.58 589.70 C 2080.58 526.80, 2080.58 467.52, 2080.58 408.25 C 2075.65 381.50, 2094.20 329.11, 2062.52 335.67 C 2032.35 336.87, 2010.14 330.32, 1984.30 335.67 Z" fill="rgb(241.9015132721409,243.00235673530142,245.02307119821384)" stroke="rgb(241.9015132721409,243.00235673530142,245.02307119821384)" stroke-width="1" />
<path d="M 392.65 2857.76 C 345.61 2866.23, 299.23 2876.62, 260.26 2908.57 C 216.85 2947.52, 215.82 3011.09, 212.12 3068.24 C 209.70 3098.57, 202.51 3121.38, 203.09 3148.08 C 207.12 3173.28, 190.93 3221.01, 221.15 3213.40 C 263.18 3213.89, 315.57 3215.97, 359.55 3209.77 C 405.47 3202.58, 451.74 3205.20, 494.95 3198.88 C 546.69 3193.87, 587.64 3130.69, 573.17 3071.87 C 581.28 3003.95, 554.51 2957.09, 531.05 2908.57 C 490.66 2875.42, 447.29 2854.56, 395.66 2857.76 Z" fill="rgb(99.204885962401,133.0950472373318,209.10210897986448)" stroke="rgb(99.204885962401,133.0950472373318,209.10210897986448)" stroke-width="1" />
<path d="M 2092.61 332.04 C 2073.86 358.95, 2093.18 409.34, 2086.60 448.17 C 2086.13 497.02, 2086.13 526.33, 2086.60 571.55 C 2086.60 615.10, 2086.60 655.02, 2086.60 694.94 C 2091.75 746.82, 2075.59 778.27, 2047.48 811.06 C 2032.21 841.89, 1943.71 845.10, 1987.31 883.64 C 2019.67 913.90, 2051.70 936.36, 2089.60 941.70 C 2121.17 950.52, 2178.37 953.03, 2164.82 992.51 C 2148.07 1009.19, 2135.54 992.10, 2119.69 1017.91 C 2107.95 1023.18, 2069.57 1044.17, 2083.59 1039.68 C 2117.24 1035.35, 2145.11 1006.71, 2179.87 999.76 C 2214.43 978.63, 2252.96 963.85, 2240.04 909.04 C 2240.72 815.59, 2243.88 753.09, 2243.05 662.28 C 2245.91 585.29, 2237.38 504.58, 2240.04 415.51 C 2241.15 371.70, 2248.86 317.96, 2200.93 335.67 C 2162.51 338.28, 2130.24 331.74, 2095.62 332.04 Z" fill="rgb(227.20401337792643,229.59866220735785,234.62207357859532)" stroke="rgb(227.20401337792643,229.59866220735785,234.62207357859532)" stroke-width="1" />
<path d="M 1060.60 1221.13 C 1003.66 1231.17, 951.43 1254.94, 898.12 1275.56 C 828.35 1292.58, 789.37 1361.77, 744.68 1424.35 C 713.66 1500.06, 677.82 1568.22, 624.32 1627.56 C 597.99 1648.69, 557.56 1639.29, 546.10 1674.74 C 554.72 1713.92, 589.12 1732.05, 618.31 1718.29 C 684.60 1708.87, 733.08 1665.50, 783.79 1623.94 C 837.48 1569.78, 888.82 1505.08, 946.26 1460.63 C 973.87 1440.10, 998.94 1424.59, 1030.51 1427.97 C 1063.92 1431.59, 1092.11 1442.54, 1081.66 1391.69 C 1081.16 1354.15, 1080.92 1320.36, 1087.68 1290.08 C 1095.23 1259.37, 1103.87 1206.17, 1063.61 1221.13 Z" fill="rgb(130.93753963221306,155.19794969351088,206.06742760515746)" stroke="rgb(130.93753963221306,155.19794969351088,206.06742760515746)" stroke-width="1" />
<path d="M 744.68 2552.94 C 708.09 2592.97, 668.99 2625.66, 627.33 2650.92 C 581.64 2675.35, 546.27 2718.20, 531.05 2770.67 C 514.83 2820.68, 540.03 2875.21, 546.10 2915.83 C 557.02 2942.49, 564.74 2965.63, 573.17 2988.40 C 579.08 3016.83, 610.45 3003.37, 624.32 3021.06 C 667.97 3048.50, 716.22 3023.06, 744.68 2981.15 C 783.66 2936.79, 803.85 2888.18, 816.89 2835.99 C 830.27 2791.28, 832.68 2737.05, 825.91 2690.83 C 805.16 2641.09, 784.63 2583.87, 747.68 2552.94 Z" fill="rgb(97.82287665386256,133.52390098164747,209.37750746905675)" stroke="rgb(97.82287665386256,133.52390098164747,209.37750746905675)" stroke-width="1" />
<path d="M 305.39 1025.17 C 279.76 1033.52, 248.84 1026.46, 221.15 1028.79 C 184.69 1029.21, 206.16 1088.25, 200.08 1115.89 C 200.08 1189.68, 200.08 1259.84, 200.08 1329.99 C 200.08 1402.57, 200.08 1471.52, 200.08 1540.47 C 201.39 1609.27, 200.62 1681.71, 203.09 1754.58 C 216.08 1786.01, 221.83 1700.66, 242.21 1685.63 C 261.77 1643.30, 285.98 1618.48, 314.42 1591.28 C 340.85 1556.83, 377.45 1544.61, 362.56 1496.92 C 363.31 1455.84, 369.33 1423.34, 362.56 1388.06 C 369.34 1313.57, 361.41 1241.56, 365.57 1177.58 C 363.92 1138.48, 365.50 1110.50, 362.56 1072.34 C 381.32 1014.42, 334.96 1031.45, 308.40 1025.17 Z" fill="rgb(231.33962264150944,211.0188679245283,203.9811320754717)" stroke="rgb(231.33962264150944,211.0188679245283,203.9811320754717)" stroke-width="1" />
<path d="M 254.24 2182.79 C 257.20 2250.44, 260.99 2319.94, 263.27 2393.26 C 259.90 2464.49, 264.06 2531.37, 263.27 2607.37 C 263.27 2681.16, 263.27 2751.32, 263.27 2821.47 C 260.72 2854.81, 248.80 2919.91, 287.34 2883.17 C 316.93 2866.20, 347.94 2862.13, 377.60 2854.13 C 409.51 2851.29, 438.23 2854.32, 464.86 2854.13 C 461.35 2808.55, 440.40 2781.00, 422.73 2745.27 C 388.06 2684.29, 406.66 2601.83, 401.67 2531.16 C 401.67 2457.37, 401.67 2387.22, 401.67 2317.06 C 415.56 2264.96, 374.13 2260.54, 347.52 2244.48 C 311.70 2232.34, 288.08 2197.05, 257.25 2182.79 Z" fill="rgb(214.6904761904762,221.72619047619048,235.81349206349208)" stroke="rgb(214.6904761904762,221.72619047619048,235.81349206349208)" stroke-width="1" />
<path d="M 263.27 2186.42 C 261.78 2317.25, 264.30 2467.27, 263.27 2607.37 C 263.27 2679.95, 263.27 2748.90, 263.27 2817.85 C 266.80 2853.42, 253.20 2915.04, 290.35 2883.17 C 321.04 2866.98, 350.08 2858.39, 380.61 2854.13 C 398.00 2845.98, 470.02 2858.42, 437.78 2839.62 C 439.60 2806.35, 448.01 2778.38, 419.73 2748.90 C 391.45 2685.23, 405.08 2605.75, 401.67 2534.79 C 401.67 2462.21, 401.67 2393.26, 401.67 2324.31 C 412.18 2273.96, 385.19 2261.00, 356.54 2248.11 C 323.00 2232.96, 295.13 2210.07, 266.28 2190.04 Z" fill="rgb(207.36598355910618,217.2206784763228,239.17239782331828)" stroke="rgb(207.36598355910618,217.2206784763228,239.17239782331828)" stroke-width="1" />
<path d="M 765.74 2552.94 C 786.86 2608.50, 839.22 2661.11, 834.94 2734.38 C 833.28 2804.68, 818.72 2864.90, 792.82 2919.46 C 776.42 2954.98, 751.48 2981.74, 729.63 3006.55 C 708.16 3035.59, 651.17 3039.03, 696.53 3075.50 C 718.95 3109.19, 743.94 3140.41, 771.75 3108.16 C 801.85 3093.47, 825.01 3067.32, 849.98 3046.47 C 912.83 3034.76, 937.06 2956.47, 958.30 2897.68 C 980.32 2838.56, 985.57 2776.19, 988.39 2712.61 C 989.24 2677.02, 983.05 2648.57, 973.34 2621.88 C 959.82 2592.98, 960.68 2546.65, 925.20 2552.94 C 871.04 2552.94, 819.90 2552.94, 768.75 2552.94 Z" fill="rgb(239.13125601539943,243.7631135707411,250.54066410009625)" stroke="rgb(239.13125601539943,243.7631135707411,250.54066410009625)" stroke-width="1" />
<path d="M 209.11 1025.17 C 188.86 1068.11, 205.51 1138.24, 200.08 1192.10 C 200.08 1253.79, 200.08 1311.85, 200.08 1369.91 C 202.06 1431.12, 196.11 1492.65, 203.09 1547.73 C 254.24 1551.36, 302.38 1551.36, 350.52 1551.36 C 378.44 1511.86, 359.73 1437.29, 365.57 1380.80 C 363.89 1317.85, 369.01 1256.24, 362.56 1202.98 C 367.56 1142.07, 364.68 1085.66, 359.55 1028.79 C 308.40 1025.17, 260.26 1025.17, 212.12 1025.17 Z" fill="rgb(245.46920603512243,240.12589661142715,237.02918624783575)" stroke="rgb(245.46920603512243,240.12589661142715,237.02918624783575)" stroke-width="1" />
<path d="M 537.07 3187.99 C 502.69 3214.87, 455.25 3203.73, 413.71 3209.77 C 370.08 3214.87, 329.03 3218.68, 287.34 3220.65 C 245.07 3221.93, 184.77 3202.87, 203.09 3275.09 C 203.09 3302.91, 203.09 3327.10, 203.09 3351.29 C 206.61 3375.79, 191.77 3421.00, 221.15 3412.99 C 306.38 3418.89, 396.97 3415.63, 476.89 3416.62 C 498.27 3416.62, 517.12 3411.22, 540.08 3412.99 C 549.38 3391.44, 544.62 3364.36, 546.10 3340.41 C 542.47 3288.65, 553.58 3227.66, 540.08 3187.99 Z" fill="rgb(212.51136363636363,221.5681818181818,240.27272727272728)" stroke="rgb(212.51136363636363,221.5681818181818,240.27272727272728)" stroke-width="1" />
<path d="M 537.07 3195.25 C 504.25 3221.34, 457.00 3205.40, 416.72 3209.77 C 374.44 3208.68, 332.67 3222.71, 290.35 3220.65 C 253.86 3231.77, 186.08 3200.56, 203.09 3271.46 C 209.68 3318.03, 189.05 3390.26, 215.13 3412.99 C 299.04 3420.55, 390.83 3416.53, 464.86 3412.99 C 487.93 3412.99, 507.98 3412.99, 528.04 3412.99 C 552.45 3407.80, 539.55 3368.69, 543.09 3347.67 C 540.55 3290.44, 549.45 3232.97, 540.08 3195.25 Z" fill="rgb(215.68673565380996,223.4123549702101,239.47428661022263)" stroke="rgb(215.68673565380996,223.4123549702101,239.47428661022263)" stroke-width="1" />
<path d="M 407.69 2280.77 C 403.03 2371.71, 405.10 2470.43, 404.68 2567.45 C 415.80 2606.89, 383.54 2685.80, 425.74 2694.46 C 468.47 2696.84, 511.46 2689.68, 549.10 2698.09 C 573.79 2699.80, 566.18 2617.60, 567.16 2578.34 C 567.16 2526.32, 567.16 2477.94, 567.16 2429.55 C 561.66 2384.10, 586.40 2306.87, 534.06 2313.43 C 485.68 2317.83, 451.37 2290.05, 410.70 2280.77 Z" fill="rgb(243.7435984398847,244.81872138375445,248.95251822960827)" stroke="rgb(243.7435984398847,244.81872138375445,248.95251822960827)" stroke-width="1" />
<path d="M 2158.81 332.04 C 2151.79 448.80, 2157.80 572.05, 2155.80 691.31 C 2155.80 754.21, 2155.80 813.48, 2155.80 872.75 C 2157.41 905.11, 2152.32 937.18, 2158.81 963.47 C 2181.72 966.86, 2205.71 964.16, 2231.02 967.10 C 2254.05 918.00, 2237.78 845.63, 2243.05 789.29 C 2243.05 726.39, 2243.05 667.11, 2243.05 607.84 C 2243.05 544.94, 2243.05 485.67, 2243.05 426.40 C 2241.14 394.19, 2246.94 361.76, 2240.04 335.67 C 2210.58 338.49, 2187.79 330.63, 2161.81 332.04 Z" fill="rgb(231.3379257558362,234.18120933792576,241.00516647531572)" stroke="rgb(231.3379257558362,234.18120933792576,241.00516647531572)" stroke-width="1" />
<path d="M 2089.60 335.67 C 2082.62 393.17, 2088.58 457.13, 2086.60 517.12 C 2086.34 584.88, 2083.27 642.46, 2086.60 702.19 C 2093.45 736.83, 2083.61 771.95, 2056.51 792.92 C 2041.65 832.16, 2010.52 836.87, 1984.30 847.35 C 1952.48 881.98, 2012.47 894.63, 2026.42 916.30 C 2052.46 935.56, 2078.86 941.37, 2104.65 948.96 C 2130.59 957.68, 2163.38 964.35, 2152.79 919.93 C 2152.79 886.06, 2152.79 855.82, 2152.79 825.58 C 2152.79 761.47, 2152.79 700.98, 2152.79 640.50 C 2152.79 576.39, 2152.79 515.91, 2152.79 455.43 C 2153.59 422.00, 2151.66 386.10, 2152.79 361.08 C 2154.28 320.03, 2114.77 341.05, 2092.61 335.67 Z" fill="rgb(187.4486431651027,193.42607151914785,207.93050976413898)" stroke="rgb(187.4486431651027,193.42607151914785,207.93050976413898)" stroke-width="1" />
<path d="M 573.17 2317.06 C 566.17 2395.11, 572.16 2479.64, 570.17 2560.19 C 572.12 2603.27, 566.22 2646.63, 573.17 2683.58 C 609.48 2655.85, 646.24 2638.19, 678.48 2607.37 C 706.54 2574.64, 758.87 2558.22, 747.68 2502.13 C 747.68 2457.37, 747.68 2416.25, 747.68 2375.12 C 763.45 2316.15, 713.60 2330.19, 681.49 2327.94 C 645.11 2322.21, 609.34 2323.43, 576.18 2317.06 Z" fill="rgb(219.7852798053528,227.25,241.3720600162206)" stroke="rgb(219.7852798053528,227.25,241.3720600162206)" stroke-width="1" />
<path d="M 209.11 2124.72 C 189.08 2181.04, 205.36 2264.37, 200.08 2331.57 C 200.08 2405.36, 200.08 2475.52, 200.08 2545.68 C 200.08 2619.47, 200.08 2689.62, 200.08 2759.78 C 204.47 2832.88, 190.37 2911.59, 209.11 2973.89 C 219.11 2941.27, 264.24 2915.73, 257.25 2875.91 C 257.25 2837.20, 257.25 2802.12, 257.25 2767.04 C 257.25 2693.25, 257.25 2623.09, 257.25 2552.94 C 258.17 2478.19, 251.93 2410.64, 254.24 2338.83 C 252.85 2300.31, 257.40 2262.46, 251.23 2229.96 C 264.17 2179.47, 244.47 2154.53, 212.12 2128.35 Z" fill="rgb(236.59004905395935,239.79163746788134,245.3690726465779)" stroke="rgb(236.59004905395935,239.79163746788134,245.3690726465779)" stroke-width="1" />
<path d="M 825.91 1025.17 C 799.86 1031.22, 820.41 1093.69, 813.88 1126.78 C 813.88 1169.11, 813.88 1207.82, 813.88 1246.53 C 814.66 1268.01, 812.77 1291.46, 813.88 1304.59 C 831.36 1303.93, 846.24 1292.07, 862.02 1282.82 C 896.29 1267.08, 929.63 1257.42, 961.31 1242.90 C 994.85 1227.47, 1028.87 1222.19, 1060.60 1210.24 C 1085.54 1180.72, 1022.89 1138.99, 1000.42 1119.52 C 970.15 1090.74, 923.50 1081.61, 928.21 1028.79 C 893.25 1020.28, 860.70 1028.26, 828.92 1025.17 Z" fill="rgb(241.70966217812426,244.96503661705646,249.77675407512402)" stroke="rgb(241.70966217812426,244.96503661705646,249.77675407512402)" stroke-width="1" />
<path d="M 753.70 2331.57 C 748.71 2363.22, 748.71 2405.17, 753.70 2436.81 C 754.67 2470.82, 745.95 2521.00, 759.72 2545.68 C 823.68 2547.56, 887.32 2541.58, 946.26 2549.31 C 952.28 2486.33, 959.45 2391.26, 943.26 2331.57 C 878.36 2328.59, 817.14 2341.83, 756.71 2331.57 Z" fill="rgb(212.9794692038057,220.88733099649474,239.50400600901352)" stroke="rgb(212.9794692038057,220.88733099649474,239.50400600901352)" stroke-width="1" />
<path d="M 1535.99 3187.99 C 1507.11 3208.81, 1528.57 3255.18, 1523.95 3285.97 C 1524.57 3324.13, 1523.08 3365.15, 1523.95 3394.84 C 1583.12 3398.47, 1642.30 3398.47, 1701.47 3398.47 C 1730.12 3394.32, 1710.24 3335.26, 1716.51 3307.75 C 1716.51 3269.04, 1716.51 3233.96, 1716.51 3198.88 C 1659.79 3185.69, 1595.90 3197.02, 1539.00 3187.99 Z" fill="rgb(248.82772329711105,247.91757222369466,252.87834614365227)" stroke="rgb(248.82772329711105,247.91757222369466,252.87834614365227)" stroke-width="1" />
<path d="M 1903.06 785.66 C 1924.11 866.83, 1928.83 956.16, 1945.18 1039.68 C 1956.15 1082.97, 1966.42 1122.97, 1969.25 1166.69 C 1965.47 1245.69, 2006.93 1156.78, 2008.37 1123.15 C 2009.67 1068.53, 2052.53 1037.58, 2086.60 1025.17 C 2124.10 1009.90, 2174.54 947.33, 2107.66 956.22 C 2068.46 944.15, 2031.13 935.41, 2002.35 901.78 C 1955.94 880.58, 1937.31 827.72, 1906.07 789.29 Z" fill="rgb(23.259807073954985,44.760450160771704,102.32604501607717)" stroke="rgb(23.259807073954985,44.760450160771704,102.32604501607717)" stroke-width="1" />
<path d="M 2754.55 332.04 C 2740.64 393.29, 2752.44 476.39, 2748.53 546.15 C 2748.53 623.57, 2748.53 697.35, 2748.53 771.14 C 2748.53 847.35, 2748.53 919.93, 2748.53 992.51 C 2748.53 1032.42, 2748.53 1068.71, 2748.53 1105.00 C 2743.70 1144.97, 2750.76 1203.68, 2781.63 1202.98 C 2788.64 1054.78, 2782.63 903.70, 2784.63 756.63 C 2784.63 679.21, 2784.63 605.42, 2784.63 531.63 C 2784.63 491.72, 2784.63 455.43, 2784.63 419.14 C 2780.41 384.65, 2799.80 321.79, 2757.56 332.04 Z" fill="rgb(254.9640992167102,238.9996736292428,235.44549608355092)" stroke="rgb(254.9640992167102,238.9996736292428,235.44549608355092)" stroke-width="1" />
<path d="M 1505.90 3213.40 C 1430.77 3276.16, 1353.20 3331.80, 1268.20 3365.81 C 1226.60 3383.04, 1188.82 3399.03, 1147.85 3405.73 C 1122.48 3411.10, 1100.53 3414.78, 1135.82 3412.99 C 1157.88 3412.99, 1176.94 3412.99, 1195.99 3412.99 C 1267.91 3391.15, 1356.09 3406.80, 1433.69 3402.10 C 1473.49 3400.43, 1531.80 3418.22, 1514.93 3351.29 C 1511.04 3305.17, 1522.78 3243.85, 1508.91 3213.40 Z" fill="rgb(214.11688311688312,220.15584415584416,232.75324675324674)" stroke="rgb(214.11688311688312,220.15584415584416,232.75324675324674)" stroke-width="1" />
<path d="M 1508.91 3217.03 C 1474.00 3239.64, 1436.05 3276.02, 1397.58 3296.86 C 1359.66 3332.07, 1315.20 3339.50, 1277.23 3365.81 C 1236.76 3385.15, 1193.67 3388.07, 1156.88 3409.36 C 1141.80 3408.42, 1094.93 3415.75, 1126.79 3412.99 C 1151.35 3411.26, 1168.73 3417.12, 1186.97 3416.62 C 1258.42 3394.93, 1346.64 3404.23, 1424.66 3402.10 C 1460.99 3396.55, 1527.80 3422.57, 1514.93 3358.55 C 1514.03 3310.13, 1517.32 3251.20, 1511.92 3217.03 Z" fill="rgb(217.7692589875275,223.2593543653705,234.8426265590609)" stroke="rgb(217.7692589875275,223.2593543653705,234.8426265590609)" stroke-width="1" />
<path d="M 1779.70 332.04 C 1766.94 352.14, 1776.31 399.11, 1773.68 422.77 C 1788.43 464.28, 1817.35 457.57, 1848.90 455.43 C 1882.27 454.85, 1904.39 456.02, 1933.15 459.06 C 1962.47 456.69, 2005.32 472.26, 1996.33 426.40 C 2009.11 399.49, 1981.08 340.29, 2017.39 339.30 C 2024.72 328.38, 1966.45 338.51, 1951.20 335.67 C 1901.86 329.68, 1840.47 332.93, 1782.71 332.04 Z" fill="rgb(241.07278963414635,242.1234756097561,245.3048780487805)" stroke="rgb(241.07278963414635,242.1234756097561,245.3048780487805)" stroke-width="1" />
<path d="M 579.19 3126.30 C 569.89 3154.60, 563.86 3183.09, 573.17 3213.40 C 565.74 3245.56, 560.50 3275.18, 561.14 3307.75 C 559.76 3346.32, 557.70 3367.40, 558.13 3402.10 C 568.04 3428.15, 605.72 3411.46, 627.33 3416.62 C 652.45 3412.93, 684.34 3424.68, 699.54 3409.36 C 692.73 3378.02, 697.24 3343.12, 699.54 3315.01 C 653.56 3252.11, 613.93 3191.18, 582.20 3126.30 Z" fill="rgb(245.8531007751938,246.7468992248062,249.2562015503876)" stroke="rgb(245.8531007751938,246.7468992248062,249.2562015503876)" stroke-width="1" />
<path d="M 1725.54 1435.23 C 1671.42 1453.00, 1622.36 1485.48, 1566.07 1496.92 C 1513.33 1513.44, 1457.58 1525.94, 1403.60 1518.70 C 1349.67 1527.02, 1293.52 1533.31, 1241.13 1525.96 C 1210.84 1523.40, 1185.13 1519.91, 1159.89 1515.07 C 1134.89 1508.06, 1079.21 1520.70, 1108.74 1551.36 C 1164.52 1554.90, 1219.20 1552.86, 1271.21 1558.62 C 1328.61 1553.13, 1383.33 1571.15, 1433.69 1554.99 C 1490.25 1545.26, 1542.87 1532.80, 1596.16 1522.33 C 1624.62 1515.67, 1651.00 1511.69, 1677.40 1507.81 C 1715.17 1509.81, 1714.23 1467.01, 1728.55 1438.86 Z" fill="rgb(251.5699643493761,150.42513368983958,57.98663101604278)" stroke="rgb(251.5699643493761,150.42513368983958,57.98663101604278)" stroke-width="1" />
<path d="M 880.07 3039.21 C 834.38 3054.92, 800.82 3105.99, 756.71 3126.30 C 738.95 3150.64, 782.16 3170.10, 795.82 3180.74 C 817.90 3198.13, 838.39 3207.78, 859.01 3217.03 C 892.19 3225.42, 979.96 3244.29, 949.27 3180.74 C 922.77 3135.27, 921.09 3064.78, 883.08 3039.21 Z" fill="rgb(236.72727272727272,241.8181818181818,250.36363636363637)" stroke="rgb(236.72727272727272,241.8181818181818,250.36363636363637)" stroke-width="1" />
<path d="M 877.06 3039.21 C 831.69 3055.43, 803.68 3109.24, 756.71 3122.67 C 736.69 3145.22, 776.19 3166.63, 789.81 3177.11 C 812.31 3196.18, 832.95 3208.30, 856.00 3213.40 C 888.55 3226.02, 974.42 3247.49, 949.27 3180.74 C 924.24 3133.60, 916.80 3061.31, 880.07 3039.21 Z" fill="rgb(215.7941176470588,224.26470588235293,237.58823529411765)" stroke="rgb(215.7941176470588,224.26470588235293,237.58823529411765)" stroke-width="1" />
<path d="M 880.07 3039.21 C 835.20 3053.20, 803.48 3105.47, 759.72 3122.67 C 732.92 3147.40, 779.97 3168.69, 792.82 3180.74 C 813.49 3199.80, 836.04 3204.65, 856.00 3217.03 C 887.84 3223.05, 974.89 3245.03, 949.27 3180.74 C 923.96 3133.71, 916.70 3066.42, 883.08 3039.21 Z" fill="rgb(234.1959521619135,238.860625574977,247.0524379024839)" stroke="rgb(234.1959521619135,238.860625574977,247.0524379024839)" stroke-width="1" />
<path d="M 2778.62 1348.14 C 2758.45 1416.29, 2724.91 1477.76, 2679.33 1533.21 C 2657.28 1566.43, 2628.24 1589.29, 2613.13 1623.94 C 2642.22 1623.94, 2668.29 1623.94, 2694.37 1623.94 C 2722.45 1623.94, 2747.53 1623.94, 2772.60 1623.94 C 2793.19 1617.17, 2781.04 1566.10, 2784.63 1540.47 C 2783.45 1474.03, 2787.49 1408.61, 2781.63 1348.14 Z" fill="rgb(249.9631067961165,244.51893203883495,242.11747572815534)" stroke="rgb(249.9631067961165,244.51893203883495,242.11747572815534)" stroke-width="1" />
<path d="M 1027.50 1021.54 C 1009.69 1033.41, 985.70 1027.31, 964.32 1028.79 C 932.81 1015.11, 923.11 1064.40, 946.26 1075.97 C 993.39 1107.93, 1038.64 1139.24, 1075.64 1184.84 C 1087.20 1225.12, 1112.89 1175.20, 1108.74 1152.18 C 1114.37 1124.45, 1113.52 1097.13, 1117.77 1072.34 C 1127.86 1044.92, 1126.68 1007.39, 1096.70 1025.17 C 1074.47 1015.83, 1052.89 1029.96, 1030.51 1021.54 Z" fill="rgb(247.15800524934383,248.81312335958006,251.5448818897638)" stroke="rgb(247.15800524934383,248.81312335958006,251.5448818897638)" stroke-width="1" />
<path d="M 206.10 1870.70 C 197.99 1920.87, 200.34 1976.27, 200.08 2030.37 C 201.97 2058.96, 196.23 2087.73, 203.09 2110.21 C 219.89 2136.42, 244.03 2160.23, 266.28 2175.53 C 290.23 2183.71, 278.89 2131.87, 284.33 2113.84 C 283.80 2079.21, 285.71 2060.79, 281.32 2030.37 C 266.14 1978.00, 209.27 1933.61, 209.11 1870.70 Z" fill="rgb(248.3955223880597,215.83582089552237,201.38059701492537)" stroke="rgb(248.3955223880597,215.83582089552237,201.38059701492537)" stroke-width="1" />
<path d="M 410.70 2694.46 C 414.29 2753.31, 470.09 2786.00, 461.85 2846.88 C 465.12 2870.64, 501.07 2856.04, 506.98 2879.54 C 535.40 2920.05, 535.84 2854.66, 522.02 2839.62 C 517.48 2810.89, 518.02 2785.08, 528.04 2763.41 C 530.52 2737.76, 575.87 2701.77, 546.10 2694.46 C 499.96 2694.46, 456.83 2694.46, 413.71 2694.46 Z" fill="rgb(234.51206784083496,238.91128506197,248.058056099152)" stroke="rgb(234.51206784083496,238.91128506197,248.058056099152)" stroke-width="1" />
<path d="M 209.11 1892.47 C 200.60 1938.11, 202.14 1988.77, 200.08 2037.63 C 186.87 2108.30, 223.29 2142.17, 263.27 2175.53 C 292.30 2165.04, 271.77 2084.03, 278.31 2044.89 C 277.64 1983.58, 217.71 1953.66, 209.11 1896.10 Z" fill="rgb(251.3206106870229,236.50381679389312,230.00763358778627)" stroke="rgb(251.3206106870229,236.50381679389312,230.00763358778627)" stroke-width="1" />
<path d="M 305.39 1551.36 C 282.76 1559.68, 254.87 1552.67, 230.17 1554.99 C 188.28 1541.64, 201.63 1593.40, 203.09 1620.31 C 200.08 1686.84, 200.08 1749.74, 200.08 1812.64 C 200.37 1875.83, 201.50 1816.16, 206.10 1790.87 C 213.97 1752.70, 225.82 1721.66, 242.21 1692.88 C 260.70 1657.73, 281.45 1627.34, 305.39 1598.53 C 334.68 1566.11, 357.36 1554.38, 308.40 1551.36 Z" fill="rgb(250.20913107511046,239.0677466863034,236.33284241531663)" stroke="rgb(250.20913107511046,239.0677466863034,236.33284241531663)" stroke-width="1" />
<path d="M 209.11 1892.47 C 202.91 1941.29, 203.12 1986.16, 203.09 2037.63 C 189.01 2108.37, 229.00 2138.02, 263.27 2171.90 C 287.42 2169.19, 272.99 2128.55, 275.30 2110.21 C 275.10 2083.14, 282.79 2057.78, 275.30 2034.00 C 262.00 1990.28, 221.07 1946.30, 209.11 1896.10 Z" fill="rgb(253.50944822373393,242.06273620559335,235.97430083144368)" stroke="rgb(253.50944822373393,242.06273620559335,235.97430083144368)" stroke-width="1" />
<path d="M 2077.57 767.51 C 2052.39 802.77, 2030.36 842.24, 1990.31 843.72 C 1942.83 879.62, 2017.95 903.56, 2038.45 923.56 C 2055.85 933.93, 2069.78 942.02, 2086.60 941.70 C 2079.85 922.79, 2085.39 901.38, 2083.59 883.64 C 2083.05 840.80, 2085.14 800.97, 2080.58 767.51 Z" fill="rgb(204.99414634146342,208.42634146341464,216.86243902439026)" stroke="rgb(204.99414634146342,208.42634146341464,216.86243902439026)" stroke-width="1" />
<path d="M 1195.99 332.04 C 1170.93 358.01, 1206.64 393.20, 1232.10 422.77 C 1250.62 449.66, 1309.58 492.80, 1292.27 437.28 C 1283.66 405.00, 1294.97 360.74, 1286.26 335.67 C 1255.17 332.04, 1227.08 332.04, 1199.00 332.04 Z" fill="rgb(243.51394849785407,246.46030042918454,249.74356223175965)" stroke="rgb(243.51394849785407,246.46030042918454,249.74356223175965)" stroke-width="1" />
<path d="M 705.56 3318.63 C 706.43 3347.57, 686.96 3415.59, 720.60 3416.62 C 756.71 3416.62, 789.81 3416.62, 822.90 3416.62 C 836.77 3414.40, 869.12 3423.52, 862.02 3405.73 C 842.69 3399.26, 826.52 3392.37, 810.87 3383.96 C 772.75 3369.26, 741.92 3342.09, 708.57 3322.26 Z" fill="rgb(216.5,222.0,234.45)" stroke="rgb(216.5,222.0,234.45)" stroke-width="1" />
<path d="M 203.09 1554.99 C 195.34 1584.20, 194.99 1635.43, 233.18 1620.31 C 270.23 1625.45, 298.99 1625.34, 320.44 1587.65 C 369.45 1554.79, 323.28 1551.17, 293.36 1554.99 C 262.27 1554.99, 234.18 1554.99, 206.10 1554.99 Z" fill="rgb(252.88025477707006,242.21528662420383,241.8535031847134)" stroke="rgb(252.88025477707006,242.21528662420383,241.8535031847134)" stroke-width="1" />
<path d="M 705.56 3318.63 C 705.04 3345.35, 688.50 3422.23, 720.60 3412.99 C 756.72 3415.52, 788.73 3414.54, 822.90 3412.99 C 836.00 3409.58, 868.47 3420.66, 862.02 3405.73 C 842.15 3400.83, 826.26 3393.11, 810.87 3383.96 C 773.37 3366.23, 739.14 3347.76, 708.57 3318.63 Z" fill="rgb(210.6620879120879,217.4436813186813,232.00412087912088)" stroke="rgb(210.6620879120879,217.4436813186813,232.00412087912088)" stroke-width="1" />
<path d="M 1614.22 332.04 C 1616.82 348.69, 1673.48 354.02, 1695.45 371.96 C 1724.95 377.73, 1774.45 459.16, 1770.67 390.11 C 1782.64 335.76, 1752.63 323.79, 1716.51 332.04 C 1681.41 332.04, 1649.32 332.04, 1617.22 332.04 Z" fill="rgb(174.33333333333334,178.55555555555554,191.62962962962962)" stroke="rgb(174.33333333333334,178.55555555555554,191.62962962962962)" stroke-width="1" />
<path d="M 1617.22 332.04 C 1596.77 343.07, 1669.41 353.17, 1686.43 368.33 C 1714.60 371.27, 1768.07 448.90, 1767.66 397.37 C 1782.88 347.08, 1760.15 319.18, 1719.52 332.04 C 1684.42 332.04, 1652.33 332.04, 1620.23 332.04 Z" fill="rgb(202.38301043219076,205.86736214605068,215.85991058122207)" stroke="rgb(202.38301043219076,205.86736214605068,215.85991058122207)" stroke-width="1" />
<path d="M 988.39 1594.90 C 978.45 1629.84, 958.87 1660.10, 931.22 1678.37 C 897.94 1711.56, 963.95 1681.97, 979.36 1678.37 C 1005.96 1674.82, 1042.37 1683.63, 1054.58 1663.85 C 1046.16 1634.51, 1016.29 1602.86, 991.40 1594.90 Z" fill="rgb(252.2774193548387,151.45967741935485,52.49354838709677)" stroke="rgb(252.2774193548387,151.45967741935485,52.49354838709677)" stroke-width="1" />
<path d="M 1292.27 332.04 C 1290.86 353.61, 1293.27 385.59, 1292.27 411.88 C 1293.54 440.25, 1303.36 492.08, 1319.35 444.54 C 1347.74 422.97, 1348.89 392.92, 1346.43 361.08 C 1354.83 317.85, 1314.71 335.95, 1295.28 332.04 Z" fill="rgb(248.56869565217391,252.47130434782608,253.5113043478261)" stroke="rgb(248.56869565217391,252.47130434782608,253.5113043478261)" stroke-width="1" />
<path d="M 1349.44 332.04 C 1346.75 348.43, 1339.26 433.62, 1367.49 393.74 C 1395.10 369.57, 1424.12 358.30, 1451.74 342.93 C 1504.07 338.88, 1472.72 330.60, 1439.71 332.04 C 1408.61 332.04, 1380.53 332.04, 1352.45 332.04 Z" fill="rgb(212.4,218.6,229.75)" stroke="rgb(212.4,218.6,229.75)" stroke-width="1" />
<path d="M 1352.45 332.04 C 1342.03 343.99, 1340.26 422.08, 1364.49 397.37 C 1391.96 373.31, 1418.49 358.91, 1445.72 346.56 C 1493.49 335.10, 1471.60 334.77, 1436.70 332.04 C 1407.61 332.04, 1381.54 332.04, 1355.46 332.04 Z" fill="rgb(217.87252747252748,223.1978021978022,233.65054945054945)" stroke="rgb(217.87252747252748,223.1978021978022,233.65054945054945)" stroke-width="1" />
<path d="M 1027.50 1431.60 C 973.82 1437.23, 1044.99 1495.64, 1069.62 1496.92 C 1087.67 1494.16, 1082.44 1458.87, 1081.66 1446.12 C 1064.60 1433.06, 1046.23 1436.19, 1030.51 1431.60 Z" fill="rgb(203.03142857142856,189.40571428571428,181.57142857142858)" stroke="rgb(203.03142857142856,189.40571428571428,181.57142857142858)" stroke-width="1" />
</svg>