<svg xmlns="http://www.w3.org/2000/svg" width="3081" height="3716" viewbox="0 0 3081 3716">
<path d="M 0.00 0.00 C 0.00 1236.25, 0.00 2472.49, 0.00 3708.74 C 1024.99 3712.37, 2049.99 3712.37, 3074.98 3712.37 C 3077.99 2476.12, 3077.99 1239.88, 3077.99 3.63 C 2053.00 0.00, 1028.00 0.00, 3.01 0.00 Z" fill="rgb(nan,nan,nan)" stroke="rgb(nan,nan,nan)" stroke-width="1" />
<path d="M 0.00 0.00 C 0.00 1236.25, 0.00 2472.49, 0.00 3708.74 C 1024.99 3712.37, 2049.99 3712.37, 3074.98 3712.37 C 3077.99 2476.12, 3077.99 1239.88, 3077.99 3.63 C 2053.00 0.00, 1028.00 0.00, 3.01 0.00 Z" fill="rgb(252.9210231063698,252.2544719901894,252.4078596695256)" stroke="rgb(252.9210231063698,252.2544719901894,252.4078596695256)" stroke-width="1" />
<path d="M 3071.97 2355.16 C 3029.57 2373.68, 2988.30 2356.39, 2945.60 2366.05 C 2897.64 2364.26, 2855.30 2375.22, 2816.23 2369.68 C 2746.30 2398.31, 2644.48 2383.84, 2557.47 2387.82 C 2471.06 2391.84, 2388.60 2385.82, 2298.71 2387.82 C 2238.03 2367.74, 2253.52 2446.89, 2250.57 2493.06 C 2250.57 2548.70, 2250.57 2600.72, 2250.57 2652.73 C 2249.40 2762.61, 2253.17 2871.62, 2247.57 2964.82 C 2254.67 2995.22, 2248.20 3011.96, 2247.57 3041.02 C 2259.41 3084.51, 2224.24 3068.58, 2205.44 3077.31 C 2159.31 3077.31, 2116.18 3077.31, 2073.06 3077.31 C 2043.46 3076.07, 2061.26 3122.02, 2051.99 3139.00 C 2052.26 3171.15, 2053.20 3190.98, 2051.99 3218.84 C 2051.50 3272.65, 2058.03 3324.02, 2051.99 3374.88 C 2050.14 3433.61, 1977.68 3396.86, 1943.68 3407.54 C 1897.54 3407.54, 1854.42 3407.54, 1811.29 3407.54 C 1719.81 3403.84, 1638.07 3418.44, 1552.54 3407.54 C 1507.37 3406.78, 1466.45 3416.45, 1423.16 3414.80 C 1379.98 3410.62, 1334.72 3425.26, 1290.77 3414.80 C 1249.28 3415.35, 1207.27 3425.12, 1161.39 3422.06 C 1114.88 3419.25, 1075.01 3427.02, 1032.01 3425.69 C 941.91 3428.49, 851.57 3417.52, 770.25 3425.69 C 683.46 3423.71, 597.81 3419.32, 511.49 3425.69 C 422.23 3425.69, 335.98 3425.69, 249.73 3425.69 C 202.74 3426.77, 158.39 3414.66, 120.35 3425.69 C 95.15 3427.32, 79.79 3435.31, 57.17 3429.32 C 37.04 3447.05, 4.00 3415.53, 0.00 3447.46 C 0.00 3501.89, 0.00 3552.70, 0.00 3603.50 C 4.37 3653.88, -20.01 3735.30, 42.12 3712.37 C 738.16 3712.37, 1431.18 3712.37, 2124.21 3712.37 C 2299.72 3712.37, 2472.22 3712.37, 2644.73 3712.37 C 2732.98 3712.37, 2818.23 3712.37, 2903.48 3712.37 C 2948.61 3712.37, 2990.74 3712.37, 3032.86 3712.37 C 3098.00 3735.30, 3073.63 3653.88, 3077.99 3607.13 C 3077.99 3395.45, 3077.99 3187.39, 3077.99 2979.33 C 3077.99 2872.88, 3077.99 2770.07, 3077.99 2667.25 C 3075.99 2562.01, 3082.00 2450.72, 3074.98 2355.16 Z" fill="rgb(254.99941429129245,254.99940245879333,254.99939062629417)" stroke="rgb(254.99941429129245,254.99940245879333,254.99939062629417)" stroke-width="1" />
<path d="M 2286.68 1048.75 C 2216.34 1062.67, 2142.21 1065.56, 2070.05 1074.16 C 2053.20 1084.19, 2026.64 1071.29, 2021.91 1092.30 C 2009.93 1113.01, 2022.95 1142.59, 2006.86 1157.62 C 2010.07 1207.59, 2055.94 1242.83, 2030.93 1291.89 C 2032.70 1334.11, 2052.70 1386.42, 2064.03 1411.64 C 2099.72 1437.64, 2143.33 1449.71, 2148.28 1502.37 C 2171.19 1535.82, 2162.29 1586.90, 2160.31 1629.38 C 2161.97 1680.89, 2140.00 1716.97, 2139.25 1763.65 C 2125.71 1810.22, 2116.85 1860.21, 2079.07 1879.77 C 2032.97 1877.72, 1999.10 1836.41, 1970.76 1799.94 C 1913.04 1725.02, 1925.20 1620.33, 1898.55 1535.03 C 1869.98 1492.13, 1827.41 1481.46, 1793.24 1458.82 C 1755.24 1424.53, 1720.36 1426.96, 1681.91 1447.93 C 1610.60 1484.71, 1537.07 1502.65, 1462.27 1516.88 C 1384.53 1516.13, 1316.36 1531.20, 1242.63 1520.51 C 1202.94 1521.48, 1170.32 1510.62, 1134.31 1509.62 C 1093.32 1506.21, 1052.96 1500.86, 1026.00 1473.34 C 990.61 1413.72, 950.37 1466.65, 917.68 1491.48 C 880.23 1533.38, 840.35 1564.77, 812.37 1607.61 C 772.03 1632.55, 740.53 1670.88, 704.06 1694.70 C 664.57 1706.93, 633.39 1730.94, 592.73 1727.36 C 544.20 1734.09, 520.68 1648.11, 571.67 1633.01 C 619.80 1631.77, 646.44 1583.12, 673.97 1542.29 C 704.89 1499.24, 716.77 1451.82, 743.17 1411.64 C 758.43 1387.42, 772.60 1367.51, 785.29 1349.95 C 815.14 1318.43, 786.68 1323.31, 767.24 1331.81 C 687.43 1351.09, 620.10 1397.99, 547.60 1429.79 C 466.45 1471.08, 392.08 1519.75, 324.95 1589.46 C 264.06 1650.14, 204.94 1730.19, 213.62 1836.23 C 209.14 1890.95, 229.37 1929.69, 252.74 1966.87 C 282.98 2012.87, 325.77 2027.01, 361.05 2053.96 C 431.60 2089.36, 501.55 2117.70, 580.70 2119.28 C 655.91 2122.92, 726.26 2131.97, 800.34 2130.17 C 871.78 2130.14, 951.34 2134.11, 1019.98 2122.91 C 1092.60 2118.35, 1169.57 2118.47, 1239.62 2104.77 C 1315.28 2097.59, 1390.80 2098.75, 1459.26 2079.36 C 1531.68 2053.76, 1613.58 2064.55, 1681.91 2035.82 C 1756.94 2015.90, 1832.17 2005.34, 1901.55 1977.75 C 1938.65 1963.90, 1972.45 1949.24, 2009.87 1945.09 C 2052.81 1938.09, 2085.75 1914.36, 2121.20 1897.92 C 2196.43 1865.31, 2269.92 1836.35, 2340.84 1799.94 C 2419.28 1758.53, 2494.37 1719.73, 2560.48 1654.78 C 2603.78 1627.84, 2624.55 1582.01, 2659.77 1545.91 C 2694.22 1504.17, 2717.39 1464.68, 2741.01 1422.53 C 2754.57 1379.26, 2776.43 1342.80, 2777.11 1295.52 C 2775.73 1241.54, 2765.26 1196.77, 2731.98 1164.88 C 2663.29 1115.64, 2592.78 1080.44, 2512.34 1074.16 C 2436.32 1062.69, 2367.21 1043.47, 2289.69 1048.75 Z" fill="rgb(178.54674220963173,60.712464589235125,20.824362606232295)" stroke="rgb(178.54674220963173,60.712464589235125,20.824362606232295)" stroke-width="1" />
<path d="M 1513.42 337.49 C 1452.97 344.56, 1399.36 371.58, 1350.95 413.70 C 1329.65 437.85, 1314.21 480.98, 1281.74 468.13 C 1245.11 464.64, 1231.89 420.61, 1206.52 402.81 C 1190.92 374.67, 1156.50 358.43, 1131.30 362.89 C 1095.24 371.25, 1096.68 417.73, 1101.22 449.98 C 1124.92 527.68, 1166.42 583.71, 1209.53 642.32 C 1229.85 672.45, 1232.84 712.41, 1215.55 740.30 C 1198.42 775.54, 1180.88 806.96, 1170.42 841.91 C 1149.67 909.72, 1136.62 976.24, 1128.30 1045.12 C 1124.98 1080.55, 1120.35 1111.69, 1116.26 1143.11 C 1104.37 1173.50, 1114.10 1226.90, 1080.16 1226.57 C 1046.29 1218.71, 1024.15 1236.98, 995.91 1244.71 C 962.59 1244.98, 937.69 1261.00, 911.66 1273.75 C 879.91 1278.07, 857.16 1299.85, 830.43 1310.04 C 810.23 1344.31, 780.97 1360.80, 767.24 1393.50 C 714.26 1458.89, 702.41 1532.10, 646.89 1589.46 C 629.97 1628.08, 594.75 1625.28, 574.68 1647.52 C 532.23 1656.33, 549.63 1713.35, 580.70 1716.47 C 641.97 1715.48, 703.77 1697.49, 743.17 1654.78 C 768.22 1633.23, 796.39 1622.27, 815.38 1593.09 C 837.63 1558.15, 870.16 1541.62, 890.60 1509.62 C 920.08 1490.68, 937.66 1462.32, 965.82 1444.30 C 992.83 1426.31, 1021.14 1424.08, 1050.07 1433.42 C 1092.42 1410.95, 1080.13 1480.70, 1092.19 1498.74 C 1118.20 1515.46, 1150.77 1504.29, 1176.44 1513.25 C 1222.08 1502.11, 1212.48 1532.48, 1245.64 1531.40 C 1274.74 1527.32, 1302.61 1529.54, 1329.88 1527.77 C 1346.98 1522.02, 1358.14 1530.60, 1369.00 1527.77 C 1393.40 1533.27, 1364.39 1505.52, 1393.07 1513.25 C 1423.16 1513.25, 1450.24 1513.25, 1477.32 1513.25 C 1505.96 1505.25, 1535.27 1497.47, 1561.56 1502.37 C 1584.09 1498.42, 1600.71 1470.53, 1633.77 1469.71 C 1648.01 1446.15, 1686.14 1450.07, 1705.98 1437.05 C 1729.30 1410.53, 1766.32 1427.73, 1784.21 1444.30 C 1814.99 1454.39, 1838.79 1476.02, 1868.46 1480.59 C 1876.92 1516.08, 1918.99 1517.11, 1925.62 1553.17 C 1920.97 1585.76, 1930.55 1624.00, 1928.63 1651.15 C 1935.97 1686.71, 1952.70 1696.07, 1952.70 1738.25 C 1974.01 1744.29, 1966.21 1799.49, 2000.84 1807.20 C 2023.43 1831.64, 2031.68 1868.66, 2067.04 1858.00 C 2104.55 1858.93, 2116.53 1812.86, 2124.21 1781.79 C 2137.94 1752.97, 2138.36 1716.88, 2142.26 1683.81 C 2149.49 1645.08, 2153.81 1619.72, 2157.30 1585.83 C 2149.70 1549.83, 2146.48 1515.28, 2136.24 1484.22 C 2114.38 1456.32, 2089.02 1430.18, 2061.02 1415.27 C 2043.10 1379.72, 2026.29 1355.29, 2024.92 1317.29 C 2014.38 1278.48, 1986.92 1254.85, 1973.77 1219.31 C 1982.27 1182.80, 1999.74 1157.90, 2003.85 1121.33 C 2018.99 1095.27, 2013.72 1045.61, 2045.98 1041.50 C 2070.54 1019.43, 2111.91 1022.31, 2118.19 987.06 C 2157.23 961.64, 2093.66 953.58, 2076.06 950.77 C 2042.77 939.45, 2017.49 924.91, 1994.83 899.97 C 1937.17 860.75, 1900.17 797.54, 1880.49 725.78 C 1863.87 656.22, 1857.30 583.41, 1829.34 526.19 C 1817.79 484.05, 1785.28 462.53, 1766.16 435.47 C 1740.92 409.40, 1715.19 383.55, 1684.92 373.78 C 1631.97 346.50, 1577.33 332.87, 1516.43 337.49 Z" fill="rgb(149.80769230769232,138.3028846153846,157.17067307692307)" stroke="rgb(149.80769230769232,138.3028846153846,157.17067307692307)" stroke-width="1" />
<path d="M 1516.43 337.49 C 1454.61 342.29, 1400.24 368.79, 1350.95 410.07 C 1329.68 436.20, 1314.81 481.17, 1281.74 468.13 C 1247.46 460.30, 1231.10 422.16, 1206.52 402.81 C 1188.15 375.02, 1161.01 346.06, 1131.30 359.26 C 1092.76 361.10, 1085.59 411.64, 1098.21 442.73 C 1117.69 522.59, 1165.31 583.66, 1206.52 642.32 C 1231.03 669.79, 1230.75 718.24, 1209.53 743.93 C 1190.13 778.04, 1178.50 812.40, 1164.40 845.54 C 1147.36 914.40, 1130.44 979.70, 1128.30 1052.38 C 1108.09 1116.54, 1125.70 1210.34, 1077.15 1244.71 C 1045.08 1247.70, 1021.41 1240.31, 992.90 1255.60 C 928.38 1255.38, 1042.86 1260.86, 998.92 1273.75 C 967.89 1273.42, 941.63 1278.25, 914.67 1281.00 C 882.62 1275.60, 857.29 1308.17, 842.46 1313.66 C 889.38 1341.06, 805.08 1316.19, 803.35 1353.58 C 787.61 1386.52, 751.98 1403.19, 746.18 1440.68 C 716.22 1466.40, 710.44 1507.35, 695.03 1538.66 C 669.05 1563.34, 647.96 1599.72, 625.83 1625.75 C 601.39 1647.38, 559.32 1638.45, 550.61 1672.93 C 553.63 1717.02, 595.65 1723.71, 622.82 1712.84 C 652.60 1701.06, 679.60 1689.94, 707.07 1680.18 C 733.85 1650.42, 759.45 1631.34, 788.30 1614.86 C 841.36 1558.53, 881.70 1495.68, 941.75 1455.19 C 960.51 1427.46, 993.50 1426.10, 1019.98 1415.27 C 1046.13 1398.36, 1008.66 1418.29, 1010.95 1397.13 C 1018.07 1384.77, 1037.04 1379.07, 1047.06 1389.87 C 1041.96 1441.80, 1088.83 1394.68, 1086.17 1451.56 C 1079.89 1499.73, 1116.29 1503.31, 1146.35 1506.00 C 1205.94 1505.40, 1260.18 1523.07, 1314.84 1516.88 C 1371.71 1509.45, 1428.72 1511.21, 1483.33 1506.00 C 1541.40 1487.55, 1600.98 1482.27, 1651.83 1451.56 C 1682.27 1440.51, 1709.96 1430.18, 1736.07 1415.27 C 1765.29 1440.09, 1795.51 1453.22, 1823.33 1473.34 C 1854.87 1487.52, 1885.62 1504.64, 1904.56 1538.66 C 1922.36 1569.06, 1907.95 1611.93, 1922.62 1640.27 C 1933.05 1717.90, 1953.12 1797.54, 2012.88 1839.86 C 2036.37 1866.50, 2073.79 1887.45, 2097.13 1858.00 C 2118.80 1825.52, 2124.02 1789.96, 2133.23 1756.39 C 2149.33 1689.90, 2158.58 1617.84, 2154.29 1549.54 C 2148.18 1510.99, 2138.85 1472.72, 2112.17 1451.56 C 2081.92 1431.28, 2051.28 1413.83, 2042.97 1375.36 C 2026.97 1341.55, 2026.61 1303.55, 2009.87 1273.75 C 1991.74 1235.86, 1954.25 1202.51, 1994.83 1168.51 C 2006.01 1133.30, 2012.62 1099.43, 2021.91 1066.90 C 2048.44 1034.79, 2076.83 1020.44, 2106.15 1008.84 C 2142.44 989.26, 2147.53 947.52, 2103.14 954.40 C 2070.79 944.77, 2040.44 938.08, 2015.89 914.48 C 1986.86 889.37, 1954.42 876.06, 1937.66 838.28 C 1916.93 803.82, 1893.21 774.50, 1886.51 736.67 C 1865.13 666.96, 1862.69 591.42, 1832.35 529.82 C 1802.69 455.06, 1747.49 410.40, 1690.94 377.41 C 1637.76 346.64, 1581.34 334.09, 1519.44 337.49 Z" fill="rgb(82.7691131498471,92.7217125382263,133.8577981651376)" stroke="rgb(82.7691131498471,92.7217125382263,133.8577981651376)" stroke-width="1" />
<path d="M 1504.39 337.49 C 1459.24 345.59, 1416.80 361.60, 1378.03 388.29 C 1331.91 413.13, 1308.84 512.89, 1257.67 453.61 C 1210.78 425.87, 1188.91 337.91, 1134.31 355.63 C 1069.93 354.17, 1089.38 445.67, 1110.24 482.64 C 1131.87 542.81, 1167.19 591.00, 1203.52 638.69 C 1256.75 689.12, 1204.21 748.55, 1185.46 794.73 C 1144.31 893.86, 1130.19 1001.35, 1119.27 1110.45 C 1114.53 1167.52, 1097.78 1213.46, 1095.20 1266.49 C 1080.62 1318.73, 1076.58 1369.14, 1083.16 1422.53 C 1093.33 1445.89, 1082.36 1481.69, 1098.21 1495.11 C 1120.08 1505.13, 1143.13 1502.97, 1164.40 1506.00 C 1210.08 1508.03, 1249.56 1519.35, 1293.78 1516.88 C 1340.41 1518.84, 1380.77 1511.28, 1423.16 1509.62 C 1472.46 1515.72, 1510.29 1497.17, 1552.54 1491.48 C 1600.06 1481.51, 1639.98 1458.16, 1681.91 1440.68 C 1707.31 1436.07, 1726.06 1420.86, 1748.11 1415.27 C 1761.83 1424.74, 1787.72 1444.62, 1808.28 1455.19 C 1852.72 1479.67, 1905.72 1501.12, 1919.61 1560.43 C 1924.23 1613.35, 1923.19 1676.48, 1946.69 1709.21 C 1949.16 1773.27, 1991.87 1811.37, 2021.91 1843.48 C 2065.51 1895.47, 2117.59 1851.70, 2121.20 1792.68 C 2137.12 1741.19, 2143.68 1688.65, 2151.28 1636.64 C 2150.23 1584.60, 2155.24 1523.20, 2133.23 1480.59 C 2105.21 1452.06, 2049.17 1417.28, 2036.95 1360.84 C 2024.57 1333.98, 2022.47 1305.63, 2012.88 1281.00 C 1999.43 1250.89, 1973.90 1237.25, 1973.77 1204.80 C 2005.65 1161.54, 2000.09 1097.22, 2027.92 1052.38 C 2050.04 1032.69, 2070.37 1020.17, 2091.11 1008.84 C 2115.76 1007.06, 2147.54 957.77, 2109.16 958.03 C 2059.02 949.64, 2017.06 926.17, 1979.78 889.08 C 1937.94 847.94, 1901.56 796.83, 1886.51 740.30 C 1861.31 628.79, 1849.27 507.70, 1769.17 435.47 C 1691.89 365.50, 1607.95 327.33, 1507.40 337.49 Z" fill="rgb(149.5113764669655,174.26757222203213,223.72127370810097)" stroke="rgb(149.5113764669655,174.26757222203213,223.72127370810097)" stroke-width="1" />
<path d="M 2024.92 1945.09 C 1935.76 1969.08, 1851.91 2008.53, 1760.14 2024.93 C 1711.90 2032.60, 1670.60 2051.72, 1624.75 2057.59 C 1577.98 2065.94, 1531.94 2067.63, 1489.35 2079.36 C 1403.87 2108.32, 1309.16 2101.63, 1221.57 2115.65 C 1198.71 2121.59, 1175.23 2116.97, 1155.38 2122.91 C 1124.21 2130.23, 1148.58 2172.09, 1137.32 2195.49 C 1141.06 2253.85, 1144.32 2302.88, 1149.36 2358.79 C 1151.72 2414.10, 1157.33 2469.29, 1155.38 2518.46 C 1146.54 2573.83, 1161.54 2631.15, 1155.38 2681.76 C 1145.99 2798.38, 1125.87 2906.01, 1095.20 3008.36 C 1069.23 3066.06, 1040.03 3118.52, 1004.94 3168.04 C 968.15 3225.15, 920.98 3243.15, 869.54 3226.10 C 842.85 3220.42, 821.90 3210.42, 803.35 3193.44 C 770.07 3195.56, 767.14 3162.20, 743.17 3146.26 C 700.37 3103.64, 668.62 3044.90, 622.82 3022.88 C 602.12 3004.98, 570.21 3015.94, 577.69 3048.28 C 574.71 3080.81, 585.70 3102.72, 589.72 3128.12 C 622.28 3184.67, 650.04 3242.98, 689.01 3287.79 C 730.02 3333.91, 774.95 3358.41, 821.40 3382.14 C 864.68 3401.83, 909.50 3408.28, 956.79 3407.54 C 1052.71 3410.18, 1143.05 3405.36, 1224.58 3374.88 C 1325.34 3342.76, 1411.14 3279.46, 1495.37 3211.58 C 1542.36 3168.26, 1587.12 3120.00, 1624.75 3070.05 C 1669.60 3015.57, 1698.14 2958.07, 1739.08 2906.75 C 1810.31 2801.49, 1865.58 2693.39, 1910.58 2580.15 C 1940.13 2469.10, 1977.61 2365.63, 1997.84 2253.55 C 2007.55 2195.04, 2021.35 2142.19, 2036.95 2090.25 C 2039.97 2061.23, 2046.08 2037.37, 2045.98 2010.41 C 2048.51 1985.45, 2058.26 1938.57, 2027.92 1945.09 Z" fill="rgb(90.25277777777778,117.10694444444445,175.08055555555555)" stroke="rgb(90.25277777777778,117.10694444444445,175.08055555555555)" stroke-width="1" />
<path d="M 785.29 1324.55 C 736.07 1340.74, 686.16 1354.96, 640.87 1382.61 C 588.82 1409.02, 539.42 1430.76, 493.44 1462.45 C 439.48 1489.34, 392.66 1528.28, 346.01 1567.69 C 299.32 1618.26, 247.93 1662.17, 234.69 1730.99 C 206.10 1781.08, 207.90 1858.67, 225.66 1908.80 C 248.06 1972.42, 298.15 2020.89, 349.02 2043.07 C 397.05 2073.94, 446.87 2090.82, 496.45 2108.39 C 546.85 2118.33, 598.89 2114.73, 646.89 2122.91 C 749.64 2133.77, 840.87 2130.08, 941.75 2130.17 C 994.10 2130.02, 1038.96 2116.86, 1089.18 2119.28 C 1140.84 2112.99, 1191.05 2111.26, 1239.62 2104.77 C 1289.62 2097.79, 1338.37 2095.93, 1387.05 2093.88 C 1440.33 2086.78, 1485.59 2068.71, 1534.48 2061.22 C 1585.88 2053.48, 1635.56 2049.48, 1681.91 2035.82 C 1732.28 2017.31, 1785.55 2016.01, 1832.35 1995.90 C 1884.52 1984.34, 1929.51 1960.65, 1979.78 1952.35 C 2004.71 1935.70, 2033.24 1941.92, 2051.99 1919.69 C 2046.95 1902.42, 2118.53 1914.03, 2079.07 1883.40 C 2023.15 1868.84, 1973.76 1819.48, 1946.69 1760.02 C 1922.81 1702.03, 1912.19 1642.55, 1910.58 1578.57 C 1901.10 1501.44, 1829.70 1488.36, 1787.22 1455.19 C 1738.50 1409.44, 1689.25 1453.39, 1639.79 1466.08 C 1592.31 1494.92, 1540.86 1499.80, 1492.36 1513.25 C 1442.44 1523.40, 1390.47 1518.79, 1341.92 1524.14 C 1290.18 1527.55, 1243.45 1527.45, 1194.49 1516.88 C 1140.80 1515.81, 1092.08 1509.03, 1047.06 1491.48 C 1017.69 1483.68, 1006.74 1431.54, 977.86 1444.30 C 948.47 1460.57, 926.59 1486.31, 902.64 1506.00 C 850.86 1553.45, 809.15 1617.07, 755.21 1651.15 C 711.96 1699.57, 659.21 1711.54, 607.78 1727.36 C 582.37 1728.49, 550.77 1720.11, 544.59 1687.44 C 536.87 1653.34, 570.89 1624.93, 595.74 1625.75 C 627.94 1629.19, 637.91 1588.34, 655.92 1567.69 C 677.63 1539.99, 696.75 1512.49, 707.07 1480.59 C 719.75 1446.63, 740.75 1416.36, 758.21 1393.50 C 759.99 1365.46, 824.29 1326.31, 788.30 1324.55 Z" fill="rgb(248.40923650673804,108.26492323884047,21.94672478092754)" stroke="rgb(248.40923650673804,108.26492323884047,21.94672478092754)" stroke-width="1" />
<path d="M 2006.86 1948.72 C 1963.77 1967.45, 1916.16 1973.07, 1874.48 1995.90 C 1826.84 2005.33, 1784.89 2022.56, 1739.08 2028.56 C 1690.23 2033.24, 1652.73 2062.23, 1603.68 2057.59 C 1552.65 2060.04, 1510.57 2076.19, 1465.28 2082.99 C 1376.91 2106.44, 1283.36 2106.06, 1194.49 2119.28 C 1171.34 2120.52, 1138.86 2113.29, 1137.32 2144.68 C 1137.32 2174.92, 1137.32 2201.54, 1137.32 2228.15 C 1138.03 2287.86, 1147.46 2339.59, 1149.36 2395.08 C 1159.42 2449.47, 1154.00 2505.14, 1152.37 2558.38 C 1155.40 2616.14, 1161.44 2669.09, 1152.37 2721.68 C 1144.36 2778.54, 1140.14 2833.66, 1128.30 2884.98 C 1109.57 2942.20, 1106.14 3003.44, 1077.15 3051.91 C 1047.38 3111.82, 1012.05 3166.74, 968.83 3211.58 C 923.27 3247.64, 875.24 3235.06, 830.43 3215.21 C 810.51 3194.96, 782.05 3197.05, 767.24 3178.92 C 755.16 3149.03, 717.89 3145.54, 713.08 3113.60 C 690.40 3085.54, 661.86 3078.57, 646.89 3048.28 C 593.42 3043.89, 676.49 3022.29, 631.85 3022.88 C 609.56 3015.40, 578.00 3033.66, 580.70 3062.80 C 588.88 3091.71, 583.77 3127.00, 604.77 3142.63 C 637.60 3119.66, 604.51 3189.26, 634.85 3197.07 C 653.33 3226.59, 666.26 3255.27, 686.00 3280.53 C 727.81 3331.15, 774.05 3356.43, 821.40 3378.51 C 866.96 3401.75, 913.44 3405.22, 959.80 3403.91 C 1002.86 3405.67, 1054.67 3406.51, 1095.20 3400.29 C 1146.05 3397.28, 1190.98 3385.82, 1233.60 3367.62 C 1284.02 3356.60, 1323.80 3323.37, 1369.00 3305.93 C 1417.99 3269.71, 1464.22 3237.82, 1507.40 3197.07 C 1552.49 3156.42, 1597.53 3102.21, 1633.77 3055.54 C 1675.07 3005.02, 1703.28 2950.43, 1742.09 2899.50 C 1782.03 2845.56, 1808.51 2790.04, 1838.37 2736.20 C 1869.44 2680.12, 1890.64 2624.26, 1913.59 2569.27 C 1930.11 2513.15, 1943.68 2459.19, 1958.72 2405.96 C 1975.97 2348.50, 1992.49 2295.81, 2000.84 2239.04 C 2006.91 2179.20, 2030.00 2131.50, 2036.95 2075.73 C 2040.23 2044.63, 2048.68 2021.24, 2045.98 1992.27 C 2056.90 1954.98, 2036.86 1941.77, 2009.87 1948.72 Z" fill="rgb(128.85382629212484,159.4068022971108,220.35641944531005)" stroke="rgb(128.85382629212484,159.4068022971108,220.35641944531005)" stroke-width="1" />
<path d="M 2070.05 1948.72 C 2047.81 1975.85, 2057.44 2027.38, 2048.99 2064.85 C 2040.11 2110.68, 2028.48 2151.51, 2015.89 2191.86 C 2004.43 2281.54, 1982.85 2362.54, 1958.72 2442.25 C 1935.17 2531.91, 1907.30 2614.26, 1871.47 2692.65 C 1823.41 2782.29, 1780.14 2869.19, 1718.02 2946.67 C 1669.14 3033.59, 1599.26 3111.90, 1537.49 3186.18 C 1522.54 3205.22, 1510.86 3223.13, 1501.39 3240.61 C 1524.31 3247.09, 1509.48 3278.15, 1513.42 3298.68 C 1520.39 3320.76, 1513.04 3344.67, 1513.42 3360.37 C 1498.59 3386.57, 1475.69 3353.49, 1462.27 3371.25 C 1401.09 3375.02, 1476.34 3400.84, 1501.39 3385.77 C 1534.44 3399.99, 1572.77 3390.10, 1606.69 3393.03 C 1680.25 3390.32, 1746.94 3398.84, 1817.31 3396.66 C 1888.52 3396.66, 1956.72 3396.66, 2024.92 3396.66 C 2053.19 3377.38, 2033.94 3319.89, 2039.96 3284.16 C 2046.91 3242.38, 2041.01 3197.80, 2042.97 3157.15 C 2042.93 3114.23, 2036.85 3056.45, 2082.08 3066.43 C 2119.19 3066.43, 2153.29 3066.43, 2187.39 3066.43 C 2238.10 3082.96, 2239.54 3029.68, 2235.53 2986.59 C 2235.53 2941.83, 2235.53 2900.71, 2235.53 2859.58 C 2235.53 2689.02, 2235.53 2522.09, 2235.53 2355.16 C 2235.53 2269.28, 2235.53 2187.02, 2235.53 2104.77 C 2247.75 2045.69, 2213.10 2021.18, 2178.36 2006.79 C 2140.84 1988.64, 2108.37 1964.54, 2073.06 1948.72 Z" fill="rgb(235.7995444191344,237.90888382687928,242.72209567198178)" stroke="rgb(235.7995444191344,237.90888382687928,242.72209567198178)" stroke-width="1" />
<path d="M 2073.06 1948.72 C 2047.33 1967.30, 2062.89 2022.65, 2048.99 2053.96 C 2047.79 2100.21, 2030.18 2134.63, 2021.91 2173.71 C 2005.04 2255.35, 1995.25 2336.90, 1967.75 2409.59 C 1942.52 2492.06, 1925.19 2573.35, 1889.52 2645.47 C 1854.37 2731.21, 1810.43 2808.93, 1763.15 2884.98 C 1705.53 2965.23, 1657.37 3046.07, 1597.67 3117.23 C 1571.21 3144.72, 1512.96 3201.20, 1576.61 3186.18 C 1608.48 3185.44, 1646.25 3185.07, 1675.90 3186.18 C 1719.61 3169.18, 1736.79 3213.21, 1724.04 3251.50 C 1724.83 3295.59, 1724.79 3331.85, 1721.03 3371.25 C 1727.94 3411.36, 1781.29 3384.58, 1805.27 3396.66 C 1840.38 3396.66, 1872.47 3396.66, 1904.56 3396.66 C 1938.66 3396.66, 1969.75 3396.66, 2000.84 3396.66 C 2049.49 3407.69, 2040.12 3351.16, 2039.96 3313.19 C 2044.17 3233.25, 2040.17 3152.83, 2045.98 3077.31 C 2077.02 3062.37, 2110.74 3067.61, 2142.26 3066.43 C 2174.58 3059.91, 2221.36 3082.46, 2235.53 3048.28 C 2235.53 2966.03, 2235.53 2887.40, 2235.53 2808.77 C 2235.53 2647.89, 2235.53 2490.64, 2235.53 2333.39 C 2233.15 2257.61, 2231.72 2175.84, 2232.52 2097.51 C 2245.73 2038.44, 2204.82 2025.63, 2175.35 2006.79 C 2140.02 1989.33, 2108.76 1968.73, 2076.06 1952.35 Z" fill="rgb(243.01158359241802,244.70293852171298,248.6148831611674)" stroke="rgb(243.01158359241802,244.70293852171298,248.6148831611674)" stroke-width="1" />
<path d="M 2277.65 1048.75 C 2233.00 1058.66, 2182.60 1060.31, 2139.25 1063.27 C 2097.41 1082.21, 2018.34 1048.69, 2015.89 1117.70 C 2012.06 1149.67, 1990.67 1178.50, 2015.89 1193.91 C 2033.95 1221.59, 2048.13 1253.38, 2030.93 1281.00 C 2031.53 1349.14, 2056.86 1413.33, 2106.15 1440.68 C 2155.99 1476.91, 2165.34 1539.90, 2163.32 1603.98 C 2159.17 1667.40, 2151.94 1725.65, 2133.23 1778.16 C 2128.83 1812.93, 2116.37 1840.04, 2100.13 1865.26 C 2075.74 1905.14, 2124.37 1906.58, 2142.26 1890.66 C 2191.47 1863.76, 2239.85 1846.81, 2286.68 1825.34 C 2335.86 1800.06, 2383.06 1777.75, 2428.09 1749.13 C 2481.97 1726.11, 2526.20 1683.79, 2572.51 1647.52 C 2622.19 1593.11, 2666.71 1539.29, 2704.90 1484.22 C 2742.00 1428.74, 2764.34 1371.03, 2780.12 1310.04 C 2781.78 1241.75, 2761.99 1180.93, 2713.93 1150.36 C 2667.96 1115.21, 2619.34 1096.54, 2569.51 1081.41 C 2474.07 1062.22, 2381.07 1044.69, 2280.66 1048.75 Z" fill="rgb(242.87649412416013,82.85890435088956,13.381136918392512)" stroke="rgb(242.87649412416013,82.85890435088956,13.381136918392512)" stroke-width="1" />
<path d="M 2373.93 330.23 C 2351.31 338.56, 2323.41 331.54, 2298.71 333.86 C 2271.62 330.67, 2230.18 330.30, 2244.56 370.15 C 2242.10 440.64, 2245.46 495.07, 2241.55 562.48 C 2239.30 625.00, 2247.75 688.84, 2241.55 754.81 C 2238.57 816.79, 2242.88 882.80, 2241.55 947.14 C 2238.48 984.03, 2197.72 986.11, 2178.36 1005.21 C 2159.23 1011.48, 2097.81 1035.45, 2124.21 1041.50 C 2180.74 1042.08, 2231.67 1055.50, 2283.67 1041.50 C 2398.06 1038.34, 2502.80 1054.50, 2602.60 1085.04 C 2662.93 1099.04, 2709.57 1144.12, 2762.07 1172.14 C 2790.00 1187.96, 2775.35 1128.98, 2777.11 1106.82 C 2779.36 1071.07, 2767.59 1038.10, 2774.10 1008.84 C 2767.47 975.38, 2775.34 943.20, 2771.09 914.48 C 2776.00 878.15, 2767.92 849.49, 2774.10 816.50 C 2772.48 782.52, 2774.03 758.82, 2777.11 729.41 C 2773.53 694.96, 2777.85 667.09, 2777.11 631.43 C 2785.00 561.44, 2775.94 497.59, 2780.12 439.10 C 2781.48 404.98, 2780.83 375.91, 2777.11 344.75 C 2752.10 343.86, 2726.96 327.57, 2695.88 333.86 C 2638.42 330.60, 2590.08 332.44, 2536.41 330.23 C 2489.07 330.36, 2431.78 339.29, 2376.94 330.23 Z" fill="rgb(245.55212922173274,219.40528634361235,208.6769456681351)" stroke="rgb(245.55212922173274,219.40528634361235,208.6769456681351)" stroke-width="1" />
<path d="M 2777.11 1353.58 C 2755.46 1423.20, 2718.55 1485.20, 2671.80 1542.29 C 2624.96 1609.84, 2570.43 1660.73, 2515.35 1705.59 C 2461.96 1744.63, 2408.77 1771.83, 2355.88 1799.94 C 2301.09 1831.76, 2246.35 1851.32, 2193.41 1876.14 C 2165.60 1887.83, 2142.34 1904.01, 2115.18 1908.80 C 2072.66 1918.45, 2066.47 1950.97, 2109.16 1959.61 C 2139.84 1971.91, 2161.38 1998.43, 2190.40 2003.16 C 2217.43 2020.66, 2251.57 2035.97, 2241.55 2079.36 C 2238.88 2150.92, 2249.05 2210.00, 2241.55 2271.70 C 2246.48 2306.31, 2240.65 2341.18, 2247.57 2369.68 C 2274.20 2378.01, 2303.11 2370.98, 2328.80 2373.30 C 2439.21 2373.48, 2546.56 2373.01, 2650.74 2373.30 C 2678.83 2373.30, 2703.90 2373.30, 2728.97 2373.30 C 2759.52 2376.12, 2791.16 2377.31, 2780.12 2333.39 C 2780.12 2265.65, 2780.12 2201.54, 2780.12 2137.43 C 2780.12 2005.58, 2780.12 1877.35, 2780.12 1749.13 C 2778.14 1616.56, 2784.10 1483.65, 2777.11 1357.21 Z" fill="rgb(234.83870967741936,205.3709677419355,194.93548387096774)" stroke="rgb(234.83870967741936,205.3709677419355,194.93548387096774)" stroke-width="1" />
<path d="M 2777.11 1382.61 C 2741.70 1442.56, 2717.07 1504.89, 2665.79 1560.43 C 2638.72 1593.35, 2615.87 1621.89, 2599.59 1647.52 C 2600.87 1669.97, 2588.50 1685.46, 2590.57 1658.41 C 2578.55 1644.67, 2564.01 1672.73, 2551.45 1672.93 C 2500.11 1725.67, 2444.44 1753.42, 2388.98 1781.79 C 2332.72 1810.54, 2282.42 1844.26, 2226.50 1861.63 C 2196.47 1870.46, 2173.58 1887.70, 2148.28 1897.92 C 2125.85 1914.64, 2080.98 1916.62, 2076.06 1937.84 C 2132.30 1972.72, 2186.60 2000.83, 2238.54 2035.82 C 2240.55 2104.56, 2242.18 2168.35, 2244.56 2231.78 C 2244.56 2266.86, 2244.56 2298.31, 2244.56 2329.76 C 2233.73 2381.78, 2271.11 2375.43, 2295.71 2376.93 C 2395.00 2369.53, 2517.87 2377.53, 2617.65 2369.68 C 2673.06 2365.07, 2731.84 2379.03, 2780.12 2362.42 C 2780.12 2294.68, 2780.12 2230.57, 2780.12 2166.46 C 2780.12 2034.61, 2780.12 1906.39, 2780.12 1778.16 C 2778.56 1642.70, 2784.41 1515.81, 2777.11 1386.24 Z" fill="rgb(240.21951219512195,226.14939024390245,222.1189024390244)" stroke="rgb(240.21951219512195,226.14939024390245,222.1189024390244)" stroke-width="1" />
<path d="M 2325.79 330.23 C 2306.16 338.52, 2281.29 331.57, 2259.60 333.86 C 2233.44 336.96, 2249.19 383.81, 2244.56 406.44 C 2244.56 465.71, 2244.56 521.35, 2244.56 577.00 C 2244.56 693.12, 2244.56 805.62, 2244.56 918.11 C 2250.97 969.09, 2221.10 1063.46, 2286.68 1041.50 C 2331.72 1033.76, 2383.39 1042.23, 2428.09 1048.75 C 2530.55 1065.13, 2631.96 1075.81, 2713.93 1143.11 C 2742.95 1171.70, 2752.65 1148.02, 2747.02 1114.07 C 2748.79 1080.14, 2739.60 1055.80, 2747.02 1026.98 C 2742.02 964.85, 2747.61 908.04, 2744.02 856.42 C 2748.13 797.31, 2745.78 746.16, 2747.02 685.86 C 2746.92 627.47, 2747.17 565.10, 2747.02 515.30 C 2746.15 456.08, 2748.31 395.73, 2747.02 344.75 C 2714.20 319.89, 2660.58 340.32, 2614.64 333.86 C 2563.21 335.78, 2515.95 330.51, 2473.22 333.86 C 2425.46 331.34, 2375.63 332.17, 2328.80 330.23 Z" fill="rgb(246.33791321707474,213.28433444894603,203.9256943221185)" stroke="rgb(246.33791321707474,213.28433444894603,203.9256943221185)" stroke-width="1" />
<path d="M 2064.03 1948.72 C 2049.12 2000.11, 2055.19 2065.69, 2036.95 2119.28 C 2014.55 2175.09, 2009.96 2236.16, 1997.84 2293.47 C 1985.45 2355.78, 1964.99 2410.43, 1949.70 2467.66 C 1932.16 2528.90, 1920.23 2589.31, 1892.53 2641.84 C 1882.84 2674.47, 1869.76 2701.76, 1856.42 2728.94 C 1824.18 2765.02, 1862.60 2756.55, 1886.51 2754.34 C 1907.51 2739.92, 1932.73 2757.61, 1955.71 2750.71 C 1967.76 2739.88, 2001.03 2750.95, 2015.89 2757.97 C 2056.85 2791.07, 2036.14 2864.60, 2045.98 2921.27 C 2048.02 2952.67, 2047.44 2977.95, 2048.99 3008.36 C 2044.85 3041.79, 2051.64 3077.08, 2082.08 3066.43 C 2134.73 3064.19, 2185.97 3071.09, 2226.50 3059.17 C 2243.34 3009.93, 2231.68 2942.71, 2235.53 2888.61 C 2235.53 2770.07, 2235.53 2655.15, 2235.53 2540.23 C 2233.69 2419.89, 2239.53 2307.11, 2232.52 2191.86 C 2235.69 2160.31, 2232.79 2134.27, 2232.52 2104.77 C 2233.98 2075.03, 2242.33 2035.47, 2211.46 2028.56 C 2160.97 2000.54, 2115.97 1968.89, 2067.04 1948.72 Z" fill="rgb(244.08357939632546,245.5980971128609,248.26123687664042)" stroke="rgb(244.08357939632546,245.5980971128609,248.26123687664042)" stroke-width="1" />
<path d="M 2578.53 1651.15 C 2507.07 1722.88, 2424.38 1761.89, 2343.85 1807.20 C 2265.06 1850.63, 2182.85 1875.31, 2106.15 1916.06 C 2088.69 1921.69, 2050.64 1935.09, 2082.08 1945.09 C 2103.53 1958.98, 2123.82 1967.49, 2142.26 1981.38 C 2175.83 2009.18, 2241.86 2008.30, 2241.55 2068.48 C 2240.08 2167.69, 2246.88 2259.15, 2244.56 2355.16 C 2260.66 2390.42, 2317.07 2365.24, 2349.86 2373.30 C 2391.99 2373.30, 2431.10 2373.30, 2470.22 2373.30 C 2509.15 2369.02, 2555.63 2382.21, 2584.55 2366.05 C 2584.55 2315.24, 2584.55 2268.07, 2584.55 2220.89 C 2584.55 2122.91, 2584.55 2028.56, 2584.55 1934.21 C 2582.55 1838.64, 2588.56 1737.04, 2581.54 1651.15 Z" fill="rgb(239.6320412449876,219.64817643689136,213.05513652854688)" stroke="rgb(239.6320412449876,219.64817643689136,213.05513652854688)" stroke-width="1" />
<path d="M 746.18 2551.12 C 710.25 2586.02, 674.14 2620.36, 634.85 2645.47 C 594.54 2674.09, 549.47 2698.51, 535.56 2754.34 C 507.51 2801.78, 541.67 2851.33, 532.56 2895.87 C 495.60 2888.32, 460.23 2850.65, 415.21 2859.58 C 371.64 2856.78, 334.85 2864.97, 300.88 2881.35 C 259.26 2900.89, 220.19 2937.91, 219.64 2993.85 C 214.74 3044.50, 204.70 3087.46, 204.60 3135.38 C 197.78 3157.87, 203.44 3182.98, 201.59 3204.32 C 222.31 3211.96, 243.98 3219.46, 261.76 3211.58 C 343.31 3213.49, 416.93 3201.07, 493.44 3197.07 C 540.35 3192.56, 573.45 3143.60, 574.68 3091.83 C 576.65 3063.09, 569.23 3042.49, 574.68 3022.88 C 590.54 2995.32, 616.20 3015.86, 631.85 3026.51 C 678.25 3041.76, 717.49 3015.10, 746.18 2975.70 C 783.07 2932.01, 803.16 2885.06, 815.38 2834.18 C 828.06 2790.30, 831.35 2737.76, 824.41 2692.65 C 806.69 2641.22, 785.97 2589.49, 749.19 2554.75 Z" fill="rgb(112.88,140.51333333333332,202.27333333333334)" stroke="rgb(112.88,140.51333333333332,202.27333333333334)" stroke-width="1" />
<path d="M 670.96 1023.35 C 598.23 1031.80, 520.11 1024.57, 445.30 1026.98 C 408.67 1029.59, 348.67 1008.93, 364.06 1074.16 C 365.43 1127.85, 362.37 1171.18, 367.07 1215.68 C 360.23 1264.25, 370.79 1309.50, 364.06 1353.58 C 371.48 1403.64, 361.67 1448.31, 367.07 1495.11 C 355.36 1528.73, 377.34 1539.11, 394.15 1516.88 C 415.48 1500.74, 432.91 1485.61, 451.32 1473.34 C 491.92 1450.06, 530.39 1429.33, 568.66 1408.02 C 646.06 1370.01, 720.32 1331.63, 800.34 1310.04 C 877.54 1272.68, 953.25 1239.73, 1032.01 1215.68 C 1100.09 1205.09, 1027.67 1135.25, 998.92 1117.70 C 977.54 1102.91, 960.56 1087.69, 941.75 1077.79 C 920.88 1060.12, 936.89 1016.08, 905.65 1026.98 C 824.01 1025.83, 745.05 1029.29, 673.97 1023.35 Z" fill="rgb(237.8235294117647,214.62745098039215,206.31372549019608)" stroke="rgb(237.8235294117647,214.62745098039215,206.31372549019608)" stroke-width="1" />
<path d="M 379.11 1026.98 C 354.23 1056.15, 372.83 1115.44, 367.07 1157.62 C 367.07 1206.01, 367.07 1250.76, 367.07 1295.52 C 367.07 1343.90, 367.07 1388.66, 367.07 1433.42 C 367.07 1458.82, 367.07 1480.59, 367.07 1502.37 C 363.52 1549.60, 393.09 1512.73, 409.20 1506.00 C 484.06 1450.24, 561.44 1414.18, 637.86 1375.36 C 713.06 1330.94, 795.66 1316.84, 869.54 1277.38 C 908.87 1256.94, 946.95 1245.25, 983.87 1230.20 C 1021.59 1223.38, 1090.81 1209.25, 1044.05 1157.62 C 1008.70 1126.33, 975.15 1097.56, 935.73 1077.79 C 935.61 1011.67, 876.22 1034.61, 842.46 1030.61 C 764.89 1023.22, 684.70 1030.82, 613.79 1026.98 C 574.74 1029.91, 536.01 1025.21, 499.46 1030.61 C 457.97 1025.65, 421.48 1031.01, 382.12 1026.98 Z" fill="rgb(240.8904109589041,223.93150684931507,215.0)" stroke="rgb(240.8904109589041,223.93150684931507,215.0)" stroke-width="1" />
<path d="M 478.40 1023.35 C 450.77 1031.72, 417.83 1024.64, 388.13 1026.98 C 350.03 1025.69, 374.20 1091.84, 367.07 1121.33 C 367.07 1201.17, 367.07 1277.37, 367.07 1353.58 C 367.07 1393.50, 367.07 1429.79, 367.07 1466.08 C 367.07 1487.85, 367.07 1506.00, 367.07 1524.14 C 378.03 1536.93, 395.67 1510.19, 409.20 1506.00 C 472.75 1458.40, 536.97 1425.11, 601.76 1393.50 C 663.82 1356.58, 728.22 1335.20, 791.31 1310.04 C 826.98 1303.54, 801.72 1250.53, 809.36 1212.05 C 809.36 1170.93, 809.36 1133.43, 809.36 1095.93 C 811.86 1055.10, 817.32 1010.40, 770.25 1026.98 C 735.88 1026.56, 706.29 1020.98, 673.97 1023.35 C 600.86 1021.20, 540.73 1028.22, 481.41 1023.35 Z" fill="rgb(252.56984564145264,226.0552744507782,212.32434509703452)" stroke="rgb(252.56984564145264,226.0552744507782,212.32434509703452)" stroke-width="1" />
<path d="M 2777.11 1364.47 C 2756.73 1412.78, 2733.72 1459.78, 2701.89 1502.37 C 2669.05 1547.42, 2644.88 1586.33, 2611.63 1622.12 C 2575.54 1653.47, 2595.85 1712.65, 2593.58 1756.39 C 2589.37 1805.44, 2592.87 1850.97, 2590.57 1897.92 C 2591.72 1945.61, 2593.04 1994.47, 2590.57 2039.45 C 2594.58 2086.23, 2593.05 2132.75, 2593.58 2180.97 C 2593.14 2232.87, 2594.74 2279.43, 2590.57 2322.50 C 2574.05 2392.92, 2634.17 2369.92, 2668.80 2373.30 C 2705.91 2366.83, 2757.97 2386.75, 2780.12 2362.42 C 2780.12 2312.82, 2780.12 2266.86, 2780.12 2220.89 C 2780.12 2124.12, 2780.12 2030.98, 2780.12 1937.84 C 2779.71 1837.77, 2780.38 1737.48, 2783.13 1654.78 C 2775.73 1607.98, 2782.73 1554.42, 2780.12 1513.25 C 2779.41 1468.36, 2783.25 1414.63, 2777.11 1368.10 Z" fill="rgb(243.95539568345325,238.61219235138205,235.51950018932223)" stroke="rgb(243.95539568345325,238.61219235138205,235.51950018932223)" stroke-width="1" />
<path d="M 1125.29 2137.43 C 1086.80 2168.67, 1054.74 2213.44, 1019.98 2249.92 C 987.68 2288.13, 936.65 2323.58, 956.79 2380.56 C 958.23 2427.52, 961.29 2470.04, 959.80 2514.83 C 953.47 2568.36, 976.34 2602.99, 983.87 2649.10 C 995.44 2694.81, 993.05 2742.12, 983.87 2783.37 C 984.68 2835.96, 970.54 2877.45, 953.79 2917.64 C 943.16 2966.41, 897.14 3002.30, 905.65 3051.91 C 933.75 3090.18, 927.96 3153.92, 965.82 3175.29 C 970.27 3209.70, 993.38 3163.50, 1004.94 3153.52 C 1024.41 3129.33, 1035.19 3105.92, 1050.07 3084.57 C 1075.69 3040.17, 1096.50 2998.51, 1104.23 2950.30 C 1130.76 2864.11, 1140.82 2773.32, 1149.36 2681.76 C 1151.39 2633.07, 1146.52 2591.46, 1146.35 2547.49 C 1148.16 2499.91, 1151.42 2456.72, 1146.35 2413.22 C 1133.95 2323.27, 1132.53 2231.46, 1128.30 2141.05 Z" fill="rgb(231.56935270805812,232.33685601056803,237.40422721268163)" stroke="rgb(231.56935270805812,232.33685601056803,237.40422721268163)" stroke-width="1" />
<path d="M 1116.26 2148.31 C 1077.34 2180.04, 1045.72 2233.01, 1007.94 2268.07 C 966.28 2303.44, 952.29 2347.52, 959.80 2402.34 C 963.34 2448.25, 963.14 2492.39, 962.81 2536.61 C 967.03 2587.19, 987.55 2625.99, 995.91 2670.88 C 1007.96 2718.57, 989.13 2761.72, 986.88 2805.14 C 982.44 2857.00, 961.67 2894.85, 959.80 2939.41 C 939.52 2980.88, 890.86 3017.33, 911.66 3062.80 C 933.48 3105.48, 937.01 3162.72, 965.82 3189.81 C 1004.70 3160.67, 1022.00 3118.39, 1050.07 3080.94 C 1068.62 3035.96, 1095.96 3000.29, 1101.22 2950.30 C 1108.41 2902.21, 1129.37 2864.63, 1128.30 2816.03 C 1135.18 2769.29, 1148.74 2729.51, 1146.35 2681.76 C 1145.16 2595.06, 1149.76 2498.44, 1143.34 2413.22 C 1135.64 2367.39, 1135.27 2321.52, 1128.30 2278.95 C 1125.98 2232.27, 1131.33 2180.97, 1119.27 2148.31 Z" fill="rgb(234.7309011309741,236.98292593943816,241.91098139365195)" stroke="rgb(234.7309011309741,236.98292593943816,241.91098139365195)" stroke-width="1" />
<path d="M 282.83 2014.04 C 277.35 2055.36, 280.73 2101.09, 279.82 2144.68 C 268.15 2207.11, 325.29 2221.69, 358.05 2242.66 C 428.56 2289.31, 505.86 2307.46, 586.71 2315.24 C 663.49 2321.40, 738.83 2322.97, 812.37 2329.76 C 852.23 2327.79, 888.61 2324.45, 926.71 2326.13 C 974.13 2319.80, 997.70 2256.12, 1032.01 2228.15 C 1053.30 2208.73, 1069.21 2186.05, 1086.17 2166.46 C 1108.05 2145.86, 1115.49 2124.84, 1083.16 2130.17 C 1041.29 2127.48, 1007.69 2140.12, 968.83 2137.43 C 928.87 2145.20, 893.00 2135.95, 854.50 2141.05 C 813.46 2144.27, 778.22 2141.55, 740.16 2137.43 C 662.35 2133.09, 586.47 2131.89, 514.50 2119.28 C 429.12 2105.04, 357.08 2060.71, 285.83 2014.04 Z" fill="rgb(242.6860465116279,168.2674418604651,150.6860465116279)" stroke="rgb(242.6860465116279,168.2674418604651,150.6860465116279)" stroke-width="1" />
<path d="M 282.83 2017.67 C 282.83 2061.22, 282.83 2104.77, 282.83 2148.31 C 269.10 2209.51, 329.36 2224.33, 361.05 2242.66 C 432.62 2284.53, 504.38 2313.47, 586.71 2311.61 C 664.01 2318.67, 736.39 2327.66, 812.37 2326.13 C 850.40 2322.47, 889.72 2327.70, 926.71 2326.13 C 974.27 2315.62, 1000.92 2254.56, 1035.02 2220.89 C 1055.52 2201.37, 1069.30 2184.63, 1086.17 2166.46 C 1109.19 2142.06, 1110.12 2125.12, 1080.16 2130.17 C 1038.59 2129.59, 1002.53 2136.26, 965.82 2141.05 C 886.51 2137.94, 812.55 2148.53, 740.16 2137.43 C 661.96 2134.23, 587.99 2127.45, 514.50 2119.28 C 429.06 2106.41, 358.79 2058.14, 285.83 2017.67 Z" fill="rgb(245.11975032750252,206.58819449795791,194.16475302458196)" stroke="rgb(245.11975032750252,206.58819449795791,194.16475302458196)" stroke-width="1" />
<path d="M 1098.21 330.23 C 1077.96 340.85, 1049.26 326.87, 1029.01 337.49 C 1023.30 367.09, 1022.56 395.54, 1022.99 424.58 C 1022.99 485.06, 1022.99 541.92, 1022.99 598.77 C 1026.87 717.24, 1020.93 832.72, 1022.99 950.77 C 1018.69 977.30, 1035.55 1026.95, 1004.94 1023.35 C 979.61 1028.41, 950.81 1023.91, 935.73 1037.87 C 957.70 1099.67, 1026.89 1114.37, 1059.09 1161.25 C 1079.32 1203.60, 1102.08 1197.84, 1104.23 1153.99 C 1110.07 1123.46, 1111.76 1094.48, 1116.26 1066.90 C 1126.69 1005.41, 1130.30 944.14, 1146.35 889.08 C 1161.22 823.00, 1188.05 768.03, 1218.56 714.89 C 1223.89 642.34, 1156.43 602.84, 1131.30 544.34 C 1113.44 487.81, 1063.21 430.12, 1092.19 370.15 C 1094.68 335.78, 1133.80 334.69, 1152.37 337.49 C 1180.09 349.27, 1188.11 380.32, 1215.55 402.81 C 1238.30 428.77, 1257.52 454.54, 1284.75 460.87 C 1315.95 463.63, 1321.21 420.27, 1341.92 402.81 C 1338.02 377.03, 1350.97 315.87, 1326.88 355.63 C 1334.35 375.98, 1331.57 408.25, 1311.83 424.58 C 1287.10 466.72, 1290.67 397.92, 1287.76 377.41 C 1295.91 337.83, 1276.45 322.82, 1248.65 330.23 C 1196.10 326.60, 1147.12 335.04, 1101.22 330.23 Z" fill="rgb(249.5436208390051,250.67207028833064,252.2931567875263)" stroke="rgb(249.5436208390051,250.67207028833064,252.2931567875263)" stroke-width="1" />
<path d="M 1979.78 330.23 C 1933.12 338.66, 1881.09 331.47, 1832.35 333.86 C 1810.90 340.64, 1767.47 317.29, 1772.18 352.00 C 1776.74 389.20, 1757.47 425.20, 1787.22 446.36 C 1835.56 499.64, 1854.76 562.35, 1868.46 627.80 C 1882.95 695.19, 1887.15 764.10, 1931.64 812.88 C 1944.26 859.28, 1975.67 863.28, 1997.84 831.02 C 2032.84 833.19, 2047.13 799.32, 2064.03 772.96 C 2092.97 747.98, 2068.84 707.97, 2076.06 682.23 C 2074.97 647.32, 2076.87 617.53, 2079.07 587.88 C 2079.07 524.98, 2079.07 465.71, 2079.07 406.44 C 2074.15 379.69, 2092.70 327.29, 2061.02 333.86 C 2030.85 335.05, 2008.63 328.50, 1982.79 333.86 Z" fill="rgb(241.76553953257087,242.8592739930383,244.89743908503232)" stroke="rgb(241.76553953257087,242.8592739930383,244.89743908503232)" stroke-width="1" />
<path d="M 391.14 2855.95 C 344.10 2864.41, 297.73 2874.80, 258.76 2906.75 C 215.35 2945.70, 214.32 3009.28, 210.62 3066.43 C 208.19 3096.75, 201.00 3119.57, 201.59 3146.26 C 205.62 3171.47, 189.42 3219.19, 219.64 3211.58 C 261.68 3212.07, 314.06 3214.16, 358.05 3207.95 C 403.96 3200.77, 450.24 3203.38, 493.44 3197.07 C 545.18 3192.05, 586.13 3128.87, 571.67 3070.05 C 579.77 3002.14, 553.00 2955.27, 529.55 2906.75 C 489.15 2873.61, 445.78 2852.75, 394.15 2855.95 Z" fill="rgb(99.76664444232784,133.5031907800743,209.1754452805029)" stroke="rgb(99.76664444232784,133.5031907800743,209.1754452805029)" stroke-width="1" />
<path d="M 2091.11 330.23 C 2072.36 357.14, 2091.68 407.53, 2085.09 446.36 C 2084.63 495.21, 2084.63 524.52, 2085.09 569.74 C 2085.09 613.29, 2085.09 653.20, 2085.09 693.12 C 2090.25 745.01, 2074.09 776.46, 2045.98 809.25 C 2030.71 840.08, 1942.21 843.28, 1985.80 881.82 C 2018.16 912.08, 2050.19 934.54, 2088.10 939.89 C 2119.67 948.71, 2176.86 951.21, 2163.32 990.69 C 2146.56 1007.38, 2134.04 990.28, 2118.19 1016.09 C 2106.44 1021.36, 2068.07 1042.35, 2082.08 1037.87 C 2115.74 1033.53, 2143.60 1004.90, 2178.36 997.95 C 2212.92 976.82, 2251.45 962.04, 2238.54 907.23 C 2239.21 813.77, 2242.37 751.27, 2241.55 660.46 C 2244.40 583.48, 2235.87 502.77, 2238.54 413.70 C 2239.64 369.89, 2247.35 316.15, 2199.42 333.86 C 2161.00 336.47, 2128.74 329.93, 2094.12 330.23 Z" fill="rgb(222.6938202247191,225.82303370786516,232.09550561797752)" stroke="rgb(222.6938202247191,225.82303370786516,232.09550561797752)" stroke-width="1" />
<path d="M 1059.09 1219.31 C 1002.15 1229.36, 949.93 1253.12, 896.62 1273.75 C 826.84 1290.76, 787.87 1359.95, 743.17 1422.53 C 712.16 1498.24, 676.31 1566.40, 622.82 1625.75 C 596.49 1646.88, 556.05 1637.48, 544.59 1672.93 C 553.21 1712.10, 587.61 1730.24, 616.80 1716.47 C 683.09 1707.06, 731.57 1663.68, 782.29 1622.12 C 835.98 1567.96, 887.32 1503.27, 944.76 1458.82 C 972.36 1438.28, 997.44 1422.77, 1029.01 1426.16 C 1062.41 1429.77, 1090.61 1440.73, 1080.16 1389.87 C 1079.66 1352.33, 1079.41 1318.55, 1086.17 1288.26 C 1093.73 1257.56, 1102.36 1204.35, 1062.10 1219.31 Z" fill="rgb(132.33971443680593,155.93918561607614,205.95378106821786)" stroke="rgb(132.33971443680593,155.93918561607614,205.95378106821786)" stroke-width="1" />
<path d="M 743.17 2551.12 C 706.59 2591.16, 667.49 2623.85, 625.83 2649.10 C 580.14 2673.53, 544.76 2716.38, 529.55 2768.86 C 513.33 2818.87, 538.53 2873.40, 544.59 2914.01 C 555.52 2940.67, 563.24 2963.81, 571.67 2986.59 C 577.58 3015.02, 608.95 3001.56, 622.82 3019.25 C 666.47 3046.68, 714.72 3021.24, 743.17 2979.33 C 782.16 2934.98, 802.35 2886.36, 815.38 2834.18 C 828.76 2789.46, 831.17 2735.24, 824.41 2689.02 C 803.66 2639.28, 783.13 2582.06, 746.18 2551.12 Z" fill="rgb(98.49477277576275,134.04949861318542,209.62267975250694)" stroke="rgb(98.49477277576275,134.04949861318542,209.62267975250694)" stroke-width="1" />
<path d="M 303.89 1023.35 C 278.26 1031.70, 247.34 1024.65, 219.64 1026.98 C 183.19 1027.40, 204.65 1086.43, 198.58 1114.07 C 198.58 1187.86, 198.58 1258.02, 198.58 1328.18 C 198.58 1400.76, 198.58 1469.71, 198.58 1538.66 C 199.89 1607.46, 199.12 1679.89, 201.59 1752.76 C 214.58 1784.19, 220.33 1698.84, 240.70 1683.81 C 260.26 1641.49, 284.47 1616.66, 312.91 1589.46 C 339.34 1555.02, 375.95 1542.80, 361.05 1495.11 C 361.80 1454.02, 367.83 1421.53, 361.05 1386.24 C 367.84 1311.75, 359.91 1239.75, 364.06 1175.77 C 362.41 1136.66, 363.99 1108.68, 361.05 1070.53 C 379.82 1012.61, 333.46 1029.64, 306.90 1023.35 Z" fill="rgb(234.58928571428572,219.67857142857142,213.58928571428572)" stroke="rgb(234.58928571428572,219.67857142857142,213.58928571428572)" stroke-width="1" />
<path d="M 252.74 2180.97 C 255.69 2248.62, 259.49 2318.12, 261.76 2391.45 C 258.39 2462.67, 262.55 2529.56, 261.76 2605.55 C 261.76 2679.34, 261.76 2749.50, 261.76 2819.66 C 259.22 2852.99, 247.30 2918.09, 285.83 2881.35 C 315.42 2864.38, 346.44 2860.32, 376.10 2852.32 C 408.01 2849.47, 436.73 2852.51, 463.35 2852.32 C 459.84 2806.73, 438.89 2779.18, 421.23 2743.45 C 386.56 2682.48, 405.16 2600.02, 400.17 2529.35 C 400.17 2455.56, 400.17 2385.40, 400.17 2315.24 C 414.06 2263.14, 372.63 2258.73, 346.01 2242.66 C 310.19 2230.52, 286.58 2195.24, 255.75 2180.97 Z" fill="rgb(216.734375,223.17578125,236.32421875)" stroke="rgb(216.734375,223.17578125,236.32421875)" stroke-width="1" />
<path d="M 261.76 2184.60 C 260.27 2315.43, 262.80 2465.46, 261.76 2605.55 C 261.76 2678.13, 261.76 2747.08, 261.76 2816.03 C 265.29 2851.61, 251.69 2913.22, 288.84 2881.35 C 319.53 2865.16, 348.58 2856.57, 379.11 2852.32 C 396.49 2844.17, 468.51 2856.61, 436.27 2837.80 C 438.10 2804.54, 446.50 2776.56, 418.22 2747.08 C 389.94 2683.41, 403.57 2603.94, 400.17 2532.98 C 400.17 2460.40, 400.17 2391.45, 400.17 2322.50 C 410.68 2272.15, 383.69 2259.18, 355.04 2246.29 C 321.50 2231.14, 293.63 2208.26, 264.77 2188.23 Z" fill="rgb(207.77338129496403,217.53655140403805,239.24263170109074)" stroke="rgb(207.77338129496403,217.53655140403805,239.24263170109074)" stroke-width="1" />
<path d="M 764.23 2551.12 C 785.36 2606.69, 837.71 2659.29, 833.43 2732.57 C 831.77 2802.86, 817.22 2863.09, 791.31 2917.64 C 774.92 2953.16, 749.97 2979.93, 728.13 3004.73 C 706.66 3033.78, 649.66 3037.22, 695.03 3073.68 C 717.45 3107.38, 742.44 3138.59, 770.25 3106.34 C 800.35 3091.66, 823.50 3065.50, 848.48 3044.65 C 911.33 3032.94, 935.56 2954.65, 956.79 2895.87 C 978.82 2836.75, 984.07 2774.38, 986.88 2710.79 C 987.73 2675.20, 981.54 2646.76, 971.84 2620.07 C 958.32 2591.16, 959.18 2544.83, 923.70 2551.12 C 869.54 2551.12, 818.39 2551.12, 767.24 2551.12 Z" fill="rgb(238.68942226510674,243.43468821613797,250.41731998552646)" stroke="rgb(238.68942226510674,243.43468821613797,250.41731998552646)" stroke-width="1" />
<path d="M 207.61 1023.35 C 187.35 1066.30, 204.01 1136.43, 198.58 1190.28 C 198.58 1251.97, 198.58 1310.04, 198.58 1368.10 C 200.56 1429.30, 194.60 1490.84, 201.59 1545.91 C 252.74 1549.54, 300.88 1549.54, 349.02 1549.54 C 376.93 1510.04, 358.22 1435.48, 364.06 1378.98 C 362.39 1316.03, 367.51 1254.43, 361.05 1201.17 C 366.05 1140.25, 363.17 1083.85, 358.05 1026.98 C 306.90 1023.35, 258.76 1023.35, 210.62 1023.35 Z" fill="rgb(245.77526413921692,240.67930391547546,237.66612802983218)" stroke="rgb(245.77526413921692,240.67930391547546,237.66612802983218)" stroke-width="1" />
<path d="M 535.56 3186.18 C 501.18 3213.06, 453.74 3201.92, 412.20 3207.95 C 368.58 3213.05, 327.52 3216.87, 285.83 3218.84 C 243.57 3220.12, 183.27 3201.05, 201.59 3273.27 C 201.59 3301.10, 201.59 3325.29, 201.59 3349.48 C 205.10 3373.98, 190.27 3419.19, 219.64 3411.17 C 304.87 3417.07, 395.47 3413.82, 475.39 3414.80 C 496.76 3414.80, 515.62 3409.41, 538.57 3411.17 C 547.87 3389.62, 543.11 3362.55, 544.59 3338.59 C 540.97 3286.84, 552.08 3225.84, 538.57 3186.18 Z" fill="rgb(189.0934065934066,202.53296703296704,229.53846153846155)" stroke="rgb(189.0934065934066,202.53296703296704,229.53846153846155)" stroke-width="1" />
<path d="M 535.56 3193.44 C 502.74 3219.53, 455.49 3203.59, 415.21 3207.95 C 372.93 3206.86, 331.16 3220.89, 288.84 3218.84 C 252.36 3229.96, 184.57 3198.75, 201.59 3269.64 C 208.18 3316.22, 187.55 3388.44, 213.62 3411.17 C 297.53 3418.73, 389.33 3414.72, 463.35 3411.17 C 486.42 3411.17, 506.48 3411.17, 526.54 3411.17 C 550.95 3405.98, 538.05 3366.88, 541.58 3345.85 C 539.04 3288.63, 547.94 3231.16, 538.57 3193.44 Z" fill="rgb(215.17544956997654,223.01907740422206,239.3202501954652)" stroke="rgb(215.17544956997654,223.01907740422206,239.3202501954652)" stroke-width="1" />
<path d="M 406.19 2278.95 C 401.52 2369.89, 403.60 2468.61, 403.18 2565.64 C 414.30 2605.08, 382.04 2683.98, 424.24 2692.65 C 466.97 2695.02, 509.95 2687.87, 547.60 2696.28 C 572.29 2697.98, 564.68 2615.79, 565.65 2576.52 C 565.65 2524.51, 565.65 2476.12, 565.65 2427.74 C 560.15 2382.28, 584.89 2305.06, 532.56 2311.61 C 484.18 2316.01, 449.86 2288.23, 409.20 2278.95 Z" fill="rgb(243.2323644399116,244.37259901410846,248.78395376508584)" stroke="rgb(243.2323644399116,244.37259901410846,248.78395376508584)" stroke-width="1" />
<path d="M 2157.30 330.23 C 2150.29 446.98, 2156.29 570.24, 2154.29 689.49 C 2154.29 752.39, 2154.29 811.67, 2154.29 870.94 C 2155.91 903.29, 2150.82 935.37, 2157.30 961.66 C 2180.21 965.04, 2204.20 962.34, 2229.51 965.29 C 2252.55 916.19, 2236.28 843.82, 2241.55 787.47 C 2241.55 724.57, 2241.55 665.30, 2241.55 606.03 C 2241.55 543.13, 2241.55 483.85, 2241.55 424.58 C 2239.63 392.38, 2245.43 359.95, 2238.54 333.86 C 2209.07 336.68, 2186.29 328.82, 2160.31 330.23 Z" fill="rgb(231.01581485053038,233.93770491803278,240.8692381870781)" stroke="rgb(231.01581485053038,233.93770491803278,240.8692381870781)" stroke-width="1" />
<path d="M 2088.10 333.86 C 2081.11 391.35, 2087.07 455.31, 2085.09 515.30 C 2084.84 583.07, 2081.76 640.65, 2085.09 700.38 C 2091.94 735.02, 2082.11 770.13, 2055.00 791.10 C 2040.14 830.34, 2009.02 835.05, 1982.79 845.54 C 1950.98 880.17, 2010.97 892.82, 2024.92 914.48 C 2050.95 933.74, 2077.35 939.55, 2103.14 947.14 C 2129.08 955.86, 2161.88 962.54, 2151.28 918.11 C 2151.28 884.24, 2151.28 854.00, 2151.28 823.76 C 2151.28 759.65, 2151.28 699.17, 2151.28 638.69 C 2151.28 574.58, 2151.28 514.10, 2151.28 453.61 C 2152.09 420.18, 2150.15 384.28, 2151.28 359.26 C 2152.77 318.22, 2113.26 339.24, 2091.11 333.86 Z" fill="rgb(189.08597285067873,194.87782805429865,209.01407742584215)" stroke="rgb(189.08597285067873,194.87782805429865,209.01407742584215)" stroke-width="1" />
<path d="M 571.67 2315.24 C 564.67 2393.29, 570.65 2477.83, 568.66 2558.38 C 570.61 2601.45, 564.72 2644.81, 571.67 2681.76 C 607.98 2654.03, 644.74 2636.38, 676.98 2605.55 C 705.03 2572.83, 757.37 2556.41, 746.18 2500.32 C 746.18 2455.56, 746.18 2414.43, 746.18 2373.30 C 761.95 2314.34, 712.10 2328.37, 679.99 2326.13 C 643.60 2320.40, 607.84 2321.62, 574.68 2315.24 Z" fill="rgb(219.88399918880552,227.24457513688907,241.2311904279051)" stroke="rgb(219.88399918880552,227.24457513688907,241.2311904279051)" stroke-width="1" />
<path d="M 207.61 2122.91 C 187.57 2179.22, 203.85 2262.56, 198.58 2329.76 C 198.58 2403.55, 198.58 2473.70, 198.58 2543.86 C 198.58 2617.65, 198.58 2687.81, 198.58 2757.97 C 202.96 2831.07, 188.87 2909.77, 207.61 2972.07 C 217.61 2939.45, 262.74 2913.92, 255.75 2874.09 C 255.75 2835.39, 255.75 2800.31, 255.75 2765.23 C 255.75 2691.44, 255.75 2621.28, 255.75 2551.12 C 256.66 2476.37, 250.43 2408.83, 252.74 2337.02 C 251.35 2298.50, 255.89 2260.65, 249.73 2228.15 C 262.66 2177.66, 242.96 2152.71, 210.62 2126.54 Z" fill="rgb(237.05541206856068,240.1822023949284,245.56280817093216)" stroke="rgb(237.05541206856068,240.1822023949284,245.56280817093216)" stroke-width="1" />
<path d="M 824.41 1023.35 C 798.36 1029.40, 818.90 1091.87, 812.37 1124.96 C 812.37 1167.30, 812.37 1206.01, 812.37 1244.71 C 813.15 1266.19, 811.26 1289.64, 812.37 1302.78 C 829.85 1302.12, 844.74 1290.26, 860.51 1281.00 C 894.78 1265.27, 928.13 1255.60, 959.80 1241.09 C 993.35 1225.66, 1027.36 1220.37, 1059.09 1208.43 C 1084.04 1178.91, 1021.38 1137.17, 998.92 1117.70 C 968.64 1088.93, 921.99 1079.80, 926.71 1026.98 C 891.74 1018.46, 859.20 1026.44, 827.42 1023.35 Z" fill="rgb(241.85450236966824,245.0478672985782,249.77227488151658)" stroke="rgb(241.85450236966824,245.0478672985782,249.77227488151658)" stroke-width="1" />
<path d="M 752.20 2329.76 C 747.21 2361.40, 747.21 2403.35, 752.20 2435.00 C 753.17 2469.00, 744.44 2519.18, 758.21 2543.86 C 822.17 2545.74, 885.82 2539.77, 944.76 2547.49 C 950.78 2484.51, 957.94 2389.45, 941.75 2329.76 C 876.85 2326.78, 815.64 2340.01, 755.21 2329.76 Z" fill="rgb(212.91949152542372,220.46211365902292,239.0084745762712)" stroke="rgb(212.91949152542372,220.46211365902292,239.0084745762712)" stroke-width="1" />
<path d="M 1534.48 3186.18 C 1505.61 3206.99, 1527.07 3253.37, 1522.45 3284.16 C 1523.07 3322.32, 1521.58 3363.33, 1522.45 3393.03 C 1581.62 3396.66, 1640.79 3396.66, 1699.97 3396.66 C 1728.61 3392.50, 1708.74 3333.45, 1715.01 3305.93 C 1715.01 3267.23, 1715.01 3232.15, 1715.01 3197.07 C 1658.29 3183.88, 1594.39 3195.21, 1537.49 3186.18 Z" fill="rgb(248.6509359346164,247.804376482995,252.72554706037437)" stroke="rgb(248.6509359346164,247.804376482995,252.72554706037437)" stroke-width="1" />
<path d="M 1901.55 783.84 C 1922.61 865.02, 1927.33 954.35, 1943.68 1037.87 C 1954.64 1081.15, 1964.92 1121.16, 1967.75 1164.88 C 1963.97 1243.87, 2005.43 1154.96, 2006.86 1121.33 C 2008.17 1066.71, 2051.03 1035.76, 2085.09 1023.35 C 2122.59 1008.08, 2173.04 945.52, 2106.15 954.40 C 2066.96 942.34, 2029.63 933.60, 2000.84 899.97 C 1954.43 878.77, 1935.80 825.91, 1904.56 787.47 Z" fill="rgb(24.78055822906641,46.352261790182865,103.95027269810716)" stroke="rgb(24.78055822906641,46.352261790182865,103.95027269810716)" stroke-width="1" />
<path d="M 2753.04 330.23 C 2739.13 391.48, 2750.94 474.57, 2747.02 544.34 C 2747.02 621.75, 2747.02 695.54, 2747.02 769.33 C 2747.02 845.54, 2747.02 918.11, 2747.02 990.69 C 2747.02 1030.61, 2747.02 1066.90, 2747.02 1103.19 C 2742.20 1143.15, 2749.26 1201.87, 2780.12 1201.17 C 2787.14 1052.97, 2781.13 901.89, 2783.13 754.81 C 2783.13 677.40, 2783.13 603.61, 2783.13 529.82 C 2783.13 489.90, 2783.13 453.61, 2783.13 417.32 C 2778.90 382.84, 2798.29 319.98, 2756.05 330.23 Z" fill="rgb(254.9561996779388,236.45507246376812,232.61900161030596)" stroke="rgb(254.9561996779388,236.45507246376812,232.61900161030596)" stroke-width="1" />
<path d="M 1504.39 3211.58 C 1429.27 3274.34, 1351.70 3329.99, 1266.70 3364.00 C 1225.09 3381.23, 1187.32 3397.22, 1146.35 3403.91 C 1120.97 3409.28, 1099.02 3412.96, 1134.31 3411.17 C 1156.38 3411.17, 1175.43 3411.17, 1194.49 3411.17 C 1266.40 3389.34, 1354.59 3404.99, 1432.18 3400.29 C 1471.98 3398.62, 1530.30 3416.41, 1513.42 3349.48 C 1509.54 3303.36, 1521.27 3242.03, 1507.40 3211.58 Z" fill="rgb(145.27058823529413,161.25882352941176,196.31764705882352)" stroke="rgb(145.27058823529413,161.25882352941176,196.31764705882352)" stroke-width="1" />
<path d="M 1507.40 3215.21 C 1472.50 3237.82, 1434.54 3274.21, 1396.08 3295.05 C 1358.15 3330.26, 1313.70 3337.68, 1275.73 3364.00 C 1235.26 3383.34, 1192.16 3386.26, 1155.38 3407.54 C 1140.30 3406.60, 1093.42 3413.94, 1125.29 3411.17 C 1149.84 3409.44, 1167.22 3415.30, 1185.46 3414.80 C 1256.91 3393.12, 1345.14 3402.41, 1423.16 3400.29 C 1459.49 3394.73, 1526.30 3420.75, 1513.42 3356.74 C 1512.53 3308.32, 1515.82 3249.38, 1510.41 3215.21 Z" fill="rgb(216.15362106803218,221.85991221653256,233.9081931236284)" stroke="rgb(216.15362106803218,221.85991221653256,233.9081931236284)" stroke-width="1" />
<path d="M 1778.19 330.23 C 1765.43 350.33, 1774.80 397.30, 1772.18 420.95 C 1786.92 462.46, 1815.84 455.75, 1847.40 453.61 C 1880.77 453.03, 1902.88 454.21, 1931.64 457.24 C 1960.97 454.88, 2003.81 470.45, 1994.83 424.58 C 2007.61 397.67, 1979.58 338.47, 2015.89 337.49 C 2023.22 326.56, 1964.95 336.70, 1949.70 333.86 C 1900.35 327.86, 1838.96 331.12, 1781.20 330.23 Z" fill="rgb(241.07273419649658,242.12909367859862,245.32292460015233)" stroke="rgb(241.07273419649658,242.12909367859862,245.32292460015233)" stroke-width="1" />
<path d="M 577.69 3124.49 C 568.38 3152.78, 562.36 3181.27, 571.67 3211.58 C 564.24 3243.74, 558.99 3273.37, 559.63 3305.93 C 558.25 3344.51, 556.20 3365.59, 556.63 3400.29 C 566.53 3426.33, 604.22 3409.64, 625.83 3414.80 C 650.95 3411.11, 682.83 3422.86, 698.04 3407.54 C 691.23 3376.21, 695.73 3341.31, 698.04 3313.19 C 652.06 3250.30, 612.42 3189.37, 580.70 3124.49 Z" fill="rgb(246.06770428015565,246.92101167315175,249.39105058365757)" stroke="rgb(246.06770428015565,246.92101167315175,249.39105058365757)" stroke-width="1" />
<path d="M 1724.04 1433.42 C 1669.92 1451.18, 1620.86 1483.67, 1564.57 1495.11 C 1511.83 1511.62, 1456.07 1524.13, 1402.10 1516.88 C 1348.17 1525.20, 1292.02 1531.49, 1239.62 1524.14 C 1209.34 1521.59, 1183.63 1518.09, 1158.38 1513.25 C 1133.39 1506.24, 1077.70 1518.88, 1107.23 1549.54 C 1163.01 1553.08, 1217.70 1551.05, 1269.71 1556.80 C 1327.10 1551.31, 1381.82 1569.33, 1432.18 1553.17 C 1488.74 1543.44, 1541.36 1530.99, 1594.66 1520.51 C 1623.12 1513.85, 1649.49 1509.88, 1675.90 1506.00 C 1713.66 1507.99, 1712.72 1465.20, 1727.04 1437.05 Z" fill="rgb(250.20402684563757,152.14362416107383,60.44161073825504)" stroke="rgb(250.20402684563757,152.14362416107383,60.44161073825504)" stroke-width="1" />
<path d="M 878.57 3037.39 C 832.87 3053.11, 799.32 3104.18, 755.21 3124.49 C 737.44 3148.82, 780.66 3168.29, 794.32 3178.92 C 816.40 3196.32, 836.88 3205.96, 857.50 3215.21 C 890.68 3223.60, 978.46 3242.48, 947.77 3178.92 C 921.27 3133.45, 919.59 3062.97, 881.58 3037.39 Z" fill="rgb(239.52,243.44,249.72)" stroke="rgb(239.52,243.44,249.72)" stroke-width="1" />
<path d="M 875.56 3037.39 C 830.19 3053.62, 802.18 3107.42, 755.21 3120.86 C 735.19 3143.40, 774.69 3164.81, 788.30 3175.29 C 810.81 3194.37, 831.45 3206.48, 854.50 3211.58 C 887.05 3224.21, 972.91 3245.68, 947.77 3178.92 C 922.73 3131.79, 915.29 3059.50, 878.57 3037.39 Z" fill="rgb(238.08695652173913,242.69565217391303,249.47826086956522)" stroke="rgb(238.08695652173913,242.69565217391303,249.47826086956522)" stroke-width="1" />
<path d="M 878.57 3037.39 C 833.70 3051.39, 801.98 3103.66, 758.21 3120.86 C 731.42 3145.59, 778.47 3166.88, 791.31 3178.92 C 811.98 3197.99, 834.53 3202.84, 854.50 3215.21 C 886.33 3221.24, 973.39 3243.22, 947.77 3178.92 C 922.46 3131.89, 915.19 3064.61, 881.58 3037.39 Z" fill="rgb(234.45211786372008,239.04558011049724,247.12707182320443)" stroke="rgb(234.45211786372008,239.04558011049724,247.12707182320443)" stroke-width="1" />
<path d="M 2777.11 1346.32 C 2756.95 1414.48, 2723.41 1475.94, 2677.82 1531.40 C 2655.78 1564.62, 2626.74 1587.47, 2611.63 1622.12 C 2640.71 1622.12, 2666.79 1622.12, 2692.87 1622.12 C 2720.95 1622.12, 2746.02 1622.12, 2771.09 1622.12 C 2791.69 1615.36, 2779.53 1564.29, 2783.13 1538.66 C 2781.95 1472.22, 2785.99 1406.79, 2780.12 1346.32 Z" fill="rgb(247.8697539797395,240.44138929088277,237.3680656054028)" stroke="rgb(247.8697539797395,240.44138929088277,237.3680656054028)" stroke-width="1" />
<path d="M 1026.00 1019.72 C 1008.18 1031.59, 984.20 1025.50, 962.81 1026.98 C 931.30 1013.29, 921.60 1062.59, 944.76 1074.16 C 991.88 1106.12, 1037.14 1137.43, 1074.14 1183.02 C 1085.70 1223.31, 1111.39 1173.39, 1107.23 1150.36 C 1112.86 1122.64, 1112.02 1095.31, 1116.26 1070.53 C 1126.36 1043.10, 1125.17 1005.57, 1095.20 1023.35 C 1072.96 1014.02, 1051.38 1028.14, 1029.01 1019.72 Z" fill="rgb(246.9763406940063,248.67770767613038,251.47318611987382)" stroke="rgb(246.9763406940063,248.67770767613038,251.47318611987382)" stroke-width="1" />
<path d="M 204.60 1868.89 C 196.49 1919.06, 198.83 1974.46, 198.58 2028.56 C 200.47 2057.15, 194.73 2085.92, 201.59 2108.39 C 218.39 2134.61, 242.53 2158.42, 264.77 2173.71 C 288.73 2181.90, 277.39 2130.06, 282.83 2112.02 C 282.29 2077.40, 284.20 2058.98, 279.82 2028.56 C 264.64 1976.19, 207.76 1931.79, 207.61 1868.89 Z" fill="rgb(248.80575539568346,225.3453237410072,214.93525179856115)" stroke="rgb(248.80575539568346,225.3453237410072,214.93525179856115)" stroke-width="1" />
<path d="M 409.20 2692.65 C 412.79 2751.49, 468.58 2784.19, 460.34 2845.06 C 463.62 2868.83, 499.57 2854.23, 505.48 2877.72 C 533.89 2918.23, 534.33 2852.85, 520.52 2837.80 C 515.98 2809.08, 516.52 2783.26, 526.54 2761.60 C 529.02 2735.95, 574.37 2699.96, 544.59 2692.65 C 498.46 2692.65, 455.33 2692.65, 412.20 2692.65 Z" fill="rgb(234.55945419103313,238.92397660818713,248.00649772579598)" stroke="rgb(234.55945419103313,238.92397660818713,248.00649772579598)" stroke-width="1" />
<path d="M 207.61 1890.66 C 199.10 1936.30, 200.64 1986.95, 198.58 2035.82 C 185.37 2106.49, 221.79 2140.36, 261.76 2173.71 C 290.80 2163.22, 270.27 2082.21, 276.81 2043.07 C 276.13 1981.77, 216.20 1951.85, 207.61 1894.29 Z" fill="rgb(252.0,238.70945945945945,232.71621621621622)" stroke="rgb(252.0,238.70945945945945,232.71621621621622)" stroke-width="1" />
<path d="M 303.89 1549.54 C 281.26 1557.87, 253.36 1550.86, 228.67 1553.17 C 186.78 1539.82, 200.12 1591.58, 201.59 1618.49 C 198.58 1685.02, 198.58 1747.92, 198.58 1810.82 C 198.87 1874.02, 200.00 1814.35, 204.60 1789.05 C 212.46 1750.89, 224.32 1719.85, 240.70 1691.07 C 259.20 1655.92, 279.95 1625.52, 303.89 1596.72 C 333.17 1564.30, 355.86 1552.57, 306.90 1549.54 Z" fill="rgb(250.5787878787879,240.41969696969696,237.85454545454544)" stroke="rgb(250.5787878787879,240.41969696969696,237.85454545454544)" stroke-width="1" />
<path d="M 207.61 1890.66 C 201.40 1939.48, 201.62 1984.35, 201.59 2035.82 C 187.51 2106.55, 227.50 2136.21, 261.76 2170.09 C 285.92 2167.37, 271.48 2126.73, 273.80 2108.39 C 273.60 2081.32, 281.29 2055.97, 273.80 2032.19 C 260.49 1988.46, 219.57 1944.48, 207.61 1894.29 Z" fill="rgb(253.5030627871363,241.90658499234303,235.73813169984686)" stroke="rgb(253.5030627871363,241.90658499234303,235.73813169984686)" stroke-width="1" />
<path d="M 2076.06 765.70 C 2050.89 800.96, 2028.86 840.42, 1988.81 841.91 C 1941.32 877.81, 2016.45 901.74, 2036.95 921.74 C 2054.35 932.12, 2068.27 940.21, 2085.09 939.89 C 2078.35 920.98, 2083.88 899.57, 2082.08 881.82 C 2081.55 838.98, 2083.64 799.16, 2079.07 765.70 Z" fill="rgb(205.23091976516633,208.65264187866927,216.97749510763208)" stroke="rgb(205.23091976516633,208.65264187866927,216.97749510763208)" stroke-width="1" />
<path d="M 1194.49 330.23 C 1169.43 356.19, 1205.13 391.38, 1230.59 420.95 C 1249.12 447.85, 1308.07 490.99, 1290.77 435.47 C 1282.16 403.19, 1293.47 358.93, 1284.75 333.86 C 1253.66 330.23, 1225.58 330.23, 1197.50 330.23 Z" fill="rgb(244.267316017316,247.01190476190476,249.82359307359306)" stroke="rgb(244.267316017316,247.01190476190476,249.82359307359306)" stroke-width="1" />
<path d="M 704.06 3316.82 C 704.93 3345.76, 685.46 3413.77, 719.10 3414.80 C 755.21 3414.80, 788.30 3414.80, 821.40 3414.80 C 835.26 3412.58, 867.62 3421.71, 860.51 3403.91 C 841.19 3397.45, 825.02 3390.55, 809.36 3382.14 C 771.24 3367.44, 740.42 3340.27, 707.07 3320.45 Z" fill="rgb(208.4909090909091,215.25454545454545,230.03636363636363)" stroke="rgb(208.4909090909091,215.25454545454545,230.03636363636363)" stroke-width="1" />
<path d="M 201.59 1553.17 C 193.84 1582.39, 193.49 1633.62, 231.68 1618.49 C 268.73 1623.63, 297.49 1623.53, 318.93 1585.83 C 367.95 1552.98, 321.78 1549.36, 291.85 1553.17 C 260.76 1553.17, 232.68 1553.17, 204.60 1553.17 Z" fill="rgb(253.14267515923567,243.18853503184712,242.99490445859874)" stroke="rgb(253.14267515923567,243.18853503184712,242.99490445859874)" stroke-width="1" />
<path d="M 704.06 3316.82 C 703.53 3343.53, 686.99 3420.41, 719.10 3411.17 C 755.22 3413.70, 787.23 3412.73, 821.40 3411.17 C 834.50 3407.76, 866.96 3418.84, 860.51 3403.91 C 840.65 3399.01, 824.76 3391.30, 809.36 3382.14 C 771.87 3364.41, 737.64 3345.95, 707.07 3316.82 Z" fill="rgb(211.09879839786382,217.81708945260348,232.2256341789052)" stroke="rgb(211.09879839786382,217.81708945260348,232.2256341789052)" stroke-width="1" />
<path d="M 1612.71 330.23 C 1615.32 346.88, 1671.98 352.20, 1693.95 370.15 C 1723.45 375.92, 1772.94 457.35, 1769.17 388.29 C 1781.14 333.95, 1751.12 321.97, 1715.01 330.23 C 1679.91 330.23, 1647.81 330.23, 1615.72 330.23 Z" fill="rgb(192.125,195.875,205.875)" stroke="rgb(192.125,195.875,205.875)" stroke-width="1" />
<path d="M 1615.72 330.23 C 1595.27 341.25, 1667.91 351.35, 1684.92 366.52 C 1713.09 369.45, 1766.56 447.09, 1766.16 395.55 C 1781.38 345.26, 1758.64 317.36, 1718.02 330.23 C 1682.92 330.23, 1650.82 330.23, 1618.73 330.23 Z" fill="rgb(203.6564417177914,207.08128834355827,216.8819018404908)" stroke="rgb(203.6564417177914,207.08128834355827,216.8819018404908)" stroke-width="1" />
<path d="M 986.88 1593.09 C 976.95 1628.03, 957.37 1658.28, 929.72 1676.55 C 896.44 1709.74, 962.44 1680.16, 977.86 1676.55 C 1004.45 1673.01, 1040.86 1681.82, 1053.08 1662.04 C 1044.65 1632.69, 1014.78 1601.04, 989.89 1593.09 Z" fill="rgb(252.2454991816694,152.53846153846155,53.50736497545008)" stroke="rgb(252.2454991816694,152.53846153846155,53.50736497545008)" stroke-width="1" />
<path d="M 1290.77 330.23 C 1289.36 351.79, 1291.76 383.78, 1290.77 410.07 C 1292.03 438.44, 1301.86 490.26, 1317.85 442.73 C 1346.24 421.16, 1347.39 391.11, 1344.93 359.26 C 1353.32 316.04, 1313.21 334.14, 1293.78 330.23 Z" fill="rgb(248.90685413005272,252.79789103690686,254.0316344463972)" stroke="rgb(248.90685413005272,252.79789103690686,254.0316344463972)" stroke-width="1" />
<path d="M 1347.94 330.23 C 1345.24 346.62, 1337.76 431.80, 1365.99 391.92 C 1393.60 367.76, 1422.62 356.48, 1450.24 341.12 C 1502.56 337.06, 1471.21 328.79, 1438.20 330.23 C 1407.11 330.23, 1379.03 330.23, 1350.95 330.23 Z" fill="rgb(236.91666666666666,239.55555555555554,244.33333333333334)" stroke="rgb(236.91666666666666,239.55555555555554,244.33333333333334)" stroke-width="1" />
<path d="M 1350.95 330.23 C 1340.53 342.17, 1338.76 420.26, 1362.98 395.55 C 1390.45 371.49, 1416.98 357.10, 1444.22 344.75 C 1491.98 333.29, 1470.10 332.96, 1435.19 330.23 C 1406.11 330.23, 1380.03 330.23, 1353.96 330.23 Z" fill="rgb(219.2039911308204,224.46341463414635,234.6341463414634)" stroke="rgb(219.2039911308204,224.46341463414635,234.6341463414634)" stroke-width="1" />
<path d="M 1026.00 1429.79 C 972.31 1435.42, 1043.49 1493.82, 1068.12 1495.11 C 1086.16 1492.35, 1080.94 1457.06, 1080.16 1444.30 C 1063.09 1431.25, 1044.72 1434.38, 1029.01 1429.79 Z" fill="rgb(200.2909604519774,187.3954802259887,180.44350282485877)" stroke="rgb(200.2909604519774,187.3954802259887,180.44350282485877)" stroke-width="1" />
</svg>