<svg xmlns="http://www.w3.org/2000/svg" width="3081" height="3716" viewbox="0 0 3081 3716">
<path d="M 1.50 1.81 C -1000.45 8944.38, 7415.94 -1206.64, 1.50 1.81 Z" fill="rgb(nan,nan,nan)" stroke="rgb(nan,nan,nan)" stroke-width="1" />
<path d="M 1.50 1.81 C 1.50 38.10, 1.50 74.39, 1.50 110.68 C 1.50 151.81, 1.50 189.31, 1.50 226.81 C 1.50 267.93, 1.50 305.43, 1.50 342.93 C 1.50 384.06, 1.50 421.56, 1.50 459.06 C 1.50 500.18, 1.50 537.68, 1.50 575.18 C 1.50 616.31, 1.50 653.81, 1.50 691.31 C 1.50 732.43, 1.50 769.93, 1.50 807.43 C 1.50 848.56, 1.50 886.06, 1.50 923.56 C 1.50 964.68, 1.50 1002.18, 1.50 1039.68 C 1.50 1080.81, 1.50 1118.31, 1.50 1155.81 C 1.50 1196.93, 1.50 1234.43, 1.50 1271.93 C 1.50 1313.06, 1.50 1350.56, 1.50 1388.06 C 1.50 1429.18, 1.50 1466.68, 1.50 1504.18 C 1.50 1545.31, 1.50 1582.81, 1.50 1620.31 C 1.50 1661.43, 1.50 1698.93, 1.50 1736.43 C 1.50 1777.56, 1.50 1815.06, 1.50 1852.56 C 1.50 1893.68, 1.50 1931.18, 1.50 1968.68 C 1.50 2009.81, 1.50 2047.31, 1.50 2084.81 C 1.50 2125.93, 1.50 2163.43, 1.50 2200.93 C 1.50 2242.06, 1.50 2279.56, 1.50 2317.06 C 1.50 2358.18, 1.50 2395.68, 1.50 2433.18 C 1.50 2474.31, 1.50 2511.81, 1.50 2549.31 C 1.50 2590.43, 1.50 2627.93, 1.50 2665.43 C 1.50 2706.56, 1.50 2744.06, 1.50 2781.56 C 1.50 2822.68, 1.50 2860.18, 1.50 2897.68 C 1.50 2938.81, 1.50 2976.31, 1.50 3013.81 C 1.50 3054.93, 1.50 3092.43, 1.50 3129.93 C 1.50 3171.06, 1.50 3208.56, 1.50 3246.06 C 1.50 3403.31, 1.50 3556.93, 1.50 3710.56 C 1026.50 3714.19, 2051.49 3714.19, 3076.49 3714.19 C 3079.50 3406.94, 3079.50 3099.69, 3079.50 2792.44 C 3079.50 2635.19, 3079.50 2481.57, 3079.50 2327.94 C 3079.50 2286.82, 3079.50 2249.32, 3079.50 2211.82 C 3079.50 2170.69, 3079.50 2133.19, 3079.50 2095.69 C 3079.50 2054.57, 3079.50 2017.07, 3079.50 1979.57 C 3079.50 1938.44, 3079.50 1900.94, 3079.50 1863.44 C 3079.50 1822.32, 3079.50 1784.82, 3079.50 1747.32 C 3079.50 1706.19, 3079.50 1668.69, 3079.50 1631.19 C 3079.50 1590.07, 3079.50 1552.57, 3079.50 1515.07 C 3079.50 1473.94, 3079.50 1436.44, 3079.50 1398.94 C 3079.50 1357.82, 3079.50 1320.32, 3079.50 1282.82 C 3079.50 1241.69, 3079.50 1204.19, 3079.50 1166.69 C 3079.50 1125.57, 3079.50 1088.07, 3079.50 1050.57 C 3079.50 1009.44, 3079.50 971.94, 3079.50 934.44 C 3079.50 893.32, 3079.50 855.82, 3079.50 818.32 C 3079.50 777.19, 3079.50 739.69, 3079.50 702.19 C 3079.50 661.07, 3079.50 623.57, 3079.50 586.07 C 3079.50 544.94, 3079.50 507.44, 3079.50 469.94 C 3079.50 428.82, 3079.50 391.32, 3079.50 353.82 C 3079.50 312.69, 3079.50 275.19, 3079.50 237.69 C 3079.50 196.57, 3079.50 159.07, 3079.50 121.57 C 3079.50 80.44, 3079.50 42.94, 3079.50 5.44 C 3049.41 1.81, 3019.32 1.81, 2989.23 1.81 C 2955.13 1.81, 2924.04 1.81, 2892.95 1.81 C 2858.85 1.81, 2827.76 1.81, 2796.67 1.81 C 2762.57 1.81, 2731.48 1.81, 2700.39 1.81 C 2666.29 1.81, 2635.20 1.81, 2604.11 1.81 C 2570.01 1.81, 2538.92 1.81, 2507.83 1.81 C 2473.73 1.81, 2442.64 1.81, 2411.54 1.81 C 2377.44 1.81, 2346.35 1.81, 2315.26 1.81 C 2281.16 1.81, 2250.07 1.81, 2218.98 1.81 C 2184.88 1.81, 2153.79 1.81, 2122.70 1.81 C 2088.60 1.81, 2057.51 1.81, 2026.42 1.81 C 1992.32 1.81, 1961.23 1.81, 1930.14 1.81 C 1896.04 1.81, 1864.95 1.81, 1833.86 1.81 C 1799.76 1.81, 1768.67 1.81, 1737.58 1.81 C 1703.48 1.81, 1672.39 1.81, 1641.29 1.81 C 1607.19 1.81, 1576.10 1.81, 1545.01 1.81 C 1510.91 1.81, 1479.82 1.81, 1448.73 1.81 C 1414.63 1.81, 1383.54 1.81, 1352.45 1.81 C 1318.35 1.81, 1287.26 1.81, 1256.17 1.81 C 1222.07 1.81, 1190.98 1.81, 1159.89 1.81 C 1125.79 1.81, 1094.70 1.81, 1063.61 1.81 C 1029.51 1.81, 998.42 1.81, 967.33 1.81 C 933.23 1.81, 902.14 1.81, 871.04 1.81 C 836.94 1.81, 805.85 1.81, 774.76 1.81 C 740.66 1.81, 709.57 1.81, 678.48 1.81 C 644.38 1.81, 613.29 1.81, 582.20 1.81 C 548.10 1.81, 517.01 1.81, 485.92 1.81 C 451.82 1.81, 420.73 1.81, 389.64 1.81 C 355.54 1.81, 324.45 1.81, 293.36 1.81 C 259.26 1.81, 228.17 1.81, 197.08 1.81 C 162.98 1.81, 131.89 1.81, 100.79 1.81 C 66.69 1.81, 35.60 1.81, 4.51 1.81 Z" fill="rgb(252.98110075008842,252.23563943641,252.33439797494742)" stroke="rgb(252.98110075008842,252.23563943641,252.33439797494742)" stroke-width="1" />
<path d="M 3073.48 2356.97 C 3054.32 2374.18, 3032.74 2361.54, 3013.30 2364.23 C 2991.63 2367.97, 2967.48 2363.74, 2947.11 2367.86 C 2899.15 2366.07, 2856.80 2377.03, 2817.73 2371.49 C 2782.06 2391.32, 2736.86 2388.21, 2691.36 2389.63 C 2645.23 2389.63, 2602.10 2389.63, 2558.98 2389.63 C 2513.28 2395.21, 2470.25 2388.33, 2429.60 2389.63 C 2384.47 2389.63, 2342.34 2389.63, 2300.22 2389.63 C 2276.61 2390.10, 2250.93 2381.50, 2255.09 2415.04 C 2251.74 2442.90, 2251.63 2468.75, 2252.08 2494.87 C 2252.08 2550.52, 2252.08 2602.53, 2252.08 2654.54 C 2252.08 2708.98, 2252.08 2759.78, 2252.08 2810.59 C 2250.27 2867.34, 2254.37 2918.50, 2249.07 2966.63 C 2256.18 2997.03, 2249.70 3013.77, 2249.07 3042.84 C 2260.92 3086.32, 2225.74 3070.39, 2206.95 3079.13 C 2160.81 3079.13, 2117.69 3079.13, 2074.56 3079.13 C 2044.96 3077.89, 2062.77 3123.83, 2053.50 3140.82 C 2053.76 3172.97, 2054.70 3192.80, 2053.50 3220.65 C 2053.01 3274.47, 2059.53 3325.84, 2053.50 3376.70 C 2061.23 3414.02, 2030.57 3410.08, 2011.38 3409.36 C 1987.31 3409.36, 1966.24 3409.36, 1945.18 3409.36 C 1899.05 3409.36, 1855.92 3409.36, 1812.80 3409.36 C 1767.59 3410.37, 1723.74 3406.52, 1683.42 3412.99 C 1640.57 3410.14, 1595.01 3417.79, 1554.04 3409.36 C 1508.88 3408.59, 1467.95 3418.27, 1424.66 3416.62 C 1381.49 3412.43, 1336.22 3427.07, 1292.27 3416.62 C 1250.79 3417.16, 1208.78 3426.94, 1162.90 3423.87 C 1116.38 3421.06, 1076.52 3428.84, 1033.52 3427.50 C 988.39 3427.50, 946.26 3427.50, 904.14 3427.50 C 857.29 3422.08, 810.65 3426.41, 771.75 3427.50 C 723.62 3428.54, 687.45 3424.31, 642.38 3423.87 C 595.89 3421.13, 555.83 3428.36, 513.00 3427.50 C 467.87 3427.50, 425.74 3427.50, 383.62 3427.50 C 337.49 3427.50, 294.36 3427.50, 251.23 3427.50 C 227.79 3420.48, 207.90 3433.47, 188.05 3423.87 C 163.00 3416.19, 141.64 3427.38, 121.86 3427.50 C 96.65 3429.14, 81.29 3437.13, 58.67 3431.13 C 38.54 3448.86, 5.51 3417.35, 1.50 3449.28 C 1.50 3503.71, 1.50 3554.51, 1.50 3605.32 C 5.87 3655.70, -18.51 3737.11, 43.63 3714.19 C 88.76 3714.19, 130.88 3714.19, 173.01 3714.19 C 218.14 3714.19, 260.26 3714.19, 302.38 3714.19 C 347.52 3714.19, 389.64 3714.19, 431.76 3714.19 C 477.90 3714.19, 521.02 3714.19, 564.15 3714.19 C 609.28 3714.19, 651.40 3714.19, 693.53 3714.19 C 738.66 3714.19, 780.78 3714.19, 822.90 3714.19 C 868.04 3714.19, 910.16 3714.19, 952.28 3714.19 C 998.42 3714.19, 1041.54 3714.19, 1084.67 3714.19 C 1129.80 3714.19, 1171.92 3714.19, 1214.05 3714.19 C 1259.18 3714.19, 1301.30 3714.19, 1343.42 3714.19 C 1388.56 3714.19, 1430.68 3714.19, 1472.80 3714.19 C 1518.94 3714.19, 1562.06 3714.19, 1605.19 3714.19 C 1650.32 3714.19, 1692.44 3714.19, 1734.57 3714.19 C 1779.70 3714.19, 1821.82 3714.19, 1863.94 3714.19 C 1909.08 3714.19, 1951.20 3714.19, 1993.32 3714.19 C 2039.46 3714.19, 2082.58 3714.19, 2125.71 3714.19 C 2170.84 3714.19, 2212.96 3714.19, 2255.09 3714.19 C 2300.22 3714.19, 2342.34 3714.19, 2384.47 3714.19 C 2429.60 3714.19, 2471.72 3714.19, 2513.84 3714.19 C 2559.98 3714.19, 2603.10 3714.19, 2646.23 3714.19 C 2691.36 3714.19, 2733.48 3714.19, 2775.61 3714.19 C 2820.74 3714.19, 2862.86 3714.19, 2904.99 3714.19 C 2950.12 3714.19, 2992.24 3714.19, 3034.36 3714.19 C 3099.51 3737.11, 3075.13 3655.70, 3079.50 3608.95 C 3079.50 3554.51, 3079.50 3503.71, 3079.50 3452.90 C 3079.50 3398.47, 3079.50 3347.67, 3079.50 3296.86 C 3079.50 3242.43, 3079.50 3191.62, 3079.50 3140.82 C 3079.50 3085.18, 3079.50 3033.16, 3079.50 2981.15 C 3079.50 2926.71, 3079.50 2875.91, 3079.50 2825.10 C 3079.50 2770.67, 3079.50 2719.87, 3079.50 2669.06 C 3079.50 2614.63, 3079.50 2563.82, 3079.50 2513.02 C 3077.50 2459.78, 3083.50 2400.53, 3076.49 2356.97 Z" fill="rgb(255.0,255.0,255.0)" stroke="rgb(255.0,255.0,255.0)" stroke-width="1" />
<path d="M 2288.18 1050.57 C 2217.84 1064.49, 2143.72 1067.38, 2071.55 1075.97 C 1961.36 1088.03, 2044.64 1224.18, 2032.44 1293.71 C 2025.19 1410.57, 2118.68 1420.47, 2149.78 1504.18 C 2185.75 1580.52, 2151.44 1685.01, 2140.75 1765.46 C 2134.54 1894.58, 2023.36 1907.80, 1972.26 1801.75 C 1914.54 1726.84, 1926.70 1622.14, 1900.05 1536.84 C 1835.60 1483.16, 1758.67 1404.25, 1683.42 1449.75 C 1612.10 1486.52, 1538.58 1504.47, 1463.78 1518.70 C 1316.74 1522.85, 1153.22 1543.38, 1027.50 1475.15 C 871.08 1425.08, 773.73 1753.97, 594.24 1729.17 C 463.43 1661.63, 652.01 1625.09, 675.47 1544.10 C 692.06 1474.81, 835.60 1321.32, 768.75 1333.62 C 610.75 1394.58, 458.01 1462.10, 326.45 1591.28 C 265.57 1651.95, 206.45 1732.01, 215.13 1838.04 C 209.50 1951.07, 292.18 2017.83, 362.56 2055.78 C 492.96 2133.68, 650.09 2125.00, 801.84 2131.98 C 951.97 2134.66, 1097.91 2124.45, 1241.13 2106.58 C 1316.79 2099.40, 1392.31 2100.57, 1460.77 2081.18 C 1533.18 2055.57, 1615.09 2066.36, 1683.42 2037.63 C 1758.44 2017.71, 1833.68 2007.16, 1903.06 1979.57 C 1940.15 1965.72, 1973.96 1951.06, 2011.38 1946.91 C 2054.32 1939.91, 2087.26 1916.17, 2122.70 1899.73 C 2275.58 1831.63, 2429.93 1776.59, 2561.98 1656.60 C 2677.01 1542.87, 2858.28 1342.82, 2733.48 1166.69 C 2604.59 1068.18, 2448.58 1057.37, 2291.19 1050.57 Z" fill="rgb(180.02011494252875,58.64655172413793,16.639367816091955)" stroke="rgb(180.02011494252875,58.64655172413793,16.639367816091955)" stroke-width="1" />
<path d="M 1514.93 339.30 C 1332.58 549.67, 937.33 229.91, 1211.04 644.13 C 1244.33 781.22, 1118.30 897.98, 1129.80 1046.94 C 1150.66 1240.43, 1024.60 1234.20, 913.17 1275.56 C 775.18 1307.83, 736.16 1480.74, 648.39 1591.28 C 619.26 1635.97, 495.70 1666.83, 582.20 1718.29 C 643.48 1717.30, 705.28 1699.31, 744.68 1656.60 C 769.72 1635.04, 797.90 1624.09, 816.89 1594.90 C 839.13 1559.96, 871.66 1543.43, 892.11 1511.44 C 939.69 1474.23, 987.13 1409.29, 1051.57 1435.23 C 1093.92 1412.77, 1081.63 1482.51, 1093.69 1500.55 C 1119.70 1517.27, 1152.28 1506.10, 1177.94 1515.07 C 1232.45 1524.54, 1268.40 1539.62, 1331.39 1529.58 C 1384.92 1530.68, 1406.27 1505.10, 1478.82 1515.07 C 1547.94 1502.92, 1580.28 1498.41, 1635.28 1471.52 C 1728.00 1388.17, 1865.56 1456.98, 1927.13 1554.99 C 1926.36 1697.53, 1962.98 1817.19, 2068.54 1859.81 C 2160.30 1784.66, 2168.80 1606.30, 2137.74 1486.04 C 2095.22 1431.82, 2026.32 1402.20, 2026.42 1319.11 C 1979.58 1254.30, 1967.87 1194.79, 2005.36 1123.15 C 2006.57 1036.80, 2091.45 1040.85, 2119.69 988.88 C 2144.50 941.99, 2018.53 956.89, 1996.33 901.78 C 1874.94 829.08, 1880.63 650.92, 1830.85 528.01 C 1766.34 397.08, 1646.01 332.30, 1517.93 339.30 Z" fill="rgb(175.60538116591928,130.91928251121075,118.3542600896861)" stroke="rgb(175.60538116591928,130.91928251121075,118.3542600896861)" stroke-width="1" />
<path d="M 1517.93 339.30 C 1456.11 344.11, 1401.74 370.60, 1352.45 411.88 C 1320.30 504.20, 1243.78 465.26, 1208.03 404.62 C 1042.21 256.97, 1109.02 586.14, 1208.03 644.13 C 1260.55 715.99, 1179.25 783.18, 1165.91 847.35 C 1148.87 916.22, 1131.94 981.52, 1129.80 1054.20 C 1176.11 1252.81, 944.88 1257.68, 1000.42 1275.56 C 844.49 1283.71, 835.79 1317.79, 747.68 1442.49 C 739.69 1570.11, 450.64 1688.74, 624.32 1714.66 C 873.44 1630.04, 1015.87 1216.97, 1147.85 1507.81 C 1262.78 1524.80, 1370.83 1516.08, 1484.84 1507.81 C 1542.90 1489.37, 1602.48 1484.08, 1653.33 1453.38 C 1717.04 1408.93, 1769.97 1425.74, 1824.83 1475.15 C 1856.37 1489.34, 1887.12 1506.45, 1906.07 1540.47 C 1923.86 1570.88, 1909.45 1613.74, 1924.12 1642.08 C 1927.60 1680.14, 1938.16 1711.03, 1945.18 1743.69 C 1958.32 1783.71, 1985.92 1821.43, 2014.38 1841.67 C 2037.88 1868.31, 2075.29 1889.26, 2098.63 1859.81 C 2120.30 1827.34, 2125.52 1791.77, 2134.74 1758.21 C 2150.84 1691.72, 2160.09 1619.66, 2155.80 1551.36 C 2149.69 1512.80, 2140.36 1474.53, 2113.67 1453.38 C 2083.42 1433.09, 2052.78 1415.65, 2044.47 1377.17 C 2028.48 1343.36, 2028.12 1305.37, 2011.38 1275.56 C 1993.25 1237.67, 1955.75 1204.33, 1996.33 1170.32 C 2008.56 1094.61, 2040.65 1022.76, 2107.66 1010.65 C 2191.23 941.40, 2045.72 963.31, 2017.39 916.30 C 1887.52 842.57, 1880.40 665.51, 1833.86 531.63 C 1772.47 398.89, 1648.67 334.16, 1520.94 339.30 Z" fill="rgb(77.06047197640117,90.23156342182891,132.97787610619469)" stroke="rgb(77.06047197640117,90.23156342182891,132.97787610619469)" stroke-width="1" />
<path d="M 1505.90 339.30 C 1460.74 347.40, 1418.30 363.41, 1379.53 390.11 C 1357.83 410.47, 1331.53 427.55, 1322.36 455.43 C 1307.34 486.72, 1273.93 471.61, 1259.18 455.43 C 1212.29 427.69, 1190.42 339.72, 1135.82 357.45 C 1071.44 355.98, 1090.89 447.48, 1111.75 484.46 C 1133.37 544.63, 1168.69 592.82, 1205.02 640.50 C 1221.76 662.74, 1236.26 689.51, 1226.08 716.71 C 1213.11 745.77, 1195.46 768.87, 1186.97 796.54 C 1169.13 850.58, 1148.02 897.86, 1141.84 952.59 C 1131.42 1006.53, 1127.53 1060.11, 1120.77 1112.26 C 1116.03 1169.33, 1099.28 1215.28, 1096.70 1268.30 C 1082.13 1320.55, 1078.09 1370.95, 1084.67 1424.35 C 1094.84 1447.71, 1083.87 1483.50, 1099.71 1496.92 C 1121.59 1506.94, 1144.64 1504.79, 1165.91 1507.81 C 1211.59 1509.84, 1251.07 1521.17, 1295.28 1518.70 C 1341.92 1520.66, 1382.28 1513.10, 1424.66 1511.44 C 1473.97 1517.54, 1511.79 1498.98, 1554.04 1493.29 C 1601.56 1483.32, 1641.48 1459.98, 1683.42 1442.49 C 1708.81 1437.88, 1727.56 1422.67, 1749.61 1417.09 C 1763.34 1426.56, 1789.23 1446.43, 1809.79 1457.01 C 1854.22 1481.49, 1907.22 1502.93, 1921.11 1562.24 C 1927.96 1587.15, 1922.24 1614.70, 1924.12 1638.45 C 1934.39 1663.91, 1933.76 1699.79, 1948.19 1711.03 C 1949.42 1743.25, 1961.09 1765.12, 1972.26 1787.24 C 1988.75 1806.41, 2008.05 1833.20, 2023.41 1845.30 C 2042.25 1870.52, 2065.74 1869.55, 2086.60 1867.07 C 2109.17 1850.98, 2114.41 1819.65, 2122.70 1794.49 C 2138.62 1743.00, 2145.18 1690.47, 2152.79 1638.45 C 2151.73 1586.42, 2156.75 1525.02, 2134.74 1482.41 C 2113.39 1477.89, 2107.78 1440.93, 2080.58 1435.23 C 2057.66 1415.29, 2047.45 1390.11, 2038.45 1362.65 C 2026.08 1335.80, 2023.97 1307.44, 2014.38 1282.82 C 2000.94 1252.71, 1975.40 1239.06, 1975.27 1206.61 C 1975.06 1087.63, 2118.24 1012.14, 2110.67 959.85 C 2012.19 943.30, 1921.62 852.49, 1888.02 742.11 C 1875.69 687.32, 1863.61 637.54, 1854.92 586.07 C 1837.59 526.73, 1810.34 474.43, 1770.67 437.28 C 1728.55 398.29, 1685.95 373.05, 1641.29 353.82 C 1599.44 336.53, 1553.92 338.65, 1508.91 339.30 Z" fill="rgb(149.43182621989482,174.19282153084393,223.69233665331828)" stroke="rgb(149.43182621989482,174.19282153084393,223.69233665331828)" stroke-width="1" />
<path d="M 2026.42 1946.91 C 1853.07 2006.72, 1675.98 2055.64, 1490.85 2081.18 C 1405.38 2110.13, 1310.67 2103.44, 1223.07 2117.47 C 1092.89 2092.17, 1151.88 2268.50, 1150.86 2360.60 C 1160.04 2471.94, 1153.74 2577.25, 1156.88 2683.58 C 1147.50 2800.20, 1127.37 2907.82, 1096.70 3010.18 C 1070.73 3067.88, 1041.53 3120.34, 1006.44 3169.85 C 969.66 3226.96, 922.49 3244.96, 871.04 3227.91 C 819.14 3211.97, 776.69 3191.79, 744.68 3148.08 C 717.96 3132.26, 709.80 3093.46, 684.50 3079.13 C 666.04 3051.69, 646.44 3038.05, 624.32 3024.69 C 563.11 2986.68, 577.14 3094.84, 591.23 3129.93 C 623.79 3186.49, 651.55 3244.80, 690.52 3289.60 C 731.52 3335.73, 776.46 3360.22, 822.90 3383.96 C 866.19 3403.64, 911.01 3410.10, 958.30 3409.36 C 1004.48 3408.30, 1049.39 3412.27, 1090.69 3405.73 C 1140.59 3404.11, 1182.98 3389.36, 1226.08 3376.70 C 1326.84 3344.57, 1412.64 3281.27, 1496.87 3213.40 C 1543.86 3170.08, 1588.62 3121.81, 1626.25 3071.87 C 1671.11 3017.39, 1699.65 2959.88, 1740.58 2908.57 C 1811.82 2803.31, 1867.08 2695.20, 1912.09 2581.97 C 1941.63 2470.91, 1979.11 2367.45, 1999.34 2255.37 C 2006.88 2158.14, 2084.86 2019.75, 2029.43 1946.91 Z" fill="rgb(84.21428571428571,112.85576923076923,173.5151098901099)" stroke="rgb(84.21428571428571,112.85576923076923,173.5151098901099)" stroke-width="1" />
<path d="M 786.80 1326.37 C 737.57 1342.56, 687.67 1356.77, 642.38 1384.43 C 590.33 1410.83, 540.93 1432.58, 494.95 1464.26 C 440.98 1491.15, 394.17 1530.09, 347.52 1569.50 C 320.64 1598.23, 298.83 1619.15, 278.31 1645.71 C 260.50 1677.70, 238.30 1697.21, 236.19 1732.80 C 214.86 1758.11, 217.90 1790.45, 215.13 1819.90 C 214.31 1854.97, 214.93 1885.70, 227.16 1910.62 C 242.35 1938.05, 254.49 1971.07, 275.30 1994.08 C 301.98 2014.61, 325.55 2031.80, 350.52 2044.89 C 374.08 2064.34, 400.18 2067.59, 422.73 2081.18 C 449.71 2093.57, 474.22 2100.77, 497.95 2110.21 C 548.36 2120.15, 600.40 2116.54, 648.39 2124.72 C 699.09 2128.48, 746.37 2133.40, 795.82 2131.98 C 842.03 2134.11, 893.50 2130.63, 943.26 2131.98 C 995.60 2131.84, 1040.47 2118.68, 1090.69 2121.10 C 1142.34 2114.81, 1192.55 2113.08, 1241.13 2106.58 C 1291.12 2099.60, 1339.87 2097.75, 1388.56 2095.69 C 1441.84 2088.60, 1487.10 2070.53, 1535.99 2063.03 C 1587.39 2055.29, 1637.06 2051.30, 1683.42 2037.63 C 1733.78 2019.12, 1787.05 2017.82, 1833.86 1997.71 C 1886.02 1986.16, 1931.01 1962.46, 1981.29 1954.17 C 2006.21 1937.51, 2034.74 1943.73, 2053.50 1921.51 C 2048.46 1904.24, 2120.03 1915.84, 2080.58 1885.22 C 2053.49 1877.28, 2028.20 1869.23, 2008.37 1845.30 C 1984.72 1818.67, 1958.86 1794.63, 1948.19 1761.83 C 1924.32 1703.85, 1913.70 1644.37, 1912.09 1580.39 C 1902.60 1503.26, 1831.20 1490.17, 1788.73 1457.01 C 1740.01 1411.26, 1690.76 1455.20, 1641.29 1467.89 C 1548.55 1514.56, 1446.93 1523.02, 1343.42 1525.96 C 1245.29 1529.21, 1140.00 1522.34, 1048.56 1493.29 C 1019.20 1485.49, 1008.24 1433.36, 979.36 1446.12 C 949.97 1462.38, 928.10 1488.13, 904.14 1507.81 C 876.87 1537.92, 854.75 1554.83, 831.93 1584.02 C 808.35 1619.61, 780.66 1630.84, 756.71 1652.97 C 713.47 1701.39, 660.71 1713.35, 609.28 1729.17 C 583.88 1730.31, 552.27 1721.93, 546.10 1689.26 C 538.37 1655.16, 572.40 1626.75, 597.24 1627.56 C 629.44 1631.00, 639.42 1590.15, 657.42 1569.50 C 679.14 1541.80, 698.26 1514.30, 708.57 1482.41 C 721.25 1448.45, 742.25 1418.18, 759.72 1395.31 C 761.49 1367.28, 825.79 1328.12, 789.81 1326.37 Z" fill="rgb(248.34185735053399,108.15488604754982,21.848925722004097)" stroke="rgb(248.34185735053399,108.15488604754982,21.848925722004097)" stroke-width="1" />
<path d="M 2008.37 1950.54 C 1965.27 1969.27, 1917.67 1974.88, 1875.98 1997.71 C 1828.34 2007.14, 1786.39 2024.38, 1740.58 2030.37 C 1691.73 2035.06, 1654.23 2064.04, 1605.19 2059.40 C 1554.15 2061.85, 1512.07 2078.00, 1466.78 2084.81 C 1421.21 2096.60, 1376.41 2101.91, 1331.39 2106.58 C 1284.71 2112.77, 1239.10 2113.27, 1195.99 2121.10 C 1172.85 2122.33, 1140.36 2115.10, 1138.83 2146.50 C 1138.83 2176.74, 1138.83 2203.35, 1138.83 2229.96 C 1139.54 2289.67, 1148.96 2341.40, 1150.86 2396.89 C 1160.92 2451.28, 1155.51 2506.95, 1153.87 2560.19 C 1156.90 2617.96, 1162.94 2670.91, 1153.87 2723.49 C 1145.87 2780.36, 1141.64 2835.48, 1129.80 2886.79 C 1111.07 2944.02, 1107.65 3005.26, 1078.65 3053.72 C 1048.89 3113.63, 1013.56 3168.56, 970.33 3213.40 C 948.40 3231.84, 920.65 3237.30, 901.13 3238.80 C 877.93 3226.10, 851.28 3232.20, 831.93 3217.03 C 812.02 3196.77, 783.56 3198.86, 768.75 3180.74 C 756.66 3150.85, 719.39 3147.36, 714.59 3115.42 C 691.90 3087.35, 663.36 3080.39, 648.39 3050.10 C 594.92 3045.70, 677.99 3024.11, 633.35 3024.69 C 611.07 3017.22, 579.51 3035.48, 582.20 3064.61 C 590.38 3093.52, 585.27 3128.81, 606.27 3144.45 C 639.10 3121.48, 606.01 3191.07, 636.36 3198.88 C 654.84 3228.41, 667.76 3257.08, 687.51 3282.35 C 729.31 3332.96, 775.56 3358.25, 822.90 3380.33 C 868.47 3403.56, 914.95 3407.03, 961.31 3405.73 C 1004.36 3407.48, 1056.17 3408.33, 1096.70 3402.10 C 1147.55 3399.09, 1192.49 3387.63, 1235.11 3369.44 C 1285.52 3358.41, 1325.30 3325.18, 1370.50 3307.75 C 1394.53 3284.13, 1420.62 3278.93, 1439.71 3253.31 C 1464.47 3234.28, 1488.71 3222.45, 1508.91 3198.88 C 1553.99 3158.23, 1599.04 3104.02, 1635.28 3057.35 C 1676.57 3006.84, 1704.78 2952.25, 1743.59 2901.31 C 1783.53 2847.37, 1810.02 2791.85, 1839.87 2738.01 C 1870.94 2681.94, 1892.15 2626.08, 1915.09 2571.08 C 1931.61 2514.96, 1945.18 2461.00, 1960.23 2407.78 C 1977.47 2350.32, 1993.99 2297.62, 2002.35 2240.85 C 2008.41 2181.01, 2031.50 2133.31, 2038.45 2077.55 C 2041.73 2046.44, 2050.19 2023.05, 2047.48 1994.08 C 2058.41 1956.79, 2038.36 1943.58, 2011.38 1950.54 Z" fill="rgb(128.66471151277713,159.33053601638323,220.40253539310837)" stroke="rgb(128.66471151277713,159.33053601638323,220.40253539310837)" stroke-width="1" />
<path d="M 2071.55 1950.54 C 2035.29 2111.19, 2008.27 2285.75, 1960.23 2444.07 C 1914.50 2632.87, 1830.58 2797.45, 1719.52 2948.49 C 1670.64 3035.41, 1600.76 3113.71, 1539.00 3187.99 C 1468.13 3226.54, 1571.88 3394.16, 1463.78 3373.07 C 1460.93 3409.89, 1714.16 3388.91, 1818.81 3398.47 C 1890.02 3398.47, 1958.22 3398.47, 2026.42 3398.47 C 2054.54 3336.92, 2039.04 3237.38, 2044.47 3158.96 C 2019.14 3037.75, 2125.78 3072.09, 2188.89 3068.24 C 2275.07 3075.77, 2222.12 2927.90, 2237.03 2861.39 C 2237.03 2690.83, 2237.03 2523.90, 2237.03 2356.97 C 2237.03 2271.09, 2237.03 2188.84, 2237.03 2106.58 C 2246.19 1994.21, 2127.06 1999.69, 2074.56 1950.54 Z" fill="rgb(240.9487951807229,242.92469879518072,246.28614457831324)" stroke="rgb(240.9487951807229,242.92469879518072,246.28614457831324)" stroke-width="1" />
<path d="M 2074.56 1950.54 C 2035.74 2093.76, 2015.52 2264.81, 1969.25 2411.41 C 1944.02 2493.88, 1926.69 2575.16, 1891.02 2647.29 C 1875.31 2691.30, 1855.59 2729.67, 1833.86 2767.04 C 1811.01 2810.49, 1790.54 2849.99, 1764.65 2886.79 C 1739.68 2929.48, 1705.90 2962.62, 1686.43 3002.92 C 1653.96 3045.55, 1631.39 3082.84, 1599.17 3119.04 C 1572.72 3146.53, 1514.46 3203.01, 1578.11 3187.99 C 1609.99 3187.26, 1647.75 3186.89, 1677.40 3187.99 C 1721.12 3171.00, 1738.29 3215.03, 1725.54 3253.31 C 1726.33 3297.41, 1726.29 3333.66, 1722.53 3373.07 C 1729.45 3413.17, 1782.80 3386.39, 1806.78 3398.47 C 1841.88 3398.47, 1873.97 3398.47, 1906.07 3398.47 C 1940.17 3398.47, 1971.26 3398.47, 2002.35 3398.47 C 2050.99 3409.50, 2041.63 3352.97, 2041.46 3315.01 C 2039.21 3272.25, 2046.25 3237.77, 2044.47 3198.88 C 2045.95 3156.78, 2041.18 3115.19, 2047.48 3079.13 C 2105.89 3050.14, 2193.56 3093.32, 2237.03 3050.10 C 2237.03 2967.84, 2237.03 2889.21, 2237.03 2810.59 C 2237.03 2649.71, 2237.03 2492.45, 2237.03 2335.20 C 2234.65 2259.42, 2233.23 2177.65, 2234.03 2099.32 C 2238.63 1996.69, 2126.82 2001.69, 2077.57 1954.17 Z" fill="rgb(243.3032585228699,244.96204247627654,248.7874679921675)" stroke="rgb(243.3032585228699,244.96204247627654,248.7874679921675)" stroke-width="1" />
<path d="M 2279.16 1050.57 C 2234.50 1060.47, 2184.10 1062.13, 2140.75 1065.08 C 2114.85 1069.21, 2091.43 1071.82, 2068.54 1075.97 C 2040.09 1073.74, 2013.70 1083.23, 2017.39 1119.52 C 2013.56 1151.48, 1992.18 1180.31, 2017.39 1195.72 C 2035.45 1223.41, 2049.63 1255.19, 2032.44 1282.82 C 2033.04 1350.95, 2058.36 1415.15, 2107.66 1442.49 C 2157.50 1478.72, 2166.84 1541.71, 2164.82 1605.79 C 2160.68 1669.21, 2153.44 1727.46, 2134.74 1779.98 C 2130.34 1814.74, 2117.88 1841.85, 2101.64 1867.07 C 2077.25 1906.96, 2125.88 1908.40, 2143.76 1892.47 C 2192.98 1865.57, 2241.36 1848.63, 2288.18 1827.15 C 2337.37 1801.87, 2384.56 1779.56, 2429.60 1750.95 C 2457.72 1742.40, 2478.48 1721.15, 2501.81 1707.40 C 2528.65 1690.29, 2549.17 1663.50, 2574.02 1649.34 C 2623.70 1594.92, 2668.22 1541.10, 2706.41 1486.04 C 2743.50 1430.56, 2765.84 1372.84, 2781.63 1311.85 C 2783.29 1243.57, 2763.49 1182.74, 2715.43 1152.18 C 2669.47 1117.02, 2620.85 1098.35, 2571.01 1083.23 C 2521.99 1071.48, 2473.70 1066.38, 2426.59 1057.83 C 2378.31 1049.97, 2330.38 1049.84, 2282.17 1050.57 Z" fill="rgb(242.92390347014268,82.88205541156043,13.322001056896248)" stroke="rgb(242.92390347014268,82.88205541156043,13.322001056896248)" stroke-width="1" />
<path d="M 2375.44 332.04 C 2121.96 320.92, 2295.80 729.76, 2243.05 948.96 C 2239.99 985.85, 2199.23 987.93, 2179.87 1007.02 C 2160.73 1013.30, 2099.32 1037.26, 2125.71 1043.31 C 2155.08 1041.97, 2179.96 1044.97, 2203.94 1050.57 C 2234.35 1052.02, 2259.12 1045.78, 2285.18 1043.31 C 2399.56 1040.15, 2504.30 1056.32, 2604.11 1086.86 C 2664.43 1100.86, 2711.07 1145.93, 2763.57 1173.95 C 2800.12 1164.45, 2765.19 1057.08, 2775.61 1010.65 C 2769.00 863.85, 2779.15 769.63, 2778.62 633.24 C 2765.99 519.91, 2838.48 313.22, 2697.38 335.67 C 2582.32 327.33, 2491.35 340.72, 2378.45 332.04 Z" fill="rgb(246.2990353697749,218.55787781350483,206.36495176848874)" stroke="rgb(246.2990353697749,218.55787781350483,206.36495176848874)" stroke-width="1" />
<path d="M 2778.62 1355.40 C 2674.05 1643.56, 2419.06 1790.75, 2194.91 1877.96 C 2161.64 1903.71, 2026.51 1924.72, 2110.67 1961.42 C 2154.70 2002.31, 2245.37 1999.22, 2243.05 2081.18 C 2266.93 2188.94, 2185.10 2408.99, 2330.31 2375.12 C 2440.71 2375.30, 2548.07 2374.83, 2652.25 2375.12 C 2695.92 2361.32, 2789.21 2409.69, 2781.63 2335.20 C 2781.63 2267.46, 2781.63 2203.35, 2781.63 2139.24 C 2779.63 1877.25, 2785.63 1614.89, 2778.62 1359.03 Z" fill="rgb(240.21052631578948,217.68421052631578,210.42105263157896)" stroke="rgb(240.21052631578948,217.68421052631578,210.42105263157896)" stroke-width="1" />
<path d="M 2778.62 1384.43 C 2650.41 1663.41, 2474.95 1752.74, 2228.01 1863.44 C 2177.28 1887.96, 2109.33 1909.99, 2077.57 1939.65 C 2133.80 1974.53, 2188.10 2002.64, 2240.04 2037.63 C 2242.05 2106.37, 2243.68 2170.17, 2246.06 2233.59 C 2250.26 2295.96, 2223.97 2401.16, 2297.21 2378.75 C 2396.50 2371.34, 2519.38 2379.34, 2619.15 2371.49 C 2674.56 2366.89, 2733.35 2380.85, 2781.63 2364.23 C 2781.63 2296.49, 2781.63 2232.38, 2781.63 2168.27 C 2779.30 1904.24, 2786.23 1642.61, 2778.62 1388.06 Z" fill="rgb(239.05,224.403125,219.840625)" stroke="rgb(239.05,224.403125,219.840625)" stroke-width="1" />
<path d="M 2327.30 332.04 C 2307.67 340.34, 2282.80 333.38, 2261.10 335.67 C 2234.94 338.77, 2250.69 385.62, 2246.06 408.25 C 2246.06 467.52, 2246.06 523.17, 2246.06 578.81 C 2246.06 638.08, 2246.06 693.73, 2246.06 749.37 C 2246.06 808.64, 2246.06 864.28, 2246.06 919.93 C 2246.06 950.17, 2246.06 976.78, 2246.06 1003.39 C 2236.25 1046.42, 2263.27 1046.68, 2288.18 1043.31 C 2333.23 1035.58, 2384.90 1044.04, 2429.60 1050.57 C 2477.95 1061.33, 2526.66 1062.32, 2571.01 1075.97 C 2624.01 1090.64, 2672.30 1110.27, 2715.43 1144.92 C 2776.06 1185.93, 2734.10 1063.05, 2748.53 1028.79 C 2743.52 966.66, 2749.12 909.86, 2745.52 858.24 C 2750.58 752.72, 2747.74 627.33, 2748.53 517.12 C 2747.65 457.90, 2749.81 397.54, 2748.53 346.56 C 2737.22 322.83, 2710.48 337.91, 2688.35 335.67 C 2662.32 339.94, 2641.41 333.07, 2616.14 335.67 C 2564.72 337.59, 2517.46 332.33, 2474.73 335.67 C 2449.34 332.28, 2423.94 338.48, 2402.52 332.04 C 2375.48 327.03, 2351.54 341.04, 2330.31 332.04 Z" fill="rgb(246.37482058642607,213.12510618354375,203.7620902779812)" stroke="rgb(246.37482058642607,213.12510618354375,203.7620902779812)" stroke-width="1" />
<path d="M 2065.53 1950.54 C 2052.33 1976.07, 2060.71 2004.44, 2053.50 2034.00 C 2051.44 2066.93, 2044.83 2093.95, 2038.45 2121.10 C 2016.05 2176.90, 2011.47 2237.97, 1999.34 2295.28 C 1986.96 2357.60, 1966.49 2412.24, 1951.20 2469.47 C 1933.67 2530.71, 1921.74 2591.13, 1894.03 2643.66 C 1884.35 2676.28, 1871.26 2703.58, 1857.93 2730.75 C 1825.68 2766.84, 1864.10 2758.36, 1888.02 2756.15 C 1909.01 2741.73, 1934.24 2759.43, 1957.22 2752.53 C 1969.27 2741.69, 2002.54 2752.76, 2017.39 2759.78 C 2043.05 2780.64, 2041.91 2801.20, 2044.47 2835.99 C 2043.08 2868.64, 2045.85 2895.57, 2047.48 2923.08 C 2049.52 2954.48, 2048.95 2979.76, 2050.49 3010.18 C 2046.36 3043.60, 2053.14 3078.89, 2083.59 3068.24 C 2109.66 3068.24, 2132.73 3068.24, 2155.80 3068.24 C 2183.02 3061.90, 2207.15 3074.03, 2228.01 3060.98 C 2244.85 3011.74, 2233.18 2944.53, 2237.03 2890.42 C 2237.03 2829.94, 2237.03 2773.09, 2237.03 2716.24 C 2237.03 2655.75, 2237.03 2598.90, 2237.03 2542.05 C 2236.72 2481.41, 2237.50 2420.35, 2237.03 2367.86 C 2235.06 2307.87, 2241.01 2247.54, 2234.03 2193.67 C 2237.19 2162.12, 2234.29 2136.08, 2234.03 2106.58 C 2235.49 2076.84, 2243.83 2037.29, 2212.96 2030.37 C 2162.47 2002.36, 2117.48 1970.71, 2068.54 1950.54 Z" fill="rgb(244.27534387189488,245.76653664545267,248.3846438103059)" stroke="rgb(244.27534387189488,245.76653664545267,248.3846438103059)" stroke-width="1" />
<path d="M 2580.04 1652.97 C 2542.71 1684.27, 2507.10 1720.60, 2465.70 1740.06 C 2424.92 1769.37, 2382.93 1782.77, 2345.35 1809.01 C 2305.73 1831.52, 2266.77 1847.19, 2228.01 1863.44 C 2185.43 1880.27, 2146.96 1900.27, 2107.66 1917.88 C 2032.40 1935.46, 2115.58 1960.03, 2143.76 1983.20 C 2177.34 2010.99, 2243.36 2010.11, 2243.05 2070.29 C 2244.39 2119.72, 2239.97 2168.39, 2246.06 2211.82 C 2246.06 2262.62, 2246.06 2309.80, 2246.06 2356.97 C 2262.16 2392.23, 2318.58 2367.06, 2351.37 2375.12 C 2393.49 2375.12, 2432.61 2375.12, 2471.72 2375.12 C 2510.65 2370.84, 2557.13 2384.03, 2586.05 2367.86 C 2586.05 2317.06, 2586.05 2269.88, 2586.05 2222.71 C 2586.05 2173.11, 2586.05 2127.14, 2586.05 2081.18 C 2586.05 2030.37, 2586.05 1983.20, 2586.05 1936.02 C 2586.05 1886.43, 2586.05 1840.46, 2586.05 1794.49 C 2584.06 1746.10, 2590.05 1691.69, 2583.05 1652.97 Z" fill="rgb(239.71417639181175,219.87421082839106,213.3227472737708)" stroke="rgb(239.71417639181175,219.87421082839106,213.3227472737708)" stroke-width="1" />
<path d="M 747.68 2552.94 C 684.30 2636.84, 576.65 2651.24, 537.07 2756.15 C 539.36 2901.17, 529.49 2903.03, 416.72 2861.39 C 333.46 2858.99, 231.65 2888.66, 221.15 2995.66 C 222.66 3070.35, 156.85 3242.10, 263.27 3213.40 C 344.82 3215.30, 418.44 3202.89, 494.95 3198.88 C 541.86 3194.37, 574.95 3145.41, 576.18 3093.64 C 561.33 3035.14, 589.15 2982.46, 633.35 3028.32 C 728.95 3051.88, 795.13 2923.48, 816.89 2835.99 C 850.05 2733.50, 816.68 2621.07, 750.69 2556.56 Z" fill="rgb(92.57009345794393,123.99065420560747,193.13084112149534)" stroke="rgb(92.57009345794393,123.99065420560747,193.13084112149534)" stroke-width="1" />
<path d="M 672.46 1025.17 C 532.69 1041.25, 291.64 958.08, 368.58 1217.50 C 365.30 1313.71, 368.02 1404.50, 368.58 1496.92 C 389.38 1561.33, 506.48 1419.45, 570.17 1409.83 C 722.84 1334.72, 878.28 1276.38, 1033.52 1217.50 C 1111.88 1158.16, 922.34 1084.52, 907.15 1028.79 C 825.52 1027.64, 746.55 1031.11, 675.47 1025.17 Z" fill="rgb(230.6315789473684,206.68421052631578,195.52631578947367)" stroke="rgb(230.6315789473684,206.68421052631578,195.52631578947367)" stroke-width="1" />
<path d="M 380.61 1028.79 C 375.78 1153.58, 327.35 1503.59, 410.70 1507.81 C 557.48 1403.93, 714.82 1343.19, 871.04 1279.19 C 1133.15 1269.01, 1023.81 1047.62, 843.97 1032.42 C 682.21 1024.17, 535.13 1034.56, 383.62 1028.79 Z" fill="rgb(252.05882352941177,228.41176470588235,215.58823529411765)" stroke="rgb(252.05882352941177,228.41176470588235,215.58823529411765)" stroke-width="1" />
<path d="M 479.90 1025.17 C 452.27 1033.53, 419.34 1026.45, 389.64 1028.79 C 351.54 1027.50, 375.71 1093.65, 368.58 1123.15 C 368.58 1164.27, 368.58 1201.77, 368.58 1239.27 C 368.58 1280.40, 368.58 1317.90, 368.58 1355.40 C 368.58 1395.31, 368.58 1431.60, 368.58 1467.89 C 360.71 1526.13, 375.16 1546.98, 410.70 1507.81 C 442.88 1479.22, 475.55 1464.49, 506.98 1446.12 C 539.29 1423.98, 571.63 1410.69, 603.26 1395.31 C 636.26 1379.29, 665.89 1362.25, 696.53 1348.14 C 730.80 1336.53, 761.98 1324.68, 792.82 1311.85 C 828.48 1305.35, 803.22 1252.34, 810.87 1213.87 C 810.87 1172.74, 810.87 1135.24, 810.87 1097.74 C 813.37 1056.91, 818.82 1012.21, 771.75 1028.79 C 737.38 1028.38, 707.79 1022.80, 675.47 1025.17 C 640.02 1024.56, 608.61 1026.21, 579.19 1025.17 C 547.53 1025.32, 510.97 1030.51, 482.91 1025.17 Z" fill="rgb(252.64043939200408,226.14024779665345,212.38478732916082)" stroke="rgb(252.64043939200408,226.14024779665345,212.38478732916082)" stroke-width="1" />
<path d="M 2778.62 1366.28 C 2739.41 1464.52, 2673.86 1552.54, 2613.13 1623.94 C 2577.04 1655.28, 2597.35 1714.46, 2595.08 1758.21 C 2590.88 1807.25, 2594.38 1852.79, 2592.07 1899.73 C 2593.23 1947.43, 2594.55 1996.29, 2592.07 2041.26 C 2596.09 2088.04, 2594.56 2134.56, 2595.08 2182.79 C 2594.64 2234.68, 2596.24 2281.24, 2592.07 2324.31 C 2575.55 2394.73, 2635.68 2371.73, 2670.30 2375.12 C 2707.41 2368.64, 2759.47 2388.56, 2781.63 2364.23 C 2781.63 2314.64, 2781.63 2268.67, 2781.63 2222.71 C 2781.63 2173.11, 2781.63 2127.14, 2781.63 2081.18 C 2781.63 2031.58, 2781.63 1985.62, 2781.63 1939.65 C 2781.63 1890.06, 2781.63 1844.09, 2781.63 1798.12 C 2784.02 1742.28, 2782.02 1702.82, 2784.63 1656.60 C 2775.78 1553.63, 2788.05 1467.65, 2778.62 1369.91 Z" fill="rgb(243.9869991636889,238.73610583136926,235.66243442560634)" stroke="rgb(243.9869991636889,238.73610583136926,235.66243442560634)" stroke-width="1" />
<path d="M 1126.79 2139.24 C 1088.31 2170.48, 1056.25 2215.26, 1021.48 2251.74 C 989.18 2289.94, 938.16 2325.39, 958.30 2382.38 C 959.74 2429.33, 962.79 2471.86, 961.31 2516.65 C 954.97 2570.18, 977.84 2604.80, 985.38 2650.92 C 996.94 2696.63, 994.56 2743.93, 985.38 2785.19 C 986.19 2837.77, 972.04 2879.27, 955.29 2919.46 C 944.66 2968.23, 898.64 3004.11, 907.15 3053.72 C 935.25 3092.00, 929.47 3155.73, 967.33 3177.11 C 990.04 3204.20, 1030.18 3113.48, 1051.57 3086.38 C 1077.19 3041.99, 1098.01 3000.32, 1105.73 2952.12 C 1115.88 2905.00, 1131.97 2864.48, 1135.82 2817.85 C 1138.22 2769.37, 1150.85 2729.62, 1150.86 2683.58 C 1146.73 2590.15, 1151.92 2502.69, 1147.85 2415.04 C 1141.59 2368.99, 1139.81 2324.33, 1135.82 2280.77 C 1127.37 2235.60, 1138.38 2184.34, 1129.80 2142.87 Z" fill="rgb(227.62059620596207,229.99457994579944,235.91869918699186)" stroke="rgb(227.62059620596207,229.99457994579944,235.91869918699186)" stroke-width="1" />
<path d="M 1117.77 2150.13 C 1078.85 2181.85, 1047.22 2234.82, 1009.45 2269.88 C 991.43 2294.09, 969.87 2311.40, 961.31 2335.20 C 961.31 2360.60, 961.31 2382.38, 961.31 2404.15 C 964.84 2450.06, 964.65 2494.21, 964.32 2538.42 C 968.53 2589.00, 989.05 2627.81, 997.41 2672.69 C 1009.46 2720.39, 990.63 2763.53, 988.39 2806.96 C 991.07 2834.49, 972.25 2847.66, 976.35 2872.28 C 978.96 2895.57, 949.84 2916.75, 961.31 2941.23 C 941.02 2982.70, 892.36 3019.15, 913.17 3064.61 C 934.99 3107.29, 938.51 3164.53, 967.33 3191.62 C 1006.20 3162.48, 1023.51 3120.21, 1051.57 3082.76 C 1070.12 3037.77, 1097.46 3002.11, 1102.72 2952.12 C 1109.91 2904.02, 1130.88 2866.44, 1129.80 2817.85 C 1136.69 2771.10, 1150.24 2731.32, 1147.85 2683.58 C 1150.05 2638.51, 1146.58 2594.40, 1147.85 2549.31 C 1146.04 2502.54, 1151.60 2455.71, 1144.84 2415.04 C 1137.14 2369.20, 1136.78 2323.33, 1129.80 2280.77 C 1127.48 2234.08, 1132.83 2182.78, 1120.77 2150.13 Z" fill="rgb(234.83874963567473,237.09027980180704,242.0058292043136)" stroke="rgb(234.83874963567473,237.09027980180704,242.0058292043136)" stroke-width="1" />
<path d="M 284.33 2015.86 C 223.95 2254.10, 443.81 2298.19, 588.22 2317.06 C 664.99 2323.21, 740.33 2324.78, 813.88 2331.57 C 905.63 2340.39, 985.54 2321.28, 1033.52 2229.96 C 1054.37 2200.21, 1144.62 2131.98, 1084.67 2131.98 C 1042.80 2129.29, 1009.20 2141.93, 970.33 2139.24 C 893.42 2142.35, 816.18 2147.70, 741.67 2139.24 C 574.50 2138.05, 416.17 2119.90, 287.34 2015.86 Z" fill="rgb(245.25925925925927,193.19753086419752,177.07407407407408)" stroke="rgb(245.25925925925927,193.19753086419752,177.07407407407408)" stroke-width="1" />
<path d="M 284.33 2019.49 C 284.33 2063.03, 284.33 2106.58, 284.33 2150.13 C 270.60 2211.32, 330.86 2226.14, 362.56 2244.48 C 401.39 2265.88, 437.15 2283.81, 473.88 2298.91 C 512.71 2307.52, 549.79 2312.43, 588.22 2313.43 C 628.27 2316.74, 662.78 2323.82, 699.54 2324.31 C 739.67 2325.50, 775.65 2329.99, 813.88 2327.94 C 851.91 2324.28, 891.23 2329.52, 928.21 2327.94 C 954.50 2332.97, 970.22 2303.11, 982.37 2284.40 C 1002.84 2263.57, 1023.81 2245.49, 1036.53 2222.71 C 1056.06 2195.95, 1142.90 2130.38, 1081.66 2131.98 C 1040.10 2131.40, 1004.03 2138.08, 967.33 2142.87 C 928.21 2142.87, 892.11 2142.87, 856.00 2142.87 C 815.52 2149.43, 779.20 2142.07, 741.67 2139.24 C 702.29 2137.58, 665.98 2135.75, 630.34 2131.98 C 590.10 2128.73, 552.83 2125.56, 516.01 2121.10 C 472.83 2116.69, 436.55 2101.00, 401.67 2081.18 C 360.65 2063.24, 324.16 2040.89, 287.34 2019.49 Z" fill="rgb(245.32029565753004,207.57137357560825,195.3979057591623)" stroke="rgb(245.32029565753004,207.57137357560825,195.3979057591623)" stroke-width="1" />
<path d="M 1099.71 332.04 C 1079.46 342.67, 1050.76 328.68, 1030.51 339.30 C 1024.81 368.91, 1024.06 397.36, 1024.49 426.40 C 1024.49 486.88, 1024.49 543.73, 1024.49 600.58 C 1025.86 663.03, 1027.79 716.38, 1024.49 774.77 C 1024.49 836.46, 1024.49 894.53, 1024.49 952.59 C 1047.45 1042.20, 975.18 1023.59, 937.24 1039.68 C 959.21 1101.49, 1028.39 1116.18, 1060.60 1163.06 C 1108.25 1245.65, 1109.72 1110.97, 1117.77 1068.71 C 1128.19 1007.22, 1131.80 945.95, 1147.85 890.90 C 1162.73 824.82, 1189.55 769.84, 1220.06 716.71 C 1232.72 679.73, 1202.34 655.40, 1189.98 629.62 C 1167.95 603.86, 1150.77 572.29, 1132.81 546.15 C 1120.58 513.79, 1104.94 488.28, 1096.70 459.06 C 1087.44 431.34, 1075.17 394.56, 1093.69 371.96 C 1096.19 337.59, 1135.31 336.51, 1153.87 339.30 C 1181.60 351.08, 1189.62 382.14, 1217.06 404.62 C 1437.84 461.16, 1330.79 331.92, 1102.72 332.04 Z" fill="rgb(249.4858875959396,250.63035404803168,252.2694974003466)" stroke="rgb(249.4858875959396,250.63035404803168,252.2694974003466)" stroke-width="1" />
<path d="M 1981.29 332.04 C 1900.65 347.42, 1706.87 287.45, 1788.73 448.17 C 1837.06 501.45, 1856.26 564.16, 1869.96 629.62 C 1884.45 697.01, 1888.66 765.91, 1933.15 814.69 C 1945.77 861.10, 1977.17 865.10, 1999.34 832.83 C 2034.34 835.01, 2048.64 801.13, 2065.53 774.77 C 2094.47 749.79, 2070.34 709.78, 2077.57 684.05 C 2076.47 649.13, 2078.38 619.34, 2080.58 589.70 C 2080.58 526.80, 2080.58 467.52, 2080.58 408.25 C 2075.65 381.50, 2094.20 329.11, 2062.52 335.67 C 2032.35 336.87, 2010.14 330.32, 1984.30 335.67 Z" fill="rgb(241.91776397515528,243.02186335403727,245.03726708074535)" stroke="rgb(241.91776397515528,243.02186335403727,245.03726708074535)" stroke-width="1" />
<path d="M 392.65 2857.76 C 345.61 2866.23, 299.23 2876.62, 260.26 2908.57 C 216.85 2947.52, 215.82 3011.09, 212.12 3068.24 C 209.70 3098.57, 202.51 3121.38, 203.09 3148.08 C 207.12 3173.28, 190.93 3221.01, 221.15 3213.40 C 263.18 3213.89, 315.57 3215.97, 359.55 3209.77 C 405.47 3202.58, 451.74 3205.20, 494.95 3198.88 C 546.69 3193.87, 587.64 3130.69, 573.17 3071.87 C 581.28 3003.95, 554.51 2957.09, 531.05 2908.57 C 506.49 2900.11, 491.43 2867.64, 464.86 2868.65 C 440.49 2860.56, 417.96 2859.50, 395.66 2857.76 Z" fill="rgb(99.05821166141807,132.98005534879283,209.04847790819736)" stroke="rgb(99.05821166141807,132.98005534879283,209.04847790819736)" stroke-width="1" />
<path d="M 2092.61 332.04 C 2077.21 400.80, 2091.17 496.68, 2086.60 571.55 C 2080.27 661.85, 2107.15 757.97, 2047.48 811.06 C 1927.63 843.89, 2007.97 929.20, 2089.60 941.70 C 2121.17 950.52, 2178.37 953.03, 2164.82 992.51 C 2146.16 998.42, 2084.04 1035.00, 2083.59 1039.68 C 2117.24 1035.35, 2145.11 1006.71, 2179.87 999.76 C 2214.43 978.63, 2252.96 963.85, 2240.04 909.04 C 2240.72 815.59, 2243.88 753.09, 2243.05 662.28 C 2245.91 585.29, 2237.38 504.58, 2240.04 415.51 C 2268.05 293.90, 2152.73 348.27, 2095.62 332.04 Z" fill="rgb(228.08,230.3272727272727,234.96363636363637)" stroke="rgb(228.08,230.3272727272727,234.96363636363637)" stroke-width="1" />
<path d="M 1060.60 1221.13 C 1034.82 1229.25, 1006.88 1231.09, 982.37 1242.90 C 952.21 1253.59, 925.83 1266.51, 898.12 1275.56 C 868.47 1289.33, 835.58 1297.95, 816.89 1326.37 C 789.28 1358.69, 768.58 1392.50, 744.68 1424.35 C 728.21 1460.93, 710.53 1491.77, 699.54 1525.96 C 674.20 1563.11, 649.94 1595.68, 624.32 1627.56 C 597.99 1648.69, 557.56 1639.29, 546.10 1674.74 C 554.72 1713.92, 589.12 1732.05, 618.31 1718.29 C 650.24 1713.99, 675.24 1698.25, 702.55 1689.26 C 733.97 1669.17, 754.60 1641.04, 783.79 1623.94 C 816.71 1603.02, 831.41 1560.79, 862.02 1540.47 C 891.81 1510.59, 918.05 1482.72, 946.26 1460.63 C 973.87 1440.10, 998.94 1424.59, 1030.51 1427.97 C 1063.92 1431.59, 1092.11 1442.54, 1081.66 1391.69 C 1081.16 1354.15, 1080.92 1320.36, 1087.68 1290.08 C 1095.23 1259.37, 1103.87 1206.17, 1063.61 1221.13 Z" fill="rgb(130.53365791701947,155.09790431837425,206.25391617273496)" stroke="rgb(130.53365791701947,155.09790431837425,206.25391617273496)" stroke-width="1" />
<path d="M 744.68 2552.94 C 708.09 2592.97, 668.99 2625.66, 627.33 2650.92 C 581.64 2675.35, 546.27 2718.20, 531.05 2770.67 C 519.87 2793.03, 524.61 2824.02, 531.05 2843.25 C 543.60 2868.18, 531.78 2898.69, 546.10 2915.83 C 557.02 2942.49, 564.74 2965.63, 573.17 2988.40 C 579.08 3016.83, 610.45 3003.37, 624.32 3021.06 C 667.97 3048.50, 716.22 3023.06, 744.68 2981.15 C 783.66 2936.79, 803.85 2888.18, 816.89 2835.99 C 830.27 2791.28, 832.68 2737.05, 825.91 2690.83 C 805.16 2641.09, 784.63 2583.87, 747.68 2552.94 Z" fill="rgb(97.65817794352691,133.3820990942994,209.30442194992008)" stroke="rgb(97.65817794352691,133.3820990942994,209.30442194992008)" stroke-width="1" />
<path d="M 305.39 1025.17 C 142.45 977.36, 215.43 1207.41, 200.08 1329.99 C 200.41 1484.12, 199.83 1613.77, 203.09 1754.58 C 223.45 1750.28, 258.01 1620.30, 314.42 1591.28 C 383.79 1548.63, 364.57 1461.78, 362.56 1388.06 C 369.34 1313.57, 361.41 1241.56, 365.57 1177.58 C 355.71 1114.40, 392.84 1000.33, 308.40 1025.17 Z" fill="rgb(220.72222222222223,192.05555555555554,182.44444444444446)" stroke="rgb(220.72222222222223,192.05555555555554,182.44444444444446)" stroke-width="1" />
<path d="M 254.24 2182.79 C 257.20 2250.44, 260.99 2319.94, 263.27 2393.26 C 259.90 2464.49, 264.06 2531.37, 263.27 2607.37 C 263.27 2681.16, 263.27 2751.32, 263.27 2821.47 C 233.45 2944.07, 325.38 2853.26, 377.60 2854.13 C 409.51 2851.29, 438.23 2854.32, 464.86 2854.13 C 461.35 2808.55, 440.40 2781.00, 422.73 2745.27 C 388.06 2684.29, 406.66 2601.83, 401.67 2531.16 C 401.67 2457.37, 401.67 2387.22, 401.67 2317.06 C 404.17 2233.13, 297.96 2238.20, 257.25 2182.79 Z" fill="rgb(214.46153846153845,221.5897435897436,235.63247863247864)" stroke="rgb(214.46153846153845,221.5897435897436,235.63247863247864)" stroke-width="1" />
<path d="M 263.27 2186.42 C 256.76 2222.15, 264.83 2250.51, 263.27 2288.03 C 263.27 2325.52, 263.27 2359.39, 263.27 2393.26 C 263.27 2430.76, 263.27 2464.63, 263.27 2498.50 C 263.27 2537.21, 263.27 2572.29, 263.27 2607.37 C 263.27 2644.87, 263.27 2678.74, 263.27 2712.61 C 263.27 2750.11, 263.27 2783.98, 263.27 2817.85 C 266.80 2853.42, 253.20 2915.04, 290.35 2883.17 C 321.04 2866.98, 350.08 2858.39, 380.61 2854.13 C 398.00 2845.98, 470.02 2858.42, 437.78 2839.62 C 439.60 2806.35, 448.01 2778.38, 419.73 2748.90 C 405.60 2714.45, 398.48 2681.63, 401.67 2643.66 C 401.67 2604.95, 401.67 2569.87, 401.67 2534.79 C 401.67 2497.29, 401.67 2463.42, 401.67 2429.55 C 401.67 2392.05, 401.67 2358.18, 401.67 2324.31 C 412.18 2273.96, 385.19 2261.00, 356.54 2248.11 C 323.00 2232.96, 295.13 2210.07, 266.28 2190.04 Z" fill="rgb(207.36846971798428,217.22919556171982,239.1725612575127)" stroke="rgb(207.36846971798428,217.22919556171982,239.1725612575127)" stroke-width="1" />
<path d="M 765.74 2552.94 C 770.67 2581.06, 802.09 2608.80, 810.87 2640.03 C 828.03 2669.34, 836.32 2699.44, 834.94 2734.38 C 833.28 2804.68, 818.72 2864.90, 792.82 2919.46 C 776.42 2954.98, 751.48 2981.74, 729.63 3006.55 C 708.16 3035.59, 651.17 3039.03, 696.53 3075.50 C 718.95 3109.19, 743.94 3140.41, 771.75 3108.16 C 801.85 3093.47, 825.01 3067.32, 849.98 3046.47 C 879.06 3036.07, 905.66 3026.02, 919.19 2992.03 C 934.09 2959.10, 950.45 2930.52, 958.30 2897.68 C 980.32 2838.56, 985.57 2776.19, 988.39 2712.61 C 989.24 2677.02, 983.05 2648.57, 973.34 2621.88 C 959.82 2592.98, 960.68 2546.65, 925.20 2552.94 C 871.04 2552.94, 819.90 2552.94, 768.75 2552.94 Z" fill="rgb(239.10645976181883,243.7455792132804,250.53265968964274)" stroke="rgb(239.10645976181883,243.7455792132804,250.53265968964274)" stroke-width="1" />
<path d="M 209.11 1025.17 C 188.86 1068.11, 205.51 1138.24, 200.08 1192.10 C 200.08 1253.79, 200.08 1311.85, 200.08 1369.91 C 202.06 1431.12, 196.11 1492.65, 203.09 1547.73 C 254.24 1551.36, 302.38 1551.36, 350.52 1551.36 C 373.96 1534.95, 362.28 1501.38, 365.57 1471.52 C 365.57 1438.86, 365.57 1409.83, 365.57 1380.80 C 363.89 1317.85, 369.01 1256.24, 362.56 1202.98 C 368.89 1172.38, 361.85 1141.77, 365.57 1115.89 C 359.17 1092.01, 366.83 1049.69, 359.55 1028.79 C 308.40 1025.17, 260.26 1025.17, 212.12 1025.17 Z" fill="rgb(245.4437607679055,240.0898350972188,236.98744769874477)" stroke="rgb(245.4437607679055,240.0898350972188,236.98744769874477)" stroke-width="1" />
<path d="M 537.07 3187.99 C 502.69 3214.87, 455.25 3203.73, 413.71 3209.77 C 370.08 3214.87, 329.03 3218.68, 287.34 3220.65 C 245.07 3221.93, 184.77 3202.87, 203.09 3275.09 C 212.06 3319.80, 183.34 3403.49, 221.15 3412.99 C 306.38 3418.89, 396.97 3415.63, 476.89 3416.62 C 522.81 3425.84, 562.30 3408.79, 546.10 3340.41 C 542.47 3288.65, 553.58 3227.66, 540.08 3187.99 Z" fill="rgb(216.43506493506493,224.41558441558442,240.75974025974025)" stroke="rgb(216.43506493506493,224.41558441558442,240.75974025974025)" stroke-width="1" />
<path d="M 537.07 3195.25 C 504.25 3221.34, 457.00 3205.40, 416.72 3209.77 C 374.44 3208.68, 332.67 3222.71, 290.35 3220.65 C 267.97 3220.94, 250.47 3226.70, 230.17 3224.28 C 198.06 3213.58, 202.25 3247.31, 203.09 3271.46 C 209.68 3318.03, 189.05 3390.26, 215.13 3412.99 C 256.11 3420.43, 298.53 3414.94, 338.49 3416.62 C 387.44 3417.12, 424.34 3415.71, 464.86 3412.99 C 487.93 3412.99, 507.98 3412.99, 528.04 3412.99 C 552.45 3407.80, 539.55 3368.69, 543.09 3347.67 C 540.55 3290.44, 549.45 3232.97, 540.08 3195.25 Z" fill="rgb(215.68395563193252,223.41649742227776,239.4989845336666)" stroke="rgb(215.68395563193252,223.41649742227776,239.4989845336666)" stroke-width="1" />
<path d="M 407.69 2280.77 C 406.40 2329.64, 403.55 2370.79, 404.68 2422.29 C 404.68 2473.10, 404.68 2520.28, 404.68 2567.45 C 415.80 2606.89, 383.54 2685.80, 425.74 2694.46 C 468.47 2696.84, 511.46 2689.68, 549.10 2698.09 C 573.79 2699.80, 566.18 2617.60, 567.16 2578.34 C 567.16 2526.32, 567.16 2477.94, 567.16 2429.55 C 561.66 2384.10, 586.40 2306.87, 534.06 2313.43 C 485.68 2317.83, 451.37 2290.05, 410.70 2280.77 Z" fill="rgb(243.74068428184282,244.8191056910569,248.9522357723577)" stroke="rgb(243.74068428184282,244.8191056910569,248.9522357723577)" stroke-width="1" />
<path d="M 2158.81 332.04 C 2151.82 388.33, 2157.78 451.08, 2155.80 509.86 C 2155.80 572.76, 2155.80 632.03, 2155.80 691.31 C 2155.80 754.21, 2155.80 813.48, 2155.80 872.75 C 2157.41 905.11, 2152.32 937.18, 2158.81 963.47 C 2181.72 966.86, 2205.71 964.16, 2231.02 967.10 C 2254.05 918.00, 2237.78 845.63, 2243.05 789.29 C 2243.05 726.39, 2243.05 667.11, 2243.05 607.84 C 2243.05 544.94, 2243.05 485.67, 2243.05 426.40 C 2241.14 394.19, 2246.94 361.76, 2240.04 335.67 C 2210.58 338.49, 2187.79 330.63, 2161.81 332.04 Z" fill="rgb(231.33257055682685,234.1716247139588,240.99427917620136)" stroke="rgb(231.33257055682685,234.1716247139588,240.99427917620136)" stroke-width="1" />
<path d="M 2089.60 335.67 C 2082.62 393.17, 2088.58 457.13, 2086.60 517.12 C 2084.96 552.55, 2088.28 579.53, 2083.59 607.84 C 2088.78 641.74, 2082.07 672.96, 2086.60 702.19 C 2099.65 771.09, 2034.73 838.54, 1984.30 847.35 C 1968.07 902.79, 2061.40 938.25, 2104.65 948.96 C 2130.59 957.68, 2163.38 964.35, 2152.79 919.93 C 2152.79 886.06, 2152.79 855.82, 2152.79 825.58 C 2152.79 761.47, 2152.79 700.98, 2152.79 640.50 C 2152.79 576.39, 2152.79 515.91, 2152.79 455.43 C 2153.59 422.00, 2151.66 386.10, 2152.79 361.08 C 2154.28 320.03, 2114.77 341.05, 2092.61 335.67 Z" fill="rgb(187.4032994923858,193.38401015228428,207.90761421319797)" stroke="rgb(187.4032994923858,193.38401015228428,207.90761421319797)" stroke-width="1" />
<path d="M 573.17 2317.06 C 566.22 2354.00, 572.12 2397.37, 570.17 2436.81 C 570.17 2480.36, 570.17 2520.28, 570.17 2560.19 C 572.12 2603.27, 566.22 2646.63, 573.17 2683.58 C 609.48 2655.85, 646.24 2638.19, 678.48 2607.37 C 706.54 2574.64, 758.87 2558.22, 747.68 2502.13 C 747.68 2457.37, 747.68 2416.25, 747.68 2375.12 C 763.45 2316.15, 713.60 2330.19, 681.49 2327.94 C 645.11 2322.21, 609.34 2323.43, 576.18 2317.06 Z" fill="rgb(219.73157894736843,227.20465587044535,241.3412955465587)" stroke="rgb(219.73157894736843,227.20465587044535,241.3412955465587)" stroke-width="1" />
<path d="M 209.11 2124.72 C 191.32 2146.11, 203.83 2190.86, 200.08 2222.71 C 200.08 2261.41, 200.08 2296.49, 200.08 2331.57 C 200.08 2369.07, 200.08 2402.94, 200.08 2436.81 C 200.08 2475.52, 200.08 2510.60, 200.08 2545.68 C 200.08 2583.18, 200.08 2617.05, 200.08 2650.92 C 200.08 2689.62, 200.08 2724.70, 200.08 2759.78 C 200.08 2797.28, 200.08 2831.15, 200.08 2865.02 C 201.92 2904.31, 194.49 2944.61, 209.11 2973.89 C 219.11 2941.27, 264.24 2915.73, 257.25 2875.91 C 257.25 2837.20, 257.25 2802.12, 257.25 2767.04 C 257.25 2729.54, 257.25 2695.67, 257.25 2661.80 C 257.25 2623.09, 257.25 2588.01, 257.25 2552.94 C 256.87 2515.13, 258.92 2479.73, 254.24 2447.70 C 254.24 2408.99, 254.24 2373.91, 254.24 2338.83 C 252.85 2300.31, 257.40 2262.46, 251.23 2229.96 C 264.17 2179.47, 244.47 2154.53, 212.12 2128.35 Z" fill="rgb(236.6488496397862,239.83244248198932,245.3697420404369)" stroke="rgb(236.6488496397862,239.83244248198932,245.3697420404369)" stroke-width="1" />
<path d="M 825.91 1025.17 C 799.86 1031.22, 820.41 1093.69, 813.88 1126.78 C 813.88 1169.11, 813.88 1207.82, 813.88 1246.53 C 803.23 1311.50, 826.06 1314.96, 862.02 1282.82 C 896.29 1267.08, 929.63 1257.42, 961.31 1242.90 C 994.85 1227.47, 1028.87 1222.19, 1060.60 1210.24 C 1085.54 1180.72, 1022.89 1138.99, 1000.42 1119.52 C 970.15 1090.74, 923.50 1081.61, 928.21 1028.79 C 893.25 1020.28, 860.70 1028.26, 828.92 1025.17 Z" fill="rgb(241.70863732642974,244.9651682748882,249.77500588373735)" stroke="rgb(241.70863732642974,244.9651682748882,249.77500588373735)" stroke-width="1" />
<path d="M 753.70 2331.57 C 748.71 2363.22, 748.71 2405.17, 753.70 2436.81 C 754.67 2470.82, 745.95 2521.00, 759.72 2545.68 C 792.82 2545.68, 822.90 2545.68, 852.99 2545.68 C 886.28 2546.34, 917.80 2543.36, 946.26 2549.31 C 956.86 2519.85, 949.91 2476.74, 952.28 2440.44 C 950.70 2401.67, 956.82 2357.18, 943.26 2331.57 C 909.97 2332.23, 878.45 2329.26, 849.98 2335.20 C 816.49 2335.15, 785.50 2336.57, 756.71 2331.57 Z" fill="rgb(213.03952274422073,220.94630872483222,239.55804126273924)" stroke="rgb(213.03952274422073,220.94630872483222,239.55804126273924)" stroke-width="1" />
<path d="M 1535.99 3187.99 C 1507.11 3208.81, 1528.57 3255.18, 1523.95 3285.97 C 1524.57 3324.13, 1523.08 3365.15, 1523.95 3394.84 C 1553.04 3398.47, 1582.12 3398.47, 1611.21 3398.47 C 1643.30 3398.47, 1672.39 3398.47, 1701.47 3398.47 C 1730.12 3394.32, 1710.24 3335.26, 1716.51 3307.75 C 1716.51 3269.04, 1716.51 3233.96, 1716.51 3198.88 C 1689.88 3186.89, 1657.96 3193.96, 1629.26 3191.62 C 1596.31 3192.92, 1567.57 3190.70, 1539.00 3187.99 Z" fill="rgb(248.81203801478352,247.90681098204857,252.86404435058077)" stroke="rgb(248.81203801478352,247.90681098204857,252.86404435058077)" stroke-width="1" />
<path d="M 1903.06 785.66 C 1912.15 825.75, 1921.58 865.68, 1924.12 909.04 C 1932.27 955.45, 1935.94 998.96, 1945.18 1039.68 C 1956.15 1082.97, 1966.42 1122.97, 1969.25 1166.69 C 1965.47 1245.69, 2006.93 1156.78, 2008.37 1123.15 C 2009.67 1068.53, 2052.53 1037.58, 2086.60 1025.17 C 2124.10 1009.90, 2174.54 947.33, 2107.66 956.22 C 2068.46 944.15, 2031.13 935.41, 2002.35 901.78 C 1955.94 880.58, 1937.31 827.72, 1906.07 789.29 Z" fill="rgb(22.86497754971135,44.428800513149454,102.11161000641437)" stroke="rgb(22.86497754971135,44.428800513149454,102.11161000641437)" stroke-width="1" />
<path d="M 2754.55 332.04 C 2741.03 356.22, 2752.16 401.08, 2748.53 433.65 C 2748.53 473.57, 2748.53 509.86, 2748.53 546.15 C 2748.53 586.07, 2748.53 622.36, 2748.53 658.65 C 2748.53 698.56, 2748.53 734.85, 2748.53 771.14 C 2748.53 809.85, 2748.53 844.93, 2748.53 880.01 C 2748.53 919.93, 2748.53 956.22, 2748.53 992.51 C 2748.53 1032.42, 2748.53 1068.71, 2748.53 1105.00 C 2743.70 1144.97, 2750.76 1203.68, 2781.63 1202.98 C 2788.56 1167.24, 2782.69 1128.73, 2784.63 1094.12 C 2784.63 1054.20, 2784.63 1017.91, 2784.63 981.62 C 2784.63 941.70, 2784.63 905.41, 2784.63 869.12 C 2784.63 829.21, 2784.63 792.92, 2784.63 756.63 C 2784.63 716.71, 2784.63 680.42, 2784.63 644.13 C 2784.63 604.21, 2784.63 567.92, 2784.63 531.63 C 2784.63 491.72, 2784.63 455.43, 2784.63 419.14 C 2780.41 384.65, 2799.80 321.79, 2757.56 332.04 Z" fill="rgb(254.96666666666667,238.91844660194175,235.35533980582525)" stroke="rgb(254.96666666666667,238.91844660194175,235.35533980582525)" stroke-width="1" />
<path d="M 1505.90 3213.40 C 1430.77 3276.16, 1353.20 3331.80, 1268.20 3365.81 C 1205.46 3399.81, 1039.85 3420.80, 1195.99 3412.99 C 1267.91 3391.15, 1356.09 3406.80, 1433.69 3402.10 C 1546.83 3447.15, 1515.46 3282.69, 1508.91 3213.40 Z" fill="rgb(217.04054054054055,223.02702702702703,235.22972972972974)" stroke="rgb(217.04054054054055,223.02702702702703,235.22972972972974)" stroke-width="1" />
<path d="M 1508.91 3217.03 C 1474.00 3239.64, 1436.05 3276.02, 1397.58 3296.86 C 1359.66 3332.07, 1315.20 3339.50, 1277.23 3365.81 C 1236.76 3385.15, 1193.67 3388.07, 1156.88 3409.36 C 1076.81 3413.95, 1156.15 3412.33, 1186.97 3416.62 C 1223.12 3408.84, 1263.58 3396.14, 1304.31 3402.10 C 1346.43 3402.10, 1385.55 3402.10, 1424.66 3402.10 C 1460.99 3396.55, 1527.80 3422.57, 1514.93 3358.55 C 1514.03 3310.13, 1517.32 3251.20, 1511.92 3217.03 Z" fill="rgb(217.74057811928284,223.22502744237102,234.8199780461032)" stroke="rgb(217.74057811928284,223.22502744237102,234.8199780461032)" stroke-width="1" />
<path d="M 1779.70 332.04 C 1766.94 352.14, 1776.31 399.11, 1773.68 422.77 C 1788.43 464.28, 1817.35 457.57, 1848.90 455.43 C 1882.27 454.85, 1904.39 456.02, 1933.15 459.06 C 1962.47 456.69, 2005.32 472.26, 1996.33 426.40 C 2009.11 399.49, 1981.08 340.29, 2017.39 339.30 C 2024.72 328.38, 1966.45 338.51, 1951.20 335.67 C 1921.97 331.32, 1898.44 332.96, 1866.95 332.04 C 1836.87 332.04, 1809.79 332.04, 1782.71 332.04 Z" fill="rgb(240.9731467473525,242.02647503782148,245.23222390317702)" stroke="rgb(240.9731467473525,242.02647503782148,245.23222390317702)" stroke-width="1" />
<path d="M 579.19 3126.30 C 569.89 3154.60, 563.86 3183.09, 573.17 3213.40 C 565.74 3245.56, 560.50 3275.18, 561.14 3307.75 C 559.76 3346.32, 557.70 3367.40, 558.13 3402.10 C 568.04 3428.15, 605.72 3411.46, 627.33 3416.62 C 652.45 3412.93, 684.34 3424.68, 699.54 3409.36 C 692.73 3378.02, 697.24 3343.12, 699.54 3315.01 C 676.77 3280.99, 652.45 3252.88, 636.36 3220.65 C 611.60 3189.13, 600.23 3156.06, 582.20 3126.30 Z" fill="rgb(245.86516853932585,246.75939558310733,249.2669507942658)" stroke="rgb(245.86516853932585,246.75939558310733,249.2669507942658)" stroke-width="1" />
<path d="M 1725.54 1435.23 C 1700.02 1447.74, 1672.32 1453.88, 1647.31 1467.89 C 1619.41 1481.02, 1594.16 1493.10, 1566.07 1496.92 C 1538.17 1506.42, 1512.29 1513.02, 1484.84 1515.07 C 1456.64 1521.98, 1429.60 1523.53, 1403.60 1518.70 C 1375.74 1524.68, 1349.70 1527.22, 1322.36 1525.96 C 1295.03 1534.32, 1265.86 1528.12, 1241.13 1525.96 C 1210.84 1523.40, 1185.13 1519.91, 1159.89 1515.07 C 1134.89 1508.06, 1079.21 1520.70, 1108.74 1551.36 C 1139.20 1548.57, 1163.10 1556.09, 1189.98 1554.99 C 1219.40 1555.22, 1246.54 1553.33, 1271.21 1558.62 C 1300.30 1558.62, 1326.37 1558.62, 1352.45 1558.62 C 1380.04 1566.51, 1410.15 1561.92, 1433.69 1554.99 C 1490.25 1545.26, 1542.87 1532.80, 1596.16 1522.33 C 1624.62 1515.67, 1651.00 1511.69, 1677.40 1507.81 C 1715.17 1509.81, 1714.23 1467.01, 1728.55 1438.86 Z" fill="rgb(251.91039426523298,151.0497311827957,58.22715053763441)" stroke="rgb(251.91039426523298,151.0497311827957,58.22715053763441)" stroke-width="1" />
<path d="M 880.07 3039.21 C 834.38 3054.92, 800.82 3105.99, 756.71 3126.30 C 754.35 3172.63, 824.68 3197.68, 859.01 3217.03 C 892.19 3225.42, 979.96 3244.29, 949.27 3180.74 C 922.77 3135.27, 921.09 3064.78, 883.08 3039.21 Z" fill="rgb(242.54166666666666,245.25,249.70833333333334)" stroke="rgb(242.54166666666666,245.25,249.70833333333334)" stroke-width="1" />
<path d="M 877.06 3039.21 C 831.69 3055.43, 803.68 3109.24, 756.71 3122.67 C 748.89 3167.14, 820.07 3201.04, 856.00 3213.40 C 888.55 3226.02, 974.42 3247.49, 949.27 3180.74 C 924.24 3133.60, 916.80 3061.31, 880.07 3039.21 Z" fill="rgb(224.23333333333332,230.8,241.56666666666666)" stroke="rgb(224.23333333333332,230.8,241.56666666666666)" stroke-width="1" />
<path d="M 880.07 3039.21 C 835.20 3053.20, 803.48 3105.47, 759.72 3122.67 C 732.92 3147.40, 779.97 3168.69, 792.82 3180.74 C 813.49 3199.80, 836.04 3204.65, 856.00 3217.03 C 887.84 3223.05, 974.89 3245.03, 949.27 3180.74 C 923.96 3133.71, 916.70 3066.42, 883.08 3039.21 Z" fill="rgb(234.24107959743824,238.90622140896616,247.10521500457457)" stroke="rgb(234.24107959743824,238.90622140896616,247.10521500457457)" stroke-width="1" />
<path d="M 2778.62 1348.14 C 2758.45 1416.29, 2724.91 1477.76, 2679.33 1533.21 C 2657.28 1566.43, 2628.24 1589.29, 2613.13 1623.94 C 2642.22 1623.94, 2668.29 1623.94, 2694.37 1623.94 C 2722.45 1623.94, 2747.53 1623.94, 2772.60 1623.94 C 2793.19 1617.17, 2781.04 1566.10, 2784.63 1540.47 C 2783.45 1474.03, 2787.49 1408.61, 2781.63 1348.14 Z" fill="rgb(250.0352998065764,244.67069632495165,242.31189555125727)" stroke="rgb(250.0352998065764,244.67069632495165,242.31189555125727)" stroke-width="1" />
<path d="M 1027.50 1021.54 C 1009.69 1033.41, 985.70 1027.31, 964.32 1028.79 C 932.81 1015.11, 923.11 1064.40, 946.26 1075.97 C 993.39 1107.93, 1038.64 1139.24, 1075.64 1184.84 C 1087.20 1225.12, 1112.89 1175.20, 1108.74 1152.18 C 1114.37 1124.45, 1113.52 1097.13, 1117.77 1072.34 C 1127.86 1044.92, 1126.68 1007.39, 1096.70 1025.17 C 1074.47 1015.83, 1052.89 1029.96, 1030.51 1021.54 Z" fill="rgb(247.19349764027268,248.85002621919244,251.5789197692711)" stroke="rgb(247.19349764027268,248.85002621919244,251.5789197692711)" stroke-width="1" />
<path d="M 206.10 1870.70 C 197.99 1920.87, 200.34 1976.27, 200.08 2030.37 C 186.93 2102.43, 219.86 2148.68, 266.28 2175.53 C 290.23 2183.71, 278.89 2131.87, 284.33 2113.84 C 283.80 2079.21, 285.71 2060.79, 281.32 2030.37 C 266.14 1978.00, 209.27 1933.61, 209.11 1870.70 Z" fill="rgb(247.94117647058823,216.69117647058823,202.90441176470588)" stroke="rgb(247.94117647058823,216.69117647058823,202.90441176470588)" stroke-width="1" />
<path d="M 410.70 2694.46 C 414.29 2753.31, 470.09 2786.00, 461.85 2846.88 C 465.12 2870.64, 501.07 2856.04, 506.98 2879.54 C 535.40 2920.05, 535.84 2854.66, 522.02 2839.62 C 517.48 2810.89, 518.02 2785.08, 528.04 2763.41 C 530.52 2737.76, 575.87 2701.77, 546.10 2694.46 C 499.96 2694.46, 456.83 2694.46, 413.71 2694.46 Z" fill="rgb(234.59922430510665,238.96897220426632,248.07886231415642)" stroke="rgb(234.59922430510665,238.96897220426632,248.07886231415642)" stroke-width="1" />
<path d="M 209.11 1892.47 C 200.60 1938.11, 202.14 1988.77, 200.08 2037.63 C 186.87 2108.30, 223.29 2142.17, 263.27 2175.53 C 292.30 2165.04, 271.77 2084.03, 278.31 2044.89 C 277.64 1983.58, 217.71 1953.66, 209.11 1896.10 Z" fill="rgb(252.26666666666668,237.76296296296297,230.95555555555555)" stroke="rgb(252.26666666666668,237.76296296296297,230.95555555555555)" stroke-width="1" />
<path d="M 305.39 1551.36 C 260.57 1563.21, 172.73 1527.68, 203.09 1620.31 C 200.08 1686.84, 200.08 1749.74, 200.08 1812.64 C 200.37 1875.83, 201.50 1816.16, 206.10 1790.87 C 213.97 1752.70, 225.82 1721.66, 242.21 1692.88 C 250.73 1633.94, 388.84 1554.63, 308.40 1551.36 Z" fill="rgb(249.94940476190476,238.90029761904762,236.21875)" stroke="rgb(249.94940476190476,238.90029761904762,236.21875)" stroke-width="1" />
<path d="M 209.11 1892.47 C 202.91 1941.29, 203.12 1986.16, 203.09 2037.63 C 204.57 2065.21, 199.81 2092.29, 206.10 2113.84 C 229.80 2132.92, 244.76 2153.19, 263.27 2171.90 C 287.42 2169.19, 272.99 2128.55, 275.30 2110.21 C 275.10 2083.14, 282.79 2057.78, 275.30 2034.00 C 277.02 2002.90, 250.35 1995.18, 239.20 1968.68 C 229.44 1939.68, 216.16 1921.41, 209.11 1896.10 Z" fill="rgb(253.50265352539802,242.05913570887034,235.9461713419257)" stroke="rgb(253.50265352539802,242.05913570887034,235.9461713419257)" stroke-width="1" />
<path d="M 2077.57 767.51 C 2052.39 802.77, 2030.36 842.24, 1990.31 843.72 C 1942.83 879.62, 2017.95 903.56, 2038.45 923.56 C 2080.27 956.14, 2091.17 935.24, 2083.59 883.64 C 2083.05 840.80, 2085.14 800.97, 2080.58 767.51 Z" fill="rgb(206.06013579049466,209.38797284190107,217.54607177497576)" stroke="rgb(206.06013579049466,209.38797284190107,217.54607177497576)" stroke-width="1" />
<path d="M 1195.99 332.04 C 1170.93 358.01, 1206.64 393.20, 1232.10 422.77 C 1250.62 449.66, 1309.58 492.80, 1292.27 437.28 C 1283.66 405.00, 1294.97 360.74, 1286.26 335.67 C 1255.17 332.04, 1227.08 332.04, 1199.00 332.04 Z" fill="rgb(243.74545454545455,246.6909090909091,249.97433155080213)" stroke="rgb(243.74545454545455,246.6909090909091,249.97433155080213)" stroke-width="1" />
<path d="M 705.56 3318.63 C 706.43 3347.57, 686.96 3415.59, 720.60 3416.62 C 756.71 3416.62, 789.81 3416.62, 822.90 3416.62 C 913.95 3409.61, 734.92 3362.14, 708.57 3322.26 Z" fill="rgb(215.4090909090909,221.11363636363637,233.95454545454547)" stroke="rgb(215.4090909090909,221.11363636363637,233.95454545454547)" stroke-width="1" />
<path d="M 203.09 1554.99 C 195.34 1584.20, 194.99 1635.43, 233.18 1620.31 C 270.23 1625.45, 298.99 1625.34, 320.44 1587.65 C 369.45 1554.79, 323.28 1551.17, 293.36 1554.99 C 262.27 1554.99, 234.18 1554.99, 206.10 1554.99 Z" fill="rgb(253.05619412515964,242.7037037037037,242.40996168582376)" stroke="rgb(253.05619412515964,242.7037037037037,242.40996168582376)" stroke-width="1" />
<path d="M 705.56 3318.63 C 705.04 3345.35, 688.50 3422.23, 720.60 3412.99 C 756.72 3415.52, 788.73 3414.54, 822.90 3412.99 C 889.56 3418.22, 842.18 3398.96, 810.87 3383.96 C 773.37 3366.23, 739.14 3347.76, 708.57 3318.63 Z" fill="rgb(211.11914323962517,217.8326639892905,232.27576974564926)" stroke="rgb(211.11914323962517,217.8326639892905,232.27576974564926)" stroke-width="1" />
<path d="M 1614.22 332.04 C 1642.83 327.50, 1762.33 450.60, 1770.67 390.11 C 1783.42 288.07, 1667.83 348.74, 1617.22 332.04 Z" fill="rgb(188.875,193.5625,203.5625)" stroke="rgb(188.875,193.5625,203.5625)" stroke-width="1" />
<path d="M 1617.22 332.04 C 1596.77 343.07, 1669.41 353.17, 1686.43 368.33 C 1714.60 371.27, 1768.07 448.90, 1767.66 397.37 C 1782.88 347.08, 1760.15 319.18, 1719.52 332.04 C 1684.42 332.04, 1652.33 332.04, 1620.23 332.04 Z" fill="rgb(202.47555555555556,205.98222222222222,215.9777777777778)" stroke="rgb(202.47555555555556,205.98222222222222,215.9777777777778)" stroke-width="1" />
<path d="M 988.39 1594.90 C 978.45 1629.84, 958.87 1660.10, 931.22 1678.37 C 897.94 1711.56, 963.95 1681.97, 979.36 1678.37 C 1005.96 1674.82, 1042.37 1683.63, 1054.58 1663.85 C 1046.16 1634.51, 1016.29 1602.86, 991.40 1594.90 Z" fill="rgb(252.2893481717011,152.51828298887122,53.17806041335453)" stroke="rgb(252.2893481717011,152.51828298887122,53.17806041335453)" stroke-width="1" />
<path d="M 1292.27 332.04 C 1290.86 353.61, 1293.27 385.59, 1292.27 411.88 C 1293.54 440.25, 1303.36 492.08, 1319.35 444.54 C 1347.74 422.97, 1348.89 392.92, 1346.43 361.08 C 1354.83 317.85, 1314.71 335.95, 1295.28 332.04 Z" fill="rgb(249.02256944444446,252.82986111111111,253.78472222222223)" stroke="rgb(249.02256944444446,252.82986111111111,253.78472222222223)" stroke-width="1" />
<path d="M 1349.44 332.04 C 1323.47 451.06, 1400.45 365.05, 1451.74 342.93 C 1529.06 328.58, 1384.91 332.27, 1352.45 332.04 Z" fill="rgb(216.8125,221.0625,229.75)" stroke="rgb(216.8125,221.0625,229.75)" stroke-width="1" />
<path d="M 1352.45 332.04 C 1342.03 343.99, 1340.26 422.08, 1364.49 397.37 C 1391.96 373.31, 1418.49 358.91, 1445.72 346.56 C 1493.49 335.10, 1471.60 334.77, 1436.70 332.04 C 1407.61 332.04, 1381.54 332.04, 1355.46 332.04 Z" fill="rgb(218.02597402597402,223.3852813852814,233.84632034632034)" stroke="rgb(218.02597402597402,223.3852813852814,233.84632034632034)" stroke-width="1" />
<path d="M 1027.50 1431.60 C 973.82 1437.23, 1044.99 1495.64, 1069.62 1496.92 C 1103.80 1465.33, 1068.17 1421.37, 1030.51 1431.60 Z" fill="rgb(203.51820728291315,190.30252100840337,183.14565826330534)" stroke="rgb(203.51820728291315,190.30252100840337,183.14565826330534)" stroke-width="1" />
</svg>