<svg xmlns="http://www.w3.org/2000/svg" width="341" height="512" viewbox="0 0 341 512">
<path d="M 0.50 0.50 C 0.50 42.50, 0.50 84.50, 0.50 126.50 C 0.50 169.83, 0.50 212.17, 0.50 254.50 C 0.50 297.83, 0.50 340.17, 0.50 382.50 C 0.50 404.50, 0.50 425.50, 0.50 446.50 C 0.50 468.50, 0.50 489.50, 0.50 510.50 C 24.83 511.50, 49.17 511.50, 73.50 511.50 C 86.50 511.50, 98.50 511.50, 110.50 511.50 C 117.17 511.50, 122.83 511.50, 128.50 511.50 C 135.50 511.50, 141.50 511.50, 147.50 511.50 C 197.83 511.50, 247.17 511.50, 296.50 511.50 C 388.08 503.08, 318.80 334.80, 340.50 257.50 C 420.04 -21.37, 224.65 -24.31, 1.50 0.50 Z" fill="rgb(94.19285714285714,102.98935309973047,71.47371967654986)" stroke="rgb(94.19285714285714,102.98935309973047,71.47371967654986)" stroke-width="1" />
<path d="M 249.50 0.50 C 274.35 48.37, 247.49 130.28, 303.50 151.50 C 304.95 157.42, 302.53 162.15, 306.50 165.50 C 303.42 170.06, 298.72 167.27, 296.50 170.50 C 294.06 172.57, 280.29 177.90, 291.50 177.50 C 295.54 176.53, 295.94 179.68, 294.50 181.50 C 299.57 182.53, 303.34 183.27, 306.50 185.50 C 312.73 188.45, 312.37 195.94, 310.50 200.50 C 307.92 206.53, 300.17 205.68, 295.50 208.50 C 296.34 214.87, 295.18 222.49, 295.50 229.50 C 293.08 234.17, 297.37 237.46, 299.50 240.50 C 292.23 247.74, 289.30 258.11, 282.50 265.50 C 277.65 273.58, 290.67 282.65, 280.50 287.50 C 278.88 296.74, 272.75 303.11, 271.50 311.50 C 253.96 324.83, 234.24 340.09, 213.50 339.50 C 234.66 394.24, 119.40 380.14, 136.50 467.50 C 165.57 530.93, 258.71 506.75, 326.50 511.50 C 354.22 470.53, 333.30 380.19, 340.50 319.50 C 340.50 284.83, 340.50 251.17, 340.50 217.50 C 340.50 212.83, 340.50 209.17, 340.50 205.50 C 340.50 200.50, 340.50 196.50, 340.50 192.50 C 340.50 187.50, 340.50 183.50, 340.50 179.50 C 340.50 174.50, 340.50 170.50, 340.50 166.50 C 340.50 161.83, 340.50 158.17, 340.50 154.50 C 340.50 149.50, 340.50 145.50, 340.50 141.50 C 340.50 136.50, 340.50 132.50, 340.50 128.50 C 340.50 123.50, 340.50 119.50, 340.50 115.50 C 350.74 36.26, 344.76 -25.76, 250.50 0.50 Z" fill="rgb(69.36642027455122,94.60718057022176,44.14783526927138)" stroke="rgb(69.36642027455122,94.60718057022176,44.14783526927138)" stroke-width="1" />
<path d="M 0.50 0.50 C 0.50 15.83, 0.50 31.17, 0.50 46.50 C 0.50 52.83, 0.50 58.17, 0.50 63.50 C 0.50 69.17, 0.50 73.83, 0.50 78.50 C 0.50 86.83, 0.50 94.17, 0.50 101.50 C 0.89 109.10, -0.33 120.59, 8.50 118.50 C 15.82 119.84, 21.90 115.57, 27.50 118.50 C 31.95 122.20, 26.04 128.10, 31.50 128.50 C 37.14 131.51, 43.77 129.70, 48.50 132.50 C 52.20 132.25, 54.45 130.90, 57.50 131.50 C 75.37 105.79, 84.86 74.88, 100.50 78.50 C 105.08 70.12, 113.96 71.81, 120.50 69.50 C 131.21 68.10, 151.89 64.98, 149.50 80.50 C 135.39 131.55, 200.41 117.80, 223.50 138.50 C 235.43 145.85, 241.47 124.87, 247.50 138.50 C 260.22 140.24, 271.31 142.48, 282.50 144.50 C 305.24 142.66, 306.65 169.55, 327.50 159.50 C 344.94 125.69, 337.49 58.03, 339.50 2.50 C 293.50 -0.83, 243.17 1.17, 195.50 0.50 C 162.50 0.50, 130.50 0.50, 98.50 0.50 C 65.50 0.50, 33.50 0.50, 1.50 0.50 Z" fill="rgb(158.85522296884545,174.74098961514966,110.36224801466096)" stroke="rgb(158.85522296884545,174.74098961514966,110.36224801466096)" stroke-width="1" />
<path d="M 333.50 168.50 C 330.19 171.11, 322.02 173.50, 328.50 175.50 C 329.34 179.46, 326.07 180.17, 324.50 181.50 C 322.10 185.48, 314.87 181.85, 314.50 187.50 C 312.96 191.43, 315.48 193.04, 313.50 195.50 C 313.46 201.03, 310.29 205.01, 305.50 206.50 C 303.40 210.20, 297.14 207.64, 298.50 212.50 C 297.01 218.02, 297.58 223.40, 297.50 228.50 C 296.59 235.75, 300.35 239.36, 297.50 244.50 C 293.59 249.95, 290.40 254.52, 287.50 259.50 C 288.75 265.41, 281.44 263.35, 281.50 267.50 C 280.97 273.91, 282.06 277.68, 286.50 280.50 C 285.85 285.39, 279.13 286.77, 280.50 291.50 C 280.67 296.87, 276.94 299.21, 275.50 302.50 C 270.93 305.91, 274.35 311.21, 270.50 313.50 C 264.69 320.84, 256.09 319.05, 250.50 324.50 C 245.00 331.85, 237.20 335.59, 229.50 336.50 C 224.61 335.93, 222.75 334.66, 222.50 332.50 C 218.35 336.42, 213.18 336.88, 208.50 338.50 C 202.81 340.31, 194.82 339.77, 194.50 346.50 C 199.40 349.10, 201.92 348.52, 203.50 353.50 C 206.08 357.38, 208.25 359.15, 208.50 363.50 C 208.17 368.47, 213.57 371.26, 209.50 374.50 C 215.44 378.32, 211.26 380.13, 207.50 381.50 C 200.59 383.09, 193.73 378.48, 190.50 373.50 C 186.75 372.71, 183.92 372.09, 181.50 370.50 C 182.65 385.68, 173.11 386.40, 163.50 396.50 C 160.12 405.05, 151.35 408.77, 146.50 415.50 C 143.18 417.67, 135.10 419.54, 138.50 423.50 C 139.25 431.95, 129.93 432.23, 127.50 438.50 C 125.04 439.38, 124.59 443.07, 124.50 445.50 C 126.01 450.35, 133.02 453.00, 132.50 458.50 C 133.11 464.56, 131.72 468.79, 131.50 473.50 C 129.85 479.81, 137.84 477.72, 138.50 481.50 C 143.90 483.40, 144.09 490.87, 149.50 492.50 C 160.00 504.13, 170.94 506.69, 182.50 511.50 C 209.50 511.50, 235.50 511.50, 261.50 511.50 C 288.50 511.50, 314.50 511.50, 340.50 511.50 C 340.50 500.83, 340.50 491.17, 340.50 481.50 C 340.50 475.83, 340.50 471.17, 340.50 466.50 C 340.50 460.50, 340.50 455.50, 340.50 450.50 C 340.50 444.83, 340.50 440.17, 340.50 435.50 C 340.50 429.50, 340.50 424.50, 340.50 419.50 C 340.50 413.83, 340.50 409.17, 340.50 404.50 C 340.50 398.50, 340.50 393.50, 340.50 388.50 C 340.50 382.83, 340.50 378.17, 340.50 373.50 C 340.50 367.50, 340.50 362.50, 340.50 357.50 C 340.50 351.83, 340.50 347.17, 340.50 342.50 C 340.50 336.50, 340.50 331.50, 340.50 326.50 C 340.50 320.83, 340.50 316.17, 340.50 311.50 C 340.50 305.50, 340.50 300.50, 340.50 295.50 C 340.50 289.83, 340.50 285.17, 340.50 280.50 C 340.50 274.50, 340.50 269.50, 340.50 264.50 C 340.50 258.17, 340.50 252.83, 340.50 247.50 C 340.50 241.17, 340.50 235.83, 340.50 230.50 C 340.27 225.79, 338.89 222.56, 339.50 218.50 C 339.50 213.50, 339.50 209.50, 339.50 205.50 C 339.50 200.17, 339.50 195.83, 339.50 191.50 C 339.50 186.50, 339.50 182.50, 339.50 178.50 C 339.60 173.39, 340.45 166.77, 334.50 168.50 Z" fill="rgb(45.13841151881096,68.98327914537855,32.43915466790525)" stroke="rgb(45.13841151881096,68.98327914537855,32.43915466790525)" stroke-width="1" />
<path d="M 137.50 70.50 C 122.55 72.73, 99.16 70.89, 105.50 92.50 C 95.97 98.40, 91.12 91.74, 87.50 86.50 C 71.28 118.47, 58.43 166.31, 104.50 176.50 C 108.94 179.69, 110.08 188.66, 116.50 184.50 C 123.45 181.20, 127.04 187.98, 131.50 189.50 C 132.04 203.63, 142.37 195.10, 147.50 202.50 C 140.39 214.08, 153.94 227.86, 165.50 228.50 C 173.45 231.10, 180.36 233.79, 188.50 233.50 C 201.51 233.96, 214.39 233.29, 226.50 234.50 C 236.10 232.86, 245.90 234.14, 254.50 232.50 C 259.83 232.50, 264.17 232.50, 268.50 232.50 C 273.73 231.92, 278.95 233.72, 282.50 231.50 C 289.79 230.50, 284.60 221.36, 286.50 217.50 C 282.46 211.82, 288.89 203.75, 295.50 204.50 C 310.98 202.76, 303.27 183.10, 290.50 186.50 C 280.59 188.20, 275.98 177.54, 281.50 171.50 C 285.79 170.87, 287.55 166.55, 291.50 167.50 C 302.39 165.34, 297.04 155.45, 296.50 150.50 C 279.87 147.69, 264.25 140.70, 248.50 142.50 C 238.56 144.23, 230.57 141.05, 221.50 140.50 C 180.45 125.77, 138.70 118.97, 138.50 70.50 Z" fill="rgb(55.350642673521854,52.07146529562982,36.782005141388176)" stroke="rgb(55.350642673521854,52.07146529562982,36.782005141388176)" stroke-width="1" />
<path d="M 35.50 172.50 C 33.59 174.25, 29.74 175.76, 27.50 173.50 C 21.36 176.25, 13.66 172.81, 8.50 175.50 C 3.55 172.77, 0.19 177.19, 1.50 181.50 C 0.87 186.71, 0.08 190.85, 0.50 195.50 C 0.50 201.50, 0.50 206.50, 0.50 211.50 C 0.50 217.50, 0.50 222.50, 0.50 227.50 C 0.50 233.17, 0.50 237.83, 0.50 242.50 C 0.50 248.17, 0.50 252.83, 0.50 257.50 C 0.50 263.17, 0.50 267.83, 0.50 272.50 C 0.50 278.17, 0.50 282.83, 0.50 287.50 C 0.50 293.17, 0.50 297.83, 0.50 302.50 C 0.50 308.17, 0.50 312.83, 0.50 317.50 C 0.65 328.59, 2.79 339.60, 1.50 348.50 C -3.84 371.62, 9.55 398.42, 18.50 367.50 C 25.22 355.57, 27.73 340.05, 47.50 342.50 C 55.42 341.90, 62.07 338.89, 64.50 332.50 C 69.11 326.03, 70.05 319.04, 74.50 313.50 C 78.77 307.79, 79.29 298.02, 85.50 294.50 C 89.63 290.86, 93.87 290.93, 97.50 289.50 C 102.82 290.09, 105.89 287.63, 109.50 286.50 C 113.84 284.84, 117.30 288.25, 121.50 287.50 C 126.68 288.06, 129.97 290.77, 134.50 290.50 C 129.25 292.46, 138.40 295.33, 140.50 297.50 C 144.38 294.31, 143.60 287.81, 149.50 285.50 C 144.40 279.55, 154.38 277.17, 152.50 271.50 C 151.66 265.87, 153.95 262.55, 154.50 258.50 C 157.21 252.00, 157.81 243.96, 152.50 239.50 C 153.27 233.82, 156.18 229.20, 151.50 225.50 C 143.44 221.71, 144.47 213.50, 140.50 208.50 C 135.37 209.56, 133.74 204.58, 130.50 203.50 C 130.51 197.33, 127.79 193.30, 124.50 189.50 C 121.49 186.19, 115.56 188.06, 115.50 191.50 C 114.09 198.26, 106.03 197.13, 108.50 190.50 C 103.15 185.54, 102.87 177.80, 96.50 176.50 C 89.01 173.13, 81.68 171.80, 73.50 172.50 C 67.97 174.26, 62.47 172.04, 57.50 174.50 C 50.02 171.20, 43.81 173.43, 36.50 172.50 Z" fill="rgb(150.03865528940065,170.91148349953738,100.69235118741646)" stroke="rgb(150.03865528940065,170.91148349953738,100.69235118741646)" stroke-width="1" />
<path d="M 162.50 0.50 C 162.15 7.78, 164.69 12.69, 163.50 19.50 C 163.90 25.56, 164.06 28.72, 163.50 34.50 C 160.47 40.17, 158.43 32.71, 157.50 30.50 C 157.79 22.53, 155.04 31.63, 153.50 33.50 C 152.35 38.06, 147.79 44.61, 145.50 49.50 C 148.20 56.43, 144.18 65.11, 136.50 63.50 C 132.09 69.36, 138.53 66.08, 140.50 68.50 C 144.67 69.33, 149.36 72.33, 148.50 76.50 C 148.50 81.17, 148.50 84.83, 148.50 88.50 C 153.38 96.50, 143.21 113.66, 157.50 113.50 C 167.35 115.44, 168.98 125.82, 180.50 123.50 C 189.50 125.98, 198.03 127.17, 206.50 128.50 C 215.64 128.25, 214.83 140.29, 223.50 137.50 C 227.74 139.08, 232.92 140.96, 236.50 138.50 C 236.81 135.05, 239.94 135.13, 240.50 132.50 C 247.40 132.67, 246.08 143.20, 253.50 140.50 C 259.44 140.90, 266.79 139.65, 265.50 133.50 C 265.60 126.64, 266.89 122.29, 263.50 117.50 C 264.41 113.07, 261.56 107.48, 263.50 102.50 C 262.18 97.16, 263.35 92.21, 261.50 88.50 C 262.37 84.53, 260.38 82.74, 259.50 80.50 C 260.09 75.65, 256.91 73.35, 257.50 69.50 C 255.66 66.33, 249.90 65.86, 251.50 61.50 C 251.36 57.17, 252.11 54.20, 253.50 51.50 C 250.44 44.88, 248.53 38.79, 249.50 31.50 C 249.02 26.89, 252.51 24.92, 252.50 21.50 C 252.89 13.45, 249.35 7.62, 246.50 1.50 C 240.17 0.50, 234.83 0.50, 229.50 0.50 C 222.83 0.50, 217.17 0.50, 211.50 0.50 C 204.83 0.50, 199.17 0.50, 193.50 0.50 C 186.83 0.50, 181.17 0.50, 175.50 0.50 C 177.10 5.23, 175.18 8.12, 173.50 11.50 C 172.52 17.15, 173.92 23.20, 173.50 28.50 C 172.53 32.90, 172.27 36.60, 172.50 40.50 C 171.98 44.88, 174.26 50.83, 169.50 51.50 C 165.50 47.22, 168.64 42.82, 166.50 38.50 C 165.51 32.15, 168.21 26.85, 166.50 22.50 C 168.45 17.17, 167.11 11.48, 167.50 6.50 C 167.98 2.02, 167.69 -0.69, 163.50 0.50 Z" fill="rgb(157.0539699821137,180.98040283070222,101.14573450501594)" stroke="rgb(157.0539699821137,180.98040283070222,101.14573450501594)" stroke-width="1" />
<path d="M 248.50 0.50 C 247.58 8.17, 259.48 5.80, 259.50 13.50 C 263.50 20.42, 255.85 23.44, 252.50 27.50 C 250.10 31.98, 253.16 36.76, 250.50 40.50 C 257.21 46.21, 255.57 53.67, 252.50 59.50 C 248.44 66.24, 260.83 63.78, 258.50 70.50 C 260.91 73.86, 262.15 76.29, 261.50 79.50 C 265.00 82.66, 262.96 87.11, 263.50 90.50 C 264.37 97.83, 264.19 104.18, 266.50 109.50 C 265.66 115.13, 267.95 118.45, 268.50 122.50 C 266.69 129.50, 267.15 136.97, 269.50 142.50 C 272.79 142.13, 274.67 142.77, 276.50 143.50 C 282.20 144.56, 287.36 145.52, 292.50 146.50 C 296.56 147.22, 299.18 147.99, 301.50 149.50 C 302.03 153.83, 302.97 156.58, 303.50 159.50 C 304.79 163.65, 309.38 167.02, 312.50 164.50 C 317.29 164.73, 319.81 167.04, 323.50 166.50 C 328.84 173.14, 333.53 165.67, 338.50 166.50 C 339.50 161.17, 339.50 155.83, 339.50 150.50 C 339.50 144.17, 339.50 138.83, 339.50 133.50 C 339.50 127.50, 339.50 122.50, 339.50 117.50 C 338.94 110.13, 340.15 104.49, 340.50 98.50 C 340.50 91.17, 340.50 84.83, 340.50 78.50 C 340.50 72.50, 340.50 67.50, 340.50 62.50 C 340.50 56.17, 340.50 50.83, 340.50 45.50 C 340.50 37.50, 340.50 30.50, 340.50 23.50 C 340.50 15.17, 340.50 7.83, 340.50 0.50 C 332.50 0.50, 325.50 0.50, 318.50 0.50 C 310.17 0.50, 302.83 0.50, 295.50 0.50 C 287.17 0.50, 279.83 0.50, 272.50 0.50 C 264.17 0.50, 256.83 0.50, 249.50 0.50 Z" fill="rgb(79.85417492665134,112.78130203790342,42.96796447545793)" stroke="rgb(79.85417492665134,112.78130203790342,42.96796447545793)" stroke-width="1" />
<path d="M 232.50 314.50 C 228.77 316.48, 224.23 316.52, 220.50 318.50 C 215.56 319.78, 210.99 319.55, 206.50 319.50 C 198.50 318.55, 193.50 322.45, 186.50 321.50 C 180.94 322.09, 175.38 320.27, 171.50 322.50 C 165.61 323.10, 159.71 321.26, 155.50 323.50 C 146.84 322.90, 140.48 325.45, 133.50 326.50 C 128.13 325.93, 124.95 328.26, 120.50 327.50 C 114.74 326.81, 111.26 329.19, 106.50 328.50 C 98.92 329.24, 92.59 329.58, 86.50 330.50 C 83.86 331.42, 86.14 334.66, 87.50 335.50 C 86.33 339.86, 81.29 338.58, 78.50 337.50 C 75.14 340.24, 68.15 337.65, 68.50 342.50 C 61.99 344.55, 56.26 345.05, 50.50 345.50 C 50.57 352.36, 44.74 346.85, 42.50 350.50 C 47.37 352.93, 42.43 363.77, 44.50 371.50 C 44.41 375.67, 43.17 377.74, 43.50 381.50 C 42.63 387.80, 40.92 392.54, 40.50 396.50 C 43.25 404.66, 47.89 409.22, 52.50 415.50 C 65.38 435.28, 94.02 381.14, 112.50 414.50 C 135.25 453.34, 119.63 386.47, 142.50 404.50 C 156.26 407.77, 178.34 382.85, 176.50 370.50 C 187.44 358.94, 206.70 393.50, 208.50 371.50 C 207.40 364.60, 204.00 359.65, 203.50 353.50 C 197.04 350.00, 192.45 345.40, 185.50 346.50 C 177.78 346.45, 173.40 345.94, 167.50 347.50 C 155.73 345.77, 172.28 335.40, 174.50 342.50 C 179.14 338.70, 186.30 339.96, 191.50 336.50 C 197.67 336.73, 203.04 333.87, 207.50 335.50 C 214.96 337.02, 215.12 329.12, 219.50 327.50 C 226.46 324.78, 220.22 332.00, 224.50 332.50 C 228.23 333.77, 230.64 330.09, 232.50 332.50 C 236.59 328.56, 242.81 328.50, 244.50 323.50 C 235.99 321.83, 241.98 312.24, 233.50 314.50 Z" fill="rgb(112.15390070921985,116.28067375886525,100.55425531914894)" stroke="rgb(112.15390070921985,116.28067375886525,100.55425531914894)" stroke-width="1" />
<path d="M 0.50 0.50 C 0.50 9.17, 0.50 17.83, 0.50 26.50 C -0.27 37.29, 1.84 45.89, 1.50 55.50 C 1.50 60.83, 1.50 65.17, 1.50 69.50 C 1.50 75.17, 1.50 79.83, 1.50 84.50 C 1.50 90.50, 1.50 95.50, 1.50 100.50 C 1.50 106.50, 1.50 111.50, 1.50 116.50 C 0.89 121.44, 6.99 118.68, 9.50 119.50 C 13.05 119.68, 15.47 119.56, 17.50 118.50 C 23.06 117.30, 31.93 115.48, 32.50 122.50 C 29.09 126.01, 39.25 124.55, 34.50 128.50 C 41.13 128.38, 46.80 131.41, 48.50 128.50 C 51.44 131.59, 54.90 130.01, 57.50 130.50 C 66.52 131.97, 57.81 126.62, 62.50 125.50 C 71.97 126.19, 69.11 115.97, 75.50 113.50 C 74.93 108.36, 78.45 102.23, 78.50 95.50 C 78.99 91.90, 77.41 88.44, 79.50 86.50 C 81.98 83.69, 82.53 78.84, 86.50 79.50 C 94.79 77.95, 92.60 92.68, 99.50 88.50 C 99.83 83.60, 99.20 80.86, 101.50 77.50 C 106.00 74.34, 103.96 69.89, 104.50 66.50 C 104.64 61.53, 109.29 59.44, 109.50 55.50 C 109.50 51.17, 109.50 47.83, 109.50 44.50 C 106.88 41.82, 104.57 40.02, 103.50 37.50 C 98.68 32.17, 94.45 29.31, 89.50 26.50 C 89.26 18.86, 91.39 28.16, 93.50 22.50 C 94.97 18.17, 94.03 15.42, 93.50 12.50 C 90.59 8.32, 96.88 1.21, 93.50 0.50 C 85.17 0.50, 77.83 0.50, 70.50 0.50 C 62.17 0.50, 54.83 0.50, 47.50 0.50 C 31.50 0.50, 16.50 0.50, 1.50 0.50 Z" fill="rgb(153.3103412722961,175.6223321991958,98.99020517579132)" stroke="rgb(153.3103412722961,175.6223321991958,98.99020517579132)" stroke-width="1" />
<path d="M 326.50 437.50 C 317.58 441.46, 306.23 435.75, 297.50 441.50 C 292.17 442.50, 287.83 442.50, 283.50 442.50 C 277.85 442.08, 273.71 442.87, 269.50 443.50 C 261.56 447.08, 255.24 436.82, 248.50 442.50 C 242.40 446.33, 245.70 455.43, 238.50 455.50 C 235.98 458.97, 230.78 458.19, 227.50 460.50 C 222.14 461.51, 219.86 457.49, 215.50 458.50 C 208.33 457.48, 203.89 460.64, 198.50 461.50 C 195.99 465.22, 191.87 465.42, 190.50 468.50 C 192.96 472.12, 193.93 479.14, 198.50 480.50 C 198.99 483.29, 193.44 486.35, 198.50 487.50 C 199.60 491.87, 202.06 494.27, 202.50 497.50 C 202.22 501.39, 199.58 506.85, 196.50 503.50 C 190.74 502.68, 190.78 510.49, 193.50 511.50 C 206.17 511.50, 217.83 511.50, 229.50 511.50 C 236.17 511.50, 241.83 511.50, 247.50 511.50 C 254.50 511.50, 260.50 511.50, 266.50 511.50 C 273.17 511.50, 278.83 511.50, 284.50 511.50 C 291.17 511.50, 296.83 511.50, 302.50 511.50 C 309.17 511.50, 314.83 511.50, 320.50 511.50 C 327.50 511.50, 333.50 511.50, 339.50 511.50 C 341.24 504.39, 339.36 498.36, 339.50 491.50 C 339.50 483.50, 339.50 476.50, 339.50 469.50 C 339.50 464.17, 339.50 459.83, 339.50 455.50 C 339.50 449.83, 339.50 445.17, 339.50 440.50 C 338.02 435.43, 331.25 438.41, 327.50 437.50 Z" fill="rgb(29.930773705642817,54.341593949970914,18.909831297265853)" stroke="rgb(29.930773705642817,54.341593949970914,18.909831297265853)" stroke-width="1" />
<path d="M 136.50 70.50 C 128.02 72.28, 118.84 72.37, 110.50 74.50 C 102.49 77.27, 105.76 84.57, 105.50 90.50 C 101.78 96.52, 97.66 92.63, 92.50 93.50 C 92.51 87.27, 86.84 81.69, 82.50 86.50 C 82.41 105.57, 76.52 115.56, 71.50 130.50 C 61.10 150.54, 82.74 152.43, 84.50 169.50 C 93.02 172.85, 101.35 174.25, 108.50 178.50 C 107.86 184.42, 112.50 185.12, 116.50 184.50 C 122.30 182.89, 126.45 183.87, 129.50 187.50 C 132.58 185.95, 130.38 182.62, 133.50 181.50 C 137.12 177.59, 134.85 170.72, 132.50 168.50 C 123.69 167.14, 130.71 162.22, 135.50 163.50 C 141.68 165.08, 142.06 160.41, 141.50 156.50 C 140.67 151.89, 142.90 144.97, 146.50 146.50 C 163.66 145.19, 227.29 148.67, 214.50 137.50 C 212.68 129.42, 202.17 131.45, 196.50 129.50 C 182.88 125.01, 162.72 127.19, 157.50 116.50 C 139.51 115.55, 148.90 92.95, 146.50 81.50 C 148.45 73.46, 143.46 70.58, 137.50 70.50 Z" fill="rgb(110.7484076433121,106.63057324840764,76.50583864118896)" stroke="rgb(110.7484076433121,106.63057324840764,76.50583864118896)" stroke-width="1" />
<path d="M 49.50 356.50 C 47.11 357.68, 44.27 358.93, 44.50 362.50 C 43.18 366.88, 47.08 369.96, 44.50 372.50 C 45.10 377.14, 44.11 382.68, 44.50 387.50 C 44.50 393.17, 44.50 397.83, 44.50 402.50 C 51.22 403.71, 56.44 405.12, 62.50 404.50 C 68.62 406.14, 74.77 405.32, 80.50 405.50 C 86.50 404.70, 91.44 402.74, 97.50 403.50 C 101.42 405.69, 103.69 408.46, 107.50 407.50 C 115.51 407.18, 123.13 408.34, 129.50 406.50 C 132.27 402.50, 133.72 398.11, 138.50 399.50 C 141.36 405.77, 147.38 407.88, 152.50 405.50 C 160.36 396.73, 165.57 383.99, 177.50 381.50 C 168.65 364.00, 200.32 362.67, 172.50 362.50 C 165.77 362.32, 159.62 363.14, 154.50 361.50 C 149.02 362.29, 144.44 362.83, 139.50 362.50 C 132.37 362.60, 125.61 364.01, 118.50 363.50 C 114.93 363.07, 111.32 366.70, 107.50 365.50 C 102.35 365.05, 97.50 365.30, 93.50 363.50 C 88.48 361.60, 83.16 362.86, 78.50 362.50 C 70.90 362.94, 65.08 361.50, 59.50 359.50 C 57.54 355.08, 53.46 356.98, 50.50 356.50 Z" fill="rgb(158.47619047619048,169.25666864256075,171.82019363762103)" stroke="rgb(158.47619047619048,169.25666864256075,171.82019363762103)" stroke-width="1" />
<path d="M 184.50 235.50 C 180.92 237.51, 175.74 235.67, 172.50 238.50 C 168.92 238.67, 165.80 235.81, 163.50 238.50 C 156.66 238.34, 162.35 243.77, 163.50 245.50 C 159.17 248.40, 160.93 252.40, 160.50 255.50 C 161.15 261.48, 154.71 265.59, 158.50 270.50 C 155.22 278.86, 163.27 279.23, 164.50 284.50 C 168.68 290.23, 176.13 285.65, 180.50 288.50 C 187.06 290.09, 192.14 292.85, 198.50 292.50 C 203.09 295.54, 206.65 292.28, 210.50 294.50 C 218.83 293.93, 216.38 302.55, 221.50 305.50 C 220.30 315.28, 235.81 309.83, 241.50 308.50 C 241.89 282.99, 234.86 261.56, 224.50 241.50 C 219.36 236.28, 212.52 236.18, 205.50 236.50 C 197.74 237.19, 192.26 234.81, 185.50 235.50 Z" fill="rgb(68.98058252427184,70.56067961165049,55.213592233009706)" stroke="rgb(68.98058252427184,70.56067961165049,55.213592233009706)" stroke-width="1" />
<path d="M 95.50 420.50 C 84.61 424.72, 71.40 423.33, 60.50 427.50 C 55.66 428.76, 51.70 429.71, 48.50 432.50 C 43.85 450.74, 43.45 457.51, 22.50 445.50 C 17.63 449.99, 12.45 451.69, 9.50 456.50 C 23.50 476.75, 109.20 495.95, 117.50 447.50 C 125.71 433.96, 117.40 413.57, 96.50 420.50 Z" fill="rgb(157.84615384615384,155.98076923076923,115.07692307692308)" stroke="rgb(157.84615384615384,155.98076923076923,115.07692307692308)" stroke-width="1" />
<path d="M 194.50 175.50 C 191.27 177.70, 186.40 175.93, 182.50 176.50 C 176.56 176.17, 171.98 176.71, 167.50 177.50 C 161.83 177.50, 157.17 177.50, 152.50 177.50 C 139.03 177.51, 121.67 199.75, 142.50 195.50 C 145.18 201.01, 150.65 202.30, 156.50 201.50 C 161.71 199.26, 167.61 201.10, 172.50 200.50 C 178.50 200.50, 183.50 200.50, 188.50 200.50 C 194.83 200.50, 200.17 200.50, 205.50 200.50 C 212.16 200.04, 217.25 200.96, 222.50 201.50 C 228.83 201.50, 234.17 201.50, 239.50 201.50 C 247.76 203.02, 255.91 201.37, 262.50 203.50 C 267.17 203.50, 270.83 203.50, 274.50 203.50 C 278.40 205.68, 282.93 203.94, 286.50 204.50 C 291.40 204.73, 295.10 204.47, 298.50 203.50 C 308.70 197.95, 297.98 186.02, 289.50 186.50 C 282.82 186.68, 278.52 183.51, 272.50 184.50 C 263.66 182.79, 255.17 182.63, 247.50 180.50 C 238.07 179.73, 229.72 178.77, 221.50 177.50 C 212.15 176.87, 204.25 175.17, 195.50 175.50 Z" fill="rgb(118.97040544539804,114.0242675347736,76.83959751405742)" stroke="rgb(118.97040544539804,114.0242675347736,76.83959751405742)" stroke-width="1" />
<path d="M 99.50 419.50 C 96.56 421.46, 92.34 420.32, 89.50 422.50 C 83.49 422.33, 79.18 423.86, 74.50 424.50 C 70.11 426.63, 64.89 424.37, 61.50 426.50 C 55.93 428.93, 51.31 430.24, 47.50 433.50 C 42.18 434.87, 41.19 438.78, 45.50 440.50 C 48.09 444.48, 49.55 448.54, 52.50 450.50 C 62.76 469.73, 74.50 491.68, 99.50 471.50 C 104.02 468.09, 110.84 469.07, 112.50 463.50 C 114.12 458.07, 119.16 455.47, 118.50 450.50 C 119.30 447.17, 116.37 445.97, 116.50 443.50 C 122.77 440.15, 119.68 433.46, 120.50 428.50 C 119.70 416.72, 106.39 422.40, 100.50 419.50 Z" fill="rgb(164.70714026821312,156.8289235230156,134.85139543312795)" stroke="rgb(164.70714026821312,156.8289235230156,134.85139543312795)" stroke-width="1" />
<path d="M 243.50 142.50 C 239.29 144.74, 233.39 142.90, 228.50 143.50 C 221.34 143.45, 215.93 145.21, 209.50 144.50 C 204.55 144.15, 201.63 146.28, 197.50 145.50 C 192.41 144.81, 189.59 147.19, 185.50 146.50 C 176.28 146.63, 168.59 148.06, 160.50 148.50 C 154.84 148.86, 149.52 147.60, 145.50 149.50 C 140.65 152.51, 143.26 158.21, 142.50 162.50 C 140.87 167.47, 150.69 164.66, 153.50 165.50 C 159.16 164.14, 164.48 165.40, 168.50 163.50 C 174.50 163.50, 179.50 163.50, 184.50 163.50 C 190.50 163.50, 195.50 163.50, 200.50 163.50 C 205.83 161.55, 211.52 162.89, 216.50 162.50 C 221.83 161.50, 226.17 161.50, 230.50 161.50 C 236.15 161.08, 240.29 161.87, 244.50 162.50 C 250.63 163.98, 256.51 163.67, 261.50 165.50 C 268.54 165.25, 273.74 167.05, 279.50 167.50 C 285.27 166.27, 290.37 165.85, 295.50 165.50 C 300.56 165.89, 300.03 159.51, 297.50 159.50 C 293.28 156.24, 302.84 150.30, 295.50 150.50 C 289.95 148.21, 284.74 148.53, 280.50 146.50 C 273.87 145.40, 268.31 144.17, 262.50 143.50 C 256.53 141.48, 250.12 142.94, 244.50 142.50 Z" fill="rgb(143.896,135.28166666666667,103.248)" stroke="rgb(143.896,135.28166666666667,103.248)" stroke-width="1" />
<path d="M 34.50 470.50 C 5.10 464.71, -8.06 484.06, 2.50 511.50 C 28.68 507.87, 58.44 514.52, 59.50 487.50 C 91.70 490.41, 160.29 526.63, 103.50 485.50 C 79.55 481.82, 56.61 475.64, 35.50 470.50 Z" fill="rgb(136.6818181818182,133.86363636363637,85.86363636363636)" stroke="rgb(136.6818181818182,133.86363636363637,85.86363636363636)" stroke-width="1" />
<path d="M 241.50 238.50 C 237.77 240.48, 233.23 240.52, 229.50 242.50 C 224.10 241.81, 228.76 245.64, 228.50 247.50 C 230.37 252.89, 233.05 256.94, 234.50 261.50 C 236.09 267.14, 238.72 270.94, 239.50 275.50 C 239.57 279.42, 240.21 282.09, 241.50 284.50 C 242.15 291.51, 244.26 296.91, 243.50 303.50 C 244.50 309.17, 244.50 313.83, 244.50 318.50 C 252.27 319.85, 260.31 318.84, 262.50 312.50 C 272.06 313.33, 265.32 303.59, 270.50 302.50 C 271.87 296.96, 277.53 293.62, 276.50 287.50 C 280.97 283.92, 278.44 278.51, 275.50 275.50 C 275.59 271.74, 278.28 268.49, 274.50 266.50 C 275.57 260.99, 285.82 261.46, 282.50 258.50 C 285.39 254.61, 281.55 250.31, 282.50 245.50 C 277.89 244.49, 274.23 242.20, 269.50 242.50 C 264.75 241.30, 260.97 242.04, 258.50 242.50 C 255.50 236.14, 247.75 239.19, 242.50 238.50 Z" fill="rgb(118.1339584728734,136.07032819825855,142.2012726054923)" stroke="rgb(118.1339584728734,136.07032819825855,142.2012726054923)" stroke-width="1" />
<path d="M 33.50 470.50 C 4.49 466.44, -5.58 480.39, 0.50 511.50 C 5.50 511.50, 9.50 511.50, 13.50 511.50 C 29.10 513.20, 35.53 500.95, 49.50 508.50 C 56.01 503.52, 59.17 493.69, 58.50 487.50 C 62.84 483.62, 65.12 490.19, 68.50 489.50 C 92.41 493.06, 106.58 493.36, 122.50 510.50 C 124.62 504.51, 136.11 511.09, 128.50 504.50 C 116.38 499.65, 113.42 482.31, 98.50 485.50 C 76.78 481.08, 56.20 474.95, 34.50 470.50 Z" fill="rgb(75.8641975308642,79.80246913580247,46.24691358024691)" stroke="rgb(75.8641975308642,79.80246913580247,46.24691358024691)" stroke-width="1" />
<path d="M 94.50 0.50 C 95.65 4.10, 98.45 7.02, 97.50 11.50 C 98.00 16.26, 98.05 20.81, 101.50 22.50 C 104.10 26.78, 102.60 31.76, 106.50 34.50 C 111.65 36.43, 110.72 41.65, 115.50 43.50 C 119.54 46.71, 121.32 50.04, 121.50 54.50 C 124.38 58.80, 124.40 63.29, 127.50 66.50 C 129.96 69.36, 132.48 66.43, 134.50 66.50 C 136.88 60.77, 144.50 63.49, 144.50 57.50 C 140.21 48.80, 150.11 44.38, 148.50 36.50 C 148.95 32.18, 157.21 31.97, 153.50 28.50 C 153.49 21.28, 154.63 17.89, 154.50 11.50 C 152.50 3.50, 161.38 6.59, 158.50 0.50 C 152.83 0.50, 148.17 0.50, 143.50 0.50 C 137.50 0.50, 132.50 0.50, 127.50 0.50 C 121.50 0.50, 116.50 0.50, 111.50 0.50 C 105.50 0.50, 100.50 0.50, 95.50 0.50 Z" fill="rgb(132.40928571428572,162.27392857142857,82.44035714285714)" stroke="rgb(132.40928571428572,162.27392857142857,82.44035714285714)" stroke-width="1" />
<path d="M 213.50 238.50 C 209.15 242.39, 201.19 245.06, 202.50 252.50 C 199.00 255.66, 201.04 260.11, 200.50 263.50 C 201.80 270.45, 196.17 266.50, 192.50 267.50 C 190.95 272.46, 190.79 278.73, 190.50 286.50 C 194.39 293.74, 204.26 290.68, 210.50 293.50 C 217.73 293.46, 215.50 300.92, 219.50 304.50 C 221.22 312.64, 227.81 312.02, 233.50 311.50 C 236.57 309.91, 241.07 311.74, 241.50 309.50 C 242.32 303.47, 241.56 296.97, 240.50 291.50 C 240.64 287.17, 239.89 284.20, 238.50 281.50 C 237.84 272.94, 235.20 266.21, 232.50 259.50 C 229.07 254.34, 227.93 249.65, 225.50 245.50 C 224.85 239.31, 219.36 237.75, 214.50 238.50 Z" fill="rgb(19.01554828150573,20.26595744680851,16.436988543371523)" stroke="rgb(19.01554828150573,20.26595744680851,16.436988543371523)" stroke-width="1" />
<path d="M 22.50 118.50 C 17.14 121.84, 9.26 119.11, 3.50 121.50 C -1.48 134.06, 0.49 156.30, 1.50 171.50 C 19.34 171.14, 42.10 168.49, 59.50 170.50 C 92.18 171.30, 76.55 152.51, 55.50 154.50 C 40.25 158.64, 35.94 154.41, 38.50 140.50 C 37.24 133.24, 32.10 132.07, 27.50 129.50 C 14.42 125.89, 36.51 118.74, 23.50 118.50 Z" fill="rgb(121.34234234234235,137.64864864864865,77.27927927927928)" stroke="rgb(121.34234234234235,137.64864864864865,77.27927927927928)" stroke-width="1" />
<path d="M 36.50 470.50 C 34.70 472.46, 31.42 470.82, 29.50 472.50 C 23.50 472.50, 18.50 472.50, 13.50 472.50 C 8.48 470.96, 4.51 472.39, 0.50 473.50 C 0.50 480.50, 0.50 486.50, 0.50 492.50 C 0.50 499.50, 0.50 505.50, 0.50 511.50 C 6.50 511.50, 11.50 511.50, 16.50 511.50 C 23.12 511.59, 28.84 512.74, 30.50 506.50 C 35.17 506.64, 39.31 506.63, 43.50 506.50 C 46.37 508.29, 48.33 508.89, 50.50 507.50 C 51.96 502.57, 58.13 501.48, 56.50 495.50 C 61.87 494.17, 57.42 490.47, 57.50 488.50 C 58.80 484.35, 62.46 482.17, 62.50 478.50 C 58.24 475.05, 51.75 478.74, 50.50 473.50 C 45.45 471.95, 42.13 469.66, 37.50 470.50 Z" fill="rgb(59.8296803652968,86.03607305936073,27.0986301369863)" stroke="rgb(59.8296803652968,86.03607305936073,27.0986301369863)" stroke-width="1" />
<path d="M 35.50 381.50 C 25.06 382.45, 15.49 388.10, 2.50 387.50 C 2.48 398.19, -7.31 428.44, 10.50 424.50 C 24.43 432.32, 50.28 439.68, 55.50 421.50 C 41.24 406.30, 31.20 394.84, 36.50 381.50 Z" fill="rgb(91.19117647058823,92.05882352941177,64.55882352941177)" stroke="rgb(91.19117647058823,92.05882352941177,64.55882352941177)" stroke-width="1" />
<path d="M 137.50 70.50 C 134.92 72.66, 130.75 70.96, 127.50 71.50 C 123.53 73.06, 120.20 73.72, 116.50 73.50 C 112.02 75.01, 106.86 73.93, 105.50 78.50 C 108.38 84.81, 106.14 87.84, 108.50 92.50 C 112.50 94.12, 124.67 95.44, 118.50 101.50 C 115.71 104.38, 112.19 102.45, 113.50 106.50 C 114.08 112.18, 110.82 118.46, 113.50 123.50 C 111.87 131.07, 117.51 126.27, 121.50 127.50 C 126.63 128.28, 129.55 126.15, 133.50 126.50 C 138.59 127.19, 141.41 124.81, 145.50 125.50 C 146.50 120.83, 146.50 117.17, 146.50 113.50 C 146.50 108.83, 146.50 105.17, 146.50 101.50 C 146.50 96.83, 146.50 93.17, 146.50 89.50 C 146.50 84.50, 146.50 80.50, 146.50 76.50 C 147.08 70.85, 141.06 72.05, 138.50 70.50 Z" fill="rgb(159.3963873557451,157.95885599598594,141.96287004515804)" stroke="rgb(159.3963873557451,157.95885599598594,141.96287004515804)" stroke-width="1" />
<path d="M 189.50 202.50 C 191.72 212.96, 183.49 233.30, 197.50 233.50 C 202.17 233.50, 205.83 233.50, 209.50 233.50 C 214.50 233.50, 218.50 233.50, 222.50 233.50 C 231.21 232.18, 242.70 236.52, 247.50 230.50 C 253.06 219.90, 245.57 209.72, 238.50 203.50 C 221.84 203.15, 206.53 201.95, 190.50 202.50 Z" fill="rgb(6.843283582089552,7.380597014925373,4.925373134328358)" stroke="rgb(6.843283582089552,7.380597014925373,4.925373134328358)" stroke-width="1" />
<path d="M 1.50 137.50 C -0.81 147.68, 1.15 159.63, 0.50 170.50 C 2.83 175.55, 10.62 173.58, 13.50 170.50 C 17.91 175.46, 22.21 169.61, 26.50 170.50 C 39.02 170.90, 48.63 170.55, 57.50 171.50 C 64.07 169.07, 69.57 171.85, 75.50 171.50 C 89.57 148.23, 52.70 157.25, 37.50 155.50 C 31.83 146.03, 21.50 143.38, 14.50 138.50 C 10.64 142.77, 5.97 138.90, 2.50 138.50 Z" fill="rgb(135.36428571428573,149.71428571428572,91.24285714285715)" stroke="rgb(135.36428571428573,149.71428571428572,91.24285714285715)" stroke-width="1" />
<path d="M 12.50 322.50 C 7.53 325.02, -0.94 326.63, 0.50 334.50 C 1.78 351.39, -2.10 370.96, 2.50 384.50 C 20.47 386.53, 27.78 363.67, 25.50 350.50 C 30.38 343.91, 38.77 345.56, 41.50 339.50 C 39.45 331.50, 31.73 326.33, 24.50 325.50 C 20.42 324.56, 17.74 321.65, 13.50 322.50 Z" fill="rgb(154.8618181818182,170.3078787878788,111.55878787878788)" stroke="rgb(154.8618181818182,170.3078787878788,111.55878787878788)" stroke-width="1" />
<path d="M 148.50 119.50 C 145.97 121.53, 149.29 125.99, 145.50 127.50 C 138.44 126.88, 133.22 128.29, 127.50 128.50 C 122.41 127.81, 119.59 130.19, 115.50 129.50 C 116.30 132.15, 120.42 131.63, 122.50 132.50 C 128.93 134.20, 135.46 133.28, 141.50 133.50 C 145.30 137.93, 140.03 147.60, 146.50 147.50 C 166.23 148.25, 183.08 144.48, 201.50 144.50 C 209.56 144.12, 215.39 141.76, 222.50 142.50 C 219.57 139.34, 212.17 140.47, 213.50 133.50 C 205.78 130.50, 198.78 129.16, 191.50 128.50 C 187.04 128.27, 184.74 126.25, 181.50 126.50 C 176.64 124.35, 171.55 125.19, 167.50 123.50 C 160.64 122.64, 155.77 119.37, 149.50 119.50 Z" fill="rgb(216.7968313140727,204.82479030754894,185.3783783783784)" stroke="rgb(216.7968313140727,204.82479030754894,185.3783783783784)" stroke-width="1" />
<path d="M 0.50 0.50 C 0.50 5.50, 0.50 10.50, 0.50 15.50 C 0.50 21.50, 0.50 26.50, 0.50 31.50 C -1.02 41.30, 5.31 36.71, 9.50 34.50 C 13.07 35.00, 15.09 41.79, 18.50 38.50 C 23.63 39.67, 26.14 36.35, 25.50 32.50 C 23.55 27.44, 27.75 24.51, 31.50 25.50 C 34.91 23.60, 42.12 19.07, 40.50 24.50 C 40.76 30.26, 46.35 29.63, 49.50 29.50 C 53.77 32.06, 59.75 32.06, 58.50 26.50 C 53.51 21.91, 53.26 16.77, 48.50 13.50 C 45.77 8.39, 39.99 5.95, 41.50 0.50 C 34.17 0.50, 27.83 0.50, 21.50 0.50 C 14.17 0.50, 7.83 0.50, 1.50 0.50 Z" fill="rgb(102.81807081807082,129.7002442002442,52.91208791208791)" stroke="rgb(102.81807081807082,129.7002442002442,52.91208791208791)" stroke-width="1" />
<path d="M 95.50 293.50 C 92.59 294.58, 89.78 296.38, 88.50 299.50 C 83.11 307.43, 83.42 316.72, 82.50 325.50 C 101.10 329.35, 119.18 324.66, 136.50 323.50 C 146.83 295.83, 111.73 307.22, 96.50 293.50 Z" fill="rgb(79.02702702702703,83.1891891891892,54.67567567567568)" stroke="rgb(79.02702702702703,83.1891891891892,54.67567567567568)" stroke-width="1" />
<path d="M 157.50 289.50 C 149.81 300.88, 131.67 325.09, 158.50 320.50 C 173.01 318.85, 185.58 320.86, 198.50 317.50 C 200.56 315.47, 200.68 313.05, 200.50 310.50 C 201.87 304.55, 196.56 299.92, 194.50 295.50 C 190.70 292.08, 186.13 292.92, 182.50 291.50 C 173.49 294.35, 166.32 290.05, 158.50 289.50 Z" fill="rgb(42.135416666666664,45.302083333333336,36.552083333333336)" stroke="rgb(42.135416666666664,45.302083333333336,36.552083333333336)" stroke-width="1" />
<path d="M 95.50 99.50 C 88.73 100.55, 92.21 108.87, 92.50 113.50 C 92.50 118.83, 92.50 123.17, 92.50 127.50 C 93.29 132.98, 93.83 137.56, 93.50 142.50 C 93.50 147.83, 93.50 152.17, 93.50 156.50 C 93.50 162.17, 93.50 166.83, 93.50 171.50 C 98.68 173.62, 104.14 178.02, 109.50 175.50 C 112.76 174.76, 110.89 169.89, 111.50 167.50 C 111.50 161.50, 111.50 156.50, 111.50 151.50 C 111.50 145.50, 111.50 140.50, 111.50 135.50 C 111.50 129.50, 111.50 124.50, 111.50 119.50 C 111.68 112.96, 111.56 107.53, 110.50 102.50 C 104.66 102.06, 101.34 98.94, 96.50 99.50 Z" fill="rgb(92.59768550034036,70.19400953029272,60.27025187202178)" stroke="rgb(92.59768550034036,70.19400953029272,60.27025187202178)" stroke-width="1" />
<path d="M 85.50 81.50 C 80.86 85.51, 79.63 90.65, 80.50 97.50 C 77.26 103.24, 82.27 111.40, 77.50 115.50 C 70.96 118.25, 73.12 126.58, 70.50 131.50 C 66.30 137.62, 69.70 144.53, 69.50 150.50 C 70.27 156.53, 80.77 149.99, 81.50 157.50 C 82.11 162.11, 79.62 169.54, 84.50 169.50 C 87.11 170.30, 92.24 173.58, 91.50 169.50 C 91.50 162.17, 91.50 155.83, 91.50 149.50 C 91.42 142.06, 89.83 136.25, 90.50 129.50 C 90.50 124.50, 90.50 120.50, 90.50 116.50 C 90.92 110.86, 88.72 107.29, 89.50 102.50 C 86.92 99.13, 86.46 94.49, 90.50 93.50 C 89.37 87.97, 92.73 80.77, 86.50 81.50 Z" fill="rgb(188.71019809244314,184.80337490829052,159.41379310344828)" stroke="rgb(188.71019809244314,184.80337490829052,159.41379310344828)" stroke-width="1" />
<path d="M 218.50 162.50 C 209.58 167.41, 178.66 158.84, 186.50 172.50 C 210.33 174.44, 242.38 179.03, 269.50 182.50 C 279.34 188.18, 279.29 172.67, 275.50 168.50 C 256.24 166.33, 239.34 160.85, 219.50 162.50 Z" fill="rgb(73.75,63.5,48.0)" stroke="rgb(73.75,63.5,48.0)" stroke-width="1" />
<path d="M 219.50 162.50 C 217.24 164.63, 213.42 162.98, 210.50 163.50 C 202.50 164.50, 195.50 164.50, 188.50 164.50 C 181.50 164.19, 185.14 174.15, 188.50 174.50 C 195.83 174.50, 202.17 174.50, 208.50 174.50 C 216.58 175.17, 222.83 176.84, 229.50 177.50 C 236.40 177.61, 241.51 179.62, 247.50 179.50 C 252.10 180.32, 255.90 180.68, 259.50 181.50 C 264.21 181.73, 267.44 183.11, 271.50 182.50 C 276.02 185.62, 278.71 181.10, 277.50 177.50 C 278.91 174.64, 275.23 172.23, 276.50 169.50 C 270.11 168.78, 265.67 166.75, 260.50 166.50 C 253.11 165.63, 247.38 163.18, 240.50 163.50 C 233.89 161.43, 226.77 162.98, 220.50 162.50 Z" fill="rgb(51.46495855312735,43.34287867370008,26.313489073097212)" stroke="rgb(51.46495855312735,43.34287867370008,26.313489073097212)" stroke-width="1" />
<path d="M 23.50 382.50 C 13.30 389.21, -4.44 386.64, 0.50 405.50 C 0.48 416.32, -2.38 427.62, 10.50 425.50 C 17.85 431.35, 24.75 424.98, 23.50 418.50 C 27.31 404.93, 51.97 377.86, 24.50 382.50 Z" fill="rgb(126.51724137931035,147.13793103448276,88.55172413793103)" stroke="rgb(126.51724137931035,147.13793103448276,88.55172413793103)" stroke-width="1" />
<path d="M 1.50 343.50 C -0.82 356.01, 1.15 370.30, 0.50 383.50 C 22.55 387.59, 58.34 374.51, 26.50 364.50 C 31.35 357.33, 27.85 353.10, 23.50 347.50 C 16.49 345.46, 7.85 350.25, 2.50 344.50 Z" fill="rgb(67.6774193548387,70.96774193548387,51.96774193548387)" stroke="rgb(67.6774193548387,70.96774193548387,51.96774193548387)" stroke-width="1" />
<path d="M 36.50 381.50 C 31.64 384.78, 23.15 379.31, 19.50 385.50 C 12.72 387.23, 6.74 388.48, 1.50 391.50 C 0.50 397.50, 0.50 402.50, 0.50 407.50 C 0.58 413.60, 0.01 418.98, 1.50 423.50 C 6.11 422.45, 10.35 425.82, 14.50 422.50 C 20.99 422.23, 17.88 430.50, 23.50 424.50 C 21.52 415.85, 29.56 412.35, 29.50 405.50 C 30.81 397.80, 38.37 393.69, 38.50 386.50 C 40.13 384.53, 40.27 380.28, 37.50 381.50 Z" fill="rgb(145.93213409648405,159.62224039247752,107.29844644317252)" stroke="rgb(145.93213409648405,159.62224039247752,107.29844644317252)" stroke-width="1" />
<path d="M 27.50 443.50 C 19.94 446.89, 10.30 452.14, 7.50 460.50 C 7.12 465.65, 6.97 471.21, 12.50 470.50 C 18.29 469.72, 21.86 471.92, 26.50 471.50 C 31.78 471.18, 34.74 467.67, 39.50 468.50 C 45.78 468.22, 49.22 472.37, 53.50 474.50 C 59.68 473.02, 64.47 478.97, 64.50 470.50 C 66.30 462.85, 55.43 463.58, 56.50 456.50 C 51.59 451.93, 40.88 441.07, 43.50 453.50 C 34.42 458.48, 34.41 442.82, 28.50 443.50 Z" fill="rgb(175.37563451776649,168.65566835871405,138.2622673434856)" stroke="rgb(175.37563451776649,168.65566835871405,138.2622673434856)" stroke-width="1" />
<path d="M 62.50 491.50 C 60.59 493.09, 62.40 497.71, 58.50 497.50 C 58.26 502.40, 55.27 503.50, 53.50 506.50 C 51.19 510.59, 47.13 511.53, 44.50 508.50 C 37.89 509.75, 30.98 504.54, 29.50 511.50 C 34.83 511.50, 39.17 511.50, 43.50 511.50 C 48.83 511.50, 53.17 511.50, 57.50 511.50 C 63.17 511.50, 67.83 511.50, 72.50 511.50 C 78.50 511.50, 83.50 511.50, 88.50 511.50 C 94.17 511.50, 98.83 511.50, 103.50 511.50 C 109.50 511.50, 114.50 511.50, 119.50 511.50 C 116.93 508.56, 114.33 502.67, 109.50 505.50 C 106.11 500.38, 105.29 493.94, 98.50 495.50 C 93.21 502.44, 87.67 488.01, 81.50 493.50 C 74.94 492.57, 69.64 491.02, 63.50 491.50 Z" fill="rgb(155.36436884512085,142.55684870188003,95.22829006266787)" stroke="rgb(155.36436884512085,142.55684870188003,95.22829006266787)" stroke-width="1" />
<path d="M 151.50 287.50 C 148.69 291.49, 146.02 294.64, 147.50 299.50 C 144.21 302.57, 149.88 303.88, 148.50 306.50 C 147.19 311.53, 141.28 303.99, 143.50 307.50 C 139.92 311.04, 143.82 314.12, 142.50 317.50 C 145.39 322.94, 155.33 319.33, 160.50 320.50 C 165.17 320.50, 168.83 320.50, 172.50 320.50 C 178.37 320.77, 177.50 314.85, 177.50 311.50 C 175.87 303.77, 175.94 293.97, 168.50 291.50 C 162.74 289.60, 158.53 286.34, 152.50 287.50 Z" fill="rgb(130.79979466119096,126.46303901437372,105.14784394250513)" stroke="rgb(130.79979466119096,126.46303901437372,105.14784394250513)" stroke-width="1" />
<path d="M 169.50 201.50 C 166.27 203.70, 161.40 201.93, 157.50 202.50 C 151.82 202.19, 147.30 202.27, 144.50 206.50 C 142.31 210.74, 147.48 212.35, 146.50 216.50 C 147.38 222.68, 154.29 220.20, 154.50 225.50 C 160.19 226.30, 164.61 226.76, 168.50 228.50 C 174.54 228.14, 177.25 233.39, 182.50 232.50 C 182.50 226.83, 182.50 222.17, 182.50 217.50 C 182.48 211.70, 182.89 206.73, 181.50 202.50 C 177.17 201.50, 173.83 201.50, 170.50 201.50 Z" fill="rgb(66.03810504634397,72.73223480947478,34.388259526261585)" stroke="rgb(66.03810504634397,72.73223480947478,34.388259526261585)" stroke-width="1" />
<path d="M 0.50 137.50 C 0.50 142.83, 0.50 148.17, 0.50 153.50 C 0.50 159.83, 0.50 165.17, 0.50 170.50 C 3.50 171.50, 6.50 171.50, 9.50 171.50 C 13.60 166.94, 15.99 172.77, 19.50 171.50 C 23.34 165.85, 32.03 169.59, 32.50 162.50 C 33.08 156.58, 34.54 149.09, 28.50 147.50 C 25.24 143.33, 19.63 143.38, 17.50 138.50 C 12.00 141.94, 6.30 140.09, 1.50 137.50 Z" fill="rgb(110.93326381647549,123.48383733055266,70.16475495307613)" stroke="rgb(110.93326381647549,123.48383733055266,70.16475495307613)" stroke-width="1" />
<path d="M 1.50 343.50 C -0.68 346.40, 1.06 350.93, 0.50 354.50 C 0.50 359.50, 0.50 363.50, 0.50 367.50 C 0.50 372.50, 0.50 376.50, 0.50 380.50 C 0.62 386.66, 10.26 384.60, 13.50 383.50 C 16.51 384.05, 21.75 383.20, 18.50 380.50 C 16.24 375.96, 18.75 372.04, 19.50 368.50 C 27.02 365.90, 32.42 355.66, 24.50 351.50 C 25.06 346.75, 20.24 346.69, 17.50 346.50 C 11.99 349.01, 5.68 347.45, 2.50 343.50 Z" fill="rgb(115.23463687150839,127.42122905027934,83.23128491620112)" stroke="rgb(115.23463687150839,127.42122905027934,83.23128491620112)" stroke-width="1" />
<path d="M 95.50 293.50 C 89.32 294.70, 89.58 301.70, 85.50 305.50 C 83.76 311.05, 84.90 316.80, 83.50 321.50 C 82.22 331.12, 93.94 326.22, 99.50 327.50 C 102.17 326.52, 110.36 327.61, 107.50 323.50 C 110.13 316.90, 112.43 311.16, 112.50 304.50 C 109.97 301.47, 113.29 297.01, 109.50 295.50 C 105.27 292.30, 100.40 294.07, 96.50 293.50 Z" fill="rgb(134.42873432155073,131.24287343215508,110.53705815279362)" stroke="rgb(134.42873432155073,131.24287343215508,110.53705815279362)" stroke-width="1" />
<path d="M 63.50 478.50 C 59.54 483.36, 67.31 485.07, 67.50 489.50 C 71.29 488.39, 73.29 493.47, 75.50 490.50 C 80.99 494.76, 85.43 488.52, 90.50 492.50 C 93.11 493.85, 92.07 497.60, 95.50 496.50 C 100.77 490.76, 109.23 496.67, 108.50 502.50 C 115.07 497.72, 116.50 508.48, 121.50 509.50 C 125.93 514.41, 124.54 506.75, 127.50 507.50 C 131.38 510.94, 132.95 505.74, 129.50 504.50 C 124.66 499.84, 118.63 499.01, 115.50 493.50 C 111.38 490.21, 112.19 484.41, 106.50 485.50 C 98.20 486.16, 92.15 483.83, 86.50 480.50 C 83.07 480.26, 81.19 484.16, 79.50 481.50 C 74.52 478.84, 69.58 478.51, 64.50 478.50 Z" fill="rgb(47.5997375328084,75.38320209973753,21.137795275590552)" stroke="rgb(47.5997375328084,75.38320209973753,21.137795275590552)" stroke-width="1" />
<path d="M 34.50 397.50 C 32.24 401.25, 31.58 405.67, 29.50 409.50 C 25.79 413.85, 25.04 418.43, 25.50 423.50 C 24.50 432.95, 34.61 433.21, 41.50 433.50 C 45.59 432.53, 48.38 431.82, 50.50 429.50 C 53.65 426.95, 57.90 427.88, 56.50 423.50 C 54.20 419.82, 52.46 416.91, 49.50 414.50 C 44.97 409.45, 41.28 401.94, 35.50 398.50 Z" fill="rgb(180.86764705882354,176.17513368983958,149.2807486631016)" stroke="rgb(180.86764705882354,176.17513368983958,149.2807486631016)" stroke-width="1" />
<path d="M 49.50 154.50 C 44.89 158.09, 33.50 153.10, 35.50 162.50 C 32.52 170.44, 45.44 173.55, 49.50 169.50 C 56.41 173.93, 63.61 168.02, 69.50 171.50 C 97.43 158.69, 64.00 154.79, 50.50 154.50 Z" fill="rgb(121.24413145539906,137.7300469483568,78.74647887323944)" stroke="rgb(121.24413145539906,137.7300469483568,78.74647887323944)" stroke-width="1" />
<path d="M 215.50 203.50 C 212.13 206.93, 211.67 211.57, 209.50 215.50 C 207.50 220.36, 206.21 224.52, 204.50 228.50 C 211.56 230.03, 216.97 232.12, 223.50 231.50 C 227.95 228.10, 227.37 223.03, 230.50 219.50 C 232.10 214.14, 234.18 209.98, 235.50 205.50 C 229.02 203.57, 222.89 203.23, 216.50 203.50 Z" fill="rgb(10.496845425867507,11.49211356466877,5.416403785488959)" stroke="rgb(10.496845425867507,11.49211356466877,5.416403785488959)" stroke-width="1" />
<path d="M 148.50 92.50 C 147.39 100.48, 144.39 115.54, 156.50 113.50 C 165.67 112.76, 164.08 120.36, 168.50 122.50 C 174.98 122.82, 179.59 125.22, 185.50 124.50 C 191.09 124.88, 186.42 119.30, 185.50 117.50 C 181.28 109.90, 169.85 116.95, 171.50 105.50 C 166.53 97.46, 153.67 100.83, 149.50 92.50 Z" fill="rgb(185.2290076335878,207.72519083969465,125.2557251908397)" stroke="rgb(185.2290076335878,207.72519083969465,125.2557251908397)" stroke-width="1" />
<path d="M 21.50 119.50 C 18.51 120.99, 14.85 120.87, 11.50 121.50 C 7.46 122.13, 1.89 120.22, 0.50 122.50 C 0.50 126.83, 0.50 130.17, 0.50 133.50 C 1.98 137.25, 10.23 138.60, 11.50 138.50 C 16.00 129.58, 18.99 142.02, 23.50 142.50 C 27.26 142.12, 29.04 150.44, 30.50 143.50 C 37.12 136.65, 35.25 148.13, 35.50 151.50 C 41.14 146.55, 37.85 140.59, 35.50 134.50 C 30.70 133.29, 28.42 129.42, 24.50 129.50 C 18.84 127.96, 18.18 125.85, 21.50 123.50 C 26.81 120.44, 31.28 119.19, 22.50 119.50 Z" fill="rgb(39.769354838709674,72.99516129032259,10.495161290322581)" stroke="rgb(39.769354838709674,72.99516129032259,10.495161290322581)" stroke-width="1" />
<path d="M 131.50 300.50 C 127.46 306.08, 122.39 307.41, 116.50 305.50 C 111.77 306.40, 114.43 312.31, 111.50 314.50 C 110.21 319.07, 108.13 321.82, 109.50 325.50 C 115.17 325.50, 119.83 325.50, 124.50 325.50 C 130.41 324.28, 135.90 324.47, 140.50 322.50 C 141.23 316.73, 139.73 312.46, 137.50 308.50 C 134.27 305.69, 135.86 300.89, 132.50 300.50 Z" fill="rgb(148.31855500821018,148.26272577996716,120.41379310344827)" stroke="rgb(148.31855500821018,148.26272577996716,120.41379310344827)" stroke-width="1" />
<path d="M 36.50 133.50 C 37.24 137.08, 39.35 140.09, 40.50 143.50 C 41.09 148.35, 37.91 150.65, 38.50 154.50 C 43.70 155.66, 47.05 153.76, 51.50 154.50 C 56.47 156.37, 61.02 156.86, 65.50 157.50 C 69.17 150.66, 65.77 145.42, 66.50 138.50 C 61.55 137.53, 56.38 138.07, 52.50 135.50 C 46.24 136.28, 42.64 133.03, 37.50 133.50 Z" fill="rgb(217.12458471760797,219.19435215946845,177.5033222591362)" stroke="rgb(217.12458471760797,219.19435215946845,177.5033222591362)" stroke-width="1" />
<path d="M 155.50 134.50 C 151.72 137.42, 139.53 132.28, 143.50 140.50 C 144.01 144.32, 141.71 149.95, 146.50 148.50 C 150.83 147.50, 154.17 147.50, 157.50 147.50 C 165.62 147.13, 172.38 145.87, 179.50 145.50 C 187.50 145.18, 194.13 143.93, 201.50 144.50 C 215.76 143.80, 201.66 139.80, 195.50 140.50 C 189.72 140.90, 185.90 139.01, 181.50 138.50 C 176.21 136.92, 171.61 136.09, 166.50 136.50 C 162.17 136.67, 159.20 132.59, 156.50 135.50 Z" fill="rgb(59.331114808652245,41.14975041597338,23.359400998336106)" stroke="rgb(59.331114808652245,41.14975041597338,23.359400998336106)" stroke-width="1" />
<path d="M 64.50 456.50 C 56.54 462.17, 67.94 463.66, 65.50 471.50 C 63.21 480.96, 74.97 476.35, 79.50 479.50 C 86.35 479.88, 90.31 475.72, 95.50 474.50 C 101.14 472.06, 95.63 470.12, 95.50 467.50 C 89.13 466.88, 81.99 463.77, 80.50 458.50 C 74.38 458.26, 70.41 456.24, 65.50 456.50 Z" fill="rgb(47.76858108108108,40.898648648648646,21.39527027027027)" stroke="rgb(47.76858108108108,40.898648648648646,21.39527027027027)" stroke-width="1" />
<path d="M 190.50 202.50 C 188.27 206.38, 190.09 211.94, 189.50 216.50 C 188.96 222.86, 190.11 227.52, 190.50 232.50 C 195.47 232.58, 199.60 233.03, 202.50 230.50 C 204.68 226.05, 205.02 221.83, 207.50 218.50 C 209.21 213.52, 210.50 209.36, 212.50 205.50 C 206.87 200.52, 198.42 203.35, 191.50 202.50 Z" fill="rgb(11.71602787456446,12.806620209059233,6.616724738675958)" stroke="rgb(11.71602787456446,12.806620209059233,6.616724738675958)" stroke-width="1" />
<path d="M 92.50 404.50 C 83.68 406.39, 76.58 412.41, 69.50 418.50 C 61.46 422.10, 64.13 426.31, 71.50 424.50 C 75.74 423.75, 78.04 421.73, 81.50 422.50 C 88.91 421.34, 94.85 419.07, 101.50 418.50 C 106.57 418.85, 117.17 421.79, 111.50 415.50 C 106.22 410.67, 99.88 405.63, 93.50 404.50 Z" fill="rgb(140.08960573476702,142.6326164874552,141.20250896057348)" stroke="rgb(140.08960573476702,142.6326164874552,141.20250896057348)" stroke-width="1" />
<path d="M 2.50 425.50 C -5.65 440.56, 20.55 443.30, 32.50 442.50 C 32.81 448.42, 35.89 452.78, 39.50 452.50 C 57.68 437.82, 18.34 431.43, 3.50 425.50 Z" fill="rgb(114.06451612903226,118.96774193548387,82.83870967741936)" stroke="rgb(114.06451612903226,118.96774193548387,82.83870967741936)" stroke-width="1" />
<path d="M 173.50 292.50 C 173.42 295.00, 175.23 296.73, 174.50 299.50 C 177.32 305.49, 178.40 310.79, 178.50 316.50 C 178.11 321.55, 184.73 318.60, 187.50 319.50 C 192.45 319.18, 196.17 318.31, 199.50 316.50 C 201.52 309.56, 193.47 311.14, 194.50 305.50 C 193.95 302.10, 190.72 299.55, 193.50 297.50 C 190.43 289.99, 180.90 293.29, 174.50 292.50 Z" fill="rgb(84.6173752310536,87.99260628465804,85.35304990757855)" stroke="rgb(84.6173752310536,87.99260628465804,85.35304990757855)" stroke-width="1" />
<path d="M 2.50 425.50 C -1.11 426.63, 1.10 431.31, 0.50 434.50 C 3.86 436.44, 6.60 438.86, 10.50 438.50 C 14.52 440.21, 17.50 446.79, 20.50 441.50 C 25.10 444.04, 29.47 441.21, 32.50 441.50 C 31.85 448.43, 37.27 451.79, 39.50 453.50 C 46.34 451.30, 36.28 444.96, 44.50 444.50 C 44.29 441.00, 39.03 438.33, 36.50 435.50 C 30.85 434.60, 27.42 431.75, 22.50 432.50 C 14.92 431.58, 10.75 424.82, 3.50 425.50 Z" fill="rgb(54.33888888888889,83.54074074074074,24.883333333333333)" stroke="rgb(54.33888888888889,83.54074074074074,24.883333333333333)" stroke-width="1" />
<path d="M 170.50 361.50 C 168.24 363.63, 164.42 361.98, 161.50 362.50 C 155.31 362.69, 162.45 368.08, 160.50 371.50 C 159.12 377.87, 161.43 384.24, 162.50 389.50 C 167.79 388.54, 171.02 381.58, 177.50 382.50 C 179.26 376.52, 171.65 367.10, 180.50 367.50 C 184.52 366.42, 188.83 370.55, 189.50 369.50 C 188.57 360.06, 178.59 361.43, 171.50 361.50 Z" fill="rgb(38.43050193050193,49.988416988416986,52.56370656370656)" stroke="rgb(38.43050193050193,49.988416988416986,52.56370656370656)" stroke-width="1" />
<path d="M 162.50 165.50 C 86.15 178.72, 208.48 182.17, 162.50 165.50 Z" fill="rgb(68.0,49.333333333333336,21.666666666666668)" stroke="rgb(68.0,49.333333333333336,21.666666666666668)" stroke-width="1" />
<path d="M 34.50 354.50 C 31.45 362.77, 6.04 379.45, 29.50 381.50 C 44.94 385.59, 48.76 351.73, 35.50 354.50 Z" fill="rgb(103.02941176470588,105.20588235294117,88.97058823529412)" stroke="rgb(103.02941176470588,105.20588235294117,88.97058823529412)" stroke-width="1" />
<path d="M 162.50 165.50 C 160.87 167.54, 157.78 166.04, 155.50 166.50 C 150.17 167.50, 145.83 167.50, 141.50 167.50 C 132.63 166.12, 135.67 175.84, 137.50 179.50 C 139.08 182.66, 143.25 180.96, 146.50 181.50 C 146.76 175.74, 152.35 176.37, 155.50 176.50 C 163.48 176.59, 169.98 175.52, 176.50 174.50 C 175.81 170.31, 179.45 165.31, 174.50 165.50 C 170.17 165.50, 166.83 165.50, 163.50 165.50 Z" fill="rgb(45.6260162601626,35.863821138211385,22.03252032520325)" stroke="rgb(45.6260162601626,35.863821138211385,22.03252032520325)" stroke-width="1" />
<path d="M 237.50 205.50 C 235.15 209.22, 233.44 213.20, 232.50 217.50 C 229.79 222.48, 228.50 226.64, 226.50 230.50 C 229.22 234.46, 233.65 233.28, 237.50 233.50 C 245.59 235.21, 249.41 229.76, 249.50 223.50 C 248.14 216.46, 245.80 207.56, 238.50 205.50 Z" fill="rgb(11.25206611570248,9.946280991735538,4.235537190082645)" stroke="rgb(11.25206611570248,9.946280991735538,4.235537190082645)" stroke-width="1" />
<path d="M 205.50 348.50 C 200.58 353.45, 213.39 357.84, 208.50 361.50 C 208.22 366.36, 212.36 368.40, 211.50 372.50 C 215.52 376.74, 215.51 381.25, 218.50 384.50 C 226.36 382.97, 223.19 374.88, 225.50 370.50 C 227.12 364.85, 227.51 357.23, 221.50 355.50 C 215.84 353.81, 211.76 349.72, 206.50 348.50 Z" fill="rgb(98.75991649269311,114.59707724425887,69.91231732776617)" stroke="rgb(98.75991649269311,114.59707724425887,69.91231732776617)" stroke-width="1" />
<path d="M 178.50 253.50 C 176.97 257.19, 176.97 262.81, 178.50 266.50 C 178.50 269.83, 178.50 272.17, 178.50 274.50 C 179.23 279.88, 176.15 290.21, 182.50 287.50 C 181.09 281.50, 184.88 275.21, 184.50 283.50 C 189.46 298.37, 192.13 282.18, 190.50 274.50 C 190.70 263.68, 193.17 250.66, 179.50 253.50 Z" fill="rgb(75.58608058608058,77.58608058608058,74.04761904761905)" stroke="rgb(75.58608058608058,77.58608058608058,74.04761904761905)" stroke-width="1" />
<path d="M 172.50 262.50 C 171.43 265.20, 163.35 261.80, 165.50 264.50 C 167.62 267.26, 163.68 273.90, 161.50 271.50 C 157.24 270.54, 156.57 274.34, 159.50 275.50 C 156.51 281.86, 163.26 284.30, 166.50 288.50 C 170.93 289.19, 173.07 286.81, 176.50 287.50 C 177.50 282.50, 177.50 278.50, 177.50 274.50 C 177.52 268.99, 178.21 263.42, 173.50 262.50 Z" fill="rgb(22.96690307328605,26.872340425531913,16.203309692671393)" stroke="rgb(22.96690307328605,26.872340425531913,16.203309692671393)" stroke-width="1" />
<path d="M 43.50 404.50 C 51.91 409.76, 57.74 434.35, 65.50 419.50 C 96.96 403.45, 60.17 406.38, 44.50 404.50 Z" fill="rgb(213.77777777777777,216.7037037037037,214.5185185185185)" stroke="rgb(213.77777777777777,216.7037037037037,214.5185185185185)" stroke-width="1" />
<path d="M 44.50 404.50 C 47.46 411.87, 56.02 416.93, 58.50 424.50 C 63.64 426.27, 62.42 420.92, 65.50 418.50 C 71.75 416.59, 75.34 410.64, 80.50 408.50 C 80.44 405.23, 75.21 407.12, 72.50 406.50 C 67.13 407.07, 63.95 404.74, 59.50 405.50 C 53.71 406.28, 50.14 404.08, 45.50 404.50 Z" fill="rgb(249.01707317073172,249.65365853658537,249.5390243902439)" stroke="rgb(249.01707317073172,249.65365853658537,249.5390243902439)" stroke-width="1" />
<path d="M 148.50 93.50 C 147.44 98.53, 147.32 103.96, 147.50 109.50 C 151.08 114.80, 158.94 113.75, 164.50 115.50 C 166.43 109.42, 170.96 120.71, 170.50 113.50 C 169.10 109.37, 173.14 106.19, 169.50 103.50 C 163.00 98.48, 154.73 100.16, 149.50 94.50 Z" fill="rgb(211.66404199475065,226.18897637795277,159.1233595800525)" stroke="rgb(211.66404199475065,226.18897637795277,159.1233595800525)" stroke-width="1" />
<path d="M 107.50 408.50 C 110.33 415.33, 121.24 421.97, 122.50 431.50 C 126.79 428.18, 134.06 430.52, 136.50 427.50 C 136.61 419.59, 124.67 426.17, 129.50 417.50 C 128.32 405.77, 117.20 408.73, 108.50 408.50 Z" fill="rgb(128.30769230769232,147.03846153846155,140.8846153846154)" stroke="rgb(128.30769230769232,147.03846153846155,140.8846153846154)" stroke-width="1" />
<path d="M 106.50 408.50 C 107.49 411.98, 112.51 412.67, 113.50 416.50 C 118.39 420.84, 120.90 425.17, 122.50 430.50 C 126.91 427.45, 134.13 429.74, 136.50 426.50 C 134.63 418.45, 128.97 428.69, 128.50 420.50 C 128.87 416.93, 128.07 407.64, 122.50 408.50 C 116.83 408.50, 112.17 408.50, 107.50 408.50 Z" fill="rgb(202.39660056657223,215.22946175637395,217.74220963172806)" stroke="rgb(202.39660056657223,215.22946175637395,217.74220963172806)" stroke-width="1" />
<path d="M 120.50 453.50 C 115.84 459.26, 114.15 468.26, 105.50 470.50 C 99.05 474.02, 93.38 477.01, 87.50 479.50 C 94.33 486.04, 102.64 484.01, 110.50 483.50 C 112.37 477.50, 114.39 472.98, 116.50 468.50 C 118.58 463.01, 118.71 457.70, 121.50 453.50 Z" fill="rgb(12.046783625730994,13.461988304093568,11.7046783625731)" stroke="rgb(12.046783625730994,13.461988304093568,11.7046783625731)" stroke-width="1" />
<path d="M 195.50 362.50 C 193.88 364.39, 189.59 363.26, 189.50 366.50 C 191.76 371.84, 194.03 376.73, 199.50 377.50 C 204.25 379.76, 213.00 387.79, 214.50 380.50 C 214.40 376.10, 208.38 377.40, 208.50 373.50 C 208.89 365.82, 204.11 360.48, 196.50 362.50 Z" fill="rgb(98.42136498516321,119.13946587537092,126.10385756676558)" stroke="rgb(98.42136498516321,119.13946587537092,126.10385756676558)" stroke-width="1" />
<path d="M 109.50 287.50 C 105.91 293.54, 115.24 297.82, 113.50 304.50 C 120.95 306.39, 126.92 305.99, 130.50 299.50 C 133.59 295.94, 127.99 293.78, 126.50 292.50 C 121.20 288.47, 116.18 287.19, 110.50 287.50 Z" fill="rgb(168.55974842767296,177.77358490566039,105.77358490566037)" stroke="rgb(168.55974842767296,177.77358490566039,105.77358490566037)" stroke-width="1" />
<path d="M 22.50 367.50 C 19.97 369.81, 19.91 373.14, 17.50 375.50 C 21.14 383.87, 32.77 382.20, 38.50 378.50 C 44.68 369.73, 31.58 365.70, 23.50 367.50 Z" fill="rgb(112.49469964664311,115.16254416961131,100.14134275618375)" stroke="rgb(112.49469964664311,115.16254416961131,100.14134275618375)" stroke-width="1" />
<path d="M 122.50 449.50 C 121.37 453.78, 118.56 457.36, 119.50 462.50 C 118.26 468.62, 114.22 472.16, 114.50 477.50 C 117.55 478.79, 127.02 478.84, 123.50 475.50 C 118.79 473.48, 126.27 473.65, 125.50 470.50 C 127.94 466.49, 129.16 462.97, 130.50 459.50 C 130.98 453.36, 125.35 453.88, 123.50 449.50 Z" fill="rgb(49.20962199312715,47.29896907216495,30.982817869415808)" stroke="rgb(49.20962199312715,47.29896907216495,30.982817869415808)" stroke-width="1" />
<path d="M 70.50 154.50 C 69.36 159.31, 59.43 157.43, 62.50 162.50 C 62.81 167.96, 66.75 171.42, 71.50 170.50 C 76.06 173.59, 82.12 169.18, 80.50 164.50 C 82.02 156.96, 78.04 152.98, 71.50 154.50 Z" fill="rgb(150.30714285714285,162.70714285714286,98.93928571428572)" stroke="rgb(150.30714285714285,162.70714285714286,98.93928571428572)" stroke-width="1" />
<path d="M 226.50 501.50 C 221.88 504.09, 217.58 507.43, 211.50 506.50 C 201.43 509.70, 200.57 512.83, 211.50 511.50 C 218.83 511.50, 225.17 511.50, 231.50 511.50 C 235.67 511.61, 240.92 512.39, 239.50 507.50 C 235.71 502.73, 232.29 500.47, 227.50 501.50 Z" fill="rgb(33.83571428571429,64.56428571428572,14.339285714285714)" stroke="rgb(33.83571428571429,64.56428571428572,14.339285714285714)" stroke-width="1" />
<path d="M 142.50 182.50 C 139.17 185.08, 130.33 180.87, 132.50 188.50 C 132.50 192.97, 134.20 195.74, 133.50 199.50 C 136.11 203.61, 140.19 197.21, 142.50 195.50 C 143.01 199.88, 150.62 201.38, 150.50 200.50 C 147.54 197.70, 149.18 194.42, 147.50 192.50 C 146.90 187.76, 149.72 180.61, 143.50 182.50 Z" fill="rgb(173.93115942028984,161.70289855072463,112.19202898550725)" stroke="rgb(173.93115942028984,161.70289855072463,112.19202898550725)" stroke-width="1" />
<path d="M 301.50 488.50 C 297.39 493.02, 299.42 500.08, 297.50 505.50 C 297.12 512.17, 303.59 508.50, 305.50 506.50 C 310.29 506.53, 312.54 501.05, 308.50 498.50 C 316.03 493.73, 309.67 486.32, 302.50 488.50 Z" fill="rgb(45.54474708171206,73.72762645914396,25.373540856031127)" stroke="rgb(45.54474708171206,73.72762645914396,25.373540856031127)" stroke-width="1" />
<path d="M 291.50 186.50 C 289.30 189.73, 291.07 194.60, 290.50 198.50 C 296.45 199.47, 301.62 198.93, 305.50 201.50 C 308.25 201.10, 311.07 194.25, 308.50 190.50 C 303.39 187.96, 297.83 187.51, 292.50 186.50 Z" fill="rgb(129.66037735849056,127.37735849056604,82.86792452830188)" stroke="rgb(129.66037735849056,127.37735849056604,82.86792452830188)" stroke-width="1" />
<path d="M 169.50 496.50 C 167.65 500.11, 168.03 506.15, 162.50 506.50 C 159.15 507.78, 156.62 508.66, 154.50 510.50 C 158.17 511.50, 162.83 511.50, 167.50 511.50 C 174.19 512.94, 183.13 510.22, 179.50 503.50 C 172.83 504.35, 176.08 495.87, 170.50 496.50 Z" fill="rgb(53.03478260869565,83.68260869565218,29.808695652173913)" stroke="rgb(53.03478260869565,83.68260869565218,29.808695652173913)" stroke-width="1" />
<path d="M 135.50 400.50 C 131.53 401.35, 134.30 407.71, 130.50 408.50 C 123.36 413.25, 135.03 417.56, 139.50 416.50 C 142.13 412.60, 147.51 414.64, 149.50 410.50 C 142.53 410.58, 140.88 403.18, 136.50 400.50 Z" fill="rgb(48.266666666666666,60.0,50.31111111111111)" stroke="rgb(48.266666666666666,60.0,50.31111111111111)" stroke-width="1" />
<path d="M 33.50 354.50 C 29.70 357.15, 29.05 361.09, 29.50 365.50 C 33.44 367.12, 38.95 367.44, 40.50 371.50 C 40.34 379.13, 42.46 375.20, 42.50 370.50 C 42.83 365.36, 41.36 360.47, 44.50 357.50 C 44.64 352.36, 37.54 355.46, 34.50 354.50 Z" fill="rgb(116.35023041474655,116.963133640553,103.80645161290323)" stroke="rgb(116.35023041474655,116.963133640553,103.80645161290323)" stroke-width="1" />
<path d="M 125.50 242.50 C 123.98 245.72, 115.36 246.86, 119.50 252.50 C 124.41 253.58, 126.95 257.96, 131.50 257.50 C 136.55 260.77, 137.00 253.26, 136.50 250.50 C 131.25 245.57, 134.35 242.25, 126.50 242.50 Z" fill="rgb(36.89861751152074,44.57142857142857,25.88479262672811)" stroke="rgb(36.89861751152074,44.57142857142857,25.88479262672811)" stroke-width="1" />
<path d="M 1.50 437.50 C -0.57 443.11, 0.98 450.23, 0.50 456.50 C 5.63 451.19, 13.63 451.51, 16.50 445.50 C 13.10 439.12, 6.88 440.52, 2.50 437.50 Z" fill="rgb(103.91079812206573,114.34272300469483,75.26291079812206)" stroke="rgb(103.91079812206573,114.34272300469483,75.26291079812206)" stroke-width="1" />
<path d="M 21.50 47.50 C 10.43 50.50, 21.30 56.55, 28.50 54.50 C 33.06 56.10, 40.20 59.77, 41.50 54.50 C 43.45 50.02, 39.32 50.52, 37.50 49.50 C 32.62 46.27, 27.06 48.09, 22.50 47.50 Z" fill="rgb(91.03349282296651,105.97129186602871,60.6267942583732)" stroke="rgb(91.03349282296651,105.97129186602871,60.6267942583732)" stroke-width="1" />
<path d="M 307.50 437.50 C 303.68 439.75, 291.34 441.60, 300.50 445.50 C 299.85 451.67, 306.11 447.66, 307.50 451.50 C 309.62 447.73, 314.58 449.45, 315.50 447.50 C 318.30 441.20, 313.14 438.23, 308.50 437.50 Z" fill="rgb(35.80904522613066,75.04522613065326,15.206030150753769)" stroke="rgb(35.80904522613066,75.04522613065326,15.206030150753769)" stroke-width="1" />
<path d="M 187.50 254.50 C 184.57 256.90, 187.11 259.08, 186.50 262.50 C 183.51 269.46, 187.78 275.87, 186.50 282.50 C 185.70 287.26, 186.15 292.39, 190.50 290.50 C 190.50 285.50, 190.50 281.50, 190.50 277.50 C 190.50 272.50, 190.50 268.50, 190.50 264.50 C 189.60 260.73, 192.55 254.11, 188.50 254.50 Z" fill="rgb(65.47894736842105,68.71052631578948,68.47368421052632)" stroke="rgb(65.47894736842105,68.71052631578948,68.47368421052632)" stroke-width="1" />
<path d="M 249.50 439.50 C 244.84 440.05, 244.38 446.85, 246.50 450.50 C 250.82 453.87, 257.03 452.45, 260.50 449.50 C 262.67 441.32, 254.72 441.77, 250.50 439.50 Z" fill="rgb(18.882978723404257,49.202127659574465,8.042553191489361)" stroke="rgb(18.882978723404257,49.202127659574465,8.042553191489361)" stroke-width="1" />
<path d="M 173.50 383.50 C 164.21 389.49, 159.52 398.89, 154.50 407.50 C 158.28 404.11, 161.81 403.80, 165.50 399.50 C 165.35 389.25, 190.30 389.13, 174.50 383.50 Z" fill="rgb(65.80645161290323,83.19354838709677,63.58064516129032)" stroke="rgb(65.80645161290323,83.19354838709677,63.58064516129032)" stroke-width="1" />
<path d="M 135.50 400.50 C 131.18 401.52, 134.71 410.06, 128.50 408.50 C 127.69 416.48, 130.92 413.23, 135.50 415.50 C 141.21 417.15, 141.62 412.72, 142.50 409.50 C 139.15 407.58, 141.14 401.18, 136.50 400.50 Z" fill="rgb(41.27777777777778,44.361111111111114,41.544444444444444)" stroke="rgb(41.27777777777778,44.361111111111114,41.544444444444444)" stroke-width="1" />
<path d="M 157.50 227.50 C 160.33 229.96, 155.03 232.24, 156.50 235.50 C 163.23 237.57, 170.67 236.39, 176.50 235.50 C 178.14 231.56, 174.12 231.32, 172.50 229.50 C 166.89 229.49, 163.23 227.20, 158.50 227.50 Z" fill="rgb(27.130177514792898,44.67455621301775,16.319526627218934)" stroke="rgb(27.130177514792898,44.67455621301775,16.319526627218934)" stroke-width="1" />
<path d="M 173.50 383.50 C 167.22 388.09, 161.89 393.94, 158.50 400.50 C 157.84 405.69, 162.35 400.07, 164.50 400.50 C 165.44 394.01, 170.57 391.25, 174.50 389.50 C 182.91 391.37, 180.51 382.04, 174.50 383.50 Z" fill="rgb(69.56603773584905,82.31446540880503,68.50314465408805)" stroke="rgb(69.56603773584905,82.31446540880503,68.50314465408805)" stroke-width="1" />
<path d="M 291.50 186.50 C 290.40 189.74, 288.34 199.38, 293.50 199.50 C 300.21 201.24, 303.96 197.61, 300.50 192.50 C 301.88 186.13, 295.42 187.77, 292.50 186.50 Z" fill="rgb(192.22297297297297,184.58783783783784,152.49324324324326)" stroke="rgb(192.22297297297297,184.58783783783784,152.49324324324326)" stroke-width="1" />
</svg>