<svg xmlns="http://www.w3.org/2000/svg" width="341" height="512" viewbox="0 0 341 512">
<path d="M 0.50 0.50 C 0.50 169.50, 0.50 338.50, 0.50 507.50 C 482.40 739.61, 492.07 -221.59, 1.50 0.50 Z" fill="rgb(93.35259951834537,102.40898144213061,71.29735089956084)" stroke="rgb(93.35259951834537,102.40898144213061,71.29735089956084)" stroke-width="1" />
<path d="M 249.50 0.50 C 274.38 46.96, 247.30 130.24, 302.50 149.50 C 308.14 165.49, 301.51 169.48, 290.50 173.50 C 280.16 180.15, 298.40 172.50, 294.50 181.50 C 300.03 182.23, 303.69 184.05, 307.50 185.50 C 313.53 190.18, 312.32 199.58, 308.50 202.50 C 304.37 205.67, 299.74 206.61, 295.50 208.50 C 298.28 218.42, 291.36 231.86, 298.50 239.50 C 293.31 247.60, 289.08 257.63, 282.50 265.50 C 288.17 283.01, 276.32 295.22, 271.50 311.50 C 253.72 325.22, 233.73 340.24, 212.50 339.50 C 239.49 390.13, 84.20 398.42, 150.50 490.50 C 301.07 573.64, 381.62 467.59, 340.50 307.50 C 340.50 273.83, 340.50 241.17, 340.50 208.50 C 340.50 199.83, 340.50 192.17, 340.50 184.50 C 340.50 175.50, 340.50 167.50, 340.50 159.50 C 340.50 150.50, 340.50 142.50, 340.50 134.50 C 340.50 125.50, 340.50 117.50, 340.50 109.50 C 352.47 30.53, 340.63 -23.63, 250.50 0.50 Z" fill="rgb(68.64873417721519,93.99683544303798,44.05590717299578)" stroke="rgb(68.64873417721519,93.99683544303798,44.05590717299578)" stroke-width="1" />
<path d="M 0.50 0.50 C 0.50 12.50, 0.50 24.50, 0.50 36.50 C 0.50 47.50, 0.50 57.50, 0.50 67.50 C 0.50 78.50, 0.50 88.50, 0.50 98.50 C -3.34 116.30, 7.60 122.62, 22.50 117.50 C 33.30 115.66, 25.66 129.08, 32.50 128.50 C 44.61 133.42, 59.08 134.40, 64.50 123.50 C 78.05 114.13, 73.94 95.86, 80.50 82.50 C 91.81 71.04, 97.74 99.13, 98.50 83.50 C 102.70 71.58, 113.55 70.12, 124.50 69.50 C 166.00 56.29, 135.41 109.50, 158.50 113.50 C 168.56 122.53, 181.22 124.38, 194.50 126.50 C 204.47 127.99, 214.91 128.95, 218.50 137.50 C 244.74 134.32, 267.64 142.56, 298.50 147.50 C 466.50 28.22, 170.82 -41.38, 1.50 0.50 Z" fill="rgb(161.22100954979535,177.30832196452934,110.61323328785812)" stroke="rgb(161.22100954979535,177.30832196452934,110.61323328785812)" stroke-width="1" />
<path d="M 333.50 168.50 C 330.19 171.11, 322.02 173.50, 328.50 175.50 C 327.07 184.28, 317.10 180.65, 314.50 187.50 C 315.31 195.91, 314.01 203.76, 305.50 206.50 C 303.40 210.20, 297.14 207.64, 298.50 212.50 C 297.53 216.90, 297.27 220.60, 297.50 224.50 C 296.38 235.40, 302.42 244.70, 292.50 250.50 C 291.49 255.75, 286.47 257.09, 287.50 262.50 C 279.04 264.61, 280.16 276.81, 285.50 279.50 C 285.70 285.47, 279.04 288.01, 279.50 293.50 C 279.25 300.69, 271.07 303.61, 272.50 310.50 C 263.72 320.80, 250.85 320.66, 243.50 331.50 C 236.30 334.73, 229.04 338.87, 222.50 334.50 C 218.53 334.70, 207.36 340.73, 198.50 340.50 C 194.57 342.72, 192.71 348.31, 197.50 347.50 C 205.38 351.61, 208.18 358.88, 209.50 368.50 C 214.28 377.48, 210.73 384.91, 198.50 380.50 C 192.84 375.84, 186.38 370.08, 179.50 371.50 C 185.70 389.95, 162.13 389.48, 156.50 405.50 C 150.26 410.10, 148.07 416.02, 141.50 417.50 C 133.85 421.21, 142.96 426.60, 136.50 430.50 C 128.03 434.53, 120.09 443.88, 127.50 450.50 C 134.82 455.10, 131.84 462.56, 132.50 468.50 C 129.73 481.80, 143.27 481.00, 147.50 491.50 C 158.07 502.43, 169.26 505.29, 179.50 511.50 C 232.50 511.50, 284.50 511.50, 336.50 511.50 C 344.39 500.39, 338.58 476.58, 340.50 460.50 C 340.50 450.83, 340.50 442.17, 340.50 433.50 C 340.50 423.50, 340.50 414.50, 340.50 405.50 C 340.50 395.83, 340.50 387.17, 340.50 378.50 C 340.50 368.50, 340.50 359.50, 340.50 350.50 C 340.50 340.50, 340.50 331.50, 340.50 322.50 C 340.50 312.50, 340.50 303.50, 340.50 294.50 C 340.50 283.17, 340.50 272.83, 340.50 262.50 C 340.50 257.83, 340.50 254.17, 340.50 250.50 C 340.50 243.17, 340.50 236.83, 340.50 230.50 C 339.87 225.29, 339.08 221.15, 339.50 216.50 C 339.50 204.83, 339.50 194.17, 339.50 183.50 C 338.63 177.55, 342.39 166.95, 334.50 168.50 Z" fill="rgb(45.37261380323054,69.30032705913763,32.62858763849953)" stroke="rgb(45.37261380323054,69.30032705913763,32.62858763849953)" stroke-width="1" />
<path d="M 137.50 70.50 C 128.96 72.13, 119.82 72.34, 111.50 74.50 C 100.69 78.59, 111.31 100.95, 93.50 94.50 C 80.90 73.87, 80.78 106.84, 78.50 116.50 C 59.32 142.44, 79.28 170.67, 106.50 177.50 C 110.36 191.60, 129.52 178.16, 132.50 192.50 C 133.78 203.79, 140.92 195.78, 146.50 200.50 C 137.96 222.27, 165.60 230.01, 181.50 233.50 C 204.99 231.95, 228.93 236.45, 251.50 232.50 C 261.83 232.50, 271.17 232.50, 280.50 232.50 C 293.16 228.98, 280.97 213.71, 287.50 207.50 C 295.32 204.19, 308.81 203.41, 303.50 192.50 C 297.12 185.43, 268.14 185.34, 283.50 171.50 C 289.65 166.46, 304.55 165.41, 296.50 156.50 C 301.51 147.25, 285.14 149.16, 280.50 146.50 C 263.61 140.44, 246.54 143.80, 230.50 141.50 C 215.41 143.07, 212.88 129.04, 199.50 129.50 C 153.39 133.18, 147.14 100.36, 138.50 70.50 Z" fill="rgb(50.293010752688176,47.170967741935485,32.72043010752688)" stroke="rgb(50.293010752688176,47.170967741935485,32.72043010752688)" stroke-width="1" />
<path d="M 35.50 172.50 C 26.60 176.40, 12.73 173.25, 3.50 175.50 C 0.28 179.19, 2.44 184.70, 0.50 188.50 C 0.50 197.83, 0.50 206.17, 0.50 214.50 C 0.50 224.17, 0.50 232.83, 0.50 241.50 C 0.50 250.83, 0.50 259.17, 0.50 267.50 C 0.50 277.17, 0.50 285.83, 0.50 294.50 C -0.26 308.28, 1.73 319.93, 1.50 332.50 C -7.75 375.31, 17.34 399.81, 24.50 350.50 C 35.78 340.20, 51.95 345.14, 62.50 336.50 C 67.96 325.62, 73.23 315.71, 78.50 306.50 C 78.95 300.38, 83.45 296.76, 86.50 293.50 C 93.04 290.05, 99.43 289.67, 105.50 288.50 C 115.58 284.48, 126.37 288.70, 135.50 291.50 C 130.54 291.91, 146.06 303.45, 143.50 292.50 C 151.46 286.70, 146.85 280.25, 152.50 274.50 C 150.51 261.96, 160.45 252.03, 154.50 241.50 C 150.50 235.64, 157.79 229.63, 151.50 225.50 C 144.30 221.80, 143.78 214.75, 141.50 209.50 C 128.47 208.99, 131.60 195.23, 124.50 189.50 C 115.84 181.04, 114.98 202.30, 108.50 194.50 C 106.28 187.28, 102.81 179.17, 96.50 176.50 C 89.24 173.38, 82.37 171.73, 74.50 172.50 C 65.35 173.31, 56.93 174.81, 48.50 172.50 C 44.31 174.15, 40.61 171.60, 36.50 172.50 Z" fill="rgb(149.90852401566687,170.8217893217893,100.52030509173366)" stroke="rgb(149.90852401566687,170.8217893217893,100.52030509173366)" stroke-width="1" />
<path d="M 162.50 0.50 C 163.23 13.46, 165.08 22.89, 163.50 34.50 C 160.47 40.18, 159.24 33.26, 157.50 31.50 C 155.60 23.19, 149.28 44.36, 145.50 50.50 C 153.79 61.78, 127.10 65.10, 138.50 67.50 C 148.22 68.82, 149.68 77.54, 148.50 85.50 C 153.51 94.73, 142.80 112.84, 157.50 113.50 C 169.54 124.29, 187.36 124.51, 203.50 128.50 C 212.65 127.26, 214.25 136.40, 220.50 137.50 C 228.51 139.08, 237.09 141.96, 239.50 133.50 C 246.80 137.46, 254.38 144.85, 264.50 138.50 C 266.94 126.67, 263.76 117.99, 263.50 110.50 C 264.01 105.35, 262.43 102.41, 262.50 97.50 C 262.52 86.00, 258.83 77.03, 256.50 67.50 C 245.34 62.71, 257.98 50.58, 250.50 44.50 C 248.77 37.93, 248.63 29.52, 251.50 24.50 C 254.43 17.37, 251.25 10.94, 248.50 5.50 C 246.51 1.66, 245.26 -0.48, 241.50 0.50 C 230.17 0.50, 219.83 0.50, 209.50 0.50 C 197.83 0.50, 187.17 0.50, 176.50 0.50 C 176.26 9.30, 172.10 16.05, 173.50 26.50 C 170.98 34.87, 174.89 44.90, 170.50 51.50 C 164.66 48.98, 168.97 42.55, 166.50 38.50 C 165.83 31.21, 167.96 26.05, 166.50 20.50 C 165.70 13.63, 171.61 0.06, 163.50 0.50 Z" fill="rgb(157.02205595822616,180.96033044969215,101.11238406983088)" stroke="rgb(157.02205595822616,180.96033044969215,101.11238406983088)" stroke-width="1" />
<path d="M 248.50 0.50 C 247.58 8.17, 259.48 5.80, 259.50 13.50 C 263.50 20.42, 255.85 23.44, 252.50 27.50 C 250.10 31.98, 253.16 36.76, 250.50 40.50 C 256.46 45.84, 256.45 53.25, 252.50 58.50 C 250.62 63.45, 252.62 64.92, 256.50 65.50 C 260.43 74.12, 263.97 81.48, 263.50 90.50 C 263.20 100.65, 267.06 107.66, 266.50 116.50 C 270.19 124.33, 265.22 132.48, 268.50 139.50 C 268.47 143.86, 272.61 142.06, 274.50 142.50 C 283.46 143.49, 293.26 146.92, 301.50 149.50 C 302.04 154.97, 303.34 158.71, 304.50 162.50 C 311.21 166.97, 318.18 164.11, 324.50 167.50 C 330.05 172.22, 333.73 165.56, 338.50 166.50 C 339.50 155.50, 339.50 144.50, 339.50 133.50 C 339.50 127.50, 339.50 122.50, 339.50 117.50 C 339.69 103.77, 341.12 91.56, 340.50 78.50 C 340.50 66.83, 340.50 56.17, 340.50 45.50 C 340.50 37.50, 340.50 30.50, 340.50 23.50 C 340.50 15.17, 340.50 7.83, 340.50 0.50 C 332.50 0.50, 325.50 0.50, 318.50 0.50 C 310.17 0.50, 302.83 0.50, 295.50 0.50 C 287.17 0.50, 279.83 0.50, 272.50 0.50 C 264.17 0.50, 256.83 0.50, 249.50 0.50 Z" fill="rgb(79.64918006686834,112.66828530488776,42.75497532240089)" stroke="rgb(79.64918006686834,112.66828530488776,42.75497532240089)" stroke-width="1" />
<path d="M 232.50 314.50 C 224.31 317.31, 216.18 320.27, 206.50 319.50 C 197.92 318.76, 192.26 322.67, 184.50 321.50 C 178.70 321.52, 173.73 321.11, 169.50 322.50 C 156.16 322.21, 144.69 324.02, 133.50 326.50 C 124.65 327.52, 116.30 327.35, 108.50 328.50 C 100.56 330.77, 90.06 328.27, 84.50 331.50 C 93.56 342.66, 72.49 334.45, 68.50 341.50 C 61.54 346.51, 50.85 342.58, 48.50 349.50 C 35.19 348.10, 49.77 357.78, 43.50 367.50 C 43.70 377.03, 42.45 387.78, 40.50 395.50 C 52.45 436.40, 118.35 398.53, 128.50 416.50 C 131.32 396.08, 180.13 406.00, 177.50 367.50 C 191.70 367.54, 212.57 392.54, 207.50 365.50 C 204.21 358.81, 204.52 351.72, 197.50 349.50 C 191.91 345.09, 184.78 346.82, 178.50 346.50 C 155.82 350.12, 168.09 337.48, 180.50 340.50 C 189.82 336.40, 200.35 334.53, 209.50 335.50 C 216.43 335.68, 215.18 326.18, 221.50 327.50 C 222.17 338.05, 240.37 331.09, 244.50 323.50 C 235.99 321.83, 241.98 312.24, 233.50 314.50 Z" fill="rgb(111.91388839365305,115.98359778926725,100.69014084507042)" stroke="rgb(111.91388839365305,115.98359778926725,100.69014084507042)" stroke-width="1" />
<path d="M 0.50 0.50 C 0.50 14.83, 0.50 29.17, 0.50 43.50 C 1.50 51.50, 1.50 58.50, 1.50 65.50 C 1.50 73.50, 1.50 80.50, 1.50 87.50 C 1.50 98.83, 1.50 109.17, 1.50 119.50 C 8.77 119.82, 14.70 119.30, 20.50 118.50 C 30.23 115.19, 32.68 121.96, 32.50 125.50 C 38.65 122.72, 32.08 131.98, 39.50 129.50 C 44.79 127.71, 62.70 134.41, 60.50 127.50 C 65.73 125.16, 71.27 123.94, 71.50 117.50 C 79.81 112.76, 75.21 104.81, 78.50 96.50 C 77.56 88.95, 79.68 83.66, 84.50 79.50 C 93.00 77.69, 100.02 99.05, 99.50 82.50 C 103.84 76.61, 105.48 70.60, 104.50 63.50 C 110.80 58.14, 109.35 50.99, 109.50 44.50 C 102.17 38.29, 97.60 30.03, 89.50 26.50 C 88.70 20.43, 94.17 27.87, 94.50 18.50 C 93.05 12.21, 93.38 5.12, 94.50 0.50 C 86.17 0.50, 78.83 0.50, 71.50 0.50 C 63.17 0.50, 55.83 0.50, 48.50 0.50 C 32.17 0.50, 16.83 0.50, 1.50 0.50 Z" fill="rgb(153.17061855670104,175.4858762886598,98.87103092783505)" stroke="rgb(153.17061855670104,175.4858762886598,98.87103092783505)" stroke-width="1" />
<path d="M 326.50 437.50 C 323.46 438.87, 320.09 439.44, 316.50 439.50 C 293.40 442.83, 267.65 444.04, 248.50 442.50 C 243.30 454.17, 237.43 456.95, 227.50 460.50 C 222.14 461.51, 219.86 457.49, 215.50 458.50 C 204.73 458.10, 195.74 461.85, 190.50 468.50 C 192.96 472.12, 193.93 479.14, 198.50 480.50 C 192.80 486.15, 202.50 490.83, 202.50 497.50 C 203.22 507.48, 185.45 501.56, 193.50 511.50 C 213.50 511.50, 232.50 511.50, 251.50 511.50 C 261.83 511.50, 271.17 511.50, 280.50 511.50 C 291.17 511.50, 300.83 511.50, 310.50 511.50 C 319.83 511.50, 328.17 511.50, 336.50 511.50 C 343.21 512.54, 339.40 504.07, 340.50 500.50 C 338.27 495.62, 340.09 490.06, 339.50 485.50 C 339.50 472.50, 339.50 460.50, 339.50 448.50 C 342.18 437.99, 335.67 436.02, 327.50 437.50 Z" fill="rgb(29.88361427863163,53.68108577094695,18.83701041150223)" stroke="rgb(29.88361427863163,53.68108577094695,18.83701041150223)" stroke-width="1" />
<path d="M 136.50 70.50 C 126.85 74.49, 109.05 68.69, 105.50 80.50 C 110.01 100.32, 89.87 93.80, 85.50 84.50 C 75.06 94.73, 86.10 113.87, 73.50 120.50 C 61.57 150.01, 81.46 169.80, 108.50 178.50 C 108.77 189.67, 120.30 180.47, 125.50 184.50 C 135.77 190.51, 140.03 166.61, 127.50 166.50 C 131.55 161.01, 144.06 167.47, 141.50 157.50 C 140.42 139.49, 162.57 149.72, 173.50 146.50 C 214.26 150.64, 236.65 133.73, 186.50 127.50 C 143.44 132.55, 152.40 90.10, 137.50 70.50 Z" fill="rgb(108.80810810810812,105.14108108108108,75.06702702702702)" stroke="rgb(108.80810810810812,105.14108108108108,75.06702702702702)" stroke-width="1" />
<path d="M 49.50 356.50 C 47.11 357.68, 44.27 358.93, 44.50 362.50 C 43.18 366.88, 47.08 369.96, 44.50 372.50 C 44.68 381.72, 44.38 392.96, 44.50 402.50 C 57.62 405.01, 70.56 404.55, 82.50 406.50 C 88.06 404.70, 93.77 401.63, 98.50 404.50 C 104.63 410.02, 113.49 406.51, 120.50 407.50 C 128.17 408.75, 131.66 404.48, 134.50 399.50 C 141.96 399.43, 141.99 408.45, 149.50 406.50 C 159.46 398.51, 168.56 384.55, 177.50 378.50 C 166.98 364.88, 188.84 368.36, 185.50 363.50 C 167.91 361.43, 149.56 362.71, 133.50 362.50 C 122.68 362.70, 116.17 364.55, 107.50 365.50 C 97.32 364.80, 88.81 361.48, 78.50 362.50 C 66.32 364.80, 60.16 356.31, 50.50 356.50 Z" fill="rgb(158.43492000790044,169.18013035749556,171.72190400948054)" stroke="rgb(158.43492000790044,169.18013035749556,171.72190400948054)" stroke-width="1" />
<path d="M 184.50 235.50 C 176.41 238.28, 168.79 237.64, 160.50 238.50 C 166.10 244.85, 158.68 249.29, 160.50 257.50 C 156.91 264.72, 156.71 271.74, 158.50 278.50 C 166.12 289.28, 180.17 286.76, 190.50 291.50 C 198.86 293.80, 204.84 293.94, 212.50 294.50 C 220.73 305.96, 223.37 316.05, 240.50 309.50 C 240.43 282.56, 236.72 252.06, 217.50 237.50 C 205.80 237.05, 195.82 235.86, 185.50 235.50 Z" fill="rgb(68.16991643454038,68.99814298978644,53.31197771587744)" stroke="rgb(68.16991643454038,68.99814298978644,53.31197771587744)" stroke-width="1" />
<path d="M 95.50 420.50 C 39.09 425.03, 50.78 453.95, 10.50 455.50 C 25.44 506.80, 177.09 457.86, 96.50 420.50 Z" fill="rgb(141.64705882352942,142.97058823529412,103.92647058823529)" stroke="rgb(141.64705882352942,142.97058823529412,103.92647058823529)" stroke-width="1" />
<path d="M 194.50 175.50 C 191.27 177.70, 186.40 175.93, 182.50 176.50 C 171.38 176.53, 161.92 178.18, 151.50 177.50 C 138.39 178.03, 122.12 200.00, 142.50 195.50 C 147.93 206.70, 161.74 198.51, 171.50 200.50 C 182.50 200.50, 192.50 200.50, 202.50 200.50 C 214.22 199.91, 223.72 202.25, 234.50 201.50 C 244.63 203.45, 255.40 201.47, 264.50 203.50 C 275.62 203.53, 285.08 205.18, 295.50 204.50 C 308.09 204.04, 301.83 190.71, 296.50 188.50 C 289.47 187.37, 283.91 186.12, 278.50 184.50 C 266.65 184.42, 256.72 182.10, 246.50 180.50 C 234.15 179.21, 222.85 177.79, 211.50 176.50 C 205.52 176.11, 200.86 174.96, 195.50 175.50 Z" fill="rgb(119.23994038748137,114.28971684053651,77.05692995529061)" stroke="rgb(119.23994038748137,114.28971684053651,77.05692995529061)" stroke-width="1" />
<path d="M 99.50 419.50 C 89.69 422.76, 78.78 423.36, 68.50 425.50 C 59.28 426.36, 52.42 430.51, 45.50 434.50 C 40.79 438.94, 50.29 448.62, 54.50 451.50 C 59.21 460.17, 68.03 467.43, 65.50 476.50 C 82.64 484.61, 96.84 473.03, 110.50 466.50 C 114.71 458.51, 122.83 450.81, 116.50 443.50 C 123.31 439.14, 119.71 430.05, 119.50 424.50 C 114.50 417.34, 105.74 422.67, 100.50 419.50 Z" fill="rgb(165.11569343065693,157.2021897810219,135.26751824817518)" stroke="rgb(165.11569343065693,157.2021897810219,135.26751824817518)" stroke-width="1" />
<path d="M 243.50 142.50 C 241.24 144.63, 237.42 142.98, 234.50 143.50 C 226.04 142.73, 219.77 144.81, 212.50 144.50 C 198.13 145.41, 184.79 146.40, 171.50 147.50 C 164.98 148.18, 159.47 148.89, 153.50 148.50 C 140.76 144.07, 139.51 164.62, 145.50 165.50 C 153.36 165.64, 159.39 163.76, 166.50 164.50 C 174.50 163.50, 181.50 163.50, 188.50 163.50 C 196.56 164.12, 202.78 162.70, 209.50 162.50 C 217.50 162.18, 224.13 160.93, 231.50 161.50 C 244.12 161.34, 254.26 164.75, 265.50 165.50 C 271.11 166.31, 275.68 167.19, 280.50 167.50 C 287.13 165.28, 294.33 166.83, 299.50 163.50 C 296.71 158.50, 294.62 156.28, 298.50 151.50 C 288.30 148.18, 278.80 146.58, 269.50 144.50 C 261.01 142.61, 252.91 142.18, 244.50 142.50 Z" fill="rgb(144.3255033557047,135.71677852348992,103.66375838926174)" stroke="rgb(144.3255033557047,135.71677852348992,103.66375838926174)" stroke-width="1" />
<path d="M 34.50 470.50 C 3.59 456.40, -16.27 504.51, 12.50 511.50 C 33.82 506.01, 59.78 513.19, 59.50 487.50 C 92.19 491.26, 160.83 525.66, 102.50 485.50 C 79.08 481.46, 56.25 475.67, 35.50 470.50 Z" fill="rgb(63.75,68.5,41.0)" stroke="rgb(63.75,68.5,41.0)" stroke-width="1" />
<path d="M 241.50 238.50 C 236.67 240.25, 231.85 242.02, 226.50 242.50 C 229.48 249.04, 231.03 255.17, 234.50 260.50 C 239.22 270.65, 240.12 281.38, 242.50 291.50 C 244.73 296.19, 242.27 301.81, 244.50 305.50 C 245.08 310.73, 243.28 315.95, 245.50 319.50 C 252.95 319.80, 260.46 318.51, 262.50 312.50 C 272.06 313.33, 265.32 303.59, 270.50 302.50 C 273.31 293.43, 283.29 283.76, 275.50 275.50 C 275.59 271.74, 278.28 268.49, 274.50 266.50 C 285.40 259.61, 283.00 257.27, 282.50 245.50 C 277.89 244.49, 274.23 242.20, 269.50 242.50 C 258.23 244.10, 254.40 236.69, 242.50 238.50 Z" fill="rgb(118.1118553248493,136.08506363027462,142.12659075686537)" stroke="rgb(118.1118553248493,136.08506363027462,142.12659075686537)" stroke-width="1" />
<path d="M 33.50 470.50 C 2.67 455.71, -16.34 507.06, 13.50 511.50 C 34.51 506.22, 60.27 512.25, 59.50 487.50 C 103.71 499.40, 160.79 516.38, 89.50 482.50 C 69.49 483.63, 53.54 471.45, 34.50 470.50 Z" fill="rgb(86.67289719626169,90.71028037383178,51.71028037383178)" stroke="rgb(86.67289719626169,90.71028037383178,51.71028037383178)" stroke-width="1" />
<path d="M 94.50 0.50 C 99.78 6.49, 94.92 17.99, 101.50 22.50 C 103.47 32.49, 109.84 37.12, 115.50 43.50 C 123.48 49.29, 121.23 60.11, 127.50 66.50 C 133.91 67.42, 141.44 62.38, 144.50 57.50 C 140.21 48.80, 150.11 44.38, 148.50 36.50 C 156.74 29.71, 152.72 20.40, 154.50 11.50 C 152.50 3.50, 161.38 6.59, 158.50 0.50 C 147.50 0.50, 137.50 0.50, 127.50 0.50 C 116.17 0.50, 105.83 0.50, 95.50 0.50 Z" fill="rgb(132.7408470926059,162.5502512562814,82.73869346733669)" stroke="rgb(132.7408470926059,162.5502512562814,82.73869346733669)" stroke-width="1" />
<path d="M 213.50 238.50 C 203.76 243.23, 199.93 252.87, 200.50 263.50 C 201.80 270.45, 196.17 266.50, 192.50 267.50 C 190.95 272.46, 190.79 278.73, 190.50 286.50 C 194.39 293.74, 204.26 290.68, 210.50 293.50 C 217.73 293.46, 215.50 300.92, 219.50 304.50 C 221.88 315.83, 235.48 310.68, 241.50 309.50 C 242.32 303.47, 241.56 296.97, 240.50 291.50 C 239.01 279.68, 236.73 269.18, 232.50 259.50 C 229.07 254.34, 227.93 249.65, 225.50 245.50 C 224.85 239.31, 219.36 237.75, 214.50 238.50 Z" fill="rgb(19.128372853638595,20.377350776778414,16.545380212591986)" stroke="rgb(19.128372853638595,20.377350776778414,16.545380212591986)" stroke-width="1" />
<path d="M 22.50 118.50 C -79.29 170.13, 134.15 187.25, 55.50 154.50 C 29.37 165.55, 46.51 136.60, 29.50 130.50 C 13.70 127.60, 35.63 118.79, 23.50 118.50 Z" fill="rgb(116.11235955056179,133.52808988764045,72.25842696629213)" stroke="rgb(116.11235955056179,133.52808988764045,72.25842696629213)" stroke-width="1" />
<path d="M 36.50 470.50 C 25.52 475.44, 11.08 469.71, 0.50 473.50 C 0.50 486.83, 0.50 499.17, 0.50 511.50 C 11.06 509.55, 25.92 516.19, 30.50 506.50 C 37.67 506.23, 45.29 507.65, 50.50 507.50 C 53.64 500.89, 61.36 495.21, 57.50 488.50 C 58.80 484.35, 62.46 482.17, 62.50 478.50 C 51.96 477.93, 47.73 469.00, 37.50 470.50 Z" fill="rgb(60.10146923783287,86.24517906336088,27.39623507805326)" stroke="rgb(60.10146923783287,86.24517906336088,27.39623507805326)" stroke-width="1" />
<path d="M 35.50 381.50 C 24.83 382.50, 14.88 388.35, 1.50 387.50 C -10.57 424.09, 19.00 437.17, 48.50 430.50 C 66.08 419.92, 35.31 403.70, 33.50 394.50 C 37.13 391.73, 41.37 381.69, 36.50 381.50 Z" fill="rgb(105.43333333333334,110.74444444444444,75.67777777777778)" stroke="rgb(105.43333333333334,110.74444444444444,75.67777777777778)" stroke-width="1" />
<path d="M 137.50 70.50 C 134.92 72.66, 130.75 70.96, 127.50 71.50 C 120.28 75.48, 109.41 71.19, 105.50 78.50 C 108.38 84.81, 106.14 87.84, 108.50 92.50 C 112.50 94.12, 124.67 95.44, 118.50 101.50 C 109.33 105.02, 113.17 117.60, 113.50 125.50 C 118.16 129.91, 131.18 125.48, 139.50 126.50 C 151.76 126.54, 144.39 109.84, 146.50 102.50 C 144.18 91.08, 152.75 71.50, 138.50 70.50 Z" fill="rgb(159.37095141700405,157.93674089068827,141.96457489878543)" stroke="rgb(159.37095141700405,157.93674089068827,141.96457489878543)" stroke-width="1" />
<path d="M 189.50 202.50 C 191.72 212.96, 183.49 233.30, 197.50 233.50 C 214.34 231.74, 234.66 237.17, 247.50 230.50 C 253.06 219.90, 245.57 209.72, 238.50 203.50 C 221.84 203.15, 206.53 201.95, 190.50 202.50 Z" fill="rgb(6.904411764705882,7.404411764705882,4.911764705882353)" stroke="rgb(6.904411764705882,7.404411764705882,4.911764705882353)" stroke-width="1" />
<path d="M 1.50 137.50 C 0.36 148.29, -1.29 164.35, 2.50 173.50 C 17.98 170.26, 36.36 170.88, 51.50 170.50 C 57.94 172.77, 65.33 168.64, 71.50 171.50 C 89.75 149.13, 19.81 153.89, 2.50 138.50 Z" fill="rgb(138.5234375,151.21875,95.140625)" stroke="rgb(138.5234375,151.21875,95.140625)" stroke-width="1" />
<path d="M 12.50 322.50 C 7.53 325.02, -0.94 326.63, 0.50 334.50 C -13.42 385.67, 27.53 397.92, 25.50 350.50 C 30.38 343.91, 38.77 345.56, 41.50 339.50 C 37.25 326.28, 23.63 325.52, 13.50 322.50 Z" fill="rgb(155.23926380368098,170.7717791411043,111.82085889570553)" stroke="rgb(155.23926380368098,170.7717791411043,111.82085889570553)" stroke-width="1" />
<path d="M 148.50 119.50 C 149.16 131.01, 135.95 126.40, 128.50 128.50 C 124.17 128.03, 121.42 128.97, 118.50 129.50 C 114.56 133.45, 134.16 133.78, 141.50 133.50 C 145.30 137.93, 140.03 147.60, 146.50 147.50 C 173.29 147.75, 197.18 143.41, 222.50 142.50 C 219.57 139.34, 212.17 140.47, 213.50 133.50 C 202.51 129.66, 191.94 128.24, 181.50 126.50 C 176.64 124.35, 171.55 125.19, 167.50 123.50 C 160.64 122.64, 155.77 119.37, 149.50 119.50 Z" fill="rgb(216.60597572362278,204.51633986928104,185.09617180205416)" stroke="rgb(216.60597572362278,204.51633986928104,185.09617180205416)" stroke-width="1" />
<path d="M 0.50 0.50 C 0.50 10.83, 0.50 21.17, 0.50 31.50 C -1.02 41.30, 5.31 36.71, 9.50 34.50 C 13.07 35.00, 15.09 41.79, 18.50 38.50 C 30.79 40.63, 19.12 22.95, 31.50 25.50 C 42.69 15.82, 38.68 32.20, 49.50 29.50 C 64.98 34.67, 53.92 18.07, 48.50 13.50 C 45.77 8.39, 39.99 5.95, 41.50 0.50 C 27.50 0.50, 14.50 0.50, 1.50 0.50 Z" fill="rgb(103.12722802704364,129.94283958205287,53.16287645974186)" stroke="rgb(103.12722802704364,129.94283958205287,53.16287645974186)" stroke-width="1" />
<path d="M 95.50 293.50 C 58.31 364.26, 199.85 300.47, 95.50 293.50 Z" fill="rgb(87.92857142857143,88.21428571428571,61.42857142857143)" stroke="rgb(87.92857142857143,88.21428571428571,61.42857142857143)" stroke-width="1" />
<path d="M 157.50 289.50 C 122.35 323.95, 168.37 324.62, 198.50 317.50 C 203.51 305.56, 195.48 291.04, 181.50 291.50 C 172.94 294.58, 165.99 289.70, 158.50 289.50 Z" fill="rgb(57.532786885245905,60.09016393442623,49.122950819672134)" stroke="rgb(57.532786885245905,60.09016393442623,49.122950819672134)" stroke-width="1" />
<path d="M 95.50 99.50 C 86.76 103.42, 95.01 116.05, 92.50 124.50 C 93.04 133.08, 93.96 140.50, 93.50 148.50 C 93.50 157.17, 93.50 164.83, 93.50 172.50 C 99.89 173.52, 110.39 180.54, 111.50 172.50 C 111.50 160.17, 111.50 148.83, 111.50 137.50 C 111.10 125.19, 112.46 113.16, 110.50 102.50 C 104.66 102.06, 101.34 98.94, 96.50 99.50 Z" fill="rgb(92.50238582140423,70.0974778459441,60.22017723244717)" stroke="rgb(92.50238582140423,70.0974778459441,60.22017723244717)" stroke-width="1" />
<path d="M 85.50 81.50 C 80.86 85.51, 79.63 90.65, 80.50 97.50 C 77.26 103.24, 82.27 111.40, 77.50 115.50 C 70.96 118.25, 73.12 126.58, 70.50 131.50 C 66.30 137.62, 69.70 144.53, 69.50 150.50 C 74.99 153.61, 85.30 154.83, 81.50 166.50 C 83.02 170.67, 87.57 169.70, 90.50 171.50 C 91.50 163.17, 91.50 154.83, 91.50 146.50 C 89.54 134.84, 90.90 122.81, 90.50 111.50 C 88.79 106.13, 89.77 100.64, 87.50 96.50 C 92.14 93.42, 92.16 80.52, 86.50 81.50 Z" fill="rgb(188.73742603550295,184.8801775147929,159.5791420118343)" stroke="rgb(188.73742603550295,184.8801775147929,159.5791420118343)" stroke-width="1" />
<path d="M 218.50 162.50 C 140.99 170.16, 237.95 179.15, 269.50 182.50 C 293.66 166.40, 237.91 160.81, 219.50 162.50 Z" fill="rgb(53.21568627450981,44.568627450980394,28.607843137254903)" stroke="rgb(53.21568627450981,44.568627450980394,28.607843137254903)" stroke-width="1" />
<path d="M 219.50 162.50 C 209.97 165.11, 199.08 164.43, 188.50 164.50 C 181.50 164.19, 185.14 174.15, 188.50 174.50 C 207.81 173.47, 224.03 177.49, 241.50 178.50 C 253.12 179.01, 261.85 183.06, 272.50 182.50 C 281.19 182.84, 275.68 174.56, 276.50 169.50 C 270.11 168.78, 265.67 166.75, 260.50 166.50 C 247.13 163.65, 234.29 161.91, 220.50 162.50 Z" fill="rgb(55.340167753960856,46.64119291705499,28.752096924510717)" stroke="rgb(55.340167753960856,46.64119291705499,28.752096924510717)" stroke-width="1" />
<path d="M 23.50 382.50 C 13.30 389.21, -4.44 386.64, 0.50 405.50 C -1.77 465.15, 61.52 380.49, 24.50 382.50 Z" fill="rgb(87.61538461538461,108.76923076923077,57.92307692307692)" stroke="rgb(87.61538461538461,108.76923076923077,57.92307692307692)" stroke-width="1" />
<path d="M 1.50 343.50 C -29.54 397.67, 67.13 386.89, 26.50 364.50 C 35.46 345.90, 13.77 348.36, 2.50 344.50 Z" fill="rgb(121.72727272727273,129.12121212121212,89.27272727272727)" stroke="rgb(121.72727272727273,129.12121212121212,89.27272727272727)" stroke-width="1" />
<path d="M 36.50 381.50 C 31.64 384.78, 23.15 379.31, 19.50 385.50 C 12.72 387.23, 6.74 388.48, 1.50 391.50 C 1.17 406.61, -4.80 432.95, 15.50 422.50 C 21.12 422.98, 17.36 429.41, 22.50 425.50 C 21.81 415.50, 30.17 410.66, 30.50 402.50 C 33.72 396.15, 42.89 385.76, 37.50 381.50 Z" fill="rgb(144.09014321819714,157.55602358887953,106.3150800336984)" stroke="rgb(144.09014321819714,157.55602358887953,106.3150800336984)" stroke-width="1" />
<path d="M 27.50 443.50 C 17.81 447.61, 2.82 456.41, 8.50 469.50 C 18.25 471.13, 28.60 473.11, 36.50 468.50 C 46.38 465.90, 50.85 477.28, 58.50 474.50 C 63.71 479.14, 64.25 471.92, 64.50 468.50 C 64.16 463.12, 55.47 462.61, 56.50 456.50 C 51.59 451.93, 40.88 441.07, 43.50 453.50 C 34.42 458.48, 34.41 442.82, 28.50 443.50 Z" fill="rgb(176.07969151670952,169.38817480719794,138.95886889460155)" stroke="rgb(176.07969151670952,169.38817480719794,138.95886889460155)" stroke-width="1" />
<path d="M 62.50 491.50 C 59.52 498.39, 56.29 503.29, 51.50 509.50 C 45.55 510.26, 26.87 504.59, 31.50 511.50 C 41.17 511.50, 49.83 511.50, 58.50 511.50 C 69.17 511.50, 78.83 511.50, 88.50 511.50 C 99.50 511.50, 109.50 511.50, 119.50 511.50 C 116.93 508.56, 114.33 502.67, 109.50 505.50 C 106.11 500.38, 105.29 493.94, 98.50 495.50 C 93.21 502.44, 87.67 488.01, 81.50 493.50 C 74.94 492.57, 69.64 491.02, 63.50 491.50 Z" fill="rgb(155.23159784560144,142.47755834829442,95.10771992818671)" stroke="rgb(155.23159784560144,142.47755834829442,95.10771992818671)" stroke-width="1" />
<path d="M 151.50 287.50 C 142.77 293.46, 152.08 311.61, 143.50 307.50 C 138.03 320.89, 150.06 321.98, 160.50 320.50 C 168.91 320.61, 180.21 322.08, 177.50 311.50 C 177.87 295.98, 166.95 286.80, 152.50 287.50 Z" fill="rgb(131.03975535168195,126.93170234454638,105.29459734964323)" stroke="rgb(131.03975535168195,126.93170234454638,105.29459734964323)" stroke-width="1" />
<path d="M 169.50 201.50 C 161.97 205.10, 150.22 198.53, 144.50 206.50 C 144.19 215.20, 149.39 220.59, 154.50 225.50 C 165.72 225.56, 173.45 230.62, 182.50 232.50 C 182.04 221.89, 183.55 211.46, 181.50 202.50 C 177.17 201.50, 173.83 201.50, 170.50 201.50 Z" fill="rgb(66.44248704663212,73.15233160621761,34.70155440414508)" stroke="rgb(66.44248704663212,73.15233160621761,34.70155440414508)" stroke-width="1" />
<path d="M 0.50 137.50 C 0.50 148.83, 0.50 160.17, 0.50 171.50 C 7.30 173.88, 12.29 166.53, 16.50 171.50 C 22.53 168.86, 30.72 168.61, 32.50 162.50 C 37.37 148.35, 23.86 146.48, 17.50 138.50 C 12.00 141.94, 6.30 140.09, 1.50 137.50 Z" fill="rgb(110.60726072607261,122.75797579757976,70.53245324532453)" stroke="rgb(110.60726072607261,122.75797579757976,70.53245324532453)" stroke-width="1" />
<path d="M 1.50 343.50 C -0.79 351.02, 1.14 360.29, 0.50 368.50 C 0.50 373.83, 0.50 378.17, 0.50 382.50 C 6.33 385.83, 13.98 384.20, 19.50 382.50 C 16.24 377.34, 17.83 371.51, 20.50 367.50 C 27.29 366.15, 31.66 355.65, 25.50 352.50 C 23.17 340.53, 7.42 353.22, 2.50 343.50 Z" fill="rgb(114.9806157354618,127.23717217787913,83.04561003420753)" stroke="rgb(114.9806157354618,127.23717217787913,83.04561003420753)" stroke-width="1" />
<path d="M 95.50 293.50 C 85.67 298.31, 84.35 311.06, 83.50 321.50 C 82.22 331.12, 93.94 326.22, 99.50 327.50 C 102.17 326.52, 110.36 327.61, 107.50 323.50 C 111.62 314.96, 113.36 306.44, 111.50 297.50 C 107.50 291.48, 101.31 294.16, 96.50 293.50 Z" fill="rgb(144.42857142857142,140.9690026954178,119.53638814016172)" stroke="rgb(144.42857142857142,140.9690026954178,119.53638814016172)" stroke-width="1" />
<path d="M 63.50 478.50 C 59.54 483.36, 67.31 485.07, 67.50 489.50 C 76.32 493.15, 82.55 490.00, 90.50 492.50 C 93.11 493.85, 92.07 497.60, 95.50 496.50 C 101.96 490.26, 108.75 497.94, 109.50 503.50 C 115.42 496.49, 122.29 518.39, 125.50 508.50 C 138.12 510.36, 122.62 498.72, 118.50 497.50 C 112.71 491.55, 112.33 483.66, 103.50 485.50 C 94.54 486.85, 89.71 479.11, 82.50 481.50 C 76.31 480.01, 70.88 478.10, 64.50 478.50 Z" fill="rgb(47.76923076923077,75.50928381962865,21.124668435013263)" stroke="rgb(47.76923076923077,75.50928381962865,21.124668435013263)" stroke-width="1" />
<path d="M 34.50 397.50 C 32.24 401.25, 31.58 405.67, 29.50 409.50 C 23.39 417.16, 21.54 433.87, 34.50 432.50 C 43.59 433.77, 54.29 430.39, 56.50 423.50 C 49.17 414.35, 44.16 405.30, 35.50 398.50 Z" fill="rgb(182.39970501474926,177.8259587020649,149.6873156342183)" stroke="rgb(182.39970501474926,177.8259587020649,149.6873156342183)" stroke-width="1" />
<path d="M 49.50 154.50 C 44.89 158.09, 33.50 153.10, 35.50 162.50 C 32.52 170.44, 45.44 173.55, 49.50 169.50 C 56.41 173.93, 63.61 168.02, 69.50 171.50 C 97.43 158.69, 64.00 154.79, 50.50 154.50 Z" fill="rgb(121.16355140186916,137.7663551401869,78.50233644859813)" stroke="rgb(121.16355140186916,137.7663551401869,78.50233644859813)" stroke-width="1" />
<path d="M 215.50 203.50 C 210.02 211.08, 208.39 220.26, 204.50 228.50 C 211.56 230.03, 216.97 232.12, 223.50 231.50 C 229.27 223.29, 232.06 214.26, 235.50 205.50 C 229.02 203.57, 222.89 203.23, 216.50 203.50 Z" fill="rgb(10.49763779527559,11.489763779527559,5.411023622047244)" stroke="rgb(10.49763779527559,11.489763779527559,5.411023622047244)" stroke-width="1" />
<path d="M 148.50 92.50 C 144.34 105.88, 149.00 116.49, 163.50 115.50 C 165.14 125.95, 179.49 123.61, 188.50 124.50 C 186.85 114.14, 178.94 113.01, 172.50 111.50 C 173.22 96.36, 154.48 102.21, 149.50 92.50 Z" fill="rgb(185.9764705882353,208.41960784313724,125.68627450980392)" stroke="rgb(185.9764705882353,208.41960784313724,125.68627450980392)" stroke-width="1" />
<path d="M 21.50 119.50 C 12.16 123.48, -4.81 116.59, 0.50 133.50 C 1.98 137.25, 10.23 138.60, 11.50 138.50 C 16.00 129.58, 18.99 142.02, 23.50 142.50 C 29.10 151.08, 37.92 133.28, 35.50 151.50 C 41.14 146.55, 37.85 140.59, 35.50 134.50 C 30.70 133.29, 28.42 129.42, 24.50 129.50 C 8.91 125.82, 38.30 117.64, 22.50 119.50 Z" fill="rgb(41.14331723027375,74.15458937198068,11.636070853462158)" stroke="rgb(41.14331723027375,74.15458937198068,11.636070853462158)" stroke-width="1" />
<path d="M 131.50 300.50 C 125.31 311.11, 110.86 300.00, 111.50 315.50 C 101.97 327.98, 121.21 326.51, 128.50 324.50 C 134.03 324.15, 142.14 324.66, 141.50 318.50 C 139.91 311.15, 135.51 304.86, 132.50 300.50 Z" fill="rgb(149.04448105436575,148.92421746293246,121.32784184514003)" stroke="rgb(149.04448105436575,148.92421746293246,121.32784184514003)" stroke-width="1" />
<path d="M 36.50 133.50 C 40.03 140.19, 41.51 147.09, 38.50 154.50 C 48.53 152.91, 56.87 156.29, 65.50 157.50 C 69.17 150.66, 65.77 145.42, 66.50 138.50 C 55.99 138.21, 47.46 134.11, 37.50 133.50 Z" fill="rgb(216.65042016806723,218.82857142857142,176.78655462184875)" stroke="rgb(216.65042016806723,218.82857142857142,176.78655462184875)" stroke-width="1" />
<path d="M 155.50 134.50 C 151.72 137.42, 139.53 132.28, 143.50 140.50 C 140.61 152.51, 150.79 146.10, 157.50 147.50 C 165.62 147.13, 172.38 145.87, 179.50 145.50 C 187.50 145.18, 194.13 143.93, 201.50 144.50 C 215.76 143.80, 201.66 139.80, 195.50 140.50 C 184.59 140.57, 176.70 135.73, 166.50 136.50 C 162.17 136.67, 159.20 132.59, 156.50 135.50 Z" fill="rgb(59.256281407035175,41.09380234505863,23.3249581239531)" stroke="rgb(59.256281407035175,41.09380234505863,23.3249581239531)" stroke-width="1" />
<path d="M 64.50 456.50 C 56.54 462.17, 67.94 463.66, 65.50 471.50 C 63.21 480.96, 74.97 476.35, 79.50 479.50 C 86.57 478.23, 102.98 475.04, 95.50 467.50 C 82.81 465.80, 78.96 453.76, 65.50 456.50 Z" fill="rgb(48.09152542372881,41.21694915254237,21.701694915254237)" stroke="rgb(48.09152542372881,41.21694915254237,21.701694915254237)" stroke-width="1" />
<path d="M 190.50 202.50 C 188.38 211.74, 189.51 223.18, 190.50 232.50 C 195.47 232.58, 199.60 233.03, 202.50 230.50 C 206.24 221.67, 208.76 213.33, 212.50 205.50 C 206.87 200.52, 198.42 203.35, 191.50 202.50 Z" fill="rgb(11.73076923076923,12.821678321678322,6.631118881118881)" stroke="rgb(11.73076923076923,12.821678321678322,6.631118881118881)" stroke-width="1" />
<path d="M 92.50 404.50 C 81.68 406.59, 73.85 415.88, 64.50 421.50 C 63.22 427.03, 74.30 423.46, 77.50 422.50 C 88.21 423.18, 96.17 416.71, 105.50 419.50 C 122.46 420.39, 100.29 404.91, 93.50 404.50 Z" fill="rgb(140.69077757685352,143.1772151898734,141.70524412296564)" stroke="rgb(140.69077757685352,143.1772151898734,141.70524412296564)" stroke-width="1" />
<path d="M 2.50 425.50 C -5.70 448.19, 38.14 435.66, 39.50 453.50 C 56.17 434.59, 17.95 432.86, 3.50 425.50 Z" fill="rgb(121.275,122.95,85.7)" stroke="rgb(121.275,122.95,85.7)" stroke-width="1" />
<path d="M 173.50 292.50 C 174.61 300.73, 178.89 307.65, 178.50 316.50 C 182.00 321.99, 194.29 319.09, 199.50 316.50 C 201.52 309.56, 193.47 311.14, 194.50 305.50 C 196.37 292.29, 185.09 291.27, 174.50 292.50 Z" fill="rgb(83.78544776119404,87.15111940298507,84.81902985074628)" stroke="rgb(83.78544776119404,87.15111940298507,84.81902985074628)" stroke-width="1" />
<path d="M 2.50 425.50 C -1.11 426.63, 1.10 431.31, 0.50 434.50 C 8.88 437.10, 15.88 444.64, 23.50 442.50 C 35.36 436.77, 32.51 451.54, 39.50 453.50 C 46.34 451.30, 36.28 444.96, 44.50 444.50 C 41.21 436.63, 32.57 432.30, 22.50 432.50 C 14.92 431.58, 10.75 424.82, 3.50 425.50 Z" fill="rgb(54.52247191011236,83.41011235955057,25.11423220973783)" stroke="rgb(54.52247191011236,83.41011235955057,25.11423220973783)" stroke-width="1" />
<path d="M 170.50 361.50 C 168.24 363.63, 164.42 361.98, 161.50 362.50 C 159.23 367.54, 160.73 380.90, 162.50 389.50 C 167.79 388.54, 171.02 381.58, 177.50 382.50 C 178.41 375.77, 171.83 365.58, 182.50 367.50 C 185.44 367.18, 189.45 370.88, 189.50 369.50 C 188.57 360.06, 178.59 361.43, 171.50 361.50 Z" fill="rgb(38.26274509803922,49.78823529411765,52.40196078431372)" stroke="rgb(38.26274509803922,49.78823529411765,52.40196078431372)" stroke-width="1" />
<path d="M 162.50 165.50 C 86.15 178.72, 208.48 182.17, 162.50 165.50 Z" fill="rgb(55.666666666666664,42.333333333333336,19.666666666666668)" stroke="rgb(55.666666666666664,42.333333333333336,19.666666666666668)" stroke-width="1" />
<path d="M 34.50 354.50 C -7.54 389.61, 66.58 381.45, 34.50 354.50 Z" fill="rgb(72.96969696969697,76.93939393939394,59.484848484848484)" stroke="rgb(72.96969696969697,76.93939393939394,59.484848484848484)" stroke-width="1" />
<path d="M 162.50 165.50 C 156.13 167.70, 148.81 167.59, 141.50 167.50 C 132.63 166.12, 135.67 175.84, 137.50 179.50 C 145.32 186.09, 147.32 174.82, 155.50 176.50 C 163.48 176.59, 169.98 175.52, 176.50 174.50 C 180.56 163.58, 170.76 165.37, 163.50 165.50 Z" fill="rgb(46.27180527383367,36.48073022312373,22.53549695740365)" stroke="rgb(46.27180527383367,36.48073022312373,22.53549695740365)" stroke-width="1" />
<path d="M 237.50 205.50 C 232.99 213.48, 230.52 222.31, 226.50 230.50 C 229.22 234.46, 233.65 233.28, 237.50 233.50 C 245.59 235.21, 249.41 229.76, 249.50 223.50 C 248.14 216.46, 245.80 207.56, 238.50 205.50 Z" fill="rgb(11.238095238095237,9.944099378881987,4.233954451345756)" stroke="rgb(11.238095238095237,9.944099378881987,4.233954451345756)" stroke-width="1" />
<path d="M 205.50 348.50 C 200.58 353.45, 213.39 357.84, 208.50 361.50 C 210.60 370.35, 214.44 377.47, 218.50 384.50 C 226.36 382.97, 223.19 374.88, 225.50 370.50 C 227.12 364.85, 227.51 357.23, 221.50 355.50 C 215.84 353.81, 211.76 349.72, 206.50 348.50 Z" fill="rgb(98.67567567567568,114.51559251559252,69.94386694386695)" stroke="rgb(98.67567567567568,114.51559251559252,69.94386694386695)" stroke-width="1" />
<path d="M 178.50 253.50 C 172.74 283.84, 188.94 300.72, 190.50 274.50 C 190.70 263.68, 193.17 250.66, 179.50 253.50 Z" fill="rgb(63.2027027027027,62.9054054054054,57.439189189189186)" stroke="rgb(63.2027027027027,62.9054054054054,57.439189189189186)" stroke-width="1" />
<path d="M 172.50 262.50 C 164.28 264.38, 159.74 270.96, 159.50 277.50 C 158.87 283.03, 163.50 284.67, 166.50 288.50 C 170.93 289.19, 173.07 286.81, 176.50 287.50 C 176.12 278.67, 180.93 265.96, 173.50 262.50 Z" fill="rgb(23.33009708737864,27.29126213592233,16.65776699029126)" stroke="rgb(23.33009708737864,27.29126213592233,16.65776699029126)" stroke-width="1" />
<path d="M 43.50 404.50 C 51.91 409.76, 57.74 434.35, 65.50 419.50 C 96.96 403.45, 60.17 406.38, 44.50 404.50 Z" fill="rgb(214.57692307692307,217.26923076923077,214.84615384615384)" stroke="rgb(214.57692307692307,217.26923076923077,214.84615384615384)" stroke-width="1" />
<path d="M 44.50 404.50 C 47.46 411.87, 56.02 416.93, 58.50 424.50 C 63.64 426.27, 62.42 420.92, 65.50 418.50 C 72.54 414.67, 89.60 403.78, 72.50 406.50 C 62.99 405.46, 54.01 405.54, 45.50 404.50 Z" fill="rgb(249.120987654321,249.73333333333332,249.6074074074074)" stroke="rgb(249.120987654321,249.73333333333332,249.6074074074074)" stroke-width="1" />
<path d="M 148.50 93.50 C 148.16 99.82, 143.71 113.70, 153.50 113.50 C 165.63 116.09, 174.25 117.82, 170.50 104.50 C 163.41 99.11, 155.11 100.04, 149.50 94.50 Z" fill="rgb(210.34715025906735,225.0984455958549,157.78497409326425)" stroke="rgb(210.34715025906735,225.0984455958549,157.78497409326425)" stroke-width="1" />
<path d="M 107.50 408.50 C 106.68 411.65, 113.97 414.08, 114.50 418.50 C 121.67 420.38, 119.78 435.97, 126.50 429.50 C 148.12 426.52, 123.74 423.82, 127.50 411.50 C 122.63 406.31, 114.70 409.49, 108.50 408.50 Z" fill="rgb(132.16666666666666,152.875,130.83333333333334)" stroke="rgb(132.16666666666666,152.875,130.83333333333334)" stroke-width="1" />
<path d="M 106.50 408.50 C 111.88 415.67, 120.04 421.47, 122.50 430.50 C 126.91 427.45, 134.13 429.74, 136.50 426.50 C 134.63 418.45, 128.97 428.69, 128.50 420.50 C 130.95 407.70, 117.96 407.36, 107.50 408.50 Z" fill="rgb(201.0593220338983,213.9463276836158,216.42090395480227)" stroke="rgb(201.0593220338983,213.9463276836158,216.42090395480227)" stroke-width="1" />
<path d="M 120.50 453.50 C 115.61 466.83, 102.18 472.98, 89.50 478.50 C 105.19 496.81, 119.00 470.96, 121.50 453.50 Z" fill="rgb(4.634854771784233,5.933609958506224,3.3112033195020745)" stroke="rgb(4.634854771784233,5.933609958506224,3.3112033195020745)" stroke-width="1" />
<path d="M 195.50 362.50 C 184.62 363.68, 192.33 376.66, 199.50 377.50 C 204.25 379.76, 213.00 387.79, 214.50 380.50 C 206.26 376.00, 210.96 358.95, 196.50 362.50 Z" fill="rgb(99.5701219512195,120.58536585365853,127.27439024390245)" stroke="rgb(99.5701219512195,120.58536585365853,127.27439024390245)" stroke-width="1" />
<path d="M 109.50 287.50 C 105.91 293.54, 115.24 297.82, 113.50 304.50 C 120.95 306.39, 126.92 305.99, 130.50 299.50 C 130.30 291.24, 118.29 286.84, 110.50 287.50 Z" fill="rgb(168.7079365079365,177.92380952380952,105.80952380952381)" stroke="rgb(168.7079365079365,177.92380952380952,105.80952380952381)" stroke-width="1" />
<path d="M 22.50 367.50 C 20.39 370.65, 17.97 373.67, 17.50 377.50 C 24.59 384.27, 35.49 380.89, 40.50 377.50 C 41.86 366.86, 30.65 367.16, 23.50 367.50 Z" fill="rgb(111.34285714285714,114.08214285714286,99.26785714285714)" stroke="rgb(111.34285714285714,114.08214285714286,99.26785714285714)" stroke-width="1" />
<path d="M 122.50 449.50 C 118.92 457.46, 119.20 467.01, 114.50 474.50 C 113.19 480.83, 121.88 478.26, 124.50 477.50 C 117.97 475.82, 129.61 467.74, 129.50 461.50 C 133.83 454.62, 125.39 453.92, 123.50 449.50 Z" fill="rgb(49.84375,47.96875,31.416666666666668)" stroke="rgb(49.84375,47.96875,31.416666666666668)" stroke-width="1" />
<path d="M 70.50 154.50 C 59.94 157.09, 59.53 170.60, 71.50 170.50 C 83.72 176.03, 84.19 149.15, 71.50 154.50 Z" fill="rgb(152.89716312056737,164.71985815602838,101.86170212765957)" stroke="rgb(152.89716312056737,164.71985815602838,101.86170212765957)" stroke-width="1" />
<path d="M 226.50 501.50 C 220.40 507.84, 205.43 505.39, 202.50 511.50 C 216.44 513.30, 256.67 511.56, 227.50 501.50 Z" fill="rgb(28.391304347826086,57.32608695652174,15.079710144927537)" stroke="rgb(28.391304347826086,57.32608695652174,15.079710144927537)" stroke-width="1" />
<path d="M 142.50 182.50 C 139.17 185.08, 130.33 180.87, 132.50 188.50 C 131.89 199.82, 135.97 205.17, 142.50 195.50 C 143.01 199.88, 150.62 201.38, 150.50 200.50 C 144.85 195.18, 151.71 181.68, 143.50 182.50 Z" fill="rgb(174.0915750915751,162.3040293040293,112.28205128205128)" stroke="rgb(174.0915750915751,162.3040293040293,112.28205128205128)" stroke-width="1" />
<path d="M 301.50 488.50 C 297.39 493.02, 299.42 500.08, 297.50 505.50 C 298.84 513.16, 316.34 505.21, 308.50 498.50 C 316.03 493.73, 309.67 486.32, 302.50 488.50 Z" fill="rgb(45.49802371541502,73.59683794466403,25.462450592885375)" stroke="rgb(45.49802371541502,73.59683794466403,25.462450592885375)" stroke-width="1" />
<path d="M 291.50 186.50 C 281.42 203.08, 317.26 206.71, 308.50 190.50 C 303.39 187.96, 297.83 187.51, 292.50 186.50 Z" fill="rgb(128.21052631578948,125.33333333333333,80.96491228070175)" stroke="rgb(128.21052631578948,125.33333333333333,80.96491228070175)" stroke-width="1" />
<path d="M 169.50 496.50 C 172.64 506.44, 148.78 509.15, 157.50 511.50 C 175.51 515.66, 187.65 504.93, 170.50 496.50 Z" fill="rgb(40.716981132075475,68.84905660377359,21.88679245283019)" stroke="rgb(40.716981132075475,68.84905660377359,21.88679245283019)" stroke-width="1" />
<path d="M 135.50 400.50 C 117.20 413.05, 141.63 422.90, 148.50 409.50 C 141.63 409.26, 140.73 402.69, 136.50 400.50 Z" fill="rgb(60.0,70.6938775510204,64.18367346938776)" stroke="rgb(60.0,70.6938775510204,64.18367346938776)" stroke-width="1" />
<path d="M 33.50 354.50 C 22.84 363.86, 34.50 367.35, 40.50 371.50 C 43.36 383.25, 40.75 360.91, 44.50 357.50 C 44.64 352.36, 37.54 355.46, 34.50 354.50 Z" fill="rgb(117.23287671232876,117.662100456621,104.32420091324201)" stroke="rgb(117.23287671232876,117.662100456621,104.32420091324201)" stroke-width="1" />
<path d="M 125.50 242.50 C 123.98 245.72, 115.36 246.86, 119.50 252.50 C 125.57 256.33, 138.92 263.11, 136.50 250.50 C 131.25 245.57, 134.35 242.25, 126.50 242.50 Z" fill="rgb(37.22935779816514,44.95871559633027,25.98165137614679)" stroke="rgb(37.22935779816514,44.95871559633027,25.98165137614679)" stroke-width="1" />
<path d="M 1.50 437.50 C -0.57 443.11, 0.98 450.23, 0.50 456.50 C 5.63 451.19, 13.63 451.51, 16.50 445.50 C 13.10 439.12, 6.88 440.52, 2.50 437.50 Z" fill="rgb(103.91079812206573,114.34272300469483,75.26291079812206)" stroke="rgb(103.91079812206573,114.34272300469483,75.26291079812206)" stroke-width="1" />
<path d="M 21.50 47.50 C 10.43 50.50, 21.30 56.55, 28.50 54.50 C 33.06 56.10, 40.20 59.77, 41.50 54.50 C 40.08 46.67, 29.78 47.28, 22.50 47.50 Z" fill="rgb(91.43062200956938,106.26794258373205,61.03349282296651)" stroke="rgb(91.43062200956938,106.26794258373205,61.03349282296651)" stroke-width="1" />
<path d="M 307.50 437.50 C 276.27 449.61, 336.65 453.74, 307.50 437.50 Z" fill="rgb(46.568627450980394,85.3529411764706,38.90196078431372)" stroke="rgb(46.568627450980394,85.3529411764706,38.90196078431372)" stroke-width="1" />
<path d="M 187.50 254.50 C 184.40 262.35, 186.35 272.79, 186.50 282.50 C 185.70 287.26, 186.15 292.39, 190.50 290.50 C 190.50 281.17, 190.50 272.83, 190.50 264.50 C 189.60 260.73, 192.55 254.11, 188.50 254.50 Z" fill="rgb(65.41450777202073,68.65803108808291,68.3678756476684)" stroke="rgb(65.41450777202073,68.65803108808291,68.3678756476684)" stroke-width="1" />
<path d="M 249.50 439.50 C 237.77 445.26, 252.13 459.72, 260.50 449.50 C 262.67 441.32, 254.72 441.77, 250.50 439.50 Z" fill="rgb(18.92896174863388,49.31147540983606,8.0)" stroke="rgb(18.92896174863388,49.31147540983606,8.0)" stroke-width="1" />
<path d="M 173.50 383.50 C 162.85 389.38, 146.03 418.48, 164.50 400.50 C 164.75 389.66, 190.09 389.21, 174.50 383.50 Z" fill="rgb(66.0,83.72727272727273,65.27272727272727)" stroke="rgb(66.0,83.72727272727273,65.27272727272727)" stroke-width="1" />
<path d="M 135.50 400.50 C 133.43 405.86, 122.90 412.57, 131.50 414.50 C 143.07 422.42, 145.79 403.70, 136.50 400.50 Z" fill="rgb(36.98275862068966,40.81896551724138,38.38793103448276)" stroke="rgb(36.98275862068966,40.81896551724138,38.38793103448276)" stroke-width="1" />
<path d="M 157.50 227.50 C 151.95 238.95, 168.21 237.16, 176.50 235.50 C 175.15 227.97, 164.93 228.84, 158.50 227.50 Z" fill="rgb(29.794117647058822,47.59411764705882,18.270588235294117)" stroke="rgb(29.794117647058822,47.59411764705882,18.270588235294117)" stroke-width="1" />
<path d="M 173.50 383.50 C 167.04 386.51, 150.59 407.68, 164.50 400.50 C 162.94 388.66, 190.73 389.65, 174.50 383.50 Z" fill="rgb(59.330275229357795,72.3211009174312,58.11926605504587)" stroke="rgb(59.330275229357795,72.3211009174312,58.11926605504587)" stroke-width="1" />
<path d="M 291.50 186.50 C 290.40 189.74, 288.34 199.38, 293.50 199.50 C 306.42 203.34, 302.03 183.42, 292.50 186.50 Z" fill="rgb(189.38,182.58,149.92)" stroke="rgb(189.38,182.58,149.92)" stroke-width="1" />
<path d="M 316.50 395.50 C 308.59 394.47, 293.41 406.55, 309.50 404.50 C 317.07 407.87, 324.22 400.47, 317.50 395.50 Z" fill="rgb(6.883116883116883,14.519480519480519,5.467532467532467)" stroke="rgb(6.883116883116883,14.519480519480519,5.467532467532467)" stroke-width="1" />
<path d="M 228.50 163.50 C 227.10 171.59, 228.47 182.18, 237.50 176.50 C 237.86 168.47, 239.08 160.59, 229.50 163.50 Z" fill="rgb(37.795918367346935,31.693877551020407,17.299319727891156)" stroke="rgb(37.795918367346935,31.693877551020407,17.299319727891156)" stroke-width="1" />
<path d="M 309.50 438.50 C 308.86 441.84, 304.60 442.35, 302.50 444.50 C 302.56 459.52, 327.34 442.85, 310.50 438.50 Z" fill="rgb(31.595744680851062,70.22695035460993,6.524822695035461)" stroke="rgb(31.595744680851062,70.22695035460993,6.524822695035461)" stroke-width="1" />
<path d="M 227.50 500.50 C 218.43 507.82, 232.68 515.67, 239.50 510.50 C 238.42 504.63, 233.25 501.31, 228.50 500.50 Z" fill="rgb(39.21917808219178,71.66438356164383,13.952054794520548)" stroke="rgb(39.21917808219178,71.66438356164383,13.952054794520548)" stroke-width="1" />
<path d="M 171.50 495.50 C 158.20 501.18, 178.58 517.68, 181.50 504.50 C 173.62 504.49, 176.89 498.01, 172.50 495.50 Z" fill="rgb(62.08029197080292,92.64233576642336,36.91970802919708)" stroke="rgb(62.08029197080292,92.64233576642336,36.91970802919708)" stroke-width="1" />
<path d="M 243.50 455.50 C 233.79 461.05, 245.10 473.44, 252.50 461.50 C 255.79 455.94, 248.21 455.25, 244.50 455.50 Z" fill="rgb(18.686567164179106,48.71641791044776,8.022388059701493)" stroke="rgb(18.686567164179106,48.71641791044776,8.022388059701493)" stroke-width="1" />
<path d="M 158.50 0.50 C 157.74 9.95, 160.08 18.12, 159.50 27.50 C 158.67 32.39, 162.18 40.06, 162.50 32.50 C 158.93 21.82, 165.79 7.22, 159.50 0.50 Z" fill="rgb(131.74615384615385,150.30769230769232,98.6)" stroke="rgb(131.74615384615385,150.30769230769232,98.6)" stroke-width="1" />
<path d="M 103.50 298.50 C 91.33 299.51, 100.89 311.44, 108.50 312.50 C 111.89 306.49, 106.88 302.17, 104.50 298.50 Z" fill="rgb(79.63235294117646,78.5,60.27205882352941)" stroke="rgb(79.63235294117646,78.5,60.27205882352941)" stroke-width="1" />
<path d="M 178.50 254.50 C 176.29 262.38, 179.67 270.75, 178.50 279.50 C 179.04 282.74, 177.00 287.44, 180.50 287.50 C 181.57 275.72, 181.69 263.36, 179.50 254.50 Z" fill="rgb(85.65384615384616,90.11538461538461,88.92307692307692)" stroke="rgb(85.65384615384616,90.11538461538461,88.92307692307692)" stroke-width="1" />
<path d="M 164.50 237.50 C 161.77 241.72, 170.72 251.06, 177.50 250.50 C 179.86 243.48, 170.73 239.14, 165.50 237.50 Z" fill="rgb(69.87301587301587,79.55555555555556,65.18253968253968)" stroke="rgb(69.87301587301587,79.55555555555556,65.18253968253968)" stroke-width="1" />
<path d="M 6.50 453.50 C -6.56 458.36, 3.99 484.03, 6.50 462.50 C 6.10 458.43, 13.95 452.56, 7.50 453.50 Z" fill="rgb(93.53448275862068,86.86206896551724,57.060344827586206)" stroke="rgb(93.53448275862068,86.86206896551724,57.060344827586206)" stroke-width="1" />
<path d="M 78.50 308.50 C 78.77 314.87, 62.65 319.63, 73.50 323.50 C 80.70 325.92, 82.73 311.44, 79.50 308.50 Z" fill="rgb(93.5126050420168,95.52941176470588,64.12605042016807)" stroke="rgb(93.5126050420168,95.52941176470588,64.12605042016807)" stroke-width="1" />
<path d="M 269.50 457.50 C 267.65 460.15, 263.35 456.85, 261.50 459.50 C 252.13 468.35, 289.10 465.57, 270.50 457.50 Z" fill="rgb(24.35514018691589,54.97196261682243,13.485981308411215)" stroke="rgb(24.35514018691589,54.97196261682243,13.485981308411215)" stroke-width="1" />
<path d="M 334.50 436.50 C 331.78 438.87, 328.96 443.30, 331.50 446.50 C 339.20 456.67, 345.72 432.66, 335.50 436.50 Z" fill="rgb(27.495726495726494,60.53846153846154,12.82905982905983)" stroke="rgb(27.495726495726494,60.53846153846154,12.82905982905983)" stroke-width="1" />
<path d="M 271.50 442.50 C 261.72 449.74, 289.24 453.61, 284.50 442.50 C 279.83 442.50, 276.17 442.50, 272.50 442.50 Z" fill="rgb(46.50892857142857,87.19642857142857,37.42857142857143)" stroke="rgb(46.50892857142857,87.19642857142857,37.42857142857143)" stroke-width="1" />
<path d="M 219.50 163.50 C 220.06 168.75, 216.78 178.88, 225.50 176.50 C 224.27 172.04, 230.72 160.63, 220.50 163.50 Z" fill="rgb(32.62385321100918,27.091743119266056,15.045871559633028)" stroke="rgb(32.62385321100918,27.091743119266056,15.045871559633028)" stroke-width="1" />
<path d="M 77.50 325.50 C 71.34 326.91, 66.30 333.30, 75.50 334.50 C 85.05 336.59, 83.95 328.21, 78.50 325.50 Z" fill="rgb(161.23300970873785,180.7378640776699,93.59223300970874)" stroke="rgb(161.23300970873785,180.7378640776699,93.59223300970874)" stroke-width="1" />
<path d="M 117.50 458.50 C 111.61 464.58, 115.35 477.56, 106.50 480.50 C 103.93 484.34, 111.75 484.84, 111.50 481.50 C 114.59 473.48, 116.72 466.06, 118.50 458.50 Z" fill="rgb(31.484848484848484,33.27272727272727,33.333333333333336)" stroke="rgb(31.484848484848484,33.27272727272727,33.333333333333336)" stroke-width="1" />
<path d="M 147.50 113.50 C 145.10 121.36, 159.87 120.75, 164.50 117.50 C 158.98 115.95, 153.89 114.37, 148.50 113.50 Z" fill="rgb(191.61363636363637,176.125,146.14772727272728)" stroke="rgb(191.61363636363637,176.125,146.14772727272728)" stroke-width="1" />
<path d="M 33.50 397.50 C 27.54 405.45, 39.10 406.25, 44.50 408.50 C 41.08 405.43, 40.25 398.10, 34.50 397.50 Z" fill="rgb(159.97701149425288,155.51724137931035,137.39080459770116)" stroke="rgb(159.97701149425288,155.51724137931035,137.39080459770116)" stroke-width="1" />
<path d="M 233.50 460.50 C 228.58 462.53, 223.04 469.44, 232.50 467.50 C 240.46 467.96, 243.13 458.44, 234.50 460.50 Z" fill="rgb(39.9873417721519,78.30379746835443,30.746835443037973)" stroke="rgb(39.9873417721519,78.30379746835443,30.746835443037973)" stroke-width="1" />
<path d="M 167.50 340.50 C 152.62 352.39, 189.58 343.26, 167.50 340.50 Z" fill="rgb(62.967213114754095,74.32786885245902,44.114754098360656)" stroke="rgb(62.967213114754095,74.32786885245902,44.114754098360656)" stroke-width="1" />
<path d="M 6.50 165.50 C 7.25 181.31, 23.57 168.54, 6.50 165.50 Z" fill="rgb(159.0,181.66666666666666,104.5)" stroke="rgb(159.0,181.66666666666666,104.5)" stroke-width="1" />
<path d="M 134.50 400.50 C 125.29 415.08, 152.33 404.61, 134.50 400.50 Z" fill="rgb(55.21818181818182,56.127272727272725,53.49090909090909)" stroke="rgb(55.21818181818182,56.127272727272725,53.49090909090909)" stroke-width="1" />
<path d="M 8.50 164.50 C 3.34 166.07, 5.38 174.63, 11.50 172.50 C 17.08 173.85, 11.92 165.08, 9.50 164.50 Z" fill="rgb(127.1875,148.609375,71.53125)" stroke="rgb(127.1875,148.609375,71.53125)" stroke-width="1" />
<path d="M 178.50 164.50 C 179.60 168.07, 175.79 176.54, 181.50 175.50 C 181.40 171.93, 185.21 163.46, 179.50 164.50 Z" fill="rgb(100.48275862068965,95.15517241379311,67.32758620689656)" stroke="rgb(100.48275862068965,95.15517241379311,67.32758620689656)" stroke-width="1" />
<path d="M 46.50 344.50 C 23.67 350.16, 59.27 350.80, 46.50 344.50 Z" fill="rgb(220.88095238095238,213.76190476190476,180.04761904761904)" stroke="rgb(220.88095238095238,213.76190476190476,180.04761904761904)" stroke-width="1" />
<path d="M 113.50 479.50 C 111.38 491.94, 130.76 477.84, 113.50 479.50 Z" fill="rgb(113.57142857142857,125.54761904761905,84.80952380952381)" stroke="rgb(113.57142857142857,125.54761904761905,84.80952380952381)" stroke-width="1" />
<path d="M 129.50 203.50 C 124.70 216.70, 145.97 202.56, 129.50 203.50 Z" fill="rgb(222.3953488372093,227.25581395348837,198.02325581395348)" stroke="rgb(222.3953488372093,227.25581395348837,198.02325581395348)" stroke-width="1" />
<path d="M 241.50 133.50 C 230.88 144.92, 253.33 141.96, 241.50 133.50 Z" fill="rgb(52.45238095238095,64.21428571428571,58.142857142857146)" stroke="rgb(52.45238095238095,64.21428571428571,58.142857142857146)" stroke-width="1" />
<path d="M 260.50 0.50 C 267.05 5.92, 275.13 7.64, 281.50 13.50 C 277.29 7.68, 268.43 4.54, 261.50 0.50 Z" fill="rgb(134.57777777777778,142.77777777777777,99.26666666666667)" stroke="rgb(134.57777777777778,142.77777777777777,99.26666666666667)" stroke-width="1" />
<path d="M 0.50 419.50 C -1.09 432.46, 18.11 419.14, 0.50 419.50 Z" fill="rgb(190.89361702127658,214.68085106382978,126.59574468085107)" stroke="rgb(190.89361702127658,214.68085106382978,126.59574468085107)" stroke-width="1" />
<path d="M 173.50 383.50 C 168.58 394.69, 189.80 383.54, 173.50 383.50 Z" fill="rgb(95.925,106.875,96.225)" stroke="rgb(95.925,106.875,96.225)" stroke-width="1" />
<path d="M 162.50 260.50 C 158.86 273.72, 169.02 270.27, 162.50 260.50 Z" fill="rgb(49.6,48.4,35.2)" stroke="rgb(49.6,48.4,35.2)" stroke-width="1" />
<path d="M 222.50 325.50 C 209.84 330.46, 223.28 334.77, 222.50 325.50 Z" fill="rgb(134.16,154.32,100.8)" stroke="rgb(134.16,154.32,100.8)" stroke-width="1" />
<path d="M 162.50 260.50 C 160.03 275.04, 168.36 269.15, 162.50 260.50 Z" fill="rgb(92.04,89.72,76.44)" stroke="rgb(92.04,89.72,76.44)" stroke-width="1" />
<path d="M 76.50 342.50 C 63.41 346.78, 84.42 349.91, 76.50 342.50 Z" fill="rgb(157.8846153846154,176.69230769230768,96.26923076923077)" stroke="rgb(157.8846153846154,176.69230769230768,96.26923076923077)" stroke-width="1" />
<path d="M 192.50 30.50 C 192.07 40.81, 199.27 35.56, 192.50 30.50 Z" fill="rgb(143.15,152.3,110.05)" stroke="rgb(143.15,152.3,110.05)" stroke-width="1" />
<path d="M 204.50 301.50 C 197.25 307.97, 213.08 305.08, 204.50 301.50 Z" fill="rgb(87.0,83.0,68.85714285714286)" stroke="rgb(87.0,83.0,68.85714285714286)" stroke-width="1" />
</svg>