<svg xmlns="http://www.w3.org/2000/svg" width="341" height="512" viewbox="0 0 341 512">
<path d="M 0.50 0.50 C 0.50 169.50, 0.50 338.50, 0.50 507.50 C 482.40 739.61, 492.07 -221.59, 1.50 0.50 Z" fill="rgb(92.42988826815642,101.55851955307263,70.40432960893855)" stroke="rgb(92.42988826815642,101.55851955307263,70.40432960893855)" stroke-width="1" />
<path d="M 249.50 0.50 C 274.38 46.96, 247.30 130.24, 302.50 149.50 C 308.14 165.49, 301.51 169.48, 290.50 173.50 C 285.15 176.40, 298.07 182.16, 307.50 185.50 C 317.80 197.33, 305.93 207.38, 295.50 208.50 C 298.28 218.42, 291.36 231.86, 298.50 239.50 C 293.31 247.60, 289.08 257.63, 282.50 265.50 C 288.17 283.01, 276.32 295.22, 271.50 311.50 C 209.55 372.29, 123.04 380.65, 150.50 490.50 C 301.07 573.64, 381.62 467.59, 340.50 307.50 C 340.50 273.83, 340.50 241.17, 340.50 208.50 C 340.50 191.50, 340.50 175.50, 340.50 159.50 C 340.50 142.17, 340.50 125.83, 340.50 109.50 C 352.47 30.53, 340.63 -23.63, 250.50 0.50 Z" fill="rgb(68.73305954825462,94.14476386036961,44.082135523613964)" stroke="rgb(68.73305954825462,94.14476386036961,44.082135523613964)" stroke-width="1" />
<path d="M 0.50 0.50 C 0.50 12.50, 0.50 24.50, 0.50 36.50 C 0.50 57.83, 0.50 78.17, 0.50 98.50 C -3.34 116.30, 7.60 122.62, 22.50 117.50 C 28.65 130.13, 55.09 139.90, 64.50 123.50 C 78.05 114.13, 73.94 95.86, 80.50 82.50 C 103.35 94.95, 94.81 70.39, 124.50 69.50 C 166.00 56.29, 135.41 109.50, 158.50 113.50 C 492.83 233.80, 293.79 -119.35, 1.50 0.50 Z" fill="rgb(162.31907671418872,178.17990495587236,111.8540393754243)" stroke="rgb(162.31907671418872,178.17990495587236,111.8540393754243)" stroke-width="1" />
<path d="M 333.50 168.50 C 324.22 175.12, 327.70 181.51, 314.50 187.50 C 319.37 201.43, 303.77 206.47, 298.50 212.50 C 293.52 226.26, 304.56 242.53, 292.50 250.50 C 289.72 260.50, 274.22 269.83, 285.50 279.50 C 280.91 290.12, 275.87 299.96, 272.50 310.50 C 263.72 320.80, 250.85 320.66, 243.50 331.50 C 236.30 334.73, 229.04 338.87, 222.50 334.50 C 218.53 334.70, 207.36 340.73, 198.50 340.50 C 194.57 342.72, 192.71 348.31, 197.50 347.50 C 207.25 352.38, 222.93 388.51, 198.50 380.50 C 175.83 358.57, 176.86 394.27, 156.50 405.50 C 147.08 415.29, 136.49 418.68, 136.50 430.50 C 113.36 439.80, 135.42 452.44, 132.50 468.50 C 129.73 481.80, 143.27 481.00, 147.50 491.50 C 158.07 502.43, 169.26 505.29, 179.50 511.50 C 232.50 511.50, 284.50 511.50, 336.50 511.50 C 344.39 500.39, 338.58 476.58, 340.50 460.50 C 340.50 441.50, 340.50 423.50, 340.50 405.50 C 340.50 386.50, 340.50 368.50, 340.50 350.50 C 340.50 331.17, 340.50 312.83, 340.50 294.50 C 340.50 283.17, 340.50 272.83, 340.50 262.50 C 340.50 257.83, 340.50 254.17, 340.50 250.50 C 340.50 243.17, 340.50 236.83, 340.50 230.50 C 338.39 214.90, 340.01 198.76, 339.50 183.50 C 338.63 177.55, 342.39 166.95, 334.50 168.50 Z" fill="rgb(45.35194223440529,69.24640636491274,32.63007287557665)" stroke="rgb(45.35194223440529,69.24640636491274,32.63007287557665)" stroke-width="1" />
<path d="M 137.50 70.50 C 128.96 72.13, 119.82 72.34, 111.50 74.50 C 105.75 109.15, 74.63 71.89, 78.50 116.50 C 59.32 142.44, 79.28 170.67, 106.50 177.50 C 121.37 184.24, 133.06 195.26, 146.50 200.50 C 137.96 222.27, 165.60 230.01, 181.50 233.50 C 204.99 231.95, 228.93 236.45, 251.50 232.50 C 261.83 232.50, 271.17 232.50, 280.50 232.50 C 293.16 228.98, 280.97 213.71, 287.50 207.50 C 295.32 204.19, 308.81 203.41, 303.50 192.50 C 297.12 185.43, 268.14 185.34, 283.50 171.50 C 325.65 146.84, 252.40 139.94, 230.50 141.50 C 215.41 143.07, 212.88 129.04, 199.50 129.50 C 153.39 133.18, 147.14 100.36, 138.50 70.50 Z" fill="rgb(52.24309392265194,49.39929683576092,34.60622802611753)" stroke="rgb(52.24309392265194,49.39929683576092,34.60622802611753)" stroke-width="1" />
<path d="M 35.50 172.50 C 26.60 176.40, 12.73 173.25, 3.50 175.50 C 0.28 179.19, 2.44 184.70, 0.50 188.50 C 0.50 206.83, 0.50 224.17, 0.50 241.50 C 0.50 259.83, 0.50 277.17, 0.50 294.50 C -0.26 308.28, 1.73 319.93, 1.50 332.50 C -7.75 375.31, 17.34 399.81, 24.50 350.50 C 35.78 340.20, 51.95 345.14, 62.50 336.50 C 71.73 321.50, 75.99 305.91, 86.50 293.50 C 103.53 287.25, 119.57 283.77, 135.50 291.50 C 141.01 305.02, 149.31 283.01, 152.50 274.50 C 150.51 261.96, 160.45 252.03, 154.50 241.50 C 158.01 227.62, 143.57 221.72, 141.50 209.50 C 128.47 208.99, 131.60 195.23, 124.50 189.50 C 115.84 181.04, 114.98 202.30, 108.50 194.50 C 105.20 177.96, 90.26 171.14, 74.50 172.50 C 61.25 174.96, 49.55 172.40, 36.50 172.50 Z" fill="rgb(149.75611888111888,170.6332270670506,100.41186754422048)" stroke="rgb(149.75611888111888,170.6332270670506,100.41186754422048)" stroke-width="1" />
<path d="M 162.50 0.50 C 162.57 11.04, 168.87 43.02, 157.50 31.50 C 155.60 23.19, 149.28 44.36, 145.50 50.50 C 153.79 61.78, 127.10 65.10, 138.50 67.50 C 160.48 73.85, 138.23 108.66, 157.50 113.50 C 173.34 129.45, 205.01 121.33, 220.50 137.50 C 228.51 139.08, 237.09 141.96, 239.50 133.50 C 246.80 137.46, 254.38 144.85, 264.50 138.50 C 266.94 126.67, 263.76 117.99, 263.50 110.50 C 264.24 96.70, 260.58 80.48, 256.50 67.50 C 245.34 62.71, 257.98 50.58, 250.50 44.50 C 245.44 29.72, 258.99 17.34, 248.50 5.50 C 246.51 1.66, 245.26 -0.48, 241.50 0.50 C 219.17 0.50, 197.83 0.50, 176.50 0.50 C 176.26 9.30, 172.10 16.05, 173.50 26.50 C 170.98 34.87, 174.89 44.90, 170.50 51.50 C 164.18 44.04, 168.03 30.29, 166.50 20.50 C 165.70 13.63, 171.61 0.06, 163.50 0.50 Z" fill="rgb(156.99742609780827,180.92871070899307,101.11668356602449)" stroke="rgb(156.99742609780827,180.92871070899307,101.11668356602449)" stroke-width="1" />
<path d="M 248.50 0.50 C 254.30 7.83, 268.97 19.02, 252.50 27.50 C 247.25 39.28, 259.97 48.34, 252.50 58.50 C 250.62 63.45, 252.62 64.92, 256.50 65.50 C 264.88 81.35, 264.39 99.47, 266.50 116.50 C 270.19 124.33, 265.22 132.48, 268.50 139.50 C 276.88 145.08, 291.40 144.63, 301.50 149.50 C 302.04 154.97, 303.34 158.71, 304.50 162.50 C 316.26 164.43, 327.49 172.01, 338.50 166.50 C 339.50 155.50, 339.50 144.50, 339.50 133.50 C 338.76 114.05, 341.11 96.89, 340.50 78.50 C 340.50 66.83, 340.50 56.17, 340.50 45.50 C 340.50 29.83, 340.50 15.17, 340.50 0.50 C 324.83 0.50, 310.17 0.50, 295.50 0.50 C 279.50 0.50, 264.50 0.50, 249.50 0.50 Z" fill="rgb(79.84210107441305,112.84377238360526,42.90600875447672)" stroke="rgb(79.84210107441305,112.84377238360526,42.90600875447672)" stroke-width="1" />
<path d="M 232.50 314.50 C 224.31 317.31, 216.18 320.27, 206.50 319.50 C 197.92 318.76, 192.26 322.67, 184.50 321.50 C 166.44 322.21, 149.25 322.63, 133.50 326.50 C 116.73 328.26, 98.76 328.46, 84.50 331.50 C 93.56 342.66, 72.49 334.45, 68.50 341.50 C 61.54 346.51, 50.85 342.58, 48.50 349.50 C 35.19 348.10, 49.77 357.78, 43.50 367.50 C 43.70 377.03, 42.45 387.78, 40.50 395.50 C 52.45 436.40, 118.35 398.53, 128.50 416.50 C 131.32 396.08, 180.13 406.00, 177.50 367.50 C 191.70 367.54, 212.57 392.54, 207.50 365.50 C 205.73 350.67, 192.26 344.48, 178.50 346.50 C 155.82 350.12, 168.09 337.48, 180.50 340.50 C 194.55 332.73, 212.12 339.35, 221.50 327.50 C 222.17 338.05, 240.37 331.09, 244.50 323.50 C 235.99 321.83, 241.98 312.24, 233.50 314.50 Z" fill="rgb(112.09000355745286,116.18071860547848,100.965848452508)" stroke="rgb(112.09000355745286,116.18071860547848,100.965848452508)" stroke-width="1" />
<path d="M 0.50 0.50 C -0.19 29.92, 2.19 58.08, 1.50 87.50 C 1.50 98.83, 1.50 109.17, 1.50 119.50 C 13.93 120.93, 33.98 112.12, 32.50 125.50 C 35.23 128.64, 59.58 134.09, 60.50 127.50 C 75.06 122.45, 76.60 109.93, 78.50 96.50 C 77.56 88.95, 79.68 83.66, 84.50 79.50 C 93.00 77.69, 100.02 99.05, 99.50 82.50 C 103.84 76.61, 105.48 70.60, 104.50 63.50 C 118.05 47.02, 100.49 32.89, 89.50 26.50 C 94.92 26.57, 93.47 10.07, 94.50 0.50 C 62.83 0.50, 32.17 0.50, 1.50 0.50 Z" fill="rgb(152.83719493358046,175.18597466790237,98.53320976212542)" stroke="rgb(152.83719493358046,175.18597466790237,98.53320976212542)" stroke-width="1" />
<path d="M 326.50 437.50 C 301.78 440.69, 271.18 445.05, 248.50 442.50 C 243.30 454.17, 237.43 456.95, 227.50 460.50 C 214.05 456.43, 197.78 458.42, 190.50 468.50 C 192.96 472.12, 193.93 479.14, 198.50 480.50 C 192.80 486.15, 202.50 490.83, 202.50 497.50 C 203.22 507.48, 185.45 501.56, 193.50 511.50 C 213.50 511.50, 232.50 511.50, 251.50 511.50 C 271.83 511.50, 291.17 511.50, 310.50 511.50 C 322.44 509.10, 345.51 518.85, 340.50 500.50 C 338.18 483.32, 340.16 465.37, 339.50 448.50 C 342.18 437.99, 335.67 436.02, 327.50 437.50 Z" fill="rgb(29.89567461292701,53.75387072990907,18.804866060457115)" stroke="rgb(29.89567461292701,53.75387072990907,18.804866060457115)" stroke-width="1" />
<path d="M 136.50 70.50 C 126.85 74.49, 109.05 68.69, 105.50 80.50 C 110.01 100.32, 89.87 93.80, 85.50 84.50 C 70.53 123.09, 58.18 167.22, 108.50 178.50 C 108.77 189.67, 120.30 180.47, 125.50 184.50 C 135.77 190.51, 140.03 166.61, 127.50 166.50 C 146.32 159.09, 145.68 138.86, 173.50 146.50 C 282.01 140.99, 118.70 130.96, 137.50 70.50 Z" fill="rgb(112.26541274817137,109.13113897596656,77.64420062695925)" stroke="rgb(112.26541274817137,109.13113897596656,77.64420062695925)" stroke-width="1" />
<path d="M 49.50 356.50 C 39.42 366.84, 46.89 386.11, 44.50 402.50 C 63.67 406.13, 81.88 405.08, 98.50 404.50 C 109.17 409.06, 129.45 411.35, 134.50 399.50 C 141.96 399.43, 141.99 408.45, 149.50 406.50 C 168.93 393.10, 176.73 369.20, 185.50 363.50 C 158.52 361.62, 131.88 362.15, 107.50 365.50 C 97.32 364.80, 88.81 361.48, 78.50 362.50 C 66.32 364.80, 60.16 356.31, 50.50 356.50 Z" fill="rgb(157.84591070723033,168.68727775582772,171.1560647965231)" stroke="rgb(157.84591070723033,168.68727775582772,171.1560647965231)" stroke-width="1" />
<path d="M 184.50 235.50 C 176.41 238.28, 168.79 237.64, 160.50 238.50 C 167.03 249.56, 153.29 265.80, 158.50 278.50 C 172.74 290.89, 194.99 291.96, 212.50 294.50 C 220.73 305.96, 223.37 316.05, 240.50 309.50 C 240.43 282.56, 236.72 252.06, 217.50 237.50 C 205.80 237.05, 195.82 235.86, 185.50 235.50 Z" fill="rgb(68.25629496402878,69.45863309352518,53.606115107913666)" stroke="rgb(68.25629496402878,69.45863309352518,53.606115107913666)" stroke-width="1" />
<path d="M 95.50 420.50 C 39.09 425.03, 50.78 453.95, 10.50 455.50 C 25.44 506.80, 177.09 457.86, 96.50 420.50 Z" fill="rgb(133.49333333333334,134.73333333333332,95.36)" stroke="rgb(133.49333333333334,134.73333333333332,95.36)" stroke-width="1" />
<path d="M 194.50 175.50 C 180.53 177.05, 166.05 177.37, 151.50 177.50 C 116.02 188.22, 143.84 206.98, 171.50 200.50 C 193.46 200.12, 213.98 200.80, 234.50 201.50 C 255.45 202.62, 275.08 204.50, 295.50 204.50 C 308.09 204.04, 301.83 190.71, 296.50 188.50 C 279.25 184.97, 262.56 183.50, 246.50 180.50 C 228.80 178.92, 212.74 175.79, 195.50 175.50 Z" fill="rgb(119.04788816180844,114.139500297442,76.76799524092802)" stroke="rgb(119.04788816180844,114.139500297442,76.76799524092802)" stroke-width="1" />
<path d="M 99.50 419.50 C 81.83 425.29, 60.77 422.92, 45.50 434.50 C 43.50 448.08, 69.71 459.94, 65.50 476.50 C 87.17 485.37, 123.94 466.58, 116.50 443.50 C 123.31 439.14, 119.71 430.05, 119.50 424.50 C 114.50 417.34, 105.74 422.67, 100.50 419.50 Z" fill="rgb(165.69918998527245,157.7036082474227,135.74779086892488)" stroke="rgb(165.69918998527245,157.7036082474227,135.74779086892488)" stroke-width="1" />
<path d="M 243.50 142.50 C 241.24 144.63, 237.42 142.98, 234.50 143.50 C 226.04 142.73, 219.77 144.81, 212.50 144.50 C 192.01 145.45, 173.19 148.03, 153.50 148.50 C 140.76 144.07, 139.51 164.62, 145.50 165.50 C 160.46 164.74, 173.95 162.84, 188.50 163.50 C 203.94 163.89, 217.02 161.00, 231.50 161.50 C 249.04 162.19, 264.25 166.12, 280.50 167.50 C 287.13 165.28, 294.33 166.83, 299.50 163.50 C 296.71 158.50, 294.62 156.28, 298.50 151.50 C 280.15 147.06, 263.63 141.65, 244.50 142.50 Z" fill="rgb(143.94214046822742,135.30903010033444,103.32742474916388)" stroke="rgb(143.94214046822742,135.30903010033444,103.32742474916388)" stroke-width="1" />
<path d="M 34.50 470.50 C 3.59 456.40, -16.27 504.51, 12.50 511.50 C 33.82 506.01, 59.78 513.19, 59.50 487.50 C 159.16 523.89, 115.19 481.66, 35.50 470.50 Z" fill="rgb(94.5,102.5,62.5)" stroke="rgb(94.5,102.5,62.5)" stroke-width="1" />
<path d="M 241.50 238.50 C 236.67 240.25, 231.85 242.02, 226.50 242.50 C 229.48 249.04, 231.03 255.17, 234.50 260.50 C 240.61 275.02, 242.12 290.44, 244.50 305.50 C 245.08 310.73, 243.28 315.95, 245.50 319.50 C 259.48 320.40, 267.96 310.54, 270.50 302.50 C 277.91 290.24, 280.02 278.47, 274.50 266.50 C 285.40 259.61, 283.00 257.27, 282.50 245.50 C 266.53 243.22, 257.82 239.61, 242.50 238.50 Z" fill="rgb(117.88056206088993,135.87186349949815,141.78052860488458)" stroke="rgb(117.88056206088993,135.87186349949815,141.78052860488458)" stroke-width="1" />
<path d="M 33.50 470.50 C 2.67 455.71, -16.34 507.06, 13.50 511.50 C 34.51 506.22, 60.27 512.25, 59.50 487.50 C 158.10 522.56, 116.99 483.05, 34.50 470.50 Z" fill="rgb(93.048,96.224,56.488)" stroke="rgb(93.048,96.224,56.488)" stroke-width="1" />
<path d="M 94.50 0.50 C 99.78 6.49, 94.92 17.99, 101.50 22.50 C 103.47 32.49, 109.84 37.12, 115.50 43.50 C 123.48 49.29, 121.23 60.11, 127.50 66.50 C 133.91 67.42, 141.44 62.38, 144.50 57.50 C 140.21 48.80, 150.11 44.38, 148.50 36.50 C 158.11 27.02, 151.07 7.50, 158.50 0.50 C 136.83 0.50, 116.17 0.50, 95.50 0.50 Z" fill="rgb(132.82357168523177,162.6291771469637,82.81530722242185)" stroke="rgb(132.82357168523177,162.6291771469637,82.81530722242185)" stroke-width="1" />
<path d="M 213.50 238.50 C 195.31 241.33, 208.09 270.33, 192.50 267.50 C 187.25 280.59, 191.45 296.01, 210.50 293.50 C 217.73 293.46, 215.50 300.92, 219.50 304.50 C 221.88 315.83, 235.48 310.68, 241.50 309.50 C 242.32 303.47, 241.56 296.97, 240.50 291.50 C 239.01 274.05, 232.81 259.54, 225.50 245.50 C 224.85 239.31, 219.36 237.75, 214.50 238.50 Z" fill="rgb(19.156479217603913,20.3679706601467,16.517522412387937)" stroke="rgb(19.156479217603913,20.3679706601467,16.517522412387937)" stroke-width="1" />
<path d="M 22.50 118.50 C -79.29 170.13, 134.15 187.25, 55.50 154.50 C 29.37 165.55, 46.51 136.60, 29.50 130.50 C 13.70 127.60, 35.63 118.79, 23.50 118.50 Z" fill="rgb(96.52083333333333,117.64583333333333,54.614583333333336)" stroke="rgb(96.52083333333333,117.64583333333333,54.614583333333336)" stroke-width="1" />
<path d="M 36.50 470.50 C 25.52 475.44, 11.08 469.71, 0.50 473.50 C 0.50 486.83, 0.50 499.17, 0.50 511.50 C 11.06 509.55, 25.92 516.19, 30.50 506.50 C 37.67 506.23, 45.29 507.65, 50.50 507.50 C 59.43 497.92, 56.17 488.98, 62.50 478.50 C 51.96 477.93, 47.73 469.00, 37.50 470.50 Z" fill="rgb(60.012379642365886,86.12012838147639,27.35121503897295)" stroke="rgb(60.012379642365886,86.12012838147639,27.35121503897295)" stroke-width="1" />
<path d="M 35.50 381.50 C -71.06 393.24, 97.65 476.77, 33.50 394.50 C 37.13 391.73, 41.37 381.69, 36.50 381.50 Z" fill="rgb(116.11111111111111,120.38888888888889,87.05555555555556)" stroke="rgb(116.11111111111111,120.38888888888889,87.05555555555556)" stroke-width="1" />
<path d="M 137.50 70.50 C 127.19 73.71, 112.94 70.67, 105.50 78.50 C 108.38 84.81, 106.14 87.84, 108.50 92.50 C 112.50 94.12, 124.67 95.44, 118.50 101.50 C 109.33 105.02, 113.17 117.60, 113.50 125.50 C 118.16 129.91, 131.18 125.48, 139.50 126.50 C 151.76 126.54, 144.39 109.84, 146.50 102.50 C 144.18 91.08, 152.75 71.50, 138.50 70.50 Z" fill="rgb(159.31490872210952,157.87981744421907,141.8793103448276)" stroke="rgb(159.31490872210952,157.87981744421907,141.8793103448276)" stroke-width="1" />
<path d="M 189.50 202.50 C 191.72 212.96, 183.49 233.30, 197.50 233.50 C 214.34 231.74, 234.66 237.17, 247.50 230.50 C 256.10 196.65, 213.78 202.50, 190.50 202.50 Z" fill="rgb(6.804195804195804,7.223776223776224,4.888111888111888)" stroke="rgb(6.804195804195804,7.223776223776224,4.888111888111888)" stroke-width="1" />
<path d="M 1.50 137.50 C 0.36 148.29, -1.29 164.35, 2.50 173.50 C 25.52 169.26, 49.24 170.89, 71.50 171.50 C 89.75 149.13, 19.81 153.89, 2.50 138.50 Z" fill="rgb(132.81632653061226,145.91836734693877,90.38095238095238)" stroke="rgb(132.81632653061226,145.91836734693877,90.38095238095238)" stroke-width="1" />
<path d="M 12.50 322.50 C -26.41 353.00, 25.61 419.88, 25.50 350.50 C 30.38 343.91, 38.77 345.56, 41.50 339.50 C 37.25 326.28, 23.63 325.52, 13.50 322.50 Z" fill="rgb(157.51651254953765,173.21928665785998,113.98678996036988)" stroke="rgb(157.51651254953765,173.21928665785998,113.98678996036988)" stroke-width="1" />
<path d="M 148.50 119.50 C 149.16 131.01, 135.95 126.40, 128.50 128.50 C 102.89 129.23, 130.09 135.46, 141.50 133.50 C 145.30 137.93, 140.03 147.60, 146.50 147.50 C 173.29 147.75, 197.18 143.41, 222.50 142.50 C 219.57 139.34, 212.17 140.47, 213.50 133.50 C 191.73 127.62, 170.16 124.66, 149.50 119.50 Z" fill="rgb(216.31902985074626,204.19962686567163,184.8125)" stroke="rgb(216.31902985074626,204.19962686567163,184.8125)" stroke-width="1" />
<path d="M 0.50 0.50 C 3.37 11.41, -6.94 45.16, 9.50 34.50 C 23.50 48.94, 22.54 27.36, 31.50 25.50 C 42.69 15.82, 38.68 32.20, 49.50 29.50 C 64.98 34.67, 53.92 18.07, 48.50 13.50 C 45.77 8.39, 39.99 5.95, 41.50 0.50 C 27.50 0.50, 14.50 0.50, 1.50 0.50 Z" fill="rgb(103.65117719950433,130.3004956629492,53.698884758364315)" stroke="rgb(103.65117719950433,130.3004956629492,53.698884758364315)" stroke-width="1" />
<path d="M 95.50 293.50 C 58.31 364.26, 199.85 300.47, 95.50 293.50 Z" fill="rgb(129.5,130.44444444444446,95.66666666666667)" stroke="rgb(129.5,130.44444444444446,95.66666666666667)" stroke-width="1" />
<path d="M 157.50 289.50 C 122.35 323.95, 168.37 324.62, 198.50 317.50 C 203.51 305.56, 195.48 291.04, 181.50 291.50 C 172.94 294.58, 165.99 289.70, 158.50 289.50 Z" fill="rgb(59.46341463414634,62.146341463414636,51.05691056910569)" stroke="rgb(59.46341463414634,62.146341463414636,51.05691056910569)" stroke-width="1" />
<path d="M 95.50 99.50 C 86.76 103.42, 95.01 116.05, 92.50 124.50 C 94.23 140.59, 93.26 156.80, 93.50 172.50 C 99.89 173.52, 110.39 180.54, 111.50 172.50 C 111.50 160.17, 111.50 148.83, 111.50 137.50 C 111.10 125.19, 112.46 113.16, 110.50 102.50 C 104.66 102.06, 101.34 98.94, 96.50 99.50 Z" fill="rgb(92.51637107776261,70.10914051841746,60.2237380627558)" stroke="rgb(92.51637107776261,70.10914051841746,60.2237380627558)" stroke-width="1" />
<path d="M 85.50 81.50 C 75.93 89.17, 83.01 105.28, 77.50 115.50 C 70.49 124.58, 67.37 138.30, 69.50 150.50 C 74.99 153.61, 85.30 154.83, 81.50 166.50 C 95.33 179.98, 91.04 156.63, 91.50 146.50 C 88.80 129.73, 92.80 111.19, 87.50 96.50 C 92.14 93.42, 92.16 80.52, 86.50 81.50 Z" fill="rgb(188.72148148148148,185.09851851851852,159.53851851851852)" stroke="rgb(188.72148148148148,185.09851851851852,159.53851851851852)" stroke-width="1" />
<path d="M 218.50 162.50 C 117.41 184.34, 378.88 180.11, 218.50 162.50 Z" fill="rgb(105.875,98.91666666666667,81.125)" stroke="rgb(105.875,98.91666666666667,81.125)" stroke-width="1" />
<path d="M 219.50 162.50 C 210.49 167.68, 175.06 158.11, 188.50 174.50 C 207.81 173.47, 224.03 177.49, 241.50 178.50 C 253.12 179.01, 261.85 183.06, 272.50 182.50 C 281.19 182.84, 275.68 174.56, 276.50 169.50 C 256.99 166.93, 240.22 161.16, 220.50 162.50 Z" fill="rgb(54.8330223880597,46.17537313432836,28.254664179104477)" stroke="rgb(54.8330223880597,46.17537313432836,28.254664179104477)" stroke-width="1" />
<path d="M 23.50 382.50 C -49.26 432.44, 70.42 424.74, 23.50 382.50 Z" fill="rgb(147.0,152.5,111.25)" stroke="rgb(147.0,152.5,111.25)" stroke-width="1" />
<path d="M 1.50 343.50 C -9.63 426.34, 80.75 353.61, 1.50 343.50 Z" fill="rgb(103.98305084745763,110.86440677966101,73.03389830508475)" stroke="rgb(103.98305084745763,110.86440677966101,73.03389830508475)" stroke-width="1" />
<path d="M 36.50 381.50 C 23.74 382.20, 12.61 386.82, 1.50 391.50 C 1.17 406.61, -4.80 432.95, 15.50 422.50 C 23.64 433.77, 26.20 409.34, 30.50 402.50 C 33.72 396.15, 42.89 385.76, 37.50 381.50 Z" fill="rgb(143.88983050847457,157.3542372881356,106.22372881355932)" stroke="rgb(143.88983050847457,157.3542372881356,106.22372881355932)" stroke-width="1" />
<path d="M 27.50 443.50 C 17.81 447.61, 2.82 456.41, 8.50 469.50 C 18.25 471.13, 28.60 473.11, 36.50 468.50 C 47.94 466.99, 63.50 485.26, 64.50 468.50 C 60.16 462.97, 43.92 437.18, 43.50 453.50 C 34.42 458.48, 34.41 442.82, 28.50 443.50 Z" fill="rgb(175.4153052450559,168.76612209802235,138.29492691315562)" stroke="rgb(175.4153052450559,168.76612209802235,138.29492691315562)" stroke-width="1" />
<path d="M 62.50 491.50 C 59.52 498.39, 56.29 503.29, 51.50 509.50 C 45.55 510.26, 26.87 504.59, 31.50 511.50 C 41.17 511.50, 49.83 511.50, 58.50 511.50 C 79.50 511.50, 99.50 511.50, 119.50 511.50 C 116.93 508.56, 114.33 502.67, 109.50 505.50 C 106.11 500.38, 105.29 493.94, 98.50 495.50 C 89.09 495.78, 76.13 490.68, 63.50 491.50 Z" fill="rgb(154.76186213070724,142.230975828111,94.84064458370635)" stroke="rgb(154.76186213070724,142.230975828111,94.84064458370635)" stroke-width="1" />
<path d="M 151.50 287.50 C 142.77 293.46, 152.08 311.61, 143.50 307.50 C 138.03 320.89, 150.06 321.98, 160.50 320.50 C 168.91 320.61, 180.21 322.08, 177.50 311.50 C 177.87 295.98, 166.95 286.80, 152.50 287.50 Z" fill="rgb(131.03975535168195,126.93170234454638,105.29459734964323)" stroke="rgb(131.03975535168195,126.93170234454638,105.29459734964323)" stroke-width="1" />
<path d="M 169.50 201.50 C 161.97 205.10, 150.22 198.53, 144.50 206.50 C 144.19 215.20, 149.39 220.59, 154.50 225.50 C 165.72 225.56, 173.45 230.62, 182.50 232.50 C 180.70 220.29, 189.02 197.07, 170.50 201.50 Z" fill="rgb(66.59833506763788,73.32986472424558,34.80853277835588)" stroke="rgb(66.59833506763788,73.32986472424558,34.80853277835588)" stroke-width="1" />
<path d="M 0.50 137.50 C 1.12 154.09, -5.32 178.40, 16.50 171.50 C 22.53 168.86, 30.72 168.61, 32.50 162.50 C 37.37 148.35, 23.86 146.48, 17.50 138.50 C 12.00 141.94, 6.30 140.09, 1.50 137.50 Z" fill="rgb(111.47240618101546,123.63245033112582,71.21854304635761)" stroke="rgb(111.47240618101546,123.63245033112582,71.21854304635761)" stroke-width="1" />
<path d="M 1.50 343.50 C -0.79 351.02, 1.14 360.29, 0.50 368.50 C -4.80 393.59, 26.00 385.93, 20.50 367.50 C 27.29 366.15, 31.66 355.65, 25.50 352.50 C 23.17 340.53, 7.42 353.22, 2.50 343.50 Z" fill="rgb(116.69778296382731,129.20186697782964,84.30338389731622)" stroke="rgb(116.69778296382731,129.20186697782964,84.30338389731622)" stroke-width="1" />
<path d="M 95.50 293.50 C 85.67 298.31, 84.35 311.06, 83.50 321.50 C 82.22 331.12, 93.94 326.22, 99.50 327.50 C 111.58 327.51, 112.72 308.87, 111.50 297.50 C 107.50 291.48, 101.31 294.16, 96.50 293.50 Z" fill="rgb(143.44182825484765,139.88227146814404,118.66897506925208)" stroke="rgb(143.44182825484765,139.88227146814404,118.66897506925208)" stroke-width="1" />
<path d="M 63.50 478.50 C 62.23 497.74, 87.51 486.29, 95.50 496.50 C 101.96 490.26, 108.75 497.94, 109.50 503.50 C 115.42 496.49, 122.29 518.39, 125.50 508.50 C 138.12 510.36, 122.62 498.72, 118.50 497.50 C 112.77 481.96, 94.26 485.21, 82.50 481.50 C 76.31 480.01, 70.88 478.10, 64.50 478.50 Z" fill="rgb(48.043596730245234,75.74931880108991,21.14441416893733)" stroke="rgb(48.043596730245234,75.74931880108991,21.14441416893733)" stroke-width="1" />
<path d="M 34.50 397.50 C 31.08 407.75, 14.78 430.45, 34.50 432.50 C 43.59 433.77, 54.29 430.39, 56.50 423.50 C 49.17 414.35, 44.16 405.30, 35.50 398.50 Z" fill="rgb(183.47197640117994,178.80383480825958,150.9896755162242)" stroke="rgb(183.47197640117994,178.80383480825958,150.9896755162242)" stroke-width="1" />
<path d="M 49.50 154.50 C 30.86 150.37, 32.04 177.84, 49.50 169.50 C 88.34 178.37, 84.54 148.74, 50.50 154.50 Z" fill="rgb(122.0310262529833,138.55608591885442,79.16229116945108)" stroke="rgb(122.0310262529833,138.55608591885442,79.16229116945108)" stroke-width="1" />
<path d="M 215.50 203.50 C 210.02 211.08, 208.39 220.26, 204.50 228.50 C 211.56 230.03, 216.97 232.12, 223.50 231.50 C 232.60 217.97, 242.10 198.21, 216.50 203.50 Z" fill="rgb(10.42472266244057,11.480190174326466,5.410459587955626)" stroke="rgb(10.42472266244057,11.480190174326466,5.410459587955626)" stroke-width="1" />
<path d="M 148.50 92.50 C 142.36 117.40, 168.72 122.19, 188.50 124.50 C 186.85 114.14, 178.94 113.01, 172.50 111.50 C 173.22 96.36, 154.48 102.21, 149.50 92.50 Z" fill="rgb(184.9957805907173,207.8776371308017,124.43037974683544)" stroke="rgb(184.9957805907173,207.8776371308017,124.43037974683544)" stroke-width="1" />
<path d="M 21.50 119.50 C 12.16 123.48, -4.81 116.59, 0.50 133.50 C 9.72 143.70, 15.74 129.49, 23.50 142.50 C 29.10 151.08, 37.92 133.28, 35.50 151.50 C 41.14 146.55, 37.85 140.59, 35.50 134.50 C 11.44 131.10, 30.24 118.66, 22.50 119.50 Z" fill="rgb(42.911764705882355,75.55718954248366,13.292483660130719)" stroke="rgb(42.911764705882355,75.55718954248366,13.292483660130719)" stroke-width="1" />
<path d="M 131.50 300.50 C 125.31 311.11, 110.86 300.00, 111.50 315.50 C 101.97 327.98, 121.21 326.51, 128.50 324.50 C 148.44 327.38, 138.66 307.38, 132.50 300.50 Z" fill="rgb(149.0495867768595,148.98512396694215,121.29917355371902)" stroke="rgb(149.0495867768595,148.98512396694215,121.29917355371902)" stroke-width="1" />
<path d="M 36.50 133.50 C 40.03 140.19, 41.51 147.09, 38.50 154.50 C 48.53 152.91, 56.87 156.29, 65.50 157.50 C 69.17 150.66, 65.77 145.42, 66.50 138.50 C 55.99 138.21, 47.46 134.11, 37.50 133.50 Z" fill="rgb(216.65042016806723,218.82857142857142,176.78655462184875)" stroke="rgb(216.65042016806723,218.82857142857142,176.78655462184875)" stroke-width="1" />
<path d="M 155.50 134.50 C 151.72 137.42, 139.53 132.28, 143.50 140.50 C 140.61 152.51, 150.79 146.10, 157.50 147.50 C 172.78 146.36, 186.66 144.26, 201.50 144.50 C 215.76 143.80, 201.66 139.80, 195.50 140.50 C 181.70 139.79, 168.74 134.23, 156.50 135.50 Z" fill="rgb(58.97976391231029,40.86677908937605,23.15851602023609)" stroke="rgb(58.97976391231029,40.86677908937605,23.15851602023609)" stroke-width="1" />
<path d="M 64.50 456.50 C 56.54 462.17, 67.94 463.66, 65.50 471.50 C 66.78 484.45, 102.82 479.68, 95.50 467.50 C 82.81 465.80, 78.96 453.76, 65.50 456.50 Z" fill="rgb(47.76752136752137,41.03589743589744,21.565811965811967)" stroke="rgb(47.76752136752137,41.03589743589744,21.565811965811967)" stroke-width="1" />
<path d="M 190.50 202.50 C 189.21 212.99, 184.75 241.05, 202.50 230.50 C 206.24 221.67, 208.76 213.33, 212.50 205.50 C 206.87 200.52, 198.42 203.35, 191.50 202.50 Z" fill="rgb(11.803886925795053,12.883392226148409,6.6537102473498235)" stroke="rgb(11.803886925795053,12.883392226148409,6.6537102473498235)" stroke-width="1" />
<path d="M 92.50 404.50 C 80.72 406.00, 49.62 431.39, 77.50 422.50 C 88.21 423.18, 96.17 416.71, 105.50 419.50 C 122.46 420.39, 100.29 404.91, 93.50 404.50 Z" fill="rgb(140.4925925925926,142.9814814814815,141.4611111111111)" stroke="rgb(140.4925925925926,142.9814814814815,141.4611111111111)" stroke-width="1" />
<path d="M 2.50 425.50 C -5.70 448.19, 38.14 435.66, 39.50 453.50 C 56.17 434.59, 17.95 432.86, 3.50 425.50 Z" fill="rgb(101.53333333333333,103.96666666666667,64.2)" stroke="rgb(101.53333333333333,103.96666666666667,64.2)" stroke-width="1" />
<path d="M 173.50 292.50 C 174.61 300.73, 178.89 307.65, 178.50 316.50 C 186.34 324.13, 209.03 316.22, 194.50 305.50 C 196.37 292.29, 185.09 291.27, 174.50 292.50 Z" fill="rgb(83.39065420560748,86.72897196261682,84.44112149532711)" stroke="rgb(83.39065420560748,86.72897196261682,84.44112149532711)" stroke-width="1" />
<path d="M 2.50 425.50 C -6.61 437.22, 16.31 442.93, 23.50 442.50 C 35.36 436.77, 32.51 451.54, 39.50 453.50 C 48.91 443.52, 39.73 432.98, 22.50 432.50 C 14.92 431.58, 10.75 424.82, 3.50 425.50 Z" fill="rgb(56.50847457627118,85.02824858757062,27.128060263653484)" stroke="rgb(56.50847457627118,85.02824858757062,27.128060263653484)" stroke-width="1" />
<path d="M 170.50 361.50 C 168.24 363.63, 164.42 361.98, 161.50 362.50 C 159.64 373.24, 158.10 400.52, 177.50 382.50 C 178.41 375.77, 171.83 365.58, 182.50 367.50 C 197.92 372.95, 181.40 356.04, 171.50 361.50 Z" fill="rgb(38.32934131736527,49.84431137724551,52.38922155688623)" stroke="rgb(38.32934131736527,49.84431137724551,52.38922155688623)" stroke-width="1" />
<path d="M 162.50 165.50 C 86.15 178.72, 208.48 182.17, 162.50 165.50 Z" fill="rgb(55.666666666666664,42.333333333333336,19.666666666666668)" stroke="rgb(55.666666666666664,42.333333333333336,19.666666666666668)" stroke-width="1" />
<path d="M 34.50 354.50 C -7.54 389.61, 66.58 381.45, 34.50 354.50 Z" fill="rgb(72.96969696969697,76.93939393939394,59.484848484848484)" stroke="rgb(72.96969696969697,76.93939393939394,59.484848484848484)" stroke-width="1" />
<path d="M 162.50 165.50 C 153.35 169.97, 127.76 162.20, 137.50 179.50 C 145.32 186.09, 147.32 174.82, 155.50 176.50 C 163.48 176.59, 169.98 175.52, 176.50 174.50 C 180.56 163.58, 170.76 165.37, 163.50 165.50 Z" fill="rgb(46.235537190082646,36.51652892561984,22.580578512396695)" stroke="rgb(46.235537190082646,36.51652892561984,22.580578512396695)" stroke-width="1" />
<path d="M 237.50 205.50 C 234.87 214.57, 217.11 236.22, 237.50 233.50 C 255.73 235.00, 250.88 209.21, 238.50 205.50 Z" fill="rgb(11.390756302521009,10.054621848739496,4.2478991596638656)" stroke="rgb(11.390756302521009,10.054621848739496,4.2478991596638656)" stroke-width="1" />
<path d="M 205.50 348.50 C 207.75 360.02, 210.89 372.53, 218.50 384.50 C 226.36 382.97, 223.19 374.88, 225.50 370.50 C 231.00 355.48, 215.08 353.96, 206.50 348.50 Z" fill="rgb(98.12314225053079,113.98513800424628,69.62420382165605)" stroke="rgb(98.12314225053079,113.98513800424628,69.62420382165605)" stroke-width="1" />
<path d="M 178.50 253.50 C 172.74 283.84, 188.94 300.72, 190.50 274.50 C 190.70 263.68, 193.17 250.66, 179.50 253.50 Z" fill="rgb(62.02614379084967,61.751633986928105,56.31372549019608)" stroke="rgb(62.02614379084967,61.751633986928105,56.31372549019608)" stroke-width="1" />
<path d="M 172.50 262.50 C 162.35 265.64, 151.19 277.09, 166.50 288.50 C 182.05 292.39, 179.65 266.96, 173.50 262.50 Z" fill="rgb(23.00995024875622,27.064676616915424,16.333333333333332)" stroke="rgb(23.00995024875622,27.064676616915424,16.333333333333332)" stroke-width="1" />
<path d="M 43.50 404.50 C 51.91 409.76, 57.74 434.35, 65.50 419.50 C 96.96 403.45, 60.17 406.38, 44.50 404.50 Z" fill="rgb(220.9047619047619,224.04761904761904,223.0)" stroke="rgb(220.9047619047619,224.04761904761904,223.0)" stroke-width="1" />
<path d="M 44.50 404.50 C 51.06 410.62, 59.52 435.29, 65.50 418.50 C 72.54 414.67, 89.60 403.78, 72.50 406.50 C 62.99 405.46, 54.01 405.54, 45.50 404.50 Z" fill="rgb(248.55831265508684,249.1836228287841,248.97518610421835)" stroke="rgb(248.55831265508684,249.1836228287841,248.97518610421835)" stroke-width="1" />
<path d="M 148.50 93.50 C 148.16 99.82, 143.71 113.70, 153.50 113.50 C 165.63 116.09, 174.25 117.82, 170.50 104.50 C 163.41 99.11, 155.11 100.04, 149.50 94.50 Z" fill="rgb(210.34715025906735,225.0984455958549,157.78497409326425)" stroke="rgb(210.34715025906735,225.0984455958549,157.78497409326425)" stroke-width="1" />
<path d="M 107.50 408.50 C 126.40 452.01, 152.24 409.80, 107.50 408.50 Z" fill="rgb(116.23255813953489,133.11627906976744,118.06976744186046)" stroke="rgb(116.23255813953489,133.11627906976744,118.06976744186046)" stroke-width="1" />
<path d="M 106.50 408.50 C 116.88 417.41, 121.45 437.63, 136.50 426.50 C 134.63 418.45, 128.97 428.69, 128.50 420.50 C 130.95 407.70, 117.96 407.36, 107.50 408.50 Z" fill="rgb(200.72033898305085,213.3728813559322,215.51129943502823)" stroke="rgb(200.72033898305085,213.3728813559322,215.51129943502823)" stroke-width="1" />
<path d="M 120.50 453.50 C 115.61 466.83, 102.18 472.98, 89.50 478.50 C 105.19 496.81, 119.00 470.96, 121.50 453.50 Z" fill="rgb(4.938524590163935,6.241803278688525,3.6557377049180326)" stroke="rgb(4.938524590163935,6.241803278688525,3.6557377049180326)" stroke-width="1" />
<path d="M 195.50 362.50 C 178.56 368.08, 209.33 388.96, 214.50 380.50 C 206.26 376.00, 210.96 358.95, 196.50 362.50 Z" fill="rgb(101.01234567901234,122.11728395061728,128.26543209876544)" stroke="rgb(101.01234567901234,122.11728395061728,128.26543209876544)" stroke-width="1" />
<path d="M 109.50 287.50 C 106.63 299.28, 121.22 314.28, 130.50 299.50 C 130.30 291.24, 118.29 286.84, 110.50 287.50 Z" fill="rgb(170.55339805825244,179.61165048543688,107.99352750809061)" stroke="rgb(170.55339805825244,179.61165048543688,107.99352750809061)" stroke-width="1" />
<path d="M 22.50 367.50 C 7.92 380.81, 33.46 385.69, 40.50 377.50 C 41.86 366.86, 30.65 367.16, 23.50 367.50 Z" fill="rgb(114.88172043010752,117.82078853046595,102.3584229390681)" stroke="rgb(114.88172043010752,117.82078853046595,102.3584229390681)" stroke-width="1" />
<path d="M 122.50 449.50 C 122.24 458.77, 105.24 483.62, 124.50 477.50 C 118.75 473.67, 141.06 455.21, 123.50 449.50 Z" fill="rgb(50.641114982578394,48.9198606271777,32.01742160278746)" stroke="rgb(50.641114982578394,48.9198606271777,32.01742160278746)" stroke-width="1" />
<path d="M 70.50 154.50 C 59.94 157.09, 59.53 170.60, 71.50 170.50 C 83.72 176.03, 84.19 149.15, 71.50 154.50 Z" fill="rgb(152.89716312056737,164.71985815602838,101.86170212765957)" stroke="rgb(152.89716312056737,164.71985815602838,101.86170212765957)" stroke-width="1" />
<path d="M 226.50 501.50 C 220.40 507.84, 205.43 505.39, 202.50 511.50 C 216.44 513.30, 256.67 511.56, 227.50 501.50 Z" fill="rgb(28.391304347826086,57.32608695652174,15.079710144927537)" stroke="rgb(28.391304347826086,57.32608695652174,15.079710144927537)" stroke-width="1" />
<path d="M 142.50 182.50 C 125.52 177.60, 132.66 214.05, 142.50 195.50 C 152.51 212.83, 149.84 183.27, 143.50 182.50 Z" fill="rgb(172.47857142857143,160.93571428571428,111.09285714285714)" stroke="rgb(172.47857142857143,160.93571428571428,111.09285714285714)" stroke-width="1" />
<path d="M 301.50 488.50 C 297.39 493.02, 299.42 500.08, 297.50 505.50 C 307.42 517.60, 320.76 485.61, 302.50 488.50 Z" fill="rgb(45.193548387096776,73.3508064516129,25.31451612903226)" stroke="rgb(45.193548387096776,73.3508064516129,25.31451612903226)" stroke-width="1" />
<path d="M 291.50 186.50 C 281.42 203.08, 317.26 206.71, 308.50 190.50 C 303.39 187.96, 297.83 187.51, 292.50 186.50 Z" fill="rgb(128.21052631578948,125.33333333333333,80.96491228070175)" stroke="rgb(128.21052631578948,125.33333333333333,80.96491228070175)" stroke-width="1" />
<path d="M 169.50 496.50 C 172.64 506.44, 148.78 509.15, 157.50 511.50 C 175.51 515.66, 187.65 504.93, 170.50 496.50 Z" fill="rgb(40.716981132075475,68.84905660377359,21.88679245283019)" stroke="rgb(40.716981132075475,68.84905660377359,21.88679245283019)" stroke-width="1" />
<path d="M 135.50 400.50 C 109.90 422.82, 169.81 416.24, 135.50 400.50 Z" fill="rgb(80.68181818181819,92.5909090909091,91.11363636363636)" stroke="rgb(80.68181818181819,92.5909090909091,91.11363636363636)" stroke-width="1" />
<path d="M 33.50 354.50 C 22.84 363.86, 34.50 367.35, 40.50 371.50 C 39.38 382.70, 52.04 345.34, 34.50 354.50 Z" fill="rgb(120.22666666666667,120.44888888888889,106.66666666666667)" stroke="rgb(120.22666666666667,120.44888888888889,106.66666666666667)" stroke-width="1" />
<path d="M 125.50 242.50 C 105.69 247.55, 138.49 268.59, 136.50 250.50 C 131.25 245.57, 134.35 242.25, 126.50 242.50 Z" fill="rgb(38.407407407407405,46.25,27.041666666666668)" stroke="rgb(38.407407407407405,46.25,27.041666666666668)" stroke-width="1" />
<path d="M 1.50 437.50 C -4.71 455.65, 5.76 459.37, 16.50 445.50 C 13.10 439.12, 6.88 440.52, 2.50 437.50 Z" fill="rgb(107.49029126213593,118.27184466019418,78.26699029126213)" stroke="rgb(107.49029126213593,118.27184466019418,78.26699029126213)" stroke-width="1" />
<path d="M 21.50 47.50 C 6.70 53.27, 38.09 60.12, 41.50 54.50 C 40.08 46.67, 29.78 47.28, 22.50 47.50 Z" fill="rgb(92.4059405940594,107.16831683168317,61.99009900990099)" stroke="rgb(92.4059405940594,107.16831683168317,61.99009900990099)" stroke-width="1" />
<path d="M 307.50 437.50 C 276.27 449.61, 336.65 453.74, 307.50 437.50 Z" fill="rgb(46.568627450980394,85.3529411764706,38.90196078431372)" stroke="rgb(46.568627450980394,85.3529411764706,38.90196078431372)" stroke-width="1" />
<path d="M 187.50 254.50 C 184.40 262.35, 186.35 272.79, 186.50 282.50 C 190.63 304.16, 193.10 259.68, 188.50 254.50 Z" fill="rgb(65.85632183908046,69.17241379310344,69.38505747126437)" stroke="rgb(65.85632183908046,69.17241379310344,69.38505747126437)" stroke-width="1" />
<path d="M 249.50 439.50 C 237.77 445.26, 252.13 459.72, 260.50 449.50 C 262.67 441.32, 254.72 441.77, 250.50 439.50 Z" fill="rgb(18.92896174863388,49.31147540983606,8.0)" stroke="rgb(18.92896174863388,49.31147540983606,8.0)" stroke-width="1" />
<path d="M 173.50 383.50 C 132.57 418.94, 183.49 396.05, 173.50 383.50 Z" fill="rgb(64.29545454545455,85.47727272727273,63.02272727272727)" stroke="rgb(64.29545454545455,85.47727272727273,63.02272727272727)" stroke-width="1" />
<path d="M 135.50 400.50 C 133.43 405.86, 122.90 412.57, 131.50 414.50 C 143.07 422.42, 145.79 403.70, 136.50 400.50 Z" fill="rgb(36.98275862068966,40.81896551724138,38.38793103448276)" stroke="rgb(36.98275862068966,40.81896551724138,38.38793103448276)" stroke-width="1" />
<path d="M 157.50 227.50 C 151.95 238.95, 168.21 237.16, 176.50 235.50 C 175.15 227.97, 164.93 228.84, 158.50 227.50 Z" fill="rgb(29.794117647058822,47.59411764705882,18.270588235294117)" stroke="rgb(29.794117647058822,47.59411764705882,18.270588235294117)" stroke-width="1" />
<path d="M 173.50 383.50 C 167.04 386.51, 150.59 407.68, 164.50 400.50 C 162.94 388.66, 190.73 389.65, 174.50 383.50 Z" fill="rgb(59.330275229357795,72.3211009174312,58.11926605504587)" stroke="rgb(59.330275229357795,72.3211009174312,58.11926605504587)" stroke-width="1" />
<path d="M 291.50 186.50 C 290.40 189.74, 288.34 199.38, 293.50 199.50 C 306.42 203.34, 302.03 183.42, 292.50 186.50 Z" fill="rgb(189.38,182.58,149.92)" stroke="rgb(189.38,182.58,149.92)" stroke-width="1" />
<path d="M 316.50 395.50 C 308.59 394.47, 293.41 406.55, 309.50 404.50 C 317.07 407.87, 324.22 400.47, 317.50 395.50 Z" fill="rgb(6.883116883116883,14.519480519480519,5.467532467532467)" stroke="rgb(6.883116883116883,14.519480519480519,5.467532467532467)" stroke-width="1" />
<path d="M 228.50 163.50 C 227.10 171.59, 228.47 182.18, 237.50 176.50 C 237.86 168.47, 239.08 160.59, 229.50 163.50 Z" fill="rgb(37.795918367346935,31.693877551020407,17.299319727891156)" stroke="rgb(37.795918367346935,31.693877551020407,17.299319727891156)" stroke-width="1" />
<path d="M 309.50 438.50 C 308.86 441.84, 304.60 442.35, 302.50 444.50 C 302.56 459.52, 327.34 442.85, 310.50 438.50 Z" fill="rgb(31.595744680851062,70.22695035460993,6.524822695035461)" stroke="rgb(31.595744680851062,70.22695035460993,6.524822695035461)" stroke-width="1" />
<path d="M 227.50 500.50 C 218.43 507.82, 232.68 515.67, 239.50 510.50 C 238.42 504.63, 233.25 501.31, 228.50 500.50 Z" fill="rgb(39.21917808219178,71.66438356164383,13.952054794520548)" stroke="rgb(39.21917808219178,71.66438356164383,13.952054794520548)" stroke-width="1" />
<path d="M 171.50 495.50 C 158.20 501.18, 178.58 517.68, 181.50 504.50 C 173.62 504.49, 176.89 498.01, 172.50 495.50 Z" fill="rgb(62.08029197080292,92.64233576642336,36.91970802919708)" stroke="rgb(62.08029197080292,92.64233576642336,36.91970802919708)" stroke-width="1" />
<path d="M 243.50 455.50 C 233.79 461.05, 245.10 473.44, 252.50 461.50 C 255.79 455.94, 248.21 455.25, 244.50 455.50 Z" fill="rgb(18.88888888888889,48.992592592592594,8.214814814814815)" stroke="rgb(18.88888888888889,48.992592592592594,8.214814814814815)" stroke-width="1" />
<path d="M 158.50 0.50 C 159.32 9.67, 157.94 37.83, 162.50 32.50 C 158.93 21.82, 165.79 7.22, 159.50 0.50 Z" fill="rgb(133.73015873015873,152.04761904761904,99.68253968253968)" stroke="rgb(133.73015873015873,152.04761904761904,99.68253968253968)" stroke-width="1" />
<path d="M 103.50 298.50 C 91.33 299.51, 100.89 311.44, 108.50 312.50 C 111.89 306.49, 106.88 302.17, 104.50 298.50 Z" fill="rgb(79.63235294117646,78.5,60.27205882352941)" stroke="rgb(79.63235294117646,78.5,60.27205882352941)" stroke-width="1" />
<path d="M 178.50 254.50 C 176.29 262.38, 179.67 270.75, 178.50 279.50 C 182.56 297.55, 182.21 259.94, 179.50 254.50 Z" fill="rgb(91.2991452991453,95.76923076923077,94.78632478632478)" stroke="rgb(91.2991452991453,95.76923076923077,94.78632478632478)" stroke-width="1" />
<path d="M 164.50 237.50 C 161.77 241.72, 170.72 251.06, 177.50 250.50 C 179.86 243.48, 170.73 239.14, 165.50 237.50 Z" fill="rgb(69.87301587301587,79.55555555555556,65.18253968253968)" stroke="rgb(69.87301587301587,79.55555555555556,65.18253968253968)" stroke-width="1" />
<path d="M 6.50 453.50 C -6.56 458.36, 3.99 484.03, 6.50 462.50 C 6.10 458.43, 13.95 452.56, 7.50 453.50 Z" fill="rgb(93.53448275862068,86.86206896551724,57.060344827586206)" stroke="rgb(93.53448275862068,86.86206896551724,57.060344827586206)" stroke-width="1" />
<path d="M 78.50 308.50 C 78.77 314.87, 62.65 319.63, 73.50 323.50 C 80.70 325.92, 82.73 311.44, 79.50 308.50 Z" fill="rgb(93.5126050420168,95.52941176470588,64.12605042016807)" stroke="rgb(93.5126050420168,95.52941176470588,64.12605042016807)" stroke-width="1" />
<path d="M 269.50 457.50 C 238.94 462.15, 290.32 470.40, 269.50 457.50 Z" fill="rgb(24.83695652173913,56.05434782608695,14.804347826086957)" stroke="rgb(24.83695652173913,56.05434782608695,14.804347826086957)" stroke-width="1" />
<path d="M 334.50 436.50 C 320.81 458.18, 354.63 440.38, 334.50 436.50 Z" fill="rgb(28.40449438202247,62.39325842696629,14.865168539325843)" stroke="rgb(28.40449438202247,62.39325842696629,14.865168539325843)" stroke-width="1" />
<path d="M 271.50 442.50 C 261.72 449.74, 289.24 453.61, 284.50 442.50 C 279.83 442.50, 276.17 442.50, 272.50 442.50 Z" fill="rgb(46.50892857142857,87.19642857142857,37.42857142857143)" stroke="rgb(46.50892857142857,87.19642857142857,37.42857142857143)" stroke-width="1" />
<path d="M 219.50 163.50 C 215.03 189.45, 238.22 164.90, 219.50 163.50 Z" fill="rgb(34.1505376344086,28.225806451612904,16.172043010752688)" stroke="rgb(34.1505376344086,28.225806451612904,16.172043010752688)" stroke-width="1" />
<path d="M 77.50 325.50 C 55.13 334.64, 97.10 338.01, 77.50 325.50 Z" fill="rgb(162.25581395348837,185.2093023255814,93.72093023255815)" stroke="rgb(162.25581395348837,185.2093023255814,93.72093023255815)" stroke-width="1" />
<path d="M 117.50 458.50 C 111.61 464.58, 115.35 477.56, 106.50 480.50 C 113.67 489.33, 115.68 465.19, 118.50 458.50 Z" fill="rgb(30.647727272727273,32.43181818181818,32.625)" stroke="rgb(30.647727272727273,32.43181818181818,32.625)" stroke-width="1" />
<path d="M 147.50 113.50 C 145.10 121.36, 159.87 120.75, 164.50 117.50 C 158.98 115.95, 153.89 114.37, 148.50 113.50 Z" fill="rgb(191.61363636363637,176.125,146.14772727272728)" stroke="rgb(191.61363636363637,176.125,146.14772727272728)" stroke-width="1" />
<path d="M 33.50 397.50 C 30.46 413.64, 56.46 406.43, 33.50 397.50 Z" fill="rgb(156.37333333333333,151.49333333333334,135.33333333333334)" stroke="rgb(156.37333333333333,151.49333333333334,135.33333333333334)" stroke-width="1" />
<path d="M 233.50 460.50 C 212.15 473.47, 254.63 463.36, 233.50 460.50 Z" fill="rgb(41.66129032258065,81.14516129032258,33.46774193548387)" stroke="rgb(41.66129032258065,81.14516129032258,33.46774193548387)" stroke-width="1" />
<path d="M 167.50 340.50 C 152.62 352.39, 189.58 343.26, 167.50 340.50 Z" fill="rgb(62.967213114754095,74.32786885245902,44.114754098360656)" stroke="rgb(62.967213114754095,74.32786885245902,44.114754098360656)" stroke-width="1" />
<path d="M 6.50 165.50 C 7.25 181.31, 23.57 168.54, 6.50 165.50 Z" fill="rgb(144.41666666666666,167.58333333333334,88.83333333333333)" stroke="rgb(144.41666666666666,167.58333333333334,88.83333333333333)" stroke-width="1" />
<path d="M 134.50 400.50 C 125.29 415.08, 152.33 404.61, 134.50 400.50 Z" fill="rgb(55.21818181818182,56.127272727272725,53.49090909090909)" stroke="rgb(55.21818181818182,56.127272727272725,53.49090909090909)" stroke-width="1" />
<path d="M 8.50 164.50 C -1.86 176.12, 25.27 172.27, 8.50 164.50 Z" fill="rgb(129.49019607843138,153.2156862745098,71.6078431372549)" stroke="rgb(129.49019607843138,153.2156862745098,71.6078431372549)" stroke-width="1" />
<path d="M 178.50 164.50 C 174.68 183.95, 190.09 168.55, 178.50 164.50 Z" fill="rgb(94.38,90.1,63.64)" stroke="rgb(94.38,90.1,63.64)" stroke-width="1" />
<path d="M 46.50 344.50 C 23.67 350.16, 59.27 350.80, 46.50 344.50 Z" fill="rgb(220.88095238095238,213.76190476190476,180.04761904761904)" stroke="rgb(220.88095238095238,213.76190476190476,180.04761904761904)" stroke-width="1" />
<path d="M 113.50 479.50 C 111.38 491.94, 130.76 477.84, 113.50 479.50 Z" fill="rgb(113.57142857142857,125.54761904761905,84.80952380952381)" stroke="rgb(113.57142857142857,125.54761904761905,84.80952380952381)" stroke-width="1" />
<path d="M 129.50 203.50 C 124.70 216.70, 145.97 202.56, 129.50 203.50 Z" fill="rgb(222.3953488372093,227.25581395348837,198.02325581395348)" stroke="rgb(222.3953488372093,227.25581395348837,198.02325581395348)" stroke-width="1" />
<path d="M 241.50 133.50 C 230.88 144.92, 253.33 141.96, 241.50 133.50 Z" fill="rgb(52.45238095238095,64.21428571428571,58.142857142857146)" stroke="rgb(52.45238095238095,64.21428571428571,58.142857142857146)" stroke-width="1" />
<path d="M 260.50 0.50 C 283.02 15.78, 284.91 11.41, 260.50 0.50 Z" fill="rgb(135.925,145.2,96.875)" stroke="rgb(135.925,145.2,96.875)" stroke-width="1" />
<path d="M 0.50 419.50 C -1.09 432.46, 18.11 419.14, 0.50 419.50 Z" fill="rgb(190.89361702127658,214.68085106382978,126.59574468085107)" stroke="rgb(190.89361702127658,214.68085106382978,126.59574468085107)" stroke-width="1" />
<path d="M 173.50 383.50 C 168.58 394.69, 189.80 383.54, 173.50 383.50 Z" fill="rgb(95.925,106.875,96.225)" stroke="rgb(95.925,106.875,96.225)" stroke-width="1" />
<path d="M 162.50 260.50 C 158.86 273.72, 169.02 270.27, 162.50 260.50 Z" fill="rgb(49.6,48.4,35.2)" stroke="rgb(49.6,48.4,35.2)" stroke-width="1" />
<path d="M 222.50 325.50 C 209.84 330.46, 223.28 334.77, 222.50 325.50 Z" fill="rgb(134.16,154.32,100.8)" stroke="rgb(134.16,154.32,100.8)" stroke-width="1" />
<path d="M 162.50 260.50 C 160.03 275.04, 168.36 269.15, 162.50 260.50 Z" fill="rgb(92.04,89.72,76.44)" stroke="rgb(92.04,89.72,76.44)" stroke-width="1" />
<path d="M 76.50 342.50 C 63.41 346.78, 84.42 349.91, 76.50 342.50 Z" fill="rgb(157.8846153846154,176.69230769230768,96.26923076923077)" stroke="rgb(157.8846153846154,176.69230769230768,96.26923076923077)" stroke-width="1" />
<path d="M 192.50 30.50 C 192.07 40.81, 199.27 35.56, 192.50 30.50 Z" fill="rgb(143.15,152.3,110.05)" stroke="rgb(143.15,152.3,110.05)" stroke-width="1" />
<path d="M 204.50 301.50 C 197.25 307.97, 213.08 305.08, 204.50 301.50 Z" fill="rgb(87.0,83.0,68.85714285714286)" stroke="rgb(87.0,83.0,68.85714285714286)" stroke-width="1" />
</svg>