<svg xmlns="http://www.w3.org/2000/svg" width="341" height="512" viewbox="0 0 341 512">
<path d="M 0.50 0.50 C 0.50 70.83, 0.50 141.17, 0.50 211.50 C 0.50 283.17, 0.50 353.83, 0.50 424.50 C 8.68 452.32, -18.47 514.47, 19.50 511.50 C 55.83 511.50, 91.17 511.50, 126.50 511.50 C 131.50 511.50, 135.50 511.50, 139.50 511.50 C 144.50 511.50, 148.50 511.50, 152.50 511.50 C 162.17 511.50, 170.83 511.50, 179.50 511.50 C 197.83 511.50, 215.17 511.50, 232.50 511.50 C 268.83 511.50, 304.17 511.50, 339.50 511.50 C 355.33 213.33, 407.77 -122.44, 1.50 0.50 Z" fill="rgb(95.95155664642812,104.7367265211213,72.84523963312233)" stroke="rgb(95.95155664642812,104.7367265211213,72.84523963312233)" stroke-width="1" />
<path d="M 249.50 0.50 C 272.61 44.92, 250.26 126.27, 297.50 146.50 C 306.89 149.79, 300.80 160.50, 306.50 165.50 C 302.97 168.94, 297.76 169.66, 295.50 169.50 C 295.58 172.83, 288.22 172.47, 287.50 176.50 C 287.27 177.30, 291.47 175.96, 294.50 177.50 C 292.09 183.47, 299.67 182.40, 302.50 183.50 C 306.23 185.54, 311.71 186.96, 311.50 191.50 C 312.16 196.86, 311.22 200.21, 308.50 202.50 C 305.35 205.27, 301.72 205.89, 298.50 207.50 C 291.80 207.85, 296.76 212.73, 295.50 216.50 C 295.50 220.83, 295.50 224.17, 295.50 227.50 C 294.08 233.02, 295.48 235.98, 298.50 239.50 C 294.53 246.41, 290.23 254.57, 285.50 261.50 C 274.75 269.03, 287.22 277.54, 283.50 285.50 C 278.01 291.86, 276.45 300.95, 272.50 307.50 C 269.59 316.41, 260.97 319.75, 253.50 322.50 C 242.22 341.95, 222.13 333.85, 208.50 340.50 C 210.84 361.86, 215.43 397.48, 181.50 378.50 C 121.99 412.12, 114.88 503.05, 200.50 511.50 C 379.14 566.39, 339.92 403.11, 340.50 280.50 C 340.50 264.50, 340.50 249.50, 340.50 234.50 C 340.50 226.17, 340.50 218.83, 340.50 211.50 C 340.50 203.17, 340.50 195.83, 340.50 188.50 C 340.50 180.17, 340.50 172.83, 340.50 165.50 C 340.50 157.17, 340.50 149.83, 340.50 142.50 C 340.50 134.17, 340.50 126.83, 340.50 119.50 C 340.50 110.83, 340.50 103.17, 340.50 95.50 C 356.35 17.32, 330.43 -18.10, 250.50 0.50 Z" fill="rgb(67.78067318132464,93.41910966340934,42.40933767643865)" stroke="rgb(67.78067318132464,93.41910966340934,42.40933767643865)" stroke-width="1" />
<path d="M 0.50 0.50 C 0.50 22.17, 0.50 43.83, 0.50 65.50 C 0.50 71.50, 0.50 76.50, 0.50 81.50 C 0.50 87.83, 0.50 93.17, 0.50 98.50 C -0.65 111.22, 1.29 122.65, 15.50 118.50 C 20.57 117.30, 29.48 115.60, 29.50 122.50 C 27.24 129.55, 36.58 130.19, 41.50 130.50 C 54.83 137.02, 62.09 126.16, 68.50 119.50 C 77.96 111.26, 75.70 98.63, 77.50 87.50 C 85.34 65.61, 99.44 98.73, 98.50 83.50 C 101.54 78.18, 104.02 71.68, 110.50 71.50 C 116.66 70.07, 122.35 69.95, 127.50 68.50 C 139.96 66.64, 153.53 70.26, 149.50 84.50 C 140.42 113.02, 165.51 120.66, 186.50 124.50 C 197.23 128.31, 213.07 125.28, 216.50 136.50 C 222.31 137.95, 227.05 139.59, 232.50 139.50 C 238.51 137.76, 241.61 128.51, 246.50 136.50 C 264.28 146.82, 299.49 137.00, 306.50 158.50 C 458.13 -13.82, 160.82 -19.01, 1.50 0.50 Z" fill="rgb(159.34003771213074,175.2960402262728,110.20427404148334)" stroke="rgb(159.34003771213074,175.2960402262728,110.20427404148334)" stroke-width="1" />
<path d="M 333.50 168.50 C 327.70 172.32, 324.03 172.41, 328.50 177.50 C 324.38 182.47, 319.71 182.30, 315.50 185.50 C 310.80 191.18, 316.86 196.69, 312.50 201.50 C 308.43 206.07, 304.24 209.27, 298.50 209.50 C 298.60 215.68, 296.78 220.06, 297.50 225.50 C 296.53 231.99, 298.87 237.54, 298.50 241.50 C 297.78 248.29, 291.78 251.51, 289.50 255.50 C 290.05 263.66, 281.25 263.44, 281.50 269.50 C 278.58 277.07, 290.44 279.25, 284.50 284.50 C 277.88 289.14, 281.64 296.66, 276.50 300.50 C 271.53 305.81, 274.06 313.06, 267.50 315.50 C 262.29 320.74, 255.92 319.77, 251.50 323.50 C 246.99 329.04, 242.25 333.40, 236.50 334.50 C 231.89 336.83, 221.63 337.44, 223.50 332.50 C 219.99 336.95, 212.99 336.48, 208.50 338.50 C 202.81 340.31, 194.82 339.77, 194.50 346.50 C 201.23 348.67, 202.79 351.77, 206.50 355.50 C 207.89 359.73, 208.50 365.18, 210.50 370.50 C 208.70 375.96, 216.74 379.94, 207.50 381.50 C 201.55 383.57, 196.31 378.79, 192.50 376.50 C 189.00 373.39, 180.41 367.59, 178.50 373.50 C 180.88 381.23, 180.37 384.41, 175.50 387.50 C 164.64 389.28, 160.50 404.46, 151.50 410.50 C 147.43 415.72, 140.40 417.22, 137.50 421.50 C 143.06 428.12, 133.14 432.23, 129.50 435.50 C 125.81 438.15, 121.80 445.90, 126.50 448.50 C 131.41 453.57, 133.72 458.31, 132.50 464.50 C 132.62 469.50, 128.59 477.66, 134.50 478.50 C 140.03 481.54, 142.77 485.86, 146.50 490.50 C 156.72 499.26, 166.04 507.18, 176.50 508.50 C 196.54 514.10, 219.09 510.22, 239.50 511.50 C 261.50 511.50, 282.50 511.50, 303.50 511.50 C 328.05 514.05, 348.97 513.97, 340.50 484.50 C 340.50 478.50, 340.50 473.50, 340.50 468.50 C 340.50 462.50, 340.50 457.50, 340.50 452.50 C 340.50 446.50, 340.50 441.50, 340.50 436.50 C 340.50 430.50, 340.50 425.50, 340.50 420.50 C 340.50 414.50, 340.50 409.50, 340.50 404.50 C 340.50 398.50, 340.50 393.50, 340.50 388.50 C 340.50 382.50, 340.50 377.50, 340.50 372.50 C 340.50 366.50, 340.50 361.50, 340.50 356.50 C 340.50 350.50, 340.50 345.50, 340.50 340.50 C 340.50 334.50, 340.50 329.50, 340.50 324.50 C 340.50 318.50, 340.50 313.50, 340.50 308.50 C 340.50 302.50, 340.50 297.50, 340.50 292.50 C 340.50 286.50, 340.50 281.50, 340.50 276.50 C 340.50 270.50, 340.50 265.50, 340.50 260.50 C 340.50 254.50, 340.50 249.50, 340.50 244.50 C 340.50 238.50, 340.50 233.50, 340.50 228.50 C 338.55 223.17, 339.89 217.48, 339.50 212.50 C 339.50 206.50, 339.50 201.50, 339.50 196.50 C 339.50 190.50, 339.50 185.50, 339.50 180.50 C 339.19 175.10, 341.35 166.73, 334.50 168.50 Z" fill="rgb(45.127998407484824,68.98035897946319,32.43495570817159)" stroke="rgb(45.127998407484824,68.98035897946319,32.43495570817159)" stroke-width="1" />
<path d="M 137.50 70.50 C 125.04 73.59, 100.64 69.48, 105.50 88.50 C 97.04 104.87, 77.85 72.05, 80.50 103.50 C 65.77 131.54, 67.67 164.78, 99.50 174.50 C 109.08 175.14, 108.53 189.68, 118.50 184.50 C 127.29 182.83, 132.37 191.20, 135.50 197.50 C 140.11 198.03, 152.40 199.92, 144.50 209.50 C 147.35 218.36, 152.56 224.68, 160.50 227.50 C 175.17 233.13, 189.11 233.50, 204.50 233.50 C 220.53 234.83, 234.27 233.70, 249.50 233.50 C 257.50 232.50, 264.50 232.50, 271.50 232.50 C 279.49 232.90, 289.32 233.17, 286.50 223.50 C 286.31 219.92, 286.71 215.41, 284.50 212.50 C 287.08 209.53, 288.45 204.95, 292.50 204.50 C 302.68 206.29, 307.64 196.45, 302.50 189.50 C 295.41 185.31, 286.90 186.94, 280.50 183.50 C 280.04 179.25, 278.34 175.08, 280.50 172.50 C 285.55 171.89, 287.14 166.37, 291.50 167.50 C 301.88 165.42, 298.73 152.91, 294.50 149.50 C 286.06 148.09, 279.01 145.74, 271.50 144.50 C 263.47 144.56, 256.30 139.69, 249.50 142.50 C 240.75 144.11, 235.25 141.76, 227.50 141.50 C 217.52 141.99, 214.55 134.39, 208.50 131.50 C 200.47 129.09, 192.34 129.36, 185.50 126.50 C 143.25 131.63, 151.45 91.33, 138.50 70.50 Z" fill="rgb(50.423056300268094,46.873458445040214,32.69383378016086)" stroke="rgb(50.423056300268094,46.873458445040214,32.69383378016086)" stroke-width="1" />
<path d="M 35.50 172.50 C 29.79 176.06, 23.62 173.56, 16.50 174.50 C 12.04 173.73, 9.74 175.75, 6.50 175.50 C 1.63 174.57, 0.96 178.08, 1.50 181.50 C 0.14 188.41, 0.50 195.03, 0.50 201.50 C 0.50 209.17, 0.50 215.83, 0.50 222.50 C 0.50 229.83, 0.50 236.17, 0.50 242.50 C 0.50 249.83, 0.50 256.17, 0.50 262.50 C 0.50 269.83, 0.50 276.17, 0.50 282.50 C 0.50 290.17, 0.50 296.83, 0.50 303.50 C 1.20 317.49, 0.90 330.88, 2.50 343.50 C 1.29 356.77, 0.10 374.97, 4.50 382.50 C 17.29 380.54, 22.13 363.56, 24.50 353.50 C 26.78 346.49, 35.56 344.41, 41.50 342.50 C 49.79 341.99, 57.09 341.53, 62.50 336.50 C 66.10 329.28, 69.66 323.04, 72.50 316.50 C 79.43 311.54, 77.01 302.83, 82.50 297.50 C 87.62 291.59, 94.43 289.40, 101.50 289.50 C 108.98 284.83, 114.89 286.76, 122.50 287.50 C 126.34 288.88, 129.45 289.61, 132.50 290.50 C 137.38 292.26, 129.44 292.74, 136.50 294.50 C 139.56 299.21, 144.43 297.57, 143.50 293.50 C 143.84 288.46, 148.25 287.85, 150.50 284.50 C 145.63 280.10, 151.96 278.20, 151.50 275.50 C 152.50 271.50, 152.50 268.50, 152.50 265.50 C 154.92 262.09, 153.58 258.12, 155.50 255.50 C 156.56 251.81, 157.51 247.12, 155.50 244.50 C 153.40 240.95, 151.13 237.69, 153.50 234.50 C 156.04 230.15, 152.70 227.11, 150.50 224.50 C 141.42 221.72, 146.16 208.21, 137.50 208.50 C 128.68 204.48, 131.07 196.11, 125.50 190.50 C 122.27 187.34, 117.97 187.42, 116.50 189.50 C 116.74 194.29, 111.23 198.28, 108.50 195.50 C 109.66 190.47, 106.03 188.42, 104.50 185.50 C 101.65 181.92, 101.46 177.80, 97.50 176.50 C 90.26 174.94, 84.86 171.36, 77.50 172.50 C 73.12 171.18, 70.04 175.08, 67.50 172.50 C 64.34 175.20, 59.66 171.80, 57.50 174.50 C 50.02 171.20, 43.81 173.43, 36.50 172.50 Z" fill="rgb(150.0530673111534,170.94652131434154,100.69203476114568)" stroke="rgb(150.0530673111534,170.94652131434154,100.69203476114568)" stroke-width="1" />
<path d="M 162.50 0.50 C 161.78 6.96, 164.86 11.85, 163.50 17.50 C 164.81 24.57, 164.43 29.87, 162.50 36.50 C 156.08 34.26, 158.74 20.70, 154.50 31.50 C 151.85 37.24, 148.93 43.63, 145.50 49.50 C 147.94 56.01, 144.77 64.53, 137.50 63.50 C 130.70 70.52, 146.61 65.91, 148.50 73.50 C 148.21 87.65, 150.71 97.38, 149.50 110.50 C 164.78 112.05, 168.54 125.45, 183.50 124.50 C 190.24 125.32, 195.50 127.31, 201.50 127.50 C 204.91 128.79, 207.58 129.43, 210.50 129.50 C 215.90 130.98, 214.65 136.65, 218.50 137.50 C 225.64 136.13, 230.78 142.16, 236.50 138.50 C 237.96 135.68, 239.50 132.39, 242.50 132.50 C 245.97 134.81, 246.83 139.24, 249.50 140.50 C 255.95 140.55, 264.46 141.43, 265.50 135.50 C 265.59 127.48, 266.69 122.38, 263.50 116.50 C 261.50 111.52, 264.11 105.16, 262.50 99.50 C 262.45 92.11, 262.34 85.74, 259.50 80.50 C 258.57 73.18, 257.69 67.23, 251.50 64.50 C 250.27 56.66, 255.44 51.17, 251.50 45.50 C 249.10 39.66, 248.68 32.32, 250.50 27.50 C 254.79 21.19, 253.18 13.80, 249.50 8.50 C 247.72 0.62, 242.42 -0.44, 235.50 0.50 C 228.50 0.50, 222.50 0.50, 216.50 0.50 C 209.83 0.50, 204.17 0.50, 198.50 0.50 C 191.50 0.50, 185.50 0.50, 179.50 0.50 C 173.14 0.89, 176.48 10.88, 173.50 14.50 C 173.04 21.45, 174.55 28.21, 172.50 33.50 C 171.56 40.05, 174.61 47.26, 170.50 51.50 C 165.90 51.36, 168.49 46.24, 166.50 44.50 C 167.75 40.26, 165.73 37.96, 166.50 34.50 C 166.98 26.68, 166.69 22.08, 167.50 15.50 C 166.12 9.88, 170.98 -0.98, 163.50 0.50 Z" fill="rgb(157.04073699759,180.9753556713053,101.12897457824769)" stroke="rgb(157.04073699759,180.9753556713053,101.12897457824769)" stroke-width="1" />
<path d="M 248.50 0.50 C 247.09 7.90, 257.69 5.16, 258.50 11.50 C 262.10 18.01, 259.44 22.50, 254.50 25.50 C 248.33 30.06, 253.78 35.86, 250.50 40.50 C 254.49 44.92, 257.76 51.16, 253.50 55.50 C 249.96 62.75, 253.05 64.61, 258.50 67.50 C 260.90 72.86, 260.72 78.29, 263.50 82.50 C 262.74 88.62, 265.09 92.45, 264.50 97.50 C 263.76 104.08, 267.24 107.92, 266.50 113.50 C 267.59 119.07, 269.70 123.73, 267.50 128.50 C 267.10 134.23, 267.65 140.11, 270.50 142.50 C 276.65 143.36, 280.69 142.68, 285.50 145.50 C 291.65 146.46, 296.84 147.34, 301.50 149.50 C 302.44 155.74, 302.78 160.82, 306.50 164.50 C 311.94 166.08, 316.48 164.73, 321.50 166.50 C 326.60 171.28, 332.09 169.01, 336.50 166.50 C 341.82 165.82, 338.42 157.42, 339.50 153.50 C 339.50 147.83, 339.50 143.17, 339.50 138.50 C 339.50 132.83, 339.50 128.17, 339.50 123.50 C 339.50 117.83, 339.50 113.17, 339.50 108.50 C 340.44 102.75, 340.75 97.74, 340.50 92.50 C 340.50 86.83, 340.50 82.17, 340.50 77.50 C 340.50 71.83, 340.50 67.17, 340.50 62.50 C 340.50 56.83, 340.50 52.17, 340.50 47.50 C 340.50 41.50, 340.50 36.50, 340.50 31.50 C 340.50 25.83, 340.50 21.17, 340.50 16.50 C 340.50 10.83, 340.50 6.17, 340.50 1.50 C 335.83 0.50, 331.17 0.50, 326.50 0.50 C 320.50 0.50, 315.50 0.50, 310.50 0.50 C 304.83 0.50, 300.17 0.50, 295.50 0.50 C 289.83 0.50, 285.17 0.50, 280.50 0.50 C 274.83 0.50, 270.17 0.50, 265.50 0.50 C 259.50 0.50, 254.50 0.50, 249.50 0.50 Z" fill="rgb(79.84733127131415,112.77817431993022,42.95677690538504)" stroke="rgb(79.84733127131415,112.77817431993022,42.95677690538504)" stroke-width="1" />
<path d="M 232.50 314.50 C 226.39 316.71, 220.16 318.63, 213.50 319.50 C 205.56 319.52, 198.37 318.90, 192.50 321.50 C 185.17 321.50, 178.83 321.50, 172.50 321.50 C 164.61 322.30, 157.88 322.48, 151.50 323.50 C 143.78 323.56, 138.22 326.44, 131.50 326.50 C 124.29 328.28, 116.66 326.61, 110.50 328.50 C 103.38 330.48, 95.54 328.32, 89.50 330.50 C 82.82 328.85, 85.58 333.80, 86.50 334.50 C 89.91 338.98, 81.30 339.59, 79.50 337.50 C 75.18 337.38, 73.21 340.54, 69.50 339.50 C 69.06 344.25, 64.24 344.31, 61.50 344.50 C 57.07 343.81, 54.93 346.19, 51.50 345.50 C 53.78 350.50, 45.23 349.03, 43.50 349.50 C 41.49 351.22, 48.02 359.00, 43.50 365.50 C 45.39 373.24, 42.76 379.04, 42.50 386.50 C 35.38 401.67, 52.98 414.58, 60.50 424.50 C 70.48 414.85, 85.64 398.96, 100.50 405.50 C 113.21 408.20, 126.94 443.84, 128.50 417.50 C 123.61 392.07, 143.94 408.59, 154.50 404.50 C 160.59 387.52, 183.26 384.84, 177.50 367.50 C 190.89 365.00, 208.46 392.50, 208.50 369.50 C 205.53 362.13, 205.33 354.41, 199.50 350.50 C 193.26 345.72, 185.78 346.36, 178.50 346.50 C 174.08 345.18, 172.11 347.15, 168.50 347.50 C 161.53 348.63, 161.91 342.56, 166.50 340.50 C 170.07 340.80, 175.44 339.11, 174.50 343.50 C 177.94 339.01, 182.79 341.34, 185.50 338.50 C 192.10 335.41, 199.47 336.56, 205.50 334.50 C 215.19 339.06, 217.53 322.41, 223.50 328.50 C 220.34 332.62, 227.18 332.75, 229.50 332.50 C 234.24 334.07, 237.12 328.81, 240.50 327.50 C 246.83 324.41, 242.97 322.02, 239.50 320.50 C 238.42 315.89, 239.11 313.72, 233.50 314.50 Z" fill="rgb(112.18794326241135,116.30514184397163,100.57535460992908)" stroke="rgb(112.18794326241135,116.30514184397163,100.57535460992908)" stroke-width="1" />
<path d="M 0.50 0.50 C 0.19 20.10, 0.67 39.37, 1.50 58.50 C 1.50 63.83, 1.50 68.17, 1.50 72.50 C 1.50 78.17, 1.50 82.83, 1.50 87.50 C 1.50 93.17, 1.50 97.83, 1.50 102.50 C 1.50 108.17, 1.50 112.83, 1.50 117.50 C 3.54 120.79, 9.80 118.86, 13.50 119.50 C 18.92 118.23, 23.40 117.12, 28.50 117.50 C 35.02 121.51, 28.14 126.80, 35.50 125.50 C 31.34 131.97, 44.91 128.33, 46.50 129.50 C 48.59 127.69, 53.65 132.00, 58.50 130.50 C 65.23 130.40, 57.70 124.40, 66.50 124.50 C 72.17 122.48, 69.83 113.82, 76.50 113.50 C 75.29 109.02, 77.31 103.31, 78.50 98.50 C 78.92 93.06, 77.20 87.74, 80.50 84.50 C 82.88 77.65, 91.91 78.18, 93.50 83.50 C 92.88 91.20, 103.98 89.96, 99.50 83.50 C 100.53 77.57, 106.22 74.57, 104.50 68.50 C 103.21 61.94, 109.98 59.72, 109.50 54.50 C 109.25 48.46, 111.12 42.58, 105.50 40.50 C 101.36 37.37, 98.67 31.87, 94.50 29.50 C 88.00 26.95, 89.50 20.45, 91.50 24.50 C 97.81 21.88, 92.01 14.71, 94.50 11.50 C 91.66 5.59, 98.53 -1.06, 90.50 0.50 C 84.83 0.50, 80.17 0.50, 75.50 0.50 C 69.83 0.50, 65.17 0.50, 60.50 0.50 C 40.17 0.50, 20.83 0.50, 1.50 0.50 Z" fill="rgb(153.35474226804124,175.67123711340207,99.0238144329897)" stroke="rgb(153.35474226804124,175.67123711340207,99.0238144329897)" stroke-width="1" />
<path d="M 326.50 437.50 C 318.68 441.89, 308.47 435.57, 300.50 440.50 C 291.52 443.49, 282.13 442.08, 273.50 442.50 C 263.01 447.90, 255.51 436.15, 247.50 443.50 C 242.77 447.42, 245.25 454.39, 239.50 455.50 C 236.05 455.94, 231.05 460.06, 226.50 460.50 C 221.18 460.61, 218.27 457.31, 213.50 458.50 C 207.49 457.86, 203.79 460.41, 199.50 461.50 C 195.57 464.56, 190.67 466.03, 189.50 470.50 C 193.81 474.69, 194.71 479.33, 199.50 481.50 C 192.63 485.23, 200.68 488.16, 200.50 492.50 C 202.42 496.98, 202.53 504.23, 197.50 504.50 C 190.89 501.56, 189.96 511.80, 194.50 511.50 C 199.83 511.50, 204.17 511.50, 208.50 511.50 C 227.17 511.50, 244.83 511.50, 262.50 511.50 C 267.50 511.50, 271.50 511.50, 275.50 511.50 C 280.83 511.50, 285.17 511.50, 289.50 511.50 C 294.50 511.50, 298.50 511.50, 302.50 511.50 C 307.83 511.50, 312.17 511.50, 316.50 511.50 C 321.50 511.50, 325.50 511.50, 329.50 511.50 C 333.84 510.51, 341.71 514.04, 340.50 508.50 C 341.01 503.15, 339.94 499.46, 339.50 495.50 C 339.50 490.17, 339.50 485.83, 339.50 481.50 C 339.50 476.50, 339.50 472.50, 339.50 468.50 C 339.50 463.17, 339.50 458.83, 339.50 454.50 C 339.50 449.17, 339.50 444.83, 339.50 440.50 C 338.02 435.43, 331.25 438.41, 327.50 437.50 Z" fill="rgb(29.908349831140097,54.303132642366364,18.884010713869802)" stroke="rgb(29.908349831140097,54.303132642366364,18.884010713869802)" stroke-width="1" />
<path d="M 136.50 70.50 C 127.07 72.75, 116.40 71.97, 107.50 75.50 C 103.31 80.90, 105.96 85.21, 105.50 90.50 C 101.71 95.99, 96.36 93.76, 91.50 92.50 C 76.68 75.13, 81.06 121.57, 71.50 131.50 C 67.21 151.31, 80.69 166.51, 98.50 174.50 C 104.45 175.68, 109.48 177.64, 109.50 183.50 C 115.55 185.09, 119.38 182.74, 124.50 183.50 C 131.19 191.23, 131.71 182.32, 135.50 179.50 C 135.84 172.91, 134.21 167.55, 128.50 167.50 C 129.34 162.22, 136.05 163.83, 140.50 163.50 C 141.86 157.84, 140.60 152.52, 142.50 148.50 C 151.25 147.30, 163.22 146.41, 172.50 146.50 C 183.82 142.70, 236.19 148.45, 213.50 136.50 C 201.39 123.76, 168.24 131.88, 160.50 117.50 C 146.80 117.62, 144.80 106.43, 146.50 95.50 C 145.38 85.33, 151.06 69.43, 137.50 70.50 Z" fill="rgb(110.14763674986723,105.79925650557621,76.09134360063729)" stroke="rgb(110.14763674986723,105.79925650557621,76.09134360063729)" stroke-width="1" />
<path d="M 49.50 356.50 C 46.30 357.56, 43.69 360.29, 44.50 364.50 C 45.98 369.24, 43.85 372.37, 45.50 375.50 C 44.50 383.50, 44.50 390.50, 44.50 397.50 C 43.68 406.84, 55.54 403.65, 61.50 404.50 C 69.33 405.67, 78.32 405.96, 84.50 405.50 C 88.27 403.47, 91.81 403.31, 95.50 403.50 C 100.18 404.01, 102.23 408.44, 106.50 407.50 C 114.43 406.99, 122.24 408.61, 128.50 406.50 C 132.56 404.27, 132.31 398.22, 137.50 399.50 C 141.23 402.84, 142.32 405.81, 146.50 406.50 C 158.15 407.18, 157.73 394.42, 165.50 389.50 C 178.86 381.16, 179.60 363.98, 183.50 362.50 C 175.95 359.99, 168.89 363.79, 161.50 362.50 C 153.42 360.89, 145.54 362.10, 138.50 363.50 C 133.99 362.04, 131.54 363.96, 127.50 363.50 C 123.11 363.00, 118.66 364.24, 116.50 363.50 C 108.40 366.35, 101.25 366.59, 94.50 363.50 C 87.13 361.66, 79.51 362.82, 72.50 362.50 C 68.10 361.98, 64.90 361.02, 61.50 360.50 C 57.65 356.93, 55.13 355.77, 50.50 356.50 Z" fill="rgb(158.5314781922242,169.29978290901914,171.895993684626)" stroke="rgb(158.5314781922242,169.29978290901914,171.895993684626)" stroke-width="1" />
<path d="M 184.50 235.50 C 179.50 236.51, 174.65 237.86, 169.50 238.50 C 161.08 236.52, 157.44 241.02, 163.50 245.50 C 158.02 250.06, 162.40 257.29, 159.50 261.50 C 157.06 267.92, 157.06 273.08, 158.50 278.50 C 165.84 289.27, 179.63 286.40, 189.50 291.50 C 196.21 291.54, 201.13 295.57, 206.50 293.50 C 213.96 293.98, 218.07 297.18, 219.50 303.50 C 239.62 328.39, 246.93 286.24, 236.50 268.50 C 230.58 257.50, 229.11 243.70, 219.50 237.50 C 213.85 235.52, 207.80 236.92, 202.50 236.50 C 195.89 236.83, 191.29 234.73, 185.50 235.50 Z" fill="rgb(69.03565640194489,70.5713128038898,55.27471636952998)" stroke="rgb(69.03565640194489,70.5713128038898,55.27471636952998)" stroke-width="1" />
<path d="M 95.50 420.50 C 84.61 424.72, 71.40 423.33, 60.50 427.50 C 53.31 428.90, 48.09 432.64, 42.50 435.50 C 47.94 443.72, 45.48 445.09, 43.50 452.50 C 28.08 426.84, -15.08 477.06, 30.50 470.50 C 55.31 467.07, 80.45 491.36, 103.50 469.50 C 123.28 459.49, 131.17 412.37, 96.50 420.50 Z" fill="rgb(148.41509433962264,140.60377358490567,108.0377358490566)" stroke="rgb(148.41509433962264,140.60377358490567,108.0377358490566)" stroke-width="1" />
<path d="M 194.50 175.50 C 188.31 177.78, 180.38 175.87, 173.50 176.50 C 165.91 178.63, 157.76 176.98, 150.50 177.50 C 131.08 180.72, 127.98 199.66, 145.50 199.50 C 152.47 204.57, 160.32 198.99, 167.50 200.50 C 175.83 200.50, 183.17 200.50, 190.50 200.50 C 198.83 200.50, 206.17 200.50, 213.50 200.50 C 221.32 202.06, 229.08 201.37, 236.50 201.50 C 243.87 203.34, 251.49 202.18, 258.50 202.50 C 262.31 204.10, 266.09 203.35, 269.50 203.50 C 274.59 202.81, 277.41 205.19, 281.50 204.50 C 289.85 204.06, 299.76 206.33, 303.50 199.50 C 301.46 191.47, 296.38 186.12, 287.50 186.50 C 279.67 184.27, 271.80 184.57, 264.50 183.50 C 256.29 182.21, 249.27 180.45, 241.50 180.50 C 236.89 179.84, 233.65 179.28, 230.50 178.50 C 225.41 179.19, 222.59 176.81, 218.50 177.50 C 214.69 175.90, 210.91 176.65, 207.50 176.50 C 203.60 174.32, 199.07 176.06, 195.50 175.50 Z" fill="rgb(118.99495698605755,114.03144467517058,76.83565707505191)" stroke="rgb(118.99495698605755,114.03144467517058,76.83565707505191)" stroke-width="1" />
<path d="M 99.50 419.50 C 95.74 421.08, 91.48 421.44, 87.50 422.50 C 82.38 422.88, 78.50 423.82, 74.50 424.50 C 70.11 426.63, 64.89 424.37, 61.50 426.50 C 56.33 428.75, 52.21 430.13, 48.50 432.50 C 41.21 435.57, 42.38 438.67, 46.50 442.50 C 49.94 447.64, 51.53 450.63, 56.50 452.50 C 61.71 460.76, 66.33 470.03, 66.50 476.50 C 76.15 478.02, 85.33 482.15, 92.50 475.50 C 101.04 469.49, 113.55 468.78, 115.50 457.50 C 119.20 452.73, 120.42 447.85, 116.50 444.50 C 121.19 441.10, 120.73 437.38, 120.50 432.50 C 120.33 427.25, 119.26 421.88, 114.50 420.50 C 109.16 420.18, 104.21 421.35, 100.50 419.50 Z" fill="rgb(165.23385625684057,157.29879605983217,135.34987230937614)" stroke="rgb(165.23385625684057,157.29879605983217,135.34987230937614)" stroke-width="1" />
<path d="M 243.50 142.50 C 237.64 144.78, 230.05 142.88, 223.50 143.50 C 216.64 146.11, 208.36 142.89, 202.50 145.50 C 194.39 144.76, 188.56 147.12, 181.50 146.50 C 173.62 147.46, 166.58 148.04, 159.50 148.50 C 152.47 148.75, 141.25 146.51, 142.50 155.50 C 140.54 165.75, 144.89 166.48, 153.50 165.50 C 161.61 165.24, 167.64 163.36, 174.50 163.50 C 182.50 163.50, 189.50 163.50, 196.50 163.50 C 203.91 162.21, 211.33 163.37, 217.50 161.50 C 225.17 161.50, 231.83 161.50, 238.50 161.50 C 246.05 162.79, 252.59 164.10, 259.50 164.50 C 267.24 166.13, 274.35 166.85, 281.50 167.50 C 285.61 166.43, 288.97 166.96, 291.50 165.50 C 295.36 165.75, 302.04 164.23, 298.50 160.50 C 292.61 158.48, 298.10 154.34, 298.50 151.50 C 293.91 150.46, 291.43 147.72, 287.50 148.50 C 280.04 146.66, 273.64 144.69, 266.50 144.50 C 258.66 142.79, 251.79 142.12, 244.50 142.50 Z" fill="rgb(144.0554072096128,135.41688918558077,103.35280373831776)" stroke="rgb(144.0554072096128,135.41688918558077,103.35280373831776)" stroke-width="1" />
<path d="M 34.50 470.50 C 4.35 458.37, -14.40 498.95, 9.50 511.50 C 26.92 515.03, 34.08 500.56, 48.50 508.50 C 60.13 498.43, 56.01 480.34, 75.50 490.50 C 90.47 492.23, 103.30 494.34, 112.50 502.50 C 118.89 509.58, 124.06 511.89, 130.50 508.50 C 128.52 501.44, 119.47 499.81, 115.50 492.50 C 92.18 478.82, 59.47 479.53, 35.50 470.50 Z" fill="rgb(103.21052631578948,102.36842105263158,65.3157894736842)" stroke="rgb(103.21052631578948,102.36842105263158,65.3157894736842)" stroke-width="1" />
<path d="M 241.50 238.50 C 237.40 240.39, 232.78 241.04, 228.50 242.50 C 226.82 244.97, 229.56 252.19, 232.50 255.50 C 234.35 260.76, 236.26 264.99, 237.50 269.50 C 239.37 275.22, 239.37 280.30, 241.50 284.50 C 241.51 290.11, 243.80 293.77, 243.50 298.50 C 243.72 304.21, 245.11 308.44, 244.50 313.50 C 242.64 320.85, 249.41 319.52, 253.50 319.50 C 260.98 319.13, 260.56 311.11, 266.50 311.50 C 269.12 306.76, 267.57 302.87, 272.50 300.50 C 274.82 295.10, 276.54 290.46, 277.50 285.50 C 281.38 280.50, 272.87 275.78, 276.50 271.50 C 272.27 265.44, 277.97 260.49, 283.50 260.50 C 280.13 256.63, 285.13 253.63, 282.50 248.50 C 283.24 242.12, 274.95 244.36, 271.50 242.50 C 264.91 240.89, 260.45 243.65, 256.50 241.50 C 253.19 236.57, 247.10 239.32, 242.50 238.50 Z" fill="rgb(118.25343613811599,136.1873952396916,142.38853503184714)" stroke="rgb(118.25343613811599,136.1873952396916,142.38853503184714)" stroke-width="1" />
<path d="M 33.50 470.50 C 3.51 457.45, -14.69 501.72, 10.50 511.50 C 27.76 514.39, 34.70 500.72, 49.50 508.50 C 55.05 505.07, 57.93 495.76, 58.50 491.50 C 58.26 481.37, 69.51 492.39, 75.50 490.50 C 95.35 486.35, 149.06 528.25, 115.50 493.50 C 92.23 478.67, 61.02 479.61, 34.50 470.50 Z" fill="rgb(42.73809523809524,51.69047619047619,21.285714285714285)" stroke="rgb(42.73809523809524,51.69047619047619,21.285714285714285)" stroke-width="1" />
<path d="M 94.50 0.50 C 96.01 4.29, 98.43 7.70, 97.50 12.50 C 97.88 18.22, 99.58 21.36, 102.50 24.50 C 103.57 29.42, 104.30 35.02, 109.50 35.50 C 111.03 41.55, 116.02 44.29, 119.50 47.50 C 120.77 52.94, 121.96 57.00, 124.50 60.50 C 125.83 67.06, 131.10 70.15, 135.50 65.50 C 137.97 61.10, 145.66 62.62, 144.50 56.50 C 141.19 50.72, 146.13 46.63, 147.50 42.50 C 147.42 36.24, 150.53 32.97, 154.50 30.50 C 152.24 25.21, 154.31 20.29, 154.50 16.50 C 154.90 12.34, 152.92 3.69, 157.50 5.50 C 161.22 -0.76, 153.42 0.54, 149.50 0.50 C 144.50 0.50, 140.50 0.50, 136.50 0.50 C 131.17 0.50, 126.83 0.50, 122.50 0.50 C 117.50 0.50, 113.50 0.50, 109.50 0.50 C 104.17 0.50, 99.83 0.50, 95.50 0.50 Z" fill="rgb(132.25160829163687,162.14760543245174,82.31629735525375)" stroke="rgb(132.25160829163687,162.14760543245174,82.31629735525375)" stroke-width="1" />
<path d="M 213.50 238.50 C 210.50 241.86, 204.97 242.79, 203.50 247.50 C 203.75 253.29, 199.25 255.71, 200.50 260.50 C 201.00 266.31, 200.66 269.32, 195.50 267.50 C 188.03 265.13, 191.88 272.06, 191.50 275.50 C 187.02 285.76, 193.28 292.92, 202.50 292.50 C 208.59 292.63, 211.65 292.25, 215.50 294.50 C 215.88 300.03, 219.96 303.03, 220.50 307.50 C 223.56 312.40, 227.53 312.00, 231.50 311.50 C 234.94 308.76, 242.93 313.23, 241.50 307.50 C 242.94 303.78, 240.58 299.35, 241.50 295.50 C 239.77 290.94, 240.61 286.32, 239.50 282.50 C 238.57 277.53, 237.42 274.06, 236.50 270.50 C 234.67 265.57, 233.40 261.40, 231.50 257.50 C 228.27 252.74, 227.28 248.45, 225.50 244.50 C 223.81 239.01, 219.18 237.87, 214.50 238.50 Z" fill="rgb(19.0093954248366,20.265114379084967,16.45669934640523)" stroke="rgb(19.0093954248366,20.265114379084967,16.45669934640523)" stroke-width="1" />
<path d="M 22.50 118.50 C 14.85 123.29, -3.81 115.21, 0.50 130.50 C 0.50 141.83, 0.50 152.17, 0.50 162.50 C 4.76 181.97, 40.89 163.34, 56.50 170.50 C 91.87 170.76, 77.76 153.85, 53.50 153.50 C 36.29 160.94, 39.02 150.17, 37.50 138.50 C 36.52 131.11, 28.60 131.30, 24.50 128.50 C 19.65 123.16, 35.23 118.91, 23.50 118.50 Z" fill="rgb(121.83333333333333,137.66666666666666,77.75)" stroke="rgb(121.83333333333333,137.66666666666666,77.75)" stroke-width="1" />
<path d="M 36.50 470.50 C 30.13 473.49, 22.00 472.24, 14.50 472.50 C 9.65 471.73, 7.35 471.73, 3.50 472.50 C -1.25 473.83, 1.19 479.06, 0.50 482.50 C 0.50 490.83, 0.50 498.17, 0.50 505.50 C -1.40 515.74, 11.82 509.85, 17.50 511.50 C 21.21 510.88, 26.44 512.77, 27.50 510.50 C 30.11 503.93, 34.25 506.46, 38.50 506.50 C 43.48 504.83, 46.64 509.77, 49.50 507.50 C 52.40 504.95, 55.32 502.08, 56.50 498.50 C 57.60 493.77, 60.92 492.74, 57.50 488.50 C 58.43 484.62, 65.62 479.32, 60.50 477.50 C 55.05 476.89, 51.37 476.85, 49.50 472.50 C 45.09 471.23, 41.67 469.96, 37.50 470.50 Z" fill="rgb(59.67778793418647,85.95109689213893,26.963893967093234)" stroke="rgb(59.67778793418647,85.95109689213893,26.963893967093234)" stroke-width="1" />
<path d="M 35.50 381.50 C 28.23 383.51, 22.34 383.30, 14.50 386.50 C 6.47 388.18, -2.95 385.27, 0.50 396.50 C -1.18 416.43, -0.96 426.42, 17.50 428.50 C 29.22 435.25, 57.63 435.22, 53.50 420.50 C 40.36 404.05, 31.57 394.93, 36.50 381.50 Z" fill="rgb(104.484375,105.140625,74.71875)" stroke="rgb(104.484375,105.140625,74.71875)" stroke-width="1" />
<path d="M 137.50 70.50 C 134.92 72.66, 130.75 70.96, 127.50 71.50 C 123.28 73.25, 119.54 73.72, 115.50 73.50 C 111.43 75.28, 106.65 74.08, 105.50 78.50 C 106.71 84.19, 108.35 86.62, 107.50 90.50 C 109.02 94.67, 113.57 93.70, 116.50 95.50 C 123.70 96.32, 118.60 104.22, 114.50 103.50 C 112.50 107.82, 113.38 110.48, 112.50 114.50 C 111.72 119.63, 113.85 122.55, 113.50 126.50 C 118.16 128.20, 128.03 127.06, 134.50 126.50 C 139.33 126.23, 143.14 125.91, 146.50 124.50 C 146.50 119.83, 146.50 116.17, 146.50 112.50 C 146.50 104.17, 146.50 96.83, 146.50 89.50 C 146.50 84.83, 146.50 81.17, 146.50 77.50 C 147.79 71.17, 141.47 71.91, 138.50 70.50 Z" fill="rgb(159.31020613373553,157.8446455505279,141.84967320261438)" stroke="rgb(159.31020613373553,157.8446455505279,141.84967320261438)" stroke-width="1" />
<path d="M 189.50 202.50 C 191.45 213.98, 183.04 236.18, 200.50 233.50 C 207.83 233.50, 214.17 233.50, 220.50 233.50 C 228.17 233.50, 234.83 233.50, 241.50 233.50 C 257.65 228.97, 246.77 201.83, 232.50 203.50 C 218.19 202.31, 204.35 202.40, 190.50 202.50 Z" fill="rgb(6.892086330935252,7.345323741007194,4.892086330935252)" stroke="rgb(6.892086330935252,7.345323741007194,4.892086330935252)" stroke-width="1" />
<path d="M 1.50 137.50 C -0.79 145.02, 1.14 154.29, 0.50 162.50 C 0.98 166.86, -1.14 173.74, 3.50 173.50 C 9.54 175.85, 12.93 167.39, 16.50 172.50 C 24.77 170.08, 34.75 169.52, 42.50 171.50 C 51.84 169.67, 58.54 172.46, 68.50 170.50 C 98.22 161.51, 61.87 152.40, 50.50 154.50 C 38.55 161.13, 34.35 146.96, 27.50 147.50 C 19.56 136.75, 12.54 140.74, 2.50 138.50 Z" fill="rgb(134.85401459854015,149.1824817518248,91.93430656934306)" stroke="rgb(134.85401459854015,149.1824817518248,91.93430656934306)" stroke-width="1" />
<path d="M 12.50 322.50 C 5.93 324.73, -1.81 328.46, 0.50 337.50 C 0.50 345.17, 0.50 351.83, 0.50 358.50 C -0.96 373.78, -1.35 391.53, 17.50 383.50 C 14.94 376.43, 18.83 366.49, 26.50 365.50 C 31.97 357.08, 20.54 349.93, 31.50 345.50 C 36.09 344.59, 39.16 343.43, 41.50 340.50 C 41.37 335.30, 38.70 332.81, 35.50 330.50 C 31.75 326.76, 28.04 326.32, 24.50 325.50 C 20.42 324.56, 17.74 321.65, 13.50 322.50 Z" fill="rgb(154.67110036275696,170.07859733978233,111.40507859733978)" stroke="rgb(154.67110036275696,170.07859733978233,111.40507859733978)" stroke-width="1" />
<path d="M 148.50 119.50 C 147.45 123.66, 146.98 129.46, 140.50 127.50 C 134.45 126.91, 130.62 129.26, 125.50 128.50 C 121.48 128.40, 110.66 130.63, 118.50 131.50 C 123.78 133.10, 128.50 133.65, 133.50 133.50 C 150.31 128.89, 136.18 152.38, 151.50 147.50 C 162.61 147.91, 171.90 146.34, 181.50 145.50 C 192.38 145.35, 201.51 143.37, 211.50 143.50 C 215.48 142.85, 227.66 142.59, 220.50 140.50 C 212.68 140.78, 215.31 132.24, 209.50 131.50 C 204.13 129.78, 198.94 130.05, 194.50 128.50 C 188.95 127.21, 183.74 127.53, 179.50 125.50 C 173.78 124.63, 168.70 124.63, 164.50 122.50 C 158.43 122.47, 154.87 118.79, 149.50 119.50 Z" fill="rgb(217.0186046511628,204.98046511627908,185.59627906976743)" stroke="rgb(217.0186046511628,204.98046511627908,185.59627906976743)" stroke-width="1" />
<path d="M 0.50 0.50 C 0.50 7.50, 0.50 14.50, 0.50 21.50 C 0.50 25.83, 0.50 29.17, 0.50 32.50 C -1.05 38.33, 4.25 40.12, 6.50 35.50 C 12.40 32.99, 12.79 38.19, 16.50 39.50 C 20.25 37.51, 25.72 39.76, 25.50 34.50 C 23.06 30.61, 25.19 24.96, 29.50 25.50 C 34.30 25.38, 38.26 18.77, 41.50 23.50 C 41.39 28.23, 44.17 30.57, 48.50 29.50 C 51.91 31.23, 57.82 33.36, 58.50 28.50 C 56.62 24.12, 53.61 21.20, 52.50 17.50 C 48.25 12.94, 44.87 9.43, 42.50 5.50 C 42.40 -3.40, 29.84 2.16, 24.50 0.50 C 16.17 0.50, 8.83 0.50, 1.50 0.50 Z" fill="rgb(102.64053888548683,129.5541947336191,52.75872627066748)" stroke="rgb(102.64053888548683,129.5541947336191,52.75872627066748)" stroke-width="1" />
<path d="M 95.50 293.50 C 85.35 298.45, 78.04 320.21, 86.50 327.50 C 101.16 328.09, 113.52 325.54, 126.50 324.50 C 161.91 307.80, 111.21 301.74, 96.50 293.50 Z" fill="rgb(83.37931034482759,89.03448275862068,59.241379310344826)" stroke="rgb(83.37931034482759,89.03448275862068,59.241379310344826)" stroke-width="1" />
<path d="M 157.50 289.50 C 153.07 301.20, 139.04 309.39, 145.50 320.50 C 158.27 322.63, 171.14 318.36, 182.50 319.50 C 189.12 319.62, 196.06 319.29, 199.50 316.50 C 200.29 308.43, 200.44 303.07, 195.50 297.50 C 184.80 288.21, 170.60 294.55, 158.50 289.50 Z" fill="rgb(31.39325842696629,33.7752808988764,27.39325842696629)" stroke="rgb(31.39325842696629,33.7752808988764,27.39325842696629)" stroke-width="1" />
<path d="M 95.50 99.50 C 91.35 100.15, 91.00 103.50, 91.50 107.50 C 93.10 111.31, 92.35 115.09, 92.50 118.50 C 91.72 127.29, 93.95 133.84, 93.50 141.50 C 93.50 149.50, 93.50 156.50, 93.50 163.50 C 94.23 167.33, 91.70 172.90, 95.50 173.50 C 100.24 174.32, 103.36 176.65, 107.50 176.50 C 114.86 174.86, 109.96 162.96, 111.50 157.50 C 111.50 149.17, 111.50 141.83, 111.50 134.50 C 111.50 126.17, 111.50 118.83, 111.50 111.50 C 111.26 107.32, 111.52 102.57, 108.50 101.50 C 103.65 101.27, 100.65 99.01, 96.50 99.50 Z" fill="rgb(92.5708446866485,70.13147138964578,60.263623978201636)" stroke="rgb(92.5708446866485,70.13147138964578,60.263623978201636)" stroke-width="1" />
<path d="M 85.50 81.50 C 84.05 85.40, 78.97 86.22, 80.50 91.50 C 81.26 96.95, 78.93 100.13, 79.50 104.50 C 79.19 109.07, 81.16 116.01, 75.50 115.50 C 72.91 120.26, 71.91 124.26, 71.50 128.50 C 70.87 133.32, 67.40 135.96, 68.50 140.50 C 69.90 145.53, 68.75 150.22, 69.50 153.50 C 74.52 153.61, 80.59 152.23, 81.50 157.50 C 82.00 162.06, 80.08 168.12, 83.50 169.50 C 87.60 170.46, 93.09 173.81, 91.50 167.50 C 91.50 162.50, 91.50 158.50, 91.50 154.50 C 90.93 149.60, 92.70 144.73, 90.50 141.50 C 90.50 136.50, 90.50 132.50, 90.50 128.50 C 90.50 123.83, 90.50 120.17, 90.50 116.50 C 91.07 111.13, 88.74 107.95, 89.50 103.50 C 85.90 98.08, 88.62 95.13, 90.50 91.50 C 89.25 86.57, 92.48 80.63, 86.50 81.50 Z" fill="rgb(188.93146647015476,184.8960943257185,159.65291083271924)" stroke="rgb(188.93146647015476,184.8960943257185,159.65291083271924)" stroke-width="1" />
<path d="M 218.50 162.50 C 205.91 163.16, 168.70 166.12, 191.50 174.50 C 210.43 173.91, 226.83 177.05, 243.50 179.50 C 253.13 179.77, 260.87 182.23, 269.50 182.50 C 279.97 189.52, 280.96 165.69, 271.50 168.50 C 253.39 166.10, 237.93 160.70, 219.50 162.50 Z" fill="rgb(79.56521739130434,70.47826086956522,57.73913043478261)" stroke="rgb(79.56521739130434,70.47826086956522,57.73913043478261)" stroke-width="1" />
<path d="M 219.50 162.50 C 216.58 164.96, 211.48 162.17, 208.50 164.50 C 203.50 164.50, 199.50 164.50, 195.50 164.50 C 191.02 164.71, 184.67 163.86, 184.50 167.50 C 184.54 173.41, 188.82 175.52, 193.50 174.50 C 198.17 174.50, 201.83 174.50, 205.50 174.50 C 210.03 176.31, 215.11 174.37, 218.50 176.50 C 223.95 175.74, 227.13 178.07, 231.50 177.50 C 236.33 178.58, 240.67 178.42, 244.50 179.50 C 249.59 178.81, 252.41 181.19, 256.50 180.50 C 261.95 180.74, 265.13 183.07, 269.50 182.50 C 274.70 184.50, 279.05 183.02, 277.50 177.50 C 277.81 173.75, 276.94 166.51, 271.50 168.50 C 267.14 167.09, 263.33 166.77, 259.50 166.50 C 254.77 164.86, 250.11 165.45, 246.50 163.50 C 241.05 164.24, 237.70 162.34, 233.50 162.50 C 228.50 162.50, 224.50 162.50, 220.50 162.50 Z" fill="rgb(51.42156862745098,43.27224736048265,26.233031674208146)" stroke="rgb(51.42156862745098,43.27224736048265,26.233031674208146)" stroke-width="1" />
<path d="M 23.50 382.50 C 14.98 389.90, -3.43 385.05, 0.50 402.50 C -0.29 416.56, -1.53 426.46, 12.50 427.50 C 26.25 430.16, 23.65 411.11, 30.50 402.50 C 40.55 391.13, 41.36 378.64, 24.50 382.50 Z" fill="rgb(121.32075471698113,144.43396226415095,82.67924528301887)" stroke="rgb(121.32075471698113,144.43396226415095,82.67924528301887)" stroke-width="1" />
<path d="M 1.50 343.50 C -4.20 370.27, -0.52 395.94, 31.50 381.50 C 55.80 376.38, 24.21 366.30, 28.50 362.50 C 31.28 355.44, 26.19 349.89, 21.50 347.50 C 14.62 347.63, 7.26 348.82, 2.50 344.50 Z" fill="rgb(75.44117647058823,80.94117647058823,56.23529411764706)" stroke="rgb(75.44117647058823,80.94117647058823,56.23529411764706)" stroke-width="1" />
<path d="M 36.50 381.50 C 32.08 384.70, 24.29 379.78, 20.50 384.50 C 13.92 386.58, 8.54 388.12, 3.50 390.50 C -1.73 393.91, 1.52 401.80, 0.50 406.50 C 0.39 413.35, 0.32 419.18, 1.50 424.50 C 4.70 423.21, 7.30 423.21, 9.50 424.50 C 12.41 422.75, 16.26 421.24, 18.50 423.50 C 16.49 428.15, 24.08 426.68, 23.50 423.50 C 22.85 419.29, 24.09 416.86, 25.50 414.50 C 31.07 409.51, 28.75 402.25, 32.50 397.50 C 37.08 393.31, 41.82 383.34, 37.50 381.50 Z" fill="rgb(146.24386252045826,159.9443535188216,107.5163666121113)" stroke="rgb(146.24386252045826,159.9443535188216,107.5163666121113)" stroke-width="1" />
<path d="M 27.50 443.50 C 21.02 445.21, 16.13 450.75, 10.50 454.50 C 7.28 459.57, 4.66 470.87, 12.50 470.50 C 19.73 469.70, 25.75 473.35, 31.50 470.50 C 38.60 467.35, 45.72 468.47, 50.50 472.50 C 53.96 476.61, 56.24 474.30, 59.50 474.50 C 64.38 478.15, 63.05 472.54, 64.50 470.50 C 65.48 465.74, 63.34 464.49, 60.50 463.50 C 55.71 460.38, 57.82 455.81, 54.50 453.50 C 49.35 449.03, 40.79 443.03, 43.50 453.50 C 34.42 458.48, 34.41 442.82, 28.50 443.50 Z" fill="rgb(176.3048264182896,169.43014394580862,139.12955122777308)" stroke="rgb(176.3048264182896,169.43014394580862,139.12955122777308)" stroke-width="1" />
<path d="M 62.50 491.50 C 61.75 495.83, 58.19 497.42, 57.50 501.50 C 53.38 503.99, 53.65 510.28, 48.50 510.50 C 44.93 506.85, 39.55 509.99, 36.50 507.50 C 31.50 504.84, 25.99 513.39, 33.50 511.50 C 38.17 511.50, 41.83 511.50, 45.50 511.50 C 50.17 511.50, 53.83 511.50, 57.50 511.50 C 62.17 511.50, 65.83 511.50, 69.50 511.50 C 74.50 511.50, 78.50 511.50, 82.50 511.50 C 87.17 511.50, 90.83 511.50, 94.50 511.50 C 99.17 511.50, 102.83 511.50, 106.50 511.50 C 111.17 511.50, 114.83 511.50, 118.50 511.50 C 119.61 510.18, 113.55 502.11, 109.50 505.50 C 105.83 501.52, 106.63 495.76, 101.50 495.50 C 94.95 497.57, 93.16 498.16, 88.50 493.50 C 83.96 490.69, 80.04 495.31, 76.50 492.50 C 71.54 492.06, 67.85 490.99, 63.50 491.50 Z" fill="rgb(155.7347670250896,142.82258064516128,95.44713261648745)" stroke="rgb(155.7347670250896,142.82258064516128,95.44713261648745)" stroke-width="1" />
<path d="M 151.50 287.50 C 146.79 291.81, 148.00 296.38, 146.50 301.50 C 152.95 311.33, 141.41 304.52, 141.50 309.50 C 143.59 314.01, 140.86 322.31, 147.50 320.50 C 153.17 320.50, 157.83 320.50, 162.50 320.50 C 167.90 320.46, 174.12 321.05, 176.50 318.50 C 177.48 312.70, 177.89 307.73, 176.50 303.50 C 174.41 298.09, 173.90 291.12, 167.50 291.50 C 162.47 288.63, 158.04 286.72, 152.50 287.50 Z" fill="rgb(130.902962206333,126.58426966292134,105.1899897854954)" stroke="rgb(130.902962206333,126.58426966292134,105.1899897854954)" stroke-width="1" />
<path d="M 169.50 201.50 C 165.95 203.72, 160.73 201.92, 156.50 202.50 C 150.56 201.61, 144.28 204.03, 143.50 208.50 C 148.12 212.39, 144.32 221.55, 151.50 221.50 C 153.09 228.15, 160.25 225.63, 164.50 227.50 C 170.05 228.64, 175.01 228.81, 178.50 232.50 C 185.21 233.54, 181.40 225.07, 182.50 221.50 C 182.50 215.83, 182.50 211.17, 182.50 206.50 C 181.82 199.55, 175.11 201.93, 170.50 201.50 Z" fill="rgb(65.95144628099173,72.62293388429752,34.332644628099175)" stroke="rgb(65.95144628099173,72.62293388429752,34.332644628099175)" stroke-width="1" />
<path d="M 0.50 137.50 C 0.50 141.83, 0.50 146.17, 0.50 150.50 C 0.50 155.83, 0.50 160.17, 0.50 164.50 C -1.06 171.39, 2.30 172.36, 7.50 171.50 C 12.78 165.74, 18.31 175.47, 22.50 169.50 C 27.77 167.79, 33.62 166.54, 32.50 160.50 C 33.67 155.59, 33.65 148.49, 28.50 147.50 C 24.65 143.31, 19.26 142.67, 16.50 137.50 C 11.68 142.93, 5.84 139.25, 1.50 137.50 Z" fill="rgb(110.93222106360793,123.47549530761209,70.14181438998958)" stroke="rgb(110.93222106360793,123.47549530761209,70.14181438998958)" stroke-width="1" />
<path d="M 1.50 343.50 C -0.73 347.38, 1.09 352.94, 0.50 357.50 C 0.50 363.17, 0.50 367.83, 0.50 372.50 C 1.28 377.33, -2.01 385.74, 4.50 384.50 C 10.50 384.65, 15.22 384.10, 19.50 382.50 C 16.24 377.34, 17.83 371.51, 20.50 367.50 C 26.76 365.85, 28.38 360.64, 28.50 355.50 C 23.38 352.59, 24.83 344.79, 17.50 346.50 C 11.99 349.01, 5.68 347.45, 2.50 343.50 Z" fill="rgb(115.14029180695847,127.33894500561168,83.15488215488216)" stroke="rgb(115.14029180695847,127.33894500561168,83.15488215488216)" stroke-width="1" />
<path d="M 95.50 293.50 C 90.73 294.59, 89.03 299.42, 87.50 303.50 C 84.00 307.74, 84.50 312.22, 84.50 316.50 C 82.86 320.40, 80.37 327.82, 86.50 327.50 C 91.50 327.50, 95.50 327.50, 99.50 327.50 C 103.64 326.74, 110.64 327.29, 107.50 321.50 C 110.61 316.82, 110.96 312.41, 112.50 308.50 C 111.82 303.37, 112.54 298.65, 109.50 295.50 C 105.27 292.30, 100.40 294.07, 96.50 293.50 Z" fill="rgb(134.75826681870012,131.59179019384266,110.81413911060433)" stroke="rgb(134.75826681870012,131.59179019384266,110.81413911060433)" stroke-width="1" />
<path d="M 63.50 478.50 C 60.61 481.70, 63.99 484.73, 66.50 486.50 C 67.86 490.45, 71.88 489.63, 74.50 491.50 C 78.62 492.20, 81.56 493.31, 84.50 490.50 C 88.24 491.69, 93.06 491.75, 92.50 495.50 C 97.07 496.84, 98.89 491.11, 102.50 494.50 C 106.17 496.11, 109.01 498.76, 108.50 502.50 C 112.77 499.91, 115.89 502.94, 117.50 506.50 C 120.38 509.30, 125.93 514.31, 125.50 508.50 C 129.87 509.14, 134.03 508.22, 129.50 504.50 C 124.88 503.32, 124.46 498.74, 120.50 498.50 C 116.12 496.46, 115.86 491.58, 112.50 490.50 C 112.66 485.61, 108.55 485.19, 105.50 485.50 C 101.17 485.97, 98.42 485.03, 95.50 484.50 C 91.20 484.72, 88.56 478.56, 85.50 481.50 C 81.03 482.88, 78.40 481.78, 75.50 479.50 C 71.03 479.50, 68.26 477.80, 64.50 478.50 Z" fill="rgb(47.12156862745098,75.10980392156863,20.80392156862745)" stroke="rgb(47.12156862745098,75.10980392156863,20.80392156862745)" stroke-width="1" />
<path d="M 34.50 397.50 C 32.83 400.69, 31.60 404.07, 30.50 407.50 C 28.48 412.02, 25.11 414.98, 25.50 419.50 C 25.19 424.04, 23.31 429.01, 27.50 430.50 C 32.35 431.73, 35.35 433.99, 39.50 433.50 C 43.74 431.94, 47.95 432.71, 50.50 429.50 C 55.67 428.30, 59.07 423.86, 54.50 420.50 C 50.23 416.38, 49.38 412.06, 45.50 409.50 C 41.31 405.72, 40.12 400.13, 35.50 398.50 Z" fill="rgb(181.03866666666667,176.332,149.53866666666667)" stroke="rgb(181.03866666666667,176.332,149.53866666666667)" stroke-width="1" />
<path d="M 49.50 154.50 C 45.88 156.08, 41.85 156.68, 37.50 156.50 C 35.52 160.96, 34.13 165.77, 37.50 169.50 C 42.66 174.01, 47.44 168.56, 51.50 170.50 C 57.29 172.28, 60.86 170.08, 65.50 170.50 C 98.11 166.24, 67.40 151.04, 50.50 154.50 Z" fill="rgb(120.68705882352941,137.17176470588234,78.27294117647058)" stroke="rgb(120.68705882352941,137.17176470588234,78.27294117647058)" stroke-width="1" />
<path d="M 215.50 203.50 C 212.37 206.23, 212.26 210.20, 210.50 213.50 C 209.65 218.31, 206.57 220.78, 206.50 224.50 C 202.29 229.86, 208.64 229.82, 211.50 230.50 C 215.90 231.47, 219.60 231.73, 223.50 231.50 C 227.62 228.77, 227.01 224.49, 229.50 221.50 C 231.68 217.05, 232.02 212.83, 234.50 209.50 C 237.50 204.70, 231.65 204.42, 228.50 204.50 C 223.83 203.50, 220.17 203.50, 216.50 203.50 Z" fill="rgb(10.507911392405063,11.498417721518987,5.412974683544304)" stroke="rgb(10.507911392405063,11.498417721518987,5.412974683544304)" stroke-width="1" />
<path d="M 148.50 92.50 C 147.39 100.48, 144.39 115.54, 156.50 113.50 C 163.44 113.54, 165.89 117.66, 166.50 121.50 C 171.88 123.20, 176.72 123.77, 181.50 124.50 C 189.47 126.32, 189.26 121.51, 185.50 117.50 C 181.20 110.42, 175.90 115.59, 171.50 110.50 C 172.26 96.35, 154.27 102.12, 149.50 92.50 Z" fill="rgb(185.88755020080322,208.429718875502,125.07630522088354)" stroke="rgb(185.88755020080322,208.429718875502,125.07630522088354)" stroke-width="1" />
<path d="M 21.50 119.50 C 16.66 121.37, 11.18 121.67, 5.50 121.50 C -2.79 119.87, 1.76 130.09, 0.50 134.50 C 2.91 136.79, 5.58 137.43, 8.50 137.50 C 12.44 142.00, 12.48 134.06, 15.50 134.50 C 18.96 137.59, 19.93 141.85, 23.50 142.50 C 27.21 140.73, 27.68 149.10, 29.50 145.50 C 30.33 141.40, 36.54 138.36, 35.50 143.50 C 35.99 147.10, 34.41 150.56, 36.50 152.50 C 40.66 145.40, 37.67 140.37, 35.50 134.50 C 30.05 130.93, 20.27 129.00, 19.50 125.50 C 22.08 120.51, 34.08 119.29, 22.50 119.50 Z" fill="rgb(38.83252818035427,72.22383252818035,9.640901771336553)" stroke="rgb(38.83252818035427,72.22383252818035,9.640901771336553)" stroke-width="1" />
<path d="M 131.50 300.50 C 128.35 304.89, 125.45 305.78, 121.50 306.50 C 116.96 304.95, 111.94 304.90, 113.50 310.50 C 112.65 315.31, 109.57 317.78, 109.50 321.50 C 109.01 327.07, 113.75 325.12, 117.50 325.50 C 121.75 324.96, 125.92 326.66, 128.50 324.50 C 133.62 324.93, 136.96 323.47, 140.50 322.50 C 141.75 317.79, 139.64 315.05, 139.50 311.50 C 135.07 307.94, 136.04 302.05, 132.50 300.50 Z" fill="rgb(148.56137479541735,148.4631751227496,120.61702127659575)" stroke="rgb(148.56137479541735,148.4631751227496,120.61702127659575)" stroke-width="1" />
<path d="M 36.50 133.50 C 37.07 137.48, 40.17 140.42, 40.50 144.50 C 41.02 148.71, 35.57 154.03, 40.50 155.50 C 44.90 154.53, 48.60 154.27, 52.50 154.50 C 57.77 155.50, 61.23 157.50, 65.50 157.50 C 68.05 152.85, 67.83 148.99, 66.50 145.50 C 66.39 140.94, 67.87 135.80, 62.50 137.50 C 57.06 138.69, 54.61 135.09, 50.50 135.50 C 45.13 135.73, 42.01 132.93, 37.50 133.50 Z" fill="rgb(217.15,219.19333333333333,177.56666666666666)" stroke="rgb(217.15,219.19333333333333,177.56666666666666)" stroke-width="1" />
<path d="M 155.50 134.50 C 151.72 137.42, 139.53 132.28, 143.50 140.50 C 141.28 150.58, 147.26 147.67, 153.50 147.50 C 160.63 148.27, 165.49 146.01, 171.50 146.50 C 177.51 144.25, 184.44 146.64, 189.50 144.50 C 196.56 145.12, 201.78 143.71, 207.50 143.50 C 207.37 142.02, 198.48 139.74, 193.50 140.50 C 186.61 140.04, 181.39 137.96, 175.50 137.50 C 167.96 138.03, 162.00 133.15, 156.50 135.50 Z" fill="rgb(59.05175292153589,40.926544240400666,23.198664440734557)" stroke="rgb(59.05175292153589,40.926544240400666,23.198664440734557)" stroke-width="1" />
<path d="M 64.50 456.50 C 60.67 460.61, 60.32 462.32, 65.50 465.50 C 66.70 470.49, 62.56 474.16, 65.50 477.50 C 70.29 476.73, 72.81 479.04, 76.50 478.50 C 80.81 481.08, 85.47 478.83, 88.50 477.50 C 92.89 476.26, 96.96 473.82, 98.50 471.50 C 95.59 466.13, 90.94 467.79, 87.50 465.50 C 81.63 463.86, 81.60 457.75, 77.50 457.50 C 72.41 458.19, 69.59 455.81, 65.50 456.50 Z" fill="rgb(47.040885860306645,40.08347529812607,20.621805792163542)" stroke="rgb(47.040885860306645,40.08347529812607,20.621805792163542)" stroke-width="1" />
<path d="M 190.50 202.50 C 188.22 208.69, 190.13 216.62, 189.50 223.50 C 190.35 227.12, 189.21 232.73, 192.50 232.50 C 197.73 233.12, 201.84 232.01, 203.50 228.50 C 206.02 220.44, 209.55 213.80, 211.50 206.50 C 211.76 201.76, 206.74 202.54, 203.50 202.50 C 198.83 202.50, 195.17 202.50, 191.50 202.50 Z" fill="rgb(11.721254355400697,12.815331010452962,6.618466898954704)" stroke="rgb(11.721254355400697,12.815331010452962,6.618466898954704)" stroke-width="1" />
<path d="M 92.50 404.50 C 88.49 406.15, 84.09 406.84, 80.50 409.50 C 75.36 413.16, 71.83 417.30, 67.50 419.50 C 61.49 424.06, 65.13 425.38, 70.50 424.50 C 74.97 422.54, 79.15 422.31, 83.50 422.50 C 88.26 420.91, 92.26 419.91, 96.50 419.50 C 100.97 416.98, 105.15 420.85, 109.50 419.50 C 116.85 420.31, 109.57 413.09, 107.50 411.50 C 102.45 408.48, 98.60 404.98, 93.50 404.50 Z" fill="rgb(140.33333333333334,142.89770723104056,141.48500881834215)" stroke="rgb(140.33333333333334,142.89770723104056,141.48500881834215)" stroke-width="1" />
<path d="M 2.50 425.50 C -5.66 447.80, 36.85 436.17, 39.50 452.50 C 57.68 437.82, 18.34 431.43, 3.50 425.50 Z" fill="rgb(152.3846153846154,151.69230769230768,114.76923076923077)" stroke="rgb(152.3846153846154,151.69230769230768,114.76923076923077)" stroke-width="1" />
<path d="M 173.50 292.50 C 174.57 295.81, 173.96 299.81, 176.50 302.50 C 177.82 306.56, 177.47 310.32, 178.50 313.50 C 177.54 318.79, 179.21 320.46, 183.50 319.50 C 188.56 320.11, 191.79 318.73, 195.50 318.50 C 200.58 318.97, 200.77 310.41, 197.50 310.50 C 194.28 307.20, 193.28 303.40, 192.50 299.50 C 195.79 295.26, 189.59 291.97, 186.50 292.50 C 181.83 292.50, 178.17 292.50, 174.50 292.50 Z" fill="rgb(84.54428044280442,87.90959409594096,85.25830258302582)" stroke="rgb(84.54428044280442,87.90959409594096,85.25830258302582)" stroke-width="1" />
<path d="M 2.50 425.50 C -0.64 426.88, -0.64 435.12, 2.50 436.50 C 8.34 438.41, 13.47 439.62, 17.50 443.50 C 21.62 440.18, 28.38 443.87, 31.50 441.50 C 33.13 446.79, 35.85 452.18, 39.50 453.50 C 45.54 451.58, 36.92 442.45, 45.50 445.50 C 41.81 440.65, 38.65 435.33, 33.50 434.50 C 28.67 431.48, 22.66 433.71, 18.50 431.50 C 12.23 430.28, 9.44 424.10, 3.50 425.50 Z" fill="rgb(52.564575645756456,82.04981549815498,23.309963099630995)" stroke="rgb(52.564575645756456,82.04981549815498,23.309963099630995)" stroke-width="1" />
<path d="M 170.50 361.50 C 167.27 363.70, 162.40 361.93, 158.50 362.50 C 159.89 367.19, 162.15 371.81, 160.50 375.50 C 160.55 380.76, 161.08 384.81, 162.50 388.50 C 165.25 391.10, 170.35 383.24, 174.50 382.50 C 181.44 382.60, 176.80 375.43, 176.50 372.50 C 173.57 366.72, 182.94 366.43, 185.50 368.50 C 191.70 373.57, 188.95 363.22, 185.50 362.50 C 180.95 360.28, 175.73 362.08, 171.50 361.50 Z" fill="rgb(38.35769230769231,49.85769230769231,52.54423076923077)" stroke="rgb(38.35769230769231,49.85769230769231,52.54423076923077)" stroke-width="1" />
<path d="M 162.50 165.50 C 86.15 178.72, 208.48 182.17, 162.50 165.50 Z" fill="rgb(53.23076923076923,49.69230769230769,30.76923076923077)" stroke="rgb(53.23076923076923,49.69230769230769,30.76923076923077)" stroke-width="1" />
<path d="M 34.50 354.50 C 31.45 362.77, 6.04 379.45, 29.50 381.50 C 44.94 385.59, 48.76 351.73, 35.50 354.50 Z" fill="rgb(126.78571428571429,127.57142857142857,111.92857142857143)" stroke="rgb(126.78571428571429,127.57142857142857,111.92857142857143)" stroke-width="1" />
<path d="M 162.50 165.50 C 158.83 166.98, 154.57 167.01, 150.50 167.50 C 145.15 166.99, 141.46 168.06, 137.50 168.50 C 134.01 170.56, 136.19 176.67, 137.50 179.50 C 139.13 181.83, 146.45 182.94, 147.50 179.50 C 150.22 174.74, 155.51 177.20, 159.50 176.50 C 164.70 176.66, 168.05 174.76, 172.50 175.50 C 177.72 174.76, 177.25 168.66, 176.50 165.50 C 171.50 165.50, 167.50 165.50, 163.50 165.50 Z" fill="rgb(45.62955465587044,35.90890688259109,22.07894736842105)" stroke="rgb(45.62955465587044,35.90890688259109,22.07894736842105)" stroke-width="1" />
<path d="M 237.50 205.50 C 233.95 211.13, 232.45 217.62, 229.50 223.50 C 228.31 226.75, 225.45 230.25, 227.50 232.50 C 230.76 234.63, 234.58 232.98, 237.50 233.50 C 246.76 235.63, 248.63 228.31, 250.50 222.50 C 247.46 216.07, 245.75 207.25, 238.50 205.50 Z" fill="rgb(11.265560165975105,9.96058091286307,4.232365145228216)" stroke="rgb(11.265560165975105,9.96058091286307,4.232365145228216)" stroke-width="1" />
<path d="M 205.50 348.50 C 203.07 351.33, 206.09 355.33, 208.50 357.50 C 209.17 360.96, 207.70 365.32, 210.50 368.50 C 210.45 373.49, 214.52 375.35, 215.50 378.50 C 216.22 383.68, 220.69 386.85, 223.50 381.50 C 225.63 378.24, 223.98 374.42, 224.50 371.50 C 225.50 367.03, 227.20 364.26, 226.50 360.50 C 224.59 354.09, 220.00 357.29, 217.50 354.50 C 212.91 352.45, 210.42 348.74, 206.50 348.50 Z" fill="rgb(99.08403361344538,114.86764705882354,69.98319327731092)" stroke="rgb(99.08403361344538,114.86764705882354,69.98319327731092)" stroke-width="1" />
<path d="M 178.50 253.50 C 177.29 256.78, 176.57 262.27, 178.50 265.50 C 178.50 270.83, 178.50 275.17, 178.50 279.50 C 177.60 284.62, 179.45 291.02, 182.50 286.50 C 181.11 279.12, 185.55 276.94, 184.50 284.50 C 191.60 298.56, 190.96 279.37, 190.50 272.50 C 191.23 261.88, 192.06 250.95, 179.50 253.50 Z" fill="rgb(75.1,77.2074074074074,73.71111111111111)" stroke="rgb(75.1,77.2074074074074,73.71111111111111)" stroke-width="1" />
<path d="M 172.50 262.50 C 170.56 264.59, 167.10 263.01, 164.50 263.50 C 165.52 265.94, 165.60 273.87, 161.50 271.50 C 154.90 271.08, 159.77 274.92, 159.50 277.50 C 158.79 282.41, 161.79 283.45, 164.50 286.50 C 170.51 289.79, 180.19 288.32, 177.50 280.50 C 176.74 273.60, 179.88 264.28, 173.50 262.50 Z" fill="rgb(22.96912114014252,26.874109263657957,16.147268408551067)" stroke="rgb(22.96912114014252,26.874109263657957,16.147268408551067)" stroke-width="1" />
<path d="M 43.50 404.50 C 48.67 411.39, 54.05 416.70, 58.50 423.50 C 63.35 425.92, 68.61 414.60, 75.50 412.50 C 86.03 402.12, 53.38 407.77, 44.50 404.50 Z" fill="rgb(224.88888888888889,227.33333333333334,226.44444444444446)" stroke="rgb(224.88888888888889,227.33333333333334,226.44444444444446)" stroke-width="1" />
<path d="M 44.50 404.50 C 47.46 411.87, 56.02 416.93, 58.50 424.50 C 62.83 426.14, 62.88 422.17, 64.50 419.50 C 69.69 418.24, 72.37 414.33, 75.50 411.50 C 78.23 409.35, 84.86 405.99, 78.50 406.50 C 74.17 406.50, 70.83 406.50, 67.50 406.50 C 63.92 404.34, 59.75 406.04, 56.50 405.50 C 51.81 406.04, 49.29 403.73, 45.50 404.50 Z" fill="rgb(249.25547445255475,249.8978102189781,249.78588807785889)" stroke="rgb(249.25547445255475,249.8978102189781,249.78588807785889)" stroke-width="1" />
<path d="M 148.50 93.50 C 147.83 98.97, 146.19 106.16, 148.50 111.50 C 153.99 112.42, 161.42 116.92, 165.50 114.50 C 169.55 115.83, 169.88 117.02, 171.50 112.50 C 169.01 109.13, 173.57 104.29, 168.50 103.50 C 161.82 99.06, 154.52 99.54, 149.50 94.50 Z" fill="rgb(211.52331606217618,226.00777202072538,159.06735751295338)" stroke="rgb(211.52331606217618,226.00777202072538,159.06735751295338)" stroke-width="1" />
<path d="M 107.50 408.50 C 109.09 413.93, 118.50 419.60, 120.50 426.50 C 121.49 434.59, 134.32 428.52, 137.50 426.50 C 125.42 423.50, 130.62 401.91, 108.50 408.50 Z" fill="rgb(127.95,145.3,141.05)" stroke="rgb(127.95,145.3,141.05)" stroke-width="1" />
<path d="M 106.50 408.50 C 110.95 414.09, 116.79 419.39, 120.50 425.50 C 121.77 430.27, 124.33 431.88, 127.50 428.50 C 132.11 428.62, 136.04 428.56, 137.50 425.50 C 133.45 418.73, 131.40 427.86, 128.50 422.50 C 132.53 417.89, 126.77 415.90, 127.50 411.50 C 122.82 406.15, 113.49 409.61, 107.50 408.50 Z" fill="rgb(202.33893557422968,215.18207282913164,217.8403361344538)" stroke="rgb(202.33893557422968,215.18207282913164,217.8403361344538)" stroke-width="1" />
<path d="M 120.50 453.50 C 115.72 459.31, 113.92 469.31, 104.50 470.50 C 99.83 472.35, 97.25 475.85, 93.50 476.50 C 85.39 478.52, 89.40 480.42, 93.50 483.50 C 97.85 483.03, 101.51 486.35, 104.50 483.50 C 110.19 484.74, 112.67 481.78, 112.50 477.50 C 116.26 468.87, 118.10 460.86, 121.50 453.50 Z" fill="rgb(12.085043988269796,13.436950146627566,11.750733137829911)" stroke="rgb(12.085043988269796,13.436950146627566,11.750733137829911)" stroke-width="1" />
<path d="M 195.50 362.50 C 187.68 363.44, 189.56 369.91, 193.50 374.50 C 200.26 377.13, 204.79 381.74, 210.50 383.50 C 221.41 380.48, 205.65 376.10, 209.50 371.50 C 207.52 364.71, 203.53 360.78, 196.50 362.50 Z" fill="rgb(99.07784431137725,119.88323353293413,127.03892215568862)" stroke="rgb(99.07784431137725,119.88323353293413,127.03892215568862)" stroke-width="1" />
<path d="M 109.50 287.50 C 105.87 292.59, 113.48 296.52, 113.50 301.50 C 114.08 305.72, 122.24 306.43, 125.50 304.50 C 131.32 299.85, 132.93 294.59, 125.50 291.50 C 120.17 288.68, 115.79 287.00, 110.50 287.50 Z" fill="rgb(168.43450479233226,177.6453674121406,105.31309904153355)" stroke="rgb(168.43450479233226,177.6453674121406,105.31309904153355)" stroke-width="1" />
<path d="M 22.50 367.50 C 20.67 370.85, 13.96 377.44, 20.50 379.50 C 25.55 381.90, 32.03 382.59, 35.50 379.50 C 41.96 379.54, 41.46 372.82, 38.50 369.50 C 33.75 366.63, 28.37 367.68, 23.50 367.50 Z" fill="rgb(112.6923076923077,115.26923076923077,100.43706293706293)" stroke="rgb(112.6923076923077,115.26923076923077,100.43706293706293)" stroke-width="1" />
<path d="M 122.50 449.50 C 119.48 454.61, 120.24 461.28, 117.50 466.50 C 114.59 472.54, 111.81 481.24, 121.50 478.50 C 127.28 475.28, 122.01 476.99, 121.50 474.50 C 126.43 473.25, 125.00 468.31, 127.50 466.50 C 128.18 462.29, 131.15 460.44, 131.50 457.50 C 129.38 452.75, 124.90 453.51, 123.50 449.50 Z" fill="rgb(49.21649484536083,47.2680412371134,30.982817869415808)" stroke="rgb(49.21649484536083,47.2680412371134,30.982817869415808)" stroke-width="1" />
<path d="M 70.50 154.50 C 68.80 159.47, 58.94 157.47, 62.50 163.50 C 63.44 170.34, 69.19 170.04, 73.50 171.50 C 80.22 172.01, 81.28 166.19, 80.50 161.50 C 81.60 154.81, 76.13 153.87, 71.50 154.50 Z" fill="rgb(151.0,163.3594306049822,99.56583629893238)" stroke="rgb(151.0,163.3594306049822,99.56583629893238)" stroke-width="1" />
<path d="M 226.50 501.50 C 221.43 505.74, 214.86 506.37, 208.50 507.50 C 196.32 512.76, 207.93 511.42, 214.50 511.50 C 221.83 511.50, 228.17 511.50, 234.50 511.50 C 239.80 513.10, 241.10 507.24, 237.50 505.50 C 234.56 500.94, 230.97 501.36, 227.50 501.50 Z" fill="rgb(34.02508960573477,64.93906810035843,14.54121863799283)" stroke="rgb(34.02508960573477,64.93906810035843,14.54121863799283)" stroke-width="1" />
<path d="M 142.50 182.50 C 140.56 184.59, 137.10 183.01, 134.50 183.50 C 131.41 185.44, 132.99 188.90, 132.50 191.50 C 134.59 194.44, 133.01 197.90, 133.50 200.50 C 137.46 202.64, 137.48 198.43, 140.50 197.50 C 143.31 192.15, 144.53 199.27, 146.50 200.50 C 152.89 200.55, 149.91 201.18, 148.50 197.50 C 145.33 192.54, 151.30 180.97, 143.50 182.50 Z" fill="rgb(173.8880866425993,161.46570397111913,112.24909747292419)" stroke="rgb(173.8880866425993,161.46570397111913,112.24909747292419)" stroke-width="1" />
<path d="M 301.50 488.50 C 298.40 491.96, 298.63 496.81, 298.50 501.50 C 294.09 508.46, 301.85 512.17, 305.50 506.50 C 314.71 505.64, 306.38 498.55, 310.50 495.50 C 314.13 489.91, 307.73 487.52, 302.50 488.50 Z" fill="rgb(46.02734375,74.38671875,25.6328125)" stroke="rgb(46.02734375,74.38671875,25.6328125)" stroke-width="1" />
<path d="M 291.50 186.50 C 284.81 199.04, 298.25 201.35, 306.50 200.50 C 308.30 201.05, 311.64 191.03, 307.50 188.50 C 301.35 189.01, 297.41 186.57, 292.50 186.50 Z" fill="rgb(130.63106796116506,128.14563106796118,83.72815533980582)" stroke="rgb(130.63106796116506,128.14563106796118,83.72815533980582)" stroke-width="1" />
<path d="M 169.50 496.50 C 168.31 501.90, 165.86 507.15, 159.50 507.50 C 149.25 512.64, 158.72 511.47, 164.50 511.50 C 170.46 510.68, 177.15 513.77, 179.50 508.50 C 181.33 504.61, 179.39 502.67, 176.50 503.50 C 174.05 500.06, 174.51 496.41, 170.50 496.50 Z" fill="rgb(53.103896103896105,84.08225108225108,29.683982683982684)" stroke="rgb(53.103896103896105,84.08225108225108,29.683982683982684)" stroke-width="1" />
<path d="M 135.50 400.50 C 129.29 408.20, 123.58 414.76, 137.50 417.50 C 141.43 413.32, 147.70 414.68, 149.50 409.50 C 142.04 410.00, 140.82 402.89, 136.50 400.50 Z" fill="rgb(44.31111111111111,55.37777777777778,46.2)" stroke="rgb(44.31111111111111,55.37777777777778,46.2)" stroke-width="1" />
<path d="M 33.50 354.50 C 29.72 356.44, 27.09 365.69, 31.50 366.50 C 34.48 368.35, 37.52 367.65, 39.50 369.50 C 40.48 372.88, 40.58 376.53, 41.50 376.50 C 43.45 371.17, 42.11 365.48, 42.50 360.50 C 47.88 352.74, 38.92 354.67, 34.50 354.50 Z" fill="rgb(116.22374429223744,116.76712328767124,103.65296803652969)" stroke="rgb(116.22374429223744,116.76712328767124,103.65296803652969)" stroke-width="1" />
<path d="M 125.50 242.50 C 123.99 246.17, 117.16 245.44, 118.50 251.50 C 124.15 252.60, 126.54 258.15, 131.50 257.50 C 136.81 261.15, 138.47 249.99, 134.50 249.50 C 133.11 243.11, 132.20 243.26, 126.50 242.50 Z" fill="rgb(34.08878504672897,41.39252336448598,23.845794392523363)" stroke="rgb(34.08878504672897,41.39252336448598,23.845794392523363)" stroke-width="1" />
<path d="M 1.50 437.50 C -0.28 440.90, 0.78 445.48, 0.50 449.50 C -0.84 457.72, 2.43 456.35, 6.50 452.50 C 10.03 450.03, 18.98 448.39, 15.50 443.50 C 11.22 439.10, 6.05 440.24, 2.50 437.50 Z" fill="rgb(103.88317757009345,114.07009345794393,75.45327102803738)" stroke="rgb(103.88317757009345,114.07009345794393,75.45327102803738)" stroke-width="1" />
<path d="M 21.50 47.50 C 14.72 48.82, 15.38 54.44, 22.50 54.50 C 28.54 53.45, 31.31 57.89, 36.50 56.50 C 43.51 57.61, 43.97 48.70, 37.50 49.50 C 32.62 46.27, 27.06 48.09, 22.50 47.50 Z" fill="rgb(90.77142857142857,105.51428571428572,60.63809523809524)" stroke="rgb(90.77142857142857,105.51428571428572,60.63809523809524)" stroke-width="1" />
<path d="M 307.50 437.50 C 304.01 439.60, 299.70 439.71, 296.50 442.50 C 302.61 442.54, 299.54 451.83, 305.50 449.50 C 308.63 451.45, 315.06 448.48, 315.50 446.50 C 318.55 440.73, 312.28 438.24, 308.50 437.50 Z" fill="rgb(36.14141414141414,75.48989898989899,15.494949494949495)" stroke="rgb(36.14141414141414,75.48989898989899,15.494949494949495)" stroke-width="1" />
<path d="M 187.50 254.50 C 185.62 259.36, 185.85 265.97, 185.50 272.50 C 187.97 279.85, 183.16 288.95, 189.50 291.50 C 190.50 284.50, 190.50 278.50, 190.50 272.50 C 189.33 266.33, 192.94 256.39, 188.50 254.50 Z" fill="rgb(65.82564102564102,69.05128205128206,68.65641025641025)" stroke="rgb(65.82564102564102,69.05128205128206,68.65641025641025)" stroke-width="1" />
<path d="M 249.50 439.50 C 245.76 440.28, 245.00 443.52, 245.50 447.50 C 245.53 452.95, 249.91 452.80, 253.50 452.50 C 257.43 451.35, 262.60 450.07, 261.50 445.50 C 259.26 440.54, 253.37 441.83, 250.50 439.50 Z" fill="rgb(18.67195767195767,48.957671957671955,7.851851851851852)" stroke="rgb(18.67195767195767,48.957671957671955,7.851851851851852)" stroke-width="1" />
<path d="M 173.50 383.50 C 168.88 387.69, 162.70 391.62, 160.50 397.50 C 157.23 405.14, 150.54 410.41, 160.50 404.50 C 166.95 401.20, 166.07 393.09, 172.50 391.50 C 179.30 391.33, 184.11 384.19, 174.50 383.50 Z" fill="rgb(66.2258064516129,83.25806451612904,63.806451612903224)" stroke="rgb(66.2258064516129,83.25806451612904,63.806451612903224)" stroke-width="1" />
<path d="M 135.50 400.50 C 131.23 401.29, 134.69 409.10, 129.50 408.50 C 127.00 408.80, 128.80 419.79, 132.50 413.50 C 135.47 418.31, 142.84 416.62, 141.50 411.50 C 142.80 407.77, 139.91 402.58, 136.50 400.50 Z" fill="rgb(38.42528735632184,41.13793103448276,38.5)" stroke="rgb(38.42528735632184,41.13793103448276,38.5)" stroke-width="1" />
<path d="M 157.50 227.50 C 159.92 230.38, 152.92 235.72, 159.50 236.50 C 164.50 236.50, 168.50 236.50, 172.50 236.50 C 180.96 236.25, 175.66 229.53, 171.50 229.50 C 166.40 229.07, 162.86 227.29, 158.50 227.50 Z" fill="rgb(27.100591715976332,44.68639053254438,16.28994082840237)" stroke="rgb(27.100591715976332,44.68639053254438,16.28994082840237)" stroke-width="1" />
<path d="M 173.50 383.50 C 169.44 387.27, 164.15 390.52, 161.50 395.50 C 156.15 401.74, 158.88 404.70, 164.50 400.50 C 165.11 393.91, 170.50 392.34, 173.50 389.50 C 182.14 391.88, 181.52 382.37, 174.50 383.50 Z" fill="rgb(69.77564102564102,82.39102564102564,68.24358974358974)" stroke="rgb(69.77564102564102,82.39102564102564,68.24358974358974)" stroke-width="1" />
<path d="M 291.50 186.50 C 289.37 188.76, 291.02 192.58, 290.50 195.50 C 289.69 201.24, 295.73 199.00, 298.50 199.50 C 303.38 200.12, 301.18 193.39, 300.50 191.50 C 301.13 185.96, 294.98 187.93, 292.50 186.50 Z" fill="rgb(190.3421052631579,182.83552631578948,150.3815789473684)" stroke="rgb(190.3421052631579,182.83552631578948,150.3815789473684)" stroke-width="1" />
</svg>