<svg xmlns="http://www.w3.org/2000/svg" width="341" height="512" viewbox="0 0 341 512">
<path d="M 0.50 0.50 C 0.50 169.50, 0.50 338.50, 0.50 507.50 C 482.40 739.61, 492.07 -221.59, 1.50 0.50 Z" fill="rgb(91.4365918865512,99.71416947576427,70.7173079158433)" stroke="rgb(91.4365918865512,99.71416947576427,70.7173079158433)" stroke-width="1" />
<path d="M 249.50 0.50 C 274.38 46.96, 247.30 130.24, 302.50 149.50 C 308.14 165.49, 301.51 169.48, 290.50 173.50 C 325.69 190.07, 281.84 261.23, 271.50 311.50 C -48.86 768.49, 635.15 253.14, 250.50 0.50 Z" fill="rgb(70.47400611620795,95.59531090723752,44.46585117227319)" stroke="rgb(70.47400611620795,95.59531090723752,44.46585117227319)" stroke-width="1" />
<path d="M 0.50 0.50 C -31.42 242.21, 121.89 3.02, 158.50 113.50 C 492.83 233.80, 293.79 -119.35, 1.50 0.50 Z" fill="rgb(163.13529411764705,179.00529411764705,112.66941176470588)" stroke="rgb(163.13529411764705,179.00529411764705,112.66941176470588)" stroke-width="1" />
<path d="M 333.50 168.50 C 319.34 177.26, 316.19 200.03, 298.50 212.50 C 297.36 253.93, 281.54 274.37, 272.50 310.50 C 246.45 333.22, 226.81 335.83, 198.50 340.50 C 232.52 394.34, 177.89 358.37, 156.50 405.50 C 123.01 425.29, 118.75 466.36, 147.50 491.50 C 354.71 602.36, 361.65 395.36, 340.50 230.50 C 335.30 211.17, 346.26 180.24, 334.50 168.50 Z" fill="rgb(45.62657193368691,69.42809966976884,32.971646819440274)" stroke="rgb(45.62657193368691,69.42809966976884,32.971646819440274)" stroke-width="1" />
<path d="M 137.50 70.50 C 13.81 91.68, 106.32 205.14, 181.50 233.50 C 204.99 231.95, 228.93 236.45, 251.50 232.50 C 303.84 236.19, 304.02 186.54, 283.50 171.50 C 308.43 118.61, 122.52 160.23, 138.50 70.50 Z" fill="rgb(69.09818636647906,67.98405253283302,44.75328330206379)" stroke="rgb(69.09818636647906,67.98405253283302,44.75328330206379)" stroke-width="1" />
<path d="M 35.50 172.50 C 26.60 176.40, 12.73 173.25, 3.50 175.50 C 0.28 179.19, 2.44 184.70, 0.50 188.50 C 5.03 239.24, -13.77 430.93, 24.50 350.50 C 59.70 346.25, 72.54 320.09, 86.50 293.50 C 119.94 272.46, 146.20 315.81, 152.50 274.50 C 166.70 238.61, 133.78 182.01, 108.50 194.50 C 99.29 161.18, 60.41 177.23, 36.50 172.50 Z" fill="rgb(149.52238121912717,170.27387075418852,100.38758466160819)" stroke="rgb(149.52238121912717,170.27387075418852,100.38758466160819)" stroke-width="1" />
<path d="M 162.50 0.50 C 147.73 43.70, 116.96 121.40, 220.50 137.50 C 240.98 134.44, 244.41 139.69, 264.50 138.50 C 266.26 92.55, 247.59 50.73, 248.50 5.50 C 225.45 1.27, 161.86 -14.71, 173.50 26.50 C 166.47 79.46, 169.78 13.26, 163.50 0.50 Z" fill="rgb(157.2783029924213,181.19173372919758,101.62458004531604)" stroke="rgb(157.2783029924213,181.19173372919758,101.62458004531604)" stroke-width="1" />
<path d="M 248.50 0.50 C 254.30 7.83, 268.97 19.02, 252.50 27.50 C 251.26 63.89, 270.66 96.98, 268.50 139.50 C 299.32 138.32, 306.31 177.56, 338.50 166.50 C 339.37 110.98, 341.23 56.27, 340.50 0.50 C 309.50 0.50, 279.50 0.50, 249.50 0.50 Z" fill="rgb(80.2358671351006,113.19554455445545,43.200894282976684)" stroke="rgb(80.2358671351006,113.19554455445545,43.200894282976684)" stroke-width="1" />
<path d="M 232.50 314.50 C 165.58 327.47, 89.71 321.12, 48.50 349.50 C 38.37 350.59, 48.20 381.62, 40.50 395.50 C 88.83 427.31, 147.11 430.01, 177.50 367.50 C 260.34 393.21, 140.51 326.34, 180.50 340.50 C 205.55 327.45, 254.89 338.34, 233.50 314.50 Z" fill="rgb(115.13311570547697,119.33224519405151,104.15959376133479)" stroke="rgb(115.13311570547697,119.33224519405151,104.15959376133479)" stroke-width="1" />
<path d="M 0.50 0.50 C 0.44 40.33, 2.21 79.40, 1.50 119.50 C 38.80 117.94, 68.99 152.33, 78.50 96.50 C 92.45 89.13, 131.26 53.51, 89.50 26.50 C 116.59 -10.49, 35.83 2.27, 1.50 0.50 Z" fill="rgb(151.4169585823202,173.69699155161754,97.69307644755821)" stroke="rgb(151.4169585823202,173.69699155161754,97.69307644755821)" stroke-width="1" />
<path d="M 326.50 437.50 C 290.12 446.10, 249.51 433.99, 227.50 460.50 C 190.22 450.60, 187.32 477.42, 202.50 497.50 C 182.75 524.61, 279.04 505.81, 310.50 511.50 C 355.49 530.56, 345.34 443.02, 327.50 437.50 Z" fill="rgb(30.02789621147521,54.18321354610793,18.748934096723108)" stroke="rgb(30.02789621147521,54.18321354610793,18.748934096723108)" stroke-width="1" />
<path d="M 136.50 70.50 C 81.55 68.69, 37.80 149.25, 108.50 178.50 C 149.92 201.76, 119.02 132.86, 173.50 146.50 C 282.01 140.99, 118.70 130.96, 137.50 70.50 Z" fill="rgb(114.43831902394939,110.89787618617261,80.59737912336195)" stroke="rgb(114.43831902394939,110.89787618617261,80.59737912336195)" stroke-width="1" />
<path d="M 49.50 356.50 C 13.54 426.76, 119.52 400.46, 149.50 406.50 C 238.22 332.96, 101.77 379.61, 50.50 356.50 Z" fill="rgb(153.57339630066903,164.5745769382133,167.250098386462)" stroke="rgb(153.57339630066903,164.5745769382133,167.250098386462)" stroke-width="1" />
<path d="M 184.50 235.50 C 111.01 256.98, 206.75 309.59, 240.50 309.50 C 241.13 272.31, 232.17 224.98, 185.50 235.50 Z" fill="rgb(63.261241970021416,64.70806566738044,51.12919343326195)" stroke="rgb(63.261241970021416,64.70806566738044,51.12919343326195)" stroke-width="1" />
<path d="M 95.50 420.50 C -97.26 448.94, 155.41 520.26, 95.50 420.50 Z" fill="rgb(148.40181268882176,141.7250755287009,111.21148036253777)" stroke="rgb(148.40181268882176,141.7250755287009,111.21148036253777)" stroke-width="1" />
<path d="M 194.50 175.50 C 87.02 179.25, 166.14 212.90, 234.50 201.50 C 350.60 214.13, 261.85 168.88, 195.50 175.50 Z" fill="rgb(120.68244766505636,115.57359098228663,78.67375201288245)" stroke="rgb(120.68244766505636,115.57359098228663,78.67375201288245)" stroke-width="1" />
<path d="M 99.50 419.50 C -23.48 420.55, 127.74 537.68, 119.50 424.50 C 114.50 417.34, 105.74 422.67, 100.50 419.50 Z" fill="rgb(164.9429241594996,157.34010946051603,135.3776387802971)" stroke="rgb(164.9429241594996,157.34010946051603,135.3776387802971)" stroke-width="1" />
<path d="M 243.50 142.50 C 213.44 144.34, 183.61 146.76, 153.50 148.50 C 121.07 177.51, 207.70 158.95, 231.50 161.50 C 294.25 182.73, 320.74 140.07, 244.50 142.50 Z" fill="rgb(147.24972855591747,137.92146217879116,107.27180600796235)" stroke="rgb(147.24972855591747,137.92146217879116,107.27180600796235)" stroke-width="1" />
<path d="M 34.50 470.50 C -74.96 531.31, 263.75 496.79, 34.50 470.50 Z" fill="rgb(109.5,127.0,67.0)" stroke="rgb(109.5,127.0,67.0)" stroke-width="1" />
<path d="M 241.50 238.50 C 219.02 239.27, 247.25 357.41, 270.50 302.50 C 281.44 266.66, 294.66 234.94, 242.50 238.50 Z" fill="rgb(113.47272087293207,131.78775079197464,137.3907074973601)" stroke="rgb(113.47272087293207,131.78775079197464,137.3907074973601)" stroke-width="1" />
<path d="M 33.50 470.50 C -73.61 531.16, 264.34 496.47, 33.50 470.50 Z" fill="rgb(73.40524781341108,82.91836734693878,45.53644314868804)" stroke="rgb(73.40524781341108,82.91836734693878,45.53644314868804)" stroke-width="1" />
<path d="M 94.50 0.50 C 98.89 31.74, 141.43 99.93, 148.50 36.50 C 175.89 -6.35, 133.66 -1.02, 95.50 0.50 Z" fill="rgb(135.02527075812273,164.64584837545127,84.52635379061371)" stroke="rgb(135.02527075812273,164.64584837545127,84.52635379061371)" stroke-width="1" />
<path d="M 213.50 238.50 C 200.48 258.03, 171.68 287.78, 210.50 293.50 C 247.92 351.79, 249.75 247.88, 214.50 238.50 Z" fill="rgb(21.739204788371097,22.846515604959386,18.71483539974348)" stroke="rgb(21.739204788371097,22.846515604959386,18.71483539974348)" stroke-width="1" />
<path d="M 22.50 118.50 C -35.37 197.13, 142.06 175.74, 22.50 118.50 Z" fill="rgb(142.87700534759358,161.6149732620321,95.21390374331551)" stroke="rgb(142.87700534759358,161.6149732620321,95.21390374331551)" stroke-width="1" />
<path d="M 36.50 470.50 C 25.52 475.44, 11.08 469.71, 0.50 473.50 C -23.14 552.78, 113.01 485.74, 37.50 470.50 Z" fill="rgb(59.49879168680522,85.85258579023683,27.28322861285645)" stroke="rgb(59.49879168680522,85.85258579023683,27.28322861285645)" stroke-width="1" />
<path d="M 35.50 381.50 C -65.25 408.11, 99.87 468.17, 35.50 381.50 Z" fill="rgb(116.84117647058824,120.0,102.04117647058824)" stroke="rgb(116.84117647058824,120.0,102.04117647058824)" stroke-width="1" />
<path d="M 137.50 70.50 C 85.32 72.71, 124.85 95.77, 113.50 125.50 C 149.18 145.30, 157.52 87.12, 138.50 70.50 Z" fill="rgb(159.71504237288136,158.26959745762713,141.614406779661)" stroke="rgb(159.71504237288136,158.26959745762713,141.614406779661)" stroke-width="1" />
<path d="M 189.50 202.50 C 198.32 285.04, 301.31 184.51, 189.50 202.50 Z" fill="rgb(12.652605459057073,12.399503722084367,6.7245657568238215)" stroke="rgb(12.652605459057073,12.399503722084367,6.7245657568238215)" stroke-width="1" />
<path d="M 1.50 137.50 C 25.10 216.97, 127.78 142.83, 1.50 137.50 Z" fill="rgb(129.1316348195329,145.37579617834396,85.27388535031847)" stroke="rgb(129.1316348195329,145.37579617834396,85.27388535031847)" stroke-width="1" />
<path d="M 12.50 322.50 C -44.53 417.94, 83.93 352.93, 12.50 322.50 Z" fill="rgb(157.4586092715232,171.40066225165563,114.28807947019868)" stroke="rgb(157.4586092715232,171.40066225165563,114.28807947019868)" stroke-width="1" />
<path d="M 148.50 119.50 C 149.16 131.01, 135.95 126.40, 128.50 128.50 C 125.07 161.41, 295.20 137.49, 149.50 119.50 Z" fill="rgb(199.44359464627152,191.12523900573615,170.02676864244742)" stroke="rgb(199.44359464627152,191.12523900573615,170.02676864244742)" stroke-width="1" />
<path d="M 0.50 0.50 C -9.31 35.78, 17.12 50.69, 31.50 25.50 C 77.22 47.34, 42.51 -17.23, 1.50 0.50 Z" fill="rgb(106.72365038560412,132.92480719794344,56.0)" stroke="rgb(106.72365038560412,132.92480719794344,56.0)" stroke-width="1" />
<path d="M 95.50 293.50 C 58.31 364.26, 199.85 300.47, 95.50 293.50 Z" fill="rgb(142.26315789473685,139.54066985645932,113.04306220095694)" stroke="rgb(142.26315789473685,139.54066985645932,113.04306220095694)" stroke-width="1" />
<path d="M 157.50 289.50 C 108.94 357.90, 266.71 294.37, 157.50 289.50 Z" fill="rgb(77.90366972477064,75.87155963302752,58.96788990825688)" stroke="rgb(77.90366972477064,75.87155963302752,58.96788990825688)" stroke-width="1" />
<path d="M 95.50 99.50 C 92.96 116.25, 82.84 185.83, 111.50 172.50 C 105.64 148.61, 125.53 102.64, 96.50 99.50 Z" fill="rgb(95.57142857142857,72.82474226804123,63.038291605301914)" stroke="rgb(95.57142857142857,72.82474226804123,63.038291605301914)" stroke-width="1" />
<path d="M 85.50 81.50 C 80.43 104.57, 68.41 125.28, 69.50 150.50 C 105.17 205.02, 88.58 101.28, 86.50 81.50 Z" fill="rgb(187.1361502347418,183.55712050078247,156.88262910798122)" stroke="rgb(187.1361502347418,183.55712050078247,156.88262910798122)" stroke-width="1" />
<path d="M 218.50 162.50 C 117.41 184.34, 378.88 180.11, 218.50 162.50 Z" fill="rgb(92.06896551724138,91.62068965517241,61.37931034482759)" stroke="rgb(92.06896551724138,91.62068965517241,61.37931034482759)" stroke-width="1" />
<path d="M 219.50 162.50 C 142.17 169.46, 242.55 180.47, 272.50 182.50 C 287.90 161.61, 239.23 163.94, 220.50 162.50 Z" fill="rgb(56.486646884273,47.49357072205737,29.117705242334324)" stroke="rgb(56.486646884273,47.49357072205737,29.117705242334324)" stroke-width="1" />
<path d="M 23.50 382.50 C -49.26 432.44, 70.42 424.74, 23.50 382.50 Z" fill="rgb(152.8139534883721,170.2325581395349,113.11627906976744)" stroke="rgb(152.8139534883721,170.2325581395349,113.11627906976744)" stroke-width="1" />
<path d="M 1.50 343.50 C -9.63 426.34, 80.75 353.61, 1.50 343.50 Z" fill="rgb(100.00813008130082,109.47154471544715,73.1219512195122)" stroke="rgb(100.00813008130082,109.47154471544715,73.1219512195122)" stroke-width="1" />
<path d="M 36.50 381.50 C -43.57 395.93, 40.41 459.83, 36.50 381.50 Z" fill="rgb(145.5016501650165,159.59735973597358,108.22552255225523)" stroke="rgb(145.5016501650165,159.59735973597358,108.22552255225523)" stroke-width="1" />
<path d="M 27.50 443.50 C -3.71 450.59, 9.16 483.97, 36.50 468.50 C 88.56 485.37, 43.64 442.22, 28.50 443.50 Z" fill="rgb(174.89204025617568,169.9103385178408,136.79963403476668)" stroke="rgb(174.89204025617568,169.9103385178408,136.79963403476668)" stroke-width="1" />
<path d="M 62.50 491.50 C 54.92 518.30, 7.87 508.09, 58.50 511.50 C 126.69 521.62, 123.11 492.46, 63.50 491.50 Z" fill="rgb(154.45138888888889,141.2609126984127,93.53373015873017)" stroke="rgb(154.45138888888889,141.2609126984127,93.53373015873017)" stroke-width="1" />
<path d="M 151.50 287.50 C 108.93 343.25, 223.39 311.14, 151.50 287.50 Z" fill="rgb(145.02278481012658,141.9518987341772,118.15696202531646)" stroke="rgb(145.02278481012658,141.9518987341772,118.15696202531646)" stroke-width="1" />
<path d="M 169.50 201.50 C 124.71 198.02, 154.79 235.04, 182.50 232.50 C 180.70 220.29, 189.02 197.07, 170.50 201.50 Z" fill="rgb(64.6377607025247,71.12294182217343,32.8781558726674)" stroke="rgb(64.6377607025247,71.12294182217343,32.8781558726674)" stroke-width="1" />
<path d="M 0.50 137.50 C -11.59 210.26, 71.65 137.34, 0.50 137.50 Z" fill="rgb(113.23268698060942,124.77839335180056,72.85180055401662)" stroke="rgb(113.23268698060942,124.77839335180056,72.85180055401662)" stroke-width="1" />
<path d="M 1.50 343.50 C -18.36 421.97, 63.64 349.58, 1.50 343.50 Z" fill="rgb(122.4474034620506,135.39547270306258,88.58988015978694)" stroke="rgb(122.4474034620506,135.39547270306258,88.58988015978694)" stroke-width="1" />
<path d="M 95.50 293.50 C 49.31 348.31, 151.04 316.83, 95.50 293.50 Z" fill="rgb(141.9872029250457,137.9981718464351,117.6764168190128)" stroke="rgb(141.9872029250457,137.9981718464351,117.6764168190128)" stroke-width="1" />
<path d="M 63.50 478.50 C 66.41 503.02, 102.20 482.76, 109.50 503.50 C 156.11 520.40, 93.09 469.41, 64.50 478.50 Z" fill="rgb(48.83875338753388,74.14092140921409,22.185636856368564)" stroke="rgb(48.83875338753388,74.14092140921409,22.185636856368564)" stroke-width="1" />
<path d="M 34.50 397.50 C -2.26 448.06, 90.32 433.12, 34.50 397.50 Z" fill="rgb(192.16071428571428,188.04285714285714,158.19642857142858)" stroke="rgb(192.16071428571428,188.04285714285714,158.19642857142858)" stroke-width="1" />
<path d="M 49.50 154.50 C 4.91 187.30, 133.22 159.13, 49.50 154.50 Z" fill="rgb(124.8422619047619,140.54166666666666,81.95833333333333)" stroke="rgb(124.8422619047619,140.54166666666666,81.95833333333333)" stroke-width="1" />
<path d="M 215.50 203.50 C 178.82 258.92, 270.12 207.14, 215.50 203.50 Z" fill="rgb(10.221294363256785,11.549060542797495,5.250521920668058)" stroke="rgb(10.221294363256785,11.549060542797495,5.250521920668058)" stroke-width="1" />
<path d="M 148.50 92.50 C 159.19 145.32, 212.80 114.20, 148.50 92.50 Z" fill="rgb(177.98723404255318,200.4255319148936,121.28936170212766)" stroke="rgb(177.98723404255318,200.4255319148936,121.28936170212766)" stroke-width="1" />
<path d="M 21.50 119.50 C 12.16 123.48, -4.81 116.59, 0.50 133.50 C 46.99 154.87, 35.23 140.60, 22.50 119.50 Z" fill="rgb(52.59120521172638,84.08957654723127,22.070032573289904)" stroke="rgb(52.59120521172638,84.08957654723127,22.070032573289904)" stroke-width="1" />
<path d="M 131.50 300.50 C 71.90 317.33, 163.12 344.11, 131.50 300.50 Z" fill="rgb(158.64117647058825,159.3764705882353,130.41176470588235)" stroke="rgb(158.64117647058825,159.3764705882353,130.41176470588235)" stroke-width="1" />
<path d="M 36.50 133.50 C 38.48 184.96, 98.98 131.09, 36.50 133.50 Z" fill="rgb(208.98487712665406,212.86767485822307,167.64272211720228)" stroke="rgb(208.98487712665406,212.86767485822307,167.64272211720228)" stroke-width="1" />
<path d="M 155.50 134.50 C 127.74 161.22, 264.04 137.12, 155.50 134.50 Z" fill="rgb(83.33870967741936,60.09879032258065,37.66935483870968)" stroke="rgb(83.33870967741936,60.09879032258065,37.66935483870968)" stroke-width="1" />
<path d="M 64.50 456.50 C 58.03 502.24, 128.57 460.84, 64.50 456.50 Z" fill="rgb(55.53526970954357,47.95228215767635,29.217842323651453)" stroke="rgb(55.53526970954357,47.95228215767635,29.217842323651453)" stroke-width="1" />
<path d="M 190.50 202.50 C 173.76 264.29, 241.48 197.17, 190.50 202.50 Z" fill="rgb(11.883534136546185,13.130522088353414,6.650602409638554)" stroke="rgb(11.883534136546185,13.130522088353414,6.650602409638554)" stroke-width="1" />
<path d="M 92.50 404.50 C 13.42 431.82, 153.03 425.16, 92.50 404.50 Z" fill="rgb(145.31650485436893,147.4135922330097,145.21941747572816)" stroke="rgb(145.31650485436893,147.4135922330097,145.21941747572816)" stroke-width="1" />
<path d="M 2.50 425.50 C 23.41 464.94, 73.05 440.36, 2.50 425.50 Z" fill="rgb(46.666666666666664,84.0,7.333333333333333)" stroke="rgb(46.666666666666664,84.0,7.333333333333333)" stroke-width="1" />
<path d="M 173.50 292.50 C 174.46 348.66, 223.63 293.82, 173.50 292.50 Z" fill="rgb(83.47084233261339,86.73434125269978,84.99352051835854)" stroke="rgb(83.47084233261339,86.73434125269978,84.99352051835854)" stroke-width="1" />
<path d="M 2.50 425.50 C 23.20 464.78, 73.71 440.41, 2.50 425.50 Z" fill="rgb(57.92565947242206,83.1199040767386,28.06474820143885)" stroke="rgb(57.92565947242206,83.1199040767386,28.06474820143885)" stroke-width="1" />
<path d="M 170.50 361.50 C 127.94 402.77, 219.77 367.16, 170.50 361.50 Z" fill="rgb(40.981675392670155,55.31937172774869,50.59947643979058)" stroke="rgb(40.981675392670155,55.31937172774869,50.59947643979058)" stroke-width="1" />
<path d="M 162.50 165.50 C 86.15 178.72, 208.48 182.17, 162.50 165.50 Z" fill="rgb(42.375,34.25,18.5)" stroke="rgb(42.375,34.25,18.5)" stroke-width="1" />
<path d="M 34.50 354.50 C -7.54 389.61, 66.58 381.45, 34.50 354.50 Z" fill="rgb(98.73015873015873,102.12698412698413,86.80952380952381)" stroke="rgb(98.73015873015873,102.12698412698413,86.80952380952381)" stroke-width="1" />
<path d="M 162.50 165.50 C 87.01 178.18, 205.84 182.91, 162.50 165.50 Z" fill="rgb(42.259375,31.884375,19.434375)" stroke="rgb(42.259375,31.884375,19.434375)" stroke-width="1" />
<path d="M 237.50 205.50 C 203.83 246.00, 275.59 233.02, 237.50 205.50 Z" fill="rgb(12.252475247524753,10.626237623762377,4.341584158415841)" stroke="rgb(12.252475247524753,10.626237623762377,4.341584158415841)" stroke-width="1" />
<path d="M 205.50 348.50 C 204.19 400.54, 250.36 366.64, 205.50 348.50 Z" fill="rgb(102.57631578947368,118.99736842105263,74.41578947368421)" stroke="rgb(102.57631578947368,118.99736842105263,74.41578947368421)" stroke-width="1" />
<path d="M 178.50 253.50 C 166.89 309.75, 212.18 280.00, 178.50 253.50 Z" fill="rgb(58.705882352941174,59.411764705882355,55.55555555555556)" stroke="rgb(58.705882352941174,59.411764705882355,55.55555555555556)" stroke-width="1" />
<path d="M 172.50 262.50 C 133.88 275.12, 194.90 303.97, 172.50 262.50 Z" fill="rgb(18.85573770491803,21.04590163934426,12.747540983606557)" stroke="rgb(18.85573770491803,21.04590163934426,12.747540983606557)" stroke-width="1" />
<path d="M 43.50 404.50 C 63.20 446.00, 99.01 392.39, 43.50 404.50 Z" fill="rgb(209.8,208.4,204.0)" stroke="rgb(209.8,208.4,204.0)" stroke-width="1" />
<path d="M 44.50 404.50 C 62.16 446.40, 100.15 391.82, 44.50 404.50 Z" fill="rgb(240.52380952380952,241.83333333333334,241.52619047619046)" stroke="rgb(240.52380952380952,241.83333333333334,241.52619047619046)" stroke-width="1" />
<path d="M 148.50 93.50 C 143.71 134.63, 196.92 104.77, 148.50 93.50 Z" fill="rgb(208.11641791044775,223.6089552238806,155.30447761194029)" stroke="rgb(208.11641791044775,223.6089552238806,155.30447761194029)" stroke-width="1" />
<path d="M 107.50 408.50 C 126.40 452.01, 152.24 409.80, 107.50 408.50 Z" fill="rgb(140.75,155.9375,145.9375)" stroke="rgb(140.75,155.9375,145.9375)" stroke-width="1" />
<path d="M 106.50 408.50 C 129.43 451.72, 149.98 408.19, 106.50 408.50 Z" fill="rgb(193.68454258675078,206.70031545741324,208.0)" stroke="rgb(193.68454258675078,206.70031545741324,208.0)" stroke-width="1" />
<path d="M 120.50 453.50 C 75.32 482.56, 109.96 499.26, 120.50 453.50 Z" fill="rgb(28.952789699570815,28.40343347639485,22.759656652360515)" stroke="rgb(28.952789699570815,28.40343347639485,22.759656652360515)" stroke-width="1" />
<path d="M 195.50 362.50 C 183.96 391.89, 238.62 377.12, 195.50 362.50 Z" fill="rgb(106.29959514170041,127.71255060728745,131.75708502024293)" stroke="rgb(106.29959514170041,127.71255060728745,131.75708502024293)" stroke-width="1" />
<path d="M 109.50 287.50 C 108.98 324.43, 150.73 287.58, 109.50 287.50 Z" fill="rgb(177.13671875,186.95703125,110.9609375)" stroke="rgb(177.13671875,186.95703125,110.9609375)" stroke-width="1" />
<path d="M 22.50 367.50 C 7.91 398.73, 66.55 366.03, 22.50 367.50 Z" fill="rgb(111.44186046511628,114.6046511627907,99.51627906976744)" stroke="rgb(111.44186046511628,114.6046511627907,99.51627906976744)" stroke-width="1" />
<path d="M 122.50 449.50 C 100.29 491.70, 143.15 474.77, 122.50 449.50 Z" fill="rgb(51.81327800829875,49.53941908713693,33.58091286307054)" stroke="rgb(51.81327800829875,49.53941908713693,33.58091286307054)" stroke-width="1" />
<path d="M 70.50 154.50 C 42.08 178.76, 105.34 166.80, 70.50 154.50 Z" fill="rgb(156.94554455445544,171.55940594059405,105.3019801980198)" stroke="rgb(156.94554455445544,171.55940594059405,105.3019801980198)" stroke-width="1" />
<path d="M 226.50 501.50 C 165.34 513.65, 263.55 516.92, 226.50 501.50 Z" fill="rgb(29.591463414634145,57.51219512195122,17.213414634146343)" stroke="rgb(29.591463414634145,57.51219512195122,17.213414634146343)" stroke-width="1" />
<path d="M 142.50 182.50 C 110.41 200.07, 170.05 208.48, 142.50 182.50 Z" fill="rgb(174.44748858447488,163.54337899543378,112.58447488584476)" stroke="rgb(174.44748858447488,163.54337899543378,112.58447488584476)" stroke-width="1" />
<path d="M 301.50 488.50 C 283.62 525.56, 331.13 494.58, 301.50 488.50 Z" fill="rgb(42.857142857142854,71.5,23.442857142857143)" stroke="rgb(42.857142857142854,71.5,23.442857142857143)" stroke-width="1" />
<path d="M 291.50 186.50 C 288.05 217.97, 330.52 185.67, 291.50 186.50 Z" fill="rgb(136.15686274509804,135.1764705882353,93.0)" stroke="rgb(136.15686274509804,135.1764705882353,93.0)" stroke-width="1" />
<path d="M 169.50 496.50 C 131.48 519.98, 199.90 513.67, 169.50 496.50 Z" fill="rgb(46.4054054054054,68.35810810810811,28.736486486486488)" stroke="rgb(46.4054054054054,68.35810810810811,28.736486486486488)" stroke-width="1" />
<path d="M 135.50 400.50 C 109.90 422.82, 169.81 416.24, 135.50 400.50 Z" fill="rgb(66.84615384615384,77.1923076923077,74.88461538461539)" stroke="rgb(66.84615384615384,77.1923076923077,74.88461538461539)" stroke-width="1" />
<path d="M 33.50 354.50 C 23.24 387.10, 62.80 362.76, 33.50 354.50 Z" fill="rgb(121.22651933701657,121.50276243093923,108.61878453038673)" stroke="rgb(121.22651933701657,121.50276243093923,108.61878453038673)" stroke-width="1" />
<path d="M 125.50 242.50 C 105.56 264.07, 157.80 254.01, 125.50 242.50 Z" fill="rgb(28.682926829268293,35.823170731707314,19.054878048780488)" stroke="rgb(28.682926829268293,35.823170731707314,19.054878048780488)" stroke-width="1" />
<path d="M 1.50 437.50 C -11.54 470.94, 34.69 440.97, 1.50 437.50 Z" fill="rgb(107.54010695187166,118.7433155080214,78.31550802139037)" stroke="rgb(107.54010695187166,118.7433155080214,78.31550802139037)" stroke-width="1" />
<path d="M 21.50 47.50 C 12.77 66.10, 66.05 47.76, 21.50 47.50 Z" fill="rgb(88.83892617449665,104.2751677852349,59.50335570469799)" stroke="rgb(88.83892617449665,104.2751677852349,59.50335570469799)" stroke-width="1" />
<path d="M 307.50 437.50 C 276.27 449.61, 336.65 453.74, 307.50 437.50 Z" fill="rgb(45.97872340425532,84.72340425531915,37.4468085106383)" stroke="rgb(45.97872340425532,84.72340425531915,37.4468085106383)" stroke-width="1" />
<path d="M 187.50 254.50 C 179.58 295.55, 198.52 289.75, 187.50 254.50 Z" fill="rgb(61.725352112676056,65.14084507042253,65.6830985915493)" stroke="rgb(61.725352112676056,65.14084507042253,65.6830985915493)" stroke-width="1" />
<path d="M 249.50 439.50 C 232.13 461.70, 281.27 446.27, 249.50 439.50 Z" fill="rgb(19.027027027027028,49.777027027027025,7.9391891891891895)" stroke="rgb(19.027027027027028,49.777027027027025,7.9391891891891895)" stroke-width="1" />
<path d="M 173.50 383.50 C 132.57 418.94, 183.49 396.05, 173.50 383.50 Z" fill="rgb(59.567567567567565,73.0,60.648648648648646)" stroke="rgb(59.567567567567565,73.0,60.648648648648646)" stroke-width="1" />
<path d="M 135.50 400.50 C 112.34 418.81, 157.74 418.76, 135.50 400.50 Z" fill="rgb(43.686868686868685,47.26262626262626,45.656565656565654)" stroke="rgb(43.686868686868685,47.26262626262626,45.656565656565654)" stroke-width="1" />
<path d="M 157.50 227.50 C 158.00 249.26, 193.86 225.88, 157.50 227.50 Z" fill="rgb(29.971830985915492,48.147887323943664,17.711267605633804)" stroke="rgb(29.971830985915492,48.147887323943664,17.711267605633804)" stroke-width="1" />
<path d="M 173.50 383.50 C 137.01 413.18, 187.09 391.97, 173.50 383.50 Z" fill="rgb(59.43518518518518,75.49074074074075,56.583333333333336)" stroke="rgb(59.43518518518518,75.49074074074075,56.583333333333336)" stroke-width="1" />
<path d="M 291.50 186.50 C 284.00 212.60, 317.10 189.72, 291.50 186.50 Z" fill="rgb(193.99193548387098,186.90322580645162,154.83064516129033)" stroke="rgb(193.99193548387098,186.90322580645162,154.83064516129033)" stroke-width="1" />
<path d="M 316.50 395.50 C 281.87 400.02, 328.45 414.05, 316.50 395.50 Z" fill="rgb(7.208,15.112,5.848)" stroke="rgb(7.208,15.112,5.848)" stroke-width="1" />
<path d="M 228.50 163.50 C 222.77 193.20, 252.49 163.48, 228.50 163.50 Z" fill="rgb(35.7109375,29.9609375,16.234375)" stroke="rgb(35.7109375,29.9609375,16.234375)" stroke-width="1" />
<path d="M 309.50 438.50 C 284.77 456.07, 332.42 449.67, 309.50 438.50 Z" fill="rgb(31.918032786885245,71.23770491803279,7.090163934426229)" stroke="rgb(31.918032786885245,71.23770491803279,7.090163934426229)" stroke-width="1" />
<path d="M 227.50 500.50 C 216.62 520.39, 257.51 507.49, 227.50 500.50 Z" fill="rgb(39.388429752066116,72.04132231404958,14.024793388429751)" stroke="rgb(39.388429752066116,72.04132231404958,14.024793388429751)" stroke-width="1" />
<path d="M 171.50 495.50 C 157.46 513.48, 196.10 509.93, 171.50 495.50 Z" fill="rgb(60.14035087719298,89.29824561403508,37.675438596491226)" stroke="rgb(60.14035087719298,89.29824561403508,37.675438596491226)" stroke-width="1" />
<path d="M 243.50 455.50 C 226.81 475.83, 270.84 457.72, 243.50 455.50 Z" fill="rgb(18.561904761904763,49.04761904761905,7.447619047619048)" stroke="rgb(18.561904761904763,49.04761904761905,7.447619047619048)" stroke-width="1" />
<path d="M 158.50 0.50 C 156.51 44.14, 167.99 30.42, 158.50 0.50 Z" fill="rgb(136.32,154.81,100.98)" stroke="rgb(136.32,154.81,100.98)" stroke-width="1" />
<path d="M 103.50 298.50 C 84.58 308.76, 125.18 317.09, 103.50 298.50 Z" fill="rgb(76.35576923076923,75.47115384615384,57.76923076923077)" stroke="rgb(76.35576923076923,75.47115384615384,57.76923076923077)" stroke-width="1" />
<path d="M 178.50 254.50 C 174.67 292.05, 187.01 285.41, 178.50 254.50 Z" fill="rgb(88.6082474226804,93.0721649484536,91.88659793814433)" stroke="rgb(88.6082474226804,93.0721649484536,91.88659793814433)" stroke-width="1" />
<path d="M 164.50 237.50 C 165.46 257.57, 191.49 244.87, 164.50 237.50 Z" fill="rgb(67.64077669902913,77.62135922330097,63.58252427184466)" stroke="rgb(67.64077669902913,77.62135922330097,63.58252427184466)" stroke-width="1" />
<path d="M 6.50 453.50 C -12.04 477.15, 15.77 467.38, 6.50 453.50 Z" fill="rgb(82.96551724137932,77.97701149425288,48.0)" stroke="rgb(82.96551724137932,77.97701149425288,48.0)" stroke-width="1" />
<path d="M 78.50 308.50 C 57.98 326.90, 88.65 326.31, 78.50 308.50 Z" fill="rgb(109.4326923076923,113.08653846153847,78.00961538461539)" stroke="rgb(109.4326923076923,113.08653846153847,78.00961538461539)" stroke-width="1" />
<path d="M 269.50 457.50 C 238.94 462.15, 290.32 470.40, 269.50 457.50 Z" fill="rgb(24.83695652173913,56.05434782608695,14.804347826086957)" stroke="rgb(24.83695652173913,56.05434782608695,14.804347826086957)" stroke-width="1" />
<path d="M 334.50 436.50 C 320.81 458.18, 354.63 440.38, 334.50 436.50 Z" fill="rgb(28.40449438202247,62.39325842696629,14.865168539325843)" stroke="rgb(28.40449438202247,62.39325842696629,14.865168539325843)" stroke-width="1" />
<path d="M 271.50 442.50 C 266.10 458.77, 300.92 439.23, 271.50 442.50 Z" fill="rgb(47.906976744186046,88.70930232558139,39.74418604651163)" stroke="rgb(47.906976744186046,88.70930232558139,39.74418604651163)" stroke-width="1" />
<path d="M 219.50 163.50 C 215.03 189.45, 238.22 164.90, 219.50 163.50 Z" fill="rgb(34.1505376344086,28.225806451612904,16.172043010752688)" stroke="rgb(34.1505376344086,28.225806451612904,16.172043010752688)" stroke-width="1" />
<path d="M 77.50 325.50 C 55.13 334.64, 97.10 338.01, 77.50 325.50 Z" fill="rgb(162.25581395348837,185.2093023255814,93.72093023255815)" stroke="rgb(162.25581395348837,185.2093023255814,93.72093023255815)" stroke-width="1" />
<path d="M 117.50 458.50 C 102.24 487.50, 113.38 486.33, 117.50 458.50 Z" fill="rgb(19.944444444444443,21.73611111111111,22.36111111111111)" stroke="rgb(19.944444444444443,21.73611111111111,22.36111111111111)" stroke-width="1" />
<path d="M 147.50 113.50 C 154.39 127.72, 173.68 112.51, 147.50 113.50 Z" fill="rgb(195.46575342465752,182.3972602739726,149.36986301369862)" stroke="rgb(195.46575342465752,182.3972602739726,149.36986301369862)" stroke-width="1" />
<path d="M 33.50 397.50 C 30.46 413.64, 56.46 406.43, 33.50 397.50 Z" fill="rgb(156.37333333333333,151.49333333333334,135.33333333333334)" stroke="rgb(156.37333333333333,151.49333333333334,135.33333333333334)" stroke-width="1" />
<path d="M 233.50 460.50 C 212.15 473.47, 254.63 463.36, 233.50 460.50 Z" fill="rgb(41.66129032258065,81.14516129032258,33.46774193548387)" stroke="rgb(41.66129032258065,81.14516129032258,33.46774193548387)" stroke-width="1" />
<path d="M 167.50 340.50 C 152.62 352.39, 189.58 343.26, 167.50 340.50 Z" fill="rgb(62.967213114754095,74.32786885245902,44.114754098360656)" stroke="rgb(62.967213114754095,74.32786885245902,44.114754098360656)" stroke-width="1" />
<path d="M 6.50 165.50 C 7.25 181.31, 23.57 168.54, 6.50 165.50 Z" fill="rgb(144.41666666666666,167.58333333333334,88.83333333333333)" stroke="rgb(144.41666666666666,167.58333333333334,88.83333333333333)" stroke-width="1" />
<path d="M 134.50 400.50 C 125.29 415.08, 152.33 404.61, 134.50 400.50 Z" fill="rgb(55.21818181818182,56.127272727272725,53.49090909090909)" stroke="rgb(55.21818181818182,56.127272727272725,53.49090909090909)" stroke-width="1" />
<path d="M 8.50 164.50 C -1.86 176.12, 25.27 172.27, 8.50 164.50 Z" fill="rgb(129.49019607843138,153.2156862745098,71.6078431372549)" stroke="rgb(129.49019607843138,153.2156862745098,71.6078431372549)" stroke-width="1" />
<path d="M 178.50 164.50 C 174.68 183.95, 190.09 168.55, 178.50 164.50 Z" fill="rgb(94.38,90.1,63.64)" stroke="rgb(94.38,90.1,63.64)" stroke-width="1" />
<path d="M 46.50 344.50 C 23.67 350.16, 59.27 350.80, 46.50 344.50 Z" fill="rgb(220.88095238095238,213.76190476190476,180.04761904761904)" stroke="rgb(220.88095238095238,213.76190476190476,180.04761904761904)" stroke-width="1" />
<path d="M 113.50 479.50 C 111.38 491.94, 130.76 477.84, 113.50 479.50 Z" fill="rgb(113.57142857142857,125.54761904761905,84.80952380952381)" stroke="rgb(113.57142857142857,125.54761904761905,84.80952380952381)" stroke-width="1" />
<path d="M 129.50 203.50 C 124.70 216.70, 145.97 202.56, 129.50 203.50 Z" fill="rgb(222.3953488372093,227.25581395348837,198.02325581395348)" stroke="rgb(222.3953488372093,227.25581395348837,198.02325581395348)" stroke-width="1" />
<path d="M 241.50 133.50 C 230.88 144.92, 253.33 141.96, 241.50 133.50 Z" fill="rgb(52.45238095238095,64.21428571428571,58.142857142857146)" stroke="rgb(52.45238095238095,64.21428571428571,58.142857142857146)" stroke-width="1" />
<path d="M 260.50 0.50 C 283.02 15.78, 284.91 11.41, 260.50 0.50 Z" fill="rgb(135.925,145.2,96.875)" stroke="rgb(135.925,145.2,96.875)" stroke-width="1" />
<path d="M 0.50 419.50 C -1.09 432.46, 18.11 419.14, 0.50 419.50 Z" fill="rgb(190.89361702127658,214.68085106382978,126.59574468085107)" stroke="rgb(190.89361702127658,214.68085106382978,126.59574468085107)" stroke-width="1" />
<path d="M 173.50 383.50 C 168.58 394.69, 189.80 383.54, 173.50 383.50 Z" fill="rgb(95.925,106.875,96.225)" stroke="rgb(95.925,106.875,96.225)" stroke-width="1" />
<path d="M 162.50 260.50 C 158.86 273.72, 169.02 270.27, 162.50 260.50 Z" fill="rgb(49.6,48.4,35.2)" stroke="rgb(49.6,48.4,35.2)" stroke-width="1" />
<path d="M 222.50 325.50 C 209.84 330.46, 223.28 334.77, 222.50 325.50 Z" fill="rgb(134.16,154.32,100.8)" stroke="rgb(134.16,154.32,100.8)" stroke-width="1" />
<path d="M 162.50 260.50 C 160.03 275.04, 168.36 269.15, 162.50 260.50 Z" fill="rgb(92.04,89.72,76.44)" stroke="rgb(92.04,89.72,76.44)" stroke-width="1" />
<path d="M 76.50 342.50 C 63.41 346.78, 84.42 349.91, 76.50 342.50 Z" fill="rgb(157.8846153846154,176.69230769230768,96.26923076923077)" stroke="rgb(157.8846153846154,176.69230769230768,96.26923076923077)" stroke-width="1" />
<path d="M 192.50 30.50 C 192.07 40.81, 199.27 35.56, 192.50 30.50 Z" fill="rgb(143.15,152.3,110.05)" stroke="rgb(143.15,152.3,110.05)" stroke-width="1" />
<path d="M 204.50 301.50 C 197.25 307.97, 213.08 305.08, 204.50 301.50 Z" fill="rgb(87.0,83.0,68.85714285714286)" stroke="rgb(87.0,83.0,68.85714285714286)" stroke-width="1" />
</svg>