<svg xmlns="http://www.w3.org/2000/svg" width="341" height="512" viewbox="0 0 341 512">
<path d="M 0.50 0.50 C 0.50 84.83, 0.50 169.17, 0.50 253.50 C 0.50 296.50, 0.50 338.50, 0.50 380.50 C 0.50 423.50, 0.50 465.50, 0.50 507.50 C 18.23 515.44, 48.79 509.54, 71.50 511.50 C 84.83 511.50, 97.17 511.50, 109.50 511.50 C 116.50 511.50, 122.50 511.50, 128.50 511.50 C 135.50 511.50, 141.50 511.50, 147.50 511.50 C 356.09 570.75, 359.48 425.81, 340.50 258.50 C 419.92 -20.59, 225.47 -24.80, 1.50 0.50 Z" fill="rgb(95.95155664642812,104.7367265211213,72.84523963312233)" stroke="rgb(95.95155664642812,104.7367265211213,72.84523963312233)" stroke-width="1" />
<path d="M 249.50 0.50 C 274.38 46.96, 247.30 130.24, 302.50 149.50 C 300.06 157.34, 310.29 164.86, 302.50 168.50 C 295.16 169.56, 294.99 170.46, 290.50 173.50 C 280.16 180.15, 298.40 172.50, 294.50 181.50 C 300.03 182.23, 303.69 184.05, 307.50 185.50 C 313.53 190.18, 312.32 199.58, 308.50 202.50 C 304.37 205.67, 299.74 206.61, 295.50 208.50 C 296.38 215.19, 295.16 223.17, 295.50 230.50 C 292.83 234.14, 297.65 236.96, 298.50 239.50 C 293.31 247.60, 289.08 257.63, 282.50 265.50 C 278.85 274.57, 290.09 283.66, 279.50 289.50 C 278.78 298.31, 272.06 303.63, 271.50 311.50 C 253.72 325.22, 233.73 340.24, 212.50 339.50 C 239.49 390.13, 84.20 398.42, 150.50 490.50 C 301.07 573.64, 381.62 467.59, 340.50 307.50 C 340.50 273.83, 340.50 241.17, 340.50 208.50 C 340.50 203.83, 340.50 200.17, 340.50 196.50 C 340.50 191.83, 340.50 188.17, 340.50 184.50 C 340.50 179.83, 340.50 176.17, 340.50 172.50 C 340.50 167.50, 340.50 163.50, 340.50 159.50 C 340.50 154.83, 340.50 151.17, 340.50 147.50 C 340.50 142.50, 340.50 138.50, 340.50 134.50 C 340.50 129.83, 340.50 126.17, 340.50 122.50 C 340.50 117.50, 340.50 113.50, 340.50 109.50 C 352.47 30.53, 340.63 -23.63, 250.50 0.50 Z" fill="rgb(67.78067318132464,93.41910966340934,42.40933767643865)" stroke="rgb(67.78067318132464,93.41910966340934,42.40933767643865)" stroke-width="1" />
<path d="M 0.50 0.50 C 0.50 12.50, 0.50 24.50, 0.50 36.50 C 0.50 42.17, 0.50 46.83, 0.50 51.50 C 0.50 57.50, 0.50 62.50, 0.50 67.50 C 0.50 73.17, 0.50 77.83, 0.50 82.50 C 0.50 88.50, 0.50 93.50, 0.50 98.50 C -3.34 116.30, 7.60 122.62, 22.50 117.50 C 33.30 115.66, 25.66 129.08, 32.50 128.50 C 37.59 132.02, 44.20 129.48, 48.50 132.50 C 52.20 132.25, 54.45 130.90, 57.50 131.50 C 60.41 128.30, 60.03 124.15, 64.50 123.50 C 78.05 114.13, 73.94 95.86, 80.50 82.50 C 91.81 71.04, 97.74 99.13, 98.50 83.50 C 102.70 71.58, 113.55 70.12, 124.50 69.50 C 132.72 68.62, 140.41 67.63, 146.50 70.50 C 154.82 87.47, 137.82 116.30, 164.50 115.50 C 169.52 125.37, 182.12 122.77, 190.50 125.50 C 210.61 123.21, 224.80 150.81, 240.50 133.50 C 255.46 145.76, 280.85 141.12, 299.50 147.50 C 465.40 26.66, 170.51 -40.54, 1.50 0.50 Z" fill="rgb(159.34003771213074,175.2960402262728,110.20427404148334)" stroke="rgb(159.34003771213074,175.2960402262728,110.20427404148334)" stroke-width="1" />
<path d="M 333.50 168.50 C 330.19 171.11, 322.02 173.50, 328.50 175.50 C 329.34 179.46, 326.07 180.17, 324.50 181.50 C 322.10 185.48, 314.87 181.85, 314.50 187.50 C 312.96 191.43, 315.48 193.04, 313.50 195.50 C 313.46 201.03, 310.29 205.01, 305.50 206.50 C 303.40 210.20, 297.14 207.64, 298.50 212.50 C 297.53 216.90, 297.27 220.60, 297.50 224.50 C 296.63 231.27, 298.66 237.32, 298.50 241.50 C 298.77 246.86, 295.13 248.26, 292.50 250.50 C 291.49 255.75, 286.47 257.09, 287.50 262.50 C 279.04 264.61, 280.16 276.81, 285.50 279.50 C 285.70 285.47, 279.04 288.01, 279.50 293.50 C 279.25 300.69, 271.07 303.61, 272.50 310.50 C 267.97 314.83, 264.00 319.50, 258.50 320.50 C 251.23 321.76, 248.48 327.95, 243.50 331.50 C 236.30 334.73, 229.04 338.87, 222.50 334.50 C 222.95 330.74, 220.49 337.05, 217.50 335.50 C 210.19 337.08, 205.33 341.17, 198.50 340.50 C 194.57 342.72, 192.71 348.31, 197.50 347.50 C 199.99 349.12, 202.81 349.76, 203.50 353.50 C 207.31 358.58, 208.39 361.27, 209.50 368.50 C 214.28 377.48, 210.73 384.91, 198.50 380.50 C 194.39 377.30, 191.18 374.68, 187.50 372.50 C 183.73 373.52, 181.94 368.06, 179.50 371.50 C 185.70 389.95, 162.13 389.48, 156.50 405.50 C 150.26 410.10, 148.07 416.02, 141.50 417.50 C 133.85 421.21, 142.96 426.60, 136.50 430.50 C 130.89 431.86, 129.59 438.24, 125.50 438.50 C 123.86 443.65, 124.12 448.07, 127.50 450.50 C 134.82 455.10, 131.84 462.56, 132.50 468.50 C 130.12 476.03, 132.74 479.20, 138.50 480.50 C 141.65 483.98, 144.24 487.64, 147.50 491.50 C 154.11 495.17, 156.54 501.29, 162.50 502.50 C 172.80 508.18, 182.19 513.01, 195.50 511.50 C 243.17 511.50, 289.83 511.50, 336.50 511.50 C 344.12 508.79, 338.77 494.11, 340.50 486.50 C 340.50 480.83, 340.50 476.17, 340.50 471.50 C 340.50 465.83, 340.50 461.17, 340.50 456.50 C 340.50 451.17, 340.50 446.83, 340.50 442.50 C 340.50 436.83, 340.50 432.17, 340.50 427.50 C 340.50 421.83, 340.50 417.17, 340.50 412.50 C 340.50 406.83, 340.50 402.17, 340.50 397.50 C 340.50 392.17, 340.50 387.83, 340.50 383.50 C 340.50 377.83, 340.50 373.17, 340.50 368.50 C 340.50 362.83, 340.50 358.17, 340.50 353.50 C 340.50 347.83, 340.50 343.17, 340.50 338.50 C 340.50 333.17, 340.50 328.83, 340.50 324.50 C 340.50 318.83, 340.50 314.17, 340.50 309.50 C 340.50 303.83, 340.50 299.17, 340.50 294.50 C 340.50 288.83, 340.50 284.17, 340.50 279.50 C 340.50 271.17, 340.50 263.83, 340.50 256.50 C 340.50 251.50, 340.50 247.50, 340.50 243.50 C 340.50 238.50, 340.50 234.50, 340.50 230.50 C 339.87 225.29, 339.08 221.15, 339.50 216.50 C 339.50 210.50, 339.50 205.50, 339.50 200.50 C 339.50 194.17, 339.50 188.83, 339.50 183.50 C 338.63 177.55, 342.39 166.95, 334.50 168.50 Z" fill="rgb(45.127998407484824,68.98035897946319,32.43495570817159)" stroke="rgb(45.127998407484824,68.98035897946319,32.43495570817159)" stroke-width="1" />
<path d="M 137.50 70.50 C 126.96 74.24, 100.74 68.46, 106.50 86.50 C 101.59 108.17, 87.60 79.44, 82.50 90.50 C 83.24 110.12, 74.07 120.67, 69.50 136.50 C 73.76 154.36, 82.46 171.88, 103.50 175.50 C 109.79 177.32, 107.28 184.55, 112.50 185.50 C 123.97 180.45, 132.81 189.09, 135.50 198.50 C 151.44 194.28, 142.57 210.28, 148.50 219.50 C 156.86 229.96, 170.92 228.64, 181.50 233.50 C 187.91 234.03, 192.52 231.16, 197.50 233.50 C 211.23 232.33, 223.46 236.15, 235.50 233.50 C 241.48 233.11, 247.17 234.45, 251.50 232.50 C 256.83 232.50, 261.17 232.50, 265.50 232.50 C 271.17 232.50, 275.83 232.50, 280.50 232.50 C 282.43 230.15, 287.03 233.09, 286.50 229.50 C 286.52 223.63, 286.04 221.06, 286.50 216.50 C 282.95 211.89, 287.61 211.25, 287.50 207.50 C 295.32 204.19, 308.81 203.41, 303.50 192.50 C 298.47 185.07, 287.58 187.27, 280.50 183.50 C 280.01 178.69, 277.48 171.15, 283.50 171.50 C 289.17 166.21, 303.23 166.34, 297.50 157.50 C 301.42 146.28, 282.55 148.95, 276.50 145.50 C 265.17 144.00, 255.23 140.22, 244.50 142.50 C 239.20 145.23, 235.12 141.08, 230.50 141.50 C 215.41 143.07, 212.88 129.04, 199.50 129.50 C 153.39 133.18, 147.14 100.36, 138.50 70.50 Z" fill="rgb(50.423056300268094,46.873458445040214,32.69383378016086)" stroke="rgb(50.423056300268094,46.873458445040214,32.69383378016086)" stroke-width="1" />
<path d="M 35.50 172.50 C 33.59 174.25, 29.74 175.76, 27.50 173.50 C 21.36 176.25, 13.66 172.81, 8.50 175.50 C 4.86 173.44, 0.35 175.62, 1.50 179.50 C 1.60 185.68, -0.22 190.06, 0.50 195.50 C 0.50 202.50, 0.50 208.50, 0.50 214.50 C 0.50 221.50, 0.50 227.50, 0.50 233.50 C 0.50 238.83, 0.50 243.17, 0.50 247.50 C 0.50 252.83, 0.50 257.17, 0.50 261.50 C 0.50 266.83, 0.50 271.17, 0.50 275.50 C 0.50 281.17, 0.50 285.83, 0.50 290.50 C 0.50 297.83, 0.50 304.17, 0.50 310.50 C 0.70 318.22, 2.12 324.44, 1.50 331.50 C 0.11 338.18, 4.18 343.66, 1.50 348.50 C -3.45 376.33, 9.67 395.23, 21.50 365.50 C 22.11 351.20, 31.54 341.39, 47.50 342.50 C 55.59 341.90, 63.07 338.63, 64.50 331.50 C 69.57 324.46, 71.03 316.01, 76.50 311.50 C 78.88 305.01, 80.27 297.86, 85.50 294.50 C 92.72 288.49, 102.15 291.20, 108.50 286.50 C 113.56 284.97, 116.82 287.95, 121.50 287.50 C 126.68 288.06, 129.97 290.77, 134.50 290.50 C 129.69 292.90, 136.65 293.49, 138.50 296.50 C 145.96 299.19, 141.29 289.06, 146.50 288.50 C 151.18 283.62, 147.07 278.39, 152.50 274.50 C 151.86 267.96, 153.17 263.22, 154.50 258.50 C 156.81 252.77, 157.57 246.14, 154.50 241.50 C 150.50 235.64, 157.79 229.63, 151.50 225.50 C 144.30 221.80, 143.78 214.75, 141.50 209.50 C 136.06 209.53, 132.44 205.09, 130.50 202.50 C 130.05 196.86, 127.65 193.02, 124.50 189.50 C 121.53 186.21, 116.77 188.17, 115.50 190.50 C 116.57 194.98, 109.04 198.97, 108.50 194.50 C 109.67 189.46, 104.50 188.05, 104.50 184.50 C 101.70 180.71, 100.46 176.78, 96.50 176.50 C 89.24 173.38, 82.37 171.73, 74.50 172.50 C 68.81 173.52, 65.69 173.05, 60.50 173.50 C 55.97 175.69, 52.59 171.96, 48.50 172.50 C 44.31 174.15, 40.61 171.60, 36.50 172.50 Z" fill="rgb(150.0530673111534,170.94652131434154,100.69203476114568)" stroke="rgb(150.0530673111534,170.94652131434154,100.69203476114568)" stroke-width="1" />
<path d="M 162.50 0.50 C 162.15 7.78, 164.69 12.69, 163.50 19.50 C 163.90 25.56, 164.06 28.72, 163.50 34.50 C 160.47 40.18, 159.24 33.26, 157.50 31.50 C 158.10 21.12, 154.09 34.43, 151.50 35.50 C 150.35 41.24, 146.79 45.40, 145.50 50.50 C 148.48 57.02, 143.41 65.17, 136.50 63.50 C 132.05 69.78, 141.42 66.10, 143.50 69.50 C 148.74 71.96, 148.91 76.11, 148.50 80.50 C 148.72 85.35, 147.54 89.78, 150.50 92.50 C 142.90 114.09, 165.92 117.52, 178.50 123.50 C 189.44 125.64, 199.61 127.24, 209.50 129.50 C 215.64 130.76, 214.73 138.14, 220.50 137.50 C 226.36 136.90, 229.36 140.78, 234.50 139.50 C 236.14 136.64, 238.46 135.79, 239.50 133.50 C 245.27 131.63, 246.57 137.50, 248.50 140.50 C 254.86 140.71, 260.19 140.83, 264.50 138.50 C 265.82 133.16, 264.65 128.21, 266.50 124.50 C 264.35 117.72, 263.09 115.15, 263.50 110.50 C 264.01 105.35, 262.43 102.41, 262.50 97.50 C 262.46 91.57, 261.96 86.84, 260.50 82.50 C 260.02 76.20, 257.41 72.20, 256.50 67.50 C 250.92 66.25, 251.23 61.60, 251.50 57.50 C 253.68 52.72, 253.90 47.88, 250.50 44.50 C 248.77 37.93, 248.63 29.52, 251.50 24.50 C 254.43 17.37, 251.25 10.94, 248.50 5.50 C 246.51 1.66, 245.26 -0.48, 241.50 0.50 C 235.50 0.50, 230.50 0.50, 225.50 0.50 C 219.50 0.50, 214.50 0.50, 209.50 0.50 C 203.50 0.50, 198.50 0.50, 193.50 0.50 C 187.17 0.50, 181.83 0.50, 176.50 0.50 C 175.30 3.76, 177.61 6.04, 174.50 8.50 C 173.58 13.91, 173.31 20.45, 173.50 26.50 C 173.85 31.45, 171.72 34.37, 172.50 38.50 C 171.80 43.49, 174.26 48.78, 170.50 51.50 C 164.66 48.98, 168.97 42.55, 166.50 38.50 C 165.83 31.21, 167.96 26.05, 166.50 20.50 C 167.50 15.83, 167.50 12.17, 167.50 8.50 C 167.39 3.94, 168.87 -1.20, 163.50 0.50 Z" fill="rgb(157.04073699759,180.9753556713053,101.12897457824769)" stroke="rgb(157.04073699759,180.9753556713053,101.12897457824769)" stroke-width="1" />
<path d="M 248.50 0.50 C 247.58 8.17, 259.48 5.80, 259.50 13.50 C 263.50 20.42, 255.85 23.44, 252.50 27.50 C 250.10 31.98, 253.16 36.76, 250.50 40.50 C 256.46 45.84, 256.45 53.25, 252.50 58.50 C 250.62 63.45, 252.62 64.92, 256.50 65.50 C 259.33 68.49, 258.05 71.77, 260.50 73.50 C 260.60 80.48, 264.97 84.28, 263.50 90.50 C 264.50 95.50, 264.50 99.50, 264.50 103.50 C 265.94 108.46, 267.01 112.15, 266.50 116.50 C 268.16 120.68, 269.46 124.44, 267.50 127.50 C 267.72 132.21, 266.80 136.40, 268.50 139.50 C 268.47 143.86, 272.61 142.06, 274.50 142.50 C 279.20 141.89, 283.31 145.24, 287.50 145.50 C 292.50 147.63, 297.66 146.98, 301.50 149.50 C 302.04 154.97, 303.34 158.71, 304.50 162.50 C 311.21 166.97, 318.18 164.11, 324.50 167.50 C 330.05 172.22, 333.73 165.56, 338.50 166.50 C 339.50 161.17, 339.50 155.83, 339.50 150.50 C 339.50 144.17, 339.50 138.83, 339.50 133.50 C 339.50 127.50, 339.50 122.50, 339.50 117.50 C 338.94 110.13, 340.15 104.49, 340.50 98.50 C 340.50 91.17, 340.50 84.83, 340.50 78.50 C 340.50 72.50, 340.50 67.50, 340.50 62.50 C 340.50 56.17, 340.50 50.83, 340.50 45.50 C 340.50 37.50, 340.50 30.50, 340.50 23.50 C 340.50 15.17, 340.50 7.83, 340.50 0.50 C 332.50 0.50, 325.50 0.50, 318.50 0.50 C 310.17 0.50, 302.83 0.50, 295.50 0.50 C 287.17 0.50, 279.83 0.50, 272.50 0.50 C 264.17 0.50, 256.83 0.50, 249.50 0.50 Z" fill="rgb(79.84733127131415,112.77817431993022,42.95677690538504)" stroke="rgb(79.84733127131415,112.77817431993022,42.95677690538504)" stroke-width="1" />
<path d="M 232.50 314.50 C 228.77 316.48, 224.23 316.52, 220.50 318.50 C 215.56 319.78, 210.99 319.55, 206.50 319.50 C 197.92 318.76, 192.26 322.67, 184.50 321.50 C 178.70 321.52, 173.73 321.11, 169.50 322.50 C 162.53 322.11, 157.02 322.82, 151.50 323.50 C 144.50 323.69, 139.24 325.68, 133.50 326.50 C 128.41 325.81, 125.59 328.19, 121.50 327.50 C 116.05 326.76, 112.70 328.66, 108.50 328.50 C 103.17 330.45, 97.48 329.11, 92.50 329.50 C 90.19 332.22, 84.83 328.74, 84.50 331.50 C 87.40 334.58, 89.51 339.65, 82.50 338.50 C 77.58 336.87, 69.47 338.44, 68.50 342.50 C 63.17 344.98, 57.83 344.02, 53.50 345.50 C 49.16 344.22, 53.26 349.86, 48.50 349.50 C 45.93 347.85, 37.15 351.23, 42.50 352.50 C 48.50 356.75, 41.91 362.04, 43.50 367.50 C 43.82 373.54, 43.48 376.21, 43.50 381.50 C 42.64 387.26, 41.15 392.29, 40.50 395.50 C 40.48 400.87, 44.95 403.37, 45.50 407.50 C 63.70 435.16, 109.03 384.46, 128.50 425.50 C 124.10 414.22, 130.46 393.04, 141.50 403.50 C 156.20 409.00, 179.64 381.53, 177.50 367.50 C 189.75 363.80, 205.37 389.97, 207.50 373.50 C 210.39 367.17, 203.77 362.30, 204.50 356.50 C 203.39 351.26, 197.60 350.08, 194.50 348.50 C 190.10 345.72, 185.52 346.78, 181.50 346.50 C 174.31 344.67, 169.48 349.40, 163.50 346.50 C 163.54 340.44, 170.67 338.95, 174.50 341.50 C 174.85 344.48, 177.79 338.61, 180.50 340.50 C 183.90 338.86, 186.89 338.63, 189.50 337.50 C 196.95 337.06, 202.81 333.81, 208.50 335.50 C 215.42 336.42, 215.14 328.78, 219.50 327.50 C 226.46 324.78, 220.22 332.00, 224.50 332.50 C 228.23 333.77, 230.64 330.09, 232.50 332.50 C 236.59 328.56, 242.81 328.50, 244.50 323.50 C 235.99 321.83, 241.98 312.24, 233.50 314.50 Z" fill="rgb(112.18794326241135,116.30514184397163,100.57535460992908)" stroke="rgb(112.18794326241135,116.30514184397163,100.57535460992908)" stroke-width="1" />
<path d="M 0.50 0.50 C 0.50 14.83, 0.50 29.17, 0.50 43.50 C 1.50 51.50, 1.50 58.50, 1.50 65.50 C 1.50 73.50, 1.50 80.50, 1.50 87.50 C 1.50 93.50, 1.50 98.50, 1.50 103.50 C 1.50 109.50, 1.50 114.50, 1.50 119.50 C 8.77 119.82, 14.70 119.30, 20.50 118.50 C 30.23 115.19, 32.68 121.96, 32.50 125.50 C 38.65 122.72, 32.08 131.98, 39.50 129.50 C 46.94 129.77, 46.56 128.81, 51.50 130.50 C 55.73 130.36, 66.64 131.66, 60.50 127.50 C 65.73 125.16, 71.27 123.94, 71.50 117.50 C 73.47 113.87, 80.15 113.02, 75.50 109.50 C 77.61 104.96, 77.89 100.66, 78.50 96.50 C 77.56 88.95, 79.68 83.66, 84.50 79.50 C 90.27 78.22, 93.94 81.86, 93.50 86.50 C 97.42 92.24, 102.94 86.72, 99.50 82.50 C 103.84 76.61, 105.48 70.60, 104.50 63.50 C 110.80 58.14, 109.35 50.99, 109.50 44.50 C 106.88 41.82, 104.57 40.02, 103.50 37.50 C 98.68 32.17, 94.45 29.31, 89.50 26.50 C 88.70 20.43, 94.17 27.87, 94.50 18.50 C 93.05 12.21, 93.38 5.12, 94.50 0.50 C 86.17 0.50, 78.83 0.50, 71.50 0.50 C 63.17 0.50, 55.83 0.50, 48.50 0.50 C 32.17 0.50, 16.83 0.50, 1.50 0.50 Z" fill="rgb(153.35474226804124,175.67123711340207,99.0238144329897)" stroke="rgb(153.35474226804124,175.67123711340207,99.0238144329897)" stroke-width="1" />
<path d="M 326.50 437.50 C 317.58 441.46, 306.23 435.75, 297.50 441.50 C 292.17 442.50, 287.83 442.50, 283.50 442.50 C 277.85 442.08, 273.71 442.87, 269.50 443.50 C 261.56 447.08, 255.24 436.82, 248.50 442.50 C 242.40 446.33, 245.70 455.43, 238.50 455.50 C 235.98 458.97, 230.78 458.19, 227.50 460.50 C 222.14 461.51, 219.86 457.49, 215.50 458.50 C 208.33 457.48, 203.89 460.64, 198.50 461.50 C 195.99 465.22, 191.87 465.42, 190.50 468.50 C 192.96 472.12, 193.93 479.14, 198.50 480.50 C 198.99 483.29, 193.44 486.35, 198.50 487.50 C 199.60 491.87, 202.06 494.27, 202.50 497.50 C 202.22 501.39, 199.58 506.85, 196.50 503.50 C 190.74 502.68, 190.78 510.49, 193.50 511.50 C 206.17 511.50, 217.83 511.50, 229.50 511.50 C 236.17 511.50, 241.83 511.50, 247.50 511.50 C 254.50 511.50, 260.50 511.50, 266.50 511.50 C 273.17 511.50, 278.83 511.50, 284.50 511.50 C 291.17 511.50, 296.83 511.50, 302.50 511.50 C 309.17 511.50, 314.83 511.50, 320.50 511.50 C 327.50 511.50, 333.50 511.50, 339.50 511.50 C 341.24 504.39, 339.36 498.36, 339.50 491.50 C 339.50 483.50, 339.50 476.50, 339.50 469.50 C 339.50 464.17, 339.50 459.83, 339.50 455.50 C 339.50 449.83, 339.50 445.17, 339.50 440.50 C 338.02 435.43, 331.25 438.41, 327.50 437.50 Z" fill="rgb(29.908349831140097,54.303132642366364,18.884010713869802)" stroke="rgb(29.908349831140097,54.303132642366364,18.884010713869802)" stroke-width="1" />
<path d="M 136.50 70.50 C 126.85 74.49, 109.05 68.69, 105.50 80.50 C 105.28 84.65, 105.84 87.89, 105.50 91.50 C 102.77 96.98, 99.67 91.36, 97.50 94.50 C 88.53 95.63, 93.31 83.50, 85.50 84.50 C 75.06 94.73, 86.10 113.87, 73.50 120.50 C 61.57 150.01, 81.46 169.80, 108.50 178.50 C 108.77 189.67, 120.30 180.47, 125.50 184.50 C 128.42 186.64, 132.17 189.16, 131.50 184.50 C 136.52 181.64, 136.29 175.63, 134.50 171.50 C 134.28 166.88, 128.82 169.39, 127.50 166.50 C 131.55 161.01, 144.06 167.47, 141.50 157.50 C 140.42 139.49, 162.57 149.72, 173.50 146.50 C 214.26 150.64, 236.65 133.73, 186.50 127.50 C 177.06 123.63, 160.16 127.32, 159.50 116.50 C 138.37 115.82, 149.21 89.64, 146.50 75.50 C 145.57 70.91, 140.46 71.51, 137.50 70.50 Z" fill="rgb(110.14763674986723,105.79925650557621,76.09134360063729)" stroke="rgb(110.14763674986723,105.79925650557621,76.09134360063729)" stroke-width="1" />
<path d="M 49.50 356.50 C 47.11 357.68, 44.27 358.93, 44.50 362.50 C 43.18 366.88, 47.08 369.96, 44.50 372.50 C 45.10 377.14, 44.11 382.68, 44.50 387.50 C 44.50 393.17, 44.50 397.83, 44.50 402.50 C 51.49 403.85, 57.13 405.06, 63.50 404.50 C 69.72 407.04, 77.28 403.96, 82.50 406.50 C 88.06 404.70, 93.77 401.63, 98.50 404.50 C 104.63 410.02, 113.49 406.51, 120.50 407.50 C 128.17 408.75, 131.66 404.48, 134.50 399.50 C 141.96 399.43, 141.99 408.45, 149.50 406.50 C 157.89 404.61, 157.79 395.88, 163.50 391.50 C 166.54 384.23, 177.05 383.96, 177.50 378.50 C 166.98 364.88, 188.84 368.36, 185.50 363.50 C 175.86 360.43, 166.97 363.55, 157.50 362.50 C 151.17 361.04, 146.96 363.28, 141.50 362.50 C 138.30 363.79, 135.70 363.79, 133.50 362.50 C 127.61 364.10, 121.71 362.26, 117.50 364.50 C 113.96 365.27, 110.88 365.76, 107.50 365.50 C 102.35 365.05, 97.50 365.30, 93.50 363.50 C 88.48 361.60, 83.16 362.86, 78.50 362.50 C 70.90 362.94, 65.08 361.50, 59.50 359.50 C 57.54 355.08, 53.46 356.98, 50.50 356.50 Z" fill="rgb(158.5314781922242,169.29978290901914,171.895993684626)" stroke="rgb(158.5314781922242,169.29978290901914,171.895993684626)" stroke-width="1" />
<path d="M 184.50 235.50 C 181.45 237.99, 176.07 234.85, 173.50 238.50 C 167.98 237.14, 156.18 236.69, 161.50 243.50 C 166.03 246.06, 158.96 247.40, 160.50 250.50 C 160.78 256.36, 160.68 261.07, 157.50 264.50 C 158.36 270.23, 156.48 273.94, 158.50 278.50 C 166.12 289.28, 180.17 286.76, 190.50 291.50 C 195.00 292.89, 199.33 292.30, 202.50 294.50 C 206.20 291.59, 209.17 295.67, 212.50 294.50 C 220.73 305.96, 223.37 316.05, 240.50 309.50 C 242.24 301.39, 239.88 295.56, 240.50 288.50 C 235.57 270.22, 233.18 246.49, 217.50 237.50 C 211.50 236.50, 206.50 236.50, 201.50 236.50 C 195.32 236.60, 190.94 234.78, 185.50 235.50 Z" fill="rgb(69.03565640194489,70.5713128038898,55.27471636952998)" stroke="rgb(69.03565640194489,70.5713128038898,55.27471636952998)" stroke-width="1" />
<path d="M 95.50 420.50 C 86.34 423.39, 76.41 424.42, 66.50 425.50 C 60.89 426.17, 57.24 429.15, 52.50 429.50 C 48.98 433.21, 38.04 434.75, 43.50 439.50 C 48.63 467.82, 31.46 438.51, 18.50 448.50 C 14.66 450.80, 11.99 452.88, 10.50 455.50 C 13.60 482.80, 60.96 465.93, 83.50 479.50 C 98.07 472.45, 124.13 464.77, 116.50 444.50 C 128.85 431.53, 113.59 414.01, 96.50 420.50 Z" fill="rgb(148.41509433962264,140.60377358490567,108.0377358490566)" stroke="rgb(148.41509433962264,140.60377358490567,108.0377358490566)" stroke-width="1" />
<path d="M 194.50 175.50 C 191.27 177.70, 186.40 175.93, 182.50 176.50 C 177.01 176.45, 172.44 176.22, 168.50 177.50 C 161.62 178.12, 154.70 176.24, 149.50 178.50 C 140.56 182.70, 124.08 185.67, 136.50 199.50 C 142.22 192.58, 144.84 197.79, 148.50 201.50 C 154.96 202.28, 159.17 200.04, 164.50 200.50 C 170.83 200.50, 176.17 200.50, 181.50 200.50 C 186.50 200.50, 190.50 200.50, 194.50 200.50 C 199.50 200.50, 203.50 200.50, 207.50 200.50 C 212.69 200.37, 216.83 200.36, 220.50 201.50 C 225.83 201.50, 230.17 201.50, 234.50 201.50 C 240.21 201.72, 244.44 203.11, 249.50 202.50 C 255.44 202.17, 260.02 202.71, 264.50 203.50 C 270.44 203.17, 275.02 203.71, 279.50 204.50 C 285.50 204.50, 290.50 204.50, 295.50 204.50 C 308.09 204.04, 301.83 190.71, 296.50 188.50 C 289.47 187.37, 283.91 186.12, 278.50 184.50 C 272.04 185.28, 267.83 183.04, 262.50 183.50 C 256.09 182.83, 251.48 181.21, 246.50 180.50 C 240.06 180.08, 234.84 179.14, 229.50 178.50 C 222.70 178.16, 217.30 176.84, 211.50 176.50 C 205.52 176.11, 200.86 174.96, 195.50 175.50 Z" fill="rgb(118.99495698605755,114.03144467517058,76.83565707505191)" stroke="rgb(118.99495698605755,114.03144467517058,76.83565707505191)" stroke-width="1" />
<path d="M 99.50 419.50 C 96.79 420.87, 93.63 421.15, 90.50 421.50 C 81.98 422.24, 75.64 424.83, 68.50 425.50 C 62.32 424.78, 59.12 428.86, 54.50 429.50 C 50.78 431.03, 48.42 433.43, 45.50 434.50 C 39.28 437.08, 45.77 439.79, 46.50 442.50 C 49.97 446.53, 50.20 450.13, 54.50 451.50 C 59.21 460.17, 68.03 467.43, 65.50 476.50 C 82.64 484.61, 96.84 473.03, 110.50 466.50 C 113.63 460.75, 117.45 456.70, 118.50 451.50 C 121.57 448.15, 115.86 446.20, 116.50 443.50 C 123.31 439.14, 119.71 430.05, 119.50 424.50 C 114.50 417.34, 105.74 422.67, 100.50 419.50 Z" fill="rgb(165.23385625684057,157.29879605983217,135.34987230937614)" stroke="rgb(165.23385625684057,157.29879605983217,135.34987230937614)" stroke-width="1" />
<path d="M 243.50 142.50 C 241.24 144.63, 237.42 142.98, 234.50 143.50 C 225.71 142.72, 219.16 144.95, 211.50 144.50 C 203.23 145.33, 195.53 145.11, 188.50 146.50 C 184.17 146.50, 180.83 146.50, 177.50 146.50 C 172.93 148.06, 168.40 146.32, 165.50 148.50 C 160.50 148.50, 156.50 148.50, 152.50 148.50 C 147.95 148.45, 142.24 148.89, 142.50 153.50 C 142.73 158.40, 141.97 164.16, 143.50 165.50 C 148.69 165.63, 152.83 165.64, 156.50 164.50 C 162.56 165.11, 166.79 163.72, 171.50 163.50 C 177.50 163.50, 182.50 163.50, 187.50 163.50 C 195.87 164.07, 202.50 162.82, 209.50 162.50 C 217.50 162.18, 224.13 160.93, 231.50 161.50 C 235.91 161.65, 239.69 160.90, 242.50 162.50 C 251.03 163.04, 257.93 165.07, 265.50 165.50 C 271.11 166.31, 275.68 167.19, 280.50 167.50 C 287.13 165.28, 294.33 166.83, 299.50 163.50 C 296.71 158.50, 294.62 156.28, 298.50 151.50 C 293.28 149.23, 288.79 148.60, 284.50 147.50 C 278.80 146.59, 274.27 145.25, 269.50 144.50 C 264.90 143.68, 261.10 143.32, 257.50 142.50 C 252.50 142.50, 248.50 142.50, 244.50 142.50 Z" fill="rgb(144.0554072096128,135.41688918558077,103.35280373831776)" stroke="rgb(144.0554072096128,135.41688918558077,103.35280373831776)" stroke-width="1" />
<path d="M 34.50 470.50 C 3.59 456.40, -16.27 504.51, 12.50 511.50 C 27.92 514.25, 33.30 501.56, 46.50 507.50 C 57.02 506.77, 57.54 493.45, 59.50 487.50 C 63.53 485.82, 64.91 489.12, 67.50 489.50 C 92.60 484.24, 119.31 515.64, 129.50 504.50 C 118.10 500.45, 115.25 483.73, 102.50 485.50 C 79.08 481.46, 56.25 475.67, 35.50 470.50 Z" fill="rgb(103.21052631578948,102.36842105263158,65.3157894736842)" stroke="rgb(103.21052631578948,102.36842105263158,65.3157894736842)" stroke-width="1" />
<path d="M 241.50 238.50 C 236.67 240.25, 231.85 242.02, 226.50 242.50 C 229.48 249.04, 231.03 255.17, 234.50 260.50 C 236.62 265.98, 238.16 270.70, 239.50 275.50 C 239.94 281.73, 241.87 286.35, 242.50 291.50 C 244.73 296.19, 242.27 301.81, 244.50 305.50 C 245.08 310.73, 243.28 315.95, 245.50 319.50 C 252.95 319.80, 260.46 318.51, 262.50 312.50 C 272.06 313.33, 265.32 303.59, 270.50 302.50 C 271.87 296.96, 277.53 293.62, 276.50 287.50 C 280.97 283.92, 278.44 278.51, 275.50 275.50 C 275.59 271.74, 278.28 268.49, 274.50 266.50 C 275.57 260.99, 285.82 261.46, 282.50 258.50 C 285.39 254.61, 281.55 250.31, 282.50 245.50 C 277.89 244.49, 274.23 242.20, 269.50 242.50 C 264.75 241.30, 260.97 242.04, 258.50 242.50 C 255.50 236.14, 247.75 239.19, 242.50 238.50 Z" fill="rgb(118.25343613811599,136.1873952396916,142.38853503184714)" stroke="rgb(118.25343613811599,136.1873952396916,142.38853503184714)" stroke-width="1" />
<path d="M 33.50 470.50 C 2.67 455.71, -16.34 507.06, 13.50 511.50 C 28.37 513.89, 33.56 501.57, 46.50 507.50 C 57.36 506.96, 57.38 492.50, 59.50 487.50 C 64.49 485.12, 65.51 490.88, 69.50 489.50 C 96.79 487.95, 110.19 506.41, 130.50 508.50 C 119.34 495.96, 108.42 483.56, 89.50 482.50 C 69.49 483.63, 53.54 471.45, 34.50 470.50 Z" fill="rgb(42.73809523809524,51.69047619047619,21.285714285714285)" stroke="rgb(42.73809523809524,51.69047619047619,21.285714285714285)" stroke-width="1" />
<path d="M 94.50 0.50 C 95.65 4.10, 98.45 7.02, 97.50 11.50 C 98.00 16.26, 98.05 20.81, 101.50 22.50 C 104.10 26.78, 102.60 31.76, 106.50 34.50 C 111.65 36.43, 110.72 41.65, 115.50 43.50 C 119.54 46.71, 121.32 50.04, 121.50 54.50 C 124.38 58.80, 124.40 63.29, 127.50 66.50 C 129.96 69.36, 132.48 66.43, 134.50 66.50 C 136.88 60.77, 144.50 63.49, 144.50 57.50 C 140.21 48.80, 150.11 44.38, 148.50 36.50 C 148.95 32.18, 157.21 31.97, 153.50 28.50 C 153.49 21.28, 154.63 17.89, 154.50 11.50 C 152.50 3.50, 161.38 6.59, 158.50 0.50 C 152.83 0.50, 148.17 0.50, 143.50 0.50 C 137.50 0.50, 132.50 0.50, 127.50 0.50 C 121.50 0.50, 116.50 0.50, 111.50 0.50 C 105.50 0.50, 100.50 0.50, 95.50 0.50 Z" fill="rgb(132.25160829163687,162.14760543245174,82.31629735525375)" stroke="rgb(132.25160829163687,162.14760543245174,82.31629735525375)" stroke-width="1" />
<path d="M 213.50 238.50 C 209.15 242.39, 201.19 245.06, 202.50 252.50 C 199.00 255.66, 201.04 260.11, 200.50 263.50 C 201.80 270.45, 196.17 266.50, 192.50 267.50 C 190.95 272.46, 190.79 278.73, 190.50 286.50 C 194.39 293.74, 204.26 290.68, 210.50 293.50 C 217.73 293.46, 215.50 300.92, 219.50 304.50 C 221.22 312.64, 227.81 312.02, 233.50 311.50 C 236.57 309.91, 241.07 311.74, 241.50 309.50 C 242.32 303.47, 241.56 296.97, 240.50 291.50 C 240.64 287.17, 239.89 284.20, 238.50 281.50 C 237.84 272.94, 235.20 266.21, 232.50 259.50 C 229.07 254.34, 227.93 249.65, 225.50 245.50 C 224.85 239.31, 219.36 237.75, 214.50 238.50 Z" fill="rgb(19.0093954248366,20.265114379084967,16.45669934640523)" stroke="rgb(19.0093954248366,20.265114379084967,16.45669934640523)" stroke-width="1" />
<path d="M 22.50 118.50 C 17.14 121.84, 9.26 119.11, 3.50 121.50 C -1.48 134.06, 0.49 156.30, 1.50 171.50 C 31.82 173.14, 116.94 167.45, 55.50 154.50 C 29.37 165.55, 46.51 136.60, 29.50 130.50 C 13.70 127.60, 35.63 118.79, 23.50 118.50 Z" fill="rgb(121.83333333333333,137.66666666666666,77.75)" stroke="rgb(121.83333333333333,137.66666666666666,77.75)" stroke-width="1" />
<path d="M 36.50 470.50 C 34.70 472.46, 31.42 470.82, 29.50 472.50 C 23.50 472.50, 18.50 472.50, 13.50 472.50 C 8.48 470.96, 4.51 472.39, 0.50 473.50 C 0.50 480.50, 0.50 486.50, 0.50 492.50 C 0.50 499.50, 0.50 505.50, 0.50 511.50 C 6.50 511.50, 11.50 511.50, 16.50 511.50 C 23.12 511.59, 28.84 512.74, 30.50 506.50 C 35.17 506.64, 39.31 506.63, 43.50 506.50 C 46.37 508.29, 48.33 508.89, 50.50 507.50 C 51.96 502.57, 58.13 501.48, 56.50 495.50 C 61.87 494.17, 57.42 490.47, 57.50 488.50 C 58.80 484.35, 62.46 482.17, 62.50 478.50 C 58.24 475.05, 51.75 478.74, 50.50 473.50 C 45.45 471.95, 42.13 469.66, 37.50 470.50 Z" fill="rgb(59.67778793418647,85.95109689213893,26.963893967093234)" stroke="rgb(59.67778793418647,85.95109689213893,26.963893967093234)" stroke-width="1" />
<path d="M 35.50 381.50 C 25.29 382.43, 16.08 387.82, 3.50 387.50 C -2.10 394.90, 1.78 410.78, 0.50 421.50 C 14.03 424.21, 39.08 442.53, 53.50 426.50 C 55.12 415.65, 40.68 403.17, 32.50 396.50 C 36.12 392.76, 41.80 382.66, 36.50 381.50 Z" fill="rgb(104.484375,105.140625,74.71875)" stroke="rgb(104.484375,105.140625,74.71875)" stroke-width="1" />
<path d="M 137.50 70.50 C 134.92 72.66, 130.75 70.96, 127.50 71.50 C 123.53 73.06, 120.20 73.72, 116.50 73.50 C 112.02 75.01, 106.86 73.93, 105.50 78.50 C 108.38 84.81, 106.14 87.84, 108.50 92.50 C 112.50 94.12, 124.67 95.44, 118.50 101.50 C 113.50 103.22, 112.84 105.39, 112.50 109.50 C 111.30 115.05, 112.93 120.80, 113.50 125.50 C 112.78 130.73, 117.03 126.06, 119.50 127.50 C 127.19 128.02, 132.71 125.73, 139.50 126.50 C 142.89 125.44, 147.50 126.45, 146.50 122.50 C 146.50 115.17, 146.50 108.83, 146.50 102.50 C 146.50 97.83, 146.50 94.17, 146.50 90.50 C 146.50 85.50, 146.50 81.50, 146.50 77.50 C 147.79 71.17, 141.47 71.91, 138.50 70.50 Z" fill="rgb(159.31020613373553,157.8446455505279,141.84967320261438)" stroke="rgb(159.31020613373553,157.8446455505279,141.84967320261438)" stroke-width="1" />
<path d="M 189.50 202.50 C 191.72 212.96, 183.49 233.30, 197.50 233.50 C 202.17 233.50, 205.83 233.50, 209.50 233.50 C 214.50 233.50, 218.50 233.50, 222.50 233.50 C 231.21 232.18, 242.70 236.52, 247.50 230.50 C 253.06 219.90, 245.57 209.72, 238.50 203.50 C 221.84 203.15, 206.53 201.95, 190.50 202.50 Z" fill="rgb(6.892086330935252,7.345323741007194,4.892086330935252)" stroke="rgb(6.892086330935252,7.345323741007194,4.892086330935252)" stroke-width="1" />
<path d="M 1.50 137.50 C 2.03 147.71, -5.21 171.28, 6.50 173.50 C 10.99 174.15, 13.69 167.50, 16.50 172.50 C 23.48 170.18, 30.49 170.33, 37.50 170.50 C 41.62 170.82, 46.12 173.36, 48.50 169.50 C 52.76 172.59, 55.26 171.66, 59.50 171.50 C 63.61 169.10, 68.24 171.05, 71.50 171.50 C 94.17 145.44, 24.12 162.98, 13.50 138.50 C 9.51 142.11, 5.65 138.78, 2.50 138.50 Z" fill="rgb(134.85401459854015,149.1824817518248,91.93430656934306)" stroke="rgb(134.85401459854015,149.1824817518248,91.93430656934306)" stroke-width="1" />
<path d="M 12.50 322.50 C 7.53 325.02, -0.94 326.63, 0.50 334.50 C -13.42 385.67, 27.53 397.92, 25.50 350.50 C 30.38 343.91, 38.77 345.56, 41.50 339.50 C 39.45 331.50, 31.73 326.33, 24.50 325.50 C 20.42 324.56, 17.74 321.65, 13.50 322.50 Z" fill="rgb(154.67110036275696,170.07859733978233,111.40507859733978)" stroke="rgb(154.67110036275696,170.07859733978233,111.40507859733978)" stroke-width="1" />
<path d="M 148.50 119.50 C 146.34 121.81, 149.05 128.46, 143.50 127.50 C 138.79 127.72, 134.60 126.80, 131.50 128.50 C 126.31 128.37, 122.17 128.36, 118.50 129.50 C 111.66 131.12, 122.48 132.96, 125.50 132.50 C 131.17 133.50, 135.83 133.50, 140.50 133.50 C 146.22 136.83, 140.10 145.88, 145.50 147.50 C 167.89 147.92, 187.75 144.63, 208.50 143.50 C 212.50 142.12, 229.02 142.84, 219.50 140.50 C 212.10 141.06, 215.35 132.39, 210.50 131.50 C 204.61 130.25, 199.34 129.90, 194.50 128.50 C 188.57 127.33, 183.24 127.12, 178.50 125.50 C 173.27 124.25, 168.32 124.73, 164.50 122.50 C 158.43 122.47, 154.87 118.79, 149.50 119.50 Z" fill="rgb(217.0186046511628,204.98046511627908,185.59627906976743)" stroke="rgb(217.0186046511628,204.98046511627908,185.59627906976743)" stroke-width="1" />
<path d="M 0.50 0.50 C 0.50 5.50, 0.50 10.50, 0.50 15.50 C 0.50 21.50, 0.50 26.50, 0.50 31.50 C -1.02 41.30, 5.31 36.71, 9.50 34.50 C 13.07 35.00, 15.09 41.79, 18.50 38.50 C 23.63 39.67, 26.14 36.35, 25.50 32.50 C 23.55 27.44, 27.75 24.51, 31.50 25.50 C 34.91 23.60, 42.12 19.07, 40.50 24.50 C 40.76 30.26, 46.35 29.63, 49.50 29.50 C 53.77 32.06, 59.75 32.06, 58.50 26.50 C 53.51 21.91, 53.26 16.77, 48.50 13.50 C 45.77 8.39, 39.99 5.95, 41.50 0.50 C 34.17 0.50, 27.83 0.50, 21.50 0.50 C 14.17 0.50, 7.83 0.50, 1.50 0.50 Z" fill="rgb(102.64053888548683,129.5541947336191,52.75872627066748)" stroke="rgb(102.64053888548683,129.5541947336191,52.75872627066748)" stroke-width="1" />
<path d="M 95.50 293.50 C 92.59 294.58, 89.78 296.38, 88.50 299.50 C 83.11 307.43, 83.42 316.72, 82.50 325.50 C 101.10 329.35, 119.18 324.66, 136.50 323.50 C 146.83 295.83, 111.73 307.22, 96.50 293.50 Z" fill="rgb(83.37931034482759,89.03448275862068,59.241379310344826)" stroke="rgb(83.37931034482759,89.03448275862068,59.241379310344826)" stroke-width="1" />
<path d="M 157.50 289.50 C 149.81 300.88, 131.67 325.09, 158.50 320.50 C 173.01 318.85, 185.58 320.86, 198.50 317.50 C 201.02 311.10, 201.14 304.68, 196.50 299.50 C 193.69 293.20, 187.06 292.38, 181.50 291.50 C 172.94 294.58, 165.99 289.70, 158.50 289.50 Z" fill="rgb(31.39325842696629,33.7752808988764,27.39325842696629)" stroke="rgb(31.39325842696629,33.7752808988764,27.39325842696629)" stroke-width="1" />
<path d="M 95.50 99.50 C 90.36 99.87, 90.58 106.93, 92.50 110.50 C 92.50 115.83, 92.50 120.17, 92.50 124.50 C 91.72 129.63, 93.85 132.55, 93.50 136.50 C 93.50 141.17, 93.50 144.83, 93.50 148.50 C 93.50 153.17, 93.50 156.83, 93.50 160.50 C 93.50 165.17, 93.50 168.83, 93.50 172.50 C 99.89 173.52, 110.39 180.54, 111.50 172.50 C 111.50 166.17, 111.50 160.83, 111.50 155.50 C 111.50 148.83, 111.50 143.17, 111.50 137.50 C 111.50 129.17, 111.50 121.83, 111.50 114.50 C 112.11 109.44, 110.73 106.21, 110.50 102.50 C 104.66 102.06, 101.34 98.94, 96.50 99.50 Z" fill="rgb(92.5708446866485,70.13147138964578,60.263623978201636)" stroke="rgb(92.5708446866485,70.13147138964578,60.263623978201636)" stroke-width="1" />
<path d="M 85.50 81.50 C 80.86 85.51, 79.63 90.65, 80.50 97.50 C 77.26 103.24, 82.27 111.40, 77.50 115.50 C 70.96 118.25, 73.12 126.58, 70.50 131.50 C 66.30 137.62, 69.70 144.53, 69.50 150.50 C 69.39 155.41, 75.37 152.69, 78.50 153.50 C 83.26 157.22, 80.80 162.51, 81.50 166.50 C 83.02 170.67, 87.57 169.70, 90.50 171.50 C 91.50 167.50, 91.50 163.50, 91.50 159.50 C 91.50 154.50, 91.50 150.50, 91.50 146.50 C 90.44 140.47, 90.32 135.04, 90.50 129.50 C 90.50 122.83, 90.50 117.17, 90.50 111.50 C 88.79 106.13, 89.77 100.64, 87.50 96.50 C 90.79 94.58, 90.79 91.64, 90.50 88.50 C 88.84 84.86, 92.16 80.35, 86.50 81.50 Z" fill="rgb(188.93146647015476,184.8960943257185,159.65291083271924)" stroke="rgb(188.93146647015476,184.8960943257185,159.65291083271924)" stroke-width="1" />
<path d="M 218.50 162.50 C 209.58 167.41, 178.66 158.84, 186.50 172.50 C 210.33 174.44, 242.38 179.03, 269.50 182.50 C 279.34 188.18, 279.29 172.67, 275.50 168.50 C 256.24 166.33, 239.34 160.85, 219.50 162.50 Z" fill="rgb(79.56521739130434,70.47826086956522,57.73913043478261)" stroke="rgb(79.56521739130434,70.47826086956522,57.73913043478261)" stroke-width="1" />
<path d="M 219.50 162.50 C 217.24 164.63, 213.42 162.98, 210.50 163.50 C 202.50 164.50, 195.50 164.50, 188.50 164.50 C 181.50 164.19, 185.14 174.15, 188.50 174.50 C 195.83 174.50, 202.17 174.50, 208.50 174.50 C 216.58 175.17, 222.83 176.84, 229.50 177.50 C 236.40 177.61, 241.51 179.62, 247.50 179.50 C 252.10 180.32, 255.90 180.68, 259.50 181.50 C 264.21 181.73, 267.44 183.11, 271.50 182.50 C 276.02 185.62, 278.71 181.10, 277.50 177.50 C 278.91 174.64, 275.23 172.23, 276.50 169.50 C 270.11 168.78, 265.67 166.75, 260.50 166.50 C 253.11 165.63, 247.38 163.18, 240.50 163.50 C 233.89 161.43, 226.77 162.98, 220.50 162.50 Z" fill="rgb(51.42156862745098,43.27224736048265,26.233031674208146)" stroke="rgb(51.42156862745098,43.27224736048265,26.233031674208146)" stroke-width="1" />
<path d="M 23.50 382.50 C 13.30 389.21, -4.44 386.64, 0.50 405.50 C 0.48 416.32, -2.38 427.62, 10.50 425.50 C 17.85 431.35, 24.75 424.98, 23.50 418.50 C 27.31 404.93, 51.97 377.86, 24.50 382.50 Z" fill="rgb(121.32075471698113,144.43396226415095,82.67924528301887)" stroke="rgb(121.32075471698113,144.43396226415095,82.67924528301887)" stroke-width="1" />
<path d="M 1.50 343.50 C -29.54 397.67, 67.13 386.89, 26.50 364.50 C 31.35 357.33, 27.85 353.10, 23.50 347.50 C 16.49 345.46, 7.85 350.25, 2.50 344.50 Z" fill="rgb(75.44117647058823,80.94117647058823,56.23529411764706)" stroke="rgb(75.44117647058823,80.94117647058823,56.23529411764706)" stroke-width="1" />
<path d="M 36.50 381.50 C 31.64 384.78, 23.15 379.31, 19.50 385.50 C 12.72 387.23, 6.74 388.48, 1.50 391.50 C 0.50 397.50, 0.50 402.50, 0.50 407.50 C 0.58 413.60, 0.01 418.98, 1.50 423.50 C 5.67 422.00, 10.01 426.42, 13.50 422.50 C 20.90 420.68, 17.29 429.94, 22.50 425.50 C 22.34 417.86, 26.02 413.22, 29.50 408.50 C 28.54 399.19, 37.52 395.01, 38.50 387.50 C 39.01 385.02, 41.18 380.55, 37.50 381.50 Z" fill="rgb(146.24386252045826,159.9443535188216,107.5163666121113)" stroke="rgb(146.24386252045826,159.9443535188216,107.5163666121113)" stroke-width="1" />
<path d="M 27.50 443.50 C 24.39 444.90, 20.94 445.49, 18.50 448.50 C 9.91 452.49, 4.72 461.50, 8.50 469.50 C 13.04 472.08, 18.92 469.02, 22.50 471.50 C 28.64 472.44, 32.22 469.63, 36.50 468.50 C 42.71 467.71, 46.66 469.98, 50.50 472.50 C 53.71 476.12, 55.71 474.93, 58.50 474.50 C 63.71 479.14, 64.25 471.92, 64.50 468.50 C 64.16 463.12, 55.47 462.61, 56.50 456.50 C 53.60 452.91, 49.60 450.85, 47.50 448.50 C 40.93 446.17, 44.23 449.67, 43.50 453.50 C 34.42 458.48, 34.41 442.82, 28.50 443.50 Z" fill="rgb(176.3048264182896,169.43014394580862,139.12955122777308)" stroke="rgb(176.3048264182896,169.43014394580862,139.12955122777308)" stroke-width="1" />
<path d="M 62.50 491.50 C 60.42 493.05, 62.62 496.38, 59.50 497.50 C 58.30 502.94, 54.03 504.94, 51.50 509.50 C 47.09 512.35, 43.85 506.72, 39.50 508.50 C 36.38 506.33, 25.52 509.15, 31.50 511.50 C 36.50 511.50, 40.50 511.50, 44.50 511.50 C 49.83 511.50, 54.17 511.50, 58.50 511.50 C 64.17 511.50, 68.83 511.50, 73.50 511.50 C 79.17 511.50, 83.83 511.50, 88.50 511.50 C 94.17 511.50, 98.83 511.50, 103.50 511.50 C 109.50 511.50, 114.50 511.50, 119.50 511.50 C 116.93 508.56, 114.33 502.67, 109.50 505.50 C 106.11 500.38, 105.29 493.94, 98.50 495.50 C 93.21 502.44, 87.67 488.01, 81.50 493.50 C 74.94 492.57, 69.64 491.02, 63.50 491.50 Z" fill="rgb(155.7347670250896,142.82258064516128,95.44713261648745)" stroke="rgb(155.7347670250896,142.82258064516128,95.44713261648745)" stroke-width="1" />
<path d="M 151.50 287.50 C 148.69 291.49, 146.02 294.64, 147.50 299.50 C 144.21 302.57, 149.88 303.88, 148.50 306.50 C 147.19 311.53, 141.28 303.99, 143.50 307.50 C 139.92 311.04, 143.82 314.12, 142.50 317.50 C 145.39 322.94, 155.33 319.33, 160.50 320.50 C 165.17 320.50, 168.83 320.50, 172.50 320.50 C 178.37 320.77, 177.50 314.85, 177.50 311.50 C 175.87 303.77, 175.94 293.97, 168.50 291.50 C 162.74 289.60, 158.53 286.34, 152.50 287.50 Z" fill="rgb(130.902962206333,126.58426966292134,105.1899897854954)" stroke="rgb(130.902962206333,126.58426966292134,105.1899897854954)" stroke-width="1" />
<path d="M 169.50 201.50 C 166.27 203.70, 161.40 201.93, 157.50 202.50 C 151.82 202.19, 147.30 202.27, 144.50 206.50 C 142.31 210.74, 147.48 212.35, 146.50 216.50 C 147.38 222.68, 154.29 220.20, 154.50 225.50 C 160.19 226.30, 164.61 226.76, 168.50 228.50 C 174.54 228.14, 177.25 233.39, 182.50 232.50 C 182.50 226.83, 182.50 222.17, 182.50 217.50 C 182.48 211.70, 182.89 206.73, 181.50 202.50 C 177.17 201.50, 173.83 201.50, 170.50 201.50 Z" fill="rgb(65.95144628099173,72.62293388429752,34.332644628099175)" stroke="rgb(65.95144628099173,72.62293388429752,34.332644628099175)" stroke-width="1" />
<path d="M 0.50 137.50 C 0.50 141.83, 0.50 146.17, 0.50 150.50 C 0.50 155.83, 0.50 160.17, 0.50 164.50 C -2.53 173.95, 8.47 172.37, 12.50 169.50 C 19.19 175.58, 23.25 166.16, 29.50 167.50 C 33.37 163.61, 32.13 159.01, 33.50 155.50 C 34.62 148.63, 28.28 148.70, 26.50 145.50 C 20.92 144.48, 19.61 140.22, 16.50 137.50 C 11.68 142.93, 5.84 139.25, 1.50 137.50 Z" fill="rgb(110.93222106360793,123.47549530761209,70.14181438998958)" stroke="rgb(110.93222106360793,123.47549530761209,70.14181438998958)" stroke-width="1" />
<path d="M 1.50 343.50 C -0.70 346.73, 1.07 351.60, 0.50 355.50 C 0.50 360.50, 0.50 364.50, 0.50 368.50 C 0.50 373.83, 0.50 378.17, 0.50 382.50 C 6.33 385.83, 13.98 384.20, 19.50 382.50 C 16.24 377.34, 17.83 371.51, 20.50 367.50 C 27.29 366.15, 31.66 355.65, 25.50 352.50 C 25.66 347.08, 20.71 346.56, 17.50 346.50 C 11.99 349.01, 5.68 347.45, 2.50 343.50 Z" fill="rgb(115.14029180695847,127.33894500561168,83.15488215488216)" stroke="rgb(115.14029180695847,127.33894500561168,83.15488215488216)" stroke-width="1" />
<path d="M 95.50 293.50 C 89.32 294.70, 89.58 301.70, 85.50 305.50 C 83.76 311.05, 84.90 316.80, 83.50 321.50 C 82.22 331.12, 93.94 326.22, 99.50 327.50 C 102.17 326.52, 110.36 327.61, 107.50 323.50 C 108.71 318.45, 111.80 315.18, 111.50 310.50 C 114.50 305.81, 110.42 301.76, 111.50 297.50 C 107.50 291.48, 101.31 294.16, 96.50 293.50 Z" fill="rgb(134.75826681870012,131.59179019384266,110.81413911060433)" stroke="rgb(134.75826681870012,131.59179019384266,110.81413911060433)" stroke-width="1" />
<path d="M 63.50 478.50 C 59.54 483.36, 67.31 485.07, 67.50 489.50 C 71.29 488.39, 73.29 493.47, 75.50 490.50 C 80.99 494.76, 85.43 488.52, 90.50 492.50 C 93.11 493.85, 92.07 497.60, 95.50 496.50 C 101.96 490.26, 108.75 497.94, 109.50 503.50 C 113.04 498.80, 116.17 504.22, 117.50 506.50 C 120.38 509.30, 125.93 514.31, 125.50 508.50 C 128.51 506.93, 132.19 510.69, 131.50 506.50 C 125.62 503.52, 123.67 498.71, 118.50 497.50 C 115.98 493.23, 113.11 491.09, 111.50 488.50 C 110.88 484.67, 106.20 485.66, 103.50 485.50 C 98.91 485.44, 95.54 484.87, 92.50 483.50 C 88.91 479.69, 86.16 481.23, 82.50 481.50 C 76.31 480.01, 70.88 478.10, 64.50 478.50 Z" fill="rgb(47.12156862745098,75.10980392156863,20.80392156862745)" stroke="rgb(47.12156862745098,75.10980392156863,20.80392156862745)" stroke-width="1" />
<path d="M 34.50 397.50 C 32.24 401.25, 31.58 405.67, 29.50 409.50 C 25.79 413.85, 25.04 418.43, 25.50 423.50 C 24.50 432.95, 34.61 433.21, 41.50 433.50 C 45.59 432.53, 48.38 431.82, 50.50 429.50 C 53.65 426.95, 57.90 427.88, 56.50 423.50 C 54.20 419.82, 52.46 416.91, 49.50 414.50 C 44.97 409.45, 41.28 401.94, 35.50 398.50 Z" fill="rgb(181.03866666666667,176.332,149.53866666666667)" stroke="rgb(181.03866666666667,176.332,149.53866666666667)" stroke-width="1" />
<path d="M 49.50 154.50 C 44.89 158.09, 33.50 153.10, 35.50 162.50 C 32.52 170.44, 45.44 173.55, 49.50 169.50 C 56.41 173.93, 63.61 168.02, 69.50 171.50 C 97.43 158.69, 64.00 154.79, 50.50 154.50 Z" fill="rgb(120.68705882352941,137.17176470588234,78.27294117647058)" stroke="rgb(120.68705882352941,137.17176470588234,78.27294117647058)" stroke-width="1" />
<path d="M 215.50 203.50 C 212.13 206.93, 211.67 211.57, 209.50 215.50 C 207.50 220.36, 206.21 224.52, 204.50 228.50 C 211.56 230.03, 216.97 232.12, 223.50 231.50 C 227.95 228.10, 227.37 223.03, 230.50 219.50 C 232.10 214.14, 234.18 209.98, 235.50 205.50 C 229.02 203.57, 222.89 203.23, 216.50 203.50 Z" fill="rgb(10.507911392405063,11.498417721518987,5.412974683544304)" stroke="rgb(10.507911392405063,11.498417721518987,5.412974683544304)" stroke-width="1" />
<path d="M 148.50 92.50 C 147.39 100.48, 144.39 115.54, 156.50 113.50 C 165.67 112.76, 164.08 120.36, 168.50 122.50 C 174.98 122.82, 179.59 125.22, 185.50 124.50 C 191.09 124.88, 186.42 119.30, 185.50 117.50 C 182.07 114.17, 180.46 112.21, 176.50 112.50 C 171.71 113.00, 170.98 108.78, 171.50 105.50 C 166.53 97.46, 153.67 100.83, 149.50 92.50 Z" fill="rgb(185.88755020080322,208.429718875502,125.07630522088354)" stroke="rgb(185.88755020080322,208.429718875502,125.07630522088354)" stroke-width="1" />
<path d="M 21.50 119.50 C 18.51 120.99, 14.85 120.87, 11.50 121.50 C 7.46 122.13, 1.89 120.22, 0.50 122.50 C 0.50 126.83, 0.50 130.17, 0.50 133.50 C 1.98 137.25, 10.23 138.60, 11.50 138.50 C 16.00 129.58, 18.99 142.02, 23.50 142.50 C 27.26 142.12, 29.04 150.44, 30.50 143.50 C 37.12 136.65, 35.25 148.13, 35.50 151.50 C 41.14 146.55, 37.85 140.59, 35.50 134.50 C 30.70 133.29, 28.42 129.42, 24.50 129.50 C 18.84 127.96, 18.18 125.85, 21.50 123.50 C 26.81 120.44, 31.28 119.19, 22.50 119.50 Z" fill="rgb(38.83252818035427,72.22383252818035,9.640901771336553)" stroke="rgb(38.83252818035427,72.22383252818035,9.640901771336553)" stroke-width="1" />
<path d="M 131.50 300.50 C 127.64 305.91, 124.21 306.12, 118.50 306.50 C 111.39 304.36, 114.13 312.51, 111.50 315.50 C 109.17 319.19, 106.87 326.38, 112.50 325.50 C 118.39 324.90, 124.29 326.74, 128.50 324.50 C 134.03 324.15, 142.14 324.66, 141.50 318.50 C 139.91 311.15, 135.51 304.86, 132.50 300.50 Z" fill="rgb(148.56137479541735,148.4631751227496,120.61702127659575)" stroke="rgb(148.56137479541735,148.4631751227496,120.61702127659575)" stroke-width="1" />
<path d="M 36.50 133.50 C 37.24 137.08, 39.35 140.09, 40.50 143.50 C 41.09 148.35, 37.91 150.65, 38.50 154.50 C 43.70 155.66, 47.05 153.76, 51.50 154.50 C 56.47 156.37, 61.02 156.86, 65.50 157.50 C 69.17 150.66, 65.77 145.42, 66.50 138.50 C 61.55 137.53, 56.38 138.07, 52.50 135.50 C 46.24 136.28, 42.64 133.03, 37.50 133.50 Z" fill="rgb(217.15,219.19333333333333,177.56666666666666)" stroke="rgb(217.15,219.19333333333333,177.56666666666666)" stroke-width="1" />
<path d="M 155.50 134.50 C 151.72 137.42, 139.53 132.28, 143.50 140.50 C 144.01 144.32, 141.71 149.95, 146.50 148.50 C 150.83 147.50, 154.17 147.50, 157.50 147.50 C 165.62 147.13, 172.38 145.87, 179.50 145.50 C 187.50 145.18, 194.13 143.93, 201.50 144.50 C 215.76 143.80, 201.66 139.80, 195.50 140.50 C 189.72 140.90, 185.90 139.01, 181.50 138.50 C 176.21 136.92, 171.61 136.09, 166.50 136.50 C 162.17 136.67, 159.20 132.59, 156.50 135.50 Z" fill="rgb(59.05175292153589,40.926544240400666,23.198664440734557)" stroke="rgb(59.05175292153589,40.926544240400666,23.198664440734557)" stroke-width="1" />
<path d="M 64.50 456.50 C 56.54 462.17, 67.94 463.66, 65.50 471.50 C 63.21 480.96, 74.97 476.35, 79.50 479.50 C 86.35 479.88, 90.31 475.72, 95.50 474.50 C 101.14 472.06, 95.63 470.12, 95.50 467.50 C 89.13 466.88, 81.99 463.77, 80.50 458.50 C 74.38 458.26, 70.41 456.24, 65.50 456.50 Z" fill="rgb(47.040885860306645,40.08347529812607,20.621805792163542)" stroke="rgb(47.040885860306645,40.08347529812607,20.621805792163542)" stroke-width="1" />
<path d="M 190.50 202.50 C 188.27 206.38, 190.09 211.94, 189.50 216.50 C 188.96 222.86, 190.11 227.52, 190.50 232.50 C 195.47 232.58, 199.60 233.03, 202.50 230.50 C 204.68 226.05, 205.02 221.83, 207.50 218.50 C 209.21 213.52, 210.50 209.36, 212.50 205.50 C 206.87 200.52, 198.42 203.35, 191.50 202.50 Z" fill="rgb(11.721254355400697,12.815331010452962,6.618466898954704)" stroke="rgb(11.721254355400697,12.815331010452962,6.618466898954704)" stroke-width="1" />
<path d="M 92.50 404.50 C 90.18 406.35, 86.70 405.38, 84.50 407.50 C 77.18 412.21, 71.04 417.34, 64.50 421.50 C 63.22 427.03, 74.30 423.46, 77.50 422.50 C 85.22 423.25, 90.19 419.75, 96.50 419.50 C 99.91 416.58, 102.58 420.41, 105.50 419.50 C 108.42 419.02, 115.79 420.92, 112.50 417.50 C 111.21 412.62, 106.83 412.39, 104.50 409.50 C 99.45 408.89, 97.86 403.37, 93.50 404.50 Z" fill="rgb(140.33333333333334,142.89770723104056,141.48500881834215)" stroke="rgb(140.33333333333334,142.89770723104056,141.48500881834215)" stroke-width="1" />
<path d="M 2.50 425.50 C -5.70 448.19, 38.14 435.66, 39.50 453.50 C 56.17 434.59, 17.95 432.86, 3.50 425.50 Z" fill="rgb(152.3846153846154,151.69230769230768,114.76923076923077)" stroke="rgb(152.3846153846154,151.69230769230768,114.76923076923077)" stroke-width="1" />
<path d="M 173.50 292.50 C 173.42 295.00, 175.23 296.73, 174.50 299.50 C 177.32 305.49, 178.40 310.79, 178.50 316.50 C 178.11 321.55, 184.73 318.60, 187.50 319.50 C 192.45 319.18, 196.17 318.31, 199.50 316.50 C 201.52 309.56, 193.47 311.14, 194.50 305.50 C 193.95 302.10, 190.72 299.55, 193.50 297.50 C 190.43 289.99, 180.90 293.29, 174.50 292.50 Z" fill="rgb(84.54428044280442,87.90959409594096,85.25830258302582)" stroke="rgb(84.54428044280442,87.90959409594096,85.25830258302582)" stroke-width="1" />
<path d="M 2.50 425.50 C -1.11 426.63, 1.10 431.31, 0.50 434.50 C 5.23 438.48, 11.64 437.40, 15.50 442.50 C 19.51 443.98, 20.69 439.85, 23.50 442.50 C 28.17 443.03, 32.10 439.45, 33.50 443.50 C 32.29 449.87, 38.19 451.58, 39.50 453.50 C 46.34 451.30, 36.28 444.96, 44.50 444.50 C 44.29 441.00, 39.03 438.33, 36.50 435.50 C 30.85 434.60, 27.42 431.75, 22.50 432.50 C 14.92 431.58, 10.75 424.82, 3.50 425.50 Z" fill="rgb(52.564575645756456,82.04981549815498,23.309963099630995)" stroke="rgb(52.564575645756456,82.04981549815498,23.309963099630995)" stroke-width="1" />
<path d="M 170.50 361.50 C 168.24 363.63, 164.42 361.98, 161.50 362.50 C 155.31 362.69, 162.45 368.08, 160.50 371.50 C 159.12 377.87, 161.43 384.24, 162.50 389.50 C 167.79 388.54, 171.02 381.58, 177.50 382.50 C 178.41 375.77, 171.83 365.58, 182.50 367.50 C 185.44 367.18, 189.45 370.88, 189.50 369.50 C 188.57 360.06, 178.59 361.43, 171.50 361.50 Z" fill="rgb(38.35769230769231,49.85769230769231,52.54423076923077)" stroke="rgb(38.35769230769231,49.85769230769231,52.54423076923077)" stroke-width="1" />
<path d="M 162.50 165.50 C 86.15 178.72, 208.48 182.17, 162.50 165.50 Z" fill="rgb(53.23076923076923,49.69230769230769,30.76923076923077)" stroke="rgb(53.23076923076923,49.69230769230769,30.76923076923077)" stroke-width="1" />
<path d="M 34.50 354.50 C 31.45 362.77, 6.04 379.45, 29.50 381.50 C 33.95 380.45, 39.30 380.21, 41.50 378.50 C 39.25 368.32, 50.20 352.24, 35.50 354.50 Z" fill="rgb(126.78571428571429,127.57142857142857,111.92857142857143)" stroke="rgb(126.78571428571429,127.57142857142857,111.92857142857143)" stroke-width="1" />
<path d="M 162.50 165.50 C 160.87 167.54, 157.78 166.04, 155.50 166.50 C 150.17 167.50, 145.83 167.50, 141.50 167.50 C 132.63 166.12, 135.67 175.84, 137.50 179.50 C 139.08 182.66, 143.25 180.96, 146.50 181.50 C 146.76 175.74, 152.35 176.37, 155.50 176.50 C 163.48 176.59, 169.98 175.52, 176.50 174.50 C 175.81 170.31, 179.45 165.31, 174.50 165.50 C 170.17 165.50, 166.83 165.50, 163.50 165.50 Z" fill="rgb(45.62955465587044,35.90890688259109,22.07894736842105)" stroke="rgb(45.62955465587044,35.90890688259109,22.07894736842105)" stroke-width="1" />
<path d="M 237.50 205.50 C 235.15 209.22, 233.44 213.20, 232.50 217.50 C 229.79 222.48, 228.50 226.64, 226.50 230.50 C 229.22 234.46, 233.65 233.28, 237.50 233.50 C 245.59 235.21, 249.41 229.76, 249.50 223.50 C 248.14 216.46, 245.80 207.56, 238.50 205.50 Z" fill="rgb(11.265560165975105,9.96058091286307,4.232365145228216)" stroke="rgb(11.265560165975105,9.96058091286307,4.232365145228216)" stroke-width="1" />
<path d="M 205.50 348.50 C 200.58 353.45, 213.39 357.84, 208.50 361.50 C 208.22 366.36, 212.36 368.40, 211.50 372.50 C 215.52 376.74, 215.51 381.25, 218.50 384.50 C 226.36 382.97, 223.19 374.88, 225.50 370.50 C 227.12 364.85, 227.51 357.23, 221.50 355.50 C 215.84 353.81, 211.76 349.72, 206.50 348.50 Z" fill="rgb(99.08403361344538,114.86764705882354,69.98319327731092)" stroke="rgb(99.08403361344538,114.86764705882354,69.98319327731092)" stroke-width="1" />
<path d="M 178.50 253.50 C 176.97 257.19, 176.97 262.81, 178.50 266.50 C 178.50 269.83, 178.50 272.17, 178.50 274.50 C 179.23 279.88, 176.15 290.21, 182.50 287.50 C 181.09 281.50, 184.88 275.21, 184.50 283.50 C 189.46 298.37, 192.13 282.18, 190.50 274.50 C 190.70 263.68, 193.17 250.66, 179.50 253.50 Z" fill="rgb(75.1,77.2074074074074,73.71111111111111)" stroke="rgb(75.1,77.2074074074074,73.71111111111111)" stroke-width="1" />
<path d="M 172.50 262.50 C 171.43 265.20, 163.35 261.80, 165.50 264.50 C 167.62 267.26, 163.68 273.90, 161.50 271.50 C 157.24 270.54, 156.57 274.34, 159.50 275.50 C 156.51 281.86, 163.26 284.30, 166.50 288.50 C 170.93 289.19, 173.07 286.81, 176.50 287.50 C 177.50 282.50, 177.50 278.50, 177.50 274.50 C 177.52 268.99, 178.21 263.42, 173.50 262.50 Z" fill="rgb(22.96912114014252,26.874109263657957,16.147268408551067)" stroke="rgb(22.96912114014252,26.874109263657957,16.147268408551067)" stroke-width="1" />
<path d="M 43.50 404.50 C 51.91 409.76, 57.74 434.35, 65.50 419.50 C 96.96 403.45, 60.17 406.38, 44.50 404.50 Z" fill="rgb(224.88888888888889,227.33333333333334,226.44444444444446)" stroke="rgb(224.88888888888889,227.33333333333334,226.44444444444446)" stroke-width="1" />
<path d="M 44.50 404.50 C 47.46 411.87, 56.02 416.93, 58.50 424.50 C 63.64 426.27, 62.42 420.92, 65.50 418.50 C 71.75 416.59, 75.34 410.64, 80.50 408.50 C 80.44 405.23, 75.21 407.12, 72.50 406.50 C 67.13 407.07, 63.95 404.74, 59.50 405.50 C 53.71 406.28, 50.14 404.08, 45.50 404.50 Z" fill="rgb(249.25547445255475,249.8978102189781,249.78588807785889)" stroke="rgb(249.25547445255475,249.8978102189781,249.78588807785889)" stroke-width="1" />
<path d="M 148.50 93.50 C 147.44 98.53, 147.32 103.96, 147.50 109.50 C 151.08 114.80, 158.94 113.75, 164.50 115.50 C 166.43 109.42, 170.96 120.71, 170.50 113.50 C 169.10 109.37, 173.14 106.19, 169.50 103.50 C 166.75 99.15, 162.16 101.65, 159.50 99.50 C 155.41 98.05, 152.24 96.79, 149.50 94.50 Z" fill="rgb(211.52331606217618,226.00777202072538,159.06735751295338)" stroke="rgb(211.52331606217618,226.00777202072538,159.06735751295338)" stroke-width="1" />
<path d="M 107.50 408.50 C 106.68 411.65, 113.97 414.08, 114.50 418.50 C 121.67 420.38, 119.78 435.97, 126.50 429.50 C 148.12 426.52, 123.74 423.82, 127.50 411.50 C 122.63 406.31, 114.70 409.49, 108.50 408.50 Z" fill="rgb(127.95,145.3,141.05)" stroke="rgb(127.95,145.3,141.05)" stroke-width="1" />
<path d="M 106.50 408.50 C 107.49 411.98, 112.51 412.67, 113.50 416.50 C 118.39 420.84, 120.90 425.17, 122.50 430.50 C 126.91 427.45, 134.13 429.74, 136.50 426.50 C 134.63 418.45, 128.97 428.69, 128.50 420.50 C 128.87 416.93, 128.07 407.64, 122.50 408.50 C 116.83 408.50, 112.17 408.50, 107.50 408.50 Z" fill="rgb(202.33893557422968,215.18207282913164,217.8403361344538)" stroke="rgb(202.33893557422968,215.18207282913164,217.8403361344538)" stroke-width="1" />
<path d="M 120.50 453.50 C 115.84 459.26, 114.15 468.26, 105.50 470.50 C 99.24 473.35, 94.48 477.39, 88.50 478.50 C 90.97 480.50, 93.12 484.69, 97.50 483.50 C 102.59 485.19, 105.41 482.81, 109.50 483.50 C 111.99 480.70, 113.03 477.72, 113.50 474.50 C 117.15 466.97, 118.24 459.78, 121.50 453.50 Z" fill="rgb(12.085043988269796,13.436950146627566,11.750733137829911)" stroke="rgb(12.085043988269796,13.436950146627566,11.750733137829911)" stroke-width="1" />
<path d="M 195.50 362.50 C 193.88 364.39, 189.59 363.26, 189.50 366.50 C 191.76 371.84, 194.03 376.73, 199.50 377.50 C 204.25 379.76, 213.00 387.79, 214.50 380.50 C 214.40 376.10, 208.38 377.40, 208.50 373.50 C 208.89 365.82, 204.11 360.48, 196.50 362.50 Z" fill="rgb(99.07784431137725,119.88323353293413,127.03892215568862)" stroke="rgb(99.07784431137725,119.88323353293413,127.03892215568862)" stroke-width="1" />
<path d="M 109.50 287.50 C 105.91 293.54, 115.24 297.82, 113.50 304.50 C 120.95 306.39, 126.92 305.99, 130.50 299.50 C 133.59 295.94, 127.99 293.78, 126.50 292.50 C 121.20 288.47, 116.18 287.19, 110.50 287.50 Z" fill="rgb(168.43450479233226,177.6453674121406,105.31309904153355)" stroke="rgb(168.43450479233226,177.6453674121406,105.31309904153355)" stroke-width="1" />
<path d="M 22.50 367.50 C 20.39 370.65, 17.97 373.67, 17.50 377.50 C 22.19 381.70, 28.90 382.75, 33.50 380.50 C 35.75 378.08, 40.02 379.45, 40.50 377.50 C 41.86 366.86, 30.65 367.16, 23.50 367.50 Z" fill="rgb(112.6923076923077,115.26923076923077,100.43706293706293)" stroke="rgb(112.6923076923077,115.26923076923077,100.43706293706293)" stroke-width="1" />
<path d="M 122.50 449.50 C 121.37 453.78, 118.56 457.36, 119.50 462.50 C 118.26 468.62, 114.22 472.16, 114.50 477.50 C 117.55 478.79, 127.02 478.84, 123.50 475.50 C 118.79 473.48, 126.27 473.65, 125.50 470.50 C 127.94 466.49, 129.16 462.97, 130.50 459.50 C 130.98 453.36, 125.35 453.88, 123.50 449.50 Z" fill="rgb(49.21649484536083,47.2680412371134,30.982817869415808)" stroke="rgb(49.21649484536083,47.2680412371134,30.982817869415808)" stroke-width="1" />
<path d="M 70.50 154.50 C 69.36 159.31, 59.43 157.43, 62.50 162.50 C 62.81 167.96, 66.75 171.42, 71.50 170.50 C 76.06 173.59, 82.12 169.18, 80.50 164.50 C 82.02 156.96, 78.04 152.98, 71.50 154.50 Z" fill="rgb(151.0,163.3594306049822,99.56583629893238)" stroke="rgb(151.0,163.3594306049822,99.56583629893238)" stroke-width="1" />
<path d="M 226.50 501.50 C 221.88 504.09, 217.58 507.43, 211.50 506.50 C 201.43 509.70, 200.57 512.83, 211.50 511.50 C 218.83 511.50, 225.17 511.50, 231.50 511.50 C 235.67 511.61, 240.92 512.39, 239.50 507.50 C 235.71 502.73, 232.29 500.47, 227.50 501.50 Z" fill="rgb(34.02508960573477,64.93906810035843,14.54121863799283)" stroke="rgb(34.02508960573477,64.93906810035843,14.54121863799283)" stroke-width="1" />
<path d="M 142.50 182.50 C 139.17 185.08, 130.33 180.87, 132.50 188.50 C 132.50 192.97, 134.20 195.74, 133.50 199.50 C 136.11 203.61, 140.19 197.21, 142.50 195.50 C 143.01 199.88, 150.62 201.38, 150.50 200.50 C 147.54 197.70, 149.18 194.42, 147.50 192.50 C 146.90 187.76, 149.72 180.61, 143.50 182.50 Z" fill="rgb(173.8880866425993,161.46570397111913,112.24909747292419)" stroke="rgb(173.8880866425993,161.46570397111913,112.24909747292419)" stroke-width="1" />
<path d="M 301.50 488.50 C 297.39 493.02, 299.42 500.08, 297.50 505.50 C 297.12 512.17, 303.59 508.50, 305.50 506.50 C 310.29 506.53, 312.54 501.05, 308.50 498.50 C 316.03 493.73, 309.67 486.32, 302.50 488.50 Z" fill="rgb(46.02734375,74.38671875,25.6328125)" stroke="rgb(46.02734375,74.38671875,25.6328125)" stroke-width="1" />
<path d="M 291.50 186.50 C 289.30 189.73, 291.07 194.60, 290.50 198.50 C 296.45 199.47, 301.62 198.93, 305.50 201.50 C 308.25 201.10, 311.07 194.25, 308.50 190.50 C 303.39 187.96, 297.83 187.51, 292.50 186.50 Z" fill="rgb(130.63106796116506,128.14563106796118,83.72815533980582)" stroke="rgb(130.63106796116506,128.14563106796118,83.72815533980582)" stroke-width="1" />
<path d="M 169.50 496.50 C 167.65 500.11, 168.03 506.15, 162.50 506.50 C 159.15 507.78, 156.62 508.66, 154.50 510.50 C 158.17 511.50, 162.83 511.50, 167.50 511.50 C 174.19 512.94, 183.13 510.22, 179.50 503.50 C 172.83 504.35, 176.08 495.87, 170.50 496.50 Z" fill="rgb(53.103896103896105,84.08225108225108,29.683982683982684)" stroke="rgb(53.103896103896105,84.08225108225108,29.683982683982684)" stroke-width="1" />
<path d="M 135.50 400.50 C 131.53 401.35, 134.30 407.71, 130.50 408.50 C 122.77 413.71, 139.38 420.86, 142.50 413.50 C 145.86 414.89, 151.31 410.26, 148.50 409.50 C 141.63 409.26, 140.73 402.69, 136.50 400.50 Z" fill="rgb(44.31111111111111,55.37777777777778,46.2)" stroke="rgb(44.31111111111111,55.37777777777778,46.2)" stroke-width="1" />
<path d="M 33.50 354.50 C 29.70 357.15, 29.05 361.09, 29.50 365.50 C 33.44 367.12, 38.95 367.44, 40.50 371.50 C 40.34 379.13, 42.46 375.20, 42.50 370.50 C 42.83 365.36, 41.36 360.47, 44.50 357.50 C 44.64 352.36, 37.54 355.46, 34.50 354.50 Z" fill="rgb(116.22374429223744,116.76712328767124,103.65296803652969)" stroke="rgb(116.22374429223744,116.76712328767124,103.65296803652969)" stroke-width="1" />
<path d="M 125.50 242.50 C 123.98 245.72, 115.36 246.86, 119.50 252.50 C 124.41 253.58, 126.95 257.96, 131.50 257.50 C 136.55 260.77, 137.00 253.26, 136.50 250.50 C 131.25 245.57, 134.35 242.25, 126.50 242.50 Z" fill="rgb(34.08878504672897,41.39252336448598,23.845794392523363)" stroke="rgb(34.08878504672897,41.39252336448598,23.845794392523363)" stroke-width="1" />
<path d="M 1.50 437.50 C -0.57 443.11, 0.98 450.23, 0.50 456.50 C 5.63 451.19, 13.63 451.51, 16.50 445.50 C 13.10 439.12, 6.88 440.52, 2.50 437.50 Z" fill="rgb(103.88317757009345,114.07009345794393,75.45327102803738)" stroke="rgb(103.88317757009345,114.07009345794393,75.45327102803738)" stroke-width="1" />
<path d="M 21.50 47.50 C 19.63 48.82, 17.67 49.90, 15.50 50.50 C 19.02 56.08, 24.25 54.10, 28.50 54.50 C 33.06 56.10, 40.20 59.77, 41.50 54.50 C 43.45 50.02, 39.32 50.52, 37.50 49.50 C 32.62 46.27, 27.06 48.09, 22.50 47.50 Z" fill="rgb(90.77142857142857,105.51428571428572,60.63809523809524)" stroke="rgb(90.77142857142857,105.51428571428572,60.63809523809524)" stroke-width="1" />
<path d="M 307.50 437.50 C 303.68 439.75, 291.34 441.60, 300.50 445.50 C 299.85 451.67, 306.11 447.66, 307.50 451.50 C 309.62 447.73, 314.58 449.45, 315.50 447.50 C 318.30 441.20, 313.14 438.23, 308.50 437.50 Z" fill="rgb(36.14141414141414,75.48989898989899,15.494949494949495)" stroke="rgb(36.14141414141414,75.48989898989899,15.494949494949495)" stroke-width="1" />
<path d="M 187.50 254.50 C 184.57 256.90, 187.11 259.08, 186.50 262.50 C 183.51 269.46, 187.78 275.87, 186.50 282.50 C 185.70 287.26, 186.15 292.39, 190.50 290.50 C 190.50 285.50, 190.50 281.50, 190.50 277.50 C 190.50 272.50, 190.50 268.50, 190.50 264.50 C 189.60 260.73, 192.55 254.11, 188.50 254.50 Z" fill="rgb(65.82564102564102,69.05128205128206,68.65641025641025)" stroke="rgb(65.82564102564102,69.05128205128206,68.65641025641025)" stroke-width="1" />
<path d="M 249.50 439.50 C 244.84 440.05, 244.38 446.85, 246.50 450.50 C 250.82 453.87, 257.03 452.45, 260.50 449.50 C 262.67 441.32, 254.72 441.77, 250.50 439.50 Z" fill="rgb(18.67195767195767,48.957671957671955,7.851851851851852)" stroke="rgb(18.67195767195767,48.957671957671955,7.851851851851852)" stroke-width="1" />
<path d="M 173.50 383.50 C 164.21 389.49, 159.52 398.89, 154.50 407.50 C 157.93 404.40, 161.14 404.08, 164.50 400.50 C 164.75 389.66, 190.09 389.21, 174.50 383.50 Z" fill="rgb(66.2258064516129,83.25806451612904,63.806451612903224)" stroke="rgb(66.2258064516129,83.25806451612904,63.806451612903224)" stroke-width="1" />
<path d="M 135.50 400.50 C 131.18 401.52, 134.71 410.06, 128.50 408.50 C 127.69 416.48, 130.92 413.23, 135.50 415.50 C 141.21 417.15, 141.62 412.72, 142.50 409.50 C 139.15 407.58, 141.14 401.18, 136.50 400.50 Z" fill="rgb(38.42528735632184,41.13793103448276,38.5)" stroke="rgb(38.42528735632184,41.13793103448276,38.5)" stroke-width="1" />
<path d="M 157.50 227.50 C 160.33 229.96, 155.03 232.24, 156.50 235.50 C 163.23 237.57, 170.67 236.39, 176.50 235.50 C 178.14 231.56, 174.12 231.32, 172.50 229.50 C 166.89 229.49, 163.23 227.20, 158.50 227.50 Z" fill="rgb(27.100591715976332,44.68639053254438,16.28994082840237)" stroke="rgb(27.100591715976332,44.68639053254438,16.28994082840237)" stroke-width="1" />
<path d="M 173.50 383.50 C 167.22 388.09, 161.89 393.94, 158.50 400.50 C 157.84 405.69, 162.35 400.07, 164.50 400.50 C 165.44 394.01, 170.57 391.25, 174.50 389.50 C 182.91 391.37, 180.51 382.04, 174.50 383.50 Z" fill="rgb(69.77564102564102,82.39102564102564,68.24358974358974)" stroke="rgb(69.77564102564102,82.39102564102564,68.24358974358974)" stroke-width="1" />
<path d="M 291.50 186.50 C 290.40 189.74, 288.34 199.38, 293.50 199.50 C 300.21 201.24, 303.96 197.61, 300.50 192.50 C 301.88 186.13, 295.42 187.77, 292.50 186.50 Z" fill="rgb(190.3421052631579,182.83552631578948,150.3815789473684)" stroke="rgb(190.3421052631579,182.83552631578948,150.3815789473684)" stroke-width="1" />
</svg>