<svg xmlns="http://www.w3.org/2000/svg" width="341" height="512" viewbox="0 0 341 512">
<path d="M 0.50 0.50 C 0.50 8.83, 0.50 17.17, 0.50 25.50 C 0.50 35.17, 0.50 43.83, 0.50 52.50 C 0.50 61.83, 0.50 70.17, 0.50 78.50 C 0.50 88.17, 0.50 96.83, 0.50 105.50 C 0.50 114.83, 0.50 123.17, 0.50 131.50 C 0.50 141.17, 0.50 149.83, 0.50 158.50 C 0.50 167.83, 0.50 176.17, 0.50 184.50 C 0.50 194.17, 0.50 202.83, 0.50 211.50 C 0.50 220.83, 0.50 229.17, 0.50 237.50 C 0.50 247.17, 0.50 255.83, 0.50 264.50 C 0.50 273.83, 0.50 282.17, 0.50 290.50 C 0.50 300.17, 0.50 308.83, 0.50 317.50 C 0.50 326.83, 0.50 335.17, 0.50 343.50 C 0.50 353.17, 0.50 361.83, 0.50 370.50 C 0.50 380.17, 0.50 388.83, 0.50 397.50 C 0.50 407.17, 0.50 415.83, 0.50 424.50 C 0.50 433.83, 0.50 442.17, 0.50 450.50 C 0.50 460.17, 0.50 468.83, 0.50 477.50 C 0.50 486.83, 0.50 495.17, 0.50 503.50 C -2.68 516.34, 12.46 509.87, 19.50 511.50 C 28.83 511.50, 37.17 511.50, 45.50 511.50 C 55.17 511.50, 63.83 511.50, 72.50 511.50 C 82.17 511.50, 90.83 511.50, 99.50 511.50 C 109.17 511.50, 117.83 511.50, 126.50 511.50 C 135.83 511.50, 144.17 511.50, 152.50 511.50 C 162.17 511.50, 170.83 511.50, 179.50 511.50 C 188.83 511.50, 197.17 511.50, 205.50 511.50 C 215.17 511.50, 223.83 511.50, 232.50 511.50 C 241.83 511.50, 250.17 511.50, 258.50 511.50 C 268.17 511.50, 276.83 511.50, 285.50 511.50 C 295.17 511.50, 303.83 511.50, 312.50 511.50 C 322.17 511.50, 330.83 511.50, 339.50 511.50 C 340.50 503.17, 340.50 494.83, 340.50 486.50 C 340.50 476.83, 340.50 468.17, 340.50 459.50 C 340.50 450.17, 340.50 441.83, 340.50 433.50 C 340.50 423.83, 340.50 415.17, 340.50 406.50 C 340.50 397.17, 340.50 388.83, 340.50 380.50 C 340.50 370.83, 340.50 362.17, 340.50 353.50 C 340.50 344.17, 340.50 335.83, 340.50 327.50 C 340.50 317.83, 340.50 309.17, 340.50 300.50 C 340.50 291.17, 340.50 282.83, 340.50 274.50 C 340.50 264.83, 340.50 256.17, 340.50 247.50 C 340.50 238.17, 340.50 229.83, 340.50 221.50 C 340.50 211.83, 340.50 203.17, 340.50 194.50 C 340.50 185.17, 340.50 176.83, 340.50 168.50 C 340.50 158.83, 340.50 150.17, 340.50 141.50 C 340.50 131.83, 340.50 123.17, 340.50 114.50 C 340.50 104.83, 340.50 96.17, 340.50 87.50 C 340.50 78.17, 340.50 69.83, 340.50 61.50 C 340.50 51.83, 340.50 43.17, 340.50 34.50 C 340.50 25.17, 340.50 16.83, 340.50 8.50 C 343.68 -4.34, 328.54 2.13, 321.50 0.50 C 312.17 0.50, 303.83 0.50, 295.50 0.50 C 285.83 0.50, 277.17 0.50, 268.50 0.50 C 258.83 0.50, 250.17 0.50, 241.50 0.50 C 231.83 0.50, 223.17 0.50, 214.50 0.50 C 205.17 0.50, 196.83 0.50, 188.50 0.50 C 178.83 0.50, 170.17 0.50, 161.50 0.50 C 152.17 0.50, 143.83 0.50, 135.50 0.50 C 125.83 0.50, 117.17 0.50, 108.50 0.50 C 99.17 0.50, 90.83 0.50, 82.50 0.50 C 72.83 0.50, 64.17 0.50, 55.50 0.50 C 45.83 0.50, 37.17 0.50, 28.50 0.50 C 18.83 0.50, 10.17 0.50, 1.50 0.50 Z" fill="rgb(95.95155664642812,104.7367265211213,72.84523963312233)" stroke="rgb(95.95155664642812,104.7367265211213,72.84523963312233)" stroke-width="1" />
<path d="M 249.50 0.50 C 250.03 7.72, 265.82 7.51, 260.50 17.50 C 257.25 25.55, 250.28 30.26, 253.50 39.50 C 259.99 46.98, 253.04 56.45, 258.50 61.50 C 263.22 68.96, 271.48 74.54, 268.50 81.50 C 277.71 86.03, 268.55 94.85, 272.50 101.50 C 272.32 107.99, 272.09 120.65, 271.50 121.50 C 271.12 128.34, 269.72 134.29, 274.50 137.50 C 282.07 142.34, 289.92 144.10, 297.50 146.50 C 306.89 149.79, 300.80 160.50, 306.50 165.50 C 297.09 170.87, 292.97 169.23, 287.50 176.50 C 293.11 173.63, 293.52 183.30, 302.50 183.50 C 312.01 185.17, 314.47 197.77, 308.50 202.50 C 301.91 207.24, 291.23 205.98, 295.50 216.50 C 296.72 225.62, 292.33 233.91, 298.50 239.50 C 294.53 246.41, 290.23 254.57, 285.50 261.50 C 274.75 269.03, 287.22 277.54, 283.50 285.50 C 278.01 291.86, 276.45 300.95, 272.50 307.50 C 269.59 316.41, 260.97 319.75, 253.50 322.50 C 246.00 330.18, 239.60 337.11, 230.50 337.50 C 221.08 335.12, 215.30 337.91, 208.50 340.50 C 196.57 342.39, 205.00 349.70, 208.50 354.50 C 209.63 363.05, 210.56 370.70, 213.50 377.50 C 218.43 386.59, 200.85 386.60, 198.50 381.50 C 192.10 382.22, 179.48 365.19, 181.50 378.50 C 183.97 390.76, 171.92 387.83, 168.50 395.50 C 163.14 402.05, 156.11 405.80, 150.50 413.50 C 141.46 416.97, 140.62 425.41, 136.50 432.50 C 129.10 437.12, 125.34 446.36, 133.50 452.50 C 139.28 460.61, 134.94 468.16, 137.50 475.50 C 145.50 481.10, 147.59 490.52, 156.50 495.50 C 164.91 501.19, 168.98 497.00, 177.50 501.50 C 184.09 508.55, 191.68 511.45, 200.50 511.50 C 208.83 511.50, 216.17 511.50, 223.50 511.50 C 231.83 511.50, 239.17 511.50, 246.50 511.50 C 254.83 511.50, 262.17 511.50, 269.50 511.50 C 277.83 511.50, 285.17 511.50, 292.50 511.50 C 300.83 511.50, 308.17 511.50, 315.50 511.50 C 323.83 511.50, 331.17 511.50, 338.50 511.50 C 339.50 504.17, 339.50 496.83, 339.50 489.50 C 339.50 480.83, 339.50 473.17, 339.50 465.50 C 339.50 457.17, 339.50 449.83, 339.50 442.50 C 339.50 434.17, 339.50 426.83, 339.50 419.50 C 338.76 410.72, 341.13 404.23, 340.50 396.50 C 340.50 388.17, 340.50 380.83, 340.50 373.50 C 340.50 365.17, 340.50 357.83, 340.50 350.50 C 340.50 342.17, 340.50 334.83, 340.50 327.50 C 340.50 319.17, 340.50 311.83, 340.50 304.50 C 340.50 295.83, 340.50 288.17, 340.50 280.50 C 340.50 272.17, 340.50 264.83, 340.50 257.50 C 340.50 249.17, 340.50 241.83, 340.50 234.50 C 340.50 226.17, 340.50 218.83, 340.50 211.50 C 340.50 203.17, 340.50 195.83, 340.50 188.50 C 340.50 180.17, 340.50 172.83, 340.50 165.50 C 340.50 157.17, 340.50 149.83, 340.50 142.50 C 340.50 134.17, 340.50 126.83, 340.50 119.50 C 340.50 110.83, 340.50 103.17, 340.50 95.50 C 340.50 87.17, 340.50 79.83, 340.50 72.50 C 340.50 64.17, 340.50 56.83, 340.50 49.50 C 340.50 41.17, 340.50 33.83, 340.50 26.50 C 340.50 18.17, 340.50 10.83, 340.50 3.50 C 337.66 -1.99, 326.63 1.71, 320.50 0.50 C 312.17 0.50, 304.83 0.50, 297.50 0.50 C 289.17 0.50, 281.83 0.50, 274.50 0.50 C 265.83 0.50, 258.17 0.50, 250.50 0.50 Z" fill="rgb(67.78067318132464,93.41910966340934,42.40933767643865)" stroke="rgb(67.78067318132464,93.41910966340934,42.40933767643865)" stroke-width="1" />
<path d="M 0.50 0.50 C 0.50 11.17, 0.50 21.83, 0.50 32.50 C 0.50 44.17, 0.50 54.83, 0.50 65.50 C 0.50 77.17, 0.50 87.83, 0.50 98.50 C 0.89 104.61, -0.80 110.59, 2.50 114.50 C 1.86 121.47, 11.44 117.22, 15.50 118.50 C 20.57 117.30, 29.48 115.60, 29.50 122.50 C 27.24 129.55, 36.58 130.19, 41.50 130.50 C 47.26 133.53, 52.03 131.66, 57.50 131.50 C 58.69 124.17, 66.56 124.91, 68.50 119.50 C 71.61 113.52, 75.80 110.60, 76.50 104.50 C 76.92 98.20, 75.52 92.15, 77.50 87.50 C 79.81 81.01, 86.30 77.42, 91.50 80.50 C 92.45 88.06, 100.38 92.01, 98.50 83.50 C 101.54 78.18, 104.02 71.68, 110.50 71.50 C 116.66 70.07, 122.35 69.95, 127.50 68.50 C 133.48 68.89, 139.17 67.55, 143.50 69.50 C 151.75 70.71, 149.01 79.59, 149.50 84.50 C 151.49 94.48, 142.10 112.04, 155.50 112.50 C 162.34 113.32, 166.35 117.52, 169.50 121.50 C 175.58 123.11, 180.91 124.12, 186.50 124.50 C 197.23 128.31, 213.07 125.28, 216.50 136.50 C 222.31 137.95, 227.05 139.59, 232.50 139.50 C 238.51 137.76, 241.61 128.51, 246.50 136.50 C 250.02 140.97, 256.70 140.18, 261.50 140.50 C 267.47 142.37, 272.99 142.93, 278.50 143.50 C 284.62 145.35, 290.83 144.57, 295.50 147.50 C 303.77 145.73, 305.59 155.00, 306.50 158.50 C 311.91 161.26, 317.64 161.82, 322.50 159.50 C 328.41 161.48, 328.83 150.37, 334.50 154.50 C 334.18 148.62, 335.94 143.51, 335.50 138.50 C 336.56 132.67, 332.87 124.48, 338.50 122.50 C 333.20 119.90, 336.89 113.32, 336.50 108.50 C 339.90 104.20, 337.83 97.34, 339.50 92.50 C 339.50 80.83, 339.50 70.17, 339.50 59.50 C 339.50 47.83, 339.50 37.17, 339.50 26.50 C 337.06 17.27, 345.62 -1.95, 332.50 0.50 C 320.83 0.50, 310.17 0.50, 299.50 0.50 C 287.83 0.50, 277.17 0.50, 266.50 0.50 C 254.83 0.50, 244.17 0.50, 233.50 0.50 C 221.83 0.50, 211.17 0.50, 200.50 0.50 C 188.83 0.50, 178.17 0.50, 167.50 0.50 C 155.83 0.50, 145.17 0.50, 134.50 0.50 C 122.83 0.50, 112.17 0.50, 101.50 0.50 C 89.83 0.50, 79.17 0.50, 68.50 0.50 C 56.83 0.50, 46.17 0.50, 35.50 0.50 C 23.50 0.50, 12.50 0.50, 1.50 0.50 Z" fill="rgb(159.34003771213074,175.2960402262728,110.20427404148334)" stroke="rgb(159.34003771213074,175.2960402262728,110.20427404148334)" stroke-width="1" />
<path d="M 333.50 168.50 C 327.70 172.32, 324.03 172.41, 328.50 177.50 C 324.38 182.47, 319.71 182.30, 315.50 185.50 C 310.80 191.18, 316.86 196.69, 312.50 201.50 C 308.43 206.07, 304.24 209.27, 298.50 209.50 C 297.04 220.30, 297.17 233.04, 298.50 241.50 C 297.78 248.29, 291.78 251.51, 289.50 255.50 C 290.05 263.66, 281.25 263.44, 281.50 269.50 C 278.58 277.07, 290.44 279.25, 284.50 284.50 C 277.88 289.14, 281.64 296.66, 276.50 300.50 C 271.53 305.81, 274.06 313.06, 267.50 315.50 C 262.29 320.74, 255.92 319.77, 251.50 323.50 C 246.99 329.04, 242.25 333.40, 236.50 334.50 C 231.89 336.83, 221.63 337.44, 223.50 332.50 C 219.99 336.95, 212.99 336.48, 208.50 338.50 C 202.81 340.31, 194.82 339.77, 194.50 346.50 C 201.23 348.67, 202.79 351.77, 206.50 355.50 C 207.89 359.73, 208.50 365.18, 210.50 370.50 C 208.70 375.96, 216.74 379.94, 207.50 381.50 C 201.55 383.57, 196.31 378.79, 192.50 376.50 C 189.00 373.39, 180.41 367.59, 178.50 373.50 C 180.88 381.23, 180.37 384.41, 175.50 387.50 C 168.15 385.81, 168.82 395.70, 162.50 396.50 C 161.39 403.83, 154.44 406.12, 151.50 410.50 C 147.43 415.72, 140.40 417.22, 137.50 421.50 C 143.06 428.12, 133.14 432.23, 129.50 435.50 C 125.81 438.15, 121.80 445.90, 126.50 448.50 C 131.41 453.57, 133.72 458.31, 132.50 464.50 C 132.62 469.50, 128.59 477.66, 134.50 478.50 C 140.03 481.54, 142.77 485.86, 146.50 490.50 C 156.72 499.26, 166.04 507.18, 176.50 508.50 C 185.94 513.93, 197.71 510.34, 207.50 511.50 C 218.83 511.50, 229.17 511.50, 239.50 511.50 C 250.83 511.50, 261.17 511.50, 271.50 511.50 C 282.83 511.50, 293.17 511.50, 303.50 511.50 C 314.83 511.50, 325.17 511.50, 335.50 511.50 C 345.11 509.78, 338.35 492.68, 340.50 484.50 C 340.50 473.17, 340.50 462.83, 340.50 452.50 C 340.50 441.17, 340.50 430.83, 340.50 420.50 C 340.50 409.17, 340.50 398.83, 340.50 388.50 C 340.50 377.17, 340.50 366.83, 340.50 356.50 C 340.50 345.17, 340.50 334.83, 340.50 324.50 C 340.50 313.17, 340.50 302.83, 340.50 292.50 C 340.50 281.17, 340.50 270.83, 340.50 260.50 C 340.50 249.17, 340.50 238.83, 340.50 228.50 C 338.28 217.95, 340.08 206.73, 339.50 196.50 C 337.34 187.16, 344.48 169.82, 334.50 168.50 Z" fill="rgb(45.127998407484824,68.98035897946319,32.43495570817159)" stroke="rgb(45.127998407484824,68.98035897946319,32.43495570817159)" stroke-width="1" />
<path d="M 137.50 70.50 C 130.67 71.92, 123.30 72.01, 116.50 73.50 C 105.33 72.07, 104.94 81.99, 105.50 88.50 C 105.80 98.34, 88.61 96.00, 90.50 88.50 C 80.91 83.84, 80.20 96.85, 80.50 103.50 C 82.90 114.02, 76.07 116.56, 73.50 123.50 C 72.63 131.89, 66.32 138.46, 71.50 145.50 C 66.86 155.88, 84.35 151.17, 82.50 161.50 C 80.98 172.47, 93.75 171.16, 99.50 174.50 C 109.08 175.14, 108.53 189.68, 118.50 184.50 C 127.29 182.83, 132.37 191.20, 135.50 197.50 C 140.11 198.03, 152.40 199.92, 144.50 209.50 C 147.35 218.36, 152.56 224.68, 160.50 227.50 C 168.33 229.92, 175.66 231.11, 182.50 233.50 C 190.79 231.96, 196.87 233.66, 204.50 233.50 C 212.96 232.73, 219.23 234.81, 226.50 234.50 C 234.48 233.30, 241.99 233.40, 249.50 233.50 C 257.50 232.50, 264.50 232.50, 271.50 232.50 C 279.49 232.90, 289.32 233.17, 286.50 223.50 C 285.71 215.91, 283.33 207.54, 292.50 204.50 C 302.68 206.29, 307.64 196.45, 302.50 189.50 C 295.41 185.31, 286.90 186.94, 280.50 183.50 C 277.07 173.54, 283.99 168.61, 291.50 167.50 C 301.88 165.42, 298.73 152.91, 294.50 149.50 C 286.06 148.09, 279.01 145.74, 271.50 144.50 C 263.47 144.56, 256.30 139.69, 249.50 142.50 C 240.75 144.11, 235.25 141.76, 227.50 141.50 C 217.52 141.99, 214.55 134.39, 208.50 131.50 C 200.47 129.09, 192.34 129.36, 185.50 126.50 C 177.21 125.87, 170.36 124.18, 163.50 122.50 C 162.73 114.09, 148.42 117.40, 146.50 110.50 C 146.50 102.50, 146.50 95.50, 146.50 88.50 C 146.75 79.79, 148.13 70.21, 138.50 70.50 Z" fill="rgb(50.423056300268094,46.873458445040214,32.69383378016086)" stroke="rgb(50.423056300268094,46.873458445040214,32.69383378016086)" stroke-width="1" />
<path d="M 35.50 172.50 C 29.79 176.06, 23.62 173.56, 16.50 174.50 C 9.56 176.04, -0.25 171.94, 1.50 181.50 C 0.14 188.41, 0.50 195.03, 0.50 201.50 C 0.50 209.17, 0.50 215.83, 0.50 222.50 C 0.50 236.50, 0.50 249.50, 0.50 262.50 C 0.50 269.83, 0.50 276.17, 0.50 282.50 C 0.50 290.17, 0.50 296.83, 0.50 303.50 C 0.01 311.18, 1.02 317.23, 1.50 323.50 C 1.98 330.77, 0.43 337.89, 2.50 343.50 C 1.14 350.41, 1.50 357.03, 1.50 363.50 C 3.04 369.14, 0.25 381.25, 4.50 382.50 C 14.91 385.31, 14.76 376.38, 16.50 370.50 C 22.06 366.83, 26.11 359.93, 24.50 353.50 C 26.78 346.49, 35.56 344.41, 41.50 342.50 C 49.79 341.99, 57.09 341.53, 62.50 336.50 C 66.10 329.28, 69.66 323.04, 72.50 316.50 C 79.43 311.54, 77.01 302.83, 82.50 297.50 C 87.62 291.59, 94.43 289.40, 101.50 289.50 C 108.98 284.83, 114.89 286.76, 122.50 287.50 C 132.64 290.10, 133.39 291.11, 136.50 294.50 C 145.50 302.17, 142.36 285.94, 150.50 284.50 C 147.59 277.72, 155.25 273.39, 152.50 265.50 C 154.29 258.42, 158.31 251.10, 155.50 244.50 C 148.34 238.00, 158.94 229.54, 150.50 224.50 C 141.42 221.72, 146.16 208.21, 137.50 208.50 C 128.68 204.48, 131.07 196.11, 125.50 190.50 C 115.63 181.49, 116.58 199.60, 108.50 195.50 C 107.49 187.49, 102.63 180.87, 97.50 176.50 C 90.26 174.94, 84.86 171.36, 77.50 172.50 C 69.61 173.45, 64.12 172.37, 57.50 174.50 C 50.02 171.20, 43.81 173.43, 36.50 172.50 Z" fill="rgb(150.0530673111534,170.94652131434154,100.69203476114568)" stroke="rgb(150.0530673111534,170.94652131434154,100.69203476114568)" stroke-width="1" />
<path d="M 162.50 0.50 C 161.78 6.96, 164.86 11.85, 163.50 17.50 C 164.81 24.57, 164.43 29.87, 162.50 36.50 C 156.08 34.26, 158.74 20.70, 154.50 31.50 C 151.85 37.24, 148.93 43.63, 145.50 49.50 C 147.94 56.01, 144.77 64.53, 137.50 63.50 C 130.70 70.52, 146.61 65.91, 148.50 73.50 C 148.94 80.12, 147.48 86.53, 149.50 91.50 C 149.23 98.11, 149.45 104.34, 149.50 110.50 C 155.66 113.85, 163.94 112.19, 166.50 118.50 C 169.99 123.64, 178.09 122.65, 183.50 124.50 C 190.24 125.32, 195.50 127.31, 201.50 127.50 C 209.33 128.68, 214.84 132.05, 218.50 137.50 C 225.64 136.13, 230.78 142.16, 236.50 138.50 C 240.10 128.21, 246.53 135.41, 249.50 140.50 C 255.95 140.55, 264.46 141.43, 265.50 135.50 C 265.59 127.48, 266.69 122.38, 263.50 116.50 C 261.50 111.52, 264.11 105.16, 262.50 99.50 C 262.45 92.11, 262.34 85.74, 259.50 80.50 C 258.57 73.18, 257.69 67.23, 251.50 64.50 C 250.27 56.66, 255.44 51.17, 251.50 45.50 C 249.10 39.66, 248.68 32.32, 250.50 27.50 C 254.79 21.19, 253.18 13.80, 249.50 8.50 C 247.72 0.62, 242.42 -0.44, 235.50 0.50 C 228.50 0.50, 222.50 0.50, 216.50 0.50 C 203.50 0.50, 191.50 0.50, 179.50 0.50 C 173.14 0.89, 176.48 10.88, 173.50 14.50 C 173.04 21.45, 174.55 28.21, 172.50 33.50 C 171.56 40.05, 174.61 47.26, 170.50 51.50 C 165.03 47.62, 168.12 40.61, 166.50 34.50 C 166.98 26.68, 166.69 22.08, 167.50 15.50 C 166.12 9.88, 170.98 -0.98, 163.50 0.50 Z" fill="rgb(157.04073699759,180.9753556713053,101.12897457824769)" stroke="rgb(157.04073699759,180.9753556713053,101.12897457824769)" stroke-width="1" />
<path d="M 248.50 0.50 C 247.09 7.90, 257.69 5.16, 258.50 11.50 C 262.10 18.01, 259.44 22.50, 254.50 25.50 C 248.33 30.06, 253.78 35.86, 250.50 40.50 C 254.49 44.92, 257.76 51.16, 253.50 55.50 C 249.96 62.75, 253.05 64.61, 258.50 67.50 C 260.90 72.86, 260.72 78.29, 263.50 82.50 C 263.80 93.79, 265.14 103.65, 266.50 113.50 C 271.19 122.79, 263.73 135.63, 270.50 142.50 C 281.20 143.40, 291.66 146.18, 301.50 149.50 C 302.44 155.74, 302.78 160.82, 306.50 164.50 C 311.94 166.08, 316.48 164.73, 321.50 166.50 C 326.60 171.28, 332.09 169.01, 336.50 166.50 C 341.82 165.82, 338.42 157.42, 339.50 153.50 C 339.50 142.83, 339.50 133.17, 339.50 123.50 C 338.75 112.05, 340.68 102.71, 340.50 92.50 C 340.50 81.83, 340.50 72.17, 340.50 62.50 C 340.50 51.50, 340.50 41.50, 340.50 31.50 C 340.50 20.83, 340.50 11.17, 340.50 1.50 C 330.50 0.50, 320.50 0.50, 310.50 0.50 C 299.83 0.50, 290.17 0.50, 280.50 0.50 C 269.50 0.50, 259.50 0.50, 249.50 0.50 Z" fill="rgb(79.84733127131415,112.77817431993022,42.95677690538504)" stroke="rgb(79.84733127131415,112.77817431993022,42.95677690538504)" stroke-width="1" />
<path d="M 232.50 314.50 C 226.39 316.71, 220.16 318.63, 213.50 319.50 C 205.56 319.52, 198.37 318.90, 192.50 321.50 C 185.17 321.50, 178.83 321.50, 172.50 321.50 C 164.61 322.30, 157.88 322.48, 151.50 323.50 C 143.78 323.56, 138.22 326.44, 131.50 326.50 C 124.29 328.28, 116.66 326.61, 110.50 328.50 C 103.38 330.48, 95.54 328.32, 89.50 330.50 C 80.78 329.53, 93.10 342.97, 79.50 337.50 C 70.52 337.38, 68.88 344.32, 61.50 344.50 C 50.80 343.04, 51.66 350.64, 43.50 349.50 C 41.49 351.22, 48.02 359.00, 43.50 365.50 C 45.39 373.24, 42.76 379.04, 42.50 386.50 C 39.24 394.15, 40.57 400.52, 45.50 406.50 C 51.26 411.29, 55.43 421.40, 60.50 424.50 C 64.70 416.63, 73.99 415.06, 79.50 408.50 C 85.91 404.78, 94.17 400.78, 100.50 405.50 C 109.35 409.20, 112.51 415.45, 118.50 421.50 C 121.50 433.58, 131.22 426.45, 128.50 417.50 C 123.08 409.40, 131.27 404.14, 135.50 399.50 C 141.65 402.23, 147.52 413.06, 154.50 404.50 C 159.65 397.33, 163.22 389.39, 170.50 385.50 C 182.55 382.98, 174.72 374.15, 177.50 367.50 C 187.36 365.05, 191.52 372.95, 196.50 376.50 C 206.27 381.37, 208.93 378.96, 208.50 369.50 C 205.53 362.13, 205.33 354.41, 199.50 350.50 C 193.26 345.72, 185.78 346.36, 178.50 346.50 C 173.32 346.77, 156.07 349.75, 166.50 340.50 C 175.62 341.99, 177.18 342.31, 185.50 338.50 C 192.10 335.41, 199.47 336.56, 205.50 334.50 C 215.19 339.06, 217.53 322.41, 223.50 328.50 C 223.70 335.41, 236.70 331.96, 240.50 327.50 C 245.74 323.39, 238.59 314.31, 233.50 314.50 Z" fill="rgb(112.18794326241135,116.30514184397163,100.57535460992908)" stroke="rgb(112.18794326241135,116.30514184397163,100.57535460992908)" stroke-width="1" />
<path d="M 0.50 0.50 C 0.50 9.83, 0.50 19.17, 0.50 28.50 C -0.19 39.59, 2.19 48.41, 1.50 58.50 C 1.50 68.83, 1.50 78.17, 1.50 87.50 C 1.50 98.17, 1.50 107.83, 1.50 117.50 C 9.25 121.97, 19.62 116.99, 28.50 117.50 C 35.02 121.51, 28.14 126.80, 35.50 125.50 C 31.34 131.97, 44.91 128.33, 46.50 129.50 C 48.59 127.69, 53.65 132.00, 58.50 130.50 C 65.23 130.40, 57.70 124.40, 66.50 124.50 C 72.17 122.48, 69.83 113.82, 76.50 113.50 C 75.29 109.02, 77.31 103.31, 78.50 98.50 C 75.07 87.96, 85.96 71.89, 93.50 83.50 C 92.88 91.20, 103.98 89.96, 99.50 83.50 C 100.53 77.57, 106.22 74.57, 104.50 68.50 C 106.63 59.76, 115.02 46.98, 105.50 40.50 C 101.36 37.37, 98.67 31.87, 94.50 29.50 C 88.00 26.95, 89.50 20.45, 91.50 24.50 C 97.81 21.88, 92.01 14.71, 94.50 11.50 C 91.66 5.59, 98.53 -1.06, 90.50 0.50 C 79.83 0.50, 70.17 0.50, 60.50 0.50 C 50.17 0.50, 40.83 0.50, 31.50 0.50 C 20.83 0.50, 11.17 0.50, 1.50 0.50 Z" fill="rgb(153.35474226804124,175.67123711340207,99.0238144329897)" stroke="rgb(153.35474226804124,175.67123711340207,99.0238144329897)" stroke-width="1" />
<path d="M 326.50 437.50 C 318.68 441.89, 308.47 435.57, 300.50 440.50 C 291.52 443.49, 282.13 442.08, 273.50 442.50 C 263.01 447.90, 255.51 436.15, 247.50 443.50 C 243.46 455.35, 236.12 457.21, 226.50 460.50 C 217.40 457.65, 207.12 457.62, 199.50 461.50 C 186.52 465.96, 190.84 475.97, 199.50 481.50 C 192.36 486.62, 210.28 500.30, 197.50 504.50 C 183.28 509.01, 200.39 514.11, 208.50 511.50 C 218.17 511.50, 226.83 511.50, 235.50 511.50 C 245.17 511.50, 253.83 511.50, 262.50 511.50 C 272.17 511.50, 280.83 511.50, 289.50 511.50 C 299.17 511.50, 307.83 511.50, 316.50 511.50 C 324.48 509.81, 338.40 515.07, 340.50 508.50 C 340.30 498.78, 338.88 490.56, 339.50 481.50 C 339.50 471.83, 339.50 463.17, 339.50 454.50 C 340.80 443.51, 340.11 433.79, 327.50 437.50 Z" fill="rgb(29.908349831140097,54.303132642366364,18.884010713869802)" stroke="rgb(29.908349831140097,54.303132642366364,18.884010713869802)" stroke-width="1" />
<path d="M 136.50 70.50 C 127.07 72.75, 116.40 71.97, 107.50 75.50 C 103.31 80.90, 105.96 85.21, 105.50 90.50 C 101.71 95.99, 96.36 93.76, 91.50 92.50 C 92.17 85.86, 85.20 81.79, 81.50 87.50 C 79.60 92.52, 80.86 97.84, 80.50 102.50 C 77.57 107.37, 84.00 115.21, 76.50 115.50 C 72.44 120.78, 72.65 126.42, 71.50 131.50 C 67.86 137.08, 68.62 142.18, 71.50 146.50 C 66.50 153.78, 76.34 152.01, 79.50 154.50 C 82.81 159.09, 80.27 166.26, 83.50 168.50 C 89.40 170.60, 93.95 172.54, 98.50 174.50 C 104.45 175.68, 109.48 177.64, 109.50 183.50 C 115.55 185.09, 119.38 182.74, 124.50 183.50 C 131.19 191.23, 131.71 182.32, 135.50 179.50 C 135.84 172.91, 134.21 167.55, 128.50 167.50 C 129.34 162.22, 136.05 163.83, 140.50 163.50 C 141.86 157.84, 140.60 152.52, 142.50 148.50 C 146.90 145.04, 153.06 148.65, 157.50 147.50 C 162.42 145.89, 169.12 146.17, 172.50 146.50 C 181.61 145.35, 192.85 145.06, 202.50 144.50 C 207.73 143.11, 212.70 143.52, 217.50 143.50 C 228.82 141.54, 216.23 140.66, 213.50 136.50 C 208.51 128.41, 195.05 130.60, 186.50 127.50 C 177.95 123.63, 160.47 127.36, 160.50 117.50 C 155.17 114.90, 148.27 115.97, 146.50 110.50 C 146.50 104.83, 146.50 100.17, 146.50 95.50 C 145.38 85.33, 151.06 69.43, 137.50 70.50 Z" fill="rgb(110.14763674986723,105.79925650557621,76.09134360063729)" stroke="rgb(110.14763674986723,105.79925650557621,76.09134360063729)" stroke-width="1" />
<path d="M 49.50 356.50 C 41.49 358.66, 45.30 370.22, 45.50 375.50 C 44.50 383.50, 44.50 390.50, 44.50 397.50 C 43.68 406.84, 55.54 403.65, 61.50 404.50 C 69.33 405.67, 78.32 405.96, 84.50 405.50 C 92.41 400.18, 99.91 405.98, 106.50 407.50 C 114.43 406.99, 122.24 408.61, 128.50 406.50 C 133.82 394.49, 140.68 402.62, 146.50 406.50 C 158.15 407.18, 157.73 394.42, 165.50 389.50 C 170.90 383.17, 182.48 381.55, 175.50 372.50 C 171.65 361.69, 195.72 370.40, 183.50 362.50 C 175.95 359.99, 168.89 363.79, 161.50 362.50 C 153.42 360.89, 145.54 362.10, 138.50 363.50 C 131.64 362.59, 122.18 364.19, 116.50 363.50 C 108.40 366.35, 101.25 366.59, 94.50 363.50 C 87.13 361.66, 79.51 362.82, 72.50 362.50 C 62.88 363.11, 58.87 355.33, 50.50 356.50 Z" fill="rgb(158.5314781922242,169.29978290901914,171.895993684626)" stroke="rgb(158.5314781922242,169.29978290901914,171.895993684626)" stroke-width="1" />
<path d="M 184.50 235.50 C 179.50 236.51, 174.65 237.86, 169.50 238.50 C 161.08 236.52, 157.44 241.02, 163.50 245.50 C 158.02 250.06, 162.40 257.29, 159.50 261.50 C 157.06 267.92, 157.06 273.08, 158.50 278.50 C 164.96 280.44, 165.28 289.06, 172.50 287.50 C 179.45 287.35, 184.54 289.27, 189.50 291.50 C 196.21 291.54, 201.13 295.57, 206.50 293.50 C 213.96 293.98, 218.07 297.18, 219.50 303.50 C 219.95 309.91, 224.54 313.43, 230.50 310.50 C 236.99 310.49, 243.69 309.88, 241.50 302.50 C 240.76 290.12, 238.82 279.23, 236.50 268.50 C 234.17 262.22, 231.61 257.45, 229.50 252.50 C 226.95 245.97, 225.50 239.55, 219.50 237.50 C 207.96 235.73, 196.31 236.63, 185.50 235.50 Z" fill="rgb(69.03565640194489,70.5713128038898,55.27471636952998)" stroke="rgb(69.03565640194489,70.5713128038898,55.27471636952998)" stroke-width="1" />
<path d="M 95.50 420.50 C 90.11 422.16, 84.75 423.91, 78.50 423.50 C 72.80 427.17, 65.05 423.48, 60.50 427.50 C 53.31 428.90, 48.09 432.64, 42.50 435.50 C 47.94 443.72, 45.48 445.09, 43.50 452.50 C 38.22 459.58, 32.50 449.40, 30.50 444.50 C 21.51 442.70, 17.45 450.38, 11.50 453.50 C 7.56 457.95, 6.45 468.05, 11.50 470.50 C 18.82 469.16, 24.90 473.43, 30.50 470.50 C 36.76 467.84, 43.27 468.12, 48.50 470.50 C 54.27 477.71, 61.45 473.47, 66.50 477.50 C 73.80 476.64, 78.20 480.36, 84.50 479.50 C 91.89 476.45, 97.67 472.90, 103.50 469.50 C 112.03 468.44, 113.83 460.68, 117.50 455.50 C 120.13 448.48, 113.94 441.68, 120.50 438.50 C 120.82 431.50, 120.24 424.42, 115.50 421.50 C 108.50 420.50, 102.50 420.50, 96.50 420.50 Z" fill="rgb(148.41509433962264,140.60377358490567,108.0377358490566)" stroke="rgb(148.41509433962264,140.60377358490567,108.0377358490566)" stroke-width="1" />
<path d="M 194.50 175.50 C 188.31 177.78, 180.38 175.87, 173.50 176.50 C 165.91 178.63, 157.76 176.98, 150.50 177.50 C 148.48 187.23, 132.22 178.07, 132.50 187.50 C 130.94 203.51, 142.37 193.02, 145.50 199.50 C 152.47 204.57, 160.32 198.99, 167.50 200.50 C 175.83 200.50, 183.17 200.50, 190.50 200.50 C 198.83 200.50, 206.17 200.50, 213.50 200.50 C 221.32 202.06, 229.08 201.37, 236.50 201.50 C 243.87 203.34, 251.49 202.18, 258.50 202.50 C 266.35 204.34, 274.46 203.12, 281.50 204.50 C 289.85 204.06, 299.76 206.33, 303.50 199.50 C 301.46 191.47, 296.38 186.12, 287.50 186.50 C 279.67 184.27, 271.80 184.57, 264.50 183.50 C 256.29 182.21, 249.27 180.45, 241.50 180.50 C 232.81 179.68, 226.03 177.68, 218.50 177.50 C 210.46 176.12, 203.15 175.41, 195.50 175.50 Z" fill="rgb(118.99495698605755,114.03144467517058,76.83565707505191)" stroke="rgb(118.99495698605755,114.03144467517058,76.83565707505191)" stroke-width="1" />
<path d="M 99.50 419.50 C 91.69 422.44, 82.75 422.64, 74.50 424.50 C 64.45 425.45, 56.12 428.11, 48.50 432.50 C 36.83 437.08, 50.87 449.40, 56.50 452.50 C 58.98 457.26, 59.38 462.71, 64.50 464.50 C 67.31 469.27, 61.81 476.13, 66.50 476.50 C 76.15 478.02, 85.33 482.15, 92.50 475.50 C 101.04 469.49, 113.55 468.78, 115.50 457.50 C 119.20 452.73, 120.42 447.85, 116.50 444.50 C 121.19 441.10, 120.73 437.38, 120.50 432.50 C 122.22 418.81, 108.58 420.88, 100.50 419.50 Z" fill="rgb(165.23385625684057,157.29879605983217,135.34987230937614)" stroke="rgb(165.23385625684057,157.29879605983217,135.34987230937614)" stroke-width="1" />
<path d="M 243.50 142.50 C 237.64 144.78, 230.05 142.88, 223.50 143.50 C 216.64 146.11, 208.36 142.89, 202.50 145.50 C 194.39 144.76, 188.56 147.12, 181.50 146.50 C 173.62 147.46, 166.58 148.04, 159.50 148.50 C 152.47 148.75, 141.25 146.51, 142.50 155.50 C 140.54 165.75, 144.89 166.48, 153.50 165.50 C 161.61 165.24, 167.64 163.36, 174.50 163.50 C 182.50 163.50, 189.50 163.50, 196.50 163.50 C 203.91 162.21, 211.33 163.37, 217.50 161.50 C 225.17 161.50, 231.83 161.50, 238.50 161.50 C 246.05 162.79, 252.59 164.10, 259.50 164.50 C 267.24 166.13, 274.35 166.85, 281.50 167.50 C 287.77 165.83, 300.90 167.30, 298.50 160.50 C 295.55 154.94, 299.58 147.06, 287.50 148.50 C 280.04 146.66, 273.64 144.69, 266.50 144.50 C 258.66 142.79, 251.79 142.12, 244.50 142.50 Z" fill="rgb(144.0554072096128,135.41688918558077,103.35280373831776)" stroke="rgb(144.0554072096128,135.41688918558077,103.35280373831776)" stroke-width="1" />
<path d="M 34.50 470.50 C 28.76 474.78, 22.68 472.00, 15.50 472.50 C 8.75 471.02, -1.88 470.80, 0.50 479.50 C 0.50 486.83, 0.50 493.17, 0.50 499.50 C -0.64 508.31, 0.33 514.00, 9.50 511.50 C 16.27 510.43, 25.00 513.80, 28.50 509.50 C 33.94 503.43, 42.48 507.32, 48.50 508.50 C 55.68 505.82, 55.51 497.25, 59.50 492.50 C 57.82 480.64, 70.62 493.28, 75.50 490.50 C 83.09 492.38, 89.99 489.48, 94.50 496.50 C 102.99 486.29, 107.51 505.01, 112.50 502.50 C 118.89 509.58, 124.06 511.89, 130.50 508.50 C 128.52 501.44, 119.47 499.81, 115.50 492.50 C 112.35 483.89, 104.33 485.53, 97.50 485.50 C 89.68 481.93, 83.07 481.57, 76.50 480.50 C 69.31 478.02, 62.00 478.23, 55.50 476.50 C 49.64 472.03, 42.14 469.85, 35.50 470.50 Z" fill="rgb(103.21052631578948,102.36842105263158,65.3157894736842)" stroke="rgb(103.21052631578948,102.36842105263158,65.3157894736842)" stroke-width="1" />
<path d="M 241.50 238.50 C 237.40 240.39, 232.78 241.04, 228.50 242.50 C 226.82 244.97, 229.56 252.19, 232.50 255.50 C 237.11 265.16, 238.87 275.01, 241.50 284.50 C 243.03 294.61, 244.58 303.72, 244.50 313.50 C 242.64 320.85, 249.41 319.52, 253.50 319.50 C 260.98 319.13, 260.56 311.11, 266.50 311.50 C 269.12 306.76, 267.57 302.87, 272.50 300.50 C 274.82 295.10, 276.54 290.46, 277.50 285.50 C 281.38 280.50, 272.87 275.78, 276.50 271.50 C 272.27 265.44, 277.97 260.49, 283.50 260.50 C 280.13 256.63, 285.13 253.63, 282.50 248.50 C 283.24 242.12, 274.95 244.36, 271.50 242.50 C 264.91 240.89, 260.45 243.65, 256.50 241.50 C 253.19 236.57, 247.10 239.32, 242.50 238.50 Z" fill="rgb(118.25343613811599,136.1873952396916,142.38853503184714)" stroke="rgb(118.25343613811599,136.1873952396916,142.38853503184714)" stroke-width="1" />
<path d="M 33.50 470.50 C 28.31 474.85, 21.58 471.53, 14.50 472.50 C 7.45 470.36, -2.32 471.67, 0.50 480.50 C 0.50 487.83, 0.50 494.17, 0.50 500.50 C -1.39 510.05, 1.95 513.39, 10.50 511.50 C 16.93 510.18, 26.85 514.54, 28.50 508.50 C 35.50 504.28, 43.13 507.40, 49.50 508.50 C 55.05 505.07, 57.93 495.76, 58.50 491.50 C 58.26 481.37, 69.51 492.39, 75.50 490.50 C 81.18 494.11, 91.46 487.23, 93.50 496.50 C 101.70 487.74, 108.14 500.87, 111.50 502.50 C 118.22 507.04, 122.75 513.75, 129.50 507.50 C 130.59 502.42, 118.61 500.07, 115.50 493.50 C 111.85 486.35, 104.79 484.38, 97.50 485.50 C 89.66 481.59, 82.99 482.59, 76.50 480.50 C 69.08 478.58, 62.15 477.89, 55.50 476.50 C 49.13 471.38, 42.37 469.59, 34.50 470.50 Z" fill="rgb(42.73809523809524,51.69047619047619,21.285714285714285)" stroke="rgb(42.73809523809524,51.69047619047619,21.285714285714285)" stroke-width="1" />
<path d="M 94.50 0.50 C 99.63 7.56, 95.28 19.16, 102.50 24.50 C 105.09 35.11, 112.81 40.46, 119.50 47.50 C 121.74 55.93, 125.75 73.25, 135.50 65.50 C 137.97 61.10, 145.66 62.62, 144.50 56.50 C 141.19 50.72, 146.13 46.63, 147.50 42.50 C 147.42 36.24, 150.53 32.97, 154.50 30.50 C 152.24 25.21, 154.31 20.29, 154.50 16.50 C 152.24 5.06, 165.99 -0.68, 149.50 0.50 C 139.83 0.50, 131.17 0.50, 122.50 0.50 C 112.83 0.50, 104.17 0.50, 95.50 0.50 Z" fill="rgb(132.25160829163687,162.14760543245174,82.31629735525375)" stroke="rgb(132.25160829163687,162.14760543245174,82.31629735525375)" stroke-width="1" />
<path d="M 213.50 238.50 C 204.74 242.79, 200.63 251.07, 200.50 260.50 C 203.16 273.54, 184.66 261.83, 191.50 275.50 C 187.02 285.76, 193.28 292.92, 202.50 292.50 C 214.85 289.81, 217.30 298.74, 220.50 307.50 C 224.71 313.91, 239.72 312.35, 241.50 307.50 C 242.42 299.45, 240.31 290.20, 239.50 282.50 C 238.10 272.70, 234.80 265.10, 231.50 257.50 C 226.18 249.77, 226.53 236.02, 214.50 238.50 Z" fill="rgb(19.0093954248366,20.265114379084967,16.45669934640523)" stroke="rgb(19.0093954248366,20.265114379084967,16.45669934640523)" stroke-width="1" />
<path d="M 22.50 118.50 C 14.85 123.29, -3.81 115.21, 0.50 130.50 C 0.50 141.83, 0.50 152.17, 0.50 162.50 C -1.45 170.61, 3.67 173.60, 8.50 171.50 C 14.74 171.42, 20.37 172.26, 24.50 169.50 C 30.39 170.10, 36.29 168.26, 40.50 170.50 C 47.00 168.25, 51.96 171.67, 56.50 170.50 C 62.48 168.16, 67.09 171.03, 72.50 170.50 C 80.76 172.33, 79.67 164.21, 79.50 159.50 C 73.74 160.99, 76.25 154.68, 69.50 157.50 C 63.18 160.89, 58.19 154.91, 53.50 153.50 C 47.58 153.51, 41.36 158.33, 37.50 154.50 C 38.33 148.41, 41.33 143.25, 37.50 138.50 C 36.52 131.11, 28.60 131.30, 24.50 128.50 C 19.65 123.16, 35.23 118.91, 23.50 118.50 Z" fill="rgb(121.83333333333333,137.66666666666666,77.75)" stroke="rgb(121.83333333333333,137.66666666666666,77.75)" stroke-width="1" />
<path d="M 36.50 470.50 C 30.13 473.49, 22.00 472.24, 14.50 472.50 C 6.01 470.29, -2.49 472.62, 0.50 482.50 C 0.50 490.83, 0.50 498.17, 0.50 505.50 C -1.40 515.74, 11.82 509.85, 17.50 511.50 C 28.60 515.00, 29.17 502.49, 38.50 506.50 C 48.48 509.41, 53.78 507.08, 56.50 498.50 C 57.60 493.77, 60.92 492.74, 57.50 488.50 C 58.43 484.62, 65.62 479.32, 60.50 477.50 C 50.46 478.14, 47.22 468.17, 37.50 470.50 Z" fill="rgb(59.67778793418647,85.95109689213893,26.963893967093234)" stroke="rgb(59.67778793418647,85.95109689213893,26.963893967093234)" stroke-width="1" />
<path d="M 35.50 381.50 C 28.23 383.51, 22.34 383.30, 14.50 386.50 C 6.47 388.18, -2.95 385.27, 0.50 396.50 C 0.50 404.50, 0.50 411.50, 0.50 418.50 C -0.76 428.54, 13.14 420.69, 17.50 428.50 C 24.91 431.60, 32.44 431.98, 39.50 433.50 C 46.14 432.13, 59.61 426.47, 53.50 420.50 C 49.00 412.26, 42.71 404.64, 36.50 399.50 C 27.86 396.93, 45.26 384.08, 36.50 381.50 Z" fill="rgb(104.484375,105.140625,74.71875)" stroke="rgb(104.484375,105.140625,74.71875)" stroke-width="1" />
<path d="M 137.50 70.50 C 130.21 71.60, 123.03 72.97, 115.50 73.50 C 102.35 73.55, 107.15 84.74, 107.50 90.50 C 111.80 94.24, 128.54 98.23, 114.50 103.50 C 112.50 110.89, 112.08 118.41, 113.50 126.50 C 118.16 128.20, 128.03 127.06, 134.50 126.50 C 145.48 128.13, 148.28 121.76, 146.50 112.50 C 146.50 104.17, 146.50 96.83, 146.50 89.50 C 146.39 80.78, 148.94 69.93, 138.50 70.50 Z" fill="rgb(159.31020613373553,157.8446455505279,141.84967320261438)" stroke="rgb(159.31020613373553,157.8446455505279,141.84967320261438)" stroke-width="1" />
<path d="M 189.50 202.50 C 189.50 208.83, 189.50 215.17, 189.50 221.50 C 187.87 231.10, 192.58 234.23, 200.50 233.50 C 207.83 233.50, 214.17 233.50, 220.50 233.50 C 228.17 233.50, 234.83 233.50, 241.50 233.50 C 249.65 233.17, 251.77 222.38, 248.50 217.50 C 244.65 210.74, 241.60 201.40, 232.50 203.50 C 224.52 203.92, 218.63 201.72, 211.50 202.50 C 203.83 202.50, 197.17 202.50, 190.50 202.50 Z" fill="rgb(6.892086330935252,7.345323741007194,4.892086330935252)" stroke="rgb(6.892086330935252,7.345323741007194,4.892086330935252)" stroke-width="1" />
<path d="M 1.50 137.50 C -0.79 145.02, 1.14 154.29, 0.50 162.50 C 0.98 166.86, -1.14 173.74, 3.50 173.50 C 9.54 175.85, 12.93 167.39, 16.50 172.50 C 24.77 170.08, 34.75 169.52, 42.50 171.50 C 51.84 169.67, 58.54 172.46, 68.50 170.50 C 80.78 175.79, 84.21 159.87, 76.50 155.50 C 71.74 152.33, 67.12 160.35, 63.50 157.50 C 57.74 156.69, 54.63 151.88, 50.50 154.50 C 45.83 155.64, 41.69 155.63, 37.50 155.50 C 32.46 151.24, 33.54 145.00, 27.50 147.50 C 24.45 143.14, 17.97 142.46, 16.50 137.50 C 11.93 141.88, 6.85 140.08, 2.50 138.50 Z" fill="rgb(134.85401459854015,149.1824817518248,91.93430656934306)" stroke="rgb(134.85401459854015,149.1824817518248,91.93430656934306)" stroke-width="1" />
<path d="M 12.50 322.50 C 5.93 324.73, -1.81 328.46, 0.50 337.50 C 0.50 345.17, 0.50 351.83, 0.50 358.50 C 0.50 366.17, 0.50 372.83, 0.50 379.50 C 0.52 388.19, 12.72 383.37, 17.50 383.50 C 14.94 376.43, 18.83 366.49, 26.50 365.50 C 31.97 357.08, 20.54 349.93, 31.50 345.50 C 42.55 345.98, 43.86 333.73, 35.50 330.50 C 27.41 325.31, 21.34 324.79, 13.50 322.50 Z" fill="rgb(154.67110036275696,170.07859733978233,111.40507859733978)" stroke="rgb(154.67110036275696,170.07859733978233,111.40507859733978)" stroke-width="1" />
<path d="M 148.50 119.50 C 148.72 131.61, 133.81 126.52, 125.50 128.50 C 106.66 129.46, 124.66 134.28, 133.50 133.50 C 139.52 132.16, 146.41 134.86, 142.50 140.50 C 141.59 148.08, 146.27 148.07, 151.50 147.50 C 162.61 147.91, 171.90 146.34, 181.50 145.50 C 192.38 145.35, 201.51 143.37, 211.50 143.50 C 215.48 142.85, 227.66 142.59, 220.50 140.50 C 212.68 140.78, 215.31 132.24, 209.50 131.50 C 199.13 128.79, 188.76 128.49, 179.50 125.50 C 168.25 124.91, 159.53 120.61, 149.50 119.50 Z" fill="rgb(217.0186046511628,204.98046511627908,185.59627906976743)" stroke="rgb(217.0186046511628,204.98046511627908,185.59627906976743)" stroke-width="1" />
<path d="M 0.50 0.50 C 0.50 7.50, 0.50 14.50, 0.50 21.50 C 0.84 27.83, -1.85 44.11, 6.50 35.50 C 13.26 35.66, 21.86 44.11, 25.50 34.50 C 21.23 25.41, 37.38 21.18, 41.50 23.50 C 42.13 30.32, 55.39 33.73, 58.50 28.50 C 54.21 19.74, 47.93 12.79, 42.50 5.50 C 42.40 -3.40, 29.84 2.16, 24.50 0.50 C 16.17 0.50, 8.83 0.50, 1.50 0.50 Z" fill="rgb(102.64053888548683,129.5541947336191,52.75872627066748)" stroke="rgb(102.64053888548683,129.5541947336191,52.75872627066748)" stroke-width="1" />
<path d="M 95.50 293.50 C 88.75 295.71, 86.50 303.52, 84.50 309.50 C 84.25 315.50, 78.93 326.22, 86.50 327.50 C 93.77 327.02, 100.89 328.57, 106.50 326.50 C 112.98 323.78, 121.04 327.27, 126.50 324.50 C 132.45 323.91, 144.31 324.17, 140.50 316.50 C 137.20 311.62, 136.22 296.82, 129.50 302.50 C 125.02 306.19, 111.97 308.14, 112.50 301.50 C 112.20 291.95, 102.72 293.44, 96.50 293.50 Z" fill="rgb(83.37931034482759,89.03448275862068,59.241379310344826)" stroke="rgb(83.37931034482759,89.03448275862068,59.241379310344826)" stroke-width="1" />
<path d="M 157.50 289.50 C 155.69 295.83, 147.89 298.03, 149.50 305.50 C 142.29 308.01, 141.43 315.85, 145.50 320.50 C 152.47 322.03, 157.22 320.41, 163.50 320.50 C 171.15 320.48, 176.20 318.05, 182.50 319.50 C 189.12 319.62, 196.06 319.29, 199.50 316.50 C 200.29 308.43, 200.44 303.07, 195.50 297.50 C 190.64 293.12, 183.43 290.01, 177.50 292.50 C 169.83 293.12, 164.93 289.47, 158.50 289.50 Z" fill="rgb(31.39325842696629,33.7752808988764,27.39325842696629)" stroke="rgb(31.39325842696629,33.7752808988764,27.39325842696629)" stroke-width="1" />
<path d="M 95.50 99.50 C 87.21 101.89, 94.13 111.99, 92.50 118.50 C 91.72 127.29, 93.95 133.84, 93.50 141.50 C 93.50 149.50, 93.50 156.50, 93.50 163.50 C 90.53 174.65, 100.51 175.12, 107.50 176.50 C 114.86 174.86, 109.96 162.96, 111.50 157.50 C 111.50 149.17, 111.50 141.83, 111.50 134.50 C 111.50 126.17, 111.50 118.83, 111.50 111.50 C 113.38 100.58, 103.86 100.18, 96.50 99.50 Z" fill="rgb(92.5708446866485,70.13147138964578,60.263623978201636)" stroke="rgb(92.5708446866485,70.13147138964578,60.263623978201636)" stroke-width="1" />
<path d="M 85.50 81.50 C 78.51 86.60, 80.99 96.37, 79.50 104.50 C 81.75 116.07, 69.71 117.72, 71.50 128.50 C 66.61 136.38, 69.44 146.51, 69.50 153.50 C 83.64 149.25, 80.09 164.11, 83.50 169.50 C 95.05 176.57, 90.64 161.26, 91.50 154.50 C 92.06 144.79, 89.74 137.29, 90.50 128.50 C 90.91 119.19, 90.14 111.37, 89.50 103.50 C 85.90 98.08, 88.62 95.13, 90.50 91.50 C 89.25 86.57, 92.48 80.63, 86.50 81.50 Z" fill="rgb(188.93146647015476,184.8960943257185,159.65291083271924)" stroke="rgb(188.93146647015476,184.8960943257185,159.65291083271924)" stroke-width="1" />
<path d="M 218.50 162.50 C 210.67 164.37, 202.17 164.64, 193.50 164.50 C 181.29 162.61, 181.68 177.35, 191.50 174.50 C 201.12 174.14, 209.33 174.77, 217.50 175.50 C 227.10 176.86, 235.48 177.75, 243.50 179.50 C 253.13 179.77, 260.87 182.23, 269.50 182.50 C 279.97 189.52, 280.96 165.69, 271.50 168.50 C 261.69 167.32, 253.74 165.06, 245.50 163.50 C 236.84 161.53, 227.80 162.90, 219.50 162.50 Z" fill="rgb(79.56521739130434,70.47826086956522,57.73913043478261)" stroke="rgb(79.56521739130434,70.47826086956522,57.73913043478261)" stroke-width="1" />
<path d="M 219.50 162.50 C 212.05 164.49, 203.83 164.63, 195.50 164.50 C 182.27 160.11, 181.51 176.95, 193.50 174.50 C 202.83 174.37, 211.05 174.51, 218.50 176.50 C 228.06 176.96, 236.36 178.04, 244.50 179.50 C 253.83 179.71, 261.13 182.39, 269.50 182.50 C 280.58 188.24, 279.81 167.01, 271.50 168.50 C 262.89 165.90, 253.94 166.53, 246.50 163.50 C 237.20 163.10, 229.19 161.97, 220.50 162.50 Z" fill="rgb(51.42156862745098,43.27224736048265,26.233031674208146)" stroke="rgb(51.42156862745098,43.27224736048265,26.233031674208146)" stroke-width="1" />
<path d="M 23.50 382.50 C 18.78 386.32, 12.24 387.61, 7.50 388.50 C -0.37 389.52, 0.13 396.75, 0.50 402.50 C 0.50 408.83, 0.50 414.17, 0.50 419.50 C -1.39 428.48, 10.14 421.26, 12.50 427.50 C 19.09 430.26, 24.19 424.43, 23.50 419.50 C 24.83 412.75, 29.61 408.43, 30.50 402.50 C 33.13 396.15, 38.72 392.03, 38.50 385.50 C 37.23 378.77, 28.32 386.53, 24.50 382.50 Z" fill="rgb(121.32075471698113,144.43396226415095,82.67924528301887)" stroke="rgb(121.32075471698113,144.43396226415095,82.67924528301887)" stroke-width="1" />
<path d="M 1.50 343.50 C -0.81 354.35, 1.15 366.96, 0.50 378.50 C -1.84 387.51, 7.72 383.61, 12.50 384.50 C 19.32 383.07, 24.54 380.19, 31.50 381.50 C 39.16 380.76, 43.83 377.20, 39.50 370.50 C 35.37 367.39, 21.43 368.09, 28.50 362.50 C 31.28 355.44, 26.19 349.89, 21.50 347.50 C 14.62 347.63, 7.26 348.82, 2.50 344.50 Z" fill="rgb(75.44117647058823,80.94117647058823,56.23529411764706)" stroke="rgb(75.44117647058823,80.94117647058823,56.23529411764706)" stroke-width="1" />
<path d="M 36.50 381.50 C 32.08 384.70, 24.29 379.78, 20.50 384.50 C 13.92 386.58, 8.54 388.12, 3.50 390.50 C -1.73 393.91, 1.52 401.80, 0.50 406.50 C 0.39 413.35, 0.32 419.18, 1.50 424.50 C 7.94 424.61, 13.15 421.78, 18.50 423.50 C 21.55 431.71, 24.03 417.62, 25.50 414.50 C 31.07 409.51, 28.75 402.25, 32.50 397.50 C 37.08 393.31, 41.82 383.34, 37.50 381.50 Z" fill="rgb(146.24386252045826,159.9443535188216,107.5163666121113)" stroke="rgb(146.24386252045826,159.9443535188216,107.5163666121113)" stroke-width="1" />
<path d="M 27.50 443.50 C 21.02 445.21, 16.13 450.75, 10.50 454.50 C 7.28 459.57, 4.66 470.87, 12.50 470.50 C 19.73 469.70, 25.75 473.35, 31.50 470.50 C 38.60 467.35, 45.72 468.47, 50.50 472.50 C 56.36 474.82, 64.80 478.66, 64.50 470.50 C 64.27 462.95, 55.50 460.78, 54.50 453.50 C 49.35 449.03, 40.79 443.03, 43.50 453.50 C 34.42 458.48, 34.41 442.82, 28.50 443.50 Z" fill="rgb(176.3048264182896,169.43014394580862,139.12955122777308)" stroke="rgb(176.3048264182896,169.43014394580862,139.12955122777308)" stroke-width="1" />
<path d="M 62.50 491.50 C 58.62 498.44, 56.34 506.69, 48.50 510.50 C 43.14 505.90, 22.77 508.46, 33.50 511.50 C 42.17 511.50, 49.83 511.50, 57.50 511.50 C 66.50 511.50, 74.50 511.50, 82.50 511.50 C 91.17 511.50, 98.83 511.50, 106.50 511.50 C 120.95 515.29, 121.70 505.14, 109.50 505.50 C 105.83 501.52, 106.63 495.76, 101.50 495.50 C 94.95 497.57, 93.16 498.16, 88.50 493.50 C 79.83 493.26, 72.20 491.63, 63.50 491.50 Z" fill="rgb(155.7347670250896,142.82258064516128,95.44713261648745)" stroke="rgb(155.7347670250896,142.82258064516128,95.44713261648745)" stroke-width="1" />
<path d="M 151.50 287.50 C 146.79 291.81, 148.00 296.38, 146.50 301.50 C 152.95 311.33, 141.41 304.52, 141.50 309.50 C 139.84 323.79, 152.68 320.28, 162.50 320.50 C 167.90 320.46, 174.12 321.05, 176.50 318.50 C 177.48 312.70, 177.89 307.73, 176.50 303.50 C 175.24 291.04, 162.44 287.97, 152.50 287.50 Z" fill="rgb(130.902962206333,126.58426966292134,105.1899897854954)" stroke="rgb(130.902962206333,126.58426966292134,105.1899897854954)" stroke-width="1" />
<path d="M 169.50 201.50 C 161.59 204.90, 146.66 198.26, 143.50 208.50 C 148.12 212.39, 144.32 221.55, 151.50 221.50 C 153.09 228.15, 160.25 225.63, 164.50 227.50 C 170.05 228.64, 175.01 228.81, 178.50 232.50 C 185.21 233.54, 181.40 225.07, 182.50 221.50 C 183.12 210.77, 184.18 197.40, 170.50 201.50 Z" fill="rgb(65.95144628099173,72.62293388429752,34.332644628099175)" stroke="rgb(65.95144628099173,72.62293388429752,34.332644628099175)" stroke-width="1" />
<path d="M 0.50 137.50 C 0.50 146.50, 0.50 155.50, 0.50 164.50 C -1.06 171.39, 2.30 172.36, 7.50 171.50 C 12.78 165.74, 18.31 175.47, 22.50 169.50 C 34.49 169.59, 36.60 150.95, 28.50 147.50 C 24.65 143.31, 19.26 142.67, 16.50 137.50 C 11.68 142.93, 5.84 139.25, 1.50 137.50 Z" fill="rgb(110.93222106360793,123.47549530761209,70.14181438998958)" stroke="rgb(110.93222106360793,123.47549530761209,70.14181438998958)" stroke-width="1" />
<path d="M 1.50 343.50 C -0.80 352.35, 1.14 362.96, 0.50 372.50 C -4.07 387.57, 11.38 385.59, 19.50 382.50 C 16.24 377.34, 17.83 371.51, 20.50 367.50 C 26.76 365.85, 28.38 360.64, 28.50 355.50 C 23.38 352.59, 24.83 344.79, 17.50 346.50 C 11.99 349.01, 5.68 347.45, 2.50 343.50 Z" fill="rgb(115.14029180695847,127.33894500561168,83.15488215488216)" stroke="rgb(115.14029180695847,127.33894500561168,83.15488215488216)" stroke-width="1" />
<path d="M 95.50 293.50 C 87.98 297.55, 83.80 307.16, 84.50 316.50 C 77.07 328.48, 91.47 328.38, 99.50 327.50 C 110.63 328.77, 108.43 316.36, 112.50 308.50 C 114.02 297.48, 106.78 290.79, 96.50 293.50 Z" fill="rgb(134.75826681870012,131.59179019384266,110.81413911060433)" stroke="rgb(134.75826681870012,131.59179019384266,110.81413911060433)" stroke-width="1" />
<path d="M 63.50 478.50 C 60.79 485.16, 68.79 490.10, 74.50 491.50 C 80.60 494.65, 90.05 487.23, 92.50 495.50 C 98.78 491.64, 108.71 494.19, 108.50 502.50 C 115.39 495.88, 121.85 518.18, 125.50 508.50 C 137.83 510.59, 124.04 500.01, 120.50 498.50 C 113.26 494.10, 113.71 484.79, 105.50 485.50 C 97.12 487.26, 91.00 480.93, 85.50 481.50 C 77.94 483.29, 72.23 476.95, 64.50 478.50 Z" fill="rgb(47.12156862745098,75.10980392156863,20.80392156862745)" stroke="rgb(47.12156862745098,75.10980392156863,20.80392156862745)" stroke-width="1" />
<path d="M 34.50 397.50 C 32.12 405.09, 27.21 411.63, 25.50 419.50 C 21.33 430.09, 31.46 433.65, 39.50 433.50 C 46.03 431.60, 61.18 428.33, 54.50 420.50 C 47.36 412.77, 43.53 404.26, 35.50 398.50 Z" fill="rgb(181.03866666666667,176.332,149.53866666666667)" stroke="rgb(181.03866666666667,176.332,149.53866666666667)" stroke-width="1" />
<path d="M 49.50 154.50 C 45.88 156.08, 41.85 156.68, 37.50 156.50 C 35.52 160.96, 34.13 165.77, 37.50 169.50 C 42.66 174.01, 47.44 168.56, 51.50 170.50 C 57.29 172.28, 60.86 170.08, 65.50 170.50 C 70.34 171.05, 76.38 173.40, 79.50 169.50 C 79.74 164.21, 82.35 158.51, 78.50 155.50 C 71.94 152.87, 68.92 157.38, 64.50 158.50 C 59.08 157.38, 54.85 155.79, 50.50 154.50 Z" fill="rgb(120.68705882352941,137.17176470588234,78.27294117647058)" stroke="rgb(120.68705882352941,137.17176470588234,78.27294117647058)" stroke-width="1" />
<path d="M 215.50 203.50 C 210.93 209.85, 208.87 217.24, 206.50 224.50 C 203.82 232.49, 217.51 230.74, 223.50 231.50 C 229.10 224.69, 230.34 216.49, 234.50 209.50 C 236.11 202.15, 222.47 203.92, 216.50 203.50 Z" fill="rgb(10.507911392405063,11.498417721518987,5.412974683544304)" stroke="rgb(10.507911392405063,11.498417721518987,5.412974683544304)" stroke-width="1" />
<path d="M 148.50 92.50 C 147.39 100.48, 144.39 115.54, 156.50 113.50 C 163.44 113.54, 165.89 117.66, 166.50 121.50 C 171.88 123.20, 176.72 123.77, 181.50 124.50 C 189.47 126.32, 189.26 121.51, 185.50 117.50 C 181.20 110.42, 175.90 115.59, 171.50 110.50 C 172.26 96.35, 154.27 102.12, 149.50 92.50 Z" fill="rgb(185.88755020080322,208.429718875502,125.07630522088354)" stroke="rgb(185.88755020080322,208.429718875502,125.07630522088354)" stroke-width="1" />
<path d="M 21.50 119.50 C 16.66 121.37, 11.18 121.67, 5.50 121.50 C -2.79 119.87, 1.76 130.09, 0.50 134.50 C 6.83 137.53, 11.97 141.32, 15.50 134.50 C 20.00 141.70, 27.25 143.50, 29.50 145.50 C 36.34 134.40, 34.91 148.56, 36.50 152.50 C 40.66 145.40, 37.67 140.37, 35.50 134.50 C 30.05 130.93, 20.27 129.00, 19.50 125.50 C 22.08 120.51, 34.08 119.29, 22.50 119.50 Z" fill="rgb(38.83252818035427,72.22383252818035,9.640901771336553)" stroke="rgb(38.83252818035427,72.22383252818035,9.640901771336553)" stroke-width="1" />
<path d="M 131.50 300.50 C 128.10 311.53, 113.46 300.09, 113.50 310.50 C 110.31 318.29, 105.18 328.33, 117.50 325.50 C 126.34 325.72, 133.62 324.59, 140.50 322.50 C 141.06 313.62, 136.37 305.97, 132.50 300.50 Z" fill="rgb(148.56137479541735,148.4631751227496,120.61702127659575)" stroke="rgb(148.56137479541735,148.4631751227496,120.61702127659575)" stroke-width="1" />
<path d="M 36.50 133.50 C 42.58 140.05, 37.56 150.16, 40.50 155.50 C 49.68 152.44, 57.52 156.95, 65.50 157.50 C 67.15 151.44, 69.62 137.79, 62.50 137.50 C 53.23 136.81, 45.79 134.14, 37.50 133.50 Z" fill="rgb(217.15,219.19333333333333,177.56666666666666)" stroke="rgb(217.15,219.19333333333333,177.56666666666666)" stroke-width="1" />
<path d="M 155.50 134.50 C 151.72 137.42, 139.53 132.28, 143.50 140.50 C 141.28 150.58, 147.26 147.67, 153.50 147.50 C 166.40 147.06, 177.94 145.75, 189.50 144.50 C 207.10 145.88, 213.62 139.97, 193.50 140.50 C 186.61 140.04, 181.39 137.96, 175.50 137.50 C 167.96 138.03, 162.00 133.15, 156.50 135.50 Z" fill="rgb(59.05175292153589,40.926544240400666,23.198664440734557)" stroke="rgb(59.05175292153589,40.926544240400666,23.198664440734557)" stroke-width="1" />
<path d="M 64.50 456.50 C 58.58 462.20, 68.14 468.88, 65.50 477.50 C 74.06 477.05, 81.73 482.10, 88.50 477.50 C 102.07 475.43, 97.13 465.83, 87.50 465.50 C 80.71 458.46, 74.87 456.14, 65.50 456.50 Z" fill="rgb(47.040885860306645,40.08347529812607,20.621805792163542)" stroke="rgb(47.040885860306645,40.08347529812607,20.621805792163542)" stroke-width="1" />
<path d="M 190.50 202.50 C 188.22 208.69, 190.13 216.62, 189.50 223.50 C 186.76 234.34, 199.88 235.08, 203.50 228.50 C 206.02 220.44, 209.55 213.80, 211.50 206.50 C 208.62 199.68, 198.26 203.69, 191.50 202.50 Z" fill="rgb(11.721254355400697,12.815331010452962,6.618466898954704)" stroke="rgb(11.721254355400697,12.815331010452962,6.618466898954704)" stroke-width="1" />
<path d="M 92.50 404.50 C 82.82 406.24, 75.67 414.10, 67.50 419.50 C 59.03 429.84, 77.50 420.98, 83.50 422.50 C 92.51 419.09, 100.47 418.43, 109.50 419.50 C 117.04 415.94, 99.98 405.63, 93.50 404.50 Z" fill="rgb(140.33333333333334,142.89770723104056,141.48500881834215)" stroke="rgb(140.33333333333334,142.89770723104056,141.48500881834215)" stroke-width="1" />
<path d="M 2.50 425.50 C -6.18 436.00, 9.77 438.23, 16.50 442.50 C 21.59 441.14, 25.59 443.18, 30.50 442.50 C 34.95 444.85, 33.76 453.77, 39.50 452.50 C 45.74 455.40, 38.46 442.97, 46.50 445.50 C 42.07 440.44, 38.09 435.28, 32.50 434.50 C 27.92 431.67, 22.37 433.63, 18.50 431.50 C 12.73 429.74, 9.40 424.52, 3.50 425.50 Z" fill="rgb(152.3846153846154,151.69230769230768,114.76923076923077)" stroke="rgb(152.3846153846154,151.69230769230768,114.76923076923077)" stroke-width="1" />
<path d="M 173.50 292.50 C 174.48 299.78, 177.93 306.04, 178.50 313.50 C 176.57 323.71, 190.43 318.31, 195.50 318.50 C 205.44 313.08, 190.55 307.31, 192.50 299.50 C 195.04 289.97, 180.44 293.01, 174.50 292.50 Z" fill="rgb(84.54428044280442,87.90959409594096,85.25830258302582)" stroke="rgb(84.54428044280442,87.90959409594096,85.25830258302582)" stroke-width="1" />
<path d="M 2.50 425.50 C -6.45 436.67, 11.14 437.83, 17.50 443.50 C 21.62 440.18, 28.38 443.87, 31.50 441.50 C 33.13 446.79, 35.85 452.18, 39.50 453.50 C 45.54 451.58, 36.92 442.45, 45.50 445.50 C 41.81 440.65, 38.65 435.33, 33.50 434.50 C 28.67 431.48, 22.66 433.71, 18.50 431.50 C 12.23 430.28, 9.44 424.10, 3.50 425.50 Z" fill="rgb(52.564575645756456,82.04981549815498,23.309963099630995)" stroke="rgb(52.564575645756456,82.04981549815498,23.309963099630995)" stroke-width="1" />
<path d="M 170.50 361.50 C 167.27 363.70, 162.40 361.93, 158.50 362.50 C 159.89 367.19, 162.15 371.81, 160.50 375.50 C 160.55 380.76, 161.08 384.81, 162.50 388.50 C 165.25 391.10, 170.35 383.24, 174.50 382.50 C 181.96 379.81, 170.31 361.57, 185.50 368.50 C 191.70 373.57, 188.95 363.22, 185.50 362.50 C 180.95 360.28, 175.73 362.08, 171.50 361.50 Z" fill="rgb(38.35769230769231,49.85769230769231,52.54423076923077)" stroke="rgb(38.35769230769231,49.85769230769231,52.54423076923077)" stroke-width="1" />
<path d="M 162.50 165.50 C 154.80 168.04, 145.47 166.62, 137.50 168.50 C 131.53 175.14, 140.39 187.58, 147.50 179.50 C 154.57 174.46, 164.55 177.43, 172.50 175.50 C 184.13 169.93, 173.51 162.03, 163.50 165.50 Z" fill="rgb(53.23076923076923,49.69230769230769,30.76923076923077)" stroke="rgb(53.23076923076923,49.69230769230769,30.76923076923077)" stroke-width="1" />
<path d="M 34.50 354.50 C 26.63 356.61, 32.77 369.74, 22.50 367.50 C 15.85 375.09, 19.76 384.17, 29.50 381.50 C 38.38 380.87, 43.97 379.09, 41.50 369.50 C 41.86 360.56, 47.07 352.61, 35.50 354.50 Z" fill="rgb(126.78571428571429,127.57142857142857,111.92857142857143)" stroke="rgb(126.78571428571429,127.57142857142857,111.92857142857143)" stroke-width="1" />
<path d="M 162.50 165.50 C 154.96 168.42, 145.49 166.67, 137.50 168.50 C 132.30 175.48, 139.76 187.32, 147.50 179.50 C 154.64 174.63, 164.42 177.10, 172.50 175.50 C 182.80 169.33, 173.12 162.36, 163.50 165.50 Z" fill="rgb(45.62955465587044,35.90890688259109,22.07894736842105)" stroke="rgb(45.62955465587044,35.90890688259109,22.07894736842105)" stroke-width="1" />
<path d="M 237.50 205.50 C 233.95 211.13, 232.45 217.62, 229.50 223.50 C 223.00 231.09, 230.06 235.25, 237.50 233.50 C 246.76 235.63, 248.63 228.31, 250.50 222.50 C 247.46 216.07, 245.75 207.25, 238.50 205.50 Z" fill="rgb(11.265560165975105,9.96058091286307,4.232365145228216)" stroke="rgb(11.265560165975105,9.96058091286307,4.232365145228216)" stroke-width="1" />
<path d="M 205.50 348.50 C 205.26 356.00, 210.19 360.71, 210.50 368.50 C 213.35 374.23, 216.72 389.74, 223.50 381.50 C 224.60 373.88, 226.31 367.50, 226.50 360.50 C 221.04 354.60, 213.26 352.23, 206.50 348.50 Z" fill="rgb(99.08403361344538,114.86764705882354,69.98319327731092)" stroke="rgb(99.08403361344538,114.86764705882354,69.98319327731092)" stroke-width="1" />
<path d="M 178.50 253.50 C 175.77 261.76, 179.83 270.47, 178.50 279.50 C 178.79 300.53, 184.94 269.90, 184.50 284.50 C 191.60 298.56, 190.96 279.37, 190.50 272.50 C 191.23 261.88, 192.06 250.95, 179.50 253.50 Z" fill="rgb(75.1,77.2074074074074,73.71111111111111)" stroke="rgb(75.1,77.2074074074074,73.71111111111111)" stroke-width="1" />
<path d="M 172.50 262.50 C 161.85 261.13, 168.33 269.78, 161.50 271.50 C 155.96 273.42, 158.90 283.34, 164.50 286.50 C 170.51 289.79, 180.19 288.32, 177.50 280.50 C 176.74 273.60, 179.88 264.28, 173.50 262.50 Z" fill="rgb(22.96912114014252,26.874109263657957,16.147268408551067)" stroke="rgb(22.96912114014252,26.874109263657957,16.147268408551067)" stroke-width="1" />
<path d="M 43.50 404.50 C 48.67 411.39, 54.05 416.70, 58.50 423.50 C 63.35 425.92, 68.61 414.60, 75.50 412.50 C 87.48 405.02, 72.25 406.54, 66.50 406.50 C 59.03 404.56, 51.20 405.90, 44.50 404.50 Z" fill="rgb(224.88888888888889,227.33333333333334,226.44444444444446)" stroke="rgb(224.88888888888889,227.33333333333334,226.44444444444446)" stroke-width="1" />
<path d="M 44.50 404.50 C 47.46 411.87, 56.02 416.93, 58.50 424.50 C 64.34 422.25, 68.59 416.46, 75.50 411.50 C 87.64 404.69, 73.55 406.74, 67.50 406.50 C 60.03 404.56, 52.20 405.90, 45.50 404.50 Z" fill="rgb(249.25547445255475,249.8978102189781,249.78588807785889)" stroke="rgb(249.25547445255475,249.8978102189781,249.78588807785889)" stroke-width="1" />
<path d="M 148.50 93.50 C 147.83 98.97, 146.19 106.16, 148.50 111.50 C 153.99 112.42, 161.42 116.92, 165.50 114.50 C 171.71 120.95, 173.24 105.09, 168.50 103.50 C 161.82 99.06, 154.52 99.54, 149.50 94.50 Z" fill="rgb(211.52331606217618,226.00777202072538,159.06735751295338)" stroke="rgb(211.52331606217618,226.00777202072538,159.06735751295338)" stroke-width="1" />
<path d="M 107.50 408.50 C 109.09 413.93, 118.50 419.60, 120.50 426.50 C 121.49 434.59, 134.32 428.52, 137.50 426.50 C 129.57 422.16, 128.95 422.10, 127.50 412.50 C 124.35 405.50, 114.56 409.80, 108.50 408.50 Z" fill="rgb(127.95,145.3,141.05)" stroke="rgb(127.95,145.3,141.05)" stroke-width="1" />
<path d="M 106.50 408.50 C 110.95 414.09, 116.79 419.39, 120.50 425.50 C 122.32 433.43, 133.77 428.09, 137.50 425.50 C 127.61 424.21, 129.91 420.39, 127.50 411.50 C 122.82 406.15, 113.49 409.61, 107.50 408.50 Z" fill="rgb(202.33893557422968,215.18207282913164,217.8403361344538)" stroke="rgb(202.33893557422968,215.18207282913164,217.8403361344538)" stroke-width="1" />
<path d="M 120.50 453.50 C 115.72 459.31, 113.92 469.31, 104.50 470.50 C 98.56 476.02, 80.86 477.89, 93.50 483.50 C 100.65 484.31, 112.70 486.44, 112.50 477.50 C 116.26 468.87, 118.10 460.86, 121.50 453.50 Z" fill="rgb(12.085043988269796,13.436950146627566,11.750733137829911)" stroke="rgb(12.085043988269796,13.436950146627566,11.750733137829911)" stroke-width="1" />
<path d="M 195.50 362.50 C 187.68 363.44, 189.56 369.91, 193.50 374.50 C 200.26 377.13, 204.79 381.74, 210.50 383.50 C 221.41 380.48, 205.65 376.10, 209.50 371.50 C 207.52 364.71, 203.53 360.78, 196.50 362.50 Z" fill="rgb(99.07784431137725,119.88323353293413,127.03892215568862)" stroke="rgb(99.07784431137725,119.88323353293413,127.03892215568862)" stroke-width="1" />
<path d="M 109.50 287.50 C 105.87 292.59, 113.48 296.52, 113.50 301.50 C 114.08 305.72, 122.24 306.43, 125.50 304.50 C 138.42 294.96, 120.12 286.29, 110.50 287.50 Z" fill="rgb(168.43450479233226,177.6453674121406,105.31309904153355)" stroke="rgb(168.43450479233226,177.6453674121406,105.31309904153355)" stroke-width="1" />
<path d="M 22.50 367.50 C 10.25 376.82, 26.36 386.50, 35.50 379.50 C 48.18 374.43, 32.59 363.74, 23.50 367.50 Z" fill="rgb(112.6923076923077,115.26923076923077,100.43706293706293)" stroke="rgb(112.6923076923077,115.26923076923077,100.43706293706293)" stroke-width="1" />
<path d="M 122.50 449.50 C 119.48 454.61, 120.24 461.28, 117.50 466.50 C 114.59 472.54, 111.81 481.24, 121.50 478.50 C 124.02 475.16, 121.93 473.63, 127.50 466.50 C 133.40 458.08, 129.36 454.19, 123.50 449.50 Z" fill="rgb(49.21649484536083,47.2680412371134,30.982817869415808)" stroke="rgb(49.21649484536083,47.2680412371134,30.982817869415808)" stroke-width="1" />
<path d="M 70.50 154.50 C 68.80 159.47, 58.94 157.47, 62.50 163.50 C 63.44 170.34, 69.19 170.04, 73.50 171.50 C 84.34 171.47, 82.87 149.96, 71.50 154.50 Z" fill="rgb(151.0,163.3594306049822,99.56583629893238)" stroke="rgb(151.0,163.3594306049822,99.56583629893238)" stroke-width="1" />
<path d="M 226.50 501.50 C 221.43 505.74, 214.86 506.37, 208.50 507.50 C 196.32 512.76, 207.93 511.42, 214.50 511.50 C 221.83 511.50, 228.17 511.50, 234.50 511.50 C 245.38 511.19, 233.63 498.20, 227.50 501.50 Z" fill="rgb(34.02508960573477,64.93906810035843,14.54121863799283)" stroke="rgb(34.02508960573477,64.93906810035843,14.54121863799283)" stroke-width="1" />
<path d="M 142.50 182.50 C 136.95 183.76, 129.87 182.83, 132.50 191.50 C 133.26 199.32, 134.45 205.07, 140.50 197.50 C 141.84 193.07, 154.69 207.26, 148.50 197.50 C 145.33 192.54, 151.30 180.97, 143.50 182.50 Z" fill="rgb(173.8880866425993,161.46570397111913,112.24909747292419)" stroke="rgb(173.8880866425993,161.46570397111913,112.24909747292419)" stroke-width="1" />
<path d="M 301.50 488.50 C 298.40 491.96, 298.63 496.81, 298.50 501.50 C 294.09 508.46, 301.85 512.17, 305.50 506.50 C 314.71 505.64, 306.38 498.55, 310.50 495.50 C 314.13 489.91, 307.73 487.52, 302.50 488.50 Z" fill="rgb(46.02734375,74.38671875,25.6328125)" stroke="rgb(46.02734375,74.38671875,25.6328125)" stroke-width="1" />
<path d="M 291.50 186.50 C 289.87 189.94, 289.87 196.06, 291.50 199.50 C 297.65 198.15, 302.86 201.52, 306.50 200.50 C 308.30 201.05, 311.64 191.03, 307.50 188.50 C 301.35 189.01, 297.41 186.57, 292.50 186.50 Z" fill="rgb(130.63106796116506,128.14563106796118,83.72815533980582)" stroke="rgb(130.63106796116506,128.14563106796118,83.72815533980582)" stroke-width="1" />
<path d="M 169.50 496.50 C 168.31 501.90, 165.86 507.15, 159.50 507.50 C 149.25 512.64, 158.72 511.47, 164.50 511.50 C 170.46 510.68, 177.15 513.77, 179.50 508.50 C 178.87 502.99, 174.20 499.75, 170.50 496.50 Z" fill="rgb(53.103896103896105,84.08225108225108,29.683982683982684)" stroke="rgb(53.103896103896105,84.08225108225108,29.683982683982684)" stroke-width="1" />
<path d="M 135.50 400.50 C 131.29 401.97, 134.44 410.65, 127.50 408.50 C 127.34 417.48, 133.40 413.26, 137.50 417.50 C 141.43 413.32, 147.70 414.68, 149.50 409.50 C 142.04 410.00, 140.82 402.89, 136.50 400.50 Z" fill="rgb(44.31111111111111,55.37777777777778,46.2)" stroke="rgb(44.31111111111111,55.37777777777778,46.2)" stroke-width="1" />
<path d="M 33.50 354.50 C 29.72 356.44, 27.09 365.69, 31.50 366.50 C 38.63 366.87, 41.57 373.17, 41.50 376.50 C 43.45 371.17, 42.11 365.48, 42.50 360.50 C 47.88 352.74, 38.92 354.67, 34.50 354.50 Z" fill="rgb(116.22374429223744,116.76712328767124,103.65296803652969)" stroke="rgb(116.22374429223744,116.76712328767124,103.65296803652969)" stroke-width="1" />
<path d="M 125.50 242.50 C 113.94 247.05, 120.97 256.56, 131.50 257.50 C 140.80 257.08, 133.72 240.29, 126.50 242.50 Z" fill="rgb(34.08878504672897,41.39252336448598,23.845794392523363)" stroke="rgb(34.08878504672897,41.39252336448598,23.845794392523363)" stroke-width="1" />
<path d="M 1.50 437.50 C 0.49 443.01, -2.71 463.25, 6.50 452.50 C 10.03 450.03, 18.98 448.39, 15.50 443.50 C 11.22 439.10, 6.05 440.24, 2.50 437.50 Z" fill="rgb(103.88317757009345,114.07009345794393,75.45327102803738)" stroke="rgb(103.88317757009345,114.07009345794393,75.45327102803738)" stroke-width="1" />
<path d="M 21.50 47.50 C 7.78 53.69, 30.07 55.85, 36.50 56.50 C 43.51 57.61, 43.97 48.70, 37.50 49.50 C 32.62 46.27, 27.06 48.09, 22.50 47.50 Z" fill="rgb(90.77142857142857,105.51428571428572,60.63809523809524)" stroke="rgb(90.77142857142857,105.51428571428572,60.63809523809524)" stroke-width="1" />
<path d="M 307.50 437.50 C 295.83 438.70, 295.63 447.20, 305.50 449.50 C 315.77 453.00, 320.82 438.03, 308.50 437.50 Z" fill="rgb(36.14141414141414,75.48989898989899,15.494949494949495)" stroke="rgb(36.14141414141414,75.48989898989899,15.494949494949495)" stroke-width="1" />
<path d="M 187.50 254.50 C 185.62 259.36, 185.85 265.97, 185.50 272.50 C 187.97 279.85, 183.16 288.95, 189.50 291.50 C 190.50 284.50, 190.50 278.50, 190.50 272.50 C 189.33 266.33, 192.94 256.39, 188.50 254.50 Z" fill="rgb(65.82564102564102,69.05128205128206,68.65641025641025)" stroke="rgb(65.82564102564102,69.05128205128206,68.65641025641025)" stroke-width="1" />
<path d="M 249.50 439.50 C 242.41 440.86, 244.37 456.19, 253.50 452.50 C 266.87 450.26, 259.20 439.38, 250.50 439.50 Z" fill="rgb(18.67195767195767,48.957671957671955,7.851851851851852)" stroke="rgb(18.67195767195767,48.957671957671955,7.851851851851852)" stroke-width="1" />
<path d="M 173.50 383.50 C 168.88 387.69, 162.70 391.62, 160.50 397.50 C 157.23 405.14, 150.54 410.41, 160.50 404.50 C 166.95 401.20, 166.07 393.09, 172.50 391.50 C 179.30 391.33, 184.11 384.19, 174.50 383.50 Z" fill="rgb(66.2258064516129,83.25806451612904,63.806451612903224)" stroke="rgb(66.2258064516129,83.25806451612904,63.806451612903224)" stroke-width="1" />
<path d="M 135.50 400.50 C 132.87 405.08, 122.54 415.37, 132.50 413.50 C 143.42 422.27, 145.35 403.05, 136.50 400.50 Z" fill="rgb(38.42528735632184,41.13793103448276,38.5)" stroke="rgb(38.42528735632184,41.13793103448276,38.5)" stroke-width="1" />
<path d="M 157.50 227.50 C 152.93 237.29, 163.66 237.21, 172.50 236.50 C 184.26 231.71, 163.84 227.18, 158.50 227.50 Z" fill="rgb(27.100591715976332,44.68639053254438,16.28994082840237)" stroke="rgb(27.100591715976332,44.68639053254438,16.28994082840237)" stroke-width="1" />
<path d="M 173.50 383.50 C 167.04 386.51, 150.59 407.68, 164.50 400.50 C 165.11 393.91, 170.50 392.34, 173.50 389.50 C 182.14 391.88, 181.52 382.37, 174.50 383.50 Z" fill="rgb(69.77564102564102,82.39102564102564,68.24358974358974)" stroke="rgb(69.77564102564102,82.39102564102564,68.24358974358974)" stroke-width="1" />
<path d="M 291.50 186.50 C 289.05 192.24, 289.22 202.77, 298.50 199.50 C 304.48 196.57, 300.38 184.15, 292.50 186.50 Z" fill="rgb(190.3421052631579,182.83552631578948,150.3815789473684)" stroke="rgb(190.3421052631579,182.83552631578948,150.3815789473684)" stroke-width="1" />
</svg>