<svg xmlns="http://www.w3.org/2000/svg" width="341" height="512" viewbox="0 0 341 512">
<path d="M 0.50 0.50 C 0.50 169.50, 0.50 338.50, 0.50 507.50 C 482.40 739.61, 492.07 -221.59, 1.50 0.50 Z" fill="rgb(90.98510928961748,99.71612021857923,69.42377049180328)" stroke="rgb(90.98510928961748,99.71612021857923,69.42377049180328)" stroke-width="1" />
<path d="M 249.50 0.50 C 274.38 46.96, 247.30 130.24, 302.50 149.50 C 308.14 165.49, 301.51 169.48, 290.50 173.50 C 285.15 176.40, 298.07 182.16, 307.50 185.50 C 317.80 197.33, 305.93 207.38, 295.50 208.50 C 296.69 232.55, 300.79 247.77, 282.50 265.50 C 288.17 283.01, 276.32 295.22, 271.50 311.50 C 209.55 372.29, 123.04 380.65, 150.50 490.50 C 301.07 573.64, 381.62 467.59, 340.50 307.50 C 340.50 273.83, 340.50 241.17, 340.50 208.50 C 340.50 191.50, 340.50 175.50, 340.50 159.50 C 340.50 142.17, 340.50 125.83, 340.50 109.50 C 352.47 30.53, 340.63 -23.63, 250.50 0.50 Z" fill="rgb(68.5607476635514,94.04361370716511,44.18483904465213)" stroke="rgb(68.5607476635514,94.04361370716511,44.18483904465213)" stroke-width="1" />
<path d="M 0.50 0.50 C 10.33 36.15, -21.95 117.23, 22.50 117.50 C 44.52 151.86, 82.41 117.14, 80.50 82.50 C 103.35 94.95, 94.81 70.39, 124.50 69.50 C 166.00 56.29, 135.41 109.50, 158.50 113.50 C 492.83 233.80, 293.79 -119.35, 1.50 0.50 Z" fill="rgb(161.67964480874318,177.66188524590163,111.39275956284153)" stroke="rgb(161.67964480874318,177.66188524590163,111.39275956284153)" stroke-width="1" />
<path d="M 333.50 168.50 C 324.22 175.12, 327.70 181.51, 314.50 187.50 C 319.37 201.43, 303.77 206.47, 298.50 212.50 C 293.52 226.26, 304.56 242.53, 292.50 250.50 C 289.72 260.50, 274.22 269.83, 285.50 279.50 C 280.91 290.12, 275.87 299.96, 272.50 310.50 C 263.72 320.80, 250.85 320.66, 243.50 331.50 C 224.26 337.60, 218.44 333.67, 198.50 340.50 C 196.88 348.69, 229.09 385.04, 198.50 380.50 C 175.83 358.57, 176.86 394.27, 156.50 405.50 C 147.08 415.29, 136.49 418.68, 136.50 430.50 C 113.36 439.80, 135.42 452.44, 132.50 468.50 C 129.73 481.80, 143.27 481.00, 147.50 491.50 C 195.60 529.27, 274.23 504.07, 336.50 511.50 C 344.47 482.14, 338.52 439.85, 340.50 405.50 C 340.50 386.50, 340.50 368.50, 340.50 350.50 C 340.50 331.17, 340.50 312.83, 340.50 294.50 C 340.50 283.17, 340.50 272.83, 340.50 262.50 C 340.50 257.83, 340.50 254.17, 340.50 250.50 C 340.50 243.17, 340.50 236.83, 340.50 230.50 C 338.39 214.90, 340.01 198.76, 339.50 183.50 C 338.63 177.55, 342.39 166.95, 334.50 168.50 Z" fill="rgb(45.40561752721929,69.29433571571705,32.652428027519875)" stroke="rgb(45.40561752721929,69.29433571571705,32.652428027519875)" stroke-width="1" />
<path d="M 137.50 70.50 C 101.92 86.88, 84.79 79.74, 78.50 116.50 C 59.32 142.44, 79.28 170.67, 106.50 177.50 C 145.86 184.94, 137.73 226.43, 181.50 233.50 C 204.99 231.95, 228.93 236.45, 251.50 232.50 C 261.83 232.50, 271.17 232.50, 280.50 232.50 C 293.16 228.98, 280.97 213.71, 287.50 207.50 C 332.24 195.74, 268.04 186.68, 283.50 171.50 C 325.65 132.39, 218.79 151.85, 199.50 129.50 C 153.39 133.18, 147.14 100.36, 138.50 70.50 Z" fill="rgb(57.87657920310981,55.79737609329446,38.71039844509232)" stroke="rgb(57.87657920310981,55.79737609329446,38.71039844509232)" stroke-width="1" />
<path d="M 35.50 172.50 C 26.60 176.40, 12.73 173.25, 3.50 175.50 C 0.28 179.19, 2.44 184.70, 0.50 188.50 C 0.50 206.83, 0.50 224.17, 0.50 241.50 C 0.50 259.83, 0.50 277.17, 0.50 294.50 C -0.26 308.28, 1.73 319.93, 1.50 332.50 C -7.75 375.31, 17.34 399.81, 24.50 350.50 C 35.78 340.20, 51.95 345.14, 62.50 336.50 C 71.73 321.50, 75.99 305.91, 86.50 293.50 C 103.53 287.25, 119.57 283.77, 135.50 291.50 C 141.01 305.02, 149.31 283.01, 152.50 274.50 C 150.51 261.96, 160.45 252.03, 154.50 241.50 C 158.01 227.62, 143.57 221.72, 141.50 209.50 C 128.47 208.99, 131.60 195.23, 124.50 189.50 C 115.84 181.04, 114.98 202.30, 108.50 194.50 C 105.20 177.96, 90.26 171.14, 74.50 172.50 C 61.25 174.96, 49.55 172.40, 36.50 172.50 Z" fill="rgb(149.74190064794817,170.61915046796256,100.39601974699167)" stroke="rgb(149.74190064794817,170.61915046796256,100.39601974699167)" stroke-width="1" />
<path d="M 162.50 0.50 C 162.57 11.04, 168.87 43.02, 157.50 31.50 C 153.48 26.21, 139.95 68.73, 138.50 67.50 C 160.48 73.85, 138.23 108.66, 157.50 113.50 C 173.34 129.45, 205.01 121.33, 220.50 137.50 C 228.51 139.08, 237.09 141.96, 239.50 133.50 C 246.80 137.46, 254.38 144.85, 264.50 138.50 C 266.94 126.67, 263.76 117.99, 263.50 110.50 C 264.24 96.70, 260.58 80.48, 256.50 67.50 C 245.34 62.71, 257.98 50.58, 250.50 44.50 C 245.44 29.72, 258.99 17.34, 248.50 5.50 C 246.51 1.66, 245.26 -0.48, 241.50 0.50 C 219.17 0.50, 197.83 0.50, 176.50 0.50 C 176.26 9.30, 172.10 16.05, 173.50 26.50 C 170.98 34.87, 174.89 44.90, 170.50 51.50 C 160.46 38.65, 174.35 10.62, 163.50 0.50 Z" fill="rgb(156.99992197862215,180.92642584068034,101.12826714519778)" stroke="rgb(156.99992197862215,180.92642584068034,101.12826714519778)" stroke-width="1" />
<path d="M 248.50 0.50 C 254.30 7.83, 268.97 19.02, 252.50 27.50 C 247.25 39.28, 259.97 48.34, 252.50 58.50 C 262.81 71.90, 265.32 96.28, 266.50 116.50 C 270.19 124.33, 265.22 132.48, 268.50 139.50 C 278.96 147.20, 306.46 141.41, 304.50 162.50 C 316.26 164.43, 327.49 172.01, 338.50 166.50 C 339.02 136.83, 340.00 107.76, 340.50 78.50 C 340.50 66.83, 340.50 56.17, 340.50 45.50 C 340.50 29.83, 340.50 15.17, 340.50 0.50 C 309.50 0.50, 279.50 0.50, 249.50 0.50 Z" fill="rgb(79.888826904686,112.87703219636596,42.9541759642971)" stroke="rgb(79.888826904686,112.87703219636596,42.9541759642971)" stroke-width="1" />
<path d="M 232.50 314.50 C 224.31 317.31, 216.18 320.27, 206.50 319.50 C 181.98 322.98, 156.09 320.76, 133.50 326.50 C 116.73 328.26, 98.76 328.46, 84.50 331.50 C 88.35 342.03, 55.30 340.53, 48.50 349.50 C 38.37 350.59, 48.20 381.62, 40.50 395.50 C 88.83 427.31, 147.11 430.01, 177.50 367.50 C 191.70 367.54, 212.57 392.54, 207.50 365.50 C 207.05 336.36, 136.84 349.95, 180.50 340.50 C 194.55 332.73, 212.12 339.35, 221.50 327.50 C 227.24 344.58, 256.90 317.36, 233.50 314.50 Z" fill="rgb(113.01932966838092,117.16722823195602,102.04841283915587)" stroke="rgb(113.01932966838092,117.16722823195602,102.04841283915587)" stroke-width="1" />
<path d="M 0.50 0.50 C 0.44 40.33, 2.21 79.40, 1.50 119.50 C 13.93 120.93, 33.98 112.12, 32.50 125.50 C 35.23 128.64, 59.58 134.09, 60.50 127.50 C 75.06 122.45, 76.60 109.93, 78.50 96.50 C 75.38 64.62, 101.95 96.61, 99.50 82.50 C 103.84 76.61, 105.48 70.60, 104.50 63.50 C 118.05 47.02, 100.49 32.89, 89.50 26.50 C 94.92 26.57, 93.47 10.07, 94.50 0.50 C 62.83 0.50, 32.17 0.50, 1.50 0.50 Z" fill="rgb(152.82775316781704,175.16925929741424,98.5196250128773)" stroke="rgb(152.82775316781704,175.16925929741424,98.5196250128773)" stroke-width="1" />
<path d="M 326.50 437.50 C 301.78 440.69, 271.18 445.05, 248.50 442.50 C 243.30 454.17, 237.43 456.95, 227.50 460.50 C 210.75 452.55, 176.37 466.34, 198.50 480.50 C 192.80 486.15, 202.50 490.83, 202.50 497.50 C 203.22 507.48, 185.45 501.56, 193.50 511.50 C 233.17 511.50, 271.83 511.50, 310.50 511.50 C 322.44 509.10, 345.51 518.85, 340.50 500.50 C 332.62 481.31, 352.70 438.24, 327.50 437.50 Z" fill="rgb(29.86309018084719,53.87195047942711,18.69158878504673)" stroke="rgb(29.86309018084719,53.87195047942711,18.69158878504673)" stroke-width="1" />
<path d="M 136.50 70.50 C 126.85 74.49, 109.05 68.69, 105.50 80.50 C 110.01 100.32, 89.87 93.80, 85.50 84.50 C 70.53 123.09, 58.18 167.22, 108.50 178.50 C 108.77 189.67, 120.30 180.47, 125.50 184.50 C 135.77 190.51, 140.03 166.61, 127.50 166.50 C 146.32 159.09, 145.68 138.86, 173.50 146.50 C 282.01 140.99, 118.70 130.96, 137.50 70.50 Z" fill="rgb(112.85611139762764,109.6833419288293,78.31150077359463)" stroke="rgb(112.85611139762764,109.6833419288293,78.31150077359463)" stroke-width="1" />
<path d="M 49.50 356.50 C 39.42 366.84, 46.89 386.11, 44.50 402.50 C 63.67 406.13, 81.88 405.08, 98.50 404.50 C 119.38 417.54, 135.31 392.14, 149.50 406.50 C 168.93 393.10, 176.73 369.20, 185.50 363.50 C 158.52 361.62, 131.88 362.15, 107.50 365.50 C 88.69 361.05, 66.58 364.01, 50.50 356.50 Z" fill="rgb(157.29143201930813,168.18242156074015,170.65124698310538)" stroke="rgb(157.29143201930813,168.18242156074015,170.65124698310538)" stroke-width="1" />
<path d="M 184.50 235.50 C 176.41 238.28, 168.79 237.64, 160.50 238.50 C 167.03 249.56, 153.29 265.80, 158.50 278.50 C 172.74 290.89, 194.99 291.96, 212.50 294.50 C 220.73 305.96, 223.37 316.05, 240.50 309.50 C 240.43 282.56, 236.72 252.06, 217.50 237.50 C 205.80 237.05, 195.82 235.86, 185.50 235.50 Z" fill="rgb(69.53350515463917,70.73969072164948,55.128865979381445)" stroke="rgb(69.53350515463917,70.73969072164948,55.128865979381445)" stroke-width="1" />
<path d="M 95.50 420.50 C -97.26 448.94, 155.41 520.26, 95.50 420.50 Z" fill="rgb(128.8148148148148,123.54320987654322,93.20987654320987)" stroke="rgb(128.8148148148148,123.54320987654322,93.20987654320987)" stroke-width="1" />
<path d="M 194.50 175.50 C 180.53 177.05, 166.05 177.37, 151.50 177.50 C 116.02 188.22, 143.84 206.98, 171.50 200.50 C 193.46 200.12, 213.98 200.80, 234.50 201.50 C 255.45 202.62, 275.08 204.50, 295.50 204.50 C 308.09 204.04, 301.83 190.71, 296.50 188.50 C 279.25 184.97, 262.56 183.50, 246.50 180.50 C 228.80 178.92, 212.74 175.79, 195.50 175.50 Z" fill="rgb(118.8853238265003,113.95127748068924,76.51069518716578)" stroke="rgb(118.8853238265003,113.95127748068924,76.51069518716578)" stroke-width="1" />
<path d="M 99.50 419.50 C 81.83 425.29, 60.77 422.92, 45.50 434.50 C 43.50 448.08, 69.71 459.94, 65.50 476.50 C 87.17 485.37, 123.94 466.58, 116.50 443.50 C 123.31 439.14, 119.71 430.05, 119.50 424.50 C 114.50 417.34, 105.74 422.67, 100.50 419.50 Z" fill="rgb(165.60765550239233,157.61354435038646,135.65991902834008)" stroke="rgb(165.60765550239233,157.61354435038646,135.65991902834008)" stroke-width="1" />
<path d="M 243.50 142.50 C 241.24 144.63, 237.42 142.98, 234.50 143.50 C 206.35 143.99, 180.46 147.53, 153.50 148.50 C 140.76 144.07, 139.51 164.62, 145.50 165.50 C 160.46 164.74, 173.95 162.84, 188.50 163.50 C 203.94 163.89, 217.02 161.00, 231.50 161.50 C 255.21 161.79, 277.92 172.20, 299.50 163.50 C 296.71 158.50, 294.62 156.28, 298.50 151.50 C 280.15 147.06, 263.63 141.65, 244.50 142.50 Z" fill="rgb(144.16492058127747,135.54308888137885,103.41094964515038)" stroke="rgb(144.16492058127747,135.54308888137885,103.41094964515038)" stroke-width="1" />
<path d="M 34.50 470.50 C 3.59 456.40, -16.27 504.51, 12.50 511.50 C 92.50 482.89, 177.83 511.73, 35.50 470.50 Z" fill="rgb(117.83333333333333,123.83333333333333,63.0)" stroke="rgb(117.83333333333333,123.83333333333333,63.0)" stroke-width="1" />
<path d="M 241.50 238.50 C 236.67 240.25, 231.85 242.02, 226.50 242.50 C 236.70 262.43, 242.16 283.32, 244.50 305.50 C 239.85 331.94, 271.53 312.76, 270.50 302.50 C 277.91 290.24, 280.02 278.47, 274.50 266.50 C 285.40 259.61, 283.00 257.27, 282.50 245.50 C 266.53 243.22, 257.82 239.61, 242.50 238.50 Z" fill="rgb(117.58918374202217,135.6567013772254,141.54652334564997)" stroke="rgb(117.58918374202217,135.6567013772254,141.54652334564997)" stroke-width="1" />
<path d="M 33.50 470.50 C 2.67 455.71, -16.34 507.06, 13.50 511.50 C 91.11 481.16, 179.47 512.90, 34.50 470.50 Z" fill="rgb(81.71311475409836,85.95081967213115,49.9344262295082)" stroke="rgb(81.71311475409836,85.95081967213115,49.9344262295082)" stroke-width="1" />
<path d="M 94.50 0.50 C 98.66 17.02, 102.08 32.98, 115.50 43.50 C 123.48 49.29, 121.23 60.11, 127.50 66.50 C 144.80 66.91, 144.61 49.98, 148.50 36.50 C 158.11 27.02, 151.07 7.50, 158.50 0.50 C 136.83 0.50, 116.17 0.50, 95.50 0.50 Z" fill="rgb(133.15936826992103,162.93036611629577,83.10337401292175)" stroke="rgb(133.15936826992103,162.93036611629577,83.10337401292175)" stroke-width="1" />
<path d="M 213.50 238.50 C 195.31 241.33, 208.09 270.33, 192.50 267.50 C 187.25 280.59, 191.45 296.01, 210.50 293.50 C 218.78 302.73, 225.46 318.81, 241.50 309.50 C 242.50 286.50, 235.88 264.15, 225.50 245.50 C 224.85 239.31, 219.36 237.75, 214.50 238.50 Z" fill="rgb(19.302476654486398,20.548112058465286,16.61875761266748)" stroke="rgb(19.302476654486398,20.548112058465286,16.61875761266748)" stroke-width="1" />
<path d="M 22.50 118.50 C -79.29 170.13, 134.15 187.25, 55.50 154.50 C 32.75 162.88, 31.53 120.17, 23.50 118.50 Z" fill="rgb(115.832,136.056,73.64)" stroke="rgb(115.832,136.056,73.64)" stroke-width="1" />
<path d="M 36.50 470.50 C 25.52 475.44, 11.08 469.71, 0.50 473.50 C 0.50 486.83, 0.50 499.17, 0.50 511.50 C 11.06 509.55, 25.92 516.19, 30.50 506.50 C 37.67 506.23, 45.29 507.65, 50.50 507.50 C 59.43 497.92, 56.17 488.98, 62.50 478.50 C 51.96 477.93, 47.73 469.00, 37.50 470.50 Z" fill="rgb(60.012379642365886,86.12012838147639,27.35121503897295)" stroke="rgb(60.012379642365886,86.12012838147639,27.35121503897295)" stroke-width="1" />
<path d="M 35.50 381.50 C -71.06 393.24, 97.65 476.77, 33.50 394.50 C 37.13 391.73, 41.37 381.69, 36.50 381.50 Z" fill="rgb(116.11111111111111,120.38888888888889,87.05555555555556)" stroke="rgb(116.11111111111111,120.38888888888889,87.05555555555556)" stroke-width="1" />
<path d="M 137.50 70.50 C 122.07 72.14, 96.61 73.23, 108.50 92.50 C 131.85 95.21, 103.79 109.67, 113.50 125.50 C 128.00 130.04, 156.06 128.54, 146.50 102.50 C 144.18 91.08, 152.75 71.50, 138.50 70.50 Z" fill="rgb(159.05113924050633,157.70329113924052,141.34481012658227)" stroke="rgb(159.05113924050633,157.70329113924052,141.34481012658227)" stroke-width="1" />
<path d="M 189.50 202.50 C 175.61 243.28, 224.23 235.71, 247.50 230.50 C 256.10 196.65, 213.78 202.50, 190.50 202.50 Z" fill="rgb(8.995121951219513,9.38048780487805,5.824390243902439)" stroke="rgb(8.995121951219513,9.38048780487805,5.824390243902439)" stroke-width="1" />
<path d="M 1.50 137.50 C -15.62 192.16, 41.80 164.35, 71.50 171.50 C 89.75 149.13, 19.81 153.89, 2.50 138.50 Z" fill="rgb(133.5222222222222,149.11666666666667,88.85555555555555)" stroke="rgb(133.5222222222222,149.11666666666667,88.85555555555555)" stroke-width="1" />
<path d="M 12.50 322.50 C -26.41 353.00, 25.61 419.88, 25.50 350.50 C 30.38 343.91, 38.77 345.56, 41.50 339.50 C 37.25 326.28, 23.63 325.52, 13.50 322.50 Z" fill="rgb(157.6971279373368,173.39686684073106,113.9869451697128)" stroke="rgb(157.6971279373368,173.39686684073106,113.9869451697128)" stroke-width="1" />
<path d="M 148.50 119.50 C 149.16 131.01, 135.95 126.40, 128.50 128.50 C 97.29 133.26, 155.07 128.99, 146.50 147.50 C 168.00 143.53, 233.42 150.79, 213.50 133.50 C 191.73 127.62, 170.16 124.66, 149.50 119.50 Z" fill="rgb(212.30450781968722,200.71205151793927,180.82244710211592)" stroke="rgb(212.30450781968722,200.71205151793927,180.82244710211592)" stroke-width="1" />
<path d="M 0.50 0.50 C 3.37 11.41, -6.94 45.16, 9.50 34.50 C 23.50 48.94, 22.54 27.36, 31.50 25.50 C 42.69 15.82, 38.68 32.20, 49.50 29.50 C 64.98 34.67, 53.92 18.07, 48.50 13.50 C 42.48 -7.47, 18.46 3.08, 1.50 0.50 Z" fill="rgb(103.80840543881335,130.33498145859085,53.92645241038319)" stroke="rgb(103.80840543881335,130.33498145859085,53.92645241038319)" stroke-width="1" />
<path d="M 95.50 293.50 C 58.31 364.26, 199.85 300.47, 95.50 293.50 Z" fill="rgb(108.34782608695652,108.69565217391305,76.43478260869566)" stroke="rgb(108.34782608695652,108.69565217391305,76.43478260869566)" stroke-width="1" />
<path d="M 157.50 289.50 C 108.94 357.90, 266.71 294.37, 157.50 289.50 Z" fill="rgb(49.17741935483871,55.79032258064516,37.74193548387097)" stroke="rgb(49.17741935483871,55.79032258064516,37.74193548387097)" stroke-width="1" />
<path d="M 95.50 99.50 C 86.76 103.42, 95.01 116.05, 92.50 124.50 C 94.23 140.59, 93.26 156.80, 93.50 172.50 C 99.89 173.52, 110.39 180.54, 111.50 172.50 C 110.91 148.61, 112.73 124.72, 110.50 102.50 C 104.66 102.06, 101.34 98.94, 96.50 99.50 Z" fill="rgb(92.59876965140123,70.14764183185235,60.28024606971975)" stroke="rgb(92.59876965140123,70.14764183185235,60.28024606971975)" stroke-width="1" />
<path d="M 85.50 81.50 C 75.93 89.17, 83.01 105.28, 77.50 115.50 C 70.49 124.58, 67.37 138.30, 69.50 150.50 C 74.99 153.61, 85.30 154.83, 81.50 166.50 C 95.33 179.98, 91.04 156.63, 91.50 146.50 C 88.80 129.73, 92.80 111.19, 87.50 96.50 C 92.14 93.42, 92.16 80.52, 86.50 81.50 Z" fill="rgb(188.73293768545994,185.08605341246292,159.60385756676558)" stroke="rgb(188.73293768545994,185.08605341246292,159.60385756676558)" stroke-width="1" />
<path d="M 218.50 162.50 C 117.41 184.34, 378.88 180.11, 218.50 162.50 Z" fill="rgb(101.56,94.36,78.04)" stroke="rgb(101.56,94.36,78.04)" stroke-width="1" />
<path d="M 219.50 162.50 C 210.49 167.68, 175.06 158.11, 188.50 174.50 C 218.56 173.81, 244.50 180.63, 272.50 182.50 C 281.19 182.84, 275.68 174.56, 276.50 169.50 C 256.99 166.93, 240.22 161.16, 220.50 162.50 Z" fill="rgb(54.83072677092916,46.18951241950322,28.223551057957682)" stroke="rgb(54.83072677092916,46.18951241950322,28.223551057957682)" stroke-width="1" />
<path d="M 23.50 382.50 C -49.26 432.44, 70.42 424.74, 23.50 382.50 Z" fill="rgb(147.0,152.5,111.25)" stroke="rgb(147.0,152.5,111.25)" stroke-width="1" />
<path d="M 1.50 343.50 C -9.63 426.34, 80.75 353.61, 1.50 343.50 Z" fill="rgb(109.13636363636364,116.97727272727273,78.5)" stroke="rgb(109.13636363636364,116.97727272727273,78.5)" stroke-width="1" />
<path d="M 36.50 381.50 C 23.74 382.20, 12.61 386.82, 1.50 391.50 C 1.17 406.61, -4.80 432.95, 15.50 422.50 C 23.64 433.77, 26.20 409.34, 30.50 402.50 C 33.72 396.15, 42.89 385.76, 37.50 381.50 Z" fill="rgb(143.88983050847457,157.3542372881356,106.22372881355932)" stroke="rgb(143.88983050847457,157.3542372881356,106.22372881355932)" stroke-width="1" />
<path d="M 27.50 443.50 C 17.81 447.61, 2.82 456.41, 8.50 469.50 C 18.25 471.13, 28.60 473.11, 36.50 468.50 C 47.94 466.99, 63.50 485.26, 64.50 468.50 C 60.16 462.97, 43.92 437.18, 43.50 453.50 C 34.42 458.48, 34.41 442.82, 28.50 443.50 Z" fill="rgb(176.70759717314488,170.202296819788,139.83833922261485)" stroke="rgb(176.70759717314488,170.202296819788,139.83833922261485)" stroke-width="1" />
<path d="M 62.50 491.50 C 59.52 498.39, 56.29 503.29, 51.50 509.50 C 21.58 505.96, 33.98 514.17, 58.50 511.50 C 79.50 511.50, 99.50 511.50, 119.50 511.50 C 116.93 508.56, 114.33 502.67, 109.50 505.50 C 100.37 489.65, 81.21 495.06, 63.50 491.50 Z" fill="rgb(155.5867537313433,142.77611940298507,95.26119402985074)" stroke="rgb(155.5867537313433,142.77611940298507,95.26119402985074)" stroke-width="1" />
<path d="M 151.50 287.50 C 142.77 293.46, 152.08 311.61, 143.50 307.50 C 138.03 320.89, 150.06 321.98, 160.50 320.50 C 191.14 326.44, 175.06 280.48, 152.50 287.50 Z" fill="rgb(132.10986775178026,128.29501525940998,105.93794506612412)" stroke="rgb(132.10986775178026,128.29501525940998,105.93794506612412)" stroke-width="1" />
<path d="M 169.50 201.50 C 161.97 205.10, 150.22 198.53, 144.50 206.50 C 144.60 227.91, 166.61 226.77, 182.50 232.50 C 180.70 220.29, 189.02 197.07, 170.50 201.50 Z" fill="rgb(66.96029258098224,73.72100313479623,35.05538140020899)" stroke="rgb(66.96029258098224,73.72100313479623,35.05538140020899)" stroke-width="1" />
<path d="M 0.50 137.50 C 1.12 154.09, -5.32 178.40, 16.50 171.50 C 22.53 168.86, 30.72 168.61, 32.50 162.50 C 35.92 142.33, 14.65 139.35, 1.50 137.50 Z" fill="rgb(109.820796460177,122.02433628318585,69.90154867256638)" stroke="rgb(109.820796460177,122.02433628318585,69.90154867256638)" stroke-width="1" />
<path d="M 1.50 343.50 C -0.79 351.02, 1.14 360.29, 0.50 368.50 C -4.80 393.59, 26.00 385.93, 20.50 367.50 C 40.31 353.21, 14.91 345.58, 2.50 343.50 Z" fill="rgb(115.62804171494786,127.954808806489,83.51911935110081)" stroke="rgb(115.62804171494786,127.954808806489,83.51911935110081)" stroke-width="1" />
<path d="M 95.50 293.50 C 83.26 300.39, 73.75 335.47, 99.50 327.50 C 113.18 328.59, 120.74 287.28, 96.50 293.50 Z" fill="rgb(140.74740932642487,137.24481865284974,115.90673575129534)" stroke="rgb(140.74740932642487,137.24481865284974,115.90673575129534)" stroke-width="1" />
<path d="M 63.50 478.50 C 62.23 497.74, 87.51 486.29, 95.50 496.50 C 101.96 490.26, 108.75 497.94, 109.50 503.50 C 121.32 512.57, 141.48 508.98, 118.50 497.50 C 112.77 481.96, 94.26 485.21, 82.50 481.50 C 76.31 480.01, 70.88 478.10, 64.50 478.50 Z" fill="rgb(50.321668909825036,77.07671601615074,22.83849259757739)" stroke="rgb(50.321668909825036,77.07671601615074,22.83849259757739)" stroke-width="1" />
<path d="M 34.50 397.50 C 31.08 407.75, 14.78 430.45, 34.50 432.50 C 66.66 435.12, 51.73 409.42, 35.50 398.50 Z" fill="rgb(182.18126888217523,177.5060422960725,149.2311178247734)" stroke="rgb(182.18126888217523,177.5060422960725,149.2311178247734)" stroke-width="1" />
<path d="M 49.50 154.50 C 30.86 150.37, 32.04 177.84, 49.50 169.50 C 88.34 178.37, 84.54 148.74, 50.50 154.50 Z" fill="rgb(122.0310262529833,138.55608591885442,79.16229116945108)" stroke="rgb(122.0310262529833,138.55608591885442,79.16229116945108)" stroke-width="1" />
<path d="M 215.50 203.50 C 206.46 216.70, 198.89 236.10, 223.50 231.50 C 232.60 217.97, 242.10 198.21, 216.50 203.50 Z" fill="rgb(10.42215088282504,11.47833065810594,5.441412520064206)" stroke="rgb(10.42215088282504,11.47833065810594,5.441412520064206)" stroke-width="1" />
<path d="M 148.50 92.50 C 142.36 117.40, 168.72 122.19, 188.50 124.50 C 177.68 109.32, 166.14 102.70, 149.50 92.50 Z" fill="rgb(181.109756097561,203.71951219512195,121.42276422764228)" stroke="rgb(181.109756097561,203.71951219512195,121.42276422764228)" stroke-width="1" />
<path d="M 21.50 119.50 C 12.16 123.48, -4.81 116.59, 0.50 133.50 C 9.72 143.70, 15.74 129.49, 23.50 142.50 C 34.61 141.55, 42.55 159.52, 35.50 134.50 C 11.44 131.10, 30.24 118.66, 22.50 119.50 Z" fill="rgb(43.08688245315162,75.8381601362862,13.69335604770017)" stroke="rgb(43.08688245315162,75.8381601362862,13.69335604770017)" stroke-width="1" />
<path d="M 131.50 300.50 C 112.69 300.56, 97.36 333.53, 128.50 324.50 C 148.44 327.38, 138.66 307.38, 132.50 300.50 Z" fill="rgb(150.7277397260274,150.68493150684932,122.63356164383562)" stroke="rgb(150.7277397260274,150.68493150684932,122.63356164383562)" stroke-width="1" />
<path d="M 36.50 133.50 C 40.03 140.19, 41.51 147.09, 38.50 154.50 C 48.53 152.91, 56.87 156.29, 65.50 157.50 C 74.84 135.56, 53.41 135.52, 37.50 133.50 Z" fill="rgb(215.75752508361205,218.09030100334448,175.33277591973246)" stroke="rgb(215.75752508361205,218.09030100334448,175.33277591973246)" stroke-width="1" />
<path d="M 155.50 134.50 C 137.66 131.10, 139.76 154.90, 157.50 147.50 C 170.40 145.33, 227.03 144.47, 195.50 140.50 C 181.70 139.79, 168.74 134.23, 156.50 135.50 Z" fill="rgb(60.57903780068729,42.21993127147766,24.324742268041238)" stroke="rgb(60.57903780068729,42.21993127147766,24.324742268041238)" stroke-width="1" />
<path d="M 64.50 456.50 C 56.54 462.17, 67.94 463.66, 65.50 471.50 C 66.78 484.45, 102.82 479.68, 95.50 467.50 C 82.81 465.80, 78.96 453.76, 65.50 456.50 Z" fill="rgb(47.76752136752137,41.03589743589744,21.565811965811967)" stroke="rgb(47.76752136752137,41.03589743589744,21.565811965811967)" stroke-width="1" />
<path d="M 190.50 202.50 C 189.21 212.99, 184.75 241.05, 202.50 230.50 C 211.27 214.73, 217.24 196.35, 191.50 202.50 Z" fill="rgb(11.779541446208112,12.904761904761905,6.582010582010582)" stroke="rgb(11.779541446208112,12.904761904761905,6.582010582010582)" stroke-width="1" />
<path d="M 92.50 404.50 C 80.72 406.00, 49.62 431.39, 77.50 422.50 C 88.21 423.18, 96.17 416.71, 105.50 419.50 C 122.46 420.39, 100.29 404.91, 93.50 404.50 Z" fill="rgb(140.33828996282529,142.8345724907063,141.31412639405204)" stroke="rgb(140.33828996282529,142.8345724907063,141.31412639405204)" stroke-width="1" />
<path d="M 2.50 425.50 C 23.41 464.94, 73.05 440.36, 2.50 425.50 Z" fill="rgb(117.5,114.2,74.51428571428572)" stroke="rgb(117.5,114.2,74.51428571428572)" stroke-width="1" />
<path d="M 173.50 292.50 C 174.61 300.73, 178.89 307.65, 178.50 316.50 C 186.34 324.13, 209.03 316.22, 194.50 305.50 C 196.37 292.29, 185.09 291.27, 174.50 292.50 Z" fill="rgb(83.39065420560748,86.72897196261682,84.44112149532711)" stroke="rgb(83.39065420560748,86.72897196261682,84.44112149532711)" stroke-width="1" />
<path d="M 2.50 425.50 C -6.61 437.22, 16.31 442.93, 23.50 442.50 C 35.36 436.77, 32.51 451.54, 39.50 453.50 C 48.91 443.52, 39.73 432.98, 22.50 432.50 C 14.92 431.58, 10.75 424.82, 3.50 425.50 Z" fill="rgb(56.75894538606403,85.27118644067797,27.365348399246706)" stroke="rgb(56.75894538606403,85.27118644067797,27.365348399246706)" stroke-width="1" />
<path d="M 170.50 361.50 C 168.24 363.63, 164.42 361.98, 161.50 362.50 C 159.64 373.24, 158.10 400.52, 177.50 382.50 C 178.41 375.77, 171.83 365.58, 182.50 367.50 C 197.92 372.95, 181.40 356.04, 171.50 361.50 Z" fill="rgb(38.54365079365079,50.101190476190474,52.676587301587304)" stroke="rgb(38.54365079365079,50.101190476190474,52.676587301587304)" stroke-width="1" />
<path d="M 162.50 165.50 C 86.15 178.72, 208.48 182.17, 162.50 165.50 Z" fill="rgb(55.666666666666664,42.333333333333336,19.666666666666668)" stroke="rgb(55.666666666666664,42.333333333333336,19.666666666666668)" stroke-width="1" />
<path d="M 34.50 354.50 C -7.54 389.61, 66.58 381.45, 34.50 354.50 Z" fill="rgb(72.96969696969697,76.93939393939394,59.484848484848484)" stroke="rgb(72.96969696969697,76.93939393939394,59.484848484848484)" stroke-width="1" />
<path d="M 162.50 165.50 C 153.35 169.97, 127.76 162.20, 137.50 179.50 C 145.32 186.09, 147.32 174.82, 155.50 176.50 C 173.24 181.90, 187.31 162.13, 163.50 165.50 Z" fill="rgb(48.86749482401656,39.16977225672878,25.36231884057971)" stroke="rgb(48.86749482401656,39.16977225672878,25.36231884057971)" stroke-width="1" />
<path d="M 237.50 205.50 C 234.87 214.57, 217.11 236.22, 237.50 233.50 C 255.73 235.00, 250.88 209.21, 238.50 205.50 Z" fill="rgb(11.390756302521009,10.054621848739496,4.2478991596638656)" stroke="rgb(11.390756302521009,10.054621848739496,4.2478991596638656)" stroke-width="1" />
<path d="M 205.50 348.50 C 205.32 358.27, 220.42 402.34, 225.50 370.50 C 231.00 355.48, 215.08 353.96, 206.50 348.50 Z" fill="rgb(99.1951754385965,115.09429824561404,70.83114035087719)" stroke="rgb(99.1951754385965,115.09429824561404,70.83114035087719)" stroke-width="1" />
<path d="M 178.50 253.50 C 166.89 309.75, 212.18 280.00, 178.50 253.50 Z" fill="rgb(52.5,52.888888888888886,49.007936507936506)" stroke="rgb(52.5,52.888888888888886,49.007936507936506)" stroke-width="1" />
<path d="M 172.50 262.50 C 162.35 265.64, 151.19 277.09, 166.50 288.50 C 182.05 292.39, 179.65 266.96, 173.50 262.50 Z" fill="rgb(23.00995024875622,27.064676616915424,16.333333333333332)" stroke="rgb(23.00995024875622,27.064676616915424,16.333333333333332)" stroke-width="1" />
<path d="M 43.50 404.50 C 63.20 446.00, 99.01 392.39, 43.50 404.50 Z" fill="rgb(202.03846153846155,205.7051282051282,204.03846153846155)" stroke="rgb(202.03846153846155,205.7051282051282,204.03846153846155)" stroke-width="1" />
<path d="M 44.50 404.50 C 51.06 410.62, 59.52 435.29, 65.50 418.50 C 97.04 403.06, 61.53 406.58, 45.50 404.50 Z" fill="rgb(247.5354523227384,248.24449877750612,248.01711491442543)" stroke="rgb(247.5354523227384,248.24449877750612,248.01711491442543)" stroke-width="1" />
<path d="M 148.50 93.50 C 135.51 115.91, 178.81 124.64, 170.50 104.50 C 163.41 99.11, 155.11 100.04, 149.50 94.50 Z" fill="rgb(212.3062827225131,226.37696335078533,161.20942408376965)" stroke="rgb(212.3062827225131,226.37696335078533,161.20942408376965)" stroke-width="1" />
<path d="M 107.50 408.50 C 126.40 452.01, 152.24 409.80, 107.50 408.50 Z" fill="rgb(113.825,125.575,123.125)" stroke="rgb(113.825,125.575,123.125)" stroke-width="1" />
<path d="M 106.50 408.50 C 116.88 417.41, 121.45 437.63, 136.50 426.50 C 125.40 424.18, 130.50 401.47, 107.50 408.50 Z" fill="rgb(200.06267806267806,213.40740740740742,214.03988603988603)" stroke="rgb(200.06267806267806,213.40740740740742,214.03988603988603)" stroke-width="1" />
<path d="M 120.50 453.50 C 115.61 466.83, 102.18 472.98, 89.50 478.50 C 105.19 496.81, 119.00 470.96, 121.50 453.50 Z" fill="rgb(4.938524590163935,6.241803278688525,3.6557377049180326)" stroke="rgb(4.938524590163935,6.241803278688525,3.6557377049180326)" stroke-width="1" />
<path d="M 195.50 362.50 C 178.56 368.08, 209.33 388.96, 214.50 380.50 C 206.26 376.00, 210.96 358.95, 196.50 362.50 Z" fill="rgb(101.01234567901234,122.11728395061728,128.26543209876544)" stroke="rgb(101.01234567901234,122.11728395061728,128.26543209876544)" stroke-width="1" />
<path d="M 109.50 287.50 C 106.63 299.28, 121.22 314.28, 130.50 299.50 C 130.30 291.24, 118.29 286.84, 110.50 287.50 Z" fill="rgb(170.55339805825244,179.61165048543688,107.99352750809061)" stroke="rgb(170.55339805825244,179.61165048543688,107.99352750809061)" stroke-width="1" />
<path d="M 22.50 367.50 C 7.92 380.81, 33.46 385.69, 40.50 377.50 C 41.86 366.86, 30.65 367.16, 23.50 367.50 Z" fill="rgb(114.88172043010752,117.82078853046595,102.3584229390681)" stroke="rgb(114.88172043010752,117.82078853046595,102.3584229390681)" stroke-width="1" />
<path d="M 122.50 449.50 C 122.24 458.77, 105.24 483.62, 124.50 477.50 C 118.75 473.67, 141.06 455.21, 123.50 449.50 Z" fill="rgb(50.641114982578394,48.9198606271777,32.01742160278746)" stroke="rgb(50.641114982578394,48.9198606271777,32.01742160278746)" stroke-width="1" />
<path d="M 70.50 154.50 C 59.94 157.09, 59.53 170.60, 71.50 170.50 C 83.72 176.03, 84.19 149.15, 71.50 154.50 Z" fill="rgb(152.89716312056737,164.71985815602838,101.86170212765957)" stroke="rgb(152.89716312056737,164.71985815602838,101.86170212765957)" stroke-width="1" />
<path d="M 226.50 501.50 C 165.34 513.65, 263.55 516.92, 226.50 501.50 Z" fill="rgb(29.591463414634145,57.51219512195122,17.213414634146343)" stroke="rgb(29.591463414634145,57.51219512195122,17.213414634146343)" stroke-width="1" />
<path d="M 142.50 182.50 C 125.52 177.60, 132.66 214.05, 142.50 195.50 C 152.51 212.83, 149.84 183.27, 143.50 182.50 Z" fill="rgb(172.47857142857143,160.93571428571428,111.09285714285714)" stroke="rgb(172.47857142857143,160.93571428571428,111.09285714285714)" stroke-width="1" />
<path d="M 301.50 488.50 C 297.39 493.02, 299.42 500.08, 297.50 505.50 C 307.42 517.60, 320.76 485.61, 302.50 488.50 Z" fill="rgb(45.193548387096776,73.3508064516129,25.31451612903226)" stroke="rgb(45.193548387096776,73.3508064516129,25.31451612903226)" stroke-width="1" />
<path d="M 291.50 186.50 C 288.05 217.97, 330.52 185.67, 291.50 186.50 Z" fill="rgb(136.15686274509804,135.1764705882353,93.0)" stroke="rgb(136.15686274509804,135.1764705882353,93.0)" stroke-width="1" />
<path d="M 169.50 496.50 C 172.64 506.44, 148.78 509.15, 157.50 511.50 C 175.51 515.66, 187.65 504.93, 170.50 496.50 Z" fill="rgb(44.16379310344828,73.43103448275862,23.56896551724138)" stroke="rgb(44.16379310344828,73.43103448275862,23.56896551724138)" stroke-width="1" />
<path d="M 135.50 400.50 C 109.90 422.82, 169.81 416.24, 135.50 400.50 Z" fill="rgb(66.84615384615384,77.1923076923077,74.88461538461539)" stroke="rgb(66.84615384615384,77.1923076923077,74.88461538461539)" stroke-width="1" />
<path d="M 33.50 354.50 C 22.84 363.86, 34.50 367.35, 40.50 371.50 C 39.38 382.70, 52.04 345.34, 34.50 354.50 Z" fill="rgb(120.22666666666667,120.44888888888889,106.66666666666667)" stroke="rgb(120.22666666666667,120.44888888888889,106.66666666666667)" stroke-width="1" />
<path d="M 125.50 242.50 C 105.69 247.55, 138.49 268.59, 136.50 250.50 C 131.25 245.57, 134.35 242.25, 126.50 242.50 Z" fill="rgb(38.407407407407405,46.25,27.041666666666668)" stroke="rgb(38.407407407407405,46.25,27.041666666666668)" stroke-width="1" />
<path d="M 1.50 437.50 C -11.54 470.94, 34.69 440.97, 1.50 437.50 Z" fill="rgb(107.54010695187166,118.7433155080214,78.31550802139037)" stroke="rgb(107.54010695187166,118.7433155080214,78.31550802139037)" stroke-width="1" />
<path d="M 21.50 47.50 C 6.70 53.27, 38.09 60.12, 41.50 54.50 C 40.08 46.67, 29.78 47.28, 22.50 47.50 Z" fill="rgb(92.4059405940594,107.16831683168317,61.99009900990099)" stroke="rgb(92.4059405940594,107.16831683168317,61.99009900990099)" stroke-width="1" />
<path d="M 307.50 437.50 C 276.27 449.61, 336.65 453.74, 307.50 437.50 Z" fill="rgb(45.97872340425532,84.72340425531915,37.4468085106383)" stroke="rgb(45.97872340425532,84.72340425531915,37.4468085106383)" stroke-width="1" />
<path d="M 187.50 254.50 C 184.40 262.35, 186.35 272.79, 186.50 282.50 C 190.63 304.16, 193.10 259.68, 188.50 254.50 Z" fill="rgb(65.85632183908046,69.17241379310344,69.38505747126437)" stroke="rgb(65.85632183908046,69.17241379310344,69.38505747126437)" stroke-width="1" />
<path d="M 249.50 439.50 C 232.13 461.70, 281.27 446.27, 249.50 439.50 Z" fill="rgb(19.027027027027028,49.777027027027025,7.9391891891891895)" stroke="rgb(19.027027027027028,49.777027027027025,7.9391891891891895)" stroke-width="1" />
<path d="M 173.50 383.50 C 132.57 418.94, 183.49 396.05, 173.50 383.50 Z" fill="rgb(59.567567567567565,73.0,60.648648648648646)" stroke="rgb(59.567567567567565,73.0,60.648648648648646)" stroke-width="1" />
<path d="M 135.50 400.50 C 112.34 418.81, 157.74 418.76, 135.50 400.50 Z" fill="rgb(43.686868686868685,47.26262626262626,45.656565656565654)" stroke="rgb(43.686868686868685,47.26262626262626,45.656565656565654)" stroke-width="1" />
<path d="M 157.50 227.50 C 151.95 238.95, 168.21 237.16, 176.50 235.50 C 175.15 227.97, 164.93 228.84, 158.50 227.50 Z" fill="rgb(29.794117647058822,47.59411764705882,18.270588235294117)" stroke="rgb(29.794117647058822,47.59411764705882,18.270588235294117)" stroke-width="1" />
<path d="M 173.50 383.50 C 137.01 413.18, 187.09 391.97, 173.50 383.50 Z" fill="rgb(59.43518518518518,75.49074074074075,56.583333333333336)" stroke="rgb(59.43518518518518,75.49074074074075,56.583333333333336)" stroke-width="1" />
<path d="M 291.50 186.50 C 284.00 212.60, 317.10 189.72, 291.50 186.50 Z" fill="rgb(193.99193548387098,186.90322580645162,154.83064516129033)" stroke="rgb(193.99193548387098,186.90322580645162,154.83064516129033)" stroke-width="1" />
<path d="M 316.50 395.50 C 281.87 400.02, 328.45 414.05, 316.50 395.50 Z" fill="rgb(7.208,15.112,5.848)" stroke="rgb(7.208,15.112,5.848)" stroke-width="1" />
<path d="M 228.50 163.50 C 222.77 193.20, 252.49 163.48, 228.50 163.50 Z" fill="rgb(35.7109375,29.9609375,16.234375)" stroke="rgb(35.7109375,29.9609375,16.234375)" stroke-width="1" />
<path d="M 309.50 438.50 C 284.77 456.07, 332.42 449.67, 309.50 438.50 Z" fill="rgb(31.918032786885245,71.23770491803279,7.090163934426229)" stroke="rgb(31.918032786885245,71.23770491803279,7.090163934426229)" stroke-width="1" />
<path d="M 227.50 500.50 C 216.62 520.39, 257.51 507.49, 227.50 500.50 Z" fill="rgb(39.388429752066116,72.04132231404958,14.024793388429751)" stroke="rgb(39.388429752066116,72.04132231404958,14.024793388429751)" stroke-width="1" />
<path d="M 171.50 495.50 C 157.46 513.48, 196.10 509.93, 171.50 495.50 Z" fill="rgb(60.14035087719298,89.29824561403508,37.675438596491226)" stroke="rgb(60.14035087719298,89.29824561403508,37.675438596491226)" stroke-width="1" />
<path d="M 243.50 455.50 C 226.81 475.83, 270.84 457.72, 243.50 455.50 Z" fill="rgb(18.561904761904763,49.04761904761905,7.447619047619048)" stroke="rgb(18.561904761904763,49.04761904761905,7.447619047619048)" stroke-width="1" />
<path d="M 158.50 0.50 C 159.32 9.67, 157.94 37.83, 162.50 32.50 C 158.93 21.82, 165.79 7.22, 159.50 0.50 Z" fill="rgb(133.73015873015873,152.04761904761904,99.68253968253968)" stroke="rgb(133.73015873015873,152.04761904761904,99.68253968253968)" stroke-width="1" />
<path d="M 103.50 298.50 C 84.58 308.76, 125.18 317.09, 103.50 298.50 Z" fill="rgb(76.35576923076923,75.47115384615384,57.76923076923077)" stroke="rgb(76.35576923076923,75.47115384615384,57.76923076923077)" stroke-width="1" />
<path d="M 178.50 254.50 C 176.29 262.38, 179.67 270.75, 178.50 279.50 C 182.56 297.55, 182.21 259.94, 179.50 254.50 Z" fill="rgb(91.2991452991453,95.76923076923077,94.78632478632478)" stroke="rgb(91.2991452991453,95.76923076923077,94.78632478632478)" stroke-width="1" />
<path d="M 164.50 237.50 C 165.46 257.57, 191.49 244.87, 164.50 237.50 Z" fill="rgb(67.64077669902913,77.62135922330097,63.58252427184466)" stroke="rgb(67.64077669902913,77.62135922330097,63.58252427184466)" stroke-width="1" />
<path d="M 6.50 453.50 C -12.04 477.15, 15.77 467.38, 6.50 453.50 Z" fill="rgb(82.96551724137932,77.97701149425288,48.0)" stroke="rgb(82.96551724137932,77.97701149425288,48.0)" stroke-width="1" />
<path d="M 78.50 308.50 C 57.98 326.90, 88.65 326.31, 78.50 308.50 Z" fill="rgb(109.4326923076923,113.08653846153847,78.00961538461539)" stroke="rgb(109.4326923076923,113.08653846153847,78.00961538461539)" stroke-width="1" />
<path d="M 269.50 457.50 C 238.94 462.15, 290.32 470.40, 269.50 457.50 Z" fill="rgb(24.83695652173913,56.05434782608695,14.804347826086957)" stroke="rgb(24.83695652173913,56.05434782608695,14.804347826086957)" stroke-width="1" />
<path d="M 334.50 436.50 C 320.81 458.18, 354.63 440.38, 334.50 436.50 Z" fill="rgb(28.40449438202247,62.39325842696629,14.865168539325843)" stroke="rgb(28.40449438202247,62.39325842696629,14.865168539325843)" stroke-width="1" />
<path d="M 271.50 442.50 C 266.10 458.77, 300.92 439.23, 271.50 442.50 Z" fill="rgb(47.906976744186046,88.70930232558139,39.74418604651163)" stroke="rgb(47.906976744186046,88.70930232558139,39.74418604651163)" stroke-width="1" />
<path d="M 219.50 163.50 C 215.03 189.45, 238.22 164.90, 219.50 163.50 Z" fill="rgb(34.1505376344086,28.225806451612904,16.172043010752688)" stroke="rgb(34.1505376344086,28.225806451612904,16.172043010752688)" stroke-width="1" />
<path d="M 77.50 325.50 C 55.13 334.64, 97.10 338.01, 77.50 325.50 Z" fill="rgb(162.25581395348837,185.2093023255814,93.72093023255815)" stroke="rgb(162.25581395348837,185.2093023255814,93.72093023255815)" stroke-width="1" />
<path d="M 117.50 458.50 C 111.61 464.58, 115.35 477.56, 106.50 480.50 C 113.67 489.33, 115.68 465.19, 118.50 458.50 Z" fill="rgb(30.647727272727273,32.43181818181818,32.625)" stroke="rgb(30.647727272727273,32.43181818181818,32.625)" stroke-width="1" />
<path d="M 147.50 113.50 C 154.39 127.72, 173.68 112.51, 147.50 113.50 Z" fill="rgb(195.46575342465752,182.3972602739726,149.36986301369862)" stroke="rgb(195.46575342465752,182.3972602739726,149.36986301369862)" stroke-width="1" />
<path d="M 33.50 397.50 C 30.46 413.64, 56.46 406.43, 33.50 397.50 Z" fill="rgb(156.37333333333333,151.49333333333334,135.33333333333334)" stroke="rgb(156.37333333333333,151.49333333333334,135.33333333333334)" stroke-width="1" />
<path d="M 233.50 460.50 C 212.15 473.47, 254.63 463.36, 233.50 460.50 Z" fill="rgb(41.66129032258065,81.14516129032258,33.46774193548387)" stroke="rgb(41.66129032258065,81.14516129032258,33.46774193548387)" stroke-width="1" />
<path d="M 167.50 340.50 C 152.62 352.39, 189.58 343.26, 167.50 340.50 Z" fill="rgb(62.967213114754095,74.32786885245902,44.114754098360656)" stroke="rgb(62.967213114754095,74.32786885245902,44.114754098360656)" stroke-width="1" />
<path d="M 6.50 165.50 C 7.25 181.31, 23.57 168.54, 6.50 165.50 Z" fill="rgb(144.41666666666666,167.58333333333334,88.83333333333333)" stroke="rgb(144.41666666666666,167.58333333333334,88.83333333333333)" stroke-width="1" />
<path d="M 134.50 400.50 C 125.29 415.08, 152.33 404.61, 134.50 400.50 Z" fill="rgb(55.21818181818182,56.127272727272725,53.49090909090909)" stroke="rgb(55.21818181818182,56.127272727272725,53.49090909090909)" stroke-width="1" />
<path d="M 8.50 164.50 C -1.86 176.12, 25.27 172.27, 8.50 164.50 Z" fill="rgb(129.49019607843138,153.2156862745098,71.6078431372549)" stroke="rgb(129.49019607843138,153.2156862745098,71.6078431372549)" stroke-width="1" />
<path d="M 178.50 164.50 C 174.68 183.95, 190.09 168.55, 178.50 164.50 Z" fill="rgb(94.38,90.1,63.64)" stroke="rgb(94.38,90.1,63.64)" stroke-width="1" />
<path d="M 46.50 344.50 C 23.67 350.16, 59.27 350.80, 46.50 344.50 Z" fill="rgb(220.88095238095238,213.76190476190476,180.04761904761904)" stroke="rgb(220.88095238095238,213.76190476190476,180.04761904761904)" stroke-width="1" />
<path d="M 113.50 479.50 C 111.38 491.94, 130.76 477.84, 113.50 479.50 Z" fill="rgb(113.57142857142857,125.54761904761905,84.80952380952381)" stroke="rgb(113.57142857142857,125.54761904761905,84.80952380952381)" stroke-width="1" />
<path d="M 129.50 203.50 C 124.70 216.70, 145.97 202.56, 129.50 203.50 Z" fill="rgb(222.3953488372093,227.25581395348837,198.02325581395348)" stroke="rgb(222.3953488372093,227.25581395348837,198.02325581395348)" stroke-width="1" />
<path d="M 241.50 133.50 C 230.88 144.92, 253.33 141.96, 241.50 133.50 Z" fill="rgb(52.45238095238095,64.21428571428571,58.142857142857146)" stroke="rgb(52.45238095238095,64.21428571428571,58.142857142857146)" stroke-width="1" />
<path d="M 260.50 0.50 C 283.02 15.78, 284.91 11.41, 260.50 0.50 Z" fill="rgb(135.925,145.2,96.875)" stroke="rgb(135.925,145.2,96.875)" stroke-width="1" />
<path d="M 0.50 419.50 C -1.09 432.46, 18.11 419.14, 0.50 419.50 Z" fill="rgb(190.89361702127658,214.68085106382978,126.59574468085107)" stroke="rgb(190.89361702127658,214.68085106382978,126.59574468085107)" stroke-width="1" />
<path d="M 173.50 383.50 C 168.58 394.69, 189.80 383.54, 173.50 383.50 Z" fill="rgb(95.925,106.875,96.225)" stroke="rgb(95.925,106.875,96.225)" stroke-width="1" />
<path d="M 162.50 260.50 C 158.86 273.72, 169.02 270.27, 162.50 260.50 Z" fill="rgb(49.6,48.4,35.2)" stroke="rgb(49.6,48.4,35.2)" stroke-width="1" />
<path d="M 222.50 325.50 C 209.84 330.46, 223.28 334.77, 222.50 325.50 Z" fill="rgb(134.16,154.32,100.8)" stroke="rgb(134.16,154.32,100.8)" stroke-width="1" />
<path d="M 162.50 260.50 C 160.03 275.04, 168.36 269.15, 162.50 260.50 Z" fill="rgb(92.04,89.72,76.44)" stroke="rgb(92.04,89.72,76.44)" stroke-width="1" />
<path d="M 76.50 342.50 C 63.41 346.78, 84.42 349.91, 76.50 342.50 Z" fill="rgb(157.8846153846154,176.69230769230768,96.26923076923077)" stroke="rgb(157.8846153846154,176.69230769230768,96.26923076923077)" stroke-width="1" />
<path d="M 192.50 30.50 C 192.07 40.81, 199.27 35.56, 192.50 30.50 Z" fill="rgb(143.15,152.3,110.05)" stroke="rgb(143.15,152.3,110.05)" stroke-width="1" />
<path d="M 204.50 301.50 C 197.25 307.97, 213.08 305.08, 204.50 301.50 Z" fill="rgb(87.0,83.0,68.85714285714286)" stroke="rgb(87.0,83.0,68.85714285714286)" stroke-width="1" />
</svg>