<svg xmlns="http://www.w3.org/2000/svg" width="341" height="512" viewbox="0 0 341 512">
<path d="M 0.50 0.50 C 0.50 141.83, 0.50 283.17, 0.50 424.50 C -23.60 591.27, 230.82 478.51, 339.50 511.50 C 340.50 370.17, 340.50 228.83, 340.50 87.50 C 364.60 -79.27, 110.18 33.49, 1.50 0.50 Z" fill="rgb(97.16490178643602,105.55743270552098,75.52752404817718)" stroke="rgb(97.16490178643602,105.55743270552098,75.52752404817718)" stroke-width="1" />
<path d="M 249.50 0.50 C 260.93 139.09, 333.92 155.72, 283.50 285.50 C 227.11 330.75, 210.97 377.03, 181.50 378.50 C 121.99 412.12, 114.88 503.05, 200.50 511.50 C 379.14 566.39, 339.92 403.11, 340.50 280.50 C 314.50 182.50, 410.83 -36.83, 250.50 0.50 Z" fill="rgb(78.97804737146159,100.40901213171577,60.14962449451184)" stroke="rgb(78.97804737146159,100.40901213171577,60.14962449451184)" stroke-width="1" />
<path d="M 0.50 0.50 C -33.62 129.27, 67.95 152.01, 98.50 83.50 C 156.97 76.25, 220.14 155.73, 306.50 158.50 C 350.28 160.56, 378.36 -46.37, 266.50 0.50 C 177.50 0.50, 89.50 0.50, 1.50 0.50 Z" fill="rgb(134.32696897374703,154.0397772474145,92.1722354813047)" stroke="rgb(134.32696897374703,154.0397772474145,92.1722354813047)" stroke-width="1" />
<path d="M 333.50 168.50 C 282.37 211.00, 298.30 345.00, 194.50 346.50 C 244.31 371.76, 40.32 445.67, 176.50 508.50 C 257.18 510.83, 379.33 542.39, 340.50 420.50 C 337.47 337.03, 347.03 243.13, 334.50 168.50 Z" fill="rgb(45.06108627929026,69.03816199376946,32.684985778138966)" stroke="rgb(45.06108627929026,69.03816199376946,32.684985778138966)" stroke-width="1" />
<path d="M 137.50 70.50 C -0.89 96.74, 129.47 258.72, 249.50 233.50 C 403.68 155.30, 168.90 159.97, 138.50 70.50 Z" fill="rgb(71.29762924878607,69.82833476149672,44.14995715509854)" stroke="rgb(71.29762924878607,69.82833476149672,44.14995715509854)" stroke-width="1" />
<path d="M 35.50 172.50 C -26.11 185.24, -21.56 472.86, 62.50 336.50 C 77.60 251.87, 168.72 330.73, 155.50 244.50 C 136.50 187.55, 100.15 171.50, 36.50 172.50 Z" fill="rgb(148.90738721902093,169.25951305611795,100.11805014795203)" stroke="rgb(148.90738721902093,169.25951305611795,100.11805014795203)" stroke-width="1" />
<path d="M 162.50 0.50 C 95.07 49.90, 202.56 190.14, 263.50 116.50 C 244.04 81.44, 276.15 -4.35, 216.50 0.50 C 148.55 -13.40, 179.04 94.10, 163.50 0.50 Z" fill="rgb(158.46526772793052,182.25920566007397,102.45055475156778)" stroke="rgb(158.46526772793052,182.25920566007397,102.45055475156778)" stroke-width="1" />
<path d="M 248.50 0.50 C 252.05 49.04, 266.76 200.38, 339.50 153.50 C 340.50 72.15, 367.03 -35.81, 249.50 0.50 Z" fill="rgb(82.1014066077854,115.0259241086032,44.39990186457311)" stroke="rgb(82.1014066077854,115.0259241086032,44.39990186457311)" stroke-width="1" />
<path d="M 232.50 314.50 C 121.69 290.63, -47.79 401.04, 100.50 405.50 C 134.36 450.11, 172.08 355.07, 208.50 369.50 C 114.14 321.50, 247.86 351.36, 233.50 314.50 Z" fill="rgb(106.04178430265387,110.83719179371353,97.94108789760963)" stroke="rgb(106.04178430265387,110.83719179371353,97.94108789760963)" stroke-width="1" />
<path d="M 0.50 0.50 C -24.18 87.82, 39.60 181.97, 78.50 98.50 C 130.25 67.49, 106.80 -30.10, 1.50 0.50 Z" fill="rgb(151.06961957107447,173.81700614290332,96.91690914969286)" stroke="rgb(151.06961957107447,173.81700614290332,96.91690914969286)" stroke-width="1" />
<path d="M 326.50 437.50 C 256.56 434.35, 154.99 470.03, 208.50 511.50 C 278.07 521.81, 386.67 515.01, 327.50 437.50 Z" fill="rgb(30.023755938984745,54.25731432858215,19.04938734683671)" stroke="rgb(30.023755938984745,54.25731432858215,19.04938734683671)" stroke-width="1" />
<path d="M 136.50 70.50 C 35.40 54.91, 84.18 225.47, 128.50 167.50 C 245.20 125.30, 184.33 159.20, 137.50 70.50 Z" fill="rgb(126.54887459807074,121.70996784565916,92.39935691318328)" stroke="rgb(126.54887459807074,121.70996784565916,92.39935691318328)" stroke-width="1" />
<path d="M 49.50 356.50 C 13.22 426.24, 144.01 414.83, 165.50 389.50 C 220.75 335.61, 87.85 381.52, 50.50 356.50 Z" fill="rgb(155.64,166.67151515151514,169.40565656565656)" stroke="rgb(155.64,166.67151515151514,169.40565656565656)" stroke-width="1" />
<path d="M 184.50 235.50 C 92.14 320.50, 351.04 304.79, 184.50 235.50 Z" fill="rgb(59.23033707865169,60.019101123595505,48.742696629213484)" stroke="rgb(59.23033707865169,60.019101123595505,48.742696629213484)" stroke-width="1" />
<path d="M 95.50 420.50 C 53.80 432.67, -8.88 454.92, 30.50 470.50 C 69.80 504.61, 164.14 440.50, 96.50 420.50 Z" fill="rgb(126.62121212121212,123.74675324675324,98.99567099567099)" stroke="rgb(126.62121212121212,123.74675324675324,98.99567099567099)" stroke-width="1" />
<path d="M 194.50 175.50 C 85.54 179.73, 168.39 212.86, 236.50 201.50 C 351.63 213.68, 259.53 168.72, 195.50 175.50 Z" fill="rgb(119.14998421218819,114.01420903062835,77.43005999368488)" stroke="rgb(119.14998421218819,114.01420903062835,77.43005999368488)" stroke-width="1" />
<path d="M 99.50 419.50 C -44.26 445.99, 177.64 512.34, 99.50 419.50 Z" fill="rgb(174.83638068448195,166.32676980778245,143.75761837787155)" stroke="rgb(174.83638068448195,166.32676980778245,143.75761837787155)" stroke-width="1" />
<path d="M 243.50 142.50 C 190.15 135.50, 90.60 168.29, 196.50 163.50 C 254.94 171.91, 348.90 155.28, 244.50 142.50 Z" fill="rgb(146.34173778122576,136.91970519782777,107.98215671062839)" stroke="rgb(146.34173778122576,136.91970519782777,107.98215671062839)" stroke-width="1" />
<path d="M 34.50 470.50 C -53.93 492.98, 56.22 530.29, 75.50 490.50 C 168.84 525.25, 97.02 475.19, 35.50 470.50 Z" fill="rgb(111.70588235294117,119.88235294117646,74.6470588235294)" stroke="rgb(111.70588235294117,119.88235294117646,74.6470588235294)" stroke-width="1" />
<path d="M 241.50 238.50 C 195.69 362.28, 350.37 267.52, 241.50 238.50 Z" fill="rgb(110.2842904603702,129.2985287138111,135.02230659705742)" stroke="rgb(110.2842904603702,129.2985287138111,135.02230659705742)" stroke-width="1" />
<path d="M 33.50 470.50 C -53.05 494.18, 56.02 529.46, 75.50 490.50 C 165.90 525.12, 100.72 476.43, 34.50 470.50 Z" fill="rgb(70.78048780487805,91.46747967479675,39.607723577235774)" stroke="rgb(70.78048780487805,91.46747967479675,39.607723577235774)" stroke-width="1" />
<path d="M 94.50 0.50 C 109.35 135.48, 218.77 -26.45, 94.50 0.50 Z" fill="rgb(138.89159891598916,168.13859852884244,86.6566008517228)" stroke="rgb(138.89159891598916,168.13859852884244,86.6566008517228)" stroke-width="1" />
<path d="M 213.50 238.50 C 140.84 312.45, 303.85 326.29, 213.50 238.50 Z" fill="rgb(22.078277886497066,23.110567514677104,18.71673189823875)" stroke="rgb(22.078277886497066,23.110567514677104,18.71673189823875)" stroke-width="1" />
<path d="M 22.50 118.50 C -29.25 130.97, 10.11 195.11, 56.50 170.50 C 115.28 161.06, 8.87 152.71, 23.50 118.50 Z" fill="rgb(79.31799163179916,105.6276150627615,41.71966527196653)" stroke="rgb(79.31799163179916,105.6276150627615,41.71966527196653)" stroke-width="1" />
<path d="M 36.50 470.50 C -81.35 503.04, 121.95 527.37, 36.50 470.50 Z" fill="rgb(55.70035842293907,84.5168458781362,24.083870967741934)" stroke="rgb(55.70035842293907,84.5168458781362,24.083870967741934)" stroke-width="1" />
<path d="M 35.50 381.50 C -65.25 408.11, 99.87 468.17, 35.50 381.50 Z" fill="rgb(116.84117647058824,120.0,102.04117647058824)" stroke="rgb(116.84117647058824,120.0,102.04117647058824)" stroke-width="1" />
<path d="M 137.50 70.50 C 51.03 89.28, 180.85 172.18, 137.50 70.50 Z" fill="rgb(156.71918259723137,155.2788398154252,139.0573500329598)" stroke="rgb(156.71918259723137,155.2788398154252,139.0573500329598)" stroke-width="1" />
<path d="M 189.50 202.50 C 198.32 285.04, 301.31 184.51, 189.50 202.50 Z" fill="rgb(12.652605459057073,12.399503722084367,6.7245657568238215)" stroke="rgb(12.652605459057073,12.399503722084367,6.7245657568238215)" stroke-width="1" />
<path d="M 1.50 137.50 C 25.10 216.97, 127.78 142.83, 1.50 137.50 Z" fill="rgb(128.08677685950414,144.51859504132233,84.26859504132231)" stroke="rgb(128.08677685950414,144.51859504132233,84.26859504132231)" stroke-width="1" />
<path d="M 12.50 322.50 C -44.53 417.94, 83.93 352.93, 12.50 322.50 Z" fill="rgb(157.4586092715232,171.40066225165563,114.28807947019868)" stroke="rgb(157.4586092715232,171.40066225165563,114.28807947019868)" stroke-width="1" />
<path d="M 148.50 119.50 C 61.10 158.93, 322.92 143.76, 148.50 119.50 Z" fill="rgb(203.1717267552182,194.81593927893738,175.59582542694497)" stroke="rgb(203.1717267552182,194.81593927893738,175.59582542694497)" stroke-width="1" />
<path d="M 0.50 0.50 C -8.41 85.08, 114.31 -7.38, 0.50 0.50 Z" fill="rgb(110.352,135.93466666666666,58.54266666666667)" stroke="rgb(110.352,135.93466666666666,58.54266666666667)" stroke-width="1" />
<path d="M 95.50 293.50 C 58.31 364.26, 199.85 300.47, 95.50 293.50 Z" fill="rgb(142.26315789473685,139.54066985645932,113.04306220095694)" stroke="rgb(142.26315789473685,139.54066985645932,113.04306220095694)" stroke-width="1" />
<path d="M 157.50 289.50 C 108.94 357.90, 266.71 294.37, 157.50 289.50 Z" fill="rgb(77.90366972477064,75.87155963302752,58.96788990825688)" stroke="rgb(77.90366972477064,75.87155963302752,58.96788990825688)" stroke-width="1" />
<path d="M 95.50 99.50 C 70.17 201.21, 146.42 160.30, 95.50 99.50 Z" fill="rgb(99.4235412474849,76.64185110663983,67.59557344064386)" stroke="rgb(99.4235412474849,76.64185110663983,67.59557344064386)" stroke-width="1" />
<path d="M 85.50 81.50 C 46.55 179.96, 114.99 176.04, 85.50 81.50 Z" fill="rgb(176.47757009345796,172.7766355140187,149.60654205607477)" stroke="rgb(176.47757009345796,172.7766355140187,149.60654205607477)" stroke-width="1" />
<path d="M 218.50 162.50 C 117.41 184.34, 378.88 180.11, 218.50 162.50 Z" fill="rgb(55.57142857142857,55.32142857142857,36.5)" stroke="rgb(55.57142857142857,55.32142857142857,36.5)" stroke-width="1" />
<path d="M 219.50 162.50 C 122.02 184.31, 377.11 180.24, 219.50 162.50 Z" fill="rgb(64.60436137071652,54.26168224299065,33.87850467289719)" stroke="rgb(64.60436137071652,54.26168224299065,33.87850467289719)" stroke-width="1" />
<path d="M 23.50 382.50 C -49.26 432.44, 70.42 424.74, 23.50 382.50 Z" fill="rgb(152.8139534883721,170.2325581395349,113.11627906976744)" stroke="rgb(152.8139534883721,170.2325581395349,113.11627906976744)" stroke-width="1" />
<path d="M 1.50 343.50 C -9.63 426.34, 80.75 353.61, 1.50 343.50 Z" fill="rgb(100.00813008130082,109.47154471544715,73.1219512195122)" stroke="rgb(100.00813008130082,109.47154471544715,73.1219512195122)" stroke-width="1" />
<path d="M 36.50 381.50 C -43.57 395.93, 40.41 459.83, 36.50 381.50 Z" fill="rgb(145.5016501650165,159.59735973597358,108.22552255225523)" stroke="rgb(145.5016501650165,159.59735973597358,108.22552255225523)" stroke-width="1" />
<path d="M 27.50 443.50 C -20.01 496.94, 119.41 461.00, 27.50 443.50 Z" fill="rgb(180.4699886749717,175.74065685164214,142.74292185730465)" stroke="rgb(180.4699886749717,175.74065685164214,142.74292185730465)" stroke-width="1" />
<path d="M 62.50 491.50 C -29.61 536.33, 207.80 501.21, 62.50 491.50 Z" fill="rgb(145.9116504854369,136.4135922330097,87.08932038834952)" stroke="rgb(145.9116504854369,136.4135922330097,87.08932038834952)" stroke-width="1" />
<path d="M 151.50 287.50 C 108.93 343.25, 223.39 311.14, 151.50 287.50 Z" fill="rgb(145.02278481012658,141.9518987341772,118.15696202531646)" stroke="rgb(145.02278481012658,141.9518987341772,118.15696202531646)" stroke-width="1" />
<path d="M 169.50 201.50 C 96.17 215.44, 227.22 248.16, 169.50 201.50 Z" fill="rgb(68.23871906841339,74.98544395924309,36.36390101892285)" stroke="rgb(68.23871906841339,74.98544395924309,36.36390101892285)" stroke-width="1" />
<path d="M 0.50 137.50 C -11.59 210.26, 71.65 137.34, 0.50 137.50 Z" fill="rgb(112.69839142091153,124.60991957104558,72.2024128686327)" stroke="rgb(112.69839142091153,124.60991957104558,72.2024128686327)" stroke-width="1" />
<path d="M 1.50 343.50 C -18.36 421.97, 63.64 349.58, 1.50 343.50 Z" fill="rgb(122.4474034620506,135.39547270306258,88.58988015978694)" stroke="rgb(122.4474034620506,135.39547270306258,88.58988015978694)" stroke-width="1" />
<path d="M 95.50 293.50 C 49.31 348.31, 151.04 316.83, 95.50 293.50 Z" fill="rgb(141.9872029250457,137.9981718464351,117.6764168190128)" stroke="rgb(141.9872029250457,137.9981718464351,117.6764168190128)" stroke-width="1" />
<path d="M 63.50 478.50 C 114.44 522.86, 156.65 492.90, 63.50 478.50 Z" fill="rgb(65.95462478184992,87.9022687609075,31.926701570680628)" stroke="rgb(65.95462478184992,87.9022687609075,31.926701570680628)" stroke-width="1" />
<path d="M 34.50 397.50 C -2.26 448.06, 90.32 433.12, 34.50 397.50 Z" fill="rgb(192.16071428571428,188.04285714285714,158.19642857142858)" stroke="rgb(192.16071428571428,188.04285714285714,158.19642857142858)" stroke-width="1" />
<path d="M 49.50 154.50 C 4.91 187.30, 133.22 159.13, 49.50 154.50 Z" fill="rgb(124.8422619047619,140.54166666666666,81.95833333333333)" stroke="rgb(124.8422619047619,140.54166666666666,81.95833333333333)" stroke-width="1" />
<path d="M 215.50 203.50 C 178.82 258.92, 270.12 207.14, 215.50 203.50 Z" fill="rgb(10.221294363256785,11.549060542797495,5.250521920668058)" stroke="rgb(10.221294363256785,11.549060542797495,5.250521920668058)" stroke-width="1" />
<path d="M 148.50 92.50 C 159.19 145.32, 212.80 114.20, 148.50 92.50 Z" fill="rgb(177.98723404255318,200.4255319148936,121.28936170212766)" stroke="rgb(177.98723404255318,200.4255319148936,121.28936170212766)" stroke-width="1" />
<path d="M 21.50 119.50 C -24.58 144.59, 73.96 155.11, 21.50 119.50 Z" fill="rgb(64.48,94.41684210526316,32.70315789473684)" stroke="rgb(64.48,94.41684210526316,32.70315789473684)" stroke-width="1" />
<path d="M 131.50 300.50 C 71.90 317.33, 163.12 344.11, 131.50 300.50 Z" fill="rgb(158.64117647058825,159.3764705882353,130.41176470588235)" stroke="rgb(158.64117647058825,159.3764705882353,130.41176470588235)" stroke-width="1" />
<path d="M 36.50 133.50 C 38.48 184.96, 98.98 131.09, 36.50 133.50 Z" fill="rgb(208.98487712665406,212.86767485822307,167.64272211720228)" stroke="rgb(208.98487712665406,212.86767485822307,167.64272211720228)" stroke-width="1" />
<path d="M 155.50 134.50 C 127.74 161.22, 264.04 137.12, 155.50 134.50 Z" fill="rgb(83.33870967741936,60.09879032258065,37.66935483870968)" stroke="rgb(83.33870967741936,60.09879032258065,37.66935483870968)" stroke-width="1" />
<path d="M 64.50 456.50 C 58.03 502.24, 128.57 460.84, 64.50 456.50 Z" fill="rgb(55.53526970954357,47.95228215767635,29.217842323651453)" stroke="rgb(55.53526970954357,47.95228215767635,29.217842323651453)" stroke-width="1" />
<path d="M 190.50 202.50 C 173.76 264.29, 241.48 197.17, 190.50 202.50 Z" fill="rgb(11.883534136546185,13.130522088353414,6.650602409638554)" stroke="rgb(11.883534136546185,13.130522088353414,6.650602409638554)" stroke-width="1" />
<path d="M 92.50 404.50 C 13.42 431.82, 153.03 425.16, 92.50 404.50 Z" fill="rgb(145.31650485436893,147.4135922330097,145.21941747572816)" stroke="rgb(145.31650485436893,147.4135922330097,145.21941747572816)" stroke-width="1" />
<path d="M 2.50 425.50 C 23.41 464.94, 73.05 440.36, 2.50 425.50 Z" fill="rgb(46.666666666666664,84.0,7.333333333333333)" stroke="rgb(46.666666666666664,84.0,7.333333333333333)" stroke-width="1" />
<path d="M 173.50 292.50 C 174.46 348.66, 223.63 293.82, 173.50 292.50 Z" fill="rgb(83.47084233261339,86.73434125269978,84.99352051835854)" stroke="rgb(83.47084233261339,86.73434125269978,84.99352051835854)" stroke-width="1" />
<path d="M 2.50 425.50 C 23.20 464.78, 73.71 440.41, 2.50 425.50 Z" fill="rgb(57.92565947242206,83.1199040767386,28.06474820143885)" stroke="rgb(57.92565947242206,83.1199040767386,28.06474820143885)" stroke-width="1" />
<path d="M 170.50 361.50 C 127.94 402.77, 219.77 367.16, 170.50 361.50 Z" fill="rgb(40.981675392670155,55.31937172774869,50.59947643979058)" stroke="rgb(40.981675392670155,55.31937172774869,50.59947643979058)" stroke-width="1" />
<path d="M 162.50 165.50 C 86.15 178.72, 208.48 182.17, 162.50 165.50 Z" fill="rgb(42.375,34.25,18.5)" stroke="rgb(42.375,34.25,18.5)" stroke-width="1" />
<path d="M 34.50 354.50 C -7.54 389.61, 66.58 381.45, 34.50 354.50 Z" fill="rgb(98.73015873015873,102.12698412698413,86.80952380952381)" stroke="rgb(98.73015873015873,102.12698412698413,86.80952380952381)" stroke-width="1" />
<path d="M 162.50 165.50 C 87.01 178.18, 205.84 182.91, 162.50 165.50 Z" fill="rgb(42.259375,31.884375,19.434375)" stroke="rgb(42.259375,31.884375,19.434375)" stroke-width="1" />
<path d="M 237.50 205.50 C 203.83 246.00, 275.59 233.02, 237.50 205.50 Z" fill="rgb(12.252475247524753,10.626237623762377,4.341584158415841)" stroke="rgb(12.252475247524753,10.626237623762377,4.341584158415841)" stroke-width="1" />
<path d="M 205.50 348.50 C 204.19 400.54, 250.36 366.64, 205.50 348.50 Z" fill="rgb(102.57631578947368,118.99736842105263,74.41578947368421)" stroke="rgb(102.57631578947368,118.99736842105263,74.41578947368421)" stroke-width="1" />
<path d="M 178.50 253.50 C 166.89 309.75, 212.18 280.00, 178.50 253.50 Z" fill="rgb(58.705882352941174,59.411764705882355,55.55555555555556)" stroke="rgb(58.705882352941174,59.411764705882355,55.55555555555556)" stroke-width="1" />
<path d="M 172.50 262.50 C 133.88 275.12, 194.90 303.97, 172.50 262.50 Z" fill="rgb(18.85573770491803,21.04590163934426,12.747540983606557)" stroke="rgb(18.85573770491803,21.04590163934426,12.747540983606557)" stroke-width="1" />
<path d="M 43.50 404.50 C 63.20 446.00, 99.01 392.39, 43.50 404.50 Z" fill="rgb(209.8,208.4,204.0)" stroke="rgb(209.8,208.4,204.0)" stroke-width="1" />
<path d="M 44.50 404.50 C 62.16 446.40, 100.15 391.82, 44.50 404.50 Z" fill="rgb(240.52380952380952,241.83333333333334,241.52619047619046)" stroke="rgb(240.52380952380952,241.83333333333334,241.52619047619046)" stroke-width="1" />
<path d="M 148.50 93.50 C 143.71 134.63, 196.92 104.77, 148.50 93.50 Z" fill="rgb(208.11641791044775,223.6089552238806,155.30447761194029)" stroke="rgb(208.11641791044775,223.6089552238806,155.30447761194029)" stroke-width="1" />
<path d="M 107.50 408.50 C 126.40 452.01, 152.24 409.80, 107.50 408.50 Z" fill="rgb(140.75,155.9375,145.9375)" stroke="rgb(140.75,155.9375,145.9375)" stroke-width="1" />
<path d="M 106.50 408.50 C 129.43 451.72, 149.98 408.19, 106.50 408.50 Z" fill="rgb(193.68454258675078,206.70031545741324,208.0)" stroke="rgb(193.68454258675078,206.70031545741324,208.0)" stroke-width="1" />
<path d="M 120.50 453.50 C 75.32 482.56, 109.96 499.26, 120.50 453.50 Z" fill="rgb(28.952789699570815,28.40343347639485,22.759656652360515)" stroke="rgb(28.952789699570815,28.40343347639485,22.759656652360515)" stroke-width="1" />
<path d="M 195.50 362.50 C 183.96 391.89, 238.62 377.12, 195.50 362.50 Z" fill="rgb(106.29959514170041,127.71255060728745,131.75708502024293)" stroke="rgb(106.29959514170041,127.71255060728745,131.75708502024293)" stroke-width="1" />
<path d="M 109.50 287.50 C 108.98 324.43, 150.73 287.58, 109.50 287.50 Z" fill="rgb(177.13671875,186.95703125,110.9609375)" stroke="rgb(177.13671875,186.95703125,110.9609375)" stroke-width="1" />
<path d="M 22.50 367.50 C 7.91 398.73, 66.55 366.03, 22.50 367.50 Z" fill="rgb(111.44186046511628,114.6046511627907,99.51627906976744)" stroke="rgb(111.44186046511628,114.6046511627907,99.51627906976744)" stroke-width="1" />
<path d="M 122.50 449.50 C 100.29 491.70, 143.15 474.77, 122.50 449.50 Z" fill="rgb(51.81327800829875,49.53941908713693,33.58091286307054)" stroke="rgb(51.81327800829875,49.53941908713693,33.58091286307054)" stroke-width="1" />
<path d="M 70.50 154.50 C 42.08 178.76, 105.34 166.80, 70.50 154.50 Z" fill="rgb(156.94554455445544,171.55940594059405,105.3019801980198)" stroke="rgb(156.94554455445544,171.55940594059405,105.3019801980198)" stroke-width="1" />
<path d="M 226.50 501.50 C 165.34 513.65, 263.55 516.92, 226.50 501.50 Z" fill="rgb(29.591463414634145,57.51219512195122,17.213414634146343)" stroke="rgb(29.591463414634145,57.51219512195122,17.213414634146343)" stroke-width="1" />
<path d="M 142.50 182.50 C 110.41 200.07, 170.05 208.48, 142.50 182.50 Z" fill="rgb(174.44748858447488,163.54337899543378,112.58447488584476)" stroke="rgb(174.44748858447488,163.54337899543378,112.58447488584476)" stroke-width="1" />
<path d="M 301.50 488.50 C 283.62 525.56, 331.13 494.58, 301.50 488.50 Z" fill="rgb(42.857142857142854,71.5,23.442857142857143)" stroke="rgb(42.857142857142854,71.5,23.442857142857143)" stroke-width="1" />
<path d="M 291.50 186.50 C 288.05 217.97, 330.52 185.67, 291.50 186.50 Z" fill="rgb(136.15686274509804,135.1764705882353,93.0)" stroke="rgb(136.15686274509804,135.1764705882353,93.0)" stroke-width="1" />
<path d="M 169.50 496.50 C 131.48 519.98, 199.90 513.67, 169.50 496.50 Z" fill="rgb(46.4054054054054,68.35810810810811,28.736486486486488)" stroke="rgb(46.4054054054054,68.35810810810811,28.736486486486488)" stroke-width="1" />
<path d="M 135.50 400.50 C 109.90 422.82, 169.81 416.24, 135.50 400.50 Z" fill="rgb(66.84615384615384,77.1923076923077,74.88461538461539)" stroke="rgb(66.84615384615384,77.1923076923077,74.88461538461539)" stroke-width="1" />
<path d="M 33.50 354.50 C 23.24 387.10, 62.80 362.76, 33.50 354.50 Z" fill="rgb(121.22651933701657,121.50276243093923,108.61878453038673)" stroke="rgb(121.22651933701657,121.50276243093923,108.61878453038673)" stroke-width="1" />
<path d="M 125.50 242.50 C 105.56 264.07, 157.80 254.01, 125.50 242.50 Z" fill="rgb(28.682926829268293,35.823170731707314,19.054878048780488)" stroke="rgb(28.682926829268293,35.823170731707314,19.054878048780488)" stroke-width="1" />
<path d="M 1.50 437.50 C -11.54 470.94, 34.69 440.97, 1.50 437.50 Z" fill="rgb(107.54010695187166,118.7433155080214,78.31550802139037)" stroke="rgb(107.54010695187166,118.7433155080214,78.31550802139037)" stroke-width="1" />
<path d="M 21.50 47.50 C 12.77 66.10, 66.05 47.76, 21.50 47.50 Z" fill="rgb(88.83892617449665,104.2751677852349,59.50335570469799)" stroke="rgb(88.83892617449665,104.2751677852349,59.50335570469799)" stroke-width="1" />
<path d="M 307.50 437.50 C 276.27 449.61, 336.65 453.74, 307.50 437.50 Z" fill="rgb(45.97872340425532,84.72340425531915,37.4468085106383)" stroke="rgb(45.97872340425532,84.72340425531915,37.4468085106383)" stroke-width="1" />
<path d="M 187.50 254.50 C 179.58 295.55, 198.52 289.75, 187.50 254.50 Z" fill="rgb(61.725352112676056,65.14084507042253,65.6830985915493)" stroke="rgb(61.725352112676056,65.14084507042253,65.6830985915493)" stroke-width="1" />
<path d="M 249.50 439.50 C 232.13 461.70, 281.27 446.27, 249.50 439.50 Z" fill="rgb(19.027027027027028,49.777027027027025,7.9391891891891895)" stroke="rgb(19.027027027027028,49.777027027027025,7.9391891891891895)" stroke-width="1" />
<path d="M 173.50 383.50 C 132.57 418.94, 183.49 396.05, 173.50 383.50 Z" fill="rgb(59.567567567567565,73.0,60.648648648648646)" stroke="rgb(59.567567567567565,73.0,60.648648648648646)" stroke-width="1" />
<path d="M 135.50 400.50 C 112.34 418.81, 157.74 418.76, 135.50 400.50 Z" fill="rgb(43.686868686868685,47.26262626262626,45.656565656565654)" stroke="rgb(43.686868686868685,47.26262626262626,45.656565656565654)" stroke-width="1" />
<path d="M 157.50 227.50 C 158.00 249.26, 193.86 225.88, 157.50 227.50 Z" fill="rgb(29.971830985915492,48.147887323943664,17.711267605633804)" stroke="rgb(29.971830985915492,48.147887323943664,17.711267605633804)" stroke-width="1" />
<path d="M 173.50 383.50 C 137.01 413.18, 187.09 391.97, 173.50 383.50 Z" fill="rgb(59.43518518518518,75.49074074074075,56.583333333333336)" stroke="rgb(59.43518518518518,75.49074074074075,56.583333333333336)" stroke-width="1" />
<path d="M 291.50 186.50 C 284.00 212.60, 317.10 189.72, 291.50 186.50 Z" fill="rgb(193.99193548387098,186.90322580645162,154.83064516129033)" stroke="rgb(193.99193548387098,186.90322580645162,154.83064516129033)" stroke-width="1" />
<path d="M 316.50 395.50 C 281.87 400.02, 328.45 414.05, 316.50 395.50 Z" fill="rgb(7.208,15.112,5.848)" stroke="rgb(7.208,15.112,5.848)" stroke-width="1" />
<path d="M 228.50 163.50 C 222.77 193.20, 252.49 163.48, 228.50 163.50 Z" fill="rgb(35.7109375,29.9609375,16.234375)" stroke="rgb(35.7109375,29.9609375,16.234375)" stroke-width="1" />
<path d="M 309.50 438.50 C 284.77 456.07, 332.42 449.67, 309.50 438.50 Z" fill="rgb(31.918032786885245,71.23770491803279,7.090163934426229)" stroke="rgb(31.918032786885245,71.23770491803279,7.090163934426229)" stroke-width="1" />
<path d="M 227.50 500.50 C 216.62 520.39, 257.51 507.49, 227.50 500.50 Z" fill="rgb(39.388429752066116,72.04132231404958,14.024793388429751)" stroke="rgb(39.388429752066116,72.04132231404958,14.024793388429751)" stroke-width="1" />
<path d="M 171.50 495.50 C 157.46 513.48, 196.10 509.93, 171.50 495.50 Z" fill="rgb(60.14035087719298,89.29824561403508,37.675438596491226)" stroke="rgb(60.14035087719298,89.29824561403508,37.675438596491226)" stroke-width="1" />
<path d="M 243.50 455.50 C 226.81 475.83, 270.84 457.72, 243.50 455.50 Z" fill="rgb(18.561904761904763,49.04761904761905,7.447619047619048)" stroke="rgb(18.561904761904763,49.04761904761905,7.447619047619048)" stroke-width="1" />
<path d="M 158.50 0.50 C 156.51 44.14, 167.99 30.42, 158.50 0.50 Z" fill="rgb(136.32,154.81,100.98)" stroke="rgb(136.32,154.81,100.98)" stroke-width="1" />
<path d="M 103.50 298.50 C 84.58 308.76, 125.18 317.09, 103.50 298.50 Z" fill="rgb(76.35576923076923,75.47115384615384,57.76923076923077)" stroke="rgb(76.35576923076923,75.47115384615384,57.76923076923077)" stroke-width="1" />
<path d="M 178.50 254.50 C 174.67 292.05, 187.01 285.41, 178.50 254.50 Z" fill="rgb(88.6082474226804,93.0721649484536,91.88659793814433)" stroke="rgb(88.6082474226804,93.0721649484536,91.88659793814433)" stroke-width="1" />
<path d="M 164.50 237.50 C 165.46 257.57, 191.49 244.87, 164.50 237.50 Z" fill="rgb(67.64077669902913,77.62135922330097,63.58252427184466)" stroke="rgb(67.64077669902913,77.62135922330097,63.58252427184466)" stroke-width="1" />
<path d="M 6.50 453.50 C -12.04 477.15, 15.77 467.38, 6.50 453.50 Z" fill="rgb(82.96551724137932,77.97701149425288,48.0)" stroke="rgb(82.96551724137932,77.97701149425288,48.0)" stroke-width="1" />
<path d="M 78.50 308.50 C 57.98 326.90, 88.65 326.31, 78.50 308.50 Z" fill="rgb(109.4326923076923,113.08653846153847,78.00961538461539)" stroke="rgb(109.4326923076923,113.08653846153847,78.00961538461539)" stroke-width="1" />
<path d="M 269.50 457.50 C 238.94 462.15, 290.32 470.40, 269.50 457.50 Z" fill="rgb(24.83695652173913,56.05434782608695,14.804347826086957)" stroke="rgb(24.83695652173913,56.05434782608695,14.804347826086957)" stroke-width="1" />
<path d="M 334.50 436.50 C 320.81 458.18, 354.63 440.38, 334.50 436.50 Z" fill="rgb(28.40449438202247,62.39325842696629,14.865168539325843)" stroke="rgb(28.40449438202247,62.39325842696629,14.865168539325843)" stroke-width="1" />
<path d="M 271.50 442.50 C 266.10 458.77, 300.92 439.23, 271.50 442.50 Z" fill="rgb(47.906976744186046,88.70930232558139,39.74418604651163)" stroke="rgb(47.906976744186046,88.70930232558139,39.74418604651163)" stroke-width="1" />
<path d="M 219.50 163.50 C 215.03 189.45, 238.22 164.90, 219.50 163.50 Z" fill="rgb(34.1505376344086,28.225806451612904,16.172043010752688)" stroke="rgb(34.1505376344086,28.225806451612904,16.172043010752688)" stroke-width="1" />
<path d="M 77.50 325.50 C 55.13 334.64, 97.10 338.01, 77.50 325.50 Z" fill="rgb(162.25581395348837,185.2093023255814,93.72093023255815)" stroke="rgb(162.25581395348837,185.2093023255814,93.72093023255815)" stroke-width="1" />
<path d="M 117.50 458.50 C 102.24 487.50, 113.38 486.33, 117.50 458.50 Z" fill="rgb(19.944444444444443,21.73611111111111,22.36111111111111)" stroke="rgb(19.944444444444443,21.73611111111111,22.36111111111111)" stroke-width="1" />
<path d="M 147.50 113.50 C 154.39 127.72, 173.68 112.51, 147.50 113.50 Z" fill="rgb(195.46575342465752,182.3972602739726,149.36986301369862)" stroke="rgb(195.46575342465752,182.3972602739726,149.36986301369862)" stroke-width="1" />
<path d="M 33.50 397.50 C 30.46 413.64, 56.46 406.43, 33.50 397.50 Z" fill="rgb(156.37333333333333,151.49333333333334,135.33333333333334)" stroke="rgb(156.37333333333333,151.49333333333334,135.33333333333334)" stroke-width="1" />
<path d="M 233.50 460.50 C 212.15 473.47, 254.63 463.36, 233.50 460.50 Z" fill="rgb(41.66129032258065,81.14516129032258,33.46774193548387)" stroke="rgb(41.66129032258065,81.14516129032258,33.46774193548387)" stroke-width="1" />
<path d="M 167.50 340.50 C 152.62 352.39, 189.58 343.26, 167.50 340.50 Z" fill="rgb(62.967213114754095,74.32786885245902,44.114754098360656)" stroke="rgb(62.967213114754095,74.32786885245902,44.114754098360656)" stroke-width="1" />
<path d="M 6.50 165.50 C 7.25 181.31, 23.57 168.54, 6.50 165.50 Z" fill="rgb(144.41666666666666,167.58333333333334,88.83333333333333)" stroke="rgb(144.41666666666666,167.58333333333334,88.83333333333333)" stroke-width="1" />
<path d="M 134.50 400.50 C 125.29 415.08, 152.33 404.61, 134.50 400.50 Z" fill="rgb(55.21818181818182,56.127272727272725,53.49090909090909)" stroke="rgb(55.21818181818182,56.127272727272725,53.49090909090909)" stroke-width="1" />
<path d="M 8.50 164.50 C -1.86 176.12, 25.27 172.27, 8.50 164.50 Z" fill="rgb(129.49019607843138,153.2156862745098,71.6078431372549)" stroke="rgb(129.49019607843138,153.2156862745098,71.6078431372549)" stroke-width="1" />
<path d="M 178.50 164.50 C 174.68 183.95, 190.09 168.55, 178.50 164.50 Z" fill="rgb(94.38,90.1,63.64)" stroke="rgb(94.38,90.1,63.64)" stroke-width="1" />
<path d="M 46.50 344.50 C 23.67 350.16, 59.27 350.80, 46.50 344.50 Z" fill="rgb(220.88095238095238,213.76190476190476,180.04761904761904)" stroke="rgb(220.88095238095238,213.76190476190476,180.04761904761904)" stroke-width="1" />
<path d="M 113.50 479.50 C 111.38 491.94, 130.76 477.84, 113.50 479.50 Z" fill="rgb(113.57142857142857,125.54761904761905,84.80952380952381)" stroke="rgb(113.57142857142857,125.54761904761905,84.80952380952381)" stroke-width="1" />
<path d="M 129.50 203.50 C 124.70 216.70, 145.97 202.56, 129.50 203.50 Z" fill="rgb(222.3953488372093,227.25581395348837,198.02325581395348)" stroke="rgb(222.3953488372093,227.25581395348837,198.02325581395348)" stroke-width="1" />
<path d="M 241.50 133.50 C 230.88 144.92, 253.33 141.96, 241.50 133.50 Z" fill="rgb(52.45238095238095,64.21428571428571,58.142857142857146)" stroke="rgb(52.45238095238095,64.21428571428571,58.142857142857146)" stroke-width="1" />
<path d="M 260.50 0.50 C 283.02 15.78, 284.91 11.41, 260.50 0.50 Z" fill="rgb(135.925,145.2,96.875)" stroke="rgb(135.925,145.2,96.875)" stroke-width="1" />
<path d="M 0.50 419.50 C -1.09 432.46, 18.11 419.14, 0.50 419.50 Z" fill="rgb(190.89361702127658,214.68085106382978,126.59574468085107)" stroke="rgb(190.89361702127658,214.68085106382978,126.59574468085107)" stroke-width="1" />
<path d="M 173.50 383.50 C 168.58 394.69, 189.80 383.54, 173.50 383.50 Z" fill="rgb(95.925,106.875,96.225)" stroke="rgb(95.925,106.875,96.225)" stroke-width="1" />
<path d="M 162.50 260.50 C 158.86 273.72, 169.02 270.27, 162.50 260.50 Z" fill="rgb(49.6,48.4,35.2)" stroke="rgb(49.6,48.4,35.2)" stroke-width="1" />
<path d="M 222.50 325.50 C 209.84 330.46, 223.28 334.77, 222.50 325.50 Z" fill="rgb(134.16,154.32,100.8)" stroke="rgb(134.16,154.32,100.8)" stroke-width="1" />
<path d="M 162.50 260.50 C 160.03 275.04, 168.36 269.15, 162.50 260.50 Z" fill="rgb(92.04,89.72,76.44)" stroke="rgb(92.04,89.72,76.44)" stroke-width="1" />
<path d="M 76.50 342.50 C 63.41 346.78, 84.42 349.91, 76.50 342.50 Z" fill="rgb(157.8846153846154,176.69230769230768,96.26923076923077)" stroke="rgb(157.8846153846154,176.69230769230768,96.26923076923077)" stroke-width="1" />
<path d="M 192.50 30.50 C 192.07 40.81, 199.27 35.56, 192.50 30.50 Z" fill="rgb(143.15,152.3,110.05)" stroke="rgb(143.15,152.3,110.05)" stroke-width="1" />
<path d="M 204.50 301.50 C 197.25 307.97, 213.08 305.08, 204.50 301.50 Z" fill="rgb(87.0,83.0,68.85714285714286)" stroke="rgb(87.0,83.0,68.85714285714286)" stroke-width="1" />
</svg>