<svg xmlns="http://www.w3.org/2000/svg" width="341" height="512" viewbox="0 0 341 512">
<path d="M 0.50 0.50 C 0.50 169.50, 0.50 338.50, 0.50 507.50 C 482.40 739.61, 492.07 -221.59, 1.50 0.50 Z" fill="rgb(93.17910236443437,102.20586153192694,71.08424182358772)" stroke="rgb(93.17910236443437,102.20586153192694,71.08424182358772)" stroke-width="1" />
<path d="M 249.50 0.50 C 274.38 46.96, 247.30 130.24, 302.50 149.50 C 308.14 165.49, 301.51 169.48, 290.50 173.50 C 285.15 176.40, 298.07 182.16, 307.50 185.50 C 317.80 197.33, 305.93 207.38, 295.50 208.50 C 298.28 218.42, 291.36 231.86, 298.50 239.50 C 293.31 247.60, 289.08 257.63, 282.50 265.50 C 288.17 283.01, 276.32 295.22, 271.50 311.50 C 209.55 372.29, 123.04 380.65, 150.50 490.50 C 301.07 573.64, 381.62 467.59, 340.50 307.50 C 340.50 273.83, 340.50 241.17, 340.50 208.50 C 340.50 191.50, 340.50 175.50, 340.50 159.50 C 340.50 142.17, 340.50 125.83, 340.50 109.50 C 352.47 30.53, 340.63 -23.63, 250.50 0.50 Z" fill="rgb(69.08195020746888,94.23340248962656,44.27697095435685)" stroke="rgb(69.08195020746888,94.23340248962656,44.27697095435685)" stroke-width="1" />
<path d="M 0.50 0.50 C 0.50 12.50, 0.50 24.50, 0.50 36.50 C 0.50 47.50, 0.50 57.50, 0.50 67.50 C 0.50 78.50, 0.50 88.50, 0.50 98.50 C -3.34 116.30, 7.60 122.62, 22.50 117.50 C 33.30 115.66, 25.66 129.08, 32.50 128.50 C 44.61 133.42, 59.08 134.40, 64.50 123.50 C 78.05 114.13, 73.94 95.86, 80.50 82.50 C 91.81 71.04, 97.74 99.13, 98.50 83.50 C 102.70 71.58, 113.55 70.12, 124.50 69.50 C 166.00 56.29, 135.41 109.50, 158.50 113.50 C 492.83 233.80, 293.79 -119.35, 1.50 0.50 Z" fill="rgb(162.39625260235948,178.38653712699514,111.43927827897294)" stroke="rgb(162.39625260235948,178.38653712699514,111.43927827897294)" stroke-width="1" />
<path d="M 333.50 168.50 C 330.19 171.11, 322.02 173.50, 328.50 175.50 C 327.07 184.28, 317.10 180.65, 314.50 187.50 C 319.37 201.43, 303.77 206.47, 298.50 212.50 C 293.52 226.26, 304.56 242.53, 292.50 250.50 C 289.72 260.50, 274.22 269.83, 285.50 279.50 C 280.91 290.12, 275.87 299.96, 272.50 310.50 C 263.72 320.80, 250.85 320.66, 243.50 331.50 C 236.30 334.73, 229.04 338.87, 222.50 334.50 C 218.53 334.70, 207.36 340.73, 198.50 340.50 C 194.57 342.72, 192.71 348.31, 197.50 347.50 C 207.25 352.38, 222.93 388.51, 198.50 380.50 C 192.84 375.84, 186.38 370.08, 179.50 371.50 C 185.70 389.95, 162.13 389.48, 156.50 405.50 C 147.08 415.29, 136.49 418.68, 136.50 430.50 C 128.03 434.53, 120.09 443.88, 127.50 450.50 C 134.82 455.10, 131.84 462.56, 132.50 468.50 C 129.73 481.80, 143.27 481.00, 147.50 491.50 C 158.07 502.43, 169.26 505.29, 179.50 511.50 C 232.50 511.50, 284.50 511.50, 336.50 511.50 C 344.39 500.39, 338.58 476.58, 340.50 460.50 C 340.50 441.50, 340.50 423.50, 340.50 405.50 C 340.50 395.83, 340.50 387.17, 340.50 378.50 C 340.50 368.50, 340.50 359.50, 340.50 350.50 C 340.50 340.50, 340.50 331.50, 340.50 322.50 C 340.50 312.50, 340.50 303.50, 340.50 294.50 C 340.50 283.17, 340.50 272.83, 340.50 262.50 C 340.50 257.83, 340.50 254.17, 340.50 250.50 C 340.50 243.17, 340.50 236.83, 340.50 230.50 C 338.39 214.90, 340.01 198.76, 339.50 183.50 C 338.63 177.55, 342.39 166.95, 334.50 168.50 Z" fill="rgb(45.38117489986649,69.29973297730307,32.65720961281709)" stroke="rgb(45.38117489986649,69.29973297730307,32.65720961281709)" stroke-width="1" />
<path d="M 137.50 70.50 C 128.96 72.13, 119.82 72.34, 111.50 74.50 C 100.69 78.59, 111.31 100.95, 93.50 94.50 C 80.90 73.87, 80.78 106.84, 78.50 116.50 C 59.32 142.44, 79.28 170.67, 106.50 177.50 C 110.36 191.60, 129.52 178.16, 132.50 192.50 C 133.78 203.79, 140.92 195.78, 146.50 200.50 C 137.96 222.27, 165.60 230.01, 181.50 233.50 C 204.99 231.95, 228.93 236.45, 251.50 232.50 C 261.83 232.50, 271.17 232.50, 280.50 232.50 C 293.16 228.98, 280.97 213.71, 287.50 207.50 C 295.32 204.19, 308.81 203.41, 303.50 192.50 C 297.12 185.43, 268.14 185.34, 283.50 171.50 C 289.65 166.46, 304.55 165.41, 296.50 156.50 C 287.14 140.05, 250.76 143.91, 230.50 141.50 C 215.41 143.07, 212.88 129.04, 199.50 129.50 C 153.39 133.18, 147.14 100.36, 138.50 70.50 Z" fill="rgb(49.82791185729276,46.58604407135362,32.2292759706191)" stroke="rgb(49.82791185729276,46.58604407135362,32.2292759706191)" stroke-width="1" />
<path d="M 35.50 172.50 C 26.60 176.40, 12.73 173.25, 3.50 175.50 C 0.28 179.19, 2.44 184.70, 0.50 188.50 C 0.50 197.83, 0.50 206.17, 0.50 214.50 C 0.50 224.17, 0.50 232.83, 0.50 241.50 C 0.50 250.83, 0.50 259.17, 0.50 267.50 C 0.50 277.17, 0.50 285.83, 0.50 294.50 C -0.26 308.28, 1.73 319.93, 1.50 332.50 C -7.75 375.31, 17.34 399.81, 24.50 350.50 C 35.78 340.20, 51.95 345.14, 62.50 336.50 C 71.73 321.50, 75.99 305.91, 86.50 293.50 C 93.04 290.05, 99.43 289.67, 105.50 288.50 C 115.58 284.48, 126.37 288.70, 135.50 291.50 C 130.54 291.91, 146.06 303.45, 143.50 292.50 C 151.46 286.70, 146.85 280.25, 152.50 274.50 C 150.51 261.96, 160.45 252.03, 154.50 241.50 C 150.50 235.64, 157.79 229.63, 151.50 225.50 C 144.30 221.80, 143.78 214.75, 141.50 209.50 C 128.47 208.99, 131.60 195.23, 124.50 189.50 C 115.84 181.04, 114.98 202.30, 108.50 194.50 C 106.28 187.28, 102.81 179.17, 96.50 176.50 C 89.24 173.38, 82.37 171.73, 74.50 172.50 C 61.25 174.96, 49.55 172.40, 36.50 172.50 Z" fill="rgb(149.84964458638098,170.75538271350572,100.47939631193984)" stroke="rgb(149.84964458638098,170.75538271350572,100.47939631193984)" stroke-width="1" />
<path d="M 162.50 0.50 C 162.57 11.04, 168.87 43.02, 157.50 31.50 C 155.60 23.19, 149.28 44.36, 145.50 50.50 C 153.79 61.78, 127.10 65.10, 138.50 67.50 C 160.48 73.85, 138.23 108.66, 157.50 113.50 C 173.34 129.45, 205.01 121.33, 220.50 137.50 C 228.51 139.08, 237.09 141.96, 239.50 133.50 C 246.80 137.46, 254.38 144.85, 264.50 138.50 C 266.94 126.67, 263.76 117.99, 263.50 110.50 C 264.24 96.70, 260.58 80.48, 256.50 67.50 C 245.34 62.71, 257.98 50.58, 250.50 44.50 C 248.77 37.93, 248.63 29.52, 251.50 24.50 C 254.43 17.37, 251.25 10.94, 248.50 5.50 C 246.51 1.66, 245.26 -0.48, 241.50 0.50 C 230.17 0.50, 219.83 0.50, 209.50 0.50 C 197.83 0.50, 187.17 0.50, 176.50 0.50 C 176.26 9.30, 172.10 16.05, 173.50 26.50 C 170.98 34.87, 174.89 44.90, 170.50 51.50 C 164.18 44.04, 168.03 30.29, 166.50 20.50 C 165.70 13.63, 171.61 0.06, 163.50 0.50 Z" fill="rgb(156.9973474801061,180.9269776876268,101.12342019035731)" stroke="rgb(156.9973474801061,180.9269776876268,101.12342019035731)" stroke-width="1" />
<path d="M 248.50 0.50 C 247.58 8.17, 259.48 5.80, 259.50 13.50 C 263.50 20.42, 255.85 23.44, 252.50 27.50 C 247.25 39.28, 259.97 48.34, 252.50 58.50 C 250.62 63.45, 252.62 64.92, 256.50 65.50 C 260.43 74.12, 263.97 81.48, 263.50 90.50 C 263.20 100.65, 267.06 107.66, 266.50 116.50 C 270.19 124.33, 265.22 132.48, 268.50 139.50 C 276.88 145.08, 291.40 144.63, 301.50 149.50 C 302.04 154.97, 303.34 158.71, 304.50 162.50 C 311.21 166.97, 318.18 164.11, 324.50 167.50 C 330.05 172.22, 333.73 165.56, 338.50 166.50 C 339.50 155.50, 339.50 144.50, 339.50 133.50 C 339.50 127.50, 339.50 122.50, 339.50 117.50 C 339.69 103.77, 341.12 91.56, 340.50 78.50 C 340.50 66.83, 340.50 56.17, 340.50 45.50 C 340.50 29.83, 340.50 15.17, 340.50 0.50 C 324.83 0.50, 310.17 0.50, 295.50 0.50 C 279.50 0.50, 264.50 0.50, 249.50 0.50 Z" fill="rgb(79.75682559898114,112.77760089150681,42.82830534108095)" stroke="rgb(79.75682559898114,112.77760089150681,42.82830534108095)" stroke-width="1" />
<path d="M 232.50 314.50 C 224.31 317.31, 216.18 320.27, 206.50 319.50 C 197.92 318.76, 192.26 322.67, 184.50 321.50 C 166.44 322.21, 149.25 322.63, 133.50 326.50 C 124.65 327.52, 116.30 327.35, 108.50 328.50 C 100.56 330.77, 90.06 328.27, 84.50 331.50 C 93.56 342.66, 72.49 334.45, 68.50 341.50 C 61.54 346.51, 50.85 342.58, 48.50 349.50 C 35.19 348.10, 49.77 357.78, 43.50 367.50 C 43.70 377.03, 42.45 387.78, 40.50 395.50 C 52.45 436.40, 118.35 398.53, 128.50 416.50 C 131.32 396.08, 180.13 406.00, 177.50 367.50 C 191.70 367.54, 212.57 392.54, 207.50 365.50 C 205.73 350.67, 192.26 344.48, 178.50 346.50 C 155.82 350.12, 168.09 337.48, 180.50 340.50 C 194.55 332.73, 212.12 339.35, 221.50 327.50 C 222.17 338.05, 240.37 331.09, 244.50 323.50 C 235.99 321.83, 241.98 312.24, 233.50 314.50 Z" fill="rgb(112.02210732750936,116.09288643251917,100.84364414334105)" stroke="rgb(112.02210732750936,116.09288643251917,100.84364414334105)" stroke-width="1" />
<path d="M 0.50 0.50 C -0.19 29.92, 2.19 58.08, 1.50 87.50 C 1.50 98.83, 1.50 109.17, 1.50 119.50 C 13.93 120.93, 33.98 112.12, 32.50 125.50 C 38.65 122.72, 32.08 131.98, 39.50 129.50 C 44.79 127.71, 62.70 134.41, 60.50 127.50 C 65.73 125.16, 71.27 123.94, 71.50 117.50 C 79.81 112.76, 75.21 104.81, 78.50 96.50 C 77.56 88.95, 79.68 83.66, 84.50 79.50 C 93.00 77.69, 100.02 99.05, 99.50 82.50 C 103.84 76.61, 105.48 70.60, 104.50 63.50 C 110.80 58.14, 109.35 50.99, 109.50 44.50 C 102.17 38.29, 97.60 30.03, 89.50 26.50 C 94.92 26.57, 93.47 10.07, 94.50 0.50 C 62.83 0.50, 32.17 0.50, 1.50 0.50 Z" fill="rgb(153.09064688916357,175.4080140090647,98.80160692212608)" stroke="rgb(153.09064688916357,175.4080140090647,98.80160692212608)" stroke-width="1" />
<path d="M 326.50 437.50 C 323.46 438.87, 320.09 439.44, 316.50 439.50 C 293.40 442.83, 267.65 444.04, 248.50 442.50 C 243.30 454.17, 237.43 456.95, 227.50 460.50 C 214.05 456.43, 197.78 458.42, 190.50 468.50 C 192.96 472.12, 193.93 479.14, 198.50 480.50 C 192.80 486.15, 202.50 490.83, 202.50 497.50 C 203.22 507.48, 185.45 501.56, 193.50 511.50 C 213.50 511.50, 232.50 511.50, 251.50 511.50 C 261.83 511.50, 271.17 511.50, 280.50 511.50 C 291.17 511.50, 300.83 511.50, 310.50 511.50 C 322.44 509.10, 345.51 518.85, 340.50 500.50 C 338.27 495.62, 340.09 490.06, 339.50 485.50 C 339.50 472.50, 339.50 460.50, 339.50 448.50 C 342.18 437.99, 335.67 436.02, 327.50 437.50 Z" fill="rgb(29.898032421729983,53.720207895062494,18.841108773666626)" stroke="rgb(29.898032421729983,53.720207895062494,18.841108773666626)" stroke-width="1" />
<path d="M 136.50 70.50 C 126.85 74.49, 109.05 68.69, 105.50 80.50 C 110.01 100.32, 89.87 93.80, 85.50 84.50 C 75.06 94.73, 86.10 113.87, 73.50 120.50 C 61.57 150.01, 81.46 169.80, 108.50 178.50 C 108.77 189.67, 120.30 180.47, 125.50 184.50 C 135.77 190.51, 140.03 166.61, 127.50 166.50 C 131.55 161.01, 144.06 167.47, 141.50 157.50 C 140.42 139.49, 162.57 149.72, 173.50 146.50 C 282.01 140.99, 118.70 130.96, 137.50 70.50 Z" fill="rgb(110.29073482428115,106.78913738019169,76.32428115015975)" stroke="rgb(110.29073482428115,106.78913738019169,76.32428115015975)" stroke-width="1" />
<path d="M 49.50 356.50 C 47.11 357.68, 44.27 358.93, 44.50 362.50 C 45.37 375.68, 44.00 388.50, 44.50 402.50 C 57.62 405.01, 70.56 404.55, 82.50 406.50 C 88.06 404.70, 93.77 401.63, 98.50 404.50 C 109.17 409.06, 129.45 411.35, 134.50 399.50 C 141.96 399.43, 141.99 408.45, 149.50 406.50 C 168.93 393.10, 176.73 369.20, 185.50 363.50 C 167.91 361.43, 149.56 362.71, 133.50 362.50 C 122.68 362.70, 116.17 364.55, 107.50 365.50 C 97.32 364.80, 88.81 361.48, 78.50 362.50 C 66.32 364.80, 60.16 356.31, 50.50 356.50 Z" fill="rgb(157.9547154951762,168.7586139003741,171.18468202402047)" stroke="rgb(157.9547154951762,168.7586139003741,171.18468202402047)" stroke-width="1" />
<path d="M 184.50 235.50 C 176.41 238.28, 168.79 237.64, 160.50 238.50 C 166.10 244.85, 158.68 249.29, 160.50 257.50 C 156.91 264.72, 156.71 271.74, 158.50 278.50 C 172.74 290.89, 194.99 291.96, 212.50 294.50 C 220.73 305.96, 223.37 316.05, 240.50 309.50 C 240.43 282.56, 236.72 252.06, 217.50 237.50 C 205.80 237.05, 195.82 235.86, 185.50 235.50 Z" fill="rgb(68.26947754353804,69.26672777268561,53.369385884509626)" stroke="rgb(68.26947754353804,69.26672777268561,53.369385884509626)" stroke-width="1" />
<path d="M 95.50 420.50 C 39.09 425.03, 50.78 453.95, 10.50 455.50 C 25.44 506.80, 177.09 457.86, 96.50 420.50 Z" fill="rgb(134.57746478873239,135.6056338028169,97.59154929577464)" stroke="rgb(134.57746478873239,135.6056338028169,97.59154929577464)" stroke-width="1" />
<path d="M 194.50 175.50 C 180.53 177.05, 166.05 177.37, 151.50 177.50 C 138.39 178.03, 122.12 200.00, 142.50 195.50 C 147.93 206.70, 161.74 198.51, 171.50 200.50 C 182.50 200.50, 192.50 200.50, 202.50 200.50 C 214.22 199.91, 223.72 202.25, 234.50 201.50 C 244.63 203.45, 255.40 201.47, 264.50 203.50 C 275.62 203.53, 285.08 205.18, 295.50 204.50 C 308.09 204.04, 301.83 190.71, 296.50 188.50 C 279.25 184.97, 262.56 183.50, 246.50 180.50 C 228.80 178.92, 212.74 175.79, 195.50 175.50 Z" fill="rgb(118.96925373134329,114.01283582089552,76.78417910447762)" stroke="rgb(118.96925373134329,114.01283582089552,76.78417910447762)" stroke-width="1" />
<path d="M 99.50 419.50 C 89.69 422.76, 78.78 423.36, 68.50 425.50 C 59.28 426.36, 52.42 430.51, 45.50 434.50 C 43.50 448.08, 69.71 459.94, 65.50 476.50 C 82.64 484.61, 96.84 473.03, 110.50 466.50 C 114.71 458.51, 122.83 450.81, 116.50 443.50 C 123.31 439.14, 119.71 430.05, 119.50 424.50 C 114.50 417.34, 105.74 422.67, 100.50 419.50 Z" fill="rgb(165.29857299670692,157.37614343212587,135.44493230881815)" stroke="rgb(165.29857299670692,157.37614343212587,135.44493230881815)" stroke-width="1" />
<path d="M 243.50 142.50 C 241.24 144.63, 237.42 142.98, 234.50 143.50 C 226.04 142.73, 219.77 144.81, 212.50 144.50 C 198.13 145.41, 184.79 146.40, 171.50 147.50 C 164.98 148.18, 159.47 148.89, 153.50 148.50 C 140.76 144.07, 139.51 164.62, 145.50 165.50 C 160.46 164.74, 173.95 162.84, 188.50 163.50 C 203.94 163.89, 217.02 161.00, 231.50 161.50 C 249.04 162.19, 264.25 166.12, 280.50 167.50 C 287.13 165.28, 294.33 166.83, 299.50 163.50 C 296.71 158.50, 294.62 156.28, 298.50 151.50 C 288.30 148.18, 278.80 146.58, 269.50 144.50 C 261.01 142.61, 252.91 142.18, 244.50 142.50 Z" fill="rgb(143.91711229946523,135.298128342246,103.3158422459893)" stroke="rgb(143.91711229946523,135.298128342246,103.3158422459893)" stroke-width="1" />
<path d="M 34.50 470.50 C 3.59 456.40, -16.27 504.51, 12.50 511.50 C 33.82 506.01, 59.78 513.19, 59.50 487.50 C 92.19 491.26, 160.83 525.66, 102.50 485.50 C 79.08 481.46, 56.25 475.67, 35.50 470.50 Z" fill="rgb(63.75,68.5,41.0)" stroke="rgb(63.75,68.5,41.0)" stroke-width="1" />
<path d="M 241.50 238.50 C 236.67 240.25, 231.85 242.02, 226.50 242.50 C 229.48 249.04, 231.03 255.17, 234.50 260.50 C 240.61 275.02, 242.12 290.44, 244.50 305.50 C 245.08 310.73, 243.28 315.95, 245.50 319.50 C 259.48 320.40, 267.96 310.54, 270.50 302.50 C 273.31 293.43, 283.29 283.76, 275.50 275.50 C 275.59 271.74, 278.28 268.49, 274.50 266.50 C 285.40 259.61, 283.00 257.27, 282.50 245.50 C 277.89 244.49, 274.23 242.20, 269.50 242.50 C 258.23 244.10, 254.40 236.69, 242.50 238.50 Z" fill="rgb(117.89759036144578,135.86746987951807,141.84939759036143)" stroke="rgb(117.89759036144578,135.86746987951807,141.84939759036143)" stroke-width="1" />
<path d="M 33.50 470.50 C 2.67 455.71, -16.34 507.06, 13.50 511.50 C 34.51 506.22, 60.27 512.25, 59.50 487.50 C 103.71 499.40, 160.79 516.38, 89.50 482.50 C 69.49 483.63, 53.54 471.45, 34.50 470.50 Z" fill="rgb(94.76785714285714,97.84821428571429,57.38392857142857)" stroke="rgb(94.76785714285714,97.84821428571429,57.38392857142857)" stroke-width="1" />
<path d="M 94.50 0.50 C 99.78 6.49, 94.92 17.99, 101.50 22.50 C 103.47 32.49, 109.84 37.12, 115.50 43.50 C 123.48 49.29, 121.23 60.11, 127.50 66.50 C 133.91 67.42, 141.44 62.38, 144.50 57.50 C 140.21 48.80, 150.11 44.38, 148.50 36.50 C 158.11 27.02, 151.07 7.50, 158.50 0.50 C 147.50 0.50, 137.50 0.50, 127.50 0.50 C 116.17 0.50, 105.83 0.50, 95.50 0.50 Z" fill="rgb(132.82357168523177,162.6291771469637,82.81530722242185)" stroke="rgb(132.82357168523177,162.6291771469637,82.81530722242185)" stroke-width="1" />
<path d="M 213.50 238.50 C 203.76 243.23, 199.93 252.87, 200.50 263.50 C 201.80 270.45, 196.17 266.50, 192.50 267.50 C 190.95 272.46, 190.79 278.73, 190.50 286.50 C 194.39 293.74, 204.26 290.68, 210.50 293.50 C 217.73 293.46, 215.50 300.92, 219.50 304.50 C 221.88 315.83, 235.48 310.68, 241.50 309.50 C 242.32 303.47, 241.56 296.97, 240.50 291.50 C 239.01 274.05, 232.81 259.54, 225.50 245.50 C 224.85 239.31, 219.36 237.75, 214.50 238.50 Z" fill="rgb(19.16353229762878,20.40188062142273,16.582174979558463)" stroke="rgb(19.16353229762878,20.40188062142273,16.582174979558463)" stroke-width="1" />
<path d="M 22.50 118.50 C -79.29 170.13, 134.15 187.25, 55.50 154.50 C 29.37 165.55, 46.51 136.60, 29.50 130.50 C 13.70 127.60, 35.63 118.79, 23.50 118.50 Z" fill="rgb(106.8913043478261,126.02173913043478,64.45652173913044)" stroke="rgb(106.8913043478261,126.02173913043478,64.45652173913044)" stroke-width="1" />
<path d="M 36.50 470.50 C 25.52 475.44, 11.08 469.71, 0.50 473.50 C 0.50 486.83, 0.50 499.17, 0.50 511.50 C 11.06 509.55, 25.92 516.19, 30.50 506.50 C 37.67 506.23, 45.29 507.65, 50.50 507.50 C 59.43 497.92, 56.17 488.98, 62.50 478.50 C 51.96 477.93, 47.73 469.00, 37.50 470.50 Z" fill="rgb(60.012379642365886,86.12012838147639,27.35121503897295)" stroke="rgb(60.012379642365886,86.12012838147639,27.35121503897295)" stroke-width="1" />
<path d="M 35.50 381.50 C 24.83 382.50, 14.88 388.35, 1.50 387.50 C -10.57 424.09, 19.00 437.17, 48.50 430.50 C 66.08 419.92, 35.31 403.70, 33.50 394.50 C 37.13 391.73, 41.37 381.69, 36.50 381.50 Z" fill="rgb(101.4695652173913,110.11304347826086,70.86086956521739)" stroke="rgb(101.4695652173913,110.11304347826086,70.86086956521739)" stroke-width="1" />
<path d="M 137.50 70.50 C 127.19 73.71, 112.94 70.67, 105.50 78.50 C 108.38 84.81, 106.14 87.84, 108.50 92.50 C 112.50 94.12, 124.67 95.44, 118.50 101.50 C 109.33 105.02, 113.17 117.60, 113.50 125.50 C 118.16 129.91, 131.18 125.48, 139.50 126.50 C 151.76 126.54, 144.39 109.84, 146.50 102.50 C 144.18 91.08, 152.75 71.50, 138.50 70.50 Z" fill="rgb(159.31490872210952,157.87981744421907,141.8793103448276)" stroke="rgb(159.31490872210952,157.87981744421907,141.8793103448276)" stroke-width="1" />
<path d="M 189.50 202.50 C 191.72 212.96, 183.49 233.30, 197.50 233.50 C 214.34 231.74, 234.66 237.17, 247.50 230.50 C 256.10 196.65, 213.78 202.50, 190.50 202.50 Z" fill="rgb(6.7153846153846155,7.3076923076923075,4.930769230769231)" stroke="rgb(6.7153846153846155,7.3076923076923075,4.930769230769231)" stroke-width="1" />
<path d="M 1.50 137.50 C 0.36 148.29, -1.29 164.35, 2.50 173.50 C 25.52 169.26, 49.24 170.89, 71.50 171.50 C 89.75 149.13, 19.81 153.89, 2.50 138.50 Z" fill="rgb(137.4198473282443,149.84732824427482,94.16030534351145)" stroke="rgb(137.4198473282443,149.84732824427482,94.16030534351145)" stroke-width="1" />
<path d="M 12.50 322.50 C 7.53 325.02, -0.94 326.63, 0.50 334.50 C -13.42 385.67, 27.53 397.92, 25.50 350.50 C 30.38 343.91, 38.77 345.56, 41.50 339.50 C 37.25 326.28, 23.63 325.52, 13.50 322.50 Z" fill="rgb(155.23926380368098,170.7717791411043,111.82085889570553)" stroke="rgb(155.23926380368098,170.7717791411043,111.82085889570553)" stroke-width="1" />
<path d="M 148.50 119.50 C 149.16 131.01, 135.95 126.40, 128.50 128.50 C 102.89 129.23, 130.09 135.46, 141.50 133.50 C 145.30 137.93, 140.03 147.60, 146.50 147.50 C 173.29 147.75, 197.18 143.41, 222.50 142.50 C 219.57 139.34, 212.17 140.47, 213.50 133.50 C 197.89 128.55, 182.30 126.99, 167.50 123.50 C 160.64 122.64, 155.77 119.37, 149.50 119.50 Z" fill="rgb(216.35787511649582,204.24231127679403,184.87604846225537)" stroke="rgb(216.35787511649582,204.24231127679403,184.87604846225537)" stroke-width="1" />
<path d="M 0.50 0.50 C 0.50 10.83, 0.50 21.17, 0.50 31.50 C -1.02 41.30, 5.31 36.71, 9.50 34.50 C 13.07 35.00, 15.09 41.79, 18.50 38.50 C 30.79 40.63, 19.12 22.95, 31.50 25.50 C 42.69 15.82, 38.68 32.20, 49.50 29.50 C 64.98 34.67, 53.92 18.07, 48.50 13.50 C 45.77 8.39, 39.99 5.95, 41.50 0.50 C 27.50 0.50, 14.50 0.50, 1.50 0.50 Z" fill="rgb(103.12722802704364,129.94283958205287,53.16287645974186)" stroke="rgb(103.12722802704364,129.94283958205287,53.16287645974186)" stroke-width="1" />
<path d="M 95.50 293.50 C 58.31 364.26, 199.85 300.47, 95.50 293.50 Z" fill="rgb(122.78571428571429,122.57142857142857,94.21428571428571)" stroke="rgb(122.78571428571429,122.57142857142857,94.21428571428571)" stroke-width="1" />
<path d="M 157.50 289.50 C 122.35 323.95, 168.37 324.62, 198.50 317.50 C 203.51 305.56, 195.48 291.04, 181.50 291.50 C 172.94 294.58, 165.99 289.70, 158.50 289.50 Z" fill="rgb(57.532786885245905,60.09016393442623,49.122950819672134)" stroke="rgb(57.532786885245905,60.09016393442623,49.122950819672134)" stroke-width="1" />
<path d="M 95.50 99.50 C 86.76 103.42, 95.01 116.05, 92.50 124.50 C 94.23 140.59, 93.26 156.80, 93.50 172.50 C 99.89 173.52, 110.39 180.54, 111.50 172.50 C 111.50 160.17, 111.50 148.83, 111.50 137.50 C 111.10 125.19, 112.46 113.16, 110.50 102.50 C 104.66 102.06, 101.34 98.94, 96.50 99.50 Z" fill="rgb(92.51637107776261,70.10914051841746,60.2237380627558)" stroke="rgb(92.51637107776261,70.10914051841746,60.2237380627558)" stroke-width="1" />
<path d="M 85.50 81.50 C 75.93 89.17, 83.01 105.28, 77.50 115.50 C 70.96 118.25, 73.12 126.58, 70.50 131.50 C 66.30 137.62, 69.70 144.53, 69.50 150.50 C 74.99 153.61, 85.30 154.83, 81.50 166.50 C 95.33 179.98, 91.04 156.63, 91.50 146.50 C 89.54 134.84, 90.90 122.81, 90.50 111.50 C 88.79 106.13, 89.77 100.64, 87.50 96.50 C 92.14 93.42, 92.16 80.52, 86.50 81.50 Z" fill="rgb(188.65214180206794,184.9202363367799,159.38626292466765)" stroke="rgb(188.65214180206794,184.9202363367799,159.38626292466765)" stroke-width="1" />
<path d="M 218.50 162.50 C 117.41 184.34, 378.88 180.11, 218.50 162.50 Z" fill="rgb(108.08695652173913,101.56521739130434,83.78260869565217)" stroke="rgb(108.08695652173913,101.56521739130434,83.78260869565217)" stroke-width="1" />
<path d="M 219.50 162.50 C 209.97 165.11, 199.08 164.43, 188.50 164.50 C 181.50 164.19, 185.14 174.15, 188.50 174.50 C 207.81 173.47, 224.03 177.49, 241.50 178.50 C 253.12 179.01, 261.85 183.06, 272.50 182.50 C 281.19 182.84, 275.68 174.56, 276.50 169.50 C 270.11 168.78, 265.67 166.75, 260.50 166.50 C 247.13 163.65, 234.29 161.91, 220.50 162.50 Z" fill="rgb(55.340167753960856,46.64119291705499,28.752096924510717)" stroke="rgb(55.340167753960856,46.64119291705499,28.752096924510717)" stroke-width="1" />
<path d="M 23.50 382.50 C -49.26 432.44, 70.42 424.74, 23.50 382.50 Z" fill="rgb(133.5,141.0,94.5)" stroke="rgb(133.5,141.0,94.5)" stroke-width="1" />
<path d="M 1.50 343.50 C -29.54 397.67, 67.13 386.89, 26.50 364.50 C 35.46 345.90, 13.77 348.36, 2.50 344.50 Z" fill="rgb(110.5609756097561,118.0,80.63414634146342)" stroke="rgb(110.5609756097561,118.0,80.63414634146342)" stroke-width="1" />
<path d="M 36.50 381.50 C 23.74 382.20, 12.61 386.82, 1.50 391.50 C 1.17 406.61, -4.80 432.95, 15.50 422.50 C 21.12 422.98, 17.36 429.41, 22.50 425.50 C 21.81 415.50, 30.17 410.66, 30.50 402.50 C 33.72 396.15, 42.89 385.76, 37.50 381.50 Z" fill="rgb(144.05489864864865,157.48902027027026,106.31756756756756)" stroke="rgb(144.05489864864865,157.48902027027026,106.31756756756756)" stroke-width="1" />
<path d="M 27.50 443.50 C 17.81 447.61, 2.82 456.41, 8.50 469.50 C 18.25 471.13, 28.60 473.11, 36.50 468.50 C 47.94 466.99, 63.50 485.26, 64.50 468.50 C 64.16 463.12, 55.47 462.61, 56.50 456.50 C 51.59 451.93, 40.88 441.07, 43.50 453.50 C 34.42 458.48, 34.41 442.82, 28.50 443.50 Z" fill="rgb(176.0180412371134,169.34364261168386,138.8573883161512)" stroke="rgb(176.0180412371134,169.34364261168386,138.8573883161512)" stroke-width="1" />
<path d="M 62.50 491.50 C 59.52 498.39, 56.29 503.29, 51.50 509.50 C 45.55 510.26, 26.87 504.59, 31.50 511.50 C 41.17 511.50, 49.83 511.50, 58.50 511.50 C 69.17 511.50, 78.83 511.50, 88.50 511.50 C 99.50 511.50, 109.50 511.50, 119.50 511.50 C 116.93 508.56, 114.33 502.67, 109.50 505.50 C 106.11 500.38, 105.29 493.94, 98.50 495.50 C 89.09 495.78, 76.13 490.68, 63.50 491.50 Z" fill="rgb(154.8189964157706,142.2688172043011,94.87813620071685)" stroke="rgb(154.8189964157706,142.2688172043011,94.87813620071685)" stroke-width="1" />
<path d="M 151.50 287.50 C 142.77 293.46, 152.08 311.61, 143.50 307.50 C 138.03 320.89, 150.06 321.98, 160.50 320.50 C 168.91 320.61, 180.21 322.08, 177.50 311.50 C 177.87 295.98, 166.95 286.80, 152.50 287.50 Z" fill="rgb(131.03975535168195,126.93170234454638,105.29459734964323)" stroke="rgb(131.03975535168195,126.93170234454638,105.29459734964323)" stroke-width="1" />
<path d="M 169.50 201.50 C 161.97 205.10, 150.22 198.53, 144.50 206.50 C 144.19 215.20, 149.39 220.59, 154.50 225.50 C 165.72 225.56, 173.45 230.62, 182.50 232.50 C 180.70 220.29, 189.02 197.07, 170.50 201.50 Z" fill="rgb(66.59833506763788,73.32986472424558,34.80853277835588)" stroke="rgb(66.59833506763788,73.32986472424558,34.80853277835588)" stroke-width="1" />
<path d="M 0.50 137.50 C 0.50 148.83, 0.50 160.17, 0.50 171.50 C 7.30 173.88, 12.29 166.53, 16.50 171.50 C 22.53 168.86, 30.72 168.61, 32.50 162.50 C 37.37 148.35, 23.86 146.48, 17.50 138.50 C 12.00 141.94, 6.30 140.09, 1.50 137.50 Z" fill="rgb(110.61269146608315,122.7199124726477,70.5328227571116)" stroke="rgb(110.61269146608315,122.7199124726477,70.5328227571116)" stroke-width="1" />
<path d="M 1.50 343.50 C -0.79 351.02, 1.14 360.29, 0.50 368.50 C -4.30 384.68, 8.31 387.71, 19.50 382.50 C 16.24 377.34, 17.83 371.51, 20.50 367.50 C 27.29 366.15, 31.66 355.65, 25.50 352.50 C 23.17 340.53, 7.42 353.22, 2.50 343.50 Z" fill="rgb(115.21379310344828,127.51149425287356,83.1655172413793)" stroke="rgb(115.21379310344828,127.51149425287356,83.1655172413793)" stroke-width="1" />
<path d="M 95.50 293.50 C 85.67 298.31, 84.35 311.06, 83.50 321.50 C 82.22 331.12, 93.94 326.22, 99.50 327.50 C 111.58 327.51, 112.72 308.87, 111.50 297.50 C 107.50 291.48, 101.31 294.16, 96.50 293.50 Z" fill="rgb(144.17445054945054,140.6620879120879,119.39285714285714)" stroke="rgb(144.17445054945054,140.6620879120879,119.39285714285714)" stroke-width="1" />
<path d="M 63.50 478.50 C 59.54 483.36, 67.31 485.07, 67.50 489.50 C 77.79 493.81, 88.58 488.12, 95.50 496.50 C 101.96 490.26, 108.75 497.94, 109.50 503.50 C 115.42 496.49, 122.29 518.39, 125.50 508.50 C 138.12 510.36, 122.62 498.72, 118.50 497.50 C 112.71 491.55, 112.33 483.66, 103.50 485.50 C 94.54 486.85, 89.71 479.11, 82.50 481.50 C 76.31 480.01, 70.88 478.10, 64.50 478.50 Z" fill="rgb(47.766666666666666,75.472,21.108)" stroke="rgb(47.766666666666666,75.472,21.108)" stroke-width="1" />
<path d="M 34.50 397.50 C 31.08 407.75, 14.78 430.45, 34.50 432.50 C 43.59 433.77, 54.29 430.39, 56.50 423.50 C 49.17 414.35, 44.16 405.30, 35.50 398.50 Z" fill="rgb(183.6566716641679,178.9745127436282,150.85307346326837)" stroke="rgb(183.6566716641679,178.9745127436282,150.85307346326837)" stroke-width="1" />
<path d="M 49.50 154.50 C 44.89 158.09, 33.50 153.10, 35.50 162.50 C 32.52 170.44, 45.44 173.55, 49.50 169.50 C 88.34 178.37, 84.54 148.74, 50.50 154.50 Z" fill="rgb(122.16166281755196,138.83140877598152,79.41570438799076)" stroke="rgb(122.16166281755196,138.83140877598152,79.41570438799076)" stroke-width="1" />
<path d="M 215.50 203.50 C 210.02 211.08, 208.39 220.26, 204.50 228.50 C 211.56 230.03, 216.97 232.12, 223.50 231.50 C 229.27 223.29, 232.06 214.26, 235.50 205.50 C 229.02 203.57, 222.89 203.23, 216.50 203.50 Z" fill="rgb(10.49763779527559,11.489763779527559,5.411023622047244)" stroke="rgb(10.49763779527559,11.489763779527559,5.411023622047244)" stroke-width="1" />
<path d="M 148.50 92.50 C 144.34 105.88, 149.00 116.49, 163.50 115.50 C 165.14 125.95, 179.49 123.61, 188.50 124.50 C 186.85 114.14, 178.94 113.01, 172.50 111.50 C 173.22 96.36, 154.48 102.21, 149.50 92.50 Z" fill="rgb(185.9764705882353,208.41960784313724,125.68627450980392)" stroke="rgb(185.9764705882353,208.41960784313724,125.68627450980392)" stroke-width="1" />
<path d="M 21.50 119.50 C 12.16 123.48, -4.81 116.59, 0.50 133.50 C 9.72 143.70, 15.74 129.49, 23.50 142.50 C 29.10 151.08, 37.92 133.28, 35.50 151.50 C 41.14 146.55, 37.85 140.59, 35.50 134.50 C 30.70 133.29, 28.42 129.42, 24.50 129.50 C 8.91 125.82, 38.30 117.64, 22.50 119.50 Z" fill="rgb(41.77309562398703,74.6320907617504,12.158833063209077)" stroke="rgb(41.77309562398703,74.6320907617504,12.158833063209077)" stroke-width="1" />
<path d="M 131.50 300.50 C 125.31 311.11, 110.86 300.00, 111.50 315.50 C 101.97 327.98, 121.21 326.51, 128.50 324.50 C 148.44 327.38, 138.66 307.38, 132.50 300.50 Z" fill="rgb(149.0495867768595,148.98512396694215,121.29917355371902)" stroke="rgb(149.0495867768595,148.98512396694215,121.29917355371902)" stroke-width="1" />
<path d="M 36.50 133.50 C 40.03 140.19, 41.51 147.09, 38.50 154.50 C 48.53 152.91, 56.87 156.29, 65.50 157.50 C 69.17 150.66, 65.77 145.42, 66.50 138.50 C 55.99 138.21, 47.46 134.11, 37.50 133.50 Z" fill="rgb(216.65042016806723,218.82857142857142,176.78655462184875)" stroke="rgb(216.65042016806723,218.82857142857142,176.78655462184875)" stroke-width="1" />
<path d="M 155.50 134.50 C 151.72 137.42, 139.53 132.28, 143.50 140.50 C 140.61 152.51, 150.79 146.10, 157.50 147.50 C 172.78 146.36, 186.66 144.26, 201.50 144.50 C 215.76 143.80, 201.66 139.80, 195.50 140.50 C 181.70 139.79, 168.74 134.23, 156.50 135.50 Z" fill="rgb(58.97976391231029,40.86677908937605,23.15851602023609)" stroke="rgb(58.97976391231029,40.86677908937605,23.15851602023609)" stroke-width="1" />
<path d="M 64.50 456.50 C 56.54 462.17, 67.94 463.66, 65.50 471.50 C 63.21 480.96, 74.97 476.35, 79.50 479.50 C 86.57 478.23, 102.98 475.04, 95.50 467.50 C 82.81 465.80, 78.96 453.76, 65.50 456.50 Z" fill="rgb(48.09152542372881,41.21694915254237,21.701694915254237)" stroke="rgb(48.09152542372881,41.21694915254237,21.701694915254237)" stroke-width="1" />
<path d="M 190.50 202.50 C 188.38 211.74, 189.51 223.18, 190.50 232.50 C 195.47 232.58, 199.60 233.03, 202.50 230.50 C 206.24 221.67, 208.76 213.33, 212.50 205.50 C 206.87 200.52, 198.42 203.35, 191.50 202.50 Z" fill="rgb(11.73076923076923,12.821678321678322,6.631118881118881)" stroke="rgb(11.73076923076923,12.821678321678322,6.631118881118881)" stroke-width="1" />
<path d="M 92.50 404.50 C 81.68 406.59, 73.85 415.88, 64.50 421.50 C 63.22 427.03, 74.30 423.46, 77.50 422.50 C 88.21 423.18, 96.17 416.71, 105.50 419.50 C 122.46 420.39, 100.29 404.91, 93.50 404.50 Z" fill="rgb(140.69077757685352,143.1772151898734,141.70524412296564)" stroke="rgb(140.69077757685352,143.1772151898734,141.70524412296564)" stroke-width="1" />
<path d="M 2.50 425.50 C -5.70 448.19, 38.14 435.66, 39.50 453.50 C 56.17 434.59, 17.95 432.86, 3.50 425.50 Z" fill="rgb(123.1842105263158,124.3157894736842,87.8157894736842)" stroke="rgb(123.1842105263158,124.3157894736842,87.8157894736842)" stroke-width="1" />
<path d="M 173.50 292.50 C 174.61 300.73, 178.89 307.65, 178.50 316.50 C 182.00 321.99, 194.29 319.09, 199.50 316.50 C 201.52 309.56, 193.47 311.14, 194.50 305.50 C 196.37 292.29, 185.09 291.27, 174.50 292.50 Z" fill="rgb(83.78544776119404,87.15111940298507,84.81902985074628)" stroke="rgb(83.78544776119404,87.15111940298507,84.81902985074628)" stroke-width="1" />
<path d="M 2.50 425.50 C -6.61 437.22, 16.31 442.93, 23.50 442.50 C 35.36 436.77, 32.51 451.54, 39.50 453.50 C 46.34 451.30, 36.28 444.96, 44.50 444.50 C 41.21 436.63, 32.57 432.30, 22.50 432.50 C 14.92 431.58, 10.75 424.82, 3.50 425.50 Z" fill="rgb(54.54924242424242,83.40151515151516,25.089015151515152)" stroke="rgb(54.54924242424242,83.40151515151516,25.089015151515152)" stroke-width="1" />
<path d="M 170.50 361.50 C 168.24 363.63, 164.42 361.98, 161.50 362.50 C 159.23 367.54, 160.73 380.90, 162.50 389.50 C 167.79 388.54, 171.02 381.58, 177.50 382.50 C 178.41 375.77, 171.83 365.58, 182.50 367.50 C 197.92 372.95, 181.40 356.04, 171.50 361.50 Z" fill="rgb(38.780392156862746,50.43529411764706,53.10392156862745)" stroke="rgb(38.780392156862746,50.43529411764706,53.10392156862745)" stroke-width="1" />
<path d="M 162.50 165.50 C 86.15 178.72, 208.48 182.17, 162.50 165.50 Z" fill="rgb(55.666666666666664,42.333333333333336,19.666666666666668)" stroke="rgb(55.666666666666664,42.333333333333336,19.666666666666668)" stroke-width="1" />
<path d="M 34.50 354.50 C -7.54 389.61, 66.58 381.45, 34.50 354.50 Z" fill="rgb(72.96969696969697,76.93939393939394,59.484848484848484)" stroke="rgb(72.96969696969697,76.93939393939394,59.484848484848484)" stroke-width="1" />
<path d="M 162.50 165.50 C 153.35 169.97, 127.76 162.20, 137.50 179.50 C 145.32 186.09, 147.32 174.82, 155.50 176.50 C 163.48 176.59, 169.98 175.52, 176.50 174.50 C 180.56 163.58, 170.76 165.37, 163.50 165.50 Z" fill="rgb(46.34432989690722,36.6,22.649484536082475)" stroke="rgb(46.34432989690722,36.6,22.649484536082475)" stroke-width="1" />
<path d="M 237.50 205.50 C 232.99 213.48, 230.52 222.31, 226.50 230.50 C 229.22 234.46, 233.65 233.28, 237.50 233.50 C 255.73 235.00, 250.88 209.21, 238.50 205.50 Z" fill="rgb(11.232365145228215,9.941908713692946,4.238589211618257)" stroke="rgb(11.232365145228215,9.941908713692946,4.238589211618257)" stroke-width="1" />
<path d="M 205.50 348.50 C 200.58 353.45, 213.39 357.84, 208.50 361.50 C 210.60 370.35, 214.44 377.47, 218.50 384.50 C 226.36 382.97, 223.19 374.88, 225.50 370.50 C 231.00 355.48, 215.08 353.96, 206.50 348.50 Z" fill="rgb(98.1106471816284,113.96659707724426,69.53862212943632)" stroke="rgb(98.1106471816284,113.96659707724426,69.53862212943632)" stroke-width="1" />
<path d="M 178.50 253.50 C 172.74 283.84, 188.94 300.72, 190.50 274.50 C 190.70 263.68, 193.17 250.66, 179.50 253.50 Z" fill="rgb(62.79333333333334,62.486666666666665,56.95333333333333)" stroke="rgb(62.79333333333334,62.486666666666665,56.95333333333333)" stroke-width="1" />
<path d="M 172.50 262.50 C 164.28 264.38, 159.74 270.96, 159.50 277.50 C 158.87 283.03, 163.50 284.67, 166.50 288.50 C 182.05 292.39, 179.65 266.96, 173.50 262.50 Z" fill="rgb(23.13681592039801,27.186567164179106,16.460199004975124)" stroke="rgb(23.13681592039801,27.186567164179106,16.460199004975124)" stroke-width="1" />
<path d="M 43.50 404.50 C 51.91 409.76, 57.74 434.35, 65.50 419.50 C 96.96 403.45, 60.17 406.38, 44.50 404.50 Z" fill="rgb(221.13636363636363,224.13636363636363,223.13636363636363)" stroke="rgb(221.13636363636363,224.13636363636363,223.13636363636363)" stroke-width="1" />
<path d="M 44.50 404.50 C 51.06 410.62, 59.52 435.29, 65.50 418.50 C 72.54 414.67, 89.60 403.78, 72.50 406.50 C 62.99 405.46, 54.01 405.54, 45.50 404.50 Z" fill="rgb(248.55831265508684,249.1836228287841,248.97518610421835)" stroke="rgb(248.55831265508684,249.1836228287841,248.97518610421835)" stroke-width="1" />
<path d="M 148.50 93.50 C 148.16 99.82, 143.71 113.70, 153.50 113.50 C 165.63 116.09, 174.25 117.82, 170.50 104.50 C 163.41 99.11, 155.11 100.04, 149.50 94.50 Z" fill="rgb(210.34715025906735,225.0984455958549,157.78497409326425)" stroke="rgb(210.34715025906735,225.0984455958549,157.78497409326425)" stroke-width="1" />
<path d="M 107.50 408.50 C 106.68 411.65, 113.97 414.08, 114.50 418.50 C 137.76 450.67, 141.55 402.65, 108.50 408.50 Z" fill="rgb(115.17857142857143,139.14285714285714,111.92857142857143)" stroke="rgb(115.17857142857143,139.14285714285714,111.92857142857143)" stroke-width="1" />
<path d="M 106.50 408.50 C 111.88 415.67, 120.04 421.47, 122.50 430.50 C 126.91 427.45, 134.13 429.74, 136.50 426.50 C 134.63 418.45, 128.97 428.69, 128.50 420.50 C 130.95 407.70, 117.96 407.36, 107.50 408.50 Z" fill="rgb(201.0593220338983,213.9463276836158,216.42090395480227)" stroke="rgb(201.0593220338983,213.9463276836158,216.42090395480227)" stroke-width="1" />
<path d="M 120.50 453.50 C 115.61 466.83, 102.18 472.98, 89.50 478.50 C 105.19 496.81, 119.00 470.96, 121.50 453.50 Z" fill="rgb(4.983805668016195,6.275303643724697,3.668016194331984)" stroke="rgb(4.983805668016195,6.275303643724697,3.668016194331984)" stroke-width="1" />
<path d="M 195.50 362.50 C 184.62 363.68, 192.33 376.66, 199.50 377.50 C 204.25 379.76, 213.00 387.79, 214.50 380.50 C 206.26 376.00, 210.96 358.95, 196.50 362.50 Z" fill="rgb(99.5701219512195,120.58536585365853,127.27439024390245)" stroke="rgb(99.5701219512195,120.58536585365853,127.27439024390245)" stroke-width="1" />
<path d="M 109.50 287.50 C 105.91 293.54, 115.24 297.82, 113.50 304.50 C 120.95 306.39, 126.92 305.99, 130.50 299.50 C 130.30 291.24, 118.29 286.84, 110.50 287.50 Z" fill="rgb(168.7079365079365,177.92380952380952,105.80952380952381)" stroke="rgb(168.7079365079365,177.92380952380952,105.80952380952381)" stroke-width="1" />
<path d="M 22.50 367.50 C 7.92 380.81, 33.46 385.69, 40.50 377.50 C 41.86 366.86, 30.65 367.16, 23.50 367.50 Z" fill="rgb(114.96071428571429,117.89642857142857,102.44285714285714)" stroke="rgb(114.96071428571429,117.89642857142857,102.44285714285714)" stroke-width="1" />
<path d="M 122.50 449.50 C 118.92 457.46, 119.20 467.01, 114.50 474.50 C 113.19 480.83, 121.88 478.26, 124.50 477.50 C 118.75 473.67, 141.06 455.21, 123.50 449.50 Z" fill="rgb(50.12714776632303,48.45360824742268,31.718213058419245)" stroke="rgb(50.12714776632303,48.45360824742268,31.718213058419245)" stroke-width="1" />
<path d="M 70.50 154.50 C 59.94 157.09, 59.53 170.60, 71.50 170.50 C 83.72 176.03, 84.19 149.15, 71.50 154.50 Z" fill="rgb(152.89716312056737,164.71985815602838,101.86170212765957)" stroke="rgb(152.89716312056737,164.71985815602838,101.86170212765957)" stroke-width="1" />
<path d="M 226.50 501.50 C 220.40 507.84, 205.43 505.39, 202.50 511.50 C 216.44 513.30, 256.67 511.56, 227.50 501.50 Z" fill="rgb(28.391304347826086,57.32608695652174,15.079710144927537)" stroke="rgb(28.391304347826086,57.32608695652174,15.079710144927537)" stroke-width="1" />
<path d="M 142.50 182.50 C 139.17 185.08, 130.33 180.87, 132.50 188.50 C 131.89 199.82, 135.97 205.17, 142.50 195.50 C 152.51 212.83, 149.84 183.27, 143.50 182.50 Z" fill="rgb(173.83093525179856,162.29496402877697,112.0863309352518)" stroke="rgb(173.83093525179856,162.29496402877697,112.0863309352518)" stroke-width="1" />
<path d="M 301.50 488.50 C 297.39 493.02, 299.42 500.08, 297.50 505.50 C 298.84 513.16, 316.34 505.21, 308.50 498.50 C 316.03 493.73, 309.67 486.32, 302.50 488.50 Z" fill="rgb(45.49802371541502,73.59683794466403,25.462450592885375)" stroke="rgb(45.49802371541502,73.59683794466403,25.462450592885375)" stroke-width="1" />
<path d="M 291.50 186.50 C 281.42 203.08, 317.26 206.71, 308.50 190.50 C 303.39 187.96, 297.83 187.51, 292.50 186.50 Z" fill="rgb(128.21052631578948,125.33333333333333,80.96491228070175)" stroke="rgb(128.21052631578948,125.33333333333333,80.96491228070175)" stroke-width="1" />
<path d="M 169.50 496.50 C 172.64 506.44, 148.78 509.15, 157.50 511.50 C 175.51 515.66, 187.65 504.93, 170.50 496.50 Z" fill="rgb(40.716981132075475,68.84905660377359,21.88679245283019)" stroke="rgb(40.716981132075475,68.84905660377359,21.88679245283019)" stroke-width="1" />
<path d="M 135.50 400.50 C 117.20 413.05, 141.63 422.90, 148.50 409.50 C 141.63 409.26, 140.73 402.69, 136.50 400.50 Z" fill="rgb(60.0,70.6938775510204,64.18367346938776)" stroke="rgb(60.0,70.6938775510204,64.18367346938776)" stroke-width="1" />
<path d="M 33.50 354.50 C 22.84 363.86, 34.50 367.35, 40.50 371.50 C 43.36 383.25, 40.75 360.91, 44.50 357.50 C 44.64 352.36, 37.54 355.46, 34.50 354.50 Z" fill="rgb(117.23287671232876,117.662100456621,104.32420091324201)" stroke="rgb(117.23287671232876,117.662100456621,104.32420091324201)" stroke-width="1" />
<path d="M 125.50 242.50 C 123.98 245.72, 115.36 246.86, 119.50 252.50 C 125.57 256.33, 138.92 263.11, 136.50 250.50 C 131.25 245.57, 134.35 242.25, 126.50 242.50 Z" fill="rgb(37.22935779816514,44.95871559633027,25.98165137614679)" stroke="rgb(37.22935779816514,44.95871559633027,25.98165137614679)" stroke-width="1" />
<path d="M 1.50 437.50 C -4.71 455.65, 5.76 459.37, 16.50 445.50 C 13.10 439.12, 6.88 440.52, 2.50 437.50 Z" fill="rgb(107.49029126213593,118.27184466019418,78.26699029126213)" stroke="rgb(107.49029126213593,118.27184466019418,78.26699029126213)" stroke-width="1" />
<path d="M 21.50 47.50 C 6.70 53.27, 38.09 60.12, 41.50 54.50 C 40.08 46.67, 29.78 47.28, 22.50 47.50 Z" fill="rgb(92.4059405940594,107.16831683168317,61.99009900990099)" stroke="rgb(92.4059405940594,107.16831683168317,61.99009900990099)" stroke-width="1" />
<path d="M 307.50 437.50 C 276.27 449.61, 336.65 453.74, 307.50 437.50 Z" fill="rgb(46.568627450980394,85.3529411764706,38.90196078431372)" stroke="rgb(46.568627450980394,85.3529411764706,38.90196078431372)" stroke-width="1" />
<path d="M 187.50 254.50 C 184.40 262.35, 186.35 272.79, 186.50 282.50 C 185.70 287.26, 186.15 292.39, 190.50 290.50 C 189.21 278.45, 193.10 262.23, 188.50 254.50 Z" fill="rgb(63.86772486772487,67.24338624338624,67.12169312169313)" stroke="rgb(63.86772486772487,67.24338624338624,67.12169312169313)" stroke-width="1" />
<path d="M 249.50 439.50 C 237.77 445.26, 252.13 459.72, 260.50 449.50 C 262.67 441.32, 254.72 441.77, 250.50 439.50 Z" fill="rgb(18.92896174863388,49.31147540983606,8.0)" stroke="rgb(18.92896174863388,49.31147540983606,8.0)" stroke-width="1" />
<path d="M 173.50 383.50 C 162.85 389.38, 146.03 418.48, 164.50 400.50 C 164.75 389.66, 190.09 389.21, 174.50 383.50 Z" fill="rgb(66.0,83.72727272727273,65.27272727272727)" stroke="rgb(66.0,83.72727272727273,65.27272727272727)" stroke-width="1" />
<path d="M 135.50 400.50 C 133.43 405.86, 122.90 412.57, 131.50 414.50 C 143.07 422.42, 145.79 403.70, 136.50 400.50 Z" fill="rgb(36.98275862068966,40.81896551724138,38.38793103448276)" stroke="rgb(36.98275862068966,40.81896551724138,38.38793103448276)" stroke-width="1" />
<path d="M 157.50 227.50 C 151.95 238.95, 168.21 237.16, 176.50 235.50 C 175.15 227.97, 164.93 228.84, 158.50 227.50 Z" fill="rgb(29.794117647058822,47.59411764705882,18.270588235294117)" stroke="rgb(29.794117647058822,47.59411764705882,18.270588235294117)" stroke-width="1" />
<path d="M 173.50 383.50 C 167.04 386.51, 150.59 407.68, 164.50 400.50 C 162.94 388.66, 190.73 389.65, 174.50 383.50 Z" fill="rgb(59.330275229357795,72.3211009174312,58.11926605504587)" stroke="rgb(59.330275229357795,72.3211009174312,58.11926605504587)" stroke-width="1" />
<path d="M 291.50 186.50 C 290.40 189.74, 288.34 199.38, 293.50 199.50 C 306.42 203.34, 302.03 183.42, 292.50 186.50 Z" fill="rgb(189.38,182.58,149.92)" stroke="rgb(189.38,182.58,149.92)" stroke-width="1" />
<path d="M 316.50 395.50 C 308.59 394.47, 293.41 406.55, 309.50 404.50 C 317.07 407.87, 324.22 400.47, 317.50 395.50 Z" fill="rgb(6.883116883116883,14.519480519480519,5.467532467532467)" stroke="rgb(6.883116883116883,14.519480519480519,5.467532467532467)" stroke-width="1" />
<path d="M 228.50 163.50 C 227.10 171.59, 228.47 182.18, 237.50 176.50 C 237.86 168.47, 239.08 160.59, 229.50 163.50 Z" fill="rgb(37.795918367346935,31.693877551020407,17.299319727891156)" stroke="rgb(37.795918367346935,31.693877551020407,17.299319727891156)" stroke-width="1" />
<path d="M 309.50 438.50 C 308.86 441.84, 304.60 442.35, 302.50 444.50 C 302.56 459.52, 327.34 442.85, 310.50 438.50 Z" fill="rgb(31.595744680851062,70.22695035460993,6.524822695035461)" stroke="rgb(31.595744680851062,70.22695035460993,6.524822695035461)" stroke-width="1" />
<path d="M 227.50 500.50 C 218.43 507.82, 232.68 515.67, 239.50 510.50 C 238.42 504.63, 233.25 501.31, 228.50 500.50 Z" fill="rgb(39.21917808219178,71.66438356164383,13.952054794520548)" stroke="rgb(39.21917808219178,71.66438356164383,13.952054794520548)" stroke-width="1" />
<path d="M 171.50 495.50 C 158.20 501.18, 178.58 517.68, 181.50 504.50 C 173.62 504.49, 176.89 498.01, 172.50 495.50 Z" fill="rgb(62.08029197080292,92.64233576642336,36.91970802919708)" stroke="rgb(62.08029197080292,92.64233576642336,36.91970802919708)" stroke-width="1" />
<path d="M 243.50 455.50 C 233.79 461.05, 245.10 473.44, 252.50 461.50 C 255.79 455.94, 248.21 455.25, 244.50 455.50 Z" fill="rgb(18.88888888888889,48.992592592592594,8.214814814814815)" stroke="rgb(18.88888888888889,48.992592592592594,8.214814814814815)" stroke-width="1" />
<path d="M 158.50 0.50 C 159.32 9.67, 157.94 37.83, 162.50 32.50 C 158.93 21.82, 165.79 7.22, 159.50 0.50 Z" fill="rgb(133.73015873015873,152.04761904761904,99.68253968253968)" stroke="rgb(133.73015873015873,152.04761904761904,99.68253968253968)" stroke-width="1" />
<path d="M 103.50 298.50 C 91.33 299.51, 100.89 311.44, 108.50 312.50 C 111.89 306.49, 106.88 302.17, 104.50 298.50 Z" fill="rgb(79.63235294117646,78.5,60.27205882352941)" stroke="rgb(79.63235294117646,78.5,60.27205882352941)" stroke-width="1" />
<path d="M 178.50 254.50 C 176.29 262.38, 179.67 270.75, 178.50 279.50 C 179.04 282.74, 177.00 287.44, 180.50 287.50 C 181.57 275.72, 181.69 263.36, 179.50 254.50 Z" fill="rgb(85.65384615384616,90.11538461538461,88.92307692307692)" stroke="rgb(85.65384615384616,90.11538461538461,88.92307692307692)" stroke-width="1" />
<path d="M 164.50 237.50 C 161.77 241.72, 170.72 251.06, 177.50 250.50 C 179.86 243.48, 170.73 239.14, 165.50 237.50 Z" fill="rgb(69.87301587301587,79.55555555555556,65.18253968253968)" stroke="rgb(69.87301587301587,79.55555555555556,65.18253968253968)" stroke-width="1" />
<path d="M 6.50 453.50 C -6.56 458.36, 3.99 484.03, 6.50 462.50 C 6.10 458.43, 13.95 452.56, 7.50 453.50 Z" fill="rgb(93.53448275862068,86.86206896551724,57.060344827586206)" stroke="rgb(93.53448275862068,86.86206896551724,57.060344827586206)" stroke-width="1" />
<path d="M 78.50 308.50 C 78.77 314.87, 62.65 319.63, 73.50 323.50 C 80.70 325.92, 82.73 311.44, 79.50 308.50 Z" fill="rgb(93.5126050420168,95.52941176470588,64.12605042016807)" stroke="rgb(93.5126050420168,95.52941176470588,64.12605042016807)" stroke-width="1" />
<path d="M 269.50 457.50 C 267.65 460.15, 263.35 456.85, 261.50 459.50 C 252.13 468.35, 289.10 465.57, 270.50 457.50 Z" fill="rgb(24.35514018691589,54.97196261682243,13.485981308411215)" stroke="rgb(24.35514018691589,54.97196261682243,13.485981308411215)" stroke-width="1" />
<path d="M 334.50 436.50 C 331.78 438.87, 328.96 443.30, 331.50 446.50 C 339.20 456.67, 345.72 432.66, 335.50 436.50 Z" fill="rgb(27.495726495726494,60.53846153846154,12.82905982905983)" stroke="rgb(27.495726495726494,60.53846153846154,12.82905982905983)" stroke-width="1" />
<path d="M 271.50 442.50 C 261.72 449.74, 289.24 453.61, 284.50 442.50 C 279.83 442.50, 276.17 442.50, 272.50 442.50 Z" fill="rgb(46.50892857142857,87.19642857142857,37.42857142857143)" stroke="rgb(46.50892857142857,87.19642857142857,37.42857142857143)" stroke-width="1" />
<path d="M 219.50 163.50 C 220.06 168.75, 216.78 178.88, 225.50 176.50 C 224.27 172.04, 230.72 160.63, 220.50 163.50 Z" fill="rgb(32.62385321100918,27.091743119266056,15.045871559633028)" stroke="rgb(32.62385321100918,27.091743119266056,15.045871559633028)" stroke-width="1" />
<path d="M 77.50 325.50 C 71.34 326.91, 66.30 333.30, 75.50 334.50 C 85.05 336.59, 83.95 328.21, 78.50 325.50 Z" fill="rgb(161.23300970873785,180.7378640776699,93.59223300970874)" stroke="rgb(161.23300970873785,180.7378640776699,93.59223300970874)" stroke-width="1" />
<path d="M 117.50 458.50 C 111.61 464.58, 115.35 477.56, 106.50 480.50 C 113.67 489.33, 115.68 465.19, 118.50 458.50 Z" fill="rgb(30.647727272727273,32.43181818181818,32.625)" stroke="rgb(30.647727272727273,32.43181818181818,32.625)" stroke-width="1" />
<path d="M 147.50 113.50 C 145.10 121.36, 159.87 120.75, 164.50 117.50 C 158.98 115.95, 153.89 114.37, 148.50 113.50 Z" fill="rgb(191.61363636363637,176.125,146.14772727272728)" stroke="rgb(191.61363636363637,176.125,146.14772727272728)" stroke-width="1" />
<path d="M 33.50 397.50 C 27.54 405.45, 39.10 406.25, 44.50 408.50 C 41.08 405.43, 40.25 398.10, 34.50 397.50 Z" fill="rgb(159.97701149425288,155.51724137931035,137.39080459770116)" stroke="rgb(159.97701149425288,155.51724137931035,137.39080459770116)" stroke-width="1" />
<path d="M 233.50 460.50 C 212.15 473.47, 254.63 463.36, 233.50 460.50 Z" fill="rgb(41.66129032258065,81.14516129032258,33.46774193548387)" stroke="rgb(41.66129032258065,81.14516129032258,33.46774193548387)" stroke-width="1" />
<path d="M 167.50 340.50 C 152.62 352.39, 189.58 343.26, 167.50 340.50 Z" fill="rgb(62.967213114754095,74.32786885245902,44.114754098360656)" stroke="rgb(62.967213114754095,74.32786885245902,44.114754098360656)" stroke-width="1" />
<path d="M 6.50 165.50 C 7.25 181.31, 23.57 168.54, 6.50 165.50 Z" fill="rgb(144.41666666666666,167.58333333333334,88.83333333333333)" stroke="rgb(144.41666666666666,167.58333333333334,88.83333333333333)" stroke-width="1" />
<path d="M 134.50 400.50 C 125.29 415.08, 152.33 404.61, 134.50 400.50 Z" fill="rgb(55.21818181818182,56.127272727272725,53.49090909090909)" stroke="rgb(55.21818181818182,56.127272727272725,53.49090909090909)" stroke-width="1" />
<path d="M 8.50 164.50 C -1.86 176.12, 25.27 172.27, 8.50 164.50 Z" fill="rgb(129.49019607843138,153.2156862745098,71.6078431372549)" stroke="rgb(129.49019607843138,153.2156862745098,71.6078431372549)" stroke-width="1" />
<path d="M 178.50 164.50 C 174.68 183.95, 190.09 168.55, 178.50 164.50 Z" fill="rgb(94.38,90.1,63.64)" stroke="rgb(94.38,90.1,63.64)" stroke-width="1" />
<path d="M 46.50 344.50 C 23.67 350.16, 59.27 350.80, 46.50 344.50 Z" fill="rgb(220.88095238095238,213.76190476190476,180.04761904761904)" stroke="rgb(220.88095238095238,213.76190476190476,180.04761904761904)" stroke-width="1" />
<path d="M 113.50 479.50 C 111.38 491.94, 130.76 477.84, 113.50 479.50 Z" fill="rgb(113.57142857142857,125.54761904761905,84.80952380952381)" stroke="rgb(113.57142857142857,125.54761904761905,84.80952380952381)" stroke-width="1" />
<path d="M 129.50 203.50 C 124.70 216.70, 145.97 202.56, 129.50 203.50 Z" fill="rgb(222.3953488372093,227.25581395348837,198.02325581395348)" stroke="rgb(222.3953488372093,227.25581395348837,198.02325581395348)" stroke-width="1" />
<path d="M 241.50 133.50 C 230.88 144.92, 253.33 141.96, 241.50 133.50 Z" fill="rgb(52.45238095238095,64.21428571428571,58.142857142857146)" stroke="rgb(52.45238095238095,64.21428571428571,58.142857142857146)" stroke-width="1" />
<path d="M 260.50 0.50 C 267.05 5.92, 275.13 7.64, 281.50 13.50 C 277.29 7.68, 268.43 4.54, 261.50 0.50 Z" fill="rgb(134.57777777777778,142.77777777777777,99.26666666666667)" stroke="rgb(134.57777777777778,142.77777777777777,99.26666666666667)" stroke-width="1" />
<path d="M 0.50 419.50 C -1.09 432.46, 18.11 419.14, 0.50 419.50 Z" fill="rgb(190.89361702127658,214.68085106382978,126.59574468085107)" stroke="rgb(190.89361702127658,214.68085106382978,126.59574468085107)" stroke-width="1" />
<path d="M 173.50 383.50 C 168.58 394.69, 189.80 383.54, 173.50 383.50 Z" fill="rgb(95.925,106.875,96.225)" stroke="rgb(95.925,106.875,96.225)" stroke-width="1" />
<path d="M 162.50 260.50 C 158.86 273.72, 169.02 270.27, 162.50 260.50 Z" fill="rgb(49.6,48.4,35.2)" stroke="rgb(49.6,48.4,35.2)" stroke-width="1" />
<path d="M 222.50 325.50 C 209.84 330.46, 223.28 334.77, 222.50 325.50 Z" fill="rgb(134.16,154.32,100.8)" stroke="rgb(134.16,154.32,100.8)" stroke-width="1" />
<path d="M 162.50 260.50 C 160.03 275.04, 168.36 269.15, 162.50 260.50 Z" fill="rgb(92.04,89.72,76.44)" stroke="rgb(92.04,89.72,76.44)" stroke-width="1" />
<path d="M 76.50 342.50 C 63.41 346.78, 84.42 349.91, 76.50 342.50 Z" fill="rgb(157.8846153846154,176.69230769230768,96.26923076923077)" stroke="rgb(157.8846153846154,176.69230769230768,96.26923076923077)" stroke-width="1" />
<path d="M 192.50 30.50 C 192.07 40.81, 199.27 35.56, 192.50 30.50 Z" fill="rgb(143.15,152.3,110.05)" stroke="rgb(143.15,152.3,110.05)" stroke-width="1" />
<path d="M 204.50 301.50 C 197.25 307.97, 213.08 305.08, 204.50 301.50 Z" fill="rgb(87.0,83.0,68.85714285714286)" stroke="rgb(87.0,83.0,68.85714285714286)" stroke-width="1" />
</svg>