<svg xmlns="http://www.w3.org/2000/svg" width="341" height="512" viewbox="0 0 341 512">
<path d="M 0.50 0.50 C 0.50 169.50, 0.50 338.50, 0.50 507.50 C 482.40 739.61, 492.07 -221.59, 1.50 0.50 Z" fill="rgb(91.62620474081793,100.20291742641312,70.05079447772857)" stroke="rgb(91.62620474081793,100.20291742641312,70.05079447772857)" stroke-width="1" />
<path d="M 249.50 0.50 C 274.38 46.96, 247.30 130.24, 302.50 149.50 C 308.14 165.49, 301.51 169.48, 290.50 173.50 C 286.33 173.78, 334.56 200.45, 295.50 208.50 C 296.69 232.55, 300.79 247.77, 282.50 265.50 C 288.17 283.01, 276.32 295.22, 271.50 311.50 C -48.86 768.49, 635.15 253.14, 250.50 0.50 Z" fill="rgb(66.75898520084567,93.45560253699789,41.67547568710359)" stroke="rgb(66.75898520084567,93.45560253699789,41.67547568710359)" stroke-width="1" />
<path d="M 0.50 0.50 C -31.13 84.74, 49.91 193.12, 80.50 82.50 C 104.36 75.13, 156.68 55.79, 158.50 113.50 C 492.83 233.80, 293.79 -119.35, 1.50 0.50 Z" fill="rgb(163.27656765676568,179.1029702970297,112.87260726072607)" stroke="rgb(163.27656765676568,179.1029702970297,112.87260726072607)" stroke-width="1" />
<path d="M 333.50 168.50 C 319.34 177.26, 316.19 200.03, 298.50 212.50 C 293.52 226.26, 304.56 242.53, 292.50 250.50 C 276.63 269.86, 287.99 288.88, 272.50 310.50 C 263.72 320.80, 250.85 320.66, 243.50 331.50 C 224.26 337.60, 218.44 333.67, 198.50 340.50 C 196.88 348.69, 229.09 385.04, 198.50 380.50 C 175.83 358.57, 176.86 394.27, 156.50 405.50 C 135.30 424.30, 118.71 439.76, 132.50 468.50 C 129.73 481.80, 143.27 481.00, 147.50 491.50 C 195.60 529.27, 274.23 504.07, 336.50 511.50 C 344.47 482.14, 338.52 439.85, 340.50 405.50 C 340.50 367.83, 340.50 331.17, 340.50 294.50 C 340.50 283.17, 340.50 272.83, 340.50 262.50 C 340.50 257.83, 340.50 254.17, 340.50 250.50 C 340.50 243.17, 340.50 236.83, 340.50 230.50 C 335.30 211.17, 346.26 180.24, 334.50 168.50 Z" fill="rgb(45.51267369830906,69.37468608739327,32.756805625313916)" stroke="rgb(45.51267369830906,69.37468608739327,32.756805625313916)" stroke-width="1" />
<path d="M 137.50 70.50 C 84.36 69.48, 38.78 146.65, 106.50 177.50 C 145.86 184.94, 137.73 226.43, 181.50 233.50 C 204.99 231.95, 228.93 236.45, 251.50 232.50 C 277.15 237.00, 292.15 229.44, 287.50 207.50 C 332.24 195.74, 268.04 186.68, 283.50 171.50 C 308.43 118.61, 122.52 160.23, 138.50 70.50 Z" fill="rgb(61.40860692102928,59.57586512866016,40.57497781721384)" stroke="rgb(61.40860692102928,59.57586512866016,40.57497781721384)" stroke-width="1" />
<path d="M 35.50 172.50 C 26.60 176.40, 12.73 173.25, 3.50 175.50 C 0.28 179.19, 2.44 184.70, 0.50 188.50 C 0.92 237.13, -0.49 285.52, 1.50 332.50 C -7.75 375.31, 17.34 399.81, 24.50 350.50 C 35.78 340.20, 51.95 345.14, 62.50 336.50 C 71.73 321.50, 75.99 305.91, 86.50 293.50 C 103.53 287.25, 119.57 283.77, 135.50 291.50 C 141.01 305.02, 149.31 283.01, 152.50 274.50 C 150.51 261.96, 160.45 252.03, 154.50 241.50 C 155.98 218.17, 131.53 209.07, 124.50 189.50 C 115.84 181.04, 114.98 202.30, 108.50 194.50 C 99.29 161.18, 60.41 177.23, 36.50 172.50 Z" fill="rgb(149.5446190182789,170.3889402341343,100.28963852947217)" stroke="rgb(149.5446190182789,170.3889402341343,100.28963852947217)" stroke-width="1" />
<path d="M 162.50 0.50 C 162.57 11.04, 168.87 43.02, 157.50 31.50 C 136.39 48.18, 139.56 82.49, 157.50 113.50 C 173.34 129.45, 205.01 121.33, 220.50 137.50 C 240.98 134.44, 244.41 139.69, 264.50 138.50 C 266.98 105.53, 256.82 74.53, 250.50 44.50 C 245.44 29.72, 258.99 17.34, 248.50 5.50 C 229.32 -4.59, 199.35 2.99, 176.50 0.50 C 176.26 9.30, 172.10 16.05, 173.50 26.50 C 170.98 34.87, 174.89 44.90, 170.50 51.50 C 160.46 38.65, 174.35 10.62, 163.50 0.50 Z" fill="rgb(157.2292384832341,181.1853650893137,101.27789094327797)" stroke="rgb(157.2292384832341,181.1853650893137,101.27789094327797)" stroke-width="1" />
<path d="M 248.50 0.50 C 254.30 7.83, 268.97 19.02, 252.50 27.50 C 247.25 39.28, 259.97 48.34, 252.50 58.50 C 266.41 78.14, 266.31 113.05, 268.50 139.50 C 278.96 147.20, 306.46 141.41, 304.50 162.50 C 316.26 164.43, 327.49 172.01, 338.50 166.50 C 338.78 125.73, 341.14 86.24, 340.50 45.50 C 340.50 29.83, 340.50 15.17, 340.50 0.50 C 309.50 0.50, 279.50 0.50, 249.50 0.50 Z" fill="rgb(79.94176226896113,112.92861695347355,42.98932441045252)" stroke="rgb(79.94176226896113,112.92861695347355,42.98932441045252)" stroke-width="1" />
<path d="M 232.50 314.50 C 202.12 324.82, 164.93 318.71, 133.50 326.50 C 116.73 328.26, 98.76 328.46, 84.50 331.50 C 88.35 342.03, 55.30 340.53, 48.50 349.50 C 38.37 350.59, 48.20 381.62, 40.50 395.50 C 88.83 427.31, 147.11 430.01, 177.50 367.50 C 191.70 367.54, 212.57 392.54, 207.50 365.50 C 207.05 336.36, 136.84 349.95, 180.50 340.50 C 194.55 332.73, 212.12 339.35, 221.50 327.50 C 227.24 344.58, 256.90 317.36, 233.50 314.50 Z" fill="rgb(112.53014809590974,116.69605077574047,101.66466854724965)" stroke="rgb(112.53014809590974,116.69605077574047,101.66466854724965)" stroke-width="1" />
<path d="M 0.50 0.50 C 0.44 40.33, 2.21 79.40, 1.50 119.50 C 13.93 120.93, 33.98 112.12, 32.50 125.50 C 49.93 137.17, 79.13 127.35, 78.50 96.50 C 75.38 64.62, 101.95 96.61, 99.50 82.50 C 112.04 62.04, 113.43 34.78, 89.50 26.50 C 116.59 -10.49, 35.83 2.27, 1.50 0.50 Z" fill="rgb(152.37678479712378,174.6648176682075,98.214072932717)" stroke="rgb(152.37678479712378,174.6648176682075,98.214072932717)" stroke-width="1" />
<path d="M 326.50 437.50 C 290.12 446.10, 249.51 433.99, 227.50 460.50 C 190.22 450.60, 187.32 477.42, 202.50 497.50 C 203.22 507.48, 185.45 501.56, 193.50 511.50 C 233.17 511.50, 271.83 511.50, 310.50 511.50 C 322.44 509.10, 345.51 518.85, 340.50 500.50 C 332.62 481.31, 352.70 438.24, 327.50 437.50 Z" fill="rgb(29.916466922339406,53.918264621284756,18.72818791946309)" stroke="rgb(29.916466922339406,53.918264621284756,18.72818791946309)" stroke-width="1" />
<path d="M 136.50 70.50 C 103.36 60.30, 106.39 111.73, 85.50 84.50 C 70.53 123.09, 58.18 167.22, 108.50 178.50 C 117.91 194.49, 150.56 179.57, 127.50 166.50 C 146.32 159.09, 145.68 138.86, 173.50 146.50 C 282.01 140.99, 118.70 130.96, 137.50 70.50 Z" fill="rgb(113.81615460852329,110.67096134786918,79.63627353815659)" stroke="rgb(113.81615460852329,110.67096134786918,79.63627353815659)" stroke-width="1" />
<path d="M 49.50 356.50 C 39.42 366.84, 46.89 386.11, 44.50 402.50 C 63.67 406.13, 81.88 405.08, 98.50 404.50 C 119.38 417.54, 135.31 392.14, 149.50 406.50 C 168.93 393.10, 176.73 369.20, 185.50 363.50 C 158.52 361.62, 131.88 362.15, 107.50 365.50 C 88.69 361.05, 66.58 364.01, 50.50 356.50 Z" fill="rgb(157.63904607922393,168.45169765561843,171.02425222312044)" stroke="rgb(157.63904607922393,168.45169765561843,171.02425222312044)" stroke-width="1" />
<path d="M 184.50 235.50 C 154.46 231.72, 159.84 255.08, 158.50 278.50 C 189.29 289.05, 216.45 303.73, 240.50 309.50 C 241.13 272.31, 232.17 224.98, 185.50 235.50 Z" fill="rgb(67.10518053375196,68.05808477237049,53.12794348508634)" stroke="rgb(67.10518053375196,68.05808477237049,53.12794348508634)" stroke-width="1" />
<path d="M 95.50 420.50 C -97.26 448.94, 155.41 520.26, 95.50 420.50 Z" fill="rgb(117.87142857142857,117.44285714285714,82.87142857142857)" stroke="rgb(117.87142857142857,117.44285714285714,82.87142857142857)" stroke-width="1" />
<path d="M 194.50 175.50 C 148.02 166.55, 105.08 205.54, 171.50 200.50 C 193.46 200.12, 213.98 200.80, 234.50 201.50 C 254.15 200.05, 315.67 215.88, 296.50 188.50 C 262.21 183.39, 229.75 177.28, 195.50 175.50 Z" fill="rgb(118.7471743010113,113.71088637715646,76.61302795954789)" stroke="rgb(118.7471743010113,113.71088637715646,76.61302795954789)" stroke-width="1" />
<path d="M 99.50 419.50 C 81.83 425.29, 60.77 422.92, 45.50 434.50 C 47.06 491.27, 131.89 487.81, 119.50 424.50 C 114.50 417.34, 105.74 422.67, 100.50 419.50 Z" fill="rgb(165.7616788321168,157.83065693430657,135.44963503649635)" stroke="rgb(165.7616788321168,157.83065693430657,135.44963503649635)" stroke-width="1" />
<path d="M 243.50 142.50 C 213.44 144.34, 183.61 146.76, 153.50 148.50 C 140.76 144.07, 139.51 164.62, 145.50 165.50 C 174.38 163.08, 203.39 163.37, 231.50 161.50 C 254.42 160.73, 301.71 180.06, 298.50 151.50 C 280.15 147.06, 263.63 141.65, 244.50 142.50 Z" fill="rgb(144.19595278246206,135.70252951096123,103.53827993254637)" stroke="rgb(144.19595278246206,135.70252951096123,103.53827993254637)" stroke-width="1" />
<path d="M 34.50 470.50 C -74.96 531.31, 263.75 496.79, 34.50 470.50 Z" fill="rgb(nan,nan,nan)" stroke="rgb(nan,nan,nan)" stroke-width="1" />
<path d="M 241.50 238.50 C 210.97 243.50, 251.02 281.10, 244.50 305.50 C 239.85 331.94, 271.53 312.76, 270.50 302.50 C 277.91 290.24, 280.02 278.47, 274.50 266.50 C 301.47 247.00, 261.52 237.98, 242.50 238.50 Z" fill="rgb(117.38683127572017,135.47530864197532,141.4502743484225)" stroke="rgb(117.38683127572017,135.47530864197532,141.4502743484225)" stroke-width="1" />
<path d="M 33.50 470.50 C -73.61 531.16, 264.34 496.47, 33.50 470.50 Z" fill="rgb(67.39366515837104,75.32126696832579,38.95475113122172)" stroke="rgb(67.39366515837104,75.32126696832579,38.95475113122172)" stroke-width="1" />
<path d="M 94.50 0.50 C 96.61 28.34, 118.38 41.86, 127.50 66.50 C 144.80 66.91, 144.61 49.98, 148.50 36.50 C 158.11 27.02, 151.07 7.50, 158.50 0.50 C 136.83 0.50, 116.17 0.50, 95.50 0.50 Z" fill="rgb(133.1590827660337,162.92654962379075,83.05661053385883)" stroke="rgb(133.1590827660337,162.92654962379075,83.05661053385883)" stroke-width="1" />
<path d="M 213.50 238.50 C 195.31 241.33, 208.09 270.33, 192.50 267.50 C 187.25 280.59, 191.45 296.01, 210.50 293.50 C 218.78 302.73, 225.46 318.81, 241.50 309.50 C 240.44 284.53, 237.26 248.09, 214.50 238.50 Z" fill="rgb(19.30684145841868,20.561655059401886,16.73822204014748)" stroke="rgb(19.30684145841868,20.561655059401886,16.73822204014748)" stroke-width="1" />
<path d="M 22.50 118.50 C -79.29 170.13, 134.15 187.25, 55.50 154.50 C 32.75 162.88, 31.53 120.17, 23.50 118.50 Z" fill="rgb(107.34513274336283,128.21238938053096,67.43362831858407)" stroke="rgb(107.34513274336283,128.21238938053096,67.43362831858407)" stroke-width="1" />
<path d="M 36.50 470.50 C 25.52 475.44, 11.08 469.71, 0.50 473.50 C -6.59 500.18, 6.41 525.48, 30.50 506.50 C 62.25 519.06, 73.54 465.42, 37.50 470.50 Z" fill="rgb(59.768252472915684,86.21808761186999,27.46773433820066)" stroke="rgb(59.768252472915684,86.21808761186999,27.46773433820066)" stroke-width="1" />
<path d="M 35.50 381.50 C -71.06 393.24, 97.65 476.77, 33.50 394.50 C 37.13 391.73, 41.37 381.69, 36.50 381.50 Z" fill="rgb(151.94117647058823,158.86274509803923,114.98039215686275)" stroke="rgb(151.94117647058823,158.86274509803923,114.98039215686275)" stroke-width="1" />
<path d="M 137.50 70.50 C 122.07 72.14, 96.61 73.23, 108.50 92.50 C 131.85 95.21, 103.79 109.67, 113.50 125.50 C 128.00 130.04, 156.06 128.54, 146.50 102.50 C 144.18 91.08, 152.75 71.50, 138.50 70.50 Z" fill="rgb(159.3440203562341,158.0055979643766,141.65394402035622)" stroke="rgb(159.3440203562341,158.0055979643766,141.65394402035622)" stroke-width="1" />
<path d="M 189.50 202.50 C 175.61 243.28, 224.23 235.71, 247.50 230.50 C 256.10 196.65, 213.78 202.50, 190.50 202.50 Z" fill="rgb(8.995121951219513,9.38048780487805,5.824390243902439)" stroke="rgb(8.995121951219513,9.38048780487805,5.824390243902439)" stroke-width="1" />
<path d="M 1.50 137.50 C -15.62 192.16, 41.80 164.35, 71.50 171.50 C 89.75 149.13, 19.81 153.89, 2.50 138.50 Z" fill="rgb(138.06635071090048,152.28909952606634,92.90995260663507)" stroke="rgb(138.06635071090048,152.28909952606634,92.90995260663507)" stroke-width="1" />
<path d="M 12.50 322.50 C -26.41 353.00, 25.61 419.88, 25.50 350.50 C 54.52 341.71, 30.84 322.09, 13.50 322.50 Z" fill="rgb(156.79612903225805,172.38838709677418,113.02193548387096)" stroke="rgb(156.79612903225805,172.38838709677418,113.02193548387096)" stroke-width="1" />
<path d="M 148.50 119.50 C 149.16 131.01, 135.95 126.40, 128.50 128.50 C 97.29 133.26, 155.07 128.99, 146.50 147.50 C 168.00 143.53, 233.42 150.79, 213.50 133.50 C 191.73 127.62, 170.16 124.66, 149.50 119.50 Z" fill="rgb(212.30450781968722,200.71205151793927,180.82244710211592)" stroke="rgb(212.30450781968722,200.71205151793927,180.82244710211592)" stroke-width="1" />
<path d="M 0.50 0.50 C 3.37 11.41, -6.94 45.16, 9.50 34.50 C 23.50 48.94, 22.54 27.36, 31.50 25.50 C 41.18 25.81, 70.82 38.73, 48.50 13.50 C 42.48 -7.47, 18.46 3.08, 1.50 0.50 Z" fill="rgb(104.50871731008718,130.7926525529265,54.68555417185554)" stroke="rgb(104.50871731008718,130.7926525529265,54.68555417185554)" stroke-width="1" />
<path d="M 95.50 293.50 C 58.31 364.26, 199.85 300.47, 95.50 293.50 Z" fill="rgb(111.02,111.34,78.32)" stroke="rgb(111.02,111.34,78.32)" stroke-width="1" />
<path d="M 157.50 289.50 C 108.94 357.90, 266.71 294.37, 157.50 289.50 Z" fill="rgb(53.395833333333336,60.354166666666664,41.541666666666664)" stroke="rgb(53.395833333333336,60.354166666666664,41.541666666666664)" stroke-width="1" />
<path d="M 95.50 99.50 C 86.76 103.42, 95.01 116.05, 92.50 124.50 C 95.14 142.64, 86.47 188.04, 111.50 172.50 C 105.64 148.61, 125.53 102.64, 96.50 99.50 Z" fill="rgb(93.39247693399574,70.82824698367637,60.959545777146914)" stroke="rgb(93.39247693399574,70.82824698367637,60.959545777146914)" stroke-width="1" />
<path d="M 85.50 81.50 C 80.43 104.57, 68.41 125.28, 69.50 150.50 C 84.52 160.76, 93.82 184.83, 91.50 146.50 C 87.99 123.60, 93.08 94.44, 86.50 81.50 Z" fill="rgb(187.63503086419752,184.12962962962962,157.49305555555554)" stroke="rgb(187.63503086419752,184.12962962962962,157.49305555555554)" stroke-width="1" />
<path d="M 218.50 162.50 C 117.41 184.34, 378.88 180.11, 218.50 162.50 Z" fill="rgb(101.56,94.36,78.04)" stroke="rgb(101.56,94.36,78.04)" stroke-width="1" />
<path d="M 219.50 162.50 C 210.49 167.68, 175.06 158.11, 188.50 174.50 C 218.56 173.81, 244.50 180.63, 272.50 182.50 C 287.90 161.61, 239.23 163.94, 220.50 162.50 Z" fill="rgb(54.21825023518344,45.65004703668862,27.629350893697083)" stroke="rgb(54.21825023518344,45.65004703668862,27.629350893697083)" stroke-width="1" />
<path d="M 23.50 382.50 C -49.26 432.44, 70.42 424.74, 23.50 382.50 Z" fill="rgb(140.5,155.5,105.5)" stroke="rgb(140.5,155.5,105.5)" stroke-width="1" />
<path d="M 1.50 343.50 C -9.63 426.34, 80.75 353.61, 1.50 343.50 Z" fill="rgb(99.15384615384616,106.03846153846153,71.92307692307692)" stroke="rgb(99.15384615384616,106.03846153846153,71.92307692307692)" stroke-width="1" />
<path d="M 36.50 381.50 C 23.74 382.20, 12.61 386.82, 1.50 391.50 C -7.27 450.83, 41.29 415.87, 37.50 381.50 Z" fill="rgb(143.05502183406114,156.37292576419213,105.67510917030567)" stroke="rgb(143.05502183406114,156.37292576419213,105.67510917030567)" stroke-width="1" />
<path d="M 27.50 443.50 C -3.71 450.59, 9.16 483.97, 36.50 468.50 C 47.94 466.99, 63.50 485.26, 64.50 468.50 C 51.77 440.41, 41.22 460.36, 28.50 443.50 Z" fill="rgb(176.92825112107624,170.81614349775785,139.24125560538116)" stroke="rgb(176.92825112107624,170.81614349775785,139.24125560538116)" stroke-width="1" />
<path d="M 62.50 491.50 C 54.92 518.30, 7.87 508.09, 58.50 511.50 C 79.50 511.50, 99.50 511.50, 119.50 511.50 C 104.29 494.52, 88.88 492.92, 63.50 491.50 Z" fill="rgb(153.20925925925926,141.17777777777778,93.54444444444445)" stroke="rgb(153.20925925925926,141.17777777777778,93.54444444444445)" stroke-width="1" />
<path d="M 151.50 287.50 C 148.73 304.27, 129.43 321.86, 160.50 320.50 C 191.14 326.44, 175.06 280.48, 152.50 287.50 Z" fill="rgb(133.78105263157894,130.01894736842107,107.60105263157895)" stroke="rgb(133.78105263157894,130.01894736842107,107.60105263157895)" stroke-width="1" />
<path d="M 169.50 201.50 C 124.71 198.02, 154.79 235.04, 182.50 232.50 C 180.70 220.29, 189.02 197.07, 170.50 201.50 Z" fill="rgb(64.6377607025247,71.12294182217343,32.8781558726674)" stroke="rgb(64.6377607025247,71.12294182217343,32.8781558726674)" stroke-width="1" />
<path d="M 0.50 137.50 C 1.12 154.09, -5.32 178.40, 16.50 171.50 C 50.40 163.88, 21.83 132.39, 1.50 137.50 Z" fill="rgb(108.96013289036544,121.34330011074196,69.1672203765227)" stroke="rgb(108.96013289036544,121.34330011074196,69.1672203765227)" stroke-width="1" />
<path d="M 1.50 343.50 C -10.39 369.32, 15.07 406.23, 20.50 367.50 C 40.31 353.21, 14.91 345.58, 2.50 343.50 Z" fill="rgb(119.31704410011919,131.99880810488676,86.46245530393325)" stroke="rgb(119.31704410011919,131.99880810488676,86.46245530393325)" stroke-width="1" />
<path d="M 95.50 293.50 C 83.26 300.39, 73.75 335.47, 99.50 327.50 C 113.18 328.59, 120.74 287.28, 96.50 293.50 Z" fill="rgb(140.74740932642487,137.24481865284974,115.90673575129534)" stroke="rgb(140.74740932642487,137.24481865284974,115.90673575129534)" stroke-width="1" />
<path d="M 63.50 478.50 C 66.41 503.02, 102.20 482.76, 109.50 503.50 C 150.27 524.33, 108.89 475.39, 82.50 481.50 C 76.31 480.01, 70.88 478.10, 64.50 478.50 Z" fill="rgb(51.35743519781719,78.0150068212824,23.615279672578446)" stroke="rgb(51.35743519781719,78.0150068212824,23.615279672578446)" stroke-width="1" />
<path d="M 34.50 397.50 C 31.08 407.75, 14.78 430.45, 34.50 432.50 C 66.66 435.12, 51.73 409.42, 35.50 398.50 Z" fill="rgb(182.18126888217523,177.5060422960725,149.2311178247734)" stroke="rgb(182.18126888217523,177.5060422960725,149.2311178247734)" stroke-width="1" />
<path d="M 49.50 154.50 C 30.86 150.37, 32.04 177.84, 49.50 169.50 C 88.34 178.37, 84.54 148.74, 50.50 154.50 Z" fill="rgb(122.07882882882883,138.3355855855856,79.240990990991)" stroke="rgb(122.07882882882883,138.3355855855856,79.240990990991)" stroke-width="1" />
<path d="M 215.50 203.50 C 206.46 216.70, 198.89 236.10, 223.50 231.50 C 232.60 217.97, 242.10 198.21, 216.50 203.50 Z" fill="rgb(10.42215088282504,11.47833065810594,5.441412520064206)" stroke="rgb(10.42215088282504,11.47833065810594,5.441412520064206)" stroke-width="1" />
<path d="M 148.50 92.50 C 142.36 117.40, 168.72 122.19, 188.50 124.50 C 177.68 109.32, 166.14 102.70, 149.50 92.50 Z" fill="rgb(181.109756097561,203.71951219512195,121.42276422764228)" stroke="rgb(181.109756097561,203.71951219512195,121.42276422764228)" stroke-width="1" />
<path d="M 21.50 119.50 C 12.16 123.48, -4.81 116.59, 0.50 133.50 C 20.19 131.61, 46.12 164.65, 35.50 134.50 C 11.44 131.10, 30.24 118.66, 22.50 119.50 Z" fill="rgb(45.071803852889666,77.72679509632223,15.481611208406305)" stroke="rgb(45.071803852889666,77.72679509632223,15.481611208406305)" stroke-width="1" />
<path d="M 131.50 300.50 C 112.69 300.56, 97.36 333.53, 128.50 324.50 C 148.44 327.38, 138.66 307.38, 132.50 300.50 Z" fill="rgb(148.98701298701297,149.1590909090909,120.1737012987013)" stroke="rgb(148.98701298701297,149.1590909090909,120.1737012987013)" stroke-width="1" />
<path d="M 36.50 133.50 C 37.43 155.08, 43.90 156.16, 65.50 157.50 C 74.84 135.56, 53.41 135.52, 37.50 133.50 Z" fill="rgb(209.81964573268922,213.01932367149757,169.47987117552336)" stroke="rgb(209.81964573268922,213.01932367149757,169.47987117552336)" stroke-width="1" />
<path d="M 155.50 134.50 C 137.66 131.10, 139.76 154.90, 157.50 147.50 C 170.40 145.33, 227.03 144.47, 195.50 140.50 C 181.70 139.79, 168.74 134.23, 156.50 135.50 Z" fill="rgb(60.57903780068729,42.21993127147766,24.324742268041238)" stroke="rgb(60.57903780068729,42.21993127147766,24.324742268041238)" stroke-width="1" />
<path d="M 64.50 456.50 C 48.69 477.89, 97.08 489.08, 95.50 467.50 C 82.81 465.80, 78.96 453.76, 65.50 456.50 Z" fill="rgb(52.62068965517241,45.66896551724138,26.393103448275863)" stroke="rgb(52.62068965517241,45.66896551724138,26.393103448275863)" stroke-width="1" />
<path d="M 190.50 202.50 C 189.21 212.99, 184.75 241.05, 202.50 230.50 C 211.27 214.73, 217.24 196.35, 191.50 202.50 Z" fill="rgb(11.779541446208112,12.904761904761905,6.582010582010582)" stroke="rgb(11.779541446208112,12.904761904761905,6.582010582010582)" stroke-width="1" />
<path d="M 92.50 404.50 C 80.72 406.00, 49.62 431.39, 77.50 422.50 C 100.66 421.24, 127.77 417.32, 93.50 404.50 Z" fill="rgb(144.19188191881918,146.38376383763838,144.42066420664207)" stroke="rgb(144.19188191881918,146.38376383763838,144.42066420664207)" stroke-width="1" />
<path d="M 2.50 425.50 C 23.41 464.94, 73.05 440.36, 2.50 425.50 Z" fill="rgb(122.90163934426229,121.72131147540983,78.65573770491804)" stroke="rgb(122.90163934426229,121.72131147540983,78.65573770491804)" stroke-width="1" />
<path d="M 173.50 292.50 C 174.61 300.73, 178.89 307.65, 178.50 316.50 C 206.44 332.69, 200.94 284.48, 174.50 292.50 Z" fill="rgb(83.12453531598513,86.70074349442379,84.20260223048327)" stroke="rgb(83.12453531598513,86.70074349442379,84.20260223048327)" stroke-width="1" />
<path d="M 2.50 425.50 C -4.32 449.94, 38.07 433.87, 39.50 453.50 C 55.03 435.02, 20.35 432.73, 3.50 425.50 Z" fill="rgb(56.156941649899395,84.19919517102616,27.040241448692154)" stroke="rgb(56.156941649899395,84.19919517102616,27.040241448692154)" stroke-width="1" />
<path d="M 170.50 361.50 C 150.28 356.83, 159.23 405.72, 177.50 382.50 C 170.99 362.57, 205.62 366.46, 171.50 361.50 Z" fill="rgb(41.125,53.68055555555556,55.18650793650794)" stroke="rgb(41.125,53.68055555555556,55.18650793650794)" stroke-width="1" />
<path d="M 162.50 165.50 C 86.15 178.72, 208.48 182.17, 162.50 165.50 Z" fill="rgb(35.72727272727273,26.636363636363637,15.090909090909092)" stroke="rgb(35.72727272727273,26.636363636363637,15.090909090909092)" stroke-width="1" />
<path d="M 34.50 354.50 C -7.54 389.61, 66.58 381.45, 34.50 354.50 Z" fill="rgb(98.73015873015873,102.12698412698413,86.80952380952381)" stroke="rgb(98.73015873015873,102.12698412698413,86.80952380952381)" stroke-width="1" />
<path d="M 162.50 165.50 C 153.35 169.97, 127.76 162.20, 137.50 179.50 C 147.23 181.32, 199.02 169.88, 163.50 165.50 Z" fill="rgb(50.93333333333333,41.65777777777778,28.195555555555554)" stroke="rgb(50.93333333333333,41.65777777777778,28.195555555555554)" stroke-width="1" />
<path d="M 237.50 205.50 C 234.87 214.57, 217.11 236.22, 237.50 233.50 C 255.73 235.00, 250.88 209.21, 238.50 205.50 Z" fill="rgb(11.390756302521009,10.054621848739496,4.2478991596638656)" stroke="rgb(11.390756302521009,10.054621848739496,4.2478991596638656)" stroke-width="1" />
<path d="M 205.50 348.50 C 205.32 358.27, 220.42 402.34, 225.50 370.50 C 231.00 355.48, 215.08 353.96, 206.50 348.50 Z" fill="rgb(99.1951754385965,115.09429824561404,70.83114035087719)" stroke="rgb(99.1951754385965,115.09429824561404,70.83114035087719)" stroke-width="1" />
<path d="M 178.50 253.50 C 166.89 309.75, 212.18 280.00, 178.50 253.50 Z" fill="rgb(60.06122448979592,60.82993197278912,57.10884353741496)" stroke="rgb(60.06122448979592,60.82993197278912,57.10884353741496)" stroke-width="1" />
<path d="M 172.50 262.50 C 162.35 265.64, 151.19 277.09, 166.50 288.50 C 182.05 292.39, 179.65 266.96, 173.50 262.50 Z" fill="rgb(23.150753768844222,27.27386934673367,16.565326633165828)" stroke="rgb(23.150753768844222,27.27386934673367,16.565326633165828)" stroke-width="1" />
<path d="M 43.50 404.50 C 63.20 446.00, 99.01 392.39, 43.50 404.50 Z" fill="rgb(202.03846153846155,205.7051282051282,204.03846153846155)" stroke="rgb(202.03846153846155,205.7051282051282,204.03846153846155)" stroke-width="1" />
<path d="M 44.50 404.50 C 51.06 410.62, 59.52 435.29, 65.50 418.50 C 97.04 403.06, 61.53 406.58, 45.50 404.50 Z" fill="rgb(247.5354523227384,248.24449877750612,248.01711491442543)" stroke="rgb(247.5354523227384,248.24449877750612,248.01711491442543)" stroke-width="1" />
<path d="M 148.50 93.50 C 135.51 115.91, 178.81 124.64, 170.50 104.50 C 163.41 99.11, 155.11 100.04, 149.50 94.50 Z" fill="rgb(212.3062827225131,226.37696335078533,161.20942408376965)" stroke="rgb(212.3062827225131,226.37696335078533,161.20942408376965)" stroke-width="1" />
<path d="M 107.50 408.50 C 126.40 452.01, 152.24 409.80, 107.50 408.50 Z" fill="rgb(113.825,125.575,123.125)" stroke="rgb(113.825,125.575,123.125)" stroke-width="1" />
<path d="M 106.50 408.50 C 116.88 417.41, 121.45 437.63, 136.50 426.50 C 125.40 424.18, 130.50 401.47, 107.50 408.50 Z" fill="rgb(200.06267806267806,213.40740740740742,214.03988603988603)" stroke="rgb(200.06267806267806,213.40740740740742,214.03988603988603)" stroke-width="1" />
<path d="M 120.50 453.50 C 115.61 466.83, 102.18 472.98, 89.50 478.50 C 105.19 496.81, 119.00 470.96, 121.50 453.50 Z" fill="rgb(6.203389830508475,7.487288135593221,5.021186440677966)" stroke="rgb(6.203389830508475,7.487288135593221,5.021186440677966)" stroke-width="1" />
<path d="M 195.50 362.50 C 178.56 368.08, 209.33 388.96, 214.50 380.50 C 206.26 376.00, 210.96 358.95, 196.50 362.50 Z" fill="rgb(101.01234567901234,122.11728395061728,128.26543209876544)" stroke="rgb(101.01234567901234,122.11728395061728,128.26543209876544)" stroke-width="1" />
<path d="M 109.50 287.50 C 108.98 324.43, 150.73 287.58, 109.50 287.50 Z" fill="rgb(177.13671875,186.95703125,110.9609375)" stroke="rgb(177.13671875,186.95703125,110.9609375)" stroke-width="1" />
<path d="M 22.50 367.50 C 7.91 398.73, 66.55 366.03, 22.50 367.50 Z" fill="rgb(111.44186046511628,114.6046511627907,99.51627906976744)" stroke="rgb(111.44186046511628,114.6046511627907,99.51627906976744)" stroke-width="1" />
<path d="M 122.50 449.50 C 100.29 491.70, 143.15 474.77, 122.50 449.50 Z" fill="rgb(51.81327800829875,49.53941908713693,33.58091286307054)" stroke="rgb(51.81327800829875,49.53941908713693,33.58091286307054)" stroke-width="1" />
<path d="M 70.50 154.50 C 42.08 178.76, 105.34 166.80, 70.50 154.50 Z" fill="rgb(156.94554455445544,171.55940594059405,105.3019801980198)" stroke="rgb(156.94554455445544,171.55940594059405,105.3019801980198)" stroke-width="1" />
<path d="M 226.50 501.50 C 165.34 513.65, 263.55 516.92, 226.50 501.50 Z" fill="rgb(29.591463414634145,57.51219512195122,17.213414634146343)" stroke="rgb(29.591463414634145,57.51219512195122,17.213414634146343)" stroke-width="1" />
<path d="M 142.50 182.50 C 110.41 200.07, 170.05 208.48, 142.50 182.50 Z" fill="rgb(174.44748858447488,163.54337899543378,112.58447488584476)" stroke="rgb(174.44748858447488,163.54337899543378,112.58447488584476)" stroke-width="1" />
<path d="M 301.50 488.50 C 283.62 525.56, 331.13 494.58, 301.50 488.50 Z" fill="rgb(42.857142857142854,71.5,23.442857142857143)" stroke="rgb(42.857142857142854,71.5,23.442857142857143)" stroke-width="1" />
<path d="M 291.50 186.50 C 288.05 217.97, 330.52 185.67, 291.50 186.50 Z" fill="rgb(136.15686274509804,135.1764705882353,93.0)" stroke="rgb(136.15686274509804,135.1764705882353,93.0)" stroke-width="1" />
<path d="M 169.50 496.50 C 131.48 519.98, 199.90 513.67, 169.50 496.50 Z" fill="rgb(46.4054054054054,68.35810810810811,28.736486486486488)" stroke="rgb(46.4054054054054,68.35810810810811,28.736486486486488)" stroke-width="1" />
<path d="M 135.50 400.50 C 109.90 422.82, 169.81 416.24, 135.50 400.50 Z" fill="rgb(66.84615384615384,77.1923076923077,74.88461538461539)" stroke="rgb(66.84615384615384,77.1923076923077,74.88461538461539)" stroke-width="1" />
<path d="M 33.50 354.50 C 23.24 387.10, 62.80 362.76, 33.50 354.50 Z" fill="rgb(121.22651933701657,121.50276243093923,108.61878453038673)" stroke="rgb(121.22651933701657,121.50276243093923,108.61878453038673)" stroke-width="1" />
<path d="M 125.50 242.50 C 105.56 264.07, 157.80 254.01, 125.50 242.50 Z" fill="rgb(28.682926829268293,35.823170731707314,19.054878048780488)" stroke="rgb(28.682926829268293,35.823170731707314,19.054878048780488)" stroke-width="1" />
<path d="M 1.50 437.50 C -11.54 470.94, 34.69 440.97, 1.50 437.50 Z" fill="rgb(107.54010695187166,118.7433155080214,78.31550802139037)" stroke="rgb(107.54010695187166,118.7433155080214,78.31550802139037)" stroke-width="1" />
<path d="M 21.50 47.50 C 12.77 66.10, 66.05 47.76, 21.50 47.50 Z" fill="rgb(88.83892617449665,104.2751677852349,59.50335570469799)" stroke="rgb(88.83892617449665,104.2751677852349,59.50335570469799)" stroke-width="1" />
<path d="M 307.50 437.50 C 276.27 449.61, 336.65 453.74, 307.50 437.50 Z" fill="rgb(45.97872340425532,84.72340425531915,37.4468085106383)" stroke="rgb(45.97872340425532,84.72340425531915,37.4468085106383)" stroke-width="1" />
<path d="M 187.50 254.50 C 179.58 295.55, 198.52 289.75, 187.50 254.50 Z" fill="rgb(61.725352112676056,65.14084507042253,65.6830985915493)" stroke="rgb(61.725352112676056,65.14084507042253,65.6830985915493)" stroke-width="1" />
<path d="M 249.50 439.50 C 232.13 461.70, 281.27 446.27, 249.50 439.50 Z" fill="rgb(19.027027027027028,49.777027027027025,7.9391891891891895)" stroke="rgb(19.027027027027028,49.777027027027025,7.9391891891891895)" stroke-width="1" />
<path d="M 173.50 383.50 C 132.57 418.94, 183.49 396.05, 173.50 383.50 Z" fill="rgb(59.567567567567565,73.0,60.648648648648646)" stroke="rgb(59.567567567567565,73.0,60.648648648648646)" stroke-width="1" />
<path d="M 135.50 400.50 C 112.34 418.81, 157.74 418.76, 135.50 400.50 Z" fill="rgb(43.686868686868685,47.26262626262626,45.656565656565654)" stroke="rgb(43.686868686868685,47.26262626262626,45.656565656565654)" stroke-width="1" />
<path d="M 157.50 227.50 C 158.00 249.26, 193.86 225.88, 157.50 227.50 Z" fill="rgb(29.971830985915492,48.147887323943664,17.711267605633804)" stroke="rgb(29.971830985915492,48.147887323943664,17.711267605633804)" stroke-width="1" />
<path d="M 173.50 383.50 C 137.01 413.18, 187.09 391.97, 173.50 383.50 Z" fill="rgb(59.43518518518518,75.49074074074075,56.583333333333336)" stroke="rgb(59.43518518518518,75.49074074074075,56.583333333333336)" stroke-width="1" />
<path d="M 291.50 186.50 C 284.00 212.60, 317.10 189.72, 291.50 186.50 Z" fill="rgb(193.99193548387098,186.90322580645162,154.83064516129033)" stroke="rgb(193.99193548387098,186.90322580645162,154.83064516129033)" stroke-width="1" />
<path d="M 316.50 395.50 C 281.87 400.02, 328.45 414.05, 316.50 395.50 Z" fill="rgb(7.208,15.112,5.848)" stroke="rgb(7.208,15.112,5.848)" stroke-width="1" />
<path d="M 228.50 163.50 C 222.77 193.20, 252.49 163.48, 228.50 163.50 Z" fill="rgb(35.7109375,29.9609375,16.234375)" stroke="rgb(35.7109375,29.9609375,16.234375)" stroke-width="1" />
<path d="M 309.50 438.50 C 284.77 456.07, 332.42 449.67, 309.50 438.50 Z" fill="rgb(31.918032786885245,71.23770491803279,7.090163934426229)" stroke="rgb(31.918032786885245,71.23770491803279,7.090163934426229)" stroke-width="1" />
<path d="M 227.50 500.50 C 216.62 520.39, 257.51 507.49, 227.50 500.50 Z" fill="rgb(39.388429752066116,72.04132231404958,14.024793388429751)" stroke="rgb(39.388429752066116,72.04132231404958,14.024793388429751)" stroke-width="1" />
<path d="M 171.50 495.50 C 157.46 513.48, 196.10 509.93, 171.50 495.50 Z" fill="rgb(60.14035087719298,89.29824561403508,37.675438596491226)" stroke="rgb(60.14035087719298,89.29824561403508,37.675438596491226)" stroke-width="1" />
<path d="M 243.50 455.50 C 226.81 475.83, 270.84 457.72, 243.50 455.50 Z" fill="rgb(18.561904761904763,49.04761904761905,7.447619047619048)" stroke="rgb(18.561904761904763,49.04761904761905,7.447619047619048)" stroke-width="1" />
<path d="M 158.50 0.50 C 156.51 44.14, 167.99 30.42, 158.50 0.50 Z" fill="rgb(136.32,154.81,100.98)" stroke="rgb(136.32,154.81,100.98)" stroke-width="1" />
<path d="M 103.50 298.50 C 84.58 308.76, 125.18 317.09, 103.50 298.50 Z" fill="rgb(76.35576923076923,75.47115384615384,57.76923076923077)" stroke="rgb(76.35576923076923,75.47115384615384,57.76923076923077)" stroke-width="1" />
<path d="M 178.50 254.50 C 174.67 292.05, 187.01 285.41, 178.50 254.50 Z" fill="rgb(88.6082474226804,93.0721649484536,91.88659793814433)" stroke="rgb(88.6082474226804,93.0721649484536,91.88659793814433)" stroke-width="1" />
<path d="M 164.50 237.50 C 165.46 257.57, 191.49 244.87, 164.50 237.50 Z" fill="rgb(67.64077669902913,77.62135922330097,63.58252427184466)" stroke="rgb(67.64077669902913,77.62135922330097,63.58252427184466)" stroke-width="1" />
<path d="M 6.50 453.50 C -12.04 477.15, 15.77 467.38, 6.50 453.50 Z" fill="rgb(82.96551724137932,77.97701149425288,48.0)" stroke="rgb(82.96551724137932,77.97701149425288,48.0)" stroke-width="1" />
<path d="M 78.50 308.50 C 57.98 326.90, 88.65 326.31, 78.50 308.50 Z" fill="rgb(109.4326923076923,113.08653846153847,78.00961538461539)" stroke="rgb(109.4326923076923,113.08653846153847,78.00961538461539)" stroke-width="1" />
<path d="M 269.50 457.50 C 238.94 462.15, 290.32 470.40, 269.50 457.50 Z" fill="rgb(24.83695652173913,56.05434782608695,14.804347826086957)" stroke="rgb(24.83695652173913,56.05434782608695,14.804347826086957)" stroke-width="1" />
<path d="M 334.50 436.50 C 320.81 458.18, 354.63 440.38, 334.50 436.50 Z" fill="rgb(28.40449438202247,62.39325842696629,14.865168539325843)" stroke="rgb(28.40449438202247,62.39325842696629,14.865168539325843)" stroke-width="1" />
<path d="M 271.50 442.50 C 266.10 458.77, 300.92 439.23, 271.50 442.50 Z" fill="rgb(47.906976744186046,88.70930232558139,39.74418604651163)" stroke="rgb(47.906976744186046,88.70930232558139,39.74418604651163)" stroke-width="1" />
<path d="M 219.50 163.50 C 215.03 189.45, 238.22 164.90, 219.50 163.50 Z" fill="rgb(34.1505376344086,28.225806451612904,16.172043010752688)" stroke="rgb(34.1505376344086,28.225806451612904,16.172043010752688)" stroke-width="1" />
<path d="M 77.50 325.50 C 55.13 334.64, 97.10 338.01, 77.50 325.50 Z" fill="rgb(162.25581395348837,185.2093023255814,93.72093023255815)" stroke="rgb(162.25581395348837,185.2093023255814,93.72093023255815)" stroke-width="1" />
<path d="M 117.50 458.50 C 102.24 487.50, 113.38 486.33, 117.50 458.50 Z" fill="rgb(19.944444444444443,21.73611111111111,22.36111111111111)" stroke="rgb(19.944444444444443,21.73611111111111,22.36111111111111)" stroke-width="1" />
<path d="M 147.50 113.50 C 154.39 127.72, 173.68 112.51, 147.50 113.50 Z" fill="rgb(195.46575342465752,182.3972602739726,149.36986301369862)" stroke="rgb(195.46575342465752,182.3972602739726,149.36986301369862)" stroke-width="1" />
<path d="M 33.50 397.50 C 30.46 413.64, 56.46 406.43, 33.50 397.50 Z" fill="rgb(156.37333333333333,151.49333333333334,135.33333333333334)" stroke="rgb(156.37333333333333,151.49333333333334,135.33333333333334)" stroke-width="1" />
<path d="M 233.50 460.50 C 212.15 473.47, 254.63 463.36, 233.50 460.50 Z" fill="rgb(41.66129032258065,81.14516129032258,33.46774193548387)" stroke="rgb(41.66129032258065,81.14516129032258,33.46774193548387)" stroke-width="1" />
<path d="M 167.50 340.50 C 152.62 352.39, 189.58 343.26, 167.50 340.50 Z" fill="rgb(62.967213114754095,74.32786885245902,44.114754098360656)" stroke="rgb(62.967213114754095,74.32786885245902,44.114754098360656)" stroke-width="1" />
<path d="M 6.50 165.50 C 7.25 181.31, 23.57 168.54, 6.50 165.50 Z" fill="rgb(144.41666666666666,167.58333333333334,88.83333333333333)" stroke="rgb(144.41666666666666,167.58333333333334,88.83333333333333)" stroke-width="1" />
<path d="M 134.50 400.50 C 125.29 415.08, 152.33 404.61, 134.50 400.50 Z" fill="rgb(55.21818181818182,56.127272727272725,53.49090909090909)" stroke="rgb(55.21818181818182,56.127272727272725,53.49090909090909)" stroke-width="1" />
<path d="M 8.50 164.50 C -1.86 176.12, 25.27 172.27, 8.50 164.50 Z" fill="rgb(129.49019607843138,153.2156862745098,71.6078431372549)" stroke="rgb(129.49019607843138,153.2156862745098,71.6078431372549)" stroke-width="1" />
<path d="M 178.50 164.50 C 174.68 183.95, 190.09 168.55, 178.50 164.50 Z" fill="rgb(94.38,90.1,63.64)" stroke="rgb(94.38,90.1,63.64)" stroke-width="1" />
<path d="M 46.50 344.50 C 23.67 350.16, 59.27 350.80, 46.50 344.50 Z" fill="rgb(220.88095238095238,213.76190476190476,180.04761904761904)" stroke="rgb(220.88095238095238,213.76190476190476,180.04761904761904)" stroke-width="1" />
<path d="M 113.50 479.50 C 111.38 491.94, 130.76 477.84, 113.50 479.50 Z" fill="rgb(113.57142857142857,125.54761904761905,84.80952380952381)" stroke="rgb(113.57142857142857,125.54761904761905,84.80952380952381)" stroke-width="1" />
<path d="M 129.50 203.50 C 124.70 216.70, 145.97 202.56, 129.50 203.50 Z" fill="rgb(222.3953488372093,227.25581395348837,198.02325581395348)" stroke="rgb(222.3953488372093,227.25581395348837,198.02325581395348)" stroke-width="1" />
<path d="M 241.50 133.50 C 230.88 144.92, 253.33 141.96, 241.50 133.50 Z" fill="rgb(52.45238095238095,64.21428571428571,58.142857142857146)" stroke="rgb(52.45238095238095,64.21428571428571,58.142857142857146)" stroke-width="1" />
<path d="M 260.50 0.50 C 283.02 15.78, 284.91 11.41, 260.50 0.50 Z" fill="rgb(135.925,145.2,96.875)" stroke="rgb(135.925,145.2,96.875)" stroke-width="1" />
<path d="M 0.50 419.50 C -1.09 432.46, 18.11 419.14, 0.50 419.50 Z" fill="rgb(190.89361702127658,214.68085106382978,126.59574468085107)" stroke="rgb(190.89361702127658,214.68085106382978,126.59574468085107)" stroke-width="1" />
<path d="M 173.50 383.50 C 168.58 394.69, 189.80 383.54, 173.50 383.50 Z" fill="rgb(95.925,106.875,96.225)" stroke="rgb(95.925,106.875,96.225)" stroke-width="1" />
<path d="M 162.50 260.50 C 158.86 273.72, 169.02 270.27, 162.50 260.50 Z" fill="rgb(49.6,48.4,35.2)" stroke="rgb(49.6,48.4,35.2)" stroke-width="1" />
<path d="M 222.50 325.50 C 209.84 330.46, 223.28 334.77, 222.50 325.50 Z" fill="rgb(134.16,154.32,100.8)" stroke="rgb(134.16,154.32,100.8)" stroke-width="1" />
<path d="M 162.50 260.50 C 160.03 275.04, 168.36 269.15, 162.50 260.50 Z" fill="rgb(92.04,89.72,76.44)" stroke="rgb(92.04,89.72,76.44)" stroke-width="1" />
<path d="M 76.50 342.50 C 63.41 346.78, 84.42 349.91, 76.50 342.50 Z" fill="rgb(157.8846153846154,176.69230769230768,96.26923076923077)" stroke="rgb(157.8846153846154,176.69230769230768,96.26923076923077)" stroke-width="1" />
<path d="M 192.50 30.50 C 192.07 40.81, 199.27 35.56, 192.50 30.50 Z" fill="rgb(143.15,152.3,110.05)" stroke="rgb(143.15,152.3,110.05)" stroke-width="1" />
<path d="M 204.50 301.50 C 197.25 307.97, 213.08 305.08, 204.50 301.50 Z" fill="rgb(87.0,83.0,68.85714285714286)" stroke="rgb(87.0,83.0,68.85714285714286)" stroke-width="1" />
</svg>