<svg xmlns="http://www.w3.org/2000/svg" width="341" height="512" viewbox="0 0 341 512">
<path d="M 0.00 0.00 C 0.00 141.33, 0.00 282.67, 0.00 424.00 C 0.00 442.33, 0.00 459.67, 0.00 477.00 C 0.00 486.33, 0.00 494.67, 0.00 503.00 C -3.18 515.84, 11.96 509.37, 19.00 511.00 C 55.33 511.00, 90.67 511.00, 126.00 511.00 C 197.67 511.00, 268.33 511.00, 339.00 511.00 C 340.00 369.67, 340.00 228.33, 340.00 87.00 C 340.00 68.67, 340.00 51.33, 340.00 34.00 C 340.00 24.67, 340.00 16.33, 340.00 8.00 C 343.18 -4.84, 328.04 1.63, 321.00 0.00 C 284.67 0.00, 249.33 0.00, 214.00 0.00 C 142.33 0.00, 71.67 0.00, 1.00 0.00 Z" fill="rgb(94.66447541414672,103.81264790954509,71.77754404417566)" stroke="rgb(94.66447541414672,103.81264790954509,71.77754404417566)" stroke-width="1" />
<path d="M 249.00 0.00 C 249.53 7.22, 265.32 7.01, 260.00 17.00 C 256.75 25.05, 249.78 29.76, 253.00 39.00 C 259.49 46.48, 252.54 55.95, 258.00 61.00 C 260.88 65.25, 264.88 66.63, 265.00 71.00 C 267.74 73.31, 271.64 77.61, 268.00 81.00 C 277.21 85.53, 268.05 94.35, 272.00 101.00 C 269.66 104.83, 274.14 108.95, 271.00 112.00 C 275.63 115.81, 267.33 122.56, 271.00 121.00 C 274.75 126.33, 268.50 128.18, 270.00 129.00 C 272.70 130.46, 270.01 139.66, 274.00 137.00 C 281.57 141.84, 289.42 143.60, 297.00 146.00 C 306.39 149.29, 300.30 160.00, 306.00 165.00 C 296.59 170.37, 292.47 168.73, 287.00 176.00 C 286.77 176.80, 290.97 175.46, 294.00 177.00 C 291.59 182.97, 299.17 181.90, 302.00 183.00 C 311.51 184.67, 313.97 197.27, 308.00 202.00 C 301.41 206.74, 290.73 205.48, 295.00 216.00 C 296.22 225.12, 291.83 233.41, 298.00 239.00 C 294.03 245.91, 289.73 254.07, 285.00 261.00 C 274.25 268.53, 286.72 277.04, 283.00 285.00 C 277.51 291.36, 275.95 300.45, 272.00 307.00 C 269.09 315.91, 260.47 319.25, 253.00 322.00 C 245.50 329.68, 239.10 336.61, 230.00 337.00 C 220.58 334.62, 214.80 337.41, 208.00 340.00 C 204.19 342.62, 199.70 340.11, 201.00 346.00 C 206.24 348.79, 203.48 350.92, 208.00 354.00 C 209.13 362.55, 210.06 370.20, 213.00 377.00 C 217.93 386.09, 200.35 386.10, 198.00 381.00 C 191.43 382.94, 191.22 375.93, 187.00 375.00 C 182.07 371.16, 178.17 373.54, 181.00 378.00 C 183.47 390.26, 171.42 387.33, 168.00 395.00 C 167.72 401.27, 160.13 398.88, 160.00 402.00 C 156.60 406.93, 152.55 408.77, 150.00 413.00 C 140.96 416.47, 140.12 424.91, 136.00 432.00 C 128.60 436.62, 124.84 445.86, 133.00 452.00 C 138.78 460.11, 134.44 467.66, 137.00 475.00 C 145.00 480.60, 147.09 490.02, 156.00 495.00 C 164.41 500.69, 168.48 496.50, 177.00 501.00 C 183.59 508.05, 191.18 510.95, 200.00 511.00 C 231.33 511.00, 261.67 511.00, 292.00 511.00 C 308.00 511.00, 323.00 511.00, 338.00 511.00 C 339.00 495.67, 339.00 480.33, 339.00 465.00 C 339.00 449.00, 339.00 434.00, 339.00 419.00 C 339.78 403.19, 340.34 388.28, 340.00 373.00 C 340.00 341.33, 340.00 310.67, 340.00 280.00 C 340.00 217.67, 340.00 156.33, 340.00 95.00 C 340.00 63.67, 340.00 33.33, 340.00 3.00 C 337.16 -2.49, 326.13 1.21, 320.00 0.00 C 311.67 0.00, 304.33 0.00, 297.00 0.00 C 280.67 0.00, 265.33 0.00, 250.00 0.00 Z" fill="rgb(69.2060606060606,94.4979797979798,43.726262626262624)" stroke="rgb(69.2060606060606,94.4979797979798,43.726262626262624)" stroke-width="1" />
<path d="M 0.00 0.00 C 0.00 21.67, 0.00 43.33, 0.00 65.00 C 0.00 76.67, 0.00 87.33, 0.00 98.00 C 0.39 104.11, -1.30 110.09, 2.00 114.00 C 1.36 120.97, 10.94 116.72, 15.00 118.00 C 20.07 116.80, 28.98 115.10, 29.00 122.00 C 26.74 129.05, 36.08 129.69, 41.00 130.00 C 46.76 133.03, 51.53 131.16, 57.00 131.00 C 58.19 123.67, 66.06 124.41, 68.00 119.00 C 71.11 113.02, 75.30 110.10, 76.00 104.00 C 76.42 97.70, 75.02 91.65, 77.00 87.00 C 79.31 80.51, 85.80 76.92, 91.00 80.00 C 91.95 87.56, 99.88 91.51, 98.00 83.00 C 102.51 69.47, 115.74 70.43, 127.00 68.00 C 132.98 68.39, 138.67 67.05, 143.00 69.00 C 151.25 70.21, 148.51 79.09, 149.00 84.00 C 149.54 90.36, 148.39 95.02, 148.00 100.00 C 147.16 107.09, 147.89 112.80, 155.00 112.00 C 161.84 112.82, 165.85 117.02, 169.00 121.00 C 175.08 122.61, 180.41 123.62, 186.00 124.00 C 192.39 124.72, 196.49 127.56, 202.00 127.00 C 207.88 129.14, 215.70 129.01, 216.00 136.00 C 221.81 137.45, 226.55 139.09, 232.00 139.00 C 238.01 137.26, 241.11 128.01, 246.00 136.00 C 249.52 140.47, 256.20 139.68, 261.00 140.00 C 266.97 141.87, 272.49 142.43, 278.00 143.00 C 284.12 144.85, 290.33 144.07, 295.00 147.00 C 303.27 145.23, 305.09 154.50, 306.00 158.00 C 311.41 160.76, 317.14 161.32, 322.00 159.00 C 325.10 161.88, 328.13 158.71, 327.00 156.00 C 328.18 151.08, 333.53 155.93, 334.00 154.00 C 333.68 148.12, 335.44 143.01, 335.00 138.00 C 336.06 132.17, 332.37 123.98, 338.00 122.00 C 332.70 119.40, 336.39 112.82, 336.00 108.00 C 339.40 103.70, 337.33 96.84, 339.00 92.00 C 339.00 80.33, 339.00 69.67, 339.00 59.00 C 339.00 47.33, 339.00 36.67, 339.00 26.00 C 339.00 20.00, 339.00 15.00, 339.00 10.00 C 339.76 2.91, 339.44 -2.11, 332.00 0.00 C 309.33 0.00, 287.67 0.00, 266.00 0.00 C 177.00 0.00, 89.00 0.00, 1.00 0.00 Z" fill="rgb(159.97953964194375,176.15920716112532,110.12787723785166)" stroke="rgb(159.97953964194375,176.15920716112532,110.12787723785166)" stroke-width="1" />
<path d="M 333.00 168.00 C 327.20 171.82, 323.53 171.91, 328.00 177.00 C 323.88 181.97, 319.21 181.80, 315.00 185.00 C 310.30 190.68, 316.36 196.19, 312.00 201.00 C 307.93 205.57, 303.74 208.77, 298.00 209.00 C 296.54 219.80, 296.67 232.54, 298.00 241.00 C 297.28 247.79, 291.28 251.01, 289.00 255.00 C 289.55 263.16, 280.75 262.94, 281.00 269.00 C 278.08 276.57, 289.94 278.75, 284.00 284.00 C 277.38 288.64, 281.14 296.16, 276.00 300.00 C 271.03 305.31, 273.56 312.56, 267.00 315.00 C 261.79 320.24, 255.42 319.27, 251.00 323.00 C 246.49 328.54, 241.75 332.90, 236.00 334.00 C 231.39 336.33, 221.13 336.94, 223.00 332.00 C 219.49 336.45, 212.49 335.98, 208.00 338.00 C 202.31 339.81, 194.32 339.27, 194.00 346.00 C 200.73 348.17, 202.29 351.27, 206.00 355.00 C 207.39 359.23, 208.00 364.68, 210.00 370.00 C 208.20 375.46, 216.24 379.44, 207.00 381.00 C 201.05 383.07, 195.81 378.29, 192.00 376.00 C 188.50 372.89, 179.91 367.09, 178.00 373.00 C 180.38 380.73, 179.87 383.91, 175.00 387.00 C 167.65 385.31, 168.32 395.20, 162.00 396.00 C 160.89 403.33, 153.94 405.62, 151.00 410.00 C 146.93 415.22, 139.90 416.72, 137.00 421.00 C 142.56 427.62, 132.64 431.73, 129.00 435.00 C 125.31 437.65, 121.30 445.40, 126.00 448.00 C 130.91 453.07, 133.22 457.81, 132.00 464.00 C 132.12 469.00, 128.09 477.16, 134.00 478.00 C 139.53 481.04, 142.27 485.36, 146.00 490.00 C 152.45 494.24, 155.67 499.49, 161.00 502.00 C 166.40 507.19, 171.14 505.88, 176.00 508.00 C 185.44 513.43, 197.21 509.84, 207.00 511.00 C 218.33 511.00, 228.67 511.00, 239.00 511.00 C 261.00 511.00, 282.00 511.00, 303.00 511.00 C 314.33 511.00, 324.67 511.00, 335.00 511.00 C 342.84 512.84, 339.03 504.03, 340.00 500.00 C 340.00 494.00, 340.00 489.00, 340.00 484.00 C 340.00 462.00, 340.00 441.00, 340.00 420.00 C 340.00 376.67, 340.00 334.33, 340.00 292.00 C 340.00 270.00, 340.00 249.00, 340.00 228.00 C 337.78 217.45, 339.58 206.23, 339.00 196.00 C 339.00 190.00, 339.00 185.00, 339.00 180.00 C 338.69 174.60, 340.85 166.23, 334.00 168.00 Z" fill="rgb(45.46972804869979,69.27155429100775,32.764970555151194)" stroke="rgb(45.46972804869979,69.27155429100775,32.764970555151194)" stroke-width="1" />
<path d="M 137.00 70.00 C 130.17 71.42, 122.80 71.51, 116.00 73.00 C 104.83 71.57, 104.44 81.49, 105.00 88.00 C 105.30 97.84, 88.11 95.50, 90.00 88.00 C 80.41 83.34, 79.70 96.35, 80.00 103.00 C 82.40 113.52, 75.57 116.06, 73.00 123.00 C 72.13 131.39, 65.82 137.96, 71.00 145.00 C 66.36 155.38, 83.85 150.67, 82.00 161.00 C 80.48 171.97, 93.25 170.66, 99.00 174.00 C 108.58 174.64, 108.03 189.18, 118.00 184.00 C 126.79 182.33, 131.87 190.70, 135.00 197.00 C 135.62 202.44, 141.27 194.86, 144.00 199.00 C 150.52 201.54, 142.85 205.69, 144.00 209.00 C 146.85 217.86, 152.06 224.18, 160.00 227.00 C 167.83 229.42, 175.16 230.61, 182.00 233.00 C 190.29 231.46, 196.37 233.16, 204.00 233.00 C 212.46 232.23, 218.73 234.31, 226.00 234.00 C 233.98 232.80, 241.49 232.90, 249.00 233.00 C 257.00 232.00, 264.00 232.00, 271.00 232.00 C 278.99 232.40, 288.82 232.67, 286.00 223.00 C 285.21 215.41, 282.83 207.04, 292.00 204.00 C 302.18 205.79, 307.14 195.95, 302.00 189.00 C 294.91 184.81, 286.40 186.44, 280.00 183.00 C 276.57 173.04, 283.49 168.11, 291.00 167.00 C 295.51 165.81, 300.15 162.35, 298.00 159.00 C 294.89 154.76, 300.75 150.28, 294.00 149.00 C 285.56 147.59, 278.51 145.24, 271.00 144.00 C 262.97 144.06, 255.80 139.19, 249.00 142.00 C 240.25 143.61, 234.75 141.26, 227.00 141.00 C 217.02 141.49, 214.05 133.89, 208.00 131.00 C 199.97 128.59, 191.84 128.86, 185.00 126.00 C 176.71 125.37, 169.86 123.68, 163.00 122.00 C 162.23 113.59, 147.92 116.90, 146.00 110.00 C 146.00 102.00, 146.00 95.00, 146.00 88.00 C 146.25 79.29, 147.63 69.71, 138.00 70.00 Z" fill="rgb(50.99790026246719,47.22204724409449,31.859317585301838)" stroke="rgb(50.99790026246719,47.22204724409449,31.859317585301838)" stroke-width="1" />
<path d="M 35.00 172.00 C 29.29 175.56, 23.12 173.06, 16.00 174.00 C 9.06 175.54, -0.75 171.44, 1.00 181.00 C -1.05 194.62, 0.46 208.72, 0.00 222.00 C 0.00 249.67, 0.00 276.33, 0.00 303.00 C 0.70 316.99, 0.40 330.38, 2.00 343.00 C 0.64 349.91, 1.00 356.53, 1.00 363.00 C 2.54 368.64, -0.25 380.75, 4.00 382.00 C 14.41 384.81, 14.26 375.88, 16.00 370.00 C 21.56 366.33, 25.61 359.43, 24.00 353.00 C 26.28 345.99, 35.06 343.91, 41.00 342.00 C 49.29 341.49, 56.59 341.03, 62.00 336.00 C 65.60 328.78, 69.16 322.54, 72.00 316.00 C 78.93 311.04, 76.51 302.33, 82.00 297.00 C 87.12 291.09, 93.93 288.90, 101.00 289.00 C 108.48 284.33, 114.39 286.26, 122.00 287.00 C 125.84 288.38, 128.95 289.11, 132.00 290.00 C 136.88 291.76, 128.94 292.24, 136.00 294.00 C 145.00 301.67, 141.86 285.44, 150.00 284.00 C 147.09 277.22, 154.75 272.89, 152.00 265.00 C 153.79 257.92, 157.81 250.60, 155.00 244.00 C 147.84 237.50, 158.44 229.04, 150.00 224.00 C 140.92 221.22, 145.66 207.71, 137.00 208.00 C 128.18 203.98, 130.57 195.61, 125.00 190.00 C 115.13 180.99, 116.08 199.10, 108.00 195.00 C 106.99 186.99, 102.13 180.37, 97.00 176.00 C 89.76 174.44, 84.36 170.86, 77.00 172.00 C 69.11 172.95, 63.62 171.87, 57.00 174.00 C 49.52 170.70, 43.31 172.93, 36.00 172.00 Z" fill="rgb(150.1436823104693,171.04641567818464,100.74492006188757)" stroke="rgb(150.1436823104693,171.04641567818464,100.74492006188757)" stroke-width="1" />
<path d="M 162.00 0.00 C 161.28 6.46, 164.36 11.35, 163.00 17.00 C 164.31 24.07, 163.93 29.37, 162.00 36.00 C 155.58 33.76, 158.24 20.20, 154.00 31.00 C 151.35 36.74, 148.43 43.13, 145.00 49.00 C 147.44 55.51, 144.27 64.03, 137.00 63.00 C 130.20 70.02, 146.11 65.41, 148.00 73.00 C 148.44 79.62, 146.98 86.03, 149.00 91.00 C 148.73 97.61, 148.95 103.84, 149.00 110.00 C 155.16 113.35, 163.44 111.69, 166.00 118.00 C 169.49 123.14, 177.59 122.15, 183.00 124.00 C 189.74 124.82, 195.00 126.81, 201.00 127.00 C 208.83 128.18, 214.34 131.55, 218.00 137.00 C 225.14 135.63, 230.28 141.66, 236.00 138.00 C 239.60 127.71, 246.03 134.91, 249.00 140.00 C 255.45 140.05, 263.96 140.93, 265.00 135.00 C 265.09 126.98, 266.19 121.88, 263.00 116.00 C 261.00 111.02, 263.61 104.66, 262.00 99.00 C 261.95 91.61, 261.84 85.24, 259.00 80.00 C 258.07 72.68, 257.19 66.73, 251.00 64.00 C 249.77 56.16, 254.94 50.67, 251.00 45.00 C 248.60 39.16, 248.18 31.82, 250.00 27.00 C 254.29 20.69, 252.68 13.30, 249.00 8.00 C 247.22 0.12, 241.92 -0.94, 235.00 0.00 C 228.00 0.00, 222.00 0.00, 216.00 0.00 C 203.00 0.00, 191.00 0.00, 179.00 0.00 C 172.64 0.39, 175.98 10.38, 173.00 14.00 C 172.54 20.95, 174.05 27.71, 172.00 33.00 C 171.06 39.55, 174.11 46.76, 170.00 51.00 C 164.53 47.12, 167.62 40.11, 166.00 34.00 C 166.48 26.18, 166.19 21.58, 167.00 15.00 C 165.62 9.38, 170.48 -1.48, 163.00 0.00 Z" fill="rgb(157.08179337231968,180.9837037037037,101.23617933723197)" stroke="rgb(157.08179337231968,180.9837037037037,101.23617933723197)" stroke-width="1" />
<path d="M 248.00 0.00 C 246.59 7.40, 257.19 4.66, 258.00 11.00 C 261.60 17.51, 258.94 22.00, 254.00 25.00 C 247.83 29.56, 253.28 35.36, 250.00 40.00 C 253.99 44.42, 257.26 50.66, 253.00 55.00 C 249.46 62.25, 252.55 64.11, 258.00 67.00 C 260.40 72.36, 260.22 77.79, 263.00 82.00 C 263.30 93.29, 264.64 103.15, 266.00 113.00 C 270.69 122.29, 263.23 135.13, 270.00 142.00 C 280.70 142.90, 291.16 145.68, 301.00 149.00 C 301.94 155.24, 302.28 160.32, 306.00 164.00 C 311.44 165.58, 315.98 164.23, 321.00 166.00 C 326.10 170.78, 331.59 168.51, 336.00 166.00 C 341.32 165.32, 337.92 156.92, 339.00 153.00 C 338.98 131.85, 338.68 111.59, 340.00 92.00 C 340.00 71.00, 340.00 51.00, 340.00 31.00 C 340.00 20.33, 340.00 10.67, 340.00 1.00 C 330.00 0.00, 320.00 0.00, 310.00 0.00 C 289.00 0.00, 269.00 0.00, 249.00 0.00 Z" fill="rgb(80.24695194836242,113.1484580444657,43.24990039046936)" stroke="rgb(80.24695194836242,113.1484580444657,43.24990039046936)" stroke-width="1" />
<path d="M 232.00 314.00 C 225.89 316.21, 219.66 318.13, 213.00 319.00 C 205.06 319.02, 197.87 318.40, 192.00 321.00 C 177.27 320.72, 164.12 321.82, 151.00 323.00 C 137.04 325.58, 123.49 326.71, 110.00 328.00 C 102.88 329.98, 95.04 327.82, 89.00 330.00 C 82.32 328.35, 85.08 333.30, 86.00 334.00 C 89.41 338.48, 80.80 339.09, 79.00 337.00 C 70.02 336.88, 68.38 343.82, 61.00 344.00 C 56.57 343.31, 54.43 345.69, 51.00 345.00 C 53.28 350.00, 44.73 348.53, 43.00 349.00 C 36.09 350.90, 45.85 351.93, 45.00 355.00 C 44.29 358.98, 42.90 361.68, 43.00 365.00 C 44.89 372.74, 42.26 378.54, 42.00 386.00 C 38.74 393.65, 40.07 400.02, 45.00 406.00 C 50.76 410.79, 54.93 420.90, 60.00 424.00 C 64.20 416.13, 73.49 414.56, 79.00 408.00 C 85.41 404.28, 93.67 400.28, 100.00 405.00 C 108.85 408.70, 112.01 414.95, 118.00 421.00 C 121.00 433.08, 130.72 425.95, 128.00 417.00 C 122.58 408.90, 130.77 403.64, 135.00 399.00 C 141.15 401.73, 147.02 412.56, 154.00 404.00 C 159.15 396.83, 162.72 388.89, 170.00 385.00 C 182.05 382.48, 174.22 373.65, 177.00 367.00 C 186.86 364.55, 191.02 372.45, 196.00 376.00 C 200.58 375.61, 202.42 379.39, 206.00 379.00 C 208.32 376.31, 206.03 372.31, 208.00 369.00 C 205.03 361.63, 204.83 353.91, 199.00 350.00 C 192.76 345.22, 185.28 345.86, 178.00 346.00 C 173.58 344.68, 171.61 346.65, 168.00 347.00 C 161.03 348.13, 161.41 342.06, 166.00 340.00 C 169.57 340.30, 174.94 338.61, 174.00 343.00 C 177.44 338.51, 182.29 340.84, 185.00 338.00 C 191.60 334.91, 198.97 336.06, 205.00 334.00 C 214.69 338.56, 217.03 321.91, 223.00 328.00 C 219.84 332.12, 226.68 332.25, 229.00 332.00 C 233.74 333.57, 236.62 328.31, 240.00 327.00 C 246.33 323.91, 242.47 321.52, 239.00 320.00 C 237.92 315.39, 238.61 313.22, 233.00 314.00 Z" fill="rgb(112.19426863572433,116.05450070323488,100.17827004219409)" stroke="rgb(112.19426863572433,116.05450070323488,100.17827004219409)" stroke-width="1" />
<path d="M 0.00 0.00 C -0.31 19.60, 0.17 38.87, 1.00 58.00 C 1.00 78.33, 1.00 97.67, 1.00 117.00 C 8.75 121.47, 19.12 116.49, 28.00 117.00 C 34.52 121.01, 27.64 126.30, 35.00 125.00 C 30.84 131.47, 44.41 127.83, 46.00 129.00 C 48.09 127.19, 53.15 131.50, 58.00 130.00 C 64.73 129.90, 57.20 123.90, 66.00 124.00 C 71.67 121.98, 69.33 113.32, 76.00 113.00 C 74.79 108.52, 76.81 102.81, 78.00 98.00 C 78.42 92.56, 76.70 87.24, 80.00 84.00 C 82.38 77.15, 91.41 77.68, 93.00 83.00 C 92.38 90.70, 103.48 89.46, 99.00 83.00 C 100.03 77.07, 105.72 74.07, 104.00 68.00 C 102.71 61.44, 109.48 59.22, 109.00 54.00 C 108.75 47.96, 110.62 42.08, 105.00 40.00 C 100.86 36.87, 98.17 31.37, 94.00 29.00 C 87.50 26.45, 89.00 19.95, 91.00 24.00 C 97.31 21.38, 91.51 14.21, 94.00 11.00 C 91.16 5.09, 98.03 -1.56, 90.00 0.00 C 79.33 0.00, 69.67 0.00, 60.00 0.00 C 39.67 0.00, 20.33 0.00, 1.00 0.00 Z" fill="rgb(153.0778387330504,175.44301832108476,98.68067487837698)" stroke="rgb(153.0778387330504,175.44301832108476,98.68067487837698)" stroke-width="1" />
<path d="M 326.00 437.00 C 318.18 441.39, 307.97 435.07, 300.00 440.00 C 291.02 442.99, 281.63 441.58, 273.00 442.00 C 262.51 447.40, 255.01 435.65, 247.00 443.00 C 242.27 446.92, 244.75 453.89, 239.00 455.00 C 235.55 455.44, 230.55 459.56, 226.00 460.00 C 216.90 457.15, 206.62 457.12, 199.00 461.00 C 195.07 464.06, 190.17 465.53, 189.00 470.00 C 193.31 474.19, 194.21 478.83, 199.00 481.00 C 192.13 484.73, 200.18 487.66, 200.00 492.00 C 201.92 496.48, 202.03 503.73, 197.00 504.00 C 190.39 501.06, 189.46 511.30, 194.00 511.00 C 199.33 511.00, 203.67 511.00, 208.00 511.00 C 244.67 511.00, 280.33 511.00, 316.00 511.00 C 323.98 509.31, 337.90 514.57, 340.00 508.00 C 339.80 498.28, 338.38 490.06, 339.00 481.00 C 339.00 471.33, 339.00 462.67, 339.00 454.00 C 339.00 448.67, 339.00 444.33, 339.00 440.00 C 337.52 434.93, 330.75 437.91, 327.00 437.00 Z" fill="rgb(30.006259418105948,54.54248290251536,18.94134693404428)" stroke="rgb(30.006259418105948,54.54248290251536,18.94134693404428)" stroke-width="1" />
<path d="M 136.00 70.00 C 126.57 72.25, 115.90 71.47, 107.00 75.00 C 102.81 80.40, 105.46 84.71, 105.00 90.00 C 101.21 95.49, 95.86 93.26, 91.00 92.00 C 91.67 85.36, 84.70 81.29, 81.00 87.00 C 79.10 92.02, 80.36 97.34, 80.00 102.00 C 77.07 106.87, 83.50 114.71, 76.00 115.00 C 71.94 120.28, 72.15 125.92, 71.00 131.00 C 67.36 136.58, 68.12 141.68, 71.00 146.00 C 66.00 153.28, 75.84 151.51, 79.00 154.00 C 82.31 158.59, 79.77 165.76, 83.00 168.00 C 88.90 170.10, 93.45 172.04, 98.00 174.00 C 103.95 175.18, 108.98 177.14, 109.00 183.00 C 115.05 184.59, 118.88 182.24, 124.00 183.00 C 130.69 190.73, 131.21 181.82, 135.00 179.00 C 135.34 172.41, 133.71 167.05, 128.00 167.00 C 128.84 161.72, 135.55 163.33, 140.00 163.00 C 141.36 157.34, 140.10 152.02, 142.00 148.00 C 146.40 144.54, 152.56 148.15, 157.00 147.00 C 161.92 145.39, 168.62 145.67, 172.00 146.00 C 181.11 144.85, 192.35 144.56, 202.00 144.00 C 207.23 142.61, 212.20 143.02, 217.00 143.00 C 228.32 141.04, 215.73 140.16, 213.00 136.00 C 208.01 127.91, 194.55 130.10, 186.00 127.00 C 180.63 125.28, 175.44 125.55, 171.00 124.00 C 165.97 122.75, 157.33 123.09, 160.00 117.00 C 154.67 114.40, 147.77 115.47, 146.00 110.00 C 146.00 104.33, 146.00 99.67, 146.00 95.00 C 144.88 84.83, 150.56 68.93, 137.00 70.00 Z" fill="rgb(112.5002635740643,108.07011070110701,78.49815498154982)" stroke="rgb(112.5002635740643,108.07011070110701,78.49815498154982)" stroke-width="1" />
<path d="M 49.00 356.00 C 40.99 358.16, 44.80 369.72, 45.00 375.00 C 44.00 383.00, 44.00 390.00, 44.00 397.00 C 43.18 406.34, 55.04 403.15, 61.00 404.00 C 68.83 405.17, 77.82 405.46, 84.00 405.00 C 91.91 399.68, 99.41 405.48, 106.00 407.00 C 113.93 406.49, 121.74 408.11, 128.00 406.00 C 132.06 403.77, 131.81 397.72, 137.00 399.00 C 140.73 402.34, 141.82 405.31, 146.00 406.00 C 157.65 406.68, 157.23 393.92, 165.00 389.00 C 170.40 382.67, 181.98 381.05, 175.00 372.00 C 171.15 361.19, 195.22 369.90, 183.00 362.00 C 175.45 359.49, 168.39 363.29, 161.00 362.00 C 152.92 360.39, 145.04 361.60, 138.00 363.00 C 131.14 362.09, 121.68 363.69, 116.00 363.00 C 107.90 365.85, 100.75 366.09, 94.00 363.00 C 86.63 361.16, 79.01 362.32, 72.00 362.00 C 62.38 362.61, 58.37 354.83, 50.00 356.00 Z" fill="rgb(157.71391803603248,168.4363492377747,170.88279548604237)" stroke="rgb(157.71391803603248,168.4363492377747,170.88279548604237)" stroke-width="1" />
<path d="M 184.00 235.00 C 179.00 236.01, 174.15 237.36, 169.00 238.00 C 160.58 236.02, 156.94 240.52, 163.00 245.00 C 157.52 249.56, 161.90 256.79, 159.00 261.00 C 156.56 267.42, 156.56 272.58, 158.00 278.00 C 164.46 279.94, 164.78 288.56, 172.00 287.00 C 178.95 286.85, 184.04 288.77, 189.00 291.00 C 195.71 291.04, 200.63 295.07, 206.00 293.00 C 213.46 293.48, 217.57 296.68, 219.00 303.00 C 219.45 309.41, 224.04 312.93, 230.00 310.00 C 236.49 309.99, 243.19 309.38, 241.00 302.00 C 240.26 289.62, 238.32 278.73, 236.00 268.00 C 233.67 261.72, 231.11 256.95, 229.00 252.00 C 226.45 245.47, 225.00 239.05, 219.00 237.00 C 207.46 235.23, 195.81 236.13, 185.00 235.00 Z" fill="rgb(68.84738955823293,70.56626506024097,54.87871485943775)" stroke="rgb(68.84738955823293,70.56626506024097,54.87871485943775)" stroke-width="1" />
<path d="M 95.00 420.00 C 84.11 424.22, 70.90 422.83, 60.00 427.00 C 52.81 428.40, 47.59 432.14, 42.00 435.00 C 42.32 438.81, 44.71 441.18, 46.00 444.00 C 43.78 445.87, 42.38 448.19, 43.00 452.00 C 37.72 459.08, 32.00 448.90, 30.00 444.00 C 21.01 442.20, 16.95 449.88, 11.00 453.00 C 7.06 457.45, 5.95 467.55, 11.00 470.00 C 18.32 468.66, 24.40 472.93, 30.00 470.00 C 36.26 467.34, 42.77 467.62, 48.00 470.00 C 53.77 477.21, 60.95 472.97, 66.00 477.00 C 73.30 476.14, 77.70 479.86, 84.00 479.00 C 91.39 475.95, 97.17 472.40, 103.00 469.00 C 111.53 467.94, 113.33 460.18, 117.00 455.00 C 119.63 447.98, 113.44 441.18, 120.00 438.00 C 120.32 431.00, 119.74 423.92, 115.00 421.00 C 108.00 420.00, 102.00 420.00, 96.00 420.00 Z" fill="rgb(144.5810810810811,139.3108108108108,112.36486486486487)" stroke="rgb(144.5810810810811,139.3108108108108,112.36486486486487)" stroke-width="1" />
<path d="M 194.00 175.00 C 187.81 177.28, 179.88 175.37, 173.00 176.00 C 165.41 178.13, 157.26 176.48, 150.00 177.00 C 147.98 186.73, 131.72 177.57, 132.00 187.00 C 131.10 192.12, 134.19 194.59, 135.00 198.00 C 139.13 196.99, 144.37 192.15, 145.00 199.00 C 151.97 204.07, 159.82 198.49, 167.00 200.00 C 175.33 200.00, 182.67 200.00, 190.00 200.00 C 206.46 199.23, 220.72 201.34, 236.00 201.00 C 243.37 202.84, 250.99 201.68, 258.00 202.00 C 265.85 203.84, 273.96 202.62, 281.00 204.00 C 289.35 203.56, 299.26 205.83, 303.00 199.00 C 300.96 190.97, 295.88 185.62, 287.00 186.00 C 279.17 183.77, 271.30 184.07, 264.00 183.00 C 255.79 181.71, 248.77 179.95, 241.00 180.00 C 224.66 178.50, 210.60 174.89, 195.00 175.00 Z" fill="rgb(120.02844311377245,115.06137724550898,77.8694610778443)" stroke="rgb(120.02844311377245,115.06137724550898,77.8694610778443)" stroke-width="1" />
<path d="M 99.00 419.00 C 91.19 421.94, 82.25 422.14, 74.00 424.00 C 63.95 424.95, 55.62 427.61, 48.00 432.00 C 40.71 435.07, 41.88 438.17, 46.00 442.00 C 49.44 447.14, 51.03 450.13, 56.00 452.00 C 58.48 456.76, 58.88 462.21, 64.00 464.00 C 66.81 468.77, 61.31 475.63, 66.00 476.00 C 75.65 477.52, 84.83 481.65, 92.00 475.00 C 100.54 468.99, 113.05 468.28, 115.00 457.00 C 118.70 452.23, 119.92 447.35, 116.00 444.00 C 120.69 440.60, 120.23 436.88, 120.00 432.00 C 121.72 418.31, 108.08 420.38, 100.00 419.00 Z" fill="rgb(166.46403797006207,158.4877692588536,136.58963125228186)" stroke="rgb(166.46403797006207,158.4877692588536,136.58963125228186)" stroke-width="1" />
<path d="M 243.00 142.00 C 237.14 144.28, 229.55 142.38, 223.00 143.00 C 216.14 145.61, 207.86 142.39, 202.00 145.00 C 186.69 145.26, 173.02 147.05, 159.00 148.00 C 151.97 148.25, 140.75 146.01, 142.00 155.00 C 140.04 165.25, 144.39 165.98, 153.00 165.00 C 167.96 163.57, 181.65 162.48, 196.00 163.00 C 210.48 161.87, 223.86 160.53, 238.00 161.00 C 252.73 163.64, 266.80 165.48, 281.00 167.00 C 287.27 165.33, 300.40 166.80, 298.00 160.00 C 292.11 157.98, 297.60 153.84, 298.00 151.00 C 293.41 149.96, 290.93 147.22, 287.00 148.00 C 272.68 144.36, 259.11 141.33, 244.00 142.00 Z" fill="rgb(145.01479488903834,136.76361802286482,104.95393409549429)" stroke="rgb(145.01479488903834,136.76361802286482,104.95393409549429)" stroke-width="1" />
<path d="M 34.00 470.00 C 28.26 474.28, 22.18 471.50, 15.00 472.00 C 8.25 470.52, -2.38 470.30, 0.00 479.00 C 0.00 486.33, 0.00 492.67, 0.00 499.00 C -1.14 507.81, -0.17 513.50, 9.00 511.00 C 15.77 509.93, 24.50 513.30, 28.00 509.00 C 33.44 502.93, 41.98 506.82, 48.00 508.00 C 55.18 505.32, 55.01 496.75, 59.00 492.00 C 57.32 480.14, 70.12 492.78, 75.00 490.00 C 82.59 491.88, 89.49 488.98, 94.00 496.00 C 102.49 485.79, 107.01 504.51, 112.00 502.00 C 116.01 502.85, 117.18 508.49, 121.00 509.00 C 124.68 513.34, 126.19 503.78, 130.00 508.00 C 128.02 500.94, 118.97 499.31, 115.00 492.00 C 111.85 483.39, 103.83 485.03, 97.00 485.00 C 89.18 481.43, 82.57 481.07, 76.00 480.00 C 68.81 477.52, 61.50 477.73, 55.00 476.00 C 49.14 471.53, 41.64 469.35, 35.00 470.00 Z" fill="rgb(93.41666666666667,99.47222222222223,56.611111111111114)" stroke="rgb(93.41666666666667,99.47222222222223,56.611111111111114)" stroke-width="1" />
<path d="M 241.00 238.00 C 236.90 239.89, 232.28 240.54, 228.00 242.00 C 226.32 244.47, 229.06 251.69, 232.00 255.00 C 236.61 264.66, 238.37 274.51, 241.00 284.00 C 242.53 294.11, 244.08 303.22, 244.00 313.00 C 242.14 320.35, 248.91 319.02, 253.00 319.00 C 260.48 318.63, 260.06 310.61, 266.00 311.00 C 268.62 306.26, 267.07 302.37, 272.00 300.00 C 274.32 294.60, 276.04 289.96, 277.00 285.00 C 280.88 280.00, 272.37 275.28, 276.00 271.00 C 271.77 264.94, 277.47 259.99, 283.00 260.00 C 279.63 256.13, 284.63 253.13, 282.00 248.00 C 282.74 241.62, 274.45 243.86, 271.00 242.00 C 264.41 240.39, 259.95 243.15, 256.00 241.00 C 252.69 236.07, 246.60 238.82, 242.00 238.00 Z" fill="rgb(116.93235588137287,134.65011662779074,140.76574475174942)" stroke="rgb(116.93235588137287,134.65011662779074,140.76574475174942)" stroke-width="1" />
<path d="M 33.00 470.00 C 27.81 474.35, 21.08 471.03, 14.00 472.00 C 6.95 469.86, -2.82 471.17, 0.00 480.00 C 0.00 487.33, 0.00 493.67, 0.00 500.00 C -1.89 509.55, 1.45 512.89, 10.00 511.00 C 16.43 509.68, 26.35 514.04, 28.00 508.00 C 35.00 503.78, 42.63 506.90, 49.00 508.00 C 53.28 507.30, 51.67 501.32, 56.00 501.00 C 53.64 495.33, 60.42 494.01, 58.00 491.00 C 57.76 480.87, 69.01 491.89, 75.00 490.00 C 80.68 493.61, 90.96 486.73, 93.00 496.00 C 101.20 487.24, 107.64 500.37, 111.00 502.00 C 115.51 502.16, 116.49 506.87, 120.00 509.00 C 124.38 514.21, 124.54 504.76, 129.00 507.00 C 130.09 501.92, 118.11 499.57, 115.00 493.00 C 111.35 485.85, 104.29 483.88, 97.00 485.00 C 89.16 481.09, 82.49 482.09, 76.00 480.00 C 68.58 478.08, 61.65 477.39, 55.00 476.00 C 48.63 470.88, 41.87 469.09, 34.00 470.00 Z" fill="rgb(63.25316455696203,73.84810126582279,36.050632911392405)" stroke="rgb(63.25316455696203,73.84810126582279,36.050632911392405)" stroke-width="1" />
<path d="M 94.00 0.00 C 99.13 7.06, 94.78 18.66, 102.00 24.00 C 103.07 28.92, 103.80 34.52, 109.00 35.00 C 110.53 41.05, 115.52 43.79, 119.00 47.00 C 121.24 55.43, 125.25 72.75, 135.00 65.00 C 137.47 60.60, 145.16 62.12, 144.00 56.00 C 140.69 50.22, 145.63 46.13, 147.00 42.00 C 146.92 35.74, 150.03 32.47, 154.00 30.00 C 151.74 24.71, 153.81 19.79, 154.00 16.00 C 154.40 11.84, 152.42 3.19, 157.00 5.00 C 160.72 -1.26, 152.92 0.04, 149.00 0.00 C 130.33 0.00, 112.67 0.00, 95.00 0.00 Z" fill="rgb(132.37319364161849,162.246387283237,82.44869942196532)" stroke="rgb(132.37319364161849,162.246387283237,82.44869942196532)" stroke-width="1" />
<path d="M 213.00 238.00 C 204.24 242.29, 200.13 250.57, 200.00 260.00 C 200.50 265.81, 200.16 268.82, 195.00 267.00 C 187.53 264.63, 191.38 271.56, 191.00 275.00 C 188.82 278.90, 190.56 283.43, 190.00 287.00 C 192.40 292.09, 198.91 289.64, 202.00 292.00 C 208.09 292.13, 211.15 291.75, 215.00 294.00 C 215.38 299.53, 219.46 302.53, 220.00 307.00 C 223.06 311.90, 227.03 311.50, 231.00 311.00 C 234.44 308.26, 242.43 312.73, 241.00 307.00 C 241.92 298.95, 239.81 289.70, 239.00 282.00 C 237.60 272.20, 234.30 264.60, 231.00 257.00 C 225.68 249.27, 226.03 235.52, 214.00 238.00 Z" fill="rgb(19.24764633647155,20.44044207941056,16.563651248465003)" stroke="rgb(19.24764633647155,20.44044207941056,16.563651248465003)" stroke-width="1" />
<path d="M 22.00 118.00 C 17.58 120.07, 12.34 120.14, 7.00 120.00 C -0.81 119.20, -0.44 124.38, 0.00 130.00 C 0.00 141.33, 0.00 151.67, 0.00 162.00 C -1.95 170.11, 3.17 173.10, 8.00 171.00 C 14.24 170.92, 19.87 171.76, 24.00 169.00 C 36.14 168.83, 46.90 169.92, 56.00 170.00 C 61.98 167.66, 66.59 170.53, 72.00 170.00 C 80.26 171.83, 79.17 163.71, 79.00 159.00 C 77.79 154.81, 75.08 162.10, 73.00 158.00 C 76.15 157.00, 70.34 154.81, 69.00 157.00 C 62.68 160.39, 57.69 154.41, 53.00 153.00 C 47.08 153.01, 40.86 157.83, 37.00 154.00 C 37.83 147.91, 40.83 142.75, 37.00 138.00 C 36.02 130.61, 28.10 130.80, 24.00 128.00 C 19.15 122.66, 34.73 118.41, 23.00 118.00 Z" fill="rgb(112.76991150442478,130.76106194690266,68.70796460176992)" stroke="rgb(112.76991150442478,130.76106194690266,68.70796460176992)" stroke-width="1" />
<path d="M 36.00 470.00 C 29.63 472.99, 21.50 471.74, 14.00 472.00 C 5.51 469.79, -2.99 472.12, 0.00 482.00 C 0.00 490.33, 0.00 497.67, 0.00 505.00 C -1.90 515.24, 11.32 509.35, 17.00 511.00 C 20.71 510.38, 25.94 512.27, 27.00 510.00 C 29.61 503.43, 33.75 505.96, 38.00 506.00 C 42.98 504.33, 46.14 509.27, 49.00 507.00 C 51.90 504.45, 54.82 501.58, 56.00 498.00 C 57.10 493.27, 60.42 492.24, 57.00 488.00 C 57.93 484.12, 65.12 478.82, 60.00 477.00 C 49.96 477.64, 46.72 467.67, 37.00 470.00 Z" fill="rgb(59.82526509912402,86.11987090825265,27.243430152143844)" stroke="rgb(59.82526509912402,86.11987090825265,27.243430152143844)" stroke-width="1" />
<path d="M 35.00 381.00 C 27.73 383.01, 21.84 382.80, 14.00 386.00 C 10.19 387.60, 6.41 386.85, 3.00 387.00 C -2.05 386.61, 0.90 393.23, 0.00 396.00 C 0.00 404.00, 0.00 411.00, 0.00 418.00 C -1.15 423.40, 1.26 425.52, 5.00 423.00 C 10.54 422.56, 13.03 427.06, 17.00 428.00 C 24.41 431.10, 31.94 431.48, 39.00 433.00 C 45.64 431.63, 59.11 425.97, 53.00 420.00 C 48.50 411.76, 42.21 404.14, 36.00 399.00 C 28.62 397.97, 34.95 392.78, 36.00 391.00 C 34.99 385.86, 42.20 381.56, 36.00 381.00 Z" fill="rgb(114.39682539682539,117.15873015873017,84.41269841269842)" stroke="rgb(114.39682539682539,117.15873015873017,84.41269841269842)" stroke-width="1" />
<path d="M 137.00 70.00 C 129.71 71.10, 122.53 72.47, 115.00 73.00 C 110.93 74.78, 106.15 73.58, 105.00 78.00 C 106.21 83.69, 107.85 86.12, 107.00 90.00 C 108.52 94.17, 113.07 93.20, 116.00 95.00 C 123.20 95.82, 118.10 103.72, 114.00 103.00 C 112.00 110.39, 111.58 117.91, 113.00 126.00 C 117.66 127.70, 127.53 126.56, 134.00 126.00 C 138.83 125.73, 142.64 125.41, 146.00 124.00 C 146.00 119.33, 146.00 115.67, 146.00 112.00 C 146.00 103.67, 146.00 96.33, 146.00 89.00 C 145.89 80.28, 148.44 69.43, 138.00 70.00 Z" fill="rgb(158.41353383458647,157.02706766917294,140.74937343358397)" stroke="rgb(158.41353383458647,157.02706766917294,140.74937343358397)" stroke-width="1" />
<path d="M 189.00 202.00 C 189.00 208.33, 189.00 214.67, 189.00 221.00 C 187.37 230.60, 192.08 233.73, 200.00 233.00 C 214.33 233.00, 227.67 233.00, 241.00 233.00 C 249.15 232.67, 251.27 221.88, 248.00 217.00 C 244.15 210.24, 241.10 200.90, 232.00 203.00 C 217.69 201.81, 203.85 201.90, 190.00 202.00 Z" fill="rgb(8.54945054945055,8.862637362637363,5.65934065934066)" stroke="rgb(8.54945054945055,8.862637362637363,5.65934065934066)" stroke-width="1" />
<path d="M 1.00 137.00 C -1.29 144.52, 0.64 153.79, 0.00 162.00 C 0.48 166.36, -1.64 173.24, 3.00 173.00 C 9.04 175.35, 12.43 166.89, 16.00 172.00 C 24.27 169.58, 34.25 169.02, 42.00 171.00 C 47.72 168.61, 51.23 170.71, 55.00 171.00 C 60.20 171.16, 63.55 169.26, 68.00 170.00 C 80.28 175.29, 83.71 159.37, 76.00 155.00 C 71.24 151.83, 66.62 159.85, 63.00 157.00 C 57.24 156.19, 54.13 151.38, 50.00 154.00 C 45.33 155.14, 41.19 155.13, 37.00 155.00 C 31.96 150.74, 33.04 144.50, 27.00 147.00 C 23.95 142.64, 17.47 141.96, 16.00 137.00 C 11.43 141.38, 6.35 139.58, 2.00 138.00 Z" fill="rgb(127.94244604316546,142.15107913669064,84.79136690647482)" stroke="rgb(127.94244604316546,142.15107913669064,84.79136690647482)" stroke-width="1" />
<path d="M 12.00 322.00 C 5.43 324.23, -2.31 327.96, 0.00 337.00 C 0.00 344.67, 0.00 351.33, 0.00 358.00 C 0.00 365.67, 0.00 372.33, 0.00 379.00 C 0.02 387.69, 12.22 382.87, 17.00 383.00 C 14.44 375.93, 18.33 365.99, 26.00 365.00 C 26.71 361.02, 28.10 358.32, 28.00 355.00 C 21.52 350.21, 28.78 347.78, 31.00 345.00 C 42.05 345.48, 43.36 333.23, 35.00 330.00 C 26.91 324.81, 20.84 324.29, 13.00 322.00 Z" fill="rgb(153.9478155339806,169.40776699029126,110.74150485436893)" stroke="rgb(153.9478155339806,169.40776699029126,110.74150485436893)" stroke-width="1" />
<path d="M 148.00 119.00 C 146.95 123.16, 146.48 128.96, 140.00 127.00 C 133.95 126.41, 130.12 128.76, 125.00 128.00 C 120.98 127.90, 110.16 130.13, 118.00 131.00 C 123.28 132.60, 128.00 133.15, 133.00 133.00 C 139.02 131.66, 145.91 134.36, 142.00 140.00 C 141.09 147.58, 145.77 147.57, 151.00 147.00 C 162.11 147.41, 171.40 145.84, 181.00 145.00 C 191.88 144.85, 201.01 142.87, 211.00 143.00 C 214.98 142.35, 227.16 142.09, 220.00 140.00 C 212.18 140.28, 214.81 131.74, 209.00 131.00 C 198.63 128.29, 188.26 127.99, 179.00 125.00 C 167.75 124.41, 159.03 120.11, 149.00 119.00 Z" fill="rgb(219.25023342670403,208.56956115779644,188.91503267973857)" stroke="rgb(219.25023342670403,208.56956115779644,188.91503267973857)" stroke-width="1" />
<path d="M 0.00 0.00 C 0.00 7.00, 0.00 14.00, 0.00 21.00 C 0.34 27.33, -2.35 43.61, 6.00 35.00 C 11.90 32.49, 12.29 37.69, 16.00 39.00 C 19.75 37.01, 25.22 39.26, 25.00 34.00 C 22.56 30.11, 24.69 24.46, 29.00 25.00 C 33.80 24.88, 37.76 18.27, 41.00 23.00 C 40.89 27.73, 43.67 30.07, 48.00 29.00 C 51.41 30.73, 57.32 32.86, 58.00 28.00 C 53.71 19.24, 47.43 12.29, 42.00 5.00 C 41.90 -3.90, 29.34 1.66, 24.00 0.00 C 15.67 0.00, 8.33 0.00, 1.00 0.00 Z" fill="rgb(102.25673137132122,129.21790857858485,52.505322479649344)" stroke="rgb(102.25673137132122,129.21790857858485,52.505322479649344)" stroke-width="1" />
<path d="M 95.00 293.00 C 88.25 295.21, 86.00 303.02, 84.00 309.00 C 83.75 315.00, 78.43 325.72, 86.00 327.00 C 100.66 327.59, 113.02 325.04, 126.00 324.00 C 131.95 323.41, 143.81 323.67, 140.00 316.00 C 136.70 311.12, 135.72 296.32, 129.00 302.00 C 124.52 305.69, 111.47 307.64, 112.00 301.00 C 111.70 291.45, 102.22 292.94, 96.00 293.00 Z" fill="rgb(110.78048780487805,113.73170731707317,81.02439024390245)" stroke="rgb(110.78048780487805,113.73170731707317,81.02439024390245)" stroke-width="1" />
<path d="M 157.00 289.00 C 155.19 295.33, 147.39 297.53, 149.00 305.00 C 141.79 307.51, 140.93 315.35, 145.00 320.00 C 157.77 322.13, 170.64 317.86, 182.00 319.00 C 188.62 319.12, 195.56 318.79, 199.00 316.00 C 199.79 307.93, 199.94 302.57, 195.00 297.00 C 190.14 292.62, 182.93 289.51, 177.00 292.00 C 169.33 292.62, 164.43 288.97, 158.00 289.00 Z" fill="rgb(39.956989247311824,41.25806451612903,33.38709677419355)" stroke="rgb(39.956989247311824,41.25806451612903,33.38709677419355)" stroke-width="1" />
<path d="M 95.00 99.00 C 86.71 101.39, 93.63 111.49, 92.00 118.00 C 91.22 126.79, 93.45 133.34, 93.00 141.00 C 93.00 149.00, 93.00 156.00, 93.00 163.00 C 90.03 174.15, 100.01 174.62, 107.00 176.00 C 114.36 174.36, 109.46 162.46, 111.00 157.00 C 111.00 148.67, 111.00 141.33, 111.00 134.00 C 111.00 125.67, 111.00 118.33, 111.00 111.00 C 112.88 100.08, 103.36 99.68, 96.00 99.00 Z" fill="rgb(92.49486652977413,70.02532511978097,60.256673511293634)" stroke="rgb(92.49486652977413,70.02532511978097,60.256673511293634)" stroke-width="1" />
<path d="M 85.00 81.00 C 78.01 86.10, 80.49 95.87, 79.00 104.00 C 78.69 108.57, 80.66 115.51, 75.00 115.00 C 72.41 119.76, 71.41 123.76, 71.00 128.00 C 66.11 135.88, 68.94 146.01, 69.00 153.00 C 74.02 153.11, 80.09 151.73, 81.00 157.00 C 81.50 161.56, 79.58 167.62, 83.00 169.00 C 94.55 176.07, 90.14 160.76, 91.00 154.00 C 91.56 144.29, 89.24 136.79, 90.00 128.00 C 90.41 118.69, 89.64 110.87, 89.00 103.00 C 85.40 97.58, 88.12 94.63, 90.00 91.00 C 88.75 86.07, 91.98 80.13, 86.00 81.00 Z" fill="rgb(189.02658788774002,185.4165435745938,158.70384047267356)" stroke="rgb(189.02658788774002,185.4165435745938,158.70384047267356)" stroke-width="1" />
<path d="M 218.00 162.00 C 210.17 163.87, 201.67 164.14, 193.00 164.00 C 188.24 164.28, 182.45 163.75, 184.00 169.00 C 186.51 172.67, 183.62 174.60, 191.00 174.00 C 209.93 173.41, 226.33 176.55, 243.00 179.00 C 252.63 179.27, 260.37 181.73, 269.00 182.00 C 279.47 189.02, 280.46 165.19, 271.00 168.00 C 261.19 166.82, 253.24 164.56, 245.00 163.00 C 236.34 161.03, 227.30 162.40, 219.00 162.00 Z" fill="rgb(73.75675675675676,64.51351351351352,48.945945945945944)" stroke="rgb(73.75675675675676,64.51351351351352,48.945945945945944)" stroke-width="1" />
<path d="M 219.00 162.00 C 211.55 163.99, 203.33 164.13, 195.00 164.00 C 190.52 164.21, 184.17 163.36, 184.00 167.00 C 184.04 172.91, 188.32 175.02, 193.00 174.00 C 211.43 173.83, 227.56 176.78, 244.00 179.00 C 253.33 179.21, 260.63 181.89, 269.00 182.00 C 274.20 184.00, 278.55 182.52, 277.00 177.00 C 277.31 173.25, 276.44 166.01, 271.00 168.00 C 253.86 164.72, 237.83 161.19, 220.00 162.00 Z" fill="rgb(51.475903614457835,43.149096385542165,26.148343373493976)" stroke="rgb(51.475903614457835,43.149096385542165,26.148343373493976)" stroke-width="1" />
<path d="M 23.00 382.00 C 18.28 385.82, 11.74 387.11, 7.00 388.00 C -0.87 389.02, -0.37 396.25, 0.00 402.00 C 0.00 408.33, 0.00 413.67, 0.00 419.00 C -1.89 427.98, 9.64 420.76, 12.00 427.00 C 18.59 429.76, 23.69 423.93, 23.00 419.00 C 24.33 412.25, 29.11 407.93, 30.00 402.00 C 32.63 395.65, 38.22 391.53, 38.00 385.00 C 36.73 378.27, 27.82 386.03, 24.00 382.00 Z" fill="rgb(111.79032258064517,131.06451612903226,77.48387096774194)" stroke="rgb(111.79032258064517,131.06451612903226,77.48387096774194)" stroke-width="1" />
<path d="M 1.00 343.00 C -1.31 353.85, 0.65 366.46, 0.00 378.00 C -2.34 387.01, 7.22 383.11, 12.00 384.00 C 18.82 382.57, 24.04 379.69, 31.00 381.00 C 38.66 380.26, 43.33 376.70, 39.00 370.00 C 34.87 366.89, 20.93 367.59, 28.00 362.00 C 30.78 354.94, 25.69 349.39, 21.00 347.00 C 14.12 347.13, 6.76 348.32, 2.00 344.00 Z" fill="rgb(79.41176470588235,84.67647058823529,59.85294117647059)" stroke="rgb(79.41176470588235,84.67647058823529,59.85294117647059)" stroke-width="1" />
<path d="M 36.00 381.00 C 31.58 384.20, 23.79 379.28, 20.00 384.00 C 13.42 386.08, 8.04 387.62, 3.00 390.00 C -2.23 393.41, 1.02 401.30, 0.00 406.00 C -0.11 412.85, -0.18 418.68, 1.00 424.00 C 7.44 424.11, 12.65 421.28, 18.00 423.00 C 21.05 431.21, 23.53 417.12, 25.00 414.00 C 30.57 409.01, 28.25 401.75, 32.00 397.00 C 36.58 392.81, 41.32 382.84, 37.00 381.00 Z" fill="rgb(145.87364016736402,159.54644351464435,107.20753138075314)" stroke="rgb(145.87364016736402,159.54644351464435,107.20753138075314)" stroke-width="1" />
<path d="M 27.00 443.00 C 20.52 444.71, 15.63 450.25, 10.00 454.00 C 6.78 459.07, 4.16 470.37, 12.00 470.00 C 19.23 469.20, 25.25 472.85, 31.00 470.00 C 38.10 466.85, 45.22 467.97, 50.00 472.00 C 55.86 474.32, 64.30 478.16, 64.00 470.00 C 63.77 462.45, 55.00 460.28, 54.00 453.00 C 48.85 448.53, 40.29 442.53, 43.00 453.00 C 33.92 457.98, 33.91 442.32, 28.00 443.00 Z" fill="rgb(174.99744245524298,168.12531969309464,137.82693947144074)" stroke="rgb(174.99744245524298,168.12531969309464,137.82693947144074)" stroke-width="1" />
<path d="M 62.00 491.00 C 58.12 497.94, 55.84 506.19, 48.00 510.00 C 44.43 506.35, 39.05 509.49, 36.00 507.00 C 31.00 504.34, 25.49 512.89, 33.00 511.00 C 50.00 511.00, 66.00 511.00, 82.00 511.00 C 90.67 511.00, 98.33 511.00, 106.00 511.00 C 110.67 511.00, 114.33 511.00, 118.00 511.00 C 119.11 509.68, 113.05 501.61, 109.00 505.00 C 105.33 501.02, 106.13 495.26, 101.00 495.00 C 94.45 497.07, 92.66 497.66, 88.00 493.00 C 79.33 492.76, 71.70 491.13, 63.00 491.00 Z" fill="rgb(154.36611062335382,141.7980684811238,94.2774363476734)" stroke="rgb(154.36611062335382,141.7980684811238,94.2774363476734)" stroke-width="1" />
<path d="M 151.00 287.00 C 146.29 291.31, 147.50 295.88, 146.00 301.00 C 152.45 310.83, 140.91 304.02, 141.00 309.00 C 143.09 313.51, 140.36 321.81, 147.00 320.00 C 152.67 320.00, 157.33 320.00, 162.00 320.00 C 167.40 319.96, 173.62 320.55, 176.00 318.00 C 176.98 312.20, 177.39 307.23, 176.00 303.00 C 173.91 297.59, 173.40 290.62, 167.00 291.00 C 161.97 288.13, 157.54 286.22, 152.00 287.00 Z" fill="rgb(133.11370558375634,129.31878172588833,106.95634517766497)" stroke="rgb(133.11370558375634,129.31878172588833,106.95634517766497)" stroke-width="1" />
<path d="M 169.00 201.00 C 161.09 204.40, 146.16 197.76, 143.00 208.00 C 147.62 211.89, 143.82 221.05, 151.00 221.00 C 152.59 227.65, 159.75 225.13, 164.00 227.00 C 169.55 228.14, 174.51 228.31, 178.00 232.00 C 184.71 233.04, 180.90 224.57, 182.00 221.00 C 182.00 215.33, 182.00 210.67, 182.00 206.00 C 181.32 199.05, 174.61 201.43, 170.00 201.00 Z" fill="rgb(67.4860392967942,74.14477766287487,35.056876938986555)" stroke="rgb(67.4860392967942,74.14477766287487,35.056876938986555)" stroke-width="1" />
<path d="M 0.00 137.00 C 0.00 146.00, 0.00 155.00, 0.00 164.00 C -1.56 170.89, 1.80 171.86, 7.00 171.00 C 12.28 165.24, 17.81 174.97, 22.00 169.00 C 33.99 169.09, 36.10 150.45, 28.00 147.00 C 24.15 142.81, 18.76 142.17, 16.00 137.00 C 11.18 142.43, 5.34 138.75, 1.00 137.00 Z" fill="rgb(111.11252653927814,123.64755838641189,70.32377919320595)" stroke="rgb(111.11252653927814,123.64755838641189,70.32377919320595)" stroke-width="1" />
<path d="M 1.00 343.00 C -1.30 351.85, 0.64 362.46, 0.00 372.00 C 0.78 376.83, -2.51 385.24, 4.00 384.00 C 10.00 384.15, 14.72 383.60, 19.00 382.00 C 15.74 376.84, 17.33 371.01, 20.00 367.00 C 26.26 365.35, 27.88 360.14, 28.00 355.00 C 22.88 352.09, 24.33 344.29, 17.00 346.00 C 11.49 348.51, 5.18 346.95, 2.00 343.00 Z" fill="rgb(116.4811858608894,128.82326111744584,84.1254275940707)" stroke="rgb(116.4811858608894,128.82326111744584,84.1254275940707)" stroke-width="1" />
<path d="M 95.00 293.00 C 87.48 297.05, 83.30 306.66, 84.00 316.00 C 82.36 319.90, 79.87 327.32, 86.00 327.00 C 91.00 327.00, 95.00 327.00, 99.00 327.00 C 103.14 326.24, 110.14 326.79, 107.00 321.00 C 110.11 316.32, 110.46 311.91, 112.00 308.00 C 111.32 302.87, 112.04 298.15, 109.00 295.00 C 104.77 291.80, 99.90 293.57, 96.00 293.00 Z" fill="rgb(133.4641638225256,130.55631399317406,109.25369738339022)" stroke="rgb(133.4641638225256,130.55631399317406,109.25369738339022)" stroke-width="1" />
<path d="M 63.00 478.00 C 60.29 484.66, 68.29 489.60, 74.00 491.00 C 80.10 494.15, 89.55 486.73, 92.00 495.00 C 98.28 491.14, 108.21 493.69, 108.00 502.00 C 114.89 495.38, 121.35 517.68, 125.00 508.00 C 137.33 510.09, 123.54 499.51, 120.00 498.00 C 112.76 493.60, 113.21 484.29, 105.00 485.00 C 96.62 486.76, 90.50 480.43, 85.00 481.00 C 77.44 482.79, 71.73 476.45, 64.00 478.00 Z" fill="rgb(46.713903743315505,74.47727272727273,20.712566844919785)" stroke="rgb(46.713903743315505,74.47727272727273,20.712566844919785)" stroke-width="1" />
<path d="M 34.00 397.00 C 31.62 404.59, 26.71 411.13, 25.00 419.00 C 20.83 429.59, 30.96 433.15, 39.00 433.00 C 45.53 431.10, 60.68 427.83, 54.00 420.00 C 46.86 412.27, 43.03 403.76, 35.00 398.00 Z" fill="rgb(182.13458950201886,177.64333781965007,150.0578734858681)" stroke="rgb(182.13458950201886,177.64333781965007,150.0578734858681)" stroke-width="1" />
<path d="M 49.00 154.00 C 45.38 155.58, 41.35 156.18, 37.00 156.00 C 35.02 160.46, 33.63 165.27, 37.00 169.00 C 42.16 173.51, 46.94 168.06, 51.00 170.00 C 56.79 171.78, 60.36 169.58, 65.00 170.00 C 69.84 170.55, 75.88 172.90, 79.00 169.00 C 79.24 163.71, 81.85 158.01, 78.00 155.00 C 71.44 152.37, 68.42 156.88, 64.00 158.00 C 58.58 156.88, 54.35 155.29, 50.00 154.00 Z" fill="rgb(122.19025522041764,138.1786542923434,79.96751740139212)" stroke="rgb(122.19025522041764,138.1786542923434,79.96751740139212)" stroke-width="1" />
<path d="M 215.00 203.00 C 210.43 209.35, 208.37 216.74, 206.00 224.00 C 203.32 231.99, 217.01 230.24, 223.00 231.00 C 228.60 224.19, 229.84 215.99, 234.00 209.00 C 235.61 201.65, 221.97 203.42, 216.00 203.00 Z" fill="rgb(10.482200647249192,11.533980582524272,5.389967637540453)" stroke="rgb(10.482200647249192,11.533980582524272,5.389967637540453)" stroke-width="1" />
<path d="M 148.00 92.00 C 146.89 99.98, 143.89 115.04, 156.00 113.00 C 162.94 113.04, 165.39 117.16, 166.00 121.00 C 171.38 122.70, 176.22 123.27, 181.00 124.00 C 188.97 125.82, 188.76 121.01, 185.00 117.00 C 180.70 109.92, 175.40 115.09, 171.00 110.00 C 171.76 95.85, 153.77 101.62, 149.00 92.00 Z" fill="rgb(185.3560606060606,208.01136363636363,125.05681818181819)" stroke="rgb(185.3560606060606,208.01136363636363,125.05681818181819)" stroke-width="1" />
<path d="M 21.00 119.00 C 16.16 120.87, 10.68 121.17, 5.00 121.00 C -3.29 119.37, 1.26 129.59, 0.00 134.00 C 6.33 137.03, 11.47 140.82, 15.00 134.00 C 19.50 141.20, 26.75 143.00, 29.00 145.00 C 35.84 133.90, 34.41 148.06, 36.00 152.00 C 40.16 144.90, 37.17 139.87, 35.00 134.00 C 29.55 130.43, 19.77 128.50, 19.00 125.00 C 21.58 120.01, 33.58 118.79, 22.00 119.00 Z" fill="rgb(41.55967741935484,74.55967741935484,12.23225806451613)" stroke="rgb(41.55967741935484,74.55967741935484,12.23225806451613)" stroke-width="1" />
<path d="M 131.00 300.00 C 127.85 304.39, 124.95 305.28, 121.00 306.00 C 116.46 304.45, 111.44 304.40, 113.00 310.00 C 109.81 317.79, 104.68 327.83, 117.00 325.00 C 125.84 325.22, 133.12 324.09, 140.00 322.00 C 140.56 313.12, 135.87 305.47, 132.00 300.00 Z" fill="rgb(149.77011494252875,149.79638752052546,121.91625615763547)" stroke="rgb(149.77011494252875,149.79638752052546,121.91625615763547)" stroke-width="1" />
<path d="M 36.00 133.00 C 36.57 136.98, 39.67 139.92, 40.00 144.00 C 40.52 148.21, 35.07 153.53, 40.00 155.00 C 49.18 151.94, 57.02 156.45, 65.00 157.00 C 67.55 152.35, 67.33 148.49, 66.00 145.00 C 65.89 140.44, 67.37 135.30, 62.00 137.00 C 52.73 136.31, 45.29 133.64, 37.00 133.00 Z" fill="rgb(216.23666666666668,218.645,175.77666666666667)" stroke="rgb(216.23666666666668,218.645,175.77666666666667)" stroke-width="1" />
<path d="M 155.00 134.00 C 151.22 136.92, 139.03 131.78, 143.00 140.00 C 140.78 150.08, 146.76 147.17, 153.00 147.00 C 165.90 146.56, 177.44 145.25, 189.00 144.00 C 196.06 144.62, 201.28 143.21, 207.00 143.00 C 206.87 141.52, 197.98 139.24, 193.00 140.00 C 186.11 139.54, 180.89 137.46, 175.00 137.00 C 167.46 137.53, 161.50 132.65, 156.00 135.00 Z" fill="rgb(61.25333333333333,42.42166666666667,24.236666666666668)" stroke="rgb(61.25333333333333,42.42166666666667,24.236666666666668)" stroke-width="1" />
<path d="M 64.00 456.00 C 60.17 460.11, 59.82 461.82, 65.00 465.00 C 66.20 469.99, 62.06 473.66, 65.00 477.00 C 73.56 476.55, 81.23 481.60, 88.00 477.00 C 92.39 475.76, 96.46 473.32, 98.00 471.00 C 95.09 465.63, 90.44 467.29, 87.00 465.00 C 80.21 457.96, 74.37 455.64, 65.00 456.00 Z" fill="rgb(50.105442176870746,43.01190476190476,23.209183673469386)" stroke="rgb(50.105442176870746,43.01190476190476,23.209183673469386)" stroke-width="1" />
<path d="M 190.00 202.00 C 187.72 208.19, 189.63 216.12, 189.00 223.00 C 186.26 233.84, 199.38 234.58, 203.00 228.00 C 205.52 219.94, 209.05 213.30, 211.00 206.00 C 208.12 199.18, 197.76 203.19, 191.00 202.00 Z" fill="rgb(11.942408376963352,13.045375218150086,6.708551483420593)" stroke="rgb(11.942408376963352,13.045375218150086,6.708551483420593)" stroke-width="1" />
<path d="M 92.00 404.00 C 82.32 405.74, 75.17 413.60, 67.00 419.00 C 60.99 423.56, 64.63 424.88, 70.00 424.00 C 74.47 422.04, 78.65 421.81, 83.00 422.00 C 92.01 418.59, 99.97 417.93, 109.00 419.00 C 116.35 419.81, 109.07 412.59, 107.00 411.00 C 101.95 407.98, 98.10 404.48, 93.00 404.00 Z" fill="rgb(142.5355871886121,145.27046263345196,144.12277580071174)" stroke="rgb(142.5355871886121,145.27046263345196,144.12277580071174)" stroke-width="1" />
<path d="M 2.00 425.00 C -1.14 426.38, -1.14 434.62, 2.00 436.00 C 8.07 436.89, 12.10 439.28, 16.00 442.00 C 21.09 440.64, 25.09 442.68, 30.00 442.00 C 34.45 444.35, 33.26 453.27, 39.00 452.00 C 45.24 454.90, 37.96 442.47, 46.00 445.00 C 41.57 439.94, 37.59 434.78, 32.00 434.00 C 27.42 431.17, 21.87 433.13, 18.00 431.00 C 12.23 429.24, 8.90 424.02, 3.00 425.00 Z" fill="rgb(101.86666666666666,111.26666666666667,62.2)" stroke="rgb(101.86666666666666,111.26666666666667,62.2)" stroke-width="1" />
<path d="M 173.00 292.00 C 173.98 299.28, 177.43 305.54, 178.00 313.00 C 176.07 323.21, 189.93 317.81, 195.00 318.00 C 200.08 318.47, 200.27 309.91, 197.00 310.00 C 193.78 306.70, 192.78 302.90, 192.00 299.00 C 194.54 289.47, 179.94 292.51, 174.00 292.00 Z" fill="rgb(84.85110294117646,88.2408088235294,84.89522058823529)" stroke="rgb(84.85110294117646,88.2408088235294,84.89522058823529)" stroke-width="1" />
<path d="M 2.00 425.00 C -1.14 426.38, -1.14 434.62, 2.00 436.00 C 7.84 437.91, 12.97 439.12, 17.00 443.00 C 21.12 439.68, 27.88 443.37, 31.00 441.00 C 32.63 446.29, 35.35 451.68, 39.00 453.00 C 45.04 451.08, 36.42 441.95, 45.00 445.00 C 41.31 440.15, 38.15 434.83, 33.00 434.00 C 28.17 430.98, 22.16 433.21, 18.00 431.00 C 11.73 429.78, 8.94 423.60, 3.00 425.00 Z" fill="rgb(54.41111111111111,83.41666666666667,25.062962962962963)" stroke="rgb(54.41111111111111,83.41666666666667,25.062962962962963)" stroke-width="1" />
<path d="M 170.00 361.00 C 166.77 363.20, 161.90 361.43, 158.00 362.00 C 159.39 366.69, 161.65 371.31, 160.00 375.00 C 160.05 380.26, 160.58 384.31, 162.00 388.00 C 164.75 390.60, 169.85 382.74, 174.00 382.00 C 180.94 382.10, 176.30 374.93, 176.00 372.00 C 173.07 366.22, 182.44 365.93, 185.00 368.00 C 191.20 373.07, 188.45 362.72, 185.00 362.00 C 180.45 359.78, 175.23 361.58, 171.00 361.00 Z" fill="rgb(38.50487329434698,49.98440545808967,52.84405458089669)" stroke="rgb(38.50487329434698,49.98440545808967,52.84405458089669)" stroke-width="1" />
<path d="M 162.00 165.00 C 154.30 167.54, 144.97 166.12, 137.00 168.00 C 133.19 170.05, 136.21 175.70, 136.00 179.00 C 138.63 181.33, 145.95 182.44, 147.00 179.00 C 154.07 173.96, 164.05 176.93, 172.00 175.00 C 178.30 174.43, 176.63 169.70, 177.00 165.00 C 171.67 165.00, 167.33 165.00, 163.00 165.00 Z" fill="rgb(79.66666666666667,71.41666666666667,41.333333333333336)" stroke="rgb(79.66666666666667,71.41666666666667,41.333333333333336)" stroke-width="1" />
<path d="M 34.00 354.00 C 26.13 356.11, 32.27 369.24, 22.00 367.00 C 15.35 374.59, 19.26 383.67, 29.00 381.00 C 37.88 380.37, 43.47 378.59, 41.00 369.00 C 41.36 360.06, 46.57 352.11, 35.00 354.00 Z" fill="rgb(106.42105263157895,106.05263157894737,91.73684210526316)" stroke="rgb(106.42105263157895,106.05263157894737,91.73684210526316)" stroke-width="1" />
<path d="M 162.00 165.00 C 154.46 167.92, 144.99 166.17, 137.00 168.00 C 133.51 170.06, 135.69 176.17, 137.00 179.00 C 138.63 181.33, 145.95 182.44, 147.00 179.00 C 154.14 174.13, 163.92 176.60, 172.00 175.00 C 177.22 174.26, 176.75 168.16, 176.00 165.00 C 171.00 165.00, 167.00 165.00, 163.00 165.00 Z" fill="rgb(47.107505070993916,36.689655172413794,22.198782961460445)" stroke="rgb(47.107505070993916,36.689655172413794,22.198782961460445)" stroke-width="1" />
<path d="M 237.00 205.00 C 233.45 210.63, 231.95 217.12, 229.00 223.00 C 222.50 230.59, 229.56 234.75, 237.00 233.00 C 246.26 235.13, 248.13 227.81, 250.00 222.00 C 246.96 215.57, 245.25 206.75, 238.00 205.00 Z" fill="rgb(11.46900826446281,10.103305785123966,4.328512396694215)" stroke="rgb(11.46900826446281,10.103305785123966,4.328512396694215)" stroke-width="1" />
<path d="M 205.00 348.00 C 202.57 350.83, 205.59 354.83, 208.00 357.00 C 208.67 360.46, 207.20 364.82, 210.00 368.00 C 212.85 373.73, 216.22 389.24, 223.00 381.00 C 224.10 373.38, 225.81 367.00, 226.00 360.00 C 220.54 354.10, 212.76 351.73, 206.00 348.00 Z" fill="rgb(98.5859872611465,114.35668789808918,70.6135881104034)" stroke="rgb(98.5859872611465,114.35668789808918,70.6135881104034)" stroke-width="1" />
<path d="M 178.00 253.00 C 175.27 261.26, 179.33 269.97, 178.00 279.00 C 177.10 284.12, 178.95 290.52, 182.00 286.00 C 180.61 278.62, 185.05 276.44, 184.00 284.00 C 183.41 288.99, 192.26 292.83, 190.00 286.00 C 190.00 280.67, 190.00 276.33, 190.00 272.00 C 190.00 266.67, 190.00 262.33, 190.00 258.00 C 189.84 252.19, 182.59 254.06, 179.00 253.00 Z" fill="rgb(76.90636704119851,78.92883895131087,75.41573033707866)" stroke="rgb(76.90636704119851,78.92883895131087,75.41573033707866)" stroke-width="1" />
<path d="M 172.00 262.00 C 170.06 264.09, 166.60 262.51, 164.00 263.00 C 165.02 265.44, 165.10 273.37, 161.00 271.00 C 155.46 272.92, 158.40 282.84, 164.00 286.00 C 170.01 289.29, 179.69 287.82, 177.00 280.00 C 176.24 273.10, 179.38 263.78, 173.00 262.00 Z" fill="rgb(24.513064133016627,28.197149643705462,17.558194774346795)" stroke="rgb(24.513064133016627,28.197149643705462,17.558194774346795)" stroke-width="1" />
<path d="M 43.00 404.00 C 48.17 410.89, 53.55 416.20, 58.00 423.00 C 62.85 425.42, 68.11 414.10, 75.00 412.00 C 86.98 404.52, 71.75 406.04, 66.00 406.00 C 58.53 404.06, 50.70 405.40, 44.00 404.00 Z" fill="rgb(228.07692307692307,230.53846153846155,229.07692307692307)" stroke="rgb(228.07692307692307,230.53846153846155,229.07692307692307)" stroke-width="1" />
<path d="M 44.00 404.00 C 46.96 411.37, 55.52 416.43, 58.00 424.00 C 63.84 421.75, 68.09 415.96, 75.00 411.00 C 87.14 404.19, 73.05 406.24, 67.00 406.00 C 59.53 404.06, 51.70 405.40, 45.00 404.00 Z" fill="rgb(247.44634146341463,248.27073170731708,248.11951219512196)" stroke="rgb(247.44634146341463,248.27073170731708,248.11951219512196)" stroke-width="1" />
<path d="M 148.00 93.00 C 147.33 98.47, 145.69 105.66, 148.00 111.00 C 153.49 111.92, 160.92 116.42, 165.00 114.00 C 171.21 120.45, 172.74 104.59, 168.00 103.00 C 161.32 98.56, 154.02 99.04, 149.00 94.00 Z" fill="rgb(212.15706806282722,226.34031413612564,160.6937172774869)" stroke="rgb(212.15706806282722,226.34031413612564,160.6937172774869)" stroke-width="1" />
<path d="M 107.00 408.00 C 108.59 413.43, 118.00 419.10, 120.00 426.00 C 120.45 431.94, 124.34 431.32, 127.00 429.00 C 131.50 428.86, 135.46 428.87, 137.00 426.00 C 136.20 421.07, 131.78 422.24, 129.00 423.00 C 130.50 417.85, 128.27 416.23, 127.00 412.00 C 123.85 405.00, 114.06 409.30, 108.00 408.00 Z" fill="rgb(134.375,151.33333333333334,144.41666666666666)" stroke="rgb(134.375,151.33333333333334,144.41666666666666)" stroke-width="1" />
<path d="M 106.00 408.00 C 110.45 413.59, 116.29 418.89, 120.00 425.00 C 121.82 432.93, 133.27 427.59, 137.00 425.00 C 132.95 418.23, 130.90 427.36, 128.00 422.00 C 132.03 417.39, 126.27 415.40, 127.00 411.00 C 122.32 405.65, 112.99 409.11, 107.00 408.00 Z" fill="rgb(203.50704225352112,216.16338028169014,218.53521126760563)" stroke="rgb(203.50704225352112,216.16338028169014,218.53521126760563)" stroke-width="1" />
<path d="M 120.00 453.00 C 115.22 458.81, 113.42 468.81, 104.00 470.00 C 99.33 471.85, 96.75 475.35, 93.00 476.00 C 84.89 478.02, 88.90 479.92, 93.00 483.00 C 100.15 483.81, 112.20 485.94, 112.00 477.00 C 115.76 468.37, 117.60 460.36, 121.00 453.00 Z" fill="rgb(11.347181008902076,12.548961424332344,10.525222551928783)" stroke="rgb(11.347181008902076,12.548961424332344,10.525222551928783)" stroke-width="1" />
<path d="M 195.00 362.00 C 187.18 362.94, 189.06 369.41, 193.00 374.00 C 199.76 376.63, 204.29 381.24, 210.00 383.00 C 220.91 379.98, 205.15 375.60, 209.00 371.00 C 207.02 364.21, 203.03 360.28, 196.00 362.00 Z" fill="rgb(97.44970414201184,118.1775147928994,125.2603550295858)" stroke="rgb(97.44970414201184,118.1775147928994,125.2603550295858)" stroke-width="1" />
<path d="M 109.00 287.00 C 105.37 292.09, 112.98 296.02, 113.00 301.00 C 113.58 305.22, 121.74 305.93, 125.00 304.00 C 130.82 299.35, 132.43 294.09, 125.00 291.00 C 119.67 288.18, 115.29 286.50, 110.00 287.00 Z" fill="rgb(169.64968152866243,179.18471337579618,106.1624203821656)" stroke="rgb(169.64968152866243,179.18471337579618,106.1624203821656)" stroke-width="1" />
<path d="M 22.00 367.00 C 20.17 370.35, 13.46 376.94, 20.00 379.00 C 25.05 381.40, 31.53 382.09, 35.00 379.00 C 41.46 379.04, 40.96 372.32, 38.00 369.00 C 33.25 366.13, 27.87 367.18, 23.00 367.00 Z" fill="rgb(112.86805555555556,115.73263888888889,100.22569444444444)" stroke="rgb(112.86805555555556,115.73263888888889,100.22569444444444)" stroke-width="1" />
<path d="M 122.00 449.00 C 118.98 454.11, 119.74 460.78, 117.00 466.00 C 114.09 472.04, 111.31 480.74, 121.00 478.00 C 126.78 474.78, 121.51 476.49, 121.00 474.00 C 125.93 472.75, 124.50 467.81, 127.00 466.00 C 132.90 457.58, 128.86 453.69, 123.00 449.00 Z" fill="rgb(46.83108108108108,44.861486486486484,29.489864864864863)" stroke="rgb(46.83108108108108,44.861486486486484,29.489864864864863)" stroke-width="1" />
<path d="M 70.00 154.00 C 68.30 158.97, 58.44 156.97, 62.00 163.00 C 62.94 169.84, 68.69 169.54, 73.00 171.00 C 83.84 170.97, 82.37 149.46, 71.00 154.00 Z" fill="rgb(153.932384341637,166.50889679715303,102.44839857651246)" stroke="rgb(153.932384341637,166.50889679715303,102.44839857651246)" stroke-width="1" />
<path d="M 226.00 501.00 C 220.93 505.24, 214.36 505.87, 208.00 507.00 C 195.82 512.26, 207.43 510.92, 214.00 511.00 C 221.33 511.00, 227.67 511.00, 234.00 511.00 C 244.88 510.69, 233.13 497.70, 227.00 501.00 Z" fill="rgb(33.683098591549296,63.99295774647887,15.091549295774648)" stroke="rgb(33.683098591549296,63.99295774647887,15.091549295774648)" stroke-width="1" />
<path d="M 142.00 182.00 C 136.45 183.26, 129.37 182.33, 132.00 191.00 C 134.09 193.94, 132.51 197.40, 133.00 200.00 C 136.96 202.14, 136.98 197.93, 140.00 197.00 C 142.81 191.65, 144.03 198.77, 146.00 200.00 C 152.39 200.05, 149.41 200.68, 148.00 197.00 C 144.83 192.04, 150.80 180.47, 143.00 182.00 Z" fill="rgb(169.57491289198606,157.53658536585365,109.10801393728222)" stroke="rgb(169.57491289198606,157.53658536585365,109.10801393728222)" stroke-width="1" />
<path d="M 301.00 488.00 C 297.90 491.46, 298.13 496.31, 298.00 501.00 C 293.59 507.96, 301.35 511.67, 305.00 506.00 C 314.21 505.14, 305.88 498.05, 310.00 495.00 C 313.63 489.41, 307.23 487.02, 302.00 488.00 Z" fill="rgb(45.3921568627451,73.29411764705883,25.40392156862745)" stroke="rgb(45.3921568627451,73.29411764705883,25.40392156862745)" stroke-width="1" />
<path d="M 291.00 186.00 C 289.37 189.44, 289.37 195.56, 291.00 199.00 C 297.15 197.65, 302.36 201.02, 306.00 200.00 C 307.80 200.55, 311.14 190.53, 307.00 188.00 C 300.85 188.51, 296.91 186.07, 292.00 186.00 Z" fill="rgb(133.60747663551402,131.07476635514018,87.6355140186916)" stroke="rgb(133.60747663551402,131.07476635514018,87.6355140186916)" stroke-width="1" />
<path d="M 169.00 496.00 C 167.81 501.40, 165.36 506.65, 159.00 507.00 C 148.75 512.14, 158.22 510.97, 164.00 511.00 C 169.96 510.18, 176.65 513.27, 179.00 508.00 C 180.83 504.11, 178.89 502.17, 176.00 503.00 C 173.55 499.56, 174.01 495.91, 170.00 496.00 Z" fill="rgb(52.863829787234046,82.61702127659575,30.072340425531916)" stroke="rgb(52.863829787234046,82.61702127659575,30.072340425531916)" stroke-width="1" />
<path d="M 135.00 400.00 C 130.79 401.47, 133.94 410.15, 127.00 408.00 C 126.84 416.98, 132.90 412.76, 137.00 417.00 C 140.93 412.82, 147.20 414.18, 149.00 409.00 C 141.54 409.50, 140.32 402.39, 136.00 400.00 Z" fill="rgb(48.333333333333336,59.095238095238095,50.76190476190476)" stroke="rgb(48.333333333333336,59.095238095238095,50.76190476190476)" stroke-width="1" />
<path d="M 33.00 354.00 C 29.22 355.94, 26.59 365.19, 31.00 366.00 C 38.13 366.37, 41.07 372.67, 41.00 376.00 C 42.95 370.67, 41.61 364.98, 42.00 360.00 C 47.38 352.24, 38.42 354.17, 34.00 354.00 Z" fill="rgb(117.72645739910314,118.45291479820628,104.09865470852019)" stroke="rgb(117.72645739910314,118.45291479820628,104.09865470852019)" stroke-width="1" />
<path d="M 125.00 242.00 C 123.49 245.67, 116.66 244.94, 118.00 251.00 C 123.65 252.10, 126.04 257.65, 131.00 257.00 C 136.31 260.65, 137.97 249.49, 134.00 249.00 C 132.61 242.61, 131.70 242.76, 126.00 242.00 Z" fill="rgb(36.596330275229356,44.34403669724771,25.793577981651374)" stroke="rgb(36.596330275229356,44.34403669724771,25.793577981651374)" stroke-width="1" />
<path d="M 1.00 437.00 C -0.78 440.40, 0.28 444.98, 0.00 449.00 C -1.34 457.22, 1.93 455.85, 6.00 452.00 C 9.53 449.53, 18.48 447.89, 15.00 443.00 C 10.72 438.60, 5.55 439.74, 2.00 437.00 Z" fill="rgb(105.59512195121951,116.27317073170731,76.6)" stroke="rgb(105.59512195121951,116.27317073170731,76.6)" stroke-width="1" />
<path d="M 21.00 47.00 C 14.22 48.32, 14.88 53.94, 22.00 54.00 C 28.04 52.95, 30.81 57.39, 36.00 56.00 C 43.01 57.11, 43.47 48.20, 37.00 49.00 C 32.12 45.77, 26.56 47.59, 22.00 47.00 Z" fill="rgb(93.49056603773585,108.16037735849056,62.424528301886795)" stroke="rgb(93.49056603773585,108.16037735849056,62.424528301886795)" stroke-width="1" />
<path d="M 307.00 437.00 C 303.51 439.10, 299.20 439.21, 296.00 442.00 C 302.11 442.04, 299.04 451.33, 305.00 449.00 C 308.13 450.95, 314.56 447.98, 315.00 446.00 C 318.05 440.23, 311.78 437.74, 308.00 437.00 Z" fill="rgb(36.14572864321608,75.14070351758794,16.190954773869347)" stroke="rgb(36.14572864321608,75.14070351758794,16.190954773869347)" stroke-width="1" />
<path d="M 187.00 254.00 C 185.12 258.86, 185.35 265.47, 185.00 272.00 C 187.47 279.35, 182.66 288.45, 189.00 291.00 C 190.00 284.00, 190.00 278.00, 190.00 272.00 C 188.83 265.83, 192.44 255.89, 188.00 254.00 Z" fill="rgb(64.46231155778895,67.55276381909547,66.95477386934674)" stroke="rgb(64.46231155778895,67.55276381909547,66.95477386934674)" stroke-width="1" />
<path d="M 249.00 439.00 C 241.91 440.36, 243.87 455.69, 253.00 452.00 C 256.93 450.85, 262.10 449.57, 261.00 445.00 C 258.76 440.04, 252.87 441.33, 250.00 439.00 Z" fill="rgb(19.104166666666668,49.375,8.286458333333334)" stroke="rgb(19.104166666666668,49.375,8.286458333333334)" stroke-width="1" />
<path d="M 173.00 383.00 C 168.38 387.19, 162.20 391.12, 160.00 397.00 C 156.73 404.64, 150.04 409.91, 160.00 404.00 C 166.45 400.70, 165.57 392.59, 172.00 391.00 C 178.80 390.83, 183.61 383.69, 174.00 383.00 Z" fill="rgb(66.07894736842105,82.10526315789474,67.52631578947368)" stroke="rgb(66.07894736842105,82.10526315789474,67.52631578947368)" stroke-width="1" />
<path d="M 135.00 400.00 C 130.73 400.79, 134.19 408.60, 129.00 408.00 C 126.50 408.30, 128.30 419.29, 132.00 413.00 C 134.97 417.81, 142.34 416.12, 141.00 411.00 C 142.30 407.27, 139.41 402.08, 136.00 400.00 Z" fill="rgb(43.39655172413793,46.38505747126437,44.270114942528735)" stroke="rgb(43.39655172413793,46.38505747126437,44.270114942528735)" stroke-width="1" />
<path d="M 157.00 227.00 C 159.42 229.88, 152.42 235.22, 159.00 236.00 C 164.00 236.00, 168.00 236.00, 172.00 236.00 C 180.46 235.75, 175.16 229.03, 171.00 229.00 C 165.90 228.57, 162.36 226.79, 158.00 227.00 Z" fill="rgb(29.950920245398773,48.190184049079754,18.196319018404907)" stroke="rgb(29.950920245398773,48.190184049079754,18.196319018404907)" stroke-width="1" />
<path d="M 173.00 383.00 C 168.94 386.77, 163.65 390.02, 161.00 395.00 C 155.65 401.24, 158.38 404.20, 164.00 400.00 C 164.61 393.41, 170.00 391.84, 173.00 389.00 C 181.64 391.38, 181.02 381.87, 174.00 383.00 Z" fill="rgb(68.17948717948718,80.34615384615384,68.94871794871794)" stroke="rgb(68.17948717948718,80.34615384615384,68.94871794871794)" stroke-width="1" />
<path d="M 291.00 186.00 C 288.55 191.74, 288.72 202.27, 298.00 199.00 C 303.98 196.07, 299.88 183.65, 292.00 186.00 Z" fill="rgb(183.25806451612902,177.3548387096774,143.32258064516128)" stroke="rgb(183.25806451612902,177.3548387096774,143.32258064516128)" stroke-width="1" />
</svg>