<svg xmlns="http://www.w3.org/2000/svg" width="341" height="512" viewbox="0 0 341 512">
<path d="M 0.50 0.50 C 0.50 84.83, 0.50 169.17, 0.50 253.50 C 0.50 338.83, 0.50 423.17, 0.50 507.50 C 43.51 515.49, 99.49 509.51, 147.50 511.50 C 356.09 570.75, 359.48 425.81, 340.50 258.50 C 419.92 -20.59, 225.47 -24.80, 1.50 0.50 Z" fill="rgb(93.37251775619654,102.51297289462241,71.39165096390781)" stroke="rgb(93.37251775619654,102.51297289462241,71.39165096390781)" stroke-width="1" />
<path d="M 249.50 0.50 C 274.38 46.96, 247.30 130.24, 302.50 149.50 C 300.06 157.34, 310.29 164.86, 302.50 168.50 C 295.16 169.56, 294.99 170.46, 290.50 173.50 C 280.16 180.15, 298.40 172.50, 294.50 181.50 C 300.03 182.23, 303.69 184.05, 307.50 185.50 C 313.53 190.18, 312.32 199.58, 308.50 202.50 C 304.37 205.67, 299.74 206.61, 295.50 208.50 C 296.38 215.19, 295.16 223.17, 295.50 230.50 C 292.83 234.14, 297.65 236.96, 298.50 239.50 C 293.31 247.60, 289.08 257.63, 282.50 265.50 C 278.85 274.57, 290.09 283.66, 279.50 289.50 C 278.78 298.31, 272.06 303.63, 271.50 311.50 C 253.72 325.22, 233.73 340.24, 212.50 339.50 C 239.49 390.13, 84.20 398.42, 150.50 490.50 C 301.07 573.64, 381.62 467.59, 340.50 307.50 C 340.50 273.83, 340.50 241.17, 340.50 208.50 C 340.50 199.83, 340.50 192.17, 340.50 184.50 C 340.50 175.50, 340.50 167.50, 340.50 159.50 C 340.50 150.50, 340.50 142.50, 340.50 134.50 C 340.50 125.50, 340.50 117.50, 340.50 109.50 C 352.47 30.53, 340.63 -23.63, 250.50 0.50 Z" fill="rgb(69.38396624472574,94.63713080168776,44.108649789029535)" stroke="rgb(69.38396624472574,94.63713080168776,44.108649789029535)" stroke-width="1" />
<path d="M 0.50 0.50 C 0.50 12.50, 0.50 24.50, 0.50 36.50 C 0.50 47.50, 0.50 57.50, 0.50 67.50 C 0.50 73.17, 0.50 77.83, 0.50 82.50 C 0.50 88.50, 0.50 93.50, 0.50 98.50 C -3.34 116.30, 7.60 122.62, 22.50 117.50 C 33.30 115.66, 25.66 129.08, 32.50 128.50 C 37.59 132.02, 44.20 129.48, 48.50 132.50 C 52.20 132.25, 54.45 130.90, 57.50 131.50 C 60.41 128.30, 60.03 124.15, 64.50 123.50 C 78.05 114.13, 73.94 95.86, 80.50 82.50 C 91.81 71.04, 97.74 99.13, 98.50 83.50 C 102.70 71.58, 113.55 70.12, 124.50 69.50 C 134.02 69.00, 148.06 65.81, 149.50 76.50 C 152.60 90.24, 140.14 112.89, 158.50 113.50 C 168.56 122.53, 181.22 124.38, 194.50 126.50 C 204.47 127.99, 214.91 128.95, 218.50 137.50 C 238.50 140.06, 242.33 132.34, 260.50 140.50 C 273.54 143.55, 286.53 144.28, 298.50 147.50 C 466.50 28.22, 170.82 -41.38, 1.50 0.50 Z" fill="rgb(161.87783115991763,177.69251887439944,111.41660947151682)" stroke="rgb(161.87783115991763,177.69251887439944,111.41660947151682)" stroke-width="1" />
<path d="M 333.50 168.50 C 330.19 171.11, 322.02 173.50, 328.50 175.50 C 327.07 184.28, 317.10 180.65, 314.50 187.50 C 312.96 191.43, 315.48 193.04, 313.50 195.50 C 313.46 201.03, 310.29 205.01, 305.50 206.50 C 303.40 210.20, 297.14 207.64, 298.50 212.50 C 297.53 216.90, 297.27 220.60, 297.50 224.50 C 296.63 231.27, 298.66 237.32, 298.50 241.50 C 298.77 246.86, 295.13 248.26, 292.50 250.50 C 291.49 255.75, 286.47 257.09, 287.50 262.50 C 279.04 264.61, 280.16 276.81, 285.50 279.50 C 285.70 285.47, 279.04 288.01, 279.50 293.50 C 279.25 300.69, 271.07 303.61, 272.50 310.50 C 267.97 314.83, 264.00 319.50, 258.50 320.50 C 251.23 321.76, 248.48 327.95, 243.50 331.50 C 236.30 334.73, 229.04 338.87, 222.50 334.50 C 222.95 330.74, 220.49 337.05, 217.50 335.50 C 210.19 337.08, 205.33 341.17, 198.50 340.50 C 194.57 342.72, 192.71 348.31, 197.50 347.50 C 199.99 349.12, 202.81 349.76, 203.50 353.50 C 207.31 358.58, 208.39 361.27, 209.50 368.50 C 214.28 377.48, 210.73 384.91, 198.50 380.50 C 194.39 377.30, 191.18 374.68, 187.50 372.50 C 183.73 373.52, 181.94 368.06, 179.50 371.50 C 185.70 389.95, 162.13 389.48, 156.50 405.50 C 150.26 410.10, 148.07 416.02, 141.50 417.50 C 133.85 421.21, 142.96 426.60, 136.50 430.50 C 130.89 431.86, 129.59 438.24, 125.50 438.50 C 123.86 443.65, 124.12 448.07, 127.50 450.50 C 134.82 455.10, 131.84 462.56, 132.50 468.50 C 130.12 476.03, 132.74 479.20, 138.50 480.50 C 141.65 483.98, 144.24 487.64, 147.50 491.50 C 158.07 502.43, 169.26 505.29, 179.50 511.50 C 232.50 511.50, 284.50 511.50, 336.50 511.50 C 344.07 509.40, 338.81 495.48, 340.50 488.50 C 340.50 483.17, 340.50 478.83, 340.50 474.50 C 340.50 469.17, 340.50 464.83, 340.50 460.50 C 340.50 450.83, 340.50 442.17, 340.50 433.50 C 340.50 428.17, 340.50 423.83, 340.50 419.50 C 340.50 414.17, 340.50 409.83, 340.50 405.50 C 340.50 400.50, 340.50 396.50, 340.50 392.50 C 340.50 387.17, 340.50 382.83, 340.50 378.50 C 340.50 373.17, 340.50 368.83, 340.50 364.50 C 340.50 359.17, 340.50 354.83, 340.50 350.50 C 340.50 345.17, 340.50 340.83, 340.50 336.50 C 340.50 331.17, 340.50 326.83, 340.50 322.50 C 340.50 317.17, 340.50 312.83, 340.50 308.50 C 340.50 303.17, 340.50 298.83, 340.50 294.50 C 340.50 288.50, 340.50 283.50, 340.50 278.50 C 340.50 272.50, 340.50 267.50, 340.50 262.50 C 340.50 257.83, 340.50 254.17, 340.50 250.50 C 340.50 243.17, 340.50 236.83, 340.50 230.50 C 339.87 225.29, 339.08 221.15, 339.50 216.50 C 339.50 210.50, 339.50 205.50, 339.50 200.50 C 339.50 194.17, 339.50 188.83, 339.50 183.50 C 338.63 177.55, 342.39 166.95, 334.50 168.50 Z" fill="rgb(45.36027374394926,69.29233850776164,32.621098314137875)" stroke="rgb(45.36027374394926,69.29233850776164,32.621098314137875)" stroke-width="1" />
<path d="M 137.50 70.50 C 128.96 72.13, 119.82 72.34, 111.50 74.50 C 100.69 78.59, 111.31 100.95, 93.50 94.50 C 80.90 73.87, 80.78 106.84, 78.50 116.50 C 59.32 142.44, 79.28 170.67, 106.50 177.50 C 108.05 182.36, 112.10 187.94, 116.50 184.50 C 123.72 181.92, 130.29 187.97, 132.50 192.50 C 133.78 203.79, 140.92 195.78, 146.50 200.50 C 137.96 222.27, 165.60 230.01, 181.50 233.50 C 189.33 232.72, 194.67 232.72, 201.50 233.50 C 219.17 233.96, 235.35 235.08, 251.50 232.50 C 256.83 232.50, 261.17 232.50, 265.50 232.50 C 271.17 232.50, 275.83 232.50, 280.50 232.50 C 289.99 231.71, 285.01 221.94, 286.50 216.50 C 282.95 211.89, 287.61 211.25, 287.50 207.50 C 295.32 204.19, 308.81 203.41, 303.50 192.50 C 298.47 185.07, 287.58 187.27, 280.50 183.50 C 280.01 178.69, 277.48 171.15, 283.50 171.50 C 289.65 166.46, 304.55 165.41, 296.50 156.50 C 301.51 147.25, 285.14 149.16, 280.50 146.50 C 268.45 144.43, 257.04 140.35, 245.50 142.50 C 239.65 144.87, 235.50 141.54, 230.50 141.50 C 215.41 143.07, 212.88 129.04, 199.50 129.50 C 153.39 133.18, 147.14 100.36, 138.50 70.50 Z" fill="rgb(49.89875473741202,46.64266377910125,32.53383865728208)" stroke="rgb(49.89875473741202,46.64266377910125,32.53383865728208)" stroke-width="1" />
<path d="M 35.50 172.50 C 33.21 174.94, 29.26 175.06, 26.50 173.50 C 17.88 174.24, 9.46 174.77, 3.50 175.50 C 0.28 179.19, 2.44 184.70, 0.50 188.50 C 0.50 197.83, 0.50 206.17, 0.50 214.50 C 0.50 219.50, 0.50 223.50, 0.50 227.50 C 0.50 232.83, 0.50 237.17, 0.50 241.50 C 0.50 250.83, 0.50 259.17, 0.50 267.50 C 0.50 272.50, 0.50 276.50, 0.50 280.50 C 0.50 285.83, 0.50 290.17, 0.50 294.50 C 0.50 299.17, 0.50 302.83, 0.50 306.50 C 0.11 316.13, 2.28 323.71, 1.50 332.50 C -7.75 375.31, 17.34 399.81, 24.50 350.50 C 29.91 349.62, 31.53 343.03, 36.50 344.50 C 46.05 341.70, 55.80 342.77, 62.50 336.50 C 67.96 325.62, 73.23 315.71, 78.50 306.50 C 78.95 300.38, 83.45 296.76, 86.50 293.50 C 93.04 290.05, 99.43 289.67, 105.50 288.50 C 111.94 284.43, 116.30 287.81, 122.50 287.50 C 127.16 289.64, 131.75 289.57, 135.50 291.50 C 130.54 291.91, 146.06 303.45, 143.50 292.50 C 144.88 288.37, 148.27 287.54, 150.50 284.50 C 145.94 279.61, 152.01 277.67, 152.50 274.50 C 151.86 267.96, 153.17 263.22, 154.50 258.50 C 156.81 252.77, 157.57 246.14, 154.50 241.50 C 150.50 235.64, 157.79 229.63, 151.50 225.50 C 144.30 221.80, 143.78 214.75, 141.50 209.50 C 128.47 208.99, 131.60 195.23, 124.50 189.50 C 121.53 186.21, 116.77 188.17, 115.50 190.50 C 116.57 194.98, 109.04 198.97, 108.50 194.50 C 106.28 187.28, 102.81 179.17, 96.50 176.50 C 89.24 173.38, 82.37 171.73, 74.50 172.50 C 68.81 173.52, 65.69 173.05, 60.50 173.50 C 55.97 175.69, 52.59 171.96, 48.50 172.50 C 44.31 174.15, 40.61 171.60, 36.50 172.50 Z" fill="rgb(149.89000051570315,170.8092414006498,100.48971172193285)" stroke="rgb(149.89000051570315,170.8092414006498,100.48971172193285)" stroke-width="1" />
<path d="M 162.50 0.50 C 162.15 7.78, 164.69 12.69, 163.50 19.50 C 163.90 25.56, 164.06 28.72, 163.50 34.50 C 160.47 40.18, 159.24 33.26, 157.50 31.50 C 158.10 21.12, 154.09 34.43, 151.50 35.50 C 150.35 41.24, 146.79 45.40, 145.50 50.50 C 147.81 56.13, 145.28 60.24, 141.50 63.50 C 135.75 61.47, 131.68 69.41, 138.50 67.50 C 148.22 68.82, 149.68 77.54, 148.50 85.50 C 153.51 94.73, 142.80 112.84, 157.50 113.50 C 169.54 124.29, 187.36 124.51, 203.50 128.50 C 207.31 128.82, 209.87 129.75, 212.50 130.50 C 216.03 133.89, 215.90 138.19, 220.50 137.50 C 226.36 136.90, 229.36 140.78, 234.50 139.50 C 236.14 136.64, 238.46 135.79, 239.50 133.50 C 245.27 131.63, 246.57 137.50, 248.50 140.50 C 254.86 140.71, 260.19 140.83, 264.50 138.50 C 265.82 133.16, 264.65 128.21, 266.50 124.50 C 264.35 117.72, 263.09 115.15, 263.50 110.50 C 264.01 105.35, 262.43 102.41, 262.50 97.50 C 262.46 91.57, 261.96 86.84, 260.50 82.50 C 260.02 76.20, 257.41 72.20, 256.50 67.50 C 245.34 62.71, 257.98 50.58, 250.50 44.50 C 248.77 37.93, 248.63 29.52, 251.50 24.50 C 254.43 17.37, 251.25 10.94, 248.50 5.50 C 246.51 1.66, 245.26 -0.48, 241.50 0.50 C 235.50 0.50, 230.50 0.50, 225.50 0.50 C 219.50 0.50, 214.50 0.50, 209.50 0.50 C 203.50 0.50, 198.50 0.50, 193.50 0.50 C 187.17 0.50, 181.83 0.50, 176.50 0.50 C 175.30 3.76, 177.61 6.04, 174.50 8.50 C 173.58 13.91, 173.31 20.45, 173.50 26.50 C 173.85 31.45, 171.72 34.37, 172.50 38.50 C 171.80 43.49, 174.26 48.78, 170.50 51.50 C 164.66 48.98, 168.97 42.55, 166.50 38.50 C 165.83 31.21, 167.96 26.05, 166.50 20.50 C 165.70 13.63, 171.61 0.06, 163.50 0.50 Z" fill="rgb(157.05879146550382,181.00482790842548,101.12100918859991)" stroke="rgb(157.05879146550382,181.00482790842548,101.12100918859991)" stroke-width="1" />
<path d="M 248.50 0.50 C 247.58 8.17, 259.48 5.80, 259.50 13.50 C 263.50 20.42, 255.85 23.44, 252.50 27.50 C 250.10 31.98, 253.16 36.76, 250.50 40.50 C 256.46 45.84, 256.45 53.25, 252.50 58.50 C 250.62 63.45, 252.62 64.92, 256.50 65.50 C 259.33 68.49, 258.05 71.77, 260.50 73.50 C 260.60 80.48, 264.97 84.28, 263.50 90.50 C 264.50 95.50, 264.50 99.50, 264.50 103.50 C 265.94 108.46, 267.01 112.15, 266.50 116.50 C 270.19 124.33, 265.22 132.48, 268.50 139.50 C 268.47 143.86, 272.61 142.06, 274.50 142.50 C 279.20 141.89, 283.31 145.24, 287.50 145.50 C 292.50 147.63, 297.66 146.98, 301.50 149.50 C 302.04 154.97, 303.34 158.71, 304.50 162.50 C 311.21 166.97, 318.18 164.11, 324.50 167.50 C 330.05 172.22, 333.73 165.56, 338.50 166.50 C 339.50 161.17, 339.50 155.83, 339.50 150.50 C 339.50 144.17, 339.50 138.83, 339.50 133.50 C 339.50 127.50, 339.50 122.50, 339.50 117.50 C 338.94 110.13, 340.15 104.49, 340.50 98.50 C 340.50 91.17, 340.50 84.83, 340.50 78.50 C 340.50 72.50, 340.50 67.50, 340.50 62.50 C 340.50 56.17, 340.50 50.83, 340.50 45.50 C 340.50 37.50, 340.50 30.50, 340.50 23.50 C 340.50 15.17, 340.50 7.83, 340.50 0.50 C 332.50 0.50, 325.50 0.50, 318.50 0.50 C 310.17 0.50, 302.83 0.50, 295.50 0.50 C 287.17 0.50, 279.83 0.50, 272.50 0.50 C 264.17 0.50, 256.83 0.50, 249.50 0.50 Z" fill="rgb(79.65032237522885,112.67117726657645,42.75475602961076)" stroke="rgb(79.65032237522885,112.67117726657645,42.75475602961076)" stroke-width="1" />
<path d="M 232.50 314.50 C 228.77 316.48, 224.23 316.52, 220.50 318.50 C 215.56 319.78, 210.99 319.55, 206.50 319.50 C 197.92 318.76, 192.26 322.67, 184.50 321.50 C 178.70 321.52, 173.73 321.11, 169.50 322.50 C 162.53 322.11, 157.02 322.82, 151.50 323.50 C 144.50 323.69, 139.24 325.68, 133.50 326.50 C 124.65 327.52, 116.30 327.35, 108.50 328.50 C 103.17 330.45, 97.48 329.11, 92.50 329.50 C 90.19 332.22, 84.83 328.74, 84.50 331.50 C 91.11 336.98, 83.85 340.53, 77.50 337.50 C 74.83 340.84, 69.02 337.68, 68.50 341.50 C 61.54 346.51, 50.85 342.58, 48.50 349.50 C 45.93 347.85, 37.15 351.23, 42.50 352.50 C 48.50 356.75, 41.91 362.04, 43.50 367.50 C 43.82 373.54, 43.48 376.21, 43.50 381.50 C 42.64 387.26, 41.15 392.29, 40.50 395.50 C 43.44 407.29, 53.97 415.40, 59.50 424.50 C 79.84 376.66, 124.73 436.81, 128.50 416.50 C 124.07 403.76, 139.48 394.24, 145.50 406.50 C 159.04 398.08, 180.26 384.02, 177.50 367.50 C 191.70 367.54, 212.57 392.54, 207.50 365.50 C 204.21 358.81, 204.52 351.72, 197.50 349.50 C 191.91 345.09, 184.78 346.82, 178.50 346.50 C 173.83 344.94, 171.59 347.74, 167.50 347.50 C 156.91 338.55, 177.43 342.36, 180.50 340.50 C 183.90 338.86, 186.89 338.63, 189.50 337.50 C 197.38 336.87, 203.24 333.90, 209.50 335.50 C 216.43 335.68, 215.18 326.18, 221.50 327.50 C 221.74 331.82, 225.88 334.25, 231.50 331.50 C 236.37 329.63, 242.38 328.28, 244.50 323.50 C 235.99 321.83, 241.98 312.24, 233.50 314.50 Z" fill="rgb(111.7464234620887,115.77485693848355,100.45869098712447)" stroke="rgb(111.7464234620887,115.77485693848355,100.45869098712447)" stroke-width="1" />
<path d="M 0.50 0.50 C 0.50 14.83, 0.50 29.17, 0.50 43.50 C 1.50 51.50, 1.50 58.50, 1.50 65.50 C 1.50 73.50, 1.50 80.50, 1.50 87.50 C 1.50 93.50, 1.50 98.50, 1.50 103.50 C 1.50 109.50, 1.50 114.50, 1.50 119.50 C 8.77 119.82, 14.70 119.30, 20.50 118.50 C 30.23 115.19, 32.68 121.96, 32.50 125.50 C 38.65 122.72, 32.08 131.98, 39.50 129.50 C 46.94 129.77, 46.56 128.81, 51.50 130.50 C 55.73 130.36, 66.64 131.66, 60.50 127.50 C 65.73 125.16, 71.27 123.94, 71.50 117.50 C 73.47 113.87, 80.15 113.02, 75.50 109.50 C 77.61 104.96, 77.89 100.66, 78.50 96.50 C 77.56 88.95, 79.68 83.66, 84.50 79.50 C 90.27 78.22, 93.94 81.86, 93.50 86.50 C 97.42 92.24, 102.94 86.72, 99.50 82.50 C 103.84 76.61, 105.48 70.60, 104.50 63.50 C 110.80 58.14, 109.35 50.99, 109.50 44.50 C 102.17 38.29, 97.60 30.03, 89.50 26.50 C 88.70 20.43, 94.17 27.87, 94.50 18.50 C 93.05 12.21, 93.38 5.12, 94.50 0.50 C 86.17 0.50, 78.83 0.50, 71.50 0.50 C 63.17 0.50, 55.83 0.50, 48.50 0.50 C 32.17 0.50, 16.83 0.50, 1.50 0.50 Z" fill="rgb(153.30695517774342,175.6107161257084,98.9961875321999)" stroke="rgb(153.30695517774342,175.6107161257084,98.9961875321999)" stroke-width="1" />
<path d="M 326.50 437.50 C 323.46 438.87, 320.09 439.44, 316.50 439.50 C 301.38 438.75, 289.71 444.89, 274.50 442.50 C 264.54 448.79, 256.71 437.15, 248.50 442.50 C 242.40 446.33, 245.70 455.43, 238.50 455.50 C 235.98 458.97, 230.78 458.19, 227.50 460.50 C 222.14 461.51, 219.86 457.49, 215.50 458.50 C 208.33 457.48, 203.89 460.64, 198.50 461.50 C 195.99 465.22, 191.87 465.42, 190.50 468.50 C 192.96 472.12, 193.93 479.14, 198.50 480.50 C 192.80 486.15, 202.50 490.83, 202.50 497.50 C 202.22 501.39, 199.58 506.85, 196.50 503.50 C 190.74 502.68, 190.78 510.49, 193.50 511.50 C 213.50 511.50, 232.50 511.50, 251.50 511.50 C 256.83 511.50, 261.17 511.50, 265.50 511.50 C 271.17 511.50, 275.83 511.50, 280.50 511.50 C 286.17 511.50, 290.83 511.50, 295.50 511.50 C 301.17 511.50, 305.83 511.50, 310.50 511.50 C 319.83 511.50, 328.17 511.50, 336.50 511.50 C 343.21 512.54, 339.40 504.07, 340.50 500.50 C 338.27 495.62, 340.09 490.06, 339.50 485.50 C 339.50 478.83, 339.50 473.17, 339.50 467.50 C 339.50 460.50, 339.50 454.50, 339.50 448.50 C 342.18 437.99, 335.67 436.02, 327.50 437.50 Z" fill="rgb(29.867962132536125,53.595789735924264,18.84666168410563)" stroke="rgb(29.867962132536125,53.595789735924264,18.84666168410563)" stroke-width="1" />
<path d="M 136.50 70.50 C 126.85 74.49, 109.05 68.69, 105.50 80.50 C 105.28 84.65, 105.84 87.89, 105.50 91.50 C 94.91 99.20, 92.05 87.97, 85.50 84.50 C 75.06 94.73, 86.10 113.87, 73.50 120.50 C 61.57 150.01, 81.46 169.80, 108.50 178.50 C 108.77 189.67, 120.30 180.47, 125.50 184.50 C 132.12 189.98, 137.95 177.46, 134.50 171.50 C 134.28 166.88, 128.82 169.39, 127.50 166.50 C 131.55 161.01, 144.06 167.47, 141.50 157.50 C 140.42 139.49, 162.57 149.72, 173.50 146.50 C 214.26 150.64, 236.65 133.73, 186.50 127.50 C 143.44 132.55, 152.40 90.10, 137.50 70.50 Z" fill="rgb(107.80459770114942,104.10946907498632,74.12753147235905)" stroke="rgb(107.80459770114942,104.10946907498632,74.12753147235905)" stroke-width="1" />
<path d="M 49.50 356.50 C 47.11 357.68, 44.27 358.93, 44.50 362.50 C 43.18 366.88, 47.08 369.96, 44.50 372.50 C 45.10 377.14, 44.11 382.68, 44.50 387.50 C 44.50 393.17, 44.50 397.83, 44.50 402.50 C 51.49 403.85, 57.13 405.06, 63.50 404.50 C 69.72 407.04, 77.28 403.96, 82.50 406.50 C 88.06 404.70, 93.77 401.63, 98.50 404.50 C 104.63 410.02, 113.49 406.51, 120.50 407.50 C 128.17 408.75, 131.66 404.48, 134.50 399.50 C 141.96 399.43, 141.99 408.45, 149.50 406.50 C 157.89 404.61, 157.79 395.88, 163.50 391.50 C 166.54 384.23, 177.05 383.96, 177.50 378.50 C 166.98 364.88, 188.84 368.36, 185.50 363.50 C 175.86 360.43, 166.97 363.55, 157.50 362.50 C 151.17 361.04, 146.96 363.28, 141.50 362.50 C 138.30 363.79, 135.70 363.79, 133.50 362.50 C 127.61 364.10, 121.71 362.26, 117.50 364.50 C 113.96 365.27, 110.88 365.76, 107.50 365.50 C 102.35 365.05, 97.50 365.30, 93.50 363.50 C 88.48 361.60, 83.16 362.86, 78.50 362.50 C 70.90 362.94, 65.08 361.50, 59.50 359.50 C 57.54 355.08, 53.46 356.98, 50.50 356.50 Z" fill="rgb(158.50069128974917,169.27177562709855,171.85719928895912)" stroke="rgb(158.50069128974917,169.27177562709855,171.85719928895912)" stroke-width="1" />
<path d="M 184.50 235.50 C 181.45 237.99, 176.07 234.85, 173.50 238.50 C 168.23 237.49, 164.77 237.49, 160.50 238.50 C 166.10 244.85, 158.68 249.29, 160.50 257.50 C 156.91 264.72, 156.71 271.74, 158.50 278.50 C 166.12 289.28, 180.17 286.76, 190.50 291.50 C 195.00 292.89, 199.33 292.30, 202.50 294.50 C 206.20 291.59, 209.17 295.67, 212.50 294.50 C 220.73 305.96, 223.37 316.05, 240.50 309.50 C 240.43 282.56, 236.72 252.06, 217.50 237.50 C 211.50 236.50, 206.50 236.50, 201.50 236.50 C 195.32 236.60, 190.94 234.78, 185.50 235.50 Z" fill="rgb(68.19850885368126,69.08946877912395,53.49301025163094)" stroke="rgb(68.19850885368126,69.08946877912395,53.49301025163094)" stroke-width="1" />
<path d="M 95.50 420.50 C 86.34 423.39, 76.41 424.42, 66.50 425.50 C 60.89 426.17, 57.24 429.15, 52.50 429.50 C 43.28 463.00, 36.82 437.69, 10.50 455.50 C 13.60 482.80, 60.96 465.93, 83.50 479.50 C 98.07 472.45, 124.13 464.77, 116.50 444.50 C 128.85 431.53, 113.59 414.01, 96.50 420.50 Z" fill="rgb(128.51724137931035,126.10344827586206,92.0)" stroke="rgb(128.51724137931035,126.10344827586206,92.0)" stroke-width="1" />
<path d="M 194.50 175.50 C 191.27 177.70, 186.40 175.93, 182.50 176.50 C 176.56 176.17, 171.98 176.71, 167.50 177.50 C 161.50 177.50, 156.50 177.50, 151.50 177.50 C 138.39 178.03, 122.12 200.00, 142.50 195.50 C 147.93 206.70, 161.74 198.51, 171.50 200.50 C 177.17 200.50, 181.83 200.50, 186.50 200.50 C 192.50 200.50, 197.50 200.50, 202.50 200.50 C 208.39 201.10, 214.29 199.26, 218.50 201.50 C 224.50 201.50, 229.50 201.50, 234.50 201.50 C 240.21 201.72, 244.44 203.11, 249.50 202.50 C 255.44 202.17, 260.02 202.71, 264.50 203.50 C 270.44 203.17, 275.02 203.71, 279.50 204.50 C 285.50 204.50, 290.50 204.50, 295.50 204.50 C 308.09 204.04, 301.83 190.71, 296.50 188.50 C 289.47 187.37, 283.91 186.12, 278.50 184.50 C 272.04 185.28, 267.83 183.04, 262.50 183.50 C 256.09 182.83, 251.48 181.21, 246.50 180.50 C 240.06 180.08, 234.84 179.14, 229.50 178.50 C 222.70 178.16, 217.30 176.84, 211.50 176.50 C 205.52 176.11, 200.86 174.96, 195.50 175.50 Z" fill="rgb(119.00562462995856,114.04677323860273,76.85642391947898)" stroke="rgb(119.00562462995856,114.04677323860273,76.85642391947898)" stroke-width="1" />
<path d="M 99.50 419.50 C 96.79 420.87, 93.63 421.15, 90.50 421.50 C 81.98 422.24, 75.64 424.83, 68.50 425.50 C 59.28 426.36, 52.42 430.51, 45.50 434.50 C 39.28 437.08, 45.77 439.79, 46.50 442.50 C 49.97 446.53, 50.20 450.13, 54.50 451.50 C 59.21 460.17, 68.03 467.43, 65.50 476.50 C 82.64 484.61, 96.84 473.03, 110.50 466.50 C 113.63 460.75, 117.45 456.70, 118.50 451.50 C 121.57 448.15, 115.86 446.20, 116.50 443.50 C 123.31 439.14, 119.71 430.05, 119.50 424.50 C 114.50 417.34, 105.74 422.67, 100.50 419.50 Z" fill="rgb(165.24214755295836,157.32797662527392,135.37326515704893)" stroke="rgb(165.24214755295836,157.32797662527392,135.37326515704893)" stroke-width="1" />
<path d="M 243.50 142.50 C 241.24 144.63, 237.42 142.98, 234.50 143.50 C 226.04 142.73, 219.77 144.81, 212.50 144.50 C 206.08 143.81, 201.92 146.19, 196.50 145.50 C 187.70 146.65, 179.35 146.48, 171.50 147.50 C 164.98 148.18, 159.47 148.89, 153.50 148.50 C 148.29 148.27, 141.54 148.82, 142.50 154.50 C 143.49 159.60, 140.26 166.48, 145.50 165.50 C 153.36 165.64, 159.39 163.76, 166.50 164.50 C 174.50 163.50, 181.50 163.50, 188.50 163.50 C 196.56 164.12, 202.78 162.70, 209.50 162.50 C 217.50 162.18, 224.13 160.93, 231.50 161.50 C 235.91 161.65, 239.69 160.90, 242.50 162.50 C 251.03 163.04, 257.93 165.07, 265.50 165.50 C 271.11 166.31, 275.68 167.19, 280.50 167.50 C 287.13 165.28, 294.33 166.83, 299.50 163.50 C 296.71 158.50, 294.62 156.28, 298.50 151.50 C 293.28 149.23, 288.79 148.60, 284.50 147.50 C 278.80 146.59, 274.27 145.25, 269.50 144.50 C 261.01 142.61, 252.91 142.18, 244.50 142.50 Z" fill="rgb(143.9495994659546,135.32877169559413,103.28170894526035)" stroke="rgb(143.9495994659546,135.32877169559413,103.28170894526035)" stroke-width="1" />
<path d="M 34.50 470.50 C 3.59 456.40, -16.27 504.51, 12.50 511.50 C 33.82 506.01, 59.78 513.19, 59.50 487.50 C 87.77 486.03, 117.72 512.20, 129.50 504.50 C 118.10 500.45, 115.25 483.73, 102.50 485.50 C 79.08 481.46, 56.25 475.67, 35.50 470.50 Z" fill="rgb(116.89655172413794,115.75862068965517,70.17241379310344)" stroke="rgb(116.89655172413794,115.75862068965517,70.17241379310344)" stroke-width="1" />
<path d="M 241.50 238.50 C 236.67 240.25, 231.85 242.02, 226.50 242.50 C 229.48 249.04, 231.03 255.17, 234.50 260.50 C 236.62 265.98, 238.16 270.70, 239.50 275.50 C 239.94 281.73, 241.87 286.35, 242.50 291.50 C 244.73 296.19, 242.27 301.81, 244.50 305.50 C 245.08 310.73, 243.28 315.95, 245.50 319.50 C 252.95 319.80, 260.46 318.51, 262.50 312.50 C 272.06 313.33, 265.32 303.59, 270.50 302.50 C 271.87 296.96, 277.53 293.62, 276.50 287.50 C 280.97 283.92, 278.44 278.51, 275.50 275.50 C 275.59 271.74, 278.28 268.49, 274.50 266.50 C 275.57 260.99, 285.82 261.46, 282.50 258.50 C 285.39 254.61, 281.55 250.31, 282.50 245.50 C 277.89 244.49, 274.23 242.20, 269.50 242.50 C 264.75 241.30, 260.97 242.04, 258.50 242.50 C 255.50 236.14, 247.75 239.19, 242.50 238.50 Z" fill="rgb(118.05051856808296,135.97591167614587,142.09869521579122)" stroke="rgb(118.05051856808296,135.97591167614587,142.09869521579122)" stroke-width="1" />
<path d="M 33.50 470.50 C 2.67 455.71, -16.34 507.06, 13.50 511.50 C 28.37 513.89, 33.56 501.57, 46.50 507.50 C 57.36 506.96, 57.38 492.50, 59.50 487.50 C 64.49 485.12, 65.51 490.88, 69.50 489.50 C 96.79 487.95, 110.19 506.41, 130.50 508.50 C 119.34 495.96, 108.42 483.56, 89.50 482.50 C 69.49 483.63, 53.54 471.45, 34.50 470.50 Z" fill="rgb(86.61855670103093,90.6082474226804,54.865979381443296)" stroke="rgb(86.61855670103093,90.6082474226804,54.865979381443296)" stroke-width="1" />
<path d="M 94.50 0.50 C 95.65 4.10, 98.45 7.02, 97.50 11.50 C 98.00 16.26, 98.05 20.81, 101.50 22.50 C 104.10 26.78, 102.60 31.76, 106.50 34.50 C 111.65 36.43, 110.72 41.65, 115.50 43.50 C 119.54 46.71, 121.32 50.04, 121.50 54.50 C 124.38 58.80, 124.40 63.29, 127.50 66.50 C 129.96 69.36, 132.48 66.43, 134.50 66.50 C 136.88 60.77, 144.50 63.49, 144.50 57.50 C 140.21 48.80, 150.11 44.38, 148.50 36.50 C 148.95 32.18, 157.21 31.97, 153.50 28.50 C 153.49 21.28, 154.63 17.89, 154.50 11.50 C 152.50 3.50, 161.38 6.59, 158.50 0.50 C 152.83 0.50, 148.17 0.50, 143.50 0.50 C 137.50 0.50, 132.50 0.50, 127.50 0.50 C 121.50 0.50, 116.50 0.50, 111.50 0.50 C 105.50 0.50, 100.50 0.50, 95.50 0.50 Z" fill="rgb(132.4302075876879,162.29706513958482,82.47709377236936)" stroke="rgb(132.4302075876879,162.29706513958482,82.47709377236936)" stroke-width="1" />
<path d="M 213.50 238.50 C 209.15 242.39, 201.19 245.06, 202.50 252.50 C 199.00 255.66, 201.04 260.11, 200.50 263.50 C 201.80 270.45, 196.17 266.50, 192.50 267.50 C 190.95 272.46, 190.79 278.73, 190.50 286.50 C 194.39 293.74, 204.26 290.68, 210.50 293.50 C 217.73 293.46, 215.50 300.92, 219.50 304.50 C 221.22 312.64, 227.81 312.02, 233.50 311.50 C 236.57 309.91, 241.07 311.74, 241.50 309.50 C 242.32 303.47, 241.56 296.97, 240.50 291.50 C 240.64 287.17, 239.89 284.20, 238.50 281.50 C 237.84 272.94, 235.20 266.21, 232.50 259.50 C 229.07 254.34, 227.93 249.65, 225.50 245.50 C 224.85 239.31, 219.36 237.75, 214.50 238.50 Z" fill="rgb(19.01554828150573,20.26595744680851,16.436988543371523)" stroke="rgb(19.01554828150573,20.26595744680851,16.436988543371523)" stroke-width="1" />
<path d="M 22.50 118.50 C -79.29 170.13, 134.15 187.25, 55.50 154.50 C 29.37 165.55, 46.51 136.60, 29.50 130.50 C 13.70 127.60, 35.63 118.79, 23.50 118.50 Z" fill="rgb(121.98936170212765,138.80851063829786,77.18085106382979)" stroke="rgb(121.98936170212765,138.80851063829786,77.18085106382979)" stroke-width="1" />
<path d="M 36.50 470.50 C 29.84 473.59, 21.32 472.19, 13.50 472.50 C 8.48 470.96, 4.51 472.39, 0.50 473.50 C 0.50 480.50, 0.50 486.50, 0.50 492.50 C 0.50 499.50, 0.50 505.50, 0.50 511.50 C 6.50 511.50, 11.50 511.50, 16.50 511.50 C 23.12 511.59, 28.84 512.74, 30.50 506.50 C 37.67 506.23, 45.29 507.65, 50.50 507.50 C 51.96 502.57, 58.13 501.48, 56.50 495.50 C 61.87 494.17, 57.42 490.47, 57.50 488.50 C 58.80 484.35, 62.46 482.17, 62.50 478.50 C 58.24 475.05, 51.75 478.74, 50.50 473.50 C 45.45 471.95, 42.13 469.66, 37.50 470.50 Z" fill="rgb(59.76771833561957,85.97713763145862,27.06355738454504)" stroke="rgb(59.76771833561957,85.97713763145862,27.06355738454504)" stroke-width="1" />
<path d="M 35.50 381.50 C 24.83 382.50, 14.88 388.35, 1.50 387.50 C 0.50 398.50, 0.50 409.50, 0.50 420.50 C 11.24 424.64, 32.95 438.36, 48.50 430.50 C 66.08 419.92, 35.31 403.70, 33.50 394.50 C 37.13 391.73, 41.37 381.69, 36.50 381.50 Z" fill="rgb(99.28985507246377,100.28985507246377,71.40579710144928)" stroke="rgb(99.28985507246377,100.28985507246377,71.40579710144928)" stroke-width="1" />
<path d="M 137.50 70.50 C 134.92 72.66, 130.75 70.96, 127.50 71.50 C 120.28 75.48, 109.41 71.19, 105.50 78.50 C 108.38 84.81, 106.14 87.84, 108.50 92.50 C 112.50 94.12, 124.67 95.44, 118.50 101.50 C 113.50 103.22, 112.84 105.39, 112.50 109.50 C 111.30 115.05, 112.93 120.80, 113.50 125.50 C 112.78 130.73, 117.03 126.06, 119.50 127.50 C 127.19 128.02, 132.71 125.73, 139.50 126.50 C 142.89 125.44, 147.50 126.45, 146.50 122.50 C 146.50 115.17, 146.50 108.83, 146.50 102.50 C 146.50 93.50, 146.50 85.50, 146.50 77.50 C 147.79 71.17, 141.47 71.91, 138.50 70.50 Z" fill="rgb(159.40180813661476,157.9412355600201,141.9412355600201)" stroke="rgb(159.40180813661476,157.9412355600201,141.9412355600201)" stroke-width="1" />
<path d="M 189.50 202.50 C 191.72 212.96, 183.49 233.30, 197.50 233.50 C 206.50 233.50, 214.50 233.50, 222.50 233.50 C 231.21 232.18, 242.70 236.52, 247.50 230.50 C 253.06 219.90, 245.57 209.72, 238.50 203.50 C 221.84 203.15, 206.53 201.95, 190.50 202.50 Z" fill="rgb(6.8283582089552235,7.365671641791045,4.91044776119403)" stroke="rgb(6.8283582089552235,7.365671641791045,4.91044776119403)" stroke-width="1" />
<path d="M 1.50 137.50 C 0.36 148.29, -1.29 164.35, 2.50 173.50 C 8.91 176.06, 12.75 167.60, 16.50 172.50 C 27.90 168.18, 42.12 172.34, 51.50 170.50 C 57.94 172.77, 65.33 168.64, 71.50 171.50 C 89.75 149.13, 19.81 153.89, 2.50 138.50 Z" fill="rgb(135.51968503937007,148.38582677165354,92.88976377952756)" stroke="rgb(135.51968503937007,148.38582677165354,92.88976377952756)" stroke-width="1" />
<path d="M 12.50 322.50 C 7.53 325.02, -0.94 326.63, 0.50 334.50 C -13.42 385.67, 27.53 397.92, 25.50 350.50 C 30.38 343.91, 38.77 345.56, 41.50 339.50 C 39.45 331.50, 31.73 326.33, 24.50 325.50 C 20.42 324.56, 17.74 321.65, 13.50 322.50 Z" fill="rgb(154.8495145631068,170.30339805825244,111.54004854368932)" stroke="rgb(154.8495145631068,170.30339805825244,111.54004854368932)" stroke-width="1" />
<path d="M 148.50 119.50 C 145.97 121.53, 149.29 125.99, 145.50 127.50 C 138.84 127.04, 133.75 127.96, 128.50 128.50 C 124.17 128.03, 121.42 128.97, 118.50 129.50 C 111.66 131.12, 122.48 132.96, 125.50 132.50 C 131.50 133.50, 136.50 133.50, 141.50 133.50 C 145.30 137.93, 140.03 147.60, 146.50 147.50 C 166.23 148.25, 183.08 144.48, 201.50 144.50 C 209.56 144.12, 215.39 141.76, 222.50 142.50 C 219.57 139.34, 212.17 140.47, 213.50 133.50 C 205.78 130.50, 198.78 129.16, 191.50 128.50 C 187.04 128.27, 184.74 126.25, 181.50 126.50 C 176.64 124.35, 171.55 125.19, 167.50 123.50 C 160.64 122.64, 155.77 119.37, 149.50 119.50 Z" fill="rgb(216.98039215686273,204.9953314659197,185.55835667600374)" stroke="rgb(216.98039215686273,204.9953314659197,185.55835667600374)" stroke-width="1" />
<path d="M 0.50 0.50 C 0.50 5.50, 0.50 10.50, 0.50 15.50 C 0.50 21.50, 0.50 26.50, 0.50 31.50 C -1.02 41.30, 5.31 36.71, 9.50 34.50 C 13.07 35.00, 15.09 41.79, 18.50 38.50 C 23.63 39.67, 26.14 36.35, 25.50 32.50 C 23.55 27.44, 27.75 24.51, 31.50 25.50 C 34.91 23.60, 42.12 19.07, 40.50 24.50 C 40.76 30.26, 46.35 29.63, 49.50 29.50 C 53.77 32.06, 59.75 32.06, 58.50 26.50 C 53.51 21.91, 53.26 16.77, 48.50 13.50 C 45.77 8.39, 39.99 5.95, 41.50 0.50 C 34.17 0.50, 27.83 0.50, 21.50 0.50 C 14.17 0.50, 7.83 0.50, 1.50 0.50 Z" fill="rgb(102.81807081807082,129.7002442002442,52.91208791208791)" stroke="rgb(102.81807081807082,129.7002442002442,52.91208791208791)" stroke-width="1" />
<path d="M 95.50 293.50 C 92.59 294.58, 89.78 296.38, 88.50 299.50 C 83.11 307.43, 83.42 316.72, 82.50 325.50 C 101.10 329.35, 119.18 324.66, 136.50 323.50 C 146.83 295.83, 111.73 307.22, 96.50 293.50 Z" fill="rgb(76.22222222222223,80.47222222222223,52.02777777777778)" stroke="rgb(76.22222222222223,80.47222222222223,52.02777777777778)" stroke-width="1" />
<path d="M 157.50 289.50 C 149.81 300.88, 131.67 325.09, 158.50 320.50 C 173.01 318.85, 185.58 320.86, 198.50 317.50 C 201.02 311.10, 201.14 304.68, 196.50 299.50 C 193.69 293.20, 187.06 292.38, 181.50 291.50 C 172.94 294.58, 165.99 289.70, 158.50 289.50 Z" fill="rgb(40.865979381443296,43.7319587628866,35.329896907216494)" stroke="rgb(40.865979381443296,43.7319587628866,35.329896907216494)" stroke-width="1" />
<path d="M 95.50 99.50 C 90.36 99.87, 90.58 106.93, 92.50 110.50 C 92.50 115.83, 92.50 120.17, 92.50 124.50 C 93.04 133.08, 93.96 140.50, 93.50 148.50 C 93.50 157.17, 93.50 164.83, 93.50 172.50 C 99.89 173.52, 110.39 180.54, 111.50 172.50 C 111.50 166.17, 111.50 160.83, 111.50 155.50 C 111.50 148.83, 111.50 143.17, 111.50 137.50 C 111.50 129.17, 111.50 121.83, 111.50 114.50 C 112.11 109.44, 110.73 106.21, 110.50 102.50 C 104.66 102.06, 101.34 98.94, 96.50 99.50 Z" fill="rgb(92.5225102319236,70.0968622100955,60.21009549795362)" stroke="rgb(92.5225102319236,70.0968622100955,60.21009549795362)" stroke-width="1" />
<path d="M 85.50 81.50 C 80.86 85.51, 79.63 90.65, 80.50 97.50 C 77.26 103.24, 82.27 111.40, 77.50 115.50 C 70.96 118.25, 73.12 126.58, 70.50 131.50 C 66.30 137.62, 69.70 144.53, 69.50 150.50 C 69.39 155.41, 75.37 152.69, 78.50 153.50 C 83.26 157.22, 80.80 162.51, 81.50 166.50 C 83.02 170.67, 87.57 169.70, 90.50 171.50 C 91.50 167.50, 91.50 163.50, 91.50 159.50 C 91.50 154.50, 91.50 150.50, 91.50 146.50 C 90.44 140.47, 90.32 135.04, 90.50 129.50 C 90.50 122.83, 90.50 117.17, 90.50 111.50 C 88.79 106.13, 89.77 100.64, 87.50 96.50 C 92.14 93.42, 92.16 80.52, 86.50 81.50 Z" fill="rgb(188.73421439060206,184.80763582966227,159.34434654919235)" stroke="rgb(188.73421439060206,184.80763582966227,159.34434654919235)" stroke-width="1" />
<path d="M 218.50 162.50 C 209.58 167.41, 178.66 158.84, 186.50 172.50 C 210.33 174.44, 242.38 179.03, 269.50 182.50 C 279.34 188.18, 279.29 172.67, 275.50 168.50 C 256.24 166.33, 239.34 160.85, 219.50 162.50 Z" fill="rgb(74.21052631578948,64.21052631578948,47.05263157894737)" stroke="rgb(74.21052631578948,64.21052631578948,47.05263157894737)" stroke-width="1" />
<path d="M 219.50 162.50 C 217.24 164.63, 213.42 162.98, 210.50 163.50 C 202.50 164.50, 195.50 164.50, 188.50 164.50 C 181.50 164.19, 185.14 174.15, 188.50 174.50 C 194.17 174.50, 198.83 174.50, 203.50 174.50 C 216.92 175.61, 228.92 177.76, 241.50 178.50 C 247.62 178.74, 251.59 180.76, 256.50 180.50 C 262.83 181.04, 267.04 183.28, 272.50 182.50 C 281.19 182.84, 275.68 174.56, 276.50 169.50 C 270.11 168.78, 265.67 166.75, 260.50 166.50 C 253.11 165.63, 247.38 163.18, 240.50 163.50 C 233.89 161.43, 226.77 162.98, 220.50 162.50 Z" fill="rgb(55.427102803738315,46.70654205607477,28.81121495327103)" stroke="rgb(55.427102803738315,46.70654205607477,28.81121495327103)" stroke-width="1" />
<path d="M 23.50 382.50 C 13.30 389.21, -4.44 386.64, 0.50 405.50 C -9.01 425.95, 23.31 436.30, 23.50 418.50 C 27.31 404.93, 51.97 377.86, 24.50 382.50 Z" fill="rgb(115.52272727272727,137.4090909090909,80.18181818181819)" stroke="rgb(115.52272727272727,137.4090909090909,80.18181818181819)" stroke-width="1" />
<path d="M 1.50 343.50 C -29.54 397.67, 67.13 386.89, 26.50 364.50 C 31.35 357.33, 27.85 353.10, 23.50 347.50 C 16.49 345.46, 7.85 350.25, 2.50 344.50 Z" fill="rgb(109.5909090909091,114.4090909090909,85.45454545454545)" stroke="rgb(109.5909090909091,114.4090909090909,85.45454545454545)" stroke-width="1" />
<path d="M 36.50 381.50 C 31.64 384.78, 23.15 379.31, 19.50 385.50 C 12.72 387.23, 6.74 388.48, 1.50 391.50 C 0.50 398.50, 0.50 404.50, 0.50 410.50 C -2.41 424.26, 5.89 426.77, 15.50 422.50 C 21.12 422.98, 17.36 429.41, 22.50 425.50 C 22.84 419.34, 24.30 415.06, 27.50 411.50 C 30.42 408.35, 28.36 404.55, 30.50 402.50 C 32.74 396.66, 37.86 393.01, 38.50 387.50 C 39.01 385.02, 41.18 380.55, 37.50 381.50 Z" fill="rgb(144.02195945945945,157.40118243243242,106.30067567567568)" stroke="rgb(144.02195945945945,157.40118243243242,106.30067567567568)" stroke-width="1" />
<path d="M 27.50 443.50 C 24.39 444.90, 20.94 445.49, 18.50 448.50 C 9.91 452.49, 4.72 461.50, 8.50 469.50 C 13.04 472.08, 18.92 469.02, 22.50 471.50 C 28.64 472.44, 32.22 469.63, 36.50 468.50 C 46.38 465.90, 50.85 477.28, 58.50 474.50 C 63.71 479.14, 64.25 471.92, 64.50 468.50 C 64.16 463.12, 55.47 462.61, 56.50 456.50 C 51.59 451.93, 40.88 441.07, 43.50 453.50 C 34.42 458.48, 34.41 442.82, 28.50 443.50 Z" fill="rgb(176.40171673819742,169.62575107296138,139.2420600858369)" stroke="rgb(176.40171673819742,169.62575107296138,139.2420600858369)" stroke-width="1" />
<path d="M 62.50 491.50 C 59.52 498.39, 56.29 503.29, 51.50 509.50 C 47.09 512.35, 43.85 506.72, 39.50 508.50 C 36.38 506.33, 25.52 509.15, 31.50 511.50 C 36.50 511.50, 40.50 511.50, 44.50 511.50 C 49.83 511.50, 54.17 511.50, 58.50 511.50 C 64.17 511.50, 68.83 511.50, 73.50 511.50 C 79.17 511.50, 83.83 511.50, 88.50 511.50 C 94.17 511.50, 98.83 511.50, 103.50 511.50 C 109.50 511.50, 114.50 511.50, 119.50 511.50 C 116.93 508.56, 114.33 502.67, 109.50 505.50 C 106.11 500.38, 105.29 493.94, 98.50 495.50 C 93.21 502.44, 87.67 488.01, 81.50 493.50 C 74.94 492.57, 69.64 491.02, 63.50 491.50 Z" fill="rgb(155.2540250447227,142.49552772808588,95.13864042933811)" stroke="rgb(155.2540250447227,142.49552772808588,95.13864042933811)" stroke-width="1" />
<path d="M 151.50 287.50 C 146.37 293.14, 146.09 300.02, 148.50 306.50 C 147.19 311.53, 141.28 303.99, 143.50 307.50 C 139.92 311.04, 143.82 314.12, 142.50 317.50 C 145.39 322.94, 155.33 319.33, 160.50 320.50 C 168.91 320.61, 180.21 322.08, 177.50 311.50 C 175.87 303.77, 175.94 293.97, 168.50 291.50 C 162.74 289.60, 158.53 286.34, 152.50 287.50 Z" fill="rgb(130.87860082304528,126.52160493827161,105.21090534979425)" stroke="rgb(130.87860082304528,126.52160493827161,105.21090534979425)" stroke-width="1" />
<path d="M 169.50 201.50 C 166.27 203.70, 161.40 201.93, 157.50 202.50 C 151.82 202.19, 147.30 202.27, 144.50 206.50 C 142.31 210.74, 147.48 212.35, 146.50 216.50 C 147.38 222.68, 154.29 220.20, 154.50 225.50 C 160.19 226.30, 164.61 226.76, 168.50 228.50 C 174.54 228.14, 177.25 233.39, 182.50 232.50 C 182.50 226.83, 182.50 222.17, 182.50 217.50 C 182.48 211.70, 182.89 206.73, 181.50 202.50 C 177.17 201.50, 173.83 201.50, 170.50 201.50 Z" fill="rgb(66.10113519091847,72.78018575851394,34.42002063983488)" stroke="rgb(66.10113519091847,72.78018575851394,34.42002063983488)" stroke-width="1" />
<path d="M 0.50 137.50 C 0.50 142.83, 0.50 148.17, 0.50 153.50 C 0.50 160.17, 0.50 165.83, 0.50 171.50 C 7.30 173.88, 12.29 166.53, 16.50 171.50 C 22.53 168.86, 30.72 168.61, 32.50 162.50 C 33.27 157.65, 33.27 155.35, 32.50 151.50 C 28.45 145.92, 21.36 144.51, 17.50 138.50 C 12.00 141.94, 6.30 140.09, 1.50 137.50 Z" fill="rgb(110.39691289966925,122.53142227122382,70.33186328555678)" stroke="rgb(110.39691289966925,122.53142227122382,70.33186328555678)" stroke-width="1" />
<path d="M 1.50 343.50 C -0.70 346.73, 1.07 351.60, 0.50 355.50 C 0.50 360.50, 0.50 364.50, 0.50 368.50 C 0.50 373.83, 0.50 378.17, 0.50 382.50 C 6.33 385.83, 13.98 384.20, 19.50 382.50 C 16.24 377.34, 17.83 371.51, 20.50 367.50 C 27.29 366.15, 31.66 355.65, 25.50 352.50 C 25.66 347.08, 20.71 346.56, 17.50 346.50 C 11.99 349.01, 5.68 347.45, 2.50 343.50 Z" fill="rgb(115.03243847874721,127.2337807606264,83.06711409395973)" stroke="rgb(115.03243847874721,127.2337807606264,83.06711409395973)" stroke-width="1" />
<path d="M 95.50 293.50 C 89.32 294.70, 89.58 301.70, 85.50 305.50 C 83.76 311.05, 84.90 316.80, 83.50 321.50 C 82.22 331.12, 93.94 326.22, 99.50 327.50 C 102.17 326.52, 110.36 327.61, 107.50 323.50 C 108.71 318.45, 111.80 315.18, 111.50 310.50 C 114.50 305.81, 110.42 301.76, 111.50 297.50 C 107.50 291.48, 101.31 294.16, 96.50 293.50 Z" fill="rgb(144.7705802968961,141.23346828609988,119.96356275303644)" stroke="rgb(144.7705802968961,141.23346828609988,119.96356275303644)" stroke-width="1" />
<path d="M 63.50 478.50 C 59.54 483.36, 67.31 485.07, 67.50 489.50 C 71.29 488.39, 73.29 493.47, 75.50 490.50 C 80.99 494.76, 85.43 488.52, 90.50 492.50 C 93.11 493.85, 92.07 497.60, 95.50 496.50 C 101.96 490.26, 108.75 497.94, 109.50 503.50 C 115.42 496.49, 122.29 518.39, 125.50 508.50 C 128.51 506.93, 132.19 510.69, 131.50 506.50 C 125.62 503.52, 123.67 498.71, 118.50 497.50 C 112.71 491.55, 112.33 483.66, 103.50 485.50 C 94.54 486.85, 89.71 479.11, 82.50 481.50 C 76.31 480.01, 70.88 478.10, 64.50 478.50 Z" fill="rgb(47.77075098814229,75.59947299077734,21.243741765480895)" stroke="rgb(47.77075098814229,75.59947299077734,21.243741765480895)" stroke-width="1" />
<path d="M 34.50 397.50 C 32.24 401.25, 31.58 405.67, 29.50 409.50 C 25.79 413.85, 25.04 418.43, 25.50 423.50 C 24.12 430.24, 29.40 432.55, 34.50 432.50 C 41.07 433.54, 46.38 432.96, 50.50 429.50 C 53.65 426.95, 57.90 427.88, 56.50 423.50 C 49.17 414.35, 44.16 405.30, 35.50 398.50 Z" fill="rgb(182.47633136094674,177.9171597633136,149.8949704142012)" stroke="rgb(182.47633136094674,177.9171597633136,149.8949704142012)" stroke-width="1" />
<path d="M 49.50 154.50 C 44.89 158.09, 33.50 153.10, 35.50 162.50 C 32.52 170.44, 45.44 173.55, 49.50 169.50 C 56.41 173.93, 63.61 168.02, 69.50 171.50 C 97.43 158.69, 64.00 154.79, 50.50 154.50 Z" fill="rgb(121.24413145539906,137.7300469483568,78.74647887323944)" stroke="rgb(121.24413145539906,137.7300469483568,78.74647887323944)" stroke-width="1" />
<path d="M 215.50 203.50 C 212.13 206.93, 211.67 211.57, 209.50 215.50 C 207.50 220.36, 206.21 224.52, 204.50 228.50 C 211.56 230.03, 216.97 232.12, 223.50 231.50 C 227.95 228.10, 227.37 223.03, 230.50 219.50 C 232.10 214.14, 234.18 209.98, 235.50 205.50 C 229.02 203.57, 222.89 203.23, 216.50 203.50 Z" fill="rgb(10.496845425867507,11.49211356466877,5.416403785488959)" stroke="rgb(10.496845425867507,11.49211356466877,5.416403785488959)" stroke-width="1" />
<path d="M 148.50 92.50 C 144.34 105.88, 149.00 116.49, 163.50 115.50 C 166.48 116.82, 165.08 119.53, 165.50 121.50 C 173.52 123.27, 180.51 125.08, 188.50 124.50 C 187.17 118.76, 184.63 115.57, 180.50 112.50 C 177.33 110.36, 174.23 115.98, 172.50 111.50 C 173.22 96.36, 154.48 102.21, 149.50 92.50 Z" fill="rgb(186.8326848249027,209.28793774319067,126.29961089494164)" stroke="rgb(186.8326848249027,209.28793774319067,126.29961089494164)" stroke-width="1" />
<path d="M 21.50 119.50 C 15.65 122.81, 5.75 120.09, 0.50 122.50 C 0.50 126.83, 0.50 130.17, 0.50 133.50 C 1.98 137.25, 10.23 138.60, 11.50 138.50 C 16.00 129.58, 18.99 142.02, 23.50 142.50 C 27.26 142.12, 29.04 150.44, 30.50 143.50 C 37.12 136.65, 35.25 148.13, 35.50 151.50 C 41.14 146.55, 37.85 140.59, 35.50 134.50 C 30.70 133.29, 28.42 129.42, 24.50 129.50 C 18.84 127.96, 18.18 125.85, 21.50 123.50 C 26.81 120.44, 31.28 119.19, 22.50 119.50 Z" fill="rgb(39.689320388349515,72.89805825242719,10.462783171521036)" stroke="rgb(39.689320388349515,72.89805825242719,10.462783171521036)" stroke-width="1" />
<path d="M 131.50 300.50 C 127.64 305.91, 124.21 306.12, 118.50 306.50 C 111.39 304.36, 114.13 312.51, 111.50 315.50 C 109.17 319.19, 106.87 326.38, 112.50 325.50 C 118.39 324.90, 124.29 326.74, 128.50 324.50 C 134.03 324.15, 142.14 324.66, 141.50 318.50 C 139.91 311.15, 135.51 304.86, 132.50 300.50 Z" fill="rgb(148.2967213114754,148.2,120.45737704918032)" stroke="rgb(148.2967213114754,148.2,120.45737704918032)" stroke-width="1" />
<path d="M 36.50 133.50 C 37.24 137.08, 39.35 140.09, 40.50 143.50 C 41.09 148.35, 37.91 150.65, 38.50 154.50 C 43.70 155.66, 47.05 153.76, 51.50 154.50 C 56.47 156.37, 61.02 156.86, 65.50 157.50 C 69.17 150.66, 65.77 145.42, 66.50 138.50 C 61.55 137.53, 56.38 138.07, 52.50 135.50 C 46.24 136.28, 42.64 133.03, 37.50 133.50 Z" fill="rgb(217.12458471760797,219.19435215946845,177.5033222591362)" stroke="rgb(217.12458471760797,219.19435215946845,177.5033222591362)" stroke-width="1" />
<path d="M 155.50 134.50 C 151.72 137.42, 139.53 132.28, 143.50 140.50 C 140.61 152.51, 150.79 146.10, 157.50 147.50 C 165.62 147.13, 172.38 145.87, 179.50 145.50 C 187.50 145.18, 194.13 143.93, 201.50 144.50 C 215.76 143.80, 201.66 139.80, 195.50 140.50 C 189.72 140.90, 185.90 139.01, 181.50 138.50 C 176.21 136.92, 171.61 136.09, 166.50 136.50 C 162.17 136.67, 159.20 132.59, 156.50 135.50 Z" fill="rgb(59.469115191986646,41.21702838063439,23.42237061769616)" stroke="rgb(59.469115191986646,41.21702838063439,23.42237061769616)" stroke-width="1" />
<path d="M 64.50 456.50 C 56.54 462.17, 67.94 463.66, 65.50 471.50 C 63.21 480.96, 74.97 476.35, 79.50 479.50 C 86.35 479.88, 90.31 475.72, 95.50 474.50 C 101.14 472.06, 95.63 470.12, 95.50 467.50 C 89.13 466.88, 81.99 463.77, 80.50 458.50 C 74.38 458.26, 70.41 456.24, 65.50 456.50 Z" fill="rgb(47.76858108108108,40.898648648648646,21.39527027027027)" stroke="rgb(47.76858108108108,40.898648648648646,21.39527027027027)" stroke-width="1" />
<path d="M 190.50 202.50 C 188.27 206.38, 190.09 211.94, 189.50 216.50 C 188.96 222.86, 190.11 227.52, 190.50 232.50 C 195.47 232.58, 199.60 233.03, 202.50 230.50 C 206.24 221.67, 208.76 213.33, 212.50 205.50 C 206.87 200.52, 198.42 203.35, 191.50 202.50 Z" fill="rgb(11.71951219512195,12.810104529616725,6.620209059233449)" stroke="rgb(11.71951219512195,12.810104529616725,6.620209059233449)" stroke-width="1" />
<path d="M 92.50 404.50 C 90.18 406.35, 86.70 405.38, 84.50 407.50 C 77.18 412.21, 71.04 417.34, 64.50 421.50 C 63.22 427.03, 74.30 423.46, 77.50 422.50 C 85.22 423.25, 90.19 419.75, 96.50 419.50 C 99.91 416.58, 102.58 420.41, 105.50 419.50 C 118.38 421.91, 109.86 412.29, 104.50 409.50 C 99.45 408.89, 97.86 403.37, 93.50 404.50 Z" fill="rgb(140.41711229946523,142.96613190730838,141.53654188948306)" stroke="rgb(140.41711229946523,142.96613190730838,141.53654188948306)" stroke-width="1" />
<path d="M 2.50 425.50 C -5.70 448.19, 38.14 435.66, 39.50 453.50 C 56.17 434.59, 17.95 432.86, 3.50 425.50 Z" fill="rgb(121.4186046511628,122.13953488372093,86.23255813953489)" stroke="rgb(121.4186046511628,122.13953488372093,86.23255813953489)" stroke-width="1" />
<path d="M 173.50 292.50 C 173.42 295.00, 175.23 296.73, 174.50 299.50 C 177.32 305.49, 178.40 310.79, 178.50 316.50 C 178.11 321.55, 184.73 318.60, 187.50 319.50 C 192.45 319.18, 196.17 318.31, 199.50 316.50 C 201.52 309.56, 193.47 311.14, 194.50 305.50 C 193.95 302.10, 190.72 299.55, 193.50 297.50 C 190.43 289.99, 180.90 293.29, 174.50 292.50 Z" fill="rgb(84.6173752310536,87.99260628465804,85.35304990757855)" stroke="rgb(84.6173752310536,87.99260628465804,85.35304990757855)" stroke-width="1" />
<path d="M 2.50 425.50 C -1.11 426.63, 1.10 431.31, 0.50 434.50 C 5.23 438.48, 11.64 437.40, 15.50 442.50 C 19.51 443.98, 20.69 439.85, 23.50 442.50 C 28.17 443.03, 32.10 439.45, 33.50 443.50 C 32.29 449.87, 38.19 451.58, 39.50 453.50 C 46.34 451.30, 36.28 444.96, 44.50 444.50 C 44.29 441.00, 39.03 438.33, 36.50 435.50 C 30.85 434.60, 27.42 431.75, 22.50 432.50 C 14.92 431.58, 10.75 424.82, 3.50 425.50 Z" fill="rgb(54.47222222222222,83.62037037037037,25.011111111111113)" stroke="rgb(54.47222222222222,83.62037037037037,25.011111111111113)" stroke-width="1" />
<path d="M 170.50 361.50 C 168.24 363.63, 164.42 361.98, 161.50 362.50 C 155.31 362.69, 162.45 368.08, 160.50 371.50 C 159.12 377.87, 161.43 384.24, 162.50 389.50 C 167.79 388.54, 171.02 381.58, 177.50 382.50 C 178.41 375.77, 171.83 365.58, 182.50 367.50 C 185.44 367.18, 189.45 370.88, 189.50 369.50 C 188.57 360.06, 178.59 361.43, 171.50 361.50 Z" fill="rgb(38.37403100775194,49.91279069767442,52.52713178294574)" stroke="rgb(38.37403100775194,49.91279069767442,52.52713178294574)" stroke-width="1" />
<path d="M 162.50 165.50 C 86.15 178.72, 208.48 182.17, 162.50 165.50 Z" fill="rgb(55.666666666666664,42.333333333333336,19.666666666666668)" stroke="rgb(55.666666666666664,42.333333333333336,19.666666666666668)" stroke-width="1" />
<path d="M 34.50 354.50 C 31.45 362.77, 6.04 379.45, 29.50 381.50 C 44.94 385.59, 48.76 351.73, 35.50 354.50 Z" fill="rgb(99.6969696969697,102.06060606060606,85.06060606060606)" stroke="rgb(99.6969696969697,102.06060606060606,85.06060606060606)" stroke-width="1" />
<path d="M 162.50 165.50 C 156.13 167.70, 148.81 167.59, 141.50 167.50 C 132.63 166.12, 135.67 175.84, 137.50 179.50 C 139.08 182.66, 143.25 180.96, 146.50 181.50 C 146.76 175.74, 152.35 176.37, 155.50 176.50 C 163.48 176.59, 169.98 175.52, 176.50 174.50 C 175.81 170.31, 179.45 165.31, 174.50 165.50 C 170.17 165.50, 166.83 165.50, 163.50 165.50 Z" fill="rgb(45.701219512195124,35.90650406504065,22.04471544715447)" stroke="rgb(45.701219512195124,35.90650406504065,22.04471544715447)" stroke-width="1" />
<path d="M 237.50 205.50 C 235.15 209.22, 233.44 213.20, 232.50 217.50 C 229.79 222.48, 228.50 226.64, 226.50 230.50 C 229.22 234.46, 233.65 233.28, 237.50 233.50 C 245.59 235.21, 249.41 229.76, 249.50 223.50 C 248.14 216.46, 245.80 207.56, 238.50 205.50 Z" fill="rgb(11.25206611570248,9.946280991735538,4.235537190082645)" stroke="rgb(11.25206611570248,9.946280991735538,4.235537190082645)" stroke-width="1" />
<path d="M 205.50 348.50 C 200.58 353.45, 213.39 357.84, 208.50 361.50 C 208.22 366.36, 212.36 368.40, 211.50 372.50 C 215.52 376.74, 215.51 381.25, 218.50 384.50 C 226.36 382.97, 223.19 374.88, 225.50 370.50 C 227.12 364.85, 227.51 357.23, 221.50 355.50 C 215.84 353.81, 211.76 349.72, 206.50 348.50 Z" fill="rgb(98.75991649269311,114.59707724425887,69.91231732776617)" stroke="rgb(98.75991649269311,114.59707724425887,69.91231732776617)" stroke-width="1" />
<path d="M 178.50 253.50 C 175.60 260.22, 179.51 267.22, 178.50 274.50 C 176.79 300.85, 186.00 269.55, 184.50 287.50 C 193.90 295.05, 189.37 279.59, 190.50 274.50 C 190.70 263.68, 193.17 250.66, 179.50 253.50 Z" fill="rgb(64.41095890410959,64.20547945205479,58.95205479452055)" stroke="rgb(64.41095890410959,64.20547945205479,58.95205479452055)" stroke-width="1" />
<path d="M 172.50 262.50 C 169.72 265.07, 161.86 261.43, 165.50 266.50 C 165.44 274.96, 153.52 268.63, 159.50 277.50 C 158.87 283.03, 163.50 284.67, 166.50 288.50 C 170.93 289.19, 173.07 286.81, 176.50 287.50 C 177.50 282.50, 177.50 278.50, 177.50 274.50 C 177.52 268.99, 178.21 263.42, 173.50 262.50 Z" fill="rgb(23.241626794258373,27.227272727272727,16.4377990430622)" stroke="rgb(23.241626794258373,27.227272727272727,16.4377990430622)" stroke-width="1" />
<path d="M 43.50 404.50 C 51.91 409.76, 57.74 434.35, 65.50 419.50 C 96.96 403.45, 60.17 406.38, 44.50 404.50 Z" fill="rgb(213.77777777777777,216.7037037037037,214.5185185185185)" stroke="rgb(213.77777777777777,216.7037037037037,214.5185185185185)" stroke-width="1" />
<path d="M 44.50 404.50 C 47.46 411.87, 56.02 416.93, 58.50 424.50 C 63.64 426.27, 62.42 420.92, 65.50 418.50 C 71.75 416.59, 75.34 410.64, 80.50 408.50 C 80.44 405.23, 75.21 407.12, 72.50 406.50 C 67.13 407.07, 63.95 404.74, 59.50 405.50 C 53.71 406.28, 50.14 404.08, 45.50 404.50 Z" fill="rgb(249.01707317073172,249.65365853658537,249.5390243902439)" stroke="rgb(249.01707317073172,249.65365853658537,249.5390243902439)" stroke-width="1" />
<path d="M 148.50 93.50 C 148.27 97.21, 146.89 100.44, 147.50 104.50 C 146.63 110.27, 148.64 113.86, 153.50 113.50 C 158.42 113.24, 164.21 118.28, 166.50 113.50 C 171.73 120.34, 171.48 107.37, 170.50 104.50 C 163.41 99.11, 155.11 100.04, 149.50 94.50 Z" fill="rgb(210.77545691906005,225.35770234986944,158.40208877284596)" stroke="rgb(210.77545691906005,225.35770234986944,158.40208877284596)" stroke-width="1" />
<path d="M 107.50 408.50 C 106.68 411.65, 113.97 414.08, 114.50 418.50 C 121.67 420.38, 119.78 435.97, 126.50 429.50 C 148.12 426.52, 123.74 423.82, 127.50 411.50 C 122.63 406.31, 114.70 409.49, 108.50 408.50 Z" fill="rgb(123.19047619047619,146.33333333333334,119.57142857142857)" stroke="rgb(123.19047619047619,146.33333333333334,119.57142857142857)" stroke-width="1" />
<path d="M 106.50 408.50 C 107.49 411.98, 112.51 412.67, 113.50 416.50 C 118.39 420.84, 120.90 425.17, 122.50 430.50 C 126.91 427.45, 134.13 429.74, 136.50 426.50 C 134.63 418.45, 128.97 428.69, 128.50 420.50 C 128.87 416.93, 128.07 407.64, 122.50 408.50 C 116.83 408.50, 112.17 408.50, 107.50 408.50 Z" fill="rgb(202.39660056657223,215.22946175637395,217.74220963172806)" stroke="rgb(202.39660056657223,215.22946175637395,217.74220963172806)" stroke-width="1" />
<path d="M 120.50 453.50 C 115.84 459.26, 114.15 468.26, 105.50 470.50 C 99.60 473.42, 94.82 476.60, 89.50 478.50 C 89.65 483.57, 101.21 485.76, 107.50 483.50 C 116.23 477.21, 116.23 462.75, 121.50 453.50 Z" fill="rgb(4.297959183673469,5.591836734693878,3.0081632653061225)" stroke="rgb(4.297959183673469,5.591836734693878,3.0081632653061225)" stroke-width="1" />
<path d="M 195.50 362.50 C 193.88 364.39, 189.59 363.26, 189.50 366.50 C 191.76 371.84, 194.03 376.73, 199.50 377.50 C 204.25 379.76, 213.00 387.79, 214.50 380.50 C 214.40 376.10, 208.38 377.40, 208.50 373.50 C 208.89 365.82, 204.11 360.48, 196.50 362.50 Z" fill="rgb(98.42136498516321,119.13946587537092,126.10385756676558)" stroke="rgb(98.42136498516321,119.13946587537092,126.10385756676558)" stroke-width="1" />
<path d="M 109.50 287.50 C 105.91 293.54, 115.24 297.82, 113.50 304.50 C 120.95 306.39, 126.92 305.99, 130.50 299.50 C 133.59 295.94, 127.99 293.78, 126.50 292.50 C 121.20 288.47, 116.18 287.19, 110.50 287.50 Z" fill="rgb(168.55974842767296,177.77358490566039,105.77358490566037)" stroke="rgb(168.55974842767296,177.77358490566039,105.77358490566037)" stroke-width="1" />
<path d="M 22.50 367.50 C 20.39 370.65, 17.97 373.67, 17.50 377.50 C 22.19 381.70, 28.90 382.75, 33.50 380.50 C 35.75 378.08, 40.02 379.45, 40.50 377.50 C 41.86 366.86, 30.65 367.16, 23.50 367.50 Z" fill="rgb(112.53125,115.14930555555556,100.29861111111111)" stroke="rgb(112.53125,115.14930555555556,100.29861111111111)" stroke-width="1" />
<path d="M 122.50 449.50 C 121.65 453.56, 118.62 456.72, 119.50 461.50 C 117.42 466.33, 116.76 470.75, 114.50 474.50 C 113.19 480.83, 121.88 478.26, 124.50 477.50 C 121.27 475.88, 121.02 474.27, 125.50 471.50 C 126.29 467.27, 129.16 464.91, 129.50 461.50 C 133.83 454.62, 125.39 453.92, 123.50 449.50 Z" fill="rgb(49.610344827586204,47.755172413793105,31.23793103448276)" stroke="rgb(49.610344827586204,47.755172413793105,31.23793103448276)" stroke-width="1" />
<path d="M 70.50 154.50 C 69.36 159.31, 59.43 157.43, 62.50 162.50 C 62.81 167.96, 66.75 171.42, 71.50 170.50 C 76.06 173.59, 82.12 169.18, 80.50 164.50 C 82.02 156.96, 78.04 152.98, 71.50 154.50 Z" fill="rgb(150.30714285714285,162.70714285714286,98.93928571428572)" stroke="rgb(150.30714285714285,162.70714285714286,98.93928571428572)" stroke-width="1" />
<path d="M 226.50 501.50 C 222.61 503.42, 219.23 506.59, 214.50 506.50 C 209.53 506.01, 202.31 510.04, 202.50 511.50 C 216.44 513.30, 256.67 511.56, 227.50 501.50 Z" fill="rgb(28.496402877697843,57.45323741007194,15.266187050359711)" stroke="rgb(28.496402877697843,57.45323741007194,15.266187050359711)" stroke-width="1" />
<path d="M 142.50 182.50 C 139.17 185.08, 130.33 180.87, 132.50 188.50 C 132.50 192.97, 134.20 195.74, 133.50 199.50 C 136.11 203.61, 140.19 197.21, 142.50 195.50 C 143.01 199.88, 150.62 201.38, 150.50 200.50 C 144.85 195.18, 151.71 181.68, 143.50 182.50 Z" fill="rgb(174.01465201465203,161.73626373626374,112.23076923076923)" stroke="rgb(174.01465201465203,161.73626373626374,112.23076923076923)" stroke-width="1" />
<path d="M 301.50 488.50 C 297.39 493.02, 299.42 500.08, 297.50 505.50 C 297.12 512.17, 303.59 508.50, 305.50 506.50 C 310.29 506.53, 312.54 501.05, 308.50 498.50 C 316.03 493.73, 309.67 486.32, 302.50 488.50 Z" fill="rgb(45.54474708171206,73.72762645914396,25.373540856031127)" stroke="rgb(45.54474708171206,73.72762645914396,25.373540856031127)" stroke-width="1" />
<path d="M 291.50 186.50 C 289.30 189.73, 291.07 194.60, 290.50 198.50 C 302.11 199.57, 312.89 204.22, 308.50 190.50 C 303.39 187.96, 297.83 187.51, 292.50 186.50 Z" fill="rgb(129.07476635514018,126.81308411214954,82.37383177570094)" stroke="rgb(129.07476635514018,126.81308411214954,82.37383177570094)" stroke-width="1" />
<path d="M 169.50 496.50 C 172.64 506.44, 148.78 509.15, 157.50 511.50 C 166.15 510.09, 179.06 515.64, 180.50 505.50 C 174.20 504.67, 175.73 497.31, 170.50 496.50 Z" fill="rgb(40.86538461538461,70.58653846153847,21.173076923076923)" stroke="rgb(40.86538461538461,70.58653846153847,21.173076923076923)" stroke-width="1" />
<path d="M 135.50 400.50 C 131.53 401.35, 134.30 407.71, 130.50 408.50 C 122.77 413.71, 139.38 420.86, 142.50 413.50 C 145.86 414.89, 151.31 410.26, 148.50 409.50 C 141.63 409.26, 140.73 402.69, 136.50 400.50 Z" fill="rgb(50.04,61.9,52.12)" stroke="rgb(50.04,61.9,52.12)" stroke-width="1" />
<path d="M 33.50 354.50 C 29.70 357.15, 29.05 361.09, 29.50 365.50 C 33.44 367.12, 38.95 367.44, 40.50 371.50 C 43.36 383.25, 40.75 360.91, 44.50 357.50 C 44.64 352.36, 37.54 355.46, 34.50 354.50 Z" fill="rgb(116.52534562211981,117.11981566820276,103.92165898617512)" stroke="rgb(116.52534562211981,117.11981566820276,103.92165898617512)" stroke-width="1" />
<path d="M 125.50 242.50 C 123.98 245.72, 115.36 246.86, 119.50 252.50 C 124.41 253.58, 126.95 257.96, 131.50 257.50 C 136.55 260.77, 137.00 253.26, 136.50 250.50 C 131.25 245.57, 134.35 242.25, 126.50 242.50 Z" fill="rgb(36.89861751152074,44.57142857142857,25.88479262672811)" stroke="rgb(36.89861751152074,44.57142857142857,25.88479262672811)" stroke-width="1" />
<path d="M 1.50 437.50 C -0.57 443.11, 0.98 450.23, 0.50 456.50 C 5.63 451.19, 13.63 451.51, 16.50 445.50 C 13.10 439.12, 6.88 440.52, 2.50 437.50 Z" fill="rgb(104.0754716981132,114.57075471698113,75.39622641509433)" stroke="rgb(104.0754716981132,114.57075471698113,75.39622641509433)" stroke-width="1" />
<path d="M 21.50 47.50 C 10.43 50.50, 21.30 56.55, 28.50 54.50 C 33.06 56.10, 40.20 59.77, 41.50 54.50 C 43.45 50.02, 39.32 50.52, 37.50 49.50 C 32.62 46.27, 27.06 48.09, 22.50 47.50 Z" fill="rgb(91.03349282296651,105.97129186602871,60.6267942583732)" stroke="rgb(91.03349282296651,105.97129186602871,60.6267942583732)" stroke-width="1" />
<path d="M 307.50 437.50 C 303.68 439.75, 291.34 441.60, 300.50 445.50 C 305.94 459.40, 327.04 439.96, 308.50 437.50 Z" fill="rgb(47.19298245614035,86.40350877192982,39.45614035087719)" stroke="rgb(47.19298245614035,86.40350877192982,39.45614035087719)" stroke-width="1" />
<path d="M 187.50 254.50 C 184.57 256.90, 187.11 259.08, 186.50 262.50 C 183.51 269.46, 187.78 275.87, 186.50 282.50 C 185.70 287.26, 186.15 292.39, 190.50 290.50 C 190.50 285.50, 190.50 281.50, 190.50 277.50 C 190.50 272.50, 190.50 268.50, 190.50 264.50 C 189.60 260.73, 192.55 254.11, 188.50 254.50 Z" fill="rgb(65.47894736842105,68.71052631578948,68.47368421052632)" stroke="rgb(65.47894736842105,68.71052631578948,68.47368421052632)" stroke-width="1" />
<path d="M 249.50 439.50 C 244.84 440.05, 244.38 446.85, 246.50 450.50 C 250.82 453.87, 257.03 452.45, 260.50 449.50 C 262.67 441.32, 254.72 441.77, 250.50 439.50 Z" fill="rgb(18.882978723404257,49.202127659574465,8.042553191489361)" stroke="rgb(18.882978723404257,49.202127659574465,8.042553191489361)" stroke-width="1" />
<path d="M 173.50 383.50 C 164.21 389.49, 159.52 398.89, 154.50 407.50 C 157.93 404.40, 161.14 404.08, 164.50 400.50 C 164.75 389.66, 190.09 389.21, 174.50 383.50 Z" fill="rgb(66.66666666666667,83.81818181818181,64.39393939393939)" stroke="rgb(66.66666666666667,83.81818181818181,64.39393939393939)" stroke-width="1" />
<path d="M 135.50 400.50 C 133.43 405.86, 122.90 412.57, 131.50 414.50 C 135.16 416.91, 142.51 417.82, 141.50 411.50 C 142.80 407.77, 139.91 402.58, 136.50 400.50 Z" fill="rgb(34.63636363636363,38.70909090909091,36.027272727272724)" stroke="rgb(34.63636363636363,38.70909090909091,36.027272727272724)" stroke-width="1" />
<path d="M 157.50 227.50 C 160.33 229.96, 155.03 232.24, 156.50 235.50 C 163.23 237.57, 170.67 236.39, 176.50 235.50 C 175.15 227.97, 164.93 228.84, 158.50 227.50 Z" fill="rgb(27.148809523809526,44.791666666666664,16.303571428571427)" stroke="rgb(27.148809523809526,44.791666666666664,16.303571428571427)" stroke-width="1" />
<path d="M 173.50 383.50 C 167.22 388.09, 161.89 393.94, 158.50 400.50 C 157.84 405.69, 162.35 400.07, 164.50 400.50 C 162.94 388.66, 190.73 389.65, 174.50 383.50 Z" fill="rgb(57.5462962962963,70.44444444444444,56.166666666666664)" stroke="rgb(57.5462962962963,70.44444444444444,56.166666666666664)" stroke-width="1" />
<path d="M 291.50 186.50 C 290.40 189.74, 288.34 199.38, 293.50 199.50 C 300.21 201.24, 303.96 197.61, 300.50 192.50 C 301.88 186.13, 295.42 187.77, 292.50 186.50 Z" fill="rgb(192.22297297297297,184.58783783783784,152.49324324324326)" stroke="rgb(192.22297297297297,184.58783783783784,152.49324324324326)" stroke-width="1" />
<path d="M 316.50 395.50 C 312.70 397.66, 306.89 394.95, 304.50 400.50 C 297.88 404.23, 305.40 405.32, 309.50 404.50 C 317.07 407.87, 324.22 400.47, 317.50 395.50 Z" fill="rgb(6.696774193548387,14.04516129032258,5.367741935483871)" stroke="rgb(6.696774193548387,14.04516129032258,5.367741935483871)" stroke-width="1" />
<path d="M 228.50 163.50 C 228.50 167.17, 228.50 170.83, 228.50 174.50 C 227.73 179.01, 236.75 177.83, 237.50 176.50 C 237.50 172.50, 237.50 169.50, 237.50 166.50 C 238.11 161.56, 232.01 164.32, 229.50 163.50 Z" fill="rgb(36.87837837837838,31.054054054054053,16.85135135135135)" stroke="rgb(36.87837837837838,31.054054054054053,16.85135135135135)" stroke-width="1" />
<path d="M 309.50 438.50 C 308.86 441.84, 304.60 442.35, 302.50 444.50 C 299.97 450.47, 303.88 448.74, 306.50 450.50 C 310.25 452.10, 310.38 448.19, 313.50 448.50 C 317.71 446.08, 316.63 437.63, 310.50 438.50 Z" fill="rgb(31.564625850340136,70.48299319727892,6.340136054421769)" stroke="rgb(31.564625850340136,70.48299319727892,6.340136054421769)" stroke-width="1" />
<path d="M 227.50 500.50 C 221.91 502.76, 226.56 507.26, 226.50 511.50 C 231.20 510.86, 237.46 512.79, 239.50 510.50 C 238.42 504.63, 233.25 501.31, 228.50 500.50 Z" fill="rgb(39.07382550335571,71.24161073825503,14.0)" stroke="rgb(39.07382550335571,71.24161073825503,14.0)" stroke-width="1" />
<path d="M 171.50 495.50 C 167.32 496.43, 167.59 501.28, 167.50 505.50 C 172.22 507.71, 181.19 513.06, 181.50 504.50 C 173.62 504.49, 176.89 498.01, 172.50 495.50 Z" fill="rgb(61.13380281690141,90.95774647887323,36.50704225352113)" stroke="rgb(61.13380281690141,90.95774647887323,36.50704225352113)" stroke-width="1" />
<path d="M 243.50 455.50 C 236.79 458.61, 242.37 460.68, 240.50 465.50 C 245.51 467.26, 249.51 465.60, 252.50 461.50 C 255.79 455.94, 248.21 455.25, 244.50 455.50 Z" fill="rgb(18.55072463768116,48.47826086956522,7.942028985507246)" stroke="rgb(18.55072463768116,48.47826086956522,7.942028985507246)" stroke-width="1" />
<path d="M 158.50 0.50 C 158.50 4.83, 158.50 9.17, 158.50 13.50 C 160.72 18.05, 158.92 23.27, 159.50 27.50 C 158.67 32.39, 162.18 40.06, 162.50 32.50 C 159.86 24.57, 162.55 16.69, 162.50 9.50 C 160.68 5.99, 163.44 -0.11, 159.50 0.50 Z" fill="rgb(133.0820895522388,151.53731343283582,99.41044776119404)" stroke="rgb(133.0820895522388,151.53731343283582,99.41044776119404)" stroke-width="1" />
<path d="M 103.50 298.50 C 91.33 299.51, 100.89 311.44, 108.50 312.50 C 111.89 306.49, 106.88 302.17, 104.50 298.50 Z" fill="rgb(79.63235294117646,78.5,60.27205882352941)" stroke="rgb(79.63235294117646,78.5,60.27205882352941)" stroke-width="1" />
<path d="M 178.50 254.50 C 178.92 256.81, 176.71 258.03, 177.50 260.50 C 179.20 266.93, 178.28 273.46, 178.50 279.50 C 179.04 282.74, 177.00 287.44, 180.50 287.50 C 180.98 279.24, 182.63 271.09, 180.50 264.50 C 179.88 260.79, 181.77 255.56, 179.50 254.50 Z" fill="rgb(87.6796875,92.0859375,90.625)" stroke="rgb(87.6796875,92.0859375,90.625)" stroke-width="1" />
<path d="M 164.50 237.50 C 159.76 239.27, 167.30 242.41, 167.50 245.50 C 170.25 249.24, 173.96 249.68, 177.50 250.50 C 179.86 243.48, 170.73 239.14, 165.50 237.50 Z" fill="rgb(68.70542635658914,77.79069767441861,63.82170542635659)" stroke="rgb(68.70542635658914,77.79069767441861,63.82170542635659)" stroke-width="1" />
<path d="M 6.50 453.50 C -1.75 456.25, 0.82 465.54, 0.50 472.50 C 5.80 471.64, 6.11 465.86, 6.50 462.50 C 6.10 458.43, 13.95 452.56, 7.50 453.50 Z" fill="rgb(94.46825396825396,87.93650793650794,58.03174603174603)" stroke="rgb(94.46825396825396,87.93650793650794,58.03174603174603)" stroke-width="1" />
<path d="M 78.50 308.50 C 78.77 314.87, 62.65 319.63, 73.50 323.50 C 78.75 325.82, 80.12 319.61, 80.50 315.50 C 80.06 312.42, 83.63 308.74, 79.50 308.50 Z" fill="rgb(93.14634146341463,95.26016260162602,64.16260162601625)" stroke="rgb(93.14634146341463,95.26016260162602,64.16260162601625)" stroke-width="1" />
<path d="M 269.50 457.50 C 267.65 460.15, 263.35 456.85, 261.50 459.50 C 253.54 462.12, 265.59 466.84, 268.50 464.50 C 276.77 467.91, 277.98 457.79, 270.50 457.50 Z" fill="rgb(24.54471544715447,54.78048780487805,13.178861788617887)" stroke="rgb(24.54471544715447,54.78048780487805,13.178861788617887)" stroke-width="1" />
<path d="M 334.50 436.50 C 331.78 438.87, 328.96 443.30, 331.50 446.50 C 336.40 453.14, 342.83 444.51, 340.50 438.50 C 340.45 434.27, 336.11 438.80, 335.50 436.50 Z" fill="rgb(27.53846153846154,60.547008547008545,12.88034188034188)" stroke="rgb(27.53846153846154,60.547008547008545,12.88034188034188)" stroke-width="1" />
<path d="M 271.50 442.50 C 265.47 444.36, 270.69 450.44, 275.50 448.50 C 278.50 452.60, 288.17 446.26, 284.50 442.50 C 279.83 442.50, 276.17 442.50, 272.50 442.50 Z" fill="rgb(46.6271186440678,87.55084745762711,37.55084745762712)" stroke="rgb(46.6271186440678,87.55084745762711,37.55084745762712)" stroke-width="1" />
<path d="M 219.50 163.50 C 220.06 168.75, 216.78 178.88, 225.50 176.50 C 224.27 172.04, 230.72 160.63, 220.50 163.50 Z" fill="rgb(32.62385321100918,27.091743119266056,15.045871559633028)" stroke="rgb(32.62385321100918,27.091743119266056,15.045871559633028)" stroke-width="1" />
<path d="M 77.50 325.50 C 71.34 326.91, 66.30 333.30, 75.50 334.50 C 85.05 336.59, 83.95 328.21, 78.50 325.50 Z" fill="rgb(161.23300970873785,180.7378640776699,93.59223300970874)" stroke="rgb(161.23300970873785,180.7378640776699,93.59223300970874)" stroke-width="1" />
<path d="M 117.50 458.50 C 115.82 462.02, 113.18 465.15, 113.50 469.50 C 110.98 473.54, 112.12 480.64, 106.50 480.50 C 103.93 484.34, 111.75 484.84, 111.50 481.50 C 114.59 473.48, 116.72 466.06, 118.50 458.50 Z" fill="rgb(32.05263157894737,33.873684210526314,34.28421052631579)" stroke="rgb(32.05263157894737,33.873684210526314,34.28421052631579)" stroke-width="1" />
<path d="M 147.50 113.50 C 145.10 121.36, 159.87 120.75, 164.50 117.50 C 158.98 115.95, 153.89 114.37, 148.50 113.50 Z" fill="rgb(191.61363636363637,176.125,146.14772727272728)" stroke="rgb(191.61363636363637,176.125,146.14772727272728)" stroke-width="1" />
<path d="M 33.50 397.50 C 34.22 400.03, 28.49 403.67, 33.50 404.50 C 37.63 406.33, 40.96 407.67, 44.50 408.50 C 41.08 405.43, 40.25 398.10, 34.50 397.50 Z" fill="rgb(159.63095238095238,154.29761904761904,137.96428571428572)" stroke="rgb(159.63095238095238,154.29761904761904,137.96428571428572)" stroke-width="1" />
<path d="M 233.50 460.50 C 228.58 462.53, 223.04 469.44, 232.50 467.50 C 240.46 467.96, 243.13 458.44, 234.50 460.50 Z" fill="rgb(39.9873417721519,78.30379746835443,30.746835443037973)" stroke="rgb(39.9873417721519,78.30379746835443,30.746835443037973)" stroke-width="1" />
<path d="M 167.50 340.50 C 157.08 345.50, 168.83 348.72, 174.50 345.50 C 174.48 342.41, 172.44 339.41, 168.50 340.50 Z" fill="rgb(63.056338028169016,73.73239436619718,43.61971830985915)" stroke="rgb(63.056338028169016,73.73239436619718,43.61971830985915)" stroke-width="1" />
<path d="M 6.50 165.50 C 7.25 181.31, 23.57 168.54, 6.50 165.50 Z" fill="rgb(159.0,181.66666666666666,104.5)" stroke="rgb(159.0,181.66666666666666,104.5)" stroke-width="1" />
<path d="M 134.50 400.50 C 132.07 402.84, 131.01 411.77, 136.50 407.50 C 144.06 410.01, 140.11 399.67, 135.50 400.50 Z" fill="rgb(55.42424242424242,56.63636363636363,54.07575757575758)" stroke="rgb(55.42424242424242,56.63636363636363,54.07575757575758)" stroke-width="1" />
<path d="M 8.50 164.50 C 3.34 166.07, 5.38 174.63, 11.50 172.50 C 17.08 173.85, 11.92 165.08, 9.50 164.50 Z" fill="rgb(127.1875,148.609375,71.53125)" stroke="rgb(127.1875,148.609375,71.53125)" stroke-width="1" />
<path d="M 178.50 164.50 C 179.60 168.07, 175.79 176.54, 181.50 175.50 C 181.40 171.93, 185.21 163.46, 179.50 164.50 Z" fill="rgb(100.48275862068965,95.15517241379311,67.32758620689656)" stroke="rgb(100.48275862068965,95.15517241379311,67.32758620689656)" stroke-width="1" />
<path d="M 46.50 344.50 C 43.61 346.11, 40.02 346.01, 37.50 348.50 C 41.80 349.33, 56.36 348.75, 47.50 344.50 Z" fill="rgb(212.23214285714286,204.32142857142858,169.07142857142858)" stroke="rgb(212.23214285714286,204.32142857142858,169.07142857142858)" stroke-width="1" />
<path d="M 113.50 479.50 C 109.58 484.05, 116.73 484.22, 119.50 485.50 C 123.89 480.28, 118.24 478.50, 114.50 479.50 Z" fill="rgb(103.72222222222223,114.74074074074075,78.11111111111111)" stroke="rgb(103.72222222222223,114.74074074074075,78.11111111111111)" stroke-width="1" />
<path d="M 129.50 203.50 C 126.19 206.21, 130.11 212.38, 133.50 208.50 C 139.63 207.29, 134.02 201.63, 130.50 203.50 Z" fill="rgb(215.81132075471697,222.03773584905662,188.35849056603774)" stroke="rgb(215.81132075471697,222.03773584905662,188.35849056603774)" stroke-width="1" />
<path d="M 241.50 133.50 C 239.89 135.23, 235.80 141.61, 240.50 141.50 C 248.08 142.70, 244.00 136.14, 242.50 133.50 Z" fill="rgb(50.69230769230769,62.46153846153846,55.84615384615385)" stroke="rgb(50.69230769230769,62.46153846153846,55.84615384615385)" stroke-width="1" />
<path d="M 260.50 0.50 C 267.05 5.92, 275.13 7.64, 281.50 13.50 C 277.29 7.68, 268.43 4.54, 261.50 0.50 Z" fill="rgb(134.57777777777778,142.77777777777777,99.26666666666667)" stroke="rgb(134.57777777777778,142.77777777777777,99.26666666666667)" stroke-width="1" />
<path d="M 0.50 419.50 C -1.50 427.62, 3.94 423.95, 9.50 424.50 C 7.29 421.07, 4.94 418.97, 1.50 419.50 Z" fill="rgb(198.57142857142858,221.9591836734694,134.08163265306123)" stroke="rgb(198.57142857142858,221.9591836734694,134.08163265306123)" stroke-width="1" />
<path d="M 173.50 383.50 C 168.74 386.13, 174.15 389.77, 177.50 388.50 C 183.21 387.36, 177.84 382.08, 174.50 383.50 Z" fill="rgb(95.33333333333333,106.97916666666667,95.29166666666667)" stroke="rgb(95.33333333333333,106.97916666666667,95.29166666666667)" stroke-width="1" />
<path d="M 162.50 260.50 C 158.86 273.72, 169.02 270.27, 162.50 260.50 Z" fill="rgb(49.6,48.4,35.2)" stroke="rgb(49.6,48.4,35.2)" stroke-width="1" />
<path d="M 222.50 325.50 C 218.97 325.10, 213.61 331.86, 218.50 332.50 C 219.14 328.17, 224.78 329.13, 223.50 325.50 Z" fill="rgb(129.58333333333334,147.97222222222223,99.72222222222223)" stroke="rgb(129.58333333333334,147.97222222222223,99.72222222222223)" stroke-width="1" />
<path d="M 162.50 260.50 C 162.50 264.17, 162.50 267.83, 162.50 271.50 C 165.12 268.70, 165.12 263.30, 163.50 260.50 Z" fill="rgb(85.625,83.03125,70.625)" stroke="rgb(85.625,83.03125,70.625)" stroke-width="1" />
<path d="M 76.50 342.50 C 63.41 346.78, 84.42 349.91, 76.50 342.50 Z" fill="rgb(157.8846153846154,176.69230769230768,96.26923076923077)" stroke="rgb(157.8846153846154,176.69230769230768,96.26923076923077)" stroke-width="1" />
<path d="M 192.50 30.50 C 192.07 40.81, 199.27 35.56, 192.50 30.50 Z" fill="rgb(143.15,152.3,110.05)" stroke="rgb(143.15,152.3,110.05)" stroke-width="1" />
<path d="M 204.50 301.50 C 197.25 307.97, 213.08 305.08, 204.50 301.50 Z" fill="rgb(87.0,83.0,68.85714285714286)" stroke="rgb(87.0,83.0,68.85714285714286)" stroke-width="1" />
</svg>