<svg xmlns="http://www.w3.org/2000/svg" width="800" height="865" viewbox="0 0 800 865">
<path d="M 0.50 0.50 C 0.50 277.17, 0.50 553.83, 0.50 830.50 C 0.50 839.83, 0.50 848.17, 0.50 856.50 C -2.73 869.06, 11.62 863.05, 18.50 864.50 C 36.50 864.50, 53.50 864.50, 70.50 864.50 C 105.83 864.50, 140.17 864.50, 174.50 864.50 C 244.50 864.50, 313.50 864.50, 382.50 864.50 C 521.83 864.50, 660.17 864.50, 798.50 864.50 C 799.50 587.83, 799.50 311.17, 799.50 34.50 C 799.50 25.17, 799.50 16.83, 799.50 8.50 C 802.73 -4.06, 788.38 1.95, 781.50 0.50 C 763.50 0.50, 746.50 0.50, 729.50 0.50 C 694.17 0.50, 659.83 0.50, 625.50 0.50 C 555.50 0.50, 486.50 0.50, 417.50 0.50 C 278.17 0.50, 139.83 0.50, 1.50 0.50 Z" fill="rgb(63.98141637368157,71.15168257157208,38.6067302862883)" stroke="rgb(63.98141637368157,71.15168257157208,38.6067302862883)" stroke-width="1" />
<path d="M 2.50 0.50 C 2.38 24.45, 2.68 49.84, 2.50 72.50 C 1.96 97.29, -0.68 119.52, 0.50 144.50 C 0.50 194.17, 0.50 242.83, 0.50 291.50 C 0.50 316.50, 0.50 340.50, 0.50 364.50 C 1.57 377.00, -1.80 390.34, 2.50 400.50 C -0.79 409.44, 8.38 412.56, 9.50 415.50 C -2.93 420.19, 18.04 417.14, 12.50 425.50 C 2.32 431.98, 6.78 430.40, 12.50 433.50 C 16.35 443.73, 5.55 441.63, 5.50 445.50 C 19.16 442.74, 11.31 466.12, 13.50 474.50 C 16.39 487.52, 2.96 471.43, 3.50 478.50 C 3.50 485.50, 3.50 491.50, 3.50 497.50 C 3.50 510.50, 3.50 522.50, 3.50 534.50 C 3.86 547.63, 0.05 561.43, 4.50 570.50 C -4.48 580.87, 4.55 594.11, 2.50 606.50 C 2.50 631.50, 2.50 655.50, 2.50 679.50 C 2.50 729.34, 2.65 777.17, 2.50 826.50 C 2.50 839.17, 2.50 850.83, 2.50 862.50 C 12.17 865.83, 26.16 863.84, 37.50 864.50 C 62.83 864.50, 87.17 864.50, 111.50 864.50 C 161.17 864.50, 209.83 864.50, 258.50 864.50 C 283.50 864.50, 307.50 864.50, 331.50 864.50 C 344.17 864.50, 355.83 864.50, 367.50 864.50 C 383.55 867.86, 392.85 860.46, 393.50 846.50 C 388.49 822.77, 400.40 791.02, 382.50 775.50 C 369.36 756.13, 395.18 774.89, 395.50 786.50 C 397.79 799.91, 403.34 810.58, 402.50 823.50 C 399.47 836.72, 400.93 847.06, 396.50 859.50 C 391.59 868.88, 417.22 862.52, 425.50 864.50 C 437.43 864.96, 455.59 864.29, 457.50 862.50 C 457.40 852.00, 468.32 844.10, 478.50 833.50 C 491.98 828.13, 502.29 817.53, 514.50 811.50 C 521.09 811.39, 530.25 804.53, 525.50 813.50 C 530.29 808.82, 537.97 818.47, 540.50 821.50 C 543.83 837.67, 555.46 831.99, 554.50 848.50 C 549.99 851.57, 546.84 854.85, 547.50 862.50 C 552.19 865.81, 560.15 863.85, 565.50 864.50 C 590.50 864.50, 614.50 864.50, 638.50 864.50 C 645.34 861.99, 638.78 854.36, 643.50 849.50 C 647.30 854.50, 646.60 865.42, 647.50 854.50 C 649.12 850.05, 648.40 836.92, 651.50 840.50 C 658.56 840.70, 652.20 827.60, 662.50 831.50 C 667.28 831.22, 665.45 847.40, 669.50 836.50 C 666.28 828.05, 685.18 831.30, 675.50 835.50 C 668.59 846.83, 678.27 833.16, 680.50 840.50 C 680.26 832.03, 687.82 832.69, 689.50 827.50 C 692.29 818.45, 694.68 834.46, 701.50 830.50 C 711.08 830.74, 693.93 841.99, 702.50 838.50 C 711.87 844.54, 707.65 833.63, 712.50 830.50 C 726.51 831.60, 705.13 837.08, 715.50 841.50 C 718.60 838.41, 728.52 840.91, 729.50 847.50 C 722.62 858.08, 724.34 846.33, 720.50 844.50 C 714.33 850.39, 725.99 852.65, 725.50 857.50 C 715.49 855.41, 716.05 867.43, 724.50 864.50 C 741.53 872.27, 736.05 832.71, 744.50 851.50 C 751.24 852.75, 752.46 836.26, 756.50 843.50 C 759.19 849.66, 755.75 857.36, 758.50 862.50 C 764.07 867.04, 765.93 856.65, 759.50 855.50 C 764.08 849.98, 773.86 848.33, 770.50 857.50 C 770.01 868.69, 795.45 865.67, 798.50 861.50 C 797.15 838.39, 797.54 812.42, 797.50 787.50 C 797.50 738.17, 797.50 689.83, 797.50 641.50 C 797.44 615.79, 797.29 590.67, 798.50 568.50 C 797.01 543.65, 797.59 518.94, 797.50 494.50 C 797.50 469.50, 797.50 445.50, 797.50 421.50 C 797.50 408.83, 797.50 397.17, 797.50 385.50 C 802.19 366.40, 789.06 365.33, 781.50 356.50 C 774.85 357.18, 771.21 353.67, 764.50 351.50 C 754.45 352.43, 759.85 363.69, 760.50 362.50 C 764.08 364.80, 778.09 365.18, 768.50 370.50 C 761.89 373.11, 754.44 371.29, 749.50 375.50 C 726.00 382.77, 700.65 395.69, 679.50 405.50 C 671.46 411.77, 660.58 413.59, 649.50 415.50 C 645.34 427.48, 636.36 405.30, 646.50 412.50 C 647.19 407.06, 649.37 398.50, 654.50 398.50 C 660.96 387.47, 673.53 381.82, 676.50 371.50 C 690.24 363.98, 690.21 348.58, 701.50 339.50 C 705.84 335.82, 719.43 336.25, 712.50 333.50 C 705.54 331.05, 711.83 324.00, 714.50 319.50 C 719.69 304.27, 728.58 296.19, 736.50 286.50 C 747.88 287.68, 757.81 298.13, 767.50 306.50 C 761.93 309.54, 774.31 308.56, 778.50 310.50 C 788.94 312.75, 780.85 327.27, 790.50 322.50 C 802.17 318.42, 793.34 300.06, 798.50 291.50 C 798.31 284.57, 795.89 277.58, 794.50 273.50 C 791.95 280.53, 782.86 271.34, 786.50 278.50 C 778.46 294.19, 771.33 289.23, 758.50 281.50 C 754.17 274.83, 747.67 275.56, 742.50 270.50 C 739.69 264.61, 744.21 257.66, 747.50 252.50 C 750.01 239.38, 758.35 230.48, 757.50 217.50 C 763.45 204.55, 767.77 192.09, 772.50 182.50 C 780.01 170.31, 781.96 167.39, 787.50 154.50 C 797.98 144.84, 797.66 130.30, 798.50 118.50 C 797.98 105.91, 799.63 93.42, 797.50 82.50 C 787.52 72.95, 772.67 66.05, 766.50 53.50 C 759.75 40.94, 763.27 30.11, 761.50 18.50 C 769.81 5.45, 761.77 -3.77, 746.50 0.50 C 696.83 0.50, 648.17 0.50, 599.50 0.50 C 584.18 -5.95, 573.44 13.17, 590.50 14.50 C 597.88 16.82, 589.43 27.81, 599.50 26.50 C 608.26 25.63, 611.93 32.93, 608.50 38.50 C 612.95 35.06, 613.28 39.20, 620.50 38.50 C 624.89 42.05, 639.55 38.50, 635.50 43.50 C 630.33 45.32, 617.90 43.14, 622.50 47.50 C 635.38 45.22, 626.20 53.81, 634.50 52.50 C 640.17 54.70, 649.98 52.01, 648.50 59.50 C 648.37 70.14, 637.93 63.00, 634.50 65.50 C 619.07 68.19, 614.71 60.81, 601.50 63.50 C 595.33 52.76, 577.08 56.48, 580.50 38.50 C 562.35 47.66, 573.01 20.28, 569.50 13.50 C 585.04 14.94, 565.85 -5.82, 554.50 0.50 C 541.50 0.50, 529.50 0.50, 517.50 0.50 C 492.50 0.50, 468.50 0.50, 444.50 0.50 C 394.83 0.50, 346.17 0.50, 297.50 0.50 C 198.83 0.50, 101.17 0.50, 3.50 0.50 Z" fill="rgb(85.54546132831332,91.38256732248215,76.9721182763608)" stroke="rgb(85.54546132831332,91.38256732248215,76.9721182763608)" stroke-width="1" />
<path d="M 3.50 571.50 C -0.97 600.28, 2.86 628.29, 1.50 658.50 C 1.41 690.27, 1.74 717.78, 1.50 747.50 C 1.61 777.26, 1.90 808.85, 1.50 836.50 C 2.32 849.99, -4.26 871.08, 17.50 864.50 C 33.17 864.50, 47.83 864.50, 62.50 864.50 C 122.17 864.50, 180.83 864.50, 239.50 864.50 C 269.83 864.50, 299.17 864.50, 328.50 864.50 C 343.83 864.50, 358.17 864.50, 372.50 864.50 C 392.10 869.02, 396.58 848.22, 395.50 833.50 C 400.72 818.10, 394.43 803.08, 391.50 789.50 C 391.40 771.99, 359.84 765.63, 376.50 748.50 C 382.42 732.36, 370.27 719.05, 368.50 704.50 C 364.67 688.69, 357.74 675.14, 358.50 659.50 C 350.32 636.04, 351.32 672.19, 349.50 681.50 C 348.74 697.28, 351.51 710.35, 351.50 726.50 C 354.91 740.23, 358.32 757.56, 361.50 770.50 C 365.02 786.93, 380.01 794.78, 373.50 812.50 C 374.45 822.16, 359.61 827.59, 361.50 815.50 C 361.65 807.08, 363.42 800.26, 360.50 793.50 C 354.37 778.64, 350.88 763.68, 345.50 749.50 C 342.40 735.47, 343.90 746.29, 340.50 753.50 C 339.52 761.65, 337.80 768.07, 338.50 775.50 C 335.93 791.51, 338.41 806.85, 341.50 819.50 C 343.39 827.98, 332.62 835.00, 328.50 832.50 C 319.91 832.05, 333.38 820.83, 331.50 814.50 C 329.16 798.47, 328.39 783.49, 329.50 769.50 C 330.86 737.94, 337.17 710.15, 338.50 680.50 C 337.87 663.90, 339.57 651.79, 339.50 636.50 C 348.96 618.87, 321.09 601.90, 320.50 625.50 C 314.19 655.71, 308.68 685.24, 302.50 714.50 C 301.26 729.16, 295.53 745.96, 300.50 757.50 C 305.24 763.82, 302.25 771.64, 301.50 778.50 C 305.00 785.66, 305.89 791.55, 306.50 800.50 C 304.42 806.85, 301.62 821.17, 293.50 814.50 C 290.83 806.87, 293.65 799.41, 293.50 792.50 C 284.22 780.36, 292.21 763.70, 288.50 748.50 C 288.07 716.80, 293.09 688.36, 299.50 660.50 C 302.60 645.04, 309.13 630.31, 309.50 616.50 C 305.37 611.38, 298.70 626.01, 290.50 623.50 C 280.61 618.73, 277.16 631.38, 274.50 637.50 C 265.71 652.09, 259.11 666.18, 255.50 681.50 C 250.65 691.73, 264.24 693.23, 252.50 698.50 C 249.50 700.79, 249.96 712.66, 248.50 718.50 C 243.37 732.77, 254.82 746.69, 242.50 760.50 C 234.72 765.37, 228.29 766.62, 228.50 772.50 C 228.59 782.19, 229.65 788.93, 219.50 788.50 C 225.20 794.17, 222.34 803.00, 220.50 809.50 C 212.87 820.78, 209.75 807.58, 211.50 800.50 C 212.94 783.83, 208.22 772.20, 210.50 756.50 C 213.47 741.03, 217.97 723.51, 216.50 716.50 C 230.63 703.60, 217.33 686.66, 214.50 672.50 C 217.34 657.65, 215.77 641.98, 219.50 628.50 C 223.39 612.66, 227.94 596.89, 235.50 584.50 C 240.22 577.28, 237.62 568.10, 235.50 580.50 C 224.46 578.99, 226.57 592.88, 218.50 595.50 C 211.67 609.45, 201.06 624.42, 204.50 639.50 C 205.76 646.67, 206.98 655.97, 203.50 661.50 C 203.88 670.51, 189.95 679.38, 190.50 666.50 C 185.42 653.56, 201.34 629.48, 185.50 628.50 C 177.33 628.25, 167.99 636.56, 167.50 625.50 C 164.49 617.81, 170.96 609.20, 164.50 603.50 C 159.27 594.10, 152.76 598.80, 144.50 599.50 C 136.32 599.84, 126.27 602.47, 130.50 611.50 C 131.73 631.23, 87.65 625.41, 104.50 611.50 C 111.96 610.91, 121.95 603.24, 116.50 597.50 C 107.44 595.25, 100.43 591.46, 93.50 587.50 C 62.87 582.88, 33.69 577.18, 4.50 571.50 Z" fill="rgb(87.11909593839482,104.06407939729226,60.80086736537766)" stroke="rgb(87.11909593839482,104.06407939729226,60.80086736537766)" stroke-width="1" />
<path d="M 2.50 0.50 C 0.17 33.34, 2.16 67.97, 1.50 101.50 C -4.72 126.10, 21.15 124.62, 35.50 130.50 C 51.97 134.08, 69.78 137.24, 86.50 134.50 C 105.35 135.36, 120.87 130.58, 137.50 128.50 C 145.80 125.49, 154.83 126.62, 162.50 124.50 C 167.94 115.99, 159.87 108.58, 160.50 99.50 C 157.83 91.37, 152.98 79.92, 162.50 76.50 C 172.00 80.08, 173.82 91.16, 175.50 99.50 C 177.40 107.83, 175.94 117.03, 179.50 123.50 C 188.92 125.29, 197.08 126.71, 205.50 127.50 C 223.20 129.74, 239.31 133.44, 256.50 134.50 C 275.22 133.70, 291.48 129.39, 307.50 124.50 C 315.49 119.86, 327.93 119.33, 329.50 109.50 C 331.15 100.96, 330.81 90.48, 330.50 83.50 C 333.31 65.67, 332.88 49.13, 330.50 32.50 C 336.58 18.41, 344.53 36.57, 345.50 42.50 C 348.65 53.28, 341.21 59.08, 342.50 68.50 C 343.21 83.28, 330.66 110.02, 351.50 112.50 C 360.98 113.38, 367.06 112.20, 376.50 112.50 C 384.54 109.93, 387.48 100.44, 398.50 99.50 C 404.59 107.88, 411.67 115.64, 420.50 118.50 C 432.32 122.63, 434.88 109.12, 436.50 101.50 C 446.49 87.45, 469.18 74.01, 463.50 53.50 C 467.50 41.08, 477.65 58.52, 478.50 64.50 C 477.86 74.68, 463.85 78.22, 461.50 88.50 C 454.02 95.75, 455.65 105.41, 450.50 111.50 C 444.46 118.32, 440.91 131.34, 453.50 131.50 C 469.50 124.18, 475.82 102.04, 483.50 87.50 C 487.75 78.93, 499.34 66.20, 503.50 80.50 C 502.49 89.22, 505.45 69.14, 505.50 64.50 C 504.91 48.41, 505.96 29.14, 502.50 13.50 C 505.33 -8.81, 475.98 3.94, 462.50 0.50 C 444.83 0.50, 428.17 0.50, 411.50 0.50 C 274.83 0.50, 139.17 0.50, 3.50 0.50 Z" fill="rgb(83.90937797487753,98.87689521465555,46.6241147925422)" stroke="rgb(83.90937797487753,98.87689521465555,46.6241147925422)" stroke-width="1" />
<path d="M 789.50 367.50 C 753.71 374.36, 719.90 386.03, 688.50 403.50 C 670.85 412.53, 653.52 419.95, 637.50 430.50 C 627.73 435.44, 619.77 442.36, 611.50 448.50 C 614.52 454.61, 628.23 448.97, 634.50 447.50 C 669.87 443.19, 702.19 433.94, 736.50 429.50 C 745.44 430.77, 752.68 422.39, 761.50 422.50 C 772.48 420.33, 757.16 432.22, 754.50 435.50 C 735.66 437.23, 718.38 452.18, 703.50 448.50 C 684.97 449.08, 669.64 454.98, 652.50 456.50 C 634.10 457.73, 618.88 464.21, 601.50 465.50 C 591.50 465.93, 584.62 475.58, 585.50 484.50 C 585.67 494.95, 599.59 488.70, 606.50 490.50 C 622.97 496.43, 642.32 495.23, 658.50 496.50 C 667.37 497.81, 675.28 499.02, 683.50 499.50 C 700.43 499.56, 688.37 507.48, 679.50 506.50 C 661.22 506.51, 643.72 507.06, 627.50 504.50 C 612.80 504.10, 586.65 495.98, 580.50 505.50 C 585.39 524.02, 593.25 544.51, 610.50 552.50 C 627.62 561.14, 644.87 567.08, 661.50 574.50 C 669.83 579.12, 679.51 578.06, 686.50 583.50 C 688.58 596.49, 672.84 590.16, 666.50 586.50 C 658.33 581.16, 648.83 581.46, 641.50 576.50 C 634.67 575.23, 619.15 564.38, 619.50 571.50 C 628.15 589.37, 635.42 606.81, 644.50 623.50 C 653.01 641.65, 663.44 658.00, 673.50 674.50 C 688.97 691.99, 702.17 708.86, 714.50 725.50 C 729.71 743.37, 746.13 757.03, 763.50 769.50 C 773.03 774.70, 780.45 781.57, 789.50 784.50 C 800.98 791.99, 798.15 775.59, 798.50 768.50 C 798.46 732.33, 798.44 701.55, 798.50 666.50 C 798.50 648.83, 798.50 632.17, 798.50 615.50 C 798.51 594.73, 795.65 582.83, 797.50 563.50 C 797.46 530.41, 797.79 492.89, 797.50 460.50 C 796.97 443.03, 798.66 422.95, 794.50 411.50 C 794.88 406.73, 802.21 397.29, 797.50 388.50 C 797.45 380.29, 801.22 367.23, 790.50 367.50 Z" fill="rgb(125.56842105263158,136.17399380804954,88.36965944272445)" stroke="rgb(125.56842105263158,136.17399380804954,88.36965944272445)" stroke-width="1" />
<path d="M 323.50 317.50 C 312.90 322.26, 299.82 321.06, 289.50 326.50 C 280.05 337.29, 267.34 340.94, 265.50 355.50 C 273.29 365.57, 267.95 380.08, 272.50 390.50 C 276.58 403.00, 281.60 414.10, 283.50 426.50 C 271.55 430.75, 259.67 431.76, 248.50 434.50 C 235.01 438.37, 227.06 450.26, 213.50 447.50 C 191.36 466.00, 195.61 494.70, 203.50 517.50 C 212.40 544.61, 243.02 547.59, 267.50 549.50 C 279.65 546.39, 291.91 545.96, 302.50 541.50 C 314.39 531.62, 328.52 542.94, 330.50 554.50 C 334.52 566.82, 337.12 574.83, 344.50 586.50 C 354.25 597.07, 354.15 611.81, 367.50 616.50 C 392.89 616.25, 417.34 615.14, 439.50 608.50 C 451.48 601.13, 442.57 584.68, 451.50 575.50 C 453.47 561.18, 451.23 549.92, 442.50 540.50 C 432.54 530.61, 426.59 512.89, 446.50 516.50 C 460.84 516.01, 473.25 510.92, 481.50 501.50 C 475.81 486.56, 488.58 478.21, 499.50 481.50 C 508.27 479.10, 506.65 495.84, 513.50 489.50 C 522.10 489.24, 519.15 480.57, 518.50 475.50 C 510.67 471.34, 506.49 474.68, 503.50 479.50 C 505.87 471.91, 498.32 468.11, 492.50 470.50 C 487.13 479.13, 485.03 465.35, 493.50 466.50 C 500.20 468.86, 505.73 465.30, 511.50 467.50 C 520.86 461.44, 510.98 445.59, 511.50 435.50 C 508.16 422.05, 498.56 409.95, 484.50 409.50 C 461.89 402.47, 436.36 404.13, 413.50 407.50 C 401.74 414.09, 385.94 413.33, 392.50 396.50 C 391.02 382.93, 386.27 371.71, 381.50 360.50 C 372.18 349.35, 369.41 335.68, 359.50 326.50 C 349.60 318.56, 337.82 316.19, 324.50 317.50 Z" fill="rgb(206.57346606681344,192.21483679525224,191.74687470087107)" stroke="rgb(206.57346606681344,192.21483679525224,191.74687470087107)" stroke-width="1" />
<path d="M 3.50 570.50 C -1.11 606.87, 2.79 646.76, 1.50 684.50 C 1.50 723.50, 1.50 761.50, 1.50 799.50 C 1.50 819.17, 1.50 837.83, 1.50 856.50 C -1.51 869.84, 15.10 862.56, 22.50 864.50 C 32.83 864.50, 42.17 864.50, 51.50 864.50 C 71.50 864.50, 90.50 864.50, 109.50 864.50 C 129.26 863.67, 156.73 871.33, 155.50 845.50 C 167.79 808.14, 177.02 770.92, 178.50 730.50 C 178.00 711.16, 180.40 691.60, 176.50 673.50 C 176.84 651.84, 167.84 635.05, 165.50 615.50 C 168.26 602.49, 155.70 599.79, 146.50 600.50 C 131.73 596.78, 135.36 610.25, 130.50 617.50 C 125.20 626.51, 111.52 625.87, 103.50 622.50 C 91.52 610.74, 113.81 610.45, 116.50 602.50 C 105.11 587.44, 81.09 586.20, 62.50 582.50 C 42.08 579.84, 23.48 575.22, 4.50 571.50 Z" fill="rgb(64.79360646228544,79.29827915869981,25.70569531871012)" stroke="rgb(64.79360646228544,79.29827915869981,25.70569531871012)" stroke-width="1" />
<path d="M 583.50 501.50 C 578.75 515.92, 592.34 541.03, 607.50 548.50 C 624.71 559.89, 642.80 565.72, 660.50 572.50 C 668.81 578.30, 679.81 575.19, 686.50 582.50 C 691.77 595.69, 674.21 591.45, 667.50 588.50 C 660.36 582.92, 649.41 581.22, 642.50 577.50 C 636.48 574.45, 617.46 565.70, 621.50 576.50 C 639.47 613.30, 654.91 651.25, 680.50 682.50 C 708.80 718.50, 738.17 756.75, 777.50 777.50 C 784.26 779.97, 799.02 793.37, 798.50 780.50 C 798.50 770.83, 798.50 762.17, 798.50 753.50 C 798.50 734.83, 798.50 717.17, 798.50 699.50 C 797.84 663.30, 799.82 627.01, 797.50 592.50 C 761.69 570.90, 724.73 555.49, 690.50 533.50 C 671.51 527.90, 657.74 512.70, 638.50 509.50 C 620.94 501.90, 603.46 502.58, 584.50 501.50 Z" fill="rgb(77.05700331181212,92.9464423109089,29.805171779346335)" stroke="rgb(77.05700331181212,92.9464423109089,29.805171779346335)" stroke-width="1" />
<path d="M 2.50 220.50 C 0.21 248.02, 2.14 277.29, 1.50 305.50 C 1.15 335.30, 2.03 368.65, 1.50 392.50 C -3.43 409.84, 14.79 416.37, 29.50 419.50 C 44.73 425.60, 57.48 434.29, 72.50 437.50 C 101.27 446.33, 130.24 451.27, 159.50 455.50 C 169.77 452.21, 202.67 453.69, 186.50 441.50 C 171.60 434.37, 160.18 427.02, 146.50 421.50 C 137.59 402.03, 169.42 401.89, 165.50 384.50 C 163.86 374.61, 175.37 369.71, 173.50 362.50 C 167.08 355.68, 159.05 349.96, 152.50 344.50 C 139.40 331.39, 126.99 316.65, 116.50 302.50 C 112.52 294.22, 103.20 289.14, 102.50 280.50 C 107.58 269.90, 96.59 267.26, 90.50 263.50 C 75.88 253.92, 62.06 245.81, 47.50 239.50 C 31.58 233.93, 20.77 219.42, 3.50 220.50 Z" fill="rgb(75.05292978031217,94.06557736593925,25.20550498958219)" stroke="rgb(75.05292978031217,94.06557736593925,25.20550498958219)" stroke-width="1" />
<path d="M 622.50 136.50 C 610.17 144.14, 590.86 139.60, 594.50 159.50 C 590.79 171.26, 579.91 162.02, 585.50 154.50 C 589.12 144.05, 582.74 141.50, 574.50 144.50 C 559.32 147.92, 544.42 149.60, 532.50 158.50 C 518.61 168.98, 513.53 186.50, 504.50 199.50 C 489.66 227.46, 477.17 255.40, 467.50 284.50 C 461.10 297.25, 461.17 313.75, 465.50 326.50 C 477.81 316.36, 481.46 299.55, 490.50 286.50 C 507.76 256.89, 528.59 229.09, 547.50 202.50 C 556.73 188.49, 570.81 174.77, 581.50 163.50 C 578.68 177.52, 561.30 190.07, 553.50 203.50 C 532.42 231.77, 512.77 259.23, 497.50 288.50 C 488.18 302.95, 482.73 317.60, 475.50 331.50 C 471.49 338.17, 468.53 345.90, 472.50 352.50 C 479.69 359.12, 483.60 344.78, 488.50 340.50 C 507.71 311.04, 527.73 282.90, 549.50 255.50 C 561.10 241.92, 571.18 229.87, 583.50 216.50 C 589.21 208.31, 600.21 205.50, 600.50 196.50 C 603.14 190.52, 600.02 175.94, 608.50 178.50 C 611.87 185.53, 611.99 193.03, 610.50 199.50 C 608.14 210.66, 597.24 203.40, 594.50 213.50 C 581.03 226.65, 570.71 239.19, 559.50 252.50 C 537.50 280.95, 517.04 308.62, 499.50 337.50 C 494.90 349.30, 468.93 370.36, 486.50 375.50 C 502.06 371.51, 518.81 372.83, 529.50 359.50 C 543.02 347.13, 560.15 340.54, 568.50 325.50 C 576.33 310.15, 584.34 296.30, 592.50 282.50 C 607.88 252.97, 623.78 225.06, 640.50 197.50 C 649.63 183.11, 663.32 172.02, 661.50 154.50 C 656.85 137.70, 638.68 135.73, 623.50 136.50 Z" fill="rgb(87.20248580130051,105.40295497571816,36.90007408017121)" stroke="rgb(87.20248580130051,105.40295497571816,36.90007408017121)" stroke-width="1" />
<path d="M 797.50 85.50 C 780.73 100.13, 771.42 120.32, 754.50 136.50 C 743.17 154.57, 716.24 166.99, 722.50 188.50 C 722.68 210.00, 707.28 224.05, 702.50 242.50 C 703.28 250.45, 718.31 241.68, 724.50 244.50 C 738.80 240.83, 740.97 257.35, 726.50 257.50 C 706.00 261.54, 687.24 269.92, 673.50 284.50 C 660.75 303.34, 649.21 321.14, 633.50 336.50 C 618.10 351.71, 604.14 367.81, 586.50 380.50 C 576.99 387.89, 568.26 393.74, 559.50 399.50 C 554.12 408.06, 561.74 420.73, 553.50 426.50 C 548.02 434.04, 543.80 449.00, 557.50 443.50 C 567.51 442.33, 576.02 439.95, 584.50 437.50 C 604.97 432.20, 621.46 423.15, 637.50 410.50 C 674.89 378.46, 700.69 340.55, 722.50 302.50 C 741.98 267.83, 753.60 231.31, 764.50 194.50 C 774.81 176.65, 781.76 158.41, 789.50 140.50 C 799.13 124.25, 799.10 104.99, 798.50 85.50 Z" fill="rgb(139.18971591334983,151.16887789521024,120.34884941158833)" stroke="rgb(139.18971591334983,151.16887789521024,120.34884941158833)" stroke-width="1" />
<path d="M 2.50 413.50 C -2.13 431.37, 1.80 455.28, 0.50 475.50 C 0.50 497.50, 0.50 518.50, 0.50 539.50 C 4.87 548.76, -4.39 566.14, 7.50 568.50 C 18.42 571.83, 28.97 573.64, 39.50 575.50 C 61.29 581.82, 85.57 579.69, 104.50 590.50 C 116.28 597.96, 128.26 595.24, 131.50 581.50 C 135.98 570.50, 139.11 559.95, 142.50 549.50 C 148.06 539.36, 147.73 527.79, 150.50 517.50 C 148.91 506.61, 129.85 512.17, 123.50 515.50 C 112.35 520.98, 99.77 521.82, 97.50 533.50 C 90.26 538.45, 75.56 537.30, 67.50 531.50 C 52.31 519.34, 76.97 519.62, 84.50 517.50 C 98.93 518.16, 103.49 501.57, 115.50 501.50 C 127.13 501.60, 137.07 498.44, 145.50 492.50 C 159.46 491.24, 169.02 480.66, 149.50 482.50 C 137.78 481.91, 128.28 484.25, 117.50 483.50 C 114.37 500.48, 101.88 478.62, 91.50 486.50 C 78.75 486.19, 75.55 493.19, 62.50 492.50 C 50.27 488.33, 40.03 495.24, 30.50 498.50 C 12.71 498.68, 27.87 479.00, 38.50 480.50 C 49.72 480.51, 60.97 480.35, 71.50 478.50 C 82.64 476.37, 93.46 475.88, 103.50 473.50 C 110.63 457.43, 124.15 473.16, 134.50 467.50 C 144.61 465.49, 160.96 468.47, 163.50 460.50 C 153.23 457.68, 142.66 456.60, 132.50 454.50 C 110.04 449.94, 88.43 446.75, 68.50 439.50 C 46.27 430.57, 25.43 420.71, 3.50 413.50 Z" fill="rgb(40.90725969987833,45.325807759902666,31.947951872380695)" stroke="rgb(40.90725969987833,45.325807759902666,31.947951872380695)" stroke-width="1" />
<path d="M 797.50 407.50 C 785.95 411.99, 774.37 416.38, 763.50 422.50 C 748.97 426.21, 742.73 435.61, 731.50 441.50 C 706.93 451.78, 684.21 463.13, 661.50 474.50 C 652.53 477.87, 627.58 493.03, 648.50 495.50 C 661.40 496.13, 672.44 498.84, 683.50 501.50 C 679.77 507.66, 651.97 503.15, 659.50 509.50 C 672.81 515.94, 682.60 527.49, 695.50 531.50 C 719.90 543.53, 741.81 558.18, 765.50 568.50 C 777.57 572.65, 790.13 586.21, 799.50 584.50 C 799.50 571.83, 799.50 560.17, 799.50 548.50 C 798.85 500.96, 800.80 453.35, 798.50 407.50 Z" fill="rgb(166.2842500507408,175.85569311954535,174.10330830119747)" stroke="rgb(166.2842500507408,175.85569311954535,174.10330830119747)" stroke-width="1" />
<path d="M 3.50 122.50 C -2.41 138.56, 3.60 162.00, 1.50 181.50 C 2.08 192.40, 0.29 203.28, 2.50 212.50 C 9.32 219.27, 21.62 217.76, 31.50 218.50 C 53.17 217.31, 72.28 224.90, 92.50 221.50 C 115.99 220.36, 135.58 212.25, 154.50 202.50 C 164.32 195.55, 177.43 192.84, 182.50 182.50 C 178.51 171.77, 176.90 161.06, 172.50 151.50 C 167.85 143.06, 173.28 124.91, 159.50 127.50 C 148.37 128.86, 138.25 130.22, 128.50 132.50 C 107.92 136.00, 87.90 138.42, 66.50 137.50 C 43.53 136.79, 24.43 129.15, 4.50 123.50 Z" fill="rgb(31.510117291995336,34.01673640167364,28.554839152205226)" stroke="rgb(31.510117291995336,34.01673640167364,28.554839152205226)" stroke-width="1" />
<path d="M 183.50 187.50 C 160.39 202.60, 136.21 215.11, 109.50 221.50 C 84.06 226.44, 58.61 221.45, 34.50 219.50 C 29.52 221.18, 19.10 219.55, 18.50 221.50 C 25.20 226.22, 31.73 227.96, 37.50 231.50 C 50.12 239.88, 63.60 243.80, 75.50 251.50 C 88.32 255.38, 97.75 270.75, 111.50 267.50 C 120.64 277.85, 132.69 284.55, 145.50 290.50 C 157.45 299.71, 169.18 307.01, 182.50 310.50 C 184.40 304.74, 192.67 296.31, 195.50 305.50 C 195.61 313.53, 200.16 318.06, 207.50 317.50 C 214.92 313.60, 203.84 306.10, 206.50 301.50 C 215.26 301.06, 215.30 311.82, 221.50 314.50 C 232.93 322.75, 241.82 339.62, 256.50 336.50 C 261.09 321.38, 245.78 311.77, 242.50 299.50 C 239.43 284.43, 226.83 276.06, 222.50 262.50 C 217.27 248.43, 211.64 235.95, 203.50 224.50 C 195.70 212.03, 192.16 197.64, 184.50 187.50 Z" fill="rgb(133.93174984966927,148.69618159951895,128.19843656043295)" stroke="rgb(133.93174984966927,148.69618159951895,128.19843656043295)" stroke-width="1" />
<path d="M 251.50 169.50 C 241.02 170.96, 230.20 171.57, 219.50 172.50 C 204.51 171.85, 210.20 201.50, 200.50 183.50 C 190.81 184.86, 206.08 208.89, 206.50 206.50 C 207.50 201.96, 203.25 191.27, 208.50 191.50 C 210.04 197.71, 208.88 203.87, 212.50 207.50 C 215.52 232.56, 223.64 255.35, 239.50 272.50 C 251.90 273.77, 255.05 289.97, 261.50 299.50 C 271.19 305.88, 274.68 324.37, 286.50 324.50 C 302.40 322.79, 305.21 311.76, 296.50 300.50 C 292.38 293.86, 282.38 264.41, 291.50 280.50 C 299.11 291.53, 304.08 303.23, 312.50 313.50 C 325.40 318.45, 333.65 309.97, 328.50 296.50 C 323.54 271.27, 313.33 249.64, 299.50 229.50 C 292.17 217.36, 286.37 206.00, 278.50 195.50 C 267.20 188.42, 265.03 173.36, 252.50 169.50 Z" fill="rgb(149.72711461003294,162.9891065543757,149.26830831197364)" stroke="rgb(149.72711461003294,162.9891065543757,149.26830831197364)" stroke-width="1" />
<path d="M 607.50 0.50 C 617.80 19.22, 638.22 35.88, 655.50 55.50 C 667.37 62.46, 669.11 72.73, 667.50 85.50 C 670.57 89.06, 673.20 90.76, 673.50 97.50 C 671.83 106.73, 667.13 92.30, 669.50 103.50 C 666.04 122.09, 679.65 115.53, 676.50 101.50 C 671.88 81.76, 688.04 91.19, 696.50 98.50 C 697.38 110.25, 677.86 120.87, 689.50 126.50 C 702.42 123.77, 711.35 111.43, 716.50 101.50 C 730.78 80.31, 744.56 60.32, 751.50 37.50 C 756.03 26.25, 760.81 16.51, 762.50 5.50 C 761.78 -4.11, 744.68 2.65, 736.50 0.50 C 693.17 0.50, 650.83 0.50, 608.50 0.50 Z" fill="rgb(42.81147859922179,47.253696498054474,25.91536964980545)" stroke="rgb(42.81147859922179,47.253696498054474,25.91536964980545)" stroke-width="1" />
<path d="M 667.50 155.50 C 660.97 171.27, 648.13 189.48, 637.50 205.50 C 626.74 224.27, 615.73 241.52, 606.50 259.50 C 598.24 278.41, 586.09 294.72, 577.50 312.50 C 568.85 326.59, 572.30 324.24, 583.50 319.50 C 592.94 312.98, 600.80 307.60, 609.50 301.50 C 627.30 289.87, 644.97 280.35, 662.50 270.50 C 682.58 264.06, 699.64 253.87, 703.50 232.50 C 711.76 216.06, 724.98 198.31, 718.50 179.50 C 708.93 161.75, 686.67 158.48, 668.50 155.50 Z" fill="rgb(48.88809880239521,56.69797904191617,26.96556886227545)" stroke="rgb(48.88809880239521,56.69797904191617,26.96556886227545)" stroke-width="1" />
<path d="M 679.50 747.50 C 670.29 751.25, 681.23 762.94, 672.50 767.50 C 661.45 768.24, 660.78 778.29, 654.50 784.50 C 643.97 798.26, 629.97 814.49, 622.50 823.50 C 617.72 831.85, 618.91 838.92, 621.50 846.50 C 625.89 852.47, 621.00 866.15, 630.50 864.50 C 646.50 864.50, 661.50 864.50, 676.50 864.50 C 692.17 864.50, 706.83 864.50, 721.50 864.50 C 742.79 868.66, 739.59 842.25, 749.50 831.50 C 750.28 813.85, 729.66 803.66, 720.50 788.50 C 705.79 774.95, 696.71 754.33, 680.50 747.50 Z" fill="rgb(30.540857935084,31.41200456695482,30.236176806393736)" stroke="rgb(30.540857935084,31.41200456695482,30.236176806393736)" stroke-width="1" />
<path d="M 735.50 288.50 C 714.54 322.48, 693.69 356.51, 665.50 387.50 C 656.85 396.22, 650.83 403.35, 642.50 410.50 C 634.57 416.14, 625.74 428.73, 640.50 423.50 C 658.94 416.37, 674.59 405.92, 691.50 398.50 C 724.36 382.95, 755.94 367.71, 792.50 364.50 C 800.60 354.95, 803.97 325.85, 787.50 320.50 C 769.09 311.96, 753.28 299.56, 736.50 289.50 Z" fill="rgb(41.668430082928225,43.47283385759222,35.94809837003145)" stroke="rgb(41.668430082928225,43.47283385759222,35.94809837003145)" stroke-width="1" />
<path d="M 669.50 155.50 C 659.55 160.49, 660.81 178.91, 650.50 187.50 C 639.27 198.93, 635.79 212.92, 626.50 224.50 C 620.82 230.06, 620.20 236.71, 617.50 242.50 C 623.58 244.04, 630.38 246.76, 634.50 253.50 C 646.49 261.87, 656.88 280.55, 670.50 266.50 C 684.26 262.19, 696.72 255.98, 699.50 241.50 C 704.22 227.64, 713.21 216.54, 717.50 203.50 C 721.30 190.85, 722.84 173.89, 708.50 168.50 C 696.34 160.99, 684.27 156.69, 670.50 156.50 Z" fill="rgb(41.72193017926944,46.12589297749023,27.428898773419597)" stroke="rgb(41.72193017926944,46.12589297749023,27.428898773419597)" stroke-width="1" />
<path d="M 790.50 366.50 C 753.13 372.31, 719.02 385.99, 686.50 403.50 C 668.09 412.64, 650.55 421.48, 633.50 431.50 C 623.53 436.96, 615.86 444.57, 607.50 450.50 C 611.04 455.91, 623.38 450.21, 630.50 449.50 C 666.39 444.04, 699.50 434.27, 735.50 431.50 C 754.39 425.52, 770.73 415.78, 788.50 409.50 C 800.81 408.05, 799.29 397.14, 798.50 388.50 C 797.05 380.06, 803.02 365.39, 791.50 366.50 Z" fill="rgb(79.6728811128639,94.59988527176252,38.865050910655384)" stroke="rgb(79.6728811128639,94.59988527176252,38.865050910655384)" stroke-width="1" />
<path d="M 0.50 472.50 C 0.50 502.50, 0.50 532.50, 0.50 562.50 C 9.77 573.74, 28.81 572.24, 42.50 576.50 C 58.50 579.17, 73.57 581.67, 88.50 584.50 C 97.89 583.82, 102.82 591.47, 110.50 592.50 C 118.66 598.55, 128.77 591.52, 121.50 583.50 C 107.79 568.09, 96.37 552.26, 80.50 541.50 C 63.58 532.60, 55.03 515.39, 39.50 505.50 C 34.69 497.02, 17.84 501.56, 21.50 490.50 C 17.73 482.04, 9.52 474.32, 1.50 472.50 Z" fill="rgb(29.17636761487965,30.14733770970095,28.32035010940919)" stroke="rgb(29.17636761487965,30.14733770970095,28.32035010940919)" stroke-width="1" />
<path d="M 315.50 125.50 C 299.60 130.20, 284.15 136.02, 266.50 136.50 C 257.75 139.27, 248.99 135.85, 241.50 137.50 C 241.54 144.81, 250.09 155.08, 258.50 156.50 C 268.27 157.95, 274.04 167.73, 276.50 175.50 C 275.89 186.35, 277.97 193.54, 285.50 201.50 C 295.65 219.52, 305.85 236.10, 316.50 252.50 C 321.05 261.00, 323.41 269.40, 326.50 277.50 C 329.81 291.90, 338.29 289.58, 334.50 276.50 C 334.00 258.90, 333.02 242.51, 333.50 225.50 C 334.17 207.28, 332.46 191.04, 331.50 174.50 C 329.66 155.52, 329.65 137.42, 316.50 125.50 Z" fill="rgb(35.223190147191346,38.12511264644037,32.15890657855212)" stroke="rgb(35.223190147191346,38.12511264644037,32.15890657855212)" stroke-width="1" />
<path d="M 596.50 657.50 C 602.87 665.63, 610.68 674.34, 619.50 680.50 C 628.16 688.62, 637.30 695.34, 647.50 701.50 C 664.33 701.25, 660.04 718.10, 668.50 726.50 C 680.98 736.36, 689.46 748.68, 698.50 759.50 C 718.04 781.63, 736.25 806.03, 756.50 824.50 C 767.85 833.54, 771.56 846.52, 779.50 856.50 C 784.54 869.35, 803.47 866.74, 797.50 851.50 C 797.21 839.84, 797.92 827.90, 797.50 818.50 C 800.58 803.11, 793.59 795.28, 781.50 791.50 C 757.52 780.00, 733.31 769.31, 715.50 747.50 C 694.02 726.15, 671.78 713.85, 654.50 694.50 C 643.48 688.90, 637.27 677.41, 627.50 673.50 C 620.58 664.01, 608.40 661.83, 597.50 657.50 Z" fill="rgb(60.88982338099243,68.22708158116063,28.216148023549202)" stroke="rgb(60.88982338099243,68.22708158116063,28.216148023549202)" stroke-width="1" />
<path d="M 540.50 659.50 C 545.30 679.44, 550.73 698.46, 556.50 718.50 C 559.61 728.43, 556.89 739.77, 560.50 748.50 C 564.38 759.55, 566.54 765.11, 566.50 777.50 C 568.03 789.12, 565.60 797.25, 564.50 807.50 C 564.51 818.33, 584.12 830.85, 566.50 835.50 C 562.02 844.13, 555.35 858.39, 558.50 864.50 C 569.50 864.50, 579.50 864.50, 589.50 864.50 C 600.17 864.50, 609.83 864.50, 619.50 864.50 C 627.53 860.27, 618.60 844.94, 616.50 837.50 C 612.58 826.60, 607.97 816.99, 605.50 806.50 C 597.27 796.42, 589.45 787.59, 589.50 775.50 C 583.99 754.16, 574.55 735.45, 570.50 714.50 C 565.79 703.38, 565.28 691.93, 557.50 683.50 C 558.45 672.77, 551.35 661.91, 541.50 659.50 Z" fill="rgb(31.266583747927033,33.00331674958541,29.13391376451078)" stroke="rgb(31.266583747927033,33.00331674958541,29.13391376451078)" stroke-width="1" />
<path d="M 417.50 0.50 C 420.85 17.04, 428.00 32.02, 431.50 48.50 C 433.87 57.57, 437.70 64.61, 439.50 72.50 C 441.10 82.76, 442.54 91.86, 450.50 81.50 C 456.19 76.43, 464.64 68.86, 461.50 60.50 C 458.86 47.75, 469.73 44.75, 474.50 54.50 C 479.87 63.49, 476.17 72.06, 473.50 79.50 C 465.35 79.88, 453.15 95.36, 465.50 95.50 C 475.74 99.19, 481.58 92.03, 484.50 84.50 C 487.39 72.46, 502.54 77.02, 502.50 68.50 C 507.07 51.17, 505.11 34.11, 501.50 18.50 C 506.61 -5.21, 484.19 0.98, 468.50 0.50 C 451.17 0.50, 434.83 0.50, 418.50 0.50 Z" fill="rgb(54.502414231257944,70.54637865311308,22.61423125794155)" stroke="rgb(54.502414231257944,70.54637865311308,22.61423125794155)" stroke-width="1" />
<path d="M 795.50 487.50 C 768.96 496.01, 743.63 507.41, 716.50 514.50 C 706.49 519.00, 674.92 523.37, 696.50 531.50 C 710.75 537.89, 723.47 545.58, 736.50 552.50 C 751.20 558.49, 763.53 566.77, 776.50 573.50 C 783.83 577.85, 790.13 581.26, 796.50 584.50 C 801.16 581.89, 798.86 573.33, 799.50 567.50 C 798.85 540.21, 800.44 511.46, 796.50 487.50 Z" fill="rgb(167.9455333911535,176.86366001734606,178.71691240242845)" stroke="rgb(167.9455333911535,176.86366001734606,178.71691240242845)" stroke-width="1" />
<path d="M 797.50 84.50 C 775.34 109.51, 753.45 140.34, 727.50 166.50 C 716.73 179.15, 727.62 196.45, 718.50 209.50 C 715.91 217.81, 709.52 223.54, 708.50 231.50 C 702.80 242.24, 723.15 238.72, 713.50 243.50 C 731.64 241.73, 741.52 221.84, 751.50 210.50 C 763.44 200.60, 768.38 185.54, 776.50 171.50 C 788.69 143.85, 802.81 117.99, 798.50 84.50 Z" fill="rgb(52.73052008143624,59.038867295946694,32.11586155839348)" stroke="rgb(52.73052008143624,59.038867295946694,32.11586155839348)" stroke-width="1" />
<path d="M 673.50 718.50 C 660.89 722.54, 675.33 720.37, 675.50 731.50 C 682.67 739.76, 688.87 747.01, 694.50 754.50 C 708.20 770.48, 720.76 785.53, 733.50 800.50 C 745.48 816.39, 762.50 827.86, 770.50 843.50 C 776.55 850.54, 777.61 861.57, 786.50 864.50 C 797.97 867.64, 797.05 859.39, 796.50 851.50 C 795.71 835.10, 797.64 819.34, 797.50 805.50 C 794.24 795.61, 794.07 794.71, 784.50 795.50 C 776.50 789.69, 769.02 786.04, 761.50 782.50 C 728.28 768.25, 704.33 731.89, 674.50 718.50 Z" fill="rgb(65.18835192069393,72.3358116480793,31.753407682775713)" stroke="rgb(65.18835192069393,72.3358116480793,31.753407682775713)" stroke-width="1" />
<path d="M 797.50 134.50 C 786.95 144.77, 785.59 161.25, 777.50 173.50 C 770.22 187.17, 763.53 200.07, 760.50 214.50 C 755.47 228.68, 753.94 243.32, 746.50 255.50 C 738.91 273.15, 764.84 277.96, 774.50 285.50 C 788.10 280.37, 804.46 276.66, 799.50 258.50 C 799.50 244.17, 799.50 230.83, 799.50 217.50 C 799.64 189.30, 799.62 162.17, 798.50 135.50 Z" fill="rgb(40.074766355140184,41.654205607476634,30.934579439252335)" stroke="rgb(40.074766355140184,41.654205607476634,30.934579439252335)" stroke-width="1" />
<path d="M 797.50 134.50 C 787.16 144.72, 784.98 160.72, 778.50 173.50 C 771.02 187.36, 762.94 199.56, 761.50 214.50 C 755.10 228.11, 754.70 243.22, 747.50 255.50 C 738.47 272.11, 764.12 278.62, 774.50 284.50 C 788.41 280.26, 803.71 275.88, 798.50 257.50 C 797.79 242.74, 799.55 229.99, 799.50 216.50 C 799.98 188.16, 799.00 161.43, 798.50 134.50 Z" fill="rgb(39.55904395381811,39.88130443589224,35.365201539396395)" stroke="rgb(39.55904395381811,39.88130443589224,35.365201539396395)" stroke-width="1" />
<path d="M 122.50 0.50 C 127.53 14.27, 137.05 27.40, 152.50 29.50 C 166.72 32.43, 180.13 34.91, 193.50 37.50 C 207.79 40.60, 221.43 42.87, 234.50 46.50 C 245.26 45.85, 270.45 61.28, 268.50 47.50 C 258.81 33.92, 252.51 19.94, 242.50 7.50 C 236.91 -5.02, 217.63 2.78, 205.50 0.50 C 177.50 0.50, 150.50 0.50, 123.50 0.50 Z" fill="rgb(176.02710592160133,185.78440366972478,183.459341117598)" stroke="rgb(176.02710592160133,185.78440366972478,183.459341117598)" stroke-width="1" />
<path d="M 699.50 749.50 C 688.61 752.35, 710.95 770.36, 716.50 779.50 C 727.98 792.80, 737.36 804.38, 748.50 816.50 C 759.95 826.66, 768.94 837.49, 775.50 850.50 C 777.96 863.92, 801.86 872.90, 797.50 853.50 C 798.63 840.77, 797.26 829.00, 798.50 816.50 C 802.66 798.09, 783.53 796.69, 773.50 789.50 C 760.16 782.66, 748.22 775.85, 736.50 768.50 C 723.64 758.94, 717.02 745.67, 700.50 749.50 Z" fill="rgb(69.16000923574232,78.51858693142461,28.17155391364581)" stroke="rgb(69.16000923574232,78.51858693142461,28.17155391364581)" stroke-width="1" />
<path d="M 504.50 784.50 C 480.35 796.03, 459.74 813.33, 435.50 825.50 C 423.93 835.26, 411.22 847.78, 400.50 850.50 C 386.47 864.47, 400.74 866.37, 414.50 864.50 C 426.83 864.50, 438.17 864.50, 449.50 864.50 C 456.23 852.17, 469.18 843.11, 480.50 835.50 C 491.76 827.00, 504.57 819.72, 515.50 811.50 C 537.59 806.66, 515.27 789.39, 505.50 784.50 Z" fill="rgb(30.219437219200756,30.91936628044455,28.68881532277134)" stroke="rgb(30.219437219200756,30.91936628044455,28.68881532277134)" stroke-width="1" />
<path d="M 668.50 281.50 C 643.85 294.81, 619.02 310.93, 597.50 329.50 C 586.17 338.31, 574.36 348.01, 563.50 356.50 C 551.35 367.32, 535.81 375.95, 551.50 388.50 C 558.54 406.11, 575.87 385.23, 585.50 379.50 C 598.37 368.58, 608.21 360.33, 618.50 349.50 C 628.43 338.73, 641.90 329.38, 649.50 316.50 C 656.65 305.08, 671.41 290.54, 669.50 281.50 Z" fill="rgb(44.501078050884004,51.32384648555412,28.589047003018543)" stroke="rgb(44.501078050884004,51.32384648555412,28.589047003018543)" stroke-width="1" />
<path d="M 622.50 829.50 C 615.92 839.54, 624.73 856.22, 627.50 864.50 C 641.17 864.50, 653.83 864.50, 666.50 864.50 C 680.17 864.50, 692.83 864.50, 705.50 864.50 C 718.92 862.97, 736.97 870.09, 739.50 854.50 C 742.38 847.73, 743.52 841.23, 746.50 835.50 C 747.55 830.79, 740.96 843.80, 734.50 837.50 C 735.67 826.74, 711.08 835.72, 701.50 833.50 C 674.59 832.75, 648.58 832.25, 623.50 829.50 Z" fill="rgb(32.28560470467911,33.72973664024546,32.06699053950396)" stroke="rgb(32.28560470467911,33.72973664024546,32.06699053950396)" stroke-width="1" />
<path d="M 528.50 805.50 C 510.96 819.27, 488.74 826.90, 472.50 844.50 C 466.46 850.70, 447.86 867.83, 465.50 864.50 C 476.17 864.50, 485.83 864.50, 495.50 864.50 C 506.17 864.50, 515.83 864.50, 525.50 864.50 C 534.47 862.57, 551.35 869.81, 550.50 857.50 C 552.16 848.06, 560.83 835.71, 553.50 828.50 C 544.23 822.76, 541.74 807.69, 529.50 805.50 Z" fill="rgb(46.7563025210084,54.96953781512605,32.643119747899156)" stroke="rgb(46.7563025210084,54.96953781512605,32.643119747899156)" stroke-width="1" />
<path d="M 253.50 0.50 C 252.49 9.91, 265.79 16.80, 266.50 27.50 C 272.79 37.34, 274.64 49.81, 285.50 54.50 C 295.90 57.33, 305.01 60.87, 314.50 63.50 C 327.22 71.32, 332.17 60.10, 329.50 49.50 C 324.52 37.45, 332.12 31.72, 328.50 21.50 C 325.21 12.74, 327.04 -2.31, 313.50 0.50 C 293.17 0.50, 273.83 0.50, 254.50 0.50 Z" fill="rgb(123.89439303211758,138.5909090909091,121.36254763200871)" stroke="rgb(123.89439303211758,138.5909090909091,121.36254763200871)" stroke-width="1" />
<path d="M 598.50 71.50 C 586.21 70.93, 585.89 77.21, 590.50 87.50 C 592.90 97.42, 595.46 105.85, 597.50 114.50 C 601.94 121.33, 599.14 140.55, 609.50 136.50 C 619.05 134.42, 627.70 132.57, 637.50 133.50 C 656.42 137.12, 674.37 103.90, 654.50 92.50 C 636.75 81.81, 620.18 71.71, 599.50 71.50 Z" fill="rgb(66.30701754385964,71.39473684210526,34.24561403508772)" stroke="rgb(66.30701754385964,71.39473684210526,34.24561403508772)" stroke-width="1" />
<path d="M 597.50 71.50 C 584.16 86.85, 597.55 106.86, 599.50 123.50 C 601.16 133.51, 604.71 144.93, 615.50 136.50 C 623.80 132.10, 634.57 133.25, 642.50 134.50 C 652.77 134.76, 654.34 121.00, 662.50 116.50 C 665.67 105.86, 661.67 96.03, 652.50 91.50 C 635.38 81.09, 619.09 71.10, 598.50 71.50 Z" fill="rgb(40.37319644839068,42.60849056603774,36.652053274139845)" stroke="rgb(40.37319644839068,42.60849056603774,36.652053274139845)" stroke-width="1" />
<path d="M 586.50 787.50 C 576.77 791.73, 565.40 786.56, 567.50 801.50 C 563.79 812.46, 575.44 821.47, 573.50 831.50 C 563.62 836.56, 561.72 848.98, 559.50 858.50 C 553.62 869.07, 575.06 862.64, 581.50 864.50 C 592.17 864.50, 601.83 864.50, 611.50 864.50 C 627.93 868.70, 622.34 855.51, 620.50 846.50 C 611.17 825.28, 606.93 801.31, 587.50 787.50 Z" fill="rgb(35.71616395978345,38.4137664346481,29.757153905645787)" stroke="rgb(35.71616395978345,38.4137664346481,29.757153905645787)" stroke-width="1" />
<path d="M 177.50 365.50 C 167.69 371.33, 166.82 382.82, 166.50 393.50 C 178.71 397.32, 178.98 406.99, 176.50 417.50 C 196.46 422.88, 217.23 422.87, 236.50 426.50 C 244.63 427.30, 264.24 435.64, 260.50 423.50 C 256.57 411.34, 249.20 403.20, 238.50 398.50 C 217.92 387.28, 198.72 375.16, 178.50 365.50 Z" fill="rgb(41.24742268041237,47.19440353460972,32.79882179675994)" stroke="rgb(41.24742268041237,47.19440353460972,32.79882179675994)" stroke-width="1" />
<path d="M 190.50 503.50 C 181.62 504.66, 173.95 508.71, 164.50 508.50 C 150.73 506.97, 152.54 519.97, 150.50 528.50 C 148.02 538.72, 145.70 548.00, 141.50 556.50 C 140.31 564.11, 129.22 581.34, 140.50 580.50 C 158.64 566.62, 178.17 558.50, 196.50 547.50 C 210.11 544.47, 216.78 535.08, 203.50 526.50 C 197.38 519.45, 202.49 502.89, 191.50 503.50 Z" fill="rgb(33.671052631578945,36.80263157894737,25.289473684210527)" stroke="rgb(33.671052631578945,36.80263157894737,25.289473684210527)" stroke-width="1" />
<path d="M 189.50 503.50 C 180.76 506.12, 171.85 508.33, 162.50 509.50 C 149.96 509.05, 152.79 523.66, 150.50 531.50 C 148.67 542.26, 143.60 550.27, 141.50 559.50 C 137.43 566.78, 131.25 588.56, 144.50 576.50 C 161.30 564.30, 181.46 556.65, 198.50 546.50 C 214.02 543.38, 214.10 535.55, 204.50 526.50 C 197.58 519.12, 202.59 501.86, 190.50 503.50 Z" fill="rgb(36.56065885334178,39.81944884383909,34.95565410199556)" stroke="rgb(36.56065885334178,39.81944884383909,34.95565410199556)" stroke-width="1" />
<path d="M 605.50 0.50 C 611.42 16.30, 631.41 33.22, 647.50 46.50 C 654.27 53.85, 666.60 73.91, 670.50 56.50 C 672.30 45.53, 677.56 37.00, 680.50 27.50 C 683.01 17.28, 693.04 7.78, 693.50 0.50 C 683.17 0.50, 673.83 0.50, 664.50 0.50 C 644.50 0.50, 625.50 0.50, 606.50 0.50 Z" fill="rgb(39.761265580057525,42.93544263342921,26.400767018216683)" stroke="rgb(39.761265580057525,42.93544263342921,26.400767018216683)" stroke-width="1" />
<path d="M 556.50 0.50 C 558.02 11.86, 563.10 21.75, 568.50 31.50 C 572.18 42.63, 576.19 56.81, 586.50 60.50 C 602.73 77.35, 630.82 66.27, 650.50 72.50 C 671.54 74.23, 656.86 58.06, 648.50 50.50 C 640.20 38.70, 625.42 45.96, 615.50 41.50 C 602.99 37.33, 593.40 28.56, 583.50 20.50 C 576.39 9.99, 572.16 -3.65, 557.50 0.50 Z" fill="rgb(118.3,112.2,96.1)" stroke="rgb(118.3,112.2,96.1)" stroke-width="1" />
<path d="M 556.50 0.50 C 558.43 11.69, 563.14 21.73, 568.50 31.50 C 573.21 42.16, 575.75 57.04, 586.50 60.50 C 603.12 77.30, 631.30 66.57, 651.50 72.50 C 672.16 74.01, 656.37 58.40, 649.50 51.50 C 641.38 37.67, 627.23 46.53, 616.50 41.50 C 603.48 37.77, 593.56 28.96, 583.50 20.50 C 576.24 10.06, 572.26 -3.69, 557.50 0.50 Z" fill="rgb(78.625,73.72916666666667,59.604166666666664)" stroke="rgb(78.625,73.72916666666667,59.604166666666664)" stroke-width="1" />
<path d="M 556.50 0.50 C 556.78 12.37, 564.43 21.20, 568.50 31.50 C 575.65 40.97, 576.24 55.80, 586.50 59.50 C 602.97 76.20, 628.10 68.68, 650.50 70.50 C 671.16 72.86, 651.51 56.74, 646.50 49.50 C 638.10 40.93, 624.66 44.46, 614.50 41.50 C 602.64 36.03, 591.89 28.88, 583.50 19.50 C 576.94 8.40, 572.10 -3.57, 557.50 0.50 Z" fill="rgb(110.6421052631579,98.04868421052632,88.22368421052632)" stroke="rgb(110.6421052631579,98.04868421052632,88.22368421052632)" stroke-width="1" />
<path d="M 222.50 545.50 C 202.20 556.92, 179.48 566.25, 160.50 578.50 C 149.18 583.94, 135.47 597.64, 154.50 591.50 C 166.11 595.30, 172.49 609.16, 168.50 620.50 C 168.12 635.58, 187.12 626.15, 194.50 624.50 C 199.68 609.90, 197.35 608.77, 194.50 595.50 C 200.38 584.07, 211.28 577.16, 221.50 570.50 C 235.62 563.16, 236.54 550.33, 223.50 545.50 Z" fill="rgb(41.95400265369306,46.027863777089784,34.53693056169836)" stroke="rgb(41.95400265369306,46.027863777089784,34.53693056169836)" stroke-width="1" />
<path d="M 557.50 67.50 C 542.55 67.14, 541.88 73.36, 548.50 83.50 C 554.17 100.28, 538.21 96.20, 528.50 94.50 C 518.29 93.52, 502.80 82.68, 503.50 98.50 C 497.52 114.42, 515.48 113.78, 524.50 117.50 C 536.63 119.58, 545.62 126.83, 556.50 129.50 C 564.41 132.14, 585.92 143.32, 582.50 128.50 C 581.96 116.29, 576.33 107.18, 574.50 96.50 C 568.92 86.55, 569.12 70.13, 558.50 67.50 Z" fill="rgb(51.329918032786885,57.05532786885246,33.22540983606557)" stroke="rgb(51.329918032786885,57.05532786885246,33.22540983606557)" stroke-width="1" />
<path d="M 752.50 44.50 C 743.50 59.57, 737.73 76.63, 725.50 89.50 C 707.17 108.87, 741.81 105.09, 752.50 110.50 C 761.79 115.26, 767.01 121.81, 773.50 111.50 C 777.92 103.10, 788.29 96.11, 786.50 87.50 C 775.59 72.41, 766.85 52.68, 753.50 44.50 Z" fill="rgb(35.96750902527076,37.25740072202166,33.16209386281589)" stroke="rgb(35.96750902527076,37.25740072202166,33.16209386281589)" stroke-width="1" />
<path d="M 534.50 378.50 C 523.09 390.16, 502.07 398.43, 496.50 411.50 C 514.43 417.46, 508.81 441.87, 521.50 447.50 C 538.21 447.69, 552.46 433.51, 551.50 417.50 C 554.90 402.45, 552.58 380.66, 535.50 378.50 Z" fill="rgb(120.28947368421052,109.89473684210526,91.5)" stroke="rgb(120.28947368421052,109.89473684210526,91.5)" stroke-width="1" />
<path d="M 767.50 0.50 C 763.91 15.36, 751.66 32.97, 762.50 47.50 C 767.08 56.71, 774.29 63.92, 782.50 68.50 C 790.15 74.26, 801.98 81.05, 799.50 66.50 C 799.50 49.83, 799.50 34.17, 799.50 18.50 C 806.72 -5.72, 783.77 1.23, 768.50 0.50 Z" fill="rgb(38.470588235294116,38.92156862745098,35.07843137254902)" stroke="rgb(38.470588235294116,38.92156862745098,35.07843137254902)" stroke-width="1" />
<path d="M 551.50 68.50 C 538.58 69.69, 550.59 83.27, 547.50 92.50 C 537.78 96.79, 527.26 93.24, 519.50 88.50 C 506.29 84.82, 501.33 97.72, 505.50 106.50 C 511.25 115.63, 523.29 114.41, 532.50 116.50 C 543.35 119.34, 552.26 120.54, 560.50 126.50 C 569.09 128.49, 585.79 132.15, 579.50 118.50 C 574.55 108.26, 575.28 99.02, 570.50 89.50 C 565.54 80.79, 565.87 65.06, 552.50 68.50 Z" fill="rgb(72.96311146752205,84.12309542902968,51.47233360064154)" stroke="rgb(72.96311146752205,84.12309542902968,51.47233360064154)" stroke-width="1" />
<path d="M 767.50 0.50 C 764.40 16.97, 753.78 33.83, 762.50 48.50 C 766.76 57.83, 774.51 61.61, 780.50 67.50 C 787.43 71.66, 800.91 82.42, 798.50 67.50 C 800.82 51.32, 798.84 34.37, 799.50 18.50 C 806.72 -5.72, 783.77 1.23, 768.50 0.50 Z" fill="rgb(35.74434299325129,37.30170702659785,33.271139341008336)" stroke="rgb(35.74434299325129,37.30170702659785,33.271139341008336)" stroke-width="1" />
<path d="M 379.50 772.50 C 371.15 789.39, 376.91 814.82, 368.50 828.50 C 361.46 837.60, 359.32 851.29, 352.50 852.50 C 347.83 866.06, 349.54 865.07, 364.50 864.50 C 374.83 863.36, 387.95 868.52, 391.50 857.50 C 397.77 847.73, 394.01 837.62, 397.50 828.50 C 397.31 808.42, 395.90 783.76, 380.50 772.50 Z" fill="rgb(86.78688524590164,101.18152738904438,55.096761295481805)" stroke="rgb(86.78688524590164,101.18152738904438,55.096761295481805)" stroke-width="1" />
<path d="M 119.50 282.50 C 121.44 300.41, 140.81 316.84, 153.50 331.50 C 168.94 345.21, 183.12 363.22, 203.50 355.50 C 214.36 347.20, 197.95 340.63, 194.50 332.50 C 189.50 322.46, 181.20 314.88, 172.50 310.50 C 154.23 301.83, 139.26 287.58, 120.50 282.50 Z" fill="rgb(75.72584541062803,95.1123188405797,24.57729468599034)" stroke="rgb(75.72584541062803,95.1123188405797,24.57729468599034)" stroke-width="1" />
<path d="M 710.50 445.50 C 688.69 448.48, 667.30 452.50, 645.50 455.50 C 633.24 457.06, 623.03 460.17, 612.50 462.50 C 600.10 463.80, 586.05 466.33, 585.50 480.50 C 597.03 484.83, 607.62 489.02, 618.50 492.50 C 630.89 490.46, 639.57 479.18, 651.50 476.50 C 663.21 470.95, 673.70 465.83, 684.50 461.50 C 692.58 456.28, 715.12 449.29, 711.50 445.50 Z" fill="rgb(75.84525252525252,91.2670707070707,35.35919191919192)" stroke="rgb(75.84525252525252,91.2670707070707,35.35919191919192)" stroke-width="1" />
<path d="M 182.50 128.50 C 175.32 133.22, 183.78 145.53, 185.50 152.50 C 188.32 161.53, 187.66 174.81, 196.50 177.50 C 199.85 171.36, 204.55 152.31, 213.50 162.50 C 213.50 175.78, 229.49 168.37, 236.50 168.50 C 246.47 169.81, 259.81 168.22, 253.50 157.50 C 244.03 150.74, 240.53 136.61, 238.50 136.50 C 220.16 132.24, 201.74 130.59, 183.50 128.50 Z" fill="rgb(36.63421706710854,40.89229494614747,33.7046396023198)" stroke="rgb(36.63421706710854,40.89229494614747,33.7046396023198)" stroke-width="1" />
<path d="M 535.50 0.50 C 542.64 27.43, 562.93 48.92, 568.50 76.50 C 574.07 89.60, 577.64 102.11, 581.50 114.50 C 584.40 120.99, 584.63 127.59, 586.50 133.50 C 589.55 136.60, 602.52 145.93, 600.50 136.50 C 595.94 109.02, 587.01 84.35, 578.50 59.50 C 572.28 46.53, 567.74 33.87, 562.50 21.50 C 558.17 6.95, 553.92 -4.06, 536.50 0.50 Z" fill="rgb(112.2919863597613,120.64919011082694,60.23444160272805)" stroke="rgb(112.2919863597613,120.64919011082694,60.23444160272805)" stroke-width="1" />
<path d="M 591.50 29.50 C 586.87 37.46, 570.54 32.41, 571.50 39.50 C 576.40 47.89, 578.15 58.21, 587.50 60.50 C 601.21 74.96, 621.67 68.11, 638.50 70.50 C 646.65 72.12, 656.35 72.12, 663.50 70.50 C 659.47 60.41, 650.47 53.37, 643.50 45.50 C 623.79 44.43, 606.21 41.63, 592.50 29.50 Z" fill="rgb(113.66007735281478,101.14009454232918,95.84701332187366)" stroke="rgb(113.66007735281478,101.14009454232918,95.84701332187366)" stroke-width="1" />
<path d="M 589.50 793.50 C 580.27 804.31, 583.37 824.10, 581.50 838.50 C 579.23 847.48, 583.81 854.37, 581.50 861.50 C 585.66 867.01, 597.05 863.28, 603.50 864.50 C 610.25 862.92, 622.58 867.92, 623.50 861.50 C 621.77 852.59, 619.73 844.80, 616.50 837.50 C 607.47 822.81, 609.90 799.12, 590.50 793.50 Z" fill="rgb(34.64018058690745,36.29977426636569,29.872234762979684)" stroke="rgb(34.64018058690745,36.29977426636569,29.872234762979684)" stroke-width="1" />
<path d="M 477.50 0.50 C 478.39 18.27, 481.50 38.58, 480.50 58.50 C 481.21 69.80, 479.07 78.10, 480.50 87.50 C 486.18 88.01, 497.11 63.33, 502.50 81.50 C 498.80 96.86, 507.41 74.62, 505.50 67.50 C 505.50 56.83, 505.50 47.17, 505.50 37.50 C 503.12 27.60, 503.41 17.59, 501.50 8.50 C 503.35 -4.93, 486.29 2.50, 478.50 0.50 Z" fill="rgb(44.70995670995671,54.347282347282345,23.67965367965368)" stroke="rgb(44.70995670995671,54.347282347282345,23.67965367965368)" stroke-width="1" />
<path d="M 272.50 559.50 C 261.69 562.69, 255.67 574.92, 249.50 583.50 C 242.46 592.89, 238.54 604.27, 234.50 614.50 C 230.77 626.84, 227.35 634.88, 225.50 646.50 C 221.63 659.88, 225.31 668.98, 228.50 679.50 C 232.20 682.17, 229.18 670.96, 233.50 669.50 C 236.02 675.46, 240.17 668.32, 239.50 662.50 C 243.42 651.02, 245.50 639.78, 247.50 628.50 C 252.72 616.73, 254.29 604.45, 261.50 594.50 C 263.17 581.78, 277.37 571.89, 273.50 560.50 Z" fill="rgb(119.74038941587618,135.8032950574139,117.03344982526211)" stroke="rgb(119.74038941587618,135.8032950574139,117.03344982526211)" stroke-width="1" />
<path d="M 1.50 0.50 C 0.12 13.20, 16.88 7.95, 26.50 10.50 C 37.74 14.00, 49.73 13.28, 60.50 15.50 C 84.19 17.18, 103.98 25.84, 127.50 25.50 C 119.08 17.01, 119.15 -1.81, 104.50 0.50 C 92.50 0.50, 81.50 0.50, 70.50 0.50 C 47.17 0.50, 24.83 0.50, 2.50 0.50 Z" fill="rgb(126.39106145251397,139.78212290502793,119.28694768918233)" stroke="rgb(126.39106145251397,139.78212290502793,119.28694768918233)" stroke-width="1" />
<path d="M 587.50 335.50 C 575.52 344.41, 564.28 355.10, 552.50 364.50 C 531.78 374.47, 552.66 387.56, 556.50 398.50 C 570.69 392.03, 582.14 382.38, 593.50 372.50 C 608.21 361.04, 591.12 346.93, 588.50 335.50 Z" fill="rgb(48.181489141675286,60.9751809720786,26.249224405377458)" stroke="rgb(48.181489141675286,60.9751809720786,26.249224405377458)" stroke-width="1" />
<path d="M 535.50 16.50 C 527.89 26.91, 503.52 25.78, 508.50 41.50 C 504.54 60.44, 528.52 52.74, 535.50 65.50 C 545.28 68.23, 570.35 68.61, 558.50 53.50 C 552.55 40.03, 545.28 25.43, 536.50 16.50 Z" fill="rgb(46.728205128205126,53.454131054131054,30.708831908831907)" stroke="rgb(46.728205128205126,53.454131054131054,30.708831908831907)" stroke-width="1" />
<path d="M 731.50 432.50 C 693.56 437.71, 657.29 446.95, 619.50 452.50 C 599.61 455.96, 581.74 460.89, 562.50 462.50 C 552.73 464.05, 543.65 464.87, 534.50 465.50 C 526.80 464.89, 504.63 469.22, 519.50 473.50 C 559.47 471.79, 595.94 464.05, 632.50 456.50 C 652.18 453.52, 670.64 450.04, 689.50 447.50 C 698.88 444.66, 708.77 445.49, 717.50 443.50 C 724.58 444.31, 747.30 432.81, 732.50 432.50 Z" fill="rgb(168.68261114237478,177.4136184580754,170.40686550365785)" stroke="rgb(168.68261114237478,177.4136184580754,170.40686550365785)" stroke-width="1" />
<path d="M 134.50 531.50 C 121.16 531.73, 110.13 537.54, 97.50 539.50 C 86.23 550.59, 108.79 562.74, 116.50 573.50 C 127.75 596.54, 134.53 575.48, 137.50 562.50 C 140.50 553.04, 154.77 529.55, 135.50 531.50 Z" fill="rgb(57.43418013856813,64.28579676674364,39.30311778290993)" stroke="rgb(57.43418013856813,64.28579676674364,39.30311778290993)" stroke-width="1" />
<path d="M 491.50 466.50 C 470.06 472.57, 450.91 484.18, 427.50 485.50 C 417.02 487.80, 405.43 488.37, 395.50 486.50 C 376.69 481.28, 379.08 492.87, 394.50 494.50 C 417.86 497.83, 438.54 490.65, 459.50 487.50 C 472.14 489.12, 481.85 489.74, 492.50 485.50 C 504.41 480.78, 511.85 462.04, 492.50 466.50 Z" fill="rgb(107.78496868475992,87.62073764787752,84.36395267919276)" stroke="rgb(107.78496868475992,87.62073764787752,84.36395267919276)" stroke-width="1" />
<path d="M 54.50 489.50 C 43.41 494.26, 17.91 496.76, 40.50 504.50 C 53.08 516.64, 63.25 526.17, 79.50 519.50 C 91.99 519.43, 118.03 504.73, 95.50 499.50 C 80.77 497.92, 66.21 498.35, 55.50 489.50 Z" fill="rgb(32.813148788927336,33.57231833910035,31.2719723183391)" stroke="rgb(32.813148788927336,33.57231833910035,31.2719723183391)" stroke-width="1" />
<path d="M 534.50 378.50 C 523.39 387.31, 513.58 394.85, 502.50 403.50 C 487.78 413.97, 510.69 421.54, 519.50 414.50 C 531.14 413.95, 544.28 414.06, 552.50 407.50 C 553.91 394.54, 548.35 379.91, 535.50 378.50 Z" fill="rgb(131.8991660348749,109.6262319939348,78.05079605761941)" stroke="rgb(131.8991660348749,109.6262319939348,78.05079605761941)" stroke-width="1" />
<path d="M 761.50 0.50 C 755.09 25.26, 740.68 46.71, 729.50 69.50 C 723.40 82.25, 716.52 94.21, 702.50 95.50 C 694.12 97.73, 693.49 105.77, 692.50 111.50 C 692.70 119.48, 675.47 118.46, 682.50 124.50 C 696.04 133.94, 708.46 114.82, 714.50 105.50 C 721.31 92.66, 729.47 82.59, 736.50 70.50 C 748.59 48.43, 760.36 23.33, 762.50 0.50 Z" fill="rgb(74.64280274181264,81.16298552932216,31.985529322162986)" stroke="rgb(74.64280274181264,81.16298552932216,31.985529322162986)" stroke-width="1" />
<path d="M 513.50 581.50 C 495.50 580.24, 496.97 591.96, 511.50 599.50 C 523.13 609.27, 533.75 618.04, 544.50 626.50 C 560.33 606.50, 539.73 575.91, 514.50 581.50 Z" fill="rgb(119.08333333333333,116.375,85.83333333333333)" stroke="rgb(119.08333333333333,116.375,85.83333333333333)" stroke-width="1" />
<path d="M 515.50 581.50 C 499.53 579.92, 494.26 590.28, 510.50 598.50 C 522.22 608.03, 532.58 617.44, 543.50 625.50 C 560.77 610.51, 541.43 575.93, 516.50 581.50 Z" fill="rgb(112.0221882172915,95.8982402448355,67.02295332823259)" stroke="rgb(112.0221882172915,95.8982402448355,67.02295332823259)" stroke-width="1" />
<path d="M 487.50 498.50 C 491.53 510.84, 519.03 512.35, 531.50 522.50 C 549.27 530.24, 565.45 539.44, 582.50 546.50 C 615.94 563.66, 649.40 577.35, 683.50 589.50 C 689.17 579.07, 671.63 584.98, 666.50 578.50 C 657.65 574.81, 649.44 571.99, 641.50 568.50 C 623.83 560.84, 606.91 553.79, 590.50 545.50 C 555.89 529.36, 524.13 509.77, 488.50 499.50 Z" fill="rgb(131.390625,141.57421875,121.97265625)" stroke="rgb(131.390625,141.57421875,121.97265625)" stroke-width="1" />
<path d="M 710.50 328.50 C 692.38 345.81, 729.75 346.42, 740.50 353.50 C 757.11 358.10, 771.74 371.14, 789.50 364.50 C 805.88 365.32, 791.94 357.75, 785.50 355.50 C 776.34 352.88, 768.09 350.49, 760.50 346.50 C 743.83 339.70, 726.92 335.90, 711.50 328.50 Z" fill="rgb(43.383637807783956,46.40746624305004,31.618745035742652)" stroke="rgb(43.383637807783956,46.40746624305004,31.618745035742652)" stroke-width="1" />
<path d="M 550.50 407.50 C 542.27 414.92, 529.87 412.25, 519.50 414.50 C 499.47 413.86, 512.69 428.12, 514.50 438.50 C 515.25 454.18, 534.66 445.64, 541.50 440.50 C 550.96 431.40, 553.48 418.56, 551.50 407.50 Z" fill="rgb(110.33969769291966,94.18695306284805,62.38345266507557)" stroke="rgb(110.33969769291966,94.18695306284805,62.38345266507557)" stroke-width="1" />
<path d="M 694.50 10.50 C 680.88 26.31, 675.77 45.65, 669.50 64.50 C 666.59 81.89, 661.02 106.15, 671.50 118.50 C 683.33 105.34, 673.23 81.09, 680.50 65.50 C 681.44 45.57, 701.67 28.61, 695.50 10.50 Z" fill="rgb(62.6875,69.42023026315789,21.955592105263158)" stroke="rgb(62.6875,69.42023026315789,21.955592105263158)" stroke-width="1" />
<path d="M 508.50 55.50 C 508.77 66.22, 506.49 75.89, 506.50 86.50 C 516.48 90.69, 526.62 93.49, 537.50 94.50 C 553.82 100.34, 545.19 79.14, 542.50 72.50 C 531.79 63.85, 522.54 55.10, 509.50 55.50 Z" fill="rgb(50.48497156783103,57.77985377741673,25.095044679122665)" stroke="rgb(50.48497156783103,57.77985377741673,25.095044679122665)" stroke-width="1" />
<path d="M 740.50 268.50 C 728.59 283.95, 744.75 290.87, 756.50 299.50 C 770.10 307.99, 782.73 315.42, 795.50 322.50 C 808.51 313.74, 788.37 301.89, 778.50 295.50 C 766.18 284.63, 755.42 275.45, 741.50 268.50 Z" fill="rgb(82.10470779220779,89.07224025974025,29.853084415584416)" stroke="rgb(82.10470779220779,89.07224025974025,29.853084415584416)" stroke-width="1" />
<path d="M 572.50 0.50 C 583.16 22.35, 609.45 47.07, 634.50 39.50 C 626.80 28.30, 613.31 18.75, 604.50 7.50 C 601.85 -5.21, 583.60 2.90, 573.50 0.50 Z" fill="rgb(45.50534100246508,48.305669679539854,32.08052588331964)" stroke="rgb(45.50534100246508,48.305669679539854,32.08052588331964)" stroke-width="1" />
<path d="M 412.50 764.50 C 404.47 770.01, 386.21 771.17, 393.50 784.50 C 398.63 794.32, 395.59 809.13, 404.50 814.50 C 418.76 814.45, 423.45 802.24, 422.50 791.50 C 419.07 781.81, 426.32 764.90, 413.50 764.50 Z" fill="rgb(32.49752475247525,36.636138613861384,32.57755775577558)" stroke="rgb(32.49752475247525,36.636138613861384,32.57755775577558)" stroke-width="1" />
<path d="M 484.50 504.50 C 476.26 510.58, 455.71 518.04, 471.50 526.50 C 483.75 534.54, 493.02 542.10, 503.50 550.50 C 518.56 559.88, 506.49 536.87, 504.50 530.50 C 503.56 517.65, 498.44 506.13, 485.50 504.50 Z" fill="rgb(45.229718189581554,50.32963279248506,37.20580700256191)" stroke="rgb(45.229718189581554,50.32963279248506,37.20580700256191)" stroke-width="1" />
<path d="M 436.50 518.50 C 436.09 531.93, 456.34 552.21, 470.50 559.50 C 478.81 562.34, 488.43 563.18, 492.50 571.50 C 493.69 583.95, 505.06 578.03, 512.50 580.50 C 527.67 579.61, 515.48 573.99, 508.50 571.50 C 498.70 568.57, 492.07 561.39, 484.50 556.50 C 467.66 544.71, 454.41 527.69, 437.50 519.50 Z" fill="rgb(106.03643336529242,115.4352828379674,49.83509108341323)" stroke="rgb(106.03643336529242,115.4352828379674,49.83509108341323)" stroke-width="1" />
<path d="M 499.50 95.50 C 492.14 102.17, 481.85 112.35, 480.50 123.50 C 469.36 131.09, 471.53 145.66, 485.50 145.50 C 493.96 137.84, 514.87 147.22, 508.50 130.50 C 499.29 119.46, 499.00 108.73, 499.50 96.50 Z" fill="rgb(56.18443496801706,67.97014925373135,27.872068230277186)" stroke="rgb(56.18443496801706,67.97014925373135,27.872068230277186)" stroke-width="1" />
<path d="M 216.50 539.50 C 194.41 552.42, 170.52 561.00, 149.50 576.50 C 137.92 584.98, 124.47 594.03, 119.50 606.50 C 118.54 614.26, 109.78 611.39, 105.50 614.50 C 96.22 618.82, 108.45 623.37, 113.50 621.50 C 133.05 620.33, 122.01 612.23, 127.50 601.50 C 139.45 590.90, 150.30 581.08, 162.50 574.50 C 174.38 567.54, 185.65 562.52, 196.50 556.50 C 203.24 551.06, 232.81 543.11, 217.50 539.50 Z" fill="rgb(157.41107871720118,166.11078717201167,159.68707482993196)" stroke="rgb(157.41107871720118,166.11078717201167,159.68707482993196)" stroke-width="1" />
<path d="M 522.50 489.50 C 519.77 499.27, 546.47 494.11, 556.50 496.50 C 571.12 497.60, 584.95 498.22, 598.50 499.50 C 626.73 501.40, 653.30 504.92, 681.50 504.50 C 685.06 499.51, 658.71 500.18, 649.50 498.50 C 634.72 497.78, 621.52 495.64, 607.50 495.50 C 578.70 493.16, 551.64 490.03, 523.50 489.50 Z" fill="rgb(151.8538860103627,161.48497409326424,149.3502590673575)" stroke="rgb(151.8538860103627,161.48497409326424,149.3502590673575)" stroke-width="1" />
<path d="M 754.50 827.50 C 747.30 835.78, 745.78 846.42, 740.50 855.50 C 730.89 869.06, 749.06 863.22, 757.50 864.50 C 765.99 863.29, 788.27 868.65, 775.50 857.50 C 768.76 846.86, 765.96 835.59, 755.50 827.50 Z" fill="rgb(143.36496350364965,154.24713242961417,153.89259645464026)" stroke="rgb(143.36496350364965,154.24713242961417,153.89259645464026)" stroke-width="1" />
<path d="M 133.50 510.50 C 123.70 516.12, 112.44 518.21, 102.50 523.50 C 89.88 534.73, 105.71 540.97, 115.50 532.50 C 126.27 529.79, 138.35 532.70, 147.50 528.50 C 155.12 516.62, 148.08 506.48, 134.50 510.50 Z" fill="rgb(32.3438864628821,33.36135371179039,31.472707423580786)" stroke="rgb(32.3438864628821,33.36135371179039,31.472707423580786)" stroke-width="1" />
<path d="M 506.50 178.50 C 479.79 200.85, 466.81 234.65, 464.50 267.50 C 473.30 254.11, 478.31 238.15, 486.50 223.50 C 492.97 208.50, 504.99 189.44, 507.50 178.50 Z" fill="rgb(92.71676300578035,107.91329479768787,38.809248554913296)" stroke="rgb(92.71676300578035,107.91329479768787,38.809248554913296)" stroke-width="1" />
<path d="M 207.50 355.50 C 195.45 357.65, 184.42 361.49, 201.50 368.50 C 211.95 374.69, 222.04 379.34, 231.50 385.50 C 244.87 397.54, 247.40 380.80, 238.50 372.50 C 228.41 364.78, 221.12 353.71, 208.50 355.50 Z" fill="rgb(44.996587030716725,52.7872582480091,33.39362912400455)" stroke="rgb(44.996587030716725,52.7872582480091,33.39362912400455)" stroke-width="1" />
<path d="M 470.50 136.50 C 467.47 143.99, 485.02 152.38, 492.50 156.50 C 503.33 157.37, 514.87 170.00, 523.50 158.50 C 527.79 146.83, 511.59 141.69, 502.50 142.50 C 490.58 143.79, 482.72 136.80, 471.50 136.50 Z" fill="rgb(77.04567307692308,87.5829326923077,25.872596153846153)" stroke="rgb(77.04567307692308,87.5829326923077,25.872596153846153)" stroke-width="1" />
<path d="M 458.50 565.50 C 448.05 577.19, 457.24 604.51, 475.50 604.50 C 487.69 605.97, 494.14 596.15, 482.50 589.50 C 474.58 581.37, 468.71 570.74, 459.50 566.50 Z" fill="rgb(110.27272727272727,109.45454545454545,98.45454545454545)" stroke="rgb(110.27272727272727,109.45454545454545,98.45454545454545)" stroke-width="1" />
<path d="M 456.50 566.50 C 450.20 582.15, 458.54 606.56, 478.50 604.50 C 494.11 604.63, 487.81 592.41, 479.50 586.50 C 471.88 579.03, 467.59 568.07, 457.50 566.50 Z" fill="rgb(88.53390875462392,77.79778051787916,65.1553637484587)" stroke="rgb(88.53390875462392,77.79778051787916,65.1553637484587)" stroke-width="1" />
<path d="M 486.50 499.50 C 487.33 507.43, 507.00 509.25, 515.50 514.50 C 527.88 519.58, 538.44 525.64, 549.50 530.50 C 573.51 541.00, 595.34 553.35, 618.50 562.50 C 615.87 554.51, 596.88 553.91, 590.50 545.50 C 578.47 539.90, 567.42 534.35, 556.50 528.50 C 533.50 517.22, 511.80 505.22, 487.50 499.50 Z" fill="rgb(176.08521970705726,185.62183754993342,186.02529960053263)" stroke="rgb(176.08521970705726,185.62183754993342,186.02529960053263)" stroke-width="1" />
<path d="M 507.50 0.50 C 501.05 6.65, 506.62 15.74, 505.50 23.50 C 506.76 37.27, 519.02 23.84, 525.50 22.50 C 536.86 17.73, 538.14 9.39, 533.50 0.50 C 524.50 0.50, 516.50 0.50, 508.50 0.50 Z" fill="rgb(84.17391304347827,91.21739130434783,36.69565217391305)" stroke="rgb(84.17391304347827,91.21739130434783,36.69565217391305)" stroke-width="1" />
<path d="M 191.50 594.50 C 184.16 599.80, 175.40 605.02, 169.50 611.50 C 167.41 618.85, 167.97 633.24, 177.50 629.50 C 199.74 632.39, 200.36 606.19, 192.50 594.50 Z" fill="rgb(34.97905759162304,38.24738219895288,31.07068062827225)" stroke="rgb(34.97905759162304,38.24738219895288,31.07068062827225)" stroke-width="1" />
<path d="M 507.50 0.50 C 501.95 6.64, 505.76 16.21, 506.50 23.50 C 507.22 36.01, 521.10 23.45, 526.50 21.50 C 537.88 16.92, 536.12 9.40, 533.50 0.50 C 524.50 0.50, 516.50 0.50, 508.50 0.50 Z" fill="rgb(80.0199203187251,89.0929614873838,37.787516600265604)" stroke="rgb(80.0199203187251,89.0929614873838,37.787516600265604)" stroke-width="1" />
</svg>