<svg xmlns="http://www.w3.org/2000/svg" width="800" height="865" viewbox="0 0 800 865">
<path d="M 0.00 0.00 C 0.00 276.67, 0.00 553.33, 0.00 830.00 C 0.00 839.33, 0.00 847.67, 0.00 856.00 C -3.23 868.56, 11.12 862.55, 18.00 864.00 C 36.00 864.00, 53.00 864.00, 70.00 864.00 C 105.33 864.00, 139.67 864.00, 174.00 864.00 C 244.00 864.00, 313.00 864.00, 382.00 864.00 C 521.33 864.00, 659.67 864.00, 798.00 864.00 C 799.00 587.33, 799.00 310.67, 799.00 34.00 C 799.00 24.67, 799.00 16.33, 799.00 8.00 C 802.23 -4.56, 787.88 1.45, 781.00 0.00 C 763.00 0.00, 746.00 0.00, 729.00 0.00 C 693.67 0.00, 659.33 0.00, 625.00 0.00 C 555.00 0.00, 486.00 0.00, 417.00 0.00 C 277.67 0.00, 139.33 0.00, 1.00 0.00 Z" fill="rgb(69.9971975712284,76.25548808967773,48.02428771602055)" stroke="rgb(69.9971975712284,76.25548808967773,48.02428771602055)" stroke-width="1" />
<path d="M 2.00 0.00 C 1.88 23.95, 2.18 49.34, 2.00 72.00 C 1.46 96.79, -1.18 119.02, 0.00 144.00 C 0.00 193.67, 0.00 242.33, 0.00 291.00 C 0.00 316.00, 0.00 340.00, 0.00 364.00 C 1.07 376.50, -2.30 389.84, 2.00 400.00 C -1.29 408.94, 7.88 412.06, 9.00 415.00 C -3.43 419.69, 17.54 416.64, 12.00 425.00 C 1.82 431.48, 6.28 429.90, 12.00 433.00 C 15.85 443.23, 5.05 441.13, 5.00 445.00 C 18.66 442.24, 10.81 465.62, 13.00 474.00 C 15.89 487.02, 2.46 470.93, 3.00 478.00 C 3.00 485.00, 3.00 491.00, 3.00 497.00 C 3.00 510.00, 3.00 522.00, 3.00 534.00 C 3.36 547.13, -0.45 560.93, 4.00 570.00 C -4.98 580.37, 4.05 593.61, 2.00 606.00 C 2.00 631.00, 2.00 655.00, 2.00 679.00 C 2.00 728.84, 2.15 776.67, 2.00 826.00 C 2.00 838.67, 2.00 850.33, 2.00 862.00 C 11.67 865.33, 25.66 863.34, 37.00 864.00 C 62.33 864.00, 86.67 864.00, 111.00 864.00 C 160.67 864.00, 209.33 864.00, 258.00 864.00 C 283.00 864.00, 307.00 864.00, 331.00 864.00 C 343.67 864.00, 355.33 864.00, 367.00 864.00 C 383.05 867.36, 392.35 859.96, 393.00 846.00 C 387.99 822.27, 399.90 790.52, 382.00 775.00 C 368.86 755.63, 394.68 774.39, 395.00 786.00 C 397.29 799.41, 402.84 810.08, 402.00 823.00 C 398.97 836.22, 400.43 846.56, 396.00 859.00 C 391.09 868.38, 416.72 862.02, 425.00 864.00 C 436.93 864.46, 455.09 863.79, 457.00 862.00 C 456.90 851.50, 467.82 843.60, 478.00 833.00 C 491.48 827.63, 501.79 817.03, 514.00 811.00 C 520.59 810.89, 529.75 804.03, 525.00 813.00 C 529.79 808.32, 537.47 817.97, 540.00 821.00 C 543.33 837.17, 554.96 831.49, 554.00 848.00 C 549.49 851.07, 546.34 854.35, 547.00 862.00 C 551.69 865.31, 559.65 863.35, 565.00 864.00 C 590.00 864.00, 614.00 864.00, 638.00 864.00 C 644.84 861.49, 638.28 853.86, 643.00 849.00 C 646.80 854.00, 646.10 864.92, 647.00 854.00 C 648.62 849.55, 647.90 836.42, 651.00 840.00 C 658.06 840.20, 651.70 827.10, 662.00 831.00 C 666.78 830.72, 664.95 846.90, 669.00 836.00 C 665.78 827.55, 684.68 830.80, 675.00 835.00 C 668.09 846.33, 677.77 832.66, 680.00 840.00 C 679.76 831.53, 687.32 832.19, 689.00 827.00 C 691.79 817.95, 694.18 833.96, 701.00 830.00 C 710.58 830.24, 693.43 841.49, 702.00 838.00 C 711.37 844.04, 707.15 833.13, 712.00 830.00 C 726.01 831.10, 704.63 836.58, 715.00 841.00 C 718.10 837.91, 728.02 840.41, 729.00 847.00 C 722.12 857.58, 723.84 845.83, 720.00 844.00 C 713.83 849.89, 725.49 852.15, 725.00 857.00 C 714.99 854.91, 715.55 866.93, 724.00 864.00 C 741.03 871.77, 735.55 832.21, 744.00 851.00 C 750.74 852.25, 751.96 835.76, 756.00 843.00 C 758.69 849.16, 755.25 856.86, 758.00 862.00 C 763.57 866.54, 765.43 856.15, 759.00 855.00 C 763.58 849.48, 773.36 847.83, 770.00 857.00 C 769.51 868.19, 794.95 865.17, 798.00 861.00 C 796.65 837.89, 797.04 811.92, 797.00 787.00 C 797.00 737.67, 797.00 689.33, 797.00 641.00 C 796.94 615.29, 796.79 590.17, 798.00 568.00 C 796.51 543.15, 797.09 518.44, 797.00 494.00 C 797.00 469.00, 797.00 445.00, 797.00 421.00 C 797.00 408.33, 797.00 396.67, 797.00 385.00 C 801.69 365.90, 788.56 364.83, 781.00 356.00 C 774.35 356.68, 770.71 353.17, 764.00 351.00 C 753.95 351.93, 759.35 363.19, 760.00 362.00 C 763.58 364.30, 777.59 364.68, 768.00 370.00 C 761.39 372.61, 753.94 370.79, 749.00 375.00 C 725.50 382.27, 700.15 395.19, 679.00 405.00 C 670.96 411.27, 660.08 413.09, 649.00 415.00 C 644.84 426.98, 635.86 404.80, 646.00 412.00 C 646.69 406.56, 648.87 398.00, 654.00 398.00 C 660.46 386.97, 673.03 381.32, 676.00 371.00 C 689.74 363.48, 689.71 348.08, 701.00 339.00 C 705.34 335.32, 718.93 335.75, 712.00 333.00 C 705.04 330.55, 711.33 323.50, 714.00 319.00 C 719.19 303.77, 728.08 295.69, 736.00 286.00 C 747.38 287.18, 757.31 297.63, 767.00 306.00 C 761.43 309.04, 773.81 308.06, 778.00 310.00 C 788.44 312.25, 780.35 326.77, 790.00 322.00 C 801.67 317.92, 792.84 299.56, 798.00 291.00 C 797.81 284.07, 795.39 277.08, 794.00 273.00 C 791.45 280.03, 782.36 270.84, 786.00 278.00 C 777.96 293.69, 770.83 288.73, 758.00 281.00 C 753.67 274.33, 747.17 275.06, 742.00 270.00 C 739.19 264.11, 743.71 257.16, 747.00 252.00 C 749.51 238.88, 757.85 229.98, 757.00 217.00 C 762.95 204.05, 767.27 191.59, 772.00 182.00 C 779.51 169.81, 781.46 166.89, 787.00 154.00 C 797.48 144.34, 797.16 129.80, 798.00 118.00 C 797.48 105.41, 799.13 92.92, 797.00 82.00 C 787.02 72.45, 772.17 65.55, 766.00 53.00 C 759.25 40.44, 762.77 29.61, 761.00 18.00 C 769.31 4.95, 761.27 -4.27, 746.00 0.00 C 696.33 0.00, 647.67 0.00, 599.00 0.00 C 583.68 -6.45, 572.94 12.67, 590.00 14.00 C 597.38 16.32, 588.93 27.31, 599.00 26.00 C 607.76 25.13, 611.43 32.43, 608.00 38.00 C 612.45 34.56, 612.78 38.70, 620.00 38.00 C 624.39 41.55, 639.05 38.00, 635.00 43.00 C 629.83 44.82, 617.40 42.64, 622.00 47.00 C 634.88 44.72, 625.70 53.31, 634.00 52.00 C 639.67 54.20, 649.48 51.51, 648.00 59.00 C 647.87 69.64, 637.43 62.50, 634.00 65.00 C 618.57 67.69, 614.21 60.31, 601.00 63.00 C 594.83 52.26, 576.58 55.98, 580.00 38.00 C 561.85 47.16, 572.51 19.78, 569.00 13.00 C 584.54 14.44, 565.35 -6.32, 554.00 0.00 C 541.00 0.00, 529.00 0.00, 517.00 0.00 C 492.00 0.00, 468.00 0.00, 444.00 0.00 C 394.33 0.00, 345.67 0.00, 297.00 0.00 C 198.33 0.00, 100.67 0.00, 3.00 0.00 Z" fill="rgb(85.67172222030725,91.46747785322809,77.05495042110464)" stroke="rgb(85.67172222030725,91.46747785322809,77.05495042110464)" stroke-width="1" />
<path d="M 3.00 571.00 C -1.47 599.78, 2.36 627.79, 1.00 658.00 C 0.91 689.77, 1.24 717.28, 1.00 747.00 C 1.11 776.76, 1.40 808.35, 1.00 836.00 C 1.82 849.49, -4.76 870.58, 17.00 864.00 C 32.67 864.00, 47.33 864.00, 62.00 864.00 C 121.67 864.00, 180.33 864.00, 239.00 864.00 C 269.33 864.00, 298.67 864.00, 328.00 864.00 C 343.33 864.00, 357.67 864.00, 372.00 864.00 C 391.60 868.52, 396.08 847.72, 395.00 833.00 C 400.22 817.60, 393.93 802.58, 391.00 789.00 C 390.90 771.49, 359.34 765.13, 376.00 748.00 C 381.92 731.86, 369.77 718.55, 368.00 704.00 C 364.17 688.19, 357.24 674.64, 358.00 659.00 C 349.82 635.54, 350.82 671.69, 349.00 681.00 C 348.24 696.78, 351.01 709.85, 351.00 726.00 C 354.41 739.73, 357.82 757.06, 361.00 770.00 C 364.52 786.43, 379.51 794.28, 373.00 812.00 C 373.95 821.66, 359.11 827.09, 361.00 815.00 C 361.15 806.58, 362.92 799.76, 360.00 793.00 C 353.87 778.14, 350.38 763.18, 345.00 749.00 C 341.90 734.97, 343.40 745.79, 340.00 753.00 C 339.02 761.15, 337.30 767.57, 338.00 775.00 C 335.43 791.01, 337.91 806.35, 341.00 819.00 C 342.89 827.48, 332.12 834.50, 328.00 832.00 C 319.41 831.55, 332.88 820.33, 331.00 814.00 C 328.66 797.97, 327.89 782.99, 329.00 769.00 C 330.36 737.44, 336.67 709.65, 338.00 680.00 C 337.37 663.40, 339.07 651.29, 339.00 636.00 C 348.46 618.37, 320.59 601.40, 320.00 625.00 C 313.69 655.21, 308.18 684.74, 302.00 714.00 C 300.76 728.66, 295.03 745.46, 300.00 757.00 C 304.74 763.32, 301.75 771.14, 301.00 778.00 C 304.50 785.16, 305.39 791.05, 306.00 800.00 C 303.92 806.35, 301.12 820.67, 293.00 814.00 C 290.33 806.37, 293.15 798.91, 293.00 792.00 C 283.72 779.86, 291.71 763.20, 288.00 748.00 C 287.57 716.30, 292.59 687.86, 299.00 660.00 C 302.10 644.54, 308.63 629.81, 309.00 616.00 C 304.87 610.88, 298.20 625.51, 290.00 623.00 C 280.11 618.23, 276.66 630.88, 274.00 637.00 C 265.21 651.59, 258.61 665.68, 255.00 681.00 C 250.15 691.23, 263.74 692.73, 252.00 698.00 C 249.00 700.29, 249.46 712.16, 248.00 718.00 C 242.87 732.27, 254.32 746.19, 242.00 760.00 C 234.22 764.87, 227.79 766.12, 228.00 772.00 C 228.09 781.69, 229.15 788.43, 219.00 788.00 C 224.70 793.67, 221.84 802.50, 220.00 809.00 C 212.37 820.28, 209.25 807.08, 211.00 800.00 C 212.44 783.33, 207.72 771.70, 210.00 756.00 C 212.97 740.53, 217.47 723.01, 216.00 716.00 C 230.13 703.10, 216.83 686.16, 214.00 672.00 C 216.84 657.15, 215.27 641.48, 219.00 628.00 C 222.89 612.16, 227.44 596.39, 235.00 584.00 C 239.72 576.78, 237.12 567.60, 235.00 580.00 C 223.96 578.49, 226.07 592.38, 218.00 595.00 C 211.17 608.95, 200.56 623.92, 204.00 639.00 C 205.26 646.17, 206.48 655.47, 203.00 661.00 C 203.38 670.01, 189.45 678.88, 190.00 666.00 C 184.92 653.06, 200.84 628.98, 185.00 628.00 C 176.83 627.75, 167.49 636.06, 167.00 625.00 C 163.99 617.31, 170.46 608.70, 164.00 603.00 C 158.77 593.60, 152.26 598.30, 144.00 599.00 C 135.82 599.34, 125.77 601.97, 130.00 611.00 C 131.23 630.73, 87.15 624.91, 104.00 611.00 C 111.46 610.41, 121.45 602.74, 116.00 597.00 C 106.94 594.75, 99.93 590.96, 93.00 587.00 C 62.37 582.38, 33.19 576.68, 4.00 571.00 Z" fill="rgb(87.00550941306756,103.95703211517166,60.78421926910299)" stroke="rgb(87.00550941306756,103.95703211517166,60.78421926910299)" stroke-width="1" />
<path d="M 2.00 0.00 C -0.33 32.84, 1.66 67.47, 1.00 101.00 C -5.22 125.60, 20.65 124.12, 35.00 130.00 C 51.47 133.58, 69.28 136.74, 86.00 134.00 C 104.85 134.86, 120.37 130.08, 137.00 128.00 C 145.30 124.99, 154.33 126.12, 162.00 124.00 C 167.44 115.49, 159.37 108.08, 160.00 99.00 C 157.33 90.87, 152.48 79.42, 162.00 76.00 C 171.50 79.58, 173.32 90.66, 175.00 99.00 C 176.90 107.33, 175.44 116.53, 179.00 123.00 C 188.42 124.79, 196.58 126.21, 205.00 127.00 C 222.70 129.24, 238.81 132.94, 256.00 134.00 C 274.72 133.20, 290.98 128.89, 307.00 124.00 C 314.99 119.36, 327.43 118.83, 329.00 109.00 C 330.65 100.46, 330.31 89.98, 330.00 83.00 C 332.81 65.17, 332.38 48.63, 330.00 32.00 C 336.08 17.91, 344.03 36.07, 345.00 42.00 C 348.15 52.78, 340.71 58.58, 342.00 68.00 C 342.71 82.78, 330.16 109.52, 351.00 112.00 C 360.48 112.88, 366.56 111.70, 376.00 112.00 C 384.04 109.43, 386.98 99.94, 398.00 99.00 C 404.09 107.38, 411.17 115.14, 420.00 118.00 C 431.82 122.13, 434.38 108.62, 436.00 101.00 C 445.99 86.95, 468.68 73.51, 463.00 53.00 C 467.00 40.58, 477.15 58.02, 478.00 64.00 C 477.36 74.18, 463.35 77.72, 461.00 88.00 C 453.52 95.25, 455.15 104.91, 450.00 111.00 C 443.96 117.82, 440.41 130.84, 453.00 131.00 C 469.00 123.68, 475.32 101.54, 483.00 87.00 C 487.25 78.43, 498.84 65.70, 503.00 80.00 C 501.99 88.72, 504.95 68.64, 505.00 64.00 C 504.41 47.91, 505.46 28.64, 502.00 13.00 C 504.83 -9.31, 475.48 3.44, 462.00 0.00 C 444.33 0.00, 427.67 0.00, 411.00 0.00 C 274.33 0.00, 138.67 0.00, 3.00 0.00 Z" fill="rgb(83.87240321606171,98.86601292001673,46.567690663196544)" stroke="rgb(83.87240321606171,98.86601292001673,46.567690663196544)" stroke-width="1" />
<path d="M 789.00 367.00 C 753.21 373.86, 719.40 385.53, 688.00 403.00 C 670.35 412.03, 653.02 419.45, 637.00 430.00 C 627.23 434.94, 619.27 441.86, 611.00 448.00 C 614.02 454.11, 627.73 448.47, 634.00 447.00 C 669.37 442.69, 701.69 433.44, 736.00 429.00 C 744.94 430.27, 752.18 421.89, 761.00 422.00 C 771.98 419.83, 756.66 431.72, 754.00 435.00 C 735.16 436.73, 717.88 451.68, 703.00 448.00 C 684.47 448.58, 669.14 454.48, 652.00 456.00 C 633.60 457.23, 618.38 463.71, 601.00 465.00 C 591.00 465.43, 584.12 475.08, 585.00 484.00 C 585.17 494.45, 599.09 488.20, 606.00 490.00 C 622.47 495.93, 641.82 494.73, 658.00 496.00 C 666.87 497.31, 674.78 498.52, 683.00 499.00 C 699.93 499.06, 687.87 506.98, 679.00 506.00 C 660.72 506.01, 643.22 506.56, 627.00 504.00 C 612.30 503.60, 586.15 495.48, 580.00 505.00 C 584.89 523.52, 592.75 544.01, 610.00 552.00 C 627.12 560.64, 644.37 566.58, 661.00 574.00 C 669.33 578.62, 679.01 577.56, 686.00 583.00 C 688.08 595.99, 672.34 589.66, 666.00 586.00 C 657.83 580.66, 648.33 580.96, 641.00 576.00 C 634.17 574.73, 618.65 563.88, 619.00 571.00 C 627.65 588.87, 634.92 606.31, 644.00 623.00 C 652.51 641.15, 662.94 657.50, 673.00 674.00 C 688.47 691.49, 701.67 708.36, 714.00 725.00 C 729.21 742.87, 745.63 756.53, 763.00 769.00 C 772.53 774.20, 779.95 781.07, 789.00 784.00 C 800.48 791.49, 797.65 775.09, 798.00 768.00 C 797.96 731.83, 797.94 701.05, 798.00 666.00 C 798.00 648.33, 798.00 631.67, 798.00 615.00 C 798.01 594.23, 795.15 582.33, 797.00 563.00 C 796.96 529.91, 797.29 492.39, 797.00 460.00 C 796.47 442.53, 798.16 422.45, 794.00 411.00 C 794.38 406.23, 801.71 396.79, 797.00 388.00 C 796.95 379.79, 800.72 366.73, 790.00 367.00 Z" fill="rgb(124.0437539632213,134.63094483195943,86.65884590995562)" stroke="rgb(124.0437539632213,134.63094483195943,86.65884590995562)" stroke-width="1" />
<path d="M 323.00 317.00 C 312.40 321.76, 299.32 320.56, 289.00 326.00 C 279.55 336.79, 266.84 340.44, 265.00 355.00 C 272.79 365.07, 267.45 379.58, 272.00 390.00 C 276.08 402.50, 281.10 413.60, 283.00 426.00 C 271.05 430.25, 259.17 431.26, 248.00 434.00 C 234.51 437.87, 226.56 449.76, 213.00 447.00 C 190.86 465.50, 195.11 494.20, 203.00 517.00 C 211.90 544.11, 242.52 547.09, 267.00 549.00 C 279.15 545.89, 291.41 545.46, 302.00 541.00 C 313.89 531.12, 328.02 542.44, 330.00 554.00 C 334.02 566.32, 336.62 574.33, 344.00 586.00 C 353.75 596.57, 353.65 611.31, 367.00 616.00 C 392.39 615.75, 416.84 614.64, 439.00 608.00 C 450.98 600.63, 442.07 584.18, 451.00 575.00 C 452.97 560.68, 450.73 549.42, 442.00 540.00 C 432.04 530.11, 426.09 512.39, 446.00 516.00 C 460.34 515.51, 472.75 510.42, 481.00 501.00 C 475.31 486.06, 488.08 477.71, 499.00 481.00 C 507.77 478.60, 506.15 495.34, 513.00 489.00 C 521.60 488.74, 518.65 480.07, 518.00 475.00 C 510.17 470.84, 505.99 474.18, 503.00 479.00 C 505.37 471.41, 497.82 467.61, 492.00 470.00 C 486.63 478.63, 484.53 464.85, 493.00 466.00 C 499.70 468.36, 505.23 464.80, 511.00 467.00 C 520.36 460.94, 510.48 445.09, 511.00 435.00 C 507.66 421.55, 498.06 409.45, 484.00 409.00 C 461.39 401.97, 435.86 403.63, 413.00 407.00 C 401.24 413.59, 385.44 412.83, 392.00 396.00 C 390.52 382.43, 385.77 371.21, 381.00 360.00 C 371.68 348.85, 368.91 335.18, 359.00 326.00 C 349.10 318.06, 337.32 315.69, 324.00 317.00 Z" fill="rgb(206.42094082523158,192.06240909438873,191.51337747837403)" stroke="rgb(206.42094082523158,192.06240909438873,191.51337747837403)" stroke-width="1" />
<path d="M 3.00 570.00 C -1.61 606.37, 2.29 646.26, 1.00 684.00 C 1.00 723.00, 1.00 761.00, 1.00 799.00 C 1.00 818.67, 1.00 837.33, 1.00 856.00 C -2.01 869.34, 14.60 862.06, 22.00 864.00 C 32.33 864.00, 41.67 864.00, 51.00 864.00 C 71.00 864.00, 90.00 864.00, 109.00 864.00 C 128.76 863.17, 156.23 870.83, 155.00 845.00 C 167.29 807.64, 176.52 770.42, 178.00 730.00 C 177.50 710.66, 179.90 691.10, 176.00 673.00 C 176.34 651.34, 167.34 634.55, 165.00 615.00 C 167.76 601.99, 155.20 599.29, 146.00 600.00 C 131.23 596.28, 134.86 609.75, 130.00 617.00 C 124.70 626.01, 111.02 625.37, 103.00 622.00 C 91.02 610.24, 113.31 609.95, 116.00 602.00 C 104.61 586.94, 80.59 585.70, 62.00 582.00 C 41.58 579.34, 22.98 574.72, 4.00 571.00 Z" fill="rgb(64.86404450936587,79.39201323251417,25.739216360199347)" stroke="rgb(64.86404450936587,79.39201323251417,25.739216360199347)" stroke-width="1" />
<path d="M 583.00 501.00 C 578.25 515.42, 591.84 540.53, 607.00 548.00 C 624.21 559.39, 642.30 565.22, 660.00 572.00 C 668.31 577.80, 679.31 574.69, 686.00 582.00 C 691.27 595.19, 673.71 590.95, 667.00 588.00 C 659.86 582.42, 648.91 580.72, 642.00 577.00 C 635.98 573.95, 616.96 565.20, 621.00 576.00 C 638.97 612.80, 654.41 650.75, 680.00 682.00 C 708.30 718.00, 737.67 756.25, 777.00 777.00 C 783.76 779.47, 798.52 792.87, 798.00 780.00 C 798.00 770.33, 798.00 761.67, 798.00 753.00 C 798.00 734.33, 798.00 716.67, 798.00 699.00 C 797.34 662.80, 799.32 626.51, 797.00 592.00 C 761.19 570.40, 724.23 554.99, 690.00 533.00 C 671.01 527.40, 657.24 512.20, 638.00 509.00 C 620.44 501.40, 602.96 502.08, 584.00 501.00 Z" fill="rgb(77.17536241565902,93.05214109158929,29.92591355467967)" stroke="rgb(77.17536241565902,93.05214109158929,29.92591355467967)" stroke-width="1" />
<path d="M 2.00 220.00 C -0.29 247.52, 1.64 276.79, 1.00 305.00 C 0.65 334.80, 1.53 368.15, 1.00 392.00 C -3.93 409.34, 14.29 415.87, 29.00 419.00 C 44.23 425.10, 56.98 433.79, 72.00 437.00 C 100.77 445.83, 129.74 450.77, 159.00 455.00 C 169.27 451.71, 202.17 453.19, 186.00 441.00 C 171.10 433.87, 159.68 426.52, 146.00 421.00 C 137.09 401.53, 168.92 401.39, 165.00 384.00 C 163.36 374.11, 174.87 369.21, 173.00 362.00 C 166.58 355.18, 158.55 349.46, 152.00 344.00 C 138.90 330.89, 126.49 316.15, 116.00 302.00 C 112.02 293.72, 102.70 288.64, 102.00 280.00 C 107.08 269.40, 96.09 266.76, 90.00 263.00 C 75.38 253.42, 61.56 245.31, 47.00 239.00 C 31.08 233.43, 20.27 218.92, 3.00 220.00 Z" fill="rgb(74.93204912639813,93.96377659185613,25.034359236786315)" stroke="rgb(74.93204912639813,93.96377659185613,25.034359236786315)" stroke-width="1" />
<path d="M 622.00 136.00 C 609.67 143.64, 590.36 139.10, 594.00 159.00 C 590.29 170.76, 579.41 161.52, 585.00 154.00 C 588.62 143.55, 582.24 141.00, 574.00 144.00 C 558.82 147.42, 543.92 149.10, 532.00 158.00 C 518.11 168.48, 513.03 186.00, 504.00 199.00 C 489.16 226.96, 476.67 254.90, 467.00 284.00 C 460.60 296.75, 460.67 313.25, 465.00 326.00 C 477.31 315.86, 480.96 299.05, 490.00 286.00 C 507.26 256.39, 528.09 228.59, 547.00 202.00 C 556.23 187.99, 570.31 174.27, 581.00 163.00 C 578.18 177.02, 560.80 189.57, 553.00 203.00 C 531.92 231.27, 512.27 258.73, 497.00 288.00 C 487.68 302.45, 482.23 317.10, 475.00 331.00 C 470.99 337.67, 468.03 345.40, 472.00 352.00 C 479.19 358.62, 483.10 344.28, 488.00 340.00 C 507.21 310.54, 527.23 282.40, 549.00 255.00 C 560.60 241.42, 570.68 229.37, 583.00 216.00 C 588.71 207.81, 599.71 205.00, 600.00 196.00 C 602.64 190.02, 599.52 175.44, 608.00 178.00 C 611.37 185.03, 611.49 192.53, 610.00 199.00 C 607.64 210.16, 596.74 202.90, 594.00 213.00 C 580.53 226.15, 570.21 238.69, 559.00 252.00 C 537.00 280.45, 516.54 308.12, 499.00 337.00 C 494.40 348.80, 468.43 369.86, 486.00 375.00 C 501.56 371.01, 518.31 372.33, 529.00 359.00 C 542.52 346.63, 559.65 340.04, 568.00 325.00 C 575.83 309.65, 583.84 295.80, 592.00 282.00 C 607.38 252.47, 623.28 224.56, 640.00 197.00 C 649.13 182.61, 662.82 171.52, 661.00 154.00 C 656.35 137.20, 638.18 135.23, 623.00 136.00 Z" fill="rgb(87.43631280322342,105.7342323822054,37.74693692952882)" stroke="rgb(87.43631280322342,105.7342323822054,37.74693692952882)" stroke-width="1" />
<path d="M 797.00 85.00 C 780.23 99.63, 770.92 119.82, 754.00 136.00 C 742.67 154.07, 715.74 166.49, 722.00 188.00 C 722.18 209.50, 706.78 223.55, 702.00 242.00 C 702.78 249.95, 717.81 241.18, 724.00 244.00 C 738.30 240.33, 740.47 256.85, 726.00 257.00 C 705.50 261.04, 686.74 269.42, 673.00 284.00 C 660.25 302.84, 648.71 320.64, 633.00 336.00 C 617.60 351.21, 603.64 367.31, 586.00 380.00 C 576.49 387.39, 567.76 393.24, 559.00 399.00 C 553.62 407.56, 561.24 420.23, 553.00 426.00 C 547.52 433.54, 543.30 448.50, 557.00 443.00 C 567.01 441.83, 575.52 439.45, 584.00 437.00 C 604.47 431.70, 620.96 422.65, 637.00 410.00 C 674.39 377.96, 700.19 340.05, 722.00 302.00 C 741.48 267.33, 753.10 230.81, 764.00 194.00 C 774.31 176.15, 781.26 157.91, 789.00 140.00 C 798.63 123.75, 798.60 104.49, 798.00 85.00 Z" fill="rgb(138.61099445027747,150.60401979901005,119.28918554072297)" stroke="rgb(138.61099445027747,150.60401979901005,119.28918554072297)" stroke-width="1" />
<path d="M 2.00 413.00 C -2.63 430.87, 1.30 454.78, 0.00 475.00 C 0.00 497.00, 0.00 518.00, 0.00 539.00 C 4.37 548.26, -4.89 565.64, 7.00 568.00 C 17.92 571.33, 28.47 573.14, 39.00 575.00 C 60.79 581.32, 85.07 579.19, 104.00 590.00 C 115.78 597.46, 127.76 594.74, 131.00 581.00 C 135.48 570.00, 138.61 559.45, 142.00 549.00 C 147.56 538.86, 147.23 527.29, 150.00 517.00 C 148.41 506.11, 129.35 511.67, 123.00 515.00 C 111.85 520.48, 99.27 521.32, 97.00 533.00 C 89.76 537.95, 75.06 536.80, 67.00 531.00 C 51.81 518.84, 76.47 519.12, 84.00 517.00 C 98.43 517.66, 102.99 501.07, 115.00 501.00 C 126.63 501.10, 136.57 497.94, 145.00 492.00 C 158.96 490.74, 168.52 480.16, 149.00 482.00 C 137.28 481.41, 127.78 483.75, 117.00 483.00 C 113.87 499.98, 101.38 478.12, 91.00 486.00 C 78.25 485.69, 75.05 492.69, 62.00 492.00 C 49.77 487.83, 39.53 494.74, 30.00 498.00 C 12.21 498.18, 27.37 478.50, 38.00 480.00 C 49.22 480.01, 60.47 479.85, 71.00 478.00 C 82.14 475.87, 92.96 475.38, 103.00 473.00 C 110.13 456.93, 123.65 472.66, 134.00 467.00 C 144.11 464.99, 160.46 467.97, 163.00 460.00 C 152.73 457.18, 142.16 456.10, 132.00 454.00 C 109.54 449.44, 87.93 446.25, 68.00 439.00 C 45.77 430.07, 24.93 420.21, 3.00 413.00 Z" fill="rgb(40.59459826275787,45.116313789359396,31.700190010857764)" stroke="rgb(40.59459826275787,45.116313789359396,31.700190010857764)" stroke-width="1" />
<path d="M 797.00 407.00 C 785.45 411.49, 773.87 415.88, 763.00 422.00 C 748.47 425.71, 742.23 435.11, 731.00 441.00 C 706.43 451.28, 683.71 462.63, 661.00 474.00 C 652.03 477.37, 627.08 492.53, 648.00 495.00 C 660.90 495.63, 671.94 498.34, 683.00 501.00 C 679.27 507.16, 651.47 502.65, 659.00 509.00 C 672.31 515.44, 682.10 526.99, 695.00 531.00 C 719.40 543.03, 741.31 557.68, 765.00 568.00 C 777.07 572.15, 789.63 585.71, 799.00 584.00 C 799.00 571.33, 799.00 559.67, 799.00 548.00 C 798.35 500.46, 800.30 452.85, 798.00 407.00 Z" fill="rgb(166.04317055909414,175.62622586189465,173.49196239005155)" stroke="rgb(166.04317055909414,175.62622586189465,173.49196239005155)" stroke-width="1" />
<path d="M 3.00 122.00 C -2.91 138.06, 3.10 161.50, 1.00 181.00 C 1.58 191.90, -0.21 202.78, 2.00 212.00 C 8.82 218.77, 21.12 217.26, 31.00 218.00 C 52.67 216.81, 71.78 224.40, 92.00 221.00 C 115.49 219.86, 135.08 211.75, 154.00 202.00 C 163.82 195.05, 176.93 192.34, 182.00 182.00 C 178.01 171.27, 176.40 160.56, 172.00 151.00 C 167.35 142.56, 172.78 124.41, 159.00 127.00 C 147.87 128.36, 137.75 129.72, 128.00 132.00 C 107.42 135.50, 87.40 137.92, 66.00 137.00 C 43.03 136.29, 23.93 128.65, 4.00 123.00 Z" fill="rgb(31.426026549281243,33.96196437168994,28.519292936240458)" stroke="rgb(31.426026549281243,33.96196437168994,28.519292936240458)" stroke-width="1" />
<path d="M 183.00 187.00 C 159.89 202.10, 135.71 214.61, 109.00 221.00 C 83.56 225.94, 58.11 220.95, 34.00 219.00 C 29.02 220.68, 18.60 219.05, 18.00 221.00 C 24.70 225.72, 31.23 227.46, 37.00 231.00 C 49.62 239.38, 63.10 243.30, 75.00 251.00 C 87.82 254.88, 97.25 270.25, 111.00 267.00 C 120.14 277.35, 132.19 284.05, 145.00 290.00 C 156.95 299.21, 168.68 306.51, 182.00 310.00 C 183.90 304.24, 192.17 295.81, 195.00 305.00 C 195.11 313.03, 199.66 317.56, 207.00 317.00 C 214.42 313.10, 203.34 305.60, 206.00 301.00 C 214.76 300.56, 214.80 311.32, 221.00 314.00 C 232.43 322.25, 241.32 339.12, 256.00 336.00 C 260.59 320.88, 245.28 311.27, 242.00 299.00 C 238.93 283.93, 226.33 275.56, 222.00 262.00 C 216.77 247.93, 211.14 235.45, 203.00 224.00 C 195.20 211.53, 191.66 197.14, 184.00 187.00 Z" fill="rgb(133.35925174667568,148.08429118773947,127.61550597250394)" stroke="rgb(133.35925174667568,148.08429118773947,127.61550597250394)" stroke-width="1" />
<path d="M 251.00 169.00 C 240.52 170.46, 229.70 171.07, 219.00 172.00 C 204.01 171.35, 209.70 201.00, 200.00 183.00 C 190.31 184.36, 205.58 208.39, 206.00 206.00 C 207.00 201.46, 202.75 190.77, 208.00 191.00 C 209.54 197.21, 208.38 203.37, 212.00 207.00 C 215.02 232.06, 223.14 254.85, 239.00 272.00 C 251.40 273.27, 254.55 289.47, 261.00 299.00 C 270.69 305.38, 274.18 323.87, 286.00 324.00 C 301.90 322.29, 304.71 311.26, 296.00 300.00 C 291.88 293.36, 281.88 263.91, 291.00 280.00 C 298.61 291.03, 303.58 302.73, 312.00 313.00 C 324.90 317.95, 333.15 309.47, 328.00 296.00 C 323.04 270.77, 312.83 249.14, 299.00 229.00 C 291.67 216.86, 285.87 205.50, 278.00 195.00 C 266.70 187.92, 264.53 172.86, 252.00 169.00 Z" fill="rgb(149.71556858792266,162.96866122972602,149.48813341885824)" stroke="rgb(149.71556858792266,162.96866122972602,149.48813341885824)" stroke-width="1" />
<path d="M 607.00 0.00 C 617.30 18.72, 637.72 35.38, 655.00 55.00 C 666.87 61.96, 668.61 72.23, 667.00 85.00 C 670.07 88.56, 672.70 90.26, 673.00 97.00 C 671.33 106.23, 666.63 91.80, 669.00 103.00 C 665.54 121.59, 679.15 115.03, 676.00 101.00 C 671.38 81.26, 687.54 90.69, 696.00 98.00 C 696.88 109.75, 677.36 120.37, 689.00 126.00 C 701.92 123.27, 710.85 110.93, 716.00 101.00 C 730.28 79.81, 744.06 59.82, 751.00 37.00 C 755.53 25.75, 760.31 16.01, 762.00 5.00 C 761.28 -4.61, 744.18 2.15, 736.00 0.00 C 692.67 0.00, 650.33 0.00, 608.00 0.00 Z" fill="rgb(42.92334767305436,47.37309346890888,25.923934298005474)" stroke="rgb(42.92334767305436,47.37309346890888,25.923934298005474)" stroke-width="1" />
<path d="M 667.00 155.00 C 660.47 170.77, 647.63 188.98, 637.00 205.00 C 626.24 223.77, 615.23 241.02, 606.00 259.00 C 597.74 277.91, 585.59 294.22, 577.00 312.00 C 568.35 326.09, 571.80 323.74, 583.00 319.00 C 592.44 312.48, 600.30 307.10, 609.00 301.00 C 626.80 289.37, 644.47 279.85, 662.00 270.00 C 682.08 263.56, 699.14 253.37, 703.00 232.00 C 711.26 215.56, 724.48 197.81, 718.00 179.00 C 708.43 161.25, 686.17 157.98, 668.00 155.00 Z" fill="rgb(49.12710911136108,57.05811773528309,26.85939257592801)" stroke="rgb(49.12710911136108,57.05811773528309,26.85939257592801)" stroke-width="1" />
<path d="M 679.00 747.00 C 669.79 750.75, 680.73 762.44, 672.00 767.00 C 660.95 767.74, 660.28 777.79, 654.00 784.00 C 643.47 797.76, 629.47 813.99, 622.00 823.00 C 617.22 831.35, 618.41 838.42, 621.00 846.00 C 625.39 851.97, 620.50 865.65, 630.00 864.00 C 646.00 864.00, 661.00 864.00, 676.00 864.00 C 691.67 864.00, 706.33 864.00, 721.00 864.00 C 742.29 868.16, 739.09 841.75, 749.00 831.00 C 749.78 813.35, 729.16 803.16, 720.00 788.00 C 705.29 774.45, 696.21 753.83, 680.00 747.00 Z" fill="rgb(30.55459723352319,31.423433685923516,30.20927583401139)" stroke="rgb(30.55459723352319,31.423433685923516,30.20927583401139)" stroke-width="1" />
<path d="M 735.00 288.00 C 714.04 321.98, 693.19 356.01, 665.00 387.00 C 656.35 395.72, 650.33 402.85, 642.00 410.00 C 634.07 415.64, 625.24 428.23, 640.00 423.00 C 658.44 415.87, 674.09 405.42, 691.00 398.00 C 723.86 382.45, 755.44 367.21, 792.00 364.00 C 800.10 354.45, 803.47 325.35, 787.00 320.00 C 768.59 311.46, 752.78 299.06, 736.00 289.00 Z" fill="rgb(41.867916428162566,43.708500286204924,36.21794504865483)" stroke="rgb(41.867916428162566,43.708500286204924,36.21794504865483)" stroke-width="1" />
<path d="M 669.00 155.00 C 659.05 159.99, 660.31 178.41, 650.00 187.00 C 638.77 198.43, 635.29 212.42, 626.00 224.00 C 620.32 229.56, 619.70 236.21, 617.00 242.00 C 623.08 243.54, 629.88 246.26, 634.00 253.00 C 645.99 261.37, 656.38 280.05, 670.00 266.00 C 683.76 261.69, 696.22 255.48, 699.00 241.00 C 703.72 227.14, 712.71 216.04, 717.00 203.00 C 720.80 190.35, 722.34 173.39, 708.00 168.00 C 695.84 160.49, 683.77 156.19, 670.00 156.00 Z" fill="rgb(41.651968716289105,46.07483818770226,27.360032362459545)" stroke="rgb(41.651968716289105,46.07483818770226,27.360032362459545)" stroke-width="1" />
<path d="M 790.00 366.00 C 752.63 371.81, 718.52 385.49, 686.00 403.00 C 667.59 412.14, 650.05 420.98, 633.00 431.00 C 623.03 436.46, 615.36 444.07, 607.00 450.00 C 610.54 455.41, 622.88 449.71, 630.00 449.00 C 665.89 443.54, 699.00 433.77, 735.00 431.00 C 753.89 425.02, 770.23 415.28, 788.00 409.00 C 800.31 407.55, 798.79 396.64, 798.00 388.00 C 796.55 379.56, 802.52 364.89, 791.00 366.00 Z" fill="rgb(79.61434913361019,94.44636975511958,38.96763568666762)" stroke="rgb(79.61434913361019,94.44636975511958,38.96763568666762)" stroke-width="1" />
<path d="M 0.00 472.00 C 0.00 502.00, 0.00 532.00, 0.00 562.00 C 9.27 573.24, 28.31 571.74, 42.00 576.00 C 58.00 578.67, 73.07 581.17, 88.00 584.00 C 97.39 583.32, 102.32 590.97, 110.00 592.00 C 118.16 598.05, 128.27 591.02, 121.00 583.00 C 107.29 567.59, 95.87 551.76, 80.00 541.00 C 63.08 532.10, 54.53 514.89, 39.00 505.00 C 34.19 496.52, 17.34 501.06, 21.00 490.00 C 17.23 481.54, 9.02 473.82, 1.00 472.00 Z" fill="rgb(29.16233670923235,30.124027594305005,28.366505210626745)" stroke="rgb(29.16233670923235,30.124027594305005,28.366505210626745)" stroke-width="1" />
<path d="M 315.00 125.00 C 299.10 129.70, 283.65 135.52, 266.00 136.00 C 257.25 138.77, 248.49 135.35, 241.00 137.00 C 241.04 144.31, 249.59 154.58, 258.00 156.00 C 267.77 157.45, 273.54 167.23, 276.00 175.00 C 275.39 185.85, 277.47 193.04, 285.00 201.00 C 295.15 219.02, 305.35 235.60, 316.00 252.00 C 320.55 260.50, 322.91 268.90, 326.00 277.00 C 329.31 291.40, 337.79 289.08, 334.00 276.00 C 333.50 258.40, 332.52 242.01, 333.00 225.00 C 333.67 206.78, 331.96 190.54, 331.00 174.00 C 329.16 155.02, 329.15 136.92, 316.00 125.00 Z" fill="rgb(35.325766686710764,38.35778713168972,32.14206253758268)" stroke="rgb(35.325766686710764,38.35778713168972,32.14206253758268)" stroke-width="1" />
<path d="M 596.00 657.00 C 602.37 665.13, 610.18 673.84, 619.00 680.00 C 627.66 688.12, 636.80 694.84, 647.00 701.00 C 663.83 700.75, 659.54 717.60, 668.00 726.00 C 680.48 735.86, 688.96 748.18, 698.00 759.00 C 717.54 781.13, 735.75 805.53, 756.00 824.00 C 767.35 833.04, 771.06 846.02, 779.00 856.00 C 784.04 868.85, 802.97 866.24, 797.00 851.00 C 796.71 839.34, 797.42 827.40, 797.00 818.00 C 800.08 802.61, 793.09 794.78, 781.00 791.00 C 757.02 779.50, 732.81 768.81, 715.00 747.00 C 693.52 725.65, 671.28 713.35, 654.00 694.00 C 642.98 688.40, 636.77 676.91, 627.00 673.00 C 620.08 663.51, 607.90 661.33, 597.00 657.00 Z" fill="rgb(60.99576271186441,68.28898305084746,28.321186440677966)" stroke="rgb(60.99576271186441,68.28898305084746,28.321186440677966)" stroke-width="1" />
<path d="M 540.00 659.00 C 544.80 678.94, 550.23 697.96, 556.00 718.00 C 559.11 727.93, 556.39 739.27, 560.00 748.00 C 563.88 759.05, 566.04 764.61, 566.00 777.00 C 567.53 788.62, 565.10 796.75, 564.00 807.00 C 564.01 817.83, 583.62 830.35, 566.00 835.00 C 561.52 843.63, 554.85 857.89, 558.00 864.00 C 569.00 864.00, 579.00 864.00, 589.00 864.00 C 599.67 864.00, 609.33 864.00, 619.00 864.00 C 627.03 859.77, 618.10 844.44, 616.00 837.00 C 612.08 826.10, 607.47 816.49, 605.00 806.00 C 596.77 795.92, 588.95 787.09, 589.00 775.00 C 583.49 753.66, 574.05 734.95, 570.00 714.00 C 565.29 702.88, 564.78 691.43, 557.00 683.00 C 557.95 672.27, 550.85 661.41, 541.00 659.00 Z" fill="rgb(31.285419248244526,32.992978108219745,29.151177199504335)" stroke="rgb(31.285419248244526,32.992978108219745,29.151177199504335)" stroke-width="1" />
<path d="M 417.00 0.00 C 420.35 16.54, 427.50 31.52, 431.00 48.00 C 433.37 57.07, 437.20 64.11, 439.00 72.00 C 440.60 82.26, 442.04 91.36, 450.00 81.00 C 455.69 75.93, 464.14 68.36, 461.00 60.00 C 458.36 47.25, 469.23 44.25, 474.00 54.00 C 479.37 62.99, 475.67 71.56, 473.00 79.00 C 464.85 79.38, 452.65 94.86, 465.00 95.00 C 475.24 98.69, 481.08 91.53, 484.00 84.00 C 486.89 71.96, 502.04 76.52, 502.00 68.00 C 506.57 50.67, 504.61 33.61, 501.00 18.00 C 506.11 -5.71, 483.69 0.48, 468.00 0.00 C 450.67 0.00, 434.33 0.00, 418.00 0.00 Z" fill="rgb(54.678260869565214,70.72480818414323,22.805626598465473)" stroke="rgb(54.678260869565214,70.72480818414323,22.805626598465473)" stroke-width="1" />
<path d="M 795.00 487.00 C 768.46 495.51, 743.13 506.91, 716.00 514.00 C 705.99 518.50, 674.42 522.87, 696.00 531.00 C 710.25 537.39, 722.97 545.08, 736.00 552.00 C 750.70 557.99, 763.03 566.27, 776.00 573.00 C 783.33 577.35, 789.63 580.76, 796.00 584.00 C 800.66 581.39, 798.36 572.83, 799.00 567.00 C 798.35 539.71, 799.94 510.96, 796.00 487.00 Z" fill="rgb(167.65877024908553,176.63072635429367,178.41978749346805)" stroke="rgb(167.65877024908553,176.63072635429367,178.41978749346805)" stroke-width="1" />
<path d="M 797.00 84.00 C 774.84 109.01, 752.95 139.84, 727.00 166.00 C 716.23 178.65, 727.12 195.95, 718.00 209.00 C 715.41 217.31, 709.02 223.04, 708.00 231.00 C 702.30 241.74, 722.65 238.22, 713.00 243.00 C 731.14 241.23, 741.02 221.34, 751.00 210.00 C 762.94 200.10, 767.88 185.04, 776.00 171.00 C 788.19 143.35, 802.31 117.49, 798.00 84.00 Z" fill="rgb(52.236111111111114,58.556111111111115,32.075)" stroke="rgb(52.236111111111114,58.556111111111115,32.075)" stroke-width="1" />
<path d="M 673.00 718.00 C 660.39 722.04, 674.83 719.87, 675.00 731.00 C 682.17 739.26, 688.37 746.51, 694.00 754.00 C 707.70 769.98, 720.26 785.03, 733.00 800.00 C 744.98 815.89, 762.00 827.36, 770.00 843.00 C 776.05 850.04, 777.11 861.07, 786.00 864.00 C 797.47 867.14, 796.55 858.89, 796.00 851.00 C 795.21 834.60, 797.14 818.84, 797.00 805.00 C 793.74 795.11, 793.57 794.21, 784.00 795.00 C 776.00 789.19, 768.52 785.54, 761.00 782.00 C 727.78 767.75, 703.83 731.39, 674.00 718.00 Z" fill="rgb(64.93375,72.06875,31.33)" stroke="rgb(64.93375,72.06875,31.33)" stroke-width="1" />
<path d="M 797.00 134.00 C 786.45 144.27, 785.09 160.75, 777.00 173.00 C 769.72 186.67, 763.03 199.57, 760.00 214.00 C 754.97 228.18, 753.44 242.82, 746.00 255.00 C 738.41 272.65, 764.34 277.46, 774.00 285.00 C 787.60 279.87, 803.96 276.16, 799.00 258.00 C 799.00 243.67, 799.00 230.33, 799.00 217.00 C 799.14 188.80, 799.12 161.67, 798.00 135.00 Z" fill="rgb(44.576,45.176,32.392)" stroke="rgb(44.576,45.176,32.392)" stroke-width="1" />
<path d="M 797.00 134.00 C 786.66 144.22, 784.48 160.22, 778.00 173.00 C 770.52 186.86, 762.44 199.06, 761.00 214.00 C 754.60 227.61, 754.20 242.72, 747.00 255.00 C 737.97 271.61, 763.62 278.12, 774.00 284.00 C 787.91 279.76, 803.21 275.38, 798.00 257.00 C 797.29 242.24, 799.05 229.49, 799.00 216.00 C 799.48 187.66, 798.50 160.93, 798.00 134.00 Z" fill="rgb(39.61887403807209,39.97407857432159,35.211219117051435)" stroke="rgb(39.61887403807209,39.97407857432159,35.211219117051435)" stroke-width="1" />
<path d="M 122.00 0.00 C 127.03 13.77, 136.55 26.90, 152.00 29.00 C 166.22 31.93, 179.63 34.41, 193.00 37.00 C 207.29 40.10, 220.93 42.37, 234.00 46.00 C 244.76 45.35, 269.95 60.78, 268.00 47.00 C 258.31 33.42, 252.01 19.44, 242.00 7.00 C 236.41 -5.52, 217.13 2.28, 205.00 0.00 C 177.00 0.00, 150.00 0.00, 123.00 0.00 Z" fill="rgb(176.65731166912852,186.34986284026166,184.41612154462968)" stroke="rgb(176.65731166912852,186.34986284026166,184.41612154462968)" stroke-width="1" />
<path d="M 699.00 749.00 C 688.11 751.85, 710.45 769.86, 716.00 779.00 C 727.48 792.30, 736.86 803.88, 748.00 816.00 C 759.45 826.16, 768.44 836.99, 775.00 850.00 C 777.46 863.42, 801.36 872.40, 797.00 853.00 C 798.13 840.27, 796.76 828.50, 798.00 816.00 C 802.16 797.59, 783.03 796.19, 773.00 789.00 C 759.66 782.16, 747.72 775.35, 736.00 768.00 C 723.14 758.44, 716.52 745.17, 700.00 749.00 Z" fill="rgb(69.05368203716449,78.36889194769442,28.272310162881396)" stroke="rgb(69.05368203716449,78.36889194769442,28.272310162881396)" stroke-width="1" />
<path d="M 504.00 784.00 C 479.85 795.53, 459.24 812.83, 435.00 825.00 C 423.43 834.76, 410.72 847.28, 400.00 850.00 C 385.97 863.97, 400.24 865.87, 414.00 864.00 C 426.33 864.00, 437.67 864.00, 449.00 864.00 C 455.73 851.67, 468.68 842.61, 480.00 835.00 C 491.26 826.50, 504.07 819.22, 515.00 811.00 C 537.09 806.16, 514.77 788.89, 505.00 784.00 Z" fill="rgb(30.211284230406044,30.896128423040604,28.703021718602454)" stroke="rgb(30.211284230406044,30.896128423040604,28.703021718602454)" stroke-width="1" />
<path d="M 668.00 281.00 C 643.35 294.31, 618.52 310.43, 597.00 329.00 C 585.67 337.81, 573.86 347.51, 563.00 356.00 C 550.85 366.82, 535.31 375.45, 551.00 388.00 C 558.04 405.61, 575.37 384.73, 585.00 379.00 C 597.87 368.08, 607.71 359.83, 618.00 349.00 C 627.93 338.23, 641.40 328.88, 649.00 316.00 C 656.15 304.58, 670.91 290.04, 669.00 281.00 Z" fill="rgb(44.21314310419369,51.297449200172935,28.908776480760917)" stroke="rgb(44.21314310419369,51.297449200172935,28.908776480760917)" stroke-width="1" />
<path d="M 622.00 829.00 C 615.42 839.04, 624.23 855.72, 627.00 864.00 C 640.67 864.00, 653.33 864.00, 666.00 864.00 C 679.67 864.00, 692.33 864.00, 705.00 864.00 C 718.42 862.47, 736.47 869.59, 739.00 854.00 C 741.88 847.23, 743.02 840.73, 746.00 835.00 C 747.05 830.29, 740.46 843.30, 734.00 837.00 C 735.17 826.24, 710.58 835.22, 701.00 833.00 C 674.09 832.25, 648.08 831.75, 623.00 829.00 Z" fill="rgb(32.229040404040404,33.63106060606061,32.00050505050505)" stroke="rgb(32.229040404040404,33.63106060606061,32.00050505050505)" stroke-width="1" />
<path d="M 528.00 805.00 C 510.46 818.77, 488.24 826.40, 472.00 844.00 C 465.96 850.20, 447.36 867.33, 465.00 864.00 C 475.67 864.00, 485.33 864.00, 495.00 864.00 C 505.67 864.00, 515.33 864.00, 525.00 864.00 C 533.97 862.07, 550.85 869.31, 550.00 857.00 C 551.66 847.56, 560.33 835.21, 553.00 828.00 C 543.73 822.26, 541.24 807.19, 529.00 805.00 Z" fill="rgb(46.799687010954614,55.002347417840376,32.653886280646844)" stroke="rgb(46.799687010954614,55.002347417840376,32.653886280646844)" stroke-width="1" />
<path d="M 253.00 0.00 C 251.99 9.41, 265.29 16.30, 266.00 27.00 C 272.29 36.84, 274.14 49.31, 285.00 54.00 C 295.40 56.83, 304.51 60.37, 314.00 63.00 C 326.72 70.82, 331.67 59.60, 329.00 49.00 C 324.02 36.95, 331.62 31.22, 328.00 21.00 C 324.71 12.24, 326.54 -2.81, 313.00 0.00 C 292.67 0.00, 273.33 0.00, 254.00 0.00 Z" fill="rgb(124.33598901098901,139.01813186813186,122.22967032967033)" stroke="rgb(124.33598901098901,139.01813186813186,122.22967032967033)" stroke-width="1" />
<path d="M 598.00 71.00 C 585.71 70.43, 585.39 76.71, 590.00 87.00 C 592.40 96.92, 594.96 105.35, 597.00 114.00 C 601.44 120.83, 598.64 140.05, 609.00 136.00 C 618.55 133.92, 627.20 132.07, 637.00 133.00 C 655.92 136.62, 673.87 103.40, 654.00 92.00 C 636.25 81.31, 619.68 71.21, 599.00 71.00 Z" fill="rgb(64.5,70.24166666666666,34.75)" stroke="rgb(64.5,70.24166666666666,34.75)" stroke-width="1" />
<path d="M 597.00 71.00 C 583.66 86.35, 597.05 106.36, 599.00 123.00 C 600.66 133.01, 604.21 144.43, 615.00 136.00 C 623.30 131.60, 634.07 132.75, 642.00 134.00 C 652.27 134.26, 653.84 120.50, 662.00 116.00 C 665.17 105.36, 661.17 95.53, 652.00 91.00 C 634.88 80.59, 618.59 70.60, 598.00 71.00 Z" fill="rgb(40.61106477620239,42.86516541562413,36.80872949680289)" stroke="rgb(40.61106477620239,42.86516541562413,36.80872949680289)" stroke-width="1" />
<path d="M 586.00 787.00 C 576.27 791.23, 564.90 786.06, 567.00 801.00 C 563.29 811.96, 574.94 820.97, 573.00 831.00 C 563.12 836.06, 561.22 848.48, 559.00 858.00 C 553.12 868.57, 574.56 862.14, 581.00 864.00 C 591.67 864.00, 601.33 864.00, 611.00 864.00 C 627.43 868.20, 621.84 855.01, 620.00 846.00 C 610.67 824.78, 606.43 800.81, 587.00 787.00 Z" fill="rgb(35.83218390804598,38.506513409961684,29.80536398467433)" stroke="rgb(35.83218390804598,38.506513409961684,29.80536398467433)" stroke-width="1" />
<path d="M 177.00 365.00 C 167.19 370.83, 166.32 382.32, 166.00 393.00 C 178.21 396.82, 178.48 406.49, 176.00 417.00 C 195.96 422.38, 216.73 422.37, 236.00 426.00 C 244.13 426.80, 263.74 435.14, 260.00 423.00 C 256.07 410.84, 248.70 402.70, 238.00 398.00 C 217.42 386.78, 198.22 374.66, 178.00 365.00 Z" fill="rgb(41.45360824742268,47.57025036818851,32.95699558173785)" stroke="rgb(41.45360824742268,47.57025036818851,32.95699558173785)" stroke-width="1" />
<path d="M 190.00 503.00 C 181.12 504.16, 173.45 508.21, 164.00 508.00 C 150.23 506.47, 152.04 519.47, 150.00 528.00 C 147.52 538.22, 145.20 547.50, 141.00 556.00 C 139.81 563.61, 128.72 580.84, 140.00 580.00 C 158.14 566.12, 177.67 558.00, 196.00 547.00 C 209.61 543.97, 216.28 534.58, 203.00 526.00 C 196.88 518.95, 201.99 502.39, 191.00 503.00 Z" fill="rgb(35.146067415730336,38.02247191011236,29.04494382022472)" stroke="rgb(35.146067415730336,38.02247191011236,29.04494382022472)" stroke-width="1" />
<path d="M 189.00 503.00 C 180.26 505.62, 171.35 507.83, 162.00 509.00 C 149.46 508.55, 152.29 523.16, 150.00 531.00 C 148.17 541.76, 143.10 549.77, 141.00 559.00 C 136.93 566.28, 130.75 588.06, 144.00 576.00 C 160.80 563.80, 180.96 556.15, 198.00 546.00 C 213.52 542.88, 213.60 535.05, 204.00 526.00 C 197.08 518.62, 202.09 501.36, 190.00 503.00 Z" fill="rgb(36.46896770107663,39.86162127929069,34.94553514882837)" stroke="rgb(36.46896770107663,39.86162127929069,34.94553514882837)" stroke-width="1" />
<path d="M 605.00 0.00 C 610.92 15.80, 630.91 32.72, 647.00 46.00 C 653.77 53.35, 666.10 73.41, 670.00 56.00 C 671.80 45.03, 677.06 36.50, 680.00 27.00 C 682.51 16.78, 692.54 7.28, 693.00 0.00 C 682.67 0.00, 673.33 0.00, 664.00 0.00 C 644.00 0.00, 625.00 0.00, 606.00 0.00 Z" fill="rgb(39.79766914859178,42.97086435739722,26.411783748786014)" stroke="rgb(39.79766914859178,42.97086435739722,26.411783748786014)" stroke-width="1" />
<path d="M 556.00 0.00 C 557.52 11.36, 562.60 21.25, 568.00 31.00 C 571.68 42.13, 575.69 56.31, 586.00 60.00 C 602.23 76.85, 630.32 65.77, 650.00 72.00 C 671.04 73.73, 656.36 57.56, 648.00 50.00 C 639.70 38.20, 624.92 45.46, 615.00 41.00 C 602.49 36.83, 592.90 28.06, 583.00 20.00 C 575.89 9.49, 571.66 -4.15, 557.00 0.00 Z" fill="rgb(105.2,101.5,84.8)" stroke="rgb(105.2,101.5,84.8)" stroke-width="1" />
<path d="M 556.00 0.00 C 557.93 11.19, 562.64 21.23, 568.00 31.00 C 572.71 41.66, 575.25 56.54, 586.00 60.00 C 602.62 76.80, 630.80 66.07, 651.00 72.00 C 671.66 73.51, 655.87 57.90, 649.00 51.00 C 640.88 37.17, 626.73 46.03, 616.00 41.00 C 602.98 37.27, 593.06 28.46, 583.00 20.00 C 575.74 9.56, 571.76 -4.19, 557.00 0.00 Z" fill="rgb(78.84,74.18,57.92)" stroke="rgb(78.84,74.18,57.92)" stroke-width="1" />
<path d="M 556.00 0.00 C 556.28 11.87, 563.93 20.70, 568.00 31.00 C 575.15 40.47, 575.74 55.30, 586.00 59.00 C 602.47 75.70, 627.60 68.18, 650.00 70.00 C 670.66 72.36, 651.01 56.24, 646.00 49.00 C 637.60 40.43, 624.16 43.96, 614.00 41.00 C 602.14 35.53, 591.39 28.38, 583.00 19.00 C 576.44 7.90, 571.60 -4.07, 557.00 0.00 Z" fill="rgb(110.36702127659575,98.0,88.23404255319149)" stroke="rgb(110.36702127659575,98.0,88.23404255319149)" stroke-width="1" />
<path d="M 222.00 545.00 C 201.70 556.42, 178.98 565.75, 160.00 578.00 C 148.68 583.44, 134.97 597.14, 154.00 591.00 C 165.61 594.80, 171.99 608.66, 168.00 620.00 C 167.62 635.08, 186.62 625.65, 194.00 624.00 C 199.18 609.40, 196.85 608.27, 194.00 595.00 C 199.88 583.57, 210.78 576.66, 221.00 570.00 C 235.12 562.66, 236.04 549.83, 223.00 545.00 Z" fill="rgb(41.69775626924769,45.9076110866696,34.42850857897052)" stroke="rgb(41.69775626924769,45.9076110866696,34.42850857897052)" stroke-width="1" />
<path d="M 557.00 67.00 C 542.05 66.64, 541.38 72.86, 548.00 83.00 C 553.67 99.78, 537.71 95.70, 528.00 94.00 C 517.79 93.02, 502.30 82.18, 503.00 98.00 C 497.02 113.92, 514.98 113.28, 524.00 117.00 C 536.13 119.08, 545.12 126.33, 556.00 129.00 C 563.91 131.64, 585.42 142.82, 582.00 128.00 C 581.46 115.79, 575.83 106.68, 574.00 96.00 C 568.42 86.05, 568.62 69.63, 558.00 67.00 Z" fill="rgb(50.68410041841004,56.73640167364017,31.97907949790795)" stroke="rgb(50.68410041841004,56.73640167364017,31.97907949790795)" stroke-width="1" />
<path d="M 752.00 44.00 C 743.00 59.07, 737.23 76.13, 725.00 89.00 C 706.67 108.37, 741.31 104.59, 752.00 110.00 C 761.29 114.76, 766.51 121.31, 773.00 111.00 C 777.42 102.60, 787.79 95.61, 786.00 87.00 C 775.09 71.91, 766.35 52.18, 753.00 44.00 Z" fill="rgb(36.01330456670262,37.321467098166124,33.20711974110032)" stroke="rgb(36.01330456670262,37.321467098166124,33.20711974110032)" stroke-width="1" />
<path d="M 534.00 378.00 C 522.59 389.66, 501.57 397.93, 496.00 411.00 C 513.93 416.96, 508.31 441.37, 521.00 447.00 C 537.71 447.19, 551.96 433.01, 551.00 417.00 C 554.40 401.95, 552.08 380.16, 535.00 378.00 Z" fill="rgb(125.45833333333333,116.20833333333333,96.70833333333333)" stroke="rgb(125.45833333333333,116.20833333333333,96.70833333333333)" stroke-width="1" />
<path d="M 767.00 0.00 C 763.41 14.86, 751.16 32.47, 762.00 47.00 C 766.58 56.21, 773.79 63.42, 782.00 68.00 C 789.65 73.76, 801.48 80.55, 799.00 66.00 C 799.00 49.33, 799.00 33.67, 799.00 18.00 C 806.22 -6.22, 783.27 0.73, 768.00 0.00 Z" fill="rgb(39.247191011235955,39.7752808988764,35.07865168539326)" stroke="rgb(39.247191011235955,39.7752808988764,35.07865168539326)" stroke-width="1" />
<path d="M 551.00 68.00 C 538.08 69.19, 550.09 82.77, 547.00 92.00 C 537.28 96.29, 526.76 92.74, 519.00 88.00 C 505.79 84.32, 500.83 97.22, 505.00 106.00 C 510.75 115.13, 522.79 113.91, 532.00 116.00 C 542.85 118.84, 551.76 120.04, 560.00 126.00 C 568.59 127.99, 585.29 131.65, 579.00 118.00 C 574.05 107.76, 574.78 98.52, 570.00 89.00 C 565.04 80.29, 565.37 64.56, 552.00 68.00 Z" fill="rgb(73.55693168198162,84.6224530563324,51.962445065920896)" stroke="rgb(73.55693168198162,84.6224530563324,51.962445065920896)" stroke-width="1" />
<path d="M 767.00 0.00 C 763.90 16.47, 753.28 33.33, 762.00 48.00 C 766.26 57.33, 774.01 61.11, 780.00 67.00 C 786.93 71.16, 800.41 81.92, 798.00 67.00 C 800.32 50.82, 798.34 33.87, 799.00 18.00 C 806.22 -6.22, 783.27 0.73, 768.00 0.00 Z" fill="rgb(35.70625747309685,37.25348744519729,33.27381426863292)" stroke="rgb(35.70625747309685,37.25348744519729,33.27381426863292)" stroke-width="1" />
<path d="M 379.00 772.00 C 370.65 788.89, 376.41 814.32, 368.00 828.00 C 360.96 837.10, 358.82 850.79, 352.00 852.00 C 347.33 865.56, 349.04 864.57, 364.00 864.00 C 374.33 862.86, 387.45 868.02, 391.00 857.00 C 397.27 847.23, 393.51 837.12, 397.00 828.00 C 396.81 807.92, 395.40 783.26, 380.00 772.00 Z" fill="rgb(86.59305111821087,101.27316293929712,55.174121405750796)" stroke="rgb(86.59305111821087,101.27316293929712,55.174121405750796)" stroke-width="1" />
<path d="M 119.00 282.00 C 120.94 299.91, 140.31 316.34, 153.00 331.00 C 168.44 344.71, 182.62 362.72, 203.00 355.00 C 213.86 346.70, 197.45 340.13, 194.00 332.00 C 189.00 321.96, 180.70 314.38, 172.00 310.00 C 153.73 301.33, 138.76 287.08, 120.00 282.00 Z" fill="rgb(76.05490981963928,95.43967935871744,24.772745490981965)" stroke="rgb(76.05490981963928,95.43967935871744,24.772745490981965)" stroke-width="1" />
<path d="M 710.00 445.00 C 688.19 447.98, 666.80 452.00, 645.00 455.00 C 632.74 456.56, 622.53 459.67, 612.00 462.00 C 599.60 463.30, 585.55 465.83, 585.00 480.00 C 596.53 484.33, 607.12 488.52, 618.00 492.00 C 630.39 489.96, 639.07 478.68, 651.00 476.00 C 662.71 470.45, 673.20 465.33, 684.00 461.00 C 692.08 455.78, 714.62 448.79, 711.00 445.00 Z" fill="rgb(74.9955609362389,90.43018563357546,35.1908797417272)" stroke="rgb(74.9955609362389,90.43018563357546,35.1908797417272)" stroke-width="1" />
<path d="M 182.00 128.00 C 174.82 132.72, 183.28 145.03, 185.00 152.00 C 187.82 161.03, 187.16 174.31, 196.00 177.00 C 199.35 170.86, 204.05 151.81, 213.00 162.00 C 213.00 175.28, 228.99 167.87, 236.00 168.00 C 245.97 169.31, 259.31 167.72, 253.00 157.00 C 243.53 150.24, 240.03 136.11, 238.00 136.00 C 219.66 131.74, 201.24 130.09, 183.00 128.00 Z" fill="rgb(36.50311591192356,40.87744079767345,33.54009140008309)" stroke="rgb(36.50311591192356,40.87744079767345,33.54009140008309)" stroke-width="1" />
<path d="M 535.00 0.00 C 542.14 26.93, 562.43 48.42, 568.00 76.00 C 573.57 89.10, 577.14 101.61, 581.00 114.00 C 583.90 120.49, 584.13 127.09, 586.00 133.00 C 589.05 136.10, 602.02 145.43, 600.00 136.00 C 595.44 108.52, 586.51 83.85, 578.00 59.00 C 571.78 46.03, 567.24 33.37, 562.00 21.00 C 557.67 6.45, 553.42 -4.56, 536.00 0.00 Z" fill="rgb(111.33177172061329,119.8309199318569,59.512776831345825)" stroke="rgb(111.33177172061329,119.8309199318569,59.512776831345825)" stroke-width="1" />
<path d="M 591.00 29.00 C 586.37 36.96, 570.04 31.91, 571.00 39.00 C 575.90 47.39, 577.65 57.71, 587.00 60.00 C 600.71 74.46, 621.17 67.61, 638.00 70.00 C 646.15 71.62, 655.85 71.62, 663.00 70.00 C 658.97 59.91, 649.97 52.87, 643.00 45.00 C 623.29 43.93, 605.71 41.13, 592.00 29.00 Z" fill="rgb(114.1304721030043,101.48068669527898,96.11416309012876)" stroke="rgb(114.1304721030043,101.48068669527898,96.11416309012876)" stroke-width="1" />
<path d="M 589.00 793.00 C 579.77 803.81, 582.87 823.60, 581.00 838.00 C 578.73 846.98, 583.31 853.87, 581.00 861.00 C 585.16 866.51, 596.55 862.78, 603.00 864.00 C 609.75 862.42, 622.08 867.42, 623.00 861.00 C 621.27 852.09, 619.23 844.30, 616.00 837.00 C 606.97 822.31, 609.40 798.62, 590.00 793.00 Z" fill="rgb(34.56975169300226,36.23115124153499,29.843340857787812)" stroke="rgb(34.56975169300226,36.23115124153499,29.843340857787812)" stroke-width="1" />
<path d="M 477.00 0.00 C 477.89 17.77, 481.00 38.08, 480.00 58.00 C 480.71 69.30, 478.57 77.60, 480.00 87.00 C 485.68 87.51, 496.61 62.83, 502.00 81.00 C 498.30 96.36, 506.91 74.12, 505.00 67.00 C 505.00 56.33, 505.00 46.67, 505.00 37.00 C 502.62 27.10, 502.91 17.09, 501.00 8.00 C 502.85 -5.43, 485.79 2.00, 478.00 0.00 Z" fill="rgb(44.40626506024096,54.12192771084337,23.663132530120482)" stroke="rgb(44.40626506024096,54.12192771084337,23.663132530120482)" stroke-width="1" />
<path d="M 272.00 559.00 C 261.19 562.19, 255.17 574.42, 249.00 583.00 C 241.96 592.39, 238.04 603.77, 234.00 614.00 C 230.27 626.34, 226.85 634.38, 225.00 646.00 C 221.13 659.38, 224.81 668.48, 228.00 679.00 C 231.70 681.67, 228.68 670.46, 233.00 669.00 C 235.52 674.96, 239.67 667.82, 239.00 662.00 C 242.92 650.52, 245.00 639.28, 247.00 628.00 C 252.22 616.23, 253.79 603.95, 261.00 594.00 C 262.67 581.28, 276.87 571.39, 273.00 560.00 Z" fill="rgb(120.51670822942643,136.5516209476309,118.41845386533666)" stroke="rgb(120.51670822942643,136.5516209476309,118.41845386533666)" stroke-width="1" />
<path d="M 1.00 0.00 C -0.38 12.70, 16.38 7.45, 26.00 10.00 C 37.24 13.50, 49.23 12.78, 60.00 15.00 C 83.69 16.68, 103.48 25.34, 127.00 25.00 C 118.58 16.51, 118.65 -2.31, 104.00 0.00 C 92.00 0.00, 81.00 0.00, 70.00 0.00 C 46.67 0.00, 24.33 0.00, 2.00 0.00 Z" fill="rgb(126.94490644490645,140.31860706860707,120.58471933471934)" stroke="rgb(126.94490644490645,140.31860706860707,120.58471933471934)" stroke-width="1" />
<path d="M 587.00 335.00 C 575.02 343.91, 563.78 354.60, 552.00 364.00 C 531.28 373.97, 552.16 387.06, 556.00 398.00 C 570.19 391.53, 581.64 381.88, 593.00 372.00 C 607.71 360.54, 590.62 346.43, 588.00 335.00 Z" fill="rgb(48.33676092544987,61.30282776349615,26.56606683804627)" stroke="rgb(48.33676092544987,61.30282776349615,26.56606683804627)" stroke-width="1" />
<path d="M 535.00 16.00 C 527.39 26.41, 503.02 25.28, 508.00 41.00 C 504.04 59.94, 528.02 52.24, 535.00 65.00 C 544.78 67.73, 569.85 68.11, 558.00 53.00 C 552.05 39.53, 544.78 24.93, 536.00 16.00 Z" fill="rgb(47.147260273972606,53.96404109589041,30.78538812785388)" stroke="rgb(47.147260273972606,53.96404109589041,30.78538812785388)" stroke-width="1" />
<path d="M 731.00 432.00 C 693.06 437.21, 656.79 446.45, 619.00 452.00 C 599.11 455.46, 581.24 460.39, 562.00 462.00 C 552.23 463.55, 543.15 464.37, 534.00 465.00 C 526.30 464.39, 504.13 468.72, 519.00 473.00 C 558.97 471.29, 595.44 463.55, 632.00 456.00 C 651.68 453.02, 670.14 449.54, 689.00 447.00 C 698.38 444.16, 708.27 444.99, 717.00 443.00 C 724.08 443.81, 746.80 432.31, 732.00 432.00 Z" fill="rgb(168.23704954954954,176.40878378378378,168.13963963963963)" stroke="rgb(168.23704954954954,176.40878378378378,168.13963963963963)" stroke-width="1" />
<path d="M 134.00 531.00 C 120.66 531.23, 109.63 537.04, 97.00 539.00 C 85.73 550.09, 108.29 562.24, 116.00 573.00 C 127.25 596.04, 134.03 574.98, 137.00 562.00 C 140.00 552.54, 154.27 529.05, 135.00 531.00 Z" fill="rgb(57.700115340253745,64.61707035755478,39.41349480968858)" stroke="rgb(57.700115340253745,64.61707035755478,39.41349480968858)" stroke-width="1" />
<path d="M 491.00 466.00 C 469.56 472.07, 450.41 483.68, 427.00 485.00 C 416.52 487.30, 404.93 487.87, 395.00 486.00 C 376.19 480.78, 378.58 492.37, 394.00 494.00 C 417.36 497.33, 438.04 490.15, 459.00 487.00 C 471.64 488.62, 481.35 489.24, 492.00 485.00 C 503.91 480.28, 511.35 461.54, 492.00 466.00 Z" fill="rgb(108.81520223152022,88.65062761506276,86.48117154811716)" stroke="rgb(108.81520223152022,88.65062761506276,86.48117154811716)" stroke-width="1" />
<path d="M 54.00 489.00 C 42.91 493.76, 17.41 496.26, 40.00 504.00 C 52.58 516.14, 62.75 525.67, 79.00 519.00 C 91.49 518.93, 117.53 504.23, 95.00 499.00 C 80.27 497.42, 65.71 497.85, 55.00 489.00 Z" fill="rgb(32.86020761245675,33.761245674740486,31.290657439446367)" stroke="rgb(32.86020761245675,33.761245674740486,31.290657439446367)" stroke-width="1" />
<path d="M 534.00 378.00 C 522.89 386.81, 513.08 394.35, 502.00 403.00 C 487.28 413.47, 510.19 421.04, 519.00 414.00 C 530.64 413.45, 543.78 413.56, 552.00 407.00 C 553.41 394.04, 547.85 379.41, 535.00 378.00 Z" fill="rgb(132.34838224228744,110.65086531226486,79.28743416102333)" stroke="rgb(132.34838224228744,110.65086531226486,79.28743416102333)" stroke-width="1" />
<path d="M 761.00 0.00 C 754.59 24.76, 740.18 46.21, 729.00 69.00 C 722.90 81.75, 716.02 93.71, 702.00 95.00 C 693.62 97.23, 692.99 105.27, 692.00 111.00 C 692.20 118.98, 674.97 117.96, 682.00 124.00 C 695.54 133.44, 707.96 114.32, 714.00 105.00 C 720.81 92.16, 728.97 82.09, 736.00 70.00 C 748.09 47.93, 759.86 22.83, 762.00 0.00 Z" fill="rgb(74.02854938271605,80.50771604938272,31.21219135802469)" stroke="rgb(74.02854938271605,80.50771604938272,31.21219135802469)" stroke-width="1" />
<path d="M 513.00 581.00 C 495.00 579.74, 496.47 591.46, 511.00 599.00 C 522.63 608.77, 533.25 617.54, 544.00 626.00 C 559.83 606.00, 539.23 575.41, 514.00 581.00 Z" fill="rgb(107.3076923076923,103.92307692307692,65.23076923076923)" stroke="rgb(107.3076923076923,103.92307692307692,65.23076923076923)" stroke-width="1" />
<path d="M 515.00 581.00 C 499.03 579.42, 493.76 589.78, 510.00 598.00 C 521.72 607.53, 532.08 616.94, 543.00 625.00 C 560.27 610.01, 540.93 575.43, 516.00 581.00 Z" fill="rgb(111.67870868562645,95.67409684857802,66.57571099154497)" stroke="rgb(111.67870868562645,95.67409684857802,66.57571099154497)" stroke-width="1" />
<path d="M 487.00 498.00 C 491.03 510.34, 518.53 511.85, 531.00 522.00 C 548.77 529.74, 564.95 538.94, 582.00 546.00 C 615.44 563.16, 648.90 576.85, 683.00 589.00 C 688.67 578.57, 671.13 584.48, 666.00 578.00 C 657.15 574.31, 648.94 571.49, 641.00 568.00 C 623.33 560.34, 606.41 553.29, 590.00 545.00 C 555.39 528.86, 523.63 509.27, 488.00 499.00 Z" fill="rgb(128.74334600760457,138.9315589353612,118.29657794676807)" stroke="rgb(128.74334600760457,138.9315589353612,118.29657794676807)" stroke-width="1" />
<path d="M 710.00 328.00 C 691.88 345.31, 729.25 345.92, 740.00 353.00 C 756.61 357.60, 771.24 370.64, 789.00 364.00 C 805.38 364.82, 791.44 357.25, 785.00 355.00 C 775.84 352.38, 767.59 349.99, 760.00 346.00 C 743.33 339.20, 726.42 335.40, 711.00 328.00 Z" fill="rgb(43.7673860911271,46.8017585931255,31.972821742605916)" stroke="rgb(43.7673860911271,46.8017585931255,31.972821742605916)" stroke-width="1" />
<path d="M 550.00 407.00 C 541.77 414.42, 529.37 411.75, 519.00 414.00 C 498.97 413.36, 512.19 427.62, 514.00 438.00 C 514.75 453.68, 534.16 445.14, 541.00 440.00 C 550.46 430.90, 552.98 418.06, 551.00 407.00 Z" fill="rgb(110.6082474226804,93.88818398096748,62.34020618556701)" stroke="rgb(110.6082474226804,93.88818398096748,62.34020618556701)" stroke-width="1" />
<path d="M 694.00 10.00 C 680.38 25.81, 675.27 45.15, 669.00 64.00 C 666.09 81.39, 660.52 105.65, 671.00 118.00 C 682.83 104.84, 672.73 80.59, 680.00 65.00 C 680.94 45.07, 701.17 28.11, 695.00 10.00 Z" fill="rgb(61.94241686942417,68.51094890510949,22.048661800486617)" stroke="rgb(61.94241686942417,68.51094890510949,22.048661800486617)" stroke-width="1" />
<path d="M 508.00 55.00 C 508.27 65.72, 505.99 75.39, 506.00 86.00 C 515.98 90.19, 526.12 92.99, 537.00 94.00 C 553.32 99.84, 544.69 78.64, 542.00 72.00 C 531.29 63.35, 522.04 54.60, 509.00 55.00 Z" fill="rgb(50.43068088597211,57.76784249384742,24.855619360131254)" stroke="rgb(50.43068088597211,57.76784249384742,24.855619360131254)" stroke-width="1" />
<path d="M 740.00 268.00 C 728.09 283.45, 744.25 290.37, 756.00 299.00 C 769.60 307.49, 782.23 314.92, 795.00 322.00 C 808.01 313.24, 787.87 301.39, 778.00 295.00 C 765.68 284.13, 754.92 274.95, 741.00 268.00 Z" fill="rgb(82.57062146892656,89.45682001614205,30.56497175141243)" stroke="rgb(82.57062146892656,89.45682001614205,30.56497175141243)" stroke-width="1" />
<path d="M 572.00 0.00 C 582.66 21.85, 608.95 46.57, 634.00 39.00 C 626.30 27.80, 612.81 18.25, 604.00 7.00 C 601.35 -5.71, 583.10 2.40, 573.00 0.00 Z" fill="rgb(45.37417218543046,48.19619205298013,31.998344370860927)" stroke="rgb(45.37417218543046,48.19619205298013,31.998344370860927)" stroke-width="1" />
<path d="M 412.00 764.00 C 403.97 769.51, 385.71 770.67, 393.00 784.00 C 398.13 793.82, 395.09 808.63, 404.00 814.00 C 418.26 813.95, 422.95 801.74, 422.00 791.00 C 418.57 781.31, 425.82 764.40, 413.00 764.00 Z" fill="rgb(32.64056059356966,36.812036273701565,32.55152514427041)" stroke="rgb(32.64056059356966,36.812036273701565,32.55152514427041)" stroke-width="1" />
<path d="M 484.00 504.00 C 475.76 510.08, 455.21 517.54, 471.00 526.00 C 483.25 534.04, 492.52 541.60, 503.00 550.00 C 518.06 559.38, 505.99 536.37, 504.00 530.00 C 503.06 517.15, 497.94 505.63, 485.00 504.00 Z" fill="rgb(45.33103448275862,50.50431034482759,37.206896551724135)" stroke="rgb(45.33103448275862,50.50431034482759,37.206896551724135)" stroke-width="1" />
<path d="M 436.00 518.00 C 435.59 531.43, 455.84 551.71, 470.00 559.00 C 478.31 561.84, 487.93 562.68, 492.00 571.00 C 493.19 583.45, 504.56 577.53, 512.00 580.00 C 527.17 579.11, 514.98 573.49, 508.00 571.00 C 498.20 568.07, 491.57 560.89, 484.00 556.00 C 467.16 544.21, 453.91 527.19, 437.00 519.00 Z" fill="rgb(106.3704761904762,115.74666666666667,50.637142857142855)" stroke="rgb(106.3704761904762,115.74666666666667,50.637142857142855)" stroke-width="1" />
<path d="M 499.00 95.00 C 491.64 101.67, 481.35 111.85, 480.00 123.00 C 468.86 130.59, 471.03 145.16, 485.00 145.00 C 493.46 137.34, 514.37 146.72, 508.00 130.00 C 498.79 118.96, 498.50 108.23, 499.00 96.00 Z" fill="rgb(56.026709401709404,67.87606837606837,28.037393162393162)" stroke="rgb(56.026709401709404,67.87606837606837,28.037393162393162)" stroke-width="1" />
<path d="M 216.00 539.00 C 193.91 551.92, 170.02 560.50, 149.00 576.00 C 137.42 584.48, 123.97 593.53, 119.00 606.00 C 118.04 613.76, 109.28 610.89, 105.00 614.00 C 95.72 618.32, 107.95 622.87, 113.00 621.00 C 132.55 619.83, 121.51 611.73, 127.00 601.00 C 138.95 590.40, 149.80 580.58, 162.00 574.00 C 173.88 567.04, 185.15 562.02, 196.00 556.00 C 202.74 550.56, 232.31 542.61, 217.00 539.00 Z" fill="rgb(158.20078354554357,165.51322233104798,158.72967678746326)" stroke="rgb(158.20078354554357,165.51322233104798,158.72967678746326)" stroke-width="1" />
<path d="M 522.00 489.00 C 519.27 498.77, 545.97 493.61, 556.00 496.00 C 570.62 497.10, 584.45 497.72, 598.00 499.00 C 626.23 500.90, 652.80 504.42, 681.00 504.00 C 684.56 499.01, 658.21 499.68, 649.00 498.00 C 634.22 497.28, 621.02 495.14, 607.00 495.00 C 578.20 492.66, 551.14 489.53, 523.00 489.00 Z" fill="rgb(151.3829568788501,160.57802874743325,147.64065708418892)" stroke="rgb(151.3829568788501,160.57802874743325,147.64065708418892)" stroke-width="1" />
<path d="M 754.00 827.00 C 746.80 835.28, 745.28 845.92, 740.00 855.00 C 730.39 868.56, 748.56 862.72, 757.00 864.00 C 765.49 862.79, 787.77 868.15, 775.00 857.00 C 768.26 846.36, 765.46 835.09, 755.00 827.00 Z" fill="rgb(141.11752360965372,152.25393494228751,151.69989506820568)" stroke="rgb(141.11752360965372,152.25393494228751,151.69989506820568)" stroke-width="1" />
<path d="M 133.00 510.00 C 123.20 515.62, 111.94 517.71, 102.00 523.00 C 89.38 534.23, 105.21 540.47, 115.00 532.00 C 125.77 529.29, 137.85 532.20, 147.00 528.00 C 154.62 516.12, 147.58 505.98, 134.00 510.00 Z" fill="rgb(32.18092105263158,33.40241228070175,31.279605263157894)" stroke="rgb(32.18092105263158,33.40241228070175,31.279605263157894)" stroke-width="1" />
<path d="M 506.00 178.00 C 479.29 200.35, 466.31 234.15, 464.00 267.00 C 472.80 253.61, 477.81 237.65, 486.00 223.00 C 492.47 208.00, 504.49 188.94, 507.00 178.00 Z" fill="rgb(91.52359033371691,106.56962025316456,36.89873417721519)" stroke="rgb(91.52359033371691,106.56962025316456,36.89873417721519)" stroke-width="1" />
<path d="M 207.00 355.00 C 194.95 357.15, 183.92 360.99, 201.00 368.00 C 211.45 374.19, 221.54 378.84, 231.00 385.00 C 244.37 397.04, 246.90 380.30, 238.00 372.00 C 227.91 364.28, 220.62 353.21, 208.00 355.00 Z" fill="rgb(44.95578231292517,52.900226757369616,33.3968253968254)" stroke="rgb(44.95578231292517,52.900226757369616,33.3968253968254)" stroke-width="1" />
<path d="M 470.00 136.00 C 466.97 143.49, 484.52 151.88, 492.00 156.00 C 502.83 156.87, 514.37 169.50, 523.00 158.00 C 527.29 146.33, 511.09 141.19, 502.00 142.00 C 490.08 143.29, 482.22 136.30, 471.00 136.00 Z" fill="rgb(76.86007237635705,87.52110977080821,25.6875753920386)" stroke="rgb(76.86007237635705,87.52110977080821,25.6875753920386)" stroke-width="1" />
<path d="M 458.00 565.00 C 447.55 576.69, 456.74 604.01, 475.00 604.00 C 487.19 605.47, 493.64 595.65, 482.00 589.00 C 474.08 580.87, 468.21 570.24, 459.00 566.00 Z" fill="rgb(83.26086956521739,82.43478260869566,67.73913043478261)" stroke="rgb(83.26086956521739,82.43478260869566,67.73913043478261)" stroke-width="1" />
<path d="M 456.00 566.00 C 449.70 581.65, 458.04 606.06, 478.00 604.00 C 493.61 604.13, 487.31 591.91, 479.00 586.00 C 471.38 578.53, 467.09 567.57, 457.00 566.00 Z" fill="rgb(88.55405405405405,77.86363636363636,64.77518427518427)" stroke="rgb(88.55405405405405,77.86363636363636,64.77518427518427)" stroke-width="1" />
<path d="M 486.00 499.00 C 486.83 506.93, 506.50 508.75, 515.00 514.00 C 527.38 519.08, 537.94 525.14, 549.00 530.00 C 573.01 540.50, 594.84 552.85, 618.00 562.00 C 615.37 554.01, 596.38 553.41, 590.00 545.00 C 577.97 539.40, 566.92 533.85, 556.00 528.00 C 533.00 516.72, 511.30 504.72, 487.00 499.00 Z" fill="rgb(176.67724867724868,185.69708994708995,185.2685185185185)" stroke="rgb(176.67724867724868,185.69708994708995,185.2685185185185)" stroke-width="1" />
<path d="M 507.00 0.00 C 500.55 6.15, 506.12 15.24, 505.00 23.00 C 506.26 36.77, 518.52 23.34, 525.00 22.00 C 536.36 17.23, 537.64 8.89, 533.00 0.00 C 524.00 0.00, 516.00 0.00, 508.00 0.00 Z" fill="rgb(94.67857142857143,99.25,42.75)" stroke="rgb(94.67857142857143,99.25,42.75)" stroke-width="1" />
<path d="M 191.00 594.00 C 183.66 599.30, 174.90 604.52, 169.00 611.00 C 166.91 618.35, 167.47 632.74, 177.00 629.00 C 199.24 631.89, 199.86 605.69, 192.00 594.00 Z" fill="rgb(34.89078947368421,38.15,31.0)" stroke="rgb(34.89078947368421,38.15,31.0)" stroke-width="1" />
<path d="M 507.00 0.00 C 501.45 6.14, 505.26 15.71, 506.00 23.00 C 506.72 35.51, 520.60 22.95, 526.00 21.00 C 537.38 16.42, 535.62 8.90, 533.00 0.00 C 524.00 0.00, 516.00 0.00, 508.00 0.00 Z" fill="rgb(79.66848567530695,88.99045020463848,37.448840381991815)" stroke="rgb(79.66848567530695,88.99045020463848,37.448840381991815)" stroke-width="1" />
</svg>