<svg xmlns="http://www.w3.org/2000/svg" width="800" height="865" viewbox="0 0 800 865">
<path d="M 0.50 0.50 C 0.50 13.17, 0.50 25.83, 0.50 38.50 C 0.50 52.17, 0.50 64.83, 0.50 77.50 C 0.50 104.17, 0.50 129.83, 0.50 155.50 C 0.50 208.17, 0.50 259.83, 0.50 311.50 C 0.50 416.50, 0.50 520.50, 0.50 624.50 C 0.50 644.50, 0.50 663.50, 0.50 682.50 C 0.50 702.83, 0.50 722.17, 0.50 741.50 C 0.50 761.50, 0.50 780.50, 0.50 799.50 C 0.50 819.83, 0.50 839.17, 0.50 858.50 C 66.86 871.14, 154.81 861.19, 229.50 864.50 C 398.17 864.50, 565.83 864.50, 733.50 864.50 C 758.11 858.78, 809.67 881.00, 799.50 841.50 C 799.50 830.17, 799.50 819.83, 799.50 809.50 C 799.50 797.83, 799.50 787.17, 799.50 776.50 C 799.50 765.17, 799.50 754.83, 799.50 744.50 C 799.50 732.83, 799.50 722.17, 799.50 711.50 C 799.50 700.17, 799.50 689.83, 799.50 679.50 C 799.50 667.83, 799.50 657.17, 799.50 646.50 C 799.50 624.17, 799.50 602.83, 799.50 581.50 C 799.50 535.50, 799.50 490.50, 799.50 445.50 C 799.50 422.17, 799.50 399.83, 799.50 377.50 C 799.50 354.17, 799.50 331.83, 799.50 309.50 C 799.50 263.50, 799.50 218.50, 799.50 173.50 C 799.50 150.17, 799.50 127.83, 799.50 105.50 C 799.50 81.83, 799.50 59.17, 799.50 36.50 C 602.72 -45.39, 256.41 23.26, 1.50 0.50 Z" fill="rgb(63.478123352662095,70.68371112282551,37.91091196626252)" stroke="rgb(63.478123352662095,70.68371112282551,37.91091196626252)" stroke-width="1" />
<path d="M 2.50 0.50 C 1.44 35.46, 4.88 71.30, 0.50 103.50 C 0.50 121.50, 0.50 138.50, 0.50 155.50 C 0.50 173.83, 0.50 191.17, 0.50 208.50 C 0.50 224.50, 0.50 239.50, 0.50 254.50 C 0.50 270.83, 0.50 286.17, 0.50 301.50 C 0.50 317.50, 0.50 332.50, 0.50 347.50 C 0.50 363.83, 0.50 379.17, 0.50 394.50 C 27.16 446.11, -3.38 473.39, 4.50 568.50 C -2.04 646.34, 4.98 735.45, 2.50 816.50 C 30.24 886.01, 415.80 919.48, 390.50 784.50 C 365.72 760.76, 391.45 764.78, 395.50 789.50 C 400.84 804.36, 405.74 821.24, 399.50 836.50 C 405.05 842.07, 396.24 846.63, 398.50 852.50 C 383.83 873.17, 464.63 866.40, 455.50 857.50 C 475.49 837.60, 527.33 785.31, 541.50 825.50 C 569.35 833.94, 529.15 869.12, 567.50 864.50 C 642.82 879.04, 646.54 838.48, 666.50 839.50 C 730.43 822.33, 708.43 863.30, 798.50 864.50 C 796.00 724.24, 798.62 581.06, 797.50 440.50 C 796.90 415.28, 798.74 390.04, 796.50 366.50 C 775.91 349.12, 743.86 353.17, 770.50 369.50 C 759.31 372.12, 748.56 373.79, 740.50 378.50 C 724.08 384.68, 708.10 391.84, 692.50 399.50 C 676.99 403.21, 668.98 415.23, 655.50 413.50 C 648.18 425.56, 634.22 410.12, 648.50 411.50 C 649.46 396.45, 664.64 387.53, 674.50 378.50 C 673.66 369.38, 686.98 365.85, 688.50 359.50 C 694.66 334.48, 721.62 340.53, 710.50 324.50 C 716.29 321.77, 715.44 315.33, 717.50 311.50 C 728.10 271.27, 760.57 296.73, 769.50 308.50 C 785.78 306.24, 786.64 335.57, 796.50 317.50 C 797.17 300.60, 801.94 268.23, 787.50 274.50 C 783.36 302.30, 758.35 280.87, 741.50 270.50 C 741.66 263.01, 744.27 257.13, 747.50 251.50 C 759.65 202.54, 780.58 173.47, 797.50 132.50 C 798.31 116.04, 800.38 95.47, 796.50 79.50 C 764.72 65.38, 755.44 35.30, 764.50 11.50 C 715.70 -14.09, 508.25 -3.00, 623.50 40.50 C 684.36 74.56, 550.47 70.49, 566.50 0.50 C 378.17 0.50, 190.83 0.50, 3.50 0.50 Z" fill="rgb(85.53663774540485,91.3653610946822,76.99452773742327)" stroke="rgb(85.53663774540485,91.3653610946822,76.99452773742327)" stroke-width="1" />
<path d="M 3.50 571.50 C 0.06 668.96, 0.56 775.62, 3.50 864.50 C 59.83 864.50, 115.17 864.50, 170.50 864.50 C 184.83 864.50, 198.17 864.50, 211.50 864.50 C 226.17 864.50, 239.83 864.50, 253.50 864.50 C 268.17 864.50, 281.83 864.50, 295.50 864.50 C 310.17 864.50, 323.83 864.50, 337.50 864.50 C 355.02 862.22, 376.62 869.30, 389.50 860.50 C 401.47 831.97, 400.50 792.61, 379.50 770.50 C 364.28 761.77, 378.30 749.38, 378.50 737.50 C 375.42 726.40, 372.01 716.43, 368.50 706.50 C 365.97 693.17, 361.45 681.66, 358.50 669.50 C 357.47 664.59, 359.64 658.95, 356.50 655.50 C 350.16 641.11, 352.85 661.85, 350.50 667.50 C 348.62 685.31, 349.33 700.83, 351.50 716.50 C 351.75 724.55, 350.78 729.93, 353.50 735.50 C 357.66 743.27, 354.93 752.90, 359.50 759.50 C 361.77 773.16, 366.19 787.14, 374.50 795.50 C 382.64 816.55, 354.89 834.24, 362.50 804.50 C 362.13 792.08, 355.67 783.18, 353.50 772.50 C 349.67 761.40, 345.70 747.71, 343.50 741.50 C 339.83 754.34, 337.48 766.72, 338.50 780.50 C 334.85 795.50, 340.05 810.04, 342.50 822.50 C 337.26 838.31, 315.89 835.04, 330.50 819.50 C 329.99 809.18, 328.95 799.67, 329.50 789.50 C 329.73 777.11, 328.90 765.50, 330.50 753.50 C 332.65 738.70, 333.63 724.41, 335.50 710.50 C 337.16 702.02, 336.75 694.36, 338.50 686.50 C 338.63 671.79, 338.00 658.79, 339.50 646.50 C 338.31 636.54, 343.14 627.32, 338.50 619.50 C 336.53 610.61, 320.67 611.74, 321.50 620.50 C 320.01 632.05, 315.39 641.29, 315.50 652.50 C 312.83 663.69, 311.07 674.26, 308.50 684.50 C 307.73 696.62, 303.15 705.75, 302.50 716.50 C 301.15 725.16, 299.82 732.83, 298.50 740.50 C 297.11 752.40, 301.56 756.43, 303.50 765.50 C 302.75 772.64, 299.05 782.45, 304.50 785.50 C 305.97 796.13, 307.94 811.32, 297.50 816.50 C 285.80 809.90, 299.98 791.99, 289.50 785.50 C 290.83 766.96, 287.70 747.79, 288.50 728.50 C 291.17 718.05, 289.38 706.76, 292.50 697.50 C 293.37 686.83, 296.41 678.07, 297.50 668.50 C 300.86 658.12, 302.89 648.19, 305.50 638.50 C 307.10 629.66, 310.28 621.71, 310.50 614.50 C 303.10 616.68, 298.50 624.20, 290.50 623.50 C 283.58 618.96, 279.64 626.08, 277.50 630.50 C 276.59 634.29, 274.79 636.29, 273.50 638.50 C 264.38 655.96, 255.60 672.14, 254.50 691.50 C 262.42 690.18, 254.28 701.39, 250.50 697.50 C 251.16 714.95, 242.70 729.05, 249.50 741.50 C 250.65 749.47, 243.58 753.04, 243.50 759.50 C 231.39 766.07, 222.93 771.46, 229.50 784.50 C 226.81 789.87, 215.79 785.70, 221.50 789.50 C 222.82 798.18, 224.17 811.62, 214.50 814.50 C 207.58 803.34, 215.54 785.66, 209.50 775.50 C 210.24 761.64, 211.07 748.83, 215.50 737.50 C 216.11 721.26, 215.20 722.11, 220.50 709.50 C 227.11 696.13, 215.35 683.86, 214.50 670.50 C 216.63 666.11, 214.69 661.03, 216.50 657.50 C 216.54 636.20, 220.35 617.45, 228.50 600.50 C 230.97 591.85, 244.30 565.69, 235.50 579.50 C 222.07 582.71, 219.40 601.00, 210.50 609.50 C 207.20 617.76, 204.53 625.29, 203.50 633.50 C 208.12 645.20, 205.64 659.58, 200.50 669.50 C 197.50 674.97, 191.16 674.15, 190.50 669.50 C 186.41 655.35, 194.74 640.29, 191.50 628.50 C 183.29 628.53, 176.22 628.88, 170.50 632.50 C 164.05 619.96, 171.93 602.92, 157.50 596.50 C 152.90 598.32, 149.10 598.68, 145.50 599.50 C 137.97 600.68, 129.18 599.96, 129.50 608.50 C 133.44 617.50, 123.46 623.97, 116.50 624.50 C 102.74 627.41, 92.37 611.71, 109.50 610.50 C 129.70 599.55, 105.72 594.29, 96.50 588.50 C 65.24 582.65, 34.61 577.70, 4.50 571.50 Z" fill="rgb(87.09202658731262,104.051283477487,60.72544984286787)" stroke="rgb(87.09202658731262,104.051283477487,60.72544984286787)" stroke-width="1" />
<path d="M 2.50 0.50 C 0.18 18.68, 2.16 38.64, 1.50 57.50 C 1.50 77.83, 1.50 97.17, 1.50 116.50 C 6.35 124.51, 18.15 124.24, 25.50 127.50 C 41.56 132.45, 57.47 135.32, 74.50 135.50 C 91.78 134.51, 108.48 134.54, 123.50 130.50 C 134.61 129.11, 144.32 126.74, 154.50 125.50 C 159.74 125.73, 165.03 125.25, 165.50 120.50 C 163.44 108.23, 158.26 97.27, 157.50 86.50 C 155.78 81.92, 158.77 74.84, 164.50 76.50 C 175.12 86.93, 176.89 102.26, 176.50 114.50 C 175.67 128.48, 191.59 124.97, 200.50 126.50 C 220.47 128.30, 237.54 133.68, 256.50 134.50 C 264.84 133.52, 272.74 133.89, 279.50 131.50 C 292.24 129.15, 303.71 126.16, 314.50 121.50 C 320.57 118.89, 327.09 117.19, 329.50 111.50 C 330.79 91.32, 332.35 76.55, 332.50 57.50 C 334.22 48.09, 328.44 39.07, 331.50 29.50 C 339.70 21.80, 342.27 35.32, 344.50 39.50 C 348.92 53.27, 340.51 64.38, 341.50 77.50 C 341.80 87.62, 334.92 104.24, 344.50 110.50 C 355.28 113.79, 362.69 112.41, 372.50 112.50 C 384.97 112.92, 385.15 101.35, 397.50 99.50 C 405.67 109.16, 418.69 124.71, 431.50 116.50 C 434.87 109.79, 435.39 103.32, 437.50 97.50 C 447.73 90.14, 454.81 81.03, 461.50 71.50 C 467.09 62.83, 458.10 38.77, 473.50 53.50 C 487.84 73.51, 455.93 83.08, 454.50 101.50 C 455.89 112.80, 434.39 124.32, 450.50 130.50 C 461.83 135.55, 464.72 121.94, 468.50 115.50 C 478.68 102.34, 481.20 88.58, 491.50 76.50 C 516.73 97.24, 501.97 30.27, 502.50 5.50 C 476.05 -4.69, 437.64 3.06, 406.50 0.50 C 389.17 0.50, 372.83 0.50, 356.50 0.50 C 339.17 0.50, 322.83 0.50, 306.50 0.50 C 272.17 0.50, 238.83 0.50, 205.50 0.50 C 137.50 0.50, 70.50 0.50, 3.50 0.50 Z" fill="rgb(83.9125737651596,98.88181311277357,46.61154221458111)" stroke="rgb(83.9125737651596,98.88181311277357,46.61154221458111)" stroke-width="1" />
<path d="M 789.50 367.50 C 735.03 368.97, 537.46 473.65, 674.50 440.50 C 701.42 441.60, 785.97 407.01, 753.50 436.50 C 705.41 463.87, 610.79 436.51, 586.50 489.50 C 601.23 489.61, 614.80 491.51, 627.50 495.50 C 669.97 491.87, 719.16 509.61, 649.50 506.50 C 631.52 505.60, 615.48 502.41, 598.50 501.50 C 589.76 501.86, 575.40 498.10, 581.50 509.50 C 584.30 522.55, 591.36 532.83, 597.50 543.50 C 604.13 549.60, 611.02 553.08, 618.50 555.50 C 637.78 565.09, 656.61 572.37, 675.50 579.50 C 680.48 580.31, 686.29 580.34, 687.50 585.50 C 683.30 597.56, 671.42 587.59, 663.50 585.50 C 646.84 580.76, 604.54 554.13, 626.50 586.50 C 629.67 595.65, 634.64 602.64, 637.50 610.50 C 658.64 659.34, 693.80 700.84, 729.50 741.50 C 739.30 750.88, 750.43 759.81, 760.50 767.50 C 773.67 774.34, 802.80 801.80, 798.50 771.50 C 794.62 634.94, 805.30 477.90, 790.50 367.50 Z" fill="rgb(126.3668407310705,136.8335509138381,89.35052219321149)" stroke="rgb(126.3668407310705,136.8335509138381,89.35052219321149)" stroke-width="1" />
<path d="M 323.50 317.50 C 310.39 323.55, 291.98 319.96, 282.50 332.50 C 277.65 342.65, 264.87 341.99, 265.50 355.50 C 274.28 367.44, 266.80 385.11, 274.50 396.50 C 276.34 407.47, 292.41 428.02, 274.50 429.50 C 263.79 432.87, 252.01 431.24, 243.50 437.50 C 231.18 438.95, 225.76 451.59, 213.50 447.50 C 201.68 459.55, 196.08 470.92, 196.50 486.50 C 199.62 500.73, 200.89 514.72, 207.50 526.50 C 219.77 541.38, 237.02 548.72, 256.50 547.50 C 270.21 552.90, 282.43 544.37, 295.50 544.50 C 306.08 535.76, 322.45 535.46, 327.50 547.50 C 333.20 555.85, 331.16 565.64, 337.50 569.50 C 335.92 577.45, 341.51 581.44, 344.50 586.50 C 353.63 597.31, 354.47 609.15, 365.50 616.50 C 377.75 619.80, 389.13 615.21, 400.50 615.50 C 411.19 612.61, 422.49 613.61, 432.50 611.50 C 451.79 608.27, 442.46 589.53, 450.50 578.50 C 455.82 561.13, 448.97 547.90, 439.50 535.50 C 432.56 529.90, 427.70 517.97, 438.50 516.50 C 450.05 515.83, 460.81 515.65, 469.50 510.50 C 476.70 506.97, 486.30 500.51, 479.50 492.50 C 485.30 477.70, 503.83 477.13, 509.50 491.50 C 519.39 490.16, 522.07 482.27, 517.50 474.50 C 498.63 479.22, 471.99 463.48, 513.50 467.50 C 518.78 460.80, 512.48 450.15, 512.50 442.50 C 511.27 430.73, 506.97 419.90, 497.50 413.50 C 487.61 409.10, 476.73 410.51, 468.50 405.50 C 451.11 403.39, 433.15 404.65, 417.50 407.50 C 405.98 409.82, 385.88 417.70, 392.50 398.50 C 392.94 387.68, 388.61 379.84, 385.50 371.50 C 383.54 360.21, 375.82 352.72, 370.50 344.50 C 365.14 324.05, 345.51 314.69, 324.50 317.50 Z" fill="rgb(206.6449452820081,192.29656768959975,191.81755567460013)" stroke="rgb(206.6449452820081,192.29656768959975,191.81755567460013)" stroke-width="1" />
<path d="M 3.50 570.50 C -0.27 576.88, 2.22 585.85, 1.50 593.50 C 1.50 605.17, 1.50 615.83, 1.50 626.50 C 1.50 638.50, 1.50 649.50, 1.50 660.50 C 1.50 672.50, 1.50 683.50, 1.50 694.50 C 1.50 706.50, 1.50 717.50, 1.50 728.50 C 1.50 740.50, 1.50 751.50, 1.50 762.50 C 1.50 774.50, 1.50 785.50, 1.50 796.50 C 1.50 808.50, 1.50 819.50, 1.50 830.50 C 1.50 842.50, 1.50 853.50, 1.50 864.50 C 13.17 864.50, 23.83 864.50, 34.50 864.50 C 46.50 864.50, 57.50 864.50, 68.50 864.50 C 80.17 864.50, 90.83 864.50, 101.50 864.50 C 113.50 864.50, 124.50 864.50, 135.50 864.50 C 140.56 863.55, 147.71 866.63, 149.50 862.50 C 153.07 853.46, 156.47 845.76, 158.50 837.50 C 160.18 830.23, 163.38 825.00, 163.50 818.50 C 168.24 802.34, 171.93 787.15, 174.50 771.50 C 175.70 763.25, 176.64 755.89, 177.50 748.50 C 179.28 731.52, 178.33 716.96, 178.50 700.50 C 178.03 690.69, 178.39 681.13, 176.50 672.50 C 175.72 656.25, 172.52 642.00, 167.50 628.50 C 163.23 619.53, 169.94 604.64, 158.50 601.50 C 149.97 600.48, 138.24 598.96, 134.50 603.50 C 137.33 623.23, 113.45 630.42, 100.50 620.50 C 96.81 607.13, 119.94 611.30, 115.50 598.50 C 107.87 594.08, 99.80 591.73, 92.50 587.50 C 83.47 586.25, 75.53 584.75, 67.50 583.50 C 53.37 581.62, 40.88 579.18, 28.50 576.50 C 19.52 575.59, 12.83 571.56, 4.50 571.50 Z" fill="rgb(64.79572247632545,79.29955549829286,25.7156262749898)" stroke="rgb(64.79572247632545,79.29955549829286,25.7156262749898)" stroke-width="1" />
<path d="M 583.50 501.50 C 577.31 512.11, 589.39 527.94, 595.50 538.50 C 602.81 549.40, 614.92 551.94, 624.50 558.50 C 634.66 562.26, 642.99 568.00, 653.50 568.50 C 662.71 576.68, 674.69 574.76, 683.50 580.50 C 689.63 583.49, 688.37 590.63, 683.50 592.50 C 678.20 591.42, 674.12 589.80, 669.50 589.50 C 658.47 581.94, 645.19 580.23, 634.50 573.50 C 610.72 563.67, 627.85 588.57, 632.50 598.50 C 635.42 605.86, 639.10 611.92, 641.50 618.50 C 650.18 636.85, 659.96 653.34, 670.50 669.50 C 677.48 679.83, 684.41 687.50, 692.50 696.50 C 699.32 708.74, 711.07 717.51, 717.50 728.50 C 726.62 739.29, 736.34 748.57, 746.50 755.50 C 761.48 768.63, 776.67 777.83, 792.50 785.50 C 801.62 789.48, 797.54 776.28, 798.50 771.50 C 798.50 758.17, 798.50 745.83, 798.50 733.50 C 798.50 720.17, 798.50 707.83, 798.50 695.50 C 798.50 682.17, 798.50 669.83, 798.50 657.50 C 798.50 644.17, 798.50 631.83, 798.50 619.50 C 797.95 609.92, 799.68 600.40, 797.50 592.50 C 779.84 580.88, 762.33 572.30, 744.50 564.50 C 728.31 555.29, 712.93 547.55, 698.50 537.50 C 688.67 532.31, 679.16 529.68, 671.50 524.50 C 657.49 514.17, 641.81 510.28, 626.50 505.50 C 611.97 502.26, 599.37 502.13, 584.50 501.50 Z" fill="rgb(77.09149213348032,92.98069278818853,29.841433677389183)" stroke="rgb(77.09149213348032,92.98069278818853,29.841433677389183)" stroke-width="1" />
<path d="M 2.50 220.50 C 0.28 235.72, 2.08 252.60, 1.50 268.50 C 1.50 283.17, 1.50 296.83, 1.50 310.50 C 1.50 325.50, 1.50 339.50, 1.50 353.50 C 1.30 362.87, 1.79 372.38, 1.50 379.50 C 1.29 389.79, 1.57 398.47, 2.50 407.50 C 12.99 416.34, 26.46 417.00, 37.50 423.50 C 47.41 427.71, 56.02 432.65, 65.50 435.50 C 81.34 442.31, 97.93 444.87, 114.50 447.50 C 129.97 452.25, 145.94 453.39, 161.50 455.50 C 172.20 452.89, 184.25 452.24, 192.50 448.50 C 187.07 440.33, 177.60 437.89, 169.50 433.50 C 166.33 424.63, 155.83 429.40, 150.50 424.50 C 137.07 417.65, 150.97 398.70, 161.50 397.50 C 166.20 386.94, 167.99 371.90, 173.50 363.50 C 164.68 353.07, 152.40 345.95, 144.50 335.50 C 131.18 321.85, 120.26 308.62, 111.50 294.50 C 96.69 287.89, 110.35 272.19, 98.50 268.50 C 84.12 259.94, 71.64 250.22, 57.50 244.50 C 47.39 240.23, 39.39 234.29, 30.50 230.50 C 20.85 226.46, 14.42 218.05, 3.50 220.50 Z" fill="rgb(75.04864311315924,94.06663740765123,25.178041108916684)" stroke="rgb(75.04864311315924,94.06663740765123,25.178041108916684)" stroke-width="1" />
<path d="M 622.50 136.50 C 615.10 139.48, 608.26 143.81, 599.50 143.50 C 593.70 145.56, 596.37 152.18, 595.50 157.50 C 590.79 173.50, 579.82 159.82, 585.50 150.50 C 587.92 146.28, 586.06 142.01, 581.50 143.50 C 561.64 146.62, 542.82 149.83, 527.50 161.50 C 524.87 168.07, 518.83 171.81, 517.50 177.50 C 506.75 195.19, 498.02 212.30, 489.50 229.50 C 484.20 240.10, 480.21 250.24, 476.50 260.50 C 471.86 271.84, 468.45 282.28, 464.50 292.50 C 459.98 302.55, 462.12 339.50, 473.50 319.50 C 480.06 306.12, 486.02 293.50, 493.50 281.50 C 500.78 267.45, 510.76 255.94, 518.50 243.50 C 526.93 231.58, 534.58 219.25, 542.50 209.50 C 553.53 192.74, 568.45 175.63, 582.50 163.50 C 580.52 172.64, 573.16 177.17, 568.50 184.50 C 560.70 193.96, 555.40 201.20, 548.50 209.50 C 541.00 221.51, 532.06 231.51, 525.50 242.50 C 515.73 258.59, 504.66 272.74, 497.50 288.50 C 491.24 297.78, 487.19 306.57, 483.50 315.50 C 478.87 328.73, 465.21 341.20, 473.50 354.50 C 484.91 351.70, 488.31 336.89, 496.50 328.50 C 509.92 307.93, 524.24 288.73, 538.50 269.50 C 544.19 260.76, 551.53 254.12, 556.50 246.50 C 568.70 232.92, 582.28 216.15, 597.50 203.50 C 602.64 195.39, 600.36 185.61, 604.50 178.50 C 613.90 179.91, 611.37 192.57, 610.50 199.50 C 609.25 205.31, 604.35 209.16, 599.50 206.50 C 586.73 221.95, 573.33 234.63, 562.50 249.50 C 555.77 256.53, 551.81 263.30, 546.50 269.50 C 540.77 276.33, 536.75 282.46, 532.50 288.50 C 520.89 304.72, 510.33 319.96, 500.50 335.50 C 494.09 348.69, 482.42 358.28, 479.50 371.50 C 482.35 377.75, 485.97 375.74, 490.50 375.50 C 498.85 372.41, 506.84 371.84, 514.50 370.50 C 530.85 358.86, 545.76 346.19, 561.50 335.50 C 575.05 316.48, 582.59 296.38, 595.50 278.50 C 601.44 263.45, 610.79 251.23, 616.50 237.50 C 625.72 223.54, 633.30 209.89, 641.50 196.50 C 649.04 186.33, 656.26 177.04, 660.50 166.50 C 663.40 156.85, 660.85 144.52, 651.50 141.50 C 642.65 136.40, 633.14 136.29, 623.50 136.50 Z" fill="rgb(87.19288358700123,105.403414232826,36.84718222953517)" stroke="rgb(87.19288358700123,105.403414232826,36.84718222953517)" stroke-width="1" />
<path d="M 797.50 85.50 C 772.83 114.17, 745.95 146.43, 721.50 175.50 C 727.43 200.33, 711.36 220.25, 702.50 240.50 C 698.64 252.28, 715.47 241.77, 721.50 244.50 C 727.59 246.08, 742.73 243.37, 735.50 253.50 C 728.49 258.55, 721.04 259.14, 713.50 259.50 C 701.91 267.17, 689.64 269.75, 679.50 277.50 C 667.98 288.86, 663.21 302.72, 653.50 312.50 C 644.09 324.69, 635.27 337.22, 624.50 345.50 C 610.56 360.94, 593.68 376.50, 576.50 387.50 C 570.00 394.04, 562.82 395.51, 557.50 401.50 C 555.03 409.31, 561.62 421.07, 553.50 425.50 C 551.19 431.71, 548.26 436.65, 547.50 442.50 C 552.04 445.68, 557.08 442.34, 562.50 443.50 C 579.54 439.54, 595.17 435.58, 609.50 428.50 C 620.87 423.00, 630.11 416.74, 639.50 408.50 C 656.39 392.20, 674.24 376.72, 685.50 358.50 C 698.81 342.04, 708.08 325.33, 719.50 309.50 C 722.49 302.36, 727.30 296.97, 729.50 290.50 C 737.06 272.32, 744.19 255.37, 751.50 238.50 C 753.92 231.34, 754.64 224.48, 757.50 218.50 C 767.79 172.10, 804.37 137.59, 798.50 85.50 Z" fill="rgb(139.3214982735325,151.3263774208077,120.46171745984087)" stroke="rgb(139.3214982735325,151.3263774208077,120.46171745984087)" stroke-width="1" />
<path d="M 2.50 413.50 C -1.67 416.12, 1.48 423.65, 0.50 428.50 C 1.20 475.15, -1.24 522.11, 2.50 566.50 C 32.37 575.09, 62.30 580.13, 92.50 584.50 C 105.93 592.06, 126.76 603.18, 131.50 581.50 C 137.84 559.79, 171.65 497.47, 124.50 514.50 C 117.13 518.88, 109.78 519.91, 103.50 523.50 C 102.31 541.18, 68.22 541.23, 61.50 523.50 C 73.48 517.85, 86.97 519.23, 97.50 513.50 C 107.13 500.12, 119.52 500.26, 132.50 499.50 C 137.89 491.67, 168.64 490.90, 158.50 482.50 C 145.08 481.83, 133.61 483.44, 121.50 483.50 C 113.07 482.76, 117.26 492.13, 110.50 490.50 C 104.16 490.99, 104.30 482.36, 98.50 484.50 C 81.83 485.30, 76.93 492.57, 61.50 492.50 C 46.37 488.34, 36.42 499.60, 24.50 498.50 C 17.88 492.74, 24.39 487.65, 27.50 484.50 C 38.31 476.93, 50.92 482.45, 62.50 479.50 C 78.26 474.94, 98.07 480.34, 108.50 467.50 C 113.63 463.79, 119.13 466.14, 122.50 468.50 C 137.27 467.89, 150.84 466.79, 163.50 463.50 C 165.22 456.73, 153.57 458.91, 149.50 457.50 C 139.63 455.19, 129.97 454.78, 121.50 451.50 C 110.08 449.72, 99.49 448.32, 89.50 445.50 C 77.84 442.95, 67.48 439.70, 57.50 435.50 C 48.82 430.72, 40.11 428.45, 32.50 423.50 C 21.95 420.68, 12.69 417.17, 3.50 413.50 Z" fill="rgb(40.82169167803547,45.26180081855389,31.847339699863575)" stroke="rgb(40.82169167803547,45.26180081855389,31.847339699863575)" stroke-width="1" />
<path d="M 797.50 407.50 C 781.74 412.34, 767.78 421.52, 752.50 427.50 C 748.25 429.54, 742.90 429.69, 742.50 434.50 C 733.71 441.48, 723.44 443.89, 714.50 449.50 C 698.83 456.50, 683.97 463.02, 669.50 470.50 C 659.44 475.70, 649.95 479.83, 641.50 486.50 C 636.39 493.96, 645.20 496.47, 650.50 495.50 C 660.31 496.81, 669.46 497.31, 677.50 500.50 C 693.34 505.38, 665.49 505.11, 659.50 506.50 C 652.96 509.88, 670.12 513.40, 673.50 518.50 C 684.49 527.13, 695.76 531.67, 706.50 537.50 C 723.68 548.00, 741.20 555.28, 757.50 565.50 C 772.30 571.37, 785.00 579.90, 798.50 586.50 C 800.83 565.99, 798.84 544.70, 799.50 524.50 C 799.50 503.17, 799.50 482.83, 799.50 462.50 C 798.95 443.59, 800.67 424.74, 798.50 407.50 Z" fill="rgb(166.23891026939438,175.79521976909055,173.9430828438323)" stroke="rgb(166.23891026939438,175.79521976909055,173.9430828438323)" stroke-width="1" />
<path d="M 3.50 122.50 C -0.49 125.37, -0.12 133.69, 1.50 138.50 C 1.50 151.17, 1.50 162.83, 1.50 174.50 C 1.50 187.17, 1.50 198.83, 1.50 210.50 C 2.12 217.71, 10.77 216.91, 15.50 217.50 C 29.97 219.77, 45.48 217.14, 58.50 220.50 C 72.30 222.26, 85.38 223.05, 98.50 221.50 C 113.41 218.88, 127.02 215.55, 139.50 209.50 C 154.22 202.76, 167.79 195.67, 180.50 186.50 C 181.81 169.37, 171.31 154.13, 169.50 137.50 C 168.40 132.16, 168.31 125.47, 161.50 127.50 C 153.49 128.48, 146.10 128.54, 139.50 130.50 C 120.46 133.55, 102.71 137.28, 83.50 137.50 C 69.50 137.30, 55.85 138.67, 44.50 134.50 C 30.22 131.52, 17.35 127.52, 4.50 123.50 Z" fill="rgb(31.508228195282502,34.01385079539221,28.556500274273176)" stroke="rgb(31.508228195282502,34.01385079539221,28.556500274273176)" stroke-width="1" />
<path d="M 183.50 187.50 C 178.61 191.89, 172.71 193.86, 167.50 197.50 C 153.27 206.02, 139.05 212.16, 124.50 217.50 C 115.85 219.20, 108.77 222.29, 100.50 222.50 C 87.86 224.19, 74.16 223.91, 62.50 222.50 C 47.86 219.73, 33.87 219.16, 19.50 220.50 C 21.08 225.63, 33.27 228.20, 39.50 232.50 C 53.88 240.06, 67.09 247.01, 80.50 253.50 C 86.87 258.61, 94.33 262.14, 100.50 266.50 C 106.79 271.05, 118.07 263.25, 118.50 274.50 C 133.63 285.03, 150.77 293.10, 165.50 303.50 C 172.89 304.84, 179.19 314.48, 185.50 308.50 C 186.33 296.50, 199.24 302.85, 196.50 311.50 C 198.98 319.64, 216.67 319.08, 208.50 309.50 C 200.18 299.52, 215.29 299.99, 215.50 308.50 C 225.85 319.89, 236.40 328.33, 247.50 336.50 C 255.42 340.53, 259.24 333.12, 257.50 326.50 C 245.01 311.06, 243.16 290.93, 230.50 277.50 C 221.15 263.20, 218.03 247.73, 209.50 234.50 C 197.62 219.84, 194.28 201.06, 184.50 187.50 Z" fill="rgb(133.8634314903846,148.63611778846155,128.1134314903846)" stroke="rgb(133.8634314903846,148.63611778846155,128.1134314903846)" stroke-width="1" />
<path d="M 251.50 169.50 C 242.90 171.47, 232.98 170.25, 224.50 172.50 C 212.74 172.33, 205.90 179.51, 208.50 188.50 C 201.22 194.33, 199.23 175.22, 196.50 186.50 C 202.04 202.53, 208.32 216.27, 206.50 192.50 C 211.42 190.58, 207.93 201.17, 210.50 204.50 C 214.58 217.27, 214.99 231.15, 221.50 242.50 C 225.13 254.07, 231.65 263.15, 238.50 271.50 C 241.29 278.99, 249.09 270.95, 250.50 278.50 C 258.84 296.97, 269.62 309.75, 281.50 324.50 C 288.89 325.68, 295.29 320.82, 301.50 318.50 C 299.94 302.09, 288.24 288.28, 287.50 273.50 C 296.08 286.04, 302.55 299.29, 310.50 311.50 C 314.29 317.27, 323.23 314.00, 328.50 313.50 C 329.60 294.61, 323.62 279.23, 318.50 263.50 C 310.15 244.48, 297.58 228.22, 288.50 210.50 C 284.48 202.29, 278.15 196.45, 274.50 189.50 C 262.65 188.11, 264.97 169.06, 252.50 169.50 Z" fill="rgb(149.64112200935008,162.92474103950866,149.19671830598588)" stroke="rgb(149.64112200935008,162.92474103950866,149.19671830598588)" stroke-width="1" />
<path d="M 607.50 0.50 C 620.64 21.78, 645.05 44.83, 666.50 65.50 C 671.12 90.26, 669.33 134.08, 675.50 96.50 C 674.79 80.62, 687.89 93.48, 693.50 96.50 C 703.88 106.47, 670.63 126.70, 694.50 126.50 C 730.64 91.42, 751.75 47.16, 763.50 1.50 C 750.83 0.50, 738.17 0.50, 725.50 0.50 C 711.83 0.50, 699.17 0.50, 686.50 0.50 C 659.83 0.50, 634.17 0.50, 608.50 0.50 Z" fill="rgb(42.681442080378254,47.133766745468876,25.784672970843182)" stroke="rgb(42.681442080378254,47.133766745468876,25.784672970843182)" stroke-width="1" />
<path d="M 667.50 155.50 C 655.63 182.63, 631.92 210.04, 618.50 238.50 C 611.13 251.49, 604.74 263.46, 598.50 275.50 C 588.75 291.05, 580.63 306.28, 572.50 321.50 C 571.13 330.63, 575.92 317.90, 580.50 320.50 C 598.00 309.37, 615.08 298.18, 632.50 287.50 C 650.39 277.91, 666.38 267.13, 684.50 261.50 C 702.76 246.35, 707.86 220.25, 718.50 200.50 C 730.02 168.48, 691.83 157.63, 668.50 155.50 Z" fill="rgb(48.28576835730507,56.10408781226344,26.86563209689629)" stroke="rgb(48.28576835730507,56.10408781226344,26.86563209689629)" stroke-width="1" />
<path d="M 679.50 747.50 C 670.44 751.82, 682.34 769.20, 667.50 768.50 C 659.81 770.96, 660.64 779.57, 655.50 783.50 C 646.10 794.56, 639.57 804.84, 629.50 813.50 C 629.70 822.35, 619.09 819.43, 621.50 826.50 C 606.69 885.94, 756.65 883.01, 750.50 823.50 C 745.35 817.72, 739.17 811.05, 735.50 805.50 C 718.97 787.39, 704.34 769.90, 689.50 752.50 C 686.98 749.01, 683.39 749.11, 680.50 747.50 Z" fill="rgb(30.540346292061418,31.42110421430905,30.257105521071544)" stroke="rgb(30.540346292061418,31.42110421430905,30.257105521071544)" stroke-width="1" />
<path d="M 735.50 288.50 C 722.23 306.64, 713.92 326.83, 699.50 344.50 C 695.72 350.06, 692.53 354.46, 688.50 358.50 C 679.78 370.76, 671.07 382.01, 660.50 392.50 C 650.92 403.89, 638.27 412.81, 630.50 423.50 C 639.90 427.32, 646.84 418.82, 654.50 417.50 C 668.76 409.65, 682.15 403.12, 695.50 396.50 C 709.08 389.64, 722.09 384.78, 734.50 378.50 C 755.03 372.70, 773.54 364.45, 795.50 364.50 C 798.66 352.48, 799.61 338.92, 797.50 327.50 C 784.77 318.84, 772.40 312.74, 760.50 305.50 C 750.81 301.98, 745.72 290.76, 736.50 289.50 Z" fill="rgb(41.71014699586128,43.51719708862566,35.964035964035965)" stroke="rgb(41.71014699586128,43.51719708862566,35.964035964035965)" stroke-width="1" />
<path d="M 669.50 155.50 C 661.80 155.63, 663.42 164.68, 661.50 170.50 C 654.95 181.80, 646.92 191.37, 640.50 200.50 C 634.80 215.92, 622.44 227.18, 617.50 241.50 C 618.84 246.00, 624.39 243.21, 627.50 246.50 C 636.51 256.50, 647.65 263.90, 656.50 272.50 C 669.39 266.62, 683.86 263.48, 693.50 254.50 C 698.95 241.94, 703.86 230.57, 709.50 219.50 C 717.39 208.64, 719.18 196.67, 720.50 184.50 C 718.49 173.33, 708.48 166.77, 699.50 163.50 C 689.45 159.82, 680.84 156.07, 670.50 156.50 Z" fill="rgb(41.69595687331537,46.10309973045822,27.432075471698113)" stroke="rgb(41.69595687331537,46.10309973045822,27.432075471698113)" stroke-width="1" />
<path d="M 790.50 366.50 C 776.05 368.76, 762.18 372.38, 748.50 376.50 C 735.40 380.13, 724.34 386.25, 712.50 390.50 C 704.04 394.99, 695.96 398.01, 688.50 402.50 C 667.70 412.85, 647.75 422.83, 628.50 434.50 C 622.10 439.48, 595.92 456.07, 614.50 452.50 C 625.80 450.41, 636.53 449.37, 646.50 446.50 C 660.39 444.71, 672.43 440.87, 685.50 439.50 C 703.73 436.72, 719.44 431.28, 737.50 431.50 C 748.58 424.27, 761.42 423.72, 771.50 416.50 C 779.63 408.97, 793.87 411.41, 798.50 402.50 C 795.94 391.89, 805.11 368.23, 791.50 366.50 Z" fill="rgb(79.69016910289481,94.62582401834337,38.88162797363141)" stroke="rgb(79.69016910289481,94.62582401834337,38.88162797363141)" stroke-width="1" />
<path d="M 0.50 472.50 C 0.50 485.50, 0.50 498.50, 0.50 511.50 C 0.50 525.83, 0.50 539.17, 0.50 552.50 C 1.32 558.10, -1.43 564.19, 2.50 567.50 C 14.14 571.03, 25.44 572.99, 36.50 575.50 C 46.22 576.70, 54.32 579.40, 63.50 579.50 C 73.88 581.85, 83.07 584.68, 93.50 584.50 C 101.64 588.81, 124.29 603.34, 123.50 586.50 C 118.87 578.27, 112.00 571.96, 105.50 565.50 C 93.81 551.73, 80.01 538.65, 65.50 531.50 C 56.25 518.51, 43.98 507.18, 31.50 499.50 C 25.10 500.06, 18.14 495.18, 21.50 489.50 C 16.45 481.85, 9.61 474.06, 1.50 472.50 Z" fill="rgb(29.155455469998547,30.130756937381957,28.306842946389654)" stroke="rgb(29.155455469998547,30.130756937381957,28.306842946389654)" stroke-width="1" />
<path d="M 315.50 125.50 C 306.36 127.82, 297.75 131.45, 288.50 133.50 C 273.36 137.15, 256.94 137.53, 242.50 137.50 C 238.81 153.28, 264.30 154.06, 271.50 165.50 C 276.25 171.66, 279.04 179.06, 276.50 185.50 C 282.19 197.16, 289.91 207.39, 295.50 218.50 C 303.76 234.94, 316.03 248.31, 321.50 264.50 C 323.71 277.50, 338.44 301.09, 334.50 275.50 C 334.19 260.16, 332.93 246.21, 333.50 231.50 C 333.82 212.42, 333.36 194.67, 331.50 177.50 C 330.38 171.02, 330.62 164.98, 329.50 159.50 C 332.19 143.51, 322.82 135.87, 316.50 125.50 Z" fill="rgb(35.16616496086695,38.04485249849488,32.128386514148104)" stroke="rgb(35.16616496086695,38.04485249849488,32.128386514148104)" stroke-width="1" />
<path d="M 596.50 657.50 C 603.25 667.34, 613.48 675.34, 622.50 683.50 C 623.81 691.17, 633.93 686.84, 635.50 692.50 C 640.61 701.73, 649.59 700.61, 656.50 704.50 C 665.82 707.51, 659.22 720.57, 667.50 724.50 C 700.26 757.42, 726.43 797.09, 759.50 827.50 C 772.31 838.18, 774.52 861.29, 790.50 864.50 C 799.77 852.58, 806.95 799.56, 783.50 793.50 C 765.25 782.30, 746.06 776.77, 730.50 762.50 C 723.58 755.42, 718.96 749.82, 712.50 744.50 C 697.42 729.72, 681.54 719.45, 668.50 707.50 C 658.67 700.85, 652.42 692.01, 642.50 686.50 C 635.72 676.30, 625.83 674.79, 620.50 665.50 C 611.55 663.67, 604.81 659.89, 597.50 657.50 Z" fill="rgb(60.33838383838384,67.6506734006734,28.116161616161616)" stroke="rgb(60.33838383838384,67.6506734006734,28.116161616161616)" stroke-width="1" />
<path d="M 540.50 659.50 C 539.85 666.79, 543.14 672.45, 545.50 678.50 C 549.02 688.42, 549.29 699.28, 553.50 708.50 C 559.32 720.58, 557.59 734.80, 559.50 747.50 C 566.61 761.26, 565.85 774.62, 567.50 791.50 C 563.01 802.37, 563.24 815.94, 572.50 823.50 C 579.89 831.01, 567.18 833.33, 566.50 837.50 C 535.44 877.80, 600.21 862.21, 623.50 863.50 C 621.95 849.62, 617.15 838.09, 612.50 826.50 C 606.22 815.42, 607.37 802.27, 595.50 794.50 C 588.57 783.71, 591.56 770.23, 585.50 760.50 C 581.61 750.45, 576.88 742.17, 575.50 732.50 C 571.35 717.76, 566.60 704.26, 562.50 690.50 C 555.45 678.90, 556.63 662.40, 541.50 659.50 Z" fill="rgb(31.26685855263158,33.00986842105263,29.190378289473685)" stroke="rgb(31.26685855263158,33.00986842105263,29.190378289473685)" stroke-width="1" />
<path d="M 417.50 0.50 C 416.19 5.79, 421.20 8.46, 420.50 13.50 C 425.87 28.82, 430.23 43.14, 434.50 57.50 C 436.78 66.13, 440.48 72.76, 441.50 80.50 C 443.45 93.85, 455.36 77.15, 459.50 71.50 C 466.91 64.75, 454.30 46.49, 468.50 48.50 C 481.49 56.31, 479.79 81.52, 464.50 83.50 C 454.46 92.72, 464.16 97.81, 473.50 96.50 C 485.58 92.87, 485.79 69.53, 502.50 73.50 C 508.17 49.06, 503.93 20.55, 497.50 0.50 C 470.50 0.50, 444.50 0.50, 418.50 0.50 Z" fill="rgb(54.5720457433291,70.6010165184244,22.630749682337992)" stroke="rgb(54.5720457433291,70.6010165184244,22.630749682337992)" stroke-width="1" />
<path d="M 795.50 487.50 C 777.64 493.38, 760.13 500.07, 742.50 506.50 C 722.55 512.01, 704.00 517.48, 686.50 525.50 C 697.19 532.57, 708.24 535.37, 717.50 542.50 C 727.81 545.96, 734.97 553.58, 744.50 555.50 C 763.31 565.82, 780.51 576.62, 798.50 585.50 C 800.74 573.95, 798.90 561.72, 799.50 550.50 C 800.20 537.41, 798.49 526.31, 798.50 514.50 C 797.31 505.17, 800.97 493.52, 796.50 487.50 Z" fill="rgb(167.8105390882302,176.75715028601144,178.6117178020454)" stroke="rgb(167.8105390882302,176.75715028601144,178.6117178020454)" stroke-width="1" />
<path d="M 797.50 84.50 C 785.00 96.24, 776.41 111.76, 763.50 125.50 C 749.47 142.49, 734.38 158.04, 721.50 174.50 C 720.47 179.54, 723.27 181.99, 723.50 185.50 C 722.69 202.57, 716.12 216.25, 708.50 229.50 C 709.97 242.14, 713.83 246.22, 725.50 240.50 C 739.01 226.87, 749.91 213.58, 759.50 201.50 C 767.73 186.32, 778.05 171.42, 783.50 154.50 C 785.77 146.73, 790.23 141.27, 791.50 134.50 C 800.56 119.68, 798.23 101.55, 798.50 84.50 Z" fill="rgb(52.88796603912883,59.2000738279808,32.203765227021044)" stroke="rgb(52.88796603912883,59.2000738279808,32.203765227021044)" stroke-width="1" />
<path d="M 673.50 718.50 C 661.47 724.19, 673.33 717.72, 673.50 727.50 C 694.10 753.66, 714.63 778.86, 736.50 803.50 C 744.94 813.34, 751.72 821.54, 760.50 829.50 C 772.91 839.85, 773.07 857.23, 786.50 864.50 C 802.02 856.37, 805.52 788.43, 781.50 793.50 C 758.39 780.58, 735.17 771.32, 717.50 750.50 C 702.41 737.77, 689.08 725.03, 674.50 718.50 Z" fill="rgb(65.60668380462725,72.78149100257069,31.60796915167095)" stroke="rgb(65.60668380462725,72.78149100257069,31.60796915167095)" stroke-width="1" />
<path d="M 797.50 134.50 C 783.58 152.67, 779.02 177.20, 765.50 196.50 C 758.99 219.04, 754.09 241.24, 744.50 261.50 C 819.06 332.51, 798.46 185.41, 798.50 135.50 Z" fill="rgb(39.26470588235294,40.42156862745098,32.55882352941177)" stroke="rgb(39.26470588235294,40.42156862745098,32.55882352941177)" stroke-width="1" />
<path d="M 797.50 134.50 C 786.16 145.24, 785.61 162.87, 776.50 175.50 C 772.74 184.93, 766.91 192.51, 764.50 201.50 C 760.86 215.18, 756.86 227.71, 753.50 240.50 C 750.99 249.63, 744.82 258.43, 745.50 266.50 C 755.42 274.49, 765.21 281.81, 776.50 285.50 C 783.64 279.97, 794.63 278.85, 798.50 272.50 C 798.50 264.17, 798.50 256.83, 798.50 249.50 C 799.02 228.25, 799.97 208.17, 799.50 187.50 C 800.27 168.71, 797.97 152.19, 798.50 134.50 Z" fill="rgb(39.538197251414715,39.868431689571544,35.34882780921585)" stroke="rgb(39.538197251414715,39.868431689571544,35.34882780921585)" stroke-width="1" />
<path d="M 122.50 0.50 C 127.64 11.48, 133.63 25.89, 147.50 27.50 C 163.43 31.66, 178.43 34.66, 193.50 37.50 C 207.42 40.69, 220.94 42.44, 233.50 46.50 C 245.16 48.04, 255.02 51.53, 265.50 53.50 C 271.80 54.69, 269.52 50.29, 268.50 47.50 C 257.73 31.61, 248.51 14.75, 238.50 0.50 C 218.83 0.50, 200.17 0.50, 181.50 0.50 C 161.50 0.50, 142.50 0.50, 123.50 0.50 Z" fill="rgb(175.9689970869746,185.7332501040366,183.36974615064503)" stroke="rgb(175.9689970869746,185.7332501040366,183.36974615064503)" stroke-width="1" />
<path d="M 699.50 749.50 C 688.03 750.14, 699.59 755.62, 702.50 760.50 C 714.22 779.31, 730.05 795.62, 744.50 811.50 C 757.38 823.84, 768.93 835.82, 775.50 851.50 C 780.79 861.36, 786.50 867.03, 797.50 864.50 C 798.23 853.82, 797.05 845.32, 798.50 836.50 C 796.26 825.21, 800.63 813.12, 797.50 802.50 C 789.66 798.26, 782.79 795.08, 776.50 790.50 C 757.50 780.27, 737.38 771.96, 722.50 756.50 C 716.70 747.56, 709.05 750.12, 700.50 749.50 Z" fill="rgb(68.9712907671107,78.34451079467156,28.014010105649977)" stroke="rgb(68.9712907671107,78.34451079467156,28.014010105649977)" stroke-width="1" />
<path d="M 504.50 784.50 C 489.31 791.83, 476.06 799.95, 462.50 810.50 C 449.89 817.03, 437.85 821.52, 428.50 832.50 C 419.23 837.72, 412.18 844.88, 404.50 850.50 C 398.11 847.61, 398.34 855.44, 395.50 858.50 C 389.92 867.92, 403.53 863.36, 408.50 864.50 C 420.17 864.50, 430.83 864.50, 441.50 864.50 C 452.89 867.90, 451.82 855.67, 459.50 852.50 C 476.19 834.04, 496.98 826.00, 515.50 811.50 C 537.59 806.66, 515.27 789.39, 505.50 784.50 Z" fill="rgb(30.15991471215352,30.843875858801233,28.65316275764037)" stroke="rgb(30.15991471215352,30.843875858801233,28.65316275764037)" stroke-width="1" />
<path d="M 668.50 281.50 C 650.73 290.31, 634.25 302.22, 617.50 313.50 C 597.43 328.17, 580.86 342.93, 562.50 357.50 C 540.14 368.02, 542.98 387.12, 559.50 396.50 C 568.27 391.74, 576.14 387.24, 583.50 381.50 C 605.71 363.60, 620.73 347.08, 640.50 328.50 C 649.70 316.25, 658.52 305.26, 665.50 293.50 C 667.21 289.31, 673.72 282.19, 669.50 281.50 Z" fill="rgb(44.42943722943723,51.1991341991342,28.654545454545456)" stroke="rgb(44.42943722943723,51.1991341991342,28.654545454545456)" stroke-width="1" />
<path d="M 622.50 829.50 C 614.74 840.16, 626.59 852.55, 625.50 864.50 C 644.17 864.50, 661.83 864.50, 679.50 864.50 C 698.50 864.50, 716.50 864.50, 734.50 864.50 C 738.24 856.67, 750.17 827.08, 744.50 837.50 C 740.38 838.54, 731.36 839.54, 734.50 834.50 C 721.46 829.89, 700.00 836.38, 683.50 832.50 C 671.85 832.13, 660.51 833.42, 650.50 831.50 C 640.16 832.47, 632.77 828.71, 623.50 829.50 Z" fill="rgb(32.302083333333336,33.7484756097561,32.076473577235774)" stroke="rgb(32.302083333333336,33.7484756097561,32.076473577235774)" stroke-width="1" />
<path d="M 528.50 805.50 C 522.84 816.61, 508.78 813.03, 501.50 822.50 C 483.75 833.25, 466.53 847.06, 456.50 864.50 C 469.17 864.50, 480.83 864.50, 492.50 864.50 C 511.17 864.50, 528.83 864.50, 546.50 864.50 C 552.44 855.46, 555.27 843.06, 556.50 831.50 C 545.91 824.93, 542.85 809.00, 529.50 805.50 Z" fill="rgb(46.84686104544261,55.09114788547413,32.61833464670344)" stroke="rgb(46.84686104544261,55.09114788547413,32.61833464670344)" stroke-width="1" />
<path d="M 253.50 0.50 C 250.75 6.34, 259.23 8.60, 259.50 14.50 C 269.61 26.96, 270.47 41.84, 281.50 52.50 C 296.87 58.69, 312.10 62.80, 327.50 66.50 C 330.26 55.43, 331.02 45.74, 326.50 36.50 C 333.26 26.38, 324.92 13.82, 323.50 3.50 C 315.06 -1.84, 301.22 1.60, 290.50 0.50 C 277.83 0.50, 266.17 0.50, 254.50 0.50 Z" fill="rgb(123.87724550898204,138.57158410451822,121.39221556886227)" stroke="rgb(123.87724550898204,138.57158410451822,121.39221556886227)" stroke-width="1" />
<path d="M 598.50 71.50 C 591.28 73.94, 586.14 70.46, 587.50 79.50 C 567.38 168.37, 714.73 129.85, 636.50 82.50 C 624.93 74.72, 612.39 72.68, 599.50 71.50 Z" fill="rgb(65.42708333333333,72.54166666666667,33.302083333333336)" stroke="rgb(65.42708333333333,72.54166666666667,33.302083333333336)" stroke-width="1" />
<path d="M 597.50 71.50 C 593.34 76.60, 590.57 82.29, 591.50 89.50 C 595.42 106.53, 599.22 122.62, 603.50 138.50 C 612.70 140.39, 617.24 132.46, 625.50 133.50 C 633.93 132.80, 640.35 134.52, 647.50 134.50 C 651.06 123.80, 668.37 118.29, 663.50 104.50 C 659.86 93.95, 649.23 90.32, 641.50 84.50 C 627.31 78.22, 614.80 70.28, 598.50 71.50 Z" fill="rgb(40.33435156900861,42.59427936684254,36.70258261594002)" stroke="rgb(40.33435156900861,42.59427936684254,36.70258261594002)" stroke-width="1" />
<path d="M 586.50 787.50 C 580.19 793.29, 565.39 784.51, 568.50 797.50 C 563.73 809.39, 571.46 818.83, 574.50 829.50 C 562.51 836.09, 562.88 850.68, 557.50 861.50 C 575.19 866.48, 604.15 864.51, 623.50 863.50 C 616.62 835.53, 609.88 806.19, 587.50 787.50 Z" fill="rgb(35.71462450592885,38.45138339920948,29.6498023715415)" stroke="rgb(35.71462450592885,38.45138339920948,29.6498023715415)" stroke-width="1" />
<path d="M 177.50 365.50 C 167.68 371.02, 159.45 396.46, 174.50 398.50 C 184.14 404.38, 171.34 412.47, 177.50 418.50 C 186.67 421.04, 195.73 421.43, 204.50 422.50 C 219.28 424.22, 233.35 425.25, 246.50 428.50 C 252.06 430.39, 256.98 430.89, 261.50 428.50 C 258.62 421.06, 256.09 414.06, 252.50 407.50 C 234.44 395.85, 216.70 386.81, 199.50 376.50 C 191.30 373.47, 185.94 366.96, 178.50 365.50 Z" fill="rgb(41.13354857646023,47.042852949809216,32.64367478720282)" stroke="rgb(41.13354857646023,47.042852949809216,32.64367478720282)" stroke-width="1" />
<path d="M 190.50 503.50 C 182.67 504.78, 175.46 507.53, 167.50 508.50 C 142.52 508.67, 153.67 543.31, 141.50 557.50 C 121.38 603.50, 174.44 555.16, 193.50 549.50 C 224.04 544.32, 199.84 514.31, 191.50 503.50 Z" fill="rgb(35.626666666666665,37.78666666666667,27.093333333333334)" stroke="rgb(35.626666666666665,37.78666666666667,27.093333333333334)" stroke-width="1" />
<path d="M 189.50 503.50 C 181.10 506.14, 172.37 507.98, 163.50 509.50 C 150.25 507.97, 152.94 522.73, 150.50 530.50 C 146.86 546.26, 139.97 559.67, 136.50 574.50 C 133.43 585.73, 145.62 576.18, 149.50 574.50 C 162.82 564.42, 177.61 556.90, 192.50 550.50 C 197.52 545.16, 205.19 544.81, 210.50 540.50 C 216.13 535.33, 204.21 531.57, 203.50 525.50 C 197.08 518.60, 202.62 501.59, 190.50 503.50 Z" fill="rgb(36.497314375987365,39.76429699842022,34.91563981042654)" stroke="rgb(36.497314375987365,39.76429699842022,34.91563981042654)" stroke-width="1" />
<path d="M 605.50 0.50 C 599.97 4.49, 610.82 6.44, 611.50 10.50 C 618.16 18.96, 625.31 27.35, 632.50 34.50 C 641.98 41.20, 650.25 49.37, 657.50 58.50 C 671.29 73.20, 671.47 46.20, 675.50 38.50 C 681.93 25.26, 686.55 12.69, 694.50 1.50 C 680.17 0.50, 665.83 0.50, 651.50 0.50 C 635.83 0.50, 621.17 0.50, 606.50 0.50 Z" fill="rgb(39.76242038216561,42.92643312101911,26.414331210191083)" stroke="rgb(39.76242038216561,42.92643312101911,26.414331210191083)" stroke-width="1" />
<path d="M 556.50 0.50 C 611.69 128.46, 703.69 46.91, 556.50 0.50 Z" fill="rgb(103.9,98.4,80.6)" stroke="rgb(103.9,98.4,80.6)" stroke-width="1" />
<path d="M 556.50 0.50 C 535.81 88.68, 730.48 81.10, 618.50 42.50 C 589.55 39.85, 582.82 0.92, 557.50 0.50 Z" fill="rgb(82.19047619047619,76.95238095238095,60.357142857142854)" stroke="rgb(82.19047619047619,76.95238095238095,60.357142857142854)" stroke-width="1" />
<path d="M 556.50 0.50 C 555.43 6.97, 559.45 11.33, 561.50 16.50 C 573.38 39.35, 579.84 67.52, 608.50 70.50 C 623.87 68.54, 651.11 74.38, 660.50 67.50 C 650.82 51.41, 637.62 39.44, 617.50 42.50 C 606.54 40.28, 599.16 31.85, 590.50 26.50 C 577.92 16.87, 576.76 -4.70, 557.50 0.50 Z" fill="rgb(109.95182291666667,97.53385416666667,87.828125)" stroke="rgb(109.95182291666667,97.53385416666667,87.828125)" stroke-width="1" />
<path d="M 222.50 545.50 C 209.51 552.19, 196.68 559.27, 183.50 565.50 C 168.83 572.33, 156.51 579.98, 145.50 589.50 C 141.54 596.14, 152.38 589.87, 157.50 591.50 C 169.23 598.97, 170.31 612.47, 169.50 623.50 C 184.92 639.54, 207.26 612.95, 195.50 598.50 C 192.90 591.96, 199.77 585.74, 204.50 583.50 C 212.14 572.64, 226.73 570.51, 232.50 559.50 C 232.86 555.89, 230.71 546.44, 223.50 545.50 Z" fill="rgb(41.97030141843972,46.0438829787234,34.59574468085106)" stroke="rgb(41.97030141843972,46.0438829787234,34.59574468085106)" stroke-width="1" />
<path d="M 557.50 67.50 C 556.66 101.80, 511.59 78.38, 503.50 110.50 C 514.21 115.19, 525.00 116.29, 534.50 120.50 C 542.17 124.28, 549.21 127.20, 556.50 129.50 C 565.54 132.19, 575.20 138.76, 583.50 134.50 C 581.52 114.58, 574.17 97.89, 568.50 80.50 C 565.61 75.08, 565.49 66.23, 558.50 67.50 Z" fill="rgb(51.89791666666667,57.52708333333333,33.89375)" stroke="rgb(51.89791666666667,57.52708333333333,33.89375)" stroke-width="1" />
<path d="M 752.50 44.50 C 743.50 59.57, 737.73 76.63, 725.50 89.50 C 708.25 106.32, 735.53 105.98, 746.50 108.50 C 753.29 111.00, 760.66 112.23, 763.50 118.50 C 774.70 112.22, 781.11 100.75, 787.50 90.50 C 783.32 79.88, 774.61 72.14, 770.50 62.50 C 763.08 56.06, 761.52 45.92, 753.50 44.50 Z" fill="rgb(36.04414931801867,37.35498923187365,33.23438621679828)" stroke="rgb(36.04414931801867,37.35498923187365,33.23438621679828)" stroke-width="1" />
<path d="M 534.50 378.50 C 522.61 393.02, 480.26 405.05, 507.50 421.50 C 518.86 489.82, 586.17 395.46, 535.50 378.50 Z" fill="rgb(93.73333333333333,87.8,61.2)" stroke="rgb(93.73333333333333,87.8,61.2)" stroke-width="1" />
<path d="M 767.50 0.50 C 735.15 80.33, 832.94 87.85, 796.50 0.50 C 786.50 0.50, 777.50 0.50, 768.50 0.50 Z" fill="rgb(37.983870967741936,38.096774193548384,35.74193548387097)" stroke="rgb(37.983870967741936,38.096774193548384,35.74193548387097)" stroke-width="1" />
<path d="M 551.50 68.50 C 536.03 68.51, 556.26 91.36, 543.50 94.50 C 529.54 97.24, 522.45 85.78, 509.50 88.50 C 500.95 96.27, 502.94 114.10, 516.50 113.50 C 529.89 117.64, 544.83 117.30, 555.50 123.50 C 563.74 128.75, 586.57 133.86, 579.50 117.50 C 574.22 108.48, 575.47 100.19, 571.50 91.50 C 566.68 81.86, 566.10 65.30, 552.50 68.50 Z" fill="rgb(72.97197758206565,84.13170536429143,51.47518014411529)" stroke="rgb(72.97197758206565,84.13170536429143,51.47518014411529)" stroke-width="1" />
<path d="M 767.50 0.50 C 764.81 11.91, 760.58 24.12, 758.50 34.50 C 761.41 47.48, 766.44 59.33, 778.50 64.50 C 783.81 69.71, 791.85 75.44, 797.50 75.50 C 800.21 55.07, 799.27 34.54, 799.50 14.50 C 805.50 -7.17, 780.95 2.72, 768.50 0.50 Z" fill="rgb(35.7399209486166,37.30355731225296,33.240316205533595)" stroke="rgb(35.7399209486166,37.30355731225296,33.240316205533595)" stroke-width="1" />
<path d="M 379.50 772.50 C 378.66 780.96, 371.35 788.74, 374.50 797.50 C 374.83 806.39, 374.06 813.81, 371.50 820.50 C 368.19 828.77, 361.43 839.66, 357.50 849.50 C 349.81 848.22, 356.23 860.96, 347.50 864.50 C 363.17 861.65, 386.14 871.91, 392.50 855.50 C 394.88 848.02, 397.58 842.39, 395.50 835.50 C 399.47 824.17, 398.18 812.86, 395.50 802.50 C 390.26 791.70, 393.10 776.71, 380.50 772.50 Z" fill="rgb(86.84704472843451,101.24241214057508,55.0658945686901)" stroke="rgb(86.84704472843451,101.24241214057508,55.0658945686901)" stroke-width="1" />
<path d="M 119.50 282.50 C 119.11 285.68, 118.97 292.90, 123.50 294.50 C 129.56 304.83, 136.45 313.41, 144.50 321.50 C 157.46 336.70, 172.47 349.79, 188.50 358.50 C 194.45 353.85, 211.14 358.50, 207.50 347.50 C 197.80 337.99, 191.58 325.28, 181.50 316.50 C 171.24 308.86, 160.53 305.71, 151.50 298.50 C 140.97 291.36, 131.28 285.61, 120.50 282.50 Z" fill="rgb(75.88310648518815,95.26421136909528,24.63891112890312)" stroke="rgb(75.88310648518815,95.26421136909528,24.63891112890312)" stroke-width="1" />
<path d="M 710.50 445.50 C 696.01 448.25, 680.75 449.16, 666.50 452.50 C 655.47 454.11, 645.61 456.10, 635.50 457.50 C 622.30 460.49, 609.73 462.59, 597.50 465.50 C 590.59 466.60, 581.40 478.14, 588.50 482.50 C 600.49 484.26, 609.27 491.34, 620.50 492.50 C 634.52 485.20, 648.98 476.41, 663.50 470.50 C 679.13 463.40, 694.05 457.03, 708.50 449.50 C 712.52 448.98, 717.15 444.31, 711.50 445.50 Z" fill="rgb(75.91885345175616,91.3415421881308,35.310052482842146)" stroke="rgb(75.91885345175616,91.3415421881308,35.310052482842146)" stroke-width="1" />
<path d="M 182.50 128.50 C 174.81 138.41, 189.19 154.43, 188.50 167.50 C 194.80 187.15, 200.68 168.92, 205.50 160.50 C 214.77 157.23, 213.64 166.29, 216.50 170.50 C 228.26 170.05, 238.31 167.90, 249.50 168.50 C 263.84 160.31, 240.46 147.94, 239.50 138.50 C 246.12 135.91, 236.87 136.46, 234.50 136.50 C 218.18 130.58, 200.14 131.24, 183.50 128.50 Z" fill="rgb(36.669572436695724,40.93026151930262,33.760896637608965)" stroke="rgb(36.669572436695724,40.93026151930262,33.760896637608965)" stroke-width="1" />
<path d="M 535.50 0.50 C 537.79 11.82, 542.85 21.99, 549.50 31.50 C 559.16 48.81, 565.19 66.21, 571.50 83.50 C 575.13 95.79, 579.37 106.41, 582.50 117.50 C 584.76 129.26, 587.57 141.54, 600.50 140.50 C 599.51 127.22, 595.48 115.78, 593.50 103.50 C 589.69 90.01, 584.77 78.39, 580.50 66.50 C 578.10 55.98, 572.63 47.72, 569.50 38.50 C 564.05 25.69, 558.47 13.93, 554.50 1.50 C 548.50 0.50, 542.50 0.50, 536.50 0.50 Z" fill="rgb(112.02248621128554,120.43911752227407,59.84811200678829)" stroke="rgb(112.02248621128554,120.43911752227407,59.84811200678829)" stroke-width="1" />
<path d="M 591.50 29.50 C 585.59 33.70, 578.70 37.28, 571.50 35.50 C 574.24 45.81, 577.76 58.33, 588.50 60.50 C 600.70 72.37, 617.47 70.63, 632.50 69.50 C 641.90 70.85, 657.87 74.75, 663.50 68.50 C 655.68 59.73, 649.39 48.50, 639.50 43.50 C 620.20 45.99, 605.68 39.37, 592.50 29.50 Z" fill="rgb(113.78129004698846,101.25117471166168,95.85946176847501)" stroke="rgb(113.78129004698846,101.25117471166168,95.85946176847501)" stroke-width="1" />
<path d="M 589.50 793.50 C 581.78 797.58, 585.70 805.66, 583.50 812.50 C 581.32 821.48, 582.09 830.98, 581.50 838.50 C 580.99 848.40, 581.27 858.22, 583.50 864.50 C 596.87 863.21, 614.45 867.11, 623.50 862.50 C 620.74 845.10, 614.07 830.32, 607.50 815.50 C 607.06 805.39, 599.80 795.33, 590.50 793.50 Z" fill="rgb(34.69730941704036,36.38161434977579,29.873991031390133)" stroke="rgb(34.69730941704036,36.38161434977579,29.873991031390133)" stroke-width="1" />
<path d="M 477.50 0.50 C 476.27 8.43, 480.27 17.42, 479.50 26.50 C 481.56 44.22, 479.95 63.37, 480.50 79.50 C 480.69 100.84, 488.41 73.07, 498.50 74.50 C 506.55 78.91, 496.33 89.02, 502.50 87.50 C 505.95 68.57, 506.43 47.90, 504.50 29.50 C 502.97 19.31, 502.78 9.97, 500.50 1.50 C 493.17 0.50, 485.83 0.50, 478.50 0.50 Z" fill="rgb(44.92373689227836,54.627264061010486,23.647759771210676)" stroke="rgb(44.92373689227836,54.627264061010486,23.647759771210676)" stroke-width="1" />
<path d="M 272.50 559.50 C 262.69 562.36, 257.51 572.13, 251.50 580.50 C 247.77 582.69, 249.83 588.82, 245.50 589.50 C 239.89 603.93, 231.38 615.28, 230.50 631.50 C 225.32 633.31, 227.85 639.86, 225.50 643.50 C 224.84 653.02, 219.85 665.43, 227.50 671.50 C 226.43 683.68, 231.80 681.11, 231.50 672.50 C 236.15 668.43, 238.77 674.99, 239.50 663.50 C 244.43 648.35, 245.95 632.80, 250.50 618.50 C 254.58 612.61, 254.00 606.21, 257.50 601.50 C 262.22 595.55, 261.43 588.31, 266.50 583.50 C 268.04 574.81, 278.23 568.31, 273.50 560.50 Z" fill="rgb(119.95007488766849,136.03245132301547,117.32850723914129)" stroke="rgb(119.95007488766849,136.03245132301547,117.32850723914129)" stroke-width="1" />
<path d="M 1.50 0.50 C 1.65 3.35, 1.59 11.02, 5.50 7.50 C 17.11 11.25, 29.83 9.90, 40.50 13.50 C 52.74 14.26, 64.00 14.96, 74.50 17.50 C 89.59 19.95, 103.31 23.30, 117.50 25.50 C 137.04 28.31, 115.19 9.58, 113.50 1.50 C 94.50 0.50, 76.50 0.50, 58.50 0.50 C 39.17 0.50, 20.83 0.50, 2.50 0.50 Z" fill="rgb(126.31831983805668,139.7246963562753,119.125)" stroke="rgb(126.31831983805668,139.7246963562753,119.125)" stroke-width="1" />
<path d="M 587.50 335.50 C 571.87 347.78, 556.61 360.96, 541.50 374.50 C 546.14 382.35, 552.72 388.78, 554.50 397.50 C 572.13 391.44, 586.72 379.44, 600.50 365.50 C 598.35 354.07, 592.67 345.10, 588.50 335.50 Z" fill="rgb(48.20123203285421,60.99845995893224,26.249486652977414)" stroke="rgb(48.20123203285421,60.99845995893224,26.249486652977414)" stroke-width="1" />
<path d="M 535.50 16.50 C 527.73 25.41, 510.82 26.12, 507.50 36.50 C 510.13 42.02, 506.80 49.01, 509.50 53.50 C 519.35 55.11, 527.65 58.06, 534.50 64.50 C 542.82 68.91, 554.48 65.68, 561.50 64.50 C 556.87 46.67, 547.32 28.81, 536.50 16.50 Z" fill="rgb(46.78121484814398,53.5281214848144,30.72047244094488)" stroke="rgb(46.78121484814398,53.5281214848144,30.72047244094488)" stroke-width="1" />
<path d="M 731.50 432.50 C 728.58 434.96, 723.48 432.17, 720.50 434.50 C 702.97 437.02, 686.55 439.82, 670.50 443.50 C 659.12 445.40, 648.86 447.57, 638.50 449.50 C 627.06 452.04, 616.12 453.38, 605.50 455.50 C 591.21 458.75, 577.37 460.65, 563.50 462.50 C 557.53 463.24, 552.47 463.76, 547.50 464.50 C 536.28 466.10, 524.88 464.87, 515.50 468.50 C 511.33 474.45, 521.29 473.48, 525.50 473.50 C 538.86 472.24, 551.23 470.98, 563.50 469.50 C 576.29 466.65, 588.91 465.82, 600.50 462.50 C 609.96 462.28, 617.11 458.90, 625.50 458.50 C 639.02 455.96, 651.10 453.34, 663.50 451.50 C 676.45 449.37, 688.44 447.36, 700.50 445.50 C 706.43 444.66, 711.82 444.94, 716.50 443.50 C 723.89 444.78, 747.35 432.98, 732.50 432.50 Z" fill="rgb(169.13771781899945,177.83754918493537,171.16132658797076)" stroke="rgb(169.13771781899945,177.83754918493537,171.16132658797076)" stroke-width="1" />
<path d="M 134.50 531.50 C 122.86 532.62, 111.71 534.93, 101.50 539.50 C 90.44 536.99, 92.62 551.42, 98.50 555.50 C 110.82 562.78, 119.87 584.13, 129.50 584.50 C 134.15 572.82, 137.60 562.07, 141.50 551.50 C 146.19 544.15, 149.25 527.67, 135.50 531.50 Z" fill="rgb(57.51205510907003,64.33926521239954,39.43972445464983)" stroke="rgb(57.51205510907003,64.33926521239954,39.43972445464983)" stroke-width="1" />
<path d="M 491.50 466.50 C 480.54 472.07, 466.86 471.06, 457.50 480.50 C 438.14 482.78, 421.23 488.54, 401.50 487.50 C 394.40 486.74, 384.18 482.85, 379.50 487.50 C 392.51 495.89, 410.41 497.07, 425.50 493.50 C 442.63 492.09, 459.06 483.88, 475.50 489.50 C 487.92 487.17, 500.14 484.26, 505.50 472.50 C 506.52 463.97, 497.09 467.14, 492.50 466.50 Z" fill="rgb(105.73170731707317,85.33728222996515,82.18745644599304)" stroke="rgb(105.73170731707317,85.33728222996515,82.18745644599304)" stroke-width="1" />
<path d="M 54.50 489.50 C 45.81 491.63, 37.71 495.20, 29.50 498.50 C 42.16 499.60, 49.52 514.91, 60.50 521.50 C 76.09 517.84, 99.96 520.79, 105.50 504.50 C 95.12 496.45, 81.34 500.02, 70.50 496.50 C 64.28 495.51, 60.25 491.63, 55.50 489.50 Z" fill="rgb(32.57491289198606,33.30034843205575,31.122648083623695)" stroke="rgb(32.57491289198606,33.30034843205575,31.122648083623695)" stroke-width="1" />
<path d="M 534.50 378.50 C 521.26 389.07, 509.09 398.35, 495.50 408.50 C 506.20 424.70, 524.31 410.89, 541.50 412.50 C 561.45 410.61, 551.29 379.03, 535.50 378.50 Z" fill="rgb(131.58841234010535,109.3739653875094,77.86907449209933)" stroke="rgb(131.58841234010535,109.3739653875094,77.86907449209933)" stroke-width="1" />
<path d="M 761.50 0.50 C 758.98 15.00, 749.97 26.81, 745.50 40.50 C 736.76 55.14, 729.49 68.97, 721.50 82.50 C 717.44 96.48, 699.98 90.83, 694.50 102.50 C 694.82 112.24, 688.95 118.36, 681.50 120.50 C 683.45 128.04, 695.51 129.62, 700.50 122.50 C 711.59 113.25, 715.85 102.59, 721.50 92.50 C 732.09 79.20, 740.51 63.86, 747.50 49.50 C 751.13 43.04, 751.63 36.28, 754.50 30.50 C 756.64 19.85, 765.57 9.52, 762.50 0.50 Z" fill="rgb(75.30316742081448,81.82503770739065,32.76093514328809)" stroke="rgb(75.30316742081448,81.82503770739065,32.76093514328809)" stroke-width="1" />
<path d="M 513.50 581.50 C 477.75 585.41, 534.41 614.91, 545.50 626.50 C 559.29 605.03, 539.37 576.17, 514.50 581.50 Z" fill="rgb(107.16666666666667,105.0,69.83333333333333)" stroke="rgb(107.16666666666667,105.0,69.83333333333333)" stroke-width="1" />
<path d="M 515.50 581.50 C 510.43 584.21, 501.05 580.06, 498.50 586.50 C 513.25 601.90, 529.06 613.76, 544.50 626.50 C 551.22 620.37, 552.27 607.35, 547.50 599.50 C 542.59 586.59, 529.79 579.81, 516.50 581.50 Z" fill="rgb(111.6180981595092,95.38650306748467,66.49156441717791)" stroke="rgb(111.6180981595092,95.38650306748467,66.49156441717791)" stroke-width="1" />
<path d="M 487.50 498.50 C 482.42 503.66, 491.89 503.65, 494.50 506.50 C 533.78 521.89, 570.47 541.09, 607.50 559.50 C 614.90 563.14, 622.14 564.75, 628.50 568.50 C 647.16 575.52, 664.60 583.07, 682.50 589.50 C 691.37 582.42, 676.91 583.10, 672.50 581.50 C 662.61 577.71, 654.45 573.16, 645.50 570.50 C 619.39 560.05, 595.34 548.04, 571.50 535.50 C 543.54 522.59, 517.48 507.53, 488.50 499.50 Z" fill="rgb(133.32938856015778,143.59960552268245,123.38658777120315)" stroke="rgb(133.32938856015778,143.59960552268245,123.38658777120315)" stroke-width="1" />
<path d="M 710.50 328.50 C 696.46 337.93, 712.14 345.28, 722.50 347.50 C 739.54 351.79, 754.60 358.44, 769.50 365.50 C 777.71 367.12, 809.37 365.32, 791.50 358.50 C 782.92 353.35, 773.20 353.37, 765.50 348.50 C 747.31 340.69, 728.58 336.59, 711.50 328.50 Z" fill="rgb(43.44435674822415,46.49644830307814,31.749013417521706)" stroke="rgb(43.44435674822415,46.49644830307814,31.749013417521706)" stroke-width="1" />
<path d="M 550.50 407.50 C 538.82 417.25, 520.24 410.32, 507.50 417.50 C 507.81 422.79, 511.08 426.26, 512.50 430.50 C 513.56 436.14, 514.99 440.63, 515.50 445.50 C 531.05 450.76, 547.41 439.66, 550.50 425.50 C 550.12 418.49, 554.32 412.73, 551.50 407.50 Z" fill="rgb(110.01504354711005,93.75851148060174,62.12826603325416)" stroke="rgb(110.01504354711005,93.75851148060174,62.12826603325416)" stroke-width="1" />
<path d="M 694.50 10.50 C 689.22 15.17, 686.64 20.95, 683.50 26.50 C 677.01 41.02, 672.12 55.21, 667.50 69.50 C 666.09 84.08, 663.78 99.22, 667.50 112.50 C 667.61 121.56, 677.66 118.35, 676.50 111.50 C 677.50 103.50, 677.50 96.50, 677.50 89.50 C 677.73 67.52, 684.25 49.15, 692.50 31.50 C 696.02 25.10, 700.32 15.34, 695.50 10.50 Z" fill="rgb(62.23107569721115,68.9203187250996,22.049402390438246)" stroke="rgb(62.23107569721115,68.9203187250996,22.049402390438246)" stroke-width="1" />
<path d="M 508.50 55.50 C 508.77 66.22, 506.49 75.89, 506.50 86.50 C 511.48 88.89, 516.16 90.99, 521.50 91.50 C 530.01 94.02, 538.04 95.27, 546.50 95.50 C 547.80 86.69, 545.52 79.94, 542.50 73.50 C 532.58 64.23, 522.96 55.23, 509.50 55.50 Z" fill="rgb(50.43517017828201,57.693679092382496,24.98136142625608)" stroke="rgb(50.43517017828201,57.693679092382496,24.98136142625608)" stroke-width="1" />
<path d="M 740.50 268.50 C 737.23 276.03, 731.81 286.84, 743.50 289.50 C 758.66 302.21, 774.40 310.07, 789.50 319.50 C 799.31 328.81, 800.72 319.67, 799.50 310.50 C 788.21 303.67, 777.97 295.30, 767.50 287.50 C 760.86 277.99, 750.08 274.56, 741.50 268.50 Z" fill="rgb(81.83779399837795,88.8345498783455,29.549878345498783)" stroke="rgb(81.83779399837795,88.8345498783455,29.549878345498783)" stroke-width="1" />
<path d="M 572.50 0.50 C 574.77 7.08, 581.05 12.00, 583.50 18.50 C 598.69 31.76, 614.68 45.15, 634.50 40.50 C 628.19 28.23, 613.08 19.26, 604.50 7.50 C 601.85 -5.21, 583.60 2.90, 573.50 0.50 Z" fill="rgb(45.2502030869212,48.11860276198213,31.921202274573517)" stroke="rgb(45.2502030869212,48.11860276198213,31.921202274573517)" stroke-width="1" />
<path d="M 412.50 764.50 C 405.33 768.67, 397.60 770.35, 391.50 775.50 C 394.21 788.62, 398.13 800.24, 400.50 812.50 C 413.88 817.10, 425.93 805.14, 421.50 792.50 C 419.18 782.40, 426.40 765.16, 413.50 764.50 Z" fill="rgb(32.51027115858669,36.631059983566146,32.612982744453575)" stroke="rgb(32.51027115858669,36.631059983566146,32.612982744453575)" stroke-width="1" />
<path d="M 484.50 504.50 C 476.26 510.58, 455.71 518.04, 471.50 526.50 C 486.24 535.26, 496.60 546.95, 510.50 554.50 C 511.31 543.14, 504.46 534.54, 503.50 523.50 C 503.45 511.88, 494.05 506.72, 485.50 504.50 Z" fill="rgb(45.23866552609068,50.30453378956373,37.211291702309666)" stroke="rgb(45.23866552609068,50.30453378956373,37.211291702309666)" stroke-width="1" />
<path d="M 436.50 518.50 C 434.27 530.82, 453.06 544.28, 462.50 555.50 C 470.90 560.94, 480.17 560.88, 487.50 565.50 C 495.04 569.44, 492.93 583.29, 501.50 579.50 C 509.53 581.95, 530.09 579.14, 514.50 574.50 C 493.22 566.35, 476.82 549.82, 459.50 535.50 C 451.17 530.29, 445.97 520.96, 437.50 519.50 Z" fill="rgb(106.09568480300187,115.38649155722327,49.650093808630395)" stroke="rgb(106.09568480300187,115.38649155722327,49.650093808630395)" stroke-width="1" />
<path d="M 499.50 95.50 C 487.71 104.43, 480.46 120.20, 474.50 132.50 C 468.97 142.98, 485.16 147.84, 492.50 142.50 C 511.27 147.09, 513.06 129.42, 501.50 119.50 C 495.05 112.43, 503.07 103.64, 499.50 96.50 Z" fill="rgb(56.50423728813559,68.31885593220339,27.969279661016948)" stroke="rgb(56.50423728813559,68.31885593220339,27.969279661016948)" stroke-width="1" />
<path d="M 216.50 539.50 C 201.94 547.43, 187.15 554.80, 172.50 562.50 C 155.62 571.37, 140.40 581.85, 126.50 595.50 C 120.36 600.43, 121.05 608.29, 116.50 611.50 C 111.11 613.83, 105.20 612.50, 101.50 616.50 C 105.20 624.42, 117.00 621.14, 123.50 620.50 C 129.94 612.35, 122.30 613.44, 126.50 604.50 C 133.55 594.62, 143.76 587.63, 152.50 580.50 C 167.21 570.20, 182.56 563.84, 197.50 556.50 C 204.44 551.16, 232.76 542.64, 217.50 539.50 Z" fill="rgb(157.01052631578946,165.71291866028707,159.23923444976077)" stroke="rgb(157.01052631578946,165.71291866028707,159.23923444976077)" stroke-width="1" />
<path d="M 522.50 489.50 C 515.04 496.28, 529.73 493.94, 533.50 495.50 C 549.92 496.29, 565.60 496.47, 580.50 498.50 C 597.97 498.36, 613.04 501.61, 629.50 501.50 C 647.03 502.69, 662.60 505.19, 679.50 504.50 C 691.31 502.49, 678.32 500.56, 673.50 500.50 C 665.20 499.75, 657.73 499.41, 650.50 498.50 C 640.86 497.78, 632.09 497.35, 623.50 496.50 C 615.70 495.34, 608.42 495.35, 601.50 494.50 C 582.33 492.77, 564.01 491.41, 545.50 490.50 C 537.35 490.52, 530.93 488.80, 523.50 489.50 Z" fill="rgb(151.59555106167846,161.23963599595552,149.3892821031345)" stroke="rgb(151.59555106167846,161.23963599595552,149.3892821031345)" stroke-width="1" />
<path d="M 754.50 827.50 C 746.51 836.73, 745.49 848.85, 738.50 858.50 C 733.02 868.93, 751.12 862.72, 757.50 864.50 C 765.83 864.50, 773.17 864.50, 780.50 864.50 C 770.24 852.30, 768.31 837.65, 755.50 827.50 Z" fill="rgb(143.56725755995828,154.4546402502607,154.09801876955163)" stroke="rgb(143.56725755995828,154.4546402502607,154.09801876955163)" stroke-width="1" />
<path d="M 133.50 510.50 C 123.70 516.12, 112.44 518.21, 102.50 523.50 C 102.56 528.25, 93.84 529.27, 98.50 534.50 C 108.29 538.14, 122.43 528.93, 135.50 530.50 C 147.73 533.71, 150.73 523.18, 150.50 514.50 C 148.07 508.19, 139.73 511.37, 134.50 510.50 Z" fill="rgb(32.35223555070883,33.36532170119956,31.544165757906217)" stroke="rgb(32.35223555070883,33.36532170119956,31.544165757906217)" stroke-width="1" />
<path d="M 506.50 178.50 C 498.34 185.29, 491.77 192.08, 486.50 200.50 C 478.18 214.81, 471.73 228.49, 468.50 243.50 C 465.57 251.59, 464.84 259.17, 463.50 266.50 C 468.94 263.94, 472.30 251.47, 476.50 244.50 C 484.21 225.49, 493.71 208.65, 502.50 191.50 C 502.67 186.20, 510.66 179.13, 507.50 178.50 Z" fill="rgb(92.99886749716875,108.12344280860702,38.82106455266138)" stroke="rgb(92.99886749716875,108.12344280860702,38.82106455266138)" stroke-width="1" />
<path d="M 207.50 355.50 C 202.49 358.75, 195.36 356.88, 190.50 360.50 C 205.89 371.16, 221.80 379.57, 237.50 388.50 C 247.17 394.65, 243.22 380.26, 241.50 375.50 C 230.51 366.54, 222.41 353.99, 208.50 355.50 Z" fill="rgb(44.779680365296805,52.55365296803653,33.36073059360731)" stroke="rgb(44.779680365296805,52.55365296803653,33.36073059360731)" stroke-width="1" />
<path d="M 470.50 136.50 C 466.58 143.07, 482.59 150.10, 488.50 154.50 C 498.83 156.57, 506.16 162.45, 515.50 163.50 C 523.54 162.48, 528.55 150.78, 520.50 147.50 C 512.97 141.15, 503.14 142.75, 494.50 141.50 C 485.63 141.80, 480.16 135.29, 471.50 136.50 Z" fill="rgb(77.29594272076372,87.83651551312649,25.939140811455847)" stroke="rgb(77.29594272076372,87.83651551312649,25.939140811455847)" stroke-width="1" />
<path d="M 458.50 565.50 C 441.72 582.56, 471.71 619.64, 489.50 598.50 C 479.61 587.50, 471.68 573.61, 459.50 566.50 Z" fill="rgb(90.5,89.0,70.5)" stroke="rgb(90.5,89.0,70.5)" stroke-width="1" />
<path d="M 456.50 566.50 C 452.40 574.56, 455.21 584.60, 457.50 592.50 C 462.78 605.13, 480.44 607.86, 489.50 600.50 C 480.26 587.90, 471.42 571.97, 457.50 566.50 Z" fill="rgb(88.32678132678133,77.55159705159706,64.72358722358722)" stroke="rgb(88.32678132678133,77.55159705159706,64.72358722358722)" stroke-width="1" />
<path d="M 486.50 499.50 C 481.95 504.02, 492.65 504.73, 495.50 506.50 C 507.24 512.12, 519.08 515.10, 529.50 521.50 C 548.57 529.65, 565.91 539.60, 584.50 546.50 C 597.06 551.15, 606.43 560.09, 618.50 562.50 C 614.99 554.91, 596.30 552.26, 588.50 545.50 C 577.14 539.23, 566.76 534.00, 556.50 528.50 C 549.64 525.15, 543.64 522.15, 537.50 519.50 C 520.47 511.44, 504.97 503.10, 487.50 499.50 Z" fill="rgb(174.25868725868725,183.62548262548262,183.4144144144144)" stroke="rgb(174.25868725868725,183.62548262548262,183.4144144144144)" stroke-width="1" />
<path d="M 507.50 0.50 C 486.02 62.73, 575.42 -8.68, 507.50 0.50 Z" fill="rgb(79.36363636363636,85.68181818181819,34.95454545454545)" stroke="rgb(79.36363636363636,85.68181818181819,34.95454545454545)" stroke-width="1" />
<path d="M 191.50 594.50 C 178.82 601.29, 158.60 616.28, 173.50 630.50 C 180.63 628.82, 186.32 627.06, 192.50 626.50 C 199.48 616.53, 197.16 602.56, 192.50 594.50 Z" fill="rgb(34.90837696335078,38.06675392670157,30.95418848167539)" stroke="rgb(34.90837696335078,38.06675392670157,30.95418848167539)" stroke-width="1" />
<path d="M 507.50 0.50 C 501.32 7.95, 506.87 18.61, 506.50 27.50 C 511.72 31.69, 516.75 25.79, 521.50 24.50 C 528.60 20.90, 540.35 15.19, 534.50 7.50 C 534.30 -4.99, 517.00 2.75, 508.50 0.50 Z" fill="rgb(80.5392809587217,89.47137150466045,38.01997336884155)" stroke="rgb(80.5392809587217,89.47137150466045,38.01997336884155)" stroke-width="1" />
</svg>