<svg xmlns="http://www.w3.org/2000/svg" width="800" height="865" viewbox="0 0 800 865">
<path d="M 0.50 0.50 C 0.50 25.83, 0.50 51.17, 0.50 76.50 C 0.50 103.17, 0.50 128.83, 0.50 154.50 C 0.50 207.17, 0.50 258.83, 0.50 310.50 C 0.50 414.83, 0.50 518.17, 0.50 621.50 C 0.50 647.83, 0.50 673.17, 0.50 698.50 C 0.50 725.17, 0.50 750.83, 0.50 776.50 C 0.50 803.17, 0.50 828.83, 0.50 854.50 C 6.55 875.12, 47.84 859.50, 68.50 864.50 C 172.83 864.50, 276.17 864.50, 379.50 864.50 C 519.83 864.50, 659.17 864.50, 798.50 864.50 C 799.50 847.83, 799.50 831.17, 799.50 814.50 C 799.50 796.50, 799.50 779.50, 799.50 762.50 C 799.50 744.50, 799.50 727.50, 799.50 710.50 C 799.50 692.50, 799.50 675.50, 799.50 658.50 C 799.50 588.50, 799.50 519.50, 799.50 450.50 C 799.50 415.17, 799.50 380.83, 799.50 346.50 C 799.50 311.17, 799.50 276.83, 799.50 242.50 C 799.50 207.17, 799.50 172.83, 799.50 138.50 C 799.50 103.17, 799.50 68.83, 799.50 34.50 C 598.84 -42.84, 256.99 22.01, 1.50 0.50 Z" fill="rgb(64.39881273610362,71.70372369131138,38.95844576362655)" stroke="rgb(64.39881273610362,71.70372369131138,38.95844576362655)" stroke-width="1" />
<path d="M 2.50 0.50 C 1.44 35.46, 4.88 71.30, 0.50 103.50 C 0.50 121.50, 0.50 138.50, 0.50 155.50 C 0.50 173.83, 0.50 191.17, 0.50 208.50 C 0.50 224.50, 0.50 239.50, 0.50 254.50 C 0.50 270.83, 0.50 286.17, 0.50 301.50 C 0.50 317.50, 0.50 332.50, 0.50 347.50 C 0.50 363.83, 0.50 379.17, 0.50 394.50 C 27.16 446.11, -3.38 473.39, 4.50 568.50 C -2.04 646.34, 4.98 735.45, 2.50 816.50 C 30.24 886.01, 415.80 919.48, 390.50 784.50 C 365.72 760.76, 391.45 764.78, 395.50 789.50 C 405.18 809.84, 402.04 832.16, 398.50 852.50 C 438.24 914.79, 502.46 773.89, 541.50 825.50 C 540.22 899.19, 673.46 849.89, 666.50 839.50 C 730.43 822.33, 708.43 863.30, 798.50 864.50 C 796.00 724.24, 798.62 581.06, 797.50 440.50 C 796.90 415.28, 798.74 390.04, 796.50 366.50 C 750.86 338.35, 766.66 385.55, 692.50 399.50 C 689.91 402.63, 684.50 400.24, 683.50 402.50 C 674.26 403.75, 669.34 415.30, 658.50 413.50 C 639.25 425.82, 642.18 407.65, 653.50 400.50 C 659.06 391.00, 666.54 385.27, 672.50 378.50 C 685.97 368.10, 690.63 341.80, 710.50 336.50 C 707.40 332.40, 726.17 274.62, 749.50 290.50 C 766.24 305.88, 800.26 343.61, 798.50 296.50 C 794.99 245.19, 777.65 314.43, 748.50 274.50 C 733.40 258.51, 760.22 232.91, 760.50 213.50 C 763.06 197.47, 770.99 188.02, 776.50 177.50 C 778.59 166.93, 782.61 172.25, 784.50 161.50 C 800.45 141.02, 801.05 107.48, 796.50 79.50 C 821.96 -35.51, 505.93 -13.24, 623.50 40.50 C 684.36 74.56, 550.47 70.49, 566.50 0.50 C 378.17 0.50, 190.83 0.50, 3.50 0.50 Z" fill="rgb(82.55689689167616,88.43882256412866,75.10939239169842)" stroke="rgb(82.55689689167616,88.43882256412866,75.10939239169842)" stroke-width="1" />
<path d="M 3.50 571.50 C -1.25 669.48, 3.20 771.91, 1.50 864.50 C 60.83 864.50, 119.17 864.50, 177.50 864.50 C 207.50 864.50, 236.50 864.50, 265.50 864.50 C 280.83 864.50, 295.17 864.50, 309.50 864.50 C 325.17 864.50, 339.83 864.50, 354.50 864.50 C 367.89 862.22, 388.07 871.00, 391.50 855.50 C 400.76 823.82, 399.19 784.22, 373.50 764.50 C 368.82 753.12, 382.60 744.48, 377.50 733.50 C 369.65 712.13, 364.83 690.50, 358.50 669.50 C 357.81 664.12, 359.00 658.54, 356.50 654.50 C 352.00 642.96, 351.57 657.37, 351.50 662.50 C 348.82 675.53, 349.62 687.98, 349.50 699.50 C 351.66 710.72, 351.00 724.08, 352.50 734.50 C 356.98 744.36, 356.13 755.01, 360.50 763.50 C 361.78 784.31, 382.34 795.98, 372.50 818.50 C 364.65 828.23, 359.45 818.36, 361.50 810.50 C 363.98 798.67, 359.42 787.60, 354.50 778.50 C 351.83 766.74, 346.82 755.54, 345.50 745.50 C 341.71 740.96, 336.83 768.98, 338.50 780.50 C 333.58 796.84, 342.86 811.62, 341.50 825.50 C 321.07 843.87, 329.20 824.43, 330.50 808.50 C 330.06 795.03, 327.78 783.27, 329.50 772.50 C 329.01 756.08, 332.52 742.31, 333.50 727.50 C 336.78 705.76, 339.03 686.29, 338.50 663.50 C 337.43 648.79, 343.92 630.77, 337.50 617.50 C 322.40 604.47, 320.02 628.23, 317.50 637.50 C 315.66 644.48, 316.00 651.37, 314.50 657.50 C 311.45 665.73, 312.36 674.60, 308.50 681.50 C 305.32 702.90, 300.71 722.70, 298.50 743.50 C 300.20 757.48, 305.44 769.14, 301.50 783.50 C 311.15 790.02, 304.32 824.65, 293.50 812.50 C 290.51 802.56, 297.94 791.10, 289.50 785.50 C 290.83 766.96, 287.70 747.79, 288.50 728.50 C 291.17 718.05, 289.38 706.76, 292.50 697.50 C 295.12 676.45, 300.50 657.56, 305.50 638.50 C 307.10 629.66, 310.28 621.71, 310.50 614.50 C 300.64 627.92, 282.80 615.80, 277.50 630.50 C 267.73 650.90, 255.55 668.90, 254.50 691.50 C 253.73 696.05, 242.67 725.28, 248.50 738.50 C 252.94 747.04, 243.75 752.52, 243.50 759.50 C 240.10 765.55, 229.75 763.59, 230.50 769.50 C 222.76 784.28, 227.49 795.26, 214.50 814.50 C 208.44 801.07, 214.32 783.36, 209.50 770.50 C 211.06 758.65, 211.30 747.26, 215.50 737.50 C 214.48 719.16, 218.55 717.72, 223.50 700.50 C 215.28 683.24, 214.30 666.61, 216.50 647.50 C 218.26 628.30, 222.89 611.28, 230.50 595.50 C 229.44 586.98, 237.48 585.89, 238.50 579.50 C 237.92 566.43, 238.34 582.58, 230.50 581.50 C 225.18 589.23, 217.20 596.29, 214.50 605.50 C 205.87 616.94, 201.05 632.58, 205.50 645.50 C 207.05 655.97, 203.02 663.13, 199.50 670.50 C 180.69 672.49, 194.41 641.50, 192.50 628.50 C 181.47 625.51, 166.96 638.87, 167.50 623.50 C 169.16 610.34, 163.95 591.88, 148.50 598.50 C 142.63 600.38, 135.46 599.31, 132.50 602.50 C 127.47 608.54, 133.56 619.34, 123.50 622.50 C 79.61 628.35, 124.56 605.45, 112.50 596.50 C 106.59 594.09, 101.62 592.81, 97.50 589.50 C 65.77 582.98, 34.97 577.65, 4.50 571.50 Z" fill="rgb(86.18309779054226,103.23115420706912,59.837347513293714)" stroke="rgb(86.18309779054226,103.23115420706912,59.837347513293714)" stroke-width="1" />
<path d="M 2.50 0.50 C 0.18 18.68, 2.16 38.64, 1.50 57.50 C 1.50 77.83, 1.50 97.17, 1.50 116.50 C 6.35 124.51, 18.15 124.24, 25.50 127.50 C 41.56 132.45, 57.47 135.32, 74.50 135.50 C 91.78 134.51, 108.48 134.54, 123.50 130.50 C 137.35 125.94, 156.52 129.76, 165.50 120.50 C 164.74 107.71, 145.83 72.20, 168.50 79.50 C 176.69 94.02, 175.92 108.52, 178.50 122.50 C 185.47 125.38, 192.82 126.34, 200.50 126.50 C 220.47 128.30, 237.54 133.68, 256.50 134.50 C 264.84 133.52, 272.74 133.89, 279.50 131.50 C 297.78 127.46, 315.35 124.10, 329.50 112.50 C 331.18 96.79, 330.62 82.37, 332.50 69.50 C 333.27 55.46, 332.21 46.60, 330.50 34.50 C 338.47 14.61, 353.22 49.63, 343.50 58.50 C 344.16 76.47, 333.54 97.43, 344.50 110.50 C 359.03 113.68, 378.19 114.33, 385.50 107.50 C 398.57 87.73, 406.20 116.36, 419.50 117.50 C 439.11 123.46, 430.69 97.22, 444.50 92.50 C 454.67 81.37, 469.81 68.02, 462.50 52.50 C 471.05 41.89, 479.77 63.20, 478.50 69.50 C 466.43 77.87, 458.74 90.57, 454.50 101.50 C 455.33 113.59, 442.23 115.90, 444.50 127.50 C 463.16 140.04, 466.30 115.21, 475.50 105.50 C 482.17 96.34, 485.80 70.90, 500.50 75.50 C 507.17 89.92, 507.01 31.53, 502.50 14.50 C 496.01 -13.85, 445.00 7.04, 419.50 0.50 C 403.83 0.50, 389.17 0.50, 374.50 0.50 C 358.50 0.50, 343.50 0.50, 328.50 0.50 C 297.50 0.50, 267.50 0.50, 237.50 0.50 C 158.83 0.50, 81.17 0.50, 3.50 0.50 Z" fill="rgb(83.90494217102513,98.87393747967857,46.62032607181012)" stroke="rgb(83.90494217102513,98.87393747967857,46.62032607181012)" stroke-width="1" />
<path d="M 789.50 367.50 C 735.03 368.97, 537.46 473.65, 674.50 440.50 C 701.42 441.60, 785.97 407.01, 753.50 436.50 C 705.41 463.87, 610.79 436.51, 586.50 489.50 C 601.23 489.61, 614.80 491.51, 627.50 495.50 C 669.97 491.87, 719.16 509.61, 649.50 506.50 C 631.52 505.60, 615.48 502.41, 598.50 501.50 C 589.76 501.86, 575.40 498.10, 581.50 509.50 C 584.30 522.55, 591.36 532.83, 597.50 543.50 C 621.37 560.28, 649.52 568.93, 675.50 579.50 C 680.48 580.31, 686.29 580.34, 687.50 585.50 C 683.30 597.56, 671.42 587.59, 663.50 585.50 C 646.84 580.76, 604.54 554.13, 626.50 586.50 C 629.67 595.65, 634.64 602.64, 637.50 610.50 C 658.64 659.34, 693.80 700.84, 729.50 741.50 C 739.30 750.88, 750.43 759.81, 760.50 767.50 C 773.67 774.34, 802.80 801.80, 798.50 771.50 C 794.62 634.94, 805.30 477.90, 790.50 367.50 Z" fill="rgb(126.68782051282051,137.22820512820513,89.88397435897436)" stroke="rgb(126.68782051282051,137.22820512820513,89.88397435897436)" stroke-width="1" />
<path d="M 323.50 317.50 C 306.96 323.41, 284.11 321.36, 276.50 340.50 C 261.83 342.61, 266.24 361.36, 270.50 370.50 C 268.12 392.28, 280.86 406.80, 283.50 425.50 C 269.70 432.92, 252.14 430.27, 239.50 439.50 C 229.69 440.95, 224.78 451.39, 214.50 447.50 C 194.67 463.03, 193.59 488.21, 201.50 509.50 C 204.01 519.61, 206.35 530.10, 215.50 535.50 C 228.80 542.65, 240.78 549.59, 256.50 547.50 C 270.21 552.90, 282.43 544.37, 295.50 544.50 C 306.08 535.76, 322.45 535.46, 327.50 547.50 C 335.04 562.70, 334.94 572.50, 344.50 586.50 C 353.63 597.31, 354.47 609.15, 365.50 616.50 C 377.75 619.80, 389.13 615.21, 400.50 615.50 C 411.19 612.61, 422.49 613.61, 432.50 611.50 C 451.79 608.27, 442.46 589.53, 450.50 578.50 C 455.82 561.13, 448.97 547.90, 439.50 535.50 C 416.36 511.86, 458.02 518.45, 469.50 510.50 C 476.70 506.97, 486.30 500.51, 479.50 492.50 C 485.30 477.70, 503.83 477.13, 509.50 491.50 C 519.39 490.16, 522.07 482.27, 517.50 474.50 C 498.63 479.22, 471.99 463.48, 513.50 467.50 C 518.78 460.80, 512.48 450.15, 512.50 442.50 C 511.27 430.73, 506.97 419.90, 497.50 413.50 C 487.61 409.10, 476.73 410.51, 468.50 405.50 C 451.11 403.39, 433.15 404.65, 417.50 407.50 C 405.98 409.82, 385.88 417.70, 392.50 398.50 C 390.50 377.60, 382.60 359.33, 370.50 344.50 C 365.14 324.05, 345.51 314.69, 324.50 317.50 Z" fill="rgb(206.70030951419727,192.26335621046965,191.87559836207393)" stroke="rgb(206.70030951419727,192.26335621046965,191.87559836207393)" stroke-width="1" />
<path d="M 3.50 570.50 C -0.27 576.88, 2.22 585.85, 1.50 593.50 C 1.50 616.50, 1.50 638.50, 1.50 660.50 C 1.50 683.83, 1.50 706.17, 1.50 728.50 C 1.50 751.83, 1.50 774.17, 1.50 796.50 C 1.50 819.83, 1.50 842.17, 1.50 864.50 C 24.50 864.50, 46.50 864.50, 68.50 864.50 C 91.50 864.50, 113.50 864.50, 135.50 864.50 C 140.56 863.55, 147.71 866.63, 149.50 862.50 C 153.07 853.46, 156.47 845.76, 158.50 837.50 C 164.71 814.92, 171.04 793.80, 174.50 771.50 C 178.75 747.66, 178.91 724.50, 178.50 700.50 C 176.72 675.33, 176.31 650.17, 167.50 628.50 C 163.23 619.53, 169.94 604.64, 158.50 601.50 C 149.97 600.48, 138.24 598.96, 134.50 603.50 C 137.33 623.23, 113.45 630.42, 100.50 620.50 C 96.81 607.13, 119.94 611.30, 115.50 598.50 C 107.87 594.08, 99.80 591.73, 92.50 587.50 C 70.65 583.46, 49.19 580.91, 28.50 576.50 C 19.52 575.59, 12.83 571.56, 4.50 571.50 Z" fill="rgb(64.78976186897425,79.29267140495158,25.713255029954265)" stroke="rgb(64.78976186897425,79.29267140495158,25.713255029954265)" stroke-width="1" />
<path d="M 583.50 501.50 C 577.31 512.11, 589.39 527.94, 595.50 538.50 C 602.81 549.40, 614.92 551.94, 624.50 558.50 C 644.13 567.53, 664.07 573.41, 683.50 580.50 C 689.63 583.49, 688.37 590.63, 683.50 592.50 C 664.99 588.63, 650.36 580.49, 634.50 573.50 C 610.72 563.67, 627.85 588.57, 632.50 598.50 C 644.08 623.28, 655.30 647.22, 670.50 669.50 C 677.48 679.83, 684.41 687.50, 692.50 696.50 C 699.32 708.74, 711.07 717.51, 717.50 728.50 C 739.88 753.51, 765.65 772.40, 792.50 785.50 C 801.62 789.48, 797.54 776.28, 798.50 771.50 C 798.50 745.50, 798.50 720.50, 798.50 695.50 C 798.50 669.50, 798.50 644.50, 798.50 619.50 C 797.95 609.92, 799.68 600.40, 797.50 592.50 C 779.84 580.88, 762.33 572.30, 744.50 564.50 C 728.31 555.29, 712.93 547.55, 698.50 537.50 C 688.67 532.31, 679.16 529.68, 671.50 524.50 C 657.49 514.17, 641.81 510.28, 626.50 505.50 C 611.97 502.26, 599.37 502.13, 584.50 501.50 Z" fill="rgb(77.08598917618761,92.97534576067348,29.834736420124273)" stroke="rgb(77.08598917618761,92.97534576067348,29.834736420124273)" stroke-width="1" />
<path d="M 2.50 220.50 C 0.28 235.72, 2.08 252.60, 1.50 268.50 C 1.50 283.17, 1.50 296.83, 1.50 310.50 C 1.50 325.50, 1.50 339.50, 1.50 353.50 C 1.93 375.57, 1.33 390.75, 2.50 407.50 C 12.99 416.34, 26.46 417.00, 37.50 423.50 C 47.41 427.71, 56.02 432.65, 65.50 435.50 C 81.34 442.31, 97.93 444.87, 114.50 447.50 C 129.97 452.25, 145.94 453.39, 161.50 455.50 C 172.20 452.89, 184.25 452.24, 192.50 448.50 C 185.49 438.58, 171.76 436.89, 164.50 428.50 C 146.56 430.11, 138.71 412.05, 152.50 401.50 C 172.26 398.90, 160.95 374.49, 174.50 365.50 C 169.23 355.30, 156.84 350.37, 150.50 341.50 C 136.95 327.06, 122.93 313.23, 113.50 297.50 C 101.12 289.39, 105.46 278.07, 101.50 269.50 C 86.17 262.43, 74.04 251.07, 59.50 245.50 C 48.75 240.84, 40.02 234.72, 30.50 230.50 C 20.85 226.46, 14.42 218.05, 3.50 220.50 Z" fill="rgb(75.05486421199033,94.06987043408242,25.188456189151598)" stroke="rgb(75.05486421199033,94.06987043408242,25.188456189151598)" stroke-width="1" />
<path d="M 622.50 136.50 C 614.59 139.85, 607.10 144.23, 597.50 143.50 C 601.05 160.69, 579.24 174.88, 585.50 149.50 C 589.69 140.62, 577.49 144.32, 573.50 144.50 C 557.16 148.21, 541.45 151.02, 528.50 160.50 C 520.27 172.60, 512.66 183.54, 507.50 195.50 C 501.78 204.67, 497.76 213.14, 493.50 221.50 C 481.22 244.75, 473.10 268.73, 464.50 292.50 C 459.98 302.55, 462.12 339.50, 473.50 319.50 C 480.06 306.12, 486.02 293.50, 493.50 281.50 C 500.78 267.45, 510.76 255.94, 518.50 243.50 C 526.93 231.58, 534.58 219.25, 542.50 209.50 C 553.53 192.74, 568.45 175.63, 582.50 163.50 C 580.52 172.64, 573.16 177.17, 568.50 184.50 C 552.79 203.83, 538.50 222.76, 525.50 242.50 C 509.93 267.13, 493.86 290.13, 483.50 315.50 C 478.87 328.73, 465.21 341.20, 473.50 354.50 C 484.91 351.70, 488.31 336.89, 496.50 328.50 C 509.92 307.93, 524.24 288.73, 538.50 269.50 C 544.19 260.76, 551.53 254.12, 556.50 246.50 C 568.70 232.92, 582.28 216.15, 597.50 203.50 C 602.64 195.39, 600.36 185.61, 604.50 178.50 C 613.90 179.91, 611.37 192.57, 610.50 199.50 C 609.25 205.31, 604.35 209.16, 599.50 206.50 C 580.45 227.91, 563.17 246.82, 546.50 269.50 C 529.50 291.75, 514.63 313.47, 500.50 335.50 C 495.80 347.85, 465.19 374.99, 490.50 375.50 C 498.85 372.41, 506.84 371.84, 514.50 370.50 C 530.85 358.86, 545.76 346.19, 561.50 335.50 C 575.05 316.48, 582.59 296.38, 595.50 278.50 C 601.44 263.45, 610.79 251.23, 616.50 237.50 C 625.72 223.54, 633.30 209.89, 641.50 196.50 C 649.04 186.33, 656.26 177.04, 660.50 166.50 C 667.76 143.15, 642.25 133.59, 623.50 136.50 Z" fill="rgb(87.21806276254016,105.42751832633226,36.8953545836422)" stroke="rgb(87.21806276254016,105.42751832633226,36.8953545836422)" stroke-width="1" />
<path d="M 797.50 85.50 C 773.02 111.67, 751.34 144.16, 724.50 169.50 C 717.72 177.15, 724.76 185.90, 722.50 193.50 C 721.16 214.45, 704.00 227.44, 701.50 246.50 C 708.30 243.57, 715.32 245.50, 721.50 244.50 C 729.45 244.14, 745.38 247.24, 732.50 255.50 C 712.39 259.22, 695.71 267.78, 679.50 277.50 C 667.98 288.86, 663.21 302.72, 653.50 312.50 C 644.09 324.69, 635.27 337.22, 624.50 345.50 C 610.56 360.94, 593.68 376.50, 576.50 387.50 C 570.00 394.04, 562.82 395.51, 557.50 401.50 C 560.72 418.09, 551.40 428.74, 547.50 442.50 C 552.04 445.68, 557.08 442.34, 562.50 443.50 C 579.54 439.54, 595.17 435.58, 609.50 428.50 C 620.87 423.00, 630.11 416.74, 639.50 408.50 C 656.39 392.20, 674.24 376.72, 685.50 358.50 C 702.38 335.81, 717.51 313.80, 729.50 290.50 C 739.29 265.75, 750.77 243.11, 757.50 218.50 C 767.79 172.10, 804.37 137.59, 798.50 85.50 Z" fill="rgb(138.99161048689137,150.9722097378277,120.09131086142322)" stroke="rgb(138.99161048689137,150.9722097378277,120.09131086142322)" stroke-width="1" />
<path d="M 2.50 413.50 C -1.47 415.30, 1.34 421.53, 0.50 425.50 C 1.22 473.14, -1.27 521.12, 2.50 566.50 C 42.46 578.54, 85.32 580.16, 122.50 595.50 C 137.37 572.99, 143.65 548.33, 149.50 523.50 C 152.12 498.61, 115.71 518.67, 104.50 523.50 C 108.03 548.07, 45.10 532.63, 70.50 520.50 C 98.02 520.58, 110.34 494.81, 135.50 498.50 C 139.37 490.65, 167.44 490.77, 159.50 483.50 C 143.51 483.95, 118.81 478.95, 113.50 489.50 C 109.08 493.74, 104.08 487.82, 102.50 484.50 C 81.70 485.70, 72.80 494.93, 51.50 491.50 C 40.70 491.40, 31.27 503.48, 22.50 496.50 C 25.02 473.79, 51.89 483.47, 67.50 478.50 C 79.04 477.66, 89.14 475.78, 99.50 474.50 C 106.13 471.43, 112.52 460.27, 120.50 467.50 C 133.10 468.95, 143.52 466.56, 154.50 465.50 C 176.97 456.31, 131.13 457.18, 121.50 451.50 C 98.70 448.11, 77.22 443.92, 57.50 435.50 C 48.82 430.72, 40.11 428.45, 32.50 423.50 C 21.95 420.68, 12.69 417.17, 3.50 413.50 Z" fill="rgb(35.66875825627477,39.187417437252314,30.266182298546894)" stroke="rgb(35.66875825627477,39.187417437252314,30.266182298546894)" stroke-width="1" />
<path d="M 797.50 407.50 C 781.74 412.34, 767.78 421.52, 752.50 427.50 C 748.25 429.54, 742.90 429.69, 742.50 434.50 C 718.63 448.30, 693.47 457.95, 669.50 470.50 C 659.44 475.70, 649.95 479.83, 641.50 486.50 C 636.39 493.96, 645.20 496.47, 650.50 495.50 C 676.17 496.44, 695.22 506.50, 659.50 506.50 C 652.96 509.88, 670.12 513.40, 673.50 518.50 C 684.49 527.13, 695.76 531.67, 706.50 537.50 C 723.68 548.00, 741.20 555.28, 757.50 565.50 C 772.30 571.37, 785.00 579.90, 798.50 586.50 C 800.83 545.33, 798.83 503.36, 799.50 462.50 C 798.95 443.59, 800.67 424.74, 798.50 407.50 Z" fill="rgb(166.41359341664128,175.9816112973687,174.21070811744386)" stroke="rgb(166.41359341664128,175.9816112973687,174.21070811744386)" stroke-width="1" />
<path d="M 3.50 122.50 C -0.49 125.37, -0.12 133.69, 1.50 138.50 C 1.50 163.17, 1.50 186.83, 1.50 210.50 C 2.12 217.71, 10.77 216.91, 15.50 217.50 C 29.97 219.77, 45.48 217.14, 58.50 220.50 C 72.30 222.26, 85.38 223.05, 98.50 221.50 C 113.41 218.88, 127.02 215.55, 139.50 209.50 C 154.22 202.76, 167.79 195.67, 180.50 186.50 C 181.81 169.37, 171.31 154.13, 169.50 137.50 C 168.40 132.16, 168.31 125.47, 161.50 127.50 C 153.49 128.48, 146.10 128.54, 139.50 130.50 C 120.46 133.55, 102.71 137.28, 83.50 137.50 C 69.50 137.30, 55.85 138.67, 44.50 134.50 C 30.22 131.52, 17.35 127.52, 4.50 123.50 Z" fill="rgb(31.508745455792578,34.013992729268125,28.554496193154538)" stroke="rgb(31.508745455792578,34.013992729268125,28.554496193154538)" stroke-width="1" />
<path d="M 183.50 187.50 C 172.81 195.71, 160.49 200.00, 149.50 207.50 C 126.46 218.36, 102.64 224.94, 75.50 223.50 C 67.70 223.97, 62.03 221.68, 55.50 221.50 C 42.69 218.87, 30.89 219.94, 18.50 220.50 C 29.14 227.57, 41.02 233.06, 52.50 239.50 C 65.81 245.12, 77.55 252.68, 88.50 258.50 C 98.27 271.45, 115.62 262.24, 120.50 276.50 C 138.25 284.93, 154.88 298.81, 172.50 306.50 C 183.98 319.46, 192.25 288.51, 196.50 309.50 C 196.42 317.07, 205.66 318.55, 210.50 316.50 C 209.06 309.29, 201.46 296.88, 213.50 303.50 C 220.10 315.55, 230.10 323.35, 240.50 330.50 C 245.17 338.83, 260.46 340.60, 257.50 328.50 C 252.54 315.21, 242.69 304.94, 240.50 291.50 C 228.20 276.42, 220.19 260.03, 214.50 242.50 C 201.78 224.55, 194.45 204.21, 184.50 187.50 Z" fill="rgb(133.76312604024815,148.58700257224996,128.02360417612346)" stroke="rgb(133.76312604024815,148.58700257224996,128.02360417612346)" stroke-width="1" />
<path d="M 251.50 169.50 C 236.72 172.82, 206.08 167.69, 208.50 186.50 C 184.46 167.60, 209.74 224.37, 205.50 197.50 C 209.18 183.09, 208.23 201.65, 211.50 204.50 C 213.81 227.42, 221.47 247.49, 232.50 264.50 C 237.20 276.19, 247.35 272.15, 251.50 280.50 C 259.38 297.79, 269.81 309.59, 280.50 323.50 C 288.29 324.53, 300.60 322.39, 302.50 314.50 C 297.35 304.17, 294.49 293.89, 289.50 284.50 C 282.64 265.17, 295.31 283.47, 298.50 291.50 C 306.60 303.69, 311.10 321.42, 328.50 313.50 C 328.76 288.18, 320.54 266.96, 310.50 246.50 C 295.66 226.88, 287.80 202.75, 270.50 187.50 C 263.65 183.17, 262.84 169.16, 252.50 169.50 Z" fill="rgb(149.55653242578938,163.00860276044622,149.21771601436944)" stroke="rgb(149.55653242578938,163.00860276044622,149.21771601436944)" stroke-width="1" />
<path d="M 607.50 0.50 C 620.64 21.78, 645.05 44.83, 666.50 65.50 C 671.12 90.26, 669.33 134.08, 675.50 96.50 C 674.79 80.62, 687.89 93.48, 693.50 96.50 C 703.88 106.47, 670.63 126.70, 694.50 126.50 C 730.64 91.42, 751.75 47.16, 763.50 1.50 C 711.83 0.50, 660.17 0.50, 608.50 0.50 Z" fill="rgb(42.7208480565371,47.169807616804086,25.856105221829605)" stroke="rgb(42.7208480565371,47.169807616804086,25.856105221829605)" stroke-width="1" />
<path d="M 667.50 155.50 C 655.63 182.63, 631.92 210.04, 618.50 238.50 C 611.13 251.49, 604.74 263.46, 598.50 275.50 C 588.75 291.05, 580.63 306.28, 572.50 321.50 C 571.38 326.13, 588.99 317.07, 593.50 311.50 C 621.36 294.68, 647.63 276.47, 676.50 264.50 C 703.01 257.45, 701.88 225.26, 716.50 207.50 C 733.95 173.86, 695.60 156.17, 668.50 155.50 Z" fill="rgb(48.9739970282318,56.76002971768202,26.936849925705793)" stroke="rgb(48.9739970282318,56.76002971768202,26.936849925705793)" stroke-width="1" />
<path d="M 679.50 747.50 C 670.44 751.82, 682.34 769.20, 667.50 768.50 C 659.81 770.96, 660.64 779.57, 655.50 783.50 C 644.19 799.21, 627.85 814.39, 621.50 826.50 C 606.69 885.94, 756.65 883.01, 750.50 823.50 C 731.48 800.99, 709.18 775.97, 689.50 752.50 C 686.98 749.01, 683.39 749.11, 680.50 747.50 Z" fill="rgb(30.621744791666668,31.565755208333332,30.362467447916668)" stroke="rgb(30.621744791666668,31.565755208333332,30.362467447916668)" stroke-width="1" />
<path d="M 735.50 288.50 C 723.76 304.58, 715.70 322.19, 704.50 338.50 C 690.67 355.91, 679.17 372.86, 664.50 388.50 C 653.14 401.59, 639.77 411.46, 630.50 423.50 C 639.90 427.32, 646.84 418.82, 654.50 417.50 C 668.76 409.65, 682.15 403.12, 695.50 396.50 C 707.01 390.46, 717.96 386.48, 728.50 381.50 C 750.72 374.09, 770.83 364.99, 794.50 364.50 C 799.66 353.85, 799.13 339.19, 797.50 327.50 C 776.15 315.02, 756.21 302.54, 736.50 289.50 Z" fill="rgb(39.08000626272115,41.13543134491937,34.81337090966025)" stroke="rgb(39.08000626272115,41.13543134491937,34.81337090966025)" stroke-width="1" />
<path d="M 669.50 155.50 C 661.80 155.63, 663.42 164.68, 661.50 170.50 C 654.95 181.80, 646.92 191.37, 640.50 200.50 C 634.80 215.92, 622.44 227.18, 617.50 241.50 C 618.84 246.00, 624.39 243.21, 627.50 246.50 C 636.51 256.50, 647.65 263.90, 656.50 272.50 C 669.39 266.62, 683.86 263.48, 693.50 254.50 C 698.95 241.94, 703.86 230.57, 709.50 219.50 C 717.39 208.64, 719.18 196.67, 720.50 184.50 C 713.38 163.69, 689.88 158.01, 670.50 156.50 Z" fill="rgb(41.69364629704573,46.095777687845676,27.431539187913124)" stroke="rgb(41.69364629704573,46.095777687845676,27.431539187913124)" stroke-width="1" />
<path d="M 790.50 366.50 C 776.05 368.76, 762.18 372.38, 748.50 376.50 C 727.32 383.94, 707.45 392.10, 688.50 402.50 C 667.70 412.85, 647.75 422.83, 628.50 434.50 C 622.10 439.48, 595.92 456.07, 614.50 452.50 C 639.11 448.84, 661.89 443.15, 685.50 439.50 C 703.73 436.72, 719.44 431.28, 737.50 431.50 C 748.58 424.27, 761.42 423.72, 771.50 416.50 C 779.63 408.97, 793.87 411.41, 798.50 402.50 C 795.94 391.89, 805.11 368.23, 791.50 366.50 Z" fill="rgb(79.63020384725812,94.57622739018088,38.813809933964976)" stroke="rgb(79.63020384725812,94.57622739018088,38.813809933964976)" stroke-width="1" />
<path d="M 0.50 472.50 C 0.50 485.50, 0.50 498.50, 0.50 511.50 C 0.50 525.83, 0.50 539.17, 0.50 552.50 C 1.32 558.10, -1.43 564.19, 2.50 567.50 C 22.83 573.11, 42.77 577.27, 63.50 579.50 C 73.88 581.85, 83.07 584.68, 93.50 584.50 C 101.64 588.81, 124.29 603.34, 123.50 586.50 C 106.36 565.01, 87.92 542.95, 65.50 531.50 C 56.25 518.51, 43.98 507.18, 31.50 499.50 C 16.86 497.41, 19.69 473.63, 1.50 472.50 Z" fill="rgb(29.235268441728504,30.21373490469955,28.390077113342063)" stroke="rgb(29.235268441728504,30.21373490469955,28.390077113342063)" stroke-width="1" />
<path d="M 315.50 125.50 C 306.00 127.76, 297.30 131.96, 287.50 133.50 C 272.46 137.59, 255.99 137.33, 241.50 137.50 C 240.88 152.87, 261.61 153.52, 268.50 163.50 C 278.24 168.91, 277.75 181.41, 276.50 188.50 C 289.87 206.60, 298.23 225.36, 310.50 242.50 C 319.89 255.90, 323.46 270.71, 329.50 284.50 C 337.97 295.50, 333.57 275.52, 334.50 269.50 C 332.56 246.16, 333.88 222.48, 333.50 199.50 C 331.40 180.01, 329.93 161.27, 328.50 142.50 C 323.87 135.78, 319.49 132.50, 316.50 125.50 Z" fill="rgb(35.186435568952525,38.05109269027882,32.15056518462698)" stroke="rgb(35.186435568952525,38.05109269027882,32.15056518462698)" stroke-width="1" />
<path d="M 596.50 657.50 C 603.25 667.34, 613.48 675.34, 622.50 683.50 C 623.81 691.17, 633.93 686.84, 635.50 692.50 C 640.61 701.73, 649.59 700.61, 656.50 704.50 C 665.82 707.51, 659.22 720.57, 667.50 724.50 C 710.10 770.57, 752.70 824.45, 790.50 864.50 C 799.77 852.58, 806.95 799.56, 783.50 793.50 C 765.25 782.30, 746.06 776.77, 730.50 762.50 C 710.86 740.99, 687.25 723.74, 668.50 707.50 C 658.67 700.85, 652.42 692.01, 642.50 686.50 C 635.72 676.30, 625.83 674.79, 620.50 665.50 C 611.55 663.67, 604.81 659.89, 597.50 657.50 Z" fill="rgb(61.38523274478331,68.92536115569824,28.707865168539325)" stroke="rgb(61.38523274478331,68.92536115569824,28.707865168539325)" stroke-width="1" />
<path d="M 540.50 659.50 C 539.85 666.79, 543.14 672.45, 545.50 678.50 C 549.02 688.42, 549.29 699.28, 553.50 708.50 C 559.32 720.58, 557.59 734.80, 559.50 747.50 C 566.61 761.26, 565.85 774.62, 567.50 791.50 C 553.70 809.22, 585.60 827.58, 566.50 837.50 C 535.44 877.80, 600.21 862.21, 623.50 863.50 C 621.95 849.62, 617.15 838.09, 612.50 826.50 C 606.22 815.42, 607.37 802.27, 595.50 794.50 C 588.57 783.71, 591.56 770.23, 585.50 760.50 C 581.61 750.45, 576.88 742.17, 575.50 732.50 C 571.35 717.76, 566.60 704.26, 562.50 690.50 C 555.45 678.90, 556.63 662.40, 541.50 659.50 Z" fill="rgb(31.291325695581016,33.03109656301146,29.212356792144025)" stroke="rgb(31.291325695581016,33.03109656301146,29.212356792144025)" stroke-width="1" />
<path d="M 417.50 0.50 C 422.15 19.92, 429.37 38.28, 434.50 57.50 C 436.78 66.13, 440.48 72.76, 441.50 80.50 C 443.45 93.85, 455.36 77.15, 459.50 71.50 C 466.91 64.75, 454.30 46.49, 468.50 48.50 C 479.96 55.64, 479.64 74.04, 470.50 81.50 C 457.47 84.64, 457.86 99.87, 472.50 96.50 C 508.13 79.29, 511.46 35.75, 497.50 0.50 C 470.50 0.50, 444.50 0.50, 418.50 0.50 Z" fill="rgb(54.56526129765211,70.52436253471346,22.57561221913658)" stroke="rgb(54.56526129765211,70.52436253471346,22.57561221913658)" stroke-width="1" />
<path d="M 795.50 487.50 C 791.82 490.42, 786.93 490.40, 782.50 491.50 C 767.72 498.50, 752.40 501.79, 738.50 508.50 C 721.28 512.17, 705.76 517.52, 690.50 523.50 C 684.73 527.55, 702.36 533.72, 707.50 536.50 C 730.69 551.13, 755.20 560.13, 777.50 574.50 C 809.79 603.70, 797.08 550.84, 799.50 529.50 C 795.96 516.05, 801.70 498.30, 796.50 487.50 Z" fill="rgb(164.3949007395874,173.83223043985987,174.8224990268587)" stroke="rgb(164.3949007395874,173.83223043985987,174.8224990268587)" stroke-width="1" />
<path d="M 797.50 84.50 C 785.00 96.24, 776.41 111.76, 763.50 125.50 C 749.47 142.49, 734.38 158.04, 721.50 174.50 C 726.94 194.90, 717.55 213.54, 708.50 229.50 C 709.97 242.14, 713.83 246.22, 725.50 240.50 C 739.01 226.87, 749.91 213.58, 759.50 201.50 C 771.82 180.24, 783.75 158.24, 791.50 134.50 C 800.56 119.68, 798.23 101.55, 798.50 84.50 Z" fill="rgb(52.92227979274612,59.23741672834937,32.20540340488527)" stroke="rgb(52.92227979274612,59.23741672834937,32.20540340488527)" stroke-width="1" />
<path d="M 673.50 718.50 C 661.47 724.19, 673.33 717.72, 673.50 727.50 C 701.68 762.49, 729.92 798.30, 760.50 829.50 C 772.91 839.85, 773.07 857.23, 786.50 864.50 C 802.02 856.37, 805.52 788.43, 781.50 793.50 C 758.39 780.58, 735.17 771.32, 717.50 750.50 C 702.41 737.77, 689.08 725.03, 674.50 718.50 Z" fill="rgb(65.08706786171575,72.27144686299616,31.503201024327783)" stroke="rgb(65.08706786171575,72.27144686299616,31.503201024327783)" stroke-width="1" />
<path d="M 797.50 134.50 C 783.58 152.67, 779.02 177.20, 765.50 196.50 C 758.99 219.04, 754.09 241.24, 744.50 261.50 C 819.06 332.51, 798.46 185.41, 798.50 135.50 Z" fill="rgb(41.34375,42.578125,33.59375)" stroke="rgb(41.34375,42.578125,33.59375)" stroke-width="1" />
<path d="M 797.50 134.50 C 786.16 145.24, 785.61 162.87, 776.50 175.50 C 764.09 195.87, 760.08 218.72, 753.50 240.50 C 750.99 249.63, 744.82 258.43, 745.50 266.50 C 755.42 274.49, 765.21 281.81, 776.50 285.50 C 783.64 279.97, 794.63 278.85, 798.50 272.50 C 798.50 264.17, 798.50 256.83, 798.50 249.50 C 799.02 228.25, 799.97 208.17, 799.50 187.50 C 800.27 168.71, 797.97 152.19, 798.50 134.50 Z" fill="rgb(39.56075334143378,39.88315107330903,35.3392061563386)" stroke="rgb(39.56075334143378,39.88315107330903,35.3392061563386)" stroke-width="1" />
<path d="M 122.50 0.50 C 127.64 11.48, 133.63 25.89, 147.50 27.50 C 163.43 31.66, 178.43 34.66, 193.50 37.50 C 218.30 42.52, 241.94 47.91, 265.50 53.50 C 271.80 54.69, 269.52 50.29, 268.50 47.50 C 257.73 31.61, 248.51 14.75, 238.50 0.50 C 218.83 0.50, 200.17 0.50, 181.50 0.50 C 161.50 0.50, 142.50 0.50, 123.50 0.50 Z" fill="rgb(176.01478242764938,185.7626483447845,183.4316052467208)" stroke="rgb(176.01478242764938,185.7626483447845,183.4316052467208)" stroke-width="1" />
<path d="M 699.50 749.50 C 688.03 750.14, 699.59 755.62, 702.50 760.50 C 714.22 779.31, 730.05 795.62, 744.50 811.50 C 757.38 823.84, 768.93 835.82, 775.50 851.50 C 780.79 861.36, 786.50 867.03, 797.50 864.50 C 797.22 842.60, 799.59 823.53, 797.50 802.50 C 789.66 798.26, 782.79 795.08, 776.50 790.50 C 757.50 780.27, 737.38 771.96, 722.50 756.50 C 716.70 747.56, 709.05 750.12, 700.50 749.50 Z" fill="rgb(69.05722822339692,78.43737071937485,28.076763962307517)" stroke="rgb(69.05722822339692,78.43737071937485,28.076763962307517)" stroke-width="1" />
<path d="M 504.50 784.50 C 489.31 791.83, 476.06 799.95, 462.50 810.50 C 440.25 819.08, 423.28 836.96, 404.50 850.50 C 398.11 847.61, 398.34 855.44, 395.50 858.50 C 389.92 867.92, 403.53 863.36, 408.50 864.50 C 428.00 862.66, 451.02 871.28, 459.50 852.50 C 476.19 834.04, 496.98 826.00, 515.50 811.50 C 537.59 806.66, 515.27 789.39, 505.50 784.50 Z" fill="rgb(30.174858223062383,30.85349716446125,28.66540642722117)" stroke="rgb(30.174858223062383,30.85349716446125,28.66540642722117)" stroke-width="1" />
<path d="M 668.50 281.50 C 650.73 290.31, 634.25 302.22, 617.50 313.50 C 597.43 328.17, 580.86 342.93, 562.50 357.50 C 540.14 368.02, 542.98 387.12, 559.50 396.50 C 592.32 378.89, 614.48 352.71, 640.50 328.50 C 650.63 313.09, 669.44 294.94, 669.50 281.50 Z" fill="rgb(44.4129116117851,51.22833622183709,28.629116117850952)" stroke="rgb(44.4129116117851,51.22833622183709,28.629116117850952)" stroke-width="1" />
<path d="M 622.50 829.50 C 614.74 840.16, 626.59 852.55, 625.50 864.50 C 644.17 864.50, 661.83 864.50, 679.50 864.50 C 698.50 864.50, 716.50 864.50, 734.50 864.50 C 738.24 856.67, 750.17 827.08, 744.50 837.50 C 740.38 838.54, 731.36 839.54, 734.50 834.50 C 721.46 829.89, 700.00 836.38, 683.50 832.50 C 662.06 833.35, 642.94 831.04, 623.50 829.50 Z" fill="rgb(32.27420998980632,33.714831804281346,32.038990825688074)" stroke="rgb(32.27420998980632,33.714831804281346,32.038990825688074)" stroke-width="1" />
<path d="M 528.50 805.50 C 522.84 816.61, 508.78 813.03, 501.50 822.50 C 483.75 833.25, 466.53 847.06, 456.50 864.50 C 469.17 864.50, 480.83 864.50, 492.50 864.50 C 511.17 864.50, 528.83 864.50, 546.50 864.50 C 552.44 855.46, 555.27 843.06, 556.50 831.50 C 545.91 824.93, 542.85 809.00, 529.50 805.50 Z" fill="rgb(46.78768745067087,55.033412259931595,32.605893186003684)" stroke="rgb(46.78768745067087,55.033412259931595,32.605893186003684)" stroke-width="1" />
<path d="M 253.50 0.50 C 250.75 6.34, 259.23 8.60, 259.50 14.50 C 269.61 26.96, 270.47 41.84, 281.50 52.50 C 296.87 58.69, 312.10 62.80, 327.50 66.50 C 330.26 55.43, 331.02 45.74, 326.50 36.50 C 333.26 26.38, 324.92 13.82, 323.50 3.50 C 303.26 -2.08, 277.08 1.77, 254.50 0.50 Z" fill="rgb(123.97816593886463,138.6626637554585,121.5311135371179)" stroke="rgb(123.97816593886463,138.6626637554585,121.5311135371179)" stroke-width="1" />
<path d="M 598.50 71.50 C 591.28 73.94, 586.14 70.46, 587.50 79.50 C 567.38 168.37, 714.73 129.85, 636.50 82.50 C 624.93 74.72, 612.39 72.68, 599.50 71.50 Z" fill="rgb(67.60526315789474,74.7719298245614,31.81578947368421)" stroke="rgb(67.60526315789474,74.7719298245614,31.81578947368421)" stroke-width="1" />
<path d="M 597.50 71.50 C 593.34 76.60, 590.57 82.29, 591.50 89.50 C 595.42 106.53, 599.22 122.62, 603.50 138.50 C 617.65 134.52, 632.22 131.48, 647.50 134.50 C 651.06 123.80, 668.37 118.29, 663.50 104.50 C 659.86 93.95, 649.23 90.32, 641.50 84.50 C 627.31 78.22, 614.80 70.28, 598.50 71.50 Z" fill="rgb(40.44879267277269,42.70913127948931,36.744379683597)" stroke="rgb(40.44879267277269,42.70913127948931,36.744379683597)" stroke-width="1" />
<path d="M 586.50 787.50 C 580.19 793.29, 565.39 784.51, 568.50 797.50 C 563.73 809.39, 571.46 818.83, 574.50 829.50 C 562.42 836.33, 562.44 851.20, 557.50 862.50 C 577.17 865.17, 603.83 865.17, 623.50 863.50 C 616.62 835.53, 609.88 806.19, 587.50 787.50 Z" fill="rgb(35.62538699690403,38.32275541795666,29.639318885448915)" stroke="rgb(35.62538699690403,38.32275541795666,29.639318885448915)" stroke-width="1" />
<path d="M 177.50 365.50 C 166.01 372.78, 159.73 398.45, 177.50 400.50 C 181.87 407.05, 172.57 412.08, 176.50 417.50 C 199.80 423.52, 224.39 423.02, 246.50 428.50 C 252.06 430.39, 256.98 430.89, 261.50 428.50 C 258.62 421.06, 256.09 414.06, 252.50 407.50 C 234.44 395.85, 216.70 386.81, 199.50 376.50 C 191.30 373.47, 185.94 366.96, 178.50 365.50 Z" fill="rgb(41.209970674486804,47.12756598240469,32.686803519061584)" stroke="rgb(41.209970674486804,47.12756598240469,32.686803519061584)" stroke-width="1" />
<path d="M 190.50 503.50 C 182.67 504.78, 175.46 507.53, 167.50 508.50 C 142.52 508.67, 153.67 543.31, 141.50 557.50 C 121.38 603.50, 174.44 555.16, 193.50 549.50 C 224.04 544.32, 199.84 514.31, 191.50 503.50 Z" fill="rgb(48.46363636363636,48.18181818181818,30.754545454545454)" stroke="rgb(48.46363636363636,48.18181818181818,30.754545454545454)" stroke-width="1" />
<path d="M 189.50 503.50 C 181.10 506.14, 172.37 507.98, 163.50 509.50 C 150.25 507.97, 152.94 522.73, 150.50 530.50 C 146.86 546.26, 139.97 559.67, 136.50 574.50 C 133.43 585.73, 145.62 576.18, 149.50 574.50 C 162.82 564.42, 177.61 556.90, 192.50 550.50 C 197.52 545.16, 205.19 544.81, 210.50 540.50 C 216.13 535.33, 204.21 531.57, 203.50 525.50 C 197.08 518.60, 202.62 501.59, 190.50 503.50 Z" fill="rgb(36.4744687599112,39.73929590865842,34.955915001585794)" stroke="rgb(36.4744687599112,39.73929590865842,34.955915001585794)" stroke-width="1" />
<path d="M 605.50 0.50 C 599.97 4.49, 610.82 6.44, 611.50 10.50 C 624.37 29.26, 642.84 39.98, 657.50 58.50 C 671.29 73.20, 671.47 46.20, 675.50 38.50 C 681.93 25.26, 686.55 12.69, 694.50 1.50 C 680.17 0.50, 665.83 0.50, 651.50 0.50 C 635.83 0.50, 621.17 0.50, 606.50 0.50 Z" fill="rgb(39.76157037982764,42.92020427705075,26.409192467283752)" stroke="rgb(39.76157037982764,42.92020427705075,26.409192467283752)" stroke-width="1" />
<path d="M 556.50 0.50 C 611.69 128.46, 703.69 46.91, 556.50 0.50 Z" fill="rgb(nan,nan,nan)" stroke="rgb(nan,nan,nan)" stroke-width="1" />
<path d="M 556.50 0.50 C 612.81 128.75, 704.27 46.97, 556.50 0.50 Z" fill="rgb(79.93181818181819,71.61363636363636,55.59090909090909)" stroke="rgb(79.93181818181819,71.61363636363636,55.59090909090909)" stroke-width="1" />
<path d="M 556.50 0.50 C 536.73 86.39, 725.35 81.11, 617.50 42.50 C 588.37 39.51, 583.93 -0.61, 557.50 0.50 Z" fill="rgb(102.68115942028986,96.97101449275362,80.89855072463769)" stroke="rgb(102.68115942028986,96.97101449275362,80.89855072463769)" stroke-width="1" />
<path d="M 222.50 545.50 C 209.51 552.19, 196.68 559.27, 183.50 565.50 C 168.83 572.33, 156.51 579.98, 145.50 589.50 C 152.66 587.51, 176.89 603.18, 169.50 623.50 C 184.92 639.54, 207.26 612.95, 195.50 598.50 C 196.83 579.54, 223.50 574.47, 232.50 559.50 C 232.86 555.89, 230.71 546.44, 223.50 545.50 Z" fill="rgb(42.25459317585302,46.44794400699912,34.64348206474191)" stroke="rgb(42.25459317585302,46.44794400699912,34.64348206474191)" stroke-width="1" />
<path d="M 557.50 67.50 C 556.66 101.80, 511.59 78.38, 503.50 110.50 C 522.53 115.81, 539.63 122.38, 556.50 129.50 C 565.54 132.19, 575.20 138.76, 583.50 134.50 C 578.30 110.89, 574.40 81.78, 558.50 67.50 Z" fill="rgb(44.939320388349515,51.27669902912621,27.432038834951456)" stroke="rgb(44.939320388349515,51.27669902912621,27.432038834951456)" stroke-width="1" />
<path d="M 752.50 44.50 C 743.50 59.57, 737.73 76.63, 725.50 89.50 C 708.25 106.32, 735.53 105.98, 746.50 108.50 C 753.29 111.00, 760.66 112.23, 763.50 118.50 C 774.70 112.22, 781.11 100.75, 787.50 90.50 C 776.92 74.47, 767.58 53.55, 753.50 44.50 Z" fill="rgb(35.98627663416396,37.273022751895994,33.16648609606356)" stroke="rgb(35.98627663416396,37.273022751895994,33.16648609606356)" stroke-width="1" />
<path d="M 534.50 378.50 C 522.61 393.02, 480.26 405.05, 507.50 421.50 C 518.86 489.82, 586.17 395.46, 535.50 378.50 Z" fill="rgb(145.52808988764045,137.1011235955056,109.96629213483146)" stroke="rgb(145.52808988764045,137.1011235955056,109.96629213483146)" stroke-width="1" />
<path d="M 767.50 0.50 C 732.39 124.15, 864.13 25.60, 767.50 0.50 Z" fill="rgb(38.642857142857146,38.5,37.57142857142857)" stroke="rgb(38.642857142857146,38.5,37.57142857142857)" stroke-width="1" />
<path d="M 551.50 68.50 C 549.23 91.15, 538.31 100.23, 508.50 88.50 C 501.29 97.50, 503.41 114.17, 516.50 113.50 C 526.90 116.14, 536.70 117.83, 546.50 119.50 C 554.64 124.64, 585.54 138.16, 579.50 117.50 C 570.13 102.41, 574.15 70.08, 552.50 68.50 Z" fill="rgb(62.10580380071905,73.66204417051874,38.196712891628145)" stroke="rgb(62.10580380071905,73.66204417051874,38.196712891628145)" stroke-width="1" />
<path d="M 767.50 0.50 C 764.89 12.78, 759.71 24.85, 758.50 36.50 C 762.61 47.45, 766.02 59.63, 777.50 63.50 C 782.28 70.57, 790.33 71.53, 795.50 76.50 C 802.61 57.78, 798.11 33.15, 799.50 12.50 C 804.38 -7.38, 779.77 3.23, 768.50 0.50 Z" fill="rgb(35.726081778483525,37.29297340214371,33.25248114331084)" stroke="rgb(35.726081778483525,37.29297340214371,33.25248114331084)" stroke-width="1" />
<path d="M 379.50 772.50 C 371.25 787.05, 377.06 804.84, 371.50 820.50 C 364.25 837.30, 355.91 850.85, 347.50 864.50 C 363.17 861.65, 386.14 871.91, 392.50 855.50 C 396.21 837.82, 400.32 819.60, 395.50 802.50 C 390.26 791.70, 393.10 776.71, 380.50 772.50 Z" fill="rgb(86.77076677316293,101.16453674121406,55.0535143769968)" stroke="rgb(86.77076677316293,101.16453674121406,55.0535143769968)" stroke-width="1" />
<path d="M 119.50 282.50 C 119.11 285.68, 118.97 292.90, 123.50 294.50 C 129.56 304.83, 136.45 313.41, 144.50 321.50 C 157.46 336.70, 172.47 349.79, 188.50 358.50 C 194.45 353.85, 211.14 358.50, 207.50 347.50 C 197.80 337.99, 191.58 325.28, 181.50 316.50 C 160.04 305.61, 142.25 289.27, 120.50 282.50 Z" fill="rgb(75.88817377312952,95.27071600965407,24.63877715205149)" stroke="rgb(75.88817377312952,95.27071600965407,24.63877715205149)" stroke-width="1" />
<path d="M 710.50 445.50 C 696.01 448.25, 680.75 449.16, 666.50 452.50 C 642.57 456.19, 619.81 460.31, 597.50 465.50 C 590.59 466.60, 581.40 478.14, 588.50 482.50 C 600.49 484.26, 609.27 491.34, 620.50 492.50 C 634.52 485.20, 648.98 476.41, 663.50 470.50 C 679.13 463.40, 694.05 457.03, 708.50 449.50 C 712.52 448.98, 717.15 444.31, 711.50 445.50 Z" fill="rgb(75.89575757575757,91.30020202020202,35.32606060606061)" stroke="rgb(75.89575757575757,91.30020202020202,35.32606060606061)" stroke-width="1" />
<path d="M 182.50 128.50 C 175.71 139.90, 189.33 158.32, 190.50 172.50 C 201.27 187.09, 198.12 158.14, 209.50 159.50 C 216.96 160.68, 211.90 172.80, 220.50 170.50 C 231.33 168.29, 242.56 169.44, 252.50 167.50 C 259.28 156.22, 240.90 148.38, 239.50 138.50 C 231.62 132.81, 201.42 130.86, 183.50 128.50 Z" fill="rgb(36.58588828223436,40.895002099958,33.72280554388912)" stroke="rgb(36.58588828223436,40.895002099958,33.72280554388912)" stroke-width="1" />
<path d="M 535.50 0.50 C 537.79 11.82, 542.85 21.99, 549.50 31.50 C 557.55 46.73, 564.18 61.14, 568.50 76.50 C 574.18 89.22, 577.06 101.68, 581.50 113.50 C 584.88 125.94, 585.53 141.75, 600.50 140.50 C 597.05 118.33, 592.22 97.31, 584.50 77.50 C 581.55 72.70, 582.22 67.40, 579.50 63.50 C 576.35 52.48, 570.75 43.48, 567.50 33.50 C 557.86 19.08, 560.66 -6.57, 536.50 0.50 Z" fill="rgb(112.1457887986319,120.57802479692177,59.92133390337751)" stroke="rgb(112.1457887986319,120.57802479692177,59.92133390337751)" stroke-width="1" />
<path d="M 591.50 29.50 C 585.59 33.70, 578.70 37.28, 571.50 35.50 C 574.24 45.81, 577.76 58.33, 588.50 60.50 C 600.70 72.37, 617.47 70.63, 632.50 69.50 C 641.90 70.85, 657.87 74.75, 663.50 68.50 C 655.68 59.73, 649.39 48.50, 639.50 43.50 C 620.20 45.99, 605.68 39.37, 592.50 29.50 Z" fill="rgb(113.74334763948498,101.2656652360515,95.91244635193134)" stroke="rgb(113.74334763948498,101.2656652360515,95.91244635193134)" stroke-width="1" />
<path d="M 589.50 793.50 C 581.78 797.58, 585.70 805.66, 583.50 812.50 C 581.24 830.51, 579.12 849.78, 583.50 864.50 C 596.87 863.21, 614.45 867.11, 623.50 862.50 C 620.74 845.10, 614.07 830.32, 607.50 815.50 C 607.06 805.39, 599.80 795.33, 590.50 793.50 Z" fill="rgb(34.649075327018494,36.31529093369418,29.900766801984663)" stroke="rgb(34.649075327018494,36.31529093369418,29.900766801984663)" stroke-width="1" />
<path d="M 477.50 0.50 C 478.26 17.66, 481.47 37.26, 480.50 56.50 C 480.11 66.70, 481.28 74.30, 479.50 82.50 C 482.61 100.80, 491.88 64.15, 500.50 77.50 C 500.55 85.56, 501.04 92.59, 504.50 81.50 C 505.34 64.77, 506.71 47.13, 504.50 31.50 C 502.35 23.64, 503.58 15.39, 501.50 8.50 C 503.35 -4.93, 486.29 2.50, 478.50 0.50 Z" fill="rgb(44.661863592699326,54.34438040345821,23.65513928914505)" stroke="rgb(44.661863592699326,54.34438040345821,23.65513928914505)" stroke-width="1" />
<path d="M 272.50 559.50 C 262.69 562.36, 257.51 572.13, 251.50 580.50 C 247.77 582.69, 249.83 588.82, 245.50 589.50 C 239.89 603.93, 231.38 615.28, 230.50 631.50 C 225.32 633.31, 227.85 639.86, 225.50 643.50 C 219.42 654.95, 229.05 693.00, 231.50 672.50 C 236.15 668.43, 238.77 674.99, 239.50 663.50 C 245.61 642.21, 248.16 620.45, 257.50 601.50 C 262.22 595.55, 261.43 588.31, 266.50 583.50 C 268.04 574.81, 278.23 568.31, 273.50 560.50 Z" fill="rgb(120.08882235528942,136.09730538922156,117.61377245508982)" stroke="rgb(120.08882235528942,136.09730538922156,117.61377245508982)" stroke-width="1" />
<path d="M 1.50 0.50 C 2.37 15.89, 28.55 6.80, 40.50 13.50 C 52.74 14.26, 64.00 14.96, 74.50 17.50 C 89.59 19.95, 103.31 23.30, 117.50 25.50 C 137.04 28.31, 115.19 9.58, 113.50 1.50 C 94.50 0.50, 76.50 0.50, 58.50 0.50 C 39.17 0.50, 20.83 0.50, 2.50 0.50 Z" fill="rgb(126.43511450381679,139.85241730279898,119.34503816793894)" stroke="rgb(126.43511450381679,139.85241730279898,119.34503816793894)" stroke-width="1" />
<path d="M 587.50 335.50 C 571.87 347.78, 556.61 360.96, 541.50 374.50 C 546.14 382.35, 552.72 388.78, 554.50 397.50 C 572.13 391.44, 586.72 379.44, 600.50 365.50 C 598.35 354.07, 592.67 345.10, 588.50 335.50 Z" fill="rgb(48.180976863753216,60.94910025706941,26.23393316195373)" stroke="rgb(48.180976863753216,60.94910025706941,26.23393316195373)" stroke-width="1" />
<path d="M 535.50 16.50 C 520.82 26.03, 498.36 32.71, 510.50 53.50 C 522.08 55.15, 530.76 61.41, 539.50 67.50 C 546.98 65.73, 556.21 66.77, 561.50 64.50 C 556.87 46.67, 547.32 28.81, 536.50 16.50 Z" fill="rgb(46.69266055045872,53.44896788990825,30.7677752293578)" stroke="rgb(46.69266055045872,53.44896788990825,30.7677752293578)" stroke-width="1" />
<path d="M 731.50 432.50 C 711.03 435.83, 690.44 438.88, 670.50 443.50 C 659.12 445.40, 648.86 447.57, 638.50 449.50 C 612.96 454.14, 588.63 459.29, 563.50 462.50 C 557.53 463.24, 552.47 463.76, 547.50 464.50 C 535.76 466.78, 521.36 463.58, 513.50 470.50 C 523.65 476.48, 535.78 471.51, 546.50 471.50 C 562.51 469.99, 576.97 467.16, 591.50 464.50 C 603.79 462.06, 615.60 460.87, 626.50 457.50 C 645.84 454.52, 664.07 451.26, 682.50 448.50 C 693.98 445.58, 705.70 445.66, 716.50 443.50 C 723.89 444.78, 747.35 432.98, 732.50 432.50 Z" fill="rgb(169.12083568605308,177.8368153585545,171.0677583286279)" stroke="rgb(169.12083568605308,177.8368153585545,171.0677583286279)" stroke-width="1" />
<path d="M 134.50 531.50 C 122.86 532.62, 111.71 534.93, 101.50 539.50 C 90.44 536.99, 92.62 551.42, 98.50 555.50 C 110.82 562.78, 119.87 584.13, 129.50 584.50 C 134.15 572.82, 137.60 562.07, 141.50 551.50 C 146.19 544.15, 149.25 527.67, 135.50 531.50 Z" fill="rgb(57.51233505450373,64.32644865174986,39.430866322432585)" stroke="rgb(57.51233505450373,64.32644865174986,39.430866322432585)" stroke-width="1" />
<path d="M 491.50 466.50 C 474.72 469.94, 460.90 480.55, 443.50 482.50 C 425.72 486.71, 406.27 489.61, 388.50 485.50 C 368.26 491.16, 411.52 498.81, 422.50 494.50 C 439.17 492.24, 454.95 485.34, 471.50 488.50 C 486.66 496.09, 522.95 465.77, 492.50 466.50 Z" fill="rgb(130.855033557047,101.62281879194632,101.17852348993289)" stroke="rgb(130.855033557047,101.62281879194632,101.17852348993289)" stroke-width="1" />
<path d="M 54.50 489.50 C 45.81 491.63, 37.71 495.20, 29.50 498.50 C 42.54 499.83, 50.21 515.53, 61.50 522.50 C 76.83 517.50, 96.08 521.03, 105.50 506.50 C 92.38 493.21, 69.19 502.82, 55.50 489.50 Z" fill="rgb(32.50948699929726,33.22487702037948,31.016163035839774)" stroke="rgb(32.50948699929726,33.22487702037948,31.016163035839774)" stroke-width="1" />
<path d="M 534.50 378.50 C 500.75 396.83, 484.29 425.45, 533.50 414.50 C 560.08 418.16, 556.14 380.96, 535.50 378.50 Z" fill="rgb(133.79429133858267,113.55905511811024,78.86909448818898)" stroke="rgb(133.79429133858267,113.55905511811024,78.86909448818898)" stroke-width="1" />
<path d="M 761.50 0.50 C 760.82 7.85, 756.98 13.89, 754.50 20.50 C 746.79 40.92, 734.08 57.85, 725.50 76.50 C 720.23 83.94, 717.62 93.96, 707.50 93.50 C 691.99 101.33, 669.12 139.01, 700.50 122.50 C 711.59 113.25, 715.85 102.59, 721.50 92.50 C 735.29 74.01, 747.43 53.75, 753.50 32.50 C 756.43 21.37, 765.24 10.19, 762.50 0.50 Z" fill="rgb(68.5056338028169,74.7,35.33098591549296)" stroke="rgb(68.5056338028169,74.7,35.33098591549296)" stroke-width="1" />
<path d="M 513.50 581.50 C 482.48 628.86, 608.24 615.69, 513.50 581.50 Z" fill="rgb(204.46666666666667,209.15,206.51666666666668)" stroke="rgb(204.46666666666667,209.15,206.51666666666668)" stroke-width="1" />
<path d="M 515.50 581.50 C 510.43 584.21, 501.05 580.06, 498.50 586.50 C 513.25 601.90, 529.06 613.76, 544.50 626.50 C 559.74 608.57, 541.34 576.53, 516.50 581.50 Z" fill="rgb(111.74446987032799,95.61250953470633,66.70327993897789)" stroke="rgb(111.74446987032799,95.61250953470633,66.70327993897789)" stroke-width="1" />
<path d="M 487.50 498.50 C 517.56 520.74, 569.81 537.23, 607.50 559.50 C 632.87 570.22, 657.59 580.09, 682.50 589.50 C 691.37 582.42, 676.91 583.10, 672.50 581.50 C 662.61 577.71, 654.45 573.16, 645.50 570.50 C 619.39 560.05, 595.34 548.04, 571.50 535.50 C 543.54 522.59, 517.48 507.53, 488.50 499.50 Z" fill="rgb(130.9360465116279,141.46124031007753,121.09883720930233)" stroke="rgb(130.9360465116279,141.46124031007753,121.09883720930233)" stroke-width="1" />
<path d="M 710.50 328.50 C 696.46 337.93, 712.14 345.28, 722.50 347.50 C 739.54 351.79, 754.60 358.44, 769.50 365.50 C 777.71 367.12, 809.37 365.32, 791.50 358.50 C 782.92 353.35, 773.20 353.37, 765.50 348.50 C 747.31 340.69, 728.58 336.59, 711.50 328.50 Z" fill="rgb(43.51109350237718,46.56101426307448,31.734548335974644)" stroke="rgb(43.51109350237718,46.56101426307448,31.734548335974644)" stroke-width="1" />
<path d="M 550.50 407.50 C 539.47 419.34, 494.76 405.66, 512.50 430.50 C 513.56 436.14, 514.99 440.63, 515.50 445.50 C 538.60 452.56, 556.97 427.93, 551.50 407.50 Z" fill="rgb(110.29809220985692,94.26868044515103,62.45707472178061)" stroke="rgb(110.29809220985692,94.26868044515103,62.45707472178061)" stroke-width="1" />
<path d="M 694.50 10.50 C 679.65 27.74, 675.03 49.22, 667.50 69.50 C 666.09 84.08, 663.78 99.22, 667.50 112.50 C 667.61 121.56, 677.66 118.35, 676.50 111.50 C 677.50 103.50, 677.50 96.50, 677.50 89.50 C 677.73 67.52, 684.25 49.15, 692.50 31.50 C 696.02 25.10, 700.32 15.34, 695.50 10.50 Z" fill="rgb(62.26634768740032,68.96969696969697,22.057416267942585)" stroke="rgb(62.26634768740032,68.96969696969697,22.057416267942585)" stroke-width="1" />
<path d="M 508.50 55.50 C 509.35 70.43, 498.81 93.29, 521.50 91.50 C 530.01 94.02, 538.04 95.27, 546.50 95.50 C 549.38 72.89, 529.49 56.62, 509.50 55.50 Z" fill="rgb(50.61038961038961,57.861201298701296,25.085227272727273)" stroke="rgb(50.61038961038961,57.861201298701296,25.085227272727273)" stroke-width="1" />
<path d="M 740.50 268.50 C 737.60 275.95, 731.78 285.69, 742.50 289.50 C 757.82 301.94, 774.05 309.78, 789.50 319.50 C 799.31 328.81, 800.72 319.67, 799.50 310.50 C 777.54 299.07, 763.17 278.63, 741.50 268.50 Z" fill="rgb(81.69487388120423,88.66151342554923,29.467046379170057)" stroke="rgb(81.69487388120423,88.66151342554923,29.467046379170057)" stroke-width="1" />
<path d="M 572.50 0.50 C 574.77 7.08, 581.05 12.00, 583.50 18.50 C 598.69 31.76, 614.68 45.15, 634.50 40.50 C 628.19 28.23, 613.08 19.26, 604.50 7.50 C 601.85 -5.21, 583.60 2.90, 573.50 0.50 Z" fill="rgb(45.4,48.24081632653061,32.01714285714286)" stroke="rgb(45.4,48.24081632653061,32.01714285714286)" stroke-width="1" />
<path d="M 412.50 764.50 C 405.33 768.67, 397.60 770.35, 391.50 775.50 C 394.21 788.62, 398.13 800.24, 400.50 812.50 C 413.88 817.10, 425.93 805.14, 421.50 792.50 C 419.18 782.40, 426.40 765.16, 413.50 764.50 Z" fill="rgb(32.49093904448105,36.60296540362438,32.5996705107084)" stroke="rgb(32.49093904448105,36.60296540362438,32.5996705107084)" stroke-width="1" />
<path d="M 484.50 504.50 C 476.26 510.58, 455.71 518.04, 471.50 526.50 C 486.24 535.26, 496.60 546.95, 510.50 554.50 C 511.31 543.14, 504.46 534.54, 503.50 523.50 C 503.45 511.88, 494.05 506.72, 485.50 504.50 Z" fill="rgb(45.272416737830916,50.34756618274979,37.23654995730145)" stroke="rgb(45.272416737830916,50.34756618274979,37.23654995730145)" stroke-width="1" />
<path d="M 436.50 518.50 C 434.27 530.82, 453.06 544.28, 462.50 555.50 C 470.90 560.94, 480.17 560.88, 487.50 565.50 C 486.91 584.79, 530.69 582.68, 514.50 574.50 C 493.22 566.35, 476.82 549.82, 459.50 535.50 C 451.17 530.29, 445.97 520.96, 437.50 519.50 Z" fill="rgb(106.20421860019175,115.56663470757431,49.8130393096836)" stroke="rgb(106.20421860019175,115.56663470757431,49.8130393096836)" stroke-width="1" />
<path d="M 499.50 95.50 C 487.71 104.43, 480.46 120.20, 474.50 132.50 C 468.97 142.98, 485.16 147.84, 492.50 142.50 C 511.27 147.09, 513.06 129.42, 501.50 119.50 C 495.05 112.43, 503.07 103.64, 499.50 96.50 Z" fill="rgb(56.59163987138264,68.44908896034298,28.15434083601286)" stroke="rgb(56.59163987138264,68.44908896034298,28.15434083601286)" stroke-width="1" />
<path d="M 216.50 539.50 C 201.56 547.31, 186.83 555.62, 171.50 562.50 C 154.30 571.61, 139.43 582.92, 125.50 596.50 C 117.72 613.67, 86.81 623.42, 122.50 620.50 C 130.56 612.52, 122.27 613.84, 126.50 604.50 C 136.81 591.36, 150.65 581.84, 163.50 573.50 C 177.05 565.75, 190.39 559.89, 203.50 553.50 C 209.63 548.61, 232.63 541.87, 217.50 539.50 Z" fill="rgb(157.06806930693068,166.74752475247524,160.92945544554456)" stroke="rgb(157.06806930693068,166.74752475247524,160.92945544554456)" stroke-width="1" />
<path d="M 522.50 489.50 C 515.04 496.28, 529.73 493.94, 533.50 495.50 C 549.92 496.29, 565.60 496.47, 580.50 498.50 C 597.97 498.36, 613.04 501.61, 629.50 501.50 C 647.03 502.69, 662.60 505.19, 679.50 504.50 C 691.31 502.49, 678.32 500.56, 673.50 500.50 C 665.20 499.75, 657.73 499.41, 650.50 498.50 C 640.86 497.78, 632.09 497.35, 623.50 496.50 C 615.70 495.34, 608.42 495.35, 601.50 494.50 C 582.33 492.77, 564.01 491.41, 545.50 490.50 C 537.35 490.52, 530.93 488.80, 523.50 489.50 Z" fill="rgb(151.46504559270517,161.10638297872342,149.19655521783181)" stroke="rgb(151.46504559270517,161.10638297872342,149.19655521783181)" stroke-width="1" />
<path d="M 754.50 827.50 C 746.51 836.73, 745.49 848.85, 738.50 858.50 C 733.02 868.93, 751.12 862.72, 757.50 864.50 C 765.83 864.50, 773.17 864.50, 780.50 864.50 C 770.24 852.30, 768.31 837.65, 755.50 827.50 Z" fill="rgb(143.34300518134714,154.2,153.77720207253887)" stroke="rgb(143.34300518134714,154.2,153.77720207253887)" stroke-width="1" />
<path d="M 133.50 510.50 C 121.91 518.66, 97.60 518.07, 98.50 534.50 C 108.29 538.14, 122.43 528.93, 135.50 530.50 C 155.27 534.82, 155.07 501.68, 134.50 510.50 Z" fill="rgb(32.217536071032185,33.27302996670366,31.46836847946726)" stroke="rgb(32.217536071032185,33.27302996670366,31.46836847946726)" stroke-width="1" />
<path d="M 506.50 178.50 C 498.34 185.29, 491.77 192.08, 486.50 200.50 C 474.23 221.54, 466.48 243.03, 463.50 266.50 C 468.94 263.94, 472.30 251.47, 476.50 244.50 C 484.21 225.49, 493.71 208.65, 502.50 191.50 C 502.67 186.20, 510.66 179.13, 507.50 178.50 Z" fill="rgb(93.09121621621621,108.16441441441441,39.075450450450454)" stroke="rgb(93.09121621621621,108.16441441441441,39.075450450450454)" stroke-width="1" />
<path d="M 207.50 355.50 C 202.49 358.75, 195.36 356.88, 190.50 360.50 C 205.89 371.16, 221.80 379.57, 237.50 388.50 C 247.17 394.65, 243.22 380.26, 241.50 375.50 C 230.51 366.54, 222.41 353.99, 208.50 355.50 Z" fill="rgb(44.74057142857143,52.49257142857143,33.34742857142857)" stroke="rgb(44.74057142857143,52.49257142857143,33.34742857142857)" stroke-width="1" />
<path d="M 470.50 136.50 C 473.28 150.45, 505.06 166.52, 521.50 160.50 C 529.86 150.43, 517.46 146.35, 511.50 142.50 C 495.46 144.15, 485.33 138.71, 471.50 136.50 Z" fill="rgb(53.41981132075472,60.15094339622642,26.160377358490567)" stroke="rgb(53.41981132075472,60.15094339622642,26.160377358490567)" stroke-width="1" />
<path d="M 458.50 565.50 C 440.14 619.60, 524.03 603.35, 458.50 565.50 Z" fill="rgb(164.23529411764707,167.58823529411765,165.64705882352942)" stroke="rgb(164.23529411764707,167.58823529411765,165.64705882352942)" stroke-width="1" />
<path d="M 456.50 566.50 C 452.40 574.56, 455.21 584.60, 457.50 592.50 C 462.78 605.13, 480.44 607.86, 489.50 600.50 C 480.26 587.90, 471.42 571.97, 457.50 566.50 Z" fill="rgb(88.60173697270471,77.85856079404466,65.05086848635236)" stroke="rgb(88.60173697270471,77.85856079404466,65.05086848635236)" stroke-width="1" />
<path d="M 486.50 499.50 C 493.22 509.84, 519.35 514.11, 533.50 522.50 C 551.93 531.27, 568.63 540.79, 586.50 547.50 C 598.39 551.83, 607.09 560.44, 618.50 562.50 C 614.99 554.91, 596.30 552.26, 588.50 545.50 C 554.51 528.67, 523.22 508.74, 487.50 499.50 Z" fill="rgb(160.70642201834863,170.4006116207951,168.23241590214067)" stroke="rgb(160.70642201834863,170.4006116207951,168.23241590214067)" stroke-width="1" />
<path d="M 507.50 0.50 C 486.02 62.73, 575.42 -8.68, 507.50 0.50 Z" fill="rgb(87.16666666666667,95.16666666666667,31.833333333333332)" stroke="rgb(87.16666666666667,95.16666666666667,31.833333333333332)" stroke-width="1" />
<path d="M 191.50 594.50 C 178.82 601.29, 158.60 616.28, 173.50 630.50 C 180.63 628.82, 186.32 627.06, 192.50 626.50 C 199.48 616.53, 197.16 602.56, 192.50 594.50 Z" fill="rgb(34.90526315789474,38.00921052631579,31.014473684210525)" stroke="rgb(34.90526315789474,38.00921052631579,31.014473684210525)" stroke-width="1" />
<path d="M 507.50 0.50 C 501.08 11.39, 504.67 40.53, 521.50 24.50 C 548.30 15.06, 530.95 -7.83, 508.50 0.50 Z" fill="rgb(79.93860845839018,88.86903137789905,37.33969986357435)" stroke="rgb(79.93860845839018,88.86903137789905,37.33969986357435)" stroke-width="1" />
<path d="M 491.50 602.50 C 492.16 613.79, 486.66 630.51, 501.50 634.50 C 546.48 652.64, 511.87 614.57, 492.50 602.50 Z" fill="rgb(86.93023255813954,88.48837209302326,67.90697674418605)" stroke="rgb(86.93023255813954,88.48837209302326,67.90697674418605)" stroke-width="1" />
<path d="M 374.50 116.50 C 367.89 129.26, 363.82 144.20, 353.50 154.50 C 349.20 160.62, 356.96 176.11, 366.50 170.50 C 370.55 155.44, 373.20 141.21, 379.50 128.50 C 378.54 122.89, 383.73 114.93, 375.50 116.50 Z" fill="rgb(70.79285714285714,88.37,36.17285714285714)" stroke="rgb(70.79285714285714,88.37,36.17285714285714)" stroke-width="1" />
<path d="M 491.50 603.50 C 492.24 613.81, 488.00 627.61, 499.50 632.50 C 507.68 639.93, 521.02 640.87, 529.50 638.50 C 518.99 624.96, 505.98 613.47, 492.50 603.50 Z" fill="rgb(76.51971830985916,66.46901408450704,47.54788732394366)" stroke="rgb(76.51971830985916,66.46901408450704,47.54788732394366)" stroke-width="1" />
<path d="M 700.50 143.50 C 690.64 147.30, 678.86 146.48, 669.50 151.50 C 684.75 159.75, 704.69 160.22, 721.50 154.50 C 754.81 147.31, 714.89 145.70, 701.50 143.50 Z" fill="rgb(74.51640513552069,79.97860199714694,43.33380884450784)" stroke="rgb(74.51640513552069,79.97860199714694,43.33380884450784)" stroke-width="1" />
<path d="M 491.50 466.50 C 483.09 472.39, 470.91 469.19, 463.50 477.50 C 465.86 497.84, 495.91 487.07, 503.50 475.50 C 509.55 466.19, 498.43 465.57, 492.50 466.50 Z" fill="rgb(82.5294964028777,72.77410071942447,66.20287769784173)" stroke="rgb(82.5294964028777,72.77410071942447,66.20287769784173)" stroke-width="1" />
<path d="M 556.50 0.50 C 557.44 10.49, 562.85 18.63, 566.50 27.50 C 569.11 39.65, 586.74 36.45, 588.50 27.50 C 577.82 17.01, 575.89 -4.20, 557.50 0.50 Z" fill="rgb(113.39710144927537,100.21884057971015,90.81884057971014)" stroke="rgb(113.39710144927537,100.21884057971015,90.81884057971014)" stroke-width="1" />
<path d="M 475.50 755.50 C 465.92 761.49, 465.45 777.58, 469.50 787.50 C 489.01 800.54, 500.21 754.77, 476.50 755.50 Z" fill="rgb(61.13529411764706,80.97647058823529,36.70882352941177)" stroke="rgb(61.13529411764706,80.97647058823529,36.70882352941177)" stroke-width="1" />
<path d="M 736.50 287.50 C 736.67 302.54, 733.23 330.03, 746.50 339.50 C 748.70 322.54, 761.48 295.52, 737.50 288.50 Z" fill="rgb(55.06018518518518,59.77777777777778,39.22222222222222)" stroke="rgb(55.06018518518518,59.77777777777778,39.22222222222222)" stroke-width="1" />
<path d="M 796.50 552.50 C 786.06 555.31, 777.54 562.74, 767.50 566.50 C 771.42 571.74, 779.16 575.34, 785.50 578.50 C 804.72 598.14, 800.51 562.77, 797.50 552.50 Z" fill="rgb(193.18778625954198,198.02900763358778,205.79541984732825)" stroke="rgb(193.18778625954198,198.02900763358778,205.79541984732825)" stroke-width="1" />
<path d="M 709.50 92.50 C 690.99 93.45, 697.59 116.93, 682.50 119.50 C 678.84 126.07, 695.97 131.52, 699.50 122.50 C 707.49 114.73, 725.49 97.64, 710.50 92.50 Z" fill="rgb(80.14618973561431,86.69673405909798,29.191290824261277)" stroke="rgb(80.14618973561431,86.69673405909798,29.191290824261277)" stroke-width="1" />
<path d="M 497.50 141.50 C 492.89 142.74, 481.74 145.51, 485.50 152.50 C 497.61 156.87, 524.85 172.57, 523.50 150.50 C 516.11 142.94, 507.16 142.58, 498.50 141.50 Z" fill="rgb(87.56840390879479,99.39250814332247,26.539087947882734)" stroke="rgb(87.56840390879479,99.39250814332247,26.539087947882734)" stroke-width="1" />
<path d="M 557.50 66.50 C 535.69 64.44, 547.50 80.99, 549.50 94.50 C 557.28 97.86, 564.73 91.73, 569.50 88.50 C 568.22 80.06, 567.51 67.44, 558.50 66.50 Z" fill="rgb(109.096,117.1632,94.3136)" stroke="rgb(109.096,117.1632,94.3136)" stroke-width="1" />
<path d="M 387.50 620.50 C 376.15 628.43, 377.40 646.94, 388.50 655.50 C 411.23 673.49, 395.51 627.15, 388.50 620.50 Z" fill="rgb(67.65306122448979,76.20408163265306,52.59183673469388)" stroke="rgb(67.65306122448979,76.20408163265306,52.59183673469388)" stroke-width="1" />
<path d="M 98.50 476.50 C 81.59 479.71, 62.34 482.42, 45.50 482.50 C 33.65 476.62, 13.29 500.16, 31.50 494.50 C 39.49 494.56, 44.00 488.63, 50.50 487.50 C 68.42 486.91, 84.14 483.44, 100.50 481.50 C 107.90 482.49, 105.14 473.86, 99.50 476.50 Z" fill="rgb(141.4190800681431,150.2862010221465,140.16524701873936)" stroke="rgb(141.4190800681431,150.2862010221465,140.16524701873936)" stroke-width="1" />
<path d="M 17.50 461.50 C -0.95 470.38, 20.30 492.38, 33.50 481.50 C 54.58 482.12, 31.62 455.39, 18.50 461.50 Z" fill="rgb(77.37541528239203,89.1312292358804,35.58139534883721)" stroke="rgb(77.37541528239203,89.1312292358804,35.58139534883721)" stroke-width="1" />
<path d="M 550.50 471.50 C 545.86 473.54, 525.40 471.96, 535.50 477.50 C 548.54 480.92, 558.84 488.56, 571.50 490.50 C 591.89 480.44, 564.50 468.40, 551.50 471.50 Z" fill="rgb(77.72822299651568,88.34146341463415,33.76306620209059)" stroke="rgb(77.72822299651568,88.34146341463415,33.76306620209059)" stroke-width="1" />
<path d="M 363.50 115.50 C 330.78 113.47, 356.80 129.08, 354.50 150.50 C 360.38 147.75, 362.76 141.51, 364.50 136.50 C 368.83 128.10, 381.48 112.17, 364.50 115.50 Z" fill="rgb(107.87589928057554,124.0179856115108,91.61510791366906)" stroke="rgb(107.87589928057554,124.0179856115108,91.61510791366906)" stroke-width="1" />
<path d="M 388.50 622.50 C 371.43 631.57, 382.21 654.16, 395.50 660.50 C 406.45 663.14, 398.96 650.31, 398.50 645.50 C 394.07 638.11, 395.93 626.13, 389.50 622.50 Z" fill="rgb(90.57624113475177,96.79078014184397,54.430851063829785)" stroke="rgb(90.57624113475177,96.79078014184397,54.430851063829785)" stroke-width="1" />
<path d="M 722.50 109.50 C 708.05 113.53, 693.38 130.64, 717.50 127.50 C 734.84 145.51, 742.23 107.82, 723.50 109.50 Z" fill="rgb(52.973995271867615,59.628841607565015,33.565011820330966)" stroke="rgb(52.973995271867615,59.628841607565015,33.565011820330966)" stroke-width="1" />
<path d="M 227.50 792.50 C 220.83 806.36, 225.59 822.48, 226.50 837.50 C 227.00 844.57, 228.88 850.07, 228.50 856.50 C 227.02 868.39, 244.07 865.93, 236.50 856.50 C 233.44 834.86, 230.17 814.30, 227.50 793.50 Z" fill="rgb(118.47408829174664,134.07485604606526,82.66218809980806)" stroke="rgb(118.47408829174664,134.07485604606526,82.66218809980806)" stroke-width="1" />
<path d="M 165.50 399.50 C 116.13 422.37, 196.60 425.94, 165.50 399.50 Z" fill="rgb(107.11666666666666,117.26666666666667,75.33333333333333)" stroke="rgb(107.11666666666666,117.26666666666667,75.33333333333333)" stroke-width="1" />
<path d="M 798.50 276.50 C 789.58 280.50, 765.70 289.64, 784.50 299.50 C 803.41 318.24, 799.51 291.55, 799.50 277.50 Z" fill="rgb(48.12896405919662,52.600422832980975,34.20507399577167)" stroke="rgb(48.12896405919662,52.600422832980975,34.20507399577167)" stroke-width="1" />
<path d="M 56.50 452.50 C 53.88 461.35, 54.33 484.99, 69.50 478.50 C 83.39 470.79, 70.03 450.87, 57.50 452.50 Z" fill="rgb(46.680851063829785,57.259574468085106,34.40638297872341)" stroke="rgb(46.680851063829785,57.259574468085106,34.40638297872341)" stroke-width="1" />
<path d="M 485.50 499.50 C 491.24 509.35, 514.01 510.84, 525.50 519.50 C 534.67 523.00, 569.90 541.08, 558.50 530.50 C 540.73 520.96, 524.01 512.28, 506.50 505.50 C 498.65 504.07, 493.99 498.39, 486.50 499.50 Z" fill="rgb(182.46860986547085,191.60762331838566,192.7982062780269)" stroke="rgb(182.46860986547085,191.60762331838566,192.7982062780269)" stroke-width="1" />
<path d="M 614.50 716.50 C 627.09 733.26, 651.45 740.93, 663.50 759.50 C 688.02 757.79, 630.97 728.39, 615.50 716.50 Z" fill="rgb(141.984,149.188,152.92)" stroke="rgb(141.984,149.188,152.92)" stroke-width="1" />
<path d="M 390.50 128.50 C 379.31 135.20, 380.09 151.19, 375.50 162.50 C 372.49 172.08, 387.86 167.93, 386.50 161.50 C 389.29 149.98, 397.96 139.97, 391.50 129.50 Z" fill="rgb(62.47345132743363,71.92699115044248,28.86725663716814)" stroke="rgb(62.47345132743363,71.92699115044248,28.86725663716814)" stroke-width="1" />
<path d="M 211.50 771.50 C 213.34 781.97, 209.67 833.05, 222.50 800.50 C 208.83 780.87, 243.72 786.80, 212.50 771.50 Z" fill="rgb(102.30434782608695,110.17391304347827,65.28260869565217)" stroke="rgb(102.30434782608695,110.17391304347827,65.28260869565217)" stroke-width="1" />
<path d="M 736.50 288.50 C 737.34 297.44, 731.27 326.73, 748.50 318.50 C 754.85 306.34, 750.85 291.00, 737.50 288.50 Z" fill="rgb(75.37176470588236,71.89411764705882,51.68705882352941)" stroke="rgb(75.37176470588236,71.89411764705882,51.68705882352941)" stroke-width="1" />
<path d="M 710.50 246.50 C 701.78 247.39, 685.62 266.42, 703.50 262.50 C 711.53 253.14, 724.86 258.98, 733.50 253.50 C 739.77 240.20, 717.63 252.14, 711.50 246.50 Z" fill="rgb(147.54892601431982,151.52983293556085,135.3054892601432)" stroke="rgb(147.54892601431982,151.52983293556085,135.3054892601432)" stroke-width="1" />
<path d="M 542.50 578.50 C 542.20 584.65, 552.79 587.40, 555.50 593.50 C 562.90 599.62, 578.52 613.96, 572.50 595.50 C 574.83 578.32, 552.93 583.77, 543.50 578.50 Z" fill="rgb(140.11244019138755,151.48325358851676,126.72966507177034)" stroke="rgb(140.11244019138755,151.48325358851676,126.72966507177034)" stroke-width="1" />
<path d="M 87.50 519.50 C 78.34 519.64, 51.07 524.65, 72.50 530.50 C 85.05 537.99, 109.51 526.04, 88.50 519.50 Z" fill="rgb(144.43103448275863,148.30459770114942,141.02298850574712)" stroke="rgb(144.43103448275863,148.30459770114942,141.02298850574712)" stroke-width="1" />
<path d="M 512.50 395.50 C 507.36 399.97, 501.64 403.03, 496.50 407.50 C 498.04 415.02, 507.88 420.66, 513.50 413.50 C 525.26 414.13, 517.40 397.89, 513.50 395.50 Z" fill="rgb(126.91501416430594,101.61756373937678,82.38526912181302)" stroke="rgb(126.91501416430594,101.61756373937678,82.38526912181302)" stroke-width="1" />
<path d="M 118.50 493.50 C 109.78 495.18, 89.72 499.15, 107.50 505.50 C 117.42 500.55, 129.84 504.06, 138.50 498.50 C 138.28 492.22, 126.08 493.79, 119.50 493.50 Z" fill="rgb(68.7304347826087,65.25797101449275,55.0)" stroke="rgb(68.7304347826087,65.25797101449275,55.0)" stroke-width="1" />
<path d="M 454.50 169.50 C 452.34 184.29, 476.75 188.40, 487.50 194.50 C 482.66 180.79, 466.87 175.73, 455.50 169.50 Z" fill="rgb(76.52710843373494,77.28614457831326,38.024096385542165)" stroke="rgb(76.52710843373494,77.28614457831326,38.024096385542165)" stroke-width="1" />
<path d="M 402.50 618.50 C 398.96 625.27, 406.32 631.05, 404.50 638.50 C 406.72 647.54, 412.34 670.74, 417.50 651.50 C 412.02 640.35, 411.07 626.81, 403.50 618.50 Z" fill="rgb(58.04587155963303,58.042813455657495,48.75535168195719)" stroke="rgb(58.04587155963303,58.042813455657495,48.75535168195719)" stroke-width="1" />
<path d="M 408.50 125.50 C 408.23 134.10, 413.64 167.10, 422.50 144.50 C 428.81 135.73, 418.15 124.48, 409.50 125.50 Z" fill="rgb(83.66867469879519,98.02710843373494,63.774096385542165)" stroke="rgb(83.66867469879519,98.02710843373494,63.774096385542165)" stroke-width="1" />
<path d="M 119.50 609.50 C 113.74 612.09, 106.72 611.61, 101.50 615.50 C 104.83 632.36, 144.68 614.57, 120.50 609.50 Z" fill="rgb(145.06206896551726,151.3448275862069,136.70344827586206)" stroke="rgb(145.06206896551726,151.3448275862069,136.70344827586206)" stroke-width="1" />
<path d="M 196.50 642.50 C 185.92 649.36, 192.21 686.87, 200.50 663.50 C 200.57 655.83, 208.75 643.92, 197.50 642.50 Z" fill="rgb(156.40893470790377,161.06185567010309,144.9725085910653)" stroke="rgb(156.40893470790377,161.06185567010309,144.9725085910653)" stroke-width="1" />
<path d="M 206.50 161.50 C 197.44 167.60, 200.67 203.56, 211.50 185.50 C 209.49 177.51, 215.91 162.09, 207.50 161.50 Z" fill="rgb(146.6724738675958,149.9965156794425,140.17770034843207)" stroke="rgb(146.6724738675958,149.9965156794425,140.17770034843207)" stroke-width="1" />
<path d="M 260.50 158.50 C 255.84 165.98, 266.97 193.50, 276.50 181.50 C 274.36 172.22, 269.40 162.49, 261.50 158.50 Z" fill="rgb(148.6793103448276,152.75172413793103,140.8655172413793)" stroke="rgb(148.6793103448276,152.75172413793103,140.8655172413793)" stroke-width="1" />
<path d="M 243.50 736.50 C 237.38 742.48, 236.80 750.76, 232.50 757.50 C 231.62 775.49, 261.05 740.67, 244.50 736.50 Z" fill="rgb(162.1853146853147,168.03846153846155,156.11888111888112)" stroke="rgb(162.1853146853147,168.03846153846155,156.11888111888112)" stroke-width="1" />
<path d="M 161.50 78.50 C 155.38 86.19, 164.83 114.32, 173.50 101.50 C 171.39 92.93, 170.89 80.58, 162.50 78.50 Z" fill="rgb(148.18214285714285,152.8892857142857,135.33928571428572)" stroke="rgb(148.18214285714285,152.8892857142857,135.33928571428572)" stroke-width="1" />
<path d="M 214.50 446.50 C 205.82 449.48, 195.64 467.11, 212.50 463.50 C 226.04 466.67, 225.69 449.25, 215.50 446.50 Z" fill="rgb(175.2280701754386,176.68070175438598,157.74736842105264)" stroke="rgb(175.2280701754386,176.68070175438598,157.74736842105264)" stroke-width="1" />
<path d="M 335.50 812.50 C 331.39 818.98, 325.91 824.90, 324.50 832.50 C 336.56 840.58, 351.12 817.34, 336.50 812.50 Z" fill="rgb(162.3405017921147,166.84587813620072,159.7921146953405)" stroke="rgb(162.3405017921147,166.84587813620072,159.7921146953405)" stroke-width="1" />
<path d="M 165.50 399.50 C 161.51 402.72, 153.74 400.40, 151.50 405.50 C 158.53 421.76, 193.88 401.48, 166.50 399.50 Z" fill="rgb(155.56060606060606,159.22727272727272,144.25)" stroke="rgb(155.56060606060606,159.22727272727272,144.25)" stroke-width="1" />
<path d="M 551.50 813.50 C 544.41 823.13, 560.80 827.42, 566.50 831.50 C 581.07 830.12, 561.25 811.13, 552.50 813.50 Z" fill="rgb(141.77941176470588,145.44117647058823,134.2058823529412)" stroke="rgb(141.77941176470588,145.44117647058823,134.2058823529412)" stroke-width="1" />
<path d="M 347.50 123.50 C 340.80 129.35, 341.57 161.07, 354.50 150.50 C 352.93 141.17, 353.13 130.59, 348.50 124.50 Z" fill="rgb(157.21072796934865,159.911877394636,145.9808429118774)" stroke="rgb(157.21072796934865,159.911877394636,145.9808429118774)" stroke-width="1" />
<path d="M 395.50 102.50 C 388.63 108.92, 374.75 123.02, 385.50 129.50 C 392.76 123.56, 400.79 110.06, 396.50 102.50 Z" fill="rgb(133.92337164750958,138.01149425287358,120.75862068965517)" stroke="rgb(133.92337164750958,138.01149425287358,120.75862068965517)" stroke-width="1" />
<path d="M 240.50 197.50 C 237.91 206.41, 240.25 216.81, 241.50 225.50 C 255.86 226.38, 248.30 200.06, 241.50 197.50 Z" fill="rgb(156.24902723735408,163.09727626459144,152.79377431906616)" stroke="rgb(156.24902723735408,163.09727626459144,152.79377431906616)" stroke-width="1" />
<path d="M 366.50 792.50 C 361.90 797.24, 365.96 803.50, 363.50 809.50 C 361.67 839.07, 384.80 796.68, 367.50 792.50 Z" fill="rgb(156.01612903225808,160.60887096774192,146.83467741935485)" stroke="rgb(156.01612903225808,160.60887096774192,146.83467741935485)" stroke-width="1" />
<path d="M 334.50 28.50 C 330.24 35.80, 334.86 45.58, 335.50 53.50 C 351.04 60.84, 342.91 32.59, 335.50 28.50 Z" fill="rgb(148.6771653543307,152.33858267716536,137.5)" stroke="rgb(148.6771653543307,152.33858267716536,137.5)" stroke-width="1" />
<path d="M 470.50 561.50 C 487.50 596.39, 507.67 567.75, 470.50 561.50 Z" fill="rgb(158.0,156.64705882352942,144.7058823529412)" stroke="rgb(158.0,156.64705882352942,144.7058823529412)" stroke-width="1" />
<path d="M 496.50 75.50 C 489.19 80.34, 485.26 88.82, 482.50 96.50 C 489.96 110.93, 501.04 82.23, 497.50 75.50 Z" fill="rgb(143.68273092369478,149.37751004016064,135.75100401606426)" stroke="rgb(143.68273092369478,149.37751004016064,135.75100401606426)" stroke-width="1" />
<path d="M 449.50 89.50 C 444.30 97.22, 434.76 105.46, 438.50 115.50 C 447.96 114.90, 455.82 94.63, 450.50 89.50 Z" fill="rgb(146.92712550607288,151.8097165991903,137.73684210526315)" stroke="rgb(146.92712550607288,151.8097165991903,137.73684210526315)" stroke-width="1" />
<path d="M 295.50 760.50 C 289.38 763.99, 290.79 772.66, 290.50 779.50 C 294.71 797.99, 309.37 760.77, 296.50 760.50 Z" fill="rgb(155.58367346938775,158.934693877551,143.15510204081633)" stroke="rgb(155.58367346938775,158.934693877551,143.15510204081633)" stroke-width="1" />
<path d="M 541.50 135.50 C 534.95 140.44, 520.36 150.11, 527.50 158.50 C 534.91 154.84, 549.84 140.74, 542.50 135.50 Z" fill="rgb(148.31950207468878,153.04979253112035,141.60995850622407)" stroke="rgb(148.31950207468878,153.04979253112035,141.60995850622407)" stroke-width="1" />
<path d="M 472.50 561.50 C 469.77 569.33, 486.24 577.93, 493.50 582.50 C 494.35 569.59, 483.88 563.30, 473.50 561.50 Z" fill="rgb(102.84166666666667,90.27916666666667,58.270833333333336)" stroke="rgb(102.84166666666667,90.27916666666667,58.270833333333336)" stroke-width="1" />
<path d="M 658.50 744.50 C 650.55 750.20, 663.72 758.34, 666.50 764.50 C 679.04 764.46, 669.04 743.35, 659.50 744.50 Z" fill="rgb(141.73504273504273,142.85897435897436,133.2051282051282)" stroke="rgb(141.73504273504273,142.85897435897436,133.2051282051282)" stroke-width="1" />
<path d="M 114.50 466.50 C 100.15 465.00, 104.41 500.88, 113.50 482.50 C 117.61 478.21, 123.48 468.52, 115.50 467.50 Z" fill="rgb(147.48260869565217,150.98260869565217,141.7826086956522)" stroke="rgb(147.48260869565217,150.98260869565217,141.7826086956522)" stroke-width="1" />
<path d="M 423.50 160.50 C 416.26 170.88, 434.68 171.52, 441.50 173.50 C 454.11 162.75, 431.18 164.15, 424.50 160.50 Z" fill="rgb(59.699551569506724,62.62780269058296,36.95964125560538)" stroke="rgb(59.699551569506724,62.62780269058296,36.95964125560538)" stroke-width="1" />
<path d="M 213.50 785.50 C 211.31 793.73, 213.06 803.59, 212.50 812.50 C 225.33 811.48, 223.54 790.27, 214.50 785.50 Z" fill="rgb(149.73478260869564,154.72173913043477,139.48695652173913)" stroke="rgb(149.73478260869564,154.72173913043477,139.48695652173913)" stroke-width="1" />
<path d="M 675.50 688.50 C 670.82 693.34, 676.82 700.04, 679.50 704.50 C 695.08 722.67, 688.18 688.36, 676.50 688.50 Z" fill="rgb(150.42792792792793,151.59459459459458,140.26126126126127)" stroke="rgb(150.42792792792793,151.59459459459458,140.26126126126127)" stroke-width="1" />
<path d="M 589.50 137.50 C 587.06 144.71, 587.29 153.02, 585.50 160.50 C 594.04 173.97, 599.10 141.43, 590.50 137.50 Z" fill="rgb(157.48543689320388,161.38834951456312,144.64077669902912)" stroke="rgb(157.48543689320388,161.38834951456312,144.64077669902912)" stroke-width="1" />
<path d="M 113.50 267.50 C 103.71 269.43, 100.27 291.69, 112.50 289.50 C 110.24 281.10, 122.62 271.91, 114.50 268.50 Z" fill="rgb(136.24884792626727,141.64055299539172,125.10138248847926)" stroke="rgb(136.24884792626727,141.64055299539172,125.10138248847926)" stroke-width="1" />
<path d="M 400.50 148.50 C 389.21 159.46, 423.79 172.04, 414.50 154.50 C 409.75 151.90, 405.50 150.51, 401.50 148.50 Z" fill="rgb(90.46428571428571,85.56632653061224,55.03061224489796)" stroke="rgb(90.46428571428571,85.56632653061224,55.03061224489796)" stroke-width="1" />
<path d="M 648.50 709.50 C 639.71 714.26, 651.28 725.06, 657.50 727.50 C 663.97 721.34, 656.59 710.37, 649.50 709.50 Z" fill="rgb(143.3861386138614,146.1039603960396,133.9009900990099)" stroke="rgb(143.3861386138614,146.1039603960396,133.9009900990099)" stroke-width="1" />
<path d="M 236.50 732.50 C 236.46 738.19, 232.64 739.25, 229.50 735.50 C 225.21 742.23, 227.79 768.16, 228.50 757.50 C 232.91 750.59, 239.16 742.48, 237.50 733.50 Z" fill="rgb(113.01075268817205,127.09139784946237,100.24731182795699)" stroke="rgb(113.01075268817205,127.09139784946237,100.24731182795699)" stroke-width="1" />
<path d="M 190.50 293.50 C 186.71 300.54, 180.38 312.25, 192.50 314.50 C 197.00 310.23, 195.89 296.22, 191.50 293.50 Z" fill="rgb(148.13888888888889,153.33333333333334,143.22222222222223)" stroke="rgb(148.13888888888889,153.33333333333334,143.22222222222223)" stroke-width="1" />
<path d="M 511.50 608.50 C 536.55 642.91, 548.00 630.79, 511.50 608.50 Z" fill="rgb(120.38709677419355,109.2258064516129,89.80645161290323)" stroke="rgb(120.38709677419355,109.2258064516129,89.80645161290323)" stroke-width="1" />
<path d="M 152.50 412.50 C 135.10 416.35, 167.85 432.21, 164.50 415.50 C 162.07 410.86, 157.18 413.13, 153.50 412.50 Z" fill="rgb(157.61309523809524,162.17857142857142,149.26785714285714)" stroke="rgb(157.61309523809524,162.17857142857142,149.26785714285714)" stroke-width="1" />
<path d="M 256.50 689.50 C 251.95 693.30, 252.18 699.09, 251.50 704.50 C 260.15 710.86, 267.86 690.75, 257.50 689.50 Z" fill="rgb(161.6,167.66875,158.30625)" stroke="rgb(161.6,167.66875,158.30625)" stroke-width="1" />
<path d="M 211.50 771.50 C 208.91 780.00, 220.18 786.98, 228.50 786.50 C 226.87 778.99, 218.45 774.71, 212.50 771.50 Z" fill="rgb(128.27388535031847,132.6815286624204,116.1592356687898)" stroke="rgb(128.27388535031847,132.6815286624204,116.1592356687898)" stroke-width="1" />
<path d="M 667.50 137.50 C 650.08 164.38, 695.35 137.40, 667.50 137.50 Z" fill="rgb(93.35338345864662,99.4812030075188,28.413533834586467)" stroke="rgb(93.35338345864662,99.4812030075188,28.413533834586467)" stroke-width="1" />
<path d="M 711.50 114.50 C 685.93 130.98, 730.78 127.26, 711.50 114.50 Z" fill="rgb(92.50862068965517,85.33620689655173,68.44827586206897)" stroke="rgb(92.50862068965517,85.33620689655173,68.44827586206897)" stroke-width="1" />
<path d="M 512.50 610.50 C 521.42 619.38, 528.21 627.67, 538.50 635.50 C 538.52 625.83, 521.66 616.94, 513.50 610.50 Z" fill="rgb(123.38620689655173,111.93103448275862,76.48275862068965)" stroke="rgb(123.38620689655173,111.93103448275862,76.48275862068965)" stroke-width="1" />
<path d="M 368.50 207.50 C 367.19 213.57, 366.76 220.00, 366.50 226.50 C 376.66 227.70, 375.75 210.96, 369.50 207.50 Z" fill="rgb(116.97872340425532,127.94326241134752,76.04255319148936)" stroke="rgb(116.97872340425532,127.94326241134752,76.04255319148936)" stroke-width="1" />
<path d="M 777.50 68.50 C 779.35 74.99, 789.63 85.64, 791.50 84.50 C 799.97 74.89, 781.94 73.80, 778.50 68.50 Z" fill="rgb(111.8015873015873,96.97619047619048,101.57936507936508)" stroke="rgb(111.8015873015873,96.97619047619048,101.57936507936508)" stroke-width="1" />
</svg>