<svg xmlns="http://www.w3.org/2000/svg" width="800" height="865" viewbox="0 0 800 865">
<path d="M 0.50 0.50 C 0.50 17.17, 0.50 33.83, 0.50 50.50 C 0.50 68.50, 0.50 85.50, 0.50 102.50 C 0.50 137.83, 0.50 172.17, 0.50 206.50 C 0.50 276.50, 0.50 345.50, 0.50 414.50 C 0.50 484.50, 0.50 553.50, 0.50 622.50 C 0.50 640.50, 0.50 657.50, 0.50 674.50 C 0.50 692.50, 0.50 709.50, 0.50 726.50 C 0.50 744.50, 0.50 761.50, 0.50 778.50 C 0.50 796.50, 0.50 813.50, 0.50 830.50 C 201.16 907.84, 543.01 842.99, 798.50 864.50 C 799.50 847.83, 799.50 831.17, 799.50 814.50 C 799.50 796.50, 799.50 779.50, 799.50 762.50 C 799.50 744.50, 799.50 727.50, 799.50 710.50 C 799.50 692.50, 799.50 675.50, 799.50 658.50 C 799.50 640.50, 799.50 623.50, 799.50 606.50 C 799.50 588.50, 799.50 571.50, 799.50 554.50 C 799.50 519.17, 799.50 484.83, 799.50 450.50 C 799.50 415.17, 799.50 380.83, 799.50 346.50 C 799.50 311.17, 799.50 276.83, 799.50 242.50 C 799.50 207.17, 799.50 172.83, 799.50 138.50 C 799.50 120.50, 799.50 103.50, 799.50 86.50 C 799.50 68.50, 799.50 51.50, 799.50 34.50 C 598.84 -42.84, 256.99 22.01, 1.50 0.50 Z" fill="rgb(63.478123352662095,70.68371112282551,37.91091196626252)" stroke="rgb(63.478123352662095,70.68371112282551,37.91091196626252)" stroke-width="1" />
<path d="M 2.50 0.50 C 3.83 50.55, 0.81 95.34, 0.50 144.50 C 0.50 157.17, 0.50 168.83, 0.50 180.50 C 0.50 193.50, 0.50 205.50, 0.50 217.50 C 0.50 230.50, 0.50 242.50, 0.50 254.50 C 0.50 267.50, 0.50 279.50, 0.50 291.50 C 0.50 304.17, 0.50 315.83, 0.50 327.50 C 0.50 340.50, 0.50 352.50, 0.50 364.50 C -1.78 394.34, 4.99 417.17, 12.50 425.50 C 16.11 451.66, 3.43 474.99, 3.50 534.50 C 0.66 624.99, 3.56 729.67, 2.50 826.50 C 20.40 907.27, 180.78 844.56, 258.50 864.50 C 301.67 855.54, 373.64 884.24, 393.50 846.50 C 388.49 822.77, 400.40 791.02, 382.50 775.50 C 369.36 756.13, 395.18 774.89, 395.50 786.50 C 397.79 799.91, 403.34 810.58, 402.50 823.50 C 398.52 850.06, 386.14 873.60, 425.50 864.50 C 464.32 870.15, 453.19 854.41, 478.50 833.50 C 504.30 819.92, 526.21 795.83, 540.50 821.50 C 567.02 834.27, 531.59 865.35, 565.50 864.50 C 685.89 866.72, 668.26 805.30, 715.50 841.50 C 711.40 841.94, 807.13 916.81, 797.50 787.50 C 797.08 687.27, 798.28 591.23, 797.50 494.50 C 790.35 449.24, 813.86 381.61, 781.50 356.50 C 735.96 345.86, 791.40 372.60, 749.50 375.50 C 726.00 382.77, 700.65 395.69, 679.50 405.50 C 662.77 418.56, 626.79 421.89, 654.50 398.50 C 660.96 387.47, 673.53 381.82, 676.50 371.50 C 690.24 363.98, 690.21 348.58, 701.50 339.50 C 717.62 338.57, 713.08 301.10, 736.50 286.50 C 760.46 296.92, 772.37 311.68, 790.50 322.50 C 802.17 318.42, 793.34 300.06, 798.50 291.50 C 799.94 272.49, 787.27 271.44, 786.50 278.50 C 778.46 294.19, 771.33 289.23, 758.50 281.50 C 746.95 273.79, 733.61 266.60, 747.50 252.50 C 756.34 229.59, 762.05 202.79, 772.50 182.50 C 780.15 164.43, 799.49 146.77, 798.50 118.50 C 797.98 105.91, 799.63 93.42, 797.50 82.50 C 787.52 72.95, 772.67 66.05, 766.50 53.50 C 750.11 37.14, 783.14 -3.39, 746.50 0.50 C 696.83 0.50, 648.17 0.50, 599.50 0.50 C 629.82 37.03, 647.03 112.61, 569.50 13.50 C 427.31 -16.37, 185.14 8.82, 3.50 0.50 Z" fill="rgb(85.53663774540485,91.3653610946822,76.99452773742327)" stroke="rgb(85.53663774540485,91.3653610946822,76.99452773742327)" stroke-width="1" />
<path d="M 3.50 571.50 C -1.05 628.08, 2.86 689.89, 1.50 747.50 C 7.46 801.89, -26.29 889.47, 62.50 864.50 C 92.50 864.50, 121.50 864.50, 150.50 864.50 C 165.83 864.50, 180.17 864.50, 194.50 864.50 C 210.17 864.50, 224.83 864.50, 239.50 864.50 C 254.83 864.50, 269.17 864.50, 283.50 864.50 C 299.17 864.50, 313.83 864.50, 328.50 864.50 C 357.10 863.33, 402.84 875.15, 395.50 833.50 C 400.72 818.10, 394.43 803.08, 391.50 789.50 C 391.40 771.99, 359.84 765.63, 376.50 748.50 C 382.42 732.36, 370.27 719.05, 368.50 704.50 C 364.67 688.69, 357.74 675.14, 358.50 659.50 C 350.32 636.04, 351.32 672.19, 349.50 681.50 C 348.74 697.28, 351.51 710.35, 351.50 726.50 C 354.91 740.23, 358.32 757.56, 361.50 770.50 C 365.02 786.93, 380.01 794.78, 373.50 812.50 C 374.45 822.16, 359.61 827.59, 361.50 815.50 C 361.65 807.08, 363.42 800.26, 360.50 793.50 C 354.37 778.64, 350.88 763.68, 345.50 749.50 C 342.13 731.29, 337.71 765.76, 338.50 775.50 C 338.26 784.26, 337.08 789.30, 337.50 797.50 C 336.12 805.63, 342.77 812.75, 341.50 819.50 C 343.39 827.98, 332.62 835.00, 328.50 832.50 C 319.91 832.05, 333.38 820.83, 331.50 814.50 C 329.16 798.47, 328.39 783.49, 329.50 769.50 C 329.36 753.55, 333.04 740.19, 333.50 725.50 C 336.64 709.61, 337.39 696.25, 338.50 680.50 C 337.87 663.90, 339.57 651.79, 339.50 636.50 C 342.36 628.28, 339.69 620.13, 335.50 614.50 C 326.28 609.69, 320.08 617.97, 320.50 625.50 C 315.76 640.11, 316.06 655.81, 311.50 669.50 C 308.02 684.97, 305.73 699.93, 302.50 714.50 C 301.26 729.16, 295.53 745.96, 300.50 757.50 C 305.24 763.82, 302.25 771.64, 301.50 778.50 C 305.00 785.66, 305.89 791.55, 306.50 800.50 C 304.42 806.85, 301.62 821.17, 293.50 814.50 C 290.83 806.87, 293.65 799.41, 293.50 792.50 C 289.37 785.75, 286.96 778.72, 289.50 771.50 C 290.16 762.75, 288.59 755.93, 288.50 748.50 C 287.42 732.44, 290.73 719.21, 290.50 704.50 C 293.38 688.84, 296.18 674.56, 299.50 660.50 C 302.60 645.04, 309.13 630.31, 309.50 616.50 C 305.37 611.38, 298.70 626.01, 290.50 623.50 C 280.61 618.73, 277.16 631.38, 274.50 637.50 C 265.71 652.09, 259.11 666.18, 255.50 681.50 C 250.65 691.73, 264.24 693.23, 252.50 698.50 C 249.50 700.79, 249.96 712.66, 248.50 718.50 C 245.86 725.60, 246.21 733.38, 248.50 738.50 C 252.56 747.34, 243.94 753.54, 242.50 760.50 C 234.72 765.37, 228.29 766.62, 228.50 772.50 C 228.59 782.19, 229.65 788.93, 219.50 788.50 C 225.20 794.17, 222.34 803.00, 220.50 809.50 C 212.87 820.78, 209.75 807.58, 211.50 800.50 C 212.94 783.83, 208.22 772.20, 210.50 756.50 C 213.47 741.03, 217.97 723.51, 216.50 716.50 C 221.22 709.74, 225.49 703.70, 222.50 695.50 C 218.08 687.62, 217.62 679.51, 214.50 672.50 C 217.34 657.65, 215.77 641.98, 219.50 628.50 C 223.39 612.66, 227.94 596.89, 235.50 584.50 C 240.22 577.28, 237.62 568.10, 235.50 580.50 C 224.46 578.99, 226.57 592.88, 218.50 595.50 C 211.67 609.45, 201.06 624.42, 204.50 639.50 C 205.76 646.67, 206.98 655.97, 203.50 661.50 C 203.88 670.51, 189.95 679.38, 190.50 666.50 C 189.11 658.06, 189.73 651.04, 191.50 644.50 C 191.01 637.13, 196.71 625.49, 185.50 628.50 C 177.33 628.25, 167.99 636.56, 167.50 625.50 C 164.49 617.81, 170.96 609.20, 164.50 603.50 C 159.27 594.10, 152.76 598.80, 144.50 599.50 C 136.32 599.84, 126.27 602.47, 130.50 611.50 C 131.73 631.23, 87.65 625.41, 104.50 611.50 C 131.33 603.76, 107.35 592.19, 93.50 587.50 C 62.87 582.88, 33.69 577.18, 4.50 571.50 Z" fill="rgb(87.09202658731262,104.051283477487,60.72544984286787)" stroke="rgb(87.09202658731262,104.051283477487,60.72544984286787)" stroke-width="1" />
<path d="M 2.50 0.50 C 0.18 16.34, 2.16 33.97, 1.50 50.50 C 1.50 68.17, 1.50 84.83, 1.50 101.50 C 1.57 110.76, -0.59 121.58, 9.50 122.50 C 19.08 125.24, 27.27 127.91, 35.50 130.50 C 51.97 134.08, 69.78 137.24, 86.50 134.50 C 105.35 135.36, 120.87 130.58, 137.50 128.50 C 145.80 125.49, 154.83 126.62, 162.50 124.50 C 167.94 115.99, 159.87 108.58, 160.50 99.50 C 157.83 91.37, 152.98 79.92, 162.50 76.50 C 172.00 80.08, 173.82 91.16, 175.50 99.50 C 177.40 107.83, 175.94 117.03, 179.50 123.50 C 188.92 125.29, 197.08 126.71, 205.50 127.50 C 223.20 129.74, 239.31 133.44, 256.50 134.50 C 275.22 133.70, 291.48 129.39, 307.50 124.50 C 315.49 119.86, 327.93 119.33, 329.50 109.50 C 331.15 100.96, 330.81 90.48, 330.50 83.50 C 333.31 65.67, 332.88 49.13, 330.50 32.50 C 336.58 18.41, 344.53 36.57, 345.50 42.50 C 348.65 53.28, 341.21 59.08, 342.50 68.50 C 341.37 78.31, 341.35 85.06, 339.50 93.50 C 338.02 103.74, 341.69 112.92, 351.50 112.50 C 360.98 113.38, 367.06 112.20, 376.50 112.50 C 384.54 109.93, 387.48 100.44, 398.50 99.50 C 404.59 107.88, 411.67 115.64, 420.50 118.50 C 432.32 122.63, 434.88 109.12, 436.50 101.50 C 441.07 93.82, 451.05 87.44, 455.50 79.50 C 462.49 71.67, 466.80 62.92, 463.50 53.50 C 467.50 41.08, 477.65 58.52, 478.50 64.50 C 477.86 74.68, 463.85 78.22, 461.50 88.50 C 454.02 95.75, 455.65 105.41, 450.50 111.50 C 444.46 118.32, 440.91 131.34, 453.50 131.50 C 465.34 132.07, 464.05 117.88, 471.50 112.50 C 476.45 103.33, 480.44 96.53, 483.50 87.50 C 498.59 59.04, 507.30 100.37, 505.50 64.50 C 504.91 48.41, 505.96 29.14, 502.50 13.50 C 492.05 -13.35, 439.50 6.95, 411.50 0.50 C 393.83 0.50, 377.17 0.50, 360.50 0.50 C 342.83 0.50, 326.17 0.50, 309.50 0.50 C 274.83 0.50, 241.17 0.50, 207.50 0.50 C 138.83 0.50, 71.17 0.50, 3.50 0.50 Z" fill="rgb(83.9125737651596,98.88181311277357,46.61154221458111)" stroke="rgb(83.9125737651596,98.88181311277357,46.61154221458111)" stroke-width="1" />
<path d="M 789.50 367.50 C 740.52 372.66, 597.29 439.01, 634.50 447.50 C 669.87 443.19, 702.19 433.94, 736.50 429.50 C 797.48 408.11, 730.02 454.25, 703.50 448.50 C 668.28 452.83, 635.11 459.70, 601.50 465.50 C 591.50 465.93, 584.62 475.58, 585.50 484.50 C 585.67 494.95, 599.59 488.70, 606.50 490.50 C 622.97 496.43, 642.32 495.23, 658.50 496.50 C 723.64 501.65, 658.26 511.76, 627.50 504.50 C 612.80 504.10, 586.65 495.98, 580.50 505.50 C 585.39 524.02, 593.25 544.51, 610.50 552.50 C 627.62 561.14, 644.87 567.08, 661.50 574.50 C 669.83 579.12, 679.51 578.06, 686.50 583.50 C 688.58 596.49, 672.84 590.16, 666.50 586.50 C 651.61 582.37, 627.72 566.54, 619.50 571.50 C 628.15 589.37, 635.42 606.81, 644.50 623.50 C 660.73 661.09, 690.02 693.24, 714.50 725.50 C 729.71 743.37, 746.13 757.03, 763.50 769.50 C 777.61 778.70, 804.62 799.71, 798.50 768.50 C 794.60 633.02, 805.30 476.97, 790.50 367.50 Z" fill="rgb(126.3668407310705,136.8335509138381,89.35052219321149)" stroke="rgb(126.3668407310705,136.8335509138381,89.35052219321149)" stroke-width="1" />
<path d="M 323.50 317.50 C 312.90 322.26, 299.82 321.06, 289.50 326.50 C 280.05 337.29, 267.34 340.94, 265.50 355.50 C 273.29 365.57, 267.95 380.08, 272.50 390.50 C 276.58 403.00, 281.60 414.10, 283.50 426.50 C 271.55 430.75, 259.67 431.76, 248.50 434.50 C 235.01 438.37, 227.06 450.26, 213.50 447.50 C 203.04 458.45, 197.22 468.25, 196.50 481.50 C 196.81 495.01, 200.66 506.04, 203.50 517.50 C 206.64 531.84, 219.70 539.42, 231.50 543.50 C 242.90 549.23, 256.44 546.36, 267.50 549.50 C 279.65 546.39, 291.91 545.96, 302.50 541.50 C 314.39 531.62, 328.52 542.94, 330.50 554.50 C 334.52 566.82, 337.12 574.83, 344.50 586.50 C 354.25 597.07, 354.15 611.81, 367.50 616.50 C 380.94 618.69, 391.34 614.97, 403.50 615.50 C 416.23 612.64, 429.24 613.89, 439.50 608.50 C 451.48 601.13, 442.57 584.68, 451.50 575.50 C 453.47 561.18, 451.23 549.92, 442.50 540.50 C 432.54 530.61, 426.59 512.89, 446.50 516.50 C 460.84 516.01, 473.25 510.92, 481.50 501.50 C 475.81 486.56, 488.58 478.21, 499.50 481.50 C 506.80 490.79, 523.90 494.34, 518.50 475.50 C 500.34 479.38, 471.23 464.00, 511.50 467.50 C 520.86 461.44, 510.98 445.59, 511.50 435.50 C 508.16 422.05, 498.56 409.95, 484.50 409.50 C 471.91 408.45, 462.29 402.65, 449.50 404.50 C 436.54 404.78, 425.01 406.11, 413.50 407.50 C 401.74 414.09, 385.94 413.33, 392.50 396.50 C 391.02 382.93, 386.27 371.71, 381.50 360.50 C 372.18 349.35, 369.41 335.68, 359.50 326.50 C 349.60 318.56, 337.82 316.19, 324.50 317.50 Z" fill="rgb(206.6449452820081,192.29656768959975,191.81755567460013)" stroke="rgb(206.6449452820081,192.29656768959975,191.81755567460013)" stroke-width="1" />
<path d="M 3.50 570.50 C -0.95 587.60, 2.68 608.05, 1.50 626.50 C 1.50 646.50, 1.50 665.50, 1.50 684.50 C 1.50 704.17, 1.50 722.83, 1.50 741.50 C 1.50 761.50, 1.50 780.50, 1.50 799.50 C 1.50 819.17, 1.50 837.83, 1.50 856.50 C -1.51 869.84, 15.10 862.56, 22.50 864.50 C 32.83 864.50, 42.17 864.50, 51.50 864.50 C 71.50 864.50, 90.50 864.50, 109.50 864.50 C 119.83 864.50, 129.17 864.50, 138.50 864.50 C 152.20 867.89, 153.12 853.88, 155.50 845.50 C 162.65 826.31, 166.84 807.31, 171.50 788.50 C 174.85 768.92, 178.18 750.33, 178.50 730.50 C 178.83 720.82, 178.33 712.08, 178.50 702.50 C 179.63 692.97, 177.94 682.31, 176.50 673.50 C 176.76 662.51, 174.04 653.75, 172.50 644.50 C 169.56 634.42, 166.06 625.57, 165.50 615.50 C 168.26 602.49, 155.70 599.79, 146.50 600.50 C 131.73 596.78, 135.36 610.25, 130.50 617.50 C 125.20 626.51, 111.52 625.87, 103.50 622.50 C 91.52 610.74, 113.81 610.45, 116.50 602.50 C 113.23 592.30, 99.17 592.90, 91.50 587.50 C 81.16 585.86, 71.92 583.95, 62.50 582.50 C 52.32 580.47, 42.49 580.00, 33.50 577.50 C 22.80 576.39, 14.41 572.12, 4.50 571.50 Z" fill="rgb(64.79572247632545,79.29955549829286,25.7156262749898)" stroke="rgb(64.79572247632545,79.29955549829286,25.7156262749898)" stroke-width="1" />
<path d="M 583.50 501.50 C 577.07 507.14, 585.73 518.30, 587.50 525.50 C 593.10 534.54, 597.15 546.33, 607.50 548.50 C 616.50 554.63, 625.11 558.30, 633.50 562.50 C 642.66 567.05, 652.25 568.17, 660.50 572.50 C 668.81 578.30, 679.81 575.19, 686.50 582.50 C 691.77 595.69, 674.21 591.45, 667.50 588.50 C 660.36 582.92, 649.41 581.22, 642.50 577.50 C 636.48 574.45, 617.46 565.70, 621.50 576.50 C 630.44 595.00, 638.42 612.48, 647.50 629.50 C 657.53 648.05, 666.90 667.41, 680.50 682.50 C 695.21 700.95, 709.76 718.06, 723.50 735.50 C 741.19 752.52, 758.62 766.75, 777.50 777.50 C 784.26 779.97, 799.02 793.37, 798.50 780.50 C 798.50 770.83, 798.50 762.17, 798.50 753.50 C 798.50 734.83, 798.50 717.17, 798.50 699.50 C 798.50 681.17, 798.50 663.83, 798.50 646.50 C 797.87 627.96, 799.79 609.36, 797.50 592.50 C 779.84 580.88, 762.33 572.30, 744.50 564.50 C 725.37 554.61, 708.26 543.27, 690.50 533.50 C 671.51 527.90, 657.74 512.70, 638.50 509.50 C 620.94 501.90, 603.46 502.58, 584.50 501.50 Z" fill="rgb(77.09149213348032,92.98069278818853,29.841433677389183)" stroke="rgb(77.09149213348032,92.98069278818853,29.841433677389183)" stroke-width="1" />
<path d="M 2.50 220.50 C 0.32 233.73, 2.06 248.59, 1.50 262.50 C 1.50 277.50, 1.50 291.50, 1.50 305.50 C 1.50 320.50, 1.50 334.50, 1.50 348.50 C 0.86 365.41, 2.75 380.29, 1.50 392.50 C 3.39 399.15, -1.47 408.64, 7.50 411.50 C 15.35 415.21, 22.41 417.39, 29.50 419.50 C 44.73 425.60, 57.48 434.29, 72.50 437.50 C 86.89 442.98, 101.03 445.63, 115.50 447.50 C 130.56 451.49, 145.06 453.43, 159.50 455.50 C 167.48 454.92, 174.02 453.28, 180.50 451.50 C 191.12 451.86, 195.95 446.91, 186.50 441.50 C 179.07 437.68, 170.42 436.61, 167.50 429.50 C 159.11 427.15, 151.48 426.95, 146.50 421.50 C 141.37 413.88, 149.23 405.93, 153.50 400.50 C 162.37 398.87, 166.70 393.16, 165.50 384.50 C 163.86 374.61, 175.37 369.71, 173.50 362.50 C 167.08 355.68, 159.05 349.96, 152.50 344.50 C 139.40 331.39, 126.99 316.65, 116.50 302.50 C 112.52 294.22, 103.20 289.14, 102.50 280.50 C 107.58 269.90, 96.59 267.26, 90.50 263.50 C 75.88 253.92, 62.06 245.81, 47.50 239.50 C 31.58 233.93, 20.77 219.42, 3.50 220.50 Z" fill="rgb(75.04864311315924,94.06663740765123,25.178041108916684)" stroke="rgb(75.04864311315924,94.06663740765123,25.178041108916684)" stroke-width="1" />
<path d="M 622.50 136.50 C 615.92 139.05, 609.88 142.90, 602.50 143.50 C 591.74 142.26, 597.81 153.92, 594.50 159.50 C 590.79 171.26, 579.91 162.02, 585.50 154.50 C 589.12 144.05, 582.74 141.50, 574.50 144.50 C 559.32 147.92, 544.42 149.60, 532.50 158.50 C 518.61 168.98, 513.53 186.50, 504.50 199.50 C 497.01 213.83, 490.29 227.47, 484.50 241.50 C 477.96 256.42, 472.02 270.17, 467.50 284.50 C 461.10 297.25, 461.17 313.75, 465.50 326.50 C 477.81 316.36, 481.46 299.55, 490.50 286.50 C 498.26 271.04, 509.34 258.38, 517.50 244.50 C 528.24 229.63, 537.51 215.49, 547.50 202.50 C 556.73 188.49, 570.81 174.77, 581.50 163.50 C 578.68 177.52, 561.30 190.07, 553.50 203.50 C 542.45 218.01, 532.53 231.57, 523.50 245.50 C 514.53 260.65, 504.01 273.74, 497.50 288.50 C 488.18 302.95, 482.73 317.60, 475.50 331.50 C 471.49 338.17, 468.53 345.90, 472.50 352.50 C 479.69 359.12, 483.60 344.78, 488.50 340.50 C 498.15 325.83, 506.56 311.64, 517.50 298.50 C 528.50 283.64, 537.92 269.12, 549.50 255.50 C 561.10 241.92, 571.18 229.87, 583.50 216.50 C 589.21 208.31, 600.21 205.50, 600.50 196.50 C 603.14 190.52, 600.02 175.94, 608.50 178.50 C 611.87 185.53, 611.99 193.03, 610.50 199.50 C 608.14 210.66, 597.24 203.40, 594.50 213.50 C 581.03 226.65, 570.71 239.19, 559.50 252.50 C 548.94 267.35, 536.92 280.18, 528.50 294.50 C 517.69 309.30, 508.01 323.16, 499.50 337.50 C 494.37 345.25, 489.94 351.88, 485.50 358.50 C 478.86 362.77, 476.66 378.21, 486.50 375.50 C 502.06 371.51, 518.81 372.83, 529.50 359.50 C 543.02 347.13, 560.15 340.54, 568.50 325.50 C 576.33 310.15, 584.34 296.30, 592.50 282.50 C 600.91 267.87, 607.75 253.99, 615.50 240.50 C 622.92 225.12, 633.45 212.03, 640.50 197.50 C 649.63 183.11, 663.32 172.02, 661.50 154.50 C 656.85 137.70, 638.68 135.73, 623.50 136.50 Z" fill="rgb(87.19288358700123,105.403414232826,36.84718222953517)" stroke="rgb(87.19288358700123,105.403414232826,36.84718222953517)" stroke-width="1" />
<path d="M 797.50 85.50 C 780.73 100.13, 771.42 120.32, 754.50 136.50 C 743.17 154.57, 716.24 166.99, 722.50 188.50 C 722.68 210.00, 707.28 224.05, 702.50 242.50 C 703.28 250.45, 718.31 241.68, 724.50 244.50 C 738.80 240.83, 740.97 257.35, 726.50 257.50 C 715.08 256.92, 708.40 264.38, 699.50 266.50 C 689.42 270.93, 679.43 275.81, 673.50 284.50 C 660.75 303.34, 649.21 321.14, 633.50 336.50 C 618.10 351.71, 604.14 367.81, 586.50 380.50 C 576.99 387.89, 568.26 393.74, 559.50 399.50 C 554.12 408.06, 561.74 420.73, 553.50 426.50 C 548.02 434.04, 543.80 449.00, 557.50 443.50 C 567.51 442.33, 576.02 439.95, 584.50 437.50 C 604.97 432.20, 621.46 423.15, 637.50 410.50 C 656.08 393.98, 673.97 376.09, 686.50 357.50 C 699.78 338.75, 712.79 321.31, 722.50 302.50 C 734.52 285.09, 738.36 265.69, 747.50 248.50 C 755.25 230.70, 757.71 211.70, 764.50 194.50 C 780.90 159.60, 802.58 127.89, 798.50 85.50 Z" fill="rgb(139.3214982735325,151.3263774208077,120.46171745984087)" stroke="rgb(139.3214982735325,151.3263774208077,120.46171745984087)" stroke-width="1" />
<path d="M 2.50 413.50 C -2.01 420.81, 1.72 433.87, 0.50 443.50 C 0.50 454.83, 0.50 465.17, 0.50 475.50 C 0.50 497.50, 0.50 518.50, 0.50 539.50 C -3.07 593.99, 73.36 567.95, 104.50 590.50 C 131.76 607.12, 135.39 566.18, 142.50 549.50 C 154.88 529.60, 152.51 497.78, 123.50 515.50 C 99.26 520.80, 95.07 548.94, 67.50 531.50 C 52.31 519.34, 76.97 519.62, 84.50 517.50 C 98.93 518.16, 103.49 501.57, 115.50 501.50 C 127.13 501.60, 137.07 498.44, 145.50 492.50 C 159.46 491.24, 169.02 480.66, 149.50 482.50 C 137.78 481.91, 128.28 484.25, 117.50 483.50 C 114.37 500.48, 101.88 478.62, 91.50 486.50 C 78.75 486.19, 75.55 493.19, 62.50 492.50 C 50.27 488.33, 40.03 495.24, 30.50 498.50 C 12.71 498.68, 27.87 479.00, 38.50 480.50 C 49.72 480.51, 60.97 480.35, 71.50 478.50 C 82.64 476.37, 93.46 475.88, 103.50 473.50 C 110.63 457.43, 124.15 473.16, 134.50 467.50 C 144.61 465.49, 160.96 468.47, 163.50 460.50 C 153.23 457.68, 142.66 456.60, 132.50 454.50 C 120.60 453.21, 111.48 448.61, 100.50 448.50 C 88.70 445.95, 78.37 443.29, 68.50 439.50 C 56.83 435.64, 46.56 430.82, 36.50 425.50 C 25.17 420.68, 13.86 418.25, 3.50 413.50 Z" fill="rgb(40.82169167803547,45.26180081855389,31.847339699863575)" stroke="rgb(40.82169167803547,45.26180081855389,31.847339699863575)" stroke-width="1" />
<path d="M 797.50 407.50 C 785.95 411.99, 774.37 416.38, 763.50 422.50 C 748.97 426.21, 742.73 435.61, 731.50 441.50 C 718.59 446.10, 707.93 452.74, 696.50 457.50 C 684.53 464.04, 672.46 467.92, 661.50 474.50 C 652.53 477.87, 627.58 493.03, 648.50 495.50 C 661.40 496.13, 672.44 498.84, 683.50 501.50 C 679.77 507.66, 651.97 503.15, 659.50 509.50 C 672.81 515.94, 682.60 527.49, 695.50 531.50 C 708.33 537.31, 719.00 544.91, 730.50 550.50 C 743.34 555.93, 753.48 564.50, 765.50 568.50 C 777.57 572.65, 790.13 586.21, 799.50 584.50 C 799.50 571.83, 799.50 560.17, 799.50 548.50 C 799.50 524.50, 799.50 501.50, 799.50 478.50 C 799.50 466.17, 799.50 454.83, 799.50 443.50 C 799.09 430.87, 800.48 418.49, 798.50 407.50 Z" fill="rgb(166.23891026939438,175.79521976909055,173.9430828438323)" stroke="rgb(166.23891026939438,175.79521976909055,173.9430828438323)" stroke-width="1" />
<path d="M 3.50 122.50 C -3.03 129.25, 3.18 140.99, 1.50 150.50 C 1.50 161.50, 1.50 171.50, 1.50 181.50 C 2.08 192.40, 0.29 203.28, 2.50 212.50 C 9.32 219.27, 21.62 217.76, 31.50 218.50 C 42.66 217.99, 51.93 219.60, 61.50 220.50 C 71.95 221.86, 82.87 223.78, 92.50 221.50 C 104.42 221.71, 113.90 218.47, 123.50 215.50 C 134.71 211.67, 145.02 208.08, 154.50 202.50 C 164.32 195.55, 177.43 192.84, 182.50 182.50 C 178.51 171.77, 176.90 161.06, 172.50 151.50 C 167.85 143.06, 173.28 124.91, 159.50 127.50 C 148.37 128.86, 138.25 130.22, 128.50 132.50 C 117.33 133.43, 108.08 136.56, 97.50 136.50 C 87.22 138.56, 76.44 137.03, 66.50 137.50 C 54.57 138.07, 45.33 134.58, 35.50 132.50 C 24.50 129.51, 14.41 126.71, 4.50 123.50 Z" fill="rgb(31.508228195282502,34.01385079539221,28.556500274273176)" stroke="rgb(31.508228195282502,34.01385079539221,28.556500274273176)" stroke-width="1" />
<path d="M 183.50 187.50 C 172.12 196.00, 159.23 200.85, 147.50 208.50 C 134.75 214.24, 122.18 218.01, 109.50 221.50 C 97.06 223.51, 84.88 223.76, 72.50 223.50 C 59.18 222.14, 47.16 220.04, 34.50 219.50 C 10.43 218.94, 24.04 225.76, 37.50 231.50 C 50.12 239.88, 63.60 243.80, 75.50 251.50 C 88.32 255.38, 97.75 270.75, 111.50 267.50 C 120.64 277.85, 132.69 284.55, 145.50 290.50 C 157.45 299.71, 169.18 307.01, 182.50 310.50 C 184.40 304.74, 192.67 296.31, 195.50 305.50 C 195.61 313.53, 200.16 318.06, 207.50 317.50 C 214.92 313.60, 203.84 306.10, 206.50 301.50 C 215.26 301.06, 215.30 311.82, 221.50 314.50 C 232.93 322.75, 241.82 339.62, 256.50 336.50 C 261.09 321.38, 245.78 311.77, 242.50 299.50 C 239.43 284.43, 226.83 276.06, 222.50 262.50 C 217.27 248.43, 211.64 235.95, 203.50 224.50 C 195.70 212.03, 192.16 197.64, 184.50 187.50 Z" fill="rgb(133.8634314903846,148.63611778846155,128.1134314903846)" stroke="rgb(133.8634314903846,148.63611778846155,128.1134314903846)" stroke-width="1" />
<path d="M 251.50 169.50 C 241.02 170.96, 230.20 171.57, 219.50 172.50 C 204.51 171.85, 210.20 201.50, 200.50 183.50 C 190.81 184.86, 206.08 208.89, 206.50 206.50 C 205.63 186.34, 208.78 194.14, 212.50 207.50 C 214.39 219.49, 215.67 230.73, 220.50 240.50 C 223.99 253.76, 231.83 263.28, 239.50 272.50 C 251.90 273.77, 255.05 289.97, 261.50 299.50 C 271.19 305.88, 274.68 324.37, 286.50 324.50 C 292.28 321.63, 298.19 321.50, 302.50 317.50 C 302.05 310.52, 298.18 305.97, 296.50 300.50 C 292.38 293.86, 282.38 264.41, 291.50 280.50 C 299.11 291.53, 304.08 303.23, 312.50 313.50 C 325.40 318.45, 333.65 309.97, 328.50 296.50 C 326.00 284.21, 321.87 274.01, 318.50 263.50 C 313.08 251.12, 306.32 240.30, 299.50 229.50 C 292.17 217.36, 286.37 206.00, 278.50 195.50 C 267.20 188.42, 265.03 173.36, 252.50 169.50 Z" fill="rgb(149.64112200935008,162.92474103950866,149.19671830598588)" stroke="rgb(149.64112200935008,162.92474103950866,149.19671830598588)" stroke-width="1" />
<path d="M 607.50 0.50 C 627.91 28.84, 686.90 80.87, 669.50 103.50 C 666.04 122.09, 679.65 115.53, 676.50 101.50 C 671.88 81.76, 688.04 91.19, 696.50 98.50 C 671.93 130.18, 703.56 131.78, 716.50 101.50 C 730.78 80.31, 744.56 60.32, 751.50 37.50 C 762.84 16.23, 770.57 -8.30, 736.50 0.50 C 693.17 0.50, 650.83 0.50, 608.50 0.50 Z" fill="rgb(42.681442080378254,47.133766745468876,25.784672970843182)" stroke="rgb(42.681442080378254,47.133766745468876,25.784672970843182)" stroke-width="1" />
<path d="M 667.50 155.50 C 660.97 171.27, 648.13 189.48, 637.50 205.50 C 626.74 224.27, 615.73 241.52, 606.50 259.50 C 598.24 278.41, 586.09 294.72, 577.50 312.50 C 568.85 326.59, 572.30 324.24, 583.50 319.50 C 592.94 312.98, 600.80 307.60, 609.50 301.50 C 627.30 289.87, 644.97 280.35, 662.50 270.50 C 682.58 264.06, 699.64 253.87, 703.50 232.50 C 711.76 216.06, 724.98 198.31, 718.50 179.50 C 708.93 161.75, 686.67 158.48, 668.50 155.50 Z" fill="rgb(48.28576835730507,56.10408781226344,26.86563209689629)" stroke="rgb(48.28576835730507,56.10408781226344,26.86563209689629)" stroke-width="1" />
<path d="M 679.50 747.50 C 670.29 751.25, 681.23 762.94, 672.50 767.50 C 661.45 768.24, 660.78 778.29, 654.50 784.50 C 648.38 792.67, 642.96 799.01, 637.50 805.50 C 631.76 812.54, 625.22 820.65, 622.50 823.50 C 608.13 863.08, 642.62 870.35, 676.50 864.50 C 711.20 866.32, 745.24 870.10, 749.50 831.50 C 753.95 821.05, 742.83 817.96, 739.50 810.50 C 733.70 802.99, 725.97 795.66, 720.50 788.50 C 705.79 774.95, 696.71 754.33, 680.50 747.50 Z" fill="rgb(30.540346292061418,31.42110421430905,30.257105521071544)" stroke="rgb(30.540346292061418,31.42110421430905,30.257105521071544)" stroke-width="1" />
<path d="M 735.50 288.50 C 723.53 304.16, 716.75 321.96, 704.50 337.50 C 691.27 354.74, 680.03 371.80, 665.50 387.50 C 656.85 396.22, 650.83 403.35, 642.50 410.50 C 634.57 416.14, 625.74 428.73, 640.50 423.50 C 658.94 416.37, 674.59 405.92, 691.50 398.50 C 708.71 390.21, 724.69 382.35, 741.50 376.50 C 759.34 372.25, 774.32 364.52, 792.50 364.50 C 800.62 361.61, 797.26 349.74, 798.50 342.50 C 800.56 331.18, 796.24 324.40, 787.50 320.50 C 778.72 315.30, 770.22 311.85, 762.50 306.50 C 751.88 303.27, 746.36 291.15, 736.50 289.50 Z" fill="rgb(41.71014699586128,43.51719708862566,35.964035964035965)" stroke="rgb(41.71014699586128,43.51719708862566,35.964035964035965)" stroke-width="1" />
<path d="M 669.50 155.50 C 662.13 155.42, 663.96 163.37, 661.50 168.50 C 658.74 175.88, 653.84 181.37, 650.50 187.50 C 639.27 198.93, 635.79 212.92, 626.50 224.50 C 611.17 241.00, 622.20 243.70, 634.50 253.50 C 646.49 261.87, 656.88 280.55, 670.50 266.50 C 684.26 262.19, 696.72 255.98, 699.50 241.50 C 704.22 227.64, 713.21 216.54, 717.50 203.50 C 721.30 190.85, 722.84 173.89, 708.50 168.50 C 696.34 160.99, 684.27 156.69, 670.50 156.50 Z" fill="rgb(41.69595687331537,46.10309973045822,27.432075471698113)" stroke="rgb(41.69595687331537,46.10309973045822,27.432075471698113)" stroke-width="1" />
<path d="M 790.50 366.50 C 772.93 369.45, 755.90 373.71, 739.50 379.50 C 721.09 387.30, 703.16 393.86, 686.50 403.50 C 668.09 412.64, 650.55 421.48, 633.50 431.50 C 623.53 436.96, 615.86 444.57, 607.50 450.50 C 611.04 455.91, 623.38 450.21, 630.50 449.50 C 648.72 446.69, 665.60 443.07, 682.50 439.50 C 700.74 436.61, 717.32 432.11, 735.50 431.50 C 745.27 429.56, 751.92 422.49, 761.50 422.50 C 771.05 417.21, 778.88 411.19, 788.50 409.50 C 800.81 408.05, 799.29 397.14, 798.50 388.50 C 797.05 380.06, 803.02 365.39, 791.50 366.50 Z" fill="rgb(79.69016910289481,94.62582401834337,38.88162797363141)" stroke="rgb(79.69016910289481,94.62582401834337,38.88162797363141)" stroke-width="1" />
<path d="M 0.50 472.50 C 0.50 487.17, 0.50 501.83, 0.50 516.50 C 0.50 532.50, 0.50 547.50, 0.50 562.50 C 9.77 573.74, 28.81 572.24, 42.50 576.50 C 58.50 579.17, 73.57 581.67, 88.50 584.50 C 97.89 583.82, 102.82 591.47, 110.50 592.50 C 118.66 598.55, 128.77 591.52, 121.50 583.50 C 107.79 568.09, 96.37 552.26, 80.50 541.50 C 73.14 534.14, 64.26 533.29, 60.50 524.50 C 52.44 518.72, 47.55 509.14, 39.50 505.50 C 34.69 497.02, 17.84 501.56, 21.50 490.50 C 17.73 482.04, 9.52 474.32, 1.50 472.50 Z" fill="rgb(29.155455469998547,30.130756937381957,28.306842946389654)" stroke="rgb(29.155455469998547,30.130756937381957,28.306842946389654)" stroke-width="1" />
<path d="M 315.50 125.50 C 299.60 130.20, 284.15 136.02, 266.50 136.50 C 257.75 139.27, 248.99 135.85, 241.50 137.50 C 241.54 144.81, 250.09 155.08, 258.50 156.50 C 268.27 157.95, 274.04 167.73, 276.50 175.50 C 275.89 186.35, 277.97 193.54, 285.50 201.50 C 295.65 219.52, 305.85 236.10, 316.50 252.50 C 321.05 261.00, 323.41 269.40, 326.50 277.50 C 329.81 291.90, 338.29 289.58, 334.50 276.50 C 334.00 258.90, 333.02 242.51, 333.50 225.50 C 334.17 207.28, 332.46 191.04, 331.50 174.50 C 329.71 165.96, 329.36 157.83, 329.50 149.50 C 329.07 137.98, 319.93 134.51, 316.50 125.50 Z" fill="rgb(35.16616496086695,38.04485249849488,32.128386514148104)" stroke="rgb(35.16616496086695,38.04485249849488,32.128386514148104)" stroke-width="1" />
<path d="M 596.50 657.50 C 602.87 665.63, 610.68 674.34, 619.50 680.50 C 628.16 688.62, 637.30 695.34, 647.50 701.50 C 664.33 701.25, 660.04 718.10, 668.50 726.50 C 680.98 736.36, 689.46 748.68, 698.50 759.50 C 718.04 781.63, 736.25 806.03, 756.50 824.50 C 768.32 835.42, 792.46 888.01, 797.50 851.50 C 794.46 829.05, 807.67 797.76, 781.50 791.50 C 757.52 780.00, 733.31 769.31, 715.50 747.50 C 703.77 737.65, 693.74 727.12, 682.50 719.50 C 673.42 710.96, 661.55 704.95, 654.50 694.50 C 643.48 688.90, 637.27 677.41, 627.50 673.50 C 620.58 664.01, 608.40 661.83, 597.50 657.50 Z" fill="rgb(60.33838383838384,67.6506734006734,28.116161616161616)" stroke="rgb(60.33838383838384,67.6506734006734,28.116161616161616)" stroke-width="1" />
<path d="M 540.50 659.50 C 539.34 670.96, 547.74 677.32, 548.50 687.50 C 549.37 699.25, 553.95 708.45, 556.50 718.50 C 559.61 728.43, 556.89 739.77, 560.50 748.50 C 564.38 759.55, 566.54 765.11, 566.50 777.50 C 568.03 789.12, 565.60 797.25, 564.50 807.50 C 564.51 818.33, 584.12 830.85, 566.50 835.50 C 547.99 860.06, 562.00 869.97, 589.50 864.50 C 615.78 869.21, 633.00 861.84, 616.50 837.50 C 612.16 814.24, 593.95 797.72, 589.50 775.50 C 589.54 763.44, 581.35 755.78, 579.50 745.50 C 575.62 734.59, 573.94 724.18, 570.50 714.50 C 565.79 703.38, 565.28 691.93, 557.50 683.50 C 558.45 672.77, 551.35 661.91, 541.50 659.50 Z" fill="rgb(31.26685855263158,33.00986842105263,29.190378289473685)" stroke="rgb(31.26685855263158,33.00986842105263,29.190378289473685)" stroke-width="1" />
<path d="M 417.50 0.50 C 420.85 17.04, 428.00 32.02, 431.50 48.50 C 433.87 57.57, 437.70 64.61, 439.50 72.50 C 441.10 82.76, 442.54 91.86, 450.50 81.50 C 456.19 76.43, 464.64 68.86, 461.50 60.50 C 458.86 47.75, 469.73 44.75, 474.50 54.50 C 479.87 63.49, 476.17 72.06, 473.50 79.50 C 465.35 79.88, 453.15 95.36, 465.50 95.50 C 483.08 98.75, 490.67 71.98, 502.50 68.50 C 507.07 51.17, 505.11 34.11, 501.50 18.50 C 506.61 -5.21, 484.19 0.98, 468.50 0.50 C 451.17 0.50, 434.83 0.50, 418.50 0.50 Z" fill="rgb(54.5720457433291,70.6010165184244,22.630749682337992)" stroke="rgb(54.5720457433291,70.6010165184244,22.630749682337992)" stroke-width="1" />
<path d="M 795.50 487.50 C 782.41 491.95, 769.30 496.35, 756.50 501.50 C 743.24 507.62, 729.47 510.10, 716.50 514.50 C 706.49 519.00, 674.92 523.37, 696.50 531.50 C 710.75 537.89, 723.47 545.58, 736.50 552.50 C 751.20 558.49, 763.53 566.77, 776.50 573.50 C 790.10 583.09, 804.33 590.54, 799.50 567.50 C 799.50 553.50, 799.50 540.50, 799.50 527.50 C 797.24 513.91, 801.07 497.76, 796.50 487.50 Z" fill="rgb(167.8105390882302,176.75715028601144,178.6117178020454)" stroke="rgb(167.8105390882302,176.75715028601144,178.6117178020454)" stroke-width="1" />
<path d="M 797.50 84.50 C 785.68 95.72, 777.15 110.11, 765.50 123.50 C 753.00 138.85, 740.18 152.64, 727.50 166.50 C 719.06 172.65, 722.12 180.56, 723.50 187.50 C 722.15 195.63, 721.13 202.90, 718.50 209.50 C 715.91 217.81, 709.52 223.54, 708.50 231.50 C 702.80 242.24, 723.15 238.72, 713.50 243.50 C 731.64 241.73, 741.52 221.84, 751.50 210.50 C 763.44 200.60, 768.38 185.54, 776.50 171.50 C 783.78 157.03, 788.04 142.31, 794.50 128.50 C 801.28 115.42, 797.50 98.97, 798.50 84.50 Z" fill="rgb(52.88796603912883,59.2000738279808,32.203765227021044)" stroke="rgb(52.88796603912883,59.2000738279808,32.203765227021044)" stroke-width="1" />
<path d="M 673.50 718.50 C 660.89 722.54, 675.33 720.37, 675.50 731.50 C 682.67 739.76, 688.87 747.01, 694.50 754.50 C 708.20 770.48, 720.76 785.53, 733.50 800.50 C 745.48 816.39, 762.50 827.86, 770.50 843.50 C 772.95 858.32, 800.52 877.69, 796.50 851.50 C 795.71 835.10, 797.64 819.34, 797.50 805.50 C 795.17 791.42, 775.19 793.87, 761.50 782.50 C 744.24 774.08, 729.68 764.12, 716.50 749.50 C 701.68 737.40, 688.77 724.73, 674.50 718.50 Z" fill="rgb(65.60668380462725,72.78149100257069,31.60796915167095)" stroke="rgb(65.60668380462725,72.78149100257069,31.60796915167095)" stroke-width="1" />
<path d="M 797.50 134.50 C 783.18 159.19, 769.51 186.64, 760.50 214.50 C 755.47 228.68, 753.94 243.32, 746.50 255.50 C 738.91 273.15, 764.84 277.96, 774.50 285.50 C 823.46 265.12, 789.83 182.85, 798.50 135.50 Z" fill="rgb(39.26470588235294,40.42156862745098,32.55882352941177)" stroke="rgb(39.26470588235294,40.42156862745098,32.55882352941177)" stroke-width="1" />
<path d="M 797.50 134.50 C 787.16 144.72, 784.98 160.72, 778.50 173.50 C 771.02 187.36, 762.94 199.56, 761.50 214.50 C 755.10 228.11, 754.70 243.22, 747.50 255.50 C 742.59 263.76, 745.71 269.86, 753.50 273.50 C 760.91 277.78, 767.05 282.73, 774.50 284.50 C 782.45 283.98, 787.72 278.43, 794.50 276.50 C 801.68 273.82, 797.08 263.06, 798.50 257.50 C 797.79 242.74, 799.55 229.99, 799.50 216.50 C 799.50 202.17, 799.50 188.83, 799.50 175.50 C 799.85 160.89, 797.73 148.29, 798.50 134.50 Z" fill="rgb(39.538197251414715,39.868431689571544,35.34882780921585)" stroke="rgb(39.538197251414715,39.868431689571544,35.34882780921585)" stroke-width="1" />
<path d="M 122.50 0.50 C 127.53 14.27, 137.05 27.40, 152.50 29.50 C 166.72 32.43, 180.13 34.91, 193.50 37.50 C 207.79 40.60, 221.43 42.87, 234.50 46.50 C 245.26 45.85, 270.45 61.28, 268.50 47.50 C 258.81 33.92, 252.51 19.94, 242.50 7.50 C 236.91 -5.02, 217.63 2.78, 205.50 0.50 C 191.17 0.50, 177.83 0.50, 164.50 0.50 C 150.17 0.50, 136.83 0.50, 123.50 0.50 Z" fill="rgb(175.9689970869746,185.7332501040366,183.36974615064503)" stroke="rgb(175.9689970869746,185.7332501040366,183.36974615064503)" stroke-width="1" />
<path d="M 699.50 749.50 C 688.03 750.14, 699.59 755.62, 702.50 760.50 C 705.46 768.21, 711.35 773.70, 716.50 779.50 C 727.98 792.80, 737.36 804.38, 748.50 816.50 C 759.95 826.66, 768.94 837.49, 775.50 850.50 C 777.96 863.92, 801.86 872.90, 797.50 853.50 C 798.63 840.77, 797.26 829.00, 798.50 816.50 C 802.66 798.09, 783.53 796.69, 773.50 789.50 C 760.16 782.66, 748.22 775.85, 736.50 768.50 C 723.64 758.94, 717.02 745.67, 700.50 749.50 Z" fill="rgb(68.9712907671107,78.34451079467156,28.014010105649977)" stroke="rgb(68.9712907671107,78.34451079467156,28.014010105649977)" stroke-width="1" />
<path d="M 504.50 784.50 C 493.16 791.12, 481.02 795.22, 471.50 804.50 C 459.95 814.19, 446.54 816.99, 435.50 825.50 C 423.93 835.26, 411.22 847.78, 400.50 850.50 C 386.47 864.47, 400.74 866.37, 414.50 864.50 C 426.83 864.50, 438.17 864.50, 449.50 864.50 C 456.23 852.17, 469.18 843.11, 480.50 835.50 C 491.76 827.00, 504.57 819.72, 515.50 811.50 C 537.59 806.66, 515.27 789.39, 505.50 784.50 Z" fill="rgb(30.15991471215352,30.843875858801233,28.65316275764037)" stroke="rgb(30.15991471215352,30.843875858801233,28.65316275764037)" stroke-width="1" />
<path d="M 668.50 281.50 C 656.37 287.39, 644.99 295.08, 633.50 302.50 C 620.41 311.15, 607.87 319.85, 597.50 329.50 C 583.20 348.56, 531.13 364.40, 551.50 388.50 C 558.54 406.11, 575.87 385.23, 585.50 379.50 C 598.37 368.58, 608.21 360.33, 618.50 349.50 C 628.43 338.73, 641.90 329.38, 649.50 316.50 C 656.65 305.08, 671.41 290.54, 669.50 281.50 Z" fill="rgb(44.42943722943723,51.1991341991342,28.654545454545456)" stroke="rgb(44.42943722943723,51.1991341991342,28.654545454545456)" stroke-width="1" />
<path d="M 622.50 829.50 C 615.92 839.54, 624.73 856.22, 627.50 864.50 C 641.17 864.50, 653.83 864.50, 666.50 864.50 C 680.17 864.50, 692.83 864.50, 705.50 864.50 C 718.92 862.97, 736.97 870.09, 739.50 854.50 C 742.38 847.73, 743.52 841.23, 746.50 835.50 C 747.55 830.79, 740.96 843.80, 734.50 837.50 C 735.67 826.74, 711.08 835.72, 701.50 833.50 C 687.56 833.82, 675.62 831.73, 662.50 832.50 C 648.51 832.28, 636.38 829.99, 623.50 829.50 Z" fill="rgb(32.302083333333336,33.7484756097561,32.076473577235774)" stroke="rgb(32.302083333333336,33.7484756097561,32.076473577235774)" stroke-width="1" />
<path d="M 528.50 805.50 C 522.84 816.61, 508.78 813.03, 501.50 822.50 C 489.81 828.70, 481.96 836.47, 472.50 844.50 C 466.46 850.70, 447.86 867.83, 465.50 864.50 C 476.17 864.50, 485.83 864.50, 495.50 864.50 C 506.17 864.50, 515.83 864.50, 525.50 864.50 C 534.47 862.57, 551.35 869.81, 550.50 857.50 C 552.16 848.06, 560.83 835.71, 553.50 828.50 C 544.23 822.76, 541.74 807.69, 529.50 805.50 Z" fill="rgb(46.84686104544261,55.09114788547413,32.61833464670344)" stroke="rgb(46.84686104544261,55.09114788547413,32.61833464670344)" stroke-width="1" />
<path d="M 253.50 0.50 C 252.49 9.91, 265.79 16.80, 266.50 27.50 C 272.79 37.34, 274.64 49.81, 285.50 54.50 C 295.90 57.33, 305.01 60.87, 314.50 63.50 C 327.22 71.32, 332.17 60.10, 329.50 49.50 C 324.52 37.45, 332.12 31.72, 328.50 21.50 C 325.21 12.74, 327.04 -2.31, 313.50 0.50 C 293.17 0.50, 273.83 0.50, 254.50 0.50 Z" fill="rgb(123.87724550898204,138.57158410451822,121.39221556886227)" stroke="rgb(123.87724550898204,138.57158410451822,121.39221556886227)" stroke-width="1" />
<path d="M 598.50 71.50 C 575.46 70.92, 598.22 99.44, 597.50 114.50 C 597.95 143.18, 616.21 134.67, 637.50 133.50 C 656.42 137.12, 674.37 103.90, 654.50 92.50 C 636.75 81.81, 620.18 71.71, 599.50 71.50 Z" fill="rgb(65.42708333333333,72.54166666666667,33.302083333333336)" stroke="rgb(65.42708333333333,72.54166666666667,33.302083333333336)" stroke-width="1" />
<path d="M 597.50 71.50 C 590.94 78.00, 590.58 87.67, 592.50 96.50 C 595.10 106.33, 597.49 114.84, 599.50 123.50 C 601.16 133.51, 604.71 144.93, 615.50 136.50 C 623.80 132.10, 634.57 133.25, 642.50 134.50 C 652.77 134.76, 654.34 121.00, 662.50 116.50 C 665.67 105.86, 661.67 96.03, 652.50 91.50 C 643.83 84.42, 634.26 81.95, 625.50 77.50 C 616.59 73.01, 607.99 71.19, 598.50 71.50 Z" fill="rgb(40.33435156900861,42.59427936684254,36.70258261594002)" stroke="rgb(40.33435156900861,42.59427936684254,36.70258261594002)" stroke-width="1" />
<path d="M 586.50 787.50 C 576.77 791.73, 565.40 786.56, 567.50 801.50 C 563.79 812.46, 575.44 821.47, 573.50 831.50 C 563.62 836.56, 561.72 848.98, 559.50 858.50 C 553.62 869.07, 575.06 862.64, 581.50 864.50 C 649.05 882.79, 612.36 810.86, 587.50 787.50 Z" fill="rgb(35.71462450592885,38.45138339920948,29.6498023715415)" stroke="rgb(35.71462450592885,38.45138339920948,29.6498023715415)" stroke-width="1" />
<path d="M 177.50 365.50 C 167.69 371.33, 166.82 382.82, 166.50 393.50 C 178.71 397.32, 178.98 406.99, 176.50 417.50 C 196.46 422.88, 217.23 422.87, 236.50 426.50 C 244.63 427.30, 264.24 435.64, 260.50 423.50 C 256.57 411.34, 249.20 403.20, 238.50 398.50 C 228.15 392.08, 217.92 387.76, 208.50 381.50 C 197.95 375.88, 188.78 369.36, 178.50 365.50 Z" fill="rgb(41.13354857646023,47.042852949809216,32.64367478720282)" stroke="rgb(41.13354857646023,47.042852949809216,32.64367478720282)" stroke-width="1" />
<path d="M 190.50 503.50 C 174.58 509.48, 147.00 503.31, 150.50 528.50 C 150.06 545.76, 128.26 572.29, 140.50 580.50 C 158.64 566.62, 178.17 558.50, 196.50 547.50 C 224.22 543.97, 197.67 511.84, 191.50 503.50 Z" fill="rgb(35.626666666666665,37.78666666666667,27.093333333333334)" stroke="rgb(35.626666666666665,37.78666666666667,27.093333333333334)" stroke-width="1" />
<path d="M 189.50 503.50 C 180.76 506.12, 171.85 508.33, 162.50 509.50 C 149.96 509.05, 152.79 523.66, 150.50 531.50 C 148.67 542.26, 143.60 550.27, 141.50 559.50 C 137.43 566.78, 131.25 588.56, 144.50 576.50 C 153.83 571.72, 161.39 564.72, 170.50 561.50 C 179.34 553.71, 191.26 553.61, 198.50 546.50 C 214.02 543.38, 214.10 535.55, 204.50 526.50 C 197.58 519.12, 202.59 501.86, 190.50 503.50 Z" fill="rgb(36.497314375987365,39.76429699842022,34.91563981042654)" stroke="rgb(36.497314375987365,39.76429699842022,34.91563981042654)" stroke-width="1" />
<path d="M 605.50 0.50 C 604.77 7.69, 616.81 16.04, 622.50 23.50 C 629.36 33.68, 639.15 38.27, 647.50 46.50 C 654.27 53.85, 666.60 73.91, 670.50 56.50 C 672.30 45.53, 677.56 37.00, 680.50 27.50 C 683.01 17.28, 693.04 7.78, 693.50 0.50 C 683.17 0.50, 673.83 0.50, 664.50 0.50 C 644.50 0.50, 625.50 0.50, 606.50 0.50 Z" fill="rgb(39.76242038216561,42.92643312101911,26.414331210191083)" stroke="rgb(39.76242038216561,42.92643312101911,26.414331210191083)" stroke-width="1" />
<path d="M 556.50 0.50 C 611.69 128.46, 703.69 46.91, 556.50 0.50 Z" fill="rgb(103.9,98.4,80.6)" stroke="rgb(103.9,98.4,80.6)" stroke-width="1" />
<path d="M 556.50 0.50 C 563.90 20.97, 569.72 47.76, 586.50 60.50 C 603.12 77.30, 631.30 66.57, 651.50 72.50 C 668.64 44.73, 576.26 30.79, 557.50 0.50 Z" fill="rgb(82.19047619047619,76.95238095238095,60.357142857142854)" stroke="rgb(82.19047619047619,76.95238095238095,60.357142857142854)" stroke-width="1" />
<path d="M 556.50 0.50 C 562.33 21.41, 572.38 45.81, 586.50 59.50 C 602.97 76.20, 628.10 68.68, 650.50 70.50 C 673.96 65.30, 632.71 35.04, 614.50 41.50 C 602.64 36.03, 591.89 28.88, 583.50 19.50 C 576.94 8.40, 572.10 -3.57, 557.50 0.50 Z" fill="rgb(109.95182291666667,97.53385416666667,87.828125)" stroke="rgb(109.95182291666667,97.53385416666667,87.828125)" stroke-width="1" />
<path d="M 222.50 545.50 C 212.16 550.82, 201.95 556.44, 191.50 561.50 C 180.20 566.64, 169.13 572.70, 160.50 578.50 C 149.18 583.94, 135.47 597.64, 154.50 591.50 C 166.11 595.30, 172.49 609.16, 168.50 620.50 C 181.37 643.32, 210.05 611.42, 194.50 595.50 C 200.38 584.07, 211.28 577.16, 221.50 570.50 C 235.62 563.16, 236.54 550.33, 223.50 545.50 Z" fill="rgb(41.97030141843972,46.0438829787234,34.59574468085106)" stroke="rgb(41.97030141843972,46.0438829787234,34.59574468085106)" stroke-width="1" />
<path d="M 557.50 67.50 C 528.40 62.48, 567.46 108.86, 528.50 94.50 C 518.29 93.52, 502.80 82.68, 503.50 98.50 C 497.52 114.42, 515.48 113.78, 524.50 117.50 C 536.63 119.58, 545.62 126.83, 556.50 129.50 C 564.41 132.14, 585.92 143.32, 582.50 128.50 C 581.96 116.29, 576.33 107.18, 574.50 96.50 C 568.92 86.55, 569.12 70.13, 558.50 67.50 Z" fill="rgb(51.89791666666667,57.52708333333333,33.89375)" stroke="rgb(51.89791666666667,57.52708333333333,33.89375)" stroke-width="1" />
<path d="M 752.50 44.50 C 743.50 59.57, 737.73 76.63, 725.50 89.50 C 717.77 96.65, 717.57 105.98, 728.50 105.50 C 737.58 106.17, 744.80 108.93, 752.50 110.50 C 761.79 115.26, 767.01 121.81, 773.50 111.50 C 777.92 103.10, 788.29 96.11, 786.50 87.50 C 782.14 78.15, 774.68 71.51, 770.50 63.50 C 763.44 56.82, 761.82 46.19, 753.50 44.50 Z" fill="rgb(36.04414931801867,37.35498923187365,33.23438621679828)" stroke="rgb(36.04414931801867,37.35498923187365,33.23438621679828)" stroke-width="1" />
<path d="M 534.50 378.50 C 523.09 390.16, 502.07 398.43, 496.50 411.50 C 514.43 417.46, 508.81 441.87, 521.50 447.50 C 555.67 449.05, 565.55 388.27, 535.50 378.50 Z" fill="rgb(93.73333333333333,87.8,61.2)" stroke="rgb(93.73333333333333,87.8,61.2)" stroke-width="1" />
<path d="M 767.50 0.50 C 763.91 15.36, 751.66 32.97, 762.50 47.50 C 768.35 58.92, 798.09 88.50, 799.50 66.50 C 796.12 36.88, 814.52 -13.52, 768.50 0.50 Z" fill="rgb(37.983870967741936,38.096774193548384,35.74193548387097)" stroke="rgb(37.983870967741936,38.096774193548384,35.74193548387097)" stroke-width="1" />
<path d="M 551.50 68.50 C 538.58 69.69, 550.59 83.27, 547.50 92.50 C 537.78 96.79, 527.26 93.24, 519.50 88.50 C 506.29 84.82, 501.33 97.72, 505.50 106.50 C 511.25 115.63, 523.29 114.41, 532.50 116.50 C 543.35 119.34, 552.26 120.54, 560.50 126.50 C 569.09 128.49, 585.79 132.15, 579.50 118.50 C 574.55 108.26, 575.28 99.02, 570.50 89.50 C 565.54 80.79, 565.87 65.06, 552.50 68.50 Z" fill="rgb(72.97197758206565,84.13170536429143,51.47518014411529)" stroke="rgb(72.97197758206565,84.13170536429143,51.47518014411529)" stroke-width="1" />
<path d="M 767.50 0.50 C 766.52 8.59, 762.14 15.27, 761.50 23.50 C 755.56 31.73, 760.36 41.64, 762.50 48.50 C 766.76 57.83, 774.51 61.61, 780.50 67.50 C 787.43 71.66, 800.91 82.42, 798.50 67.50 C 800.82 51.32, 798.84 34.37, 799.50 18.50 C 806.72 -5.72, 783.77 1.23, 768.50 0.50 Z" fill="rgb(35.7399209486166,37.30355731225296,33.240316205533595)" stroke="rgb(35.7399209486166,37.30355731225296,33.240316205533595)" stroke-width="1" />
<path d="M 379.50 772.50 C 377.74 781.91, 371.42 790.29, 374.50 800.50 C 376.42 812.41, 368.89 821.81, 368.50 828.50 C 361.46 837.60, 359.32 851.29, 352.50 852.50 C 347.83 866.06, 349.54 865.07, 364.50 864.50 C 374.83 863.36, 387.95 868.52, 391.50 857.50 C 397.77 847.73, 394.01 837.62, 397.50 828.50 C 399.13 817.44, 397.08 808.74, 394.50 799.50 C 390.29 789.30, 392.12 776.16, 380.50 772.50 Z" fill="rgb(86.84704472843451,101.24241214057508,55.0658945686901)" stroke="rgb(86.84704472843451,101.24241214057508,55.0658945686901)" stroke-width="1" />
<path d="M 119.50 282.50 C 117.16 291.93, 127.56 298.10, 131.50 306.50 C 139.27 315.65, 145.54 324.71, 153.50 331.50 C 160.60 340.14, 171.06 345.83, 177.50 352.50 C 187.03 359.52, 193.50 356.39, 203.50 355.50 C 214.36 347.20, 197.95 340.63, 194.50 332.50 C 189.50 322.46, 181.20 314.88, 172.50 310.50 C 154.23 301.83, 139.26 287.58, 120.50 282.50 Z" fill="rgb(75.88310648518815,95.26421136909528,24.63891112890312)" stroke="rgb(75.88310648518815,95.26421136909528,24.63891112890312)" stroke-width="1" />
<path d="M 710.50 445.50 C 700.16 447.96, 688.75 447.84, 678.50 450.50 C 666.73 451.91, 656.52 454.68, 645.50 455.50 C 633.24 457.06, 623.03 460.17, 612.50 462.50 C 600.10 463.80, 586.05 466.33, 585.50 480.50 C 597.03 484.83, 607.62 489.02, 618.50 492.50 C 630.89 490.46, 639.57 479.18, 651.50 476.50 C 663.21 470.95, 673.70 465.83, 684.50 461.50 C 692.58 456.28, 715.12 449.29, 711.50 445.50 Z" fill="rgb(75.91885345175616,91.3415421881308,35.310052482842146)" stroke="rgb(75.91885345175616,91.3415421881308,35.310052482842146)" stroke-width="1" />
<path d="M 182.50 128.50 C 175.32 133.22, 183.78 145.53, 185.50 152.50 C 188.32 161.53, 187.66 174.81, 196.50 177.50 C 199.85 171.36, 204.55 152.31, 213.50 162.50 C 213.50 175.78, 229.49 168.37, 236.50 168.50 C 246.47 169.81, 259.81 168.22, 253.50 157.50 C 244.03 150.74, 240.53 136.61, 238.50 136.50 C 228.55 135.51, 220.57 132.19, 211.50 131.50 C 201.50 130.50, 192.39 129.77, 183.50 128.50 Z" fill="rgb(36.669572436695724,40.93026151930262,33.760896637608965)" stroke="rgb(36.669572436695724,40.93026151930262,33.760896637608965)" stroke-width="1" />
<path d="M 535.50 0.50 C 537.62 14.30, 546.29 25.39, 552.50 37.50 C 559.56 50.73, 564.61 63.37, 568.50 76.50 C 574.07 89.60, 577.64 102.11, 581.50 114.50 C 584.40 120.99, 584.63 127.59, 586.50 133.50 C 589.55 136.60, 602.52 145.93, 600.50 136.50 C 598.25 122.85, 595.00 110.62, 591.50 98.50 C 587.43 84.72, 582.39 72.35, 578.50 59.50 C 572.28 46.53, 567.74 33.87, 562.50 21.50 C 558.17 6.95, 553.92 -4.06, 536.50 0.50 Z" fill="rgb(112.02248621128554,120.43911752227407,59.84811200678829)" stroke="rgb(112.02248621128554,120.43911752227407,59.84811200678829)" stroke-width="1" />
<path d="M 591.50 29.50 C 586.87 37.46, 570.54 32.41, 571.50 39.50 C 576.40 47.89, 578.15 58.21, 587.50 60.50 C 601.21 74.96, 621.67 68.11, 638.50 70.50 C 646.65 72.12, 656.35 72.12, 663.50 70.50 C 659.47 60.41, 650.47 53.37, 643.50 45.50 C 635.39 41.69, 625.60 45.34, 618.50 42.50 C 607.96 41.08, 600.87 33.75, 592.50 29.50 Z" fill="rgb(113.78129004698846,101.25117471166168,95.85946176847501)" stroke="rgb(113.78129004698846,101.25117471166168,95.85946176847501)" stroke-width="1" />
<path d="M 589.50 793.50 C 581.49 798.08, 585.65 806.81, 583.50 814.50 C 582.18 823.53, 581.64 831.47, 581.50 838.50 C 579.23 847.48, 583.81 854.37, 581.50 861.50 C 585.66 867.01, 597.05 863.28, 603.50 864.50 C 610.25 862.92, 622.58 867.92, 623.50 861.50 C 621.77 852.59, 619.73 844.80, 616.50 837.50 C 607.47 822.81, 609.90 799.12, 590.50 793.50 Z" fill="rgb(34.69730941704036,36.38161434977579,29.873991031390133)" stroke="rgb(34.69730941704036,36.38161434977579,29.873991031390133)" stroke-width="1" />
<path d="M 477.50 0.50 C 476.37 9.04, 480.52 18.65, 479.50 28.50 C 481.34 38.54, 480.18 48.83, 480.50 58.50 C 481.21 69.80, 479.07 78.10, 480.50 87.50 C 486.18 88.01, 497.11 63.33, 502.50 81.50 C 498.80 96.86, 507.41 74.62, 505.50 67.50 C 505.50 56.83, 505.50 47.17, 505.50 37.50 C 503.12 27.60, 503.41 17.59, 501.50 8.50 C 503.35 -4.93, 486.29 2.50, 478.50 0.50 Z" fill="rgb(44.92373689227836,54.627264061010486,23.647759771210676)" stroke="rgb(44.92373689227836,54.627264061010486,23.647759771210676)" stroke-width="1" />
<path d="M 272.50 559.50 C 261.69 562.69, 255.67 574.92, 249.50 583.50 C 242.46 592.89, 238.54 604.27, 234.50 614.50 C 230.77 626.84, 227.35 634.88, 225.50 646.50 C 221.63 659.88, 225.31 668.98, 228.50 679.50 C 229.81 668.91, 238.75 675.36, 239.50 662.50 C 243.42 651.02, 245.50 639.78, 247.50 628.50 C 252.72 616.73, 254.29 604.45, 261.50 594.50 C 263.17 581.78, 277.37 571.89, 273.50 560.50 Z" fill="rgb(119.95007488766849,136.03245132301547,117.32850723914129)" stroke="rgb(119.95007488766849,136.03245132301547,117.32850723914129)" stroke-width="1" />
<path d="M 1.50 0.50 C 0.12 13.20, 16.88 7.95, 26.50 10.50 C 37.74 14.00, 49.73 13.28, 60.50 15.50 C 72.51 16.67, 83.28 18.42, 93.50 21.50 C 105.56 22.69, 115.49 26.59, 127.50 25.50 C 119.08 17.01, 119.15 -1.81, 104.50 0.50 C 92.50 0.50, 81.50 0.50, 70.50 0.50 C 58.50 0.50, 47.50 0.50, 36.50 0.50 C 24.50 0.50, 13.50 0.50, 2.50 0.50 Z" fill="rgb(126.31831983805668,139.7246963562753,119.125)" stroke="rgb(126.31831983805668,139.7246963562753,119.125)" stroke-width="1" />
<path d="M 587.50 335.50 C 575.52 344.41, 564.28 355.10, 552.50 364.50 C 547.37 368.98, 535.62 376.50, 545.50 380.50 C 551.93 386.11, 551.06 394.85, 556.50 398.50 C 570.69 392.03, 582.14 382.38, 593.50 372.50 C 608.21 361.04, 591.12 346.93, 588.50 335.50 Z" fill="rgb(48.20123203285421,60.99845995893224,26.249486652977414)" stroke="rgb(48.20123203285421,60.99845995893224,26.249486652977414)" stroke-width="1" />
<path d="M 535.50 16.50 C 527.89 26.91, 503.52 25.78, 508.50 41.50 C 504.54 60.44, 528.52 52.74, 535.50 65.50 C 545.28 68.23, 570.35 68.61, 558.50 53.50 C 552.55 40.03, 545.28 25.43, 536.50 16.50 Z" fill="rgb(46.78121484814398,53.5281214848144,30.72047244094488)" stroke="rgb(46.78121484814398,53.5281214848144,30.72047244094488)" stroke-width="1" />
<path d="M 731.50 432.50 C 713.10 435.67, 694.32 437.92, 676.50 442.50 C 656.62 445.32, 638.70 450.45, 619.50 452.50 C 599.61 455.96, 581.74 460.89, 562.50 462.50 C 552.73 464.05, 543.65 464.87, 534.50 465.50 C 526.80 464.89, 504.63 469.22, 519.50 473.50 C 530.18 474.47, 538.16 471.35, 547.50 471.50 C 557.52 470.22, 566.64 469.16, 575.50 467.50 C 595.01 463.46, 614.22 461.10, 632.50 456.50 C 652.18 453.52, 670.64 450.04, 689.50 447.50 C 698.88 444.66, 708.77 445.49, 717.50 443.50 C 724.58 444.31, 747.30 432.81, 732.50 432.50 Z" fill="rgb(169.13771781899945,177.83754918493537,171.16132658797076)" stroke="rgb(169.13771781899945,177.83754918493537,171.16132658797076)" stroke-width="1" />
<path d="M 134.50 531.50 C 121.16 531.73, 110.13 537.54, 97.50 539.50 C 91.98 541.43, 92.96 551.94, 98.50 555.50 C 106.39 560.49, 109.96 568.39, 116.50 573.50 C 122.09 578.68, 126.83 592.22, 131.50 581.50 C 133.69 574.58, 135.36 568.44, 137.50 562.50 C 140.50 553.04, 154.77 529.55, 135.50 531.50 Z" fill="rgb(57.51205510907003,64.33926521239954,39.43972445464983)" stroke="rgb(57.51205510907003,64.33926521239954,39.43972445464983)" stroke-width="1" />
<path d="M 491.50 466.50 C 481.98 472.80, 468.31 469.08, 460.50 479.50 C 448.93 481.74, 438.26 483.73, 427.50 485.50 C 417.02 487.80, 405.43 488.37, 395.50 486.50 C 376.69 481.28, 379.08 492.87, 394.50 494.50 C 405.89 495.52, 416.61 496.07, 426.50 493.50 C 438.24 491.67, 448.73 489.25, 459.50 487.50 C 472.14 489.12, 481.85 489.74, 492.50 485.50 C 504.41 480.78, 511.85 462.04, 492.50 466.50 Z" fill="rgb(105.73170731707317,85.33728222996515,82.18745644599304)" stroke="rgb(105.73170731707317,85.33728222996515,82.18745644599304)" stroke-width="1" />
<path d="M 54.50 489.50 C 47.89 490.02, 42.90 494.48, 36.50 495.50 C 22.84 500.33, 35.75 497.89, 40.50 504.50 C 47.90 509.88, 53.73 515.62, 59.50 521.50 C 66.31 523.48, 72.62 518.27, 79.50 519.50 C 86.70 517.99, 92.83 516.31, 98.50 513.50 C 109.55 507.42, 104.27 500.99, 95.50 499.50 C 80.77 497.92, 66.21 498.35, 55.50 489.50 Z" fill="rgb(32.57491289198606,33.30034843205575,31.122648083623695)" stroke="rgb(32.57491289198606,33.30034843205575,31.122648083623695)" stroke-width="1" />
<path d="M 534.50 378.50 C 523.39 387.31, 513.58 394.85, 502.50 403.50 C 487.78 413.97, 510.69 421.54, 519.50 414.50 C 531.14 413.95, 544.28 414.06, 552.50 407.50 C 553.91 394.54, 548.35 379.91, 535.50 378.50 Z" fill="rgb(131.58841234010535,109.3739653875094,77.86907449209933)" stroke="rgb(131.58841234010535,109.3739653875094,77.86907449209933)" stroke-width="1" />
<path d="M 761.50 0.50 C 760.02 13.01, 751.48 22.60, 748.50 34.50 C 742.73 47.34, 734.02 57.56, 729.50 69.50 C 723.40 82.25, 716.52 94.21, 702.50 95.50 C 694.12 97.73, 693.49 105.77, 692.50 111.50 C 692.70 119.48, 675.47 118.46, 682.50 124.50 C 696.04 133.94, 708.46 114.82, 714.50 105.50 C 721.31 92.66, 729.47 82.59, 736.50 70.50 C 743.40 58.82, 749.12 47.64, 752.50 35.50 C 756.55 23.98, 764.48 11.15, 762.50 0.50 Z" fill="rgb(75.30316742081448,81.82503770739065,32.76093514328809)" stroke="rgb(75.30316742081448,81.82503770739065,32.76093514328809)" stroke-width="1" />
<path d="M 513.50 581.50 C 477.65 585.59, 534.05 613.70, 544.50 626.50 C 560.33 606.50, 539.73 575.91, 514.50 581.50 Z" fill="rgb(107.16666666666667,105.0,69.83333333333333)" stroke="rgb(107.16666666666667,105.0,69.83333333333333)" stroke-width="1" />
<path d="M 515.50 581.50 C 499.53 579.92, 494.26 590.28, 510.50 598.50 C 522.22 608.03, 532.58 617.44, 543.50 625.50 C 552.40 621.37, 551.95 605.47, 546.50 597.50 C 540.99 585.59, 529.02 580.03, 516.50 581.50 Z" fill="rgb(111.6180981595092,95.38650306748467,66.49156441717791)" stroke="rgb(111.6180981595092,95.38650306748467,66.49156441717791)" stroke-width="1" />
<path d="M 487.50 498.50 C 509.12 516.77, 552.66 529.69, 582.50 546.50 C 599.74 555.06, 615.52 563.72, 632.50 569.50 C 650.46 576.13, 666.29 584.48, 683.50 589.50 C 689.17 579.07, 671.63 584.98, 666.50 578.50 C 657.65 574.81, 649.44 571.99, 641.50 568.50 C 623.83 560.84, 606.91 553.79, 590.50 545.50 C 555.89 529.36, 524.13 509.77, 488.50 499.50 Z" fill="rgb(133.32938856015778,143.59960552268245,123.38658777120315)" stroke="rgb(133.32938856015778,143.59960552268245,123.38658777120315)" stroke-width="1" />
<path d="M 710.50 328.50 C 692.38 345.81, 729.75 346.42, 740.50 353.50 C 757.11 358.10, 771.74 371.14, 789.50 364.50 C 805.88 365.32, 791.94 357.75, 785.50 355.50 C 776.34 352.88, 768.09 350.49, 760.50 346.50 C 743.83 339.70, 726.92 335.90, 711.50 328.50 Z" fill="rgb(43.44435674822415,46.49644830307814,31.749013417521706)" stroke="rgb(43.44435674822415,46.49644830307814,31.749013417521706)" stroke-width="1" />
<path d="M 550.50 407.50 C 542.27 414.92, 529.87 412.25, 519.50 414.50 C 499.47 413.86, 512.69 428.12, 514.50 438.50 C 515.25 454.18, 534.66 445.64, 541.50 440.50 C 550.96 431.40, 553.48 418.56, 551.50 407.50 Z" fill="rgb(110.01504354711005,93.75851148060174,62.12826603325416)" stroke="rgb(110.01504354711005,93.75851148060174,62.12826603325416)" stroke-width="1" />
<path d="M 694.50 10.50 C 686.35 17.86, 683.77 27.53, 679.50 36.50 C 674.95 46.00, 672.06 55.18, 669.50 64.50 C 666.95 74.27, 666.04 83.31, 665.50 92.50 C 666.01 102.14, 665.04 114.27, 671.50 118.50 C 679.90 113.60, 676.86 102.15, 677.50 93.50 C 677.10 82.92, 678.20 73.96, 680.50 65.50 C 682.52 55.09, 686.19 46.37, 689.50 37.50 C 693.53 29.02, 701.44 18.04, 695.50 10.50 Z" fill="rgb(62.23107569721115,68.9203187250996,22.049402390438246)" stroke="rgb(62.23107569721115,68.9203187250996,22.049402390438246)" stroke-width="1" />
<path d="M 508.50 55.50 C 508.77 66.22, 506.49 75.89, 506.50 86.50 C 516.48 90.69, 526.62 93.49, 537.50 94.50 C 553.82 100.34, 545.19 79.14, 542.50 72.50 C 531.79 63.85, 522.54 55.10, 509.50 55.50 Z" fill="rgb(50.43517017828201,57.693679092382496,24.98136142625608)" stroke="rgb(50.43517017828201,57.693679092382496,24.98136142625608)" stroke-width="1" />
<path d="M 740.50 268.50 C 728.59 283.95, 744.75 290.87, 756.50 299.50 C 770.10 307.99, 782.73 315.42, 795.50 322.50 C 808.51 313.74, 788.37 301.89, 778.50 295.50 C 766.18 284.63, 755.42 275.45, 741.50 268.50 Z" fill="rgb(81.83779399837795,88.8345498783455,29.549878345498783)" stroke="rgb(81.83779399837795,88.8345498783455,29.549878345498783)" stroke-width="1" />
<path d="M 572.50 0.50 C 578.63 12.66, 587.31 24.14, 599.50 31.50 C 609.59 38.51, 624.38 44.82, 634.50 39.50 C 626.80 28.30, 613.31 18.75, 604.50 7.50 C 601.85 -5.21, 583.60 2.90, 573.50 0.50 Z" fill="rgb(45.2502030869212,48.11860276198213,31.921202274573517)" stroke="rgb(45.2502030869212,48.11860276198213,31.921202274573517)" stroke-width="1" />
<path d="M 412.50 764.50 C 404.47 770.01, 386.21 771.17, 393.50 784.50 C 398.63 794.32, 395.59 809.13, 404.50 814.50 C 418.76 814.45, 423.45 802.24, 422.50 791.50 C 419.07 781.81, 426.32 764.90, 413.50 764.50 Z" fill="rgb(32.51027115858669,36.631059983566146,32.612982744453575)" stroke="rgb(32.51027115858669,36.631059983566146,32.612982744453575)" stroke-width="1" />
<path d="M 484.50 504.50 C 476.26 510.58, 455.71 518.04, 471.50 526.50 C 483.75 534.54, 493.02 542.10, 503.50 550.50 C 518.56 559.88, 506.49 536.87, 504.50 530.50 C 503.56 517.65, 498.44 506.13, 485.50 504.50 Z" fill="rgb(45.23866552609068,50.30453378956373,37.211291702309666)" stroke="rgb(45.23866552609068,50.30453378956373,37.211291702309666)" stroke-width="1" />
<path d="M 436.50 518.50 C 432.24 524.40, 443.05 533.51, 447.50 539.50 C 454.77 547.14, 461.30 557.73, 470.50 559.50 C 478.81 562.34, 488.43 563.18, 492.50 571.50 C 493.69 583.95, 505.06 578.03, 512.50 580.50 C 527.67 579.61, 515.48 573.99, 508.50 571.50 C 498.70 568.57, 492.07 561.39, 484.50 556.50 C 467.66 544.71, 454.41 527.69, 437.50 519.50 Z" fill="rgb(106.09568480300187,115.38649155722327,49.650093808630395)" stroke="rgb(106.09568480300187,115.38649155722327,49.650093808630395)" stroke-width="1" />
<path d="M 499.50 95.50 C 492.14 102.17, 481.85 112.35, 480.50 123.50 C 469.36 131.09, 471.53 145.66, 485.50 145.50 C 493.96 137.84, 514.87 147.22, 508.50 130.50 C 499.29 119.46, 499.00 108.73, 499.50 96.50 Z" fill="rgb(56.50423728813559,68.31885593220339,27.969279661016948)" stroke="rgb(56.50423728813559,68.31885593220339,27.969279661016948)" stroke-width="1" />
<path d="M 216.50 539.50 C 205.46 545.07, 194.81 551.58, 183.50 556.50 C 171.00 562.62, 159.83 568.55, 149.50 576.50 C 137.92 584.98, 124.47 594.03, 119.50 606.50 C 118.54 614.26, 109.78 611.39, 105.50 614.50 C 96.22 618.82, 108.45 623.37, 113.50 621.50 C 133.05 620.33, 122.01 612.23, 127.50 601.50 C 139.45 590.90, 150.30 581.08, 162.50 574.50 C 174.38 567.54, 185.65 562.52, 196.50 556.50 C 203.24 551.06, 232.81 543.11, 217.50 539.50 Z" fill="rgb(157.01052631578946,165.71291866028707,159.23923444976077)" stroke="rgb(157.01052631578946,165.71291866028707,159.23923444976077)" stroke-width="1" />
<path d="M 522.50 489.50 C 519.77 499.27, 546.47 494.11, 556.50 496.50 C 571.12 497.60, 584.95 498.22, 598.50 499.50 C 612.86 500.44, 625.94 502.04, 639.50 502.50 C 653.69 504.32, 667.49 504.66, 681.50 504.50 C 685.06 499.51, 658.71 500.18, 649.50 498.50 C 634.72 497.78, 621.52 495.64, 607.50 495.50 C 592.51 494.28, 579.18 492.47, 565.50 491.50 C 550.71 491.13, 537.45 489.49, 523.50 489.50 Z" fill="rgb(151.59555106167846,161.23963599595552,149.3892821031345)" stroke="rgb(151.59555106167846,161.23963599595552,149.3892821031345)" stroke-width="1" />
<path d="M 754.50 827.50 C 747.30 835.78, 745.78 846.42, 740.50 855.50 C 730.89 869.06, 749.06 863.22, 757.50 864.50 C 765.99 863.29, 788.27 868.65, 775.50 857.50 C 768.76 846.86, 765.96 835.59, 755.50 827.50 Z" fill="rgb(143.56725755995828,154.4546402502607,154.09801876955163)" stroke="rgb(143.56725755995828,154.4546402502607,154.09801876955163)" stroke-width="1" />
<path d="M 133.50 510.50 C 123.70 516.12, 112.44 518.21, 102.50 523.50 C 89.88 534.73, 105.71 540.97, 115.50 532.50 C 126.27 529.79, 138.35 532.70, 147.50 528.50 C 155.12 516.62, 148.08 506.48, 134.50 510.50 Z" fill="rgb(32.35223555070883,33.36532170119956,31.544165757906217)" stroke="rgb(32.35223555070883,33.36532170119956,31.544165757906217)" stroke-width="1" />
<path d="M 506.50 178.50 C 491.63 190.12, 482.40 205.21, 475.50 221.50 C 469.96 236.44, 463.72 252.32, 464.50 267.50 C 473.30 254.11, 478.31 238.15, 486.50 223.50 C 492.97 208.50, 504.99 189.44, 507.50 178.50 Z" fill="rgb(92.99886749716875,108.12344280860702,38.82106455266138)" stroke="rgb(92.99886749716875,108.12344280860702,38.82106455266138)" stroke-width="1" />
<path d="M 207.50 355.50 C 195.45 357.65, 184.42 361.49, 201.50 368.50 C 211.95 374.69, 222.04 379.34, 231.50 385.50 C 244.87 397.54, 247.40 380.80, 238.50 372.50 C 228.41 364.78, 221.12 353.71, 208.50 355.50 Z" fill="rgb(44.779680365296805,52.55365296803653,33.36073059360731)" stroke="rgb(44.779680365296805,52.55365296803653,33.36073059360731)" stroke-width="1" />
<path d="M 470.50 136.50 C 467.47 143.99, 485.02 152.38, 492.50 156.50 C 503.33 157.37, 514.87 170.00, 523.50 158.50 C 527.79 146.83, 511.59 141.69, 502.50 142.50 C 490.58 143.79, 482.72 136.80, 471.50 136.50 Z" fill="rgb(77.29594272076372,87.83651551312649,25.939140811455847)" stroke="rgb(77.29594272076372,87.83651551312649,25.939140811455847)" stroke-width="1" />
<path d="M 458.50 565.50 C 448.05 577.19, 457.24 604.51, 475.50 604.50 C 505.34 602.93, 469.12 574.74, 459.50 566.50 Z" fill="rgb(90.5,89.0,70.5)" stroke="rgb(90.5,89.0,70.5)" stroke-width="1" />
<path d="M 456.50 566.50 C 450.20 582.15, 458.54 606.56, 478.50 604.50 C 494.11 604.63, 487.81 592.41, 479.50 586.50 C 471.88 579.03, 467.59 568.07, 457.50 566.50 Z" fill="rgb(88.32678132678133,77.55159705159706,64.72358722358722)" stroke="rgb(88.32678132678133,77.55159705159706,64.72358722358722)" stroke-width="1" />
<path d="M 486.50 499.50 C 487.33 507.43, 507.00 509.25, 515.50 514.50 C 527.88 519.58, 538.44 525.64, 549.50 530.50 C 561.73 535.95, 572.28 542.02, 583.50 546.50 C 596.05 551.32, 606.16 559.60, 618.50 562.50 C 615.87 554.51, 596.88 553.91, 590.50 545.50 C 578.47 539.90, 567.42 534.35, 556.50 528.50 C 544.59 522.96, 533.99 516.66, 522.50 512.50 C 510.27 507.24, 499.66 501.51, 487.50 499.50 Z" fill="rgb(174.25868725868725,183.62548262548262,183.4144144144144)" stroke="rgb(174.25868725868725,183.62548262548262,183.4144144144144)" stroke-width="1" />
<path d="M 507.50 0.50 C 486.02 62.73, 575.42 -8.68, 507.50 0.50 Z" fill="rgb(79.36363636363636,85.68181818181819,34.95454545454545)" stroke="rgb(79.36363636363636,85.68181818181819,34.95454545454545)" stroke-width="1" />
<path d="M 191.50 594.50 C 184.16 599.80, 175.40 605.02, 169.50 611.50 C 167.41 618.85, 167.97 633.24, 177.50 629.50 C 186.20 627.88, 196.86 627.58, 196.50 617.50 C 197.95 609.73, 195.93 599.62, 192.50 594.50 Z" fill="rgb(34.90837696335078,38.06675392670157,30.95418848167539)" stroke="rgb(34.90837696335078,38.06675392670157,30.95418848167539)" stroke-width="1" />
<path d="M 507.50 0.50 C 501.95 6.64, 505.76 16.21, 506.50 23.50 C 507.22 36.01, 521.10 23.45, 526.50 21.50 C 537.88 16.92, 536.12 9.40, 533.50 0.50 C 524.50 0.50, 516.50 0.50, 508.50 0.50 Z" fill="rgb(80.5392809587217,89.47137150466045,38.01997336884155)" stroke="rgb(80.5392809587217,89.47137150466045,38.01997336884155)" stroke-width="1" />
</svg>