<svg xmlns="http://www.w3.org/2000/svg" width="800" height="865" viewbox="0 0 800 865">
<path d="M 0.50 0.50 C 0.50 11.50, 0.50 22.50, 0.50 33.50 C 0.50 45.83, 0.50 57.17, 0.50 68.50 C 0.50 92.17, 0.50 114.83, 0.50 137.50 C 0.50 184.17, 0.50 229.83, 0.50 275.50 C 0.50 368.50, 0.50 460.50, 0.50 552.50 C 0.50 576.17, 0.50 598.83, 0.50 621.50 C 0.50 633.50, 0.50 644.50, 0.50 655.50 C 0.50 667.83, 0.50 679.17, 0.50 690.50 C 0.50 702.50, 0.50 713.50, 0.50 724.50 C 0.50 736.83, 0.50 748.17, 0.50 759.50 C 0.50 771.83, 0.50 783.17, 0.50 794.50 C 0.50 806.83, 0.50 818.17, 0.50 829.50 C 18.93 904.07, 169.01 845.99, 242.50 864.50 C 335.83 864.50, 428.17 864.50, 520.50 864.50 C 614.17 864.50, 706.83 864.50, 799.50 864.50 C 799.50 842.83, 799.50 822.17, 799.50 801.50 C 799.50 779.83, 799.50 759.17, 799.50 738.50 C 799.50 716.83, 799.50 696.17, 799.50 675.50 C 799.50 653.50, 799.50 632.50, 799.50 611.50 C 799.50 568.83, 799.50 527.17, 799.50 485.50 C 799.50 442.50, 799.50 400.50, 799.50 358.50 C 799.50 343.17, 799.50 328.83, 799.50 314.50 C 799.50 298.83, 799.50 284.17, 799.50 269.50 C 799.50 238.83, 799.50 209.17, 799.50 179.50 C 799.50 119.17, 799.50 59.83, 799.50 0.50 C 665.83 0.50, 533.17 0.50, 400.50 0.50 C 266.83 0.50, 134.17 0.50, 1.50 0.50 Z" fill="rgb(63.495432563138095,70.43202579258462,39.19398173025255)" stroke="rgb(63.495432563138095,70.43202579258462,39.19398173025255)" stroke-width="1" />
<path d="M 2.50 0.50 C 2.50 4.50, 2.50 8.50, 2.50 12.50 C 2.50 16.50, 2.50 19.50, 2.50 22.50 C 2.50 25.83, 2.50 28.17, 2.50 30.50 C 2.50 33.83, 2.50 36.17, 2.50 38.50 C 2.65 58.89, 2.53 75.93, 2.50 95.50 C -0.71 96.62, 1.08 100.74, 0.50 102.50 C 0.50 118.83, 0.50 134.17, 0.50 149.50 C 0.50 165.83, 0.50 181.17, 0.50 196.50 C 0.50 208.50, 0.50 219.50, 0.50 230.50 C 0.50 242.50, 0.50 253.50, 0.50 264.50 C 0.50 276.50, 0.50 287.50, 0.50 298.50 C 0.50 310.50, 0.50 321.50, 0.50 332.50 C 0.50 350.83, 0.50 368.17, 0.50 385.50 C -0.98 394.06, 3.06 399.33, 2.50 406.50 C 1.98 412.51, 8.04 412.15, 10.50 414.50 C 3.74 420.79, 18.09 435.63, 6.50 442.50 C 5.04 527.47, 0.01 707.84, 2.50 843.50 C 42.62 889.71, 165.43 852.23, 238.50 864.50 C 307.43 860.16, 427.56 893.96, 390.50 788.50 C 389.68 781.16, 368.81 763.38, 382.50 767.50 C 396.97 778.25, 397.39 797.59, 401.50 812.50 C 400.19 820.38, 405.45 827.95, 399.50 833.50 C 404.80 843.35, 392.55 860.59, 396.50 864.50 C 415.66 862.00, 458.58 870.25, 455.50 858.50 C 467.64 841.61, 491.90 824.31, 513.50 812.50 C 533.99 805.70, 564.46 839.88, 547.50 861.50 C 572.69 867.14, 603.96 863.18, 631.50 864.50 C 659.15 821.44, 719.14 823.50, 725.50 854.50 C 716.28 886.70, 762.96 812.37, 758.50 862.50 C 765.77 839.92, 765.80 869.75, 797.50 864.50 C 796.45 799.11, 797.97 726.19, 797.50 657.50 C 797.57 560.73, 798.49 464.15, 796.50 366.50 C 752.76 337.31, 760.77 390.46, 683.50 401.50 C 683.56 409.08, 676.25 401.64, 677.50 405.50 C 654.66 420.83, 629.81 419.21, 656.50 395.50 C 669.81 385.60, 673.49 371.64, 688.50 362.50 C 687.32 354.24, 694.08 350.27, 696.50 344.50 C 721.00 332.47, 704.96 335.10, 716.50 312.50 C 729.70 269.70, 759.68 298.86, 772.50 309.50 C 788.11 308.70, 780.52 328.45, 794.50 322.50 C 798.23 312.08, 794.75 302.04, 798.50 293.50 C 794.31 245.47, 779.93 313.47, 754.50 277.50 C 725.71 267.09, 760.21 238.61, 757.50 219.50 C 770.89 185.41, 779.11 169.83, 795.50 142.50 C 800.08 124.53, 798.02 105.84, 798.50 86.50 C 789.68 71.17, 763.90 61.63, 762.50 43.50 C 753.53 30.81, 776.72 3.32, 755.50 0.50 C 707.11 10.48, 560.80 -23.62, 596.50 26.50 C 700.45 58.60, 568.27 92.06, 567.50 1.50 C 518.83 0.50, 470.17 0.50, 421.50 0.50 C 371.50 0.50, 322.50 0.50, 273.50 0.50 C 266.50 0.50, 260.50 0.50, 254.50 0.50 C 250.50 0.50, 247.50 0.50, 244.50 0.50 C 163.50 0.50, 83.50 0.50, 3.50 0.50 Z" fill="rgb(85.46303752617169,91.30003106090237,76.93768837862089)" stroke="rgb(85.46303752617169,91.30003106090237,76.93768837862089)" stroke-width="1" />
<path d="M 3.50 571.50 C -0.96 618.11, 2.75 669.27, 1.50 717.50 C 1.65 768.58, 1.82 816.41, 1.50 864.50 C 63.83 864.50, 125.17 864.50, 186.50 864.50 C 202.50 864.50, 217.50 864.50, 232.50 864.50 C 248.83 864.50, 264.17 864.50, 279.50 864.50 C 295.50 864.50, 310.50 864.50, 325.50 864.50 C 341.83 864.50, 357.17 864.50, 372.50 864.50 C 379.57 863.90, 387.83 866.99, 389.50 859.50 C 400.58 830.32, 401.26 789.80, 377.50 769.50 C 364.80 759.95, 379.19 748.57, 378.50 737.50 C 375.42 726.40, 372.01 716.43, 368.50 706.50 C 365.97 693.17, 361.45 681.66, 358.50 669.50 C 358.92 653.35, 349.43 642.24, 351.50 664.50 C 347.78 680.48, 349.92 696.53, 350.50 710.50 C 352.81 716.49, 350.02 723.58, 352.50 728.50 C 357.58 747.02, 358.49 765.06, 365.50 781.50 C 368.69 788.95, 374.08 792.92, 375.50 801.50 C 378.60 815.11, 360.10 833.83, 361.50 811.50 C 364.90 797.88, 357.36 786.84, 354.50 775.50 C 350.13 762.65, 346.50 751.57, 343.50 740.50 C 343.60 748.76, 338.47 753.85, 339.50 761.50 C 339.67 782.57, 333.52 801.28, 342.50 817.50 C 345.56 835.98, 312.90 838.69, 330.50 819.50 C 329.05 802.77, 328.34 785.46, 329.50 770.50 C 328.99 760.68, 330.86 752.85, 331.50 744.50 C 333.47 728.14, 335.53 711.60, 337.50 697.50 C 338.45 683.32, 338.80 667.84, 338.50 655.50 C 338.88 641.73, 343.64 626.46, 336.50 615.50 C 330.88 612.50, 323.22 612.53, 321.50 618.50 C 320.91 631.09, 315.21 640.55, 315.50 652.50 C 313.49 661.36, 311.66 669.29, 310.50 677.50 C 306.95 686.47, 307.54 695.74, 304.50 703.50 C 302.39 717.45, 299.96 730.28, 298.50 743.50 C 296.49 755.65, 306.31 759.90, 302.50 771.50 C 299.67 783.91, 307.65 788.36, 306.50 800.50 C 305.63 808.14, 297.65 824.11, 292.50 811.50 C 290.66 801.90, 297.85 790.83, 289.50 785.50 C 290.83 766.96, 287.70 747.79, 288.50 728.50 C 291.31 718.44, 289.07 707.30, 292.50 698.50 C 294.90 677.37, 300.01 658.35, 305.50 639.50 C 306.45 630.54, 310.22 622.47, 310.50 615.50 C 302.96 614.91, 295.07 628.70, 285.50 621.50 C 280.06 624.92, 276.93 630.02, 275.50 635.50 C 265.10 653.70, 255.86 670.97, 254.50 691.50 C 262.42 690.18, 254.28 701.39, 250.50 697.50 C 250.55 709.49, 247.66 721.09, 246.50 729.50 C 246.98 737.07, 253.50 745.71, 245.50 752.50 C 245.34 764.18, 231.75 763.71, 229.50 769.50 C 223.26 775.00, 235.39 787.59, 222.50 787.50 C 221.31 788.18, 226.99 812.23, 214.50 814.50 C 207.72 802.89, 215.36 785.19, 209.50 774.50 C 210.39 761.04, 211.12 748.52, 215.50 737.50 C 214.84 719.41, 217.77 718.00, 223.50 701.50 C 221.14 691.37, 216.56 683.17, 215.50 673.50 C 216.64 658.83, 216.64 644.28, 218.50 630.50 C 223.45 614.30, 227.36 597.44, 235.50 584.50 C 240.22 577.28, 237.62 568.10, 235.50 580.50 C 225.67 579.11, 226.70 589.35, 221.50 593.50 C 216.47 597.94, 215.23 606.32, 210.50 609.50 C 207.07 619.37, 201.45 630.54, 204.50 639.50 C 207.66 651.84, 204.65 664.07, 197.50 672.50 C 180.57 665.90, 196.27 641.00, 191.50 628.50 C 185.15 628.32, 180.06 628.77, 175.50 630.50 C 165.72 635.07, 166.24 617.96, 167.50 611.50 C 165.64 600.19, 157.04 593.77, 147.50 599.50 C 122.21 593.48, 136.30 631.75, 110.50 623.50 C 84.00 616.22, 119.58 611.26, 118.50 598.50 C 83.41 580.86, 41.94 581.06, 4.50 571.50 Z" fill="rgb(87.09425115143443,104.03121358415183,60.769324676766)" stroke="rgb(87.09425115143443,104.03121358415183,60.769324676766)" stroke-width="1" />
<path d="M 2.50 0.50 C 0.18 18.68, 2.16 38.64, 1.50 57.50 C 1.50 77.83, 1.50 97.17, 1.50 116.50 C 7.23 125.13, 20.32 124.53, 28.50 128.50 C 45.48 133.30, 62.35 135.94, 80.50 135.50 C 91.11 133.56, 102.29 135.41, 111.50 132.50 C 129.54 129.93, 146.16 126.34, 163.50 124.50 C 165.14 111.62, 159.31 101.07, 157.50 88.50 C 158.31 84.25, 155.55 76.62, 162.50 76.50 C 177.52 85.42, 175.74 105.59, 177.50 119.50 C 178.35 127.52, 189.11 123.66, 193.50 126.50 C 205.09 127.20, 215.38 128.65, 225.50 130.50 C 242.09 133.74, 259.43 135.94, 275.50 132.50 C 294.69 128.23, 313.23 124.82, 328.50 113.50 C 330.78 100.17, 330.99 85.83, 331.50 75.50 C 336.21 58.07, 328.02 43.58, 332.50 28.50 C 345.68 27.87, 350.48 51.61, 342.50 61.50 C 344.87 78.96, 333.09 98.26, 344.50 110.50 C 359.03 113.68, 378.19 114.33, 385.50 107.50 C 400.03 87.11, 408.33 120.66, 424.50 119.50 C 434.77 117.77, 434.91 107.06, 436.50 99.50 C 448.46 90.43, 457.96 78.00, 464.50 65.50 C 456.00 38.57, 481.70 53.65, 478.50 69.50 C 466.43 77.87, 458.74 90.57, 454.50 101.50 C 455.33 113.59, 442.23 115.90, 444.50 127.50 C 463.16 140.04, 466.30 115.21, 475.50 105.50 C 480.91 96.45, 491.28 61.38, 503.50 80.50 C 506.05 71.02, 507.93 22.61, 499.50 0.50 C 473.50 0.50, 448.50 0.50, 423.50 0.50 C 410.17 0.50, 397.83 0.50, 385.50 0.50 C 372.17 0.50, 359.83 0.50, 347.50 0.50 C 296.17 0.50, 245.83 0.50, 195.50 0.50 C 130.83 0.50, 67.17 0.50, 3.50 0.50 Z" fill="rgb(83.91716580767981,98.88108835956726,46.636044945907045)" stroke="rgb(83.91716580767981,98.88108835956726,46.636044945907045)" stroke-width="1" />
<path d="M 789.50 367.50 C 636.39 398.97, 570.94 488.63, 763.50 420.50 C 733.74 462.12, 647.31 446.45, 591.50 469.50 C 580.40 480.59, 585.52 496.05, 601.50 490.50 C 612.39 490.83, 620.84 494.61, 630.50 495.50 C 646.41 495.33, 710.49 498.57, 680.50 506.50 C 658.96 506.80, 638.60 506.68, 619.50 503.50 C 603.14 501.81, 567.99 494.04, 584.50 518.50 C 591.04 534.26, 599.23 551.12, 616.50 554.50 C 634.39 563.90, 652.16 570.19, 669.50 577.50 C 676.24 580.95, 685.60 578.43, 688.50 586.50 C 687.23 589.77, 683.15 593.40, 681.50 591.50 C 660.70 584.97, 641.66 576.58, 622.50 568.50 C 614.60 570.47, 625.42 582.28, 627.50 587.50 C 629.95 593.45, 631.56 598.75, 634.50 603.50 C 650.24 638.68, 668.74 671.30, 695.50 700.50 C 717.77 732.88, 748.12 762.53, 781.50 780.50 C 787.06 782.48, 794.33 789.96, 797.50 785.50 C 799.89 761.13, 797.73 735.38, 798.50 712.50 C 798.47 678.40, 798.52 641.95, 798.50 607.50 C 795.54 572.66, 798.65 538.86, 797.50 501.50 C 793.23 451.09, 805.15 401.14, 790.50 367.50 Z" fill="rgb(124.93337408312958,135.31051344743275,87.84229828850856)" stroke="rgb(124.93337408312958,135.31051344743275,87.84229828850856)" stroke-width="1" />
<path d="M 323.50 317.50 C 306.96 323.41, 284.11 321.36, 276.50 340.50 C 261.83 342.61, 266.24 361.36, 270.50 370.50 C 268.29 390.41, 278.76 404.06, 282.50 420.50 C 286.98 429.88, 273.53 428.91, 268.50 430.50 C 252.85 431.92, 239.06 437.49, 228.50 445.50 C 223.11 449.06, 219.01 448.01, 213.50 447.50 C 203.63 453.44, 205.23 464.02, 197.50 468.50 C 198.04 478.99, 194.87 487.94, 198.50 496.50 C 201.61 515.29, 207.22 538.15, 228.50 541.50 C 240.00 550.07, 255.32 545.98, 267.50 549.50 C 282.22 545.62, 297.72 546.06, 309.50 537.50 C 323.54 537.49, 329.30 548.03, 332.50 559.50 C 330.46 568.04, 340.19 564.68, 337.50 573.50 C 344.29 588.53, 354.49 598.73, 359.50 612.50 C 365.86 617.19, 372.34 618.16, 379.50 617.50 C 397.73 615.25, 415.21 613.59, 432.50 611.50 C 442.60 608.62, 449.95 600.92, 445.50 590.50 C 453.41 577.36, 454.50 558.40, 447.50 547.50 C 441.33 540.85, 439.98 533.61, 433.50 528.50 C 427.45 510.17, 456.27 519.11, 465.50 512.50 C 473.07 508.33, 485.83 503.83, 480.50 493.50 C 481.84 478.62, 504.02 476.38, 508.50 490.50 C 521.30 492.79, 523.95 473.08, 511.50 473.50 C 509.02 478.53, 478.49 470.12, 493.50 466.50 C 501.72 466.90, 509.92 468.74, 516.50 465.50 C 515.00 457.24, 513.98 449.77, 512.50 442.50 C 511.27 430.73, 506.97 419.90, 497.50 413.50 C 487.61 409.10, 476.73 410.51, 468.50 405.50 C 451.11 403.39, 433.15 404.65, 417.50 407.50 C 405.98 409.82, 385.88 417.70, 392.50 398.50 C 392.94 387.68, 388.61 379.84, 385.50 371.50 C 383.54 360.21, 375.82 352.72, 370.50 344.50 C 365.14 324.05, 345.51 314.69, 324.50 317.50 Z" fill="rgb(206.59585294005126,192.25437086346074,191.77965874746548)" stroke="rgb(206.59585294005126,192.25437086346074,191.77965874746548)" stroke-width="1" />
<path d="M 3.50 570.50 C -0.27 576.88, 2.22 585.85, 1.50 593.50 C 1.50 605.17, 1.50 615.83, 1.50 626.50 C 1.50 638.50, 1.50 649.50, 1.50 660.50 C 1.50 672.50, 1.50 683.50, 1.50 694.50 C 1.50 706.50, 1.50 717.50, 1.50 728.50 C 1.50 740.50, 1.50 751.50, 1.50 762.50 C 1.50 774.50, 1.50 785.50, 1.50 796.50 C 1.50 808.50, 1.50 819.50, 1.50 830.50 C 1.50 842.50, 1.50 853.50, 1.50 864.50 C 24.50 864.50, 46.50 864.50, 68.50 864.50 C 91.50 864.50, 113.50 864.50, 135.50 864.50 C 140.56 863.55, 147.71 866.63, 149.50 862.50 C 153.07 853.46, 156.47 845.76, 158.50 837.50 C 160.18 830.23, 163.38 825.00, 163.50 818.50 C 168.24 802.34, 171.93 787.15, 174.50 771.50 C 175.70 763.25, 176.64 755.89, 177.50 748.50 C 179.28 731.52, 178.33 716.96, 178.50 700.50 C 178.03 690.69, 178.39 681.13, 176.50 672.50 C 175.72 656.25, 172.52 642.00, 167.50 628.50 C 163.23 619.53, 169.94 604.64, 158.50 601.50 C 147.66 600.72, 130.32 596.43, 133.50 611.50 C 130.38 626.06, 106.75 629.92, 98.50 617.50 C 102.93 607.23, 119.31 610.20, 115.50 597.50 C 106.73 594.56, 99.58 591.11, 92.50 587.50 C 83.47 586.25, 75.53 584.75, 67.50 583.50 C 53.37 581.62, 40.88 579.18, 28.50 576.50 C 19.52 575.59, 12.83 571.56, 4.50 571.50 Z" fill="rgb(64.7924961879604,79.29596460709146,25.714816485192106)" stroke="rgb(64.7924961879604,79.29596460709146,25.714816485192106)" stroke-width="1" />
<path d="M 583.50 501.50 C 577.21 514.17, 591.64 531.22, 598.50 543.50 C 612.08 552.19, 625.13 558.71, 638.50 564.50 C 652.03 567.42, 662.32 574.75, 674.50 577.50 C 682.25 577.29, 691.12 584.25, 686.50 590.50 C 672.50 593.38, 662.10 584.69, 650.50 580.50 C 640.54 578.06, 632.92 569.94, 621.50 571.50 C 620.46 577.33, 626.40 584.18, 628.50 590.50 C 639.47 612.84, 648.88 634.84, 661.50 655.50 C 669.95 671.00, 680.11 683.06, 691.50 695.50 C 699.25 707.49, 709.34 717.09, 717.50 727.50 C 723.62 734.92, 729.19 742.47, 736.50 747.50 C 754.83 763.25, 772.80 776.46, 792.50 785.50 C 801.62 789.48, 797.54 776.28, 798.50 771.50 C 798.50 758.17, 798.50 745.83, 798.50 733.50 C 798.50 720.17, 798.50 707.83, 798.50 695.50 C 798.50 682.17, 798.50 669.83, 798.50 657.50 C 798.50 644.17, 798.50 631.83, 798.50 619.50 C 797.95 609.92, 799.68 600.40, 797.50 592.50 C 779.84 580.88, 762.33 572.30, 744.50 564.50 C 728.31 555.29, 712.93 547.55, 698.50 537.50 C 688.67 532.31, 679.16 529.68, 671.50 524.50 C 657.49 514.17, 641.81 510.28, 626.50 505.50 C 611.97 502.26, 599.37 502.13, 584.50 501.50 Z" fill="rgb(77.07592060415692,92.96785403996525,29.826104390830714)" stroke="rgb(77.07592060415692,92.96785403996525,29.826104390830714)" stroke-width="1" />
<path d="M 2.50 220.50 C 0.51 228.48, 1.92 237.87, 1.50 246.50 C 1.50 260.17, 1.50 272.83, 1.50 285.50 C 1.50 299.50, 1.50 312.50, 1.50 325.50 C 1.84 346.13, 0.65 369.04, 2.50 385.50 C 1.46 393.46, 2.70 398.94, 1.50 405.50 C 9.73 417.31, 26.88 416.18, 37.50 423.50 C 46.44 427.31, 54.20 431.56, 62.50 434.50 C 79.37 441.56, 96.79 444.89, 114.50 447.50 C 130.96 452.29, 147.67 454.03, 164.50 455.50 C 174.79 453.54, 183.35 450.82, 192.50 449.50 C 188.46 440.11, 177.49 438.23, 169.50 433.50 C 166.63 424.05, 154.03 430.29, 150.50 423.50 C 137.41 415.04, 152.28 399.10, 162.50 396.50 C 163.35 383.49, 173.14 371.03, 172.50 360.50 C 168.14 356.44, 163.86 354.56, 160.50 350.50 C 140.89 333.70, 123.60 312.94, 109.50 292.50 C 96.80 285.40, 110.84 270.75, 97.50 267.50 C 83.21 259.87, 71.34 249.81, 57.50 244.50 C 48.78 240.77, 41.92 235.95, 34.50 232.50 C 23.10 228.80, 16.11 217.85, 3.50 220.50 Z" fill="rgb(75.04582723279648,94.0624084919473,25.179904831625183)" stroke="rgb(75.04582723279648,94.0624084919473,25.179904831625183)" stroke-width="1" />
<path d="M 622.50 136.50 C 616.26 137.92, 611.76 143.54, 604.50 142.50 C 589.57 140.93, 600.07 158.80, 591.50 164.50 C 578.03 165.56, 588.90 149.55, 585.50 143.50 C 571.30 144.08, 559.08 147.01, 547.50 151.50 C 537.54 154.04, 527.06 159.41, 523.50 168.50 C 514.85 179.62, 510.08 190.93, 503.50 201.50 C 499.67 211.65, 493.46 219.40, 490.50 228.50 C 487.38 236.06, 482.91 241.65, 481.50 248.50 C 473.95 266.27, 467.35 283.02, 462.50 300.50 C 462.42 310.75, 462.33 320.01, 466.50 327.50 C 473.45 321.64, 475.08 313.99, 479.50 307.50 C 489.99 287.35, 500.11 268.04, 514.50 250.50 C 526.87 231.08, 540.03 212.33, 552.50 195.50 C 562.76 184.65, 572.99 168.11, 583.50 164.50 C 580.65 170.99, 576.12 174.89, 572.50 179.50 C 566.07 187.69, 560.03 195.21, 554.50 201.50 C 538.79 221.79, 525.51 242.09, 512.50 262.50 C 504.33 276.57, 495.60 288.99, 489.50 302.50 C 484.55 310.30, 482.60 318.35, 478.50 325.50 C 476.06 330.59, 474.12 334.48, 472.50 338.50 C 466.56 350.61, 478.72 362.16, 483.50 347.50 C 488.80 338.21, 495.63 330.97, 499.50 322.50 C 503.81 315.08, 509.94 309.82, 513.50 303.50 C 525.25 286.93, 536.63 271.61, 548.50 256.50 C 563.96 239.53, 577.16 220.82, 595.50 205.50 C 605.40 198.70, 597.08 178.09, 608.50 178.50 C 612.27 188.24, 614.04 205.07, 602.50 207.50 C 595.17 210.20, 591.19 218.16, 584.50 223.50 C 569.38 240.07, 555.48 257.80, 541.50 275.50 C 538.16 279.56, 536.52 283.31, 533.50 286.50 C 527.65 293.34, 524.73 300.40, 519.50 306.50 C 512.15 316.41, 506.83 326.16, 500.50 335.50 C 494.91 349.25, 478.97 359.61, 480.50 373.50 C 488.06 379.32, 495.65 371.07, 503.50 372.50 C 519.47 372.80, 528.24 359.15, 539.50 351.50 C 549.71 342.78, 562.53 338.22, 567.50 326.50 C 578.43 306.19, 589.90 287.53, 600.50 268.50 C 604.72 257.57, 611.88 249.27, 615.50 239.50 C 620.85 228.90, 627.90 220.00, 633.50 210.50 C 640.91 193.37, 656.31 180.55, 661.50 163.50 C 664.79 140.67, 641.21 134.57, 623.50 136.50 Z" fill="rgb(87.23277031192208,105.43734845682818,36.94008137097769)" stroke="rgb(87.23277031192208,105.43734845682818,36.94008137097769)" stroke-width="1" />
<path d="M 797.50 85.50 C 773.07 114.63, 744.66 146.52, 721.50 176.50 C 726.11 196.98, 715.93 215.33, 706.50 231.50 C 703.84 236.76, 701.91 241.31, 701.50 246.50 C 711.74 243.61, 721.18 243.88, 730.50 245.50 C 734.29 245.19, 738.69 246.29, 737.50 250.50 C 729.47 262.20, 714.29 255.65, 705.50 264.50 C 689.75 269.11, 675.35 278.43, 667.50 292.50 C 653.51 314.06, 637.34 335.52, 618.50 351.50 C 605.81 364.18, 591.68 378.34, 576.50 387.50 C 570.34 393.71, 563.66 395.29, 558.50 400.50 C 555.51 409.35, 560.96 420.98, 553.50 426.50 C 550.40 431.75, 546.86 439.61, 548.50 443.50 C 561.72 443.50, 573.30 440.97, 584.50 437.50 C 606.22 432.07, 623.26 421.67, 640.50 408.50 C 647.83 401.17, 654.17 394.83, 660.50 388.50 C 678.09 371.38, 689.49 353.10, 702.50 335.50 C 709.88 323.66, 717.55 312.93, 723.50 301.50 C 731.02 289.80, 735.01 278.05, 739.50 266.50 C 744.64 255.17, 749.59 244.76, 752.50 233.50 C 755.74 221.18, 759.66 210.57, 762.50 199.50 C 778.55 162.51, 802.84 129.94, 798.50 85.50 Z" fill="rgb(139.11917059660155,151.1038999925144,120.23594580432668)" stroke="rgb(139.11917059660155,151.1038999925144,120.23594580432668)" stroke-width="1" />
<path d="M 2.50 413.50 C -1.37 415.06, 1.27 420.80, 0.50 424.50 C 0.64 471.92, -0.07 518.68, 1.50 564.50 C 30.24 576.50, 62.30 579.46, 93.50 584.50 C 102.82 590.60, 112.34 593.83, 122.50 595.50 C 138.13 571.16, 145.20 544.70, 150.50 517.50 C 140.53 502.56, 116.78 519.72, 103.50 523.50 C 102.31 541.18, 68.22 541.23, 61.50 523.50 C 76.94 516.39, 98.57 520.67, 106.50 503.50 C 116.65 501.14, 123.69 500.02, 132.50 499.50 C 139.93 494.79, 147.57 491.48, 156.50 489.50 C 170.54 479.37, 135.25 482.81, 126.50 483.50 C 116.39 479.22, 116.25 490.99, 112.50 488.50 C 105.46 494.57, 103.56 479.85, 97.50 485.50 C 80.07 485.60, 73.29 495.12, 55.50 491.50 C 42.71 489.36, 33.75 502.33, 23.50 497.50 C 20.32 479.93, 43.59 479.13, 56.50 480.50 C 69.25 478.24, 81.47 477.10, 93.50 475.50 C 100.41 474.54, 105.05 473.35, 108.50 467.50 C 116.54 462.34, 121.87 470.73, 129.50 468.50 C 141.31 466.38, 153.25 466.99, 163.50 463.50 C 164.68 455.81, 150.85 459.66, 146.50 456.50 C 134.80 455.37, 124.80 452.57, 114.50 450.50 C 100.00 447.91, 86.43 445.47, 73.50 441.50 C 63.13 438.86, 54.96 434.33, 46.50 430.50 C 32.57 422.26, 17.25 419.77, 3.50 413.50 Z" fill="rgb(40.83491718707575,45.271789302199295,31.88813467282107)" stroke="rgb(40.83491718707575,45.271789302199295,31.88813467282107)" stroke-width="1" />
<path d="M 797.50 407.50 C 779.02 413.20, 762.95 424.73, 744.50 430.50 C 743.02 434.93, 740.98 437.55, 737.50 438.50 C 723.11 445.51, 709.40 451.72, 695.50 457.50 C 676.87 466.79, 658.97 474.43, 642.50 485.50 C 635.38 501.11, 661.67 493.23, 669.50 498.50 C 695.41 502.20, 673.14 506.31, 659.50 506.50 C 652.96 509.88, 670.12 513.40, 673.50 518.50 C 684.49 527.13, 695.76 531.67, 706.50 537.50 C 723.68 548.00, 741.20 555.28, 757.50 565.50 C 772.30 571.37, 785.00 579.90, 798.50 586.50 C 800.83 565.99, 798.84 544.70, 799.50 524.50 C 799.50 502.83, 799.50 482.17, 799.50 461.50 C 798.96 442.92, 800.66 424.41, 798.50 407.50 Z" fill="rgb(166.32857142857142,175.88115501519758,174.07315096251267)" stroke="rgb(166.32857142857142,175.88115501519758,174.07315096251267)" stroke-width="1" />
<path d="M 3.50 122.50 C -0.49 125.37, -0.12 133.69, 1.50 138.50 C 1.50 151.17, 1.50 162.83, 1.50 174.50 C 1.50 187.17, 1.50 198.83, 1.50 210.50 C 2.12 217.71, 10.77 216.91, 15.50 217.50 C 29.97 219.77, 45.48 217.14, 58.50 220.50 C 72.30 222.26, 85.38 223.05, 98.50 221.50 C 113.41 218.88, 127.02 215.55, 139.50 209.50 C 154.22 202.76, 167.79 195.67, 180.50 186.50 C 181.99 171.44, 173.39 157.54, 170.50 143.50 C 168.47 136.63, 170.51 124.92, 160.50 127.50 C 146.49 128.66, 134.17 131.51, 121.50 133.50 C 108.19 135.69, 95.75 137.56, 82.50 137.50 C 74.50 137.50, 67.50 137.50, 60.50 137.50 C 40.39 134.70, 22.45 129.09, 4.50 123.50 Z" fill="rgb(31.507614213197968,34.012072986692274,28.554465633145835)" stroke="rgb(31.507614213197968,34.012072986692274,28.554465633145835)" stroke-width="1" />
<path d="M 183.50 187.50 C 164.78 199.79, 145.23 210.08, 124.50 217.50 C 105.19 223.63, 83.02 224.94, 62.50 222.50 C 47.86 219.73, 33.87 219.16, 19.50 220.50 C 21.08 225.63, 33.27 228.20, 39.50 232.50 C 53.88 240.06, 67.09 247.01, 80.50 253.50 C 86.87 258.61, 94.33 262.14, 100.50 266.50 C 106.79 271.05, 118.07 263.25, 118.50 274.50 C 133.63 285.03, 150.77 293.10, 165.50 303.50 C 172.89 304.84, 179.19 314.48, 185.50 308.50 C 186.33 296.50, 199.24 302.85, 196.50 311.50 C 198.98 319.64, 216.67 319.08, 208.50 309.50 C 200.18 299.52, 215.29 299.99, 215.50 308.50 C 225.85 319.89, 236.40 328.33, 247.50 336.50 C 255.42 340.53, 259.24 333.12, 257.50 326.50 C 245.01 311.06, 243.16 290.93, 230.50 277.50 C 221.15 263.20, 218.03 247.73, 209.50 234.50 C 197.62 219.84, 194.28 201.06, 184.50 187.50 Z" fill="rgb(133.7699534044792,148.530512550729,128.01518112129867)" stroke="rgb(133.7699534044792,148.530512550729,128.01518112129867)" stroke-width="1" />
<path d="M 251.50 169.50 C 242.90 171.47, 232.98 170.25, 224.50 172.50 C 212.74 172.33, 205.90 179.51, 208.50 188.50 C 201.22 194.33, 199.23 175.22, 196.50 186.50 C 198.83 196.09, 210.08 218.45, 205.50 198.50 C 205.47 191.24, 209.20 188.97, 209.50 196.50 C 209.96 199.78, 208.46 202.87, 210.50 204.50 C 214.20 206.66, 210.80 211.34, 213.50 213.50 C 216.37 230.53, 220.43 247.41, 230.50 259.50 C 235.18 268.96, 240.50 276.10, 249.50 276.50 C 256.99 293.32, 265.90 305.18, 276.50 318.50 C 282.98 329.27, 291.90 322.08, 300.50 319.50 C 304.88 313.64, 298.79 309.22, 298.50 304.50 C 294.87 293.47, 287.24 283.36, 287.50 273.50 C 295.17 285.52, 302.62 297.34, 308.50 309.50 C 316.26 320.65, 336.67 313.73, 328.50 299.50 C 324.92 281.77, 320.18 265.53, 312.50 250.50 C 307.69 241.14, 301.16 233.92, 297.50 225.50 C 288.68 212.12, 282.27 197.68, 271.50 187.50 C 263.15 184.81, 263.51 168.83, 252.50 169.50 Z" fill="rgb(149.64385820280296,162.90565173582485,149.166162865256)" stroke="rgb(149.64385820280296,162.90565173582485,149.166162865256)" stroke-width="1" />
<path d="M 607.50 0.50 C 620.64 21.78, 645.05 44.83, 666.50 65.50 C 667.33 93.59, 675.59 94.59, 668.50 110.50 C 676.98 126.17, 676.12 94.83, 677.50 88.50 C 684.32 89.65, 689.16 94.17, 694.50 97.50 C 694.45 109.40, 675.18 138.75, 702.50 119.50 C 723.25 95.94, 738.18 69.09, 750.50 42.50 C 755.22 27.99, 761.81 15.26, 763.50 0.50 C 737.17 0.50, 711.83 0.50, 686.50 0.50 C 659.83 0.50, 634.17 0.50, 608.50 0.50 Z" fill="rgb(42.73298018442221,47.16029036688248,25.85677849715519)" stroke="rgb(42.73298018442221,47.16029036688248,25.85677849715519)" stroke-width="1" />
<path d="M 667.50 155.50 C 660.63 165.30, 657.41 181.45, 646.50 191.50 C 636.86 203.16, 633.74 216.10, 624.50 226.50 C 616.74 242.07, 608.08 255.85, 601.50 270.50 C 597.04 281.94, 587.93 290.04, 584.50 300.50 C 578.92 309.26, 574.39 317.04, 571.50 325.50 C 580.53 318.32, 592.94 315.49, 601.50 306.50 C 613.54 299.59, 624.44 292.34, 635.50 285.50 C 653.99 275.40, 671.37 266.05, 689.50 258.50 C 701.47 234.16, 722.04 210.02, 719.50 181.50 C 710.96 162.01, 687.22 158.61, 668.50 155.50 Z" fill="rgb(48.5125,56.36022727272727,27.011742424242424)" stroke="rgb(48.5125,56.36022727272727,27.011742424242424)" stroke-width="1" />
<path d="M 679.50 747.50 C 670.44 751.82, 682.34 769.20, 667.50 768.50 C 659.81 770.96, 660.64 779.57, 655.50 783.50 C 644.19 799.21, 627.85 814.39, 621.50 826.50 C 604.11 883.79, 735.28 877.95, 744.50 840.50 C 747.03 834.11, 751.15 829.79, 750.50 823.50 C 745.35 817.72, 739.17 811.05, 735.50 805.50 C 718.97 787.39, 704.34 769.90, 689.50 752.50 C 686.98 749.01, 683.39 749.11, 680.50 747.50 Z" fill="rgb(30.558367346938777,31.44587755102041,30.281795918367347)" stroke="rgb(30.558367346938777,31.44587755102041,30.281795918367347)" stroke-width="1" />
<path d="M 735.50 288.50 C 723.76 304.58, 715.70 322.19, 704.50 338.50 C 690.67 355.91, 679.17 372.86, 664.50 388.50 C 653.14 401.59, 639.77 411.46, 630.50 423.50 C 639.90 427.32, 646.84 418.82, 654.50 417.50 C 667.45 410.37, 679.44 404.37, 691.50 398.50 C 705.17 390.71, 719.05 386.82, 731.50 379.50 C 753.02 373.35, 772.46 364.57, 795.50 364.50 C 798.66 352.48, 799.61 338.92, 797.50 327.50 C 784.77 318.84, 772.40 312.74, 760.50 305.50 C 750.81 301.98, 745.72 290.76, 736.50 289.50 Z" fill="rgb(41.730632044514195,43.5331716364674,35.959337994007704)" stroke="rgb(41.730632044514195,43.5331716364674,35.959337994007704)" stroke-width="1" />
<path d="M 669.50 155.50 C 661.80 155.63, 663.42 164.68, 661.50 170.50 C 654.95 181.80, 646.92 191.37, 640.50 200.50 C 634.80 215.92, 622.44 227.18, 617.50 241.50 C 618.84 246.00, 624.39 243.21, 627.50 246.50 C 636.51 256.50, 647.65 263.90, 656.50 272.50 C 669.39 266.62, 683.86 263.48, 693.50 254.50 C 698.95 241.94, 703.86 230.57, 709.50 219.50 C 717.39 208.64, 719.18 196.67, 720.50 184.50 C 718.49 173.33, 708.48 166.77, 699.50 163.50 C 689.45 159.82, 680.84 156.07, 670.50 156.50 Z" fill="rgb(41.69411130575394,46.095135426492384,27.43349952836545)" stroke="rgb(41.69411130575394,46.095135426492384,27.43349952836545)" stroke-width="1" />
<path d="M 790.50 366.50 C 769.00 370.15, 748.27 375.67, 728.50 383.50 C 708.52 391.61, 690.51 401.06, 672.50 410.50 C 664.37 414.98, 656.70 418.17, 649.50 422.50 C 634.90 429.58, 622.40 438.32, 610.50 448.50 C 601.12 458.20, 621.47 450.39, 626.50 450.50 C 641.16 447.82, 654.88 445.28, 668.50 442.50 C 683.23 439.19, 697.35 436.81, 711.50 434.50 C 722.31 430.44, 735.25 433.93, 744.50 428.50 C 752.30 423.22, 761.19 423.97, 767.50 418.50 C 777.43 411.24, 789.06 410.52, 798.50 404.50 C 795.88 393.11, 805.26 368.90, 791.50 366.50 Z" fill="rgb(79.62534079494905,94.57612282967428,38.832257138757356)" stroke="rgb(79.62534079494905,94.57612282967428,38.832257138757356)" stroke-width="1" />
<path d="M 0.50 472.50 C 0.50 485.50, 0.50 498.50, 0.50 511.50 C 0.50 525.83, 0.50 539.17, 0.50 552.50 C 1.32 558.10, -1.43 564.19, 2.50 567.50 C 22.83 573.11, 42.77 577.27, 63.50 579.50 C 73.88 581.85, 83.07 584.68, 93.50 584.50 C 101.64 588.81, 124.29 603.34, 123.50 586.50 C 118.87 578.27, 112.00 571.96, 105.50 565.50 C 93.81 551.73, 80.01 538.65, 65.50 531.50 C 56.25 518.51, 43.98 507.18, 31.50 499.50 C 25.10 500.06, 18.14 495.18, 21.50 489.50 C 16.45 481.85, 9.61 474.06, 1.50 472.50 Z" fill="rgb(29.15999417673606,30.13408065220556,28.323191148638813)" stroke="rgb(29.15999417673606,30.13408065220556,28.323191148638813)" stroke-width="1" />
<path d="M 315.50 125.50 C 306.36 127.82, 297.75 131.45, 288.50 133.50 C 273.36 137.15, 256.94 137.53, 242.50 137.50 C 239.17 149.61, 257.40 155.49, 267.50 160.50 C 273.71 167.90, 281.22 178.29, 275.50 187.50 C 285.43 200.31, 292.36 212.95, 299.50 225.50 C 307.05 239.35, 317.08 250.77, 321.50 264.50 C 323.71 277.50, 338.44 301.09, 334.50 275.50 C 334.19 260.16, 332.93 246.21, 333.50 231.50 C 333.82 212.42, 333.36 194.67, 331.50 177.50 C 330.38 171.02, 330.62 164.98, 329.50 159.50 C 332.19 143.51, 322.82 135.87, 316.50 125.50 Z" fill="rgb(35.190605239385725,38.06202950918398,32.13309244203553)" stroke="rgb(35.190605239385725,38.06202950918398,32.13309244203553)" stroke-width="1" />
<path d="M 596.50 657.50 C 603.25 667.34, 613.48 675.34, 622.50 683.50 C 623.81 691.17, 633.93 686.84, 635.50 692.50 C 640.61 701.73, 649.59 700.61, 656.50 704.50 C 665.82 707.51, 659.22 720.57, 667.50 724.50 C 710.10 770.57, 752.70 824.45, 790.50 864.50 C 799.77 852.58, 806.95 799.56, 783.50 793.50 C 767.67 784.08, 751.86 778.04, 737.50 768.50 C 726.86 760.31, 720.36 749.84, 710.50 743.50 C 695.91 728.64, 680.95 718.95, 668.50 707.50 C 658.67 700.85, 652.42 692.01, 642.50 686.50 C 635.72 676.30, 625.83 674.79, 620.50 665.50 C 611.55 663.67, 604.81 659.89, 597.50 657.50 Z" fill="rgb(61.374697824335215,68.90330378726833,28.762288477034648)" stroke="rgb(61.374697824335215,68.90330378726833,28.762288477034648)" stroke-width="1" />
<path d="M 540.50 659.50 C 539.85 666.79, 543.14 672.45, 545.50 678.50 C 549.02 688.42, 549.29 699.28, 553.50 708.50 C 559.32 720.58, 557.59 734.80, 559.50 747.50 C 566.61 761.26, 565.85 774.62, 567.50 791.50 C 553.70 809.22, 585.60 827.58, 566.50 837.50 C 536.23 878.18, 597.94 861.05, 623.50 864.50 C 622.36 851.26, 618.19 840.27, 613.50 829.50 C 606.84 817.44, 608.00 803.14, 595.50 794.50 C 589.32 785.34, 591.21 774.26, 587.50 765.50 C 580.66 751.73, 575.99 738.07, 573.50 723.50 C 567.24 712.10, 566.82 699.29, 561.50 688.50 C 555.96 677.32, 555.46 662.13, 541.50 659.50 Z" fill="rgb(31.412004899959168,33.16169865251123,29.287872601061657)" stroke="rgb(31.412004899959168,33.16169865251123,29.287872601061657)" stroke-width="1" />
<path d="M 417.50 0.50 C 421.27 18.01, 428.48 34.09, 432.50 51.50 C 437.79 63.20, 440.23 75.72, 442.50 86.50 C 450.10 81.40, 461.07 75.56, 462.50 63.50 C 458.62 58.21, 461.65 42.90, 469.50 49.50 C 479.68 57.18, 479.53 73.91, 470.50 81.50 C 463.67 82.36, 461.22 88.45, 459.50 93.50 C 467.68 97.19, 480.78 98.03, 481.50 88.50 C 514.19 71.95, 505.03 34.10, 499.50 2.50 C 474.50 -0.83, 445.17 1.17, 418.50 0.50 Z" fill="rgb(54.916120906801005,70.80050377833753,23.048110831234258)" stroke="rgb(54.916120906801005,70.80050377833753,23.048110831234258)" stroke-width="1" />
<path d="M 795.50 487.50 C 777.64 493.38, 760.13 500.07, 742.50 506.50 C 722.55 512.01, 704.00 517.48, 686.50 525.50 C 697.19 532.57, 708.24 535.37, 717.50 542.50 C 727.81 545.96, 734.97 553.58, 744.50 555.50 C 763.31 565.82, 780.51 576.62, 798.50 585.50 C 800.74 573.95, 798.90 561.72, 799.50 550.50 C 800.20 537.41, 798.49 526.31, 798.50 514.50 C 797.31 505.17, 800.97 493.52, 796.50 487.50 Z" fill="rgb(167.83281304197018,176.76916406520985,178.62140131807146)" stroke="rgb(167.83281304197018,176.76916406520985,178.62140131807146)" stroke-width="1" />
<path d="M 797.50 84.50 C 785.00 96.24, 776.41 111.76, 763.50 125.50 C 749.47 142.49, 734.38 158.04, 721.50 174.50 C 725.98 192.26, 720.08 209.64, 711.50 223.50 C 703.33 238.56, 714.78 243.03, 719.50 243.50 C 732.16 236.20, 740.04 223.73, 749.50 214.50 C 758.98 203.12, 764.58 196.28, 770.50 182.50 C 780.29 163.63, 788.18 145.39, 794.50 126.50 C 800.80 113.61, 797.63 98.22, 798.50 84.50 Z" fill="rgb(52.85933456561922,59.164695009242145,32.189463955637706)" stroke="rgb(52.85933456561922,59.164695009242145,32.189463955637706)" stroke-width="1" />
<path d="M 673.50 718.50 C 660.79 724.09, 674.61 717.78, 673.50 728.50 C 687.80 744.77, 699.55 761.09, 713.50 776.50 C 726.74 791.73, 738.92 806.83, 751.50 820.50 C 759.06 828.99, 769.19 836.01, 771.50 845.50 C 801.22 901.62, 803.31 804.03, 791.50 795.50 C 783.71 797.97, 774.03 786.60, 765.50 784.50 C 747.76 775.96, 731.92 766.48, 718.50 751.50 C 703.15 738.17, 689.40 725.32, 674.50 718.50 Z" fill="rgb(64.58051948051948,71.94545454545455,30.716883116883118)" stroke="rgb(64.58051948051948,71.94545454545455,30.716883116883118)" stroke-width="1" />
<path d="M 797.50 134.50 C 783.58 152.67, 779.02 177.20, 765.50 196.50 C 759.34 219.85, 752.76 242.02, 744.50 263.50 C 754.73 275.49, 775.02 294.08, 789.50 278.50 C 808.09 272.04, 795.87 243.32, 799.50 226.50 C 799.50 212.83, 799.50 200.17, 799.50 187.50 C 800.16 169.09, 798.59 152.60, 798.50 135.50 Z" fill="rgb(38.69565217391305,40.07608695652174,32.23913043478261)" stroke="rgb(38.69565217391305,40.07608695652174,32.23913043478261)" stroke-width="1" />
<path d="M 797.50 134.50 C 786.16 145.24, 785.61 162.87, 776.50 175.50 C 772.74 184.93, 766.91 192.51, 764.50 201.50 C 760.86 215.18, 756.86 227.71, 753.50 240.50 C 750.99 249.63, 744.82 258.43, 745.50 266.50 C 755.42 274.49, 765.21 281.81, 776.50 285.50 C 783.64 279.97, 794.63 278.85, 798.50 272.50 C 798.50 264.17, 798.50 256.83, 798.50 249.50 C 799.02 228.25, 799.97 208.17, 799.50 187.50 C 800.27 168.71, 797.97 152.19, 798.50 134.50 Z" fill="rgb(39.55177304964539,39.87051671732523,35.35136778115501)" stroke="rgb(39.55177304964539,39.87051671732523,35.35136778115501)" stroke-width="1" />
<path d="M 122.50 0.50 C 127.64 11.48, 133.63 25.89, 147.50 27.50 C 163.43 31.66, 178.43 34.66, 193.50 37.50 C 207.42 40.69, 220.94 42.44, 233.50 46.50 C 245.16 48.04, 255.02 51.53, 265.50 53.50 C 271.80 54.69, 269.52 50.29, 268.50 47.50 C 257.73 31.61, 248.51 14.75, 238.50 0.50 C 218.83 0.50, 200.17 0.50, 181.50 0.50 C 161.50 0.50, 142.50 0.50, 123.50 0.50 Z" fill="rgb(175.9987513007284,185.74734651404788,183.3904266389178)" stroke="rgb(175.9987513007284,185.74734651404788,183.3904266389178)" stroke-width="1" />
<path d="M 699.50 749.50 C 688.03 750.14, 699.59 755.62, 702.50 760.50 C 714.22 779.31, 730.05 795.62, 744.50 811.50 C 757.38 823.84, 768.93 835.82, 775.50 851.50 C 780.79 861.36, 786.50 867.03, 797.50 864.50 C 798.23 853.82, 797.05 845.32, 798.50 836.50 C 796.26 825.21, 800.63 813.12, 797.50 802.50 C 789.66 798.26, 782.79 795.08, 776.50 790.50 C 757.50 780.27, 737.38 771.96, 722.50 756.50 C 716.70 747.56, 709.05 750.12, 700.50 749.50 Z" fill="rgb(69.04942528735633,78.42896551724138,28.08022988505747)" stroke="rgb(69.04942528735633,78.42896551724138,28.08022988505747)" stroke-width="1" />
<path d="M 504.50 784.50 C 489.31 791.83, 476.06 799.95, 462.50 810.50 C 449.89 817.03, 437.85 821.52, 428.50 832.50 C 419.23 837.72, 412.18 844.88, 404.50 850.50 C 398.11 847.61, 398.34 855.44, 395.50 858.50 C 389.92 867.92, 403.53 863.36, 408.50 864.50 C 420.17 864.50, 430.83 864.50, 441.50 864.50 C 452.89 867.90, 451.82 855.67, 459.50 852.50 C 476.19 834.04, 496.98 826.00, 515.50 811.50 C 537.59 806.66, 515.27 789.39, 505.50 784.50 Z" fill="rgb(30.1588054041242,30.834320929130126,28.656790708698743)" stroke="rgb(30.1588054041242,30.834320929130126,28.656790708698743)" stroke-width="1" />
<path d="M 668.50 281.50 C 650.73 290.31, 634.25 302.22, 617.50 313.50 C 597.43 328.17, 580.86 342.93, 562.50 357.50 C 537.79 365.77, 544.58 396.23, 563.50 394.50 C 576.12 386.54, 588.09 379.40, 598.50 368.50 C 614.53 353.80, 630.22 339.36, 645.50 322.50 C 653.24 308.78, 670.74 292.80, 669.50 281.50 Z" fill="rgb(44.48663793103448,51.324568965517244,28.622844827586206)" stroke="rgb(44.48663793103448,51.324568965517244,28.622844827586206)" stroke-width="1" />
<path d="M 622.50 829.50 C 614.74 840.16, 626.59 852.55, 625.50 864.50 C 644.17 864.50, 661.83 864.50, 679.50 864.50 C 698.50 864.50, 716.50 864.50, 734.50 864.50 C 738.24 856.67, 750.17 827.08, 744.50 837.50 C 740.38 838.54, 731.36 839.54, 734.50 834.50 C 721.46 829.89, 700.00 836.38, 683.50 832.50 C 662.06 833.35, 642.94 831.04, 623.50 829.50 Z" fill="rgb(32.27420998980632,33.714831804281346,32.038990825688074)" stroke="rgb(32.27420998980632,33.714831804281346,32.038990825688074)" stroke-width="1" />
<path d="M 528.50 805.50 C 522.84 816.61, 508.78 813.03, 501.50 822.50 C 483.75 833.25, 466.53 847.06, 456.50 864.50 C 469.17 864.50, 480.83 864.50, 492.50 864.50 C 511.17 864.50, 528.83 864.50, 546.50 864.50 C 552.44 855.46, 555.27 843.06, 556.50 831.50 C 545.91 824.93, 542.85 809.00, 529.50 805.50 Z" fill="rgb(46.78768745067087,55.033412259931595,32.605893186003684)" stroke="rgb(46.78768745067087,55.033412259931595,32.605893186003684)" stroke-width="1" />
<path d="M 253.50 0.50 C 250.75 6.34, 259.23 8.60, 259.50 14.50 C 269.61 26.96, 270.47 41.84, 281.50 52.50 C 296.87 58.69, 312.10 62.80, 327.50 66.50 C 330.26 55.43, 331.02 45.74, 326.50 36.50 C 333.26 26.38, 324.92 13.82, 323.50 3.50 C 315.06 -1.84, 301.22 1.60, 290.50 0.50 C 277.83 0.50, 266.17 0.50, 254.50 0.50 Z" fill="rgb(123.9256333424135,138.60855352764915,121.43394170525742)" stroke="rgb(123.9256333424135,138.60855352764915,121.43394170525742)" stroke-width="1" />
<path d="M 598.50 71.50 C 595.36 74.38, 584.89 70.34, 588.50 75.50 C 586.41 80.49, 590.15 85.58, 591.50 89.50 C 572.38 163.56, 702.72 134.62, 646.50 87.50 C 631.94 77.88, 616.71 72.30, 599.50 71.50 Z" fill="rgb(68.70535714285714,75.42857142857143,34.089285714285715)" stroke="rgb(68.70535714285714,75.42857142857143,34.089285714285715)" stroke-width="1" />
<path d="M 597.50 71.50 C 593.34 76.60, 590.57 82.29, 591.50 89.50 C 595.42 106.53, 599.22 122.62, 603.50 138.50 C 617.65 134.52, 632.22 131.48, 647.50 134.50 C 651.06 123.80, 668.37 118.29, 663.50 104.50 C 659.86 93.95, 649.23 90.32, 641.50 84.50 C 627.31 78.22, 614.80 70.28, 598.50 71.50 Z" fill="rgb(40.44879267277269,42.70913127948931,36.744379683597)" stroke="rgb(40.44879267277269,42.70913127948931,36.744379683597)" stroke-width="1" />
<path d="M 586.50 787.50 C 580.19 793.29, 565.39 784.51, 568.50 797.50 C 563.73 809.39, 571.46 818.83, 574.50 829.50 C 562.42 836.33, 562.44 851.20, 557.50 862.50 C 577.17 865.17, 603.83 865.17, 623.50 863.50 C 616.62 835.53, 609.88 806.19, 587.50 787.50 Z" fill="rgb(35.61789883268482,38.31750972762646,29.637354085603114)" stroke="rgb(35.61789883268482,38.31750972762646,29.637354085603114)" stroke-width="1" />
<path d="M 177.50 365.50 C 167.68 371.02, 159.45 396.46, 174.50 398.50 C 184.14 404.38, 171.34 412.47, 177.50 418.50 C 186.67 421.04, 195.73 421.43, 204.50 422.50 C 219.28 424.22, 233.35 425.25, 246.50 428.50 C 252.06 430.39, 256.98 430.89, 261.50 428.50 C 258.62 421.06, 256.09 414.06, 252.50 407.50 C 234.44 395.85, 216.70 386.81, 199.50 376.50 C 191.30 373.47, 185.94 366.96, 178.50 365.50 Z" fill="rgb(41.126686217008796,47.08680351906158,32.63548387096774)" stroke="rgb(41.126686217008796,47.08680351906158,32.63548387096774)" stroke-width="1" />
<path d="M 190.50 503.50 C 182.67 504.78, 175.46 507.53, 167.50 508.50 C 142.52 508.67, 153.67 543.31, 141.50 557.50 C 139.69 565.36, 131.01 576.92, 138.50 581.50 C 156.68 568.85, 175.06 559.11, 193.50 549.50 C 224.04 544.32, 199.84 514.31, 191.50 503.50 Z" fill="rgb(47.10434782608696,46.95652173913044,30.504347826086956)" stroke="rgb(47.10434782608696,46.95652173913044,30.504347826086956)" stroke-width="1" />
<path d="M 189.50 503.50 C 181.10 506.14, 172.37 507.98, 163.50 509.50 C 150.25 507.97, 152.94 522.73, 150.50 530.50 C 146.76 545.88, 140.58 559.26, 136.50 573.50 C 132.21 583.08, 143.54 580.40, 146.50 575.50 C 159.62 566.40, 173.25 559.30, 187.50 552.50 C 195.92 548.58, 202.59 544.44, 210.50 540.50 C 216.13 535.33, 204.21 531.57, 203.50 525.50 C 197.08 518.60, 202.62 501.59, 190.50 503.50 Z" fill="rgb(36.47591888466413,39.75126742712294,34.955640050697085)" stroke="rgb(36.47591888466413,39.75126742712294,34.955640050697085)" stroke-width="1" />
<path d="M 605.50 0.50 C 606.28 10.85, 623.16 21.09, 629.50 32.50 C 642.01 38.90, 650.09 50.61, 659.50 60.50 C 672.30 69.69, 671.21 45.59, 675.50 38.50 C 681.93 25.26, 686.55 12.69, 694.50 1.50 C 680.17 0.50, 665.83 0.50, 651.50 0.50 C 635.83 0.50, 621.17 0.50, 606.50 0.50 Z" fill="rgb(39.77078005115089,42.94277493606138,26.40249360613811)" stroke="rgb(39.77078005115089,42.94277493606138,26.40249360613811)" stroke-width="1" />
<path d="M 556.50 0.50 C 611.69 128.46, 703.69 46.91, 556.50 0.50 Z" fill="rgb(78.5,72.0,52.35)" stroke="rgb(78.5,72.0,52.35)" stroke-width="1" />
<path d="M 556.50 0.50 C 535.81 88.68, 730.48 81.10, 618.50 42.50 C 589.55 39.85, 582.82 0.92, 557.50 0.50 Z" fill="rgb(88.22727272727273,83.68181818181819,66.36363636363636)" stroke="rgb(88.22727272727273,83.68181818181819,66.36363636363636)" stroke-width="1" />
<path d="M 556.50 0.50 C 556.47 3.79, 556.03 7.25, 558.50 9.50 C 562.41 16.60, 562.79 24.15, 568.50 29.50 C 576.53 73.28, 620.19 73.06, 659.50 70.50 C 656.09 53.82, 637.94 39.02, 617.50 42.50 C 599.13 35.80, 583.06 22.52, 574.50 5.50 C 572.07 -2.47, 563.07 1.56, 557.50 0.50 Z" fill="rgb(109.12101910828025,97.08152866242038,87.52229299363057)" stroke="rgb(109.12101910828025,97.08152866242038,87.52229299363057)" stroke-width="1" />
<path d="M 222.50 545.50 C 209.51 552.19, 196.68 559.27, 183.50 565.50 C 168.83 572.33, 156.51 579.98, 145.50 589.50 C 141.55 597.08, 160.13 585.69, 162.50 596.50 C 171.80 604.37, 168.61 615.58, 169.50 624.50 C 173.16 631.96, 193.45 628.57, 195.50 620.50 C 200.37 608.19, 196.29 609.86, 195.50 598.50 C 196.83 579.54, 223.50 574.47, 232.50 559.50 C 232.86 555.89, 230.71 546.44, 223.50 545.50 Z" fill="rgb(41.973404255319146,46.070035460992905,34.6156914893617)" stroke="rgb(41.973404255319146,46.070035460992905,34.6156914893617)" stroke-width="1" />
<path d="M 557.50 67.50 C 541.32 78.97, 548.70 108.58, 505.50 90.50 C 505.51 98.26, 500.79 104.37, 503.50 110.50 C 522.53 115.81, 539.63 122.38, 556.50 129.50 C 565.54 132.19, 575.20 138.76, 583.50 134.50 C 581.52 114.58, 574.17 97.89, 568.50 80.50 C 565.61 75.08, 565.49 66.23, 558.50 67.50 Z" fill="rgb(50.24025974025974,56.25108225108225,31.958874458874458)" stroke="rgb(50.24025974025974,56.25108225108225,31.958874458874458)" stroke-width="1" />
<path d="M 752.50 44.50 C 743.50 59.57, 737.73 76.63, 725.50 89.50 C 708.25 106.32, 735.53 105.98, 746.50 108.50 C 753.29 111.00, 760.66 112.23, 763.50 118.50 C 774.70 112.22, 781.11 100.75, 787.50 90.50 C 783.32 79.88, 774.61 72.14, 770.50 62.50 C 763.08 56.06, 761.52 45.92, 753.50 44.50 Z" fill="rgb(36.035945363048164,37.35945363048167,33.205966930265994)" stroke="rgb(36.035945363048164,37.35945363048167,33.205966930265994)" stroke-width="1" />
<path d="M 534.50 378.50 C 522.61 393.02, 480.26 405.05, 507.50 421.50 C 518.86 489.82, 586.17 395.46, 535.50 378.50 Z" fill="rgb(147.85714285714286,141.58241758241758,114.56043956043956)" stroke="rgb(147.85714285714286,141.58241758241758,114.56043956043956)" stroke-width="1" />
<path d="M 767.50 0.50 C 764.91 3.65, 765.28 8.02, 763.50 11.50 C 748.80 93.34, 829.99 73.81, 796.50 0.50 C 786.50 0.50, 777.50 0.50, 768.50 0.50 Z" fill="rgb(39.888888888888886,39.333333333333336,37.5)" stroke="rgb(39.888888888888886,39.333333333333336,37.5)" stroke-width="1" />
<path d="M 551.50 68.50 C 537.72 69.77, 552.41 85.56, 546.50 94.50 C 531.30 97.82, 523.25 86.28, 509.50 88.50 C 500.61 96.52, 503.32 115.01, 517.50 113.50 C 528.66 117.05, 539.95 117.89, 550.50 120.50 C 559.24 127.29, 588.52 135.93, 578.50 115.50 C 573.74 106.86, 575.78 98.33, 570.50 90.50 C 566.11 81.33, 565.99 65.18, 552.50 68.50 Z" fill="rgb(73.00762439807383,84.16813804173354,51.65690208667737)" stroke="rgb(73.00762439807383,84.16813804173354,51.65690208667737)" stroke-width="1" />
<path d="M 767.50 0.50 C 764.81 11.91, 760.58 24.12, 758.50 34.50 C 761.41 47.48, 766.44 59.33, 778.50 64.50 C 783.81 69.71, 791.85 75.44, 797.50 75.50 C 800.21 55.07, 799.27 34.54, 799.50 14.50 C 805.50 -7.17, 780.95 2.72, 768.50 0.50 Z" fill="rgb(35.72691240586603,37.293301625049544,33.25247720967103)" stroke="rgb(35.72691240586603,37.293301625049544,33.25247720967103)" stroke-width="1" />
<path d="M 379.50 772.50 C 371.25 787.05, 377.06 804.84, 371.50 820.50 C 368.19 828.77, 361.43 839.66, 357.50 849.50 C 349.81 848.22, 356.23 860.96, 347.50 864.50 C 363.17 861.65, 386.14 871.91, 392.50 855.50 C 394.88 848.02, 397.58 842.39, 395.50 835.50 C 399.47 824.17, 398.18 812.86, 395.50 802.50 C 390.26 791.70, 393.10 776.71, 380.50 772.50 Z" fill="rgb(86.81032412965186,101.19407763105242,54.99039615846338)" stroke="rgb(86.81032412965186,101.19407763105242,54.99039615846338)" stroke-width="1" />
<path d="M 119.50 282.50 C 119.11 285.68, 118.97 292.90, 123.50 294.50 C 129.56 304.83, 136.45 313.41, 144.50 321.50 C 157.46 336.70, 172.47 349.79, 188.50 358.50 C 194.45 353.85, 211.14 358.50, 207.50 347.50 C 197.80 337.99, 191.58 325.28, 181.50 316.50 C 171.24 308.86, 160.53 305.71, 151.50 298.50 C 140.97 291.36, 131.28 285.61, 120.50 282.50 Z" fill="rgb(75.92415730337079,95.31340288924558,24.64887640449438)" stroke="rgb(75.92415730337079,95.31340288924558,24.64887640449438)" stroke-width="1" />
<path d="M 710.50 445.50 C 696.01 448.25, 680.75 449.16, 666.50 452.50 C 655.47 454.11, 645.61 456.10, 635.50 457.50 C 622.30 460.49, 609.73 462.59, 597.50 465.50 C 590.59 466.60, 581.40 478.14, 588.50 482.50 C 600.49 484.26, 609.27 491.34, 620.50 492.50 C 634.52 485.20, 648.98 476.41, 663.50 470.50 C 679.13 463.40, 694.05 457.03, 708.50 449.50 C 712.52 448.98, 717.15 444.31, 711.50 445.50 Z" fill="rgb(75.89252525252525,91.30181818181818,35.32727272727273)" stroke="rgb(75.89252525252525,91.30181818181818,35.32727272727273)" stroke-width="1" />
<path d="M 182.50 128.50 C 174.81 138.41, 189.19 154.43, 188.50 167.50 C 194.80 187.15, 200.68 168.92, 205.50 160.50 C 214.77 157.23, 213.64 166.29, 216.50 170.50 C 228.26 170.05, 238.31 167.90, 249.50 168.50 C 263.84 160.31, 240.46 147.94, 239.50 138.50 C 246.12 135.91, 236.87 136.46, 234.50 136.50 C 218.18 130.58, 200.14 131.24, 183.50 128.50 Z" fill="rgb(36.66750208855472,40.88137009189641,33.702589807852966)" stroke="rgb(36.66750208855472,40.88137009189641,33.702589807852966)" stroke-width="1" />
<path d="M 535.50 0.50 C 537.79 11.82, 542.85 21.99, 549.50 31.50 C 555.20 43.15, 561.24 53.25, 564.50 64.50 C 571.84 82.61, 577.58 100.39, 582.50 118.50 C 583.74 130.72, 588.82 141.21, 600.50 140.50 C 597.21 117.93, 591.64 96.89, 584.50 76.50 C 580.50 61.34, 573.16 48.98, 568.50 35.50 C 563.11 25.27, 559.89 15.14, 555.50 5.50 C 554.75 -3.32, 542.57 2.11, 536.50 0.50 Z" fill="rgb(112.16574819838915,120.56930902924968,60.07672742687579)" stroke="rgb(112.16574819838915,120.56930902924968,60.07672742687579)" stroke-width="1" />
<path d="M 591.50 29.50 C 585.59 33.70, 578.70 37.28, 571.50 35.50 C 574.24 45.81, 577.76 58.33, 588.50 60.50 C 600.70 72.37, 617.47 70.63, 632.50 69.50 C 641.90 70.85, 657.87 74.75, 663.50 68.50 C 655.68 59.73, 649.39 48.50, 639.50 43.50 C 620.20 45.99, 605.68 39.37, 592.50 29.50 Z" fill="rgb(113.68133276377617,101.15719777872704,95.78556172575823)" stroke="rgb(113.68133276377617,101.15719777872704,95.78556172575823)" stroke-width="1" />
<path d="M 589.50 793.50 C 581.78 797.58, 585.70 805.66, 583.50 812.50 C 581.32 821.48, 582.09 830.98, 581.50 838.50 C 580.99 848.40, 581.27 858.22, 583.50 864.50 C 596.87 863.21, 614.45 867.11, 623.50 862.50 C 620.74 845.10, 614.07 830.32, 607.50 815.50 C 607.06 805.39, 599.80 795.33, 590.50 793.50 Z" fill="rgb(34.656474820143885,36.32464028776978,29.901079136690647)" stroke="rgb(34.656474820143885,36.32464028776978,29.901079136690647)" stroke-width="1" />
<path d="M 477.50 0.50 C 476.27 8.43, 480.27 17.42, 479.50 26.50 C 481.56 44.22, 479.95 63.37, 480.50 79.50 C 480.69 100.84, 488.41 73.07, 498.50 74.50 C 506.55 78.91, 496.33 89.02, 502.50 87.50 C 505.95 68.57, 506.43 47.90, 504.50 29.50 C 502.97 19.31, 502.78 9.97, 500.50 1.50 C 493.17 0.50, 485.83 0.50, 478.50 0.50 Z" fill="rgb(44.73006724303554,54.403458213256485,23.64745437079731)" stroke="rgb(44.73006724303554,54.403458213256485,23.64745437079731)" stroke-width="1" />
<path d="M 272.50 559.50 C 262.69 562.36, 257.51 572.13, 251.50 580.50 C 247.77 582.69, 249.83 588.82, 245.50 589.50 C 239.89 603.93, 231.38 615.28, 230.50 631.50 C 225.32 633.31, 227.85 639.86, 225.50 643.50 C 224.84 653.02, 219.85 665.43, 227.50 671.50 C 226.43 683.68, 231.80 681.11, 231.50 672.50 C 236.15 668.43, 238.77 674.99, 239.50 663.50 C 244.43 648.35, 245.95 632.80, 250.50 618.50 C 254.58 612.61, 254.00 606.21, 257.50 601.50 C 262.22 595.55, 261.43 588.31, 266.50 583.50 C 268.04 574.81, 278.23 568.31, 273.50 560.50 Z" fill="rgb(119.95007488766849,135.99151273090365,117.32800798801797)" stroke="rgb(119.95007488766849,135.99151273090365,117.32800798801797)" stroke-width="1" />
<path d="M 1.50 0.50 C 1.65 3.35, 1.59 11.02, 5.50 7.50 C 17.11 11.25, 29.83 9.90, 40.50 13.50 C 52.74 14.26, 64.00 14.96, 74.50 17.50 C 89.59 19.95, 103.31 23.30, 117.50 25.50 C 137.04 28.31, 115.19 9.58, 113.50 1.50 C 94.50 0.50, 76.50 0.50, 58.50 0.50 C 39.17 0.50, 20.83 0.50, 2.50 0.50 Z" fill="rgb(126.3013698630137,139.70979198376457,119.10299340436326)" stroke="rgb(126.3013698630137,139.70979198376457,119.10299340436326)" stroke-width="1" />
<path d="M 587.50 335.50 C 571.87 347.78, 556.61 360.96, 541.50 374.50 C 546.14 382.35, 552.72 388.78, 554.50 397.50 C 572.13 391.44, 586.72 379.44, 600.50 365.50 C 598.35 354.07, 592.67 345.10, 588.50 335.50 Z" fill="rgb(48.180976863753216,60.94910025706941,26.23393316195373)" stroke="rgb(48.180976863753216,60.94910025706941,26.23393316195373)" stroke-width="1" />
<path d="M 535.50 16.50 C 531.36 19.98, 526.57 21.87, 522.50 25.50 C 504.27 25.42, 501.64 56.09, 519.50 55.50 C 529.09 57.14, 533.72 67.34, 542.50 67.50 C 549.42 65.21, 561.76 68.78, 561.50 61.50 C 554.67 45.59, 547.44 27.76, 536.50 16.50 Z" fill="rgb(46.83577878103837,53.478555304740404,30.765801354401805)" stroke="rgb(46.83577878103837,53.478555304740404,30.765801354401805)" stroke-width="1" />
<path d="M 731.50 432.50 C 711.03 435.83, 690.44 438.88, 670.50 443.50 C 659.12 445.40, 648.86 447.57, 638.50 449.50 C 627.06 452.04, 616.12 453.38, 605.50 455.50 C 591.21 458.75, 577.37 460.65, 563.50 462.50 C 557.53 463.24, 552.47 463.76, 547.50 464.50 C 536.28 466.10, 524.88 464.87, 515.50 468.50 C 511.33 474.45, 521.29 473.48, 525.50 473.50 C 538.86 472.24, 551.23 470.98, 563.50 469.50 C 584.76 465.65, 605.14 462.10, 625.50 458.50 C 639.02 455.96, 651.10 453.34, 663.50 451.50 C 676.45 449.37, 688.44 447.36, 700.50 445.50 C 706.43 444.66, 711.82 444.94, 716.50 443.50 C 723.89 444.78, 747.35 432.98, 732.50 432.50 Z" fill="rgb(169.14977477477478,177.8322072072072,171.09177927927928)" stroke="rgb(169.14977477477478,177.8322072072072,171.09177927927928)" stroke-width="1" />
<path d="M 134.50 531.50 C 123.21 532.34, 112.80 535.29, 102.50 538.50 C 88.36 536.74, 93.53 555.40, 102.50 558.50 C 107.86 564.15, 111.52 569.10, 116.50 573.50 C 121.54 577.59, 124.08 586.69, 128.50 585.50 C 135.02 573.33, 137.25 560.79, 142.50 549.50 C 146.80 542.02, 147.99 527.74, 135.50 531.50 Z" fill="rgb(57.33810888252149,64.1621776504298,39.30085959885387)" stroke="rgb(57.33810888252149,64.1621776504298,39.30085959885387)" stroke-width="1" />
<path d="M 491.50 466.50 C 480.54 472.07, 466.86 471.06, 457.50 480.50 C 438.14 482.78, 421.23 488.54, 401.50 487.50 C 394.40 486.74, 384.18 482.85, 379.50 487.50 C 392.51 495.89, 410.41 497.07, 425.50 493.50 C 442.63 492.09, 459.06 483.88, 475.50 489.50 C 487.92 487.17, 500.14 484.26, 505.50 472.50 C 506.52 463.97, 497.09 467.14, 492.50 466.50 Z" fill="rgb(106.5139470013947,86.19456066945607,83.04463040446304)" stroke="rgb(106.5139470013947,86.19456066945607,83.04463040446304)" stroke-width="1" />
<path d="M 54.50 489.50 C 45.81 491.63, 37.71 495.20, 29.50 498.50 C 42.16 499.60, 49.52 514.91, 60.50 521.50 C 76.09 517.84, 99.96 520.79, 105.50 504.50 C 89.88 494.71, 68.67 501.81, 55.50 489.50 Z" fill="rgb(32.530196629213485,33.29634831460674,31.110955056179776)" stroke="rgb(32.530196629213485,33.29634831460674,31.110955056179776)" stroke-width="1" />
<path d="M 534.50 378.50 C 521.26 389.07, 509.09 398.35, 495.50 408.50 C 506.20 424.70, 524.31 410.89, 541.50 412.50 C 561.45 410.61, 551.29 379.03, 535.50 378.50 Z" fill="rgb(131.59471698113208,109.35471698113207,77.77358490566037)" stroke="rgb(131.59471698113208,109.35471698113207,77.77358490566037)" stroke-width="1" />
<path d="M 761.50 0.50 C 758.98 15.00, 749.97 26.81, 745.50 40.50 C 736.76 55.14, 729.49 68.97, 721.50 82.50 C 717.44 96.48, 699.98 90.83, 694.50 102.50 C 694.82 112.24, 688.95 118.36, 681.50 120.50 C 683.45 128.04, 695.51 129.62, 700.50 122.50 C 711.59 113.25, 715.85 102.59, 721.50 92.50 C 732.09 79.20, 740.51 63.86, 747.50 49.50 C 751.13 43.04, 751.63 36.28, 754.50 30.50 C 756.64 19.85, 765.57 9.52, 762.50 0.50 Z" fill="rgb(74.77378277153558,81.30711610486891,32.557303370786514)" stroke="rgb(74.77378277153558,81.30711610486891,32.557303370786514)" stroke-width="1" />
<path d="M 513.50 581.50 C 477.75 585.41, 534.41 614.91, 545.50 626.50 C 559.29 605.03, 539.37 576.17, 514.50 581.50 Z" fill="rgb(136.74193548387098,135.80645161290323,101.51612903225806)" stroke="rgb(136.74193548387098,135.80645161290323,101.51612903225806)" stroke-width="1" />
<path d="M 515.50 581.50 C 510.43 584.21, 501.05 580.06, 498.50 586.50 C 513.25 601.90, 529.06 613.76, 544.50 626.50 C 551.22 620.37, 552.27 607.35, 547.50 599.50 C 542.59 586.59, 529.79 579.81, 516.50 581.50 Z" fill="rgb(111.80030487804878,95.65625,66.81173780487805)" stroke="rgb(111.80030487804878,95.65625,66.81173780487805)" stroke-width="1" />
<path d="M 487.50 498.50 C 482.92 505.03, 496.46 505.47, 500.50 508.50 C 536.99 523.98, 571.48 541.88, 606.50 558.50 C 628.19 567.77, 648.65 576.61, 669.50 584.50 C 674.73 586.43, 678.59 589.24, 683.50 589.50 C 689.90 580.85, 676.83 583.96, 672.50 581.50 C 662.61 577.71, 654.45 573.16, 645.50 570.50 C 632.16 565.33, 620.67 559.08, 608.50 554.50 C 595.36 547.85, 583.36 541.85, 571.50 535.50 C 543.54 522.59, 517.48 507.53, 488.50 499.50 Z" fill="rgb(132.3631067961165,142.75339805825243,122.62912621359223)" stroke="rgb(132.3631067961165,142.75339805825243,122.62912621359223)" stroke-width="1" />
<path d="M 710.50 328.50 C 696.46 337.93, 712.14 345.28, 722.50 347.50 C 739.54 351.79, 754.60 358.44, 769.50 365.50 C 777.71 367.12, 809.37 365.32, 791.50 358.50 C 782.92 353.35, 773.20 353.37, 765.50 348.50 C 747.31 340.69, 728.58 336.59, 711.50 328.50 Z" fill="rgb(43.51109350237718,46.56101426307448,31.734548335974644)" stroke="rgb(43.51109350237718,46.56101426307448,31.734548335974644)" stroke-width="1" />
<path d="M 550.50 407.50 C 538.82 417.25, 520.24 410.32, 507.50 417.50 C 507.81 422.79, 511.08 426.26, 512.50 430.50 C 513.56 436.14, 514.99 440.63, 515.50 445.50 C 531.05 450.76, 547.41 439.66, 550.50 425.50 C 550.12 418.49, 554.32 412.73, 551.50 407.50 Z" fill="rgb(110.01106719367588,93.79130434782608,62.17944664031621)" stroke="rgb(110.01106719367588,93.79130434782608,62.17944664031621)" stroke-width="1" />
<path d="M 694.50 10.50 C 689.22 15.17, 686.64 20.95, 683.50 26.50 C 677.01 41.02, 672.12 55.21, 667.50 69.50 C 666.09 84.08, 663.78 99.22, 667.50 112.50 C 667.61 121.56, 677.66 118.35, 676.50 111.50 C 677.50 103.50, 677.50 96.50, 677.50 89.50 C 677.73 67.52, 684.25 49.15, 692.50 31.50 C 696.02 25.10, 700.32 15.34, 695.50 10.50 Z" fill="rgb(62.14591593973037,68.8263283108644,22.068992862807296)" stroke="rgb(62.14591593973037,68.8263283108644,22.068992862807296)" stroke-width="1" />
<path d="M 508.50 55.50 C 508.77 66.22, 506.49 75.89, 506.50 86.50 C 511.48 88.89, 516.16 90.99, 521.50 91.50 C 530.01 94.02, 538.04 95.27, 546.50 95.50 C 547.80 86.69, 545.52 79.94, 542.50 73.50 C 532.58 64.23, 522.96 55.23, 509.50 55.50 Z" fill="rgb(50.440842787682335,57.71474878444084,25.038897893030793)" stroke="rgb(50.440842787682335,57.71474878444084,25.038897893030793)" stroke-width="1" />
<path d="M 740.50 268.50 C 737.23 276.03, 731.81 286.84, 743.50 289.50 C 758.66 302.21, 774.40 310.07, 789.50 319.50 C 799.31 328.81, 800.72 319.67, 799.50 310.50 C 788.21 303.67, 777.97 295.30, 767.50 287.50 C 760.86 277.99, 750.08 274.56, 741.50 268.50 Z" fill="rgb(81.55483870967743,88.49274193548388,29.55564516129032)" stroke="rgb(81.55483870967743,88.49274193548388,29.55564516129032)" stroke-width="1" />
<path d="M 572.50 0.50 C 574.77 7.08, 581.05 12.00, 583.50 18.50 C 598.69 31.76, 614.68 45.15, 634.50 40.50 C 628.19 28.23, 613.08 19.26, 604.50 7.50 C 601.85 -5.21, 583.60 2.90, 573.50 0.50 Z" fill="rgb(45.41272430668842,48.250407830342574,32.023654159869494)" stroke="rgb(45.41272430668842,48.250407830342574,32.023654159869494)" stroke-width="1" />
<path d="M 412.50 764.50 C 405.33 768.67, 397.60 770.35, 391.50 775.50 C 394.21 788.62, 398.13 800.24, 400.50 812.50 C 413.88 817.10, 425.93 805.14, 421.50 792.50 C 419.18 782.40, 426.40 765.16, 413.50 764.50 Z" fill="rgb(32.49093904448105,36.60296540362438,32.5996705107084)" stroke="rgb(32.49093904448105,36.60296540362438,32.5996705107084)" stroke-width="1" />
<path d="M 484.50 504.50 C 476.26 510.58, 455.71 518.04, 471.50 526.50 C 486.24 535.26, 496.60 546.95, 510.50 554.50 C 511.31 543.14, 504.46 534.54, 503.50 523.50 C 503.45 511.88, 494.05 506.72, 485.50 504.50 Z" fill="rgb(45.272416737830916,50.34756618274979,37.23654995730145)" stroke="rgb(45.272416737830916,50.34756618274979,37.23654995730145)" stroke-width="1" />
<path d="M 436.50 518.50 C 434.27 530.82, 453.06 544.28, 462.50 555.50 C 470.90 560.94, 480.17 560.88, 487.50 565.50 C 495.04 569.44, 492.93 583.29, 501.50 579.50 C 509.53 581.95, 530.09 579.14, 514.50 574.50 C 493.22 566.35, 476.82 549.82, 459.50 535.50 C 451.17 530.29, 445.97 520.96, 437.50 519.50 Z" fill="rgb(105.93738140417457,115.3358633776091,49.769449715370015)" stroke="rgb(105.93738140417457,115.3358633776091,49.769449715370015)" stroke-width="1" />
<path d="M 499.50 95.50 C 487.71 104.43, 480.46 120.20, 474.50 132.50 C 468.97 142.98, 485.16 147.84, 492.50 142.50 C 511.27 147.09, 513.06 129.42, 501.50 119.50 C 495.05 112.43, 503.07 103.64, 499.50 96.50 Z" fill="rgb(56.5491452991453,68.38141025641026,28.09508547008547)" stroke="rgb(56.5491452991453,68.38141025641026,28.09508547008547)" stroke-width="1" />
<path d="M 216.50 539.50 C 201.94 547.43, 187.15 554.80, 172.50 562.50 C 155.62 571.37, 140.40 581.85, 126.50 595.50 C 120.36 600.43, 121.05 608.29, 116.50 611.50 C 111.11 613.83, 105.20 612.50, 101.50 616.50 C 105.20 624.42, 117.00 621.14, 123.50 620.50 C 129.94 612.35, 122.30 613.44, 126.50 604.50 C 133.55 594.62, 143.76 587.63, 152.50 580.50 C 167.21 570.20, 182.56 563.84, 197.50 556.50 C 204.44 551.16, 232.76 542.64, 217.50 539.50 Z" fill="rgb(157.2036503362152,165.86647454370797,159.28530259365994)" stroke="rgb(157.2036503362152,165.86647454370797,159.28530259365994)" stroke-width="1" />
<path d="M 522.50 489.50 C 515.04 496.28, 529.73 493.94, 533.50 495.50 C 549.92 496.29, 565.60 496.47, 580.50 498.50 C 597.97 498.36, 613.04 501.61, 629.50 501.50 C 647.03 502.69, 662.60 505.19, 679.50 504.50 C 691.31 502.49, 678.32 500.56, 673.50 500.50 C 665.20 499.75, 657.73 499.41, 650.50 498.50 C 640.86 497.78, 632.09 497.35, 623.50 496.50 C 615.70 495.34, 608.42 495.35, 601.50 494.50 C 582.33 492.77, 564.01 491.41, 545.50 490.50 C 537.35 490.52, 530.93 488.80, 523.50 489.50 Z" fill="rgb(151.46504559270517,161.10638297872342,149.19655521783181)" stroke="rgb(151.46504559270517,161.10638297872342,149.19655521783181)" stroke-width="1" />
<path d="M 754.50 827.50 C 746.51 836.73, 745.49 848.85, 738.50 858.50 C 733.02 868.93, 751.12 862.72, 757.50 864.50 C 765.83 864.50, 773.17 864.50, 780.50 864.50 C 770.24 852.30, 768.31 837.65, 755.50 827.50 Z" fill="rgb(143.34300518134714,154.2,153.77720207253887)" stroke="rgb(143.34300518134714,154.2,153.77720207253887)" stroke-width="1" />
<path d="M 133.50 510.50 C 123.70 516.12, 112.44 518.21, 102.50 523.50 C 102.56 528.25, 93.84 529.27, 98.50 534.50 C 108.29 538.14, 122.43 528.93, 135.50 530.50 C 147.73 533.71, 150.73 523.18, 150.50 514.50 C 148.07 508.19, 139.73 511.37, 134.50 510.50 Z" fill="rgb(32.439293598233995,33.480132450331126,31.692052980132452)" stroke="rgb(32.439293598233995,33.480132450331126,31.692052980132452)" stroke-width="1" />
<path d="M 506.50 178.50 C 498.34 185.29, 491.77 192.08, 486.50 200.50 C 478.18 214.81, 471.73 228.49, 468.50 243.50 C 465.57 251.59, 464.84 259.17, 463.50 266.50 C 468.94 263.94, 472.30 251.47, 476.50 244.50 C 484.21 225.49, 493.71 208.65, 502.50 191.50 C 502.67 186.20, 510.66 179.13, 507.50 178.50 Z" fill="rgb(93.04293785310735,108.14124293785311,39.09830508474576)" stroke="rgb(93.04293785310735,108.14124293785311,39.09830508474576)" stroke-width="1" />
<path d="M 207.50 355.50 C 202.49 358.75, 195.36 356.88, 190.50 360.50 C 205.89 371.16, 221.80 379.57, 237.50 388.50 C 247.17 394.65, 243.22 380.26, 241.50 375.50 C 230.51 366.54, 222.41 353.99, 208.50 355.50 Z" fill="rgb(44.74057142857143,52.49257142857143,33.34742857142857)" stroke="rgb(44.74057142857143,52.49257142857143,33.34742857142857)" stroke-width="1" />
<path d="M 470.50 136.50 C 466.58 143.07, 482.59 150.10, 488.50 154.50 C 498.83 156.57, 506.16 162.45, 515.50 163.50 C 523.54 162.48, 528.55 150.78, 520.50 147.50 C 512.97 141.15, 503.14 142.75, 494.50 141.50 C 485.63 141.80, 480.16 135.29, 471.50 136.50 Z" fill="rgb(77.36961722488039,87.88875598086125,26.034688995215312)" stroke="rgb(77.36961722488039,87.88875598086125,26.034688995215312)" stroke-width="1" />
<path d="M 458.50 565.50 C 441.72 582.56, 471.71 619.64, 489.50 598.50 C 479.61 587.50, 471.68 573.61, 459.50 566.50 Z" fill="rgb(89.1875,86.1875,70.8125)" stroke="rgb(89.1875,86.1875,70.8125)" stroke-width="1" />
<path d="M 456.50 566.50 C 452.40 574.56, 455.21 584.60, 457.50 592.50 C 462.78 605.13, 480.44 607.86, 489.50 600.50 C 480.26 587.90, 471.42 571.97, 457.50 566.50 Z" fill="rgb(88.60173697270471,77.85856079404466,65.05086848635236)" stroke="rgb(88.60173697270471,77.85856079404466,65.05086848635236)" stroke-width="1" />
<path d="M 486.50 499.50 C 481.95 504.02, 492.65 504.73, 495.50 506.50 C 507.24 512.12, 519.08 515.10, 529.50 521.50 C 548.57 529.65, 565.91 539.60, 584.50 546.50 C 597.06 551.15, 606.43 560.09, 618.50 562.50 C 614.99 554.91, 596.30 552.26, 588.50 545.50 C 577.14 539.23, 566.76 534.00, 556.50 528.50 C 549.64 525.15, 543.64 522.15, 537.50 519.50 C 520.47 511.44, 504.97 503.10, 487.50 499.50 Z" fill="rgb(175.97236842105264,185.3657894736842,185.53552631578947)" stroke="rgb(175.97236842105264,185.3657894736842,185.53552631578947)" stroke-width="1" />
<path d="M 507.50 0.50 C 486.02 62.73, 575.42 -8.68, 507.50 0.50 Z" fill="rgb(96.1,103.2,33.6)" stroke="rgb(96.1,103.2,33.6)" stroke-width="1" />
<path d="M 191.50 594.50 C 178.82 601.29, 158.60 616.28, 173.50 630.50 C 180.63 628.82, 186.32 627.06, 192.50 626.50 C 199.48 616.53, 197.16 602.56, 192.50 594.50 Z" fill="rgb(34.90526315789474,38.00921052631579,31.014473684210525)" stroke="rgb(34.90526315789474,38.00921052631579,31.014473684210525)" stroke-width="1" />
<path d="M 507.50 0.50 C 501.32 7.95, 506.87 18.61, 506.50 27.50 C 511.72 31.69, 516.75 25.79, 521.50 24.50 C 528.60 20.90, 540.35 15.19, 534.50 7.50 C 534.30 -4.99, 517.00 2.75, 508.50 0.50 Z" fill="rgb(80.4188829787234,89.34175531914893,37.93484042553192)" stroke="rgb(80.4188829787234,89.34175531914893,37.93484042553192)" stroke-width="1" />
</svg>