<svg xmlns="http://www.w3.org/2000/svg" width="1000" height="750" viewbox="0 0 1000 750">
<path d="M 0.50 0.50 C -334.20 816.49, 589.24 928.10, 999.50 641.50 C 1239.58 -145.58, 566.03 -18.03, 1.50 0.50 Z" fill="rgb(118.00281928390189,173.7382166747828,211.066355691109)" stroke="rgb(118.00281928390189,173.7382166747828,211.066355691109)" stroke-width="1" />
<path d="M 642.50 0.50 C -1062.41 315.38, 1890.77 275.76, 642.50 0.50 Z" fill="rgb(145.8768115942029,187.94099378881987,231.83333333333334)" stroke="rgb(145.8768115942029,187.94099378881987,231.83333333333334)" stroke-width="1" />
<path d="M 642.50 0.50 C 432.40 7.95, 211.96 0.33, 0.50 4.50 C 109.00 339.13, 20.82 477.97, 493.50 213.50 C 441.57 -319.50, 1027.69 692.37, 999.50 14.50 C 899.29 -9.37, 757.29 10.38, 643.50 0.50 Z" fill="rgb(134.65706153429113,203.41744375169424,251.81309975603145)" stroke="rgb(134.65706153429113,203.41744375169424,251.81309975603145)" stroke-width="1" />
<path d="M 509.50 216.50 C 427.79 232.79, 362.79 288.84, 286.50 316.50 C -409.53 545.41, 1889.24 494.83, 510.50 216.50 Z" fill="rgb(48.27565924734066,130.93331545543936,191.62610172521676)" stroke="rgb(48.27565924734066,130.93331545543936,191.62610172521676)" stroke-width="1" />
<path d="M 0.50 422.50 C -12.42 714.94, 506.51 497.95, 749.50 555.50 C 1377.14 422.35, 215.16 458.33, 1.50 422.50 Z" fill="rgb(66.83108689417838,128.69171207341554,143.74333237740177)" stroke="rgb(66.83108689417838,128.69171207341554,143.74333237740177)" stroke-width="1" />
<path d="M 660.50 10.50 C 271.07 408.08, 1102.67 214.91, 660.50 10.50 Z" fill="rgb(239.1882193635748,149.63303994583615,155.54231550440082)" stroke="rgb(239.1882193635748,149.63303994583615,155.54231550440082)" stroke-width="1" />
<path d="M 661.50 10.50 C 301.28 113.06, 765.00 493.55, 818.50 133.50 C 565.56 182.82, 879.41 13.26, 662.50 10.50 Z" fill="rgb(230.55492056235,42.38606316912409,52.71440545586162)" stroke="rgb(230.55492056235,42.38606316912409,52.71440545586162)" stroke-width="1" />
<path d="M 0.50 423.50 C 2.47 449.53, -3.45 483.45, 3.50 504.50 C 337.41 503.43, 666.00 503.50, 999.50 503.50 C 731.85 362.73, 300.95 507.14, 1.50 423.50 Z" fill="rgb(53.6551991772901,104.76665308419194,76.55785164056891)" stroke="rgb(53.6551991772901,104.76665308419194,76.55785164056891)" stroke-width="1" />
<path d="M 356.50 504.50 C 250.03 517.35, -61.24 465.43, 18.50 571.50 C 194.27 528.85, 1055.21 613.85, 892.50 505.50 C 714.19 504.88, 530.09 506.76, 357.50 504.50 Z" fill="rgb(118.54691594079739,162.4600476831197,154.26438165380168)" stroke="rgb(118.54691594079739,162.4600476831197,154.26438165380168)" stroke-width="1" />
<path d="M 272.50 550.50 C -252.75 555.60, 447.17 761.96, 476.50 688.50 C 458.25 585.95, 389.44 536.80, 273.50 550.50 Z" fill="rgb(107.92995388813952,164.2677311082531,200.80739671884314)" stroke="rgb(107.92995388813952,164.2677311082531,200.80739671884314)" stroke-width="1" />
<path d="M 996.50 110.50 C 994.41 162.02, 810.75 70.55, 818.50 203.50 C 665.97 448.68, 1028.54 323.34, 997.50 111.50 Z" fill="rgb(137.9919863839444,206.50627615062763,253.56949861711936)" stroke="rgb(137.9919863839444,206.50627615062763,253.56949861711936)" stroke-width="1" />
<path d="M 431.50 285.50 C 356.72 343.91, 283.30 284.96, 229.50 419.50 C 306.21 545.25, 562.43 335.86, 432.50 285.50 Z" fill="rgb(25.167492016476142,100.76197528578702,152.9105845327903)" stroke="rgb(25.167492016476142,100.76197528578702,152.9105845327903)" stroke-width="1" />
<path d="M 511.50 216.50 C 98.71 379.17, 461.67 291.33, 743.50 326.50 C 668.90 293.37, 525.25 217.14, 512.50 216.50 Z" fill="rgb(222.21177859510513,231.39186305226355,237.66743858693184)" stroke="rgb(222.21177859510513,231.39186305226355,237.66743858693184)" stroke-width="1" />
<path d="M 38.50 609.50 C 77.99 895.96, 641.04 694.83, 38.50 609.50 Z" fill="rgb(108.22693498452013,170.73343653250774,214.61300309597524)" stroke="rgb(108.22693498452013,170.73343653250774,214.61300309597524)" stroke-width="1" />
<path d="M 40.50 609.50 C 44.54 780.49, 138.58 749.46, 367.50 747.50 C 384.91 703.46, 134.61 649.10, 41.50 609.50 Z" fill="rgb(165.93727810650887,217.2404996712689,254.84466359850975)" stroke="rgb(165.93727810650887,217.2404996712689,254.84466359850975)" stroke-width="1" />
<path d="M 0.50 74.50 C -81.17 622.20, 232.07 244.45, 0.50 74.50 Z" fill="rgb(213.26190476190476,237.85714285714286,254.88095238095238)" stroke="rgb(213.26190476190476,237.85714285714286,254.88095238095238)" stroke-width="1" />
<path d="M 0.50 72.50 C -80.79 620.44, 231.30 248.16, 0.50 72.50 Z" fill="rgb(218.51462910058123,239.99793123830165,254.40596985518667)" stroke="rgb(218.51462910058123,239.99793123830165,254.40596985518667)" stroke-width="1" />
<path d="M 988.50 639.50 C 525.31 619.43, 977.57 901.67, 988.50 639.50 Z" fill="rgb(160.0355614973262,204.39251336898397,235.68930481283422)" stroke="rgb(160.0355614973262,204.39251336898397,235.68930481283422)" stroke-width="1" />
<path d="M 282.50 670.50 C 398.45 791.95, 604.93 759.41, 732.50 684.50 C 581.67 674.57, 357.30 715.44, 283.50 671.50 Z" fill="rgb(211.6081024786503,230.37054780254113,243.58977296396583)" stroke="rgb(211.6081024786503,230.37054780254113,243.58977296396583)" stroke-width="1" />
<path d="M 915.50 656.50 C 537.72 647.62, 968.73 850.81, 915.50 656.50 Z" fill="rgb(139.99153737658673,198.70380818053596,241.19181946403384)" stroke="rgb(139.99153737658673,198.70380818053596,241.19181946403384)" stroke-width="1" />
<path d="M 446.50 115.50 C 75.34 261.50, 829.19 234.29, 446.50 115.50 Z" fill="rgb(210.39908477842005,209.48675337186899,227.05382947976878)" stroke="rgb(210.39908477842005,209.48675337186899,227.05382947976878)" stroke-width="1" />
<path d="M 915.50 657.50 C 552.96 650.67, 968.02 846.86, 915.50 657.50 Z" fill="rgb(160.00067255956955,213.65785933897,252.9044004611837)" stroke="rgb(160.00067255956955,213.65785933897,252.9044004611837)" stroke-width="1" />
<path d="M 773.50 50.50 C 575.39 218.51, 1166.77 93.15, 773.50 50.50 Z" fill="rgb(218.18923233202727,234.8136700043535,249.11986649252648)" stroke="rgb(218.18923233202727,234.8136700043535,249.11986649252648)" stroke-width="1" />
<path d="M 998.50 154.50 C 803.51 292.61, 1052.74 491.60, 998.50 154.50 Z" fill="rgb(221.53760771140645,241.28391996494815,254.33868847670513)" stroke="rgb(221.53760771140645,241.28391996494815,254.33868847670513)" stroke-width="1" />
<path d="M 20.50 574.50 C -84.82 785.27, 187.23 753.42, 20.50 574.50 Z" fill="rgb(196.91046658259773,229.3064312736444,252.0)" stroke="rgb(196.91046658259773,229.3064312736444,252.0)" stroke-width="1" />
<path d="M 283.50 672.50 C 321.76 731.14, 544.31 804.95, 491.50 691.50 C 377.82 695.20, 391.76 701.23, 284.50 672.50 Z" fill="rgb(212.68844278099127,232.92185550640806,246.531700124759)" stroke="rgb(212.68844278099127,232.92185550640806,246.531700124759)" stroke-width="1" />
<path d="M 780.50 396.50 C 731.58 483.75, 1232.35 456.47, 780.50 396.50 Z" fill="rgb(26.071184995737426,111.7156862745098,166.3307757885763)" stroke="rgb(26.071184995737426,111.7156862745098,166.3307757885763)" stroke-width="1" />
<path d="M 980.50 639.50 C 813.19 682.43, 1044.51 842.33, 980.50 639.50 Z" fill="rgb(204.66609145815357,233.97670405522,254.62755248777682)" stroke="rgb(204.66609145815357,233.97670405522,254.62755248777682)" stroke-width="1" />
<path d="M 0.50 130.50 C -40.80 506.28, 90.18 320.78, 0.50 130.50 Z" fill="rgb(215.42224316682376,238.28746465598493,254.87012252591896)" stroke="rgb(215.42224316682376,238.28746465598493,254.87012252591896)" stroke-width="1" />
<path d="M 20.50 572.50 C -29.75 787.46, 157.77 751.70, 20.50 572.50 Z" fill="rgb(222.9095885239713,241.19101547753868,254.2614194035485)" stroke="rgb(222.9095885239713,241.19101547753868,254.2614194035485)" stroke-width="1" />
<path d="M 442.50 142.50 C 228.33 247.93, 711.73 219.49, 442.50 142.50 Z" fill="rgb(212.8461092595276,237.2419939139255,254.69946384581945)" stroke="rgb(212.8461092595276,237.2419939139255,254.69946384581945)" stroke-width="1" />
<path d="M 711.50 697.50 C 421.32 759.29, 930.57 779.42, 711.50 697.50 Z" fill="rgb(223.06855439642325,163.51415797317438,174.2295081967213)" stroke="rgb(223.06855439642325,163.51415797317438,174.2295081967213)" stroke-width="1" />
<path d="M 779.50 396.50 C 628.18 471.51, 1076.00 445.27, 779.50 396.50 Z" fill="rgb(11.176111382510992,70.01612115290669,110.20346849047387)" stroke="rgb(11.176111382510992,70.01612115290669,110.20346849047387)" stroke-width="1" />
<path d="M 43.50 560.50 C 315.16 755.44, 236.46 590.84, 43.50 560.50 Z" fill="rgb(102.79700065203217,160.8241686589872,200.74375135840035)" stroke="rgb(102.79700065203217,160.8241686589872,200.74375135840035)" stroke-width="1" />
<path d="M 790.50 557.50 C 595.43 658.87, 1095.34 550.97, 790.50 557.50 Z" fill="rgb(110.16611295681064,158.53488372093022,171.42857142857142)" stroke="rgb(110.16611295681064,158.53488372093022,171.42857142857142)" stroke-width="1" />
<path d="M 261.50 325.50 C -58.99 446.86, 153.17 464.97, 261.50 325.50 Z" fill="rgb(19.86852416195037,99.27078798432738,154.91532433609055)" stroke="rgb(19.86852416195037,99.27078798432738,154.91532433609055)" stroke-width="1" />
<path d="M 796.50 557.50 C 579.82 649.06, 1070.34 567.48, 796.50 557.50 Z" fill="rgb(95.94117647058823,140.24264705882354,169.875)" stroke="rgb(95.94117647058823,140.24264705882354,169.875)" stroke-width="1" />
<path d="M 784.50 558.50 C 609.03 658.57, 1069.15 554.83, 784.50 558.50 Z" fill="rgb(97.4753086419753,141.2363683127572,170.5213477366255)" stroke="rgb(97.4753086419753,141.2363683127572,170.5213477366255)" stroke-width="1" />
<path d="M 968.50 577.50 C 636.11 676.48, 976.92 673.04, 968.50 577.50 Z" fill="rgb(105.29056603773584,168.55849056603773,213.30943396226414)" stroke="rgb(105.29056603773584,168.55849056603773,213.30943396226414)" stroke-width="1" />
<path d="M 711.50 698.50 C 454.94 759.39, 928.63 773.65, 711.50 698.50 Z" fill="rgb(232.17919075144508,109.3215068766195,118.5186366354395)" stroke="rgb(232.17919075144508,109.3215068766195,118.5186366354395)" stroke-width="1" />
<path d="M 761.50 344.50 C 994.75 475.17, 1065.68 370.88, 761.50 344.50 Z" fill="rgb(22.073820395738203,106.6316590563166,166.21784627092848)" stroke="rgb(22.073820395738203,106.6316590563166,166.21784627092848)" stroke-width="1" />
<path d="M 998.50 200.50 C 899.70 327.03, 1033.48 438.44, 998.50 200.50 Z" fill="rgb(215.00100527770797,238.10731339532546,254.7914048755969)" stroke="rgb(215.00100527770797,238.10731339532546,254.7914048755969)" stroke-width="1" />
<path d="M 971.50 577.50 C 651.55 670.41, 968.07 675.86, 971.50 577.50 Z" fill="rgb(103.54844720496894,163.12836438923395,204.50351966873706)" stroke="rgb(103.54844720496894,163.12836438923395,204.50351966873706)" stroke-width="1" />
<path d="M 783.50 90.50 C 635.63 174.60, 1104.38 113.87, 783.50 90.50 Z" fill="rgb(216.4279079586236,234.11842938568714,249.98585602702133)" stroke="rgb(216.4279079586236,234.11842938568714,249.98585602702133)" stroke-width="1" />
<path d="M 62.50 131.50 C -10.52 261.27, 198.11 205.30, 62.50 131.50 Z" fill="rgb(254.8932474082376,254.98823199775848,254.98571028299244)" stroke="rgb(254.8932474082376,254.98823199775848,254.98571028299244)" stroke-width="1" />
<path d="M 983.50 639.50 C 905.08 722.88, 1042.87 793.26, 983.50 639.50 Z" fill="rgb(212.22909636295464,237.83839520059993,254.88188976377953)" stroke="rgb(212.22909636295464,237.83839520059993,254.88188976377953)" stroke-width="1" />
<path d="M 668.50 412.50 C 638.47 469.93, 1016.46 463.32, 668.50 412.50 Z" fill="rgb(17.262848751835534,88.0179148311307,135.41615271659325)" stroke="rgb(17.262848751835534,88.0179148311307,135.41615271659325)" stroke-width="1" />
<path d="M 172.50 354.50 C -30.59 404.74, 56.66 469.75, 172.50 354.50 Z" fill="rgb(27.215495495495496,121.82054054054053,188.95243243243243)" stroke="rgb(27.215495495495496,121.82054054054053,188.95243243243243)" stroke-width="1" />
<path d="M 470.50 536.50 C 413.40 583.60, 799.54 583.10, 470.50 536.50 Z" fill="rgb(124.88688410825816,172.08605135322694,159.08362248438584)" stroke="rgb(124.88688410825816,172.08605135322694,159.08362248438584)" stroke-width="1" />
<path d="M 795.50 549.50 C 437.22 599.19, 903.10 579.54, 795.50 549.50 Z" fill="rgb(101.50058343057177,154.23531699727732,189.1271878646441)" stroke="rgb(101.50058343057177,154.23531699727732,189.1271878646441)" stroke-width="1" />
<path d="M 0.50 596.50 C -24.32 791.78, 69.17 736.37, 0.50 596.50 Z" fill="rgb(209.72742616033756,236.87974683544303,254.8704641350211)" stroke="rgb(209.72742616033756,236.87974683544303,254.8704641350211)" stroke-width="1" />
<path d="M 148.50 430.50 C -90.72 475.24, 299.55 452.77, 148.50 430.50 Z" fill="rgb(61.545923632610936,123.18782249742002,85.6625386996904)" stroke="rgb(61.545923632610936,123.18782249742002,85.6625386996904)" stroke-width="1" />
<path d="M 105.50 544.50 C -24.55 573.81, 344.61 586.58, 105.50 544.50 Z" fill="rgb(125.1907861792689,172.91136705057588,160.18427641462193)" stroke="rgb(125.1907861792689,172.91136705057588,160.18427641462193)" stroke-width="1" />
<path d="M 0.50 97.50 C -10.98 212.11, 103.27 107.68, 0.50 97.50 Z" fill="rgb(251.72619047619048,253.62445887445887,254.8327922077922)" stroke="rgb(251.72619047619048,253.62445887445887,254.8327922077922)" stroke-width="1" />
<path d="M 998.50 411.50 C 843.36 437.65, 1014.63 514.58, 998.50 411.50 Z" fill="rgb(17.29898119122257,85.0909090909091,128.66379310344828)" stroke="rgb(17.29898119122257,85.0909090909091,128.66379310344828)" stroke-width="1" />
<path d="M 871.50 442.50 C 682.01 485.31, 1021.67 463.44, 871.50 442.50 Z" fill="rgb(60.780575539568346,122.42985611510791,86.66546762589928)" stroke="rgb(60.780575539568346,122.42985611510791,86.66546762589928)" stroke-width="1" />
<path d="M 998.50 537.50 C 842.81 531.41, 1025.31 639.81, 998.50 537.50 Z" fill="rgb(109.74489795918367,156.9387755102041,170.3265306122449)" stroke="rgb(109.74489795918367,156.9387755102041,170.3265306122449)" stroke-width="1" />
<path d="M 997.50 538.50 C 842.47 532.53, 1025.37 636.67, 997.50 538.50 Z" fill="rgb(101.61515410958904,147.19563356164383,171.75513698630138)" stroke="rgb(101.61515410958904,147.19563356164383,171.75513698630138)" stroke-width="1" />
<path d="M 850.50 535.50 C 732.01 564.25, 1036.40 570.13, 850.50 535.50 Z" fill="rgb(125.3931623931624,173.3438527284681,160.55226824457594)" stroke="rgb(125.3931623931624,173.3438527284681,160.55226824457594)" stroke-width="1" />
<path d="M 326.50 448.50 C 191.81 486.11, 519.33 453.63, 326.50 448.50 Z" fill="rgb(61.1076095311299,122.41660261337432,85.74634896233667)" stroke="rgb(61.1076095311299,122.41660261337432,85.74634896233667)" stroke-width="1" />
<path d="M 310.50 535.50 C 250.92 577.56, 514.23 547.27, 310.50 535.50 Z" fill="rgb(124.56179024716099,171.2077488309953,158.3313293253173)" stroke="rgb(124.56179024716099,171.2077488309953,158.3313293253173)" stroke-width="1" />
<path d="M 260.50 567.50 C 347.83 678.33, 370.84 648.90, 260.50 567.50 Z" fill="rgb(105.90657439446366,170.24336793540945,215.45328719723184)" stroke="rgb(105.90657439446366,170.24336793540945,215.45328719723184)" stroke-width="1" />
<path d="M 352.50 343.50 C 242.60 438.43, 275.39 458.17, 352.50 343.50 Z" fill="rgb(27.5464725643897,122.24076147816349,189.1444568868981)" stroke="rgb(27.5464725643897,122.24076147816349,189.1444568868981)" stroke-width="1" />
<path d="M 563.50 179.50 C 498.90 214.95, 632.29 216.02, 563.50 179.50 Z" fill="rgb(251.9661898569571,238.61898569570872,239.851755526658)" stroke="rgb(251.9661898569571,238.61898569570872,239.851755526658)" stroke-width="1" />
<path d="M 516.50 213.50 C 409.07 223.64, 596.63 236.22, 516.50 213.50 Z" fill="rgb(40.64727272727273,134.58,200.62363636363636)" stroke="rgb(40.64727272727273,134.58,200.62363636363636)" stroke-width="1" />
<path d="M 341.50 618.50 C 397.79 695.67, 417.49 674.23, 341.50 618.50 Z" fill="rgb(201.2845188284519,226.2112970711297,240.60251046025104)" stroke="rgb(201.2845188284519,226.2112970711297,240.60251046025104)" stroke-width="1" />
<path d="M 581.50 256.50 C 611.64 302.01, 664.52 279.50, 581.50 256.50 Z" fill="rgb(73.97286821705427,149.37403100775194,201.98643410852713)" stroke="rgb(73.97286821705427,149.37403100775194,201.98643410852713)" stroke-width="1" />
<path d="M 402.50 321.50 C 324.02 391.21, 355.54 396.13, 402.50 321.50 Z" fill="rgb(88.36842105263158,139.26315789473685,173.52631578947367)" stroke="rgb(88.36842105263158,139.26315789473685,173.52631578947367)" stroke-width="1" />
<path d="M 403.50 321.50 C 327.82 386.09, 349.53 401.74, 403.50 321.50 Z" fill="rgb(212.06304347826088,229.58913043478262,238.27608695652174)" stroke="rgb(212.06304347826088,229.58913043478262,238.27608695652174)" stroke-width="1" />
<path d="M 632.50 719.50 C 555.22 731.56, 604.19 753.99, 632.50 719.50 Z" fill="rgb(116.9250645994832,177.92248062015503,221.04134366925064)" stroke="rgb(116.9250645994832,177.92248062015503,221.04134366925064)" stroke-width="1" />
<path d="M 659.50 653.50 C 562.36 677.72, 595.39 691.15, 659.50 653.50 Z" fill="rgb(206.12433862433863,233.14814814814815,247.32010582010582)" stroke="rgb(206.12433862433863,233.14814814814815,247.32010582010582)" stroke-width="1" />
<path d="M 581.50 320.50 C 660.48 367.12, 671.80 344.74, 581.50 320.50 Z" fill="rgb(211.28780487804877,234.02439024390245,244.41951219512194)" stroke="rgb(211.28780487804877,234.02439024390245,244.41951219512194)" stroke-width="1" />
<path d="M 457.50 319.50 C 384.65 383.63, 413.21 390.74, 457.50 319.50 Z" fill="rgb(128.07692307692307,170.26923076923077,196.30769230769232)" stroke="rgb(128.07692307692307,170.26923076923077,196.30769230769232)" stroke-width="1" />
<path d="M 399.50 624.50 C 456.61 698.38, 470.83 676.55, 399.50 624.50 Z" fill="rgb(199.24759615384616,224.90384615384616,239.6346153846154)" stroke="rgb(199.24759615384616,224.90384615384616,239.6346153846154)" stroke-width="1" />
<path d="M 457.50 319.50 C 385.88 383.01, 411.34 391.63, 457.50 319.50 Z" fill="rgb(203.52261306532662,223.28391959798995,233.63819095477388)" stroke="rgb(203.52261306532662,223.28391959798995,233.63819095477388)" stroke-width="1" />
<path d="M 659.50 326.50 C 728.13 377.54, 738.86 356.43, 659.50 326.50 Z" fill="rgb(198.4585635359116,225.84254143646407,239.80939226519337)" stroke="rgb(198.4585635359116,225.84254143646407,239.80939226519337)" stroke-width="1" />
<path d="M 727.50 643.50 C 639.99 674.54, 676.43 680.93, 727.50 643.50 Z" fill="rgb(205.33544303797467,232.66772151898735,247.14556962025316)" stroke="rgb(205.33544303797467,232.66772151898735,247.14556962025316)" stroke-width="1" />
<path d="M 466.50 275.50 C 422.94 297.50, 439.43 316.88, 466.50 275.50 Z" fill="rgb(70.61032863849765,147.95774647887325,199.10798122065728)" stroke="rgb(70.61032863849765,147.95774647887325,199.10798122065728)" stroke-width="1" />
<path d="M 534.50 276.50 C 571.69 317.05, 582.01 295.49, 534.50 276.50 Z" fill="rgb(88.09865470852019,155.47533632286996,201.695067264574)" stroke="rgb(88.09865470852019,155.47533632286996,201.695067264574)" stroke-width="1" />
<path d="M 572.50 697.50 C 525.25 725.81, 544.43 737.29, 572.50 697.50 Z" fill="rgb(136.42131979695432,187.80710659898477,223.53807106598984)" stroke="rgb(136.42131979695432,187.80710659898477,223.53807106598984)" stroke-width="1" />
<path d="M 381.50 275.50 C 334.64 297.07, 350.41 311.63, 381.50 275.50 Z" fill="rgb(98.72727272727273,164.57219251336898,207.16042780748663)" stroke="rgb(98.72727272727273,164.57219251336898,207.16042780748663)" stroke-width="1" />
<path d="M 75.50 724.50 C 42.74 732.99, 89.62 732.96, 75.50 724.50 Z" fill="rgb(163.15068493150685,215.986301369863,254.67123287671234)" stroke="rgb(163.15068493150685,215.986301369863,254.67123287671234)" stroke-width="1" />
</svg>