<svg xmlns="http://www.w3.org/2000/svg" width="1000" height="750" viewbox="0 0 1000 750">
<path d="M 0.50 0.50 C 0.50 146.17, 0.50 291.83, 0.50 437.50 C 3.82 540.51, -6.15 655.82, 5.50 749.50 C 53.17 749.50, 99.83 749.50, 146.50 749.50 C 194.17 749.50, 240.83 749.50, 287.50 749.50 C 339.17 749.50, 389.83 749.50, 440.50 749.50 C 492.17 749.50, 542.83 749.50, 593.50 749.50 C 645.17 749.50, 695.83 749.50, 746.50 749.50 C 798.50 749.50, 849.50 749.50, 900.50 749.50 C 992.75 772.08, 1015.24 725.91, 999.50 641.50 C 999.50 491.83, 999.50 343.17, 999.50 194.50 C 999.50 129.17, 999.50 64.83, 999.50 0.50 C 938.17 0.50, 877.83 0.50, 817.50 0.50 C 756.17 0.50, 695.83 0.50, 635.50 0.50 C 582.17 0.50, 529.83 0.50, 477.50 0.50 C 423.83 0.50, 371.17 0.50, 318.50 0.50 C 265.17 0.50, 212.83 0.50, 160.50 0.50 C 106.83 0.50, 54.17 0.50, 1.50 0.50 Z" fill="rgb(114.60374429223744,176.15722374429222,221.33835616438355)" stroke="rgb(114.60374429223744,176.15722374429222,221.33835616438355)" stroke-width="1" />
<path d="M 642.50 0.50 C 473.14 7.29, 283.26 1.65, 105.50 3.50 C -121.45 -6.20, 99.20 131.86, 109.50 209.50 C 101.57 226.14, 84.12 227.75, 69.50 229.50 C 65.98 240.94, 57.56 248.94, 50.50 257.50 C 112.11 293.32, 94.65 343.68, 37.50 384.50 C 60.30 400.17, 114.70 361.66, 151.50 358.50 C 266.59 326.82, 373.00 277.57, 474.50 216.50 C 520.21 215.40, 504.30 206.95, 467.50 209.50 C 375.74 207.34, 243.44 220.78, 384.50 177.50 C 380.10 73.50, 532.13 125.43, 517.50 163.50 C 519.19 116.43, 535.90 75.14, 572.50 44.50 C 582.55 35.67, 592.29 29.51, 602.50 24.50 C 670.18 -12.11, 769.88 17.52, 803.50 77.50 C 838.35 81.84, 864.45 40.98, 900.50 95.50 C 922.15 90.71, 966.95 132.83, 934.50 133.50 C 921.43 132.81, 909.44 133.86, 896.50 133.50 C 775.45 98.55, 849.05 284.97, 730.50 304.50 C 866.87 371.50, 964.00 350.24, 932.50 220.50 C 1016.24 203.82, 999.08 90.34, 999.50 7.50 C 885.59 -0.26, 759.12 6.05, 643.50 0.50 Z" fill="rgb(148.33427495291903,200.78060263653484,241.54990583804144)" stroke="rgb(148.33427495291903,200.78060263653484,241.54990583804144)" stroke-width="1" />
<path d="M 642.50 0.50 C 636.88 4.96, 625.45 1.32, 617.50 2.50 C 589.89 2.97, 563.51 4.00, 536.50 3.50 C 491.17 3.50, 446.83 3.50, 402.50 3.50 C 369.83 3.50, 338.17 3.50, 306.50 3.50 C 273.83 3.50, 242.17 3.50, 210.50 3.50 C 177.83 3.50, 146.17 3.50, 114.50 3.50 C 81.83 3.50, 50.17 3.50, 18.50 3.50 C 12.15 4.15, 4.19 2.19, 0.50 4.50 C 1.09 36.25, -3.01 72.46, 9.50 94.50 C 35.28 91.19, 45.85 115.93, 53.50 131.50 C 93.41 117.95, 114.87 165.38, 113.50 198.50 C 111.58 220.09, 89.80 227.43, 73.50 231.50 C 55.34 243.50, 36.34 281.18, 71.50 281.50 C 108.58 286.53, 104.88 336.21, 72.50 344.50 C 66.93 366.43, 38.32 368.22, 39.50 393.50 C 81.82 378.05, 125.22 366.64, 167.50 352.50 C 217.03 339.20, 264.03 322.18, 309.50 301.50 C 327.47 294.22, 343.94 285.77, 360.50 277.50 C 377.65 269.20, 393.96 262.27, 409.50 253.50 C 439.58 243.57, 460.56 214.10, 493.50 213.50 C 503.73 211.25, 501.64 213.64, 493.50 211.50 C 487.96 208.32, 482.92 211.66, 477.50 210.50 C 438.17 209.50, 399.83 209.50, 361.50 209.50 C 338.34 210.85, 275.34 209.40, 327.50 201.50 C 356.85 207.97, 356.15 171.84, 382.50 177.50 C 384.92 158.52, 388.33 140.37, 404.50 127.50 C 422.07 115.83, 442.32 114.04, 463.50 114.50 C 492.38 114.93, 514.29 141.07, 513.50 168.50 C 517.85 175.59, 517.80 163.32, 517.50 159.50 C 519.54 123.18, 529.91 91.31, 552.50 64.50 C 580.51 31.00, 616.03 13.26, 655.50 8.50 C 702.55 5.63, 742.11 18.40, 774.50 48.50 C 803.57 46.09, 794.98 80.60, 817.50 86.50 C 835.40 89.64, 828.53 68.38, 840.50 61.50 C 861.85 49.95, 872.96 76.72, 884.50 86.50 C 891.52 87.69, 893.82 96.88, 900.50 95.50 C 941.85 96.48, 967.15 148.32, 908.50 133.50 C 877.32 140.56, 809.62 113.01, 824.50 162.50 C 823.55 206.07, 807.45 242.36, 776.50 272.50 C 679.49 313.44, 780.03 332.02, 835.50 337.50 C 867.68 332.70, 901.15 359.13, 927.50 338.50 C 876.31 263.46, 971.85 220.75, 999.50 117.50 C 999.50 82.50, 999.50 48.50, 999.50 14.50 C 999.50 10.17, 999.50 6.83, 999.50 3.50 C 943.50 3.50, 888.50 3.50, 833.50 3.50 C 788.16 4.20, 747.59 1.87, 703.50 2.50 C 684.83 -0.83, 662.83 1.17, 643.50 0.50 Z" fill="rgb(131.2053166831606,204.96930829730715,254.8590681806344)" stroke="rgb(131.2053166831606,204.96930829730715,254.8590681806344)" stroke-width="1" />
<path d="M 509.50 216.50 C 427.79 232.79, 362.79 288.84, 286.50 316.50 C 206.99 352.09, 114.52 364.09, 40.50 402.50 C 17.50 435.28, 41.10 459.66, 76.50 448.50 C 110.25 431.46, 152.54 423.46, 190.50 432.50 C 247.63 460.28, 301.79 450.34, 364.50 449.50 C 383.45 454.31, 403.54 455.05, 420.50 459.50 C 455.97 455.75, 490.10 442.73, 524.50 435.50 C 544.24 432.05, 563.53 425.66, 583.50 429.50 C 722.71 452.83, 897.57 454.53, 999.50 451.50 C 965.78 428.00, 1005.87 420.79, 999.50 374.50 C 1000.39 360.84, 979.39 371.32, 971.50 366.50 C 940.43 352.90, 906.16 349.45, 872.50 344.50 C 856.24 337.14, 840.27 340.81, 823.50 339.50 C 782.35 334.02, 744.99 321.81, 708.50 307.50 C 635.05 291.42, 583.28 230.71, 510.50 216.50 Z" fill="rgb(29.09784311135433,125.81231483403468,194.4520974468326)" stroke="rgb(29.09784311135433,125.81231483403468,194.4520974468326)" stroke-width="1" />
<path d="M 0.50 422.50 C -52.15 621.67, 98.57 567.10, 236.50 560.50 C 279.49 535.49, 326.28 569.27, 373.50 554.50 C 416.68 539.25, 462.14 551.04, 501.50 564.50 C 582.02 590.23, 669.45 564.53, 749.50 555.50 C 802.22 531.30, 850.15 568.07, 900.50 562.50 C 1168.71 442.29, 737.12 452.55, 619.50 432.50 C 552.19 420.67, 494.10 447.03, 434.50 460.50 C 326.93 452.69, 236.86 448.84, 134.50 432.50 C 87.18 446.64, 39.16 468.20, 1.50 422.50 Z" fill="rgb(84.93248663101605,136.13368983957218,133.975935828877)" stroke="rgb(84.93248663101605,136.13368983957218,133.975935828877)" stroke-width="1" />
<path d="M 660.50 10.50 C 449.18 51.06, 576.41 238.51, 564.50 232.50 C 596.92 252.70, 628.43 272.69, 662.50 286.50 C 722.80 333.15, 797.39 267.50, 814.50 207.50 C 855.22 65.43, 589.91 188.15, 753.50 55.50 C 789.02 37.18, 706.64 10.66, 680.50 10.50 C 673.50 10.50, 667.50 10.50, 661.50 10.50 Z" fill="rgb(205.13220338983052,106.42033898305085,119.46779661016949)" stroke="rgb(205.13220338983052,106.42033898305085,119.46779661016949)" stroke-width="1" />
<path d="M 661.50 10.50 C 623.64 14.10, 590.12 28.19, 562.50 56.50 C 535.43 85.36, 521.98 118.45, 520.50 156.50 C 518.73 198.24, 558.86 173.52, 575.50 184.50 C 608.65 218.83, 547.99 205.37, 530.50 212.50 C 566.25 231.92, 601.81 256.97, 638.50 275.50 C 661.59 286.57, 684.07 296.68, 707.50 304.50 C 756.31 297.61, 797.89 256.40, 813.50 211.50 C 820.91 187.16, 827.00 157.92, 818.50 133.50 C 773.50 132.50, 729.50 132.50, 685.50 132.50 C 703.70 119.27, 719.64 104.86, 737.50 85.50 C 734.23 66.22, 751.77 53.06, 768.50 49.50 C 742.10 19.73, 702.87 10.22, 662.50 10.50 Z" fill="rgb(229.1773829906257,42.265176043803294,53.099981353087756)" stroke="rgb(229.1773829906257,42.265176043803294,53.099981353087756)" stroke-width="1" />
<path d="M 0.50 423.50 C 2.47 449.53, -3.45 483.45, 3.50 504.50 C 45.50 503.50, 86.50 503.50, 127.50 503.50 C 169.83 503.50, 211.17 503.50, 252.50 503.50 C 294.50 503.50, 335.50 503.50, 376.50 503.50 C 419.71 502.84, 458.72 503.69, 501.50 503.50 C 543.50 503.50, 584.50 503.50, 625.50 503.50 C 667.83 503.50, 709.17 503.50, 750.50 503.50 C 792.50 503.50, 833.50 503.50, 874.50 503.50 C 916.83 503.50, 958.17 503.50, 999.50 503.50 C 997.05 491.16, 1006.28 470.06, 990.50 469.50 C 940.15 458.19, 885.53 427.28, 835.50 454.50 C 801.07 470.46, 765.53 450.68, 730.50 449.50 C 678.53 442.10, 629.38 431.30, 576.50 429.50 C 549.47 428.92, 526.66 436.15, 503.50 442.50 C 480.46 448.40, 457.97 453.23, 436.50 460.50 C 406.12 461.77, 381.02 452.72, 353.50 449.50 C 279.51 467.86, 217.67 435.75, 145.50 431.50 C 118.78 432.87, 96.69 443.02, 73.50 450.50 C 45.25 458.73, 22.67 437.55, 1.50 423.50 Z" fill="rgb(54.5450784977682,103.97177543481607,71.75910035400955)" stroke="rgb(54.5450784977682,103.97177543481607,71.75910035400955)" stroke-width="1" />
<path d="M 356.50 504.50 C 348.65 506.80, 339.04 504.86, 330.50 505.50 C 274.83 505.50, 220.17 505.50, 165.50 505.50 C 109.83 505.50, 55.17 505.50, 0.50 505.50 C 6.22 529.31, -14.36 604.99, 18.50 571.50 C 82.69 527.01, 102.91 581.40, 168.50 570.50 C 201.56 566.20, 235.88 564.78, 265.50 550.50 C 293.19 547.22, 319.29 561.77, 349.50 557.50 C 415.25 535.48, 478.32 557.61, 539.50 573.50 C 603.02 583.12, 664.42 565.62, 724.50 559.50 C 756.33 556.50, 783.59 545.89, 815.50 546.50 C 870.63 577.70, 932.87 554.36, 987.50 539.50 C 1006.37 539.55, 997.37 517.70, 999.50 505.50 C 963.17 505.50, 927.83 505.50, 892.50 505.50 C 853.50 505.50, 815.50 505.50, 777.50 505.50 C 738.17 505.50, 699.83 505.50, 661.50 505.50 C 622.17 505.50, 583.83 505.50, 545.50 505.50 C 506.17 505.50, 467.83 505.50, 429.50 505.50 C 403.50 504.89, 381.19 506.25, 357.50 504.50 Z" fill="rgb(119.2528823817744,162.3786842273512,152.51563199283933)" stroke="rgb(119.2528823817744,162.3786842273512,152.51563199283933)" stroke-width="1" />
<path d="M 272.50 550.50 C 252.45 559.60, 230.89 565.06, 208.50 568.50 C 168.43 586.35, 121.25 577.17, 83.50 562.50 C 65.82 551.70, 13.75 557.22, 34.50 584.50 C 42.34 591.38, 33.76 606.68, 44.50 609.50 C 75.77 621.45, 106.46 631.41, 137.50 640.50 C 190.61 654.81, 242.06 670.74, 291.50 691.50 C 388.65 694.04, 400.34 707.85, 476.50 688.50 C 493.62 685.65, 476.65 666.23, 471.50 658.50 C 441.20 628.87, 424.95 592.34, 415.50 553.50 C 401.03 548.69, 388.52 555.90, 375.50 556.50 C 341.64 565.74, 304.48 558.27, 273.50 550.50 Z" fill="rgb(104.02620501571116,163.09589731428233,203.92292642437897)" stroke="rgb(104.02620501571116,163.09589731428233,203.92292642437897)" stroke-width="1" />
<path d="M 996.50 110.50 C 987.49 120.40, 985.05 112.09, 995.50 121.50 C 975.07 129.66, 950.15 124.60, 947.50 115.50 C 941.69 121.95, 956.81 125.24, 949.50 131.50 C 902.65 134.74, 869.39 130.76, 822.50 133.50 C 826.30 157.38, 824.43 182.24, 818.50 203.50 C 804.90 250.89, 766.85 290.15, 721.50 306.50 C 752.02 323.11, 788.32 330.79, 823.50 337.50 C 850.40 333.46, 873.68 343.81, 899.50 345.50 C 918.13 354.39, 928.93 331.98, 947.50 334.50 C 957.47 319.80, 940.40 313.77, 937.50 301.50 C 924.80 295.19, 901.17 293.39, 902.50 273.50 C 898.95 247.46, 918.76 211.87, 948.50 222.50 C 951.02 206.78, 964.58 192.28, 982.50 193.50 C 989.52 166.79, 1007.53 141.03, 997.50 111.50 Z" fill="rgb(131.29599212574206,204.89809602903634,254.7547599274092)" stroke="rgb(131.29599212574206,204.89809602903634,254.7547599274092)" stroke-width="1" />
<path d="M 431.50 285.50 C 395.85 320.73, 381.80 303.13, 338.50 328.50 C 357.58 298.00, 306.39 321.53, 288.50 332.50 C 254.05 353.32, 257.14 395.32, 229.50 419.50 C 195.00 455.29, 256.33 432.48, 257.50 448.50 C 262.35 452.59, 269.32 454.26, 274.50 456.50 C 304.64 448.86, 339.61 441.62, 370.50 450.50 C 385.35 452.05, 398.30 455.78, 412.50 456.50 C 422.05 431.65, 428.47 406.91, 440.50 384.50 C 455.32 361.80, 480.87 345.03, 484.50 318.50 C 437.43 327.52, 391.91 336.27, 432.50 285.50 Z" fill="rgb(19.808736107521323,96.61544757473938,150.30438528474195)" stroke="rgb(19.808736107521323,96.61544757473938,150.30438528474195)" stroke-width="1" />
<path d="M 511.50 216.50 C 494.82 229.75, 483.34 212.98, 461.50 227.50 C 411.55 259.78, 357.74 279.32, 307.50 307.50 C 299.18 314.59, 271.16 339.88, 289.50 331.50 C 301.63 325.83, 352.11 300.89, 335.50 322.50 C 302.83 347.38, 369.64 316.30, 383.50 308.50 C 388.42 320.31, 401.35 309.91, 418.50 296.50 C 437.09 289.60, 413.17 315.03, 413.50 324.50 C 429.66 333.00, 458.51 312.80, 482.50 316.50 C 503.57 320.76, 520.60 309.00, 540.50 309.50 C 572.23 310.32, 600.27 317.64, 628.50 324.50 C 639.94 328.32, 648.15 318.89, 660.50 321.50 C 684.99 340.54, 726.10 328.03, 743.50 326.50 C 705.05 303.28, 663.55 290.84, 624.50 272.50 C 609.30 262.18, 594.57 254.14, 580.50 244.50 C 543.21 214.21, 503.37 228.33, 512.50 216.50 Z" fill="rgb(229.27878423628403,236.61393491886324,241.03078045848716)" stroke="rgb(229.27878423628403,236.61393491886324,241.03078045848716)" stroke-width="1" />
<path d="M 38.50 609.50 C 144.02 664.07, 8.88 755.79, 100.50 747.50 C 196.45 746.57, 287.57 748.26, 386.50 748.50 C 422.85 745.91, 360.51 730.26, 350.50 720.50 C 254.58 667.73, 141.63 649.84, 39.50 609.50 Z" fill="rgb(161.47668393782382,213.45854922279793,250.01295336787564)" stroke="rgb(161.47668393782382,213.45854922279793,250.01295336787564)" stroke-width="1" />
<path d="M 40.50 609.50 C 28.49 636.42, 72.87 639.00, 72.50 665.50 C 111.92 669.57, 101.49 723.53, 67.50 724.50 C 49.48 719.34, 52.68 734.37, 47.50 744.50 C 54.31 749.96, 63.43 746.37, 71.50 747.50 C 121.50 747.50, 170.50 747.50, 219.50 747.50 C 269.50 747.50, 318.50 747.50, 367.50 747.50 C 434.19 752.04, 354.72 725.67, 334.50 712.50 C 290.79 691.59, 246.01 675.67, 200.50 661.50 C 183.33 656.57, 167.91 650.86, 151.50 647.50 C 113.68 635.33, 75.98 626.31, 41.50 609.50 Z" fill="rgb(163.05263157894737,216.05292869269948,254.91073853989812)" stroke="rgb(163.05263157894737,216.05292869269948,254.91073853989812)" stroke-width="1" />
<path d="M 0.50 74.50 C 9.17 165.08, -29.35 528.97, 49.50 363.50 C 74.23 348.29, 126.59 299.50, 69.50 282.50 C 51.14 285.56, 47.93 271.39, 46.50 257.50 C 65.39 249.18, 59.32 222.12, 80.50 225.50 C 142.34 216.67, 99.31 105.44, 48.50 136.50 C 56.65 90.64, -6.82 110.68, 1.50 74.50 Z" fill="rgb(159.30188679245282,213.54716981132074,249.44025157232704)" stroke="rgb(159.30188679245282,213.54716981132074,249.44025157232704)" stroke-width="1" />
<path d="M 0.50 72.50 C 0.50 187.17, 0.50 301.83, 0.50 416.50 C 11.05 432.93, 34.06 436.89, 34.50 411.50 C 27.86 378.79, 51.96 364.76, 68.50 349.50 C 66.38 333.09, 84.36 336.97, 91.50 327.50 C 105.73 310.71, 90.59 285.97, 72.50 283.50 C 64.66 279.71, 49.21 286.13, 50.50 274.50 C 35.66 253.98, 67.02 247.18, 66.50 227.50 C 78.46 226.81, 88.71 225.43, 97.50 220.50 C 131.63 190.85, 95.18 110.78, 49.50 136.50 C 57.53 90.92, -6.98 111.87, 1.50 73.50 Z" fill="rgb(250.23782852218872,253.11826798793624,254.5059241706161)" stroke="rgb(250.23782852218872,253.11826798793624,254.5059241706161)" stroke-width="1" />
<path d="M 988.50 639.50 C 940.65 651.13, 892.56 662.20, 842.50 668.50 C 518.32 684.76, 1114.13 867.98, 989.50 640.50 Z" fill="rgb(169.07239819004525,216.0814479638009,248.85972850678732)" stroke="rgb(169.07239819004525,216.0814479638009,248.85972850678732)" stroke-width="1" />
<path d="M 282.50 670.50 C 314.38 713.09, 370.82 725.21, 415.50 748.50 C 467.85 748.46, 516.19 748.16, 568.50 748.50 C 588.47 746.40, 603.37 743.38, 618.50 732.50 C 628.53 721.47, 646.25 722.61, 659.50 715.50 C 684.69 705.62, 709.84 698.07, 732.50 684.50 C 763.02 673.35, 730.57 679.52, 717.50 676.50 C 696.65 668.05, 674.98 676.24, 658.50 685.50 C 648.04 688.00, 634.07 672.70, 622.50 683.50 C 596.18 687.54, 571.97 694.24, 545.50 695.50 C 525.41 698.22, 512.25 686.61, 493.50 688.50 C 464.71 690.91, 441.22 682.91, 417.50 675.50 C 420.65 701.65, 428.17 721.39, 392.50 690.50 C 400.44 715.81, 314.08 653.95, 332.50 681.50 C 359.70 706.12, 296.56 677.96, 283.50 671.50 Z" fill="rgb(213.73653000715674,231.13832941417033,243.19456088334528)" stroke="rgb(213.73653000715674,231.13832941417033,243.19456088334528)" stroke-width="1" />
<path d="M 915.50 656.50 C 886.80 657.78, 859.90 670.76, 831.50 666.50 C 791.02 671.68, 751.88 681.36, 717.50 696.50 C 740.62 705.52, 761.40 716.77, 779.50 734.50 C 796.29 759.33, 830.91 744.30, 856.50 748.50 C 901.82 755.32, 985.73 675.06, 916.50 657.50 Z" fill="rgb(163.74259974259974,214.66537966537967,251.33848133848133)" stroke="rgb(163.74259974259974,214.66537966537967,251.33848133848133)" stroke-width="1" />
<path d="M 446.50 115.50 C 414.66 115.53, 382.61 139.27, 386.50 174.50 C 380.68 183.50, 353.65 174.04, 357.50 196.50 C 342.78 202.46, 327.23 202.99, 312.50 205.50 C 308.88 210.28, 349.90 206.17, 364.50 206.50 C 417.89 207.81, 487.66 208.12, 548.50 206.50 C 584.21 218.16, 594.24 191.92, 562.50 180.50 C 543.16 201.68, 529.75 174.16, 512.50 176.50 C 516.13 138.44, 484.54 109.33, 447.50 115.50 Z" fill="rgb(246.45307224848077,249.5997636731938,252.2712694125591)" stroke="rgb(246.45307224848077,249.5997636731938,252.2712694125591)" stroke-width="1" />
<path d="M 915.50 657.50 C 897.24 662.95, 875.40 659.77, 858.50 668.50 C 820.54 668.24, 767.86 677.35, 744.50 688.50 C 709.48 698.04, 762.97 713.50, 773.50 725.50 C 784.49 733.65, 788.72 750.20, 803.50 747.50 C 836.50 747.50, 868.50 747.50, 900.50 747.50 C 892.02 707.58, 938.60 713.42, 950.50 685.50 C 952.11 662.93, 925.43 674.85, 916.50 658.50 Z" fill="rgb(163.0664988942271,216.02569968733317,254.9216045146038)" stroke="rgb(163.0664988942271,216.02569968733317,254.9216045146038)" stroke-width="1" />
<path d="M 773.50 50.50 C 758.50 53.59, 734.59 63.05, 741.50 83.50 C 743.35 94.64, 718.96 89.60, 720.50 104.50 C 721.78 124.27, 694.09 116.90, 685.50 128.50 C 768.70 131.64, 859.09 129.96, 946.50 130.50 C 937.71 119.71, 927.06 97.94, 906.50 96.50 C 875.59 99.23, 869.99 47.22, 839.50 64.50 C 830.11 72.58, 837.80 91.25, 822.50 89.50 C 794.05 87.57, 804.04 48.43, 774.50 50.50 Z" fill="rgb(249.9701117318436,250.6268156424581,252.19287709497206)" stroke="rgb(249.9701117318436,250.6268156424581,252.19287709497206)" stroke-width="1" />
<path d="M 998.50 154.50 C 996.12 168.95, 983.72 177.74, 986.50 194.50 C 967.14 193.25, 951.26 206.15, 951.50 224.50 C 905.34 202.79, 880.23 300.53, 934.50 295.50 C 938.94 296.17, 939.39 300.48, 939.50 303.50 C 953.38 312.80, 959.39 340.39, 936.50 337.50 C 910.47 342.73, 925.86 354.83, 943.50 353.50 C 1045.25 398.74, 981.86 218.05, 999.50 154.50 Z" fill="rgb(250.68581324866503,253.47871265694906,254.6277962187906)" stroke="rgb(250.68581324866503,253.47871265694906,254.6277962187906)" stroke-width="1" />
<path d="M 20.50 574.50 C -105.20 739.65, 184.37 788.31, 34.50 623.50 C 36.10 605.17, 38.58 584.11, 21.50 574.50 Z" fill="rgb(207.1951219512195,233.6829268292683,252.6341463414634)" stroke="rgb(207.1951219512195,233.6829268292683,252.6341463414634)" stroke-width="1" />
<path d="M 283.50 672.50 C 306.00 703.26, 342.43 712.33, 372.50 729.50 C 387.64 735.49, 401.05 743.25, 415.50 748.50 C 445.50 748.50, 474.50 748.50, 503.50 748.50 C 510.24 728.41, 503.42 710.06, 491.50 691.50 C 462.63 690.82, 438.07 683.14, 413.50 675.50 C 413.75 691.04, 448.39 730.42, 417.50 709.50 C 383.95 676.71, 399.89 712.62, 366.50 688.50 C 352.83 681.48, 307.80 662.71, 339.50 685.50 C 352.85 706.63, 298.65 677.18, 284.50 672.50 Z" fill="rgb(221.3816638005159,238.63800515907135,250.07351676698195)" stroke="rgb(221.3816638005159,238.63800515907135,250.07351676698195)" stroke-width="1" />
<path d="M 780.50 396.50 C 601.58 482.46, 1216.96 434.24, 917.50 444.50 C 871.17 429.30, 831.95 399.33, 781.50 396.50 Z" fill="rgb(16.509708737864077,83.07281553398059,119.40776699029126)" stroke="rgb(16.509708737864077,83.07281553398059,119.40776699029126)" stroke-width="1" />
<path d="M 980.50 639.50 C 960.14 643.97, 942.07 653.96, 920.50 655.50 C 926.18 673.54, 955.82 660.09, 953.50 684.50 C 938.80 691.04, 943.46 713.85, 925.50 709.50 C 907.37 711.13, 899.47 729.47, 904.50 745.50 C 994.54 790.79, 1032.22 684.44, 981.50 639.50 Z" fill="rgb(230.97408495858937,245.0547689019503,254.75233769703448)" stroke="rgb(230.97408495858937,245.0547689019503,254.75233769703448)" stroke-width="1" />
<path d="M 0.50 130.50 C 0.50 176.17, 0.50 221.83, 0.50 267.50 C 0.50 314.50, 0.50 360.50, 0.50 406.50 C 5.24 410.67, 9.41 389.51, 8.50 380.50 C 2.83 358.14, 26.05 350.34, 25.50 331.50 C 47.65 322.05, 42.29 282.46, 18.50 283.50 C 15.25 274.55, 10.30 262.91, 18.50 255.50 C 20.74 240.18, 28.24 235.50, 40.50 230.50 C 55.23 202.99, 41.34 153.09, 14.50 157.50 C 13.49 146.54, 12.09 134.66, 1.50 130.50 Z" fill="rgb(210.31333979775593,236.08754675162766,254.78210278431916)" stroke="rgb(210.31333979775593,236.08754675162766,254.78210278431916)" stroke-width="1" />
<path d="M 20.50 572.50 C 13.12 581.28, -7.97 587.44, 4.50 600.50 C 7.62 630.56, 15.44 654.22, 29.50 675.50 C 66.64 705.41, 3.21 719.17, 17.50 745.50 C 38.81 755.57, 52.11 743.88, 51.50 723.50 C 84.48 732.76, 118.22 685.00, 80.50 670.50 C 62.75 671.26, 74.26 644.79, 56.50 645.50 C 44.83 647.08, 48.76 624.89, 34.50 624.50 C 38.43 606.75, 38.13 582.98, 21.50 573.50 Z" fill="rgb(232.37181996086105,245.54626782219736,254.818563041655)" stroke="rgb(232.37181996086105,245.54626782219736,254.818563041655)" stroke-width="1" />
<path d="M 442.50 142.50 C 418.82 142.60, 399.09 162.50, 402.50 187.50 C 382.89 179.84, 385.90 204.03, 371.50 203.50 C 374.51 208.78, 439.69 205.30, 462.50 207.50 C 489.48 205.86, 517.08 208.19, 544.50 204.50 C 536.31 200.26, 538.91 184.44, 527.50 189.50 C 514.00 203.53, 503.40 184.70, 491.50 184.50 C 494.20 156.35, 470.32 137.49, 443.50 142.50 Z" fill="rgb(210.1313846153846,236.0996923076923,254.80184615384616)" stroke="rgb(210.1313846153846,236.0996923076923,254.80184615384616)" stroke-width="1" />
<path d="M 711.50 697.50 C 674.32 710.99, 637.64 725.67, 603.50 746.50 C 601.75 749.80, 619.01 747.86, 625.50 748.50 C 681.34 748.48, 734.25 748.54, 788.50 748.50 C 769.80 722.81, 741.81 705.66, 712.50 698.50 Z" fill="rgb(225.10654205607477,111.73831775700934,121.90093457943925)" stroke="rgb(225.10654205607477,111.73831775700934,121.90093457943925)" stroke-width="1" />
<path d="M 779.50 396.50 C 760.06 398.68, 695.49 416.47, 738.50 428.50 C 770.14 449.62, 811.26 454.94, 845.50 440.50 C 859.34 439.94, 920.55 447.54, 892.50 435.50 C 855.82 418.64, 821.87 398.62, 780.50 396.50 Z" fill="rgb(9.902469577666428,66.63457408733,104.96098783106657)" stroke="rgb(9.902469577666428,66.63457408733,104.96098783106657)" stroke-width="1" />
<path d="M 43.50 560.50 C 75.69 584.76, 110.92 607.83, 143.50 633.50 C 174.43 645.21, 202.90 659.41, 233.50 668.50 C 298.10 698.11, 215.23 628.83, 195.50 613.50 C 170.02 598.17, 207.46 625.12, 201.50 626.50 C 181.46 617.30, 108.33 562.22, 151.50 604.50 C 116.72 586.74, 81.01 572.67, 44.50 560.50 Z" fill="rgb(101.98845598845598,158.62481962481962,197.52723665223664)" stroke="rgb(101.98845598845598,158.62481962481962,197.52723665223664)" stroke-width="1" />
<path d="M 790.50 557.50 C 595.43 658.87, 1095.34 550.97, 790.50 557.50 Z" fill="rgb(106.62,158.06,180.98)" stroke="rgb(106.62,158.06,180.98)" stroke-width="1" />
<path d="M 261.50 325.50 C 224.67 339.45, 188.13 354.07, 151.50 368.50 C 114.06 392.98, 78.49 423.29, 42.50 446.50 C 81.39 434.27, 118.45 420.01, 152.50 398.50 C 161.81 397.75, 136.14 414.32, 133.50 422.50 C 158.50 407.67, 181.87 388.90, 205.50 376.50 C 171.18 414.67, 258.94 343.16, 262.50 325.50 Z" fill="rgb(18.800180342651036,97.19062218214607,152.08476104598736)" stroke="rgb(18.800180342651036,97.19062218214607,152.08476104598736)" stroke-width="1" />
<path d="M 796.50 557.50 C 579.82 649.06, 1070.34 567.48, 796.50 557.50 Z" fill="rgb(100.94392523364486,151.02803738317758,182.88785046728972)" stroke="rgb(100.94392523364486,151.02803738317758,182.88785046728972)" stroke-width="1" />
<path d="M 784.50 558.50 C 762.97 567.37, 742.18 578.00, 720.50 586.50 C 749.11 608.48, 793.77 616.81, 827.50 599.50 C 853.17 591.26, 876.87 580.68, 899.50 567.50 C 873.64 564.50, 847.97 569.90, 824.50 561.50 C 812.50 556.47, 798.30 559.18, 785.50 558.50 Z" fill="rgb(96.75567029319565,140.23898211322145,169.57348331182)" stroke="rgb(96.75567029319565,140.23898211322145,169.57348331182)" stroke-width="1" />
<path d="M 968.50 577.50 C 950.29 590.96, 906.76 604.93, 924.50 581.50 C 883.04 636.66, 821.72 644.65, 764.50 660.50 C 826.51 651.80, 896.91 665.35, 947.50 625.50 C 1044.64 573.18, 896.47 643.28, 969.50 577.50 Z" fill="rgb(106.72624434389141,172.04298642533936,218.0158371040724)" stroke="rgb(106.72624434389141,172.04298642533936,218.0158371040724)" stroke-width="1" />
<path d="M 711.50 698.50 C 683.07 709.13, 654.25 721.71, 629.50 735.50 C 601.12 751.35, 647.24 747.44, 660.50 747.50 C 703.50 747.50, 745.50 747.50, 787.50 747.50 C 769.66 722.67, 741.29 706.12, 712.50 698.50 Z" fill="rgb(232.34720890082485,104.2641473239977,113.50374064837905)" stroke="rgb(232.34720890082485,104.2641473239977,113.50374064837905)" stroke-width="1" />
<path d="M 761.50 344.50 C 804.99 361.93, 857.93 356.54, 892.50 395.50 C 910.20 410.76, 936.85 439.58, 912.50 405.50 C 933.96 410.92, 952.80 421.25, 972.50 429.50 C 967.39 416.45, 920.09 380.85, 952.50 393.50 C 966.32 399.80, 978.84 406.81, 991.50 413.50 C 982.38 386.20, 952.16 385.53, 932.50 373.50 C 912.68 363.45, 895.55 350.33, 872.50 351.50 C 835.69 349.08, 798.53 350.55, 762.50 344.50 Z" fill="rgb(18.689628779181017,97.15059318790662,152.08362035973977)" stroke="rgb(18.689628779181017,97.15059318790662,152.08362035973977)" stroke-width="1" />
<path d="M 998.50 200.50 C 1001.31 222.36, 976.19 220.89, 978.50 242.50 C 948.17 240.13, 943.52 301.62, 971.50 307.50 C 977.17 318.11, 984.55 340.20, 966.50 340.50 C 943.66 362.41, 982.78 370.22, 998.50 363.50 C 999.50 309.17, 999.50 254.83, 999.50 200.50 Z" fill="rgb(210.4954724409449,236.24271653543306,254.8051181102362)" stroke="rgb(210.4954724409449,236.24271653543306,254.8051181102362)" stroke-width="1" />
<path d="M 971.50 577.50 C 952.93 586.20, 934.68 595.69, 914.50 600.50 C 938.05 567.11, 906.55 598.37, 892.50 611.50 C 861.76 643.22, 819.78 644.39, 781.50 654.50 C 756.14 661.62, 790.02 657.95, 799.50 656.50 C 841.36 653.22, 885.78 661.57, 919.50 639.50 C 940.56 625.52, 988.94 616.50, 987.50 595.50 C 975.66 602.70, 963.61 606.96, 952.50 613.50 C 918.92 624.58, 970.32 588.91, 972.50 577.50 Z" fill="rgb(101.87576900178607,158.41674935503076,197.20301647152212)" stroke="rgb(101.87576900178607,158.41674935503076,197.20301647152212)" stroke-width="1" />
<path d="M 783.50 90.50 C 752.18 94.29, 750.82 124.20, 719.50 128.50 C 770.08 130.19, 817.66 130.74, 871.50 130.50 C 890.17 130.50, 907.83 130.50, 925.50 130.50 C 919.63 124.52, 908.24 112.59, 894.50 114.50 C 872.04 116.24, 863.38 90.95, 841.50 96.50 C 824.84 130.35, 805.51 90.59, 784.50 90.50 Z" fill="rgb(211.39091646390918,236.24006488240065,254.44018653690188)" stroke="rgb(211.39091646390918,236.24006488240065,254.44018653690188)" stroke-width="1" />
<path d="M 62.50 131.50 C 38.76 133.63, 49.69 161.37, 50.50 177.50 C 57.20 193.80, 51.03 209.86, 63.50 223.50 C 85.63 231.30, 113.45 217.36, 111.50 192.50 C 109.32 165.36, 97.03 128.02, 63.50 131.50 Z" fill="rgb(253.86162361623616,254.78536285362853,254.95284952849528)" stroke="rgb(253.86162361623616,254.78536285362853,254.95284952849528)" stroke-width="1" />
<path d="M 983.50 639.50 C 971.53 641.11, 951.03 643.27, 961.50 659.50 C 991.18 668.00, 973.06 703.39, 955.50 709.50 C 950.59 727.73, 951.72 756.43, 977.50 748.50 C 1010.06 758.06, 996.99 722.99, 999.50 703.50 C 993.90 682.07, 1013.19 638.64, 984.50 639.50 Z" fill="rgb(207.10785051417105,235.95811387007774,254.90669676448456)" stroke="rgb(207.10785051417105,235.95811387007774,254.90669676448456)" stroke-width="1" />
<path d="M 668.50 412.50 C 652.11 415.96, 636.59 421.50, 622.50 430.50 C 674.86 438.63, 727.10 446.04, 778.50 455.50 C 801.34 471.21, 888.14 437.23, 832.50 443.50 C 813.39 451.82, 786.80 454.44, 769.50 443.50 C 736.62 429.81, 707.32 410.86, 669.50 412.50 Z" fill="rgb(19.523149359142035,96.23803295840963,148.23672508501178)" stroke="rgb(19.523149359142035,96.23803295840963,148.23672508501178)" stroke-width="1" />
<path d="M 172.50 354.50 C 128.67 368.44, 83.77 379.81, 41.50 397.50 C 41.39 415.16, 9.51 442.89, 41.50 446.50 C 74.81 423.06, 107.68 399.55, 139.50 373.50 C 147.29 364.50, 187.11 358.31, 173.50 354.50 Z" fill="rgb(29.383717846725006,126.49403341288783,195.36409440466718)" stroke="rgb(29.383717846725006,126.49403341288783,195.36409440466718)" stroke-width="1" />
<path d="M 470.50 536.50 C 459.59 538.28, 409.36 543.41, 433.50 546.50 C 476.63 558.14, 518.40 570.62, 562.50 577.50 C 587.25 577.49, 630.36 575.65, 637.50 567.50 C 592.40 569.25, 555.61 553.38, 515.50 545.50 C 499.98 542.96, 487.55 535.36, 471.50 536.50 Z" fill="rgb(125.75161380858827,173.76003367948357,160.67836093179903)" stroke="rgb(125.75161380858827,173.76003367948357,160.67836093179903)" stroke-width="1" />
<path d="M 795.50 549.50 C 739.47 559.71, 682.61 567.91, 625.50 575.50 C 639.29 589.02, 666.79 596.71, 690.50 593.50 C 722.26 586.41, 750.57 573.41, 778.50 559.50 C 798.06 554.53, 820.74 555.36, 836.50 564.50 C 875.35 566.01, 813.27 546.56, 796.50 549.50 Z" fill="rgb(102.24600728495376,157.81647520313814,195.5133090501541)" stroke="rgb(102.24600728495376,157.81647520313814,195.5133090501541)" stroke-width="1" />
<path d="M 0.50 596.50 C 0.50 647.17, 0.50 697.83, 0.50 748.50 C 23.37 753.05, 11.07 741.14, 15.50 727.50 C 13.85 716.73, 26.05 721.33, 30.50 717.50 C 54.69 686.50, 15.80 664.86, 8.50 639.50 C 8.48 624.97, 10.06 609.20, 1.50 597.50 Z" fill="rgb(207.4182645433864,235.9987000324992,254.87455313617158)" stroke="rgb(207.4182645433864,235.9987000324992,254.87455313617158)" stroke-width="1" />
<path d="M 148.50 430.50 C 121.23 433.63, 95.77 441.14, 71.50 451.50 C 30.92 451.69, 98.74 464.60, 114.50 463.50 C 142.58 453.15, 169.69 442.85, 200.50 441.50 C 204.38 434.88, 166.68 428.49, 149.50 430.50 Z" fill="rgb(62.41468334005648,123.98709156918112,85.25171440096813)" stroke="rgb(62.41468334005648,123.98709156918112,85.25171440096813)" stroke-width="1" />
<path d="M 105.50 544.50 C 92.48 545.49, 33.35 555.58, 69.50 555.50 C 94.72 566.00, 120.30 573.20, 147.50 576.50 C 165.15 580.51, 226.56 566.39, 188.50 565.50 C 158.05 563.75, 135.20 547.07, 106.50 544.50 Z" fill="rgb(125.68346522282383,173.8154935443565,161.0603915035402)" stroke="rgb(125.68346522282383,173.8154935443565,161.0603915035402)" stroke-width="1" />
<path d="M 0.50 97.50 C -7.40 124.95, 15.51 134.47, 15.50 158.50 C 29.28 160.72, 43.24 152.38, 46.50 136.50 C 52.22 109.86, 26.50 92.24, 1.50 97.50 Z" fill="rgb(252.314145470772,254.078536367693,254.72780008924587)" stroke="rgb(252.314145470772,254.078536367693,254.72780008924587)" stroke-width="1" />
<path d="M 998.50 411.50 C 975.51 434.58, 948.44 447.85, 914.50 444.50 C 932.29 455.00, 973.19 459.78, 999.50 470.50 C 999.50 450.17, 999.50 430.83, 999.50 411.50 Z" fill="rgb(9.886673151750973,66.4285019455253,104.1828793774319)" stroke="rgb(9.886673151750973,66.4285019455253,104.1828793774319)" stroke-width="1" />
<path d="M 871.50 442.50 C 848.73 448.58, 827.69 458.85, 803.50 461.50 C 821.69 471.80, 871.16 477.16, 898.50 459.50 C 948.93 453.74, 898.35 441.87, 872.50 442.50 Z" fill="rgb(62.296606000983765,122.97097884899163,84.35268076733891)" stroke="rgb(62.296606000983765,122.97097884899163,84.35268076733891)" stroke-width="1" />
<path d="M 998.50 537.50 C 972.33 548.31, 942.73 550.83, 916.50 561.50 C 970.13 556.09, 1015.19 628.28, 999.50 537.50 Z" fill="rgb(101.94690265486726,154.99115044247787,188.7433628318584)" stroke="rgb(101.94690265486726,154.99115044247787,188.7433628318584)" stroke-width="1" />
<path d="M 997.50 538.50 C 971.64 548.59, 942.90 551.72, 916.50 560.50 C 945.97 561.35, 975.76 571.38, 997.50 593.50 C 1000.17 577.50, 1000.17 554.50, 998.50 538.50 Z" fill="rgb(96.8170542635659,140.22842377260983,169.328165374677)" stroke="rgb(96.8170542635659,140.22842377260983,169.328165374677)" stroke-width="1" />
<path d="M 850.50 535.50 C 835.84 538.52, 820.82 540.67, 806.50 544.50 C 829.63 550.25, 851.67 560.03, 875.50 565.50 C 893.07 564.36, 908.89 561.37, 923.50 555.50 C 900.99 549.69, 877.01 538.85, 851.50 535.50 Z" fill="rgb(125.89161021365294,173.7107868681605,160.6685773840542)" stroke="rgb(125.89161021365294,173.7107868681605,160.6685773840542)" stroke-width="1" />
<path d="M 326.50 448.50 C 310.78 450.16, 258.70 456.55, 294.50 467.50 C 308.52 475.96, 324.40 471.35, 337.50 466.50 C 350.49 463.81, 361.69 460.22, 374.50 460.50 C 432.92 462.48, 350.21 445.17, 327.50 448.50 Z" fill="rgb(62.02870813397129,123.29665071770334,85.72667464114832)" stroke="rgb(62.02870813397129,123.29665071770334,85.72667464114832)" stroke-width="1" />
<path d="M 310.50 535.50 C 247.31 547.36, 316.10 562.66, 349.50 558.50 C 370.08 557.01, 392.68 550.00, 408.50 547.50 C 373.56 552.12, 342.15 542.13, 311.50 535.50 Z" fill="rgb(125.60581683168317,173.38242574257427,161.05693069306932)" stroke="rgb(125.60581683168317,173.38242574257427,161.05693069306932)" stroke-width="1" />
<path d="M 260.50 567.50 C 293.07 596.92, 315.80 635.14, 351.50 661.50 C 331.55 625.64, 298.33 588.37, 261.50 567.50 Z" fill="rgb(106.7060465116279,172.1813953488372,218.14697674418605)" stroke="rgb(106.7060465116279,172.1813953488372,218.14697674418605)" stroke-width="1" />
<path d="M 352.50 343.50 C 315.48 370.44, 293.91 410.51, 259.50 440.50 C 298.51 419.45, 330.42 380.62, 352.50 344.50 Z" fill="rgb(28.03422756706753,122.88991674375578,189.68825161887142)" stroke="rgb(28.03422756706753,122.88991674375578,189.68825161887142)" stroke-width="1" />
<path d="M 563.50 179.50 C 542.25 183.07, 533.61 211.60, 561.50 207.50 C 598.09 215.01, 580.31 189.09, 564.50 179.50 Z" fill="rgb(250.35714285714286,235.34151785714286,237.05133928571428)" stroke="rgb(250.35714285714286,235.34151785714286,237.05133928571428)" stroke-width="1" />
<path d="M 516.50 213.50 C 504.11 220.82, 488.48 214.12, 475.50 219.50 C 497.22 236.15, 577.46 223.20, 517.50 213.50 Z" fill="rgb(41.786466165413536,130.7578947368421,194.9218045112782)" stroke="rgb(41.786466165413536,130.7578947368421,194.9218045112782)" stroke-width="1" />
<path d="M 341.50 618.50 C 361.37 638.86, 378.30 666.58, 402.50 682.50 C 389.52 658.52, 367.35 633.04, 342.50 619.50 Z" fill="rgb(204.2237762237762,228.243006993007,241.76398601398603)" stroke="rgb(204.2237762237762,228.243006993007,241.76398601398603)" stroke-width="1" />
<path d="M 581.50 256.50 C 579.28 279.28, 610.65 278.44, 630.50 284.50 C 646.34 284.84, 595.92 262.32, 582.50 256.50 Z" fill="rgb(55.77303754266212,138.05972696245735,195.51877133105802)" stroke="rgb(55.77303754266212,138.05972696245735,195.51877133105802)" stroke-width="1" />
<path d="M 402.50 321.50 C 324.02 391.21, 355.54 396.13, 402.50 321.50 Z" fill="rgb(44.234042553191486,107.93617021276596,151.63829787234042)" stroke="rgb(44.234042553191486,107.93617021276596,151.63829787234042)" stroke-width="1" />
<path d="M 403.50 321.50 C 378.35 340.06, 361.82 368.05, 339.50 388.50 C 365.91 373.31, 388.78 347.32, 403.50 322.50 Z" fill="rgb(216.23191094619665,233.71799628942486,241.7903525046382)" stroke="rgb(216.23191094619665,233.71799628942486,241.7903525046382)" stroke-width="1" />
<path d="M 632.50 719.50 C 617.01 723.13, 600.98 725.44, 586.50 731.50 C 573.72 761.86, 633.80 722.22, 633.50 719.50 Z" fill="rgb(117.16,177.80380952380952,220.66476190476192)" stroke="rgb(117.16,177.80380952380952,220.66476190476192)" stroke-width="1" />
<path d="M 659.50 653.50 C 632.23 658.48, 606.61 667.45, 583.50 682.50 C 600.33 684.10, 644.35 660.27, 660.50 653.50 Z" fill="rgb(205.33535353535353,232.6989898989899,247.17777777777778)" stroke="rgb(205.33535353535353,232.6989898989899,247.17777777777778)" stroke-width="1" />
<path d="M 581.50 320.50 C 603.68 337.23, 637.71 350.07, 662.50 351.50 C 633.99 343.33, 610.73 325.93, 582.50 320.50 Z" fill="rgb(209.18637274549098,233.84569138276552,244.7735470941884)" stroke="rgb(209.18637274549098,233.84569138276552,244.7735470941884)" stroke-width="1" />
<path d="M 457.50 319.50 C 384.65 383.63, 413.21 390.74, 457.50 319.50 Z" fill="rgb(27.74468085106383,94.36170212765957,140.59574468085106)" stroke="rgb(27.74468085106383,94.36170212765957,140.59574468085106)" stroke-width="1" />
<path d="M 399.50 624.50 C 420.43 644.39, 435.34 669.12, 458.50 685.50 C 445.40 662.37, 424.17 638.65, 400.50 624.50 Z" fill="rgb(209.19624217118997,232.62839248434238,245.1795407098121)" stroke="rgb(209.19624217118997,232.62839248434238,245.1795407098121)" stroke-width="1" />
<path d="M 457.50 319.50 C 434.34 337.75, 419.84 364.09, 398.50 381.50 C 423.53 368.00, 445.63 343.41, 458.50 319.50 Z" fill="rgb(211.72594142259413,230.8723849372385,239.7154811715481)" stroke="rgb(211.72594142259413,230.8723849372385,239.7154811715481)" stroke-width="1" />
<path d="M 659.50 326.50 C 674.89 344.64, 718.70 362.74, 727.50 360.50 C 703.48 351.29, 684.37 333.66, 660.50 327.50 Z" fill="rgb(204.24113475177305,230.65484633569739,242.87943262411346)" stroke="rgb(204.24113475177305,230.65484633569739,242.87943262411346)" stroke-width="1" />
<path d="M 727.50 643.50 C 708.37 648.76, 690.14 656.22, 673.50 667.50 C 642.13 693.24, 724.29 646.66, 728.50 643.50 Z" fill="rgb(206.4925,233.7025,247.9375)" stroke="rgb(206.4925,233.7025,247.9375)" stroke-width="1" />
<path d="M 466.50 275.50 C 422.94 297.50, 439.43 316.88, 466.50 275.50 Z" fill="rgb(70.61032863849765,147.95774647887325,199.10798122065728)" stroke="rgb(70.61032863849765,147.95774647887325,199.10798122065728)" stroke-width="1" />
<path d="M 534.50 276.50 C 545.68 287.59, 560.43 296.19, 572.50 307.50 C 564.53 294.43, 552.68 277.22, 535.50 276.50 Z" fill="rgb(72.5984555984556,144.96138996138995,194.05405405405406)" stroke="rgb(72.5984555984556,144.96138996138995,194.05405405405406)" stroke-width="1" />
<path d="M 572.50 697.50 C 525.25 725.81, 544.43 737.29, 572.50 697.50 Z" fill="rgb(136.42131979695432,187.80710659898477,223.53807106598984)" stroke="rgb(136.42131979695432,187.80710659898477,223.53807106598984)" stroke-width="1" />
<path d="M 381.50 275.50 C 334.64 297.07, 350.41 311.63, 381.50 275.50 Z" fill="rgb(98.72727272727273,164.57219251336898,207.16042780748663)" stroke="rgb(98.72727272727273,164.57219251336898,207.16042780748663)" stroke-width="1" />
<path d="M 75.50 724.50 C 42.74 732.99, 89.62 732.96, 75.50 724.50 Z" fill="rgb(163.15068493150685,215.986301369863,254.67123287671234)" stroke="rgb(163.15068493150685,215.986301369863,254.67123287671234)" stroke-width="1" />
</svg>