<svg xmlns="http://www.w3.org/2000/svg" width="1000" height="750" viewbox="0 0 1000 750">
<path d="M 0.50 0.50 C 0.50 146.17, 0.50 291.83, 0.50 437.50 C 3.82 540.51, -6.15 655.82, 5.50 749.50 C 53.17 749.50, 99.83 749.50, 146.50 749.50 C 194.17 749.50, 240.83 749.50, 287.50 749.50 C 339.17 749.50, 389.83 749.50, 440.50 749.50 C 492.17 749.50, 542.83 749.50, 593.50 749.50 C 645.17 749.50, 695.83 749.50, 746.50 749.50 C 798.50 749.50, 849.50 749.50, 900.50 749.50 C 992.75 772.08, 1015.24 725.91, 999.50 641.50 C 999.50 491.83, 999.50 343.17, 999.50 194.50 C 999.50 129.17, 999.50 64.83, 999.50 0.50 C 938.17 0.50, 877.83 0.50, 817.50 0.50 C 756.17 0.50, 695.83 0.50, 635.50 0.50 C 582.17 0.50, 529.83 0.50, 477.50 0.50 C 423.83 0.50, 371.17 0.50, 318.50 0.50 C 265.17 0.50, 212.83 0.50, 160.50 0.50 C 106.83 0.50, 54.17 0.50, 1.50 0.50 Z" fill="rgb(114.83937248621399,176.56911205343332,221.7920177625712)" stroke="rgb(114.83937248621399,176.56911205343332,221.7920177625712)" stroke-width="1" />
<path d="M 642.50 0.50 C 473.14 7.29, 283.26 1.65, 105.50 3.50 C -121.45 -6.20, 99.20 131.86, 109.50 209.50 C 101.57 226.14, 84.12 227.75, 69.50 229.50 C 42.80 289.53, 140.35 328.83, 37.50 384.50 C 60.30 400.17, 114.70 361.66, 151.50 358.50 C 266.59 326.82, 373.00 277.57, 474.50 216.50 C 520.21 215.40, 504.30 206.95, 467.50 209.50 C 375.74 207.34, 243.44 220.78, 384.50 177.50 C 380.10 73.50, 532.13 125.43, 517.50 163.50 C 519.19 116.43, 535.90 75.14, 572.50 44.50 C 582.55 35.67, 592.29 29.51, 602.50 24.50 C 670.18 -12.11, 769.88 17.52, 803.50 77.50 C 838.35 81.84, 864.45 40.98, 900.50 95.50 C 510.00 609.89, 1424.12 -8.83, 643.50 0.50 Z" fill="rgb(156.75457481162542,212.34768568353067,250.06135629709365)" stroke="rgb(156.75457481162542,212.34768568353067,250.06135629709365)" stroke-width="1" />
<path d="M 642.50 0.50 C 565.67 6.33, 482.22 2.28, 402.50 3.50 C 337.83 3.50, 274.17 3.50, 210.50 3.50 C 145.83 3.50, 82.17 3.50, 18.50 3.50 C 12.15 4.15, 4.19 2.19, 0.50 4.50 C 1.09 36.25, -3.01 72.46, 9.50 94.50 C 35.28 91.19, 45.85 115.93, 53.50 131.50 C 112.50 112.11, 140.79 229.67, 73.50 231.50 C 55.34 243.50, 36.34 281.18, 71.50 281.50 C 108.58 286.53, 104.88 336.21, 72.50 344.50 C 66.93 366.43, 38.32 368.22, 39.50 393.50 C 81.82 378.05, 125.22 366.64, 167.50 352.50 C 253.20 330.05, 331.84 292.94, 409.50 253.50 C 439.58 243.57, 460.56 214.10, 493.50 213.50 C 503.73 211.25, 501.64 213.64, 493.50 211.50 C 487.96 208.32, 482.92 211.66, 477.50 210.50 C 438.17 209.50, 399.83 209.50, 361.50 209.50 C 338.34 210.85, 275.34 209.40, 327.50 201.50 C 356.85 207.97, 356.15 171.84, 382.50 177.50 C 384.92 158.52, 388.33 140.37, 404.50 127.50 C 442.73 101.82, 516.13 112.27, 513.50 168.50 C 521.41 142.89, 523.65 91.02, 552.50 64.50 C 580.51 31.00, 616.03 13.26, 655.50 8.50 C 702.55 5.63, 742.11 18.40, 774.50 48.50 C 803.57 46.09, 794.98 80.60, 817.50 86.50 C 835.61 60.07, 866.25 48.01, 884.50 86.50 C 1036.38 151.40, 829.88 106.04, 824.50 162.50 C 823.55 206.07, 807.45 242.36, 776.50 272.50 C 679.49 313.44, 780.03 332.02, 835.50 337.50 C 867.68 332.70, 901.15 359.13, 927.50 338.50 C 860.71 245.80, 1044.72 186.42, 999.50 14.50 C 999.50 10.17, 999.50 6.83, 999.50 3.50 C 943.50 3.50, 888.50 3.50, 833.50 3.50 C 788.16 4.20, 747.59 1.87, 703.50 2.50 C 684.83 -0.83, 662.83 1.17, 643.50 0.50 Z" fill="rgb(131.25295425066645,204.98036800219003,254.8480280010168)" stroke="rgb(131.25295425066645,204.98036800219003,254.8480280010168)" stroke-width="1" />
<path d="M 509.50 216.50 C 427.79 232.79, 362.79 288.84, 286.50 316.50 C 206.99 352.09, 114.52 364.09, 40.50 402.50 C 17.50 435.28, 41.10 459.66, 76.50 448.50 C 110.25 431.46, 152.54 423.46, 190.50 432.50 C 247.63 460.28, 301.79 450.34, 364.50 449.50 C 383.45 454.31, 403.54 455.05, 420.50 459.50 C 475.56 454.29, 525.54 425.28, 583.50 429.50 C 722.71 452.83, 897.57 454.53, 999.50 451.50 C 965.78 428.00, 1005.87 420.79, 999.50 374.50 C 965.29 361.33, 915.66 349.33, 872.50 344.50 C 856.24 337.14, 840.27 340.81, 823.50 339.50 C 782.35 334.02, 744.99 321.81, 708.50 307.50 C 635.05 291.42, 583.28 230.71, 510.50 216.50 Z" fill="rgb(29.29887416221101,125.83140673243467,194.33993523608706)" stroke="rgb(29.29887416221101,125.83140673243467,194.33993523608706)" stroke-width="1" />
<path d="M 0.50 422.50 C -58.54 719.24, 325.86 480.11, 501.50 564.50 C 582.02 590.23, 669.45 564.53, 749.50 555.50 C 802.22 531.30, 850.15 568.07, 900.50 562.50 C 1171.17 427.05, 570.16 414.33, 434.50 460.50 C 326.93 452.69, 236.86 448.84, 134.50 432.50 C 87.18 446.64, 39.16 468.20, 1.50 422.50 Z" fill="rgb(90.19003931847969,140.0386631716907,136.94167758846658)" stroke="rgb(90.19003931847969,140.0386631716907,136.94167758846658)" stroke-width="1" />
<path d="M 660.50 10.50 C 449.18 51.06, 576.41 238.51, 564.50 232.50 C 912.31 396.15, 768.52 17.41, 661.50 10.50 Z" fill="rgb(225.51526717557252,120.14503816793894,127.00763358778626)" stroke="rgb(225.51526717557252,120.14503816793894,127.00763358778626)" stroke-width="1" />
<path d="M 661.50 10.50 C 587.19 13.99, 520.30 80.85, 520.50 156.50 C 518.73 198.24, 558.86 173.52, 575.50 184.50 C 608.65 218.83, 547.99 205.37, 530.50 212.50 C 587.82 245.05, 644.34 284.67, 707.50 304.50 C 782.50 291.42, 837.52 208.84, 818.50 133.50 C 773.50 132.50, 729.50 132.50, 685.50 132.50 C 703.70 119.27, 719.64 104.86, 737.50 85.50 C 734.23 66.22, 751.77 53.06, 768.50 49.50 C 742.10 19.73, 702.87 10.22, 662.50 10.50 Z" fill="rgb(229.16497062259774,42.47107130157978,53.3069134255575)" stroke="rgb(229.16497062259774,42.47107130157978,53.3069134255575)" stroke-width="1" />
<path d="M 0.50 423.50 C 2.47 449.53, -3.45 483.45, 3.50 504.50 C 87.17 503.50, 169.83 503.50, 252.50 503.50 C 337.44 503.67, 419.18 503.11, 501.50 503.50 C 585.17 503.50, 667.83 503.50, 750.50 503.50 C 834.17 503.50, 916.83 503.50, 999.50 503.50 C 997.05 491.16, 1006.28 470.06, 990.50 469.50 C 940.15 458.19, 885.53 427.28, 835.50 454.50 C 801.07 470.46, 765.53 450.68, 730.50 449.50 C 678.53 442.10, 629.38 431.30, 576.50 429.50 C 549.47 428.92, 526.66 436.15, 503.50 442.50 C 480.46 448.40, 457.97 453.23, 436.50 460.50 C 406.12 461.77, 381.02 452.72, 353.50 449.50 C 257.82 476.74, 165.92 399.47, 73.50 450.50 C 45.25 458.73, 22.67 437.55, 1.50 423.50 Z" fill="rgb(54.521190832661524,104.0310568543898,71.95151445352988)" stroke="rgb(54.521190832661524,104.0310568543898,71.95151445352988)" stroke-width="1" />
<path d="M 356.50 504.50 C 348.65 506.80, 339.04 504.86, 330.50 505.50 C 274.83 505.50, 220.17 505.50, 165.50 505.50 C 109.83 505.50, 55.17 505.50, 0.50 505.50 C 6.22 529.31, -14.36 604.99, 18.50 571.50 C 82.69 527.01, 102.91 581.40, 168.50 570.50 C 232.05 563.19, 283.46 542.09, 349.50 557.50 C 415.25 535.48, 478.32 557.61, 539.50 573.50 C 603.02 583.12, 664.42 565.62, 724.50 559.50 C 756.33 556.50, 783.59 545.89, 815.50 546.50 C 870.63 577.70, 932.87 554.36, 987.50 539.50 C 1006.37 539.55, 997.37 517.70, 999.50 505.50 C 963.17 505.50, 927.83 505.50, 892.50 505.50 C 814.83 505.50, 738.17 505.50, 661.50 505.50 C 583.50 505.50, 506.50 505.50, 429.50 505.50 C 403.50 504.89, 381.19 506.25, 357.50 504.50 Z" fill="rgb(119.26412600976192,162.4027751134983,152.54922522752946)" stroke="rgb(119.26412600976192,162.4027751134983,152.54922522752946)" stroke-width="1" />
<path d="M 272.50 550.50 C 252.45 559.60, 230.89 565.06, 208.50 568.50 C 168.43 586.35, 121.25 577.17, 83.50 562.50 C 41.71 541.24, 13.82 579.01, 44.50 609.50 C 126.18 640.68, 212.59 657.04, 291.50 691.50 C 388.65 694.04, 400.34 707.85, 476.50 688.50 C 493.62 685.65, 476.65 666.23, 471.50 658.50 C 441.20 628.87, 424.95 592.34, 415.50 553.50 C 401.03 548.69, 388.52 555.90, 375.50 556.50 C 341.64 565.74, 304.48 558.27, 273.50 550.50 Z" fill="rgb(104.05000444879438,163.0843194827535,203.8803570898953)" stroke="rgb(104.05000444879438,163.0843194827535,203.8803570898953)" stroke-width="1" />
<path d="M 996.50 110.50 C 1001.93 145.20, 933.48 101.14, 949.50 131.50 C 902.65 134.74, 869.39 130.76, 822.50 133.50 C 826.30 157.38, 824.43 182.24, 818.50 203.50 C 804.90 250.89, 766.85 290.15, 721.50 306.50 C 752.02 323.11, 788.32 330.79, 823.50 337.50 C 867.42 334.21, 908.99 358.32, 947.50 334.50 C 957.47 319.80, 940.40 313.77, 937.50 301.50 C 882.24 302.36, 898.42 207.49, 948.50 222.50 C 972.38 190.44, 1012.60 164.37, 997.50 111.50 Z" fill="rgb(131.4694204192188,204.96537289544153,254.7338791591)" stroke="rgb(131.4694204192188,204.96537289544153,254.7338791591)" stroke-width="1" />
<path d="M 431.50 285.50 C 367.67 340.84, 351.13 298.96, 288.50 332.50 C 254.05 353.32, 257.14 395.32, 229.50 419.50 C 195.00 455.29, 256.33 432.48, 257.50 448.50 C 290.33 464.77, 333.31 434.36, 370.50 450.50 C 424.41 476.56, 421.76 416.56, 440.50 384.50 C 455.32 361.80, 480.87 345.03, 484.50 318.50 C 437.43 327.52, 391.91 336.27, 432.50 285.50 Z" fill="rgb(19.933460570833695,96.71211069662532,150.34510280211677)" stroke="rgb(19.933460570833695,96.71211069662532,150.34510280211677)" stroke-width="1" />
<path d="M 511.50 216.50 C 494.82 229.75, 483.34 212.98, 461.50 227.50 C 411.55 259.78, 357.74 279.32, 307.50 307.50 C 239.93 363.59, 348.86 294.84, 335.50 322.50 C 302.83 347.38, 369.64 316.30, 383.50 308.50 C 388.84 327.91, 448.12 266.10, 413.50 324.50 C 429.66 333.00, 458.51 312.80, 482.50 316.50 C 503.57 320.76, 520.60 309.00, 540.50 309.50 C 584.24 308.15, 622.14 331.71, 660.50 321.50 C 684.99 340.54, 726.10 328.03, 743.50 326.50 C 689.99 294.90, 629.92 282.57, 580.50 244.50 C 543.21 214.21, 503.37 228.33, 512.50 216.50 Z" fill="rgb(228.54690181943013,236.16906968760728,240.76759354617232)" stroke="rgb(228.54690181943013,236.16906968760728,240.76759354617232)" stroke-width="1" />
<path d="M 38.50 609.50 C 144.02 664.07, 8.88 755.79, 100.50 747.50 C 196.45 746.57, 287.57 748.26, 386.50 748.50 C 422.85 745.91, 360.51 730.26, 350.50 720.50 C 254.58 667.73, 141.63 649.84, 39.50 609.50 Z" fill="rgb(161.33160621761658,213.5336787564767,250.22279792746113)" stroke="rgb(161.33160621761658,213.5336787564767,250.22279792746113)" stroke-width="1" />
<path d="M 40.50 609.50 C 28.49 636.42, 72.87 639.00, 72.50 665.50 C 111.92 669.57, 101.49 723.53, 67.50 724.50 C 49.48 719.34, 52.68 734.37, 47.50 744.50 C 54.31 749.96, 63.43 746.37, 71.50 747.50 C 121.50 747.50, 170.50 747.50, 219.50 747.50 C 269.50 747.50, 318.50 747.50, 367.50 747.50 C 434.19 752.04, 354.72 725.67, 334.50 712.50 C 275.35 684.75, 214.36 663.86, 151.50 647.50 C 113.68 635.33, 75.98 626.31, 41.50 609.50 Z" fill="rgb(163.07163177784383,216.06110143942934,254.9119782599465)" stroke="rgb(163.07163177784383,216.06110143942934,254.9119782599465)" stroke-width="1" />
<path d="M 0.50 74.50 C 9.17 165.08, -29.35 528.97, 49.50 363.50 C 74.23 348.29, 126.59 299.50, 69.50 282.50 C 51.14 285.56, 47.93 271.39, 46.50 257.50 C 65.39 249.18, 59.32 222.12, 80.50 225.50 C 142.34 216.67, 99.31 105.44, 48.50 136.50 C 56.65 90.64, -6.82 110.68, 1.50 74.50 Z" fill="rgb(204.36641221374046,233.91603053435114,251.3969465648855)" stroke="rgb(204.36641221374046,233.91603053435114,251.3969465648855)" stroke-width="1" />
<path d="M 0.50 72.50 C 0.50 187.17, 0.50 301.83, 0.50 416.50 C 11.05 432.93, 34.06 436.89, 34.50 411.50 C 27.86 378.79, 51.96 364.76, 68.50 349.50 C 87.40 334.35, 117.20 295.92, 72.50 283.50 C 29.95 283.97, 55.14 246.48, 66.50 227.50 C 78.46 226.81, 88.71 225.43, 97.50 220.50 C 147.99 128.06, 12.64 134.28, 1.50 73.50 Z" fill="rgb(246.86135723965393,251.65870947565932,254.4236422391327)" stroke="rgb(246.86135723965393,251.65870947565932,254.4236422391327)" stroke-width="1" />
<path d="M 988.50 639.50 C 940.65 651.13, 892.56 662.20, 842.50 668.50 C 518.32 684.76, 1114.13 867.98, 989.50 640.50 Z" fill="rgb(176.044776119403,219.71268656716418,249.9589552238806)" stroke="rgb(176.044776119403,219.71268656716418,249.9589552238806)" stroke-width="1" />
<path d="M 282.50 670.50 C 314.38 713.09, 370.82 725.21, 415.50 748.50 C 483.08 742.11, 561.09 763.20, 618.50 732.50 C 651.83 713.77, 697.49 706.42, 732.50 684.50 C 764.02 675.37, 673.31 665.69, 658.50 685.50 C 626.32 673.03, 584.65 695.92, 545.50 695.50 C 502.88 687.12, 455.91 691.64, 417.50 675.50 C 420.65 701.65, 428.17 721.39, 392.50 690.50 C 400.44 715.81, 314.08 653.95, 332.50 681.50 C 359.70 706.12, 296.56 677.96, 283.50 671.50 Z" fill="rgb(212.66074149314372,230.45129507364143,242.84448958862367)" stroke="rgb(212.66074149314372,230.45129507364143,242.84448958862367)" stroke-width="1" />
<path d="M 915.50 656.50 C 886.80 657.78, 859.90 670.76, 831.50 666.50 C 791.02 671.68, 751.88 681.36, 717.50 696.50 C 740.62 705.52, 761.40 716.77, 779.50 734.50 C 796.29 759.33, 830.91 744.30, 856.50 748.50 C 901.82 755.32, 985.73 675.06, 916.50 657.50 Z" fill="rgb(164.24492385786803,214.9784263959391,251.49365482233503)" stroke="rgb(164.24492385786803,214.9784263959391,251.49365482233503)" stroke-width="1" />
<path d="M 446.50 115.50 C 414.66 115.53, 382.61 139.27, 386.50 174.50 C 361.06 178.87, 349.08 210.55, 312.50 205.50 C 370.59 208.60, 468.04 207.72, 548.50 206.50 C 625.65 204.45, 539.91 176.76, 512.50 176.50 C 516.13 138.44, 484.54 109.33, 447.50 115.50 Z" fill="rgb(244.9963394342762,246.25440931780366,249.5855241264559)" stroke="rgb(244.9963394342762,246.25440931780366,249.5855241264559)" stroke-width="1" />
<path d="M 915.50 657.50 C 897.24 662.95, 875.40 659.77, 858.50 668.50 C 820.54 668.24, 767.86 677.35, 744.50 688.50 C 709.48 698.04, 762.97 713.50, 773.50 725.50 C 800.63 765.41, 858.50 740.46, 900.50 747.50 C 892.02 707.58, 938.60 713.42, 950.50 685.50 C 952.11 662.93, 925.43 674.85, 916.50 658.50 Z" fill="rgb(163.23650346455494,216.10789613949592,254.91517551206883)" stroke="rgb(163.23650346455494,216.10789613949592,254.91517551206883)" stroke-width="1" />
<path d="M 773.50 50.50 C 758.50 53.59, 734.59 63.05, 741.50 83.50 C 723.29 97.75, 714.32 123.53, 685.50 128.50 C 768.70 131.64, 859.09 129.96, 946.50 130.50 C 937.71 119.71, 927.06 97.94, 906.50 96.50 C 875.59 99.23, 869.99 47.22, 839.50 64.50 C 830.11 72.58, 837.80 91.25, 822.50 89.50 C 794.05 87.57, 804.04 48.43, 774.50 50.50 Z" fill="rgb(249.36668061950607,249.7159201897586,251.50606948514022)" stroke="rgb(249.36668061950607,249.7159201897586,251.50606948514022)" stroke-width="1" />
<path d="M 998.50 154.50 C 996.12 168.95, 983.72 177.74, 986.50 194.50 C 967.14 193.25, 951.26 206.15, 951.50 224.50 C 905.34 202.79, 880.23 300.53, 934.50 295.50 C 938.94 296.17, 939.39 300.48, 939.50 303.50 C 987.46 335.17, 884.04 347.35, 943.50 353.50 C 1045.25 398.74, 981.86 218.05, 999.50 154.50 Z" fill="rgb(250.44415395787945,253.3522149600581,254.62498184458968)" stroke="rgb(250.44415395787945,253.3522149600581,254.62498184458968)" stroke-width="1" />
<path d="M 20.50 574.50 C -105.20 739.65, 184.37 788.31, 34.50 623.50 C 36.10 605.17, 38.58 584.11, 21.50 574.50 Z" fill="rgb(213.03508771929825,237.46198830409358,253.4093567251462)" stroke="rgb(213.03508771929825,237.46198830409358,253.4093567251462)" stroke-width="1" />
<path d="M 283.50 672.50 C 306.00 703.26, 342.43 712.33, 372.50 729.50 C 408.62 755.66, 457.95 747.52, 503.50 748.50 C 510.24 728.41, 503.42 710.06, 491.50 691.50 C 462.63 690.82, 438.07 683.14, 413.50 675.50 C 413.75 691.04, 448.39 730.42, 417.50 709.50 C 383.95 676.71, 399.89 712.62, 366.50 688.50 C 352.83 681.48, 307.80 662.71, 339.50 685.50 C 352.85 706.63, 298.65 677.18, 284.50 672.50 Z" fill="rgb(221.1543746645196,238.51905528717123,250.0315619967794)" stroke="rgb(221.1543746645196,238.51905528717123,250.0315619967794)" stroke-width="1" />
<path d="M 780.50 396.50 C 601.58 482.46, 1216.96 434.24, 917.50 444.50 C 871.17 429.30, 831.95 399.33, 781.50 396.50 Z" fill="rgb(16.509708737864077,83.07281553398059,119.40776699029126)" stroke="rgb(16.509708737864077,83.07281553398059,119.40776699029126)" stroke-width="1" />
<path d="M 980.50 639.50 C 960.14 643.97, 942.07 653.96, 920.50 655.50 C 926.18 673.54, 955.82 660.09, 953.50 684.50 C 943.61 715.87, 893.78 704.87, 904.50 745.50 C 994.54 790.79, 1032.22 684.44, 981.50 639.50 Z" fill="rgb(230.6522561469873,244.86300999729804,254.74925695757904)" stroke="rgb(230.6522561469873,244.86300999729804,254.74925695757904)" stroke-width="1" />
<path d="M 0.50 130.50 C 0.50 176.17, 0.50 221.83, 0.50 267.50 C 0.50 314.50, 0.50 360.50, 0.50 406.50 C 9.49 392.52, 10.42 351.15, 25.50 331.50 C 69.77 301.28, -2.65 284.16, 18.50 255.50 C 20.74 240.18, 28.24 235.50, 40.50 230.50 C 55.23 202.99, 41.34 153.09, 14.50 157.50 C 13.49 146.54, 12.09 134.66, 1.50 130.50 Z" fill="rgb(210.72329074828022,236.27741120314474,254.7962936964762)" stroke="rgb(210.72329074828022,236.27741120314474,254.7962936964762)" stroke-width="1" />
<path d="M 20.50 572.50 C -15.86 595.14, 17.06 648.62, 29.50 675.50 C 66.64 705.41, 3.21 719.17, 17.50 745.50 C 38.81 755.57, 52.11 743.88, 51.50 723.50 C 84.48 732.76, 118.22 685.00, 80.50 670.50 C 62.75 671.26, 74.26 644.79, 56.50 645.50 C 25.99 635.45, 46.83 592.86, 21.50 573.50 Z" fill="rgb(232.207131694843,245.42719136240945,254.79201591135106)" stroke="rgb(232.207131694843,245.42719136240945,254.79201591135106)" stroke-width="1" />
<path d="M 442.50 142.50 C 418.82 142.60, 399.09 162.50, 402.50 187.50 C 382.89 179.84, 385.90 204.03, 371.50 203.50 C 374.51 208.78, 439.69 205.30, 462.50 207.50 C 484.16 204.78, 570.44 214.29, 527.50 189.50 C 482.47 211.72, 496.63 127.55, 443.50 142.50 Z" fill="rgb(210.25557275541794,236.17260061919504,254.81950464396286)" stroke="rgb(210.25557275541794,236.17260061919504,254.81950464396286)" stroke-width="1" />
<path d="M 711.50 697.50 C 674.32 710.99, 637.64 725.67, 603.50 746.50 C 656.38 749.81, 728.05 747.87, 788.50 748.50 C 769.80 722.81, 741.81 705.66, 712.50 698.50 Z" fill="rgb(224.89615384615385,111.95961538461539,122.1423076923077)" stroke="rgb(224.89615384615385,111.95961538461539,122.1423076923077)" stroke-width="1" />
<path d="M 779.50 396.50 C 760.06 398.68, 695.49 416.47, 738.50 428.50 C 770.14 449.62, 811.26 454.94, 845.50 440.50 C 859.34 439.94, 920.55 447.54, 892.50 435.50 C 855.82 418.64, 821.87 398.62, 780.50 396.50 Z" fill="rgb(9.947068258777401,66.73266797362324,105.09873462840848)" stroke="rgb(9.947068258777401,66.73266797362324,105.09873462840848)" stroke-width="1" />
<path d="M 43.50 560.50 C 75.69 584.76, 110.92 607.83, 143.50 633.50 C 174.43 645.21, 202.90 659.41, 233.50 668.50 C 298.10 698.11, 215.23 628.83, 195.50 613.50 C 234.34 654.77, 105.31 558.29, 151.50 604.50 C 116.72 586.74, 81.01 572.67, 44.50 560.50 Z" fill="rgb(102.05321266968326,158.74063348416288,197.6718552036199)" stroke="rgb(102.05321266968326,158.74063348416288,197.6718552036199)" stroke-width="1" />
<path d="M 790.50 557.50 C 595.43 658.87, 1095.34 550.97, 790.50 557.50 Z" fill="rgb(103.28301886792453,152.96226415094338,176.37735849056602)" stroke="rgb(103.28301886792453,152.96226415094338,176.37735849056602)" stroke-width="1" />
<path d="M 261.50 325.50 C 224.67 339.45, 188.13 354.07, 151.50 368.50 C 114.06 392.98, 78.49 423.29, 42.50 446.50 C 81.39 434.27, 118.45 420.01, 152.50 398.50 C 113.94 442.15, 173.31 393.59, 205.50 376.50 C 171.18 414.67, 258.94 343.16, 262.50 325.50 Z" fill="rgb(18.885266570605186,97.35410662824208,152.29556916426512)" stroke="rgb(18.885266570605186,97.35410662824208,152.29556916426512)" stroke-width="1" />
<path d="M 796.50 557.50 C 579.82 649.06, 1070.34 567.48, 796.50 557.50 Z" fill="rgb(99.65648854961832,148.42748091603053,179.40458015267177)" stroke="rgb(99.65648854961832,148.42748091603053,179.40458015267177)" stroke-width="1" />
<path d="M 784.50 558.50 C 762.97 567.37, 742.18 578.00, 720.50 586.50 C 749.11 608.48, 793.77 616.81, 827.50 599.50 C 853.17 591.26, 876.87 580.68, 899.50 567.50 C 859.00 570.43, 826.18 559.11, 785.50 558.50 Z" fill="rgb(96.7779430909429,140.26501766784452,169.63269481123302)" stroke="rgb(96.7779430909429,140.26501766784452,169.63269481123302)" stroke-width="1" />
<path d="M 968.50 577.50 C 950.29 590.96, 906.76 604.93, 924.50 581.50 C 883.04 636.66, 821.72 644.65, 764.50 660.50 C 826.51 651.80, 896.91 665.35, 947.50 625.50 C 1044.64 573.18, 896.47 643.28, 969.50 577.50 Z" fill="rgb(105.92874109263659,170.29928741092635,215.5249406175772)" stroke="rgb(105.92874109263659,170.29928741092635,215.5249406175772)" stroke-width="1" />
<path d="M 711.50 698.50 C 683.07 709.13, 654.25 721.71, 629.50 735.50 C 601.12 751.35, 647.24 747.44, 660.50 747.50 C 703.50 747.50, 745.50 747.50, 787.50 747.50 C 769.66 722.67, 741.29 706.12, 712.50 698.50 Z" fill="rgb(232.34720890082485,104.2641473239977,113.50374064837905)" stroke="rgb(232.34720890082485,104.2641473239977,113.50374064837905)" stroke-width="1" />
<path d="M 761.50 344.50 C 804.99 361.93, 857.93 356.54, 892.50 395.50 C 910.20 410.76, 936.85 439.58, 912.50 405.50 C 933.96 410.92, 952.80 421.25, 972.50 429.50 C 967.39 416.45, 920.09 380.85, 952.50 393.50 C 1016.06 431.88, 972.19 381.37, 932.50 373.50 C 883.89 337.62, 819.18 356.47, 762.50 344.50 Z" fill="rgb(18.875601771615635,97.49585981128442,152.52397458116695)" stroke="rgb(18.875601771615635,97.49585981128442,152.52397458116695)" stroke-width="1" />
<path d="M 998.50 200.50 C 1001.31 222.36, 976.19 220.89, 978.50 242.50 C 948.17 240.13, 943.52 301.62, 971.50 307.50 C 977.17 318.11, 984.55 340.20, 966.50 340.50 C 943.66 362.41, 982.78 370.22, 998.50 363.50 C 999.50 309.17, 999.50 254.83, 999.50 200.50 Z" fill="rgb(210.4954724409449,236.24271653543306,254.8051181102362)" stroke="rgb(210.4954724409449,236.24271653543306,254.8051181102362)" stroke-width="1" />
<path d="M 971.50 577.50 C 952.93 586.20, 934.68 595.69, 914.50 600.50 C 938.05 567.11, 906.55 598.37, 892.50 611.50 C 861.76 643.22, 819.78 644.39, 781.50 654.50 C 780.08 656.07, 887.65 663.41, 919.50 639.50 C 940.56 625.52, 988.94 616.50, 987.50 595.50 C 941.76 624.58, 931.60 615.63, 972.50 577.50 Z" fill="rgb(101.97551184263348,158.61702127659575,197.46868727418706)" stroke="rgb(101.97551184263348,158.61702127659575,197.46868727418706)" stroke-width="1" />
<path d="M 783.50 90.50 C 752.18 94.29, 750.82 124.20, 719.50 128.50 C 786.09 130.65, 854.13 130.56, 925.50 130.50 C 903.80 113.88, 868.84 104.84, 841.50 96.50 C 824.84 130.35, 805.51 90.59, 784.50 90.50 Z" fill="rgb(211.72131147540983,236.37131147540984,254.45368852459018)" stroke="rgb(211.72131147540983,236.37131147540984,254.45368852459018)" stroke-width="1" />
<path d="M 62.50 131.50 C 31.51 147.21, 56.41 199.94, 63.50 223.50 C 130.99 242.92, 120.79 126.48, 63.50 131.50 Z" fill="rgb(253.4808093450146,254.5237797246558,254.88464747601168)" stroke="rgb(253.4808093450146,254.5237797246558,254.88464747601168)" stroke-width="1" />
<path d="M 983.50 639.50 C 971.53 641.11, 951.03 643.27, 961.50 659.50 C 991.18 668.00, 973.06 703.39, 955.50 709.50 C 935.17 765.54, 1025.49 760.51, 999.50 703.50 C 993.90 682.07, 1013.19 638.64, 984.50 639.50 Z" fill="rgb(207.17809621289663,235.98311156601844,254.90455475946777)" stroke="rgb(207.17809621289663,235.98311156601844,254.90455475946777)" stroke-width="1" />
<path d="M 668.50 412.50 C 652.11 415.96, 636.59 421.50, 622.50 430.50 C 674.86 438.63, 727.10 446.04, 778.50 455.50 C 801.34 471.21, 888.14 437.23, 832.50 443.50 C 771.95 469.43, 729.36 406.42, 669.50 412.50 Z" fill="rgb(19.467309195102892,96.17660849179474,148.17999479031)" stroke="rgb(19.467309195102892,96.17660849179474,148.17999479031)" stroke-width="1" />
<path d="M 172.50 354.50 C 128.67 368.44, 83.77 379.81, 41.50 397.50 C 41.39 415.16, 9.51 442.89, 41.50 446.50 C 74.81 423.06, 107.68 399.55, 139.50 373.50 C 147.29 364.50, 187.11 358.31, 173.50 354.50 Z" fill="rgb(29.383717846725006,126.49403341288783,195.36409440466718)" stroke="rgb(29.383717846725006,126.49403341288783,195.36409440466718)" stroke-width="1" />
<path d="M 470.50 536.50 C 459.59 538.28, 409.36 543.41, 433.50 546.50 C 476.63 558.14, 518.40 570.62, 562.50 577.50 C 587.25 577.49, 630.36 575.65, 637.50 567.50 C 576.77 568.58, 528.06 543.07, 471.50 536.50 Z" fill="rgb(125.74584857866591,173.7621728117084,160.68449197860963)" stroke="rgb(125.74584857866591,173.7621728117084,160.68449197860963)" stroke-width="1" />
<path d="M 795.50 549.50 C 739.47 559.71, 682.61 567.91, 625.50 575.50 C 639.29 589.02, 666.79 596.71, 690.50 593.50 C 740.22 587.48, 784.54 537.01, 836.50 564.50 C 875.35 566.01, 813.27 546.56, 796.50 549.50 Z" fill="rgb(102.23025397711415,157.80937761652245,195.5274909293888)" stroke="rgb(102.23025397711415,157.80937761652245,195.5274909293888)" stroke-width="1" />
<path d="M 0.50 596.50 C 0.50 647.17, 0.50 697.83, 0.50 748.50 C 23.37 753.05, 11.07 741.14, 15.50 727.50 C 13.85 716.73, 26.05 721.33, 30.50 717.50 C 54.69 686.50, 15.80 664.86, 8.50 639.50 C 8.48 624.97, 10.06 609.20, 1.50 597.50 Z" fill="rgb(207.4182645433864,235.9987000324992,254.87455313617158)" stroke="rgb(207.4182645433864,235.9987000324992,254.87455313617158)" stroke-width="1" />
<path d="M 148.50 430.50 C 93.41 438.80, 14.11 461.85, 114.50 463.50 C 142.58 453.15, 169.69 442.85, 200.50 441.50 C 204.38 434.88, 166.68 428.49, 149.50 430.50 Z" fill="rgb(61.964214711729625,123.7037773359841,85.86918489065606)" stroke="rgb(61.964214711729625,123.7037773359841,85.86918489065606)" stroke-width="1" />
<path d="M 105.50 544.50 C 92.48 545.49, 33.35 555.58, 69.50 555.50 C 94.72 566.00, 120.30 573.20, 147.50 576.50 C 165.15 580.51, 226.56 566.39, 188.50 565.50 C 158.05 563.75, 135.20 547.07, 106.50 544.50 Z" fill="rgb(125.68346522282383,173.8154935443565,161.0603915035402)" stroke="rgb(125.68346522282383,173.8154935443565,161.0603915035402)" stroke-width="1" />
<path d="M 0.50 97.50 C -5.08 132.28, 26.20 188.31, 46.50 136.50 C 52.22 109.86, 26.50 92.24, 1.50 97.50 Z" fill="rgb(251.74430040232454,253.81895395619134,254.73088958426465)" stroke="rgb(251.74430040232454,253.81895395619134,254.73088958426465)" stroke-width="1" />
<path d="M 998.50 411.50 C 975.51 434.58, 948.44 447.85, 914.50 444.50 C 932.29 455.00, 973.19 459.78, 999.50 470.50 C 999.50 450.17, 999.50 430.83, 999.50 411.50 Z" fill="rgb(9.886673151750973,66.4285019455253,104.1828793774319)" stroke="rgb(9.886673151750973,66.4285019455253,104.1828793774319)" stroke-width="1" />
<path d="M 871.50 442.50 C 848.73 448.58, 827.69 458.85, 803.50 461.50 C 821.69 471.80, 871.16 477.16, 898.50 459.50 C 948.93 453.74, 898.35 441.87, 872.50 442.50 Z" fill="rgb(62.296606000983765,122.97097884899163,84.35268076733891)" stroke="rgb(62.296606000983765,122.97097884899163,84.35268076733891)" stroke-width="1" />
<path d="M 998.50 537.50 C 972.33 548.31, 942.73 550.83, 916.50 561.50 C 970.13 556.09, 1015.19 628.28, 999.50 537.50 Z" fill="rgb(101.94690265486726,154.99115044247787,188.7433628318584)" stroke="rgb(101.94690265486726,154.99115044247787,188.7433628318584)" stroke-width="1" />
<path d="M 997.50 538.50 C 971.64 548.59, 942.90 551.72, 916.50 560.50 C 945.97 561.35, 975.76 571.38, 997.50 593.50 C 1000.17 577.50, 1000.17 554.50, 998.50 538.50 Z" fill="rgb(96.8170542635659,140.22842377260983,169.328165374677)" stroke="rgb(96.8170542635659,140.22842377260983,169.328165374677)" stroke-width="1" />
<path d="M 850.50 535.50 C 777.39 541.35, 836.01 555.05, 875.50 565.50 C 953.79 562.49, 895.16 541.99, 851.50 535.50 Z" fill="rgb(125.29514963880288,173.01289989680083,160.62074303405572)" stroke="rgb(125.29514963880288,173.01289989680083,160.62074303405572)" stroke-width="1" />
<path d="M 326.50 448.50 C 261.60 445.29, 290.40 485.39, 337.50 466.50 C 416.13 461.13, 394.09 450.70, 327.50 448.50 Z" fill="rgb(60.69120287253142,121.81627767803711,85.9311789347696)" stroke="rgb(60.69120287253142,121.81627767803711,85.9311789347696)" stroke-width="1" />
<path d="M 310.50 535.50 C 247.31 547.36, 316.10 562.66, 349.50 558.50 C 450.69 545.05, 361.62 551.89, 311.50 535.50 Z" fill="rgb(125.32090464547677,173.0336185819071,161.0372860635697)" stroke="rgb(125.32090464547677,173.0336185819071,161.0372860635697)" stroke-width="1" />
<path d="M 260.50 567.50 C 293.07 596.92, 315.80 635.14, 351.50 661.50 C 331.55 625.64, 298.33 588.37, 261.50 567.50 Z" fill="rgb(106.7060465116279,172.1813953488372,218.14697674418605)" stroke="rgb(106.7060465116279,172.1813953488372,218.14697674418605)" stroke-width="1" />
<path d="M 352.50 343.50 C 315.48 370.44, 293.91 410.51, 259.50 440.50 C 298.51 419.45, 330.42 380.62, 352.50 344.50 Z" fill="rgb(28.03422756706753,122.88991674375578,189.68825161887142)" stroke="rgb(28.03422756706753,122.88991674375578,189.68825161887142)" stroke-width="1" />
<path d="M 563.50 179.50 C 542.25 183.07, 533.61 211.60, 561.50 207.50 C 598.09 215.01, 580.31 189.09, 564.50 179.50 Z" fill="rgb(250.35714285714286,235.34151785714286,237.05133928571428)" stroke="rgb(250.35714285714286,235.34151785714286,237.05133928571428)" stroke-width="1" />
<path d="M 516.50 213.50 C 504.11 220.82, 488.48 214.12, 475.50 219.50 C 497.22 236.15, 577.46 223.20, 517.50 213.50 Z" fill="rgb(41.786466165413536,130.7578947368421,194.9218045112782)" stroke="rgb(41.786466165413536,130.7578947368421,194.9218045112782)" stroke-width="1" />
<path d="M 341.50 618.50 C 361.37 638.86, 378.30 666.58, 402.50 682.50 C 389.52 658.52, 367.35 633.04, 342.50 619.50 Z" fill="rgb(204.2237762237762,228.243006993007,241.76398601398603)" stroke="rgb(204.2237762237762,228.243006993007,241.76398601398603)" stroke-width="1" />
<path d="M 581.50 256.50 C 579.28 279.28, 610.65 278.44, 630.50 284.50 C 646.34 284.84, 595.92 262.32, 582.50 256.50 Z" fill="rgb(55.77303754266212,138.05972696245735,195.51877133105802)" stroke="rgb(55.77303754266212,138.05972696245735,195.51877133105802)" stroke-width="1" />
<path d="M 402.50 321.50 C 324.02 391.21, 355.54 396.13, 402.50 321.50 Z" fill="rgb(44.234042553191486,107.93617021276596,151.63829787234042)" stroke="rgb(44.234042553191486,107.93617021276596,151.63829787234042)" stroke-width="1" />
<path d="M 403.50 321.50 C 378.35 340.06, 361.82 368.05, 339.50 388.50 C 365.91 373.31, 388.78 347.32, 403.50 322.50 Z" fill="rgb(216.23191094619665,233.71799628942486,241.7903525046382)" stroke="rgb(216.23191094619665,233.71799628942486,241.7903525046382)" stroke-width="1" />
<path d="M 632.50 719.50 C 617.01 723.13, 600.98 725.44, 586.50 731.50 C 573.72 761.86, 633.80 722.22, 633.50 719.50 Z" fill="rgb(117.16,177.80380952380952,220.66476190476192)" stroke="rgb(117.16,177.80380952380952,220.66476190476192)" stroke-width="1" />
<path d="M 659.50 653.50 C 632.23 658.48, 606.61 667.45, 583.50 682.50 C 600.33 684.10, 644.35 660.27, 660.50 653.50 Z" fill="rgb(205.33535353535353,232.6989898989899,247.17777777777778)" stroke="rgb(205.33535353535353,232.6989898989899,247.17777777777778)" stroke-width="1" />
<path d="M 581.50 320.50 C 603.68 337.23, 637.71 350.07, 662.50 351.50 C 633.99 343.33, 610.73 325.93, 582.50 320.50 Z" fill="rgb(209.18637274549098,233.84569138276552,244.7735470941884)" stroke="rgb(209.18637274549098,233.84569138276552,244.7735470941884)" stroke-width="1" />
<path d="M 457.50 319.50 C 384.65 383.63, 413.21 390.74, 457.50 319.50 Z" fill="rgb(27.74468085106383,94.36170212765957,140.59574468085106)" stroke="rgb(27.74468085106383,94.36170212765957,140.59574468085106)" stroke-width="1" />
<path d="M 399.50 624.50 C 420.43 644.39, 435.34 669.12, 458.50 685.50 C 445.40 662.37, 424.17 638.65, 400.50 624.50 Z" fill="rgb(209.19624217118997,232.62839248434238,245.1795407098121)" stroke="rgb(209.19624217118997,232.62839248434238,245.1795407098121)" stroke-width="1" />
<path d="M 457.50 319.50 C 434.34 337.75, 419.84 364.09, 398.50 381.50 C 423.53 368.00, 445.63 343.41, 458.50 319.50 Z" fill="rgb(211.72594142259413,230.8723849372385,239.7154811715481)" stroke="rgb(211.72594142259413,230.8723849372385,239.7154811715481)" stroke-width="1" />
<path d="M 659.50 326.50 C 674.89 344.64, 718.70 362.74, 727.50 360.50 C 703.48 351.29, 684.37 333.66, 660.50 327.50 Z" fill="rgb(204.24113475177305,230.65484633569739,242.87943262411346)" stroke="rgb(204.24113475177305,230.65484633569739,242.87943262411346)" stroke-width="1" />
<path d="M 727.50 643.50 C 708.37 648.76, 690.14 656.22, 673.50 667.50 C 642.13 693.24, 724.29 646.66, 728.50 643.50 Z" fill="rgb(206.4925,233.7025,247.9375)" stroke="rgb(206.4925,233.7025,247.9375)" stroke-width="1" />
<path d="M 466.50 275.50 C 422.94 297.50, 439.43 316.88, 466.50 275.50 Z" fill="rgb(70.61032863849765,147.95774647887325,199.10798122065728)" stroke="rgb(70.61032863849765,147.95774647887325,199.10798122065728)" stroke-width="1" />
<path d="M 534.50 276.50 C 571.69 317.05, 582.01 295.49, 534.50 276.50 Z" fill="rgb(88.09865470852019,155.47533632286996,201.695067264574)" stroke="rgb(88.09865470852019,155.47533632286996,201.695067264574)" stroke-width="1" />
<path d="M 572.50 697.50 C 525.25 725.81, 544.43 737.29, 572.50 697.50 Z" fill="rgb(136.42131979695432,187.80710659898477,223.53807106598984)" stroke="rgb(136.42131979695432,187.80710659898477,223.53807106598984)" stroke-width="1" />
<path d="M 381.50 275.50 C 334.64 297.07, 350.41 311.63, 381.50 275.50 Z" fill="rgb(98.72727272727273,164.57219251336898,207.16042780748663)" stroke="rgb(98.72727272727273,164.57219251336898,207.16042780748663)" stroke-width="1" />
<path d="M 75.50 724.50 C 42.74 732.99, 89.62 732.96, 75.50 724.50 Z" fill="rgb(163.15068493150685,215.986301369863,254.67123287671234)" stroke="rgb(163.15068493150685,215.986301369863,254.67123287671234)" stroke-width="1" />
</svg>