<svg xmlns="http://www.w3.org/2000/svg" width="1000" height="750" viewbox="0 0 1000 750">
<path d="M 0.50 0.50 C 0.50 146.17, 0.50 291.83, 0.50 437.50 C -47.04 685.37, 24.18 813.48, 287.50 749.50 C 504.38 692.38, 957.77 872.77, 999.50 641.50 C 990.20 315.13, 1120.89 -150.23, 635.50 0.50 C 423.50 0.50, 212.50 0.50, 1.50 0.50 Z" fill="rgb(116.13818110193922,174.5305925116837,218.26914605977043)" stroke="rgb(116.13818110193922,174.5305925116837,218.26914605977043)" stroke-width="1" />
<path d="M 642.50 0.50 C 473.14 7.29, 283.26 1.65, 105.50 3.50 C -121.45 -6.20, 99.20 131.86, 109.50 209.50 C 95.76 608.65, 489.45 35.27, 517.50 163.50 C 849.16 -10.35, 1239.17 473.96, 643.50 0.50 Z" fill="rgb(149.22607655502392,182.33851674641147,221.69497607655504)" stroke="rgb(149.22607655502392,182.33851674641147,221.69497607655504)" stroke-width="1" />
<path d="M 642.50 0.50 C 432.40 7.95, 211.96 0.33, 0.50 4.50 C -51.52 128.05, 200.67 138.52, 73.50 231.50 C -0.74 277.41, 158.75 298.28, 72.50 344.50 C -8.41 425.91, 119.67 364.16, 167.50 352.50 C 284.45 324.57, 385.26 260.05, 493.50 213.50 C 503.73 211.25, 501.64 213.64, 493.50 211.50 C 487.96 208.32, 482.92 211.66, 477.50 210.50 C 438.17 209.50, 399.83 209.50, 361.50 209.50 C 265.11 214.97, 344.42 198.99, 382.50 177.50 C 445.98 22.37, 538.76 253.90, 552.50 64.50 C 622.46 -28.54, 766.76 8.03, 817.50 86.50 C 1139.24 24.66, 553.42 301.36, 835.50 337.50 C 867.68 332.70, 901.15 359.13, 927.50 338.50 C 860.71 245.80, 1044.72 186.42, 999.50 14.50 C 899.29 -9.37, 757.29 10.38, 643.50 0.50 Z" fill="rgb(131.94422758805567,205.0741387314228,254.6350078133684)" stroke="rgb(131.94422758805567,205.0741387314228,254.6350078133684)" stroke-width="1" />
<path d="M 509.50 216.50 C 427.79 232.79, 362.79 288.84, 286.50 316.50 C 206.99 352.09, 114.52 364.09, 40.50 402.50 C 17.50 435.28, 41.10 459.66, 76.50 448.50 C 243.60 415.38, 414.08 488.97, 583.50 429.50 C 722.71 452.83, 897.57 454.53, 999.50 451.50 C 965.78 428.00, 1005.87 420.79, 999.50 374.50 C 913.46 337.65, 797.57 349.29, 708.50 307.50 C 635.05 291.42, 583.28 230.71, 510.50 216.50 Z" fill="rgb(30.30938014262205,126.00522064804132,193.5426069192502)" stroke="rgb(30.30938014262205,126.00522064804132,193.5426069192502)" stroke-width="1" />
<path d="M 0.50 422.50 C -12.42 714.94, 506.51 497.95, 749.50 555.50 C 802.22 531.30, 850.15 568.07, 900.50 562.50 C 1171.17 427.05, 570.16 414.33, 434.50 460.50 C 283.93 435.92, 130.25 457.46, 1.50 422.50 Z" fill="rgb(87.04893617021277,147.98297872340424,165.55349544072948)" stroke="rgb(87.04893617021277,147.98297872340424,165.55349544072948)" stroke-width="1" />
<path d="M 660.50 10.50 C 271.07 408.08, 1102.67 214.91, 660.50 10.50 Z" fill="rgb(229.26600985221674,86.80541871921183,93.28325123152709)" stroke="rgb(229.26600985221674,86.80541871921183,93.28325123152709)" stroke-width="1" />
<path d="M 661.50 10.50 C 567.81 -6.86, 453.39 188.70, 575.50 184.50 C 494.12 218.80, 623.45 268.43, 707.50 304.50 C 782.50 291.42, 837.52 208.84, 818.50 133.50 C 743.05 131.11, 638.53 147.31, 737.50 85.50 C 793.92 36.07, 723.16 9.95, 662.50 10.50 Z" fill="rgb(229.04070332066857,43.6866576934217,54.59678326205851)" stroke="rgb(229.04070332066857,43.6866576934217,54.59678326205851)" stroke-width="1" />
<path d="M 0.50 423.50 C 2.47 449.53, -3.45 483.45, 3.50 504.50 C 337.41 503.43, 666.00 503.50, 999.50 503.50 C 995.08 442.57, 885.17 436.08, 835.50 454.50 C 706.54 462.11, 561.23 396.30, 436.50 460.50 C 308.76 466.39, 193.20 412.61, 73.50 450.50 C 45.25 458.73, 22.67 437.55, 1.50 423.50 Z" fill="rgb(54.11339933494558,104.1516588573156,73.24977327690448)" stroke="rgb(54.11339933494558,104.1516588573156,73.24977327690448)" stroke-width="1" />
<path d="M 356.50 504.50 C 238.66 506.83, 119.03 504.83, 0.50 505.50 C 6.22 529.31, -14.36 604.99, 18.50 571.50 C 82.69 527.01, 102.91 581.40, 168.50 570.50 C 287.89 552.44, 420.30 534.23, 539.50 573.50 C 695.72 557.40, 843.23 564.78, 987.50 539.50 C 1032.62 490.10, 927.19 508.35, 892.50 505.50 C 714.19 504.88, 530.09 506.76, 357.50 504.50 Z" fill="rgb(119.21237382937231,162.47714463279257,152.820393030881)" stroke="rgb(119.21237382937231,162.47714463279257,152.820393030881)" stroke-width="1" />
<path d="M 272.50 550.50 C 214.10 572.40, 143.86 591.91, 83.50 562.50 C 41.71 541.24, 13.82 579.01, 44.50 609.50 C 250.81 678.48, 393.18 722.72, 476.50 688.50 C 483.57 649.34, 414.26 605.99, 415.50 553.50 C 369.15 556.98, 318.08 567.58, 273.50 550.50 Z" fill="rgb(105.5954065723195,164.098494842888,204.43007915567281)" stroke="rgb(105.5954065723195,164.098494842888,204.43007915567281)" stroke-width="1" />
<path d="M 996.50 110.50 C 969.18 131.86, 919.87 132.01, 822.50 133.50 C 826.30 157.38, 824.43 182.24, 818.50 203.50 C 804.90 250.89, 766.85 290.15, 721.50 306.50 C 789.21 334.09, 877.12 355.97, 947.50 334.50 C 957.47 319.80, 940.40 313.77, 937.50 301.50 C 829.54 230.36, 1040.33 210.72, 997.50 111.50 Z" fill="rgb(132.73467456343877,205.40313225058006,254.56939186713885)" stroke="rgb(132.73467456343877,205.40313225058006,254.56939186713885)" stroke-width="1" />
<path d="M 431.50 285.50 C 356.72 343.91, 283.30 284.96, 229.50 419.50 C 195.00 455.29, 256.33 432.48, 257.50 448.50 C 326.58 438.87, 436.57 489.33, 440.50 384.50 C 554.41 285.00, 370.60 360.47, 432.50 285.50 Z" fill="rgb(22.775648396575956,99.47229675056428,152.9564328606107)" stroke="rgb(22.775648396575956,99.47229675056428,152.9564328606107)" stroke-width="1" />
<path d="M 511.50 216.50 C 452.74 223.38, 374.99 278.10, 307.50 307.50 C 239.93 363.59, 348.86 294.84, 335.50 322.50 C 316.52 354.12, 457.66 258.53, 413.50 324.50 C 446.60 322.77, 499.43 314.93, 540.50 309.50 C 612.77 315.41, 683.26 338.80, 743.50 326.50 C 668.90 293.37, 525.25 217.14, 512.50 216.50 Z" fill="rgb(226.4053855463347,234.50994121715075,239.75475449515906)" stroke="rgb(226.4053855463347,234.50994121715075,239.75475449515906)" stroke-width="1" />
<path d="M 38.50 609.50 C -43.28 803.37, 377.00 763.37, 350.50 720.50 C 254.58 667.73, 141.63 649.84, 39.50 609.50 Z" fill="rgb(163.7079831932773,216.4579831932773,254.24789915966386)" stroke="rgb(163.7079831932773,216.4579831932773,254.24789915966386)" stroke-width="1" />
<path d="M 40.50 609.50 C 67.77 658.27, 129.48 707.53, 47.50 744.50 C 151.54 750.16, 261.71 746.17, 367.50 747.50 C 384.91 703.46, 134.61 649.10, 41.50 609.50 Z" fill="rgb(163.42175207787014,216.17454109071514,254.8483488155029)" stroke="rgb(163.42175207787014,216.17454109071514,254.8483488155029)" stroke-width="1" />
<path d="M 0.50 74.50 C -62.62 326.23, 102.45 531.50, 46.50 257.50 C 108.14 238.56, 142.62 124.94, 48.50 136.50 C 56.65 90.64, -6.82 110.68, 1.50 74.50 Z" fill="rgb(163.58011049723757,217.2828729281768,252.99779005524863)" stroke="rgb(163.58011049723757,217.2828729281768,252.99779005524863)" stroke-width="1" />
<path d="M 0.50 72.50 C 0.50 187.17, 0.50 301.83, 0.50 416.50 C 48.56 459.29, 24.71 353.57, 68.50 349.50 C 152.65 297.39, 1.10 283.22, 66.50 227.50 C 187.39 173.50, 14.68 119.44, 1.50 73.50 Z" fill="rgb(242.56613379492924,249.84360044801954,254.43468078607066)" stroke="rgb(242.56613379492924,249.84360044801954,254.43468078607066)" stroke-width="1" />
<path d="M 988.50 639.50 C 940.65 651.13, 892.56 662.20, 842.50 668.50 C 518.32 684.76, 1114.13 867.98, 989.50 640.50 Z" fill="rgb(196.9279197080292,230.43795620437956,254.07025547445255)" stroke="rgb(196.9279197080292,230.43795620437956,254.07025547445255)" stroke-width="1" />
<path d="M 282.50 670.50 C 398.45 791.95, 604.93 759.41, 732.50 684.50 C 725.00 663.12, 607.92 688.92, 545.50 695.50 C 380.72 675.25, 391.80 709.09, 283.50 671.50 Z" fill="rgb(210.60325105358217,229.34507324904675,242.314268512944)" stroke="rgb(210.60325105358217,229.34507324904675,242.314268512944)" stroke-width="1" />
<path d="M 915.50 656.50 C 848.75 669.31, 777.26 666.64, 717.50 696.50 C 779.04 793.45, 1004.51 737.02, 916.50 657.50 Z" fill="rgb(167.3356009070295,202.99433106575964,238.1201814058957)" stroke="rgb(167.3356009070295,202.99433106575964,238.1201814058957)" stroke-width="1" />
<path d="M 446.50 115.50 C 373.24 123.13, 391.36 213.52, 312.50 205.50 C 366.26 209.03, 697.93 216.94, 512.50 176.50 C 516.13 138.44, 484.54 109.33, 447.50 115.50 Z" fill="rgb(241.97942386831275,246.4243621399177,251.01991769547325)" stroke="rgb(241.97942386831275,246.4243621399177,251.01991769547325)" stroke-width="1" />
<path d="M 915.50 657.50 C 862.18 675.08, 667.25 666.22, 773.50 725.50 C 834.35 796.72, 998.98 703.39, 916.50 658.50 Z" fill="rgb(164.19703240921515,216.52042171026943,254.91065989847715)" stroke="rgb(164.19703240921515,216.52042171026943,254.91065989847715)" stroke-width="1" />
<path d="M 773.50 50.50 C 727.14 64.06, 736.44 120.32, 685.50 128.50 C 768.70 131.64, 859.09 129.96, 946.50 130.50 C 920.50 103.31, 874.48 69.76, 839.50 64.50 C 823.82 122.54, 799.77 54.84, 774.50 50.50 Z" fill="rgb(244.41537587039932,246.6858036094927,250.48372886173084)" stroke="rgb(244.41537587039932,246.6858036094927,250.48372886173084)" stroke-width="1" />
<path d="M 998.50 154.50 C 993.79 217.33, 839.96 245.01, 939.50 303.50 C 938.70 451.28, 1040.51 282.69, 999.50 154.50 Z" fill="rgb(241.97838235294117,249.49117647058824,254.20352941176472)" stroke="rgb(241.97838235294117,249.49117647058824,254.20352941176472)" stroke-width="1" />
<path d="M 20.50 574.50 C -84.82 785.27, 187.23 753.42, 20.50 574.50 Z" fill="rgb(174.29357798165137,218.76330275229358,250.07522935779818)" stroke="rgb(174.29357798165137,218.76330275229358,250.07522935779818)" stroke-width="1" />
<path d="M 283.50 672.50 C 321.76 731.14, 544.31 804.95, 491.50 691.50 C 380.91 662.95, 449.28 734.85, 366.50 688.50 C 307.86 656.33, 363.90 717.14, 284.50 672.50 Z" fill="rgb(216.27978117673328,235.35804398794238,248.13799263146143)" stroke="rgb(216.27978117673328,235.35804398794238,248.13799263146143)" stroke-width="1" />
<path d="M 780.50 396.50 C 601.58 482.46, 1216.96 434.24, 917.50 444.50 C 871.17 429.30, 831.95 399.33, 781.50 396.50 Z" fill="rgb(23.186301369863013,89.62465753424658,118.5013698630137)" stroke="rgb(23.186301369863013,89.62465753424658,118.5013698630137)" stroke-width="1" />
<path d="M 980.50 639.50 C 929.53 653.43, 911.80 653.47, 953.50 684.50 C 813.89 793.34, 1099.01 746.54, 981.50 639.50 Z" fill="rgb(225.02848751835535,242.2555066079295,254.33627019089573)" stroke="rgb(225.02848751835535,242.2555066079295,254.33627019089573)" stroke-width="1" />
<path d="M 0.50 130.50 C 8.17 208.17, -19.54 508.04, 25.50 331.50 C 69.77 301.28, -2.65 284.16, 18.50 255.50 C 70.32 213.18, 33.28 159.80, 1.50 130.50 Z" fill="rgb(212.34732933447586,236.98743216223937,254.79277349328763)" stroke="rgb(212.34732933447586,236.98743216223937,254.79277349328763)" stroke-width="1" />
<path d="M 20.50 572.50 C -30.27 625.63, 75.79 696.13, 17.50 745.50 C 41.94 744.06, 125.32 706.17, 80.50 670.50 C 44.29 647.34, 39.96 612.75, 21.50 573.50 Z" fill="rgb(229.71710828610813,244.26604380456425,254.74590289477715)" stroke="rgb(229.71710828610813,244.26604380456425,254.74590289477715)" stroke-width="1" />
<path d="M 442.50 142.50 C 398.05 145.21, 407.35 197.57, 371.50 203.50 C 391.23 202.04, 557.80 223.31, 527.50 189.50 C 482.47 211.72, 496.63 127.55, 443.50 142.50 Z" fill="rgb(209.6190174326466,235.8473851030111,254.783676703645)" stroke="rgb(209.6190174326466,235.8473851030111,254.783676703645)" stroke-width="1" />
<path d="M 711.50 697.50 C 421.32 759.29, 930.57 779.42, 711.50 697.50 Z" fill="rgb(221.48944591029024,191.01583113456465,201.71899736147756)" stroke="rgb(221.48944591029024,191.01583113456465,201.71899736147756)" stroke-width="1" />
<path d="M 779.50 396.50 C 661.74 405.19, 791.74 473.00, 845.50 440.50 C 959.57 457.67, 830.40 398.38, 780.50 396.50 Z" fill="rgb(10.510908440629471,67.80615164520744,106.35693848354792)" stroke="rgb(10.510908440629471,67.80615164520744,106.35693848354792)" stroke-width="1" />
<path d="M 43.50 560.50 C 93.01 619.34, 353.76 738.75, 195.50 613.50 C 174.29 613.09, 138.56 592.90, 44.50 560.50 Z" fill="rgb(102.5049028347299,159.88447138527366,199.3460509894812)" stroke="rgb(102.5049028347299,159.88447138527366,199.3460509894812)" stroke-width="1" />
<path d="M 790.50 557.50 C 595.43 658.87, 1095.34 550.97, 790.50 557.50 Z" fill="rgb(112.8041958041958,160.37762237762237,168.5874125874126)" stroke="rgb(112.8041958041958,160.37762237762237,168.5874125874126)" stroke-width="1" />
<path d="M 261.50 325.50 C 224.67 339.45, 188.13 354.07, 151.50 368.50 C 42.79 435.78, 33.74 466.42, 152.50 398.50 C 137.40 421.67, 223.91 385.65, 262.50 325.50 Z" fill="rgb(19.275375939849624,98.01672932330827,153.15958646616542)" stroke="rgb(19.275375939849624,98.01672932330827,153.15958646616542)" stroke-width="1" />
<path d="M 796.50 557.50 C 579.82 649.06, 1070.34 567.48, 796.50 557.50 Z" fill="rgb(102.16470588235295,153.57647058823528,184.81176470588235)" stroke="rgb(102.16470588235295,153.57647058823528,184.81176470588235)" stroke-width="1" />
<path d="M 784.50 558.50 C 678.13 576.72, 763.54 630.39, 827.50 599.50 C 939.48 567.47, 860.08 562.41, 785.50 558.50 Z" fill="rgb(97.17711598746081,141.1875,170.95924764890282)" stroke="rgb(97.17711598746081,141.1875,170.95924764890282)" stroke-width="1" />
<path d="M 968.50 577.50 C 908.72 583.29, 862.92 648.29, 764.50 660.50 C 826.51 651.80, 896.91 665.35, 947.50 625.50 C 1044.64 573.18, 896.47 643.28, 969.50 577.50 Z" fill="rgb(104.85185185185185,167.51282051282053,211.47293447293447)" stroke="rgb(104.85185185185185,167.51282051282053,211.47293447293447)" stroke-width="1" />
<path d="M 711.50 698.50 C 681.21 709.08, 571.67 752.84, 660.50 747.50 C 748.78 759.42, 832.63 737.77, 712.50 698.50 Z" fill="rgb(232.18308751229105,104.86843657817109,114.2117994100295)" stroke="rgb(232.18308751229105,104.86843657817109,114.2117994100295)" stroke-width="1" />
<path d="M 761.50 344.50 C 804.99 361.93, 857.93 356.54, 892.50 395.50 C 933.31 442.70, 908.60 387.08, 972.50 429.50 C 895.50 361.07, 1052.84 433.56, 932.50 373.50 C 883.89 337.62, 819.18 356.47, 762.50 344.50 Z" fill="rgb(19.257306477093206,98.22827804107425,153.53712480252764)" stroke="rgb(19.257306477093206,98.22827804107425,153.53712480252764)" stroke-width="1" />
<path d="M 998.50 200.50 C 991.68 237.27, 919.96 269.33, 971.50 307.50 C 986.30 337.33, 934.18 374.31, 998.50 363.50 C 999.50 309.17, 999.50 254.83, 999.50 200.50 Z" fill="rgb(211.27182899778182,236.58076225045372,254.84049203468442)" stroke="rgb(211.27182899778182,236.58076225045372,254.84049203468442)" stroke-width="1" />
<path d="M 971.50 577.50 C 903.79 584.64, 884.96 639.32, 781.50 654.50 C 780.08 656.07, 887.65 663.41, 919.50 639.50 C 1045.41 578.14, 906.22 641.66, 972.50 577.50 Z" fill="rgb(102.56503198294243,160.11339406861794,199.75285908121728)" stroke="rgb(102.56503198294243,160.11339406861794,199.75285908121728)" stroke-width="1" />
<path d="M 783.50 90.50 C 642.58 151.23, 846.52 125.12, 925.50 130.50 C 878.89 86.86, 828.99 119.09, 784.50 90.50 Z" fill="rgb(213.69046166361602,236.02155786048402,253.1277201545658)" stroke="rgb(213.69046166361602,236.02155786048402,253.1277201545658)" stroke-width="1" />
<path d="M 62.50 131.50 C 31.51 147.21, 56.41 199.94, 63.50 223.50 C 130.99 242.92, 120.79 126.48, 63.50 131.50 Z" fill="rgb(253.4808093450146,254.5237797246558,254.88464747601168)" stroke="rgb(253.4808093450146,254.5237797246558,254.88464747601168)" stroke-width="1" />
<path d="M 983.50 639.50 C 928.11 641.58, 1011.43 693.05, 955.50 709.50 C 969.57 822.67, 1037.88 665.41, 984.50 639.50 Z" fill="rgb(207.55232892466935,236.14749856239217,254.9169062679701)" stroke="rgb(207.55232892466935,236.14749856239217,254.9169062679701)" stroke-width="1" />
<path d="M 668.50 412.50 C 542.56 442.79, 892.63 470.63, 832.50 443.50 C 771.95 469.43, 729.36 406.42, 669.50 412.50 Z" fill="rgb(22.06597995545657,97.89532293986638,144.983574610245)" stroke="rgb(22.06597995545657,97.89532293986638,144.983574610245)" stroke-width="1" />
<path d="M 172.50 354.50 C 128.67 368.44, 83.77 379.81, 41.50 397.50 C -4.01 508.62, 153.00 355.12, 173.50 354.50 Z" fill="rgb(28.599777654252364,125.60867148415787,194.5083379655364)" stroke="rgb(28.599777654252364,125.60867148415787,194.5083379655364)" stroke-width="1" />
<path d="M 470.50 536.50 C 362.20 544.39, 604.35 598.86, 637.50 567.50 C 576.77 568.58, 528.06 543.07, 471.50 536.50 Z" fill="rgb(125.04419889502762,173.76325966850828,162.80773480662984)" stroke="rgb(125.04419889502762,173.76325966850828,162.80773480662984)" stroke-width="1" />
<path d="M 795.50 549.50 C 741.87 560.31, 548.03 577.67, 690.50 593.50 C 730.88 552.92, 923.62 565.41, 796.50 549.50 Z" fill="rgb(101.99496697074552,156.4400754954388,192.9150676313306)" stroke="rgb(101.99496697074552,156.4400754954388,192.9150676313306)" stroke-width="1" />
<path d="M 0.50 596.50 C 2.16 634.49, -7.32 785.62, 15.50 727.50 C 71.47 694.48, -4.96 646.43, 1.50 597.50 Z" fill="rgb(208.03202590860022,236.26844188557035,254.89780496581506)" stroke="rgb(208.03202590860022,236.26844188557035,254.89780496581506)" stroke-width="1" />
<path d="M 148.50 430.50 C 93.41 438.80, 14.11 461.85, 114.50 463.50 C 160.18 445.95, 247.19 434.71, 149.50 430.50 Z" fill="rgb(61.826992390869044,123.26231477773328,85.25030036043252)" stroke="rgb(61.826992390869044,123.26231477773328,85.25030036043252)" stroke-width="1" />
<path d="M 105.50 544.50 C -24.55 573.81, 344.61 586.58, 105.50 544.50 Z" fill="rgb(125.1907861792689,172.91136705057588,160.18427641462193)" stroke="rgb(125.1907861792689,172.91136705057588,160.18427641462193)" stroke-width="1" />
<path d="M 0.50 97.50 C -10.98 212.11, 103.27 107.68, 0.50 97.50 Z" fill="rgb(251.72619047619048,253.62445887445887,254.8327922077922)" stroke="rgb(251.72619047619048,253.62445887445887,254.8327922077922)" stroke-width="1" />
<path d="M 998.50 411.50 C 975.51 434.58, 948.44 447.85, 914.50 444.50 C 950.09 457.66, 1023.73 494.12, 999.50 411.50 Z" fill="rgb(10.726358148893361,67.21177062374245,103.8576458752515)" stroke="rgb(10.726358148893361,67.21177062374245,103.8576458752515)" stroke-width="1" />
<path d="M 871.50 442.50 C 682.01 485.31, 1021.67 463.44, 871.50 442.50 Z" fill="rgb(60.780575539568346,122.42985611510791,86.66546762589928)" stroke="rgb(60.780575539568346,122.42985611510791,86.66546762589928)" stroke-width="1" />
<path d="M 998.50 537.50 C 842.81 531.41, 1025.31 639.81, 998.50 537.50 Z" fill="rgb(113.4265335235378,162.80171184022825,173.38659058487875)" stroke="rgb(113.4265335235378,162.80171184022825,173.38659058487875)" stroke-width="1" />
<path d="M 997.50 538.50 C 971.64 548.59, 942.90 551.72, 916.50 560.50 C 965.33 557.33, 1017.51 625.09, 998.50 538.50 Z" fill="rgb(97.2060669456067,141.26516736401675,170.82269874476987)" stroke="rgb(97.2060669456067,141.26516736401675,170.82269874476987)" stroke-width="1" />
<path d="M 850.50 535.50 C 732.01 564.25, 1036.40 570.13, 850.50 535.50 Z" fill="rgb(125.3931623931624,173.3438527284681,160.55226824457594)" stroke="rgb(125.3931623931624,173.3438527284681,160.55226824457594)" stroke-width="1" />
<path d="M 326.50 448.50 C 191.81 486.11, 519.33 453.63, 326.50 448.50 Z" fill="rgb(61.1076095311299,122.41660261337432,85.74634896233667)" stroke="rgb(61.1076095311299,122.41660261337432,85.74634896233667)" stroke-width="1" />
<path d="M 310.50 535.50 C 250.92 577.56, 514.23 547.27, 310.50 535.50 Z" fill="rgb(124.56179024716099,171.2077488309953,158.3313293253173)" stroke="rgb(124.56179024716099,171.2077488309953,158.3313293253173)" stroke-width="1" />
<path d="M 260.50 567.50 C 347.83 678.33, 370.84 648.90, 260.50 567.50 Z" fill="rgb(105.90657439446366,170.24336793540945,215.45328719723184)" stroke="rgb(105.90657439446366,170.24336793540945,215.45328719723184)" stroke-width="1" />
<path d="M 352.50 343.50 C 242.60 438.43, 275.39 458.17, 352.50 343.50 Z" fill="rgb(27.5464725643897,122.24076147816349,189.1444568868981)" stroke="rgb(27.5464725643897,122.24076147816349,189.1444568868981)" stroke-width="1" />
<path d="M 563.50 179.50 C 498.90 214.95, 632.29 216.02, 563.50 179.50 Z" fill="rgb(251.9661898569571,238.61898569570872,239.851755526658)" stroke="rgb(251.9661898569571,238.61898569570872,239.851755526658)" stroke-width="1" />
<path d="M 516.50 213.50 C 409.07 223.64, 596.63 236.22, 516.50 213.50 Z" fill="rgb(40.64727272727273,134.58,200.62363636363636)" stroke="rgb(40.64727272727273,134.58,200.62363636363636)" stroke-width="1" />
<path d="M 341.50 618.50 C 397.79 695.67, 417.49 674.23, 341.50 618.50 Z" fill="rgb(201.2845188284519,226.2112970711297,240.60251046025104)" stroke="rgb(201.2845188284519,226.2112970711297,240.60251046025104)" stroke-width="1" />
<path d="M 581.50 256.50 C 611.64 302.01, 664.52 279.50, 581.50 256.50 Z" fill="rgb(73.97286821705427,149.37403100775194,201.98643410852713)" stroke="rgb(73.97286821705427,149.37403100775194,201.98643410852713)" stroke-width="1" />
<path d="M 402.50 321.50 C 324.02 391.21, 355.54 396.13, 402.50 321.50 Z" fill="rgb(88.36842105263158,139.26315789473685,173.52631578947367)" stroke="rgb(88.36842105263158,139.26315789473685,173.52631578947367)" stroke-width="1" />
<path d="M 403.50 321.50 C 327.82 386.09, 349.53 401.74, 403.50 321.50 Z" fill="rgb(212.06304347826088,229.58913043478262,238.27608695652174)" stroke="rgb(212.06304347826088,229.58913043478262,238.27608695652174)" stroke-width="1" />
<path d="M 632.50 719.50 C 555.22 731.56, 604.19 753.99, 632.50 719.50 Z" fill="rgb(116.9250645994832,177.92248062015503,221.04134366925064)" stroke="rgb(116.9250645994832,177.92248062015503,221.04134366925064)" stroke-width="1" />
<path d="M 659.50 653.50 C 562.36 677.72, 595.39 691.15, 659.50 653.50 Z" fill="rgb(206.12433862433863,233.14814814814815,247.32010582010582)" stroke="rgb(206.12433862433863,233.14814814814815,247.32010582010582)" stroke-width="1" />
<path d="M 581.50 320.50 C 660.48 367.12, 671.80 344.74, 581.50 320.50 Z" fill="rgb(211.28780487804877,234.02439024390245,244.41951219512194)" stroke="rgb(211.28780487804877,234.02439024390245,244.41951219512194)" stroke-width="1" />
<path d="M 457.50 319.50 C 384.65 383.63, 413.21 390.74, 457.50 319.50 Z" fill="rgb(128.07692307692307,170.26923076923077,196.30769230769232)" stroke="rgb(128.07692307692307,170.26923076923077,196.30769230769232)" stroke-width="1" />
<path d="M 399.50 624.50 C 456.61 698.38, 470.83 676.55, 399.50 624.50 Z" fill="rgb(199.24759615384616,224.90384615384616,239.6346153846154)" stroke="rgb(199.24759615384616,224.90384615384616,239.6346153846154)" stroke-width="1" />
<path d="M 457.50 319.50 C 385.88 383.01, 411.34 391.63, 457.50 319.50 Z" fill="rgb(203.52261306532662,223.28391959798995,233.63819095477388)" stroke="rgb(203.52261306532662,223.28391959798995,233.63819095477388)" stroke-width="1" />
<path d="M 659.50 326.50 C 728.13 377.54, 738.86 356.43, 659.50 326.50 Z" fill="rgb(198.4585635359116,225.84254143646407,239.80939226519337)" stroke="rgb(198.4585635359116,225.84254143646407,239.80939226519337)" stroke-width="1" />
<path d="M 727.50 643.50 C 639.99 674.54, 676.43 680.93, 727.50 643.50 Z" fill="rgb(205.33544303797467,232.66772151898735,247.14556962025316)" stroke="rgb(205.33544303797467,232.66772151898735,247.14556962025316)" stroke-width="1" />
<path d="M 466.50 275.50 C 422.94 297.50, 439.43 316.88, 466.50 275.50 Z" fill="rgb(70.61032863849765,147.95774647887325,199.10798122065728)" stroke="rgb(70.61032863849765,147.95774647887325,199.10798122065728)" stroke-width="1" />
<path d="M 534.50 276.50 C 571.69 317.05, 582.01 295.49, 534.50 276.50 Z" fill="rgb(88.09865470852019,155.47533632286996,201.695067264574)" stroke="rgb(88.09865470852019,155.47533632286996,201.695067264574)" stroke-width="1" />
<path d="M 572.50 697.50 C 525.25 725.81, 544.43 737.29, 572.50 697.50 Z" fill="rgb(136.42131979695432,187.80710659898477,223.53807106598984)" stroke="rgb(136.42131979695432,187.80710659898477,223.53807106598984)" stroke-width="1" />
<path d="M 381.50 275.50 C 334.64 297.07, 350.41 311.63, 381.50 275.50 Z" fill="rgb(98.72727272727273,164.57219251336898,207.16042780748663)" stroke="rgb(98.72727272727273,164.57219251336898,207.16042780748663)" stroke-width="1" />
<path d="M 75.50 724.50 C 42.74 732.99, 89.62 732.96, 75.50 724.50 Z" fill="rgb(163.15068493150685,215.986301369863,254.67123287671234)" stroke="rgb(163.15068493150685,215.986301369863,254.67123287671234)" stroke-width="1" />
</svg>