<svg xmlns="http://www.w3.org/2000/svg" width="1000" height="750" viewbox="0 0 1000 750">
<path d="M 0.50 0.50 C 0.50 146.17, 0.50 291.83, 0.50 437.50 C 3.82 540.51, -6.15 655.82, 5.50 749.50 C 29.50 749.50, 52.50 749.50, 75.50 749.50 C 99.83 749.50, 123.17 749.50, 146.50 749.50 C 170.50 749.50, 193.50 749.50, 216.50 749.50 C 240.83 749.50, 264.17 749.50, 287.50 749.50 C 313.50 749.50, 338.50 749.50, 363.50 749.50 C 389.83 749.50, 415.17 749.50, 440.50 749.50 C 466.50 749.50, 491.50 749.50, 516.50 749.50 C 542.83 749.50, 568.17 749.50, 593.50 749.50 C 619.50 749.50, 644.50 749.50, 669.50 749.50 C 695.83 749.50, 721.17 749.50, 746.50 749.50 C 772.83 749.50, 798.17 749.50, 823.50 749.50 C 849.83 749.50, 875.17 749.50, 900.50 749.50 C 992.75 772.08, 1015.24 725.91, 999.50 641.50 C 999.50 491.83, 999.50 343.17, 999.50 194.50 C 999.50 129.17, 999.50 64.83, 999.50 0.50 C 968.50 0.50, 938.50 0.50, 908.50 0.50 C 877.50 0.50, 847.50 0.50, 817.50 0.50 C 786.50 0.50, 756.50 0.50, 726.50 0.50 C 695.50 0.50, 665.50 0.50, 635.50 0.50 C 608.50 0.50, 582.50 0.50, 556.50 0.50 C 529.50 0.50, 503.50 0.50, 477.50 0.50 C 450.50 0.50, 424.50 0.50, 398.50 0.50 C 371.17 0.50, 344.83 0.50, 318.50 0.50 C 291.50 0.50, 265.50 0.50, 239.50 0.50 C 212.50 0.50, 186.50 0.50, 160.50 0.50 C 133.50 0.50, 107.50 0.50, 81.50 0.50 C 54.17 0.50, 27.83 0.50, 1.50 0.50 Z" fill="rgb(113.98539880204635,175.88035028310304,221.15516958872686)" stroke="rgb(113.98539880204635,175.88035028310304,221.15516958872686)" stroke-width="1" />
<path d="M 642.50 0.50 C 473.14 7.29, 283.26 1.65, 105.50 3.50 C 81.17 3.50, 57.83 3.50, 34.50 3.50 C -46.43 11.90, 22.89 138.15, 73.50 129.50 C 96.09 134.35, 107.26 157.89, 110.50 177.50 C 113.57 188.80, 114.69 200.31, 109.50 209.50 C 101.57 226.14, 84.12 227.75, 69.50 229.50 C 65.98 240.94, 57.56 248.94, 50.50 257.50 C 47.50 290.22, 124.10 284.98, 92.50 329.50 C 67.41 345.08, 57.67 365.54, 37.50 384.50 C 60.30 400.17, 114.70 361.66, 151.50 358.50 C 207.42 342.32, 261.31 324.66, 312.50 300.50 C 367.57 273.47, 423.46 250.85, 474.50 216.50 C 520.21 215.40, 504.30 206.95, 467.50 209.50 C 375.74 207.34, 243.44 220.78, 384.50 177.50 C 380.10 73.50, 532.13 125.43, 517.50 163.50 C 519.19 116.43, 535.90 75.14, 572.50 44.50 C 582.55 35.67, 592.29 29.51, 602.50 24.50 C 670.18 -12.11, 769.88 17.52, 803.50 77.50 C 838.35 81.84, 864.45 40.98, 900.50 95.50 C 922.15 90.71, 966.95 132.83, 934.50 133.50 C 921.43 132.81, 909.44 133.86, 896.50 133.50 C 870.14 134.33, 847.42 131.41, 823.50 134.50 C 836.13 206.24, 792.98 275.02, 730.50 304.50 C 749.75 325.41, 810.13 338.67, 852.50 336.50 C 1015.51 376.66, 862.05 275.62, 932.50 220.50 C 1016.24 203.82, 999.08 90.34, 999.50 7.50 C 885.59 -0.26, 759.12 6.05, 643.50 0.50 Z" fill="rgb(143.1860465116279,205.04773561811504,248.1689106487148)" stroke="rgb(143.1860465116279,205.04773561811504,248.1689106487148)" stroke-width="1" />
<path d="M 642.50 0.50 C 636.88 4.96, 625.45 1.32, 617.50 2.50 C 589.89 2.97, 563.51 4.00, 536.50 3.50 C 513.50 3.50, 491.50 3.50, 469.50 3.50 C 446.50 3.50, 424.50 3.50, 402.50 3.50 C 369.83 3.50, 338.17 3.50, 306.50 3.50 C 273.83 3.50, 242.17 3.50, 210.50 3.50 C 177.83 3.50, 146.17 3.50, 114.50 3.50 C 81.83 3.50, 50.17 3.50, 18.50 3.50 C 12.15 4.15, 4.19 2.19, 0.50 4.50 C 0.50 26.83, 0.50 48.17, 0.50 69.50 C 10.24 75.14, 0.54 91.17, 9.50 94.50 C 35.28 91.19, 45.85 115.93, 53.50 131.50 C 68.96 126.84, 86.02 128.94, 95.50 142.50 C 107.70 159.54, 113.54 177.80, 113.50 198.50 C 111.58 220.09, 89.80 227.43, 73.50 231.50 C 63.49 235.95, 63.26 248.49, 53.50 254.50 C 45.35 268.27, 56.49 283.12, 71.50 281.50 C 87.94 282.55, 98.39 298.12, 99.50 312.50 C 100.43 329.85, 81.81 336.12, 72.50 344.50 C 66.93 366.43, 38.32 368.22, 39.50 393.50 C 71.03 383.03, 101.91 372.41, 133.50 363.50 C 145.70 359.66, 157.10 357.27, 167.50 352.50 C 186.82 347.61, 204.95 342.25, 222.50 335.50 C 252.81 325.71, 281.44 314.30, 309.50 301.50 C 327.47 294.22, 343.94 285.77, 360.50 277.50 C 377.65 269.20, 393.96 262.27, 409.50 253.50 C 431.37 243.60, 451.09 230.93, 470.50 217.50 C 478.06 214.29, 485.97 214.36, 493.50 213.50 C 503.73 211.25, 501.64 213.64, 493.50 211.50 C 487.96 208.32, 482.92 211.66, 477.50 210.50 C 457.50 209.50, 438.50 209.50, 419.50 209.50 C 399.50 209.50, 380.50 209.50, 361.50 209.50 C 343.54 209.34, 324.84 208.80, 307.50 210.50 C 296.16 202.90, 321.55 203.69, 327.50 201.50 C 356.85 207.97, 356.15 171.84, 382.50 177.50 C 384.92 158.52, 388.33 140.37, 404.50 127.50 C 422.07 115.83, 442.32 114.04, 463.50 114.50 C 492.38 114.93, 514.29 141.07, 513.50 168.50 C 517.85 175.59, 517.80 163.32, 517.50 159.50 C 519.54 123.18, 529.91 91.31, 552.50 64.50 C 580.51 31.00, 616.03 13.26, 655.50 8.50 C 668.84 8.82, 681.79 7.66, 693.50 9.50 C 724.21 15.15, 751.55 26.52, 774.50 48.50 C 803.57 46.09, 794.98 80.60, 817.50 86.50 C 835.40 89.64, 828.53 68.38, 840.50 61.50 C 861.85 49.95, 872.96 76.72, 884.50 86.50 C 891.52 87.69, 893.82 96.88, 900.50 95.50 C 916.46 92.75, 929.56 101.39, 934.50 114.50 C 968.70 129.84, 927.90 137.74, 908.50 133.50 C 877.32 140.56, 809.62 113.01, 824.50 162.50 C 823.55 206.07, 807.45 242.36, 776.50 272.50 C 679.49 313.44, 780.03 332.02, 835.50 337.50 C 867.68 332.70, 901.15 359.13, 927.50 338.50 C 876.31 263.46, 971.85 220.75, 999.50 117.50 C 999.50 82.50, 999.50 48.50, 999.50 14.50 C 999.50 10.17, 999.50 6.83, 999.50 3.50 C 971.17 3.50, 943.83 3.50, 916.50 3.50 C 888.17 3.50, 860.83 3.50, 833.50 3.50 C 818.83 3.50, 805.17 3.50, 791.50 3.50 C 761.42 2.92, 733.63 2.07, 703.50 2.50 C 684.83 -0.83, 662.83 1.17, 643.50 0.50 Z" fill="rgb(131.15658634093617,204.95048280083083,254.86268662547286)" stroke="rgb(131.15658634093617,204.95048280083083,254.86268662547286)" stroke-width="1" />
<path d="M 509.50 216.50 C 466.50 214.59, 437.89 247.45, 401.50 261.50 C 360.85 278.07, 325.83 300.51, 286.50 316.50 C 206.99 352.09, 114.52 364.09, 40.50 402.50 C 17.50 435.28, 41.10 459.66, 76.50 448.50 C 86.56 441.56, 96.39 437.49, 107.50 436.50 C 133.37 428.68, 164.24 425.20, 190.50 432.50 C 201.09 436.50, 210.46 441.02, 221.50 441.50 C 263.87 463.25, 303.44 448.65, 349.50 448.50 C 355.55 447.91, 359.38 450.26, 364.50 449.50 C 383.45 454.31, 403.54 455.05, 420.50 459.50 C 434.33 460.15, 446.91 453.19, 460.50 452.50 C 483.09 447.60, 502.82 439.20, 524.50 435.50 C 544.24 432.05, 563.53 425.66, 583.50 429.50 C 635.29 430.44, 684.80 440.85, 734.50 447.50 C 820.54 451.52, 945.39 452.76, 999.50 451.50 C 965.78 428.00, 1005.87 420.79, 999.50 374.50 C 1000.39 360.84, 979.39 371.32, 971.50 366.50 C 940.43 352.90, 906.16 349.45, 872.50 344.50 C 856.24 337.14, 840.27 340.81, 823.50 339.50 C 813.58 337.98, 804.53 336.76, 795.50 335.50 C 764.88 327.80, 736.24 318.75, 708.50 307.50 C 635.05 291.42, 583.28 230.71, 510.50 216.50 Z" fill="rgb(28.909390195447752,125.76455451913799,194.5125536866403)" stroke="rgb(28.909390195447752,125.76455451913799,194.5125536866403)" stroke-width="1" />
<path d="M 0.50 422.50 C 0.50 465.17, 0.50 507.83, 0.50 550.50 C -10.41 618.88, 43.69 532.22, 76.50 557.50 C 127.28 581.41, 184.62 575.94, 236.50 560.50 C 279.49 535.49, 326.28 569.27, 373.50 554.50 C 416.68 539.25, 462.14 551.04, 501.50 564.50 C 582.02 590.23, 669.45 564.53, 749.50 555.50 C 802.22 531.30, 850.15 568.07, 900.50 562.50 C 1132.22 511.73, 872.09 404.26, 757.50 453.50 C 711.22 445.56, 664.78 440.42, 619.50 432.50 C 552.19 420.67, 494.10 447.03, 434.50 460.50 C 381.94 459.91, 328.47 436.58, 279.50 459.50 C 231.81 448.55, 186.25 424.64, 134.50 432.50 C 87.18 446.64, 39.16 468.20, 1.50 422.50 Z" fill="rgb(89.07865986890022,138.65914056809905,133.5469774217043)" stroke="rgb(89.07865986890022,138.65914056809905,133.5469774217043)" stroke-width="1" />
<path d="M 660.50 10.50 C 449.18 51.06, 576.41 238.51, 564.50 232.50 C 596.92 252.70, 628.43 272.69, 662.50 286.50 C 722.80 333.15, 797.39 267.50, 814.50 207.50 C 819.40 185.25, 831.19 145.07, 812.50 132.50 C 769.83 132.50, 728.17 132.50, 686.50 132.50 C 713.94 114.81, 736.48 87.28, 753.50 55.50 C 789.02 37.18, 706.64 10.66, 680.50 10.50 C 673.50 10.50, 667.50 10.50, 661.50 10.50 Z" fill="rgb(202.8551401869159,91.92523364485982,106.40186915887851)" stroke="rgb(202.8551401869159,91.92523364485982,106.40186915887851)" stroke-width="1" />
<path d="M 661.50 10.50 C 623.64 14.10, 590.12 28.19, 562.50 56.50 C 535.43 85.36, 521.98 118.45, 520.50 156.50 C 517.98 168.84, 524.24 180.08, 535.50 181.50 C 548.35 193.89, 563.68 167.66, 575.50 184.50 C 577.86 188.48, 576.24 195.61, 581.50 195.50 C 595.91 220.86, 540.47 202.58, 530.50 212.50 C 534.07 217.92, 542.41 217.00, 546.50 222.50 C 578.61 238.95, 607.22 260.45, 638.50 275.50 C 661.59 286.57, 684.07 296.68, 707.50 304.50 C 715.34 306.19, 720.41 302.62, 726.50 301.50 C 740.16 296.24, 751.69 289.24, 762.50 280.50 C 786.76 262.60, 804.28 237.77, 813.50 211.50 C 820.91 187.16, 827.00 157.92, 818.50 133.50 C 795.83 132.50, 774.17 132.50, 752.50 132.50 C 729.50 132.50, 707.50 132.50, 685.50 132.50 C 684.77 116.60, 713.77 121.80, 717.50 109.50 C 717.84 96.81, 728.32 90.57, 737.50 85.50 C 734.23 66.22, 751.77 53.06, 768.50 49.50 C 765.09 40.11, 755.27 36.36, 748.50 31.50 C 722.71 15.95, 693.97 9.92, 662.50 10.50 Z" fill="rgb(229.1433796139519,42.146461225871995,52.99033186589909)" stroke="rgb(229.1433796139519,42.146461225871995,52.99033186589909)" stroke-width="1" />
<path d="M 0.50 423.50 C 2.47 449.53, -3.45 483.45, 3.50 504.50 C 24.83 503.50, 45.17 503.50, 65.50 503.50 C 86.83 503.50, 107.17 503.50, 127.50 503.50 C 148.83 503.50, 169.17 503.50, 189.50 503.50 C 211.17 503.50, 231.83 503.50, 252.50 503.50 C 273.83 503.50, 294.17 503.50, 314.50 503.50 C 335.83 503.50, 356.17 503.50, 376.50 503.50 C 395.35 504.33, 412.52 501.92, 429.50 503.50 C 453.40 503.14, 477.51 503.72, 501.50 503.50 C 522.83 503.50, 543.17 503.50, 563.50 503.50 C 584.83 503.50, 605.17 503.50, 625.50 503.50 C 646.83 503.50, 667.17 503.50, 687.50 503.50 C 709.17 503.50, 729.83 503.50, 750.50 503.50 C 771.83 503.50, 792.17 503.50, 812.50 503.50 C 833.83 503.50, 854.17 503.50, 874.50 503.50 C 895.83 503.50, 916.17 503.50, 936.50 503.50 C 958.17 503.50, 978.83 503.50, 999.50 503.50 C 997.05 491.16, 1006.28 470.06, 990.50 469.50 C 964.94 460.43, 938.66 456.52, 914.50 447.50 C 887.44 438.70, 858.99 443.60, 835.50 454.50 C 801.07 470.46, 765.53 450.68, 730.50 449.50 C 710.10 446.00, 691.22 442.23, 671.50 440.50 C 640.23 434.26, 608.78 430.87, 576.50 429.50 C 549.47 428.92, 526.66 436.15, 503.50 442.50 C 480.46 448.40, 457.97 453.23, 436.50 460.50 C 406.12 461.77, 381.02 452.72, 353.50 449.50 C 328.02 448.16, 299.94 449.88, 277.50 459.50 C 259.58 455.11, 244.57 446.12, 226.50 444.50 C 198.01 441.18, 173.69 426.17, 145.50 431.50 C 118.78 432.87, 96.69 443.02, 73.50 450.50 C 45.25 458.73, 22.67 437.55, 1.50 423.50 Z" fill="rgb(54.577629703809265,103.97184454801064,71.67309247775681)" stroke="rgb(54.577629703809265,103.97184454801064,71.67309247775681)" stroke-width="1" />
<path d="M 356.50 504.50 C 348.65 506.80, 339.04 504.86, 330.50 505.50 C 302.50 505.50, 275.50 505.50, 248.50 505.50 C 220.17 505.50, 192.83 505.50, 165.50 505.50 C 137.50 505.50, 110.50 505.50, 83.50 505.50 C 55.17 505.50, 27.83 505.50, 0.50 505.50 C 0.50 527.83, 0.50 549.17, 0.50 570.50 C -3.61 591.61, 8.88 578.48, 18.50 571.50 C 82.69 527.01, 102.91 581.40, 168.50 570.50 C 201.56 566.20, 235.88 564.78, 265.50 550.50 C 293.19 547.22, 319.29 561.77, 349.50 557.50 C 415.25 535.48, 478.32 557.61, 539.50 573.50 C 569.41 579.09, 603.32 576.97, 631.50 571.50 C 663.84 569.13, 693.78 563.37, 724.50 559.50 C 756.33 556.50, 783.59 545.89, 815.50 546.50 C 844.10 555.29, 874.17 570.25, 905.50 560.50 C 933.07 552.47, 960.88 547.42, 987.50 539.50 C 1006.37 539.55, 997.37 517.70, 999.50 505.50 C 963.17 505.50, 927.83 505.50, 892.50 505.50 C 872.83 505.50, 854.17 505.50, 835.50 505.50 C 815.50 505.50, 796.50 505.50, 777.50 505.50 C 757.50 505.50, 738.50 505.50, 719.50 505.50 C 699.50 505.50, 680.50 505.50, 661.50 505.50 C 641.50 505.50, 622.50 505.50, 603.50 505.50 C 583.50 505.50, 564.50 505.50, 545.50 505.50 C 525.50 505.50, 506.50 505.50, 487.50 505.50 C 467.50 505.50, 448.50 505.50, 429.50 505.50 C 403.50 504.89, 381.19 506.25, 357.50 504.50 Z" fill="rgb(119.25603565944378,162.3724407097765,152.4815517829722)" stroke="rgb(119.25603565944378,162.3724407097765,152.4815517829722)" stroke-width="1" />
<path d="M 272.50 550.50 C 252.45 559.60, 230.89 565.06, 208.50 568.50 C 193.26 575.28, 177.23 577.74, 160.50 578.50 C 133.42 578.05, 107.20 571.77, 83.50 562.50 C 65.82 551.70, 13.75 557.22, 34.50 584.50 C 42.34 591.38, 33.76 606.68, 44.50 609.50 C 75.77 621.45, 106.46 631.41, 137.50 640.50 C 151.89 644.02, 164.87 648.55, 178.50 651.50 C 217.83 663.09, 254.99 676.51, 291.50 691.50 C 309.35 699.14, 291.88 675.53, 316.50 688.50 C 347.81 696.89, 367.91 680.59, 393.50 705.50 C 454.84 730.69, 381.50 658.33, 476.50 688.50 C 493.62 685.65, 476.65 666.23, 471.50 658.50 C 453.89 638.54, 437.39 619.59, 429.50 595.50 C 424.66 580.63, 418.08 567.89, 415.50 553.50 C 401.03 548.69, 388.52 555.90, 375.50 556.50 C 352.13 562.87, 324.02 561.51, 301.50 556.50 C 290.72 556.39, 283.29 550.59, 273.50 550.50 Z" fill="rgb(104.00299561039269,163.08257207260647,203.91535176177482)" stroke="rgb(104.00299561039269,163.08257207260647,203.91535176177482)" stroke-width="1" />
<path d="M 996.50 110.50 C 987.49 120.40, 985.05 112.09, 995.50 121.50 C 984.01 127.01, 963.54 127.02, 956.50 122.50 C 947.90 129.25, 954.29 108.37, 947.50 115.50 C 941.69 121.95, 956.81 125.24, 949.50 131.50 C 941.46 133.59, 932.47 134.48, 925.50 132.50 C 911.23 132.80, 897.65 133.90, 885.50 132.50 C 867.36 133.94, 843.85 130.83, 822.50 133.50 C 826.30 157.38, 824.43 182.24, 818.50 203.50 C 814.56 215.80, 809.79 226.76, 804.50 237.50 C 785.08 270.45, 754.90 293.68, 721.50 306.50 C 729.58 315.28, 743.15 315.83, 753.50 320.50 C 776.74 328.00, 799.75 333.65, 823.50 337.50 C 836.43 339.64, 850.31 332.80, 861.50 339.50 C 874.02 343.46, 887.21 343.39, 899.50 345.50 C 918.13 354.39, 928.93 331.98, 947.50 334.50 C 957.47 319.80, 940.40 313.77, 937.50 301.50 C 924.80 295.19, 901.17 293.39, 902.50 273.50 C 898.95 247.46, 918.76 211.87, 948.50 222.50 C 951.02 206.78, 964.58 192.28, 982.50 193.50 C 985.66 187.08, 983.85 177.44, 989.50 172.50 C 998.87 154.56, 1003.13 131.46, 997.50 111.50 Z" fill="rgb(131.30327516283643,204.90865798205726,254.76738970136415)" stroke="rgb(131.30327516283643,204.90865798205726,254.76738970136415)" stroke-width="1" />
<path d="M 431.50 285.50 C 395.85 320.73, 381.80 303.13, 338.50 328.50 C 357.58 298.00, 306.39 321.53, 288.50 332.50 C 270.07 346.43, 257.06 366.43, 250.50 386.50 C 250.80 401.82, 236.58 408.42, 229.50 419.50 C 222.78 426.72, 205.92 442.33, 223.50 440.50 C 247.95 448.28, 243.84 432.76, 257.50 448.50 C 262.35 452.59, 269.32 454.26, 274.50 456.50 C 304.64 448.86, 339.61 441.62, 370.50 450.50 C 385.35 452.05, 398.30 455.78, 412.50 456.50 C 422.05 431.65, 428.47 406.91, 440.50 384.50 C 455.32 361.80, 480.87 345.03, 484.50 318.50 C 463.70 317.68, 450.64 322.51, 432.50 325.50 C 394.57 342.69, 429.44 294.40, 432.50 285.50 Z" fill="rgb(19.534360647293642,96.39099454865433,150.11932866892732)" stroke="rgb(19.534360647293642,96.39099454865433,150.11932866892732)" stroke-width="1" />
<path d="M 511.50 216.50 C 494.82 229.75, 483.34 212.98, 461.50 227.50 C 438.02 243.24, 414.18 254.68, 390.50 266.50 C 370.45 275.72, 351.22 284.50, 332.50 294.50 C 323.07 298.47, 315.55 303.62, 307.50 307.50 C 299.18 314.59, 271.16 339.88, 289.50 331.50 C 301.63 325.83, 352.11 300.89, 335.50 322.50 C 330.11 327.36, 322.13 327.83, 321.50 334.50 C 342.25 327.59, 363.88 318.98, 383.50 308.50 C 388.42 320.31, 401.35 309.91, 418.50 296.50 C 437.09 289.60, 413.17 315.03, 413.50 324.50 C 415.56 335.70, 430.24 322.88, 437.50 323.50 C 453.57 322.15, 465.95 314.28, 482.50 316.50 C 503.57 320.76, 520.60 309.00, 540.50 309.50 C 572.23 310.32, 600.27 317.64, 628.50 324.50 C 639.94 328.32, 648.15 318.89, 660.50 321.50 C 675.78 330.45, 692.89 332.57, 710.50 333.50 C 718.80 323.58, 742.87 330.51, 743.50 326.50 C 727.23 319.62, 714.40 307.86, 698.50 303.50 C 673.34 292.75, 648.46 283.74, 624.50 272.50 C 609.30 262.18, 594.57 254.14, 580.50 244.50 C 543.21 214.21, 503.37 228.33, 512.50 216.50 Z" fill="rgb(230.3730032292788,237.28620021528525,241.3836813778256)" stroke="rgb(230.3730032292788,237.28620021528525,241.3836813778256)" stroke-width="1" />
<path d="M 38.50 609.50 C 41.60 639.07, 70.23 658.11, 92.50 676.50 C 106.04 724.07, -2.39 753.79, 100.50 747.50 C 136.22 747.48, 167.39 748.11, 201.50 747.50 C 263.82 747.36, 321.98 748.61, 386.50 748.50 C 422.85 745.91, 360.51 730.26, 350.50 720.50 C 311.73 700.18, 274.45 685.99, 233.50 671.50 C 168.92 649.02, 101.56 635.66, 39.50 609.50 Z" fill="rgb(163.93235294117648,215.43529411764706,252.00882352941176)" stroke="rgb(163.93235294117648,215.43529411764706,252.00882352941176)" stroke-width="1" />
<path d="M 40.50 609.50 C 29.18 623.82, 49.95 628.07, 52.50 641.50 C 66.88 640.17, 70.68 655.23, 72.50 665.50 C 85.43 668.88, 98.31 677.15, 99.50 690.50 C 98.60 708.21, 83.70 722.55, 67.50 724.50 C 49.48 719.34, 52.68 734.37, 47.50 744.50 C 54.31 749.96, 63.43 746.37, 71.50 747.50 C 96.83 747.50, 121.17 747.50, 145.50 747.50 C 170.83 747.50, 195.17 747.50, 219.50 747.50 C 244.83 747.50, 269.17 747.50, 293.50 747.50 C 318.83 747.50, 343.17 747.50, 367.50 747.50 C 378.56 746.22, 393.76 750.09, 400.50 745.50 C 378.10 733.20, 355.55 724.66, 334.50 712.50 C 307.39 699.02, 279.69 689.38, 252.50 678.50 C 234.72 672.30, 217.62 666.87, 200.50 661.50 C 183.33 656.57, 167.91 650.86, 151.50 647.50 C 119.87 637.55, 89.02 629.12, 59.50 617.50 C 52.94 614.57, 46.52 613.73, 41.50 609.50 Z" fill="rgb(163.0228803864243,216.04207448836914,254.91479174611246)" stroke="rgb(163.0228803864243,216.04207448836914,254.91479174611246)" stroke-width="1" />
<path d="M 0.50 74.50 C 9.17 165.08, -29.35 528.97, 49.50 363.50 C 74.23 348.29, 126.59 299.50, 69.50 282.50 C 51.14 285.56, 47.93 271.39, 46.50 257.50 C 65.39 249.18, 59.32 222.12, 80.50 225.50 C 142.34 216.67, 99.31 105.44, 48.50 136.50 C 56.65 90.64, -6.82 110.68, 1.50 74.50 Z" fill="rgb(154.70892018779344,211.04694835680752,248.52582159624413)" stroke="rgb(154.70892018779344,211.04694835680752,248.52582159624413)" stroke-width="1" />
<path d="M 0.50 72.50 C 0.50 187.17, 0.50 301.83, 0.50 416.50 C 11.05 432.93, 34.06 436.89, 34.50 411.50 C 36.24 395.30, 30.46 380.42, 45.50 372.50 C 45.56 355.36, 66.91 364.70, 68.50 349.50 C 66.38 333.09, 84.36 336.97, 91.50 327.50 C 105.73 310.71, 90.59 285.97, 72.50 283.50 C 64.66 279.71, 49.21 286.13, 50.50 274.50 C 35.66 253.98, 67.02 247.18, 66.50 227.50 C 78.46 226.81, 88.71 225.43, 97.50 220.50 C 131.63 190.85, 95.18 110.78, 49.50 136.50 C 48.45 116.94, 36.71 95.98, 14.50 97.50 C -3.42 102.36, 4.80 82.64, 1.50 73.50 Z" fill="rgb(251.1372316323228,253.5620886827058,254.5689934189233)" stroke="rgb(251.1372316323228,253.5620886827058,254.5689934189233)" stroke-width="1" />
<path d="M 988.50 639.50 C 940.65 651.13, 892.56 662.20, 842.50 668.50 C 768.38 669.94, 678.64 692.79, 783.50 737.50 C 845.76 758.42, 919.11 742.60, 982.50 748.50 C 1011.47 746.55, 1003.74 654.45, 989.50 640.50 Z" fill="rgb(165.79166666666666,205.90833333333333,238.37916666666666)" stroke="rgb(165.79166666666666,205.90833333333333,238.37916666666666)" stroke-width="1" />
<path d="M 282.50 670.50 C 314.38 713.09, 370.82 725.21, 415.50 748.50 C 467.85 748.46, 516.19 748.16, 568.50 748.50 C 588.47 746.40, 603.37 743.38, 618.50 732.50 C 628.53 721.47, 646.25 722.61, 659.50 715.50 C 684.69 705.62, 709.84 698.07, 732.50 684.50 C 763.02 673.35, 730.57 679.52, 717.50 676.50 C 696.65 668.05, 674.98 676.24, 658.50 685.50 C 648.04 688.00, 634.07 672.70, 622.50 683.50 C 596.18 687.54, 571.97 694.24, 545.50 695.50 C 525.41 698.22, 512.25 686.61, 493.50 688.50 C 464.71 690.91, 441.22 682.91, 417.50 675.50 C 420.65 701.65, 428.17 721.39, 392.50 690.50 C 400.44 715.81, 314.08 653.95, 332.50 681.50 C 359.70 706.12, 296.56 677.96, 283.50 671.50 Z" fill="rgb(213.88637764536676,231.1606739264434,243.15389356893363)" stroke="rgb(213.88637764536676,231.1606739264434,243.15389356893363)" stroke-width="1" />
<path d="M 915.50 656.50 C 897.13 661.34, 875.88 659.26, 858.50 666.50 C 849.56 671.35, 840.06 666.38, 831.50 666.50 C 810.31 669.22, 790.17 672.09, 771.50 678.50 C 752.92 684.28, 732.77 687.48, 717.50 696.50 C 740.62 705.52, 761.40 716.77, 779.50 734.50 C 796.29 759.33, 830.91 744.30, 856.50 748.50 C 872.37 747.84, 888.32 749.82, 902.50 747.50 C 900.21 702.71, 993.60 682.91, 916.50 657.50 Z" fill="rgb(165.59362549800798,215.95219123505976,252.3120849933599)" stroke="rgb(165.59362549800798,215.95219123505976,252.3120849933599)" stroke-width="1" />
<path d="M 446.50 115.50 C 431.43 118.73, 415.19 119.12, 403.50 130.50 C 390.57 143.10, 385.92 157.72, 386.50 174.50 C 380.68 183.50, 353.65 174.04, 357.50 196.50 C 342.78 202.46, 327.23 202.99, 312.50 205.50 C 308.88 210.28, 349.90 206.17, 364.50 206.50 C 377.49 207.49, 389.91 206.35, 402.50 207.50 C 452.84 208.60, 499.71 207.46, 548.50 206.50 C 584.21 218.16, 594.24 191.92, 562.50 180.50 C 543.16 201.68, 529.75 174.16, 512.50 176.50 C 511.61 157.58, 508.62 140.94, 495.50 128.50 C 481.61 116.81, 465.16 114.70, 447.50 115.50 Z" fill="rgb(247.3098759136495,249.11235764065952,251.40931497535271)" stroke="rgb(247.3098759136495,249.11235764065952,251.40931497535271)" stroke-width="1" />
<path d="M 915.50 657.50 C 897.24 662.95, 875.40 659.77, 858.50 668.50 C 847.66 671.29, 839.93 669.28, 829.50 669.50 C 809.03 672.84, 788.72 674.14, 770.50 680.50 C 757.88 686.88, 747.54 678.34, 744.50 688.50 C 737.59 687.99, 725.79 693.00, 731.50 699.50 C 746.63 706.11, 759.63 716.86, 773.50 725.50 C 784.49 733.65, 788.72 750.20, 803.50 747.50 C 836.50 747.50, 868.50 747.50, 900.50 747.50 C 900.25 733.09, 902.43 713.14, 919.50 709.50 C 937.70 711.26, 938.81 694.19, 950.50 685.50 C 952.11 662.93, 925.43 674.85, 916.50 658.50 Z" fill="rgb(163.02868417058735,216.00751252086812,254.90704203976324)" stroke="rgb(163.02868417058735,216.00751252086812,254.90704203976324)" stroke-width="1" />
<path d="M 773.50 50.50 C 758.50 53.59, 734.59 63.05, 741.50 83.50 C 743.35 94.64, 718.96 89.60, 720.50 104.50 C 721.78 124.27, 694.09 116.90, 685.50 128.50 C 696.59 131.14, 710.41 131.14, 721.50 129.50 C 793.19 131.77, 872.40 129.88, 946.50 130.50 C 947.03 125.36, 942.51 116.17, 934.50 118.50 C 930.89 105.14, 919.15 96.37, 906.50 96.50 C 886.09 100.60, 884.50 77.41, 868.50 75.50 C 866.59 60.60, 849.24 54.56, 839.50 64.50 C 830.11 72.58, 837.80 91.25, 822.50 89.50 C 813.65 88.19, 806.82 79.31, 799.50 76.50 C 800.91 60.63, 789.30 48.54, 774.50 50.50 Z" fill="rgb(250.63422074320576,251.08319467554077,252.28341652800887)" stroke="rgb(250.63422074320576,251.08319467554077,252.28341652800887)" stroke-width="1" />
<path d="M 998.50 154.50 C 996.12 168.95, 983.72 177.74, 986.50 194.50 C 967.14 193.25, 951.26 206.15, 951.50 224.50 C 919.84 210.98, 900.04 248.67, 903.50 275.50 C 905.88 290.82, 921.85 295.54, 934.50 295.50 C 938.94 296.17, 939.39 300.48, 939.50 303.50 C 953.38 312.80, 959.39 340.39, 936.50 337.50 C 910.47 342.73, 925.86 354.83, 943.50 353.50 C 960.28 359.51, 976.82 368.79, 995.50 364.50 C 1003.49 299.32, 997.51 223.70, 999.50 154.50 Z" fill="rgb(250.68451539983047,253.49773947442782,254.633088443063)" stroke="rgb(250.68451539983047,253.49773947442782,254.633088443063)" stroke-width="1" />
<path d="M 20.50 574.50 C -105.20 739.65, 184.37 788.31, 34.50 623.50 C 36.10 605.17, 38.58 584.11, 21.50 574.50 Z" fill="rgb(195.1875,227.9875,250.9875)" stroke="rgb(195.1875,227.9875,250.9875)" stroke-width="1" />
<path d="M 283.50 672.50 C 289.42 683.83, 302.22 690.57, 311.50 698.50 C 332.47 709.57, 352.53 719.43, 372.50 729.50 C 387.64 735.49, 401.05 743.25, 415.50 748.50 C 445.50 748.50, 474.50 748.50, 503.50 748.50 C 512.41 740.87, 505.69 728.80, 501.50 720.50 C 511.22 711.58, 493.09 700.95, 491.50 691.50 C 462.63 690.82, 438.07 683.14, 413.50 675.50 C 413.75 691.04, 448.39 730.42, 417.50 709.50 C 408.24 701.18, 399.10 695.98, 390.50 689.50 C 401.52 710.22, 378.33 694.54, 366.50 688.50 C 352.83 681.48, 307.80 662.71, 339.50 685.50 C 343.61 686.54, 350.95 692.13, 345.50 694.50 C 322.69 691.54, 304.54 679.73, 284.50 672.50 Z" fill="rgb(222.13704381526537,239.20572720422004,250.482936806976)" stroke="rgb(222.13704381526537,239.20572720422004,250.482936806976)" stroke-width="1" />
<path d="M 780.50 396.50 C 601.58 482.46, 1216.96 434.24, 917.50 444.50 C 871.17 429.30, 831.95 399.33, 781.50 396.50 Z" fill="rgb(20.412121212121214,86.27878787878788,116.2969696969697)" stroke="rgb(20.412121212121214,86.27878787878788,116.2969696969697)" stroke-width="1" />
<path d="M 980.50 639.50 C 960.14 643.97, 942.07 653.96, 920.50 655.50 C 926.18 673.54, 955.82 660.09, 953.50 684.50 C 938.80 691.04, 943.46 713.85, 925.50 709.50 C 907.37 711.13, 899.47 729.47, 904.50 745.50 C 927.83 751.24, 953.65 746.96, 977.50 748.50 C 1013.27 753.01, 1009.45 641.43, 981.50 639.50 Z" fill="rgb(231.2084360449192,245.1517392495207,254.75239660367023)" stroke="rgb(231.2084360449192,245.1517392495207,254.75239660367023)" stroke-width="1" />
<path d="M 0.50 130.50 C 0.50 153.17, 0.50 175.83, 0.50 198.50 C 0.50 222.17, 0.50 244.83, 0.50 267.50 C 0.50 291.17, 0.50 313.83, 0.50 336.50 C 0.50 360.50, 0.50 383.50, 0.50 406.50 C 5.24 410.67, 9.41 389.51, 8.50 380.50 C 2.83 358.14, 26.05 350.34, 25.50 331.50 C 47.65 322.05, 42.29 282.46, 18.50 283.50 C 15.25 274.55, 10.30 262.91, 18.50 255.50 C 20.74 240.18, 28.24 235.50, 40.50 230.50 C 51.73 210.04, 45.30 183.50, 36.50 165.50 C 31.68 151.47, 15.48 167.50, 14.50 157.50 C 13.49 146.54, 12.09 134.66, 1.50 130.50 Z" fill="rgb(210.3086164043082,236.0840927920464,254.7793427230047)" stroke="rgb(210.3086164043082,236.0840927920464,254.7793427230047)" stroke-width="1" />
<path d="M 20.50 572.50 C 13.12 581.28, -7.97 587.44, 4.50 600.50 C 12.24 619.61, 5.84 640.58, 17.50 656.50 C 29.24 656.51, 22.90 671.89, 29.50 675.50 C 49.24 686.71, 40.97 723.31, 18.50 721.50 C 17.17 730.08, 11.43 739.05, 17.50 745.50 C 38.81 755.57, 52.11 743.88, 51.50 723.50 C 72.85 725.19, 94.65 715.30, 97.50 694.50 C 99.55 682.26, 89.48 673.85, 80.50 670.50 C 62.75 671.26, 74.26 644.79, 56.50 645.50 C 44.83 647.08, 48.76 624.89, 34.50 624.50 C 38.43 606.75, 38.13 582.98, 21.50 573.50 Z" fill="rgb(232.45191642451917,245.61533139615332,254.84184308841844)" stroke="rgb(232.45191642451917,245.61533139615332,254.84184308841844)" stroke-width="1" />
<path d="M 442.50 142.50 C 418.82 142.60, 399.09 162.50, 402.50 187.50 C 382.89 179.84, 385.90 204.03, 371.50 203.50 C 367.67 203.72, 360.36 206.46, 366.50 206.50 C 401.86 206.25, 433.09 206.69, 462.50 207.50 C 489.48 205.86, 517.08 208.19, 544.50 204.50 C 536.31 200.26, 538.91 184.44, 527.50 189.50 C 514.00 203.53, 503.40 184.70, 491.50 184.50 C 494.20 156.35, 470.32 137.49, 443.50 142.50 Z" fill="rgb(210.0559889857733,236.07954719290194,254.80052011626128)" stroke="rgb(210.0559889857733,236.07954719290194,254.80052011626128)" stroke-width="1" />
<path d="M 711.50 697.50 C 674.32 710.99, 637.64 725.67, 603.50 746.50 C 601.75 749.80, 619.01 747.86, 625.50 748.50 C 653.17 748.50, 679.83 748.50, 706.50 748.50 C 734.41 748.60, 760.80 748.45, 788.50 748.50 C 769.80 722.81, 741.81 705.66, 712.50 698.50 Z" fill="rgb(225.43772893772893,111.56043956043956,121.72893772893772)" stroke="rgb(225.43772893772893,111.56043956043956,121.72893772893772)" stroke-width="1" />
<path d="M 779.50 396.50 C 759.82 399.58, 741.06 404.89, 724.50 415.50 C 712.69 422.80, 733.93 424.22, 738.50 428.50 C 763.30 438.48, 786.00 455.53, 815.50 448.50 C 827.05 447.97, 835.10 437.04, 845.50 440.50 C 854.74 440.90, 861.76 444.77, 869.50 441.50 C 882.48 437.72, 919.21 448.81, 892.50 435.50 C 877.49 428.18, 863.88 420.91, 849.50 415.50 C 826.72 406.36, 805.49 396.88, 780.50 396.50 Z" fill="rgb(9.674790962462195,66.33908557196229,104.7520014232343)" stroke="rgb(9.674790962462195,66.33908557196229,104.7520014232343)" stroke-width="1" />
<path d="M 43.50 560.50 C 44.97 564.91, 50.28 565.97, 53.50 568.50 C 84.91 589.03, 114.08 611.57, 143.50 633.50 C 174.43 645.21, 202.90 659.41, 233.50 668.50 C 242.76 670.93, 275.17 687.99, 257.50 670.50 C 238.28 648.52, 215.59 629.80, 195.50 613.50 C 170.02 598.17, 207.46 625.12, 201.50 626.50 C 181.94 615.39, 163.54 603.87, 145.50 591.50 C 123.86 576.34, 142.38 595.77, 151.50 604.50 C 138.96 600.32, 128.58 592.36, 116.50 588.50 C 91.85 578.47, 68.91 567.72, 44.50 560.50 Z" fill="rgb(101.95756490599821,158.59552372426143,197.50689346463741)" stroke="rgb(101.95756490599821,158.59552372426143,197.50689346463741)" stroke-width="1" />
<path d="M 790.50 557.50 C 680.10 572.07, 755.13 632.46, 827.50 599.50 C 854.34 591.04, 896.41 570.45, 909.50 563.50 C 867.10 571.45, 831.64 562.62, 791.50 557.50 Z" fill="rgb(95.28333333333333,144.46666666666667,176.81666666666666)" stroke="rgb(95.28333333333333,144.46666666666667,176.81666666666666)" stroke-width="1" />
<path d="M 261.50 325.50 C 243.79 333.19, 225.16 338.67, 207.50 346.50 C 188.24 354.02, 170.02 361.63, 151.50 368.50 C 148.25 370.83, 144.75 370.17, 142.50 372.50 C 109.33 399.37, 75.15 424.14, 42.50 446.50 C 68.79 439.49, 92.38 428.34, 116.50 418.50 C 130.37 414.08, 140.50 404.03, 152.50 398.50 C 161.81 397.75, 136.14 414.32, 133.50 422.50 C 158.50 407.67, 181.87 388.90, 205.50 376.50 C 181.16 401.61, 205.88 385.82, 222.50 369.50 C 235.67 356.55, 259.06 337.77, 262.50 325.50 Z" fill="rgb(18.76648004334477,97.13021491782554,152.01065558966948)" stroke="rgb(18.76648004334477,97.13021491782554,152.01065558966948)" stroke-width="1" />
<path d="M 796.50 557.50 C 678.09 568.98, 757.55 635.98, 833.50 597.50 C 936.60 563.13, 864.60 567.81, 797.50 557.50 Z" fill="rgb(102.22137404580153,156.96946564885496,194.9236641221374)" stroke="rgb(102.22137404580153,156.96946564885496,194.9236641221374)" stroke-width="1" />
<path d="M 784.50 558.50 C 762.97 567.37, 742.18 578.00, 720.50 586.50 C 741.65 602.22, 769.40 611.43, 797.50 608.50 C 808.29 605.79, 818.52 604.16, 827.50 599.50 C 853.17 591.26, 876.87 580.68, 899.50 567.50 C 884.48 567.56, 871.73 566.70, 857.50 564.50 C 846.18 568.93, 833.59 566.13, 824.50 561.50 C 812.50 556.47, 798.30 559.18, 785.50 558.50 Z" fill="rgb(96.72357274401473,140.18360957642724,169.50184162062615)" stroke="rgb(96.72357274401473,140.18360957642724,169.50184162062615)" stroke-width="1" />
<path d="M 968.50 577.50 C 950.29 590.96, 906.76 604.93, 924.50 581.50 C 909.82 595.04, 897.19 606.46, 883.50 619.50 C 848.78 647.39, 802.62 644.24, 764.50 660.50 C 798.74 654.88, 835.63 656.78, 871.50 654.50 C 901.50 654.49, 922.67 635.57, 947.50 625.50 C 965.46 621.31, 982.92 612.40, 991.50 595.50 C 978.03 597.60, 957.37 611.91, 947.50 613.50 C 931.05 611.70, 980.36 585.18, 969.50 577.50 Z" fill="rgb(105.74911660777386,169.4876325088339,214.3356890459364)" stroke="rgb(105.74911660777386,169.4876325088339,214.3356890459364)" stroke-width="1" />
<path d="M 711.50 698.50 C 703.92 705.27, 691.27 701.43, 685.50 710.50 C 664.15 714.46, 646.46 728.28, 629.50 735.50 C 601.12 751.35, 647.24 747.44, 660.50 747.50 C 682.17 747.50, 702.83 747.50, 723.50 747.50 C 745.50 747.50, 766.50 747.50, 787.50 747.50 C 769.66 722.67, 741.29 706.12, 712.50 698.50 Z" fill="rgb(232.32775855440215,104.26701268742791,113.5040369088812)" stroke="rgb(232.32775855440215,104.26701268742791,113.5040369088812)" stroke-width="1" />
<path d="M 761.50 344.50 C 782.13 351.52, 803.40 357.02, 825.50 360.50 C 850.45 367.45, 874.41 374.40, 892.50 395.50 C 910.20 410.76, 936.85 439.58, 912.50 405.50 C 933.96 410.92, 952.80 421.25, 972.50 429.50 C 967.39 416.45, 920.09 380.85, 952.50 393.50 C 966.32 399.80, 978.84 406.81, 991.50 413.50 C 982.38 386.20, 952.16 385.53, 932.50 373.50 C 912.68 363.45, 895.55 350.33, 872.50 351.50 C 862.44 351.44, 853.93 350.07, 845.50 348.50 C 816.70 352.55, 789.51 346.58, 762.50 344.50 Z" fill="rgb(18.638611963190183,97.06039110429448,151.95724693251535)" stroke="rgb(18.638611963190183,97.06039110429448,151.95724693251535)" stroke-width="1" />
<path d="M 998.50 200.50 C 1001.31 222.36, 976.19 220.89, 978.50 242.50 C 954.77 239.24, 950.18 274.94, 954.50 293.50 C 956.41 304.33, 970.92 298.89, 971.50 307.50 C 977.17 318.11, 984.55 340.20, 966.50 340.50 C 943.66 362.41, 982.78 370.22, 998.50 363.50 C 999.50 336.50, 999.50 309.50, 999.50 282.50 C 999.50 254.50, 999.50 227.50, 999.50 200.50 Z" fill="rgb(210.3140430574758,236.16116926723288,254.80327868852459)" stroke="rgb(210.3140430574758,236.16116926723288,254.80327868852459)" stroke-width="1" />
<path d="M 971.50 577.50 C 952.93 586.20, 934.68 595.69, 914.50 600.50 C 938.05 567.11, 906.55 598.37, 892.50 611.50 C 884.09 617.99, 877.82 626.20, 869.50 629.50 C 842.41 644.85, 810.61 646.43, 781.50 654.50 C 756.14 661.62, 790.02 657.95, 799.50 656.50 C 825.08 653.87, 849.98 657.93, 873.50 653.50 C 891.89 654.61, 905.52 646.63, 919.50 639.50 C 935.19 632.23, 948.61 622.88, 964.50 619.50 C 974.29 617.50, 995.63 596.86, 987.50 595.50 C 975.66 602.70, 963.61 606.96, 952.50 613.50 C 918.92 624.58, 970.32 588.91, 972.50 577.50 Z" fill="rgb(101.84508990318119,158.38194032799842,197.16656787196206)" stroke="rgb(101.84508990318119,158.38194032799842,197.16656787196206)" stroke-width="1" />
<path d="M 783.50 90.50 C 773.60 92.89, 752.69 93.86, 758.50 109.50 C 739.22 110.24, 738.32 128.58, 719.50 128.50 C 742.75 129.05, 761.81 130.55, 785.50 130.50 C 812.39 130.19, 843.11 130.71, 871.50 130.50 C 890.17 130.50, 907.83 130.50, 925.50 130.50 C 919.63 124.52, 908.24 112.59, 894.50 114.50 C 872.04 116.24, 863.38 90.95, 841.50 96.50 C 833.40 99.51, 836.83 111.98, 827.50 110.50 C 806.74 114.15, 805.01 87.02, 784.50 90.50 Z" fill="rgb(211.0997576736672,236.08986268174476,254.41134894991922)" stroke="rgb(211.0997576736672,236.08986268174476,254.41134894991922)" stroke-width="1" />
<path d="M 62.50 131.50 C 38.76 133.63, 49.69 161.37, 50.50 177.50 C 57.20 193.80, 51.03 209.86, 63.50 223.50 C 85.63 231.30, 113.45 217.36, 111.50 192.50 C 109.32 165.36, 97.03 128.02, 63.50 131.50 Z" fill="rgb(253.86162361623616,254.78536285362853,254.95284952849528)" stroke="rgb(253.86162361623616,254.78536285362853,254.95284952849528)" stroke-width="1" />
<path d="M 983.50 639.50 C 971.53 641.11, 951.03 643.27, 961.50 659.50 C 965.40 666.95, 974.01 663.36, 976.50 668.50 C 981.69 687.83, 968.55 702.39, 955.50 709.50 C 950.59 727.73, 951.72 756.43, 977.50 748.50 C 1010.06 758.06, 996.99 722.99, 999.50 703.50 C 999.50 683.83, 999.50 665.17, 999.50 646.50 C 1000.86 637.30, 989.03 642.22, 984.50 639.50 Z" fill="rgb(207.07242063492063,235.9422123015873,254.90079365079364)" stroke="rgb(207.07242063492063,235.9422123015873,254.90079365079364)" stroke-width="1" />
<path d="M 668.50 412.50 C 652.11 415.96, 636.59 421.50, 622.50 430.50 C 648.19 435.10, 674.00 438.43, 699.50 442.50 C 726.62 446.53, 752.66 450.78, 778.50 455.50 C 802.43 463.65, 826.50 456.30, 847.50 448.50 C 869.21 444.79, 839.77 437.60, 832.50 443.50 C 813.39 451.82, 786.80 454.44, 769.50 443.50 C 736.62 429.81, 707.32 410.86, 669.50 412.50 Z" fill="rgb(19.414868728879647,96.1398492331687,148.36547959448922)" stroke="rgb(19.414868728879647,96.1398492331687,148.36547959448922)" stroke-width="1" />
<path d="M 172.50 354.50 C 153.25 361.50, 132.87 365.78, 113.50 372.50 C 88.54 380.13, 64.68 387.98, 41.50 397.50 C 34.94 404.94, 38.45 420.13, 30.50 427.50 C 17.33 436.26, 32.40 445.98, 41.50 446.50 C 74.81 423.06, 107.68 399.55, 139.50 373.50 C 147.29 364.50, 187.11 358.31, 173.50 354.50 Z" fill="rgb(28.439851616322205,125.8836777954425,195.0310015898251)" stroke="rgb(28.439851616322205,125.8836777954425,195.0310015898251)" stroke-width="1" />
<path d="M 470.50 536.50 C 459.59 538.28, 409.36 543.41, 433.50 546.50 C 452.66 551.93, 471.06 556.76, 489.50 561.50 C 513.82 568.48, 537.90 573.62, 562.50 577.50 C 587.25 577.49, 630.36 575.65, 637.50 567.50 C 623.00 568.03, 610.19 566.92, 597.50 565.50 C 568.95 559.49, 542.66 551.44, 515.50 545.50 C 499.98 542.96, 487.55 535.36, 471.50 536.50 Z" fill="rgb(125.74712321077743,173.7833286556273,160.73870333988214)" stroke="rgb(125.74712321077743,173.7833286556273,160.73870333988214)" stroke-width="1" />
<path d="M 795.50 549.50 C 767.91 555.17, 739.35 558.47, 711.50 563.50 C 682.36 567.96, 653.89 571.63, 625.50 575.50 C 639.29 589.02, 666.79 596.71, 690.50 593.50 C 722.26 586.41, 750.57 573.41, 778.50 559.50 C 798.06 554.53, 820.74 555.36, 836.50 564.50 C 875.35 566.01, 813.27 546.56, 796.50 549.50 Z" fill="rgb(102.2498599439776,157.8187675070028,195.50560224089637)" stroke="rgb(102.2498599439776,157.8187675070028,195.50560224089637)" stroke-width="1" />
<path d="M 0.50 596.50 C 0.50 621.50, 0.50 646.50, 0.50 671.50 C 0.50 697.83, 0.50 723.17, 0.50 748.50 C 23.37 753.05, 11.07 741.14, 15.50 727.50 C 13.85 716.73, 26.05 721.33, 30.50 717.50 C 43.11 705.83, 43.26 680.92, 26.50 675.50 C 26.07 658.10, 12.61 654.31, 8.50 639.50 C 8.48 624.97, 10.06 609.20, 1.50 597.50 Z" fill="rgb(207.29263565891472,235.91505167958655,254.8546511627907)" stroke="rgb(207.29263565891472,235.91505167958655,254.8546511627907)" stroke-width="1" />
<path d="M 148.50 430.50 C 121.23 433.63, 95.77 441.14, 71.50 451.50 C 30.92 451.69, 98.74 464.60, 114.50 463.50 C 142.58 453.15, 169.69 442.85, 200.50 441.50 C 204.38 434.88, 166.68 428.49, 149.50 430.50 Z" fill="rgb(62.41468334005648,123.98709156918112,85.25171440096813)" stroke="rgb(62.41468334005648,123.98709156918112,85.25171440096813)" stroke-width="1" />
<path d="M 105.50 544.50 C 92.48 545.49, 33.35 555.58, 69.50 555.50 C 94.72 566.00, 120.30 573.20, 147.50 576.50 C 165.15 580.51, 226.56 566.39, 188.50 565.50 C 158.05 563.75, 135.20 547.07, 106.50 544.50 Z" fill="rgb(125.68346522282383,173.8154935443565,161.0603915035402)" stroke="rgb(125.68346522282383,173.8154935443565,161.0603915035402)" stroke-width="1" />
<path d="M 0.50 97.50 C -7.40 124.95, 15.51 134.47, 15.50 158.50 C 29.28 160.72, 43.24 152.38, 46.50 136.50 C 52.22 109.86, 26.50 92.24, 1.50 97.50 Z" fill="rgb(252.314145470772,254.078536367693,254.72780008924587)" stroke="rgb(252.314145470772,254.078536367693,254.72780008924587)" stroke-width="1" />
<path d="M 998.50 411.50 C 975.51 434.58, 948.44 447.85, 914.50 444.50 C 910.64 446.73, 926.56 449.83, 931.50 451.50 C 955.64 456.54, 977.57 463.53, 999.50 470.50 C 999.50 450.17, 999.50 430.83, 999.50 411.50 Z" fill="rgb(9.872402126631222,66.41130981150314,104.0961817303045)" stroke="rgb(9.872402126631222,66.41130981150314,104.0961817303045)" stroke-width="1" />
<path d="M 871.50 442.50 C 848.73 448.58, 827.69 458.85, 803.50 461.50 C 804.94 466.53, 833.95 467.97, 846.50 472.50 C 865.96 471.70, 882.41 466.04, 898.50 459.50 C 908.48 457.11, 917.18 454.06, 926.50 452.50 C 908.67 447.14, 891.96 441.50, 872.50 442.50 Z" fill="rgb(62.66683266932271,123.57171314741036,84.81474103585657)" stroke="rgb(62.66683266932271,123.57171314741036,84.81474103585657)" stroke-width="1" />
<path d="M 998.50 537.50 C 972.33 548.31, 942.73 550.83, 916.50 561.50 C 970.13 556.09, 1015.19 628.28, 999.50 537.50 Z" fill="rgb(101.94690265486726,154.99115044247787,188.7433628318584)" stroke="rgb(101.94690265486726,154.99115044247787,188.7433628318584)" stroke-width="1" />
<path d="M 997.50 538.50 C 971.64 548.59, 942.90 551.72, 916.50 560.50 C 945.97 561.35, 975.76 571.38, 997.50 593.50 C 1000.17 577.50, 1000.17 554.50, 998.50 538.50 Z" fill="rgb(96.8170542635659,140.22842377260983,169.328165374677)" stroke="rgb(96.8170542635659,140.22842377260983,169.328165374677)" stroke-width="1" />
<path d="M 850.50 535.50 C 835.84 538.52, 820.82 540.67, 806.50 544.50 C 829.63 550.25, 851.67 560.03, 875.50 565.50 C 893.07 564.36, 908.89 561.37, 923.50 555.50 C 900.99 549.69, 877.01 538.85, 851.50 535.50 Z" fill="rgb(125.89161021365294,173.7107868681605,160.6685773840542)" stroke="rgb(125.89161021365294,173.7107868681605,160.6685773840542)" stroke-width="1" />
<path d="M 326.50 448.50 C 310.78 450.16, 258.70 456.55, 294.50 467.50 C 308.52 475.96, 324.40 471.35, 337.50 466.50 C 350.49 463.81, 361.69 460.22, 374.50 460.50 C 381.88 458.72, 409.91 461.38, 396.50 457.50 C 373.85 452.04, 351.89 447.35, 327.50 448.50 Z" fill="rgb(62.18198090692124,123.39856801909308,85.6073985680191)" stroke="rgb(62.18198090692124,123.39856801909308,85.6073985680191)" stroke-width="1" />
<path d="M 310.50 535.50 C 298.99 538.26, 288.22 542.82, 277.50 547.50 C 299.93 557.23, 324.13 559.28, 349.50 558.50 C 370.08 557.01, 392.68 550.00, 408.50 547.50 C 386.77 550.10, 364.87 547.45, 345.50 543.50 C 332.91 542.25, 323.91 534.77, 311.50 535.50 Z" fill="rgb(125.84051724137932,173.63669950738915,161.08251231527095)" stroke="rgb(125.84051724137932,173.63669950738915,161.08251231527095)" stroke-width="1" />
<path d="M 260.50 567.50 C 277.81 586.81, 298.66 603.70, 312.50 625.50 C 325.12 639.01, 338.14 651.18, 351.50 661.50 C 331.55 625.64, 298.33 588.37, 261.50 567.50 Z" fill="rgb(106.68721251149954,172.15639374425024,218.1011959521619)" stroke="rgb(106.68721251149954,172.15639374425024,218.1011959521619)" stroke-width="1" />
<path d="M 352.50 343.50 C 335.80 356.61, 317.73 373.09, 305.50 390.50 C 291.12 408.82, 275.67 424.34, 259.50 440.50 C 298.51 419.45, 330.42 380.62, 352.50 344.50 Z" fill="rgb(28.132718894009216,123.07741935483871,189.92165898617512)" stroke="rgb(28.132718894009216,123.07741935483871,189.92165898617512)" stroke-width="1" />
<path d="M 563.50 179.50 C 542.25 183.07, 533.61 211.60, 561.50 207.50 C 570.70 207.16, 594.57 210.84, 583.50 198.50 C 571.05 199.12, 579.04 176.65, 564.50 179.50 Z" fill="rgb(252.2194046306505,241.50275633958103,242.94266813671445)" stroke="rgb(252.2194046306505,241.50275633958103,242.94266813671445)" stroke-width="1" />
<path d="M 516.50 213.50 C 504.11 220.82, 488.48 214.12, 475.50 219.50 C 491.87 229.41, 516.21 229.50, 534.50 224.50 C 557.20 226.34, 525.72 213.57, 517.50 213.50 Z" fill="rgb(38.18529862174579,129.24961715160796,194.4333843797856)" stroke="rgb(38.18529862174579,129.24961715160796,194.4333843797856)" stroke-width="1" />
<path d="M 341.50 618.50 C 361.37 638.86, 378.30 666.58, 402.50 682.50 C 389.52 658.52, 367.35 633.04, 342.50 619.50 Z" fill="rgb(204.2237762237762,228.243006993007,241.76398601398603)" stroke="rgb(204.2237762237762,228.243006993007,241.76398601398603)" stroke-width="1" />
<path d="M 581.50 256.50 C 579.28 279.28, 610.65 278.44, 630.50 284.50 C 646.34 284.84, 595.92 262.32, 582.50 256.50 Z" fill="rgb(55.77303754266212,138.05972696245735,195.51877133105802)" stroke="rgb(55.77303754266212,138.05972696245735,195.51877133105802)" stroke-width="1" />
<path d="M 402.50 321.50 C 324.02 391.21, 355.54 396.13, 402.50 321.50 Z" fill="rgb(44.234042553191486,107.93617021276596,151.63829787234042)" stroke="rgb(44.234042553191486,107.93617021276596,151.63829787234042)" stroke-width="1" />
<path d="M 403.50 321.50 C 378.35 340.06, 361.82 368.05, 339.50 388.50 C 365.91 373.31, 388.78 347.32, 403.50 322.50 Z" fill="rgb(216.23191094619665,233.71799628942486,241.7903525046382)" stroke="rgb(216.23191094619665,233.71799628942486,241.7903525046382)" stroke-width="1" />
<path d="M 632.50 719.50 C 617.01 723.13, 600.98 725.44, 586.50 731.50 C 576.86 734.47, 590.21 740.53, 584.50 744.50 C 599.79 740.19, 631.88 725.65, 633.50 719.50 Z" fill="rgb(115.40968342644321,176.52141527001862,219.57728119180632)" stroke="rgb(115.40968342644321,176.52141527001862,219.57728119180632)" stroke-width="1" />
<path d="M 659.50 653.50 C 632.23 658.48, 606.61 667.45, 583.50 682.50 C 586.23 686.13, 608.68 676.78, 618.50 672.50 C 630.49 663.34, 655.90 659.76, 660.50 653.50 Z" fill="rgb(206.33928571428572,233.45039682539684,247.58134920634922)" stroke="rgb(206.33928571428572,233.45039682539684,247.58134920634922)" stroke-width="1" />
<path d="M 581.50 320.50 C 603.68 337.23, 637.71 350.07, 662.50 351.50 C 633.99 343.33, 610.73 325.93, 582.50 320.50 Z" fill="rgb(209.18637274549098,233.84569138276552,244.7735470941884)" stroke="rgb(209.18637274549098,233.84569138276552,244.7735470941884)" stroke-width="1" />
<path d="M 457.50 319.50 C 384.65 383.63, 413.21 390.74, 457.50 319.50 Z" fill="rgb(27.74468085106383,94.36170212765957,140.59574468085106)" stroke="rgb(27.74468085106383,94.36170212765957,140.59574468085106)" stroke-width="1" />
<path d="M 399.50 624.50 C 420.43 644.39, 435.34 669.12, 458.50 685.50 C 445.40 662.37, 424.17 638.65, 400.50 624.50 Z" fill="rgb(209.19624217118997,232.62839248434238,245.1795407098121)" stroke="rgb(209.19624217118997,232.62839248434238,245.1795407098121)" stroke-width="1" />
<path d="M 457.50 319.50 C 434.34 337.75, 419.84 364.09, 398.50 381.50 C 423.53 368.00, 445.63 343.41, 458.50 319.50 Z" fill="rgb(211.72594142259413,230.8723849372385,239.7154811715481)" stroke="rgb(211.72594142259413,230.8723849372385,239.7154811715481)" stroke-width="1" />
<path d="M 659.50 326.50 C 674.89 344.64, 718.70 362.74, 727.50 360.50 C 703.48 351.29, 684.37 333.66, 660.50 327.50 Z" fill="rgb(204.24113475177305,230.65484633569739,242.87943262411346)" stroke="rgb(204.24113475177305,230.65484633569739,242.87943262411346)" stroke-width="1" />
<path d="M 727.50 643.50 C 708.37 648.76, 690.14 656.22, 673.50 667.50 C 642.74 688.07, 689.20 667.64, 699.50 659.50 C 708.04 653.33, 730.07 646.74, 728.50 643.50 Z" fill="rgb(207.01932367149757,234.2536231884058,248.2584541062802)" stroke="rgb(207.01932367149757,234.2536231884058,248.2584541062802)" stroke-width="1" />
<path d="M 466.50 275.50 C 459.09 278.83, 451.14 280.87, 445.50 288.50 C 419.64 322.35, 456.87 290.31, 467.50 275.50 Z" fill="rgb(71.53584905660378,147.7245283018868,198.14716981132077)" stroke="rgb(71.53584905660378,147.7245283018868,198.14716981132077)" stroke-width="1" />
<path d="M 534.50 276.50 C 545.68 287.59, 560.43 296.19, 572.50 307.50 C 564.53 294.43, 552.68 277.22, 535.50 276.50 Z" fill="rgb(72.5984555984556,144.96138996138995,194.05405405405406)" stroke="rgb(72.5984555984556,144.96138996138995,194.05405405405406)" stroke-width="1" />
<path d="M 572.50 697.50 C 560.09 706.65, 548.19 717.02, 535.50 725.50 C 551.31 728.75, 563.53 709.77, 573.50 697.50 Z" fill="rgb(131.45381526104418,184.02008032128515,220.5582329317269)" stroke="rgb(131.45381526104418,184.02008032128515,220.5582329317269)" stroke-width="1" />
<path d="M 381.50 275.50 C 368.49 283.49, 356.01 292.73, 342.50 299.50 C 357.69 297.34, 374.81 290.72, 381.50 276.50 Z" fill="rgb(72.51502145922747,147.18884120171674,196.60085836909872)" stroke="rgb(72.51502145922747,147.18884120171674,196.60085836909872)" stroke-width="1" />
<path d="M 75.50 724.50 C 42.74 732.99, 89.62 732.96, 75.50 724.50 Z" fill="rgb(163.15068493150685,215.986301369863,254.67123287671234)" stroke="rgb(163.15068493150685,215.986301369863,254.67123287671234)" stroke-width="1" />
</svg>