<svg xmlns="http://www.w3.org/2000/svg" width="1000" height="750" viewbox="0 0 1000 750">
<path d="M 0.50 0.50 C 0.50 146.17, 0.50 291.83, 0.50 437.50 C -47.04 685.37, 24.18 813.48, 287.50 749.50 C 390.17 749.50, 491.83 749.50, 593.50 749.50 C 696.50 749.50, 798.50 749.50, 900.50 749.50 C 992.75 772.08, 1015.24 725.91, 999.50 641.50 C 999.50 491.83, 999.50 343.17, 999.50 194.50 C 999.50 129.17, 999.50 64.83, 999.50 0.50 C 877.50 0.50, 756.50 0.50, 635.50 0.50 C 529.17 0.50, 423.83 0.50, 318.50 0.50 C 212.17 0.50, 106.83 0.50, 1.50 0.50 Z" fill="rgb(114.89776587522692,176.26547081977822,220.8432877401729)" stroke="rgb(114.89776587522692,176.26547081977822,220.8432877401729)" stroke-width="1" />
<path d="M 642.50 0.50 C 473.14 7.29, 283.26 1.65, 105.50 3.50 C -121.45 -6.20, 99.20 131.86, 109.50 209.50 C -13.64 256.65, 164.98 323.52, 37.50 384.50 C 172.05 364.99, 343.25 296.96, 474.50 216.50 C 520.21 215.40, 504.30 206.95, 467.50 209.50 C 375.74 207.34, 243.44 220.78, 384.50 177.50 C 380.10 73.50, 532.13 125.43, 517.50 163.50 C 519.19 116.43, 535.90 75.14, 572.50 44.50 C 882.20 253.85, 1215.35 320.78, 643.50 0.50 Z" fill="rgb(162.7950594693504,196.63037511436414,232.5370539798719)" stroke="rgb(162.7950594693504,196.63037511436414,232.5370539798719)" stroke-width="1" />
<path d="M 642.50 0.50 C 565.67 6.33, 482.22 2.28, 402.50 3.50 C 268.17 4.17, 132.17 2.17, 0.50 4.50 C -14.17 73.12, 20.81 94.26, 53.50 131.50 C 112.50 112.11, 140.79 229.67, 73.50 231.50 C -0.74 277.41, 158.75 298.28, 72.50 344.50 C 66.93 366.43, 38.32 368.22, 39.50 393.50 C 81.82 378.05, 125.22 366.64, 167.50 352.50 C 253.20 330.05, 331.84 292.94, 409.50 253.50 C 439.58 243.57, 460.56 214.10, 493.50 213.50 C 503.73 211.25, 501.64 213.64, 493.50 211.50 C 487.96 208.32, 482.92 211.66, 477.50 210.50 C 438.17 209.50, 399.83 209.50, 361.50 209.50 C 265.11 214.97, 344.42 198.99, 382.50 177.50 C 374.24 100.30, 515.66 88.98, 513.50 168.50 C 521.41 142.89, 523.65 91.02, 552.50 64.50 C 605.72 -4.25, 714.85 -10.04, 774.50 48.50 C 803.57 46.09, 794.98 80.60, 817.50 86.50 C 835.61 60.07, 866.25 48.01, 884.50 86.50 C 1036.38 151.40, 829.88 106.04, 824.50 162.50 C 823.55 206.07, 807.45 242.36, 776.50 272.50 C 679.49 313.44, 780.03 332.02, 835.50 337.50 C 867.68 332.70, 901.15 359.13, 927.50 338.50 C 860.71 245.80, 1044.72 186.42, 999.50 14.50 C 999.50 10.17, 999.50 6.83, 999.50 3.50 C 878.64 3.96, 760.40 3.61, 643.50 0.50 Z" fill="rgb(131.35122408079326,205.0271865134983,254.85117823507068)" stroke="rgb(131.35122408079326,205.0271865134983,254.85117823507068)" stroke-width="1" />
<path d="M 509.50 216.50 C 427.79 232.79, 362.79 288.84, 286.50 316.50 C 206.99 352.09, 114.52 364.09, 40.50 402.50 C 17.50 435.28, 41.10 459.66, 76.50 448.50 C 172.91 398.47, 264.72 475.24, 364.50 449.50 C 439.98 478.41, 506.25 424.78, 583.50 429.50 C 722.71 452.83, 897.57 454.53, 999.50 451.50 C 965.78 428.00, 1005.87 420.79, 999.50 374.50 C 950.20 357.04, 882.20 341.19, 823.50 339.50 C 782.35 334.02, 744.99 321.81, 708.50 307.50 C 635.05 291.42, 583.28 230.71, 510.50 216.50 Z" fill="rgb(29.78708976472351,125.98340326689645,194.12973924771467)" stroke="rgb(29.78708976472351,125.98340326689645,194.12973924771467)" stroke-width="1" />
<path d="M 0.50 422.50 C -58.54 719.24, 325.86 480.11, 501.50 564.50 C 582.02 590.23, 669.45 564.53, 749.50 555.50 C 802.22 531.30, 850.15 568.07, 900.50 562.50 C 1171.17 427.05, 570.16 414.33, 434.50 460.50 C 326.93 452.69, 236.86 448.84, 134.50 432.50 C 87.18 446.64, 39.16 468.20, 1.50 422.50 Z" fill="rgb(89.85210312075984,140.5325644504749,136.50474898236092)" stroke="rgb(89.85210312075984,140.5325644504749,136.50474898236092)" stroke-width="1" />
<path d="M 660.50 10.50 C 271.07 408.08, 1102.67 214.91, 660.50 10.50 Z" fill="rgb(228.24675324675326,145.0194805194805,151.17207792207793)" stroke="rgb(228.24675324675326,145.0194805194805,151.17207792207793)" stroke-width="1" />
<path d="M 661.50 10.50 C 587.19 13.99, 520.30 80.85, 520.50 156.50 C 518.73 198.24, 558.86 173.52, 575.50 184.50 C 608.65 218.83, 547.99 205.37, 530.50 212.50 C 587.82 245.05, 644.34 284.67, 707.50 304.50 C 782.50 291.42, 837.52 208.84, 818.50 133.50 C 773.50 132.50, 729.50 132.50, 685.50 132.50 C 703.70 119.27, 719.64 104.86, 737.50 85.50 C 793.92 36.07, 723.16 9.95, 662.50 10.50 Z" fill="rgb(229.16292896100816,42.86501914021478,53.6977878654426)" stroke="rgb(229.16292896100816,42.86501914021478,53.6977878654426)" stroke-width="1" />
<path d="M 0.50 423.50 C 2.47 449.53, -3.45 483.45, 3.50 504.50 C 87.17 503.50, 169.83 503.50, 252.50 503.50 C 337.44 503.67, 419.18 503.11, 501.50 503.50 C 585.17 503.50, 667.83 503.50, 750.50 503.50 C 834.17 503.50, 916.83 503.50, 999.50 503.50 C 995.08 442.57, 885.17 436.08, 835.50 454.50 C 801.07 470.46, 765.53 450.68, 730.50 449.50 C 656.39 440.34, 575.24 415.08, 503.50 442.50 C 480.46 448.40, 457.97 453.23, 436.50 460.50 C 308.76 466.39, 193.20 412.61, 73.50 450.50 C 45.25 458.73, 22.67 437.55, 1.50 423.50 Z" fill="rgb(54.440858144282245,104.00516119092555,72.10403266186496)" stroke="rgb(54.440858144282245,104.00516119092555,72.10403266186496)" stroke-width="1" />
<path d="M 356.50 504.50 C 238.66 506.83, 119.03 504.83, 0.50 505.50 C 6.22 529.31, -14.36 604.99, 18.50 571.50 C 82.69 527.01, 102.91 581.40, 168.50 570.50 C 287.89 552.44, 420.30 534.23, 539.50 573.50 C 635.37 584.02, 723.54 552.94, 815.50 546.50 C 870.63 577.70, 932.87 554.36, 987.50 539.50 C 1032.62 490.10, 927.19 508.35, 892.50 505.50 C 814.83 505.50, 738.17 505.50, 661.50 505.50 C 583.50 505.50, 506.50 505.50, 429.50 505.50 C 403.50 504.89, 381.19 506.25, 357.50 504.50 Z" fill="rgb(119.19344011556274,162.41676934188723,152.7536219569189)" stroke="rgb(119.19344011556274,162.41676934188723,152.7536219569189)" stroke-width="1" />
<path d="M 272.50 550.50 C 214.10 572.40, 143.86 591.91, 83.50 562.50 C 41.71 541.24, 13.82 579.01, 44.50 609.50 C 126.18 640.68, 212.59 657.04, 291.50 691.50 C 388.65 694.04, 400.34 707.85, 476.50 688.50 C 493.62 685.65, 476.65 666.23, 471.50 658.50 C 441.20 628.87, 424.95 592.34, 415.50 553.50 C 369.15 556.98, 318.08 567.58, 273.50 550.50 Z" fill="rgb(105.03933084178679,163.73562911550098,204.22729429910422)" stroke="rgb(105.03933084178679,163.73562911550098,204.22729429910422)" stroke-width="1" />
<path d="M 996.50 110.50 C 1001.93 145.20, 933.48 101.14, 949.50 131.50 C 902.65 134.74, 869.39 130.76, 822.50 133.50 C 826.30 157.38, 824.43 182.24, 818.50 203.50 C 804.90 250.89, 766.85 290.15, 721.50 306.50 C 752.02 323.11, 788.32 330.79, 823.50 337.50 C 867.42 334.21, 908.99 358.32, 947.50 334.50 C 957.47 319.80, 940.40 313.77, 937.50 301.50 C 882.24 302.36, 898.42 207.49, 948.50 222.50 C 972.38 190.44, 1012.60 164.37, 997.50 111.50 Z" fill="rgb(131.71053845444203,205.068237030659,254.7320028291153)" stroke="rgb(131.71053845444203,205.068237030659,254.7320028291153)" stroke-width="1" />
<path d="M 431.50 285.50 C 367.67 340.84, 351.13 298.96, 288.50 332.50 C 254.05 353.32, 257.14 395.32, 229.50 419.50 C 195.00 455.29, 256.33 432.48, 257.50 448.50 C 290.33 464.77, 333.31 434.36, 370.50 450.50 C 424.41 476.56, 421.76 416.56, 440.50 384.50 C 455.32 361.80, 480.87 345.03, 484.50 318.50 C 437.43 327.52, 391.91 336.27, 432.50 285.50 Z" fill="rgb(21.594188591785056,97.90145499806859,151.14489892270055)" stroke="rgb(21.594188591785056,97.90145499806859,151.14489892270055)" stroke-width="1" />
<path d="M 511.50 216.50 C 452.74 223.38, 374.99 278.10, 307.50 307.50 C 239.93 363.59, 348.86 294.84, 335.50 322.50 C 302.83 347.38, 369.64 316.30, 383.50 308.50 C 388.84 327.91, 448.12 266.10, 413.50 324.50 C 446.60 322.77, 499.43 314.93, 540.50 309.50 C 584.24 308.15, 622.14 331.71, 660.50 321.50 C 684.99 340.54, 726.10 328.03, 743.50 326.50 C 689.99 294.90, 629.92 282.57, 580.50 244.50 C 543.21 214.21, 503.37 228.33, 512.50 216.50 Z" fill="rgb(226.65253692999357,234.9882252194391,240.14172554056947)" stroke="rgb(226.65253692999357,234.9882252194391,240.14172554056947)" stroke-width="1" />
<path d="M 38.50 609.50 C 144.02 664.07, 8.88 755.79, 100.50 747.50 C 167.36 733.86, 457.06 777.45, 350.50 720.50 C 254.58 667.73, 141.63 649.84, 39.50 609.50 Z" fill="rgb(159.78021978021977,213.8489010989011,252.61813186813185)" stroke="rgb(159.78021978021977,213.8489010989011,252.61813186813185)" stroke-width="1" />
<path d="M 40.50 609.50 C 34.40 648.42, 148.89 691.49, 67.50 724.50 C 49.48 719.34, 52.68 734.37, 47.50 744.50 C 151.54 750.16, 261.71 746.17, 367.50 747.50 C 434.19 752.04, 354.72 725.67, 334.50 712.50 C 241.56 665.15, 136.53 649.39, 41.50 609.50 Z" fill="rgb(163.0561315543469,216.03118891816095,254.862709271692)" stroke="rgb(163.0561315543469,216.03118891816095,254.862709271692)" stroke-width="1" />
<path d="M 0.50 74.50 C -62.62 326.23, 102.45 531.50, 46.50 257.50 C 108.14 238.56, 142.62 124.94, 48.50 136.50 C 56.65 90.64, -6.82 110.68, 1.50 74.50 Z" fill="rgb(149.13541666666666,211.20963541666666,252.77604166666666)" stroke="rgb(149.13541666666666,211.20963541666666,252.77604166666666)" stroke-width="1" />
<path d="M 0.50 72.50 C 0.50 187.17, 0.50 301.83, 0.50 416.50 C 48.56 459.29, 24.71 353.57, 68.50 349.50 C 87.40 334.35, 117.20 295.92, 72.50 283.50 C 29.95 283.97, 55.14 246.48, 66.50 227.50 C 187.39 173.50, 14.68 119.44, 1.50 73.50 Z" fill="rgb(245.44546402502607,251.07132429614182,254.48529718456726)" stroke="rgb(245.44546402502607,251.07132429614182,254.48529718456726)" stroke-width="1" />
<path d="M 988.50 639.50 C 940.65 651.13, 892.56 662.20, 842.50 668.50 C 518.32 684.76, 1114.13 867.98, 989.50 640.50 Z" fill="rgb(184.38785046728972,224.7196261682243,252.61915887850466)" stroke="rgb(184.38785046728972,224.7196261682243,252.61915887850466)" stroke-width="1" />
<path d="M 282.50 670.50 C 314.38 713.09, 370.82 725.21, 415.50 748.50 C 483.08 742.11, 561.09 763.20, 618.50 732.50 C 651.83 713.77, 697.49 706.42, 732.50 684.50 C 764.02 675.37, 673.31 665.69, 658.50 685.50 C 626.32 673.03, 584.65 695.92, 545.50 695.50 C 502.88 687.12, 455.91 691.64, 417.50 675.50 C 446.39 745.08, 340.50 659.23, 332.50 681.50 C 359.70 706.12, 296.56 677.96, 283.50 671.50 Z" fill="rgb(211.8082589956901,230.0606394707828,242.77638568708028)" stroke="rgb(211.8082589956901,230.0606394707828,242.77638568708028)" stroke-width="1" />
<path d="M 915.50 656.50 C 848.75 669.31, 777.26 666.64, 717.50 696.50 C 779.04 793.45, 1004.51 737.02, 916.50 657.50 Z" fill="rgb(163.667107001321,209.02774108322325,245.4676354029062)" stroke="rgb(163.667107001321,209.02774108322325,245.4676354029062)" stroke-width="1" />
<path d="M 446.50 115.50 C 414.66 115.53, 382.61 139.27, 386.50 174.50 C 361.06 178.87, 349.08 210.55, 312.50 205.50 C 370.59 208.60, 468.04 207.72, 548.50 206.50 C 625.65 204.45, 539.91 176.76, 512.50 176.50 C 516.13 138.44, 484.54 109.33, 447.50 115.50 Z" fill="rgb(244.32514638906963,245.68705270006507,249.29033832140533)" stroke="rgb(244.32514638906963,245.68705270006507,249.29033832140533)" stroke-width="1" />
<path d="M 915.50 657.50 C 860.33 670.44, 786.76 669.44, 744.50 688.50 C 709.48 698.04, 762.97 713.50, 773.50 725.50 C 800.63 765.41, 858.50 740.46, 900.50 747.50 C 895.64 704.07, 994.44 684.38, 916.50 658.50 Z" fill="rgb(163.3550897742159,216.15866533097017,254.9066810510904)" stroke="rgb(163.3550897742159,216.15866533097017,254.9066810510904)" stroke-width="1" />
<path d="M 773.50 50.50 C 727.14 64.06, 736.44 120.32, 685.50 128.50 C 768.70 131.64, 859.09 129.96, 946.50 130.50 C 937.71 119.71, 927.06 97.94, 906.50 96.50 C 875.59 99.23, 869.99 47.22, 839.50 64.50 C 823.82 122.54, 799.77 54.84, 774.50 50.50 Z" fill="rgb(247.93929173693087,248.2672849915683,250.59176503653737)" stroke="rgb(247.93929173693087,248.2672849915683,250.59176503653737)" stroke-width="1" />
<path d="M 998.50 154.50 C 998.39 194.70, 960.29 191.15, 951.50 224.50 C 894.06 208.51, 890.58 302.92, 939.50 303.50 C 987.46 335.17, 884.04 347.35, 943.50 353.50 C 1045.25 398.74, 981.86 218.05, 999.50 154.50 Z" fill="rgb(246.71089365376312,251.65865592171536,254.56008058713485)" stroke="rgb(246.71089365376312,251.65865592171536,254.56008058713485)" stroke-width="1" />
<path d="M 20.50 574.50 C -105.20 739.65, 184.37 788.31, 34.50 623.50 C 36.10 605.17, 38.58 584.11, 21.50 574.50 Z" fill="rgb(211.3465909090909,236.85227272727272,253.51704545454547)" stroke="rgb(211.3465909090909,236.85227272727272,253.51704545454547)" stroke-width="1" />
<path d="M 283.50 672.50 C 306.00 703.26, 342.43 712.33, 372.50 729.50 C 408.62 755.66, 457.95 747.52, 503.50 748.50 C 510.24 728.41, 503.42 710.06, 491.50 691.50 C 462.63 690.82, 438.07 683.14, 413.50 675.50 C 452.51 744.03, 391.26 685.97, 366.50 688.50 C 307.86 656.33, 363.90 717.14, 284.50 672.50 Z" fill="rgb(219.19285637670276,237.11948943473132,249.09353212485252)" stroke="rgb(219.19285637670276,237.11948943473132,249.09353212485252)" stroke-width="1" />
<path d="M 780.50 396.50 C 601.58 482.46, 1216.96 434.24, 917.50 444.50 C 871.17 429.30, 831.95 399.33, 781.50 396.50 Z" fill="rgb(14.310204081632653,80.26530612244898,118.91020408163266)" stroke="rgb(14.310204081632653,80.26530612244898,118.91020408163266)" stroke-width="1" />
<path d="M 980.50 639.50 C 929.53 653.43, 911.80 653.47, 953.50 684.50 C 943.61 715.87, 893.78 704.87, 904.50 745.50 C 994.54 790.79, 1032.22 684.44, 981.50 639.50 Z" fill="rgb(227.27678100263853,243.26068601583114,254.45620052770448)" stroke="rgb(227.27678100263853,243.26068601583114,254.45620052770448)" stroke-width="1" />
<path d="M 0.50 130.50 C 0.50 222.50, 0.50 314.50, 0.50 406.50 C 9.49 392.52, 10.42 351.15, 25.50 331.50 C 69.77 301.28, -2.65 284.16, 18.50 255.50 C 20.74 240.18, 28.24 235.50, 40.50 230.50 C 63.35 176.97, 17.43 162.24, 1.50 130.50 Z" fill="rgb(210.8342768185678,236.33257854514576,254.8001698273422)" stroke="rgb(210.8342768185678,236.33257854514576,254.8001698273422)" stroke-width="1" />
<path d="M 20.50 572.50 C -15.86 595.14, 17.06 648.62, 29.50 675.50 C 66.64 705.41, 3.21 719.17, 17.50 745.50 C 38.81 755.57, 52.11 743.88, 51.50 723.50 C 84.48 732.76, 118.22 685.00, 80.50 670.50 C 62.75 671.26, 74.26 644.79, 56.50 645.50 C 25.99 635.45, 46.83 592.86, 21.50 573.50 Z" fill="rgb(232.21117747440272,245.42932309442548,254.79180887372013)" stroke="rgb(232.21117747440272,245.42932309442548,254.79180887372013)" stroke-width="1" />
<path d="M 442.50 142.50 C 398.05 145.21, 407.35 197.57, 371.50 203.50 C 374.51 208.78, 439.69 205.30, 462.50 207.50 C 484.16 204.78, 570.44 214.29, 527.50 189.50 C 482.47 211.72, 496.63 127.55, 443.50 142.50 Z" fill="rgb(210.47535596933187,236.27397903301517,254.84712877483963)" stroke="rgb(210.47535596933187,236.27397903301517,254.84712877483963)" stroke-width="1" />
<path d="M 711.50 697.50 C 674.32 710.99, 637.64 725.67, 603.50 746.50 C 672.09 752.10, 874.96 759.07, 712.50 698.50 Z" fill="rgb(227.2799352750809,110.8284789644013,120.66181229773463)" stroke="rgb(227.2799352750809,110.8284789644013,120.66181229773463)" stroke-width="1" />
<path d="M 779.50 396.50 C 661.74 405.19, 791.74 473.00, 845.50 440.50 C 959.57 457.67, 830.40 398.38, 780.50 396.50 Z" fill="rgb(10.329077504046035,67.56518611760475,106.28052508541629)" stroke="rgb(10.329077504046035,67.56518611760475,106.28052508541629)" stroke-width="1" />
<path d="M 43.50 560.50 C 102.24 604.78, 162.56 651.31, 233.50 668.50 C 298.10 698.11, 215.23 628.83, 195.50 613.50 C 234.34 654.77, 105.31 558.29, 151.50 604.50 C 116.72 586.74, 81.01 572.67, 44.50 560.50 Z" fill="rgb(102.18709677419355,159.0195340501792,198.0605734767025)" stroke="rgb(102.18709677419355,159.0195340501792,198.0605734767025)" stroke-width="1" />
<path d="M 790.50 557.50 C 595.43 658.87, 1095.34 550.97, 790.50 557.50 Z" fill="rgb(98.89516129032258,145.19354838709677,171.33064516129033)" stroke="rgb(98.89516129032258,145.19354838709677,171.33064516129033)" stroke-width="1" />
<path d="M 261.50 325.50 C 224.67 339.45, 188.13 354.07, 151.50 368.50 C 42.79 435.78, 33.74 466.42, 152.50 398.50 C 113.94 442.15, 173.31 393.59, 205.50 376.50 C 171.18 414.67, 258.94 343.16, 262.50 325.50 Z" fill="rgb(19.016475379489076,97.49740836727138,152.438911514254)" stroke="rgb(19.016475379489076,97.49740836727138,152.438911514254)" stroke-width="1" />
<path d="M 796.50 557.50 C 579.82 649.06, 1070.34 567.48, 796.50 557.50 Z" fill="rgb(99.42708333333333,147.92708333333334,177.51041666666666)" stroke="rgb(99.42708333333333,147.92708333333334,177.51041666666666)" stroke-width="1" />
<path d="M 784.50 558.50 C 678.13 576.72, 763.54 630.39, 827.50 599.50 C 939.48 567.47, 860.08 562.41, 785.50 558.50 Z" fill="rgb(97.04085528827797,140.8413516609393,170.4557082856052)" stroke="rgb(97.04085528827797,140.8413516609393,170.4557082856052)" stroke-width="1" />
<path d="M 968.50 577.50 C 950.29 590.96, 906.76 604.93, 924.50 581.50 C 883.04 636.66, 821.72 644.65, 764.50 660.50 C 826.51 651.80, 896.91 665.35, 947.50 625.50 C 1044.64 573.18, 896.47 643.28, 969.50 577.50 Z" fill="rgb(104.81560283687944,168.04255319148936,212.3049645390071)" stroke="rgb(104.81560283687944,168.04255319148936,212.3049645390071)" stroke-width="1" />
<path d="M 711.50 698.50 C 681.21 709.08, 571.67 752.84, 660.50 747.50 C 703.50 747.50, 745.50 747.50, 787.50 747.50 C 769.66 722.67, 741.29 706.12, 712.50 698.50 Z" fill="rgb(232.30956993413406,104.2752808988764,113.52227818674932)" stroke="rgb(232.30956993413406,104.2752808988764,113.52227818674932)" stroke-width="1" />
<path d="M 761.50 344.50 C 804.99 361.93, 857.93 356.54, 892.50 395.50 C 933.31 442.70, 908.60 387.08, 972.50 429.50 C 967.39 416.45, 920.09 380.85, 952.50 393.50 C 1016.06 431.88, 972.19 381.37, 932.50 373.50 C 883.89 337.62, 819.18 356.47, 762.50 344.50 Z" fill="rgb(19.140145705521473,98.04984662576688,153.29677914110428)" stroke="rgb(19.140145705521473,98.04984662576688,153.29677914110428)" stroke-width="1" />
<path d="M 998.50 200.50 C 991.68 237.27, 919.96 269.33, 971.50 307.50 C 986.30 337.33, 934.18 374.31, 998.50 363.50 C 999.50 309.17, 999.50 254.83, 999.50 200.50 Z" fill="rgb(211.27182899778182,236.58076225045372,254.84049203468442)" stroke="rgb(211.27182899778182,236.58076225045372,254.84049203468442)" stroke-width="1" />
<path d="M 971.50 577.50 C 911.58 618.16, 931.80 563.98, 892.50 611.50 C 861.76 643.22, 819.78 644.39, 781.50 654.50 C 780.08 656.07, 887.65 663.41, 919.50 639.50 C 940.56 625.52, 988.94 616.50, 987.50 595.50 C 941.76 624.58, 931.60 615.63, 972.50 577.50 Z" fill="rgb(102.11547666533706,158.91643398484243,197.90207419226167)" stroke="rgb(102.11547666533706,158.91643398484243,197.90207419226167)" stroke-width="1" />
<path d="M 783.50 90.50 C 752.18 94.29, 750.82 124.20, 719.50 128.50 C 786.09 130.65, 854.13 130.56, 925.50 130.50 C 903.80 113.88, 868.84 104.84, 841.50 96.50 C 824.84 130.35, 805.51 90.59, 784.50 90.50 Z" fill="rgb(211.72131147540983,236.37131147540984,254.45368852459018)" stroke="rgb(211.72131147540983,236.37131147540984,254.45368852459018)" stroke-width="1" />
<path d="M 62.50 131.50 C 31.51 147.21, 56.41 199.94, 63.50 223.50 C 130.99 242.92, 120.79 126.48, 63.50 131.50 Z" fill="rgb(253.4808093450146,254.5237797246558,254.88464747601168)" stroke="rgb(253.4808093450146,254.5237797246558,254.88464747601168)" stroke-width="1" />
<path d="M 983.50 639.50 C 928.11 641.58, 1011.43 693.05, 955.50 709.50 C 935.17 765.54, 1025.49 760.51, 999.50 703.50 C 993.90 682.07, 1013.19 638.64, 984.50 639.50 Z" fill="rgb(207.57253484770263,236.13164687661333,254.90036138358286)" stroke="rgb(207.57253484770263,236.13164687661333,254.90036138358286)" stroke-width="1" />
<path d="M 668.50 412.50 C 564.17 440.72, 738.56 441.21, 778.50 455.50 C 801.34 471.21, 888.14 437.23, 832.50 443.50 C 771.95 469.43, 729.36 406.42, 669.50 412.50 Z" fill="rgb(19.877917896431445,96.41990877381272,147.84813522940703)" stroke="rgb(19.877917896431445,96.41990877381272,147.84813522940703)" stroke-width="1" />
<path d="M 172.50 354.50 C 128.67 368.44, 83.77 379.81, 41.50 397.50 C 41.39 415.16, 9.51 442.89, 41.50 446.50 C 81.71 417.61, 150.22 366.61, 173.50 354.50 Z" fill="rgb(29.254511677282377,126.20886411889596,194.97213375796179)" stroke="rgb(29.254511677282377,126.20886411889596,194.97213375796179)" stroke-width="1" />
<path d="M 470.50 536.50 C 459.59 538.28, 409.36 543.41, 433.50 546.50 C 494.99 564.54, 585.11 591.94, 637.50 567.50 C 576.77 568.58, 528.06 543.07, 471.50 536.50 Z" fill="rgb(125.66347777152504,173.75998874507596,160.9411930219471)" stroke="rgb(125.66347777152504,173.75998874507596,160.9411930219471)" stroke-width="1" />
<path d="M 795.50 549.50 C 739.47 559.71, 682.61 567.91, 625.50 575.50 C 639.29 589.02, 666.79 596.71, 690.50 593.50 C 740.22 587.48, 784.54 537.01, 836.50 564.50 C 875.35 566.01, 813.27 546.56, 796.50 549.50 Z" fill="rgb(102.23025397711415,157.80937761652245,195.5274909293888)" stroke="rgb(102.23025397711415,157.80937761652245,195.5274909293888)" stroke-width="1" />
<path d="M 0.50 596.50 C 2.16 634.49, -7.32 785.62, 15.50 727.50 C 60.87 708.18, 23.95 665.76, 8.50 639.50 C 8.48 624.97, 10.06 609.20, 1.50 597.50 Z" fill="rgb(207.7004132231405,236.1095041322314,254.87431129476585)" stroke="rgb(207.7004132231405,236.1095041322314,254.87431129476585)" stroke-width="1" />
<path d="M 148.50 430.50 C 93.41 438.80, 14.11 461.85, 114.50 463.50 C 160.18 445.95, 247.19 434.71, 149.50 430.50 Z" fill="rgb(61.826992390869044,123.26231477773328,85.25030036043252)" stroke="rgb(61.826992390869044,123.26231477773328,85.25030036043252)" stroke-width="1" />
<path d="M 105.50 544.50 C 12.25 548.85, 102.81 568.65, 147.50 576.50 C 250.80 574.54, 152.26 556.48, 106.50 544.50 Z" fill="rgb(125.3264205723766,173.41186229780175,161.1501451679801)" stroke="rgb(125.3264205723766,173.41186229780175,161.1501451679801)" stroke-width="1" />
<path d="M 0.50 97.50 C -5.08 132.28, 26.20 188.31, 46.50 136.50 C 52.22 109.86, 26.50 92.24, 1.50 97.50 Z" fill="rgb(251.74430040232454,253.81895395619134,254.73088958426465)" stroke="rgb(251.74430040232454,253.81895395619134,254.73088958426465)" stroke-width="1" />
<path d="M 998.50 411.50 C 975.51 434.58, 948.44 447.85, 914.50 444.50 C 950.09 457.66, 1023.73 494.12, 999.50 411.50 Z" fill="rgb(10.726358148893361,67.21177062374245,103.8576458752515)" stroke="rgb(10.726358148893361,67.21177062374245,103.8576458752515)" stroke-width="1" />
<path d="M 871.50 442.50 C 848.73 448.58, 827.69 458.85, 803.50 461.50 C 830.91 490.46, 988.55 444.18, 872.50 442.50 Z" fill="rgb(61.995546759030184,122.54131618010885,84.25333993072736)" stroke="rgb(61.995546759030184,122.54131618010885,84.25333993072736)" stroke-width="1" />
<path d="M 998.50 537.50 C 972.33 548.31, 942.73 550.83, 916.50 561.50 C 970.13 556.09, 1015.19 628.28, 999.50 537.50 Z" fill="rgb(97.2,141.43076923076924,166.69230769230768)" stroke="rgb(97.2,141.43076923076924,166.69230769230768)" stroke-width="1" />
<path d="M 997.50 538.50 C 971.64 548.59, 942.90 551.72, 916.50 560.50 C 965.33 557.33, 1017.51 625.09, 998.50 538.50 Z" fill="rgb(97.2060669456067,141.26516736401675,170.82269874476987)" stroke="rgb(97.2060669456067,141.26516736401675,170.82269874476987)" stroke-width="1" />
<path d="M 850.50 535.50 C 777.39 541.35, 836.01 555.05, 875.50 565.50 C 953.79 562.49, 895.16 541.99, 851.50 535.50 Z" fill="rgb(125.29514963880288,173.01289989680083,160.62074303405572)" stroke="rgb(125.29514963880288,173.01289989680083,160.62074303405572)" stroke-width="1" />
<path d="M 326.50 448.50 C 261.60 445.29, 290.40 485.39, 337.50 466.50 C 416.13 461.13, 394.09 450.70, 327.50 448.50 Z" fill="rgb(60.69120287253142,121.81627767803711,85.9311789347696)" stroke="rgb(60.69120287253142,121.81627767803711,85.9311789347696)" stroke-width="1" />
<path d="M 310.50 535.50 C 247.31 547.36, 316.10 562.66, 349.50 558.50 C 450.69 545.05, 361.62 551.89, 311.50 535.50 Z" fill="rgb(125.32090464547677,173.0336185819071,161.0372860635697)" stroke="rgb(125.32090464547677,173.0336185819071,161.0372860635697)" stroke-width="1" />
<path d="M 260.50 567.50 C 293.07 596.92, 315.80 635.14, 351.50 661.50 C 331.55 625.64, 298.33 588.37, 261.50 567.50 Z" fill="rgb(106.7060465116279,172.1813953488372,218.14697674418605)" stroke="rgb(106.7060465116279,172.1813953488372,218.14697674418605)" stroke-width="1" />
<path d="M 352.50 343.50 C 315.48 370.44, 293.91 410.51, 259.50 440.50 C 298.51 419.45, 330.42 380.62, 352.50 344.50 Z" fill="rgb(28.03422756706753,122.88991674375578,189.68825161887142)" stroke="rgb(28.03422756706753,122.88991674375578,189.68825161887142)" stroke-width="1" />
<path d="M 563.50 179.50 C 498.90 214.95, 632.29 216.02, 563.50 179.50 Z" fill="rgb(251.9661898569571,238.61898569570872,239.851755526658)" stroke="rgb(251.9661898569571,238.61898569570872,239.851755526658)" stroke-width="1" />
<path d="M 516.50 213.50 C 409.07 223.64, 596.63 236.22, 516.50 213.50 Z" fill="rgb(40.64727272727273,134.58,200.62363636363636)" stroke="rgb(40.64727272727273,134.58,200.62363636363636)" stroke-width="1" />
<path d="M 341.50 618.50 C 397.79 695.67, 417.49 674.23, 341.50 618.50 Z" fill="rgb(201.2845188284519,226.2112970711297,240.60251046025104)" stroke="rgb(201.2845188284519,226.2112970711297,240.60251046025104)" stroke-width="1" />
<path d="M 581.50 256.50 C 611.64 302.01, 664.52 279.50, 581.50 256.50 Z" fill="rgb(73.97286821705427,149.37403100775194,201.98643410852713)" stroke="rgb(73.97286821705427,149.37403100775194,201.98643410852713)" stroke-width="1" />
<path d="M 402.50 321.50 C 324.02 391.21, 355.54 396.13, 402.50 321.50 Z" fill="rgb(88.36842105263158,139.26315789473685,173.52631578947367)" stroke="rgb(88.36842105263158,139.26315789473685,173.52631578947367)" stroke-width="1" />
<path d="M 403.50 321.50 C 327.82 386.09, 349.53 401.74, 403.50 321.50 Z" fill="rgb(212.06304347826088,229.58913043478262,238.27608695652174)" stroke="rgb(212.06304347826088,229.58913043478262,238.27608695652174)" stroke-width="1" />
<path d="M 632.50 719.50 C 555.22 731.56, 604.19 753.99, 632.50 719.50 Z" fill="rgb(116.9250645994832,177.92248062015503,221.04134366925064)" stroke="rgb(116.9250645994832,177.92248062015503,221.04134366925064)" stroke-width="1" />
<path d="M 659.50 653.50 C 562.36 677.72, 595.39 691.15, 659.50 653.50 Z" fill="rgb(206.12433862433863,233.14814814814815,247.32010582010582)" stroke="rgb(206.12433862433863,233.14814814814815,247.32010582010582)" stroke-width="1" />
<path d="M 581.50 320.50 C 660.48 367.12, 671.80 344.74, 581.50 320.50 Z" fill="rgb(211.28780487804877,234.02439024390245,244.41951219512194)" stroke="rgb(211.28780487804877,234.02439024390245,244.41951219512194)" stroke-width="1" />
<path d="M 457.50 319.50 C 384.65 383.63, 413.21 390.74, 457.50 319.50 Z" fill="rgb(128.07692307692307,170.26923076923077,196.30769230769232)" stroke="rgb(128.07692307692307,170.26923076923077,196.30769230769232)" stroke-width="1" />
<path d="M 399.50 624.50 C 456.61 698.38, 470.83 676.55, 399.50 624.50 Z" fill="rgb(199.24759615384616,224.90384615384616,239.6346153846154)" stroke="rgb(199.24759615384616,224.90384615384616,239.6346153846154)" stroke-width="1" />
<path d="M 457.50 319.50 C 385.88 383.01, 411.34 391.63, 457.50 319.50 Z" fill="rgb(203.52261306532662,223.28391959798995,233.63819095477388)" stroke="rgb(203.52261306532662,223.28391959798995,233.63819095477388)" stroke-width="1" />
<path d="M 659.50 326.50 C 728.13 377.54, 738.86 356.43, 659.50 326.50 Z" fill="rgb(198.4585635359116,225.84254143646407,239.80939226519337)" stroke="rgb(198.4585635359116,225.84254143646407,239.80939226519337)" stroke-width="1" />
<path d="M 727.50 643.50 C 639.99 674.54, 676.43 680.93, 727.50 643.50 Z" fill="rgb(205.33544303797467,232.66772151898735,247.14556962025316)" stroke="rgb(205.33544303797467,232.66772151898735,247.14556962025316)" stroke-width="1" />
<path d="M 466.50 275.50 C 422.94 297.50, 439.43 316.88, 466.50 275.50 Z" fill="rgb(70.61032863849765,147.95774647887325,199.10798122065728)" stroke="rgb(70.61032863849765,147.95774647887325,199.10798122065728)" stroke-width="1" />
<path d="M 534.50 276.50 C 571.69 317.05, 582.01 295.49, 534.50 276.50 Z" fill="rgb(88.09865470852019,155.47533632286996,201.695067264574)" stroke="rgb(88.09865470852019,155.47533632286996,201.695067264574)" stroke-width="1" />
<path d="M 572.50 697.50 C 525.25 725.81, 544.43 737.29, 572.50 697.50 Z" fill="rgb(136.42131979695432,187.80710659898477,223.53807106598984)" stroke="rgb(136.42131979695432,187.80710659898477,223.53807106598984)" stroke-width="1" />
<path d="M 381.50 275.50 C 334.64 297.07, 350.41 311.63, 381.50 275.50 Z" fill="rgb(98.72727272727273,164.57219251336898,207.16042780748663)" stroke="rgb(98.72727272727273,164.57219251336898,207.16042780748663)" stroke-width="1" />
<path d="M 75.50 724.50 C 42.74 732.99, 89.62 732.96, 75.50 724.50 Z" fill="rgb(163.15068493150685,215.986301369863,254.67123287671234)" stroke="rgb(163.15068493150685,215.986301369863,254.67123287671234)" stroke-width="1" />
</svg>