<svg xmlns="http://www.w3.org/2000/svg" width="1000" height="750" viewbox="0 0 1000 750">
<path d="M 0.50 0.50 C 0.50 146.17, 0.50 291.83, 0.50 437.50 C 3.82 540.51, -6.15 655.82, 5.50 749.50 C 29.50 749.50, 52.50 749.50, 75.50 749.50 C 99.83 749.50, 123.17 749.50, 146.50 749.50 C 170.50 749.50, 193.50 749.50, 216.50 749.50 C 240.83 749.50, 264.17 749.50, 287.50 749.50 C 313.50 749.50, 338.50 749.50, 363.50 749.50 C 389.83 749.50, 415.17 749.50, 440.50 749.50 C 466.50 749.50, 491.50 749.50, 516.50 749.50 C 542.83 749.50, 568.17 749.50, 593.50 749.50 C 619.50 749.50, 644.50 749.50, 669.50 749.50 C 695.83 749.50, 721.17 749.50, 746.50 749.50 C 772.83 749.50, 798.17 749.50, 823.50 749.50 C 849.83 749.50, 875.17 749.50, 900.50 749.50 C 918.17 749.50, 934.83 749.50, 951.50 749.50 C 967.04 747.04, 991.55 754.55, 999.50 745.50 C 999.50 710.17, 999.50 675.83, 999.50 641.50 C 999.50 491.83, 999.50 343.17, 999.50 194.50 C 999.50 129.17, 999.50 64.83, 999.50 0.50 C 983.83 0.50, 969.17 0.50, 954.50 0.50 C 938.50 0.50, 923.50 0.50, 908.50 0.50 C 892.83 0.50, 878.17 0.50, 863.50 0.50 C 847.50 0.50, 832.50 0.50, 817.50 0.50 C 801.83 0.50, 787.17 0.50, 772.50 0.50 C 756.50 0.50, 741.50 0.50, 726.50 0.50 C 695.50 0.50, 665.50 0.50, 635.50 0.50 C 608.50 0.50, 582.50 0.50, 556.50 0.50 C 529.50 0.50, 503.50 0.50, 477.50 0.50 C 450.50 0.50, 424.50 0.50, 398.50 0.50 C 384.50 0.50, 371.50 0.50, 358.50 0.50 C 344.50 0.50, 331.50 0.50, 318.50 0.50 C 291.50 0.50, 265.50 0.50, 239.50 0.50 C 212.50 0.50, 186.50 0.50, 160.50 0.50 C 133.50 0.50, 107.50 0.50, 81.50 0.50 C 67.50 0.50, 54.50 0.50, 41.50 0.50 C 27.50 0.50, 14.50 0.50, 1.50 0.50 Z" fill="rgb(114.15350169509962,175.9546946101271,221.2174078572853)" stroke="rgb(114.15350169509962,175.9546946101271,221.2174078572853)" stroke-width="1" />
<path d="M 642.50 0.50 C 632.70 5.60, 617.59 0.41, 606.50 3.50 C 442.13 3.50, 271.63 3.50, 105.50 3.50 C 81.17 3.50, 57.83 3.50, 34.50 3.50 C -46.43 11.90, 22.89 138.15, 73.50 129.50 C 96.09 134.35, 107.26 157.89, 110.50 177.50 C 113.57 188.80, 114.69 200.31, 109.50 209.50 C 101.57 226.14, 84.12 227.75, 69.50 229.50 C 65.98 240.94, 57.56 248.94, 50.50 257.50 C 47.50 290.22, 124.10 284.98, 92.50 329.50 C 85.54 336.26, 75.90 336.25, 71.50 343.50 C 66.14 364.51, 46.64 365.55, 37.50 384.50 C 35.12 393.49, 42.21 399.06, 47.50 391.50 C 82.45 379.57, 116.49 367.87, 151.50 358.50 C 207.42 342.32, 261.31 324.66, 312.50 300.50 C 367.57 273.47, 423.46 250.85, 474.50 216.50 C 486.56 214.84, 498.27 214.75, 509.50 213.50 C 498.96 207.44, 482.03 210.27, 467.50 209.50 C 422.21 209.43, 380.69 209.79, 339.50 208.50 C 265.20 214.87, 365.09 192.19, 384.50 177.50 C 380.10 73.50, 532.13 125.43, 517.50 163.50 C 519.19 116.43, 535.90 75.14, 572.50 44.50 C 582.55 35.67, 592.29 29.51, 602.50 24.50 C 670.18 -12.11, 769.88 17.52, 803.50 77.50 C 838.35 81.84, 864.45 40.98, 900.50 95.50 C 922.15 90.71, 966.95 132.83, 934.50 133.50 C 921.43 132.81, 909.44 133.86, 896.50 133.50 C 870.14 134.33, 847.42 131.41, 823.50 134.50 C 836.13 206.24, 792.98 275.02, 730.50 304.50 C 749.75 325.41, 810.13 338.67, 852.50 336.50 C 1015.51 376.66, 862.05 275.62, 932.50 220.50 C 1016.24 203.82, 999.08 90.34, 999.50 7.50 C 885.59 -0.26, 759.12 6.05, 643.50 0.50 Z" fill="rgb(146.79551122194513,206.213216957606,247.71820448877804)" stroke="rgb(146.79551122194513,206.213216957606,247.71820448877804)" stroke-width="1" />
<path d="M 642.50 0.50 C 636.88 4.96, 625.45 1.32, 617.50 2.50 C 600.09 1.84, 584.93 4.21, 568.50 3.50 C 557.17 3.50, 546.83 3.50, 536.50 3.50 C 513.50 3.50, 491.50 3.50, 469.50 3.50 C 446.50 3.50, 424.50 3.50, 402.50 3.50 C 385.83 3.50, 370.17 3.50, 354.50 3.50 C 337.83 3.50, 322.17 3.50, 306.50 3.50 C 289.83 3.50, 274.17 3.50, 258.50 3.50 C 241.83 3.50, 226.17 3.50, 210.50 3.50 C 193.83 3.50, 178.17 3.50, 162.50 3.50 C 145.83 3.50, 130.17 3.50, 114.50 3.50 C 97.83 3.50, 82.17 3.50, 66.50 3.50 C 49.83 3.50, 34.17 3.50, 18.50 3.50 C 12.15 4.15, 4.19 2.19, 0.50 4.50 C 0.50 26.83, 0.50 48.17, 0.50 69.50 C 10.24 75.14, 0.54 91.17, 9.50 94.50 C 25.82 94.02, 40.81 102.11, 46.50 116.50 C 48.93 122.06, 47.12 130.38, 53.50 131.50 C 68.96 126.84, 86.02 128.94, 95.50 142.50 C 107.70 159.54, 113.54 177.80, 113.50 198.50 C 111.58 220.09, 89.80 227.43, 73.50 231.50 C 63.49 235.95, 63.26 248.49, 53.50 254.50 C 45.35 268.27, 56.49 283.12, 71.50 281.50 C 87.94 282.55, 98.39 298.12, 99.50 312.50 C 100.43 329.85, 81.81 336.12, 72.50 344.50 C 71.76 355.87, 60.65 364.21, 52.50 365.50 C 50.08 376.57, 36.61 381.65, 39.50 393.50 C 58.83 387.02, 78.00 381.57, 96.50 374.50 C 109.20 370.12, 121.54 367.25, 133.50 363.50 C 145.70 359.66, 157.10 357.27, 167.50 352.50 C 186.82 347.61, 204.95 342.25, 222.50 335.50 C 231.54 333.73, 238.59 329.57, 246.50 327.50 C 268.06 318.58, 289.31 311.32, 309.50 301.50 C 327.47 294.22, 343.94 285.77, 360.50 277.50 C 377.65 269.20, 393.96 262.27, 409.50 253.50 C 431.37 243.60, 451.09 230.93, 470.50 217.50 C 478.06 214.29, 485.97 214.36, 493.50 213.50 C 503.73 211.25, 501.64 213.64, 493.50 211.50 C 487.96 208.32, 482.92 211.66, 477.50 210.50 C 457.50 209.50, 438.50 209.50, 419.50 209.50 C 399.50 209.50, 380.50 209.50, 361.50 209.50 C 343.54 209.34, 324.84 208.80, 307.50 210.50 C 296.16 202.90, 321.55 203.69, 327.50 201.50 C 339.40 198.96, 357.99 201.84, 357.50 186.50 C 362.63 176.04, 374.87 177.87, 382.50 177.50 C 384.92 158.52, 388.33 140.37, 404.50 127.50 C 422.07 115.83, 442.32 114.04, 463.50 114.50 C 478.99 115.54, 492.59 121.21, 501.50 133.50 C 509.93 144.27, 513.09 155.82, 513.50 168.50 C 517.85 175.59, 517.80 163.32, 517.50 159.50 C 518.97 134.43, 524.09 111.87, 534.50 91.50 C 540.14 81.41, 545.03 72.42, 552.50 64.50 C 567.35 46.04, 585.42 33.08, 603.50 23.50 C 620.18 15.32, 637.36 10.75, 655.50 8.50 C 668.84 8.82, 681.79 7.66, 693.50 9.50 C 710.69 12.44, 726.04 17.40, 740.50 24.50 C 752.51 32.49, 764.80 37.37, 774.50 48.50 C 791.33 46.56, 801.63 61.38, 801.50 75.50 C 807.71 77.71, 812.42 82.57, 817.50 86.50 C 835.40 89.64, 828.53 68.38, 840.50 61.50 C 849.17 55.58, 861.07 56.61, 865.50 65.50 C 867.35 78.01, 884.09 74.30, 884.50 86.50 C 891.52 87.69, 893.82 96.88, 900.50 95.50 C 916.46 92.75, 929.56 101.39, 934.50 114.50 C 968.70 129.84, 927.90 137.74, 908.50 133.50 C 877.32 140.56, 809.62 113.01, 824.50 162.50 C 823.55 206.07, 807.45 242.36, 776.50 272.50 C 760.41 288.78, 739.07 296.69, 724.50 308.50 C 760.09 323.85, 796.21 334.51, 835.50 337.50 C 867.68 332.70, 901.15 359.13, 927.50 338.50 C 950.85 308.43, 859.64 223.90, 968.50 196.50 C 993.52 194.81, 991.54 158.72, 999.50 140.50 C 999.50 132.17, 999.50 124.83, 999.50 117.50 C 999.50 99.83, 999.50 83.17, 999.50 66.50 C 999.50 48.50, 999.50 31.50, 999.50 14.50 C 999.50 10.17, 999.50 6.83, 999.50 3.50 C 985.17 3.50, 971.83 3.50, 958.50 3.50 C 943.83 3.50, 930.17 3.50, 916.50 3.50 C 902.17 3.50, 888.83 3.50, 875.50 3.50 C 860.83 3.50, 847.17 3.50, 833.50 3.50 C 818.83 3.50, 805.17 3.50, 791.50 3.50 C 775.01 4.16, 762.15 2.13, 747.50 2.50 C 732.17 2.50, 717.83 2.50, 703.50 2.50 C 684.83 -0.83, 662.83 1.17, 643.50 0.50 Z" fill="rgb(131.118650250798,204.96070614292228,254.8907107028858)" stroke="rgb(131.118650250798,204.96070614292228,254.8907107028858)" stroke-width="1" />
<path d="M 509.50 216.50 C 466.50 214.59, 437.89 247.45, 401.50 261.50 C 360.85 278.07, 325.83 300.51, 286.50 316.50 C 279.08 318.48, 273.12 320.58, 267.50 323.50 C 193.88 355.70, 108.05 366.08, 40.50 402.50 C 17.50 435.28, 41.10 459.66, 76.50 448.50 C 86.56 441.56, 96.39 437.49, 107.50 436.50 C 126.60 430.85, 145.82 427.93, 166.50 428.50 C 175.28 429.55, 183.07 430.61, 190.50 432.50 C 201.09 436.50, 210.46 441.02, 221.50 441.50 C 241.99 444.85, 259.23 453.63, 278.50 457.50 C 296.80 449.27, 317.75 449.83, 337.50 447.50 C 342.45 447.15, 345.37 449.28, 349.50 448.50 C 355.55 447.91, 359.38 450.26, 364.50 449.50 C 383.45 454.31, 403.54 455.05, 420.50 459.50 C 434.33 460.15, 446.91 453.19, 460.50 452.50 C 483.09 447.60, 502.82 439.20, 524.50 435.50 C 544.24 432.05, 563.53 425.66, 583.50 429.50 C 635.29 430.44, 684.80 440.85, 734.50 447.50 C 820.54 451.52, 945.39 452.76, 999.50 451.50 C 1004.73 429.72, 959.95 438.21, 990.50 419.50 C 1004.82 410.13, 997.81 390.08, 999.50 374.50 C 1000.39 360.84, 979.39 371.32, 971.50 366.50 C 953.44 360.04, 936.48 353.34, 917.50 351.50 C 902.29 348.06, 887.11 346.97, 872.50 344.50 C 856.24 337.14, 840.27 340.81, 823.50 339.50 C 813.58 337.98, 804.53 336.76, 795.50 335.50 C 779.07 330.40, 763.20 327.37, 748.50 321.50 C 733.52 319.19, 722.08 310.77, 708.50 307.50 C 635.05 291.42, 583.28 230.71, 510.50 216.50 Z" fill="rgb(28.905069385443216,125.76244689889549,194.47963749645993)" stroke="rgb(28.905069385443216,125.76244689889549,194.47963749645993)" stroke-width="1" />
<path d="M 0.50 422.50 C 0.50 465.17, 0.50 507.83, 0.50 550.50 C -10.41 618.88, 43.69 532.22, 76.50 557.50 C 127.28 581.41, 184.62 575.94, 236.50 560.50 C 279.49 535.49, 326.28 569.27, 373.50 554.50 C 416.68 539.25, 462.14 551.04, 501.50 564.50 C 582.02 590.23, 669.45 564.53, 749.50 555.50 C 802.22 531.30, 850.15 568.07, 900.50 562.50 C 922.43 557.14, 942.40 550.45, 963.50 546.50 C 1084.31 441.28, 833.51 439.93, 757.50 453.50 C 711.22 445.56, 664.78 440.42, 619.50 432.50 C 552.19 420.67, 494.10 447.03, 434.50 460.50 C 381.94 459.91, 328.47 436.58, 279.50 459.50 C 231.81 448.55, 186.25 424.64, 134.50 432.50 C 110.11 436.15, 88.62 444.38, 67.50 453.50 C 40.28 455.88, 22.25 435.61, 1.50 422.50 Z" fill="rgb(92.08407738095238,140.11160714285714,133.44270833333334)" stroke="rgb(92.08407738095238,140.11160714285714,133.44270833333334)" stroke-width="1" />
<path d="M 660.50 10.50 C 622.69 14.55, 589.11 28.83, 561.50 57.50 C 535.97 85.20, 523.18 116.75, 520.50 152.50 C 612.13 208.81, 529.85 195.05, 564.50 232.50 C 596.92 252.70, 628.43 272.69, 662.50 286.50 C 722.80 333.15, 797.39 267.50, 814.50 207.50 C 819.40 185.25, 831.19 145.07, 812.50 132.50 C 769.83 132.50, 728.17 132.50, 686.50 132.50 C 700.76 120.03, 726.98 100.25, 739.50 83.50 C 736.63 71.39, 743.53 60.86, 753.50 55.50 C 789.02 37.18, 706.64 10.66, 680.50 10.50 C 673.50 10.50, 667.50 10.50, 661.50 10.50 Z" fill="rgb(200.99134199134198,81.6103896103896,96.25108225108225)" stroke="rgb(200.99134199134198,81.6103896103896,96.25108225108225)" stroke-width="1" />
<path d="M 661.50 10.50 C 644.53 12.95, 627.39 15.01, 612.50 22.50 C 593.93 30.85, 577.10 40.99, 562.50 56.50 C 550.53 69.21, 541.58 81.76, 535.50 95.50 C 526.67 115.19, 520.85 134.71, 520.50 156.50 C 517.98 168.84, 524.24 180.08, 535.50 181.50 C 548.35 193.89, 563.68 167.66, 575.50 184.50 C 577.86 188.48, 576.24 195.61, 581.50 195.50 C 595.91 220.86, 540.47 202.58, 530.50 212.50 C 534.07 217.92, 542.41 217.00, 546.50 222.50 C 566.55 232.77, 584.71 244.19, 602.50 256.50 C 615.83 261.23, 626.11 270.92, 638.50 275.50 C 661.59 286.57, 684.07 296.68, 707.50 304.50 C 715.34 306.19, 720.41 302.62, 726.50 301.50 C 740.16 296.24, 751.69 289.24, 762.50 280.50 C 786.76 262.60, 804.28 237.77, 813.50 211.50 C 817.42 198.08, 821.66 186.20, 821.50 172.50 C 822.35 158.34, 823.51 144.64, 818.50 133.50 C 795.83 132.50, 774.17 132.50, 752.50 132.50 C 729.50 132.50, 707.50 132.50, 685.50 132.50 C 684.77 116.60, 713.77 121.80, 717.50 109.50 C 717.84 96.81, 728.32 90.57, 737.50 85.50 C 734.23 66.22, 751.77 53.06, 768.50 49.50 C 765.09 40.11, 755.27 36.36, 748.50 31.50 C 729.74 20.22, 709.77 14.30, 688.50 11.50 C 679.20 11.10, 671.19 9.97, 662.50 10.50 Z" fill="rgb(229.13684388757196,42.13704707077548,52.982204537758214)" stroke="rgb(229.13684388757196,42.13704707077548,52.982204537758214)" stroke-width="1" />
<path d="M 0.50 423.50 C 0.50 446.50, 0.50 469.50, 0.50 492.50 C 1.60 497.07, -2.21 505.54, 3.50 504.50 C 24.83 503.50, 45.17 503.50, 65.50 503.50 C 86.83 503.50, 107.17 503.50, 127.50 503.50 C 148.83 503.50, 169.17 503.50, 189.50 503.50 C 211.17 503.50, 231.83 503.50, 252.50 503.50 C 273.83 503.50, 294.17 503.50, 314.50 503.50 C 335.83 503.50, 356.17 503.50, 376.50 503.50 C 395.35 504.33, 412.52 501.92, 429.50 503.50 C 453.40 503.14, 477.51 503.72, 501.50 503.50 C 522.83 503.50, 543.17 503.50, 563.50 503.50 C 584.83 503.50, 605.17 503.50, 625.50 503.50 C 646.83 503.50, 667.17 503.50, 687.50 503.50 C 709.17 503.50, 729.83 503.50, 750.50 503.50 C 771.83 503.50, 792.17 503.50, 812.50 503.50 C 833.83 503.50, 854.17 503.50, 874.50 503.50 C 895.83 503.50, 916.17 503.50, 936.50 503.50 C 958.17 503.50, 978.83 503.50, 999.50 503.50 C 997.05 491.16, 1006.28 470.06, 990.50 469.50 C 971.84 463.01, 953.75 458.57, 935.50 454.50 C 928.39 450.82, 920.92 450.42, 914.50 447.50 C 887.44 438.70, 858.99 443.60, 835.50 454.50 C 818.88 460.60, 800.03 464.44, 783.50 457.50 C 764.77 455.80, 748.59 450.33, 730.50 449.50 C 710.10 446.00, 691.22 442.23, 671.50 440.50 C 664.14 438.76, 657.34 438.07, 650.50 437.50 C 625.78 432.69, 601.30 430.72, 576.50 429.50 C 563.01 428.84, 551.47 430.48, 540.50 433.50 C 527.06 435.43, 515.33 439.08, 503.50 442.50 C 480.46 448.40, 457.97 453.23, 436.50 460.50 C 406.12 461.77, 381.02 452.72, 353.50 449.50 C 328.02 448.16, 299.94 449.88, 277.50 459.50 C 259.58 455.11, 244.57 446.12, 226.50 444.50 C 198.01 441.18, 173.69 426.17, 145.50 431.50 C 118.78 432.87, 96.69 443.02, 73.50 450.50 C 61.95 454.85, 48.60 450.19, 37.50 448.50 C 24.10 441.26, 14.21 428.98, 1.50 423.50 Z" fill="rgb(54.56881952195835,103.95591008814134,71.66966244563335)" stroke="rgb(54.56881952195835,103.95591008814134,71.66966244563335)" stroke-width="1" />
<path d="M 356.50 504.50 C 348.65 506.80, 339.04 504.86, 330.50 505.50 C 316.17 505.50, 302.83 505.50, 289.50 505.50 C 275.17 505.50, 261.83 505.50, 248.50 505.50 C 234.17 505.50, 220.83 505.50, 207.50 505.50 C 192.83 505.50, 179.17 505.50, 165.50 505.50 C 151.17 505.50, 137.83 505.50, 124.50 505.50 C 110.17 505.50, 96.83 505.50, 83.50 505.50 C 69.17 505.50, 55.83 505.50, 42.50 505.50 C 27.83 505.50, 14.17 505.50, 0.50 505.50 C 0.50 527.83, 0.50 549.17, 0.50 570.50 C -3.61 591.61, 8.88 578.48, 18.50 571.50 C 82.69 527.01, 102.91 581.40, 168.50 570.50 C 201.56 566.20, 235.88 564.78, 265.50 550.50 C 293.19 547.22, 319.29 561.77, 349.50 557.50 C 384.77 553.99, 421.60 538.80, 455.50 552.50 C 484.00 559.91, 511.55 567.18, 539.50 573.50 C 569.41 579.09, 603.32 576.97, 631.50 571.50 C 638.42 569.83, 645.64 571.30, 651.50 569.50 C 676.80 566.90, 700.33 562.42, 724.50 559.50 C 732.26 558.52, 738.37 556.99, 744.50 555.50 C 769.43 553.94, 790.28 544.94, 815.50 546.50 C 844.10 555.29, 874.17 570.25, 905.50 560.50 C 933.07 552.47, 960.88 547.42, 987.50 539.50 C 1006.37 539.55, 997.37 517.70, 999.50 505.50 C 981.17 505.50, 963.83 505.50, 946.50 505.50 C 927.83 505.50, 910.17 505.50, 892.50 505.50 C 872.83 505.50, 854.17 505.50, 835.50 505.50 C 815.50 505.50, 796.50 505.50, 777.50 505.50 C 757.50 505.50, 738.50 505.50, 719.50 505.50 C 699.50 505.50, 680.50 505.50, 661.50 505.50 C 641.50 505.50, 622.50 505.50, 603.50 505.50 C 583.50 505.50, 564.50 505.50, 545.50 505.50 C 525.50 505.50, 506.50 505.50, 487.50 505.50 C 467.50 505.50, 448.50 505.50, 429.50 505.50 C 410.71 505.68, 395.28 504.91, 378.50 505.50 C 371.52 503.18, 363.76 507.74, 357.50 504.50 Z" fill="rgb(119.25870327602429,162.34473098965015,152.40246771020443)" stroke="rgb(119.25870327602429,162.34473098965015,152.40246771020443)" stroke-width="1" />
<path d="M 272.50 550.50 C 252.45 559.60, 230.89 565.06, 208.50 568.50 C 193.26 575.28, 177.23 577.74, 160.50 578.50 C 148.11 578.84, 138.27 576.24, 126.50 575.50 C 111.72 570.64, 96.73 568.70, 83.50 562.50 C 67.28 555.02, 45.46 555.67, 31.50 565.50 C 26.49 571.25, 30.40 579.53, 34.50 584.50 C 42.34 591.38, 33.76 606.68, 44.50 609.50 C 51.57 610.38, 55.27 616.01, 61.50 615.50 C 77.61 622.05, 92.99 626.93, 108.50 631.50 C 119.13 634.46, 128.13 637.91, 137.50 640.50 C 151.89 644.02, 164.87 648.55, 178.50 651.50 C 189.42 654.55, 198.52 658.60, 208.50 660.50 C 237.23 670.53, 264.72 680.16, 291.50 691.50 C 309.35 699.14, 291.88 675.53, 316.50 688.50 C 347.81 696.89, 367.91 680.59, 393.50 705.50 C 402.13 684.25, 449.68 741.62, 420.50 696.50 C 398.21 658.53, 456.35 694.12, 476.50 688.50 C 493.62 685.65, 476.65 666.23, 471.50 658.50 C 453.89 638.54, 437.39 619.59, 429.50 595.50 C 424.66 580.63, 418.08 567.89, 415.50 553.50 C 401.03 548.69, 388.52 555.90, 375.50 556.50 C 352.13 562.87, 324.02 561.51, 301.50 556.50 C 290.72 556.39, 283.29 550.59, 273.50 550.50 Z" fill="rgb(103.88203697658545,162.99771493011247,203.87031486482476)" stroke="rgb(103.88203697658545,162.99771493011247,203.87031486482476)" stroke-width="1" />
<path d="M 996.50 110.50 C 987.49 120.40, 985.05 112.09, 995.50 121.50 C 984.01 127.01, 963.54 127.02, 956.50 122.50 C 947.90 129.25, 954.29 108.37, 947.50 115.50 C 941.69 121.95, 956.81 125.24, 949.50 131.50 C 941.46 133.59, 932.47 134.48, 925.50 132.50 C 911.23 132.80, 897.65 133.90, 885.50 132.50 C 867.36 133.94, 843.85 130.83, 822.50 133.50 C 826.30 157.38, 824.43 182.24, 818.50 203.50 C 814.56 215.80, 809.79 226.76, 804.50 237.50 C 795.01 253.66, 782.32 266.81, 770.50 278.50 C 754.96 291.36, 738.37 299.26, 721.50 306.50 C 729.58 315.28, 743.15 315.83, 753.50 320.50 C 776.74 328.00, 799.75 333.65, 823.50 337.50 C 836.43 339.64, 850.31 332.80, 861.50 339.50 C 874.02 343.46, 887.21 343.39, 899.50 345.50 C 918.13 354.39, 928.93 331.98, 947.50 334.50 C 957.47 319.80, 940.40 313.77, 937.50 301.50 C 924.80 295.19, 901.17 293.39, 902.50 273.50 C 900.65 253.74, 908.75 233.04, 925.50 222.50 C 933.59 219.62, 940.98 221.58, 948.50 222.50 C 951.02 206.78, 964.58 192.28, 982.50 193.50 C 985.66 187.08, 983.85 177.44, 989.50 172.50 C 997.01 166.94, 989.95 155.26, 998.50 152.50 C 998.23 139.25, 1002.08 122.42, 997.50 111.50 Z" fill="rgb(131.28093614668757,204.89621917135048,254.76516477778802)" stroke="rgb(131.28093614668757,204.89621917135048,254.76516477778802)" stroke-width="1" />
<path d="M 431.50 285.50 C 395.85 320.73, 381.80 303.13, 338.50 328.50 C 357.58 298.00, 306.39 321.53, 288.50 332.50 C 270.07 346.43, 257.06 366.43, 250.50 386.50 C 250.80 401.82, 236.58 408.42, 229.50 419.50 C 222.78 426.72, 205.92 442.33, 223.50 440.50 C 231.16 439.84, 245.96 449.78, 245.50 440.50 C 252.11 432.14, 247.19 451.72, 257.50 448.50 C 262.35 452.59, 269.32 454.26, 274.50 456.50 C 284.05 455.02, 291.91 451.88, 300.50 450.50 C 323.11 446.21, 349.16 443.99, 370.50 450.50 C 385.35 452.05, 398.30 455.78, 412.50 456.50 C 422.05 431.65, 428.47 406.91, 440.50 384.50 C 449.93 372.10, 458.59 362.61, 467.50 351.50 C 474.82 340.24, 485.18 331.66, 484.50 318.50 C 463.70 317.68, 450.64 322.51, 432.50 325.50 C 394.57 342.69, 429.44 294.40, 432.50 285.50 Z" fill="rgb(19.405517892388225,96.31343859950228,150.08873251523212)" stroke="rgb(19.405517892388225,96.31343859950228,150.08873251523212)" stroke-width="1" />
<path d="M 511.50 216.50 C 494.82 229.75, 483.34 212.98, 461.50 227.50 C 438.02 243.24, 414.18 254.68, 390.50 266.50 C 370.45 275.72, 351.22 284.50, 332.50 294.50 C 323.07 298.47, 315.55 303.62, 307.50 307.50 C 299.18 314.59, 271.16 339.88, 289.50 331.50 C 306.71 324.07, 322.34 315.22, 340.50 312.50 C 347.06 316.81, 337.21 318.84, 335.50 322.50 C 330.11 327.36, 322.13 327.83, 321.50 334.50 C 342.25 327.59, 363.88 318.98, 383.50 308.50 C 395.58 297.75, 384.23 324.21, 391.50 314.50 C 401.32 309.84, 409.54 302.56, 418.50 296.50 C 437.09 289.60, 413.17 315.03, 413.50 324.50 C 415.56 335.70, 430.24 322.88, 437.50 323.50 C 453.57 322.15, 465.95 314.28, 482.50 316.50 C 503.57 320.76, 520.60 309.00, 540.50 309.50 C 563.56 310.29, 584.69 313.30, 604.50 319.50 C 613.54 320.27, 621.49 321.26, 628.50 324.50 C 639.94 328.32, 648.15 318.89, 660.50 321.50 C 675.78 330.45, 692.89 332.57, 710.50 333.50 C 718.80 323.58, 742.87 330.51, 743.50 326.50 C 727.23 319.62, 714.40 307.86, 698.50 303.50 C 677.69 294.70, 657.45 286.96, 637.50 278.50 C 633.37 274.39, 628.13 275.40, 624.50 272.50 C 609.30 262.18, 594.57 254.14, 580.50 244.50 C 543.21 214.21, 503.37 228.33, 512.50 216.50 Z" fill="rgb(231.1034631474533,237.7568896364342,241.67809548453874)" stroke="rgb(231.1034631474533,237.7568896364342,241.67809548453874)" stroke-width="1" />
<path d="M 38.50 609.50 C 41.60 639.07, 70.23 658.11, 92.50 676.50 C 128.98 720.71, 4.18 732.10, 68.50 748.50 C 80.64 747.81, 89.87 749.51, 100.50 747.50 C 136.22 747.48, 167.39 748.11, 201.50 747.50 C 239.05 747.00, 278.57 748.71, 315.50 747.50 C 338.98 749.29, 361.10 748.05, 386.50 748.50 C 422.85 745.91, 360.51 730.26, 350.50 720.50 C 311.73 700.18, 274.45 685.99, 233.50 671.50 C 168.92 649.02, 101.56 635.66, 39.50 609.50 Z" fill="rgb(162.46621621621622,214.80067567567568,251.78716216216216)" stroke="rgb(162.46621621621622,214.80067567567568,251.78716216216216)" stroke-width="1" />
<path d="M 40.50 609.50 C 29.18 623.82, 49.95 628.07, 52.50 641.50 C 66.88 640.17, 70.68 655.23, 72.50 665.50 C 85.43 668.88, 98.31 677.15, 99.50 690.50 C 98.60 708.21, 83.70 722.55, 67.50 724.50 C 49.48 719.34, 52.68 734.37, 47.50 744.50 C 54.31 749.96, 63.43 746.37, 71.50 747.50 C 96.83 747.50, 121.17 747.50, 145.50 747.50 C 170.83 747.50, 195.17 747.50, 219.50 747.50 C 244.83 747.50, 269.17 747.50, 293.50 747.50 C 318.83 747.50, 343.17 747.50, 367.50 747.50 C 378.56 746.22, 393.76 750.09, 400.50 745.50 C 378.10 733.20, 355.55 724.66, 334.50 712.50 C 328.06 708.96, 321.11 709.05, 316.50 703.50 C 294.65 694.80, 273.49 686.85, 252.50 678.50 C 234.72 672.30, 217.62 666.87, 200.50 661.50 C 183.33 656.57, 167.91 650.86, 151.50 647.50 C 136.35 641.71, 121.38 638.93, 107.50 633.50 C 90.45 629.10, 75.03 623.17, 59.50 617.50 C 52.94 614.57, 46.52 613.73, 41.50 609.50 Z" fill="rgb(163.02294511833065,216.03944354907117,254.90877088811604)" stroke="rgb(163.02294511833065,216.03944354907117,254.90877088811604)" stroke-width="1" />
<path d="M 0.50 74.50 C 9.17 165.08, -29.35 528.97, 49.50 363.50 C 72.59 362.86, 63.93 332.61, 85.50 332.50 C 109.26 317.38, 92.12 283.73, 69.50 282.50 C 51.14 285.56, 47.93 271.39, 46.50 257.50 C 65.39 249.18, 59.32 222.12, 80.50 225.50 C 142.34 216.67, 99.31 105.44, 48.50 136.50 C 49.84 115.17, 33.78 95.12, 12.50 97.50 C -3.57 100.87, 7.11 82.28, 1.50 74.50 Z" fill="rgb(165.71875,215.1171875,247.625)" stroke="rgb(165.71875,215.1171875,247.625)" stroke-width="1" />
<path d="M 0.50 72.50 C 0.50 187.17, 0.50 301.83, 0.50 416.50 C 6.76 421.99, 13.11 428.17, 20.50 432.50 C 29.35 429.05, 33.91 419.84, 34.50 411.50 C 36.24 395.30, 30.46 380.42, 45.50 372.50 C 45.56 355.36, 66.91 364.70, 68.50 349.50 C 66.38 333.09, 84.36 336.97, 91.50 327.50 C 105.73 310.71, 90.59 285.97, 72.50 283.50 C 64.66 279.71, 49.21 286.13, 50.50 274.50 C 49.12 268.05, 46.54 263.09, 45.50 257.50 C 56.94 249.54, 64.84 239.63, 66.50 227.50 C 78.46 226.81, 88.71 225.43, 97.50 220.50 C 131.63 190.85, 95.18 110.78, 49.50 136.50 C 48.45 116.94, 36.71 95.98, 14.50 97.50 C -3.42 102.36, 4.80 82.64, 1.50 73.50 Z" fill="rgb(251.35944252376837,253.6938202247191,254.67286084701814)" stroke="rgb(251.35944252376837,253.6938202247191,254.67286084701814)" stroke-width="1" />
<path d="M 988.50 639.50 C 940.65 651.13, 892.56 662.20, 842.50 668.50 C 768.38 669.94, 678.64 692.79, 783.50 737.50 C 845.76 758.42, 919.11 742.60, 982.50 748.50 C 1011.47 746.55, 1003.74 654.45, 989.50 640.50 Z" fill="rgb(163.9339207048458,204.25991189427313,237.08810572687224)" stroke="rgb(163.9339207048458,204.25991189427313,237.08810572687224)" stroke-width="1" />
<path d="M 282.50 670.50 C 296.73 697.12, 329.17 706.84, 353.50 720.50 C 374.42 730.82, 394.89 739.84, 415.50 748.50 C 467.85 748.46, 516.19 748.16, 568.50 748.50 C 588.47 746.40, 603.37 743.38, 618.50 732.50 C 628.53 721.47, 646.25 722.61, 659.50 715.50 C 677.63 709.14, 694.48 702.11, 711.50 695.50 C 719.05 691.55, 725.90 688.32, 732.50 684.50 C 763.02 673.35, 730.57 679.52, 717.50 676.50 C 711.23 675.00, 706.42 672.42, 700.50 672.50 C 684.22 674.35, 670.98 677.66, 658.50 685.50 C 648.04 688.00, 634.07 672.70, 622.50 683.50 C 609.43 686.47, 596.39 687.10, 584.50 690.50 C 571.64 694.12, 558.20 693.91, 545.50 695.50 C 525.41 698.22, 512.25 686.61, 493.50 688.50 C 464.71 690.91, 441.22 682.91, 417.50 675.50 C 406.21 681.77, 428.25 701.86, 423.50 710.50 C 412.17 705.18, 402.98 697.02, 392.50 690.50 C 383.75 683.39, 388.35 694.88, 391.50 697.50 C 375.02 695.39, 315.68 659.16, 332.50 681.50 C 359.70 706.12, 296.56 677.96, 283.50 671.50 Z" fill="rgb(213.74882002872974,231.01836650933717,243.01405704904576)" stroke="rgb(213.74882002872974,231.01836650933717,243.01405704904576)" stroke-width="1" />
<path d="M 915.50 656.50 C 897.13 661.34, 875.88 659.26, 858.50 666.50 C 849.56 671.35, 840.06 666.38, 831.50 666.50 C 810.31 669.22, 790.17 672.09, 771.50 678.50 C 752.92 684.28, 732.77 687.48, 717.50 696.50 C 740.62 705.52, 761.40 716.77, 779.50 734.50 C 787.42 740.77, 789.84 750.21, 799.50 748.50 C 819.17 748.50, 837.83 748.50, 856.50 748.50 C 872.37 747.84, 888.32 749.82, 902.50 747.50 C 889.82 701.06, 960.89 713.74, 948.50 672.50 C 937.55 667.85, 923.44 668.49, 916.50 657.50 Z" fill="rgb(164.87182910547398,215.8611481975968,252.61682242990653)" stroke="rgb(164.87182910547398,215.8611481975968,252.61682242990653)" stroke-width="1" />
<path d="M 446.50 115.50 C 431.43 118.73, 415.19 119.12, 403.50 130.50 C 390.57 143.10, 385.92 157.72, 386.50 174.50 C 380.68 183.50, 353.65 174.04, 357.50 196.50 C 342.78 202.46, 327.23 202.99, 312.50 205.50 C 308.88 210.28, 349.90 206.17, 364.50 206.50 C 377.49 207.49, 389.91 206.35, 402.50 207.50 C 432.20 208.25, 465.07 208.05, 492.50 206.50 C 512.27 208.23, 529.98 206.39, 548.50 206.50 C 584.21 218.16, 594.24 191.92, 562.50 180.50 C 553.33 183.22, 545.33 196.42, 537.50 185.50 C 526.66 186.91, 523.69 169.97, 512.50 176.50 C 511.61 157.58, 508.62 140.94, 495.50 128.50 C 481.61 116.81, 465.16 114.70, 447.50 115.50 Z" fill="rgb(247.35247997272882,249.6021816942219,251.8956877450145)" stroke="rgb(247.35247997272882,249.6021816942219,251.8956877450145)" stroke-width="1" />
<path d="M 915.50 657.50 C 897.24 662.95, 875.40 659.77, 858.50 668.50 C 847.66 671.29, 839.93 669.28, 829.50 669.50 C 809.03 672.84, 788.72 674.14, 770.50 680.50 C 757.88 686.88, 747.54 678.34, 744.50 688.50 C 737.59 687.99, 725.79 693.00, 731.50 699.50 C 746.63 706.11, 759.63 716.86, 773.50 725.50 C 784.49 733.65, 788.72 750.20, 803.50 747.50 C 820.17 747.50, 835.83 747.50, 851.50 747.50 C 868.50 747.50, 884.50 747.50, 900.50 747.50 C 900.25 733.09, 902.43 713.14, 919.50 709.50 C 937.70 711.26, 938.81 694.19, 950.50 685.50 C 952.11 662.93, 925.43 674.85, 916.50 658.50 Z" fill="rgb(163.02868417058735,216.00751252086812,254.90704203976324)" stroke="rgb(163.02868417058735,216.00751252086812,254.90704203976324)" stroke-width="1" />
<path d="M 773.50 50.50 C 758.50 53.59, 734.59 63.05, 741.50 83.50 C 743.35 94.64, 718.96 89.60, 720.50 104.50 C 722.97 119.66, 710.18 116.70, 701.50 119.50 C 697.33 127.41, 687.88 121.88, 685.50 128.50 C 696.59 131.14, 710.41 131.14, 721.50 129.50 C 793.19 131.77, 872.40 129.88, 946.50 130.50 C 947.03 125.36, 942.51 116.17, 934.50 118.50 C 930.89 105.14, 919.15 96.37, 906.50 96.50 C 886.09 100.60, 884.50 77.41, 868.50 75.50 C 866.59 60.60, 849.24 54.56, 839.50 64.50 C 830.11 72.58, 837.80 91.25, 822.50 89.50 C 813.65 88.19, 806.82 79.31, 799.50 76.50 C 800.91 60.63, 789.30 48.54, 774.50 50.50 Z" fill="rgb(250.9738525730181,251.57705146036162,252.6720445062587)" stroke="rgb(250.9738525730181,251.57705146036162,252.6720445062587)" stroke-width="1" />
<path d="M 998.50 154.50 C 996.12 168.95, 983.72 177.74, 986.50 194.50 C 967.14 193.25, 951.26 206.15, 951.50 224.50 C 939.58 221.10, 924.42 220.17, 916.50 231.50 C 907.13 245.02, 902.30 259.01, 903.50 275.50 C 905.88 290.82, 921.85 295.54, 934.50 295.50 C 938.94 296.17, 939.39 300.48, 939.50 303.50 C 942.48 313.44, 958.37 317.03, 951.50 327.50 C 952.33 337.65, 943.61 338.50, 936.50 337.50 C 910.47 342.73, 925.86 354.83, 943.50 353.50 C 960.28 359.51, 976.82 368.79, 995.50 364.50 C 1003.49 299.32, 997.51 223.70, 999.50 154.50 Z" fill="rgb(251.13063190705583,253.73916123547747,254.68999716633607)" stroke="rgb(251.13063190705583,253.73916123547747,254.68999716633607)" stroke-width="1" />
<path d="M 20.50 574.50 C -19.65 583.55, -11.22 821.04, 51.50 722.50 C 88.81 734.67, 117.84 674.47, 72.50 668.50 C 66.79 643.88, 48.00 640.62, 34.50 623.50 C 36.10 605.17, 38.58 584.11, 21.50 574.50 Z" fill="rgb(194.9375,228.140625,251.2890625)" stroke="rgb(194.9375,228.140625,251.2890625)" stroke-width="1" />
<path d="M 283.50 672.50 C 289.42 683.83, 302.22 690.57, 311.50 698.50 C 332.47 709.57, 352.53 719.43, 372.50 729.50 C 387.64 735.49, 401.05 743.25, 415.50 748.50 C 430.83 748.50, 445.17 748.50, 459.50 748.50 C 474.83 748.50, 489.17 748.50, 503.50 748.50 C 512.41 740.87, 505.69 728.80, 501.50 720.50 C 511.22 711.58, 493.09 700.95, 491.50 691.50 C 480.58 687.71, 467.90 691.55, 458.50 687.50 C 441.83 685.91, 428.68 678.26, 413.50 675.50 C 417.21 689.17, 422.16 701.75, 431.50 712.50 C 433.62 723.28, 421.99 710.76, 417.50 709.50 C 408.24 701.18, 399.10 695.98, 390.50 689.50 C 401.52 710.22, 378.33 694.54, 366.50 688.50 C 355.50 684.17, 345.82 679.06, 335.50 675.50 C 317.29 670.22, 333.04 679.63, 339.50 685.50 C 343.61 686.54, 350.95 692.13, 345.50 694.50 C 322.69 691.54, 304.54 679.73, 284.50 672.50 Z" fill="rgb(222.50333979745744,239.48998060762767,250.6904761904762)" stroke="rgb(222.50333979745744,239.48998060762767,250.6904761904762)" stroke-width="1" />
<path d="M 780.50 396.50 C 763.93 399.00, 747.88 402.73, 733.50 410.50 C 743.18 476.79, 890.80 420.35, 958.50 457.50 C 975.13 457.91, 1006.10 483.61, 999.50 452.50 C 1011.84 377.28, 960.10 461.33, 917.50 444.50 C 871.17 429.30, 831.95 399.33, 781.50 396.50 Z" fill="rgb(21.296774193548387,91.3225806451613,130.96774193548387)" stroke="rgb(21.296774193548387,91.3225806451613,130.96774193548387)" stroke-width="1" />
<path d="M 980.50 639.50 C 960.14 643.97, 942.07 653.96, 920.50 655.50 C 921.14 663.85, 932.35 667.88, 940.50 667.50 C 952.17 664.00, 950.02 678.72, 953.50 684.50 C 938.80 691.04, 943.46 713.85, 925.50 709.50 C 907.37 711.13, 899.47 729.47, 904.50 745.50 C 927.83 751.24, 953.65 746.96, 977.50 748.50 C 1013.27 753.01, 1009.45 641.43, 981.50 639.50 Z" fill="rgb(231.46868131868132,245.28104395604396,254.76593406593406)" stroke="rgb(231.46868131868132,245.28104395604396,254.76593406593406)" stroke-width="1" />
<path d="M 0.50 130.50 C 0.50 153.17, 0.50 175.83, 0.50 198.50 C 0.50 222.17, 0.50 244.83, 0.50 267.50 C 0.50 291.17, 0.50 313.83, 0.50 336.50 C 0.50 360.50, 0.50 383.50, 0.50 406.50 C 5.24 410.67, 9.41 389.51, 8.50 380.50 C 3.03 367.76, 15.89 360.48, 15.50 349.50 C 24.96 348.29, 25.38 338.60, 25.50 331.50 C 47.65 322.05, 42.29 282.46, 18.50 283.50 C 15.25 274.55, 10.30 262.91, 18.50 255.50 C 20.74 240.18, 28.24 235.50, 40.50 230.50 C 51.73 210.04, 45.30 183.50, 36.50 165.50 C 31.68 151.47, 15.48 167.50, 14.50 157.50 C 13.49 146.54, 12.09 134.66, 1.50 130.50 Z" fill="rgb(210.26431718061673,236.05286343612335,254.76073788546256)" stroke="rgb(210.26431718061673,236.05286343612335,254.76073788546256)" stroke-width="1" />
<path d="M 20.50 572.50 C 13.12 581.28, -7.97 587.44, 4.50 600.50 C 12.24 619.61, 5.84 640.58, 17.50 656.50 C 29.24 656.51, 22.90 671.89, 29.50 675.50 C 49.24 686.71, 40.97 723.31, 18.50 721.50 C 17.17 730.08, 11.43 739.05, 17.50 745.50 C 25.31 750.86, 35.35 747.39, 43.50 748.50 C 47.04 741.44, 50.02 731.99, 51.50 723.50 C 72.85 725.19, 94.65 715.30, 97.50 694.50 C 99.55 682.26, 89.48 673.85, 80.50 670.50 C 62.75 671.26, 74.26 644.79, 56.50 645.50 C 44.83 647.08, 48.76 624.89, 34.50 624.50 C 38.43 606.75, 38.13 582.98, 21.50 573.50 Z" fill="rgb(232.55460088691797,245.66394124168514,254.85490576496673)" stroke="rgb(232.55460088691797,245.66394124168514,254.85490576496673)" stroke-width="1" />
<path d="M 442.50 142.50 C 437.12 144.53, 430.57 143.74, 425.50 146.50 C 408.51 152.94, 401.07 170.25, 402.50 187.50 C 382.89 179.84, 385.90 204.03, 371.50 203.50 C 367.67 203.72, 360.36 206.46, 366.50 206.50 C 379.50 206.50, 391.50 206.50, 403.50 206.50 C 418.12 205.95, 430.61 207.51, 441.50 206.50 C 448.71 206.82, 454.80 207.78, 462.50 207.50 C 476.69 206.91, 490.39 206.80, 504.50 206.50 C 512.40 207.78, 522.14 206.36, 530.50 205.50 C 535.52 204.86, 542.13 206.80, 544.50 204.50 C 536.31 200.26, 538.91 184.44, 527.50 189.50 C 514.00 203.53, 503.40 184.70, 491.50 184.50 C 491.66 173.47, 489.49 164.40, 484.50 156.50 C 474.74 142.63, 458.79 141.89, 443.50 142.50 Z" fill="rgb(210.00811514316337,236.0638493339458,254.80937069361508)" stroke="rgb(210.00811514316337,236.0638493339458,254.80937069361508)" stroke-width="1" />
<path d="M 711.50 697.50 C 689.18 704.60, 668.14 714.78, 646.50 723.50 C 630.94 730.48, 617.03 738.03, 603.50 746.50 C 601.75 749.80, 619.01 747.86, 625.50 748.50 C 639.50 748.50, 652.50 748.50, 665.50 748.50 C 679.83 748.50, 693.17 748.50, 706.50 748.50 C 721.74 748.48, 733.66 748.65, 747.50 748.50 C 761.83 748.50, 775.17 748.50, 788.50 748.50 C 769.80 722.81, 741.81 705.66, 712.50 698.50 Z" fill="rgb(225.4607843137255,112.17450980392157,122.2156862745098)" stroke="rgb(225.4607843137255,112.17450980392157,122.2156862745098)" stroke-width="1" />
<path d="M 779.50 396.50 C 759.82 399.58, 741.06 404.89, 724.50 415.50 C 712.69 422.80, 733.93 424.22, 738.50 428.50 C 752.56 434.35, 765.60 440.25, 778.50 446.50 C 790.50 450.82, 803.88 449.47, 815.50 448.50 C 827.05 447.97, 835.10 437.04, 845.50 440.50 C 854.74 440.90, 861.76 444.77, 869.50 441.50 C 882.48 437.72, 919.21 448.81, 892.50 435.50 C 877.49 428.18, 863.88 420.91, 849.50 415.50 C 826.72 406.36, 805.49 396.88, 780.50 396.50 Z" fill="rgb(9.666666666666666,66.32888651725365,104.73959445037353)" stroke="rgb(9.666666666666666,66.32888651725365,104.73959445037353)" stroke-width="1" />
<path d="M 43.50 560.50 C 44.97 564.91, 50.28 565.97, 53.50 568.50 C 71.24 579.86, 87.18 592.13, 103.50 603.50 C 117.81 613.43, 130.30 624.31, 143.50 633.50 C 155.81 638.90, 167.02 643.52, 178.50 647.50 C 197.71 654.66, 214.64 663.92, 233.50 668.50 C 242.76 670.93, 275.17 687.99, 257.50 670.50 C 238.28 648.52, 215.59 629.80, 195.50 613.50 C 170.02 598.17, 207.46 625.12, 201.50 626.50 C 181.94 615.39, 163.54 603.87, 145.50 591.50 C 123.86 576.34, 142.38 595.77, 151.50 604.50 C 138.96 600.32, 128.58 592.36, 116.50 588.50 C 91.85 578.47, 68.91 567.72, 44.50 560.50 Z" fill="rgb(101.96294307196563,158.6000716075904,197.51199427139278)" stroke="rgb(101.96294307196563,158.6000716075904,197.51199427139278)" stroke-width="1" />
<path d="M 790.50 557.50 C 680.10 572.07, 755.13 632.46, 827.50 599.50 C 854.34 591.04, 896.41 570.45, 909.50 563.50 C 867.10 571.45, 831.64 562.62, 791.50 557.50 Z" fill="rgb(95.52459016393442,144.36065573770492,176.60655737704917)" stroke="rgb(95.52459016393442,144.36065573770492,176.60655737704917)" stroke-width="1" />
<path d="M 261.50 325.50 C 243.79 333.19, 225.16 338.67, 207.50 346.50 C 188.24 354.02, 170.02 361.63, 151.50 368.50 C 148.25 370.83, 144.75 370.17, 142.50 372.50 C 117.70 391.98, 94.11 410.96, 69.50 427.50 C 59.98 434.61, 49.96 440.08, 42.50 446.50 C 68.79 439.49, 92.38 428.34, 116.50 418.50 C 130.37 414.08, 140.50 404.03, 152.50 398.50 C 161.81 397.75, 136.14 414.32, 133.50 422.50 C 158.50 407.67, 181.87 388.90, 205.50 376.50 C 181.16 401.61, 205.88 385.82, 222.50 369.50 C 235.67 356.55, 259.06 337.77, 262.50 325.50 Z" fill="rgb(18.762910798122064,97.12314915131816,152.00234741784038)" stroke="rgb(18.762910798122064,97.12314915131816,152.00234741784038)" stroke-width="1" />
<path d="M 796.50 557.50 C 678.09 568.98, 757.55 635.98, 833.50 597.50 C 856.34 588.73, 878.20 579.99, 898.50 567.50 C 869.25 565.69, 830.67 566.62, 797.50 557.50 Z" fill="rgb(98.6923076923077,151.19230769230768,187.55769230769232)" stroke="rgb(98.6923076923077,151.19230769230768,187.55769230769232)" stroke-width="1" />
<path d="M 784.50 558.50 C 762.97 567.37, 742.18 578.00, 720.50 586.50 C 732.72 598.09, 750.33 601.67, 765.50 607.50 C 776.82 608.72, 787.21 609.81, 797.50 608.50 C 808.29 605.79, 818.52 604.16, 827.50 599.50 C 843.40 595.19, 857.19 588.21, 871.50 582.50 C 881.42 576.63, 891.17 573.79, 899.50 567.50 C 884.48 567.56, 871.73 566.70, 857.50 564.50 C 846.18 568.93, 833.59 566.13, 824.50 561.50 C 812.50 556.47, 798.30 559.18, 785.50 558.50 Z" fill="rgb(96.71890501561639,140.20411537754916,169.53940841447732)" stroke="rgb(96.71890501561639,140.20411537754916,169.53940841447732)" stroke-width="1" />
<path d="M 968.50 577.50 C 954.87 586.67, 939.02 590.48, 924.50 597.50 C 908.75 597.48, 933.19 576.75, 924.50 581.50 C 909.82 595.04, 897.19 606.46, 883.50 619.50 C 848.78 647.39, 802.62 644.24, 764.50 660.50 C 798.74 654.88, 835.63 656.78, 871.50 654.50 C 901.50 654.49, 922.67 635.57, 947.50 625.50 C 965.46 621.31, 982.92 612.40, 991.50 595.50 C 978.03 597.60, 957.37 611.91, 947.50 613.50 C 931.05 611.70, 980.36 585.18, 969.50 577.50 Z" fill="rgb(105.40070921985816,168.57801418439718,212.9290780141844)" stroke="rgb(105.40070921985816,168.57801418439718,212.9290780141844)" stroke-width="1" />
<path d="M 711.50 698.50 C 703.92 705.27, 691.27 701.43, 685.50 710.50 C 673.53 710.22, 668.41 719.76, 657.50 719.50 C 645.88 726.11, 639.79 732.64, 629.50 735.50 C 624.09 736.25, 615.52 741.02, 619.50 746.50 C 633.17 747.50, 646.83 747.50, 660.50 747.50 C 682.17 747.50, 702.83 747.50, 723.50 747.50 C 745.50 747.50, 766.50 747.50, 787.50 747.50 C 785.36 738.55, 776.55 736.19, 772.50 730.50 C 754.11 715.28, 734.57 703.83, 712.50 698.50 Z" fill="rgb(232.1920076117983,104.42873453853473,113.71189343482398)" stroke="rgb(232.1920076117983,104.42873453853473,113.71189343482398)" stroke-width="1" />
<path d="M 761.50 344.50 C 782.13 351.52, 803.40 357.02, 825.50 360.50 C 850.45 367.45, 874.41 374.40, 892.50 395.50 C 910.20 410.76, 936.85 439.58, 912.50 405.50 C 933.96 410.92, 952.80 421.25, 972.50 429.50 C 964.73 415.46, 949.81 404.01, 939.50 392.50 C 939.51 385.48, 948.67 392.24, 952.50 393.50 C 966.32 399.80, 978.84 406.81, 991.50 413.50 C 987.62 401.03, 976.16 391.42, 965.50 386.50 C 952.78 384.72, 943.12 377.94, 932.50 373.50 C 912.68 363.45, 895.55 350.33, 872.50 351.50 C 862.44 351.44, 853.93 350.07, 845.50 348.50 C 825.10 352.19, 805.69 348.42, 786.50 347.50 C 778.26 345.47, 770.32 345.12, 762.50 344.50 Z" fill="rgb(18.58976332499519,96.95651337309987,151.8145083702136)" stroke="rgb(18.58976332499519,96.95651337309987,151.8145083702136)" stroke-width="1" />
<path d="M 998.50 200.50 C 993.43 206.09, 998.00 215.67, 993.50 221.50 C 981.32 220.80, 977.45 232.91, 978.50 242.50 C 975.10 247.84, 966.11 239.29, 962.50 246.50 C 953.98 260.70, 951.04 278.25, 954.50 293.50 C 956.41 304.33, 970.92 298.89, 971.50 307.50 C 977.17 318.11, 984.55 340.20, 966.50 340.50 C 943.66 362.41, 982.78 370.22, 998.50 363.50 C 999.50 350.17, 999.50 336.83, 999.50 323.50 C 999.50 309.17, 999.50 295.83, 999.50 282.50 C 999.50 268.17, 999.50 254.83, 999.50 241.50 C 999.50 227.17, 999.50 213.83, 999.50 200.50 Z" fill="rgb(210.1955197484771,236.0852819807428,254.7685203379839)" stroke="rgb(210.1955197484771,236.0852819807428,254.7685203379839)" stroke-width="1" />
<path d="M 971.50 577.50 C 952.93 586.20, 934.68 595.69, 914.50 600.50 C 938.05 567.11, 906.55 598.37, 892.50 611.50 C 884.09 617.99, 877.82 626.20, 869.50 629.50 C 855.03 636.60, 841.00 642.32, 825.50 644.50 C 809.70 647.38, 795.68 651.12, 781.50 654.50 C 756.14 661.62, 790.02 657.95, 799.50 656.50 C 812.15 655.32, 824.32 655.39, 836.50 655.50 C 849.48 657.44, 861.41 654.22, 873.50 653.50 C 891.89 654.61, 905.52 646.63, 919.50 639.50 C 935.19 632.23, 948.61 622.88, 964.50 619.50 C 974.29 617.50, 995.63 596.86, 987.50 595.50 C 975.66 602.70, 963.61 606.96, 952.50 613.50 C 947.60 615.07, 933.02 621.15, 940.50 612.50 C 950.94 600.08, 967.57 589.40, 972.50 577.50 Z" fill="rgb(101.83461918892186,158.36063303659742,197.13907022749754)" stroke="rgb(101.83461918892186,158.36063303659742,197.13907022749754)" stroke-width="1" />
<path d="M 783.50 90.50 C 773.60 92.89, 752.69 93.86, 758.50 109.50 C 748.30 110.44, 738.92 113.52, 738.50 123.50 C 730.48 123.37, 725.08 126.15, 719.50 128.50 C 742.75 129.05, 761.81 130.55, 785.50 130.50 C 793.19 129.06, 798.93 130.88, 805.50 130.50 C 828.17 130.50, 849.83 130.50, 871.50 130.50 C 890.17 130.50, 907.83 130.50, 925.50 130.50 C 919.63 124.52, 908.24 112.59, 894.50 114.50 C 880.02 116.64, 874.69 104.58, 863.50 103.50 C 858.84 94.64, 848.90 94.35, 841.50 96.50 C 833.40 99.51, 836.83 111.98, 827.50 110.50 C 819.24 113.65, 813.94 104.22, 806.50 104.50 C 804.91 93.01, 794.00 89.71, 784.50 90.50 Z" fill="rgb(210.87706237424547,235.9877263581489,254.38068410462776)" stroke="rgb(210.87706237424547,235.9877263581489,254.38068410462776)" stroke-width="1" />
<path d="M 62.50 131.50 C 38.76 133.63, 49.69 161.37, 50.50 177.50 C 57.20 193.80, 51.03 209.86, 63.50 223.50 C 80.91 228.98, 102.21 223.44, 109.50 206.50 C 109.51 200.89, 111.80 197.23, 111.50 192.50 C 110.02 173.77, 104.84 157.56, 94.50 143.50 C 85.70 133.53, 75.55 130.21, 63.50 131.50 Z" fill="rgb(253.92653396265135,254.80833162323003,254.95239072439975)" stroke="rgb(253.92653396265135,254.80833162323003,254.95239072439975)" stroke-width="1" />
<path d="M 983.50 639.50 C 971.53 641.11, 951.03 643.27, 961.50 659.50 C 965.40 666.95, 974.01 663.36, 976.50 668.50 C 981.38 678.43, 975.81 686.12, 971.50 693.50 C 974.61 707.05, 956.59 699.06, 955.50 709.50 C 950.98 722.78, 953.81 735.92, 957.50 747.50 C 964.83 748.50, 971.17 748.50, 977.50 748.50 C 985.50 748.50, 992.50 748.50, 999.50 748.50 C 999.50 732.83, 999.50 718.17, 999.50 703.50 C 999.50 683.83, 999.50 665.17, 999.50 646.50 C 1000.86 637.30, 989.03 642.22, 984.50 639.50 Z" fill="rgb(207.01903584672436,235.91446229913473,254.89344870210135)" stroke="rgb(207.01903584672436,235.91446229913473,254.89344870210135)" stroke-width="1" />
<path d="M 668.50 412.50 C 652.11 415.96, 636.59 421.50, 622.50 430.50 C 628.92 433.09, 636.16 432.71, 642.50 434.50 C 662.31 436.81, 680.91 439.65, 699.50 442.50 C 718.95 445.22, 737.23 448.34, 755.50 451.50 C 763.72 453.11, 771.39 453.63, 778.50 455.50 C 790.22 457.01, 801.21 461.50, 812.50 458.50 C 825.15 455.93, 836.34 452.26, 847.50 448.50 C 869.21 444.79, 839.77 437.60, 832.50 443.50 C 813.39 451.82, 786.80 454.44, 769.50 443.50 C 752.83 435.85, 737.50 428.37, 721.50 422.50 C 704.14 416.95, 688.50 410.68, 669.50 412.50 Z" fill="rgb(19.35846113854952,96.08604107096438,148.40551078762672)" stroke="rgb(19.35846113854952,96.08604107096438,148.40551078762672)" stroke-width="1" />
<path d="M 172.50 354.50 C 153.25 361.50, 132.87 365.78, 113.50 372.50 C 88.54 380.13, 64.68 387.98, 41.50 397.50 C 34.94 404.94, 38.45 420.13, 30.50 427.50 C 17.33 436.26, 32.40 445.98, 41.50 446.50 C 48.19 440.08, 55.48 436.11, 62.50 431.50 C 89.24 412.49, 114.72 393.83, 139.50 373.50 C 147.29 364.50, 187.11 358.31, 173.50 354.50 Z" fill="rgb(28.44188509398994,125.87873974053481,195.0209160709558)" stroke="rgb(28.44188509398994,125.87873974053481,195.0209160709558)" stroke-width="1" />
<path d="M 470.50 536.50 C 459.59 538.28, 409.36 543.41, 433.50 546.50 C 452.66 551.93, 471.06 556.76, 489.50 561.50 C 513.82 568.48, 537.90 573.62, 562.50 577.50 C 582.62 578.40, 600.10 575.35, 618.50 574.50 C 624.65 572.37, 645.86 570.42, 637.50 567.50 C 623.00 568.03, 610.19 566.92, 597.50 565.50 C 583.00 561.90, 569.64 558.98, 556.50 555.50 C 542.23 552.02, 529.08 548.23, 515.50 545.50 C 499.98 542.96, 487.55 535.36, 471.50 536.50 Z" fill="rgb(125.75489647453833,173.78427532176832,160.71096810296586)" stroke="rgb(125.75489647453833,173.78427532176832,160.71096810296586)" stroke-width="1" />
<path d="M 795.50 549.50 C 788.50 551.64, 780.91 552.36, 773.50 553.50 C 752.29 557.12, 731.76 559.99, 711.50 563.50 C 699.96 565.47, 688.96 566.33, 678.50 568.50 C 660.10 570.67, 642.87 573.25, 625.50 575.50 C 622.24 578.80, 629.33 578.66, 630.50 581.50 C 649.08 590.22, 669.27 596.80, 690.50 593.50 C 704.34 589.92, 717.49 587.08, 729.50 581.50 C 746.58 574.35, 762.88 567.76, 778.50 559.50 C 798.06 554.53, 820.74 555.36, 836.50 564.50 C 841.35 567.29, 856.54 563.81, 852.50 562.50 C 833.77 556.04, 816.89 548.54, 796.50 549.50 Z" fill="rgb(102.2538268856109,157.81408293904815,195.52017812413024)" stroke="rgb(102.2538268856109,157.81408293904815,195.52017812413024)" stroke-width="1" />
<path d="M 0.50 596.50 C 0.50 621.50, 0.50 646.50, 0.50 671.50 C 0.50 697.83, 0.50 723.17, 0.50 748.50 C 23.37 753.05, 11.07 741.14, 15.50 727.50 C 13.85 716.73, 26.05 721.33, 30.50 717.50 C 43.11 705.83, 43.26 680.92, 26.50 675.50 C 26.07 658.10, 12.61 654.31, 8.50 639.50 C 8.48 624.97, 10.06 609.20, 1.50 597.50 Z" fill="rgb(207.29263565891472,235.91505167958655,254.8546511627907)" stroke="rgb(207.29263565891472,235.91505167958655,254.8546511627907)" stroke-width="1" />
<path d="M 148.50 430.50 C 132.88 433.14, 116.79 434.66, 102.50 440.50 C 91.17 443.36, 81.47 447.76, 71.50 451.50 C 62.78 452.75, 44.92 451.18, 60.50 455.50 C 78.37 460.10, 96.04 462.75, 114.50 463.50 C 123.44 461.15, 130.92 457.71, 138.50 454.50 C 158.91 447.94, 178.77 442.45, 200.50 441.50 C 204.38 434.88, 166.68 428.49, 149.50 430.50 Z" fill="rgb(62.454691904953684,123.99436165928313,85.17398308497785)" stroke="rgb(62.454691904953684,123.99436165928313,85.17398308497785)" stroke-width="1" />
<path d="M 105.50 544.50 C 87.79 546.93, 70.03 549.23, 53.50 554.50 C 58.83 555.50, 64.17 555.50, 69.50 555.50 C 77.49 558.19, 84.30 561.32, 91.50 563.50 C 110.43 569.48, 128.39 574.38, 147.50 576.50 C 168.10 577.71, 186.00 574.79, 202.50 568.50 C 207.17 566.41, 192.80 565.41, 188.50 565.50 C 166.89 562.58, 148.00 556.51, 129.50 549.50 C 122.00 545.81, 114.94 543.50, 106.50 544.50 Z" fill="rgb(125.7151690024732,173.8272877164056,161.00989282769993)" stroke="rgb(125.7151690024732,173.8272877164056,161.00989282769993)" stroke-width="1" />
<path d="M 0.50 97.50 C 0.50 107.50, 0.50 117.50, 0.50 127.50 C 12.52 132.97, 15.34 146.46, 15.50 158.50 C 17.88 162.59, 22.06 155.27, 26.50 157.50 C 40.58 159.73, 40.71 143.57, 46.50 136.50 C 48.71 124.02, 44.61 111.64, 35.50 103.50 C 25.52 96.62, 13.42 97.29, 1.50 97.50 Z" fill="rgb(253.26591928251122,254.6183856502242,254.8932735426009)" stroke="rgb(253.26591928251122,254.6183856502242,254.8932735426009)" stroke-width="1" />
<path d="M 998.50 411.50 C 991.73 418.85, 983.69 423.14, 976.50 429.50 C 958.93 443.60, 937.11 444.99, 914.50 444.50 C 910.64 446.73, 926.56 449.83, 931.50 451.50 C 955.64 456.54, 977.57 463.53, 999.50 470.50 C 999.50 450.17, 999.50 430.83, 999.50 411.50 Z" fill="rgb(9.786853552440792,66.27887868535524,103.93040115998066)" stroke="rgb(9.786853552440792,66.27887868535524,103.93040115998066)" stroke-width="1" />
<path d="M 871.50 442.50 C 848.73 448.58, 827.69 458.85, 803.50 461.50 C 804.94 466.53, 833.95 467.97, 846.50 472.50 C 865.96 471.70, 882.41 466.04, 898.50 459.50 C 908.48 457.11, 917.18 454.06, 926.50 452.50 C 908.67 447.14, 891.96 441.50, 872.50 442.50 Z" fill="rgb(62.66683266932271,123.57171314741036,84.81474103585657)" stroke="rgb(62.66683266932271,123.57171314741036,84.81474103585657)" stroke-width="1" />
<path d="M 998.50 537.50 C 972.33 548.31, 942.73 550.83, 916.50 561.50 C 944.33 560.78, 969.28 568.42, 989.50 587.50 C 1008.40 604.68, 995.68 552.16, 999.50 537.50 Z" fill="rgb(98.25,141.90625,162.875)" stroke="rgb(98.25,141.90625,162.875)" stroke-width="1" />
<path d="M 997.50 538.50 C 978.69 544.78, 959.74 550.69, 939.50 553.50 C 930.52 554.94, 924.03 558.98, 916.50 560.50 C 923.60 563.57, 933.25 560.82, 941.50 564.50 C 964.26 566.71, 981.30 579.53, 997.50 593.50 C 1000.17 577.50, 1000.17 554.50, 998.50 538.50 Z" fill="rgb(96.72350230414746,140.12391193036353,169.20174091141834)" stroke="rgb(96.72350230414746,140.12391193036353,169.20174091141834)" stroke-width="1" />
<path d="M 850.50 535.50 C 835.84 538.52, 820.82 540.67, 806.50 544.50 C 829.63 550.25, 851.67 560.03, 875.50 565.50 C 893.07 564.36, 908.89 561.37, 923.50 555.50 C 913.89 552.15, 900.47 549.34, 889.50 544.50 C 876.62 540.41, 864.27 537.44, 851.50 535.50 Z" fill="rgb(125.88253638253639,173.69490644490645,160.65592515592516)" stroke="rgb(125.88253638253639,173.69490644490645,160.65592515592516)" stroke-width="1" />
<path d="M 326.50 448.50 C 310.46 450.93, 293.94 452.19, 279.50 458.50 C 282.11 463.51, 289.30 464.97, 294.50 467.50 C 308.52 475.96, 324.40 471.35, 337.50 466.50 C 350.49 463.81, 361.69 460.22, 374.50 460.50 C 381.88 458.72, 409.91 461.38, 396.50 457.50 C 373.85 452.04, 351.89 447.35, 327.50 448.50 Z" fill="rgb(62.208061647895676,123.44042679312389,85.6520450503853)" stroke="rgb(62.208061647895676,123.44042679312389,85.6520450503853)" stroke-width="1" />
<path d="M 310.50 535.50 C 298.99 538.26, 288.22 542.82, 277.50 547.50 C 299.93 557.23, 324.13 559.28, 349.50 558.50 C 370.08 557.01, 392.68 550.00, 408.50 547.50 C 386.77 550.10, 364.87 547.45, 345.50 543.50 C 332.91 542.25, 323.91 534.77, 311.50 535.50 Z" fill="rgb(125.84051724137932,173.63669950738915,161.08251231527095)" stroke="rgb(125.84051724137932,173.63669950738915,161.08251231527095)" stroke-width="1" />
<path d="M 260.50 567.50 C 277.81 586.81, 298.66 603.70, 312.50 625.50 C 325.12 639.01, 338.14 651.18, 351.50 661.50 C 348.30 651.75, 340.61 643.45, 334.50 634.50 C 314.28 607.88, 288.61 582.40, 261.50 567.50 Z" fill="rgb(106.68681318681318,172.14468864468864,218.08333333333334)" stroke="rgb(106.68681318681318,172.14468864468864,218.08333333333334)" stroke-width="1" />
<path d="M 352.50 343.50 C 335.80 356.61, 317.73 373.09, 305.50 390.50 C 291.12 408.82, 275.67 424.34, 259.50 440.50 C 268.29 436.95, 275.05 430.89, 282.50 426.50 C 297.55 414.04, 311.00 400.54, 322.50 386.50 C 334.04 372.19, 344.38 358.81, 352.50 344.50 Z" fill="rgb(28.102564102564102,123.0,189.80128205128204)" stroke="rgb(28.102564102564102,123.0,189.80128205128204)" stroke-width="1" />
<path d="M 563.50 179.50 C 555.64 183.60, 542.42 189.75, 541.50 198.50 C 546.46 206.63, 551.65 209.06, 561.50 207.50 C 570.70 207.16, 594.57 210.84, 583.50 198.50 C 571.05 199.12, 579.04 176.65, 564.50 179.50 Z" fill="rgb(253.00770925110132,244.44823788546256,245.7444933920705)" stroke="rgb(253.00770925110132,244.44823788546256,245.7444933920705)" stroke-width="1" />
<path d="M 516.50 213.50 C 504.11 220.82, 488.48 214.12, 475.50 219.50 C 491.87 229.41, 516.21 229.50, 534.50 224.50 C 557.20 226.34, 525.72 213.57, 517.50 213.50 Z" fill="rgb(38.18529862174579,129.24961715160796,194.4333843797856)" stroke="rgb(38.18529862174579,129.24961715160796,194.4333843797856)" stroke-width="1" />
<path d="M 341.50 618.50 C 343.69 625.81, 352.38 629.87, 357.50 636.50 C 372.90 652.80, 383.94 672.24, 402.50 682.50 C 389.52 658.52, 367.35 633.04, 342.50 619.50 Z" fill="rgb(203.53321976149914,227.78875638841566,241.33560477001703)" stroke="rgb(203.53321976149914,227.78875638841566,241.33560477001703)" stroke-width="1" />
<path d="M 581.50 256.50 C 587.67 258.79, 584.98 265.52, 582.50 269.50 C 597.22 278.26, 614.35 280.21, 630.50 284.50 C 648.75 288.35, 629.18 280.86, 623.50 276.50 C 609.83 267.56, 595.69 263.19, 582.50 256.50 Z" fill="rgb(47.06217616580311,132.69602763385146,192.36442141623488)" stroke="rgb(47.06217616580311,132.69602763385146,192.36442141623488)" stroke-width="1" />
<path d="M 402.50 321.50 C 324.02 391.21, 355.54 396.13, 402.50 321.50 Z" fill="rgb(30.15686274509804,96.25490196078431,141.6078431372549)" stroke="rgb(30.15686274509804,96.25490196078431,141.6078431372549)" stroke-width="1" />
<path d="M 403.50 321.50 C 390.30 331.76, 377.55 343.85, 368.50 357.50 C 358.71 369.59, 348.02 378.43, 339.50 388.50 C 365.91 373.31, 388.78 347.32, 403.50 322.50 Z" fill="rgb(215.9267399267399,233.5,241.6904761904762)" stroke="rgb(215.9267399267399,233.5,241.6904761904762)" stroke-width="1" />
<path d="M 632.50 719.50 C 617.01 723.13, 600.98 725.44, 586.50 731.50 C 576.86 734.47, 590.21 740.53, 584.50 744.50 C 599.79 740.19, 631.88 725.65, 633.50 719.50 Z" fill="rgb(115.40968342644321,176.52141527001862,219.57728119180632)" stroke="rgb(115.40968342644321,176.52141527001862,219.57728119180632)" stroke-width="1" />
<path d="M 659.50 653.50 C 647.03 656.50, 634.05 658.28, 622.50 663.50 C 608.49 669.01, 595.40 674.31, 583.50 682.50 C 586.23 686.13, 608.68 676.78, 618.50 672.50 C 630.49 663.34, 655.90 659.76, 660.50 653.50 Z" fill="rgb(207.002,233.92,247.864)" stroke="rgb(207.002,233.92,247.864)" stroke-width="1" />
<path d="M 581.50 320.50 C 589.06 328.45, 601.15 331.54, 610.50 337.50 C 626.50 344.69, 649.18 351.59, 662.50 351.50 C 648.16 346.31, 635.16 341.32, 622.50 335.50 C 609.46 327.51, 595.88 324.25, 582.50 320.50 Z" fill="rgb(208.0138067061144,233.12031558185404,244.38067061143985)" stroke="rgb(208.0138067061144,233.12031558185404,244.38067061143985)" stroke-width="1" />
<path d="M 457.50 319.50 C 384.65 383.63, 413.21 390.74, 457.50 319.50 Z" fill="rgb(31.06122448979592,96.87755102040816,142.53061224489795)" stroke="rgb(31.06122448979592,96.87755102040816,142.53061224489795)" stroke-width="1" />
<path d="M 399.50 624.50 C 408.71 636.30, 422.08 646.37, 430.50 658.50 C 438.62 669.30, 448.55 678.09, 458.50 685.50 C 445.40 662.37, 424.17 638.65, 400.50 624.50 Z" fill="rgb(206.21931589537223,230.3158953722334,243.4185110663984)" stroke="rgb(206.21931589537223,230.3158953722334,243.4185110663984)" stroke-width="1" />
<path d="M 457.50 319.50 C 434.34 337.75, 419.84 364.09, 398.50 381.50 C 404.20 380.53, 407.95 377.26, 411.50 373.50 C 430.26 358.04, 448.61 339.91, 458.50 319.50 Z" fill="rgb(206.80730223123732,227.0709939148073,236.82961460446248)" stroke="rgb(206.80730223123732,227.0709939148073,236.82961460446248)" stroke-width="1" />
<path d="M 659.50 326.50 C 668.17 337.00, 681.29 342.78, 692.50 349.50 C 701.43 355.29, 731.22 364.65, 727.50 360.50 C 703.48 351.29, 684.37 333.66, 660.50 327.50 Z" fill="rgb(204.23653395784544,230.68618266978922,242.96018735362998)" stroke="rgb(204.23653395784544,230.68618266978922,242.96018735362998)" stroke-width="1" />
<path d="M 727.50 643.50 C 708.37 648.76, 690.14 656.22, 673.50 667.50 C 642.74 688.07, 689.20 667.64, 699.50 659.50 C 708.04 653.33, 730.07 646.74, 728.50 643.50 Z" fill="rgb(207.01932367149757,234.2536231884058,248.2584541062802)" stroke="rgb(207.01932367149757,234.2536231884058,248.2584541062802)" stroke-width="1" />
<path d="M 466.50 275.50 C 459.09 278.83, 451.14 280.87, 445.50 288.50 C 441.29 295.36, 436.41 300.52, 433.50 306.50 C 445.86 298.15, 458.08 287.16, 467.50 275.50 Z" fill="rgb(66.23703703703704,144.01481481481483,195.82592592592593)" stroke="rgb(66.23703703703704,144.01481481481483,195.82592592592593)" stroke-width="1" />
<path d="M 534.50 276.50 C 545.68 287.59, 560.43 296.19, 572.50 307.50 C 564.53 294.43, 552.68 277.22, 535.50 276.50 Z" fill="rgb(72.5984555984556,144.96138996138995,194.05405405405406)" stroke="rgb(72.5984555984556,144.96138996138995,194.05405405405406)" stroke-width="1" />
<path d="M 572.50 697.50 C 560.09 706.65, 548.19 717.02, 535.50 725.50 C 551.31 728.75, 563.53 709.77, 573.50 697.50 Z" fill="rgb(131.45381526104418,184.02008032128515,220.5582329317269)" stroke="rgb(131.45381526104418,184.02008032128515,220.5582329317269)" stroke-width="1" />
<path d="M 381.50 275.50 C 368.49 283.49, 356.01 292.73, 342.50 299.50 C 357.69 297.34, 374.81 290.72, 381.50 276.50 Z" fill="rgb(72.51502145922747,147.18884120171674,196.60085836909872)" stroke="rgb(72.51502145922747,147.18884120171674,196.60085836909872)" stroke-width="1" />
<path d="M 75.50 724.50 C 71.82 727.07, 67.32 727.69, 62.50 727.50 C 63.57 740.61, 88.54 723.75, 76.50 724.50 Z" fill="rgb(163.09345794392524,216.02803738317758,254.7196261682243)" stroke="rgb(163.09345794392524,216.02803738317758,254.7196261682243)" stroke-width="1" />
</svg>