<svg xmlns="http://www.w3.org/2000/svg" width="600" height="400" viewbox="0 0 600 400">
<path d="M 0.50 0.50 C 0.50 83.17, 0.50 165.83, 0.50 248.50 C 0.50 290.83, 0.50 332.17, 0.50 373.50 C 0.50 379.17, 0.50 383.83, 0.50 388.50 C 0.50 391.83, 0.50 394.17, 0.50 396.50 C -0.53 400.86, 3.61 399.06, 5.50 399.50 C 16.50 399.50, 26.50 399.50, 36.50 399.50 C 58.17 399.50, 78.83 399.50, 99.50 399.50 C 266.50 399.50, 432.50 399.50, 598.50 399.50 C 599.50 316.83, 599.50 234.17, 599.50 151.50 C 599.50 109.17, 599.50 67.83, 599.50 26.50 C 599.50 20.83, 599.50 16.17, 599.50 11.50 C 599.50 8.17, 599.50 5.83, 599.50 3.50 C 600.53 -0.86, 596.39 0.94, 594.50 0.50 C 583.50 0.50, 573.50 0.50, 563.50 0.50 C 541.83 0.50, 521.17 0.50, 500.50 0.50 C 333.50 0.50, 167.50 0.50, 1.50 0.50 Z" fill="rgb(81.25969876768599,140.852122318576,200.98585120949338)" stroke="rgb(81.25969876768599,140.852122318576,200.98585120949338)" stroke-width="1" />
<path d="M 0.50 2.50 C 0.50 84.83, 0.50 167.17, 0.50 249.50 C 0.50 291.50, 0.50 332.50, 0.50 373.50 C 0.50 379.17, 0.50 383.83, 0.50 388.50 C 0.50 391.83, 0.50 394.17, 0.50 396.50 C 0.53 399.29, 5.50 398.92, 6.50 397.50 C 9.77 396.75, 10.97 398.53, 13.50 398.50 C 16.83 398.50, 19.17 398.50, 21.50 398.50 C 24.78 398.04, 27.87 399.54, 29.50 397.50 C 33.47 396.88, 35.26 398.85, 37.50 397.50 C 40.79 397.13, 42.67 397.77, 44.50 398.50 C 47.42 397.87, 50.70 396.28, 52.50 398.50 C 57.83 396.55, 63.52 397.89, 68.50 397.50 C 73.83 396.55, 79.52 397.89, 84.50 397.50 C 90.50 397.50, 95.50 397.50, 100.50 397.50 C 103.50 397.50, 105.50 397.50, 107.50 397.50 C 110.53 397.44, 112.95 397.32, 115.50 397.50 C 121.50 397.50, 126.50 397.50, 131.50 397.50 C 142.50 397.50, 152.50 397.50, 162.50 397.50 C 183.83 397.50, 204.17 397.50, 224.50 397.50 C 266.83 397.50, 308.17 397.50, 349.50 397.50 C 370.83 397.50, 391.17 397.50, 411.50 397.50 C 417.17 397.50, 421.83 397.50, 426.50 397.50 C 429.83 397.50, 432.17 397.50, 434.50 397.50 C 437.95 399.42, 439.83 397.65, 442.50 397.50 C 453.50 397.50, 463.50 397.50, 473.50 397.50 C 476.81 398.92, 478.03 396.71, 480.50 397.50 C 483.95 399.42, 485.83 397.65, 488.50 397.50 C 491.30 399.72, 494.58 398.13, 496.50 397.50 C 500.26 396.80, 501.74 399.20, 504.50 398.50 C 506.74 396.94, 510.26 396.94, 511.50 398.50 C 515.00 398.58, 516.73 396.77, 519.50 397.50 C 522.58 400.37, 524.81 396.39, 527.50 397.50 C 530.95 399.42, 532.83 397.65, 535.50 397.50 C 538.81 397.08, 540.03 399.29, 542.50 398.50 C 546.05 397.32, 548.47 397.44, 550.50 398.50 C 553.04 396.92, 556.96 396.92, 558.50 398.50 C 561.53 397.44, 563.95 397.32, 566.50 397.50 C 569.58 400.37, 571.81 396.39, 574.50 397.50 C 577.95 399.42, 579.83 397.65, 582.50 397.50 C 585.70 398.79, 588.30 398.79, 590.50 397.50 C 593.53 398.56, 595.95 398.68, 598.50 398.50 C 599.50 316.17, 599.50 233.83, 599.50 151.50 C 599.50 109.50, 599.50 68.50, 599.50 27.50 C 599.50 21.83, 599.50 17.17, 599.50 12.50 C 599.50 9.17, 599.50 6.83, 599.50 4.50 C 599.38 1.29, 595.26 3.08, 593.50 2.50 C 582.50 2.50, 572.50 2.50, 562.50 2.50 C 540.83 2.50, 520.17 2.50, 499.50 2.50 C 332.83 2.50, 167.17 2.50, 1.50 2.50 Z" fill="rgb(82.17921272671728,141.1563797648816,201.78755049162152)" stroke="rgb(82.17921272671728,141.1563797648816,201.78755049162152)" stroke-width="1" />
<path d="M 295.50 75.50 C 293.87 77.54, 290.78 76.04, 288.50 76.50 C 284.83 76.50, 282.17 76.50, 279.50 76.50 C 275.45 76.90, 273.20 78.25, 270.50 78.50 C 267.12 79.86, 263.88 79.14, 261.50 80.50 C 258.16 81.49, 255.71 82.21, 253.50 83.50 C 250.10 85.14, 247.11 85.37, 244.50 86.50 C 240.97 89.17, 238.32 90.54, 235.50 91.50 C 231.73 94.24, 228.74 95.47, 226.50 98.50 C 222.86 101.48, 221.48 102.86, 219.50 105.50 C 215.97 109.08, 213.05 111.51, 211.50 114.50 C 208.70 117.70, 208.67 121.04, 206.50 123.50 C 204.75 126.86, 203.82 129.55, 203.50 132.50 C 202.18 136.31, 201.25 138.87, 200.50 141.50 C 198.89 142.97, 199.70 144.44, 199.50 145.50 C 199.77 148.08, 197.70 148.70, 198.50 150.50 C 198.25 154.20, 196.90 156.45, 197.50 159.50 C 196.72 163.63, 199.00 165.49, 198.50 168.50 C 199.49 171.70, 199.51 174.30, 200.50 176.50 C 202.35 179.82, 201.38 183.30, 203.50 185.50 C 205.14 188.90, 205.37 191.89, 206.50 194.50 C 208.13 198.46, 209.64 201.05, 211.50 203.50 C 212.50 207.11, 214.78 209.19, 216.50 211.50 C 218.38 215.22, 220.27 217.93, 222.50 220.50 C 225.80 224.18, 227.54 227.09, 230.50 229.50 C 233.23 231.51, 234.52 235.62, 237.50 237.50 C 240.83 240.83, 243.17 243.17, 245.50 245.50 C 249.35 248.36, 250.71 249.93, 253.50 252.50 C 256.60 256.27, 260.58 258.25, 261.50 261.50 C 264.11 262.97, 263.30 264.44, 263.50 265.50 C 266.40 265.13, 267.08 267.70, 268.50 268.50 C 271.91 271.46, 274.82 273.20, 277.50 275.50 C 279.84 279.16, 282.76 281.17, 282.50 284.50 C 283.68 288.23, 283.17 291.66, 286.50 293.50 C 288.97 292.70, 289.03 295.30, 290.50 294.50 C 292.73 297.22, 293.95 294.04, 295.50 294.50 C 299.00 294.42, 300.73 296.23, 303.50 295.50 C 308.17 295.52, 310.00 291.86, 311.50 289.50 C 312.63 285.89, 312.86 282.90, 314.50 280.50 C 317.17 276.83, 319.83 274.17, 322.50 271.50 C 325.59 269.25, 328.22 268.31, 330.50 266.50 C 332.08 262.38, 333.66 259.68, 336.50 257.50 C 343.75 252.58, 348.73 245.60, 354.50 240.50 C 357.80 237.29, 360.13 235.09, 361.50 232.50 C 365.64 229.17, 366.60 225.93, 369.50 223.50 C 372.53 220.26, 373.76 217.27, 375.50 214.50 C 378.91 211.14, 378.97 207.81, 381.50 205.50 C 383.17 201.97, 384.54 199.32, 385.50 196.50 C 387.25 193.14, 388.18 190.45, 388.50 187.50 C 389.07 183.38, 392.44 181.83, 391.50 178.50 C 392.70 176.44, 391.89 174.97, 393.50 174.50 C 393.79 172.15, 392.72 170.24, 394.50 169.50 C 393.77 165.73, 395.58 164.00, 395.50 161.50 C 396.10 157.45, 394.75 155.20, 394.50 152.50 C 394.18 148.69, 393.25 146.13, 392.50 143.50 C 391.75 139.87, 390.82 137.31, 390.50 134.50 C 389.64 130.83, 387.89 128.95, 387.50 126.50 C 384.70 123.30, 384.67 119.96, 382.50 117.50 C 380.67 113.35, 376.55 111.56, 375.50 108.50 C 371.46 105.27, 370.63 101.88, 367.50 100.50 C 364.48 96.75, 361.52 96.25, 359.50 93.50 C 355.96 91.52, 353.14 90.23, 350.50 88.50 C 346.97 86.83, 344.32 85.46, 341.50 84.50 C 337.89 82.37, 334.90 82.14, 332.50 80.50 C 328.77 79.99, 326.63 78.05, 323.50 78.50 C 320.23 77.21, 317.32 77.46, 314.50 77.50 C 310.83 76.50, 308.17 76.50, 305.50 76.50 C 301.37 77.28, 299.51 75.00, 296.50 75.50 Z" fill="rgb(178.57523613578977,132.09800804264472,22.159637145796314)" stroke="rgb(178.57523613578977,132.09800804264472,22.159637145796314)" stroke-width="1" />
<path d="M 282.50 76.50 C 280.45 78.64, 276.65 76.58, 274.50 78.50 C 270.38 78.07, 268.83 81.44, 265.50 80.50 C 261.29 80.85, 258.86 82.09, 256.50 83.50 C 253.17 86.31, 249.23 84.24, 247.50 87.50 C 244.25 89.84, 241.17 90.17, 238.50 91.50 C 234.58 93.88, 232.01 96.13, 229.50 98.50 C 227.00 102.24, 226.08 105.21, 223.50 107.50 C 221.72 109.24, 222.79 111.15, 222.50 112.50 C 222.77 115.08, 220.70 115.70, 221.50 117.50 C 219.41 120.44, 220.99 123.90, 220.50 126.50 C 219.90 130.55, 221.25 132.80, 221.50 135.50 C 221.12 139.66, 221.81 142.36, 224.50 143.50 C 228.36 141.44, 224.49 141.03, 225.50 139.50 C 223.70 136.70, 225.77 136.08, 225.50 134.50 C 226.03 132.36, 227.36 131.03, 228.50 131.50 C 230.73 129.58, 231.95 128.64, 233.50 128.50 C 234.97 126.89, 236.44 127.70, 237.50 127.50 C 237.23 124.92, 239.30 124.30, 238.50 122.50 C 236.90 119.65, 236.90 115.35, 238.50 113.50 C 237.93 108.26, 243.49 108.98, 245.50 106.50 C 249.60 108.16, 248.21 111.68, 248.50 114.50 C 248.99 118.10, 247.41 121.56, 249.50 123.50 C 251.56 123.30, 253.03 124.11, 253.50 122.50 C 255.85 122.21, 257.76 123.28, 258.50 121.50 C 259.00 125.51, 261.28 127.37, 260.50 130.50 C 260.46 134.32, 260.21 137.23, 261.50 139.50 C 263.03 139.49, 263.44 143.36, 264.50 140.50 C 266.85 140.21, 268.76 141.28, 269.50 139.50 C 273.58 141.31, 273.86 144.27, 273.50 147.50 C 275.63 150.76, 273.98 154.58, 274.50 157.50 C 278.17 158.50, 280.83 158.50, 283.50 158.50 C 288.00 158.56, 285.96 163.26, 286.50 165.50 C 288.59 168.44, 287.01 171.90, 287.50 174.50 C 287.41 179.16, 290.63 178.59, 293.50 178.50 C 297.81 177.50, 300.14 182.55, 297.50 184.50 C 299.59 187.44, 298.01 190.90, 298.50 193.50 C 298.02 197.38, 302.10 198.21, 304.50 198.50 C 307.63 201.76, 305.98 205.58, 306.50 208.50 C 307.58 211.93, 303.47 215.62, 306.50 216.50 C 310.49 216.65, 312.95 221.63, 310.50 223.50 C 310.54 227.32, 310.79 230.23, 309.50 232.50 C 308.29 237.62, 312.72 237.63, 314.50 240.50 C 315.30 244.63, 317.68 236.76, 320.50 237.50 C 324.32 234.45, 322.28 230.39, 325.50 228.50 C 326.98 224.84, 329.30 221.89, 332.50 221.50 C 337.48 222.03, 336.58 216.28, 339.50 214.50 C 341.12 211.02, 343.13 207.00, 346.50 207.50 C 351.55 208.35, 350.63 203.37, 352.50 201.50 C 354.61 198.12, 355.26 194.03, 358.50 193.50 C 361.77 193.44, 365.62 194.80, 366.50 191.50 C 369.65 188.17, 369.84 185.03, 371.50 182.50 C 373.98 178.50, 379.29 179.60, 378.50 175.50 C 379.69 171.50, 381.38 169.12, 382.50 166.50 C 384.17 164.01, 386.83 164.01, 387.50 165.50 C 389.86 164.32, 389.64 162.48, 391.50 161.50 C 391.46 157.68, 391.21 154.77, 392.50 152.50 C 392.01 148.90, 393.59 145.44, 391.50 143.50 C 391.78 139.44, 391.01 136.82, 389.50 134.50 C 388.21 130.96, 388.82 127.62, 386.50 125.50 C 384.41 121.73, 384.22 118.59, 381.50 116.50 C 379.26 112.52, 376.30 110.25, 374.50 107.50 C 370.61 103.85, 369.37 101.61, 366.50 99.50 C 362.67 96.09, 359.70 94.01, 356.50 92.50 C 352.97 89.84, 349.83 89.65, 347.50 87.50 C 344.17 85.35, 341.03 85.16, 338.50 83.50 C 335.14 81.75, 332.45 80.82, 329.50 80.50 C 326.09 79.21, 323.42 78.57, 320.50 78.50 C 317.35 76.58, 313.55 78.64, 311.50 76.50 C 307.83 76.50, 305.17 76.50, 302.50 76.50 C 298.83 76.50, 296.17 76.50, 293.50 76.50 C 289.07 75.81, 286.93 78.19, 283.50 77.50 Z" fill="rgb(164.62000515596804,83.80708086276532,62.25324396322076)" stroke="rgb(164.62000515596804,83.80708086276532,62.25324396322076)" stroke-width="1" />
<path d="M 228.50 97.50 C 225.20 99.11, 222.80 102.89, 219.50 104.50 C 216.31 108.28, 213.94 111.40, 211.50 114.50 C 209.63 118.83, 207.39 121.59, 205.50 124.50 C 204.54 128.52, 203.46 131.48, 202.50 134.50 C 200.50 138.09, 200.82 141.63, 199.50 144.50 C 199.77 147.08, 197.70 147.70, 198.50 149.50 C 198.77 152.08, 196.70 152.70, 197.50 154.50 C 197.50 158.50, 197.50 161.50, 197.50 164.50 C 197.23 167.08, 199.30 167.70, 198.50 169.50 C 198.79 172.19, 200.09 173.45, 199.50 175.50 C 199.70 178.30, 201.77 178.92, 201.50 180.50 C 203.78 182.17, 201.22 184.83, 203.50 185.50 C 204.46 189.52, 205.54 192.48, 206.50 195.50 C 208.27 199.73, 210.73 202.27, 211.50 205.50 C 214.14 209.65, 216.43 212.53, 218.50 215.50 C 221.71 219.55, 223.63 222.72, 226.50 225.50 C 228.75 229.95, 233.42 231.98, 234.50 235.50 C 242.17 241.83, 248.38 249.26, 255.50 254.50 C 259.34 254.74, 255.79 252.65, 256.50 251.50 C 255.17 249.17, 253.83 247.83, 252.50 246.50 C 249.10 242.81, 247.90 239.19, 244.50 236.50 C 242.22 234.83, 244.78 232.17, 242.50 231.50 C 240.09 231.22, 241.07 228.08, 239.50 227.50 C 236.51 223.81, 230.42 220.19, 234.50 217.50 C 236.10 214.60, 236.78 213.92, 234.50 212.50 C 233.58 210.27, 232.64 209.05, 232.50 207.50 C 229.92 203.60, 226.84 201.33, 227.50 197.50 C 228.06 192.85, 226.30 190.17, 224.50 187.50 C 222.82 183.31, 220.20 180.51, 220.50 176.50 C 223.08 175.77, 223.70 173.70, 225.50 174.50 C 229.22 172.27, 226.04 171.05, 226.50 169.50 C 224.22 167.83, 226.78 165.17, 224.50 164.50 C 224.77 161.92, 222.70 161.30, 223.50 159.50 C 222.60 155.18, 221.21 152.48, 220.50 149.50 C 219.72 145.35, 219.16 142.11, 219.50 138.50 C 218.04 134.97, 218.57 131.61, 218.50 128.50 C 218.03 124.17, 218.97 121.42, 219.50 118.50 C 219.53 114.10, 221.65 111.56, 222.50 108.50 C 224.36 106.52, 224.14 104.68, 225.50 103.50 C 227.44 101.08, 228.28 99.21, 229.50 97.50 Z" fill="rgb(71.68103777184281,12.752766119801603,20.464326592903472)" stroke="rgb(71.68103777184281,12.752766119801603,20.464326592903472)" stroke-width="1" />
<path d="M 497.50 305.50 C 496.36 309.17, 496.37 313.31, 496.50 317.50 C 496.50 320.17, 496.50 321.83, 496.50 323.50 C 496.08 326.81, 498.29 328.03, 497.50 330.50 C 496.69 336.10, 498.85 340.89, 503.50 341.50 C 506.50 341.50, 508.50 341.50, 510.50 341.50 C 513.30 344.35, 515.26 340.75, 517.50 341.50 C 520.04 341.39, 520.61 338.43, 522.50 337.50 C 524.77 335.07, 527.19 335.42, 529.50 335.50 C 532.17 335.50, 533.83 335.50, 535.50 335.50 C 537.77 337.14, 540.19 334.52, 542.50 335.50 C 547.50 335.50, 551.50 335.50, 555.50 335.50 C 559.19 335.04, 559.81 335.04, 562.50 335.50 C 565.50 335.50, 567.50 335.50, 569.50 335.50 C 571.99 335.53, 575.03 336.00, 574.50 333.50 C 574.71 330.03, 576.92 328.81, 576.50 326.50 C 576.66 321.30, 574.76 317.95, 575.50 313.50 C 572.70 310.52, 575.85 309.26, 573.50 307.50 C 570.67 306.77, 568.79 306.13, 566.50 306.50 C 563.21 306.87, 561.33 306.23, 559.50 305.50 C 556.50 305.50, 554.50 305.50, 552.50 305.50 C 533.83 305.50, 516.17 305.50, 498.50 305.50 Z" fill="rgb(87.98818897637796,143.98818897637796,202.98818897637796)" stroke="rgb(87.98818897637796,143.98818897637796,202.98818897637796)" stroke-width="1" />
<path d="M 337.50 368.50 C 335.34 371.08, 337.04 375.25, 336.50 378.50 C 336.65 382.91, 335.90 386.69, 337.50 389.50 C 337.79 391.85, 336.72 393.76, 338.50 394.50 C 337.86 397.53, 339.47 399.14, 341.50 398.50 C 345.83 398.50, 349.17 398.50, 352.50 398.50 C 368.17 398.50, 382.83 398.50, 397.50 398.50 C 400.66 395.92, 398.96 391.75, 399.50 388.50 C 399.50 384.17, 399.50 380.83, 399.50 377.50 C 399.68 373.30, 399.90 368.26, 395.50 369.50 C 390.83 368.50, 387.17 368.50, 383.50 368.50 C 379.22 370.98, 376.24 367.83, 372.50 368.50 C 368.17 368.50, 364.83 368.50, 361.50 368.50 C 353.17 368.50, 345.83 368.50, 338.50 368.50 Z" fill="rgb(91.32665330661322,149.57214428857716,207.82364729458916)" stroke="rgb(91.32665330661322,149.57214428857716,207.82364729458916)" stroke-width="1" />
<path d="M 130.50 264.50 C 128.73 267.04, 128.24 270.12, 128.50 273.50 C 128.50 277.83, 128.50 281.17, 128.50 284.50 C 128.57 288.61, 128.04 291.97, 129.50 294.50 C 131.78 296.17, 129.22 298.83, 131.50 299.50 C 134.17 298.50, 135.83 298.50, 137.50 298.50 C 139.85 298.79, 141.76 297.72, 142.50 299.50 C 143.24 302.28, 145.15 301.21, 146.50 301.50 C 150.83 302.50, 154.17 302.50, 157.50 302.50 C 161.93 301.81, 164.07 304.19, 167.50 303.50 C 169.24 301.72, 171.15 302.79, 172.50 302.50 C 174.94 302.56, 175.72 300.11, 175.50 298.50 C 175.50 290.83, 175.50 284.17, 175.50 277.50 C 175.50 273.50, 175.50 270.50, 175.50 267.50 C 173.34 263.00, 168.89 265.04, 165.50 264.50 C 157.83 264.50, 151.17 264.50, 144.50 264.50 C 142.08 267.07, 141.40 265.17, 139.50 266.50 C 137.92 263.43, 134.78 264.69, 135.50 266.50 C 135.80 268.81, 135.38 271.07, 133.50 270.50 C 132.14 267.84, 133.39 265.52, 131.50 264.50 Z" fill="rgb(84.96957746478873,144.96957746478873,204.96957746478873)" stroke="rgb(84.96957746478873,144.96957746478873,204.96957746478873)" stroke-width="1" />
<path d="M 499.50 304.50 C 498.55 306.46, 495.42 304.40, 496.50 307.50 C 496.50 310.17, 496.50 311.83, 496.50 313.50 C 497.06 318.07, 495.32 322.60, 497.50 325.50 C 498.89 328.78, 504.46 326.87, 507.50 327.50 C 512.50 327.50, 516.50 327.50, 520.50 327.50 C 529.17 327.50, 536.83 327.50, 544.50 327.50 C 549.17 327.50, 552.83 327.50, 556.50 327.50 C 562.52 328.46, 556.21 318.02, 562.50 319.50 C 567.07 318.94, 571.60 320.68, 574.50 318.50 C 575.85 313.55, 573.72 310.63, 574.50 306.50 C 570.60 303.32, 566.07 305.06, 562.50 304.50 C 557.50 304.50, 553.50 304.50, 549.50 304.50 C 532.50 304.50, 516.50 304.50, 500.50 304.50 Z" fill="rgb(87.0118778280543,143.0118778280543,202.0118778280543)" stroke="rgb(87.0118778280543,143.0118778280543,202.0118778280543)" stroke-width="1" />
<path d="M 276.50 77.50 C 275.56 79.91, 272.44 77.09, 271.50 79.50 C 267.96 80.18, 267.90 83.36, 266.50 84.50 C 264.67 87.10, 264.87 89.12, 263.50 90.50 C 264.22 93.60, 261.78 94.40, 262.50 96.50 C 260.50 100.61, 262.50 105.39, 260.50 108.50 C 260.50 113.17, 260.50 116.83, 260.50 120.50 C 259.72 125.63, 261.85 128.55, 261.50 132.50 C 261.50 135.17, 261.50 136.83, 261.50 138.50 C 261.96 141.33, 266.09 140.79, 266.50 139.50 C 269.17 139.50, 270.83 139.50, 272.50 139.50 C 273.50 142.17, 273.50 143.83, 273.50 145.50 C 275.39 147.52, 274.14 149.84, 274.50 151.50 C 274.59 154.74, 275.34 156.70, 276.50 158.50 C 280.85 158.50, 286.77 159.37, 285.50 154.50 C 285.28 149.79, 286.20 145.60, 284.50 142.50 C 284.50 133.83, 284.50 126.17, 284.50 118.50 C 284.50 113.83, 284.50 110.17, 284.50 106.50 C 284.48 103.90, 281.99 101.88, 284.50 100.50 C 284.50 97.83, 284.50 96.17, 284.50 94.50 C 285.06 89.93, 283.32 85.40, 285.50 82.50 C 283.29 79.89, 287.37 77.44, 284.50 77.50 C 281.50 77.50, 279.50 77.50, 277.50 77.50 Z" fill="rgb(57.5878889823381,71.94365012615643,113.0740117746005)" stroke="rgb(57.5878889823381,71.94365012615643,113.0740117746005)" stroke-width="1" />
<path d="M 288.50 256.50 C 286.70 258.46, 283.42 256.82, 281.50 258.50 C 277.30 259.54, 275.25 262.36, 272.50 263.50 C 269.94 266.48, 273.05 270.82, 274.50 271.50 C 276.64 272.03, 277.97 273.36, 277.50 274.50 C 279.42 276.73, 280.36 277.95, 280.50 279.50 C 282.00 282.90, 282.16 285.45, 283.50 287.50 C 283.00 291.87, 287.02 293.88, 289.50 294.50 C 291.50 294.50, 292.50 294.50, 293.50 294.50 C 295.48 293.41, 297.32 291.04, 298.50 293.50 C 301.91 297.42, 304.58 293.59, 307.50 294.50 C 310.73 292.37, 311.93 290.42, 311.50 287.50 C 312.69 283.50, 314.38 281.12, 315.50 278.50 C 316.55 274.89, 317.18 270.59, 313.50 270.50 C 309.89 268.02, 307.21 266.72, 304.50 265.50 C 306.13 262.46, 309.22 263.96, 311.50 263.50 C 312.79 259.41, 310.59 257.21, 307.50 257.50 C 303.37 258.28, 301.51 256.00, 298.50 256.50 C 294.83 256.50, 292.17 256.50, 289.50 256.50 Z" fill="rgb(204.54140127388536,142.9044585987261,33.4203821656051)" stroke="rgb(204.54140127388536,142.9044585987261,33.4203821656051)" stroke-width="1" />
<path d="M 410.50 360.50 C 407.35 361.37, 408.58 364.30, 409.50 366.50 C 406.64 369.31, 404.23 369.80, 401.50 369.50 C 400.01 375.02, 400.58 380.40, 400.50 385.50 C 400.50 388.83, 400.50 391.17, 400.50 393.50 C 399.67 397.39, 401.61 399.33, 404.50 398.50 C 410.83 398.50, 416.17 398.50, 421.50 398.50 C 424.83 398.50, 427.17 398.50, 429.50 398.50 C 432.54 396.87, 431.04 393.78, 431.50 391.50 C 431.50 385.17, 431.50 379.83, 431.50 374.50 C 431.50 371.17, 431.50 368.83, 431.50 366.50 C 431.70 363.25, 431.91 359.52, 428.50 360.50 C 422.17 360.50, 416.83 360.50, 411.50 360.50 Z" fill="rgb(89.46272493573265,148.46272493573264,206.46272493573264)" stroke="rgb(89.46272493573265,148.46272493573264,206.46272493573264)" stroke-width="1" />
<path d="M 489.50 175.50 C 488.18 177.48, 485.47 176.08, 483.50 176.50 C 480.68 176.57, 480.27 179.60, 480.50 181.50 C 480.50 187.17, 480.50 191.83, 480.50 196.50 C 482.48 198.82, 481.08 201.53, 481.50 203.50 C 481.55 207.75, 485.56 207.50, 487.50 208.50 C 493.17 208.50, 497.83 208.50, 502.50 208.50 C 505.97 209.29, 507.19 207.08, 509.50 207.50 C 512.48 206.18, 511.08 203.47, 511.50 201.50 C 511.50 195.83, 511.50 191.17, 511.50 186.50 C 511.50 183.50, 511.50 181.50, 511.50 179.50 C 511.68 175.23, 507.47 176.90, 505.50 176.50 C 499.94 175.91, 494.38 177.73, 490.50 175.50 Z" fill="rgb(80.31878557874762,140.31878557874762,202.22770398481973)" stroke="rgb(80.31878557874762,140.31878557874762,202.22770398481973)" stroke-width="1" />
<path d="M 337.50 368.50 C 335.28 372.05, 337.08 377.27, 336.50 381.50 C 336.50 387.17, 336.50 391.83, 336.50 396.50 C 340.38 399.73, 345.94 397.91, 350.50 398.50 C 356.17 398.50, 360.83 398.50, 365.50 398.50 C 366.97 395.49, 366.17 389.79, 366.50 385.50 C 367.89 380.27, 367.48 375.30, 367.50 370.50 C 366.67 367.33, 362.95 369.05, 361.50 368.50 C 358.17 368.50, 355.83 368.50, 353.50 368.50 C 347.83 368.50, 343.17 368.50, 338.50 368.50 Z" fill="rgb(90.97523219814242,149.9752321981424,207.9752321981424)" stroke="rgb(90.97523219814242,149.9752321981424,207.9752321981424)" stroke-width="1" />
<path d="M 400.50 264.50 C 399.18 266.48, 396.47 265.08, 394.50 265.50 C 391.07 267.77, 391.42 270.19, 391.50 272.50 C 392.88 276.12, 387.21 277.43, 390.50 279.50 C 390.28 283.01, 391.77 284.80, 393.50 286.50 C 398.05 288.72, 403.27 286.92, 407.50 287.50 C 413.17 287.50, 417.83 287.50, 422.50 287.50 C 425.50 287.50, 427.50 287.50, 429.50 287.50 C 430.50 284.50, 430.50 282.50, 430.50 280.50 C 430.50 274.83, 430.50 270.17, 430.50 265.50 C 420.17 264.50, 410.83 264.50, 401.50 264.50 Z" fill="rgb(85.375,145.19173728813558,204.35169491525423)" stroke="rgb(85.375,145.19173728813558,204.35169491525423)" stroke-width="1" />
<path d="M 291.50 268.50 C 290.48 270.39, 288.16 269.14, 286.50 269.50 C 284.09 271.11, 281.91 270.89, 280.50 272.50 C 279.50 274.17, 279.50 275.83, 279.50 277.50 C 280.51 280.77, 283.12 281.97, 282.50 284.50 C 284.39 286.52, 283.14 288.84, 283.50 290.50 C 285.92 293.10, 287.56 294.17, 289.50 294.50 C 292.16 294.14, 294.48 295.39, 295.50 293.50 C 297.67 289.43, 299.68 294.48, 301.50 295.50 C 304.19 295.21, 305.45 293.91, 307.50 294.50 C 310.06 292.32, 311.37 291.80, 311.50 289.50 C 310.78 286.40, 313.22 285.60, 312.50 283.50 C 314.10 280.33, 315.18 278.37, 316.50 276.50 C 315.46 273.79, 313.21 271.54, 311.50 271.50 C 308.45 271.09, 307.19 269.79, 305.50 269.50 C 301.10 267.72, 296.52 268.78, 292.50 268.50 Z" fill="rgb(197.12797074954295,156.3418647166362,57.09323583180987)" stroke="rgb(197.12797074954295,156.3418647166362,57.09323583180987)" stroke-width="1" />
<path d="M 289.50 179.50 C 287.41 181.44, 288.99 184.90, 288.50 187.50 C 288.99 191.10, 287.41 194.56, 289.50 196.50 C 289.46 200.32, 289.21 203.23, 290.50 205.50 C 290.50 209.17, 290.50 211.83, 290.50 214.50 C 292.59 217.44, 291.01 220.90, 291.50 223.50 C 290.90 227.55, 292.25 229.80, 292.50 232.50 C 291.90 236.55, 293.25 238.80, 293.50 241.50 C 294.68 243.00, 296.52 245.61, 297.50 243.50 C 299.81 243.80, 302.07 243.38, 301.50 241.50 C 302.91 238.14, 304.15 235.71, 303.50 232.50 C 303.75 228.80, 305.10 226.55, 304.50 223.50 C 305.37 219.47, 304.30 217.97, 304.50 214.50 C 304.50 210.83, 304.50 208.17, 304.50 205.50 C 307.01 202.43, 304.57 198.21, 301.50 199.50 C 297.16 199.15, 296.24 195.15, 296.50 192.50 C 296.50 188.83, 296.50 186.17, 296.50 183.50 C 297.91 178.09, 293.21 179.79, 290.50 179.50 Z" fill="rgb(195.80759493670885,140.08607594936709,15.662025316455697)" stroke="rgb(195.80759493670885,140.08607594936709,15.662025316455697)" stroke-width="1" />
<path d="M 537.50 72.50 C 535.61 73.52, 536.86 75.84, 536.50 77.50 C 537.22 80.60, 534.78 81.40, 535.50 83.50 C 535.73 88.21, 537.11 91.44, 536.50 95.50 C 536.86 98.16, 535.61 100.48, 537.50 101.50 C 539.17 102.50, 540.83 102.50, 542.50 102.50 C 547.40 101.93, 552.27 103.70, 555.50 101.50 C 559.38 98.61, 559.49 94.58, 559.50 90.50 C 559.50 85.50, 559.50 81.50, 559.50 77.50 C 558.67 75.36, 559.05 72.41, 557.50 72.50 C 554.83 72.50, 553.17 72.50, 551.50 72.50 C 546.50 72.50, 542.50 72.50, 538.50 72.50 Z" fill="rgb(77.0,137.0,199.0)" stroke="rgb(77.0,137.0,199.0)" stroke-width="1" />
<path d="M 432.50 305.50 C 432.50 313.50, 432.50 321.50, 432.50 329.50 C 433.33 332.10, 433.13 334.12, 434.50 335.50 C 437.17 335.50, 438.83 335.50, 440.50 335.50 C 445.40 334.93, 450.27 336.70, 453.50 334.50 C 454.15 330.55, 456.28 327.63, 455.50 323.50 C 455.50 318.50, 455.50 314.50, 455.50 310.50 C 456.93 303.67, 449.95 305.89, 446.50 305.50 C 441.50 305.50, 437.50 305.50, 433.50 305.50 Z" fill="rgb(87.0,146.0,204.0)" stroke="rgb(87.0,146.0,204.0)" stroke-width="1" />
<path d="M 82.50 328.50 C 78.75 329.83, 81.19 335.06, 80.50 338.50 C 80.86 341.16, 79.61 343.48, 81.50 344.50 C 81.19 347.57, 84.58 348.11, 83.50 350.50 C 87.90 351.47, 91.60 351.73, 95.50 351.50 C 100.40 350.93, 105.27 352.70, 108.50 350.50 C 108.91 347.45, 110.21 346.19, 110.50 344.50 C 109.78 341.40, 112.22 340.60, 111.50 338.50 C 110.96 334.10, 113.31 328.49, 108.50 328.50 C 99.50 328.50, 91.50 328.50, 83.50 328.50 Z" fill="rgb(87.65096952908587,147.0,207.0)" stroke="rgb(87.65096952908587,147.0,207.0)" stroke-width="1" />
<path d="M 83.50 367.50 C 79.62 368.90, 80.56 373.68, 80.50 377.50 C 80.50 382.17, 80.50 385.83, 80.50 389.50 C 82.30 392.44, 80.07 394.08, 81.50 395.50 C 83.28 398.07, 84.85 396.80, 86.50 398.50 C 91.49 397.80, 96.78 400.26, 99.50 396.50 C 102.42 399.32, 102.81 394.76, 102.50 393.50 C 103.50 390.83, 103.50 389.17, 103.50 387.50 C 104.54 384.43, 100.69 383.00, 103.50 381.50 C 102.48 378.50, 102.48 377.50, 103.50 375.50 C 103.50 372.83, 103.50 371.17, 103.50 369.50 C 100.84 368.14, 98.52 369.39, 97.50 367.50 C 92.50 367.50, 88.50 367.50, 84.50 367.50 Z" fill="rgb(89.03457814661134,148.03457814661135,206.03457814661135)" stroke="rgb(89.03457814661134,148.03457814661135,206.03457814661135)" stroke-width="1" />
<path d="M 513.50 264.50 C 511.32 267.40, 513.06 271.93, 512.50 275.50 C 512.50 280.50, 512.50 284.50, 512.50 288.50 C 512.86 291.16, 511.61 293.48, 513.50 294.50 C 515.52 296.39, 517.84 295.14, 519.50 295.50 C 524.50 295.50, 528.50 295.50, 532.50 295.50 C 537.14 293.07, 534.87 288.18, 535.50 284.50 C 534.84 279.84, 537.50 273.41, 532.50 272.50 C 526.10 273.96, 527.65 267.80, 527.50 264.50 C 522.50 264.50, 518.50 264.50, 514.50 264.50 Z" fill="rgb(85.64069264069263,142.17748917748918,202.998556998557)" stroke="rgb(85.64069264069263,142.17748917748918,202.998556998557)" stroke-width="1" />
<path d="M 577.50 240.50 C 575.32 243.40, 577.06 247.93, 576.50 251.50 C 576.50 256.50, 576.50 260.50, 576.50 264.50 C 577.07 269.40, 575.30 274.27, 577.50 277.50 C 580.73 280.70, 585.60 278.93, 589.50 279.50 C 592.61 278.94, 591.00 275.66, 591.50 274.50 C 591.50 271.50, 591.50 269.50, 591.50 267.50 C 591.50 262.50, 591.50 258.50, 591.50 254.50 C 591.22 249.48, 592.28 244.90, 590.50 241.50 C 586.50 240.50, 582.50 240.50, 578.50 240.50 Z" fill="rgb(83.04705882352941,142.0,202.01568627450982)" stroke="rgb(83.04705882352941,142.0,202.01568627450982)" stroke-width="1" />
<path d="M 537.50 208.50 C 535.56 211.27, 528.50 207.05, 529.50 212.50 C 529.50 216.83, 529.50 220.17, 529.50 223.50 C 529.39 227.67, 528.61 232.92, 533.50 231.50 C 536.36 232.48, 536.14 234.32, 537.50 235.50 C 540.17 235.50, 541.83 235.50, 543.50 235.50 C 545.83 235.50, 547.17 235.50, 548.50 235.50 C 551.05 235.59, 550.67 232.64, 551.50 231.50 C 551.50 227.17, 551.50 223.83, 551.50 220.50 C 551.50 216.03, 549.80 213.26, 550.50 209.50 C 545.55 209.85, 542.63 207.72, 538.50 208.50 Z" fill="rgb(81.00169491525423,140.00169491525423,200.00169491525423)" stroke="rgb(81.00169491525423,140.00169491525423,200.00169491525423)" stroke-width="1" />
<path d="M 63.50 93.50 C 60.96 95.27, 57.88 95.76, 54.50 95.50 C 49.21 95.23, 47.91 98.75, 48.50 102.50 C 47.80 107.26, 49.50 110.03, 49.50 113.50 C 49.79 115.85, 48.72 117.76, 50.50 118.50 C 53.19 118.79, 54.45 120.09, 56.50 119.50 C 60.83 119.50, 64.17 119.50, 67.50 119.50 C 68.65 117.13, 72.29 119.93, 71.50 117.50 C 71.50 114.83, 71.50 113.17, 71.50 111.50 C 71.50 107.17, 71.50 103.83, 71.50 100.50 C 71.77 97.92, 69.70 97.30, 70.50 95.50 C 67.45 95.09, 66.19 93.79, 64.50 93.50 Z" fill="rgb(80.40955631399318,138.40955631399316,201.40955631399316)" stroke="rgb(80.40955631399318,138.40955631399316,201.40955631399316)" stroke-width="1" />
<path d="M 129.50 208.50 C 126.81 211.09, 129.81 216.48, 128.50 218.50 C 131.38 220.48, 126.18 222.32, 129.50 223.50 C 128.79 226.19, 130.09 227.45, 129.50 229.50 C 130.56 232.77, 135.79 230.88, 138.50 231.50 C 143.17 231.50, 146.83 231.50, 150.50 231.50 C 153.26 230.93, 153.93 230.26, 153.50 228.50 C 150.21 226.09, 155.79 223.91, 152.50 222.50 C 151.20 219.20, 151.54 214.48, 151.50 210.50 C 150.44 207.23, 145.21 209.12, 142.50 208.50 C 137.83 208.50, 134.17 208.50, 130.50 208.50 Z" fill="rgb(83.0,143.0,203.0)" stroke="rgb(83.0,143.0,203.0)" stroke-width="1" />
<path d="M 577.50 168.50 C 575.34 171.08, 577.04 175.25, 576.50 178.50 C 576.50 182.83, 576.50 186.17, 576.50 189.50 C 580.08 192.66, 584.25 190.96, 587.50 191.50 C 591.83 191.50, 595.17 191.50, 598.50 191.50 C 599.50 184.50, 599.50 177.50, 599.50 170.50 C 598.44 167.23, 593.21 169.12, 590.50 168.50 C 585.83 168.50, 582.17 168.50, 578.50 168.50 Z" fill="rgb(81.0,140.0,200.0)" stroke="rgb(81.0,140.0,200.0)" stroke-width="1" />
<path d="M 433.50 359.50 C 431.34 362.08, 433.04 366.25, 432.50 369.50 C 432.50 373.83, 432.50 377.17, 432.50 380.50 C 432.50 384.83, 432.50 388.17, 432.50 391.50 C 432.26 394.61, 435.12 395.01, 436.50 395.50 C 439.17 396.50, 440.83 396.50, 442.50 396.50 C 445.91 396.12, 448.20 392.16, 447.50 388.50 C 447.50 383.83, 447.50 380.17, 447.50 376.50 C 447.33 372.61, 448.53 366.94, 444.50 367.50 C 441.65 367.04, 439.34 365.42, 439.50 363.50 C 438.08 360.90, 436.44 359.83, 434.50 359.50 Z" fill="rgb(88.57523809523809,147.14666666666668,205.2895238095238)" stroke="rgb(88.57523809523809,147.14666666666668,205.2895238095238)" stroke-width="1" />
<path d="M 539.50 256.50 C 535.72 257.45, 536.45 261.19, 536.50 264.50 C 536.03 268.83, 536.97 271.58, 537.50 274.50 C 537.79 276.85, 536.72 278.76, 538.50 279.50 C 540.92 277.93, 541.60 279.83, 543.50 278.50 C 547.96 279.27, 550.26 277.25, 553.50 277.50 C 555.17 275.22, 557.83 277.78, 558.50 275.50 C 558.23 272.92, 560.30 272.30, 559.50 270.50 C 559.50 268.17, 559.50 266.83, 559.50 265.50 C 556.78 263.27, 559.96 262.05, 559.50 260.50 C 558.55 255.72, 554.81 256.45, 551.50 256.50 C 547.17 256.50, 543.83 256.50, 540.50 256.50 Z" fill="rgb(84.72254335260115,141.2543352601156,202.07707129094413)" stroke="rgb(84.72254335260115,141.2543352601156,202.07707129094413)" stroke-width="1" />
<path d="M 512.50 176.50 C 512.50 183.50, 512.50 190.50, 512.50 197.50 C 512.85 201.61, 511.04 207.05, 515.50 207.50 C 519.83 207.50, 523.17 207.50, 526.50 207.50 C 527.50 199.50, 527.50 192.50, 527.50 185.50 C 527.00 181.73, 529.24 175.69, 524.50 176.50 C 520.17 176.50, 516.83 176.50, 513.50 176.50 Z" fill="rgb(80.2465483234714,139.74950690335305,199.74950690335305)" stroke="rgb(80.2465483234714,139.74950690335305,199.74950690335305)" stroke-width="1" />
<path d="M 497.50 176.50 C 495.34 179.08, 497.04 183.25, 496.50 186.50 C 496.50 190.83, 496.50 194.17, 496.50 197.50 C 496.44 201.62, 496.18 206.35, 498.50 207.50 C 502.83 207.50, 506.17 207.50, 509.50 207.50 C 512.66 204.92, 510.96 200.75, 511.50 197.50 C 511.50 193.17, 511.50 189.83, 511.50 186.50 C 510.77 182.67, 513.30 177.10, 509.50 176.50 C 505.17 176.50, 501.83 176.50, 498.50 176.50 Z" fill="rgb(80.0,140.0,202.0)" stroke="rgb(80.0,140.0,202.0)" stroke-width="1" />
<path d="M 97.50 208.50 C 95.37 210.76, 97.02 214.58, 96.50 217.50 C 96.50 221.83, 96.50 225.17, 96.50 228.50 C 97.23 232.33, 94.70 237.90, 98.50 238.50 C 102.97 238.50, 105.74 240.20, 109.50 239.50 C 112.77 237.44, 110.88 232.21, 111.50 229.50 C 111.50 225.17, 111.50 221.83, 111.50 218.50 C 110.90 214.31, 113.11 209.63, 109.50 208.50 C 105.17 208.50, 101.83 208.50, 98.50 208.50 Z" fill="rgb(83.0,143.0,203.0)" stroke="rgb(83.0,143.0,203.0)" stroke-width="1" />
<path d="M 65.50 192.50 C 63.37 194.76, 65.02 198.58, 64.50 201.50 C 64.50 203.83, 64.50 205.17, 64.50 206.50 C 67.17 207.50, 68.83 207.50, 70.50 207.50 C 74.83 207.50, 78.17 207.50, 81.50 207.50 C 83.83 207.50, 85.17 207.50, 86.50 207.50 C 88.51 205.06, 91.15 209.70, 92.50 206.50 C 95.51 207.17, 94.06 204.40, 94.50 203.50 C 94.79 200.81, 96.09 199.55, 95.50 197.50 C 96.92 191.61, 91.67 192.39, 88.50 192.50 C 80.50 192.50, 73.50 192.50, 66.50 192.50 Z" fill="rgb(82.89357429718875,142.89357429718876,204.89357429718876)" stroke="rgb(82.89357429718875,142.89357429718876,204.89357429718876)" stroke-width="1" />
<path d="M 49.50 48.50 C 47.37 50.76, 49.02 54.58, 48.50 57.50 C 48.50 61.83, 48.50 65.17, 48.50 68.50 C 48.65 72.91, 47.90 76.69, 49.50 79.50 C 53.83 79.50, 57.17 79.50, 60.50 79.50 C 65.30 78.90, 62.77 73.33, 63.50 70.50 C 63.50 66.17, 63.50 62.83, 63.50 59.50 C 61.27 55.81, 63.88 51.12, 61.50 48.50 C 57.17 48.50, 53.83 48.50, 50.50 48.50 Z" fill="rgb(81.04819277108433,136.04819277108433,200.04819277108433)" stroke="rgb(81.04819277108433,136.04819277108433,200.04819277108433)" stroke-width="1" />
<path d="M 90.50 288.50 C 87.17 290.40, 88.93 294.40, 88.50 297.50 C 87.37 302.84, 92.07 303.96, 95.50 303.50 C 99.50 303.50, 102.50 303.50, 105.50 303.50 C 110.19 304.04, 112.71 301.73, 116.50 302.50 C 119.55 301.56, 119.64 297.33, 119.50 294.50 C 119.50 292.17, 119.50 290.83, 119.50 289.50 C 116.83 288.50, 115.17 288.50, 113.50 288.50 C 105.50 288.50, 98.50 288.50, 91.50 288.50 Z" fill="rgb(85.0,145.0,205.0)" stroke="rgb(85.0,145.0,205.0)" stroke-width="1" />
<path d="M 132.50 192.50 C 132.35 194.87, 128.71 192.07, 129.50 194.50 C 128.50 196.83, 128.50 198.17, 128.50 199.50 C 128.39 203.67, 127.61 208.92, 132.50 207.50 C 136.50 207.50, 139.50 207.50, 142.50 207.50 C 146.91 207.65, 150.69 206.90, 153.50 208.50 C 158.25 208.52, 160.52 206.25, 159.50 202.50 C 160.30 199.70, 158.23 199.08, 158.50 197.50 C 158.66 194.58, 156.35 192.96, 154.50 193.50 C 146.83 192.50, 140.17 192.50, 133.50 192.50 Z" fill="rgb(82.0,142.0,202.0)" stroke="rgb(82.0,142.0,202.0)" stroke-width="1" />
<path d="M 545.50 336.50 C 543.89 338.66, 543.89 343.34, 545.50 345.50 C 544.23 350.79, 547.75 352.09, 551.50 351.50 C 559.50 351.50, 566.50 351.50, 573.50 351.50 C 575.02 347.58, 573.37 343.76, 575.50 341.50 C 573.72 339.76, 574.79 337.85, 574.50 336.50 C 571.83 336.50, 570.17 336.50, 568.50 336.50 C 560.50 336.50, 553.50 336.50, 546.50 336.50 Z" fill="rgb(89.0,145.0,204.0)" stroke="rgb(89.0,145.0,204.0)" stroke-width="1" />
<path d="M 561.50 248.50 C 559.37 250.76, 561.02 254.58, 560.50 257.50 C 560.50 261.83, 560.50 265.17, 560.50 268.50 C 560.47 272.79, 560.03 276.25, 562.50 278.50 C 566.83 278.50, 570.17 278.50, 573.50 278.50 C 575.96 275.97, 575.43 272.61, 575.50 269.50 C 575.50 265.17, 575.50 261.83, 575.50 258.50 C 573.40 255.09, 575.78 250.83, 573.50 248.50 C 569.17 248.50, 565.83 248.50, 562.50 248.50 Z" fill="rgb(83.25,142.25,202.25)" stroke="rgb(83.25,142.25,202.25)" stroke-width="1" />
<path d="M 278.50 77.50 C 277.76 79.28, 275.85 78.21, 274.50 78.50 C 271.77 77.77, 272.81 81.50, 270.50 80.50 C 266.87 83.10, 265.79 86.35, 264.50 89.50 C 263.11 93.20, 262.36 96.17, 262.50 99.50 C 261.94 101.40, 260.49 104.17, 262.50 103.50 C 265.08 103.77, 265.70 101.70, 267.50 102.50 C 271.03 101.04, 274.39 101.57, 277.50 101.50 C 279.85 101.21, 281.76 102.28, 282.50 100.50 C 281.70 97.70, 283.77 97.08, 283.50 95.50 C 283.50 91.50, 283.50 88.50, 283.50 85.50 C 284.99 83.83, 284.99 81.17, 283.50 80.50 C 284.04 76.95, 279.91 80.00, 279.50 77.50 Z" fill="rgb(7.671548117154812,37.26987447698745,95.4581589958159)" stroke="rgb(7.671548117154812,37.26987447698745,95.4581589958159)" stroke-width="1" />
<path d="M 434.50 42.50 C 430.49 44.25, 434.18 49.20, 431.50 51.50 C 431.50 55.83, 431.50 59.17, 431.50 62.50 C 430.70 65.30, 432.77 65.92, 432.50 67.50 C 431.86 70.53, 433.47 72.14, 435.50 71.50 C 438.30 70.70, 438.92 72.77, 440.50 72.50 C 442.64 72.90, 445.82 72.96, 445.50 75.50 C 447.35 77.29, 446.69 73.65, 445.50 73.50 C 446.23 70.92, 448.30 70.30, 447.50 68.50 C 447.50 64.17, 447.50 60.83, 447.50 57.50 C 447.21 53.52, 448.57 48.36, 445.50 47.50 C 442.95 47.36, 441.73 46.42, 440.50 45.50 C 439.56 42.09, 436.44 44.91, 435.50 42.50 Z" fill="rgb(77.78271028037383,136.03504672897196,198.90887850467288)" stroke="rgb(77.78271028037383,136.03504672897196,198.90887850467288)" stroke-width="1" />
<path d="M 0.50 367.50 C 0.50 374.17, 0.50 380.83, 0.50 387.50 C 0.50 391.50, 0.50 394.50, 0.50 397.50 C 3.75 397.96, 7.92 399.66, 10.50 397.50 C 13.28 396.76, 12.21 394.85, 12.50 393.50 C 14.28 391.76, 13.21 389.85, 13.50 388.50 C 15.10 384.69, 14.35 380.91, 14.50 377.50 C 13.85 373.97, 16.17 368.83, 12.50 368.50 C 8.35 368.28, 5.11 368.84, 1.50 368.50 Z" fill="rgb(85.92344497607655,144.85167464114832,204.8755980861244)" stroke="rgb(85.92344497607655,144.85167464114832,204.8755980861244)" stroke-width="1" />
<path d="M 288.50 80.50 C 285.11 85.37, 286.98 92.42, 286.50 98.50 C 286.93 101.74, 291.43 99.91, 293.50 100.50 C 297.50 100.50, 300.50 100.50, 303.50 100.50 C 308.43 101.77, 307.47 98.14, 307.50 95.50 C 306.97 91.58, 306.03 88.83, 306.50 85.50 C 306.91 80.09, 302.21 81.79, 299.50 81.50 C 295.97 80.04, 292.61 80.57, 289.50 80.50 Z" fill="rgb(76.34106728538283,13.134570765661254,40.7215777262181)" stroke="rgb(76.34106728538283,13.134570765661254,40.7215777262181)" stroke-width="1" />
<path d="M 456.50 80.50 C 454.77 83.38, 448.69 79.18, 448.50 83.50 C 448.14 89.36, 453.31 86.08, 455.50 88.50 C 456.12 92.57, 456.20 96.81, 460.50 95.50 C 464.83 95.50, 468.17 95.50, 471.50 95.50 C 475.57 95.88, 479.81 95.80, 478.50 91.50 C 479.16 87.32, 480.46 83.56, 478.50 80.50 C 470.83 80.50, 464.17 80.50, 457.50 80.50 Z" fill="rgb(77.0023419203747,137.0023419203747,199.0023419203747)" stroke="rgb(77.0023419203747,137.0023419203747,199.0023419203747)" stroke-width="1" />
<path d="M 290.50 139.50 C 289.76 141.28, 287.85 140.21, 286.50 140.50 C 286.50 143.17, 286.50 144.83, 286.50 146.50 C 286.50 150.83, 286.50 154.17, 286.50 157.50 C 288.66 161.08, 286.96 165.25, 287.50 168.50 C 287.50 171.17, 287.50 172.83, 287.50 174.50 C 287.86 177.53, 289.47 179.14, 291.50 178.50 C 293.24 176.72, 295.15 177.79, 296.50 177.50 C 297.50 174.83, 297.50 173.17, 297.50 171.50 C 298.11 166.44, 296.73 163.21, 296.50 159.50 C 296.50 155.17, 296.50 151.83, 296.50 148.50 C 297.00 143.83, 296.66 138.20, 291.50 139.50 Z" fill="rgb(39.11904761904762,2.461904761904762,30.07857142857143)" stroke="rgb(39.11904761904762,2.461904761904762,30.07857142857143)" stroke-width="1" />
<path d="M 0.50 56.50 C 0.50 62.50, 0.50 68.50, 0.50 74.50 C 0.50 76.50, 0.50 77.50, 0.50 78.50 C 1.85 79.79, 3.76 78.72, 4.50 80.50 C 7.40 81.39, 11.40 79.91, 14.50 80.50 C 15.50 73.50, 15.50 67.50, 15.50 61.50 C 16.28 57.06, 14.94 55.72, 11.50 56.50 C 7.50 56.50, 4.50 56.50, 1.50 56.50 Z" fill="rgb(78.62269129287598,133.622691292876,197.622691292876)" stroke="rgb(78.62269129287598,133.622691292876,197.622691292876)" stroke-width="1" />
<path d="M 246.50 86.50 C 245.15 88.26, 242.51 86.92, 241.50 89.50 C 239.39 92.26, 236.44 93.25, 236.50 95.50 C 234.72 98.26, 232.75 99.52, 232.50 101.50 C 231.81 104.57, 230.57 106.00, 229.50 107.50 C 230.22 110.60, 227.78 111.40, 228.50 113.50 C 228.21 116.19, 226.91 117.45, 227.50 119.50 C 227.21 122.19, 225.91 123.45, 226.50 125.50 C 226.47 127.99, 226.00 131.03, 228.50 130.50 C 231.60 130.22, 232.40 127.78, 234.50 128.50 C 237.39 127.48, 236.14 125.16, 236.50 123.50 C 235.89 118.44, 237.27 115.21, 237.50 111.50 C 237.79 108.81, 239.09 107.55, 238.50 105.50 C 240.91 103.56, 238.09 100.44, 240.50 99.50 C 241.28 96.74, 243.25 95.48, 243.50 93.50 C 244.70 90.17, 247.63 88.97, 247.50 86.50 Z" fill="rgb(8.803664921465968,32.90837696335078,11.384816753926701)" stroke="rgb(8.803664921465968,32.90837696335078,11.384816753926701)" stroke-width="1" />
<path d="M 583.50 144.50 C 582.25 147.28, 576.38 143.29, 577.50 147.50 C 577.50 151.17, 577.50 153.83, 577.50 156.50 C 576.55 161.11, 581.44 158.89, 583.50 159.50 C 586.05 159.04, 587.27 162.22, 588.50 159.50 C 590.24 161.28, 592.15 160.21, 593.50 160.50 C 597.14 160.47, 600.77 161.43, 599.50 157.50 C 599.50 153.83, 599.50 151.17, 599.50 148.50 C 600.77 143.57, 597.14 144.53, 594.50 144.50 C 590.50 144.50, 587.50 144.50, 584.50 144.50 Z" fill="rgb(79.01069518716578,138.2941176470588,200.57219251336898)" stroke="rgb(79.01069518716578,138.2941176470588,200.57219251336898)" stroke-width="1" />
<path d="M 577.50 256.50 C 575.46 258.13, 576.96 261.22, 576.50 263.50 C 576.50 267.17, 576.50 269.83, 576.50 272.50 C 575.75 276.75, 577.29 279.33, 580.50 279.50 C 584.17 279.50, 586.83 279.50, 589.50 279.50 C 592.54 276.87, 591.04 273.78, 591.50 271.50 C 591.50 267.83, 591.50 265.17, 591.50 262.50 C 591.15 258.90, 591.02 255.43, 587.50 256.50 C 583.83 256.50, 581.17 256.50, 578.50 256.50 Z" fill="rgb(85.936,141.936,202.936)" stroke="rgb(85.936,141.936,202.936)" stroke-width="1" />
<path d="M 403.50 40.50 C 403.35 42.87, 399.71 40.07, 400.50 42.50 C 399.96 45.33, 401.24 46.41, 402.50 47.50 C 406.19 46.53, 409.79 48.07, 413.50 47.50 C 419.20 47.48, 413.80 55.52, 418.50 55.50 C 422.83 55.50, 426.17 55.50, 429.50 55.50 C 432.63 53.24, 430.98 49.42, 431.50 46.50 C 431.50 44.17, 431.50 42.83, 431.50 41.50 C 429.83 40.50, 428.17 40.50, 426.50 40.50 C 422.17 40.50, 418.83 40.50, 415.50 40.50 C 410.89 40.16, 407.65 40.72, 404.50 41.50 Z" fill="rgb(77.68096514745308,136.3190348525469,199.0)" stroke="rgb(77.68096514745308,136.3190348525469,199.0)" stroke-width="1" />
<path d="M 489.50 344.50 C 489.50 346.83, 489.50 349.17, 489.50 351.50 C 487.21 354.27, 489.10 358.90, 490.50 359.50 C 496.83 359.50, 502.17 359.50, 507.50 359.50 C 511.77 359.68, 510.10 355.47, 510.50 353.50 C 509.21 349.68, 510.60 346.16, 507.50 344.50 C 501.17 344.50, 495.83 344.50, 490.50 344.50 Z" fill="rgb(88.91520467836257,144.91520467836258,203.91520467836258)" stroke="rgb(88.91520467836257,144.91520467836258,203.91520467836258)" stroke-width="1" />
<path d="M 113.50 192.50 C 111.46 194.13, 112.96 197.22, 112.50 199.50 C 112.50 203.17, 112.50 205.83, 112.50 208.50 C 113.94 211.39, 112.14 215.53, 115.50 214.50 C 119.17 214.50, 121.83 214.50, 124.50 214.50 C 124.63 211.53, 126.62 209.74, 127.50 207.50 C 127.50 203.83, 127.50 201.17, 127.50 198.50 C 128.33 194.61, 126.39 192.67, 123.50 193.50 C 120.56 191.41, 117.10 192.99, 114.50 192.50 Z" fill="rgb(82.0,142.0,203.96825396825398)" stroke="rgb(82.0,142.0,203.96825396825398)" stroke-width="1" />
<path d="M 296.50 293.50 C 295.28 295.89, 293.81 296.41, 292.50 298.50 C 290.69 301.36, 290.20 303.77, 290.50 306.50 C 290.96 309.78, 289.46 312.87, 291.50 314.50 C 293.64 317.32, 293.88 320.61, 297.50 319.50 C 300.58 319.05, 304.26 319.10, 304.50 316.50 C 304.50 313.17, 304.50 310.83, 304.50 308.50 C 305.20 304.74, 302.80 303.26, 303.50 300.50 C 300.74 298.00, 300.13 294.09, 297.50 293.50 Z" fill="rgb(95.42331288343559,73.78220858895706,64.81288343558282)" stroke="rgb(95.42331288343559,73.78220858895706,64.81288343558282)" stroke-width="1" />
<path d="M 104.50 72.50 C 102.46 74.13, 103.96 77.22, 103.50 79.50 C 100.11 80.56, 95.50 79.55, 96.50 83.50 C 96.96 86.78, 95.46 89.87, 97.50 91.50 C 97.90 95.05, 102.07 94.48, 104.50 94.50 C 107.26 93.92, 111.38 95.71, 111.50 93.50 C 111.50 89.83, 111.50 87.17, 111.50 84.50 C 111.50 80.83, 111.50 78.17, 111.50 75.50 C 112.45 70.89, 107.56 73.11, 105.50 72.50 Z" fill="rgb(81.97704918032787,139.97704918032787,202.97704918032787)" stroke="rgb(81.97704918032787,139.97704918032787,202.97704918032787)" stroke-width="1" />
<path d="M 288.50 284.50 C 287.13 286.12, 283.22 285.24, 283.50 288.50 C 283.89 292.24, 287.21 293.98, 289.50 294.50 C 292.47 294.08, 295.18 295.48, 296.50 293.50 C 299.84 293.46, 302.29 297.45, 304.50 294.50 C 307.47 294.56, 310.44 293.72, 310.50 291.50 C 311.10 287.76, 307.54 286.60, 305.50 285.50 C 299.50 284.50, 294.50 284.50, 289.50 284.50 Z" fill="rgb(144.93478260869566,82.65579710144928,33.710144927536234)" stroke="rgb(144.93478260869566,82.65579710144928,33.710144927536234)" stroke-width="1" />
<path d="M 206.50 320.50 C 205.97 322.54, 198.78 321.04, 203.50 321.50 C 208.45 320.50, 207.44 325.11, 207.50 327.50 C 209.30 329.97, 206.70 330.03, 207.50 331.50 C 208.94 333.40, 207.49 336.17, 209.50 335.50 C 213.17 335.50, 215.83 335.50, 218.50 335.50 C 222.39 336.33, 224.33 334.39, 223.50 331.50 C 223.50 327.83, 223.50 325.17, 223.50 322.50 C 223.07 319.26, 218.57 321.09, 216.50 320.50 C 212.83 320.50, 210.17 320.50, 207.50 320.50 Z" fill="rgb(87.9375,147.0,207.0)" stroke="rgb(87.9375,147.0,207.0)" stroke-width="1" />
<path d="M 80.50 224.50 C 80.50 226.50, 80.50 228.50, 80.50 230.50 C 78.75 233.74, 82.35 235.70, 79.50 237.50 C 80.33 240.67, 84.05 238.95, 85.50 239.50 C 88.78 239.04, 91.87 240.54, 93.50 238.50 C 96.67 238.67, 94.95 234.95, 95.50 233.50 C 95.50 230.17, 95.50 227.83, 95.50 225.50 C 90.83 224.50, 86.17 224.50, 81.50 224.50 Z" fill="rgb(83.0,143.0,204.96887159533074)" stroke="rgb(83.0,143.0,204.96887159533074)" stroke-width="1" />
<path d="M 584.50 80.50 C 584.50 84.83, 584.50 89.17, 584.50 93.50 C 589.38 96.73, 594.94 94.91, 599.50 95.50 C 599.50 90.17, 599.50 85.83, 599.50 81.50 C 594.83 80.50, 590.17 80.50, 585.50 80.50 Z" fill="rgb(77.0,135.0,198.0)" stroke="rgb(77.0,135.0,198.0)" stroke-width="1" />
<path d="M 113.50 32.50 C 111.52 33.82, 112.92 36.53, 112.50 38.50 C 112.92 41.47, 111.52 44.18, 113.50 45.50 C 113.33 48.67, 117.05 46.95, 118.50 47.50 C 121.50 47.50, 123.50 47.50, 125.50 47.50 C 128.72 43.95, 126.92 38.73, 127.50 34.50 C 127.67 31.33, 123.95 33.05, 122.50 32.50 C 119.17 32.50, 116.83 32.50, 114.50 32.50 Z" fill="rgb(82.0,137.0,201.0)" stroke="rgb(82.0,137.0,201.0)" stroke-width="1" />
<path d="M 497.50 160.50 C 495.28 164.05, 497.08 169.27, 496.50 173.50 C 497.82 176.48, 500.53 175.08, 502.50 175.50 C 505.47 175.08, 508.18 176.48, 509.50 174.50 C 512.67 174.67, 510.95 170.95, 511.50 169.50 C 511.50 166.50, 511.50 164.50, 511.50 162.50 C 507.95 159.28, 502.73 161.08, 498.50 160.50 Z" fill="rgb(79.0,139.0,199.0)" stroke="rgb(79.0,139.0,199.0)" stroke-width="1" />
<path d="M 560.50 248.50 C 560.50 252.83, 560.50 257.17, 560.50 261.50 C 560.33 264.67, 564.05 262.95, 565.50 263.50 C 568.83 263.50, 571.17 263.50, 573.50 263.50 C 576.89 261.33, 573.10 259.37, 575.50 257.50 C 575.50 254.50, 575.50 252.50, 575.50 250.50 C 574.67 247.33, 570.95 249.05, 569.50 248.50 C 566.17 248.50, 563.83 248.50, 561.50 248.50 Z" fill="rgb(82.99203187250995,141.99203187250995,201.99203187250995)" stroke="rgb(82.99203187250995,141.99203187250995,201.99203187250995)" stroke-width="1" />
<path d="M 8.50 79.50 C 6.02 80.32, 6.43 82.05, 6.50 84.50 C 6.50 87.83, 6.50 90.17, 6.50 92.50 C 6.50 95.83, 6.50 98.17, 6.50 100.50 C 6.32 104.77, 10.53 103.10, 12.50 103.50 C 16.86 104.53, 15.06 100.39, 15.50 98.50 C 15.50 95.17, 15.50 92.83, 15.50 90.50 C 15.50 87.17, 15.50 84.83, 15.50 82.50 C 15.82 78.63, 10.68 78.89, 9.50 80.50 Z" fill="rgb(79.97142857142858,134.97142857142856,198.97142857142856)" stroke="rgb(79.97142857142858,134.97142857142856,198.97142857142856)" stroke-width="1" />
<path d="M 0.50 368.50 C 0.50 372.83, 0.50 377.17, 0.50 381.50 C 1.82 384.48, 4.53 383.08, 6.50 383.50 C 9.97 384.29, 11.19 382.08, 13.50 382.50 C 15.23 380.67, 15.87 378.79, 15.50 376.50 C 15.87 373.21, 15.23 371.33, 14.50 369.50 C 10.17 368.50, 5.83 368.50, 1.50 368.50 Z" fill="rgb(87.83673469387755,143.83673469387756,204.83673469387756)" stroke="rgb(87.83673469387755,143.83673469387756,204.83673469387756)" stroke-width="1" />
<path d="M 451.50 256.50 C 447.83 258.26, 448.54 263.37, 448.50 267.50 C 449.96 270.34, 449.20 272.42, 452.50 271.50 C 455.50 271.50, 457.50 271.50, 459.50 271.50 C 463.26 272.37, 463.96 269.64, 463.50 267.50 C 463.50 264.50, 463.50 262.50, 463.50 260.50 C 464.37 256.74, 461.64 256.04, 459.50 256.50 C 456.50 256.50, 454.50 256.50, 452.50 256.50 Z" fill="rgb(85.0,144.0,202.0)" stroke="rgb(85.0,144.0,202.0)" stroke-width="1" />
<path d="M 580.50 328.50 C 579.55 330.46, 576.42 328.40, 577.50 331.50 C 576.50 334.50, 576.50 336.50, 576.50 338.50 C 576.04 341.64, 576.74 344.37, 579.50 343.50 C 582.50 343.50, 584.50 343.50, 586.50 343.50 C 589.64 343.96, 592.37 343.26, 591.50 340.50 C 591.50 337.50, 591.50 335.50, 591.50 333.50 C 592.68 326.83, 585.21 328.86, 581.50 328.50 Z" fill="rgb(88.0,144.0,203.0)" stroke="rgb(88.0,144.0,203.0)" stroke-width="1" />
<path d="M 560.50 264.50 C 561.08 268.73, 559.28 273.95, 561.50 277.50 C 563.22 278.88, 565.93 280.85, 567.50 278.50 C 571.01 278.91, 571.61 278.82, 574.50 278.50 C 575.50 273.17, 575.50 268.83, 575.50 264.50 C 570.17 264.50, 565.83 264.50, 561.50 264.50 Z" fill="rgb(84.0,143.0,203.0)" stroke="rgb(84.0,143.0,203.0)" stroke-width="1" />
<path d="M 0.50 288.50 C 0.50 292.83, 0.50 297.17, 0.50 301.50 C 0.33 304.67, 4.05 302.95, 5.50 303.50 C 8.50 303.50, 10.50 303.50, 12.50 303.50 C 17.35 300.49, 14.74 294.79, 15.50 290.50 C 9.71 290.28, 6.14 288.08, 1.50 288.50 Z" fill="rgb(84.0,143.0,203.0)" stroke="rgb(84.0,143.0,203.0)" stroke-width="1" />
<path d="M 98.50 192.50 C 94.63 194.06, 97.27 199.80, 96.50 203.50 C 96.67 206.90, 98.00 208.08, 100.50 207.50 C 103.50 207.50, 105.50 207.50, 107.50 207.50 C 111.30 208.38, 110.45 205.01, 111.50 203.50 C 111.50 200.50, 111.50 198.50, 111.50 196.50 C 110.88 192.37, 108.18 194.56, 106.50 192.50 C 103.50 192.50, 101.50 192.50, 99.50 192.50 Z" fill="rgb(82.0,142.0,202.0)" stroke="rgb(82.0,142.0,202.0)" stroke-width="1" />
<path d="M 33.50 352.50 C 31.41 354.44, 32.99 357.90, 32.50 360.50 C 32.50 364.17, 32.50 366.83, 32.50 369.50 C 32.99 373.10, 31.41 376.56, 33.50 378.50 C 32.23 383.43, 35.86 382.47, 38.50 382.50 C 39.50 376.83, 39.50 371.17, 39.50 365.50 C 39.50 361.83, 39.50 359.17, 39.50 356.50 C 40.77 351.57, 37.14 352.53, 34.50 352.50 Z" fill="rgb(87.0,146.0,205.0495867768595)" stroke="rgb(87.0,146.0,205.0495867768595)" stroke-width="1" />
<path d="M 497.50 112.50 C 495.30 115.73, 497.07 120.60, 496.50 124.50 C 496.12 128.45, 499.79 127.29, 501.50 127.50 C 504.50 127.50, 506.50 127.50, 508.50 127.50 C 512.45 127.88, 511.29 124.21, 511.50 122.50 C 510.91 118.99, 510.82 118.39, 510.50 115.50 C 509.80 111.03, 508.01 113.71, 505.50 113.50 C 503.18 111.52, 500.47 112.92, 498.50 112.50 Z" fill="rgb(77.77685950413223,137.77685950413223,197.77685950413223)" stroke="rgb(77.77685950413223,137.77685950413223,197.77685950413223)" stroke-width="1" />
<path d="M 161.50 367.50 C 157.57 370.81, 160.32 376.90, 159.50 381.50 C 159.92 384.47, 158.52 387.18, 160.50 388.50 C 159.52 392.91, 163.25 392.70, 165.50 392.50 C 167.89 392.22, 168.39 389.28, 168.50 387.50 C 168.50 384.17, 168.50 381.83, 168.50 379.50 C 168.50 376.17, 168.50 373.83, 168.50 371.50 C 168.55 367.26, 164.06 369.13, 162.50 367.50 Z" fill="rgb(88.94238683127573,148.06584362139918,206.00411522633746)" stroke="rgb(88.94238683127573,148.06584362139918,206.00411522633746)" stroke-width="1" />
<path d="M 209.50 368.50 C 210.26 372.95, 207.93 376.13, 208.50 380.50 C 208.12 384.45, 211.79 383.29, 213.50 383.50 C 216.50 383.50, 218.50 383.50, 220.50 383.50 C 224.45 383.88, 223.29 380.21, 223.50 378.50 C 223.92 375.19, 221.71 373.97, 222.50 371.50 C 222.88 367.55, 219.21 368.71, 217.50 368.50 C 214.53 368.92, 211.82 367.52, 210.50 369.50 Z" fill="rgb(89.0,148.0,206.0)" stroke="rgb(89.0,148.0,206.0)" stroke-width="1" />
<path d="M 419.50 288.50 C 418.43 290.00, 417.19 291.43, 417.50 293.50 C 415.52 295.82, 416.92 298.53, 416.50 300.50 C 416.12 304.45, 419.79 303.29, 421.50 303.50 C 424.50 303.50, 426.50 303.50, 428.50 303.50 C 430.94 303.56, 431.72 301.11, 431.50 299.50 C 431.08 296.53, 432.48 293.82, 430.50 292.50 C 432.29 288.95, 430.19 288.03, 427.50 288.50 C 424.50 288.50, 422.50 288.50, 420.50 288.50 Z" fill="rgb(86.0,145.0,203.0)" stroke="rgb(86.0,145.0,203.0)" stroke-width="1" />
<path d="M 318.50 82.50 C 318.59 84.74, 319.34 86.70, 320.50 88.50 C 320.08 91.81, 322.29 93.03, 321.50 95.50 C 324.01 97.74, 320.99 101.26, 323.50 102.50 C 326.97 101.71, 328.19 103.92, 330.50 103.50 C 334.35 101.70, 330.75 99.74, 331.50 97.50 C 331.00 94.43, 330.00 92.57, 329.50 90.50 C 328.18 87.63, 327.10 85.67, 326.50 83.50 C 324.18 81.52, 321.47 82.92, 319.50 82.50 Z" fill="rgb(170.60849056603774,30.2311320754717,33.910377358490564)" stroke="rgb(170.60849056603774,30.2311320754717,33.910377358490564)" stroke-width="1" />
<path d="M 256.50 82.50 C 254.78 84.17, 252.07 83.47, 250.50 85.50 C 246.72 88.37, 246.28 91.21, 244.50 93.50 C 242.43 96.39, 241.10 98.59, 241.50 101.50 C 241.76 104.70, 237.56 107.98, 240.50 108.50 C 243.74 108.41, 245.70 107.66, 247.50 106.50 C 249.46 103.70, 247.82 100.42, 249.50 98.50 C 250.46 95.15, 250.65 92.48, 252.50 90.50 C 253.90 87.06, 256.10 84.94, 257.50 82.50 Z" fill="rgb(3.9641025641025642,9.574358974358974,12.923076923076923)" stroke="rgb(3.9641025641025642,9.574358974358974,12.923076923076923)" stroke-width="1" />
<path d="M 97.50 160.50 C 95.61 161.52, 96.86 163.84, 96.50 165.50 C 97.82 168.48, 100.53 167.08, 102.50 167.50 C 103.50 170.50, 103.50 172.50, 103.50 174.50 C 106.50 175.50, 108.50 175.50, 110.50 175.50 C 111.50 170.50, 111.50 166.50, 111.50 162.50 C 110.67 159.33, 106.95 161.05, 105.50 160.50 C 102.50 160.50, 100.50 160.50, 98.50 160.50 Z" fill="rgb(81.00531914893617,141.00531914893617,201.00531914893617)" stroke="rgb(81.00531914893617,141.00531914893617,201.00531914893617)" stroke-width="1" />
<path d="M 283.50 257.50 C 282.83 259.78, 280.17 257.22, 279.50 259.50 C 277.09 261.11, 274.91 260.89, 273.50 262.50 C 269.86 266.57, 272.25 271.35, 275.50 272.50 C 279.18 269.93, 282.72 268.43, 286.50 267.50 C 290.01 265.12, 287.52 263.10, 287.50 261.50 C 288.14 258.47, 286.53 256.86, 284.50 257.50 Z" fill="rgb(81.83505154639175,40.11340206185567,5.190721649484536)" stroke="rgb(81.83505154639175,40.11340206185567,5.190721649484536)" stroke-width="1" />
<path d="M 447.50 64.50 C 446.38 65.83, 443.49 68.17, 445.50 69.50 C 444.50 72.17, 444.50 73.83, 444.50 75.50 C 444.44 78.23, 444.00 80.34, 446.50 79.50 C 448.52 81.39, 450.84 80.14, 452.50 80.50 C 457.41 79.61, 454.69 73.63, 455.50 70.50 C 455.50 67.83, 455.50 66.17, 455.50 64.50 C 452.50 64.50, 450.50 64.50, 448.50 64.50 Z" fill="rgb(77.96354166666667,136.03645833333334,199.0)" stroke="rgb(77.96354166666667,136.03645833333334,199.0)" stroke-width="1" />
<path d="M 5.50 240.50 C 5.50 243.83, 5.50 247.17, 5.50 250.50 C 5.66 252.65, 6.26 254.74, 7.50 254.50 C 10.55 256.09, 11.81 254.79, 13.50 254.50 C 16.66 251.92, 14.96 247.75, 15.50 244.50 C 16.15 238.48, 9.50 241.17, 6.50 240.50 Z" fill="rgb(82.14545454545454,141.14545454545456,201.14545454545456)" stroke="rgb(82.14545454545454,141.14545454545456,201.14545454545456)" stroke-width="1" />
<path d="M 560.50 320.50 C 561.00 323.27, 558.76 329.31, 563.50 328.50 C 567.83 328.50, 571.17 328.50, 574.50 328.50 C 574.68 325.99, 577.44 319.89, 573.50 320.50 C 568.83 320.50, 565.17 320.50, 561.50 320.50 Z" fill="rgb(88.0,144.0,203.0)" stroke="rgb(88.0,144.0,203.0)" stroke-width="1" />
<path d="M 10.50 1.50 C 6.72 2.45, 7.45 6.19, 7.50 9.50 C 6.89 14.10, 8.80 16.51, 12.50 15.50 C 17.30 16.30, 14.77 10.77, 15.50 8.50 C 15.88 4.43, 15.80 0.19, 11.50 1.50 Z" fill="rgb(72.87692307692308,130.87692307692308,193.87692307692308)" stroke="rgb(72.87692307692308,130.87692307692308,193.87692307692308)" stroke-width="1" />
<path d="M 104.50 240.50 C 105.01 243.32, 102.71 248.95, 107.50 247.50 C 111.83 247.50, 115.17 247.50, 118.50 247.50 C 118.99 244.68, 121.29 239.05, 116.50 240.50 C 112.17 240.50, 108.83 240.50, 105.50 240.50 Z" fill="rgb(83.0,143.0,203.0)" stroke="rgb(83.0,143.0,203.0)" stroke-width="1" />
<path d="M 80.50 80.50 C 80.50 83.83, 80.50 87.17, 80.50 90.50 C 80.50 92.83, 80.50 94.17, 80.50 95.50 C 83.17 95.50, 84.83 95.50, 86.50 95.50 C 87.50 92.17, 87.50 88.83, 87.50 85.50 C 87.50 83.17, 87.50 81.83, 87.50 80.50 C 84.83 80.50, 83.17 80.50, 81.50 80.50 Z" fill="rgb(81.0,139.0,202.0)" stroke="rgb(81.0,139.0,202.0)" stroke-width="1" />
<path d="M 520.50 336.50 C 521.23 338.77, 518.70 344.30, 522.50 343.50 C 525.66 344.24, 530.11 343.00, 533.50 343.50 C 536.26 341.76, 536.50 335.36, 532.50 336.50 C 528.17 336.50, 524.83 336.50, 521.50 336.50 Z" fill="rgb(89.0,145.0,204.0)" stroke="rgb(89.0,145.0,204.0)" stroke-width="1" />
<path d="M 193.50 304.50 C 192.17 305.96, 191.13 312.46, 194.50 311.50 C 198.83 311.50, 202.17 311.50, 205.50 311.50 C 208.51 312.17, 207.06 309.40, 207.50 308.50 C 207.80 306.19, 207.38 303.93, 205.50 304.50 C 201.17 304.50, 197.83 304.50, 194.50 304.50 Z" fill="rgb(87.0,147.0,207.0)" stroke="rgb(87.0,147.0,207.0)" stroke-width="1" />
<path d="M 114.50 208.50 C 111.44 209.78, 112.06 215.10, 114.50 215.50 C 118.50 215.50, 121.50 215.50, 124.50 215.50 C 127.38 216.07, 127.80 213.81, 127.50 212.50 C 128.18 209.18, 126.61 209.90, 125.50 208.50 C 121.50 208.50, 118.50 208.50, 115.50 208.50 Z" fill="rgb(82.0,142.0,202.0)" stroke="rgb(82.0,142.0,202.0)" stroke-width="1" />
<path d="M 449.50 289.50 C 447.55 291.06, 447.87 296.71, 451.50 295.50 C 455.50 295.50, 458.50 295.50, 461.50 295.50 C 464.45 293.94, 464.13 288.29, 460.50 289.50 C 456.50 289.50, 453.50 289.50, 450.50 289.50 Z" fill="rgb(85.0,144.0,202.0)" stroke="rgb(85.0,144.0,202.0)" stroke-width="1" />
<path d="M 560.50 16.50 C 560.50 18.83, 560.50 21.17, 560.50 23.50 C 559.47 27.86, 563.61 26.06, 565.50 26.50 C 568.31 24.64, 568.80 22.23, 568.50 19.50 C 568.44 15.00, 563.74 17.04, 561.50 16.50 Z" fill="rgb(73.02105263157895,133.02105263157895,195.02105263157895)" stroke="rgb(73.02105263157895,133.02105263157895,195.02105263157895)" stroke-width="1" />
<path d="M 473.50 383.50 C 471.52 384.82, 472.92 387.53, 472.50 389.50 C 471.57 393.01, 476.02 394.77, 477.50 392.50 C 480.67 392.67, 478.95 388.95, 479.50 387.50 C 480.48 383.09, 476.75 383.30, 474.50 383.50 Z" fill="rgb(90.92592592592592,146.92592592592592,205.92592592592592)" stroke="rgb(90.92592592592592,146.92592592592592,205.92592592592592)" stroke-width="1" />
<path d="M 120.50 72.50 C 120.50 74.50, 120.50 76.50, 120.50 78.50 C 122.50 79.50, 124.50 79.50, 126.50 79.50 C 127.50 77.50, 127.50 75.50, 127.50 73.50 C 125.50 72.50, 123.50 72.50, 121.50 72.50 Z" fill="rgb(82.0,140.0,203.0)" stroke="rgb(82.0,140.0,203.0)" stroke-width="1" />
<path d="M 80.50 304.50 C 80.50 306.50, 80.50 308.50, 80.50 310.50 C 82.50 311.50, 84.50 311.50, 86.50 311.50 C 87.50 309.50, 87.50 307.50, 87.50 305.50 C 85.50 304.50, 83.50 304.50, 81.50 304.50 Z" fill="rgb(85.0,145.0,205.0)" stroke="rgb(85.0,145.0,205.0)" stroke-width="1" />
<path d="M 536.50 336.50 C 536.50 338.50, 536.50 340.50, 536.50 342.50 C 538.50 343.50, 540.50 343.50, 542.50 343.50 C 543.50 341.50, 543.50 339.50, 543.50 337.50 C 541.50 336.50, 539.50 336.50, 537.50 336.50 Z" fill="rgb(88.0,144.0,203.0)" stroke="rgb(88.0,144.0,203.0)" stroke-width="1" />
<path d="M 376.50 352.50 C 376.50 354.17, 376.50 355.83, 376.50 357.50 C 376.33 360.67, 380.05 358.95, 381.50 359.50 C 384.67 359.67, 382.95 355.95, 383.50 354.50 C 382.18 351.52, 379.47 352.92, 377.50 352.50 Z" fill="rgb(89.0,148.0,206.0)" stroke="rgb(89.0,148.0,206.0)" stroke-width="1" />
<path d="M 121.50 304.50 C 119.61 305.52, 120.86 307.84, 120.50 309.50 C 120.33 312.67, 124.05 310.95, 125.50 311.50 C 128.61 311.94, 127.00 308.66, 127.50 307.50 C 127.88 303.55, 124.21 304.71, 122.50 304.50 Z" fill="rgb(86.0,145.0,205.0)" stroke="rgb(86.0,145.0,205.0)" stroke-width="1" />
<path d="M 96.50 168.50 C 96.50 170.17, 96.50 171.83, 96.50 173.50 C 97.82 176.48, 100.53 175.08, 102.50 175.50 C 103.50 173.83, 103.50 172.17, 103.50 170.50 C 102.18 167.52, 99.47 168.92, 97.50 168.50 Z" fill="rgb(82.0,142.0,202.0)" stroke="rgb(82.0,142.0,202.0)" stroke-width="1" />
<path d="M 266.50 252.50 C 265.07 254.60, 261.76 255.92, 261.50 258.50 C 261.50 261.83, 261.50 264.17, 261.50 266.50 C 264.10 267.26, 264.05 263.58, 264.50 261.50 C 263.85 257.49, 267.65 256.31, 267.50 253.50 Z" fill="rgb(72.98305084745763,31.593220338983052,34.983050847457626)" stroke="rgb(72.98305084745763,31.593220338983052,34.983050847457626)" stroke-width="1" />
<path d="M 96.50 257.50 C 96.50 259.17, 96.50 260.83, 96.50 262.50 C 98.50 263.50, 100.50 263.50, 102.50 263.50 C 103.50 261.83, 103.50 260.17, 103.50 258.50 C 101.50 257.50, 99.50 257.50, 97.50 257.50 Z" fill="rgb(84.42857142857143,144.42857142857142,204.42857142857142)" stroke="rgb(84.42857142857143,144.42857142857142,204.42857142857142)" stroke-width="1" />
<path d="M 520.50 208.50 C 520.50 210.17, 520.50 211.83, 520.50 213.50 C 523.17 213.50, 524.83 213.50, 526.50 213.50 C 527.50 211.83, 527.50 210.17, 527.50 208.50 C 524.83 208.50, 523.17 208.50, 521.50 208.50 Z" fill="rgb(80.5,139.5,199.5)" stroke="rgb(80.5,139.5,199.5)" stroke-width="1" />
<path d="M 562.50 376.50 C 563.23 378.77, 560.70 384.30, 564.50 383.50 C 564.77 381.23, 567.30 375.70, 563.50 376.50 Z" fill="rgb(90.0,144.0,204.0)" stroke="rgb(90.0,144.0,204.0)" stroke-width="1" />
</svg>