<svg xmlns="http://www.w3.org/2000/svg" width="600" height="400" viewbox="0 0 600 400">
<path d="M 0.50 0.50 C 0.50 69.83, 0.50 139.17, 0.50 208.50 C 0.50 260.50, 0.50 311.50, 0.50 362.50 C 0.50 372.17, 0.50 380.83, 0.50 389.50 C 1.10 394.24, -1.72 401.39, 4.50 399.50 C 9.83 399.50, 14.17 399.50, 18.50 399.50 C 21.83 399.50, 24.17 399.50, 26.50 399.50 C 30.17 399.50, 32.83 399.50, 35.50 399.50 C 39.17 399.50, 41.83 399.50, 44.50 399.50 C 48.17 399.50, 50.83 399.50, 53.50 399.50 C 57.17 399.50, 59.83 399.50, 62.50 399.50 C 66.17 399.50, 68.83 399.50, 71.50 399.50 C 75.17 399.50, 77.83 399.50, 80.50 399.50 C 84.17 399.50, 86.83 399.50, 89.50 399.50 C 93.17 399.50, 95.83 399.50, 98.50 399.50 C 102.17 399.50, 104.83 399.50, 107.50 399.50 C 111.17 399.50, 113.83 399.50, 116.50 399.50 C 120.17 399.50, 122.83 399.50, 125.50 399.50 C 129.17 399.50, 131.83 399.50, 134.50 399.50 C 138.17 399.50, 140.83 399.50, 143.50 399.50 C 147.17 399.50, 149.83 399.50, 152.50 399.50 C 156.17 399.50, 158.83 399.50, 161.50 399.50 C 166.50 399.50, 170.50 399.50, 174.50 399.50 C 179.83 399.50, 184.17 399.50, 188.50 399.50 C 193.50 399.50, 197.50 399.50, 201.50 399.50 C 206.83 399.50, 211.17 399.50, 215.50 399.50 C 220.50 399.50, 224.50 399.50, 228.50 399.50 C 233.83 399.50, 238.17 399.50, 242.50 399.50 C 247.83 399.50, 252.17 399.50, 256.50 399.50 C 261.83 399.50, 266.17 399.50, 270.50 399.50 C 275.50 399.50, 279.50 399.50, 283.50 399.50 C 288.83 399.50, 293.17 399.50, 297.50 399.50 C 302.50 399.50, 306.50 399.50, 310.50 399.50 C 315.83 399.50, 320.17 399.50, 324.50 399.50 C 329.50 399.50, 333.50 399.50, 337.50 399.50 C 342.83 399.50, 347.17 399.50, 351.50 399.50 C 356.83 399.50, 361.17 399.50, 365.50 399.50 C 370.83 399.50, 375.17 399.50, 379.50 399.50 C 384.50 399.50, 388.50 399.50, 392.50 399.50 C 397.83 399.50, 402.17 399.50, 406.50 399.50 C 411.50 399.50, 415.50 399.50, 419.50 399.50 C 424.83 399.50, 429.17 399.50, 433.50 399.50 C 438.50 399.50, 442.50 399.50, 446.50 399.50 C 451.83 399.50, 456.17 399.50, 460.50 399.50 C 465.83 399.50, 470.17 399.50, 474.50 399.50 C 479.83 399.50, 484.17 399.50, 488.50 399.50 C 493.50 399.50, 497.50 399.50, 501.50 399.50 C 506.83 399.50, 511.17 399.50, 515.50 399.50 C 520.83 399.50, 525.17 399.50, 529.50 399.50 C 534.83 399.50, 539.17 399.50, 543.50 399.50 C 548.50 399.50, 552.50 399.50, 556.50 399.50 C 561.83 399.50, 566.17 399.50, 570.50 399.50 C 575.83 399.50, 580.17 399.50, 584.50 399.50 C 589.83 399.50, 594.17 399.50, 598.50 399.50 C 599.50 266.83, 599.50 134.17, 599.50 1.50 C 596.83 0.50, 594.17 0.50, 591.50 0.50 C 587.50 0.50, 584.50 0.50, 581.50 0.50 C 578.17 0.50, 575.83 0.50, 573.50 0.50 C 569.83 0.50, 567.17 0.50, 564.50 0.50 C 560.83 0.50, 558.17 0.50, 555.50 0.50 C 551.83 0.50, 549.17 0.50, 546.50 0.50 C 542.83 0.50, 540.17 0.50, 537.50 0.50 C 533.83 0.50, 531.17 0.50, 528.50 0.50 C 524.83 0.50, 522.17 0.50, 519.50 0.50 C 515.83 0.50, 513.17 0.50, 510.50 0.50 C 506.83 0.50, 504.17 0.50, 501.50 0.50 C 497.83 0.50, 495.17 0.50, 492.50 0.50 C 488.83 0.50, 486.17 0.50, 483.50 0.50 C 479.83 0.50, 477.17 0.50, 474.50 0.50 C 470.83 0.50, 468.17 0.50, 465.50 0.50 C 461.83 0.50, 459.17 0.50, 456.50 0.50 C 452.83 0.50, 450.17 0.50, 447.50 0.50 C 443.83 0.50, 441.17 0.50, 438.50 0.50 C 433.50 0.50, 429.50 0.50, 425.50 0.50 C 420.17 0.50, 415.83 0.50, 411.50 0.50 C 406.50 0.50, 402.50 0.50, 398.50 0.50 C 393.17 0.50, 388.83 0.50, 384.50 0.50 C 379.50 0.50, 375.50 0.50, 371.50 0.50 C 366.17 0.50, 361.83 0.50, 357.50 0.50 C 352.17 0.50, 347.83 0.50, 343.50 0.50 C 338.17 0.50, 333.83 0.50, 329.50 0.50 C 324.50 0.50, 320.50 0.50, 316.50 0.50 C 311.17 0.50, 306.83 0.50, 302.50 0.50 C 297.50 0.50, 293.50 0.50, 289.50 0.50 C 284.17 0.50, 279.83 0.50, 275.50 0.50 C 270.50 0.50, 266.50 0.50, 262.50 0.50 C 257.17 0.50, 252.83 0.50, 248.50 0.50 C 243.17 0.50, 238.83 0.50, 234.50 0.50 C 229.17 0.50, 224.83 0.50, 220.50 0.50 C 215.50 0.50, 211.50 0.50, 207.50 0.50 C 202.17 0.50, 197.83 0.50, 193.50 0.50 C 188.50 0.50, 184.50 0.50, 180.50 0.50 C 175.17 0.50, 170.83 0.50, 166.50 0.50 C 161.50 0.50, 157.50 0.50, 153.50 0.50 C 148.17 0.50, 143.83 0.50, 139.50 0.50 C 134.17 0.50, 129.83 0.50, 125.50 0.50 C 120.17 0.50, 115.83 0.50, 111.50 0.50 C 106.50 0.50, 102.50 0.50, 98.50 0.50 C 93.17 0.50, 88.83 0.50, 84.50 0.50 C 79.17 0.50, 74.83 0.50, 70.50 0.50 C 65.17 0.50, 60.83 0.50, 56.50 0.50 C 51.50 0.50, 47.50 0.50, 43.50 0.50 C 38.17 0.50, 33.83 0.50, 29.50 0.50 C 24.17 0.50, 19.83 0.50, 15.50 0.50 C 10.17 0.50, 5.83 0.50, 1.50 0.50 Z" fill="rgb(81.27268581851345,140.8563611491108,200.98951208390332)" stroke="rgb(81.27268581851345,140.8563611491108,200.98951208390332)" stroke-width="1" />
<path d="M 0.50 2.50 C 0.50 6.17, 0.50 9.83, 0.50 13.50 C 0.50 18.17, 0.50 21.83, 0.50 25.50 C 0.50 30.17, 0.50 33.83, 0.50 37.50 C 0.50 42.50, 0.50 46.50, 0.50 50.50 C 0.50 59.50, 0.50 67.50, 0.50 75.50 C 0.50 80.17, 0.50 83.83, 0.50 87.50 C 0.50 92.50, 0.50 96.50, 0.50 100.50 C 0.50 105.17, 0.50 108.83, 0.50 112.50 C 0.50 117.17, 0.50 120.83, 0.50 124.50 C 0.50 129.17, 0.50 132.83, 0.50 136.50 C 0.50 141.50, 0.50 145.50, 0.50 149.50 C 0.50 154.17, 0.50 157.83, 0.50 161.50 C 0.50 166.50, 0.50 170.50, 0.50 174.50 C 0.50 179.17, 0.50 182.83, 0.50 186.50 C 0.50 191.50, 0.50 195.50, 0.50 199.50 C 0.50 204.17, 0.50 207.83, 0.50 211.50 C 0.50 216.17, 0.50 219.83, 0.50 223.50 C 0.50 228.17, 0.50 231.83, 0.50 235.50 C 0.50 240.50, 0.50 244.50, 0.50 248.50 C 0.50 253.17, 0.50 256.83, 0.50 260.50 C 0.50 265.50, 0.50 269.50, 0.50 273.50 C 0.50 282.50, 0.50 290.50, 0.50 298.50 C 0.50 303.17, 0.50 306.83, 0.50 310.50 C 0.50 315.50, 0.50 319.50, 0.50 323.50 C 0.50 328.17, 0.50 331.83, 0.50 335.50 C 0.50 340.50, 0.50 344.50, 0.50 348.50 C 0.50 353.17, 0.50 356.83, 0.50 360.50 C 0.50 365.50, 0.50 369.50, 0.50 373.50 C 0.50 382.50, 0.50 390.50, 0.50 398.50 C 5.41 398.23, 7.29 398.62, 10.50 397.50 C 14.50 398.50, 17.50 398.50, 20.50 398.50 C 25.11 398.84, 28.35 398.28, 31.50 397.50 C 35.67 398.41, 37.74 397.17, 41.50 397.50 C 45.20 400.41, 48.17 396.33, 51.50 397.50 C 55.00 398.58, 56.73 396.77, 59.50 397.50 C 63.17 397.50, 65.83 397.50, 68.50 397.50 C 75.11 396.43, 82.23 397.98, 88.50 397.50 C 95.50 397.50, 101.50 397.50, 107.50 397.50 C 111.03 397.04, 114.39 397.57, 117.50 397.50 C 122.83 397.50, 127.17 397.50, 131.50 397.50 C 137.17 397.50, 141.83 397.50, 146.50 397.50 C 151.50 397.50, 155.50 397.50, 159.50 397.50 C 164.50 397.50, 168.50 397.50, 172.50 397.50 C 177.50 397.50, 181.50 397.50, 185.50 397.50 C 190.83 397.50, 195.17 397.50, 199.50 397.50 C 203.50 397.50, 206.50 397.50, 209.50 397.50 C 213.50 397.50, 216.50 397.50, 219.50 397.50 C 223.50 397.50, 226.50 397.50, 229.50 397.50 C 233.83 397.50, 237.17 397.50, 240.50 397.50 C 244.50 397.50, 247.50 397.50, 250.50 397.50 C 254.50 397.50, 257.50 397.50, 260.50 397.50 C 264.50 397.50, 267.50 397.50, 270.50 397.50 C 274.83 397.50, 278.17 397.50, 281.50 397.50 C 285.50 397.50, 288.50 397.50, 291.50 397.50 C 295.50 397.50, 298.50 397.50, 301.50 397.50 C 305.50 397.50, 308.50 397.50, 311.50 397.50 C 315.83 397.50, 319.17 397.50, 322.50 397.50 C 336.83 397.50, 350.17 397.50, 363.50 397.50 C 378.50 397.50, 392.50 397.50, 406.50 397.50 C 417.17 397.50, 426.83 397.50, 436.50 397.50 C 442.02 397.01, 447.40 397.58, 452.50 397.50 C 455.83 397.50, 458.17 397.50, 460.50 397.50 C 464.17 397.50, 466.83 397.50, 469.50 397.50 C 473.63 397.06, 475.77 399.73, 478.50 397.50 C 483.35 398.27, 485.65 398.27, 489.50 397.50 C 494.33 399.34, 498.14 395.53, 501.50 398.50 C 505.26 399.20, 506.74 396.80, 509.50 397.50 C 512.91 400.42, 515.58 396.59, 518.50 397.50 C 522.23 399.73, 524.37 397.06, 527.50 397.50 C 530.57 398.69, 532.43 398.69, 534.50 397.50 C 538.26 396.80, 539.74 399.20, 542.50 398.50 C 546.55 396.90, 548.80 398.25, 551.50 398.50 C 555.55 396.90, 557.80 398.25, 560.50 398.50 C 563.78 397.96, 566.87 396.46, 568.50 398.50 C 571.53 397.44, 573.95 397.32, 576.50 397.50 C 581.87 395.93, 586.35 399.89, 590.50 397.50 C 594.42 398.80, 601.49 400.23, 599.50 394.50 C 599.50 389.83, 599.50 386.17, 599.50 382.50 C 599.50 377.83, 599.50 374.17, 599.50 370.50 C 599.50 365.83, 599.50 362.17, 599.50 358.50 C 599.50 353.50, 599.50 349.50, 599.50 345.50 C 599.50 340.83, 599.50 337.17, 599.50 333.50 C 599.50 328.83, 599.50 325.17, 599.50 321.50 C 599.50 316.83, 599.50 313.17, 599.50 309.50 C 599.50 304.50, 599.50 300.50, 599.50 296.50 C 599.50 291.83, 599.50 288.17, 599.50 284.50 C 599.50 279.83, 599.50 276.17, 599.50 272.50 C 599.50 267.83, 599.50 264.17, 599.50 260.50 C 599.50 255.50, 599.50 251.50, 599.50 247.50 C 599.50 242.83, 599.50 239.17, 599.50 235.50 C 599.50 230.83, 599.50 227.17, 599.50 223.50 C 599.50 218.83, 599.50 215.17, 599.50 211.50 C 599.50 206.50, 599.50 202.50, 599.50 198.50 C 599.50 189.83, 599.50 182.17, 599.50 174.50 C 599.50 165.50, 599.50 157.50, 599.50 149.50 C 599.50 144.83, 599.50 141.17, 599.50 137.50 C 599.50 132.83, 599.50 129.17, 599.50 125.50 C 599.50 120.83, 599.50 117.17, 599.50 113.50 C 599.50 108.50, 599.50 104.50, 599.50 100.50 C 599.50 91.83, 599.50 84.17, 599.50 76.50 C 599.50 71.83, 599.50 68.17, 599.50 64.50 C 599.50 59.50, 599.50 55.50, 599.50 51.50 C 599.50 46.83, 599.50 43.17, 599.50 39.50 C 599.50 34.83, 599.50 31.17, 599.50 27.50 C 599.50 22.83, 599.50 19.17, 599.50 15.50 C 599.50 10.50, 599.50 6.50, 599.50 2.50 C 595.83 2.50, 593.17 2.50, 590.50 2.50 C 586.83 2.50, 584.17 2.50, 581.50 2.50 C 577.83 2.50, 575.17 2.50, 572.50 2.50 C 568.50 2.50, 565.50 2.50, 562.50 2.50 C 558.83 2.50, 556.17 2.50, 553.50 2.50 C 549.83 2.50, 547.17 2.50, 544.50 2.50 C 540.83 2.50, 538.17 2.50, 535.50 2.50 C 531.50 2.50, 528.50 2.50, 525.50 2.50 C 521.83 2.50, 519.17 2.50, 516.50 2.50 C 512.83 2.50, 510.17 2.50, 507.50 2.50 C 503.83 2.50, 501.17 2.50, 498.50 2.50 C 494.50 2.50, 491.50 2.50, 488.50 2.50 C 484.83 2.50, 482.17 2.50, 479.50 2.50 C 475.50 2.50, 472.50 2.50, 469.50 2.50 C 465.83 2.50, 463.17 2.50, 460.50 2.50 C 456.50 2.50, 453.50 2.50, 450.50 2.50 C 446.83 2.50, 444.17 2.50, 441.50 2.50 C 437.83 2.50, 435.17 2.50, 432.50 2.50 C 428.83 2.50, 426.17 2.50, 423.50 2.50 C 419.50 2.50, 416.50 2.50, 413.50 2.50 C 409.83 2.50, 407.17 2.50, 404.50 2.50 C 400.50 2.50, 397.50 2.50, 394.50 2.50 C 390.83 2.50, 388.17 2.50, 385.50 2.50 C 381.50 2.50, 378.50 2.50, 375.50 2.50 C 371.83 2.50, 369.17 2.50, 366.50 2.50 C 362.83 2.50, 360.17 2.50, 357.50 2.50 C 353.83 2.50, 351.17 2.50, 348.50 2.50 C 344.50 2.50, 341.50 2.50, 338.50 2.50 C 334.83 2.50, 332.17 2.50, 329.50 2.50 C 325.50 2.50, 322.50 2.50, 319.50 2.50 C 315.83 2.50, 313.17 2.50, 310.50 2.50 C 306.50 2.50, 303.50 2.50, 300.50 2.50 C 296.83 2.50, 294.17 2.50, 291.50 2.50 C 287.83 2.50, 285.17 2.50, 282.50 2.50 C 278.83 2.50, 276.17 2.50, 273.50 2.50 C 269.50 2.50, 266.50 2.50, 263.50 2.50 C 259.83 2.50, 257.17 2.50, 254.50 2.50 C 250.83 2.50, 248.17 2.50, 245.50 2.50 C 241.83 2.50, 239.17 2.50, 236.50 2.50 C 232.50 2.50, 229.50 2.50, 226.50 2.50 C 222.83 2.50, 220.17 2.50, 217.50 2.50 C 213.83 2.50, 211.17 2.50, 208.50 2.50 C 204.83 2.50, 202.17 2.50, 199.50 2.50 C 195.50 2.50, 192.50 2.50, 189.50 2.50 C 185.83 2.50, 183.17 2.50, 180.50 2.50 C 176.50 2.50, 173.50 2.50, 170.50 2.50 C 166.83 2.50, 164.17 2.50, 161.50 2.50 C 157.50 2.50, 154.50 2.50, 151.50 2.50 C 147.83 2.50, 145.17 2.50, 142.50 2.50 C 138.83 2.50, 136.17 2.50, 133.50 2.50 C 129.83 2.50, 127.17 2.50, 124.50 2.50 C 120.50 2.50, 117.50 2.50, 114.50 2.50 C 110.83 2.50, 108.17 2.50, 105.50 2.50 C 101.50 2.50, 98.50 2.50, 95.50 2.50 C 91.83 2.50, 89.17 2.50, 86.50 2.50 C 82.50 2.50, 79.50 2.50, 76.50 2.50 C 72.83 2.50, 70.17 2.50, 67.50 2.50 C 63.83 2.50, 61.17 2.50, 58.50 2.50 C 54.83 2.50, 52.17 2.50, 49.50 2.50 C 45.50 2.50, 42.50 2.50, 39.50 2.50 C 35.83 2.50, 33.17 2.50, 30.50 2.50 C 26.50 2.50, 23.50 2.50, 20.50 2.50 C 13.50 2.50, 7.50 2.50, 1.50 2.50 Z" fill="rgb(82.17675407833111,141.15292893182794,201.78280200013575)" stroke="rgb(82.17675407833111,141.15292893182794,201.78280200013575)" stroke-width="1" />
<path d="M 295.50 75.50 C 292.27 77.70, 287.40 75.93, 283.50 76.50 C 276.69 77.17, 271.13 78.40, 265.50 79.50 C 259.61 80.63, 255.10 82.67, 250.50 84.50 C 244.35 86.81, 239.48 89.78, 234.50 92.50 C 228.61 94.36, 225.95 100.58, 221.50 102.50 C 205.26 117.75, 200.92 136.94, 197.50 156.50 C 199.31 190.91, 217.39 218.18, 241.50 241.50 C 253.26 250.24, 260.53 262.60, 270.50 269.50 C 283.54 274.96, 279.61 290.15, 289.50 294.50 C 305.09 299.94, 312.65 288.91, 317.50 276.50 C 320.53 272.77, 323.25 271.71, 325.50 269.50 C 328.82 267.22, 332.28 266.12, 332.50 262.50 C 334.91 258.54, 337.82 256.80, 340.50 254.50 C 344.17 250.83, 346.83 248.17, 349.50 245.50 C 353.17 241.83, 355.83 239.17, 358.50 236.50 C 361.05 232.51, 363.97 230.08, 366.50 227.50 C 369.31 222.89, 373.23 219.74, 374.50 215.50 C 378.99 211.31, 379.58 206.93, 382.50 203.50 C 383.79 200.29, 385.59 198.29, 385.50 195.50 C 387.63 191.89, 387.86 188.90, 389.50 186.50 C 391.36 181.72, 391.97 177.42, 393.50 173.50 C 394.18 168.50, 395.12 164.62, 395.50 160.50 C 396.23 156.73, 394.42 155.00, 394.50 152.50 C 393.28 146.45, 392.50 141.23, 390.50 136.50 C 385.27 115.75, 368.58 98.14, 350.50 88.50 C 340.78 83.68, 331.95 79.13, 321.50 78.50 C 312.59 76.62, 304.25 76.77, 296.50 75.50 Z" fill="rgb(178.43153178381405,131.97423690842902,22.195930178288062)" stroke="rgb(178.43153178381405,131.97423690842902,22.195930178288062)" stroke-width="1" />
<path d="M 282.50 76.50 C 278.22 78.76, 272.33 77.15, 268.50 80.50 C 259.52 81.60, 252.45 84.90, 245.50 88.50 C 238.93 91.60, 233.15 94.17, 228.50 99.50 C 227.45 105.17, 221.48 107.39, 222.50 112.50 C 221.79 116.48, 220.40 119.18, 220.50 122.50 C 220.50 126.50, 220.50 129.50, 220.50 132.50 C 221.79 136.48, 220.43 141.64, 223.50 142.50 C 228.51 141.47, 223.73 139.49, 224.50 136.50 C 225.84 132.34, 228.77 130.55, 231.50 129.50 C 241.06 128.87, 237.29 120.34, 237.50 114.50 C 237.31 108.93, 247.43 103.76, 248.50 109.50 C 249.08 114.73, 247.28 119.95, 249.50 123.50 C 253.08 122.63, 256.20 123.04, 258.50 121.50 C 261.24 127.39, 259.38 133.77, 261.50 138.50 C 262.15 142.22, 267.17 140.63, 269.50 139.50 C 278.03 144.60, 268.87 162.00, 282.50 158.50 C 286.91 157.52, 286.70 161.25, 286.50 163.50 C 288.39 170.51, 285.00 181.70, 295.50 178.50 C 299.54 180.07, 298.53 183.35, 297.50 185.50 C 299.32 190.33, 296.22 197.22, 301.50 197.50 C 307.26 197.76, 306.63 203.35, 306.50 206.50 C 307.89 210.67, 303.66 215.11, 306.50 216.50 C 310.44 216.80, 311.57 220.20, 311.50 222.50 C 310.50 225.83, 310.50 228.17, 310.50 230.50 C 307.19 237.40, 314.49 237.58, 314.50 242.50 C 316.54 237.88, 323.34 237.44, 323.50 232.50 C 325.59 227.77, 327.51 222.28, 332.50 221.50 C 337.82 221.79, 336.66 215.29, 340.50 213.50 C 342.00 208.93, 345.25 206.45, 349.50 207.50 C 352.02 201.83, 354.36 197.50, 357.50 193.50 C 360.57 191.10, 365.41 196.20, 366.50 191.50 C 368.79 188.29, 370.59 186.29, 370.50 183.50 C 373.37 179.72, 376.21 179.28, 378.50 177.50 C 380.44 172.50, 380.49 166.26, 385.50 164.50 C 389.56 167.22, 392.24 160.53, 391.50 157.50 C 392.92 151.90, 392.92 146.10, 391.50 141.50 C 391.73 137.46, 389.27 135.54, 389.50 132.50 C 389.16 127.67, 386.08 125.40, 384.50 122.50 C 383.11 117.30, 379.74 113.93, 376.50 110.50 C 372.69 106.07, 370.01 102.32, 366.50 99.50 C 362.40 95.61, 358.79 93.95, 355.50 91.50 C 350.36 89.98, 347.07 87.40, 343.50 85.50 C 340.29 84.21, 337.84 83.49, 335.50 82.50 C 329.65 80.93, 325.50 78.68, 320.50 78.50 C 317.67 77.77, 315.79 77.13, 313.50 77.50 C 309.92 75.34, 305.75 77.04, 302.50 76.50 C 298.83 76.50, 296.17 76.50, 293.50 76.50 C 289.07 75.81, 286.93 78.19, 283.50 77.50 Z" fill="rgb(164.69586165361784,83.81304310418997,62.293125699045)" stroke="rgb(164.69586165361784,83.81304310418997,62.293125699045)" stroke-width="1" />
<path d="M 228.50 97.50 C 224.37 100.36, 220.45 103.63, 217.50 107.50 C 212.43 112.39, 210.07 116.99, 207.50 121.50 C 206.11 124.95, 204.36 126.83, 204.50 129.50 C 203.73 133.54, 201.27 135.46, 201.50 138.50 C 201.20 142.26, 198.80 143.74, 199.50 146.50 C 199.28 150.63, 197.00 152.49, 197.50 155.50 C 197.78 160.52, 196.72 165.10, 198.50 168.50 C 199.40 174.01, 200.37 178.50, 202.50 182.50 C 204.07 188.21, 205.52 192.96, 207.50 197.50 C 209.46 201.32, 210.83 203.97, 212.50 206.50 C 213.90 210.69, 217.17 212.69, 218.50 215.50 C 221.38 219.22, 223.27 221.93, 225.50 224.50 C 228.94 228.60, 231.31 231.72, 234.50 234.50 C 238.09 236.75, 240.40 241.07, 243.50 243.50 C 247.60 246.93, 249.91 251.25, 253.50 252.50 C 260.94 256.85, 253.97 247.51, 252.50 245.50 C 248.55 241.29, 245.90 237.94, 243.50 234.50 C 242.18 229.71, 238.78 227.08, 235.50 223.50 C 231.67 219.49, 234.08 218.51, 235.50 215.50 C 233.15 209.65, 230.03 204.70, 227.50 199.50 C 227.04 196.22, 228.54 193.13, 226.50 191.50 C 224.83 187.97, 223.46 185.32, 222.50 182.50 C 219.83 178.86, 220.07 175.43, 223.50 174.50 C 228.84 174.16, 227.09 169.61, 225.50 167.50 C 223.90 162.61, 223.21 158.34, 221.50 154.50 C 220.99 149.10, 219.10 145.28, 219.50 140.50 C 219.50 136.03, 217.80 133.26, 218.50 129.50 C 217.89 124.44, 219.27 121.21, 219.50 117.50 C 219.94 113.27, 222.40 110.87, 222.50 107.50 C 225.14 103.35, 227.43 100.47, 229.50 97.50 Z" fill="rgb(71.73328238440963,12.778372181887658,20.47000382116928)" stroke="rgb(71.73328238440963,12.778372181887658,20.47000382116928)" stroke-width="1" />
<path d="M 497.50 305.50 C 494.87 315.47, 497.61 326.25, 497.50 336.50 C 498.82 340.15, 502.08 341.57, 504.50 341.50 C 508.32 341.46, 511.23 341.21, 513.50 342.50 C 516.29 340.17, 519.91 343.03, 520.50 339.50 C 525.22 334.61, 532.72 334.59, 537.50 336.50 C 541.17 335.50, 543.83 335.50, 546.50 335.50 C 551.40 334.93, 556.27 336.70, 559.50 334.50 C 564.83 335.50, 569.17 335.50, 573.50 335.50 C 575.87 330.46, 576.95 326.30, 576.50 321.50 C 576.02 315.30, 574.44 311.06, 573.50 307.50 C 549.16 303.62, 523.12 306.29, 498.50 305.50 Z" fill="rgb(87.9946949602122,143.9946949602122,202.9946949602122)" stroke="rgb(87.9946949602122,143.9946949602122,202.9946949602122)" stroke-width="1" />
<path d="M 337.50 368.50 C 336.57 377.56, 333.32 396.49, 343.50 398.50 C 353.17 398.50, 361.83 398.50, 370.50 398.50 C 375.83 398.50, 380.17 398.50, 384.50 398.50 C 389.83 398.50, 394.17 398.50, 398.50 398.50 C 399.50 394.17, 399.50 390.83, 399.50 387.50 C 399.50 382.83, 399.50 379.17, 399.50 375.50 C 400.51 369.75, 396.83 369.31, 393.50 368.50 C 387.26 368.25, 382.25 368.56, 377.50 369.50 C 363.83 368.50, 351.17 368.50, 338.50 368.50 Z" fill="rgb(91.32865731462925,149.57114228456913,207.82364729458916)" stroke="rgb(91.32865731462925,149.57114228456913,207.82364729458916)" stroke-width="1" />
<path d="M 130.50 264.50 C 129.22 266.58, 128.30 268.81, 128.50 271.50 C 128.50 275.17, 128.50 277.83, 128.50 280.50 C 128.50 283.83, 128.50 286.17, 128.50 288.50 C 128.05 292.63, 129.99 294.77, 130.50 297.50 C 133.08 299.64, 139.32 296.90, 142.50 299.50 C 145.20 301.89, 148.17 302.64, 151.50 302.50 C 155.50 302.50, 158.50 302.50, 161.50 302.50 C 165.49 305.35, 169.15 302.03, 172.50 302.50 C 176.33 301.88, 175.34 297.20, 175.50 294.50 C 175.50 290.17, 175.50 286.83, 175.50 283.50 C 175.50 278.50, 175.50 274.50, 175.50 270.50 C 176.83 263.75, 170.32 264.24, 166.50 264.50 C 162.83 264.50, 160.17 264.50, 157.50 264.50 C 153.83 264.50, 151.17 264.50, 148.50 264.50 C 143.69 264.14, 142.57 266.70, 139.50 266.50 C 135.80 262.25, 134.95 267.49, 135.50 269.50 C 130.59 270.82, 134.08 265.68, 131.50 264.50 Z" fill="rgb(84.96903153153153,144.96903153153153,204.96903153153153)" stroke="rgb(84.96903153153153,144.96903153153153,204.96903153153153)" stroke-width="1" />
<path d="M 499.50 304.50 C 494.64 305.07, 497.05 310.58, 496.50 314.50 C 496.37 319.69, 496.36 323.83, 497.50 327.50 C 503.17 327.50, 507.83 327.50, 512.50 327.50 C 518.17 327.50, 522.83 327.50, 527.50 327.50 C 533.17 327.50, 537.83 327.50, 542.50 327.50 C 545.83 327.50, 548.17 327.50, 550.50 327.50 C 553.83 327.50, 556.17 327.50, 558.50 327.50 C 557.23 319.72, 563.04 318.39, 569.50 319.50 C 573.06 320.19, 576.21 318.43, 575.50 315.50 C 574.21 312.23, 574.46 309.32, 574.50 306.50 C 570.27 303.30, 565.40 305.07, 561.50 304.50 C 555.83 304.50, 551.17 304.50, 546.50 304.50 C 540.83 304.50, 536.17 304.50, 531.50 304.50 C 525.83 304.50, 521.17 304.50, 516.50 304.50 C 513.17 304.50, 510.83 304.50, 508.50 304.50 C 505.17 304.50, 502.83 304.50, 500.50 304.50 Z" fill="rgb(87.01186440677967,143.01186440677967,202.01186440677967)" stroke="rgb(87.01186440677967,143.01186440677967,202.01186440677967)" stroke-width="1" />
<path d="M 276.50 77.50 C 265.25 79.56, 262.99 91.91, 261.50 101.50 C 261.28 107.21, 259.89 111.44, 260.50 116.50 C 260.17 122.44, 260.71 127.02, 261.50 131.50 C 261.50 135.85, 260.63 141.77, 265.50 140.50 C 270.41 138.94, 275.08 139.32, 273.50 144.50 C 274.23 147.33, 274.87 149.21, 274.50 151.50 C 274.33 156.78, 276.81 159.74, 281.50 158.50 C 286.62 158.63, 285.35 154.53, 285.50 151.50 C 286.20 146.74, 284.50 143.97, 284.50 140.50 C 284.50 135.83, 284.50 132.17, 284.50 128.50 C 284.50 123.83, 284.50 120.17, 284.50 116.50 C 284.50 111.83, 284.50 108.17, 284.50 104.50 C 284.47 100.10, 284.73 96.40, 284.50 92.50 C 283.98 87.53, 285.36 83.40, 284.50 80.50 C 287.69 75.89, 279.61 78.10, 277.50 77.50 Z" fill="rgb(57.6258445945946,72.00422297297297,113.11655405405405)" stroke="rgb(57.6258445945946,72.00422297297297,113.11655405405405)" stroke-width="1" />
<path d="M 288.50 256.50 C 282.43 258.59, 267.10 261.53, 273.50 270.50 C 282.43 274.35, 280.86 285.98, 285.50 292.50 C 299.02 295.83, 313.89 297.06, 314.50 279.50 C 317.30 276.47, 317.13 272.01, 314.50 270.50 C 310.76 268.21, 307.59 266.95, 304.50 265.50 C 306.13 262.46, 309.22 263.96, 311.50 263.50 C 313.08 257.32, 307.65 257.13, 303.50 257.50 C 298.95 255.28, 293.73 257.08, 289.50 256.50 Z" fill="rgb(202.87381703470032,142.61514195583595,35.706624605678236)" stroke="rgb(202.87381703470032,142.61514195583595,35.706624605678236)" stroke-width="1" />
<path d="M 410.50 360.50 C 408.32 361.12, 407.49 363.82, 409.50 365.50 C 408.08 368.10, 406.44 369.17, 404.50 369.50 C 399.90 368.28, 402.83 372.53, 400.50 373.50 C 400.50 377.50, 400.50 380.50, 400.50 383.50 C 400.50 387.50, 400.50 390.50, 400.50 393.50 C 399.19 398.80, 403.43 398.88, 406.50 398.50 C 410.83 398.50, 414.17 398.50, 417.50 398.50 C 421.83 398.50, 425.17 398.50, 428.50 398.50 C 433.30 397.90, 430.77 392.33, 431.50 389.50 C 431.50 384.17, 431.50 379.83, 431.50 375.50 C 431.50 370.17, 431.50 365.83, 431.50 361.50 C 427.50 360.50, 424.50 360.50, 421.50 360.50 C 417.50 360.50, 414.50 360.50, 411.50 360.50 Z" fill="rgb(89.46318493150685,148.46318493150685,206.46318493150685)" stroke="rgb(89.46318493150685,148.46318493150685,206.46318493150685)" stroke-width="1" />
<path d="M 489.50 175.50 C 486.07 177.76, 478.84 174.47, 480.50 181.50 C 480.50 185.17, 480.50 187.83, 480.50 190.50 C 480.03 194.83, 480.97 197.58, 481.50 200.50 C 480.93 204.27, 481.92 208.27, 485.50 207.50 C 489.50 208.50, 492.50 208.50, 495.50 208.50 C 505.81 209.85, 514.78 207.74, 511.50 196.50 C 516.37 177.32, 505.43 174.77, 490.50 175.50 Z" fill="rgb(80.31450094161958,140.3145009416196,202.2015065913371)" stroke="rgb(80.31450094161958,140.3145009416196,202.2015065913371)" stroke-width="1" />
<path d="M 337.50 368.50 C 335.28 372.05, 337.08 377.27, 336.50 381.50 C 336.50 387.17, 336.50 391.83, 336.50 396.50 C 339.73 399.70, 344.60 397.93, 348.50 398.50 C 353.83 398.50, 358.17 398.50, 362.50 398.50 C 368.15 399.40, 366.61 396.68, 366.50 393.50 C 366.50 389.50, 366.50 386.50, 366.50 383.50 C 368.59 380.56, 367.01 377.10, 367.50 374.50 C 368.11 369.90, 366.20 367.49, 362.50 368.50 C 357.83 368.50, 354.17 368.50, 350.50 368.50 C 345.83 368.50, 342.17 368.50, 338.50 368.50 Z" fill="rgb(90.97525773195876,149.97525773195875,207.97525773195875)" stroke="rgb(90.97525773195876,149.97525773195875,207.97525773195875)" stroke-width="1" />
<path d="M 400.50 264.50 C 398.47 267.03, 394.01 263.71, 392.50 267.50 C 391.07 271.60, 392.83 275.60, 389.50 277.50 C 391.35 280.93, 390.29 286.02, 394.50 286.50 C 399.83 287.50, 404.17 287.50, 408.50 287.50 C 414.17 287.50, 418.83 287.50, 423.50 287.50 C 429.11 288.71, 431.71 286.11, 430.50 281.50 C 430.50 276.50, 430.50 272.50, 430.50 268.50 C 431.44 263.11, 426.07 264.80, 423.50 264.50 C 419.17 264.50, 415.83 264.50, 412.50 264.50 C 408.17 264.50, 404.83 264.50, 401.50 264.50 Z" fill="rgb(85.37341772151899,145.19198312236287,204.3523206751055)" stroke="rgb(85.37341772151899,145.19198312236287,204.3523206751055)" stroke-width="1" />
<path d="M 291.50 268.50 C 289.00 270.70, 284.61 268.34, 282.50 271.50 C 278.08 272.47, 279.55 277.09, 280.50 279.50 C 282.21 283.48, 283.60 286.18, 283.50 289.50 C 292.68 296.00, 300.26 294.85, 309.50 292.50 C 311.72 288.93, 311.87 284.90, 313.50 281.50 C 314.88 278.03, 317.18 276.83, 315.50 274.50 C 312.61 271.43, 310.41 270.10, 307.50 270.50 C 302.02 268.71, 297.44 268.17, 292.50 268.50 Z" fill="rgb(197.5989010989011,156.72893772893772,57.25824175824176)" stroke="rgb(197.5989010989011,156.72893772893772,57.25824175824176)" stroke-width="1" />
<path d="M 289.50 179.50 C 287.27 183.38, 289.09 188.94, 288.50 193.50 C 289.81 198.90, 289.86 203.82, 290.50 208.50 C 289.91 214.55, 292.26 218.38, 291.50 223.50 C 291.24 229.41, 293.26 233.38, 292.50 238.50 C 292.39 242.19, 295.68 245.52, 297.50 243.50 C 302.61 244.71, 300.54 239.93, 302.50 238.50 C 302.99 233.15, 304.06 229.46, 304.50 225.50 C 304.96 219.94, 304.48 217.37, 304.50 212.50 C 303.25 207.52, 306.67 203.50, 304.50 200.50 C 301.07 199.56, 297.80 198.68, 296.50 195.50 C 296.50 191.17, 296.50 187.83, 296.50 184.50 C 297.99 178.67, 294.01 179.33, 290.50 179.50 Z" fill="rgb(195.57323232323233,139.84469696969697,15.46338383838384)" stroke="rgb(195.57323232323233,139.84469696969697,15.46338383838384)" stroke-width="1" />
<path d="M 537.50 72.50 C 535.41 74.44, 536.99 77.90, 536.50 80.50 C 535.46 84.32, 535.21 87.23, 536.50 89.50 C 536.50 93.50, 536.50 96.50, 536.50 99.50 C 537.63 104.11, 542.31 101.90, 545.50 102.50 C 549.91 102.35, 553.69 103.10, 556.50 101.50 C 559.25 97.28, 559.72 93.54, 559.50 89.50 C 559.50 84.83, 559.50 81.17, 559.50 77.50 C 558.65 74.26, 558.88 71.48, 555.50 72.50 C 552.17 72.50, 549.83 72.50, 547.50 72.50 C 543.83 72.50, 541.17 72.50, 538.50 72.50 Z" fill="rgb(77.0,137.0,199.0)" stroke="rgb(77.0,137.0,199.0)" stroke-width="1" />
<path d="M 432.50 305.50 C 432.50 308.17, 432.50 310.83, 432.50 313.50 C 432.50 317.50, 432.50 320.50, 432.50 323.50 C 432.99 327.10, 431.41 330.56, 433.50 332.50 C 433.83 337.17, 438.97 334.85, 441.50 335.50 C 446.36 334.92, 452.84 337.05, 454.50 333.50 C 455.64 328.83, 455.63 324.69, 455.50 320.50 C 455.50 315.17, 455.50 310.83, 455.50 306.50 C 451.17 305.50, 447.83 305.50, 444.50 305.50 C 440.17 305.50, 436.83 305.50, 433.50 305.50 Z" fill="rgb(87.0,146.0,204.0)" stroke="rgb(87.0,146.0,204.0)" stroke-width="1" />
<path d="M 82.50 328.50 C 79.62 329.28, 80.66 331.92, 80.50 334.50 C 80.50 338.17, 80.50 340.83, 80.50 343.50 C 81.97 346.85, 82.99 350.81, 85.50 350.50 C 89.73 352.70, 94.60 350.93, 98.50 351.50 C 102.89 350.96, 107.34 353.00, 109.50 349.50 C 110.13 343.82, 112.01 339.66, 111.50 334.50 C 111.85 330.79, 111.58 328.51, 108.50 328.50 C 105.17 328.50, 102.83 328.50, 100.50 328.50 C 97.17 328.50, 94.83 328.50, 92.50 328.50 C 88.83 328.50, 86.17 328.50, 83.50 328.50 Z" fill="rgb(87.64917127071823,147.0,207.0)" stroke="rgb(87.64917127071823,147.0,207.0)" stroke-width="1" />
<path d="M 83.50 367.50 C 80.38 368.69, 80.25 372.12, 80.50 375.50 C 80.50 379.50, 80.50 382.50, 80.50 385.50 C 80.32 389.05, 80.44 391.47, 81.50 393.50 C 82.94 395.17, 82.93 398.01, 85.50 397.50 C 88.50 398.50, 90.50 398.50, 92.50 398.50 C 96.47 399.37, 98.26 397.38, 100.50 396.50 C 102.84 395.45, 103.00 392.90, 103.50 390.50 C 103.68 386.95, 103.56 384.53, 102.50 382.50 C 102.07 377.61, 104.15 374.13, 103.50 369.50 C 99.37 369.28, 97.51 367.00, 94.50 367.50 C 90.50 367.50, 87.50 367.50, 84.50 367.50 Z" fill="rgb(89.03305785123968,148.03305785123968,206.03305785123968)" stroke="rgb(89.03305785123968,148.03305785123968,206.03305785123968)" stroke-width="1" />
<path d="M 513.50 264.50 C 511.30 267.73, 513.07 272.60, 512.50 276.50 C 512.50 281.50, 512.50 285.50, 512.50 289.50 C 511.33 295.89, 517.67 295.76, 521.50 295.50 C 524.83 295.50, 527.17 295.50, 529.50 295.50 C 533.68 296.40, 536.40 293.68, 535.50 290.50 C 535.50 286.17, 535.50 282.83, 535.50 279.50 C 536.87 273.75, 532.70 271.45, 528.50 272.50 C 526.77 269.23, 529.30 263.70, 525.50 264.50 C 521.17 264.50, 517.83 264.50, 514.50 264.50 Z" fill="rgb(85.64161849710983,142.17919075144508,203.0)" stroke="rgb(85.64161849710983,142.17919075144508,203.0)" stroke-width="1" />
<path d="M 577.50 240.50 C 575.28 244.05, 577.08 249.27, 576.50 253.50 C 576.50 258.83, 576.50 263.17, 576.50 267.50 C 571.06 279.86, 589.64 284.04, 591.50 275.50 C 591.50 269.50, 591.50 264.50, 591.50 259.50 C 591.50 256.17, 591.50 253.83, 591.50 251.50 C 591.50 248.17, 591.50 245.83, 591.50 243.50 C 591.51 239.49, 588.27 240.73, 586.50 240.50 C 583.17 240.50, 580.83 240.50, 578.50 240.50 Z" fill="rgb(83.05118110236221,142.00393700787401,202.01968503937007)" stroke="rgb(83.05118110236221,142.00393700787401,202.01968503937007)" stroke-width="1" />
<path d="M 537.50 208.50 C 535.65 211.15, 531.35 207.85, 529.50 210.50 C 529.50 213.83, 529.50 216.17, 529.50 218.50 C 529.50 222.17, 529.50 224.83, 529.50 227.50 C 528.23 233.93, 536.84 229.22, 536.50 234.50 C 539.50 235.50, 541.50 235.50, 543.50 235.50 C 546.26 234.92, 550.38 236.71, 550.50 234.50 C 552.68 230.60, 550.94 226.07, 551.50 222.50 C 552.07 217.13, 549.74 213.95, 550.50 209.50 C 545.55 209.85, 542.63 207.72, 538.50 208.50 Z" fill="rgb(81.00169779286927,140.00169779286927,200.00169779286927)" stroke="rgb(81.00169779286927,140.00169779286927,200.00169779286927)" stroke-width="1" />
<path d="M 63.50 93.50 C 59.39 95.85, 54.35 95.95, 49.50 96.50 C 47.37 99.76, 49.02 103.58, 48.50 106.50 C 49.28 110.65, 49.84 113.89, 49.50 117.50 C 53.90 119.47, 57.60 119.73, 61.50 119.50 C 65.70 119.35, 71.69 120.29, 71.50 116.50 C 71.50 112.83, 71.50 110.17, 71.50 107.50 C 71.50 103.83, 71.50 101.17, 71.50 98.50 C 71.50 93.37, 66.37 95.01, 64.50 93.50 Z" fill="rgb(80.41367521367522,138.41367521367522,201.41367521367522)" stroke="rgb(80.41367521367522,138.41367521367522,201.41367521367522)" stroke-width="1" />
<path d="M 129.50 208.50 C 127.46 210.13, 128.96 213.22, 128.50 215.50 C 129.27 218.36, 128.96 220.25, 128.50 222.50 C 126.84 225.19, 130.74 227.07, 129.50 229.50 C 130.56 232.77, 135.79 230.88, 138.50 231.50 C 142.17 231.50, 144.83 231.50, 147.50 231.50 C 151.10 231.15, 154.57 231.02, 153.50 227.50 C 153.89 224.33, 153.29 222.37, 151.50 220.50 C 150.34 216.92, 152.04 212.75, 151.50 209.50 C 148.17 208.50, 144.83 208.50, 141.50 208.50 C 137.17 208.50, 133.83 208.50, 130.50 208.50 Z" fill="rgb(83.0,143.0,203.0)" stroke="rgb(83.0,143.0,203.0)" stroke-width="1" />
<path d="M 577.50 168.50 C 575.37 170.76, 577.02 174.58, 576.50 177.50 C 576.50 181.50, 576.50 184.50, 576.50 187.50 C 576.95 192.96, 582.39 191.15, 585.50 191.50 C 589.17 191.50, 591.83 191.50, 594.50 191.50 C 598.94 192.28, 600.28 190.94, 599.50 187.50 C 599.50 183.83, 599.50 181.17, 599.50 178.50 C 599.50 174.50, 599.50 171.50, 599.50 168.50 C 595.50 168.50, 592.50 168.50, 589.50 168.50 C 585.17 168.50, 581.83 168.50, 578.50 168.50 Z" fill="rgb(81.0,140.0,200.0)" stroke="rgb(81.0,140.0,200.0)" stroke-width="1" />
<path d="M 433.50 359.50 C 431.34 362.08, 433.04 366.25, 432.50 369.50 C 432.50 374.17, 432.50 377.83, 432.50 381.50 C 432.50 386.17, 432.50 389.83, 432.50 393.50 C 436.67 396.70, 441.00 396.11, 444.50 397.50 C 448.73 393.50, 447.26 388.15, 447.50 383.50 C 447.50 378.17, 447.50 373.83, 447.50 369.50 C 446.09 366.42, 441.97 367.39, 440.50 365.50 C 440.21 361.42, 436.64 360.02, 434.50 359.50 Z" fill="rgb(88.57633587786259,147.1469465648855,205.29007633587787)" stroke="rgb(88.57633587786259,147.1469465648855,205.29007633587787)" stroke-width="1" />
<path d="M 539.50 256.50 C 534.98 257.66, 536.86 262.79, 536.50 266.50 C 536.15 271.45, 538.28 274.37, 537.50 278.50 C 541.46 277.80, 546.71 279.67, 550.50 277.50 C 556.67 278.11, 560.11 274.67, 559.50 269.50 C 558.35 263.82, 560.72 260.25, 557.50 256.50 C 554.17 256.50, 551.83 256.50, 549.50 256.50 C 545.83 256.50, 543.17 256.50, 540.50 256.50 Z" fill="rgb(84.72222222222223,141.25670498084293,202.0785440613027)" stroke="rgb(84.72222222222223,141.25670498084293,202.0785440613027)" stroke-width="1" />
<path d="M 512.50 176.50 C 512.50 180.50, 512.50 184.50, 512.50 188.50 C 512.50 193.83, 512.50 198.17, 512.50 202.50 C 511.79 206.43, 514.94 208.19, 517.50 207.50 C 521.17 207.50, 523.83 207.50, 526.50 207.50 C 527.50 202.17, 527.50 197.83, 527.50 193.50 C 527.50 187.83, 527.50 183.17, 527.50 178.50 C 523.62 175.27, 518.06 177.09, 513.50 176.50 Z" fill="rgb(80.24901185770752,139.7509881422925,199.7509881422925)" stroke="rgb(80.24901185770752,139.7509881422925,199.7509881422925)" stroke-width="1" />
<path d="M 497.50 176.50 C 495.34 179.08, 497.04 183.25, 496.50 186.50 C 496.50 191.17, 496.50 194.83, 496.50 198.50 C 496.58 202.44, 496.01 207.83, 499.50 207.50 C 504.07 206.94, 508.60 208.68, 511.50 206.50 C 511.50 201.17, 511.50 196.83, 511.50 192.50 C 511.50 186.83, 511.50 182.17, 511.50 177.50 C 506.50 176.50, 502.50 176.50, 498.50 176.50 Z" fill="rgb(80.0,140.0,202.0)" stroke="rgb(80.0,140.0,202.0)" stroke-width="1" />
<path d="M 97.50 208.50 C 95.34 211.08, 97.04 215.25, 96.50 218.50 C 96.50 222.83, 96.50 226.17, 96.50 229.50 C 97.00 233.27, 94.76 239.31, 99.50 238.50 C 103.91 239.28, 108.19 240.44, 111.50 238.50 C 111.50 233.17, 111.50 228.83, 111.50 224.50 C 111.50 218.83, 111.50 214.17, 111.50 209.50 C 107.27 207.30, 102.40 209.07, 98.50 208.50 Z" fill="rgb(83.0,143.0,203.0)" stroke="rgb(83.0,143.0,203.0)" stroke-width="1" />
<path d="M 65.50 192.50 C 63.34 195.08, 65.04 199.25, 64.50 202.50 C 63.08 208.39, 68.33 207.61, 71.50 207.50 C 75.83 207.50, 79.17 207.50, 82.50 207.50 C 88.02 207.25, 90.27 207.55, 94.50 206.50 C 94.34 201.30, 96.24 197.95, 95.50 193.50 C 90.17 192.50, 85.83 192.50, 81.50 192.50 C 75.83 192.50, 71.17 192.50, 66.50 192.50 Z" fill="rgb(82.89156626506023,142.89156626506025,204.89156626506025)" stroke="rgb(82.89156626506023,142.89156626506025,204.89156626506025)" stroke-width="1" />
<path d="M 49.50 48.50 C 47.30 51.73, 49.07 56.60, 48.50 60.50 C 48.50 65.83, 48.50 70.17, 48.50 74.50 C 48.04 78.91, 50.36 80.19, 53.50 79.50 C 57.42 78.98, 61.24 80.63, 63.50 78.50 C 63.50 73.83, 63.50 70.17, 63.50 66.50 C 63.73 61.60, 63.47 57.90, 62.50 54.50 C 62.70 51.25, 62.91 47.52, 59.50 48.50 C 55.83 48.50, 53.17 48.50, 50.50 48.50 Z" fill="rgb(81.04819277108433,136.04819277108433,200.04819277108433)" stroke="rgb(81.04819277108433,136.04819277108433,200.04819277108433)" stroke-width="1" />
<path d="M 90.50 288.50 C 87.17 290.40, 88.93 294.40, 88.50 297.50 C 87.37 302.84, 92.07 303.96, 95.50 303.50 C 99.50 303.50, 102.50 303.50, 105.50 303.50 C 110.19 304.04, 112.71 301.73, 116.50 302.50 C 119.55 301.56, 119.64 297.33, 119.50 294.50 C 120.83 289.01, 117.33 287.69, 113.50 288.50 C 109.17 288.50, 105.83 288.50, 102.50 288.50 C 98.17 288.50, 94.83 288.50, 91.50 288.50 Z" fill="rgb(85.0,145.0,205.0)" stroke="rgb(85.0,145.0,205.0)" stroke-width="1" />
<path d="M 132.50 192.50 C 130.33 193.73, 127.98 194.08, 128.50 197.50 C 128.50 201.17, 128.50 203.83, 128.50 206.50 C 134.17 207.50, 138.83 207.50, 143.50 207.50 C 146.50 207.50, 148.50 207.50, 150.50 207.50 C 153.36 209.91, 155.77 206.23, 158.50 207.50 C 159.50 201.75, 159.82 196.87, 156.50 193.50 C 152.69 191.90, 148.91 192.65, 145.50 192.50 C 140.83 192.50, 137.17 192.50, 133.50 192.50 Z" fill="rgb(82.0,142.0,202.0)" stroke="rgb(82.0,142.0,202.0)" stroke-width="1" />
<path d="M 545.50 336.50 C 542.51 340.83, 546.29 345.72, 545.50 350.50 C 550.05 352.72, 555.27 350.92, 559.50 351.50 C 564.83 351.50, 569.17 351.50, 573.50 351.50 C 574.50 347.83, 574.50 345.17, 574.50 342.50 C 574.45 338.56, 575.00 335.18, 570.50 336.50 C 565.83 336.50, 562.17 336.50, 558.50 336.50 C 553.83 336.50, 550.17 336.50, 546.50 336.50 Z" fill="rgb(89.0,145.0,204.0)" stroke="rgb(89.0,145.0,204.0)" stroke-width="1" />
<path d="M 561.50 248.50 C 559.28 252.05, 561.08 257.27, 560.50 261.50 C 560.94 307.09, 595.22 245.18, 562.50 248.50 Z" fill="rgb(84.0,142.14285714285714,202.42857142857142)" stroke="rgb(84.0,142.14285714285714,202.42857142857142)" stroke-width="1" />
<path d="M 278.50 77.50 C 277.18 79.48, 274.47 78.08, 272.50 78.50 C 270.00 80.64, 267.54 81.58, 266.50 84.50 C 263.94 89.33, 263.00 93.82, 262.50 98.50 C 260.87 100.47, 260.73 104.72, 263.50 103.50 C 265.74 100.99, 269.26 104.01, 270.50 101.50 C 275.33 100.72, 283.74 104.01, 282.50 97.50 C 284.08 92.27, 282.28 87.05, 284.50 83.50 C 284.29 78.64, 282.39 78.81, 279.50 77.50 Z" fill="rgb(7.62839248434238,37.19624217118998,95.36325678496868)" stroke="rgb(7.62839248434238,37.19624217118998,95.36325678496868)" stroke-width="1" />
<path d="M 434.50 42.50 C 431.40 44.16, 432.79 47.68, 432.50 50.50 C 431.50 54.50, 431.50 57.50, 431.50 60.50 C 430.81 64.93, 433.19 67.07, 432.50 70.50 C 436.51 70.29, 439.45 73.63, 441.50 71.50 C 449.30 82.47, 446.89 62.63, 447.50 55.50 C 448.52 49.34, 446.10 46.76, 441.50 46.50 C 441.03 41.91, 436.43 44.85, 435.50 42.50 Z" fill="rgb(77.78971962616822,136.0373831775701,198.91355140186917)" stroke="rgb(77.78971962616822,136.0373831775701,198.91355140186917)" stroke-width="1" />
<path d="M 0.50 367.50 C 0.50 372.17, 0.50 376.83, 0.50 381.50 C 0.50 384.83, 0.50 387.17, 0.50 389.50 C 0.50 392.83, 0.50 395.17, 0.50 397.50 C 4.21 398.28, 8.40 399.20, 11.50 397.50 C 13.20 388.85, 15.29 381.77, 14.50 373.50 C 14.98 364.47, 6.48 369.55, 1.50 368.50 Z" fill="rgb(85.92857142857143,144.85714285714286,204.88095238095238)" stroke="rgb(85.92857142857143,144.85714285714286,204.88095238095238)" stroke-width="1" />
<path d="M 288.50 80.50 C 286.73 83.04, 286.24 86.12, 286.50 89.50 C 286.50 93.50, 286.50 96.50, 286.50 99.50 C 289.50 100.50, 292.50 100.50, 295.50 100.50 C 299.50 100.50, 302.50 100.50, 305.50 100.50 C 308.25 99.54, 308.02 93.44, 306.50 91.50 C 307.10 87.45, 305.75 85.20, 305.50 82.50 C 303.17 81.50, 300.83 81.50, 298.50 81.50 C 295.56 79.41, 292.10 80.99, 289.50 80.50 Z" fill="rgb(76.26976744186047,13.165116279069768,40.783720930232555)" stroke="rgb(76.26976744186047,13.165116279069768,40.783720930232555)" stroke-width="1" />
<path d="M 456.50 80.50 C 454.65 83.15, 450.35 79.85, 448.50 82.50 C 448.24 86.19, 449.63 88.32, 452.50 87.50 C 456.65 87.47, 456.78 91.12, 456.50 93.50 C 459.08 96.66, 463.25 94.96, 466.50 95.50 C 470.83 95.50, 474.17 95.50, 477.50 95.50 C 477.27 89.86, 481.46 85.49, 478.50 81.50 C 475.17 80.50, 471.83 80.50, 468.50 80.50 C 464.17 80.50, 460.83 80.50, 457.50 80.50 Z" fill="rgb(77.00234741784037,137.00234741784038,199.00234741784038)" stroke="rgb(77.00234741784037,137.00234741784038,199.00234741784038)" stroke-width="1" />
<path d="M 290.50 139.50 C 287.87 140.90, 285.36 140.27, 286.50 144.50 C 286.50 148.17, 286.50 150.83, 286.50 153.50 C 285.72 157.63, 288.00 159.49, 287.50 162.50 C 287.50 166.50, 287.50 169.50, 287.50 172.50 C 287.67 176.43, 290.20 180.83, 293.50 177.50 C 299.52 178.15, 296.83 171.50, 297.50 168.50 C 298.23 164.73, 296.42 163.00, 296.50 160.50 C 296.50 157.17, 296.50 154.83, 296.50 152.50 C 296.50 149.17, 296.50 146.83, 296.50 144.50 C 297.21 140.57, 294.06 138.81, 291.50 139.50 Z" fill="rgb(39.34688995215311,2.598086124401914,30.351674641148325)" stroke="rgb(39.34688995215311,2.598086124401914,30.351674641148325)" stroke-width="1" />
<path d="M 0.50 56.50 C 0.50 59.83, 0.50 63.17, 0.50 66.50 C 0.50 70.83, 0.50 74.17, 0.50 77.50 C 3.84 81.58, 8.98 80.43, 14.50 80.50 C 15.50 76.83, 15.50 74.17, 15.50 71.50 C 15.50 67.50, 15.50 64.50, 15.50 61.50 C 16.28 57.06, 14.94 55.72, 11.50 56.50 C 7.50 56.50, 4.50 56.50, 1.50 56.50 Z" fill="rgb(78.62631578947368,133.6263157894737,197.6263157894737)" stroke="rgb(78.62631578947368,133.6263157894737,197.6263157894737)" stroke-width="1" />
<path d="M 246.50 86.50 C 244.52 87.87, 241.96 87.87, 240.50 90.50 C 236.07 95.18, 233.23 99.11, 231.50 103.50 C 229.33 107.02, 229.22 110.38, 228.50 113.50 C 226.87 117.10, 228.13 120.90, 226.50 123.50 C 226.90 126.47, 225.23 130.68, 228.50 130.50 C 231.90 129.00, 234.45 128.84, 236.50 127.50 C 236.50 123.50, 236.50 120.50, 236.50 117.50 C 238.13 113.90, 236.87 110.10, 238.50 107.50 C 239.22 103.38, 239.33 100.02, 241.50 97.50 C 244.03 93.39, 246.09 90.08, 247.50 86.50 Z" fill="rgb(8.703412073490814,32.808398950131235,11.32283464566929)" stroke="rgb(8.703412073490814,32.808398950131235,11.32283464566929)" stroke-width="1" />
<path d="M 583.50 144.50 C 582.25 147.28, 576.38 143.29, 577.50 147.50 C 577.50 151.50, 577.50 154.50, 577.50 157.50 C 578.90 161.03, 585.07 158.13, 587.50 160.50 C 591.60 161.20, 595.79 160.28, 599.50 160.50 C 599.50 157.17, 599.50 154.83, 599.50 152.50 C 599.50 149.17, 599.50 146.83, 599.50 144.50 C 593.83 144.50, 589.17 144.50, 584.50 144.50 Z" fill="rgb(79.01069518716578,138.2941176470588,200.57219251336898)" stroke="rgb(79.01069518716578,138.2941176470588,200.57219251336898)" stroke-width="1" />
<path d="M 577.50 256.50 C 575.27 260.38, 577.09 265.94, 576.50 270.50 C 576.45 274.81, 575.72 278.55, 579.50 279.50 C 583.75 278.96, 587.92 280.66, 590.50 278.50 C 591.50 274.17, 591.50 270.83, 591.50 267.50 C 591.84 262.89, 591.28 259.65, 590.50 256.50 C 585.83 256.50, 582.17 256.50, 578.50 256.50 Z" fill="rgb(85.93548387096774,141.93548387096774,202.93548387096774)" stroke="rgb(85.93548387096774,141.93548387096774,202.93548387096774)" stroke-width="1" />
<path d="M 403.50 40.50 C 398.88 40.42, 399.59 48.27, 404.50 47.50 C 408.08 48.66, 412.25 46.96, 415.50 47.50 C 416.80 51.07, 415.11 56.44, 419.50 55.50 C 423.50 55.50, 426.50 55.50, 429.50 55.50 C 432.73 51.62, 430.91 46.06, 431.50 41.50 C 427.17 40.50, 422.83 40.50, 418.50 40.50 C 413.01 40.45, 408.44 40.22, 404.50 41.50 Z" fill="rgb(77.68378378378378,136.31621621621622,199.0)" stroke="rgb(77.68378378378378,136.31621621621622,199.0)" stroke-width="1" />
<path d="M 489.50 344.50 C 489.35 347.91, 490.10 351.69, 488.50 354.50 C 488.36 360.44, 492.46 359.60, 496.50 359.50 C 500.17 359.50, 502.83 359.50, 505.50 359.50 C 510.80 360.81, 510.88 356.57, 510.50 353.50 C 510.38 348.18, 508.93 342.94, 503.50 344.50 C 498.50 344.50, 494.50 344.50, 490.50 344.50 Z" fill="rgb(88.91545189504373,144.91545189504373,203.91545189504373)" stroke="rgb(88.91545189504373,144.91545189504373,203.91545189504373)" stroke-width="1" />
<path d="M 113.50 192.50 C 111.46 194.13, 112.96 197.22, 112.50 199.50 C 112.50 202.83, 112.50 205.17, 112.50 207.50 C 115.17 209.50, 111.79 214.47, 114.50 214.50 C 125.91 217.48, 128.32 209.43, 127.50 200.50 C 127.44 197.11, 128.45 192.50, 124.50 193.50 C 120.97 192.04, 117.61 192.57, 114.50 192.50 Z" fill="rgb(82.0,142.0,203.9760956175299)" stroke="rgb(82.0,142.0,203.9760956175299)" stroke-width="1" />
<path d="M 296.50 293.50 C 294.08 296.72, 291.65 299.26, 290.50 303.50 C 290.83 308.64, 289.36 313.53, 292.50 316.50 C 294.57 321.68, 300.71 318.66, 303.50 318.50 C 304.50 315.17, 304.50 312.83, 304.50 310.50 C 305.10 306.45, 303.75 304.20, 303.50 301.50 C 302.23 298.04, 299.74 294.59, 297.50 293.50 Z" fill="rgb(95.84307692307692,73.69538461538461,64.44615384615385)" stroke="rgb(95.84307692307692,73.69538461538461,64.44615384615385)" stroke-width="1" />
<path d="M 104.50 72.50 C 102.05 74.94, 105.66 82.20, 99.50 80.50 C 95.23 80.32, 96.90 84.53, 96.50 86.50 C 95.82 92.73, 99.24 95.59, 104.50 94.50 C 109.01 94.67, 112.99 95.33, 111.50 90.50 C 111.50 87.17, 111.50 84.83, 111.50 82.50 C 111.50 79.17, 111.50 76.83, 111.50 74.50 C 111.38 71.29, 107.26 73.08, 105.50 72.50 Z" fill="rgb(81.97689768976898,139.97689768976898,202.97689768976898)" stroke="rgb(81.97689768976898,139.97689768976898,202.97689768976898)" stroke-width="1" />
<path d="M 288.50 284.50 C 286.72 285.91, 282.56 285.85, 283.50 289.50 C 286.27 294.62, 292.38 295.87, 296.50 293.50 C 299.77 293.51, 300.97 296.12, 303.50 295.50 C 306.87 294.72, 310.25 294.07, 310.50 291.50 C 309.87 287.11, 305.59 284.31, 301.50 284.50 C 296.83 284.50, 293.17 284.50, 289.50 284.50 Z" fill="rgb(144.8659420289855,82.60144927536231,33.53260869565217)" stroke="rgb(144.8659420289855,82.60144927536231,33.53260869565217)" stroke-width="1" />
<path d="M 206.50 320.50 C 196.46 323.32, 209.89 318.44, 207.50 326.50 C 210.79 328.91, 205.21 331.09, 208.50 332.50 C 208.11 337.55, 214.73 334.60, 217.50 335.50 C 221.48 336.14, 224.61 335.13, 223.50 331.50 C 223.50 327.50, 223.50 324.50, 223.50 321.50 C 221.17 320.50, 218.83 320.50, 216.50 320.50 C 212.83 320.50, 210.17 320.50, 207.50 320.50 Z" fill="rgb(87.93040293040293,147.0,207.0)" stroke="rgb(87.93040293040293,147.0,207.0)" stroke-width="1" />
<path d="M 80.50 224.50 C 81.54 228.67, 78.29 232.09, 80.50 235.50 C 77.96 240.84, 85.50 239.24, 88.50 239.50 C 91.70 239.64, 94.98 239.04, 95.50 237.50 C 95.50 233.83, 95.50 231.17, 95.50 228.50 C 96.77 223.57, 93.14 224.53, 90.50 224.50 C 86.83 224.50, 84.17 224.50, 81.50 224.50 Z" fill="rgb(83.0,143.0,204.97665369649806)" stroke="rgb(83.0,143.0,204.97665369649806)" stroke-width="1" />
<path d="M 584.50 80.50 C 584.50 83.83, 584.50 87.17, 584.50 90.50 C 583.76 96.26, 589.35 95.63, 592.50 95.50 C 595.56 94.89, 600.45 97.11, 599.50 93.50 C 599.50 89.50, 599.50 86.50, 599.50 83.50 C 600.53 79.14, 596.39 80.94, 594.50 80.50 C 590.83 80.50, 588.17 80.50, 585.50 80.50 Z" fill="rgb(77.0,135.0,198.0)" stroke="rgb(77.0,135.0,198.0)" stroke-width="1" />
<path d="M 113.50 32.50 C 111.34 35.08, 113.04 39.25, 112.50 42.50 C 112.52 47.89, 115.57 47.87, 119.50 47.50 C 122.74 46.96, 127.44 49.00, 127.50 45.50 C 127.50 41.83, 127.50 39.17, 127.50 36.50 C 128.50 32.16, 126.11 32.22, 123.50 32.50 C 119.83 32.50, 117.17 32.50, 114.50 32.50 Z" fill="rgb(82.0,137.0,201.0)" stroke="rgb(82.0,137.0,201.0)" stroke-width="1" />
<path d="M 497.50 160.50 C 495.41 162.44, 496.99 165.90, 496.50 168.50 C 496.12 172.57, 496.20 176.81, 500.50 175.50 C 504.10 175.01, 507.56 176.59, 509.50 174.50 C 512.76 173.76, 510.89 168.89, 511.50 166.50 C 512.14 162.52, 511.13 159.39, 507.50 160.50 C 503.83 160.50, 501.17 160.50, 498.50 160.50 Z" fill="rgb(79.0,139.0,199.0)" stroke="rgb(79.0,139.0,199.0)" stroke-width="1" />
<path d="M 560.50 248.50 C 560.50 252.83, 560.50 257.17, 560.50 261.50 C 561.56 264.77, 566.79 262.88, 569.50 263.50 C 576.21 265.00, 574.45 260.21, 575.50 257.50 C 575.33 253.61, 576.53 247.94, 572.50 248.50 C 568.17 248.50, 564.83 248.50, 561.50 248.50 Z" fill="rgb(82.99603174603175,141.99603174603175,201.99603174603175)" stroke="rgb(82.99603174603175,141.99603174603175,201.99603174603175)" stroke-width="1" />
<path d="M 8.50 79.50 C 4.75 80.83, 7.19 86.06, 6.50 89.50 C 6.50 94.17, 6.50 97.83, 6.50 101.50 C 7.82 104.48, 10.53 103.08, 12.50 103.50 C 16.86 104.53, 15.06 100.39, 15.50 98.50 C 15.50 93.83, 15.50 90.17, 15.50 86.50 C 17.07 81.15, 13.25 77.15, 9.50 80.50 Z" fill="rgb(79.97540983606558,134.97540983606558,198.97540983606558)" stroke="rgb(79.97540983606558,134.97540983606558,198.97540983606558)" stroke-width="1" />
<path d="M 0.50 368.50 C 0.50 370.83, 0.50 373.17, 0.50 375.50 C 0.96 378.78, -0.54 381.87, 1.50 383.50 C 5.17 383.50, 7.83 383.50, 10.50 383.50 C 14.86 383.52, 15.87 380.38, 15.50 377.50 C 15.42 373.56, 15.99 368.17, 12.50 368.50 C 8.17 368.50, 4.83 368.50, 1.50 368.50 Z" fill="rgb(87.83805668016194,143.83805668016194,204.83805668016194)" stroke="rgb(87.83805668016194,143.83805668016194,204.83805668016194)" stroke-width="1" />
<path d="M 451.50 256.50 C 448.44 257.96, 448.38 261.89, 448.50 265.50 C 448.35 270.58, 450.28 272.45, 454.50 271.50 C 457.83 271.50, 460.17 271.50, 462.50 271.50 C 463.50 268.17, 463.50 265.83, 463.50 263.50 C 463.10 260.53, 464.77 256.32, 461.50 256.50 C 457.83 256.50, 455.17 256.50, 452.50 256.50 Z" fill="rgb(85.0,144.0,202.0)" stroke="rgb(85.0,144.0,202.0)" stroke-width="1" />
<path d="M 580.50 328.50 C 577.60 329.45, 576.58 331.13, 576.50 334.50 C 576.99 338.10, 575.41 341.56, 577.50 343.50 C 581.17 343.50, 583.83 343.50, 586.50 343.50 C 591.13 344.61, 592.14 341.48, 591.50 338.50 C 591.50 334.83, 591.50 332.17, 591.50 329.50 C 588.24 327.37, 584.42 329.02, 581.50 328.50 Z" fill="rgb(88.0,144.0,203.0)" stroke="rgb(88.0,144.0,203.0)" stroke-width="1" />
<path d="M 560.50 264.50 C 560.50 267.17, 560.50 269.83, 560.50 272.50 C 559.97 276.96, 561.94 279.87, 565.50 279.50 C 568.81 278.48, 570.89 279.81, 573.50 278.50 C 576.59 276.56, 575.01 273.10, 575.50 270.50 C 575.98 266.02, 575.69 263.31, 571.50 264.50 C 567.50 264.50, 564.50 264.50, 561.50 264.50 Z" fill="rgb(84.0,143.0,203.0)" stroke="rgb(84.0,143.0,203.0)" stroke-width="1" />
<path d="M 0.50 288.50 C 0.50 291.83, 0.50 295.17, 0.50 298.50 C -0.99 304.33, 2.99 303.67, 6.50 303.50 C 10.32 303.21, 13.84 304.60, 15.50 301.50 C 15.50 297.83, 15.50 295.17, 15.50 292.50 C 15.68 288.23, 11.47 289.90, 9.50 289.50 C 6.47 288.44, 4.05 288.32, 1.50 288.50 Z" fill="rgb(84.0,143.0,203.0)" stroke="rgb(84.0,143.0,203.0)" stroke-width="1" />
<path d="M 98.50 192.50 C 95.08 193.46, 96.98 197.54, 96.50 200.50 C 95.91 205.25, 97.21 208.77, 101.50 207.50 C 104.83 207.50, 107.17 207.50, 109.50 207.50 C 110.75 204.80, 112.10 202.55, 111.50 199.50 C 111.70 196.24, 111.29 192.77, 108.50 193.50 C 105.56 191.41, 102.10 192.99, 99.50 192.50 Z" fill="rgb(82.0,142.0,202.0)" stroke="rgb(82.0,142.0,202.0)" stroke-width="1" />
<path d="M 33.50 352.50 C 31.30 355.73, 33.07 360.60, 32.50 364.50 C 32.50 369.50, 32.50 373.50, 32.50 377.50 C 30.62 383.73, 41.30 384.45, 39.50 379.50 C 39.50 375.17, 39.50 371.83, 39.50 368.50 C 39.50 364.17, 39.50 360.83, 39.50 357.50 C 40.69 352.31, 37.98 352.02, 34.50 352.50 Z" fill="rgb(87.0,146.0,205.05042016806723)" stroke="rgb(87.0,146.0,205.05042016806723)" stroke-width="1" />
<path d="M 497.50 112.50 C 495.34 115.08, 497.04 119.25, 496.50 122.50 C 495.08 128.39, 500.33 127.61, 503.50 127.50 C 507.67 127.61, 512.92 128.39, 511.50 123.50 C 510.01 118.74, 512.19 115.56, 509.50 112.50 C 505.53 115.32, 502.20 111.20, 498.50 112.50 Z" fill="rgb(77.78571428571429,137.78571428571428,197.78571428571428)" stroke="rgb(77.78571428571429,137.78571428571428,197.78571428571428)" stroke-width="1" />
<path d="M 161.50 367.50 C 158.69 368.94, 159.63 371.94, 159.50 374.50 C 159.50 378.17, 159.50 380.83, 159.50 383.50 C 158.80 387.26, 161.20 388.74, 160.50 391.50 C 163.56 391.89, 168.45 394.11, 167.50 390.50 C 168.50 387.17, 168.50 384.83, 168.50 382.50 C 168.50 378.83, 168.50 376.17, 168.50 373.50 C 169.90 367.88, 164.98 368.71, 162.50 367.50 Z" fill="rgb(88.93775933609959,148.0622406639004,206.0)" stroke="rgb(88.93775933609959,148.0622406639004,206.0)" stroke-width="1" />
<path d="M 209.50 368.50 C 209.97 371.83, 209.03 374.58, 208.50 377.50 C 207.17 382.99, 210.67 384.31, 214.50 383.50 C 217.83 383.50, 220.17 383.50, 222.50 383.50 C 223.50 380.17, 223.50 377.83, 223.50 375.50 C 222.44 372.11, 223.45 367.50, 219.50 368.50 C 215.90 368.99, 212.44 367.41, 210.50 369.50 Z" fill="rgb(89.0,148.0,206.0)" stroke="rgb(89.0,148.0,206.0)" stroke-width="1" />
<path d="M 419.50 288.50 C 417.33 291.02, 417.22 294.38, 416.50 297.50 C 415.17 302.99, 418.67 304.31, 422.50 303.50 C 427.68 303.85, 432.75 304.15, 431.50 298.50 C 432.77 294.44, 428.75 291.82, 431.50 289.50 C 427.17 288.50, 423.83 288.50, 420.50 288.50 Z" fill="rgb(86.0,145.0,203.0)" stroke="rgb(86.0,145.0,203.0)" stroke-width="1" />
<path d="M 318.50 82.50 C 318.35 85.84, 321.10 87.98, 320.50 91.50 C 320.81 95.93, 323.19 98.07, 322.50 101.50 C 326.83 101.33, 329.80 105.41, 332.50 102.50 C 331.53 97.49, 330.45 93.52, 329.50 89.50 C 327.81 83.97, 324.46 81.55, 319.50 82.50 Z" fill="rgb(170.54028436018956,30.151658767772513,33.78199052132702)" stroke="rgb(170.54028436018956,30.151658767772513,33.78199052132702)" stroke-width="1" />
<path d="M 256.50 82.50 C 253.29 84.00, 249.90 85.05, 247.50 88.50 C 245.88 93.93, 240.84 96.53, 241.50 101.50 C 241.63 104.88, 237.02 109.07, 241.50 108.50 C 245.60 107.92, 248.97 106.45, 248.50 102.50 C 249.82 98.63, 249.50 95.09, 251.50 92.50 C 253.14 88.35, 255.43 85.47, 257.50 82.50 Z" fill="rgb(4.252525252525253,9.969696969696969,13.126262626262626)" stroke="rgb(4.252525252525253,9.969696969696969,13.126262626262626)" stroke-width="1" />
<path d="M 97.50 160.50 C 95.74 162.24, 95.50 168.64, 99.50 167.50 C 104.89 166.56, 103.20 171.93, 103.50 174.50 C 106.74 174.96, 111.44 177.00, 111.50 173.50 C 111.50 169.83, 111.50 167.17, 111.50 164.50 C 111.49 160.42, 109.21 160.15, 106.50 160.50 C 103.17 160.50, 100.83 160.50, 98.50 160.50 Z" fill="rgb(81.00531914893617,141.00531914893617,201.00531914893617)" stroke="rgb(81.00531914893617,141.00531914893617,201.00531914893617)" stroke-width="1" />
<path d="M 283.50 257.50 C 281.29 258.79, 278.84 259.51, 276.50 260.50 C 272.31 261.92, 270.83 265.49, 271.50 268.50 C 272.17 272.10, 275.75 271.23, 276.50 273.50 C 279.53 270.43, 281.51 268.24, 284.50 268.50 C 287.81 267.78, 289.99 263.87, 287.50 262.50 C 287.96 259.36, 287.26 256.63, 284.50 257.50 Z" fill="rgb(81.94329896907216,39.76288659793814,4.618556701030927)" stroke="rgb(81.94329896907216,39.76288659793814,4.618556701030927)" stroke-width="1" />
<path d="M 447.50 64.50 C 446.38 65.83, 443.49 68.17, 445.50 69.50 C 444.50 73.17, 444.50 75.83, 444.50 78.50 C 448.08 79.24, 452.23 82.28, 455.50 79.50 C 455.50 75.17, 455.50 71.83, 455.50 68.50 C 456.95 62.71, 451.32 65.01, 448.50 64.50 Z" fill="rgb(77.96858638743456,136.03141361256544,199.0)" stroke="rgb(77.96858638743456,136.03141361256544,199.0)" stroke-width="1" />
<path d="M 5.50 240.50 C 5.50 243.83, 5.50 247.17, 5.50 250.50 C 5.62 255.46, 10.51 256.49, 13.50 254.50 C 16.66 251.92, 14.96 247.75, 15.50 244.50 C 16.15 238.48, 9.50 241.17, 6.50 240.50 Z" fill="rgb(82.144578313253,141.14457831325302,201.14457831325302)" stroke="rgb(82.144578313253,141.14457831325302,201.14457831325302)" stroke-width="1" />
<path d="M 560.50 320.50 C 560.65 323.80, 559.10 329.96, 564.50 328.50 C 568.54 327.87, 574.11 329.78, 575.50 327.50 C 575.21 323.79, 576.91 319.09, 572.50 320.50 C 568.17 320.50, 564.83 320.50, 561.50 320.50 Z" fill="rgb(88.0,144.0,203.0)" stroke="rgb(88.0,144.0,203.0)" stroke-width="1" />
<path d="M 10.50 1.50 C 5.98 2.66, 7.86 7.79, 7.50 11.50 C 6.82 16.64, 14.42 16.27, 15.50 14.50 C 15.50 11.17, 15.50 8.83, 15.50 6.50 C 16.33 2.61, 14.39 0.67, 11.50 1.50 Z" fill="rgb(72.875,130.875,193.875)" stroke="rgb(72.875,130.875,193.875)" stroke-width="1" />
<path d="M 104.50 240.50 C 105.23 242.77, 102.70 248.30, 106.50 247.50 C 110.83 247.50, 114.17 247.50, 117.50 247.50 C 119.95 247.26, 120.82 239.27, 117.50 240.50 C 112.83 240.50, 109.17 240.50, 105.50 240.50 Z" fill="rgb(83.0,143.0,203.0)" stroke="rgb(83.0,143.0,203.0)" stroke-width="1" />
<path d="M 80.50 80.50 C 80.50 83.83, 80.50 87.17, 80.50 90.50 C 79.01 96.33, 82.99 95.67, 86.50 95.50 C 87.50 92.17, 87.50 88.83, 87.50 85.50 C 88.99 79.67, 85.01 80.33, 81.50 80.50 Z" fill="rgb(81.0,139.0,202.0)" stroke="rgb(81.0,139.0,202.0)" stroke-width="1" />
<path d="M 520.50 336.50 C 521.01 339.32, 518.71 344.95, 523.50 343.50 C 527.08 342.34, 531.25 344.04, 534.50 343.50 C 535.88 339.43, 535.80 335.19, 531.50 336.50 C 527.50 336.50, 524.50 336.50, 521.50 336.50 Z" fill="rgb(89.0,145.0,204.0)" stroke="rgb(89.0,145.0,204.0)" stroke-width="1" />
<path d="M 193.50 304.50 C 191.95 306.47, 191.11 313.18, 195.50 311.50 C 200.17 311.50, 203.83 311.50, 207.50 311.50 C 207.44 308.11, 208.45 303.50, 204.50 304.50 C 200.50 304.50, 197.50 304.50, 194.50 304.50 Z" fill="rgb(87.0,147.0,207.0)" stroke="rgb(87.0,147.0,207.0)" stroke-width="1" />
<path d="M 114.50 208.50 C 110.88 210.33, 112.28 217.02, 116.50 215.50 C 120.75 214.96, 124.92 216.66, 127.50 214.50 C 127.85 210.79, 127.58 208.51, 124.50 208.50 C 120.83 208.50, 118.17 208.50, 115.50 208.50 Z" fill="rgb(82.0,142.0,202.0)" stroke="rgb(82.0,142.0,202.0)" stroke-width="1" />
<path d="M 449.50 289.50 C 447.08 291.72, 448.48 297.08, 452.50 295.50 C 456.50 295.50, 459.50 295.50, 462.50 295.50 C 464.14 291.52, 463.13 288.39, 459.50 289.50 C 455.83 289.50, 453.17 289.50, 450.50 289.50 Z" fill="rgb(85.0,144.0,202.0)" stroke="rgb(85.0,144.0,202.0)" stroke-width="1" />
<path d="M 560.50 16.50 C 560.50 18.83, 560.50 21.17, 560.50 23.50 C 559.55 28.11, 564.44 25.89, 566.50 26.50 C 568.56 23.47, 568.68 21.05, 568.50 18.50 C 566.87 15.46, 563.78 16.96, 561.50 16.50 Z" fill="rgb(73.01063829787235,133.01063829787233,195.01063829787233)" stroke="rgb(73.01063829787235,133.01063829787233,195.01063829787233)" stroke-width="1" />
<path d="M 473.50 383.50 C 471.12 386.68, 471.91 396.68, 477.50 392.50 C 480.67 392.67, 478.95 388.95, 479.50 387.50 C 480.48 383.09, 476.75 383.30, 474.50 383.50 Z" fill="rgb(90.925,146.925,205.925)" stroke="rgb(90.925,146.925,205.925)" stroke-width="1" />
<path d="M 120.50 72.50 C 119.64 77.70, 120.61 81.06, 126.50 79.50 C 128.36 74.30, 127.39 70.94, 121.50 72.50 Z" fill="rgb(82.0,140.0,203.0)" stroke="rgb(82.0,140.0,203.0)" stroke-width="1" />
<path d="M 80.50 304.50 C 79.64 309.70, 80.61 313.06, 86.50 311.50 C 88.36 306.30, 87.39 302.94, 81.50 304.50 Z" fill="rgb(85.0,145.0,205.0)" stroke="rgb(85.0,145.0,205.0)" stroke-width="1" />
<path d="M 536.50 336.50 C 535.64 341.70, 536.61 345.06, 542.50 343.50 C 544.36 338.30, 543.39 334.94, 537.50 336.50 Z" fill="rgb(88.0,144.0,203.0)" stroke="rgb(88.0,144.0,203.0)" stroke-width="1" />
<path d="M 376.50 352.50 C 377.09 354.57, 375.26 359.07, 377.50 359.50 C 381.14 359.47, 384.77 360.43, 383.50 356.50 C 384.50 351.55, 379.89 352.56, 377.50 352.50 Z" fill="rgb(89.0,148.0,206.0)" stroke="rgb(89.0,148.0,206.0)" stroke-width="1" />
<path d="M 121.50 304.50 C 119.95 306.47, 119.11 313.18, 123.50 311.50 C 130.04 313.07, 128.20 301.44, 122.50 304.50 Z" fill="rgb(85.98360655737704,145.0,205.0)" stroke="rgb(85.98360655737704,145.0,205.0)" stroke-width="1" />
<path d="M 96.50 168.50 C 97.04 170.74, 95.00 175.44, 98.50 175.50 C 102.11 175.78, 104.50 175.84, 103.50 172.50 C 104.50 167.55, 99.89 168.56, 97.50 168.50 Z" fill="rgb(82.0,142.0,202.0)" stroke="rgb(82.0,142.0,202.0)" stroke-width="1" />
<path d="M 266.50 252.50 C 264.92 254.87, 260.89 256.22, 261.50 259.50 C 262.09 262.57, 260.26 267.07, 262.50 267.50 C 263.08 264.19, 265.29 262.97, 264.50 260.50 C 264.70 257.17, 267.63 255.97, 267.50 253.50 Z" fill="rgb(71.43859649122807,29.736842105263158,33.94736842105263)" stroke="rgb(71.43859649122807,29.736842105263158,33.94736842105263)" stroke-width="1" />
<path d="M 96.50 257.50 C 95.36 262.64, 97.36 264.64, 102.50 263.50 C 104.64 258.36, 102.64 256.36, 97.50 257.50 Z" fill="rgb(84.42592592592592,144.42592592592592,204.42592592592592)" stroke="rgb(84.42592592592592,144.42592592592592,204.42592592592592)" stroke-width="1" />
<path d="M 520.50 208.50 C 518.79 214.21, 523.13 213.87, 527.50 213.50 C 528.99 207.67, 525.01 208.33, 521.50 208.50 Z" fill="rgb(80.5,139.5,199.5)" stroke="rgb(80.5,139.5,199.5)" stroke-width="1" />
<path d="M 562.50 376.50 C 563.23 378.77, 560.70 384.30, 564.50 383.50 C 564.77 381.23, 567.30 375.70, 563.50 376.50 Z" fill="rgb(90.0,144.0,204.0)" stroke="rgb(90.0,144.0,204.0)" stroke-width="1" />
</svg>