<svg xmlns="http://www.w3.org/2000/svg" width="600" height="400" viewbox="0 0 600 400">
<path d="M 0.50 0.50 C 0.50 5.17, 0.50 9.83, 0.50 14.50 C 0.50 20.50, 0.50 25.50, 0.50 30.50 C 0.50 36.17, 0.50 40.83, 0.50 45.50 C 0.50 51.50, 0.50 56.50, 0.50 61.50 C 0.50 67.17, 0.50 71.83, 0.50 76.50 C 0.50 82.50, 0.50 87.50, 0.50 92.50 C 0.50 98.17, 0.50 102.83, 0.50 107.50 C 0.50 113.50, 0.50 118.50, 0.50 123.50 C 0.50 129.17, 0.50 133.83, 0.50 138.50 C 0.50 144.50, 0.50 149.50, 0.50 154.50 C 0.50 160.17, 0.50 164.83, 0.50 169.50 C 0.50 175.50, 0.50 180.50, 0.50 185.50 C 0.50 191.17, 0.50 195.83, 0.50 200.50 C 0.50 206.50, 0.50 211.50, 0.50 216.50 C 0.50 222.50, 0.50 227.50, 0.50 232.50 C 0.50 238.50, 0.50 243.50, 0.50 248.50 C 0.50 254.17, 0.50 258.83, 0.50 263.50 C 0.50 269.50, 0.50 274.50, 0.50 279.50 C 0.50 285.17, 0.50 289.83, 0.50 294.50 C 0.50 300.50, 0.50 305.50, 0.50 310.50 C 0.50 316.17, 0.50 320.83, 0.50 325.50 C 0.50 331.50, 0.50 336.50, 0.50 341.50 C 0.50 347.50, 0.50 352.50, 0.50 357.50 C 0.50 363.50, 0.50 368.50, 0.50 373.50 C 0.50 379.17, 0.50 383.83, 0.50 388.50 C 0.95 394.05, -1.76 401.76, 5.50 399.50 C 11.17 399.50, 15.83 399.50, 20.50 399.50 C 26.50 399.50, 31.50 399.50, 36.50 399.50 C 42.17 399.50, 46.83 399.50, 51.50 399.50 C 57.50 399.50, 62.50 399.50, 67.50 399.50 C 73.50 399.50, 78.50 399.50, 83.50 399.50 C 89.50 399.50, 94.50 399.50, 99.50 399.50 C 105.17 399.50, 109.83 399.50, 114.50 399.50 C 120.50 399.50, 125.50 399.50, 130.50 399.50 C 136.17 399.50, 140.83 399.50, 145.50 399.50 C 151.50 399.50, 156.50 399.50, 161.50 399.50 C 167.17 399.50, 171.83 399.50, 176.50 399.50 C 182.50 399.50, 187.50 399.50, 192.50 399.50 C 198.17 399.50, 202.83 399.50, 207.50 399.50 C 213.50 399.50, 218.50 399.50, 223.50 399.50 C 229.17 399.50, 233.83 399.50, 238.50 399.50 C 244.50 399.50, 249.50 399.50, 254.50 399.50 C 260.17 399.50, 264.83 399.50, 269.50 399.50 C 275.50 399.50, 280.50 399.50, 285.50 399.50 C 291.17 399.50, 295.83 399.50, 300.50 399.50 C 306.50 399.50, 311.50 399.50, 316.50 399.50 C 322.50 399.50, 327.50 399.50, 332.50 399.50 C 338.50 399.50, 343.50 399.50, 348.50 399.50 C 354.17 399.50, 358.83 399.50, 363.50 399.50 C 369.50 399.50, 374.50 399.50, 379.50 399.50 C 385.17 399.50, 389.83 399.50, 394.50 399.50 C 400.50 399.50, 405.50 399.50, 410.50 399.50 C 416.17 399.50, 420.83 399.50, 425.50 399.50 C 431.50 399.50, 436.50 399.50, 441.50 399.50 C 447.50 399.50, 452.50 399.50, 457.50 399.50 C 463.50 399.50, 468.50 399.50, 473.50 399.50 C 479.17 399.50, 483.83 399.50, 488.50 399.50 C 494.50 399.50, 499.50 399.50, 504.50 399.50 C 510.17 399.50, 514.83 399.50, 519.50 399.50 C 525.50 399.50, 530.50 399.50, 535.50 399.50 C 541.17 399.50, 545.83 399.50, 550.50 399.50 C 556.50 399.50, 561.50 399.50, 566.50 399.50 C 572.50 399.50, 577.50 399.50, 582.50 399.50 C 588.50 399.50, 593.50 399.50, 598.50 399.50 C 599.50 394.83, 599.50 390.17, 599.50 385.50 C 599.50 379.50, 599.50 374.50, 599.50 369.50 C 599.50 363.83, 599.50 359.17, 599.50 354.50 C 599.50 348.50, 599.50 343.50, 599.50 338.50 C 599.50 332.83, 599.50 328.17, 599.50 323.50 C 599.50 317.50, 599.50 312.50, 599.50 307.50 C 599.50 301.83, 599.50 297.17, 599.50 292.50 C 599.50 286.50, 599.50 281.50, 599.50 276.50 C 599.50 270.83, 599.50 266.17, 599.50 261.50 C 599.50 255.50, 599.50 250.50, 599.50 245.50 C 599.50 239.83, 599.50 235.17, 599.50 230.50 C 599.50 224.50, 599.50 219.50, 599.50 214.50 C 599.50 208.83, 599.50 204.17, 599.50 199.50 C 599.50 193.50, 599.50 188.50, 599.50 183.50 C 599.50 177.50, 599.50 172.50, 599.50 167.50 C 599.50 161.50, 599.50 156.50, 599.50 151.50 C 599.50 145.83, 599.50 141.17, 599.50 136.50 C 599.50 130.50, 599.50 125.50, 599.50 120.50 C 599.50 114.83, 599.50 110.17, 599.50 105.50 C 599.50 99.50, 599.50 94.50, 599.50 89.50 C 599.50 83.83, 599.50 79.17, 599.50 74.50 C 599.50 68.50, 599.50 63.50, 599.50 58.50 C 599.50 52.50, 599.50 47.50, 599.50 42.50 C 599.50 36.50, 599.50 31.50, 599.50 26.50 C 599.50 20.83, 599.50 16.17, 599.50 11.50 C 599.05 5.95, 601.76 -1.76, 594.50 0.50 C 588.83 0.50, 584.17 0.50, 579.50 0.50 C 573.50 0.50, 568.50 0.50, 563.50 0.50 C 557.83 0.50, 553.17 0.50, 548.50 0.50 C 542.50 0.50, 537.50 0.50, 532.50 0.50 C 526.50 0.50, 521.50 0.50, 516.50 0.50 C 510.50 0.50, 505.50 0.50, 500.50 0.50 C 494.83 0.50, 490.17 0.50, 485.50 0.50 C 479.50 0.50, 474.50 0.50, 469.50 0.50 C 463.83 0.50, 459.17 0.50, 454.50 0.50 C 448.50 0.50, 443.50 0.50, 438.50 0.50 C 432.83 0.50, 428.17 0.50, 423.50 0.50 C 417.50 0.50, 412.50 0.50, 407.50 0.50 C 401.83 0.50, 397.17 0.50, 392.50 0.50 C 386.50 0.50, 381.50 0.50, 376.50 0.50 C 370.83 0.50, 366.17 0.50, 361.50 0.50 C 355.50 0.50, 350.50 0.50, 345.50 0.50 C 339.83 0.50, 335.17 0.50, 330.50 0.50 C 324.50 0.50, 319.50 0.50, 314.50 0.50 C 308.83 0.50, 304.17 0.50, 299.50 0.50 C 293.50 0.50, 288.50 0.50, 283.50 0.50 C 277.50 0.50, 272.50 0.50, 267.50 0.50 C 261.50 0.50, 256.50 0.50, 251.50 0.50 C 245.83 0.50, 241.17 0.50, 236.50 0.50 C 230.50 0.50, 225.50 0.50, 220.50 0.50 C 214.83 0.50, 210.17 0.50, 205.50 0.50 C 199.50 0.50, 194.50 0.50, 189.50 0.50 C 183.83 0.50, 179.17 0.50, 174.50 0.50 C 168.50 0.50, 163.50 0.50, 158.50 0.50 C 152.50 0.50, 147.50 0.50, 142.50 0.50 C 136.50 0.50, 131.50 0.50, 126.50 0.50 C 120.83 0.50, 116.17 0.50, 111.50 0.50 C 105.50 0.50, 100.50 0.50, 95.50 0.50 C 89.83 0.50, 85.17 0.50, 80.50 0.50 C 74.50 0.50, 69.50 0.50, 64.50 0.50 C 58.83 0.50, 54.17 0.50, 49.50 0.50 C 43.50 0.50, 38.50 0.50, 33.50 0.50 C 27.50 0.50, 22.50 0.50, 17.50 0.50 C 11.50 0.50, 6.50 0.50, 1.50 0.50 Z" fill="rgb(81.27015945330297,140.85330296127563,200.9872437357631)" stroke="rgb(81.27015945330297,140.85330296127563,200.9872437357631)" stroke-width="1" />
<path d="M 0.50 2.50 C 0.50 7.17, 0.50 11.83, 0.50 16.50 C 0.50 22.50, 0.50 27.50, 0.50 32.50 C 0.50 38.17, 0.50 42.83, 0.50 47.50 C 0.50 53.50, 0.50 58.50, 0.50 63.50 C 0.50 69.17, 0.50 73.83, 0.50 78.50 C 0.50 84.50, 0.50 89.50, 0.50 94.50 C 0.50 100.17, 0.50 104.83, 0.50 109.50 C 0.50 115.50, 0.50 120.50, 0.50 125.50 C 0.50 131.17, 0.50 135.83, 0.50 140.50 C 0.50 146.50, 0.50 151.50, 0.50 156.50 C 0.50 162.17, 0.50 166.83, 0.50 171.50 C 0.50 177.50, 0.50 182.50, 0.50 187.50 C 0.50 193.17, 0.50 197.83, 0.50 202.50 C 0.50 208.50, 0.50 213.50, 0.50 218.50 C 0.50 224.17, 0.50 228.83, 0.50 233.50 C 0.50 239.50, 0.50 244.50, 0.50 249.50 C 0.50 255.17, 0.50 259.83, 0.50 264.50 C 0.50 270.50, 0.50 275.50, 0.50 280.50 C 0.50 286.17, 0.50 290.83, 0.50 295.50 C 0.50 301.50, 0.50 306.50, 0.50 311.50 C 0.50 317.17, 0.50 321.83, 0.50 326.50 C 0.50 332.50, 0.50 337.50, 0.50 342.50 C 0.50 348.17, 0.50 352.83, 0.50 357.50 C 0.50 363.50, 0.50 368.50, 0.50 373.50 C 0.50 379.17, 0.50 383.83, 0.50 388.50 C -0.20 394.50, 0.09 401.94, 6.50 397.50 C 11.38 397.25, 16.55 399.26, 21.50 398.50 C 27.91 398.55, 33.12 397.17, 37.50 397.50 C 40.79 397.13, 42.67 397.77, 44.50 398.50 C 47.42 397.87, 50.70 396.28, 52.50 398.50 C 57.83 396.55, 63.52 397.89, 68.50 397.50 C 73.83 396.55, 79.52 397.89, 84.50 397.50 C 90.50 397.50, 95.50 397.50, 100.50 397.50 C 106.96 397.70, 110.17 398.05, 115.50 397.50 C 121.50 397.50, 126.50 397.50, 131.50 397.50 C 137.17 397.50, 141.83 397.50, 146.50 397.50 C 152.50 397.50, 157.50 397.50, 162.50 397.50 C 168.17 397.50, 172.83 397.50, 177.50 397.50 C 183.50 397.50, 188.50 397.50, 193.50 397.50 C 199.17 397.50, 203.83 397.50, 208.50 397.50 C 214.50 397.50, 219.50 397.50, 224.50 397.50 C 230.17 397.50, 234.83 397.50, 239.50 397.50 C 245.50 397.50, 250.50 397.50, 255.50 397.50 C 261.17 397.50, 265.83 397.50, 270.50 397.50 C 276.50 397.50, 281.50 397.50, 286.50 397.50 C 292.17 397.50, 296.83 397.50, 301.50 397.50 C 307.50 397.50, 312.50 397.50, 317.50 397.50 C 323.50 397.50, 328.50 397.50, 333.50 397.50 C 339.50 397.50, 344.50 397.50, 349.50 397.50 C 355.17 397.50, 359.83 397.50, 364.50 397.50 C 370.50 397.50, 375.50 397.50, 380.50 397.50 C 386.17 397.50, 390.83 397.50, 395.50 397.50 C 401.50 397.50, 406.50 397.50, 411.50 397.50 C 417.17 397.50, 421.83 397.50, 426.50 397.50 C 433.04 396.65, 437.78 399.20, 442.50 397.50 C 448.17 397.50, 452.83 397.50, 457.50 397.50 C 463.50 397.50, 468.50 397.50, 473.50 397.50 C 479.27 396.15, 483.93 399.34, 488.50 397.50 C 491.30 399.72, 494.58 398.13, 496.50 397.50 C 500.26 396.80, 501.74 399.20, 504.50 398.50 C 506.74 396.94, 510.26 396.94, 511.50 398.50 C 515.00 398.58, 516.73 396.77, 519.50 397.50 C 522.58 400.37, 524.81 396.39, 527.50 397.50 C 530.95 399.42, 532.83 397.65, 535.50 397.50 C 541.07 400.00, 545.93 395.68, 550.50 398.50 C 553.04 396.92, 556.96 396.92, 558.50 398.50 C 561.53 397.44, 563.95 397.32, 566.50 397.50 C 569.58 400.37, 571.81 396.39, 574.50 397.50 C 577.95 399.42, 579.83 397.65, 582.50 397.50 C 585.70 398.79, 588.30 398.79, 590.50 397.50 C 593.53 398.56, 595.95 398.68, 598.50 398.50 C 599.50 393.83, 599.50 389.17, 599.50 384.50 C 599.50 378.50, 599.50 373.50, 599.50 368.50 C 599.50 362.83, 599.50 358.17, 599.50 353.50 C 599.50 347.50, 599.50 342.50, 599.50 337.50 C 599.50 331.83, 599.50 327.17, 599.50 322.50 C 599.50 316.50, 599.50 311.50, 599.50 306.50 C 599.50 300.83, 599.50 296.17, 599.50 291.50 C 599.50 285.50, 599.50 280.50, 599.50 275.50 C 599.50 269.83, 599.50 265.17, 599.50 260.50 C 599.50 254.50, 599.50 249.50, 599.50 244.50 C 599.50 238.83, 599.50 234.17, 599.50 229.50 C 599.50 223.50, 599.50 218.50, 599.50 213.50 C 599.50 207.83, 599.50 203.17, 599.50 198.50 C 599.50 192.50, 599.50 187.50, 599.50 182.50 C 599.50 176.83, 599.50 172.17, 599.50 167.50 C 599.50 161.50, 599.50 156.50, 599.50 151.50 C 599.50 145.83, 599.50 141.17, 599.50 136.50 C 599.50 130.50, 599.50 125.50, 599.50 120.50 C 599.50 114.83, 599.50 110.17, 599.50 105.50 C 599.50 99.50, 599.50 94.50, 599.50 89.50 C 599.50 83.83, 599.50 79.17, 599.50 74.50 C 599.50 68.50, 599.50 63.50, 599.50 58.50 C 599.50 52.83, 599.50 48.17, 599.50 43.50 C 599.50 37.50, 599.50 32.50, 599.50 27.50 C 599.50 21.83, 599.50 17.17, 599.50 12.50 C 599.77 6.23, 600.70 0.30, 593.50 2.50 C 587.83 2.50, 583.17 2.50, 578.50 2.50 C 572.50 2.50, 567.50 2.50, 562.50 2.50 C 556.83 2.50, 552.17 2.50, 547.50 2.50 C 541.50 2.50, 536.50 2.50, 531.50 2.50 C 525.50 2.50, 520.50 2.50, 515.50 2.50 C 509.50 2.50, 504.50 2.50, 499.50 2.50 C 493.83 2.50, 489.17 2.50, 484.50 2.50 C 478.50 2.50, 473.50 2.50, 468.50 2.50 C 462.83 2.50, 458.17 2.50, 453.50 2.50 C 447.50 2.50, 442.50 2.50, 437.50 2.50 C 431.83 2.50, 427.17 2.50, 422.50 2.50 C 416.50 2.50, 411.50 2.50, 406.50 2.50 C 400.83 2.50, 396.17 2.50, 391.50 2.50 C 385.50 2.50, 380.50 2.50, 375.50 2.50 C 369.83 2.50, 365.17 2.50, 360.50 2.50 C 354.50 2.50, 349.50 2.50, 344.50 2.50 C 338.83 2.50, 334.17 2.50, 329.50 2.50 C 323.50 2.50, 318.50 2.50, 313.50 2.50 C 307.83 2.50, 303.17 2.50, 298.50 2.50 C 292.50 2.50, 287.50 2.50, 282.50 2.50 C 276.50 2.50, 271.50 2.50, 266.50 2.50 C 260.50 2.50, 255.50 2.50, 250.50 2.50 C 244.83 2.50, 240.17 2.50, 235.50 2.50 C 229.50 2.50, 224.50 2.50, 219.50 2.50 C 213.83 2.50, 209.17 2.50, 204.50 2.50 C 198.50 2.50, 193.50 2.50, 188.50 2.50 C 182.83 2.50, 178.17 2.50, 173.50 2.50 C 167.50 2.50, 162.50 2.50, 157.50 2.50 C 151.83 2.50, 147.17 2.50, 142.50 2.50 C 136.50 2.50, 131.50 2.50, 126.50 2.50 C 120.83 2.50, 116.17 2.50, 111.50 2.50 C 105.50 2.50, 100.50 2.50, 95.50 2.50 C 89.83 2.50, 85.17 2.50, 80.50 2.50 C 74.50 2.50, 69.50 2.50, 64.50 2.50 C 58.83 2.50, 54.17 2.50, 49.50 2.50 C 43.50 2.50, 38.50 2.50, 33.50 2.50 C 27.50 2.50, 22.50 2.50, 17.50 2.50 C 11.50 2.50, 6.50 2.50, 1.50 2.50 Z" fill="rgb(82.17934260086643,141.14759809521655,201.7698650589872)" stroke="rgb(82.17934260086643,141.14759809521655,201.7698650589872)" stroke-width="1" />
<path d="M 295.50 75.50 C 293.87 77.54, 290.78 76.04, 288.50 76.50 C 284.83 76.50, 282.17 76.50, 279.50 76.50 C 275.45 76.90, 273.20 78.25, 270.50 78.50 C 267.12 79.86, 263.88 79.14, 261.50 80.50 C 255.20 82.58, 249.99 84.88, 244.50 86.50 C 240.97 89.17, 238.32 90.54, 235.50 91.50 C 231.73 94.24, 228.74 95.47, 226.50 98.50 C 220.76 103.71, 215.43 109.10, 211.50 114.50 C 208.70 117.70, 208.67 121.04, 206.50 123.50 C 204.75 126.86, 203.82 129.55, 203.50 132.50 C 202.18 136.31, 201.25 138.87, 200.50 141.50 C 198.96 144.80, 199.37 147.92, 198.50 150.50 C 198.25 154.20, 196.90 156.45, 197.50 159.50 C 196.72 163.63, 199.00 165.49, 198.50 168.50 C 200.35 174.76, 201.00 180.51, 203.50 185.50 C 205.14 188.90, 205.37 191.89, 206.50 194.50 C 208.13 198.46, 209.64 201.05, 211.50 203.50 C 212.50 207.11, 214.78 209.19, 216.50 211.50 C 218.38 215.22, 220.27 217.93, 222.50 220.50 C 225.80 224.18, 227.54 227.09, 230.50 229.50 C 233.23 231.51, 234.52 235.62, 237.50 237.50 C 243.57 244.07, 248.64 247.92, 253.50 252.50 C 256.60 256.27, 260.58 258.25, 261.50 261.50 C 263.25 266.08, 266.21 265.30, 268.50 268.50 C 271.91 271.46, 274.82 273.20, 277.50 275.50 C 279.84 279.16, 282.76 281.17, 282.50 284.50 C 283.68 288.23, 283.17 291.66, 286.50 293.50 C 290.32 294.03, 292.79 296.48, 295.50 294.50 C 299.00 294.42, 300.73 296.23, 303.50 295.50 C 308.17 295.52, 310.00 291.86, 311.50 289.50 C 312.63 285.89, 312.86 282.90, 314.50 280.50 C 317.17 276.83, 319.83 274.17, 322.50 271.50 C 325.59 269.25, 328.22 268.31, 330.50 266.50 C 332.08 262.38, 333.66 259.68, 336.50 257.50 C 340.75 255.58, 342.73 251.60, 345.50 249.50 C 349.17 245.83, 351.83 243.17, 354.50 240.50 C 360.68 234.38, 364.69 228.77, 369.50 223.50 C 372.53 220.26, 373.76 217.27, 375.50 214.50 C 378.91 211.14, 378.97 207.81, 381.50 205.50 C 384.67 199.18, 387.20 193.59, 388.50 187.50 C 389.07 183.38, 392.44 181.83, 391.50 178.50 C 393.37 174.92, 392.96 171.80, 394.50 169.50 C 394.93 163.20, 396.56 157.64, 394.50 152.50 C 393.48 145.70, 391.52 140.30, 390.50 134.50 C 388.76 127.51, 385.38 122.61, 382.50 117.50 C 380.67 113.35, 376.55 111.56, 375.50 108.50 C 371.46 105.27, 370.63 101.88, 367.50 100.50 C 361.67 94.62, 355.94 91.90, 350.50 88.50 C 344.18 85.01, 338.26 82.94, 332.50 80.50 C 328.77 79.99, 326.63 78.05, 323.50 78.50 C 320.23 77.21, 317.32 77.46, 314.50 77.50 C 310.83 76.50, 308.17 76.50, 305.50 76.50 C 301.37 77.28, 299.51 75.00, 296.50 75.50 Z" fill="rgb(178.64163471429907,132.0743477041055,22.030674272888806)" stroke="rgb(178.64163471429907,132.0743477041055,22.030674272888806)" stroke-width="1" />
<path d="M 282.50 76.50 C 280.45 78.64, 276.65 76.58, 274.50 78.50 C 270.38 78.07, 268.83 81.44, 265.50 80.50 C 261.29 80.85, 258.86 82.09, 256.50 83.50 C 253.17 86.31, 249.23 84.24, 247.50 87.50 C 244.25 89.84, 241.17 90.17, 238.50 91.50 C 234.58 93.88, 232.01 96.13, 229.50 98.50 C 227.00 102.24, 226.08 105.21, 223.50 107.50 C 221.78 111.06, 222.68 114.71, 221.50 117.50 C 219.41 120.44, 220.99 123.90, 220.50 126.50 C 219.90 130.55, 221.25 132.80, 221.50 135.50 C 221.12 139.66, 221.81 142.36, 224.50 143.50 C 227.26 140.41, 222.50 137.27, 225.50 134.50 C 227.32 130.93, 231.02 129.41, 233.50 128.50 C 237.40 127.55, 238.42 125.87, 238.50 122.50 C 236.90 119.65, 236.90 115.35, 238.50 113.50 C 237.93 108.26, 243.49 108.98, 245.50 106.50 C 251.27 110.60, 246.26 118.76, 249.50 123.50 C 253.08 122.63, 256.20 123.04, 258.50 121.50 C 259.00 125.51, 261.28 127.37, 260.50 130.50 C 260.46 134.32, 260.21 137.23, 261.50 139.50 C 263.69 141.13, 267.07 141.00, 269.50 139.50 C 273.58 141.31, 273.86 144.27, 273.50 147.50 C 275.63 150.76, 273.98 154.58, 274.50 157.50 C 278.17 158.50, 280.83 158.50, 283.50 158.50 C 288.00 158.56, 285.96 163.26, 286.50 165.50 C 288.59 168.44, 287.01 171.90, 287.50 174.50 C 287.41 179.16, 290.63 178.59, 293.50 178.50 C 297.81 177.50, 300.14 182.55, 297.50 184.50 C 299.59 187.44, 298.01 190.90, 298.50 193.50 C 298.02 197.38, 302.10 198.21, 304.50 198.50 C 307.63 201.76, 305.98 205.58, 306.50 208.50 C 307.58 211.93, 303.47 215.62, 306.50 216.50 C 310.49 216.65, 312.95 221.63, 310.50 223.50 C 310.54 227.32, 310.79 230.23, 309.50 232.50 C 308.29 237.62, 312.72 237.63, 314.50 240.50 C 315.30 244.63, 317.68 236.76, 320.50 237.50 C 324.32 234.45, 322.28 230.39, 325.50 228.50 C 326.98 224.84, 329.30 221.89, 332.50 221.50 C 337.48 222.03, 336.58 216.28, 339.50 214.50 C 341.12 211.02, 343.13 207.00, 346.50 207.50 C 351.55 208.35, 350.63 203.37, 352.50 201.50 C 354.61 198.12, 355.26 194.03, 358.50 193.50 C 361.77 193.44, 365.62 194.80, 366.50 191.50 C 369.65 188.17, 369.84 185.03, 371.50 182.50 C 373.98 178.50, 379.29 179.60, 378.50 175.50 C 379.69 171.50, 381.38 169.12, 382.50 166.50 C 386.90 163.78, 389.53 166.59, 391.50 161.50 C 390.75 154.75, 394.50 148.81, 391.50 143.50 C 391.78 139.44, 391.01 136.82, 389.50 134.50 C 388.21 130.96, 388.82 127.62, 386.50 125.50 C 384.24 117.83, 378.50 113.03, 374.50 107.50 C 370.61 103.85, 369.37 101.61, 366.50 99.50 C 362.67 96.09, 359.70 94.01, 356.50 92.50 C 349.77 88.99, 344.23 86.01, 338.50 83.50 C 332.44 80.38, 326.45 79.49, 320.50 78.50 C 314.17 77.02, 308.58 76.17, 302.50 76.50 C 298.83 76.50, 296.17 76.50, 293.50 76.50 C 289.07 75.81, 286.93 78.19, 283.50 77.50 Z" fill="rgb(164.613579716373,83.76613665663945,62.22337773957886)" stroke="rgb(164.613579716373,83.76613665663945,62.22337773957886)" stroke-width="1" />
<path d="M 228.50 97.50 C 225.20 99.11, 222.80 102.89, 219.50 104.50 C 216.31 108.28, 213.94 111.40, 211.50 114.50 C 209.63 118.83, 207.39 121.59, 205.50 124.50 C 204.54 128.52, 203.46 131.48, 202.50 134.50 C 200.50 138.09, 200.82 141.63, 199.50 144.50 C 198.44 148.34, 198.21 151.52, 197.50 154.50 C 197.50 158.50, 197.50 161.50, 197.50 164.50 C 198.42 168.73, 199.27 171.99, 199.50 175.50 C 200.97 179.72, 202.01 182.70, 203.50 185.50 C 204.46 189.52, 205.54 192.48, 206.50 195.50 C 208.27 199.73, 210.73 202.27, 211.50 205.50 C 214.14 209.65, 216.43 212.53, 218.50 215.50 C 221.71 219.55, 223.63 222.72, 226.50 225.50 C 228.75 229.95, 233.42 231.98, 234.50 235.50 C 238.50 238.50, 241.50 241.50, 244.50 244.50 C 248.65 248.93, 252.00 251.89, 255.50 254.50 C 258.77 253.19, 254.80 248.23, 252.50 246.50 C 249.10 242.81, 247.90 239.19, 244.50 236.50 C 243.20 232.05, 241.71 230.29, 239.50 227.50 C 236.51 223.81, 230.42 220.19, 234.50 217.50 C 237.45 213.35, 232.62 210.99, 232.50 207.50 C 229.92 203.60, 226.84 201.33, 227.50 197.50 C 228.06 192.85, 226.30 190.17, 224.50 187.50 C 222.82 183.31, 220.20 180.51, 220.50 176.50 C 224.33 174.93, 229.48 173.22, 226.50 169.50 C 225.01 165.70, 223.97 162.72, 223.50 159.50 C 222.60 155.18, 221.21 152.48, 220.50 149.50 C 219.72 145.35, 219.16 142.11, 219.50 138.50 C 218.04 134.97, 218.57 131.61, 218.50 128.50 C 218.03 124.17, 218.97 121.42, 219.50 118.50 C 219.53 114.10, 221.65 111.56, 222.50 108.50 C 225.19 104.31, 226.86 100.71, 229.50 97.50 Z" fill="rgb(71.57745398773007,12.489263803680982,20.23197852760736)" stroke="rgb(71.57745398773007,12.489263803680982,20.23197852760736)" stroke-width="1" />
<path d="M 497.50 305.50 C 496.36 309.17, 496.37 313.31, 496.50 317.50 C 495.99 322.85, 497.06 326.54, 497.50 330.50 C 496.69 336.10, 498.85 340.89, 503.50 341.50 C 509.44 340.74, 513.23 343.32, 517.50 341.50 C 521.20 339.42, 524.53 334.31, 529.50 335.50 C 535.37 335.48, 537.94 335.96, 542.50 335.50 C 547.50 335.50, 551.50 335.50, 555.50 335.50 C 560.36 334.77, 564.68 335.91, 569.50 335.50 C 576.00 336.64, 575.47 329.88, 576.50 326.50 C 576.66 321.30, 574.76 317.95, 575.50 313.50 C 575.54 307.99, 571.51 306.00, 566.50 306.50 C 561.04 306.46, 557.25 304.82, 552.50 305.50 C 547.50 305.50, 543.50 305.50, 539.50 305.50 C 534.17 305.50, 529.83 305.50, 525.50 305.50 C 520.50 305.50, 516.50 305.50, 512.50 305.50 C 507.17 305.50, 502.83 305.50, 498.50 305.50 Z" fill="rgb(87.99336870026525,143.99336870026525,202.99336870026525)" stroke="rgb(87.99336870026525,143.99336870026525,202.99336870026525)" stroke-width="1" />
<path d="M 337.50 368.50 C 335.34 371.08, 337.04 375.25, 336.50 378.50 C 336.65 382.91, 335.90 386.69, 337.50 389.50 C 338.12 393.34, 337.36 398.95, 341.50 398.50 C 345.83 398.50, 349.17 398.50, 352.50 398.50 C 356.83 398.50, 360.17 398.50, 363.50 398.50 C 367.83 398.50, 371.17 398.50, 374.50 398.50 C 378.83 398.50, 382.17 398.50, 385.50 398.50 C 390.17 398.50, 393.83 398.50, 397.50 398.50 C 400.66 395.92, 398.96 391.75, 399.50 388.50 C 399.50 384.17, 399.50 380.83, 399.50 377.50 C 399.68 373.30, 399.90 368.26, 395.50 369.50 C 390.83 368.50, 387.17 368.50, 383.50 368.50 C 379.22 370.98, 376.24 367.83, 372.50 368.50 C 368.17 368.50, 364.83 368.50, 361.50 368.50 C 357.17 368.50, 353.83 368.50, 350.50 368.50 C 345.83 368.50, 342.17 368.50, 338.50 368.50 Z" fill="rgb(91.32865731462925,149.57114228456913,207.82364729458916)" stroke="rgb(91.32865731462925,149.57114228456913,207.82364729458916)" stroke-width="1" />
<path d="M 130.50 264.50 C 128.73 267.04, 128.24 270.12, 128.50 273.50 C 128.50 277.83, 128.50 281.17, 128.50 284.50 C 128.57 288.61, 128.04 291.97, 129.50 294.50 C 130.39 300.49, 133.17 298.17, 137.50 298.50 C 142.77 297.00, 142.23 303.00, 146.50 301.50 C 150.83 302.50, 154.17 302.50, 157.50 302.50 C 161.93 301.81, 164.07 304.19, 167.50 303.50 C 171.12 301.41, 176.54 303.99, 175.50 298.50 C 175.50 294.50, 175.50 291.50, 175.50 288.50 C 175.50 284.17, 175.50 280.83, 175.50 277.50 C 175.50 273.50, 175.50 270.50, 175.50 267.50 C 173.34 263.00, 168.89 265.04, 165.50 264.50 C 161.50 264.50, 158.50 264.50, 155.50 264.50 C 151.17 264.50, 147.83 264.50, 144.50 264.50 C 141.46 269.19, 136.58 261.68, 135.50 266.50 C 134.48 274.24, 132.03 267.09, 131.50 264.50 Z" fill="rgb(84.96901408450704,144.96901408450705,204.96901408450705)" stroke="rgb(84.96901408450704,144.96901408450705,204.96901408450705)" stroke-width="1" />
<path d="M 499.50 304.50 C 494.93 305.01, 496.88 309.75, 496.50 313.50 C 497.06 318.07, 495.32 322.60, 497.50 325.50 C 498.89 328.78, 504.46 326.87, 507.50 327.50 C 512.50 327.50, 516.50 327.50, 520.50 327.50 C 525.17 327.50, 528.83 327.50, 532.50 327.50 C 537.17 327.50, 540.83 327.50, 544.50 327.50 C 549.17 327.50, 552.83 327.50, 556.50 327.50 C 562.52 328.46, 556.21 318.02, 562.50 319.50 C 567.07 318.94, 571.60 320.68, 574.50 318.50 C 575.85 313.55, 573.72 310.63, 574.50 306.50 C 570.60 303.32, 566.07 305.06, 562.50 304.50 C 557.50 304.50, 553.50 304.50, 549.50 304.50 C 544.83 304.50, 541.17 304.50, 537.50 304.50 C 532.83 304.50, 529.17 304.50, 525.50 304.50 C 520.83 304.50, 517.17 304.50, 513.50 304.50 C 508.50 304.50, 504.50 304.50, 500.50 304.50 Z" fill="rgb(87.01185770750988,143.01185770750988,202.01185770750988)" stroke="rgb(87.01185770750988,143.01185770750988,202.01185770750988)" stroke-width="1" />
<path d="M 276.50 77.50 C 272.73 78.93, 268.24 80.25, 266.50 84.50 C 264.30 89.09, 263.05 92.65, 262.50 96.50 C 260.50 100.61, 262.50 105.39, 260.50 108.50 C 260.50 113.17, 260.50 116.83, 260.50 120.50 C 259.72 125.63, 261.85 128.55, 261.50 132.50 C 260.68 137.10, 262.36 143.24, 266.50 139.50 C 272.11 138.29, 274.71 140.89, 273.50 145.50 C 275.76 149.98, 273.32 155.40, 276.50 158.50 C 280.85 158.50, 286.77 159.37, 285.50 154.50 C 285.28 149.79, 286.20 145.60, 284.50 142.50 C 284.50 137.83, 284.50 134.17, 284.50 130.50 C 284.50 125.83, 284.50 122.17, 284.50 118.50 C 284.50 113.83, 284.50 110.17, 284.50 106.50 C 282.29 102.09, 285.54 98.67, 284.50 94.50 C 285.06 89.93, 283.32 85.40, 285.50 82.50 C 287.63 75.85, 281.53 77.79, 277.50 77.50 Z" fill="rgb(57.478517270429656,71.88458298230834,113.13816343723673)" stroke="rgb(57.478517270429656,71.88458298230834,113.13816343723673)" stroke-width="1" />
<path d="M 288.50 256.50 C 282.85 258.07, 277.34 259.97, 272.50 263.50 C 269.03 271.50, 280.11 272.68, 280.50 279.50 C 282.87 285.62, 282.68 293.44, 289.50 294.50 C 293.92 296.35, 296.10 290.77, 298.50 293.50 C 301.91 297.42, 304.58 293.59, 307.50 294.50 C 310.73 292.37, 311.93 290.42, 311.50 287.50 C 312.69 283.50, 314.38 281.12, 315.50 278.50 C 318.25 269.67, 309.15 268.39, 304.50 265.50 C 306.13 262.46, 309.22 263.96, 311.50 263.50 C 312.79 259.41, 310.59 257.21, 307.50 257.50 C 300.98 256.82, 295.47 256.11, 289.50 256.50 Z" fill="rgb(204.11182108626198,142.30670926517573,33.23003194888179)" stroke="rgb(204.11182108626198,142.30670926517573,33.23003194888179)" stroke-width="1" />
<path d="M 410.50 360.50 C 407.35 361.37, 408.58 364.30, 409.50 366.50 C 406.64 369.31, 404.23 369.80, 401.50 369.50 C 400.01 375.02, 400.58 380.40, 400.50 385.50 C 401.44 390.55, 397.72 399.59, 404.50 398.50 C 410.83 398.50, 416.17 398.50, 421.50 398.50 C 428.11 399.42, 433.55 398.42, 431.50 391.50 C 431.50 385.17, 431.50 379.83, 431.50 374.50 C 430.38 369.43, 434.24 360.77, 428.50 360.50 C 422.17 360.50, 416.83 360.50, 411.50 360.50 Z" fill="rgb(89.46358183376178,148.4635818337618,206.4635818337618)" stroke="rgb(89.46358183376178,148.4635818337618,206.4635818337618)" stroke-width="1" />
<path d="M 489.50 175.50 C 486.07 177.76, 478.84 174.47, 480.50 181.50 C 480.50 187.17, 480.50 191.83, 480.50 196.50 C 482.48 198.82, 481.08 201.53, 481.50 203.50 C 481.55 207.75, 485.56 207.50, 487.50 208.50 C 493.17 208.50, 497.83 208.50, 502.50 208.50 C 508.03 208.49, 513.24 207.41, 511.50 201.50 C 511.50 195.83, 511.50 191.17, 511.50 186.50 C 511.97 180.67, 512.19 174.46, 505.50 176.50 C 499.94 175.91, 494.38 177.73, 490.50 175.50 Z" fill="rgb(80.3206106870229,140.3206106870229,202.23282442748092)" stroke="rgb(80.3206106870229,140.3206106870229,202.23282442748092)" stroke-width="1" />
<path d="M 337.50 368.50 C 335.28 372.05, 337.08 377.27, 336.50 381.50 C 336.50 387.17, 336.50 391.83, 336.50 396.50 C 340.38 399.73, 345.94 397.91, 350.50 398.50 C 356.17 398.50, 360.83 398.50, 365.50 398.50 C 366.97 395.49, 366.17 389.79, 366.50 385.50 C 367.89 380.27, 367.48 375.30, 367.50 370.50 C 364.13 367.20, 357.52 369.14, 353.50 368.50 C 347.83 368.50, 343.17 368.50, 338.50 368.50 Z" fill="rgb(90.9753086419753,149.97530864197532,207.97530864197532)" stroke="rgb(90.9753086419753,149.97530864197532,207.97530864197532)" stroke-width="1" />
<path d="M 400.50 264.50 C 396.61 265.66, 389.75 266.01, 391.50 272.50 C 389.30 277.76, 389.49 282.74, 393.50 286.50 C 398.05 288.72, 403.27 286.92, 407.50 287.50 C 413.17 287.50, 417.83 287.50, 422.50 287.50 C 428.96 288.90, 431.90 285.96, 430.50 280.50 C 430.50 274.83, 430.50 270.17, 430.50 265.50 C 425.17 264.50, 420.83 264.50, 416.50 264.50 C 410.83 264.50, 406.17 264.50, 401.50 264.50 Z" fill="rgb(85.37460317460318,145.1915343915344,204.35238095238094)" stroke="rgb(85.37460317460318,145.1915343915344,204.35238095238094)" stroke-width="1" />
<path d="M 291.50 268.50 C 288.01 270.25, 283.37 269.25, 280.50 272.50 C 278.26 277.43, 282.24 280.19, 282.50 284.50 C 283.60 289.13, 284.54 294.17, 289.50 294.50 C 292.16 294.14, 294.48 295.39, 295.50 293.50 C 297.67 289.43, 299.68 294.48, 301.50 295.50 C 306.01 294.42, 311.05 293.86, 311.50 289.50 C 312.03 284.03, 314.21 280.24, 316.50 276.50 C 314.43 270.80, 308.97 270.76, 305.50 269.50 C 301.10 267.72, 296.52 268.78, 292.50 268.50 Z" fill="rgb(197.54395604395606,156.67948717948718,57.22527472527472)" stroke="rgb(197.54395604395606,156.67948717948718,57.22527472527472)" stroke-width="1" />
<path d="M 289.50 179.50 C 287.41 181.44, 288.99 184.90, 288.50 187.50 C 288.99 191.10, 287.41 194.56, 289.50 196.50 C 289.31 203.38, 291.25 208.39, 290.50 214.50 C 292.59 217.44, 291.01 220.90, 291.50 223.50 C 290.90 227.55, 292.25 229.80, 292.50 232.50 C 291.90 236.55, 293.25 238.80, 293.50 241.50 C 295.44 244.80, 300.54 244.46, 301.50 241.50 C 302.91 238.14, 304.15 235.71, 303.50 232.50 C 303.75 228.80, 305.10 226.55, 304.50 223.50 C 305.37 219.47, 304.30 217.97, 304.50 214.50 C 304.50 210.83, 304.50 208.17, 304.50 205.50 C 307.01 202.43, 304.57 198.21, 301.50 199.50 C 297.16 199.15, 296.24 195.15, 296.50 192.50 C 296.50 188.83, 296.50 186.17, 296.50 183.50 C 297.91 178.09, 293.21 179.79, 290.50 179.50 Z" fill="rgb(195.61868686868686,139.87373737373738,15.580808080808081)" stroke="rgb(195.61868686868686,139.87373737373738,15.580808080808081)" stroke-width="1" />
<path d="M 537.50 72.50 C 535.48 75.61, 537.14 80.24, 535.50 83.50 C 535.73 88.21, 537.11 91.44, 536.50 95.50 C 535.61 100.99, 537.95 103.70, 542.50 102.50 C 547.40 101.93, 552.27 103.70, 555.50 101.50 C 559.38 98.61, 559.49 94.58, 559.50 90.50 C 559.50 85.50, 559.50 81.50, 559.50 77.50 C 559.64 71.56, 555.54 72.40, 551.50 72.50 C 546.50 72.50, 542.50 72.50, 538.50 72.50 Z" fill="rgb(77.0,137.0,199.0)" stroke="rgb(77.0,137.0,199.0)" stroke-width="1" />
<path d="M 432.50 305.50 C 432.50 309.17, 432.50 312.83, 432.50 316.50 C 432.50 321.50, 432.50 325.50, 432.50 329.50 C 432.56 335.13, 436.09 336.29, 440.50 335.50 C 445.40 334.93, 450.27 336.70, 453.50 334.50 C 454.15 330.55, 456.28 327.63, 455.50 323.50 C 455.50 318.50, 455.50 314.50, 455.50 310.50 C 456.93 303.67, 449.95 305.89, 446.50 305.50 C 441.50 305.50, 437.50 305.50, 433.50 305.50 Z" fill="rgb(87.0,146.0,204.0)" stroke="rgb(87.0,146.0,204.0)" stroke-width="1" />
<path d="M 82.50 328.50 C 78.75 329.83, 81.19 335.06, 80.50 338.50 C 79.50 343.99, 83.04 346.61, 83.50 350.50 C 87.90 351.47, 91.60 351.73, 95.50 351.50 C 100.40 350.93, 105.27 352.70, 108.50 350.50 C 109.58 345.59, 111.08 342.27, 111.50 338.50 C 110.96 334.10, 113.31 328.49, 108.50 328.50 C 103.83 328.50, 100.17 328.50, 96.50 328.50 C 91.50 328.50, 87.50 328.50, 83.50 328.50 Z" fill="rgb(87.65145228215768,147.0,207.0)" stroke="rgb(87.65145228215768,147.0,207.0)" stroke-width="1" />
<path d="M 83.50 367.50 C 79.62 368.90, 80.56 373.68, 80.50 377.50 C 80.50 382.17, 80.50 385.83, 80.50 389.50 C 80.86 394.86, 82.23 396.71, 86.50 398.50 C 91.49 397.80, 96.78 400.26, 99.50 396.50 C 103.38 397.91, 103.49 390.53, 103.50 387.50 C 104.54 384.43, 100.69 383.00, 103.50 381.50 C 102.48 378.50, 102.48 377.50, 103.50 375.50 C 105.07 369.05, 101.25 368.55, 97.50 367.50 C 92.50 367.50, 88.50 367.50, 84.50 367.50 Z" fill="rgb(89.0359612724758,148.0359612724758,206.0359612724758)" stroke="rgb(89.0359612724758,148.0359612724758,206.0359612724758)" stroke-width="1" />
<path d="M 513.50 264.50 C 511.32 267.40, 513.06 271.93, 512.50 275.50 C 512.50 280.50, 512.50 284.50, 512.50 288.50 C 511.15 294.20, 515.44 296.21, 519.50 295.50 C 524.50 295.50, 528.50 295.50, 532.50 295.50 C 537.14 293.07, 534.87 288.18, 535.50 284.50 C 534.84 279.84, 537.50 273.41, 532.50 272.50 C 526.10 273.96, 527.65 267.80, 527.50 264.50 C 522.50 264.50, 518.50 264.50, 514.50 264.50 Z" fill="rgb(85.64213564213564,142.17893217893217,203.0)" stroke="rgb(85.64213564213564,142.17893217893217,203.0)" stroke-width="1" />
<path d="M 577.50 240.50 C 575.32 243.40, 577.06 247.93, 576.50 251.50 C 576.50 256.50, 576.50 260.50, 576.50 264.50 C 577.07 269.40, 575.30 274.27, 577.50 277.50 C 580.73 280.70, 585.60 278.93, 589.50 279.50 C 592.79 276.79, 590.87 270.87, 591.50 267.50 C 591.50 262.50, 591.50 258.50, 591.50 254.50 C 591.22 249.48, 592.28 244.90, 590.50 241.50 C 586.50 240.50, 582.50 240.50, 578.50 240.50 Z" fill="rgb(83.06976744186046,142.0,202.02325581395348)" stroke="rgb(83.06976744186046,142.0,202.02325581395348)" stroke-width="1" />
<path d="M 537.50 208.50 C 535.56 211.27, 528.50 207.05, 529.50 212.50 C 529.50 216.83, 529.50 220.17, 529.50 223.50 C 529.39 227.67, 528.61 232.92, 533.50 231.50 C 536.38 235.30, 539.23 236.13, 543.50 235.50 C 548.43 235.87, 551.48 235.89, 551.50 231.50 C 551.50 227.17, 551.50 223.83, 551.50 220.50 C 551.50 216.03, 549.80 213.26, 550.50 209.50 C 545.55 209.85, 542.63 207.72, 538.50 208.50 Z" fill="rgb(81.00169779286927,140.00169779286927,200.00169779286927)" stroke="rgb(81.00169779286927,140.00169779286927,200.00169779286927)" stroke-width="1" />
<path d="M 63.50 93.50 C 60.96 95.27, 57.88 95.76, 54.50 95.50 C 49.21 95.23, 47.91 98.75, 48.50 102.50 C 47.80 107.26, 49.50 110.03, 49.50 113.50 C 48.34 118.92, 53.29 119.44, 56.50 119.50 C 60.83 119.50, 64.17 119.50, 67.50 119.50 C 72.72 118.98, 71.33 115.12, 71.50 111.50 C 71.50 107.17, 71.50 103.83, 71.50 100.50 C 71.39 95.10, 68.19 94.19, 64.50 93.50 Z" fill="rgb(80.41095890410959,138.41095890410958,201.41095890410958)" stroke="rgb(80.41095890410959,138.41095890410958,201.41095890410958)" stroke-width="1" />
<path d="M 129.50 208.50 C 126.81 211.09, 129.81 216.48, 128.50 218.50 C 129.08 222.57, 128.75 225.28, 129.50 229.50 C 130.56 232.77, 135.79 230.88, 138.50 231.50 C 143.17 231.50, 146.83 231.50, 150.50 231.50 C 155.39 230.64, 152.46 224.41, 152.50 222.50 C 151.20 219.20, 151.54 214.48, 151.50 210.50 C 150.44 207.23, 145.21 209.12, 142.50 208.50 C 137.83 208.50, 134.17 208.50, 130.50 208.50 Z" fill="rgb(83.0,143.0,203.0)" stroke="rgb(83.0,143.0,203.0)" stroke-width="1" />
<path d="M 577.50 168.50 C 575.34 171.08, 577.04 175.25, 576.50 178.50 C 576.50 182.83, 576.50 186.17, 576.50 189.50 C 580.08 192.66, 584.25 190.96, 587.50 191.50 C 591.83 191.50, 595.17 191.50, 598.50 191.50 C 599.50 188.17, 599.50 184.83, 599.50 181.50 C 599.50 177.17, 599.50 173.83, 599.50 170.50 C 598.44 167.23, 593.21 169.12, 590.50 168.50 C 585.83 168.50, 582.17 168.50, 578.50 168.50 Z" fill="rgb(81.0,140.0,200.0)" stroke="rgb(81.0,140.0,200.0)" stroke-width="1" />
<path d="M 433.50 359.50 C 431.34 362.08, 433.04 366.25, 432.50 369.50 C 432.50 373.83, 432.50 377.17, 432.50 380.50 C 432.50 384.83, 432.50 388.17, 432.50 391.50 C 433.84 395.91, 438.61 396.87, 442.50 396.50 C 445.91 396.12, 448.20 392.16, 447.50 388.50 C 447.50 383.83, 447.50 380.17, 447.50 376.50 C 447.33 372.61, 448.53 366.94, 444.50 367.50 C 438.39 367.02, 439.90 359.04, 434.50 359.50 Z" fill="rgb(88.58285714285714,147.14857142857142,205.29333333333332)" stroke="rgb(88.58285714285714,147.14857142857142,205.29333333333332)" stroke-width="1" />
<path d="M 539.50 256.50 C 535.72 257.45, 536.45 261.19, 536.50 264.50 C 536.03 268.83, 536.97 271.58, 537.50 274.50 C 536.50 280.64, 540.99 279.32, 543.50 278.50 C 547.96 279.27, 550.26 277.25, 553.50 277.50 C 557.88 276.59, 559.49 274.18, 559.50 270.50 C 560.39 265.94, 557.58 263.31, 559.50 260.50 C 558.55 255.72, 554.81 256.45, 551.50 256.50 C 547.17 256.50, 543.83 256.50, 540.50 256.50 Z" fill="rgb(84.72393822393822,141.25675675675674,202.0791505791506)" stroke="rgb(84.72393822393822,141.25675675675674,202.0791505791506)" stroke-width="1" />
<path d="M 512.50 176.50 C 512.50 179.83, 512.50 183.17, 512.50 186.50 C 512.50 190.83, 512.50 194.17, 512.50 197.50 C 512.85 201.61, 511.04 207.05, 515.50 207.50 C 519.83 207.50, 523.17 207.50, 526.50 207.50 C 527.50 203.17, 527.50 199.83, 527.50 196.50 C 527.50 192.17, 527.50 188.83, 527.50 185.50 C 527.00 181.73, 529.24 175.69, 524.50 176.50 C 520.17 176.50, 516.83 176.50, 513.50 176.50 Z" fill="rgb(80.2465483234714,139.74950690335305,199.74950690335305)" stroke="rgb(80.2465483234714,139.74950690335305,199.74950690335305)" stroke-width="1" />
<path d="M 497.50 176.50 C 495.34 179.08, 497.04 183.25, 496.50 186.50 C 496.50 190.83, 496.50 194.17, 496.50 197.50 C 496.44 201.62, 496.18 206.35, 498.50 207.50 C 502.83 207.50, 506.17 207.50, 509.50 207.50 C 512.66 204.92, 510.96 200.75, 511.50 197.50 C 511.50 193.17, 511.50 189.83, 511.50 186.50 C 510.77 182.67, 513.30 177.10, 509.50 176.50 C 505.17 176.50, 501.83 176.50, 498.50 176.50 Z" fill="rgb(80.0,140.0,202.0)" stroke="rgb(80.0,140.0,202.0)" stroke-width="1" />
<path d="M 97.50 208.50 C 95.37 210.76, 97.02 214.58, 96.50 217.50 C 96.50 221.83, 96.50 225.17, 96.50 228.50 C 97.23 232.33, 94.70 237.90, 98.50 238.50 C 102.97 238.50, 105.74 240.20, 109.50 239.50 C 112.77 237.44, 110.88 232.21, 111.50 229.50 C 111.50 225.17, 111.50 221.83, 111.50 218.50 C 110.90 214.31, 113.11 209.63, 109.50 208.50 C 105.17 208.50, 101.83 208.50, 98.50 208.50 Z" fill="rgb(83.0,143.0,203.0)" stroke="rgb(83.0,143.0,203.0)" stroke-width="1" />
<path d="M 65.50 192.50 C 63.37 194.76, 65.02 198.58, 64.50 201.50 C 63.17 206.99, 66.67 208.31, 70.50 207.50 C 74.83 207.50, 78.17 207.50, 81.50 207.50 C 86.60 206.95, 89.37 208.21, 92.50 206.50 C 95.08 205.01, 94.88 200.35, 95.50 197.50 C 96.92 191.61, 91.67 192.39, 88.50 192.50 C 84.17 192.50, 80.83 192.50, 77.50 192.50 C 73.17 192.50, 69.83 192.50, 66.50 192.50 Z" fill="rgb(82.89357429718875,142.89357429718876,204.89357429718876)" stroke="rgb(82.89357429718875,142.89357429718876,204.89357429718876)" stroke-width="1" />
<path d="M 49.50 48.50 C 47.37 50.76, 49.02 54.58, 48.50 57.50 C 48.50 61.83, 48.50 65.17, 48.50 68.50 C 48.65 72.91, 47.90 76.69, 49.50 79.50 C 53.83 79.50, 57.17 79.50, 60.50 79.50 C 65.30 78.90, 62.77 73.33, 63.50 70.50 C 63.50 66.17, 63.50 62.83, 63.50 59.50 C 61.27 55.81, 63.88 51.12, 61.50 48.50 C 57.17 48.50, 53.83 48.50, 50.50 48.50 Z" fill="rgb(81.04819277108433,136.04819277108433,200.04819277108433)" stroke="rgb(81.04819277108433,136.04819277108433,200.04819277108433)" stroke-width="1" />
<path d="M 90.50 288.50 C 87.17 290.40, 88.93 294.40, 88.50 297.50 C 87.37 302.84, 92.07 303.96, 95.50 303.50 C 99.50 303.50, 102.50 303.50, 105.50 303.50 C 110.19 304.04, 112.71 301.73, 116.50 302.50 C 119.55 301.56, 119.64 297.33, 119.50 294.50 C 120.83 289.01, 117.33 287.69, 113.50 288.50 C 109.17 288.50, 105.83 288.50, 102.50 288.50 C 98.17 288.50, 94.83 288.50, 91.50 288.50 Z" fill="rgb(85.0,145.0,205.0)" stroke="rgb(85.0,145.0,205.0)" stroke-width="1" />
<path d="M 132.50 192.50 C 129.28 193.37, 127.88 195.69, 128.50 199.50 C 128.39 203.67, 127.61 208.92, 132.50 207.50 C 136.50 207.50, 139.50 207.50, 142.50 207.50 C 146.91 207.65, 150.69 206.90, 153.50 208.50 C 158.25 208.52, 160.52 206.25, 159.50 202.50 C 158.65 198.67, 159.15 192.91, 154.50 193.50 C 150.50 192.50, 147.50 192.50, 144.50 192.50 C 140.17 192.50, 136.83 192.50, 133.50 192.50 Z" fill="rgb(82.0,142.0,202.0)" stroke="rgb(82.0,142.0,202.0)" stroke-width="1" />
<path d="M 545.50 336.50 C 543.89 338.66, 543.89 343.34, 545.50 345.50 C 544.23 350.79, 547.75 352.09, 551.50 351.50 C 555.83 351.50, 559.17 351.50, 562.50 351.50 C 566.83 351.50, 570.17 351.50, 573.50 351.50 C 575.02 347.58, 573.37 343.76, 575.50 341.50 C 574.85 336.42, 572.86 335.93, 568.50 336.50 C 564.17 336.50, 560.83 336.50, 557.50 336.50 C 553.17 336.50, 549.83 336.50, 546.50 336.50 Z" fill="rgb(89.0,145.0,204.0)" stroke="rgb(89.0,145.0,204.0)" stroke-width="1" />
<path d="M 561.50 248.50 C 559.37 250.76, 561.02 254.58, 560.50 257.50 C 560.50 261.83, 560.50 265.17, 560.50 268.50 C 560.47 272.79, 560.03 276.25, 562.50 278.50 C 566.83 278.50, 570.17 278.50, 573.50 278.50 C 575.96 275.97, 575.43 272.61, 575.50 269.50 C 575.50 265.17, 575.50 261.83, 575.50 258.50 C 573.40 255.09, 575.78 250.83, 573.50 248.50 C 569.17 248.50, 565.83 248.50, 562.50 248.50 Z" fill="rgb(83.0,142.0,202.0)" stroke="rgb(83.0,142.0,202.0)" stroke-width="1" />
<path d="M 278.50 77.50 C 275.71 79.32, 272.36 77.86, 270.50 80.50 C 266.87 83.10, 265.79 86.35, 264.50 89.50 C 263.11 93.20, 262.36 96.17, 262.50 99.50 C 260.27 105.53, 264.96 102.66, 267.50 102.50 C 271.03 101.04, 274.39 101.57, 277.50 101.50 C 283.12 102.90, 282.29 97.98, 283.50 95.50 C 283.50 91.50, 283.50 88.50, 283.50 85.50 C 286.18 80.93, 282.74 78.04, 279.50 77.50 Z" fill="rgb(7.486315789473684,37.113684210526316,95.36421052631579)" stroke="rgb(7.486315789473684,37.113684210526316,95.36421052631579)" stroke-width="1" />
<path d="M 434.50 42.50 C 430.49 44.25, 434.18 49.20, 431.50 51.50 C 431.50 55.83, 431.50 59.17, 431.50 62.50 C 432.93 65.98, 430.96 72.13, 435.50 71.50 C 440.01 72.78, 444.14 70.65, 445.50 75.50 C 446.94 74.98, 446.08 71.55, 447.50 68.50 C 447.50 64.17, 447.50 60.83, 447.50 57.50 C 447.21 53.52, 448.57 48.36, 445.50 47.50 C 440.71 46.51, 439.59 43.04, 435.50 42.50 Z" fill="rgb(77.78403755868544,136.03286384976525,198.90845070422534)" stroke="rgb(77.78403755868544,136.03286384976525,198.90845070422534)" stroke-width="1" />
<path d="M 0.50 367.50 C 0.50 370.50, 0.50 373.50, 0.50 376.50 C 0.50 380.83, 0.50 384.17, 0.50 387.50 C 0.50 391.50, 0.50 394.50, 0.50 397.50 C 3.75 397.96, 7.92 399.66, 10.50 397.50 C 12.87 394.79, 13.15 391.63, 13.50 388.50 C 15.10 384.69, 14.35 380.91, 14.50 377.50 C 13.85 373.97, 16.17 368.83, 12.50 368.50 C 8.35 368.28, 5.11 368.84, 1.50 368.50 Z" fill="rgb(85.92857142857143,144.85714285714286,204.88095238095238)" stroke="rgb(85.92857142857143,144.85714285714286,204.88095238095238)" stroke-width="1" />
<path d="M 288.50 80.50 C 286.99 82.82, 286.22 85.44, 286.50 88.50 C 286.50 92.50, 286.50 95.50, 286.50 98.50 C 286.93 101.74, 291.43 99.91, 293.50 100.50 C 297.50 100.50, 300.50 100.50, 303.50 100.50 C 308.43 101.77, 307.47 98.14, 307.50 95.50 C 306.97 91.58, 306.03 88.83, 306.50 85.50 C 306.91 80.09, 302.21 81.79, 299.50 81.50 C 295.97 80.04, 292.61 80.57, 289.50 80.50 Z" fill="rgb(76.34338747099768,13.120649651972158,40.69373549883991)" stroke="rgb(76.34338747099768,13.120649651972158,40.69373549883991)" stroke-width="1" />
<path d="M 456.50 80.50 C 454.77 83.38, 448.69 79.18, 448.50 83.50 C 448.14 89.36, 453.31 86.08, 455.50 88.50 C 456.12 92.57, 456.20 96.81, 460.50 95.50 C 464.83 95.50, 468.17 95.50, 471.50 95.50 C 475.57 95.88, 479.81 95.80, 478.50 91.50 C 479.16 87.32, 480.46 83.56, 478.50 80.50 C 474.50 80.50, 471.50 80.50, 468.50 80.50 C 464.17 80.50, 460.83 80.50, 457.50 80.50 Z" fill="rgb(77.00234741784037,137.00234741784038,199.00234741784038)" stroke="rgb(77.00234741784037,137.00234741784038,199.00234741784038)" stroke-width="1" />
<path d="M 290.50 139.50 C 286.42 140.15, 285.93 142.14, 286.50 146.50 C 286.50 150.83, 286.50 154.17, 286.50 157.50 C 288.66 161.08, 286.96 165.25, 287.50 168.50 C 287.55 172.89, 287.12 178.77, 291.50 178.50 C 296.17 177.64, 298.69 176.17, 297.50 171.50 C 298.11 166.44, 296.73 163.21, 296.50 159.50 C 296.50 155.17, 296.50 151.83, 296.50 148.50 C 297.00 143.83, 296.66 138.20, 291.50 139.50 Z" fill="rgb(39.11483253588517,2.4186602870813396,30.20095693779904)" stroke="rgb(39.11483253588517,2.4186602870813396,30.20095693779904)" stroke-width="1" />
<path d="M 0.50 56.50 C 0.50 59.17, 0.50 61.83, 0.50 64.50 C 0.50 68.50, 0.50 71.50, 0.50 74.50 C -0.64 79.73, 1.87 79.10, 4.50 80.50 C 7.40 81.39, 11.40 79.91, 14.50 80.50 C 15.50 76.83, 15.50 74.17, 15.50 71.50 C 15.50 67.50, 15.50 64.50, 15.50 61.50 C 16.28 57.06, 14.94 55.72, 11.50 56.50 C 7.50 56.50, 4.50 56.50, 1.50 56.50 Z" fill="rgb(78.62105263157895,133.62105263157895,197.62105263157895)" stroke="rgb(78.62105263157895,133.62105263157895,197.62105263157895)" stroke-width="1" />
<path d="M 246.50 86.50 C 242.69 87.96, 238.29 91.57, 236.50 95.50 C 232.45 99.73, 231.83 103.97, 229.50 107.50 C 229.08 112.27, 227.58 115.59, 227.50 119.50 C 226.64 122.99, 224.77 129.63, 228.50 130.50 C 233.04 128.96, 238.06 128.71, 236.50 123.50 C 235.89 118.44, 237.27 115.21, 237.50 111.50 C 239.04 107.06, 238.41 102.72, 240.50 99.50 C 242.96 94.55, 245.86 90.79, 247.50 86.50 Z" fill="rgb(8.522427440633246,32.562005277044854,11.116094986807388)" stroke="rgb(8.522427440633246,32.562005277044854,11.116094986807388)" stroke-width="1" />
<path d="M 583.50 144.50 C 582.25 147.28, 576.38 143.29, 577.50 147.50 C 577.50 151.17, 577.50 153.83, 577.50 156.50 C 576.55 161.11, 581.44 158.89, 583.50 159.50 C 587.70 160.60, 589.79 159.70, 593.50 160.50 C 597.14 160.47, 600.77 161.43, 599.50 157.50 C 599.50 153.83, 599.50 151.17, 599.50 148.50 C 600.77 143.57, 597.14 144.53, 594.50 144.50 C 590.50 144.50, 587.50 144.50, 584.50 144.50 Z" fill="rgb(79.01069518716578,138.2941176470588,200.57219251336898)" stroke="rgb(79.01069518716578,138.2941176470588,200.57219251336898)" stroke-width="1" />
<path d="M 577.50 256.50 C 575.25 261.04, 577.11 267.28, 576.50 272.50 C 574.84 281.37, 584.43 279.29, 589.50 279.50 C 592.75 273.96, 590.89 267.72, 591.50 262.50 C 591.15 258.90, 591.02 255.43, 587.50 256.50 C 583.83 256.50, 581.17 256.50, 578.50 256.50 Z" fill="rgb(85.93565683646112,141.93565683646113,202.93565683646113)" stroke="rgb(85.93565683646112,141.93565683646113,202.93565683646113)" stroke-width="1" />
<path d="M 403.50 40.50 C 399.85 40.85, 399.21 45.27, 402.50 47.50 C 406.19 46.53, 409.79 48.07, 413.50 47.50 C 419.20 47.48, 413.80 55.52, 418.50 55.50 C 422.83 55.50, 426.17 55.50, 429.50 55.50 C 432.63 53.24, 430.98 49.42, 431.50 46.50 C 432.46 41.21, 430.79 39.54, 426.50 40.50 C 422.17 40.50, 418.83 40.50, 415.50 40.50 C 410.89 40.16, 407.65 40.72, 404.50 41.50 Z" fill="rgb(77.68279569892474,136.31720430107526,199.0)" stroke="rgb(77.68279569892474,136.31720430107526,199.0)" stroke-width="1" />
<path d="M 489.50 344.50 C 490.73 349.83, 486.42 356.40, 490.50 359.50 C 496.83 359.50, 502.17 359.50, 507.50 359.50 C 511.77 359.68, 510.10 355.47, 510.50 353.50 C 509.21 349.68, 510.60 346.16, 507.50 344.50 C 501.17 344.50, 495.83 344.50, 490.50 344.50 Z" fill="rgb(88.91545189504373,144.91545189504373,203.91545189504373)" stroke="rgb(88.91545189504373,144.91545189504373,203.91545189504373)" stroke-width="1" />
<path d="M 113.50 192.50 C 111.25 197.04, 113.11 203.28, 112.50 208.50 C 111.17 217.16, 119.85 213.82, 124.50 214.50 C 124.63 211.53, 126.62 209.74, 127.50 207.50 C 127.50 203.83, 127.50 201.17, 127.50 198.50 C 128.33 194.61, 126.39 192.67, 123.50 193.50 C 120.56 191.41, 117.10 192.99, 114.50 192.50 Z" fill="rgb(82.0,142.0,203.96825396825398)" stroke="rgb(82.0,142.0,203.96825396825398)" stroke-width="1" />
<path d="M 296.50 293.50 C 293.79 297.31, 289.92 300.70, 290.50 306.50 C 289.88 312.57, 291.73 319.88, 297.50 319.50 C 300.58 319.05, 304.26 319.10, 304.50 316.50 C 304.50 313.17, 304.50 310.83, 304.50 308.50 C 304.53 302.04, 302.12 296.05, 297.50 293.50 Z" fill="rgb(95.35913312693498,73.343653250774,64.12693498452012)" stroke="rgb(95.35913312693498,73.343653250774,64.12693498452012)" stroke-width="1" />
<path d="M 104.50 72.50 C 102.46 74.13, 103.96 77.22, 103.50 79.50 C 100.11 80.56, 95.50 79.55, 96.50 83.50 C 95.65 90.42, 97.53 96.24, 104.50 94.50 C 113.25 96.92, 111.48 89.82, 111.50 84.50 C 111.50 80.83, 111.50 78.17, 111.50 75.50 C 112.45 70.89, 107.56 73.11, 105.50 72.50 Z" fill="rgb(81.97697368421052,139.97697368421052,202.97697368421052)" stroke="rgb(81.97697368421052,139.97697368421052,202.97697368421052)" stroke-width="1" />
<path d="M 288.50 284.50 C 281.23 285.15, 283.03 294.13, 289.50 294.50 C 292.47 294.08, 295.18 295.48, 296.50 293.50 C 299.84 293.46, 302.29 297.45, 304.50 294.50 C 307.47 294.56, 310.44 293.72, 310.50 291.50 C 311.10 287.76, 307.54 286.60, 305.50 285.50 C 299.50 284.50, 294.50 284.50, 289.50 284.50 Z" fill="rgb(144.94139194139194,82.13919413919415,32.798534798534796)" stroke="rgb(144.94139194139194,82.13919413919415,32.798534798534796)" stroke-width="1" />
<path d="M 206.50 320.50 C 196.26 322.93, 210.80 318.87, 207.50 327.50 C 207.15 330.49, 207.99 334.53, 209.50 335.50 C 213.17 335.50, 215.83 335.50, 218.50 335.50 C 226.51 336.41, 222.41 326.78, 223.50 322.50 C 223.07 319.26, 218.57 321.09, 216.50 320.50 C 212.83 320.50, 210.17 320.50, 207.50 320.50 Z" fill="rgb(87.9375,147.0,207.0)" stroke="rgb(87.9375,147.0,207.0)" stroke-width="1" />
<path d="M 80.50 224.50 C 80.50 226.50, 80.50 228.50, 80.50 230.50 C 78.75 233.74, 82.35 235.70, 79.50 237.50 C 82.75 240.22, 90.27 240.08, 93.50 238.50 C 96.80 236.13, 94.86 229.52, 95.50 225.50 C 90.83 224.50, 86.17 224.50, 81.50 224.50 Z" fill="rgb(83.0,143.0,204.96887159533074)" stroke="rgb(83.0,143.0,204.96887159533074)" stroke-width="1" />
<path d="M 584.50 80.50 C 584.50 84.83, 584.50 89.17, 584.50 93.50 C 589.38 96.73, 594.94 94.91, 599.50 95.50 C 599.50 90.17, 599.50 85.83, 599.50 81.50 C 594.83 80.50, 590.17 80.50, 585.50 80.50 Z" fill="rgb(77.0,135.0,198.0)" stroke="rgb(77.0,135.0,198.0)" stroke-width="1" />
<path d="M 113.50 32.50 C 111.87 35.94, 111.87 42.06, 113.50 45.50 C 115.54 48.79, 121.80 46.86, 125.50 47.50 C 128.72 43.95, 126.92 38.73, 127.50 34.50 C 125.13 31.20, 118.52 33.14, 114.50 32.50 Z" fill="rgb(82.0,137.0,201.0)" stroke="rgb(82.0,137.0,201.0)" stroke-width="1" />
<path d="M 497.50 160.50 C 495.28 164.05, 497.08 169.27, 496.50 173.50 C 499.94 176.13, 506.06 176.13, 509.50 174.50 C 512.79 172.46, 510.86 166.20, 511.50 162.50 C 507.95 159.28, 502.73 161.08, 498.50 160.50 Z" fill="rgb(79.0,139.0,199.0)" stroke="rgb(79.0,139.0,199.0)" stroke-width="1" />
<path d="M 560.50 248.50 C 560.50 252.83, 560.50 257.17, 560.50 261.50 C 562.87 264.80, 569.48 262.86, 573.50 263.50 C 575.30 259.53, 575.47 255.60, 575.50 250.50 C 572.13 247.20, 565.52 249.14, 561.50 248.50 Z" fill="rgb(82.992,141.992,201.992)" stroke="rgb(82.992,141.992,201.992)" stroke-width="1" />
<path d="M 8.50 79.50 C 4.45 81.56, 7.39 88.24, 6.50 92.50 C 6.31 98.41, 5.22 105.70, 12.50 103.50 C 17.82 102.82, 14.42 94.42, 15.50 90.50 C 16.12 84.90, 16.00 75.95, 9.50 80.50 Z" fill="rgb(79.97551020408163,134.97551020408164,198.97551020408164)" stroke="rgb(79.97551020408163,134.97551020408164,198.97551020408164)" stroke-width="1" />
<path d="M 0.50 368.50 C 0.50 372.83, 0.50 377.17, 0.50 381.50 C 4.19 384.76, 9.70 383.21, 13.50 382.50 C 16.03 378.81, 16.03 373.19, 14.50 369.50 C 10.17 368.50, 5.83 368.50, 1.50 368.50 Z" fill="rgb(87.83673469387755,143.83673469387756,204.83673469387756)" stroke="rgb(87.83673469387755,143.83673469387756,204.83673469387756)" stroke-width="1" />
<path d="M 451.50 256.50 C 447.83 258.26, 448.54 263.37, 448.50 267.50 C 449.17 273.60, 455.39 270.79, 459.50 271.50 C 465.94 271.72, 462.57 264.01, 463.50 260.50 C 463.72 254.06, 456.01 257.43, 452.50 256.50 Z" fill="rgb(85.0,144.0,202.0)" stroke="rgb(85.0,144.0,202.0)" stroke-width="1" />
<path d="M 580.50 328.50 C 576.16 329.36, 576.37 334.20, 576.50 338.50 C 575.14 345.70, 582.87 342.90, 586.50 343.50 C 593.70 344.86, 590.90 337.13, 591.50 333.50 C 592.68 326.83, 585.21 328.86, 581.50 328.50 Z" fill="rgb(88.0,144.0,203.0)" stroke="rgb(88.0,144.0,203.0)" stroke-width="1" />
<path d="M 560.50 264.50 C 561.08 268.73, 559.28 273.95, 561.50 277.50 C 566.63 280.41, 569.79 278.79, 574.50 278.50 C 575.50 273.17, 575.50 268.83, 575.50 264.50 C 570.17 264.50, 565.83 264.50, 561.50 264.50 Z" fill="rgb(84.0,143.0,203.0)" stroke="rgb(84.0,143.0,203.0)" stroke-width="1" />
<path d="M 0.50 288.50 C 0.50 292.83, 0.50 297.17, 0.50 301.50 C 2.54 304.79, 8.80 302.86, 12.50 303.50 C 17.35 300.49, 14.74 294.79, 15.50 290.50 C 9.71 290.28, 6.14 288.08, 1.50 288.50 Z" fill="rgb(84.0,143.0,203.0)" stroke="rgb(84.0,143.0,203.0)" stroke-width="1" />
<path d="M 98.50 192.50 C 94.63 194.06, 97.27 199.80, 96.50 203.50 C 96.78 209.78, 103.67 206.68, 107.50 207.50 C 112.82 207.33, 111.14 200.21, 111.50 196.50 C 109.40 191.97, 103.91 192.58, 99.50 192.50 Z" fill="rgb(82.0,142.0,202.0)" stroke="rgb(82.0,142.0,202.0)" stroke-width="1" />
<path d="M 33.50 352.50 C 31.41 354.44, 32.99 357.90, 32.50 360.50 C 32.50 364.17, 32.50 366.83, 32.50 369.50 C 32.99 373.10, 31.41 376.56, 33.50 378.50 C 32.23 383.43, 35.86 382.47, 38.50 382.50 C 39.50 376.83, 39.50 371.17, 39.50 365.50 C 39.50 361.83, 39.50 359.17, 39.50 356.50 C 40.77 351.57, 37.14 352.53, 34.50 352.50 Z" fill="rgb(87.0,146.0,205.0495867768595)" stroke="rgb(87.0,146.0,205.0495867768595)" stroke-width="1" />
<path d="M 497.50 112.50 C 495.30 115.73, 497.07 120.60, 496.50 124.50 C 497.98 129.57, 504.75 126.59, 508.50 127.50 C 513.98 125.21, 510.14 118.80, 510.50 115.50 C 509.80 111.03, 508.01 113.71, 505.50 113.50 C 503.18 111.52, 500.47 112.92, 498.50 112.50 Z" fill="rgb(77.78099173553719,137.78099173553719,197.78099173553719)" stroke="rgb(77.78099173553719,137.78099173553719,197.78099173553719)" stroke-width="1" />
<path d="M 161.50 367.50 C 157.57 370.81, 160.32 376.90, 159.50 381.50 C 159.62 386.87, 159.24 394.10, 165.50 392.50 C 169.61 390.34, 168.18 383.79, 168.50 379.50 C 168.50 376.17, 168.50 373.83, 168.50 371.50 C 168.55 367.26, 164.06 369.13, 162.50 367.50 Z" fill="rgb(88.93801652892562,148.06198347107437,206.0)" stroke="rgb(88.93801652892562,148.06198347107437,206.0)" stroke-width="1" />
<path d="M 209.50 368.50 C 210.26 372.95, 207.93 376.13, 208.50 380.50 C 209.98 385.57, 216.75 382.59, 220.50 383.50 C 226.02 381.74, 222.22 375.07, 222.50 371.50 C 221.15 367.01, 213.44 368.20, 210.50 369.50 Z" fill="rgb(89.0,148.0,206.0)" stroke="rgb(89.0,148.0,206.0)" stroke-width="1" />
<path d="M 419.50 288.50 C 417.12 291.93, 416.38 296.04, 416.50 300.50 C 417.98 305.57, 424.75 302.59, 428.50 303.50 C 432.38 302.26, 432.19 295.25, 430.50 292.50 C 432.99 286.30, 423.82 289.28, 420.50 288.50 Z" fill="rgb(86.0,145.0,203.0)" stroke="rgb(86.0,145.0,203.0)" stroke-width="1" />
<path d="M 318.50 82.50 C 319.04 87.02, 321.55 90.73, 321.50 95.50 C 321.85 101.96, 325.32 103.25, 330.50 103.50 C 333.52 99.66, 330.37 94.50, 329.50 90.50 C 327.42 85.22, 325.50 81.11, 319.50 82.50 Z" fill="rgb(170.11428571428573,29.723809523809525,33.37619047619047)" stroke="rgb(170.11428571428573,29.723809523809525,33.37619047619047)" stroke-width="1" />
<path d="M 256.50 82.50 C 251.26 83.96, 246.67 88.47, 244.50 93.50 C 242.43 96.39, 241.10 98.59, 241.50 101.50 C 241.76 104.70, 237.56 107.98, 240.50 108.50 C 247.90 109.16, 248.51 103.17, 249.50 98.50 C 250.88 91.97, 253.90 87.12, 257.50 82.50 Z" fill="rgb(3.716494845360825,9.25257731958763,12.494845360824742)" stroke="rgb(3.716494845360825,9.25257731958763,12.494845360824742)" stroke-width="1" />
<path d="M 97.50 160.50 C 94.38 164.31, 97.43 169.40, 102.50 167.50 C 102.10 173.96, 105.04 176.90, 110.50 175.50 C 111.50 170.50, 111.50 166.50, 111.50 162.50 C 108.46 159.21, 102.20 161.14, 98.50 160.50 Z" fill="rgb(81.00531914893617,141.00531914893617,201.00531914893617)" stroke="rgb(81.00531914893617,141.00531914893617,201.00531914893617)" stroke-width="1" />
<path d="M 283.50 257.50 C 280.22 259.30, 276.55 260.15, 273.50 262.50 C 269.86 266.57, 272.25 271.35, 275.50 272.50 C 279.18 269.93, 282.72 268.43, 286.50 267.50 C 288.84 264.29, 288.42 257.04, 284.50 257.50 Z" fill="rgb(81.57068062827226,39.52879581151832,4.56544502617801)" stroke="rgb(81.57068062827226,39.52879581151832,4.56544502617801)" stroke-width="1" />
<path d="M 447.50 64.50 C 443.88 67.79, 444.79 70.67, 444.50 75.50 C 443.43 80.92, 449.29 80.11, 452.50 80.50 C 457.41 79.61, 454.69 73.63, 455.50 70.50 C 457.21 63.79, 452.87 64.13, 448.50 64.50 Z" fill="rgb(77.96335078534031,136.0366492146597,199.0)" stroke="rgb(77.96335078534031,136.0366492146597,199.0)" stroke-width="1" />
<path d="M 5.50 240.50 C 5.50 243.83, 5.50 247.17, 5.50 250.50 C 5.62 255.46, 10.51 256.49, 13.50 254.50 C 16.66 251.92, 14.96 247.75, 15.50 244.50 C 16.15 238.48, 9.50 241.17, 6.50 240.50 Z" fill="rgb(82.14545454545454,141.14545454545456,201.14545454545456)" stroke="rgb(82.14545454545454,141.14545454545456,201.14545454545456)" stroke-width="1" />
<path d="M 560.50 320.50 C 561.00 323.27, 558.76 329.31, 563.50 328.50 C 567.83 328.50, 571.17 328.50, 574.50 328.50 C 574.68 325.99, 577.44 319.89, 573.50 320.50 C 568.83 320.50, 565.17 320.50, 561.50 320.50 Z" fill="rgb(88.0,144.0,203.0)" stroke="rgb(88.0,144.0,203.0)" stroke-width="1" />
<path d="M 10.50 1.50 C 6.72 2.45, 7.45 6.19, 7.50 9.50 C 6.89 14.10, 8.80 16.51, 12.50 15.50 C 17.30 16.30, 14.77 10.77, 15.50 8.50 C 15.88 4.43, 15.80 0.19, 11.50 1.50 Z" fill="rgb(72.875,130.875,193.875)" stroke="rgb(72.875,130.875,193.875)" stroke-width="1" />
<path d="M 104.50 240.50 C 105.01 243.32, 102.71 248.95, 107.50 247.50 C 111.83 247.50, 115.17 247.50, 118.50 247.50 C 118.99 244.68, 121.29 239.05, 116.50 240.50 C 112.17 240.50, 108.83 240.50, 105.50 240.50 Z" fill="rgb(83.0,143.0,203.0)" stroke="rgb(83.0,143.0,203.0)" stroke-width="1" />
<path d="M 80.50 80.50 C 80.50 83.83, 80.50 87.17, 80.50 90.50 C 79.01 96.33, 82.99 95.67, 86.50 95.50 C 87.50 92.17, 87.50 88.83, 87.50 85.50 C 88.99 79.67, 85.01 80.33, 81.50 80.50 Z" fill="rgb(81.0,139.0,202.0)" stroke="rgb(81.0,139.0,202.0)" stroke-width="1" />
<path d="M 520.50 336.50 C 521.23 338.77, 518.70 344.30, 522.50 343.50 C 525.66 344.24, 530.11 343.00, 533.50 343.50 C 536.26 341.76, 536.50 335.36, 532.50 336.50 C 528.17 336.50, 524.83 336.50, 521.50 336.50 Z" fill="rgb(89.0,145.0,204.0)" stroke="rgb(89.0,145.0,204.0)" stroke-width="1" />
<path d="M 193.50 304.50 C 192.17 305.96, 191.13 312.46, 194.50 311.50 C 198.83 311.50, 202.17 311.50, 205.50 311.50 C 208.15 311.27, 208.50 304.16, 205.50 304.50 C 201.17 304.50, 197.83 304.50, 194.50 304.50 Z" fill="rgb(87.0,147.0,207.0)" stroke="rgb(87.0,147.0,207.0)" stroke-width="1" />
<path d="M 114.50 208.50 C 111.44 209.78, 112.06 215.10, 114.50 215.50 C 118.50 215.50, 121.50 215.50, 124.50 215.50 C 128.68 215.31, 128.32 208.87, 125.50 208.50 C 121.50 208.50, 118.50 208.50, 115.50 208.50 Z" fill="rgb(82.0,142.0,202.0)" stroke="rgb(82.0,142.0,202.0)" stroke-width="1" />
<path d="M 449.50 289.50 C 447.55 291.06, 447.87 296.71, 451.50 295.50 C 455.50 295.50, 458.50 295.50, 461.50 295.50 C 464.45 293.94, 464.13 288.29, 460.50 289.50 C 456.50 289.50, 453.50 289.50, 450.50 289.50 Z" fill="rgb(85.0,144.0,202.0)" stroke="rgb(85.0,144.0,202.0)" stroke-width="1" />
<path d="M 560.50 16.50 C 560.95 21.05, 558.24 28.76, 565.50 26.50 C 568.31 24.64, 568.80 22.23, 568.50 19.50 C 568.44 15.00, 563.74 17.04, 561.50 16.50 Z" fill="rgb(73.01063829787235,133.01063829787233,195.01063829787233)" stroke="rgb(73.01063829787235,133.01063829787233,195.01063829787233)" stroke-width="1" />
<path d="M 473.50 383.50 C 471.12 386.68, 471.91 396.68, 477.50 392.50 C 480.57 390.60, 480.69 380.94, 474.50 383.50 Z" fill="rgb(90.92592592592592,146.92592592592592,205.92592592592592)" stroke="rgb(90.92592592592592,146.92592592592592,205.92592592592592)" stroke-width="1" />
<path d="M 120.50 72.50 C 119.64 77.70, 120.61 81.06, 126.50 79.50 C 128.36 74.30, 127.39 70.94, 121.50 72.50 Z" fill="rgb(82.0,140.0,203.0)" stroke="rgb(82.0,140.0,203.0)" stroke-width="1" />
<path d="M 80.50 304.50 C 79.64 309.70, 80.61 313.06, 86.50 311.50 C 88.36 306.30, 87.39 302.94, 81.50 304.50 Z" fill="rgb(85.0,145.0,205.0)" stroke="rgb(85.0,145.0,205.0)" stroke-width="1" />
<path d="M 536.50 336.50 C 535.64 341.70, 536.61 345.06, 542.50 343.50 C 544.36 338.30, 543.39 334.94, 537.50 336.50 Z" fill="rgb(88.0,144.0,203.0)" stroke="rgb(88.0,144.0,203.0)" stroke-width="1" />
<path d="M 376.50 352.50 C 376.13 356.87, 375.79 361.21, 381.50 359.50 C 385.54 357.04, 382.92 350.05, 377.50 352.50 Z" fill="rgb(89.0,148.0,206.0)" stroke="rgb(89.0,148.0,206.0)" stroke-width="1" />
<path d="M 121.50 304.50 C 119.05 307.98, 120.11 313.55, 125.50 311.50 C 129.08 309.80, 127.67 302.11, 122.50 304.50 Z" fill="rgb(86.0,145.0,205.0)" stroke="rgb(86.0,145.0,205.0)" stroke-width="1" />
<path d="M 96.50 168.50 C 95.50 173.19, 97.15 177.05, 102.50 175.50 C 104.50 170.81, 102.85 166.95, 97.50 168.50 Z" fill="rgb(82.0,142.0,202.0)" stroke="rgb(82.0,142.0,202.0)" stroke-width="1" />
<path d="M 266.50 252.50 C 261.09 255.62, 261.04 260.95, 261.50 266.50 C 264.10 267.26, 264.05 263.58, 264.50 261.50 C 263.85 257.49, 267.65 256.31, 267.50 253.50 Z" fill="rgb(71.43859649122807,29.736842105263158,33.94736842105263)" stroke="rgb(71.43859649122807,29.736842105263158,33.94736842105263)" stroke-width="1" />
<path d="M 96.50 257.50 C 95.36 262.64, 97.36 264.64, 102.50 263.50 C 104.64 258.36, 102.64 256.36, 97.50 257.50 Z" fill="rgb(84.42857142857143,144.42857142857142,204.42857142857142)" stroke="rgb(84.42857142857143,144.42857142857142,204.42857142857142)" stroke-width="1" />
<path d="M 520.50 208.50 C 519.13 213.54, 522.16 214.17, 526.50 213.50 C 528.87 208.46, 525.84 207.83, 521.50 208.50 Z" fill="rgb(80.5,139.5,199.5)" stroke="rgb(80.5,139.5,199.5)" stroke-width="1" />
<path d="M 562.50 376.50 C 563.23 378.77, 560.70 384.30, 564.50 383.50 C 564.77 381.23, 567.30 375.70, 563.50 376.50 Z" fill="rgb(90.0,144.0,204.0)" stroke="rgb(90.0,144.0,204.0)" stroke-width="1" />
</svg>