<svg xmlns="http://www.w3.org/2000/svg" width="600" height="400" viewbox="0 0 600 400">
<path d="M 0.00 0.00 C 0.00 82.67, 0.00 165.33, 0.00 248.00 C 0.00 290.33, 0.00 331.67, 0.00 373.00 C 0.00 378.67, 0.00 383.33, 0.00 388.00 C 0.00 391.33, 0.00 393.67, 0.00 396.00 C -1.03 400.36, 3.11 398.56, 5.00 399.00 C 16.00 399.00, 26.00 399.00, 36.00 399.00 C 57.67 399.00, 78.33 399.00, 99.00 399.00 C 266.00 399.00, 432.00 399.00, 598.00 399.00 C 599.00 316.33, 599.00 233.67, 599.00 151.00 C 599.00 108.67, 599.00 67.33, 599.00 26.00 C 599.00 20.33, 599.00 15.67, 599.00 11.00 C 599.00 7.67, 599.00 5.33, 599.00 3.00 C 600.03 -1.36, 595.89 0.44, 594.00 0.00 C 583.00 0.00, 573.00 0.00, 563.00 0.00 C 541.33 0.00, 520.67 0.00, 500.00 0.00 C 333.00 0.00, 167.00 0.00, 1.00 0.00 Z" fill="rgb(82.04914933837429,141.52315689981097,201.4711720226843)" stroke="rgb(82.04914933837429,141.52315689981097,201.4711720226843)" stroke-width="1" />
<path d="M 0.00 2.00 C 0.00 84.33, 0.00 166.67, 0.00 249.00 C 0.00 291.00, 0.00 332.00, 0.00 373.00 C 0.00 378.67, 0.00 383.33, 0.00 388.00 C 0.00 391.33, 0.00 393.67, 0.00 396.00 C 0.03 398.79, 5.00 398.42, 6.00 397.00 C 9.27 396.25, 10.47 398.03, 13.00 398.00 C 16.33 398.00, 18.67 398.00, 21.00 398.00 C 24.28 397.54, 27.37 399.04, 29.00 397.00 C 32.97 396.38, 34.76 398.35, 37.00 397.00 C 40.29 396.63, 42.17 397.27, 44.00 398.00 C 46.92 397.37, 50.20 395.78, 52.00 398.00 C 57.33 396.05, 63.02 397.39, 68.00 397.00 C 73.33 396.05, 79.02 397.39, 84.00 397.00 C 90.00 397.00, 95.00 397.00, 100.00 397.00 C 103.00 397.00, 105.00 397.00, 107.00 397.00 C 110.03 396.94, 112.45 396.82, 115.00 397.00 C 121.00 397.00, 126.00 397.00, 131.00 397.00 C 142.00 397.00, 152.00 397.00, 162.00 397.00 C 183.33 397.00, 203.67 397.00, 224.00 397.00 C 266.33 397.00, 307.67 397.00, 349.00 397.00 C 370.33 397.00, 390.67 397.00, 411.00 397.00 C 416.67 397.00, 421.33 397.00, 426.00 397.00 C 429.33 397.00, 431.67 397.00, 434.00 397.00 C 437.45 398.92, 439.33 397.15, 442.00 397.00 C 453.00 397.00, 463.00 397.00, 473.00 397.00 C 476.31 398.42, 477.53 396.21, 480.00 397.00 C 483.45 398.92, 485.33 397.15, 488.00 397.00 C 490.80 399.22, 494.08 397.63, 496.00 397.00 C 499.76 396.30, 501.24 398.70, 504.00 398.00 C 506.24 396.44, 509.76 396.44, 511.00 398.00 C 514.50 398.08, 516.23 396.27, 519.00 397.00 C 522.08 399.87, 524.31 395.89, 527.00 397.00 C 530.45 398.92, 532.33 397.15, 535.00 397.00 C 538.31 396.58, 539.53 398.79, 542.00 398.00 C 545.55 396.82, 547.97 396.94, 550.00 398.00 C 552.54 396.42, 556.46 396.42, 558.00 398.00 C 561.03 396.94, 563.45 396.82, 566.00 397.00 C 569.08 399.87, 571.31 395.89, 574.00 397.00 C 577.45 398.92, 579.33 397.15, 582.00 397.00 C 585.20 398.29, 587.80 398.29, 590.00 397.00 C 593.03 398.06, 595.45 398.18, 598.00 398.00 C 599.00 315.67, 599.00 233.33, 599.00 151.00 C 599.00 109.00, 599.00 68.00, 599.00 27.00 C 599.00 21.33, 599.00 16.67, 599.00 12.00 C 599.00 8.67, 599.00 6.33, 599.00 4.00 C 598.88 0.79, 594.76 2.58, 593.00 2.00 C 582.00 2.00, 572.00 2.00, 562.00 2.00 C 540.33 2.00, 519.67 2.00, 499.00 2.00 C 332.33 2.00, 166.67 2.00, 1.00 2.00 Z" fill="rgb(82.22630500724375,141.20049348062295,201.7756021369069)" stroke="rgb(82.22630500724375,141.20049348062295,201.7756021369069)" stroke-width="1" />
<path d="M 295.00 75.00 C 293.37 77.04, 290.28 75.54, 288.00 76.00 C 284.33 76.00, 281.67 76.00, 279.00 76.00 C 274.95 76.40, 272.70 77.75, 270.00 78.00 C 266.62 79.36, 263.38 78.64, 261.00 80.00 C 257.66 80.99, 255.21 81.71, 253.00 83.00 C 249.60 84.64, 246.61 84.87, 244.00 86.00 C 240.47 88.67, 237.82 90.04, 235.00 91.00 C 231.23 93.74, 228.24 94.97, 226.00 98.00 C 222.36 100.98, 220.98 102.36, 219.00 105.00 C 215.47 108.58, 212.55 111.01, 211.00 114.00 C 208.20 117.20, 208.17 120.54, 206.00 123.00 C 204.25 126.36, 203.32 129.05, 203.00 132.00 C 201.68 135.81, 200.75 138.37, 200.00 141.00 C 198.39 142.47, 199.20 143.94, 199.00 145.00 C 199.27 147.58, 197.20 148.20, 198.00 150.00 C 197.75 153.70, 196.40 155.95, 197.00 159.00 C 196.22 163.13, 198.50 164.99, 198.00 168.00 C 198.99 171.20, 199.01 173.80, 200.00 176.00 C 201.85 179.32, 200.88 182.80, 203.00 185.00 C 204.64 188.40, 204.87 191.39, 206.00 194.00 C 207.63 197.96, 209.14 200.55, 211.00 203.00 C 212.00 206.61, 214.28 208.69, 216.00 211.00 C 217.88 214.72, 219.77 217.43, 222.00 220.00 C 225.30 223.68, 227.04 226.59, 230.00 229.00 C 232.73 231.01, 234.02 235.12, 237.00 237.00 C 240.33 240.33, 242.67 242.67, 245.00 245.00 C 248.85 247.86, 250.21 249.43, 253.00 252.00 C 256.10 255.77, 260.08 257.75, 261.00 261.00 C 263.61 262.47, 262.80 263.94, 263.00 265.00 C 265.90 264.63, 266.58 267.20, 268.00 268.00 C 271.41 270.96, 274.32 272.70, 277.00 275.00 C 279.34 278.66, 282.26 280.67, 282.00 284.00 C 283.18 287.73, 282.67 291.16, 286.00 293.00 C 288.47 292.20, 288.53 294.80, 290.00 294.00 C 292.23 296.72, 293.45 293.54, 295.00 294.00 C 298.50 293.92, 300.23 295.73, 303.00 295.00 C 307.67 295.02, 309.50 291.36, 311.00 289.00 C 312.13 285.39, 312.36 282.40, 314.00 280.00 C 316.67 276.33, 319.33 273.67, 322.00 271.00 C 325.09 268.75, 327.72 267.81, 330.00 266.00 C 331.58 261.88, 333.16 259.18, 336.00 257.00 C 343.25 252.08, 348.23 245.10, 354.00 240.00 C 357.30 236.79, 359.63 234.59, 361.00 232.00 C 365.14 228.67, 366.10 225.43, 369.00 223.00 C 372.03 219.76, 373.26 216.77, 375.00 214.00 C 378.41 210.64, 378.47 207.31, 381.00 205.00 C 382.67 201.47, 384.04 198.82, 385.00 196.00 C 386.75 192.64, 387.68 189.95, 388.00 187.00 C 388.57 182.88, 391.94 181.33, 391.00 178.00 C 392.20 175.94, 391.39 174.47, 393.00 174.00 C 393.29 171.65, 392.22 169.74, 394.00 169.00 C 393.27 165.23, 395.08 163.50, 395.00 161.00 C 395.60 156.95, 394.25 154.70, 394.00 152.00 C 393.68 148.19, 392.75 145.63, 392.00 143.00 C 391.25 139.37, 390.32 136.81, 390.00 134.00 C 389.14 130.33, 387.39 128.45, 387.00 126.00 C 384.20 122.80, 384.17 119.46, 382.00 117.00 C 380.17 112.85, 376.05 111.06, 375.00 108.00 C 370.96 104.77, 370.13 101.38, 367.00 100.00 C 363.98 96.25, 361.02 95.75, 359.00 93.00 C 355.46 91.02, 352.64 89.73, 350.00 88.00 C 346.47 86.33, 343.82 84.96, 341.00 84.00 C 337.39 81.87, 334.40 81.64, 332.00 80.00 C 328.27 79.49, 326.13 77.55, 323.00 78.00 C 319.73 76.71, 316.82 76.96, 314.00 77.00 C 310.33 76.00, 307.67 76.00, 305.00 76.00 C 300.87 76.78, 299.01 74.50, 296.00 75.00 Z" fill="rgb(177.76902887139107,131.17191601049868,21.62589051368579)" stroke="rgb(177.76902887139107,131.17191601049868,21.62589051368579)" stroke-width="1" />
<path d="M 282.00 76.00 C 279.95 78.14, 276.15 76.08, 274.00 78.00 C 269.88 77.57, 268.33 80.94, 265.00 80.00 C 260.79 80.35, 258.36 81.59, 256.00 83.00 C 252.67 85.81, 248.73 83.74, 247.00 87.00 C 243.75 89.34, 240.67 89.67, 238.00 91.00 C 234.08 93.38, 231.51 95.63, 229.00 98.00 C 226.50 101.74, 225.58 104.71, 223.00 107.00 C 221.22 108.74, 222.29 110.65, 222.00 112.00 C 222.27 114.58, 220.20 115.20, 221.00 117.00 C 218.91 119.94, 220.49 123.40, 220.00 126.00 C 219.40 130.05, 220.75 132.30, 221.00 135.00 C 220.62 139.16, 221.31 141.86, 224.00 143.00 C 227.86 140.94, 223.99 140.53, 225.00 139.00 C 223.20 136.20, 225.27 135.58, 225.00 134.00 C 225.53 131.86, 226.86 130.53, 228.00 131.00 C 230.23 129.08, 231.45 128.14, 233.00 128.00 C 234.47 126.39, 235.94 127.20, 237.00 127.00 C 236.73 124.42, 238.80 123.80, 238.00 122.00 C 236.40 119.15, 236.40 114.85, 238.00 113.00 C 237.43 107.76, 242.99 108.48, 245.00 106.00 C 249.10 107.66, 247.71 111.18, 248.00 114.00 C 248.49 117.60, 246.91 121.06, 249.00 123.00 C 251.06 122.80, 252.53 123.61, 253.00 122.00 C 255.35 121.71, 257.26 122.78, 258.00 121.00 C 258.50 125.01, 260.78 126.87, 260.00 130.00 C 259.96 133.82, 259.71 136.73, 261.00 139.00 C 262.53 138.99, 262.94 142.86, 264.00 140.00 C 266.35 139.71, 268.26 140.78, 269.00 139.00 C 273.08 140.81, 273.36 143.77, 273.00 147.00 C 275.13 150.26, 273.48 154.08, 274.00 157.00 C 277.67 158.00, 280.33 158.00, 283.00 158.00 C 287.50 158.06, 285.46 162.76, 286.00 165.00 C 288.09 167.94, 286.51 171.40, 287.00 174.00 C 286.91 178.66, 290.13 178.09, 293.00 178.00 C 297.31 177.00, 299.64 182.05, 297.00 184.00 C 299.09 186.94, 297.51 190.40, 298.00 193.00 C 297.52 196.88, 301.60 197.71, 304.00 198.00 C 307.13 201.26, 305.48 205.08, 306.00 208.00 C 307.08 211.43, 302.97 215.12, 306.00 216.00 C 309.99 216.15, 312.45 221.13, 310.00 223.00 C 310.04 226.82, 310.29 229.73, 309.00 232.00 C 307.79 237.12, 312.22 237.13, 314.00 240.00 C 314.80 244.13, 317.18 236.26, 320.00 237.00 C 323.82 233.95, 321.78 229.89, 325.00 228.00 C 326.48 224.34, 328.80 221.39, 332.00 221.00 C 336.98 221.53, 336.08 215.78, 339.00 214.00 C 340.62 210.52, 342.63 206.50, 346.00 207.00 C 351.05 207.85, 350.13 202.87, 352.00 201.00 C 354.11 197.62, 354.76 193.53, 358.00 193.00 C 361.27 192.94, 365.12 194.30, 366.00 191.00 C 369.15 187.67, 369.34 184.53, 371.00 182.00 C 373.48 178.00, 378.79 179.10, 378.00 175.00 C 379.19 171.00, 380.88 168.62, 382.00 166.00 C 383.67 163.51, 386.33 163.51, 387.00 165.00 C 389.36 163.82, 389.14 161.98, 391.00 161.00 C 390.96 157.18, 390.71 154.27, 392.00 152.00 C 391.51 148.40, 393.09 144.94, 391.00 143.00 C 391.28 138.94, 390.51 136.32, 389.00 134.00 C 387.71 130.46, 388.32 127.12, 386.00 125.00 C 383.91 121.23, 383.72 118.09, 381.00 116.00 C 378.76 112.02, 375.80 109.75, 374.00 107.00 C 370.11 103.35, 368.87 101.11, 366.00 99.00 C 362.17 95.59, 359.20 93.51, 356.00 92.00 C 352.47 89.34, 349.33 89.15, 347.00 87.00 C 343.67 84.85, 340.53 84.66, 338.00 83.00 C 334.64 81.25, 331.95 80.32, 329.00 80.00 C 325.59 78.71, 322.92 78.07, 320.00 78.00 C 316.85 76.08, 313.05 78.14, 311.00 76.00 C 307.33 76.00, 304.67 76.00, 302.00 76.00 C 298.33 76.00, 295.67 76.00, 293.00 76.00 C 288.57 75.31, 286.43 77.69, 283.00 77.00 Z" fill="rgb(164.549978513107,83.48354103996562,62.17705199828105)" stroke="rgb(164.549978513107,83.48354103996562,62.17705199828105)" stroke-width="1" />
<path d="M 228.00 97.00 C 224.70 98.61, 222.30 102.39, 219.00 104.00 C 215.81 107.78, 213.44 110.90, 211.00 114.00 C 209.13 118.33, 206.89 121.09, 205.00 124.00 C 204.04 128.02, 202.96 130.98, 202.00 134.00 C 200.00 137.59, 200.32 141.13, 199.00 144.00 C 199.27 146.58, 197.20 147.20, 198.00 149.00 C 198.27 151.58, 196.20 152.20, 197.00 154.00 C 197.00 158.00, 197.00 161.00, 197.00 164.00 C 196.73 166.58, 198.80 167.20, 198.00 169.00 C 198.29 171.69, 199.59 172.95, 199.00 175.00 C 199.20 177.80, 201.27 178.42, 201.00 180.00 C 203.28 181.67, 200.72 184.33, 203.00 185.00 C 203.96 189.02, 205.04 191.98, 206.00 195.00 C 207.77 199.23, 210.23 201.77, 211.00 205.00 C 213.64 209.15, 215.93 212.03, 218.00 215.00 C 221.21 219.05, 223.13 222.22, 226.00 225.00 C 228.25 229.45, 232.92 231.48, 234.00 235.00 C 241.67 241.33, 247.88 248.76, 255.00 254.00 C 258.84 254.24, 255.29 252.15, 256.00 251.00 C 254.67 248.67, 253.33 247.33, 252.00 246.00 C 248.60 242.31, 247.40 238.69, 244.00 236.00 C 241.72 234.33, 244.28 231.67, 242.00 231.00 C 239.59 230.72, 240.57 227.58, 239.00 227.00 C 236.01 223.31, 229.92 219.69, 234.00 217.00 C 235.60 214.10, 236.28 213.42, 234.00 212.00 C 233.08 209.77, 232.14 208.55, 232.00 207.00 C 229.42 203.10, 226.34 200.83, 227.00 197.00 C 227.56 192.35, 225.80 189.67, 224.00 187.00 C 222.32 182.81, 219.70 180.01, 220.00 176.00 C 222.58 175.27, 223.20 173.20, 225.00 174.00 C 228.72 171.77, 225.54 170.55, 226.00 169.00 C 223.72 167.33, 226.28 164.67, 224.00 164.00 C 224.27 161.42, 222.20 160.80, 223.00 159.00 C 222.10 154.68, 220.71 151.98, 220.00 149.00 C 219.22 144.85, 218.66 141.61, 219.00 138.00 C 217.54 134.47, 218.07 131.11, 218.00 128.00 C 217.53 123.67, 218.47 120.92, 219.00 118.00 C 219.03 113.60, 221.15 111.06, 222.00 108.00 C 223.86 106.02, 223.64 104.18, 225.00 103.00 C 226.94 100.58, 227.78 98.71, 229.00 97.00 Z" fill="rgb(71.15531752104054,13.218439173680183,22.423488905891354)" stroke="rgb(71.15531752104054,13.218439173680183,22.423488905891354)" stroke-width="1" />
<path d="M 497.00 305.00 C 495.86 308.67, 495.87 312.81, 496.00 317.00 C 496.00 319.67, 496.00 321.33, 496.00 323.00 C 495.58 326.31, 497.79 327.53, 497.00 330.00 C 496.19 335.60, 498.35 340.39, 503.00 341.00 C 506.00 341.00, 508.00 341.00, 510.00 341.00 C 512.80 343.85, 514.76 340.25, 517.00 341.00 C 519.54 340.89, 520.11 337.93, 522.00 337.00 C 524.27 334.57, 526.69 334.92, 529.00 335.00 C 531.67 335.00, 533.33 335.00, 535.00 335.00 C 537.27 336.64, 539.69 334.02, 542.00 335.00 C 547.00 335.00, 551.00 335.00, 555.00 335.00 C 558.69 334.54, 559.31 334.54, 562.00 335.00 C 565.00 335.00, 567.00 335.00, 569.00 335.00 C 571.49 335.03, 574.53 335.50, 574.00 333.00 C 574.21 329.53, 576.42 328.31, 576.00 326.00 C 576.16 320.80, 574.26 317.45, 575.00 313.00 C 572.20 310.02, 575.35 308.76, 573.00 307.00 C 570.17 306.27, 568.29 305.63, 566.00 306.00 C 562.71 306.37, 560.83 305.73, 559.00 305.00 C 556.00 305.00, 554.00 305.00, 552.00 305.00 C 533.33 305.00, 515.67 305.00, 498.00 305.00 Z" fill="rgb(87.94779116465864,143.9678714859438,202.9611780455154)" stroke="rgb(87.94779116465864,143.9678714859438,202.9611780455154)" stroke-width="1" />
<path d="M 337.00 368.00 C 334.84 370.58, 336.54 374.75, 336.00 378.00 C 336.15 382.41, 335.40 386.19, 337.00 389.00 C 337.29 391.35, 336.22 393.26, 338.00 394.00 C 337.36 397.03, 338.97 398.64, 341.00 398.00 C 345.33 398.00, 348.67 398.00, 352.00 398.00 C 367.67 398.00, 382.33 398.00, 397.00 398.00 C 400.16 395.42, 398.46 391.25, 399.00 388.00 C 399.00 383.67, 399.00 380.33, 399.00 377.00 C 399.18 372.80, 399.40 367.76, 395.00 369.00 C 390.33 368.00, 386.67 368.00, 383.00 368.00 C 378.72 370.48, 375.74 367.33, 372.00 368.00 C 367.67 368.00, 364.33 368.00, 361.00 368.00 C 352.67 368.00, 345.33 368.00, 338.00 368.00 Z" fill="rgb(91.32023575638507,149.56581532416502,207.81728880157172)" stroke="rgb(91.32023575638507,149.56581532416502,207.81728880157172)" stroke-width="1" />
<path d="M 130.00 264.00 C 128.23 266.54, 127.74 269.62, 128.00 273.00 C 128.00 277.33, 128.00 280.67, 128.00 284.00 C 128.07 288.11, 127.54 291.47, 129.00 294.00 C 131.28 295.67, 128.72 298.33, 131.00 299.00 C 133.67 298.00, 135.33 298.00, 137.00 298.00 C 139.35 298.29, 141.26 297.22, 142.00 299.00 C 142.74 301.78, 144.65 300.71, 146.00 301.00 C 150.33 302.00, 153.67 302.00, 157.00 302.00 C 161.43 301.31, 163.57 303.69, 167.00 303.00 C 168.74 301.22, 170.65 302.29, 172.00 302.00 C 174.44 302.06, 175.22 299.61, 175.00 298.00 C 175.00 290.33, 175.00 283.67, 175.00 277.00 C 175.00 273.00, 175.00 270.00, 175.00 267.00 C 172.84 262.50, 168.39 264.54, 165.00 264.00 C 157.33 264.00, 150.67 264.00, 144.00 264.00 C 141.58 266.57, 140.90 264.67, 139.00 266.00 C 137.42 262.93, 134.28 264.19, 135.00 266.00 C 135.30 268.31, 134.88 270.57, 133.00 270.00 C 131.64 267.34, 132.89 265.02, 131.00 264.00 Z" fill="rgb(84.95081050866406,144.95081050866406,204.95081050866406)" stroke="rgb(84.95081050866406,144.95081050866406,204.95081050866406)" stroke-width="1" />
<path d="M 499.00 304.00 C 498.05 305.96, 494.92 303.90, 496.00 307.00 C 496.00 309.67, 496.00 311.33, 496.00 313.00 C 496.56 317.57, 494.82 322.10, 497.00 325.00 C 498.39 328.28, 503.96 326.37, 507.00 327.00 C 512.00 327.00, 516.00 327.00, 520.00 327.00 C 528.67 327.00, 536.33 327.00, 544.00 327.00 C 548.67 327.00, 552.33 327.00, 556.00 327.00 C 562.02 327.96, 555.71 317.52, 562.00 319.00 C 566.57 318.44, 571.10 320.18, 574.00 318.00 C 575.35 313.05, 573.22 310.13, 574.00 306.00 C 570.10 302.82, 565.57 304.56, 562.00 304.00 C 557.00 304.00, 553.00 304.00, 549.00 304.00 C 532.00 304.00, 516.00 304.00, 500.00 304.00 Z" fill="rgb(86.99377828054298,143.0260180995475,202.04242081447964)" stroke="rgb(86.99377828054298,143.0260180995475,202.04242081447964)" stroke-width="1" />
<path d="M 276.00 77.00 C 275.06 79.41, 271.94 76.59, 271.00 79.00 C 267.46 79.68, 267.40 82.86, 266.00 84.00 C 264.17 86.60, 264.37 88.62, 263.00 90.00 C 263.72 93.10, 261.28 93.90, 262.00 96.00 C 260.00 100.11, 262.00 104.89, 260.00 108.00 C 260.00 112.67, 260.00 116.33, 260.00 120.00 C 259.22 125.13, 261.35 128.05, 261.00 132.00 C 261.00 134.67, 261.00 136.33, 261.00 138.00 C 261.46 140.83, 265.59 140.29, 266.00 139.00 C 268.67 139.00, 270.33 139.00, 272.00 139.00 C 273.00 141.67, 273.00 143.33, 273.00 145.00 C 274.89 147.02, 273.64 149.34, 274.00 151.00 C 274.09 154.24, 274.84 156.20, 276.00 158.00 C 280.35 158.00, 286.27 158.87, 285.00 154.00 C 284.78 149.29, 285.70 145.10, 284.00 142.00 C 284.00 133.33, 284.00 125.67, 284.00 118.00 C 284.00 113.33, 284.00 109.67, 284.00 106.00 C 283.98 103.40, 281.49 101.38, 284.00 100.00 C 284.00 97.33, 284.00 95.67, 284.00 94.00 C 284.56 89.43, 282.82 84.90, 285.00 82.00 C 282.79 79.39, 286.87 76.94, 284.00 77.00 C 281.00 77.00, 279.00 77.00, 277.00 77.00 Z" fill="rgb(57.15217391304348,72.08277591973244,113.26170568561874)" stroke="rgb(57.15217391304348,72.08277591973244,113.26170568561874)" stroke-width="1" />
<path d="M 288.00 256.00 C 286.20 257.96, 282.92 256.32, 281.00 258.00 C 276.80 259.04, 274.75 261.86, 272.00 263.00 C 269.44 265.98, 272.55 270.32, 274.00 271.00 C 276.14 271.53, 277.47 272.86, 277.00 274.00 C 278.92 276.23, 279.86 277.45, 280.00 279.00 C 281.50 282.40, 281.66 284.95, 283.00 287.00 C 282.50 291.37, 286.52 293.38, 289.00 294.00 C 291.00 294.00, 292.00 294.00, 293.00 294.00 C 294.98 292.91, 296.82 290.54, 298.00 293.00 C 301.41 296.92, 304.08 293.09, 307.00 294.00 C 310.23 291.87, 311.43 289.92, 311.00 287.00 C 312.19 283.00, 313.88 280.62, 315.00 278.00 C 316.05 274.39, 316.68 270.09, 313.00 270.00 C 309.39 267.52, 306.71 266.22, 304.00 265.00 C 305.63 261.96, 308.72 263.46, 311.00 263.00 C 312.29 258.91, 310.09 256.71, 307.00 257.00 C 302.87 257.78, 301.01 255.50, 298.00 256.00 C 294.33 256.00, 291.67 256.00, 289.00 256.00 Z" fill="rgb(201.79256965944273,140.8421052631579,33.037151702786375)" stroke="rgb(201.79256965944273,140.8421052631579,33.037151702786375)" stroke-width="1" />
<path d="M 410.00 360.00 C 406.85 360.87, 408.08 363.80, 409.00 366.00 C 406.14 368.81, 403.73 369.30, 401.00 369.00 C 399.51 374.52, 400.08 379.90, 400.00 385.00 C 400.00 388.33, 400.00 390.67, 400.00 393.00 C 399.17 396.89, 401.11 398.83, 404.00 398.00 C 410.33 398.00, 415.67 398.00, 421.00 398.00 C 424.33 398.00, 426.67 398.00, 429.00 398.00 C 432.04 396.37, 430.54 393.28, 431.00 391.00 C 431.00 384.67, 431.00 379.33, 431.00 374.00 C 431.00 370.67, 431.00 368.33, 431.00 366.00 C 431.20 362.75, 431.41 359.02, 428.00 360.00 C 421.67 360.00, 416.33 360.00, 411.00 360.00 Z" fill="rgb(89.46912521440824,148.46912521440822,206.46912521440822)" stroke="rgb(89.46912521440824,148.46912521440822,206.46912521440822)" stroke-width="1" />
<path d="M 489.00 175.00 C 487.68 176.98, 484.97 175.58, 483.00 176.00 C 480.18 176.07, 479.77 179.10, 480.00 181.00 C 480.00 186.67, 480.00 191.33, 480.00 196.00 C 481.98 198.32, 480.58 201.03, 481.00 203.00 C 481.05 207.25, 485.06 207.00, 487.00 208.00 C 492.67 208.00, 497.33 208.00, 502.00 208.00 C 505.47 208.79, 506.69 206.58, 509.00 207.00 C 511.98 205.68, 510.58 202.97, 511.00 201.00 C 511.00 195.33, 511.00 190.67, 511.00 186.00 C 511.00 183.00, 511.00 181.00, 511.00 179.00 C 511.18 174.73, 506.97 176.40, 505.00 176.00 C 499.44 175.41, 493.88 177.23, 490.00 175.00 Z" fill="rgb(80.30857142857143,140.30857142857144,202.2247619047619)" stroke="rgb(80.30857142857143,140.30857142857144,202.2247619047619)" stroke-width="1" />
<path d="M 337.00 368.00 C 334.78 371.55, 336.58 376.77, 336.00 381.00 C 336.00 386.67, 336.00 391.33, 336.00 396.00 C 339.88 399.23, 345.44 397.41, 350.00 398.00 C 355.67 398.00, 360.33 398.00, 365.00 398.00 C 366.47 394.99, 365.67 389.29, 366.00 385.00 C 367.39 379.77, 366.98 374.80, 367.00 370.00 C 366.17 366.83, 362.45 368.55, 361.00 368.00 C 357.67 368.00, 355.33 368.00, 353.00 368.00 C 347.33 368.00, 342.67 368.00, 338.00 368.00 Z" fill="rgb(90.96008188331628,149.96008188331626,207.96008188331626)" stroke="rgb(90.96008188331628,149.96008188331626,207.96008188331626)" stroke-width="1" />
<path d="M 400.00 264.00 C 398.68 265.98, 395.97 264.58, 394.00 265.00 C 390.57 267.27, 390.92 269.69, 391.00 272.00 C 392.38 275.62, 386.71 276.93, 390.00 279.00 C 389.78 282.51, 391.27 284.30, 393.00 286.00 C 397.55 288.22, 402.77 286.42, 407.00 287.00 C 412.67 287.00, 417.33 287.00, 422.00 287.00 C 425.00 287.00, 427.00 287.00, 429.00 287.00 C 430.00 284.00, 430.00 282.00, 430.00 280.00 C 430.00 274.33, 430.00 269.67, 430.00 265.00 C 419.67 264.00, 410.33 264.00, 401.00 264.00 Z" fill="rgb(85.33728448275862,145.20043103448276,204.30064655172413)" stroke="rgb(85.33728448275862,145.20043103448276,204.30064655172413)" stroke-width="1" />
<path d="M 291.00 268.00 C 289.98 269.89, 287.66 268.64, 286.00 269.00 C 283.59 270.61, 281.41 270.39, 280.00 272.00 C 279.00 273.67, 279.00 275.33, 279.00 277.00 C 280.01 280.27, 282.62 281.47, 282.00 284.00 C 283.89 286.02, 282.64 288.34, 283.00 290.00 C 285.42 292.60, 287.06 293.67, 289.00 294.00 C 291.66 293.64, 293.98 294.89, 295.00 293.00 C 297.17 288.93, 299.18 293.98, 301.00 295.00 C 303.69 294.71, 304.95 293.41, 307.00 294.00 C 309.56 291.82, 310.87 291.30, 311.00 289.00 C 310.28 285.90, 312.72 285.10, 312.00 283.00 C 313.60 279.83, 314.68 277.87, 316.00 276.00 C 314.96 273.29, 312.71 271.04, 311.00 271.00 C 307.95 270.59, 306.69 269.29, 305.00 269.00 C 300.60 267.22, 296.02 268.28, 292.00 268.00 Z" fill="rgb(195.12773722627736,153.57846715328466,55.089416058394164)" stroke="rgb(195.12773722627736,153.57846715328466,55.089416058394164)" stroke-width="1" />
<path d="M 289.00 179.00 C 286.91 180.94, 288.49 184.40, 288.00 187.00 C 288.49 190.60, 286.91 194.06, 289.00 196.00 C 288.96 199.82, 288.71 202.73, 290.00 205.00 C 290.00 208.67, 290.00 211.33, 290.00 214.00 C 292.09 216.94, 290.51 220.40, 291.00 223.00 C 290.40 227.05, 291.75 229.30, 292.00 232.00 C 291.40 236.05, 292.75 238.30, 293.00 241.00 C 294.18 242.50, 296.02 245.11, 297.00 243.00 C 299.31 243.30, 301.57 242.88, 301.00 241.00 C 302.41 237.64, 303.65 235.21, 303.00 232.00 C 303.25 228.30, 304.60 226.05, 304.00 223.00 C 304.87 218.97, 303.80 217.47, 304.00 214.00 C 304.00 210.33, 304.00 207.67, 304.00 205.00 C 306.51 201.93, 304.07 197.71, 301.00 199.00 C 296.66 198.65, 295.74 194.65, 296.00 192.00 C 296.00 188.33, 296.00 185.67, 296.00 183.00 C 297.41 177.59, 292.71 179.29, 290.00 179.00 Z" fill="rgb(195.8091697645601,140.4374225526642,16.21561338289963)" stroke="rgb(195.8091697645601,140.4374225526642,16.21561338289963)" stroke-width="1" />
<path d="M 537.00 72.00 C 535.11 73.02, 536.36 75.34, 536.00 77.00 C 536.72 80.10, 534.28 80.90, 535.00 83.00 C 535.23 87.71, 536.61 90.94, 536.00 95.00 C 536.36 97.66, 535.11 99.98, 537.00 101.00 C 538.67 102.00, 540.33 102.00, 542.00 102.00 C 546.90 101.43, 551.77 103.20, 555.00 101.00 C 558.88 98.11, 558.99 94.08, 559.00 90.00 C 559.00 85.00, 559.00 81.00, 559.00 77.00 C 558.17 74.86, 558.55 71.91, 557.00 72.00 C 554.33 72.00, 552.67 72.00, 551.00 72.00 C 546.00 72.00, 542.00 72.00, 538.00 72.00 Z" fill="rgb(76.98899587345254,136.98899587345255,198.98899587345255)" stroke="rgb(76.98899587345254,136.98899587345255,198.98899587345255)" stroke-width="1" />
<path d="M 432.00 305.00 C 432.00 313.00, 432.00 321.00, 432.00 329.00 C 432.83 331.60, 432.63 333.62, 434.00 335.00 C 436.67 335.00, 438.33 335.00, 440.00 335.00 C 444.90 334.43, 449.77 336.20, 453.00 334.00 C 453.65 330.05, 455.78 327.13, 455.00 323.00 C 455.00 318.00, 455.00 314.00, 455.00 310.00 C 456.43 303.17, 449.45 305.39, 446.00 305.00 C 441.00 305.00, 437.00 305.00, 433.00 305.00 Z" fill="rgb(87.00137551581844,146.00137551581844,204.00137551581844)" stroke="rgb(87.00137551581844,146.00137551581844,204.00137551581844)" stroke-width="1" />
<path d="M 82.00 328.00 C 78.25 329.33, 80.69 334.56, 80.00 338.00 C 80.36 340.66, 79.11 342.98, 81.00 344.00 C 80.69 347.07, 84.08 347.61, 83.00 350.00 C 87.40 350.97, 91.10 351.23, 95.00 351.00 C 99.90 350.43, 104.77 352.20, 108.00 350.00 C 108.41 346.95, 109.71 345.69, 110.00 344.00 C 109.28 340.90, 111.72 340.10, 111.00 338.00 C 110.46 333.60, 112.81 327.99, 108.00 328.00 C 99.00 328.00, 91.00 328.00, 83.00 328.00 Z" fill="rgb(87.63231197771587,146.98607242339833,206.98607242339833)" stroke="rgb(87.63231197771587,146.98607242339833,206.98607242339833)" stroke-width="1" />
<path d="M 83.00 367.00 C 79.12 368.40, 80.06 373.18, 80.00 377.00 C 80.00 381.67, 80.00 385.33, 80.00 389.00 C 81.80 391.94, 79.57 393.58, 81.00 395.00 C 82.78 397.57, 84.35 396.30, 86.00 398.00 C 90.99 397.30, 96.28 399.76, 99.00 396.00 C 101.92 398.82, 102.31 394.26, 102.00 393.00 C 103.00 390.33, 103.00 388.67, 103.00 387.00 C 104.04 383.93, 100.19 382.50, 103.00 381.00 C 101.98 378.00, 101.98 377.00, 103.00 375.00 C 103.00 372.33, 103.00 370.67, 103.00 369.00 C 100.34 367.64, 98.02 368.89, 97.00 367.00 C 92.00 367.00, 88.00 367.00, 84.00 367.00 Z" fill="rgb(89.00833333333334,148.00833333333333,206.00833333333333)" stroke="rgb(89.00833333333334,148.00833333333333,206.00833333333333)" stroke-width="1" />
<path d="M 513.00 264.00 C 510.82 266.90, 512.56 271.43, 512.00 275.00 C 512.00 280.00, 512.00 284.00, 512.00 288.00 C 512.36 290.66, 511.11 292.98, 513.00 294.00 C 515.02 295.89, 517.34 294.64, 519.00 295.00 C 524.00 295.00, 528.00 295.00, 532.00 295.00 C 536.64 292.57, 534.37 287.68, 535.00 284.00 C 534.34 279.34, 537.00 272.91, 532.00 272.00 C 525.60 273.46, 527.15 267.30, 527.00 264.00 C 522.00 264.00, 518.00 264.00, 514.00 264.00 Z" fill="rgb(85.61973875181422,142.1944847605225,203.00290275761975)" stroke="rgb(85.61973875181422,142.1944847605225,203.00290275761975)" stroke-width="1" />
<path d="M 577.00 240.00 C 574.82 242.90, 576.56 247.43, 576.00 251.00 C 576.00 256.00, 576.00 260.00, 576.00 264.00 C 576.57 268.90, 574.80 273.77, 577.00 277.00 C 580.23 280.20, 585.10 278.43, 589.00 279.00 C 592.11 278.44, 590.50 275.16, 591.00 274.00 C 591.00 271.00, 591.00 269.00, 591.00 267.00 C 591.00 262.00, 591.00 258.00, 591.00 254.00 C 590.72 248.98, 591.78 244.40, 590.00 241.00 C 586.00 240.00, 582.00 240.00, 578.00 240.00 Z" fill="rgb(83.0375939849624,141.94736842105263,201.97744360902254)" stroke="rgb(83.0375939849624,141.94736842105263,201.97744360902254)" stroke-width="1" />
<path d="M 537.00 208.00 C 535.06 210.77, 528.00 206.55, 529.00 212.00 C 529.00 216.33, 529.00 219.67, 529.00 223.00 C 528.89 227.17, 528.11 232.42, 533.00 231.00 C 535.86 231.98, 535.64 233.82, 537.00 235.00 C 539.67 235.00, 541.33 235.00, 543.00 235.00 C 545.33 235.00, 546.67 235.00, 548.00 235.00 C 550.55 235.09, 550.17 232.14, 551.00 231.00 C 551.00 226.67, 551.00 223.33, 551.00 220.00 C 551.00 215.53, 549.30 212.76, 550.00 209.00 C 545.05 209.35, 542.13 207.22, 538.00 208.00 Z" fill="rgb(80.9983164983165,139.9983164983165,199.9983164983165)" stroke="rgb(80.9983164983165,139.9983164983165,199.9983164983165)" stroke-width="1" />
<path d="M 63.00 93.00 C 60.46 94.77, 57.38 95.26, 54.00 95.00 C 48.71 94.73, 47.41 98.25, 48.00 102.00 C 47.30 106.76, 49.00 109.53, 49.00 113.00 C 49.29 115.35, 48.22 117.26, 50.00 118.00 C 52.69 118.29, 53.95 119.59, 56.00 119.00 C 60.33 119.00, 63.67 119.00, 67.00 119.00 C 68.15 116.63, 71.79 119.43, 71.00 117.00 C 71.00 114.33, 71.00 112.67, 71.00 111.00 C 71.00 106.67, 71.00 103.33, 71.00 100.00 C 71.27 97.42, 69.20 96.80, 70.00 95.00 C 66.95 94.59, 65.69 93.29, 64.00 93.00 Z" fill="rgb(80.38230383973288,138.38230383973288,201.38230383973288)" stroke="rgb(80.38230383973288,138.38230383973288,201.38230383973288)" stroke-width="1" />
<path d="M 129.00 208.00 C 126.31 210.59, 129.31 215.98, 128.00 218.00 C 130.88 219.98, 125.68 221.82, 129.00 223.00 C 128.29 225.69, 129.59 226.95, 129.00 229.00 C 130.06 232.27, 135.29 230.38, 138.00 231.00 C 142.67 231.00, 146.33 231.00, 150.00 231.00 C 152.76 230.43, 153.43 229.76, 153.00 228.00 C 149.71 225.59, 155.29 223.41, 152.00 222.00 C 150.70 218.70, 151.04 213.98, 151.00 210.00 C 149.94 206.73, 144.71 208.62, 142.00 208.00 C 137.33 208.00, 133.67 208.00, 130.00 208.00 Z" fill="rgb(82.99476439790575,142.99476439790575,202.99476439790575)" stroke="rgb(82.99476439790575,142.99476439790575,202.99476439790575)" stroke-width="1" />
<path d="M 577.00 168.00 C 574.84 170.58, 576.54 174.75, 576.00 178.00 C 576.00 182.33, 576.00 185.67, 576.00 189.00 C 579.58 192.16, 583.75 190.46, 587.00 191.00 C 591.33 191.00, 594.67 191.00, 598.00 191.00 C 599.00 184.00, 599.00 177.00, 599.00 170.00 C 597.94 166.73, 592.71 168.62, 590.00 168.00 C 585.33 168.00, 581.67 168.00, 578.00 168.00 Z" fill="rgb(80.98421052631579,139.97543859649122,200.00175438596492)" stroke="rgb(80.98421052631579,139.97543859649122,200.00175438596492)" stroke-width="1" />
<path d="M 433.00 359.00 C 430.84 361.58, 432.54 365.75, 432.00 369.00 C 432.00 373.33, 432.00 376.67, 432.00 380.00 C 432.00 384.33, 432.00 387.67, 432.00 391.00 C 431.76 394.11, 434.62 394.51, 436.00 395.00 C 438.67 396.00, 440.33 396.00, 442.00 396.00 C 445.41 395.62, 447.70 391.66, 447.00 388.00 C 447.00 383.33, 447.00 379.67, 447.00 376.00 C 446.83 372.11, 448.03 366.44, 444.00 367.00 C 441.15 366.54, 438.84 364.92, 439.00 363.00 C 437.58 360.40, 435.94 359.33, 434.00 359.00 Z" fill="rgb(88.6023166023166,147.14478764478764,205.2972972972973)" stroke="rgb(88.6023166023166,147.14478764478764,205.2972972972973)" stroke-width="1" />
<path d="M 539.00 256.00 C 535.22 256.95, 535.95 260.69, 536.00 264.00 C 535.53 268.33, 536.47 271.08, 537.00 274.00 C 537.29 276.35, 536.22 278.26, 538.00 279.00 C 540.42 277.43, 541.10 279.33, 543.00 278.00 C 547.46 278.77, 549.76 276.75, 553.00 277.00 C 554.67 274.72, 557.33 277.28, 558.00 275.00 C 557.73 272.42, 559.80 271.80, 559.00 270.00 C 559.00 267.67, 559.00 266.33, 559.00 265.00 C 556.28 262.77, 559.46 261.55, 559.00 260.00 C 558.05 255.22, 554.31 255.95, 551.00 256.00 C 546.67 256.00, 543.33 256.00, 540.00 256.00 Z" fill="rgb(84.69259962049335,141.21631878557875,202.04174573055028)" stroke="rgb(84.69259962049335,141.21631878557875,202.04174573055028)" stroke-width="1" />
<path d="M 512.00 176.00 C 512.00 183.00, 512.00 190.00, 512.00 197.00 C 512.35 201.11, 510.54 206.55, 515.00 207.00 C 519.33 207.00, 522.67 207.00, 526.00 207.00 C 527.00 199.00, 527.00 192.00, 527.00 185.00 C 526.50 181.23, 528.74 175.19, 524.00 176.00 C 519.67 176.00, 516.33 176.00, 513.00 176.00 Z" fill="rgb(80.2289156626506,139.7449799196787,199.76506024096386)" stroke="rgb(80.2289156626506,139.7449799196787,199.76506024096386)" stroke-width="1" />
<path d="M 497.00 176.00 C 494.84 178.58, 496.54 182.75, 496.00 186.00 C 496.00 190.33, 496.00 193.67, 496.00 197.00 C 495.94 201.12, 495.68 205.85, 498.00 207.00 C 502.33 207.00, 505.67 207.00, 509.00 207.00 C 512.16 204.42, 510.46 200.25, 511.00 197.00 C 511.00 192.67, 511.00 189.33, 511.00 186.00 C 510.27 182.17, 512.80 176.60, 509.00 176.00 C 504.67 176.00, 501.33 176.00, 498.00 176.00 Z" fill="rgb(80.00198019801981,140.0019801980198,201.9980198019802)" stroke="rgb(80.00198019801981,140.0019801980198,201.9980198019802)" stroke-width="1" />
<path d="M 97.00 208.00 C 94.87 210.26, 96.52 214.08, 96.00 217.00 C 96.00 221.33, 96.00 224.67, 96.00 228.00 C 96.73 231.83, 94.20 237.40, 98.00 238.00 C 102.47 238.00, 105.24 239.70, 109.00 239.00 C 112.27 236.94, 110.38 231.71, 111.00 229.00 C 111.00 224.67, 111.00 221.33, 111.00 218.00 C 110.40 213.81, 112.61 209.13, 109.00 208.00 C 104.67 208.00, 101.33 208.00, 98.00 208.00 Z" fill="rgb(83.0,143.0,203.00405679513185)" stroke="rgb(83.0,143.0,203.00405679513185)" stroke-width="1" />
<path d="M 65.00 192.00 C 62.87 194.26, 64.52 198.08, 64.00 201.00 C 64.00 203.33, 64.00 204.67, 64.00 206.00 C 66.67 207.00, 68.33 207.00, 70.00 207.00 C 74.33 207.00, 77.67 207.00, 81.00 207.00 C 83.33 207.00, 84.67 207.00, 86.00 207.00 C 88.01 204.56, 90.65 209.20, 92.00 206.00 C 95.01 206.67, 93.56 203.90, 94.00 203.00 C 94.29 200.31, 95.59 199.05, 95.00 197.00 C 96.42 191.11, 91.17 191.89, 88.00 192.00 C 80.00 192.00, 73.00 192.00, 66.00 192.00 Z" fill="rgb(82.86746987951807,142.86746987951807,204.86746987951807)" stroke="rgb(82.86746987951807,142.86746987951807,204.86746987951807)" stroke-width="1" />
<path d="M 49.00 48.00 C 46.87 50.26, 48.52 54.08, 48.00 57.00 C 48.00 61.33, 48.00 64.67, 48.00 68.00 C 48.15 72.41, 47.40 76.19, 49.00 79.00 C 53.33 79.00, 56.67 79.00, 60.00 79.00 C 64.80 78.40, 62.27 72.83, 63.00 70.00 C 63.00 65.67, 63.00 62.33, 63.00 59.00 C 60.77 55.31, 63.38 50.62, 61.00 48.00 C 56.67 48.00, 53.33 48.00, 50.00 48.00 Z" fill="rgb(80.99203187250995,136.06374501992033,200.0398406374502)" stroke="rgb(80.99203187250995,136.06374501992033,200.0398406374502)" stroke-width="1" />
<path d="M 90.00 288.00 C 86.67 289.90, 88.43 293.90, 88.00 297.00 C 86.87 302.34, 91.57 303.46, 95.00 303.00 C 99.00 303.00, 102.00 303.00, 105.00 303.00 C 109.69 303.54, 112.21 301.23, 116.00 302.00 C 119.05 301.06, 119.14 296.83, 119.00 294.00 C 119.00 291.67, 119.00 290.33, 119.00 289.00 C 116.33 288.00, 114.67 288.00, 113.00 288.00 C 105.00 288.00, 98.00 288.00, 91.00 288.00 Z" fill="rgb(84.99591836734695,144.99591836734695,204.99591836734695)" stroke="rgb(84.99591836734695,144.99591836734695,204.99591836734695)" stroke-width="1" />
<path d="M 132.00 192.00 C 131.85 194.37, 128.21 191.57, 129.00 194.00 C 128.00 196.33, 128.00 197.67, 128.00 199.00 C 127.89 203.17, 127.11 208.42, 132.00 207.00 C 136.00 207.00, 139.00 207.00, 142.00 207.00 C 146.41 207.15, 150.19 206.40, 153.00 208.00 C 157.75 208.02, 160.02 205.75, 159.00 202.00 C 159.80 199.20, 157.73 198.58, 158.00 197.00 C 158.16 194.08, 155.85 192.46, 154.00 193.00 C 146.33 192.00, 139.67 192.00, 133.00 192.00 Z" fill="rgb(82.0,142.0,202.0793650793651)" stroke="rgb(82.0,142.0,202.0793650793651)" stroke-width="1" />
<path d="M 545.00 336.00 C 543.39 338.16, 543.39 342.84, 545.00 345.00 C 543.73 350.29, 547.25 351.59, 551.00 351.00 C 559.00 351.00, 566.00 351.00, 573.00 351.00 C 574.52 347.08, 572.87 343.26, 575.00 341.00 C 573.22 339.26, 574.29 337.35, 574.00 336.00 C 571.33 336.00, 569.67 336.00, 568.00 336.00 C 560.00 336.00, 553.00 336.00, 546.00 336.00 Z" fill="rgb(88.9755600814664,144.9755600814664,203.9755600814664)" stroke="rgb(88.9755600814664,144.9755600814664,203.9755600814664)" stroke-width="1" />
<path d="M 561.00 248.00 C 558.87 250.26, 560.52 254.08, 560.00 257.00 C 560.00 261.33, 560.00 264.67, 560.00 268.00 C 559.97 272.29, 559.53 275.75, 562.00 278.00 C 566.33 278.00, 569.67 278.00, 573.00 278.00 C 575.46 275.47, 574.93 272.11, 575.00 269.00 C 575.00 264.67, 575.00 261.33, 575.00 258.00 C 572.90 254.59, 575.28 250.33, 573.00 248.00 C 568.67 248.00, 565.33 248.00, 562.00 248.00 Z" fill="rgb(82.81818181818181,141.54545454545453,201.63636363636363)" stroke="rgb(82.81818181818181,141.54545454545453,201.63636363636363)" stroke-width="1" />
<path d="M 278.00 77.00 C 277.26 78.78, 275.35 77.71, 274.00 78.00 C 271.27 77.27, 272.31 81.00, 270.00 80.00 C 266.37 82.60, 265.29 85.85, 264.00 89.00 C 262.61 92.70, 261.86 95.67, 262.00 99.00 C 261.44 100.90, 259.99 103.67, 262.00 103.00 C 264.58 103.27, 265.20 101.20, 267.00 102.00 C 270.53 100.54, 273.89 101.07, 277.00 101.00 C 279.35 100.71, 281.26 101.78, 282.00 100.00 C 281.20 97.20, 283.27 96.58, 283.00 95.00 C 283.00 91.00, 283.00 88.00, 283.00 85.00 C 284.49 83.33, 284.49 80.67, 283.00 80.00 C 283.54 76.45, 279.41 79.50, 279.00 77.00 Z" fill="rgb(7.846473029045643,37.614107883817425,95.43153526970954)" stroke="rgb(7.846473029045643,37.614107883817425,95.43153526970954)" stroke-width="1" />
<path d="M 434.00 42.00 C 429.99 43.75, 433.68 48.70, 431.00 51.00 C 431.00 55.33, 431.00 58.67, 431.00 62.00 C 430.20 64.80, 432.27 65.42, 432.00 67.00 C 431.36 70.03, 432.97 71.64, 435.00 71.00 C 437.80 70.20, 438.42 72.27, 440.00 72.00 C 442.14 72.40, 445.32 72.46, 445.00 75.00 C 446.85 76.79, 446.19 73.15, 445.00 73.00 C 445.73 70.42, 447.80 69.80, 447.00 68.00 C 447.00 63.67, 447.00 60.33, 447.00 57.00 C 446.71 53.02, 448.07 47.86, 445.00 47.00 C 442.45 46.86, 441.23 45.92, 440.00 45.00 C 439.06 41.59, 435.94 44.41, 435.00 42.00 Z" fill="rgb(77.76291079812206,136.03521126760563,198.89906103286384)" stroke="rgb(77.76291079812206,136.03521126760563,198.89906103286384)" stroke-width="1" />
<path d="M 0.00 367.00 C 0.00 373.67, 0.00 380.33, 0.00 387.00 C 0.00 391.00, 0.00 394.00, 0.00 397.00 C 3.25 397.46, 7.42 399.16, 10.00 397.00 C 12.78 396.26, 11.71 394.35, 12.00 393.00 C 13.78 391.26, 12.71 389.35, 13.00 388.00 C 14.60 384.19, 13.85 380.41, 14.00 377.00 C 13.35 373.47, 15.67 368.33, 12.00 368.00 C 7.85 367.78, 4.61 368.34, 1.00 368.00 Z" fill="rgb(85.93364928909952,144.79146919431278,204.8388625592417)" stroke="rgb(85.93364928909952,144.79146919431278,204.8388625592417)" stroke-width="1" />
<path d="M 288.00 80.00 C 284.61 84.87, 286.48 91.92, 286.00 98.00 C 286.43 101.24, 290.93 99.41, 293.00 100.00 C 297.00 100.00, 300.00 100.00, 303.00 100.00 C 307.93 101.27, 306.97 97.64, 307.00 95.00 C 306.47 91.08, 305.53 88.33, 306.00 85.00 C 306.41 79.59, 301.71 81.29, 299.00 81.00 C 295.47 79.54, 292.11 80.07, 289.00 80.00 Z" fill="rgb(75.78620689655172,14.310344827586206,42.291954022988506)" stroke="rgb(75.78620689655172,14.310344827586206,42.291954022988506)" stroke-width="1" />
<path d="M 456.00 80.00 C 454.27 82.88, 448.19 78.68, 448.00 83.00 C 447.64 88.86, 452.81 85.58, 455.00 88.00 C 455.62 92.07, 455.70 96.31, 460.00 95.00 C 464.33 95.00, 467.67 95.00, 471.00 95.00 C 475.07 95.38, 479.31 95.30, 478.00 91.00 C 478.66 86.82, 479.96 83.06, 478.00 80.00 C 470.33 80.00, 463.67 80.00, 457.00 80.00 Z" fill="rgb(77.02752293577981,136.954128440367,198.9908256880734)" stroke="rgb(77.02752293577981,136.954128440367,198.9908256880734)" stroke-width="1" />
<path d="M 290.00 139.00 C 289.26 140.78, 287.35 139.71, 286.00 140.00 C 286.00 142.67, 286.00 144.33, 286.00 146.00 C 286.00 150.33, 286.00 153.67, 286.00 157.00 C 288.16 160.58, 286.46 164.75, 287.00 168.00 C 287.00 170.67, 287.00 172.33, 287.00 174.00 C 287.36 177.03, 288.97 178.64, 291.00 178.00 C 292.74 176.22, 294.65 177.29, 296.00 177.00 C 297.00 174.33, 297.00 172.67, 297.00 171.00 C 297.61 165.94, 296.23 162.71, 296.00 159.00 C 296.00 154.67, 296.00 151.33, 296.00 148.00 C 296.50 143.33, 296.16 137.70, 291.00 139.00 Z" fill="rgb(40.943127962085306,4.682464454976303,31.296208530805686)" stroke="rgb(40.943127962085306,4.682464454976303,31.296208530805686)" stroke-width="1" />
<path d="M 0.00 56.00 C 0.00 62.00, 0.00 68.00, 0.00 74.00 C 0.00 76.00, 0.00 77.00, 0.00 78.00 C 1.35 79.29, 3.26 78.22, 4.00 80.00 C 6.90 80.89, 10.90 79.41, 14.00 80.00 C 15.00 73.00, 15.00 67.00, 15.00 61.00 C 15.78 56.56, 14.44 55.22, 11.00 56.00 C 7.00 56.00, 4.00 56.00, 1.00 56.00 Z" fill="rgb(78.61394101876675,133.61394101876675,197.61394101876675)" stroke="rgb(78.61394101876675,133.61394101876675,197.61394101876675)" stroke-width="1" />
<path d="M 246.00 86.00 C 244.65 87.76, 242.01 86.42, 241.00 89.00 C 238.89 91.76, 235.94 92.75, 236.00 95.00 C 234.22 97.76, 232.25 99.02, 232.00 101.00 C 231.31 104.07, 230.07 105.50, 229.00 107.00 C 229.72 110.10, 227.28 110.90, 228.00 113.00 C 227.71 115.69, 226.41 116.95, 227.00 119.00 C 226.71 121.69, 225.41 122.95, 226.00 125.00 C 225.97 127.49, 225.50 130.53, 228.00 130.00 C 231.10 129.72, 231.90 127.28, 234.00 128.00 C 236.89 126.98, 235.64 124.66, 236.00 123.00 C 235.39 117.94, 236.77 114.71, 237.00 111.00 C 237.29 108.31, 238.59 107.05, 238.00 105.00 C 240.41 103.06, 237.59 99.94, 240.00 99.00 C 240.78 96.24, 242.75 94.98, 243.00 93.00 C 244.20 89.67, 247.13 88.47, 247.00 86.00 Z" fill="rgb(9.70757180156658,35.38642297650131,13.057441253263708)" stroke="rgb(9.70757180156658,35.38642297650131,13.057441253263708)" stroke-width="1" />
<path d="M 583.00 144.00 C 581.75 146.78, 575.88 142.79, 577.00 147.00 C 577.00 150.67, 577.00 153.33, 577.00 156.00 C 576.05 160.61, 580.94 158.39, 583.00 159.00 C 585.55 158.54, 586.77 161.72, 588.00 159.00 C 589.74 160.78, 591.65 159.71, 593.00 160.00 C 596.64 159.97, 600.27 160.93, 599.00 157.00 C 599.00 153.33, 599.00 150.67, 599.00 148.00 C 600.27 143.07, 596.64 144.03, 594.00 144.00 C 590.00 144.00, 587.00 144.00, 584.00 144.00 Z" fill="rgb(79.0,138.3031914893617,200.5718085106383)" stroke="rgb(79.0,138.3031914893617,200.5718085106383)" stroke-width="1" />
<path d="M 577.00 256.00 C 574.96 257.63, 576.46 260.72, 576.00 263.00 C 576.00 266.67, 576.00 269.33, 576.00 272.00 C 575.25 276.25, 576.79 278.83, 580.00 279.00 C 583.67 279.00, 586.33 279.00, 589.00 279.00 C 592.04 276.37, 590.54 273.28, 591.00 271.00 C 591.00 267.33, 591.00 264.67, 591.00 262.00 C 590.65 258.40, 590.52 254.93, 587.00 256.00 C 583.33 256.00, 580.67 256.00, 578.00 256.00 Z" fill="rgb(85.864,141.936,202.912)" stroke="rgb(85.864,141.936,202.912)" stroke-width="1" />
<path d="M 403.00 40.00 C 402.85 42.37, 399.21 39.57, 400.00 42.00 C 399.46 44.83, 400.74 45.91, 402.00 47.00 C 405.69 46.03, 409.29 47.57, 413.00 47.00 C 418.70 46.98, 413.30 55.02, 418.00 55.00 C 422.33 55.00, 425.67 55.00, 429.00 55.00 C 432.13 52.74, 430.48 48.92, 431.00 46.00 C 431.00 43.67, 431.00 42.33, 431.00 41.00 C 429.33 40.00, 427.67 40.00, 426.00 40.00 C 421.67 40.00, 418.33 40.00, 415.00 40.00 C 410.39 39.66, 407.15 40.22, 404.00 41.00 Z" fill="rgb(77.65526315789474,136.32894736842104,198.9921052631579)" stroke="rgb(77.65526315789474,136.32894736842104,198.9921052631579)" stroke-width="1" />
<path d="M 489.00 344.00 C 489.00 346.33, 489.00 348.67, 489.00 351.00 C 486.71 353.77, 488.60 358.40, 490.00 359.00 C 496.33 359.00, 501.67 359.00, 507.00 359.00 C 511.27 359.18, 509.60 354.97, 510.00 353.00 C 508.71 349.18, 510.10 345.66, 507.00 344.00 C 500.67 344.00, 495.33 344.00, 490.00 344.00 Z" fill="rgb(88.89411764705882,144.89411764705883,203.89411764705883)" stroke="rgb(88.89411764705882,144.89411764705883,203.89411764705883)" stroke-width="1" />
<path d="M 113.00 192.00 C 110.96 193.63, 112.46 196.72, 112.00 199.00 C 112.00 202.67, 112.00 205.33, 112.00 208.00 C 113.44 210.89, 111.64 215.03, 115.00 214.00 C 118.67 214.00, 121.33 214.00, 124.00 214.00 C 124.13 211.03, 126.12 209.24, 127.00 207.00 C 127.00 203.33, 127.00 200.67, 127.00 198.00 C 127.83 194.11, 125.89 192.17, 123.00 193.00 C 120.06 190.91, 116.60 192.49, 114.00 192.00 Z" fill="rgb(81.98809523809524,141.98809523809524,203.95634920634922)" stroke="rgb(81.98809523809524,141.98809523809524,203.95634920634922)" stroke-width="1" />
<path d="M 296.00 293.00 C 294.78 295.39, 293.31 295.91, 292.00 298.00 C 290.19 300.86, 289.70 303.27, 290.00 306.00 C 290.46 309.28, 288.96 312.37, 291.00 314.00 C 293.14 316.82, 293.38 320.11, 297.00 319.00 C 300.08 318.55, 303.76 318.60, 304.00 316.00 C 304.00 312.67, 304.00 310.33, 304.00 308.00 C 304.70 304.24, 302.30 302.76, 303.00 300.00 C 300.24 297.50, 299.63 293.59, 297.00 293.00 Z" fill="rgb(95.56666666666666,74.51212121212122,66.04545454545455)" stroke="rgb(95.56666666666666,74.51212121212122,66.04545454545455)" stroke-width="1" />
<path d="M 104.00 72.00 C 101.96 73.63, 103.46 76.72, 103.00 79.00 C 99.61 80.06, 95.00 79.05, 96.00 83.00 C 96.46 86.28, 94.96 89.37, 97.00 91.00 C 97.40 94.55, 101.57 93.98, 104.00 94.00 C 106.76 93.42, 110.88 95.21, 111.00 93.00 C 111.00 89.33, 111.00 86.67, 111.00 84.00 C 111.00 80.33, 111.00 77.67, 111.00 75.00 C 111.95 70.39, 107.06 72.61, 105.00 72.00 Z" fill="rgb(81.93015873015872,139.93015873015872,202.93015873015872)" stroke="rgb(81.93015873015872,139.93015873015872,202.93015873015872)" stroke-width="1" />
<path d="M 288.00 284.00 C 286.63 285.62, 282.72 284.74, 283.00 288.00 C 283.39 291.74, 286.71 293.48, 289.00 294.00 C 291.97 293.58, 294.68 294.98, 296.00 293.00 C 299.34 292.96, 301.79 296.95, 304.00 294.00 C 306.97 294.06, 309.94 293.22, 310.00 291.00 C 310.60 287.26, 307.04 286.10, 305.00 285.00 C 299.00 284.00, 294.00 284.00, 289.00 284.00 Z" fill="rgb(149.60363636363635,86.73818181818181,34.79272727272727)" stroke="rgb(149.60363636363635,86.73818181818181,34.79272727272727)" stroke-width="1" />
<path d="M 206.00 320.00 C 205.47 322.04, 198.28 320.54, 203.00 321.00 C 207.95 320.00, 206.94 324.61, 207.00 327.00 C 208.80 329.47, 206.20 329.53, 207.00 331.00 C 208.44 332.90, 206.99 335.67, 209.00 335.00 C 212.67 335.00, 215.33 335.00, 218.00 335.00 C 221.89 335.83, 223.83 333.89, 223.00 331.00 C 223.00 327.33, 223.00 324.67, 223.00 322.00 C 222.57 318.76, 218.07 320.59, 216.00 320.00 C 212.33 320.00, 209.67 320.00, 207.00 320.00 Z" fill="rgb(87.87813620071685,147.0,206.95698924731184)" stroke="rgb(87.87813620071685,147.0,206.95698924731184)" stroke-width="1" />
<path d="M 80.00 224.00 C 80.00 226.00, 80.00 228.00, 80.00 230.00 C 78.25 233.24, 81.85 235.20, 79.00 237.00 C 79.83 240.17, 83.55 238.45, 85.00 239.00 C 88.28 238.54, 91.37 240.04, 93.00 238.00 C 96.17 238.17, 94.45 234.45, 95.00 233.00 C 95.00 229.67, 95.00 227.33, 95.00 225.00 C 90.33 224.00, 85.67 224.00, 81.00 224.00 Z" fill="rgb(83.0,143.0,204.84150943396227)" stroke="rgb(83.0,143.0,204.84150943396227)" stroke-width="1" />
<path d="M 584.00 80.00 C 584.00 84.33, 584.00 88.67, 584.00 93.00 C 588.88 96.23, 594.44 94.41, 599.00 95.00 C 599.00 89.67, 599.00 85.33, 599.00 81.00 C 594.33 80.00, 589.67 80.00, 585.00 80.00 Z" fill="rgb(76.98828125,134.98828125,197.98828125)" stroke="rgb(76.98828125,134.98828125,197.98828125)" stroke-width="1" />
<path d="M 113.00 32.00 C 111.02 33.32, 112.42 36.03, 112.00 38.00 C 112.42 40.97, 111.02 43.68, 113.00 45.00 C 112.83 48.17, 116.55 46.45, 118.00 47.00 C 121.00 47.00, 123.00 47.00, 125.00 47.00 C 128.22 43.45, 126.42 38.23, 127.00 34.00 C 127.17 30.83, 123.45 32.55, 122.00 32.00 C 118.67 32.00, 116.33 32.00, 114.00 32.00 Z" fill="rgb(81.8991935483871,137.00806451612902,200.97177419354838)" stroke="rgb(81.8991935483871,137.00806451612902,200.97177419354838)" stroke-width="1" />
<path d="M 497.00 160.00 C 494.78 163.55, 496.58 168.77, 496.00 173.00 C 497.32 175.98, 500.03 174.58, 502.00 175.00 C 504.97 174.58, 507.68 175.98, 509.00 174.00 C 512.17 174.17, 510.45 170.45, 511.00 169.00 C 511.00 166.00, 511.00 164.00, 511.00 162.00 C 507.45 158.78, 502.23 160.58, 498.00 160.00 Z" fill="rgb(78.98406374501992,138.9840637450199,199.0239043824701)" stroke="rgb(78.98406374501992,138.9840637450199,199.0239043824701)" stroke-width="1" />
<path d="M 560.00 248.00 C 560.00 252.33, 560.00 256.67, 560.00 261.00 C 559.83 264.17, 563.55 262.45, 565.00 263.00 C 568.33 263.00, 570.67 263.00, 573.00 263.00 C 576.39 260.83, 572.60 258.87, 575.00 257.00 C 575.00 254.00, 575.00 252.00, 575.00 250.00 C 574.17 246.83, 570.45 248.55, 569.00 248.00 C 565.67 248.00, 563.33 248.00, 561.00 248.00 Z" fill="rgb(82.93574297188755,141.93574297188755,201.93574297188755)" stroke="rgb(82.93574297188755,141.93574297188755,201.93574297188755)" stroke-width="1" />
<path d="M 8.00 79.00 C 5.52 79.82, 5.93 81.55, 6.00 84.00 C 6.00 87.33, 6.00 89.67, 6.00 92.00 C 6.00 95.33, 6.00 97.67, 6.00 100.00 C 5.82 104.27, 10.03 102.60, 12.00 103.00 C 16.36 104.03, 14.56 99.89, 15.00 98.00 C 15.00 94.67, 15.00 92.33, 15.00 90.00 C 15.00 86.67, 15.00 84.33, 15.00 82.00 C 15.32 78.13, 10.18 78.39, 9.00 80.00 Z" fill="rgb(79.93775933609959,134.9377593360996,198.9377593360996)" stroke="rgb(79.93775933609959,134.9377593360996,198.9377593360996)" stroke-width="1" />
<path d="M 0.00 368.00 C 0.00 372.33, 0.00 376.67, 0.00 381.00 C 1.32 383.98, 4.03 382.58, 6.00 383.00 C 9.47 383.79, 10.69 381.58, 13.00 382.00 C 14.73 380.17, 15.37 378.29, 15.00 376.00 C 15.37 372.71, 14.73 370.83, 14.00 369.00 C 9.67 368.00, 5.33 368.00, 1.00 368.00 Z" fill="rgb(87.82905982905983,143.82905982905982,204.82905982905982)" stroke="rgb(87.82905982905983,143.82905982905982,204.82905982905982)" stroke-width="1" />
<path d="M 451.00 256.00 C 447.33 257.76, 448.04 262.87, 448.00 267.00 C 449.46 269.84, 448.70 271.92, 452.00 271.00 C 455.00 271.00, 457.00 271.00, 459.00 271.00 C 462.76 271.87, 463.46 269.14, 463.00 267.00 C 463.00 264.00, 463.00 262.00, 463.00 260.00 C 463.87 256.24, 461.14 255.54, 459.00 256.00 C 456.00 256.00, 454.00 256.00, 452.00 256.00 Z" fill="rgb(84.98406374501992,143.9840637450199,202.0796812749004)" stroke="rgb(84.98406374501992,143.9840637450199,202.0796812749004)" stroke-width="1" />
<path d="M 580.00 328.00 C 579.05 329.96, 575.92 327.90, 577.00 331.00 C 576.00 334.00, 576.00 336.00, 576.00 338.00 C 575.54 341.14, 576.24 343.87, 579.00 343.00 C 582.00 343.00, 584.00 343.00, 586.00 343.00 C 589.14 343.46, 591.87 342.76, 591.00 340.00 C 591.00 337.00, 591.00 335.00, 591.00 333.00 C 592.18 326.33, 584.71 328.36, 581.00 328.00 Z" fill="rgb(88.0,144.0,203.0)" stroke="rgb(88.0,144.0,203.0)" stroke-width="1" />
<path d="M 560.00 264.00 C 560.58 268.23, 558.78 273.45, 561.00 277.00 C 562.72 278.38, 565.43 280.35, 567.00 278.00 C 570.51 278.41, 571.11 278.32, 574.00 278.00 C 575.00 272.67, 575.00 268.33, 575.00 264.00 C 569.67 264.00, 565.33 264.00, 561.00 264.00 Z" fill="rgb(84.0,142.96341463414635,202.97560975609755)" stroke="rgb(84.0,142.96341463414635,202.97560975609755)" stroke-width="1" />
<path d="M 0.00 288.00 C 0.00 292.33, 0.00 296.67, 0.00 301.00 C -0.17 304.17, 3.55 302.45, 5.00 303.00 C 8.00 303.00, 10.00 303.00, 12.00 303.00 C 16.85 299.99, 14.24 294.29, 15.00 290.00 C 9.21 289.78, 5.64 287.58, 1.00 288.00 Z" fill="rgb(83.9872340425532,142.98723404255318,202.98723404255318)" stroke="rgb(83.9872340425532,142.98723404255318,202.98723404255318)" stroke-width="1" />
<path d="M 98.00 192.00 C 94.13 193.56, 96.77 199.30, 96.00 203.00 C 96.17 206.40, 97.50 207.58, 100.00 207.00 C 103.00 207.00, 105.00 207.00, 107.00 207.00 C 110.80 207.88, 109.95 204.51, 111.00 203.00 C 111.00 200.00, 111.00 198.00, 111.00 196.00 C 110.38 191.87, 107.68 194.06, 106.00 192.00 C 103.00 192.00, 101.00 192.00, 99.00 192.00 Z" fill="rgb(82.02024291497976,142.02024291497975,202.1012145748988)" stroke="rgb(82.02024291497976,142.02024291497975,202.1012145748988)" stroke-width="1" />
<path d="M 33.00 352.00 C 30.91 353.94, 32.49 357.40, 32.00 360.00 C 32.00 363.67, 32.00 366.33, 32.00 369.00 C 32.49 372.60, 30.91 376.06, 33.00 378.00 C 31.73 382.93, 35.36 381.97, 38.00 382.00 C 39.00 376.33, 39.00 370.67, 39.00 365.00 C 39.00 361.33, 39.00 358.67, 39.00 356.00 C 40.27 351.07, 36.64 352.03, 34.00 352.00 Z" fill="rgb(86.97177419354838,145.97177419354838,205.09274193548387)" stroke="rgb(86.97177419354838,145.97177419354838,205.09274193548387)" stroke-width="1" />
<path d="M 497.00 112.00 C 494.80 115.23, 496.57 120.10, 496.00 124.00 C 495.62 127.95, 499.29 126.79, 501.00 127.00 C 504.00 127.00, 506.00 127.00, 508.00 127.00 C 511.95 127.38, 510.79 123.71, 511.00 122.00 C 510.41 118.49, 510.32 117.89, 510.00 115.00 C 509.30 110.53, 507.51 113.21, 505.00 113.00 C 502.68 111.02, 499.97 112.42, 498.00 112.00 Z" fill="rgb(77.7603305785124,137.7603305785124,197.8181818181818)" stroke="rgb(77.7603305785124,137.7603305785124,197.8181818181818)" stroke-width="1" />
<path d="M 161.00 367.00 C 157.07 370.31, 159.82 376.40, 159.00 381.00 C 159.42 383.97, 158.02 386.68, 160.00 388.00 C 159.02 392.41, 162.75 392.20, 165.00 392.00 C 167.39 391.72, 167.89 388.78, 168.00 387.00 C 168.00 383.67, 168.00 381.33, 168.00 379.00 C 168.00 375.67, 168.00 373.33, 168.00 371.00 C 168.05 366.76, 163.56 368.63, 162.00 367.00 Z" fill="rgb(88.88524590163935,148.05737704918033,205.97131147540983)" stroke="rgb(88.88524590163935,148.05737704918033,205.97131147540983)" stroke-width="1" />
<path d="M 209.00 368.00 C 209.76 372.45, 207.43 375.63, 208.00 380.00 C 207.62 383.95, 211.29 382.79, 213.00 383.00 C 216.00 383.00, 218.00 383.00, 220.00 383.00 C 223.95 383.38, 222.79 379.71, 223.00 378.00 C 223.42 374.69, 221.21 373.47, 222.00 371.00 C 222.38 367.05, 218.71 368.21, 217.00 368.00 C 214.03 368.42, 211.32 367.02, 210.00 369.00 Z" fill="rgb(88.99159663865547,148.01680672268907,206.00420168067228)" stroke="rgb(88.99159663865547,148.01680672268907,206.00420168067228)" stroke-width="1" />
<path d="M 419.00 288.00 C 417.93 289.50, 416.69 290.93, 417.00 293.00 C 415.02 295.32, 416.42 298.03, 416.00 300.00 C 415.62 303.95, 419.29 302.79, 421.00 303.00 C 424.00 303.00, 426.00 303.00, 428.00 303.00 C 430.44 303.06, 431.22 300.61, 431.00 299.00 C 430.58 296.03, 431.98 293.32, 430.00 292.00 C 431.79 288.45, 429.69 287.53, 427.00 288.00 C 424.00 288.00, 422.00 288.00, 420.00 288.00 Z" fill="rgb(86.0,145.01680672268907,203.05882352941177)" stroke="rgb(86.0,145.01680672268907,203.05882352941177)" stroke-width="1" />
<path d="M 318.00 82.00 C 318.09 84.24, 318.84 86.20, 320.00 88.00 C 319.58 91.31, 321.79 92.53, 321.00 95.00 C 323.51 97.24, 320.49 100.76, 323.00 102.00 C 326.47 101.21, 327.69 103.42, 330.00 103.00 C 333.85 101.20, 330.25 99.24, 331.00 97.00 C 330.50 93.93, 329.50 92.07, 329.00 90.00 C 327.68 87.13, 326.60 85.17, 326.00 83.00 C 323.68 81.02, 320.97 82.42, 319.00 82.00 Z" fill="rgb(171.4,30.12857142857143,34.304761904761904)" stroke="rgb(171.4,30.12857142857143,34.304761904761904)" stroke-width="1" />
<path d="M 256.00 82.00 C 254.28 83.67, 251.57 82.97, 250.00 85.00 C 246.22 87.87, 245.78 90.71, 244.00 93.00 C 241.93 95.89, 240.60 98.09, 241.00 101.00 C 241.26 104.20, 237.06 107.48, 240.00 108.00 C 243.24 107.91, 245.20 107.16, 247.00 106.00 C 248.96 103.20, 247.32 99.92, 249.00 98.00 C 249.96 94.65, 250.15 91.98, 252.00 90.00 C 253.40 86.56, 255.60 84.44, 257.00 82.00 Z" fill="rgb(5.2615384615384615,12.164102564102564,15.174358974358974)" stroke="rgb(5.2615384615384615,12.164102564102564,15.174358974358974)" stroke-width="1" />
<path d="M 97.00 160.00 C 95.11 161.02, 96.36 163.34, 96.00 165.00 C 97.32 167.98, 100.03 166.58, 102.00 167.00 C 103.00 170.00, 103.00 172.00, 103.00 174.00 C 106.00 175.00, 108.00 175.00, 110.00 175.00 C 111.00 170.00, 111.00 166.00, 111.00 162.00 C 110.17 158.83, 106.45 160.55, 105.00 160.00 C 102.00 160.00, 100.00 160.00, 98.00 160.00 Z" fill="rgb(81.02604166666667,141.02604166666666,201.13020833333334)" stroke="rgb(81.02604166666667,141.02604166666666,201.13020833333334)" stroke-width="1" />
<path d="M 283.00 257.00 C 282.33 259.28, 279.67 256.72, 279.00 259.00 C 276.59 260.61, 274.41 260.39, 273.00 262.00 C 269.36 266.07, 271.75 270.85, 275.00 272.00 C 278.68 269.43, 282.22 267.93, 286.00 267.00 C 289.51 264.62, 287.02 262.60, 287.00 261.00 C 287.64 257.97, 286.03 256.36, 284.00 257.00 Z" fill="rgb(83.71649484536083,41.597938144329895,6.0)" stroke="rgb(83.71649484536083,41.597938144329895,6.0)" stroke-width="1" />
<path d="M 447.00 64.00 C 445.88 65.33, 442.99 67.67, 445.00 69.00 C 444.00 71.67, 444.00 73.33, 444.00 75.00 C 443.94 77.73, 443.50 79.84, 446.00 79.00 C 448.02 80.89, 450.34 79.64, 452.00 80.00 C 456.91 79.11, 454.19 73.13, 455.00 70.00 C 455.00 67.33, 455.00 65.67, 455.00 64.00 C 452.00 64.00, 450.00 64.00, 448.00 64.00 Z" fill="rgb(77.9639175257732,136.01546391752578,198.98969072164948)" stroke="rgb(77.9639175257732,136.01546391752578,198.98969072164948)" stroke-width="1" />
<path d="M 5.00 240.00 C 5.00 243.33, 5.00 246.67, 5.00 250.00 C 5.16 252.15, 5.76 254.24, 7.00 254.00 C 10.05 255.59, 11.31 254.29, 13.00 254.00 C 16.16 251.42, 14.46 247.25, 15.00 244.00 C 15.65 237.98, 9.00 240.67, 6.00 240.00 Z" fill="rgb(82.14634146341463,141.1219512195122,201.1951219512195)" stroke="rgb(82.14634146341463,141.1219512195122,201.1951219512195)" stroke-width="1" />
<path d="M 560.00 320.00 C 560.50 322.77, 558.26 328.81, 563.00 328.00 C 567.33 328.00, 570.67 328.00, 574.00 328.00 C 574.18 325.49, 576.94 319.39, 573.00 320.00 C 568.33 320.00, 564.67 320.00, 561.00 320.00 Z" fill="rgb(87.93243243243244,143.93243243243242,202.93243243243242)" stroke="rgb(87.93243243243244,143.93243243243242,202.93243243243242)" stroke-width="1" />
<path d="M 10.00 1.00 C 6.22 1.95, 6.95 5.69, 7.00 9.00 C 6.39 13.60, 8.30 16.01, 12.00 15.00 C 16.80 15.80, 14.27 10.27, 15.00 8.00 C 15.38 3.93, 15.30 -0.31, 11.00 1.00 Z" fill="rgb(72.88636363636364,130.88636363636363,193.88636363636363)" stroke="rgb(72.88636363636364,130.88636363636363,193.88636363636363)" stroke-width="1" />
<path d="M 104.00 240.00 C 104.51 242.82, 102.21 248.45, 107.00 247.00 C 111.33 247.00, 114.67 247.00, 118.00 247.00 C 118.49 244.18, 120.79 238.55, 116.00 240.00 C 111.67 240.00, 108.33 240.00, 105.00 240.00 Z" fill="rgb(83.03076923076924,143.03076923076924,203.07692307692307)" stroke="rgb(83.03076923076924,143.03076923076924,203.07692307692307)" stroke-width="1" />
<path d="M 80.00 80.00 C 80.00 83.33, 80.00 86.67, 80.00 90.00 C 80.00 92.33, 80.00 93.67, 80.00 95.00 C 82.67 95.00, 84.33 95.00, 86.00 95.00 C 87.00 91.67, 87.00 88.33, 87.00 85.00 C 87.00 82.67, 87.00 81.33, 87.00 80.00 C 84.33 80.00, 82.67 80.00, 81.00 80.00 Z" fill="rgb(81.01574803149606,139.01574803149606,202.01574803149606)" stroke="rgb(81.01574803149606,139.01574803149606,202.01574803149606)" stroke-width="1" />
<path d="M 520.00 336.00 C 520.73 338.27, 518.20 343.80, 522.00 343.00 C 525.16 343.74, 529.61 342.50, 533.00 343.00 C 535.76 341.26, 536.00 334.86, 532.00 336.00 C 527.67 336.00, 524.33 336.00, 521.00 336.00 Z" fill="rgb(88.96638655462185,144.96638655462183,203.96638655462183)" stroke="rgb(88.96638655462185,144.96638655462183,203.96638655462183)" stroke-width="1" />
<path d="M 193.00 304.00 C 191.67 305.46, 190.63 311.96, 194.00 311.00 C 198.33 311.00, 201.67 311.00, 205.00 311.00 C 208.01 311.67, 206.56 308.90, 207.00 308.00 C 207.30 305.69, 206.88 303.43, 205.00 304.00 C 200.67 304.00, 197.33 304.00, 194.00 304.00 Z" fill="rgb(86.95348837209302,146.95348837209303,206.95348837209303)" stroke="rgb(86.95348837209302,146.95348837209303,206.95348837209303)" stroke-width="1" />
<path d="M 114.00 208.00 C 110.94 209.28, 111.56 214.60, 114.00 215.00 C 118.00 215.00, 121.00 215.00, 124.00 215.00 C 126.88 215.57, 127.30 213.31, 127.00 212.00 C 127.68 208.68, 126.11 209.40, 125.00 208.00 C 121.00 208.00, 118.00 208.00, 115.00 208.00 Z" fill="rgb(82.01639344262296,142.01639344262296,202.01639344262296)" stroke="rgb(82.01639344262296,142.01639344262296,202.01639344262296)" stroke-width="1" />
<path d="M 449.00 289.00 C 447.05 290.56, 447.37 296.21, 451.00 295.00 C 455.00 295.00, 458.00 295.00, 461.00 295.00 C 463.95 293.44, 463.63 287.79, 460.00 289.00 C 456.00 289.00, 453.00 289.00, 450.00 289.00 Z" fill="rgb(85.0,144.0,202.03669724770643)" stroke="rgb(85.0,144.0,202.03669724770643)" stroke-width="1" />
<path d="M 560.00 16.00 C 560.00 18.33, 560.00 20.67, 560.00 23.00 C 558.97 27.36, 563.11 25.56, 565.00 26.00 C 567.81 24.14, 568.30 21.73, 568.00 19.00 C 567.94 14.50, 563.24 16.54, 561.00 16.00 Z" fill="rgb(73.07777777777778,133.07777777777778,195.07777777777778)" stroke="rgb(73.07777777777778,133.07777777777778,195.07777777777778)" stroke-width="1" />
<path d="M 473.00 383.00 C 471.02 384.32, 472.42 387.03, 472.00 389.00 C 471.07 392.51, 475.52 394.27, 477.00 392.00 C 480.17 392.17, 478.45 388.45, 479.00 387.00 C 479.98 382.59, 476.25 382.80, 474.00 383.00 Z" fill="rgb(90.8452380952381,146.8452380952381,205.8452380952381)" stroke="rgb(90.8452380952381,146.8452380952381,205.8452380952381)" stroke-width="1" />
<path d="M 120.00 72.00 C 120.00 74.00, 120.00 76.00, 120.00 78.00 C 122.00 79.00, 124.00 79.00, 126.00 79.00 C 127.00 77.00, 127.00 75.00, 127.00 73.00 C 125.00 72.00, 123.00 72.00, 121.00 72.00 Z" fill="rgb(81.859375,139.859375,202.859375)" stroke="rgb(81.859375,139.859375,202.859375)" stroke-width="1" />
<path d="M 80.00 304.00 C 80.00 306.00, 80.00 308.00, 80.00 310.00 C 82.00 311.00, 84.00 311.00, 86.00 311.00 C 87.00 309.00, 87.00 307.00, 87.00 305.00 C 85.00 304.00, 83.00 304.00, 81.00 304.00 Z" fill="rgb(85.0625,145.0,205.0)" stroke="rgb(85.0625,145.0,205.0)" stroke-width="1" />
<path d="M 536.00 336.00 C 536.00 338.00, 536.00 340.00, 536.00 342.00 C 538.00 343.00, 540.00 343.00, 542.00 343.00 C 543.00 341.00, 543.00 339.00, 543.00 337.00 C 541.00 336.00, 539.00 336.00, 537.00 336.00 Z" fill="rgb(88.07575757575758,144.07575757575756,203.07575757575756)" stroke="rgb(88.07575757575758,144.07575757575756,203.07575757575756)" stroke-width="1" />
<path d="M 376.00 352.00 C 376.00 353.67, 376.00 355.33, 376.00 357.00 C 375.83 360.17, 379.55 358.45, 381.00 359.00 C 384.17 359.17, 382.45 355.45, 383.00 354.00 C 381.68 351.02, 378.97 352.42, 377.00 352.00 Z" fill="rgb(89.0,148.0,206.0)" stroke="rgb(89.0,148.0,206.0)" stroke-width="1" />
<path d="M 121.00 304.00 C 119.11 305.02, 120.36 307.34, 120.00 309.00 C 119.83 312.17, 123.55 310.45, 125.00 311.00 C 128.11 311.44, 126.50 308.16, 127.00 307.00 C 127.38 303.05, 123.71 304.21, 122.00 304.00 Z" fill="rgb(86.015625,145.046875,205.046875)" stroke="rgb(86.015625,145.046875,205.046875)" stroke-width="1" />
<path d="M 96.00 168.00 C 96.00 169.67, 96.00 171.33, 96.00 173.00 C 97.32 175.98, 100.03 174.58, 102.00 175.00 C 103.00 173.33, 103.00 171.67, 103.00 170.00 C 101.68 167.02, 98.97 168.42, 97.00 168.00 Z" fill="rgb(81.96491228070175,141.96491228070175,201.96491228070175)" stroke="rgb(81.96491228070175,141.96491228070175,201.96491228070175)" stroke-width="1" />
<path d="M 266.00 252.00 C 264.57 254.10, 261.26 255.42, 261.00 258.00 C 261.00 261.33, 261.00 263.67, 261.00 266.00 C 263.60 266.76, 263.55 263.08, 264.00 261.00 C 263.35 256.99, 267.15 255.81, 267.00 253.00 Z" fill="rgb(80.07142857142857,37.910714285714285,39.5)" stroke="rgb(80.07142857142857,37.910714285714285,39.5)" stroke-width="1" />
<path d="M 96.00 257.00 C 96.00 258.67, 96.00 260.33, 96.00 262.00 C 98.00 263.00, 100.00 263.00, 102.00 263.00 C 103.00 261.33, 103.00 259.67, 103.00 258.00 C 101.00 257.00, 99.00 257.00, 97.00 257.00 Z" fill="rgb(84.26923076923077,144.26923076923077,204.26923076923077)" stroke="rgb(84.26923076923077,144.26923076923077,204.26923076923077)" stroke-width="1" />
<path d="M 520.00 208.00 C 520.00 209.67, 520.00 211.33, 520.00 213.00 C 522.67 213.00, 524.33 213.00, 526.00 213.00 C 527.00 211.33, 527.00 209.67, 527.00 208.00 C 524.33 208.00, 522.67 208.00, 521.00 208.00 Z" fill="rgb(80.55319148936171,139.5531914893617,199.5531914893617)" stroke="rgb(80.55319148936171,139.5531914893617,199.5531914893617)" stroke-width="1" />
<path d="M 562.00 376.00 C 562.73 378.27, 560.20 383.80, 564.00 383.00 C 564.27 380.73, 566.80 375.20, 563.00 376.00 Z" fill="rgb(90.12903225806451,144.1290322580645,204.1290322580645)" stroke="rgb(90.12903225806451,144.1290322580645,204.1290322580645)" stroke-width="1" />
</svg>