<svg xmlns="http://www.w3.org/2000/svg" width="640" height="427" viewbox="0 0 640 427">
<path d="M 0.50 0.50 C 0.50 88.83, 0.50 177.17, 0.50 265.50 C 0.50 310.50, 0.50 354.50, 0.50 398.50 C 2.92 407.74, -4.89 426.22, 5.50 426.50 C 11.50 426.50, 16.50 426.50, 21.50 426.50 C 27.83 426.50, 33.17 426.50, 38.50 426.50 C 44.50 426.50, 49.50 426.50, 54.50 426.50 C 60.83 426.50, 66.17 426.50, 71.50 426.50 C 77.83 426.50, 83.17 426.50, 88.50 426.50 C 94.83 426.50, 100.17 426.50, 105.50 426.50 C 111.50 426.50, 116.50 426.50, 121.50 426.50 C 127.83 426.50, 133.17 426.50, 138.50 426.50 C 144.50 426.50, 149.50 426.50, 154.50 426.50 C 160.83 426.50, 166.17 426.50, 171.50 426.50 C 177.50 426.50, 182.50 426.50, 187.50 426.50 C 193.83 426.50, 199.17 426.50, 204.50 426.50 C 210.83 426.50, 216.17 426.50, 221.50 426.50 C 227.83 426.50, 233.17 426.50, 238.50 426.50 C 244.50 426.50, 249.50 426.50, 254.50 426.50 C 260.83 426.50, 266.17 426.50, 271.50 426.50 C 277.50 426.50, 282.50 426.50, 287.50 426.50 C 293.83 426.50, 299.17 426.50, 304.50 426.50 C 310.50 426.50, 315.50 426.50, 320.50 426.50 C 326.83 426.50, 332.17 426.50, 337.50 426.50 C 343.83 426.50, 349.17 426.50, 354.50 426.50 C 360.83 426.50, 366.17 426.50, 371.50 426.50 C 377.50 426.50, 382.50 426.50, 387.50 426.50 C 393.83 426.50, 399.17 426.50, 404.50 426.50 C 410.50 426.50, 415.50 426.50, 420.50 426.50 C 426.83 426.50, 432.17 426.50, 437.50 426.50 C 443.50 426.50, 448.50 426.50, 453.50 426.50 C 459.83 426.50, 465.17 426.50, 470.50 426.50 C 476.83 426.50, 482.17 426.50, 487.50 426.50 C 493.83 426.50, 499.17 426.50, 504.50 426.50 C 510.50 426.50, 515.50 426.50, 520.50 426.50 C 526.83 426.50, 532.17 426.50, 537.50 426.50 C 543.83 426.50, 549.17 426.50, 554.50 426.50 C 560.83 426.50, 566.17 426.50, 571.50 426.50 C 577.50 426.50, 582.50 426.50, 587.50 426.50 C 593.83 426.50, 599.17 426.50, 604.50 426.50 C 610.83 426.50, 616.17 426.50, 621.50 426.50 C 627.83 426.50, 633.17 426.50, 638.50 426.50 C 639.50 338.17, 639.50 249.83, 639.50 161.50 C 639.50 116.50, 639.50 72.50, 639.50 28.50 C 637.08 19.26, 644.89 0.78, 634.50 0.50 C 628.50 0.50, 623.50 0.50, 618.50 0.50 C 612.17 0.50, 606.83 0.50, 601.50 0.50 C 595.50 0.50, 590.50 0.50, 585.50 0.50 C 579.17 0.50, 573.83 0.50, 568.50 0.50 C 562.17 0.50, 556.83 0.50, 551.50 0.50 C 545.17 0.50, 539.83 0.50, 534.50 0.50 C 528.50 0.50, 523.50 0.50, 518.50 0.50 C 512.17 0.50, 506.83 0.50, 501.50 0.50 C 495.50 0.50, 490.50 0.50, 485.50 0.50 C 479.17 0.50, 473.83 0.50, 468.50 0.50 C 462.50 0.50, 457.50 0.50, 452.50 0.50 C 446.17 0.50, 440.83 0.50, 435.50 0.50 C 429.17 0.50, 423.83 0.50, 418.50 0.50 C 412.17 0.50, 406.83 0.50, 401.50 0.50 C 395.50 0.50, 390.50 0.50, 385.50 0.50 C 379.17 0.50, 373.83 0.50, 368.50 0.50 C 362.50 0.50, 357.50 0.50, 352.50 0.50 C 346.17 0.50, 340.83 0.50, 335.50 0.50 C 329.50 0.50, 324.50 0.50, 319.50 0.50 C 313.17 0.50, 307.83 0.50, 302.50 0.50 C 296.17 0.50, 290.83 0.50, 285.50 0.50 C 279.17 0.50, 273.83 0.50, 268.50 0.50 C 262.50 0.50, 257.50 0.50, 252.50 0.50 C 246.17 0.50, 240.83 0.50, 235.50 0.50 C 229.50 0.50, 224.50 0.50, 219.50 0.50 C 213.17 0.50, 207.83 0.50, 202.50 0.50 C 196.50 0.50, 191.50 0.50, 186.50 0.50 C 180.17 0.50, 174.83 0.50, 169.50 0.50 C 163.17 0.50, 157.83 0.50, 152.50 0.50 C 146.17 0.50, 140.83 0.50, 135.50 0.50 C 129.50 0.50, 124.50 0.50, 119.50 0.50 C 113.17 0.50, 107.83 0.50, 102.50 0.50 C 96.17 0.50, 90.83 0.50, 85.50 0.50 C 79.17 0.50, 73.83 0.50, 68.50 0.50 C 62.50 0.50, 57.50 0.50, 52.50 0.50 C 46.17 0.50, 40.83 0.50, 35.50 0.50 C 29.17 0.50, 23.83 0.50, 18.50 0.50 C 12.17 0.50, 6.83 0.50, 1.50 0.50 Z" fill="rgb(126.12429171997806,178.89892158654726,153.20562968378724)" stroke="rgb(126.12429171997806,178.89892158654726,153.20562968378724)" stroke-width="1" />
<path d="M 5.50 2.50 C 1.28 3.37, -0.58 4.29, 0.50 9.50 C 0.50 14.17, 0.50 17.83, 0.50 21.50 C 0.50 26.17, 0.50 29.83, 0.50 33.50 C 0.50 38.17, 0.50 41.83, 0.50 45.50 C 0.50 50.17, 0.50 53.83, 0.50 57.50 C 0.50 62.17, 0.50 65.83, 0.50 69.50 C 0.50 74.17, 0.50 77.83, 0.50 81.50 C 0.50 86.50, 0.50 90.50, 0.50 94.50 C 0.50 99.17, 0.50 102.83, 0.50 106.50 C 0.50 111.17, 0.50 114.83, 0.50 118.50 C 0.50 123.17, 0.50 126.83, 0.50 130.50 C 0.50 135.50, 0.50 139.50, 0.50 143.50 C 0.50 148.17, 0.50 151.83, 0.50 155.50 C 0.50 160.17, 0.50 163.83, 0.50 167.50 C 0.50 172.17, 0.50 175.83, 0.50 179.50 C 0.50 184.50, 0.50 188.50, 0.50 192.50 C 0.50 197.17, 0.50 200.83, 0.50 204.50 C 0.50 209.17, 0.50 212.83, 0.50 216.50 C 0.50 221.17, 0.50 224.83, 0.50 228.50 C 0.50 233.17, 0.50 236.83, 0.50 240.50 C 0.50 245.17, 0.50 248.83, 0.50 252.50 C 0.50 257.17, 0.50 260.83, 0.50 264.50 C 0.50 269.17, 0.50 272.83, 0.50 276.50 C 0.50 281.50, 0.50 285.50, 0.50 289.50 C -0.91 297.05, 3.66 291.74, 7.50 292.50 C 12.48 292.40, 16.30 293.69, 19.50 296.50 C 21.75 300.65, 22.86 304.27, 22.50 308.50 C 21.85 314.13, 23.93 317.61, 22.50 321.50 C 22.50 326.17, 22.50 329.83, 22.50 333.50 C 22.50 338.17, 22.50 341.83, 22.50 345.50 C 22.50 350.17, 22.50 353.83, 22.50 357.50 C 26.78 359.71, 32.27 360.43, 35.50 358.50 C 36.13 355.07, 35.07 350.18, 35.50 346.50 C 35.50 341.83, 35.50 338.17, 35.50 334.50 C 35.50 329.83, 35.50 326.17, 35.50 322.50 C 35.50 317.83, 35.50 314.17, 35.50 310.50 C 34.90 305.12, 38.89 301.15, 42.50 299.50 C 46.96 294.99, 50.72 292.23, 54.50 289.50 C 59.53 286.70, 62.33 281.96, 66.50 280.50 C 71.49 283.20, 75.55 285.71, 79.50 288.50 C 84.40 291.27, 87.81 294.23, 91.50 296.50 C 96.16 299.72, 99.78 301.78, 102.50 304.50 C 106.01 308.00, 112.49 309.11, 111.50 314.50 C 110.68 319.88, 114.12 323.64, 111.50 327.50 C 113.06 332.07, 111.32 336.60, 113.50 339.50 C 114.50 344.17, 114.50 347.83, 114.50 351.50 C 113.85 357.03, 114.71 360.65, 119.50 358.50 C 119.76 354.05, 121.66 350.70, 121.50 346.50 C 121.50 341.83, 121.50 338.17, 121.50 334.50 C 121.50 329.83, 121.50 326.17, 121.50 322.50 C 121.50 317.83, 121.50 314.17, 121.50 310.50 C 121.50 305.83, 121.50 302.17, 121.50 298.50 C 121.50 293.83, 121.50 290.17, 121.50 286.50 C 121.50 281.83, 121.50 278.17, 121.50 274.50 C 123.05 268.26, 118.04 267.21, 114.50 266.50 C 109.27 265.05, 104.94 263.85, 101.50 260.50 C 96.53 256.10, 93.84 252.16, 90.50 248.50 C 89.99 243.63, 87.62 240.53, 87.50 236.50 C 87.72 231.79, 86.80 227.60, 88.50 224.50 C 89.18 219.09, 91.52 215.37, 93.50 211.50 C 97.90 206.87, 101.37 203.38, 105.50 201.50 C 110.04 199.20, 113.96 198.80, 117.50 197.50 C 121.42 195.54, 126.52 196.36, 129.50 197.50 C 134.91 199.19, 139.26 199.99, 142.50 203.50 C 147.44 206.06, 149.97 209.65, 152.50 213.50 C 155.50 217.89, 156.39 221.74, 157.50 225.50 C 159.20 229.60, 158.28 233.79, 158.50 237.50 C 155.75 245.66, 160.23 241.24, 163.50 238.50 C 167.44 234.08, 171.67 233.77, 175.50 232.50 C 179.77 229.72, 183.92 232.76, 187.50 232.50 C 192.42 234.89, 196.71 235.37, 199.50 239.50 C 204.90 243.64, 205.67 248.29, 207.50 252.50 C 207.24 257.08, 210.28 261.23, 207.50 264.50 C 205.86 269.18, 205.90 273.55, 202.50 276.50 C 199.15 280.25, 196.02 284.88, 191.50 284.50 C 186.86 288.44, 181.04 284.44, 180.50 289.50 C 181.19 294.59, 178.81 297.41, 179.50 301.50 C 179.73 306.40, 179.47 310.10, 178.50 313.50 C 179.94 317.22, 177.58 321.65, 178.50 325.50 C 178.63 330.69, 178.64 334.83, 177.50 338.50 C 177.51 342.83, 176.36 346.15, 176.50 350.50 C 176.40 355.54, 175.56 359.64, 180.50 359.50 C 185.17 359.50, 188.83 359.50, 192.50 359.50 C 197.17 359.50, 200.83 359.50, 204.50 359.50 C 209.17 359.50, 212.83 359.50, 216.50 359.50 C 221.41 358.61, 218.69 352.63, 219.50 349.50 C 219.50 344.83, 219.50 341.17, 219.50 337.50 C 219.50 332.50, 219.50 328.50, 219.50 324.50 C 219.50 319.83, 219.50 316.17, 219.50 312.50 C 217.98 306.15, 222.33 304.53, 225.50 301.50 C 230.74 299.23, 233.89 295.31, 237.50 292.50 C 242.31 289.04, 246.21 285.80, 250.50 283.50 C 254.99 281.36, 258.36 274.78, 262.50 278.50 C 267.07 281.08, 270.84 283.15, 274.50 285.50 C 278.76 289.14, 283.21 289.93, 286.50 293.50 C 291.77 295.51, 295.23 299.49, 299.50 301.50 C 304.68 303.25, 307.94 307.53, 308.50 311.50 C 308.50 316.17, 308.50 319.83, 308.50 323.50 C 308.50 328.17, 308.50 331.83, 308.50 335.50 C 308.50 340.17, 308.50 343.83, 308.50 347.50 C 309.06 352.07, 307.32 356.60, 309.50 359.50 C 314.17 359.50, 317.83 359.50, 321.50 359.50 C 326.17 359.50, 329.83 359.50, 333.50 359.50 C 338.50 359.50, 342.50 359.50, 346.50 359.50 C 350.85 359.50, 356.77 360.37, 355.50 355.50 C 355.08 350.21, 356.35 346.98, 355.50 343.50 C 355.50 338.83, 355.50 335.17, 355.50 331.50 C 355.50 326.50, 355.50 322.50, 355.50 318.50 C 355.27 313.60, 355.53 309.90, 356.50 306.50 C 359.90 302.18, 363.72 299.89, 367.50 297.50 C 372.08 293.30, 376.30 291.63, 379.50 287.50 C 384.54 284.93, 387.79 280.45, 392.50 279.50 C 397.82 279.92, 401.12 282.82, 404.50 285.50 C 408.88 288.86, 412.98 290.49, 416.50 293.50 C 421.13 296.25, 424.95 298.54, 428.50 301.50 C 433.07 303.61, 438.98 307.88, 435.50 312.50 C 435.50 317.17, 435.50 320.83, 435.50 324.50 C 435.50 329.17, 435.50 332.83, 435.50 336.50 C 435.50 341.17, 435.50 344.83, 435.50 348.50 C 435.61 353.18, 434.79 359.61, 439.50 359.50 C 444.05 359.36, 449.18 359.69, 450.50 356.50 C 450.50 351.83, 450.50 348.17, 450.50 344.50 C 450.50 339.83, 450.50 336.17, 450.50 332.50 C 450.50 327.50, 450.50 323.50, 450.50 319.50 C 450.50 314.83, 450.50 311.17, 450.50 307.50 C 451.37 302.23, 453.43 298.45, 457.50 295.50 C 462.00 292.09, 465.89 289.64, 469.50 286.50 C 474.83 283.64, 478.33 279.75, 482.50 277.50 C 487.35 274.61, 490.35 270.66, 494.50 269.50 C 498.80 263.46, 503.11 266.84, 506.50 269.50 C 511.43 272.19, 514.90 275.01, 518.50 277.50 C 523.54 279.93, 527.00 282.77, 530.50 285.50 C 534.53 289.70, 539.47 289.30, 542.50 293.50 C 546.20 297.38, 551.94 297.62, 552.50 302.50 C 552.50 307.17, 552.50 310.83, 552.50 314.50 C 552.50 319.50, 552.50 323.50, 552.50 327.50 C 552.50 332.17, 552.50 335.83, 552.50 339.50 C 552.50 344.17, 552.50 347.83, 552.50 351.50 C 551.94 356.41, 552.32 361.08, 557.50 359.50 C 562.75 359.97, 567.37 358.74, 570.50 359.50 C 574.55 358.95, 580.46 359.81, 580.50 356.50 C 580.00 351.21, 580.99 347.54, 583.50 344.50 C 586.25 340.34, 583.05 335.23, 584.50 332.50 C 584.37 327.31, 584.36 323.17, 585.50 319.50 C 584.72 314.37, 586.85 311.45, 586.50 307.50 C 586.50 302.83, 586.50 299.17, 586.50 295.50 C 586.15 290.55, 588.28 287.63, 587.50 283.50 C 587.50 278.83, 587.50 275.17, 587.50 271.50 C 584.82 268.29, 579.21 269.59, 576.50 267.50 C 571.70 265.82, 567.74 264.53, 564.50 261.50 C 559.91 257.22, 557.50 253.44, 555.50 249.50 C 553.25 244.61, 552.90 240.34, 551.50 236.50 C 550.72 231.37, 552.85 228.45, 552.50 224.50 C 554.60 220.01, 554.71 215.70, 557.50 212.50 C 561.72 208.03, 564.20 204.54, 568.50 202.50 C 573.45 200.04, 577.02 197.69, 581.50 197.50 C 585.30 195.88, 590.70 195.88, 593.50 197.50 C 598.26 198.61, 602.11 199.50, 605.50 201.50 C 611.04 204.20, 612.85 208.17, 616.50 211.50 C 619.05 216.55, 622.85 219.67, 622.50 224.50 C 624.20 228.60, 623.28 232.79, 623.50 236.50 C 622.62 241.22, 621.13 244.68, 620.50 248.50 C 618.11 253.70, 614.74 257.07, 611.50 260.50 C 607.14 264.23, 603.28 265.77, 599.50 267.50 C 593.48 267.85, 596.17 274.50, 595.50 277.50 C 593.59 282.12, 595.21 285.09, 594.50 289.50 C 594.50 294.17, 594.50 297.83, 594.50 301.50 C 593.36 306.17, 593.37 310.31, 593.50 314.50 C 591.32 318.40, 593.06 322.93, 592.50 326.50 C 590.10 330.61, 592.05 335.24, 592.50 338.50 C 596.18 342.47, 597.19 346.55, 598.50 350.50 C 598.87 355.13, 596.67 361.33, 602.50 359.50 C 607.79 359.21, 610.37 358.40, 614.50 359.50 C 619.17 358.50, 622.83 358.50, 626.50 358.50 C 631.41 359.00, 634.73 360.15, 638.50 358.50 C 639.50 354.50, 639.50 350.50, 639.50 346.50 C 639.50 341.83, 639.50 338.17, 639.50 334.50 C 639.50 329.83, 639.50 326.17, 639.50 322.50 C 639.50 317.83, 639.50 314.17, 639.50 310.50 C 639.50 305.50, 639.50 301.50, 639.50 297.50 C 639.50 292.83, 639.50 289.17, 639.50 285.50 C 639.50 280.83, 639.50 277.17, 639.50 273.50 C 639.50 268.83, 639.50 265.17, 639.50 261.50 C 639.50 256.50, 639.50 252.50, 639.50 248.50 C 639.50 243.83, 639.50 240.17, 639.50 236.50 C 639.50 231.83, 639.50 228.17, 639.50 224.50 C 639.50 219.83, 639.50 216.17, 639.50 212.50 C 639.50 207.50, 639.50 203.50, 639.50 199.50 C 639.50 194.83, 639.50 191.17, 639.50 187.50 C 639.50 182.83, 639.50 179.17, 639.50 175.50 C 639.50 170.83, 639.50 167.17, 639.50 163.50 C 639.50 158.50, 639.50 154.50, 639.50 150.50 C 639.50 145.83, 639.50 142.17, 639.50 138.50 C 639.50 133.83, 639.50 130.17, 639.50 126.50 C 639.50 121.83, 639.50 118.17, 639.50 114.50 C 639.50 109.83, 639.50 106.17, 639.50 102.50 C 639.50 97.83, 639.50 94.17, 639.50 90.50 C 639.50 85.83, 639.50 82.17, 639.50 78.50 C 639.50 73.83, 639.50 70.17, 639.50 66.50 C 639.50 61.50, 639.50 57.50, 639.50 53.50 C 639.50 48.83, 639.50 45.17, 639.50 41.50 C 639.50 36.83, 639.50 33.17, 639.50 29.50 C 639.50 24.83, 639.50 21.17, 639.50 17.50 C 639.50 12.50, 639.50 8.50, 639.50 4.50 C 638.11 1.22, 632.54 3.13, 629.50 2.50 C 624.83 2.50, 621.17 2.50, 617.50 2.50 C 612.83 2.50, 609.17 2.50, 605.50 2.50 C 600.50 2.50, 596.50 2.50, 592.50 2.50 C 587.83 2.50, 584.17 2.50, 580.50 2.50 C 575.83 2.50, 572.17 2.50, 568.50 2.50 C 563.83 2.50, 560.17 2.50, 556.50 2.50 C 551.83 2.50, 548.17 2.50, 544.50 2.50 C 539.83 2.50, 536.17 2.50, 532.50 2.50 C 527.83 2.50, 524.17 2.50, 520.50 2.50 C 515.83 2.50, 512.17 2.50, 508.50 2.50 C 503.50 2.50, 499.50 2.50, 495.50 2.50 C 490.83 2.50, 487.17 2.50, 483.50 2.50 C 478.83 2.50, 475.17 2.50, 471.50 2.50 C 466.83 2.50, 463.17 2.50, 459.50 2.50 C 454.50 2.50, 450.50 2.50, 446.50 2.50 C 441.83 2.50, 438.17 2.50, 434.50 2.50 C 429.83 2.50, 426.17 2.50, 422.50 2.50 C 417.83 2.50, 414.17 2.50, 410.50 2.50 C 405.50 2.50, 401.50 2.50, 397.50 2.50 C 392.83 2.50, 389.17 2.50, 385.50 2.50 C 380.83 2.50, 377.17 2.50, 373.50 2.50 C 368.83 2.50, 365.17 2.50, 361.50 2.50 C 356.83 2.50, 353.17 2.50, 349.50 2.50 C 344.83 2.50, 341.17 2.50, 337.50 2.50 C 332.39 1.60, 328.69 4.15, 325.50 2.50 C 320.74 1.34, 317.72 3.47, 313.50 2.50 C 308.33 3.17, 305.28 2.25, 300.50 2.50 C 297.07 3.13, 292.18 2.07, 288.50 2.50 C 283.52 1.25, 279.50 4.67, 276.50 2.50 C 271.15 2.36, 267.83 3.51, 264.50 3.50 C 260.37 2.74, 255.75 3.97, 251.50 3.50 C 246.83 3.50, 243.17 3.50, 239.50 3.50 C 234.83 3.50, 231.17 3.50, 227.50 3.50 C 222.83 3.50, 219.17 3.50, 215.50 3.50 C 210.50 3.50, 206.50 3.50, 202.50 3.50 C 197.83 3.50, 194.17 3.50, 190.50 3.50 C 185.83 3.50, 182.17 3.50, 178.50 3.50 C 173.83 3.50, 170.17 3.50, 166.50 3.50 C 161.50 3.50, 157.50 3.50, 153.50 3.50 C 148.93 2.94, 144.40 4.68, 141.50 2.50 C 136.83 3.50, 133.17 3.50, 129.50 3.50 C 124.83 3.50, 121.17 3.50, 117.50 3.50 C 112.50 3.50, 108.50 3.50, 104.50 3.50 C 99.83 3.50, 96.17 3.50, 92.50 3.50 C 87.83 3.50, 84.17 3.50, 80.50 3.50 C 75.83 3.50, 72.17 3.50, 68.50 3.50 C 63.50 3.50, 59.50 3.50, 55.50 3.50 C 50.83 3.50, 47.17 3.50, 43.50 3.50 C 38.83 3.50, 35.17 3.50, 31.50 3.50 C 26.83 3.50, 23.17 3.50, 19.50 3.50 C 14.05 4.26, 10.87 1.93, 6.50 2.50 Z" fill="rgb(107.9510475488549,170.9802737825564,145.98324355375394)" stroke="rgb(107.9510475488549,170.9802737825564,145.98324355375394)" stroke-width="1" />
<path d="M 6.50 293.50 C -7.08 314.21, 4.19 354.84, 0.50 383.50 C 3.73 396.94, -6.43 422.76, 6.50 425.50 C 23.17 425.50, 38.83 425.50, 54.50 425.50 C 71.17 425.50, 86.83 425.50, 102.50 425.50 C 107.17 425.50, 110.83 425.50, 114.50 425.50 C 119.17 425.50, 122.83 425.50, 126.50 425.50 C 132.01 425.40, 134.15 425.11, 138.50 425.50 C 143.86 425.02, 146.14 425.02, 150.50 425.50 C 154.91 423.29, 158.33 426.54, 162.50 425.50 C 166.90 425.47, 170.60 425.73, 174.50 425.50 C 183.36 426.48, 190.46 424.49, 198.50 424.50 C 214.23 425.78, 229.57 424.10, 246.50 424.50 C 279.32 425.04, 312.08 423.52, 341.50 425.50 C 346.35 423.64, 349.35 425.61, 353.50 425.50 C 358.17 425.50, 361.83 425.50, 365.50 425.50 C 370.17 425.50, 373.83 425.50, 377.50 425.50 C 382.17 425.50, 385.83 425.50, 389.50 425.50 C 393.84 422.56, 397.51 426.70, 401.50 425.50 C 406.56 426.11, 409.79 424.73, 413.50 424.50 C 417.60 426.20, 421.79 425.28, 425.50 425.50 C 430.94 425.58, 433.39 424.47, 437.50 425.50 C 442.32 423.69, 445.21 425.98, 449.50 425.50 C 454.17 425.50, 457.83 425.50, 461.50 425.50 C 466.17 425.50, 469.83 425.50, 473.50 425.50 C 478.17 425.50, 481.83 425.50, 485.50 425.50 C 490.17 425.50, 493.83 425.50, 497.50 425.50 C 502.17 425.50, 505.83 425.50, 509.50 425.50 C 514.17 425.50, 517.83 425.50, 521.50 425.50 C 526.17 425.50, 529.83 425.50, 533.50 425.50 C 538.17 425.50, 541.83 425.50, 545.50 425.50 C 550.17 425.50, 553.83 425.50, 557.50 425.50 C 562.17 425.50, 565.83 425.50, 569.50 425.50 C 574.17 425.50, 577.83 425.50, 581.50 425.50 C 586.17 425.50, 589.83 425.50, 593.50 425.50 C 598.17 425.50, 601.83 425.50, 605.50 425.50 C 610.17 425.50, 613.83 425.50, 617.50 425.50 C 622.17 425.50, 625.83 425.50, 629.50 425.50 C 643.48 421.27, 652.15 348.57, 618.50 361.50 C 585.33 361.67, 555.13 361.59, 522.50 362.50 C 457.74 362.10, 395.71 363.20, 330.50 361.50 C 298.41 362.43, 267.08 362.76, 235.50 362.50 C 201.52 359.83, 171.94 364.02, 139.50 361.50 C 107.22 362.99, 76.31 362.22, 43.50 362.50 C 21.48 365.66, 17.06 355.41, 20.50 335.50 C 18.85 320.49, 28.27 295.61, 7.50 293.50 Z" fill="rgb(174.43908629441626,209.6979695431472,179.73350253807106)" stroke="rgb(174.43908629441626,209.6979695431472,179.73350253807106)" stroke-width="1" />
<path d="M 580.50 360.50 C 578.24 362.63, 574.42 360.98, 571.50 361.50 C 567.17 361.50, 563.83 361.50, 560.50 361.50 C 556.17 361.50, 552.83 361.50, 549.50 361.50 C 545.17 361.50, 541.83 361.50, 538.50 361.50 C 534.17 361.50, 530.83 361.50, 527.50 361.50 C 523.17 361.50, 519.83 361.50, 516.50 361.50 C 512.17 361.50, 508.83 361.50, 505.50 361.50 C 501.17 361.50, 497.83 361.50, 494.50 361.50 C 490.17 361.50, 486.83 361.50, 483.50 361.50 C 479.17 361.50, 475.83 361.50, 472.50 361.50 C 468.17 361.50, 464.83 361.50, 461.50 361.50 C 457.17 361.50, 453.83 361.50, 450.50 361.50 C 446.17 361.50, 442.83 361.50, 439.50 361.50 C 435.03 361.50, 432.26 363.20, 428.50 362.50 C 424.17 362.50, 420.83 362.50, 417.50 362.50 C 413.17 362.50, 409.83 362.50, 406.50 362.50 C 402.17 362.50, 398.83 362.50, 395.50 362.50 C 391.17 362.50, 387.83 362.50, 384.50 362.50 C 380.17 362.50, 376.83 362.50, 373.50 362.50 C 369.17 362.50, 365.83 362.50, 362.50 362.50 C 358.35 361.72, 355.11 361.16, 351.50 361.50 C 347.17 361.50, 343.83 361.50, 340.50 361.50 C 336.17 361.50, 332.83 361.50, 329.50 361.50 C 325.17 361.50, 321.83 361.50, 318.50 361.50 C 314.17 361.50, 310.83 361.50, 307.50 361.50 C 303.17 362.50, 299.83 362.50, 296.50 362.50 C 292.17 362.50, 288.83 362.50, 285.50 362.50 C 281.17 362.50, 277.83 362.50, 274.50 362.50 C 270.17 362.50, 266.83 362.50, 263.50 362.50 C 259.17 362.50, 255.83 362.50, 252.50 362.50 C 248.17 362.50, 244.83 362.50, 241.50 362.50 C 237.17 362.50, 233.83 362.50, 230.50 362.50 C 225.76 361.02, 222.63 363.15, 219.50 361.50 C 215.17 361.50, 211.83 361.50, 208.50 361.50 C 204.17 361.50, 200.83 361.50, 197.50 361.50 C 193.17 361.50, 189.83 361.50, 186.50 361.50 C 182.25 362.04, 178.08 360.34, 175.50 362.50 C 172.42 368.19, 168.78 363.23, 166.50 361.50 C 162.17 361.50, 158.83 361.50, 155.50 361.50 C 151.17 361.50, 147.83 361.50, 144.50 361.50 C 140.09 361.65, 136.31 360.90, 133.50 362.50 C 129.25 361.96, 125.08 363.66, 122.50 361.50 C 118.17 361.50, 114.83 361.50, 111.50 361.50 C 106.68 361.89, 104.68 362.58, 100.50 362.50 C 96.25 361.96, 92.08 363.66, 89.50 361.50 C 85.18 363.64, 82.26 361.01, 78.50 362.50 C 74.17 362.50, 70.83 362.50, 67.50 362.50 C 63.17 362.50, 59.83 362.50, 56.50 362.50 C 52.17 362.50, 48.83 362.50, 45.50 362.50 C 40.81 363.04, 38.29 360.73, 34.50 361.50 C 30.17 361.50, 26.83 361.50, 23.50 361.50 C 19.51 362.99, 15.85 362.87, 12.50 363.50 C 7.95 364.04, 5.04 361.17, 1.50 363.50 C 0.50 366.83, 0.50 370.17, 0.50 373.50 C 0.50 377.83, 0.50 381.17, 0.50 384.50 C 0.50 388.83, 0.50 392.17, 0.50 395.50 C 0.50 399.83, 0.50 403.17, 0.50 406.50 C 0.50 410.83, 0.50 414.17, 0.50 417.50 C 1.01 421.32, -1.29 426.95, 3.50 425.50 C 7.33 423.01, 11.48 425.22, 14.50 425.50 C 18.83 425.50, 22.17 425.50, 25.50 425.50 C 29.83 425.50, 33.17 425.50, 36.50 425.50 C 40.83 425.50, 44.17 425.50, 47.50 425.50 C 51.83 425.50, 55.17 425.50, 58.50 425.50 C 62.50 425.50, 65.50 425.50, 68.50 425.50 C 72.83 425.50, 76.17 425.50, 79.50 425.50 C 83.83 425.50, 87.17 425.50, 90.50 425.50 C 95.61 425.23, 97.39 425.23, 101.50 425.50 C 105.85 425.97, 109.51 422.65, 112.50 425.50 C 116.08 423.34, 120.25 425.04, 123.50 424.50 C 127.83 424.50, 131.17 424.50, 134.50 424.50 C 139.68 424.42, 141.68 425.11, 145.50 424.50 C 149.83 424.50, 153.17 424.50, 156.50 424.50 C 160.83 424.50, 164.17 424.50, 167.50 424.50 C 171.83 424.50, 175.17 424.50, 178.50 424.50 C 182.83 424.50, 186.17 424.50, 189.50 424.50 C 193.83 424.50, 197.17 424.50, 200.50 424.50 C 204.83 424.50, 208.17 424.50, 211.50 424.50 C 215.83 424.50, 219.17 424.50, 222.50 424.50 C 226.83 424.50, 230.17 424.50, 233.50 424.50 C 237.83 424.50, 241.17 424.50, 244.50 424.50 C 248.83 424.50, 252.17 424.50, 255.50 424.50 C 259.83 424.50, 263.17 424.50, 266.50 424.50 C 270.83 424.50, 274.17 424.50, 277.50 424.50 C 281.83 424.50, 285.17 424.50, 288.50 424.50 C 292.83 424.50, 296.17 424.50, 299.50 424.50 C 303.83 424.50, 307.17 424.50, 310.50 424.50 C 314.83 424.50, 318.17 424.50, 321.50 424.50 C 325.83 424.50, 329.17 424.50, 332.50 424.50 C 336.83 424.50, 340.17 424.50, 343.50 424.50 C 347.83 424.50, 351.17 424.50, 354.50 424.50 C 358.83 424.50, 362.17 424.50, 365.50 424.50 C 369.83 424.50, 373.17 424.50, 376.50 424.50 C 380.83 424.50, 384.17 424.50, 387.50 424.50 C 391.83 424.50, 395.17 424.50, 398.50 424.50 C 402.83 424.50, 406.17 424.50, 409.50 424.50 C 413.83 424.50, 417.17 424.50, 420.50 424.50 C 424.83 424.50, 428.17 424.50, 431.50 424.50 C 435.83 424.50, 439.17 424.50, 442.50 424.50 C 446.83 424.50, 450.17 424.50, 453.50 424.50 C 457.83 424.50, 461.17 424.50, 464.50 424.50 C 468.83 424.50, 472.17 424.50, 475.50 424.50 C 479.83 424.50, 483.17 424.50, 486.50 424.50 C 490.83 424.50, 494.17 424.50, 497.50 424.50 C 501.83 424.50, 505.17 424.50, 508.50 424.50 C 512.83 424.50, 516.17 424.50, 519.50 424.50 C 523.83 424.50, 527.17 424.50, 530.50 424.50 C 534.83 424.50, 538.17 424.50, 541.50 424.50 C 545.83 424.50, 549.17 424.50, 552.50 424.50 C 556.83 424.50, 560.17 424.50, 563.50 424.50 C 567.83 424.50, 571.17 424.50, 574.50 424.50 C 578.83 424.50, 582.17 424.50, 585.50 424.50 C 589.83 424.50, 593.17 424.50, 596.50 424.50 C 600.83 424.50, 604.17 424.50, 607.50 424.50 C 611.83 424.50, 615.17 424.50, 618.50 424.50 C 622.83 424.50, 626.17 424.50, 629.50 424.50 C 633.35 423.87, 638.01 427.47, 639.50 424.50 C 639.50 420.17, 639.50 416.83, 639.50 413.50 C 639.50 409.17, 639.50 405.83, 639.50 402.50 C 639.50 398.17, 639.50 394.83, 639.50 391.50 C 639.50 387.17, 639.50 383.83, 639.50 380.50 C 639.50 376.17, 639.50 372.83, 639.50 369.50 C 638.99 365.68, 641.29 360.05, 636.50 361.50 C 632.17 361.50, 628.83 361.50, 625.50 361.50 C 621.17 361.50, 617.83 361.50, 614.50 361.50 C 610.17 361.50, 606.83 361.50, 603.50 361.50 C 598.91 359.82, 596.43 361.69, 592.50 361.50 C 588.25 360.96, 584.08 362.66, 581.50 360.50 Z" fill="rgb(175.06432547759766,210.05270127768105,180.03918875836868)" stroke="rgb(175.06432547759766,210.05270127768105,180.03918875836868)" stroke-width="1" />
<path d="M 499.50 267.50 C 496.78 269.03, 494.42 271.43, 491.50 272.50 C 487.75 276.42, 484.10 277.20, 481.50 280.50 C 478.17 283.32, 475.16 284.48, 472.50 286.50 C 468.45 289.71, 465.28 291.63, 462.50 294.50 C 458.99 296.87, 456.42 299.12, 453.50 300.50 C 451.37 303.76, 453.02 307.58, 452.50 310.50 C 452.50 314.50, 452.50 317.50, 452.50 320.50 C 452.50 324.50, 452.50 327.50, 452.50 330.50 C 452.50 334.17, 452.50 336.83, 452.50 339.50 C 452.50 343.50, 452.50 346.50, 452.50 349.50 C 450.02 359.15, 456.19 360.79, 463.50 359.50 C 477.17 359.50, 489.83 359.50, 502.50 359.50 C 515.83 359.50, 528.17 359.50, 540.50 359.50 C 549.43 361.65, 552.05 356.75, 550.50 349.50 C 550.50 345.50, 550.50 342.50, 550.50 339.50 C 550.50 335.50, 550.50 332.50, 550.50 329.50 C 550.50 325.83, 550.50 323.17, 550.50 320.50 C 550.50 316.50, 550.50 313.50, 550.50 310.50 C 549.98 306.58, 551.63 302.76, 549.50 300.50 C 545.67 297.09, 542.70 295.01, 539.50 293.50 C 535.78 290.97, 533.42 288.57, 530.50 287.50 C 526.51 284.47, 523.49 282.53, 520.50 280.50 C 516.03 278.96, 513.80 275.44, 510.50 274.50 C 506.36 271.84, 503.71 268.99, 500.50 267.50 Z" fill="rgb(245.38765718067506,228.2169093315685,191.96988749172732)" stroke="rgb(245.38765718067506,228.2169093315685,191.96988749172732)" stroke-width="1" />
<path d="M 258.50 279.50 C 253.36 283.97, 247.64 287.03, 242.50 291.50 C 238.73 293.10, 237.16 296.61, 234.50 297.50 C 231.11 301.17, 227.89 301.83, 225.50 304.50 C 218.87 307.48, 222.56 315.67, 221.50 320.50 C 221.50 326.83, 221.50 332.17, 221.50 337.50 C 221.50 343.83, 221.50 349.17, 221.50 354.50 C 220.59 362.51, 230.22 358.41, 234.50 359.50 C 237.83 359.50, 240.17 359.50, 242.50 359.50 C 245.44 358.41, 248.90 359.99, 251.50 359.50 C 257.83 359.50, 263.17 359.50, 268.50 359.50 C 274.83 359.50, 280.17 359.50, 285.50 359.50 C 291.83 359.50, 297.17 359.50, 302.50 359.50 C 306.84 360.50, 306.78 358.11, 306.50 355.50 C 306.50 351.83, 306.50 349.17, 306.50 346.50 C 306.50 340.17, 306.50 334.83, 306.50 329.50 C 306.50 323.17, 306.50 317.83, 306.50 312.50 C 306.05 308.52, 305.20 306.47, 302.50 305.50 C 298.58 303.43, 296.22 301.03, 293.50 299.50 C 287.39 295.30, 281.79 292.26, 276.50 288.50 C 270.44 284.85, 265.53 280.81, 259.50 279.50 Z" fill="rgb(217.40947136563878,134.5248898678414,109.5068281938326)" stroke="rgb(217.40947136563878,134.5248898678414,109.5068281938326)" stroke-width="1" />
<path d="M 393.50 280.50 C 388.66 284.56, 383.23 287.19, 378.50 291.50 C 372.86 296.03, 367.75 299.44, 362.50 302.50 C 358.80 304.47, 357.95 306.52, 358.50 309.50 C 357.50 312.83, 357.50 315.17, 357.50 317.50 C 357.50 323.50, 357.50 328.50, 357.50 333.50 C 357.50 339.50, 357.50 344.50, 357.50 349.50 C 356.89 355.98, 357.84 361.48, 364.50 359.50 C 370.50 359.50, 375.50 359.50, 380.50 359.50 C 386.50 359.50, 391.50 359.50, 396.50 359.50 C 408.17 360.38, 418.24 361.51, 428.50 359.50 C 437.91 357.09, 431.49 341.34, 433.50 332.50 C 431.83 321.61, 438.08 306.97, 427.50 302.50 C 421.68 298.74, 416.69 295.39, 411.50 292.50 C 405.21 287.74, 399.61 284.70, 394.50 280.50 Z" fill="rgb(48.50497203231821,6.1603480422622745,44.7958359229335)" stroke="rgb(48.50497203231821,6.1603480422622745,44.7958359229335)" stroke-width="1" />
<path d="M 66.50 282.50 C 61.92 286.38, 57.40 290.40, 52.50 293.50 C 47.39 298.58, 41.09 301.09, 38.50 306.50 C 38.50 312.17, 38.50 316.83, 38.50 321.50 C 38.50 327.50, 38.50 332.50, 38.50 337.50 C 38.50 343.17, 38.50 347.83, 38.50 352.50 C 36.46 360.19, 42.67 359.97, 47.50 359.50 C 53.17 359.50, 57.83 359.50, 62.50 359.50 C 68.50 359.50, 73.50 359.50, 78.50 359.50 C 89.38 358.12, 98.11 359.90, 108.50 359.50 C 112.43 350.73, 110.60 341.22, 110.50 330.50 C 110.50 324.83, 110.50 320.17, 110.50 315.50 C 109.66 308.55, 101.71 308.35, 98.50 303.50 C 93.10 299.53, 87.90 297.47, 83.50 293.50 C 77.80 289.45, 72.67 286.42, 67.50 283.50 Z" fill="rgb(46.17371871275328,6.022646007151371,44.98778307508939)" stroke="rgb(46.17371871275328,6.022646007151371,44.98778307508939)" stroke-width="1" />
<path d="M 120.50 198.50 C 102.78 199.68, 88.12 215.47, 88.50 233.50 C 87.69 254.80, 110.79 263.90, 123.50 268.50 C 123.50 285.17, 123.50 300.83, 123.50 316.50 C 123.50 325.17, 123.50 332.83, 123.50 340.50 C 125.16 347.84, 118.92 362.08, 129.50 359.50 C 141.86 356.37, 126.18 346.39, 125.50 340.50 C 125.50 331.83, 125.50 324.17, 125.50 316.50 C 125.50 299.50, 125.50 283.50, 125.50 267.50 C 141.18 264.75, 159.99 249.60, 156.50 231.50 C 156.52 212.28, 139.55 197.67, 121.50 198.50 Z" fill="rgb(123.63157894736842,159.1315789473684,143.10526315789474)" stroke="rgb(123.63157894736842,159.1315789473684,143.10526315789474)" stroke-width="1" />
<path d="M 153.50 253.50 C 148.37 257.19, 143.78 262.18, 138.50 265.50 C 134.59 265.65, 132.39 266.16, 130.50 266.50 C 129.35 270.17, 127.58 272.05, 129.50 274.50 C 127.55 279.83, 128.89 285.52, 128.50 290.50 C 128.50 296.50, 128.50 301.50, 128.50 306.50 C 128.50 312.50, 128.50 317.50, 128.50 322.50 C 128.95 325.46, 128.99 328.23, 128.50 330.50 C 129.56 333.53, 129.68 335.95, 129.50 338.50 C 127.96 346.11, 136.63 348.48, 136.50 354.50 C 135.73 361.35, 144.30 358.98, 148.50 359.50 C 154.50 359.50, 159.50 359.50, 164.50 359.50 C 168.91 360.48, 168.70 356.75, 168.50 354.50 C 168.42 351.00, 170.23 349.27, 169.50 346.50 C 169.40 340.32, 171.22 335.94, 170.50 330.50 C 169.81 324.08, 172.19 319.92, 171.50 314.50 C 171.55 308.24, 172.72 303.45, 173.50 298.50 C 173.50 295.17, 173.50 292.83, 173.50 290.50 C 175.52 287.68, 172.19 284.39, 169.50 285.50 C 165.22 285.11, 163.87 281.08, 161.50 279.50 C 158.78 276.19, 156.50 274.11, 155.50 271.50 C 154.22 268.42, 153.30 266.19, 153.50 263.50 C 150.81 260.20, 153.67 257.08, 153.50 254.50 Z" fill="rgb(107.8918007265179,170.87908666320706,145.92786715101192)" stroke="rgb(107.8918007265179,170.87908666320706,145.92786715101192)" stroke-width="1" />
<path d="M 581.50 198.50 C 579.45 199.84, 576.90 200.00, 574.50 200.50 C 570.48 202.32, 567.98 204.39, 565.50 206.50 C 561.94 208.93, 559.59 211.46, 558.50 214.50 C 556.38 218.12, 554.69 220.50, 554.50 223.50 C 553.50 226.83, 553.50 229.17, 553.50 231.50 C 553.50 235.17, 553.50 237.83, 553.50 240.50 C 554.05 244.63, 555.99 246.77, 556.50 249.50 C 558.59 253.54, 560.94 256.07, 563.50 258.50 C 566.59 261.75, 569.22 262.69, 571.50 264.50 C 574.82 266.01, 577.44 266.78, 580.50 266.50 C 583.57 266.91, 588.07 268.74, 588.50 266.50 C 588.50 262.83, 588.50 260.17, 588.50 257.50 C 587.89 254.44, 590.11 249.55, 586.50 250.50 C 583.33 248.82, 579.03 247.06, 579.50 243.50 C 576.46 236.66, 582.93 229.35, 588.50 227.50 C 596.29 226.40, 600.67 233.37, 602.50 238.50 C 602.59 246.44, 592.96 249.37, 593.50 256.50 C 593.50 260.17, 593.50 262.83, 593.50 265.50 C 595.86 269.09, 598.55 264.72, 601.50 265.50 C 605.52 263.68, 608.02 261.61, 610.50 259.50 C 614.06 256.07, 616.41 253.54, 617.50 250.50 C 617.86 246.63, 621.14 245.37, 620.50 242.50 C 622.59 239.56, 621.01 236.10, 621.50 233.50 C 621.01 229.90, 622.59 226.44, 620.50 224.50 C 620.18 220.55, 619.25 217.86, 617.50 215.50 C 615.58 211.25, 611.60 209.27, 609.50 206.50 C 605.96 203.52, 603.14 202.23, 600.50 200.50 C 596.87 199.75, 594.31 198.82, 591.50 198.50 C 587.83 198.50, 585.17 198.50, 582.50 198.50 Z" fill="rgb(185.95027949396882,211.11944689614592,186.0800235363342)" stroke="rgb(185.95027949396882,211.11944689614592,186.0800235363342)" stroke-width="1" />
<path d="M 119.50 198.50 C 117.96 201.09, 114.04 197.91, 112.50 200.50 C 108.68 201.46, 106.03 202.83, 103.50 204.50 C 99.25 206.42, 97.27 210.40, 94.50 212.50 C 92.83 216.03, 91.46 218.68, 90.50 221.50 C 87.91 224.04, 91.09 227.96, 88.50 229.50 C 87.90 233.55, 89.25 235.80, 89.50 238.50 C 90.63 242.11, 90.86 245.10, 92.50 247.50 C 94.79 250.50, 96.18 254.51, 98.50 255.50 C 101.65 258.62, 103.62 261.15, 106.50 261.50 C 110.11 263.63, 113.10 263.86, 115.50 265.50 C 118.89 265.44, 123.50 266.45, 122.50 262.50 C 122.01 258.90, 123.59 255.44, 121.50 253.50 C 118.21 252.98, 114.89 251.24, 114.50 248.50 C 111.99 245.18, 111.22 242.56, 111.50 239.50 C 113.12 235.82, 113.30 232.53, 116.50 230.50 C 119.55 227.34, 122.49 227.33, 125.50 227.50 C 129.29 227.41, 131.29 229.21, 133.50 230.50 C 136.99 233.55, 137.90 236.25, 137.50 239.50 C 137.95 243.63, 136.01 245.77, 135.50 248.50 C 133.87 252.55, 129.71 252.88, 127.50 254.50 C 127.50 257.83, 127.50 260.17, 127.50 262.50 C 127.93 265.74, 132.43 263.91, 134.50 264.50 C 138.65 263.34, 141.17 261.66, 143.50 259.50 C 147.03 256.92, 149.95 254.49, 151.50 251.50 C 152.88 247.91, 155.12 246.09, 155.50 243.50 C 157.64 240.45, 155.58 236.65, 157.50 234.50 C 157.25 230.80, 155.90 228.55, 156.50 225.50 C 154.40 222.15, 155.50 218.48, 152.50 216.50 C 151.10 213.06, 148.90 210.94, 147.50 208.50 C 143.48 206.68, 141.62 203.08, 138.50 202.50 C 134.77 200.99, 132.63 199.05, 129.50 199.50 C 125.83 198.50, 123.17 198.50, 120.50 198.50 Z" fill="rgb(185.8138871274572,211.00792644261256,185.9866835764109)" stroke="rgb(185.8138871274572,211.00792644261256,185.9866835764109)" stroke-width="1" />
<path d="M 176.50 233.50 C 163.32 236.25, 154.06 249.59, 155.50 263.50 C 155.27 282.05, 180.58 278.68, 176.50 294.50 C 174.46 311.63, 168.99 361.01, 173.50 356.50 C 173.41 343.19, 175.70 331.86, 175.50 319.50 C 179.64 308.39, 173.40 289.67, 182.50 284.50 C 217.01 283.64, 211.13 227.95, 177.50 233.50 Z" fill="rgb(189.57142857142858,184.88095238095238,160.0952380952381)" stroke="rgb(189.57142857142858,184.88095238095238,160.0952380952381)" stroke-width="1" />
<path d="M 176.50 233.50 C 158.14 236.45, 148.14 262.60, 161.50 276.50 C 168.81 286.02, 179.82 286.47, 176.50 273.50 C 178.98 267.86, 174.72 264.15, 178.50 260.50 C 181.37 261.95, 192.02 260.48, 186.50 264.50 C 179.02 262.54, 180.59 277.71, 180.50 284.50 C 191.58 285.45, 200.09 279.02, 204.50 270.50 C 212.69 251.89, 196.93 230.89, 177.50 233.50 Z" fill="rgb(155.45714285714286,185.71428571428572,158.62857142857143)" stroke="rgb(155.45714285714286,185.71428571428572,158.62857142857143)" stroke-width="1" />
<path d="M 403.50 308.50 C 402.04 311.03, 402.57 314.39, 402.50 317.50 C 402.50 321.50, 402.50 324.50, 402.50 327.50 C 401.73 331.96, 403.75 334.26, 403.50 337.50 C 404.27 341.96, 402.25 344.26, 402.50 347.50 C 402.50 351.50, 402.50 354.50, 402.50 357.50 C 402.83 362.17, 407.97 359.85, 410.50 360.50 C 414.50 360.50, 417.50 360.50, 420.50 360.50 C 424.83 360.50, 428.17 360.50, 431.50 360.50 C 435.52 357.96, 432.72 355.22, 433.50 351.50 C 433.50 347.50, 433.50 344.50, 433.50 341.50 C 433.50 337.50, 433.50 334.50, 433.50 331.50 C 433.50 327.17, 433.50 323.83, 433.50 320.50 C 433.50 316.50, 433.50 313.50, 433.50 310.50 C 432.76 307.24, 427.89 309.11, 425.50 308.50 C 421.50 308.50, 418.50 308.50, 415.50 308.50 C 411.17 308.50, 407.83 308.50, 404.50 308.50 Z" fill="rgb(211.99227569815804,145.44622697563875,121.90552584670232)" stroke="rgb(211.99227569815804,145.44622697563875,121.90552584670232)" stroke-width="1" />
<path d="M 334.50 250.50 C 263.80 304.47, 413.30 294.65, 334.50 250.50 Z" fill="rgb(133.3,183.6,158.5)" stroke="rgb(133.3,183.6,158.5)" stroke-width="1" />
<path d="M 334.50 250.50 C 329.68 252.13, 324.42 252.70, 320.50 256.50 C 316.06 261.77, 314.16 266.67, 314.50 272.50 C 314.66 279.26, 316.04 284.52, 320.50 288.50 C 325.57 293.74, 330.54 295.81, 336.50 295.50 C 343.47 295.85, 347.94 292.56, 352.50 289.50 C 353.88 285.91, 357.18 284.53, 356.50 281.50 C 356.77 277.73, 358.58 276.00, 358.50 273.50 C 356.54 270.70, 358.18 267.42, 356.50 265.50 C 354.72 262.21, 354.28 259.37, 351.50 257.50 C 346.52 252.04, 340.91 251.52, 335.50 250.50 Z" fill="rgb(185.74799753542823,210.875539125077,185.8607516943931)" stroke="rgb(185.74799753542823,210.875539125077,185.8607516943931)" stroke-width="1" />
<path d="M 5.50 293.50 C 2.72 295.03, -0.83 295.04, 0.50 299.50 C 0.50 303.50, 0.50 306.50, 0.50 309.50 C 0.50 313.50, 0.50 316.50, 0.50 319.50 C 0.50 323.83, 0.50 327.17, 0.50 330.50 C 0.50 334.50, 0.50 337.50, 0.50 340.50 C 0.50 344.83, 0.50 348.17, 0.50 351.50 C 0.50 355.50, 0.50 358.50, 0.50 361.50 C 4.83 361.50, 8.17 361.50, 11.50 361.50 C 15.20 361.34, 19.88 362.33, 20.50 359.50 C 20.50 355.17, 20.50 351.83, 20.50 348.50 C 20.50 344.50, 20.50 341.50, 20.50 338.50 C 20.50 334.17, 20.50 330.83, 20.50 327.50 C 20.50 323.50, 20.50 320.50, 20.50 317.50 C 20.50 313.17, 20.50 309.83, 20.50 306.50 C 21.06 301.85, 19.30 299.17, 17.50 296.50 C 13.51 294.01, 10.34 292.95, 6.50 293.50 Z" fill="rgb(175.2484076433121,210.14295824486908,180.14720452937013)" stroke="rgb(175.2484076433121,210.14295824486908,180.14720452937013)" stroke-width="1" />
<path d="M 176.50 233.50 C 171.53 235.44, 166.26 236.64, 162.50 241.50 C 158.78 247.20, 156.33 252.02, 155.50 257.50 C 161.62 257.74, 165.59 259.76, 170.50 259.50 C 176.48 259.89, 181.14 261.04, 186.50 260.50 C 188.82 262.48, 191.53 261.08, 193.50 261.50 C 196.83 262.50, 199.17 262.50, 201.50 262.50 C 208.78 265.47, 206.32 254.99, 205.50 251.50 C 203.10 245.03, 198.84 239.93, 193.50 236.50 C 188.05 234.18, 183.05 233.16, 177.50 233.50 Z" fill="rgb(186.5737704918033,209.79637618636755,184.79292493528905)" stroke="rgb(186.5737704918033,209.79637618636755,184.79292493528905)" stroke-width="1" />
<path d="M 587.50 228.50 C 581.82 231.20, 577.97 237.71, 580.50 243.50 C 583.01 250.57, 592.61 248.39, 589.50 257.50 C 589.50 270.17, 589.50 281.83, 589.50 293.50 C 588.53 305.85, 588.57 317.61, 586.50 328.50 C 591.42 340.56, 573.77 357.63, 589.50 359.50 C 606.14 353.85, 584.88 340.24, 589.50 328.50 C 591.25 316.28, 591.84 304.58, 591.50 292.50 C 593.09 280.35, 592.35 268.24, 592.50 256.50 C 593.11 248.91, 601.68 246.76, 601.50 239.50 C 600.04 232.54, 595.67 227.28, 588.50 228.50 Z" fill="rgb(199.375,220.0,188.25)" stroke="rgb(199.375,220.0,188.25)" stroke-width="1" />
<path d="M 120.50 228.50 C 115.01 231.25, 110.39 238.63, 113.50 244.50 C 114.27 252.87, 125.86 250.92, 123.50 259.50 C 123.46 263.32, 123.21 266.23, 124.50 268.50 C 124.50 272.17, 124.50 274.83, 124.50 277.50 C 125.00 281.51, 122.72 283.37, 123.50 286.50 C 123.50 290.17, 123.50 292.83, 123.50 295.50 C 123.50 299.17, 123.50 301.83, 123.50 304.50 C 123.50 308.17, 123.50 310.83, 123.50 313.50 C 123.50 317.17, 123.50 319.83, 123.50 322.50 C 123.50 326.17, 123.50 328.83, 123.50 331.50 C 122.75 338.61, 124.69 343.62, 124.50 349.50 C 120.64 357.30, 125.11 361.63, 132.50 359.50 C 138.05 352.52, 128.24 347.84, 125.50 342.50 C 125.50 338.83, 125.50 336.17, 125.50 333.50 C 125.50 329.83, 125.50 327.17, 125.50 324.50 C 125.50 320.83, 125.50 318.17, 125.50 315.50 C 125.50 311.83, 125.50 309.17, 125.50 306.50 C 125.50 302.83, 125.50 300.17, 125.50 297.50 C 125.50 293.83, 125.50 291.17, 125.50 288.50 C 125.50 284.83, 125.50 282.17, 125.50 279.50 C 125.50 275.83, 125.50 273.17, 125.50 270.50 C 125.50 266.83, 125.50 264.17, 125.50 261.50 C 125.79 257.68, 124.40 254.16, 127.50 252.50 C 142.32 249.62, 137.55 223.60, 121.50 228.50 Z" fill="rgb(50.02931596091205,35.615635179153095,58.60260586319218)" stroke="rgb(50.02931596091205,35.615635179153095,58.60260586319218)" stroke-width="1" />
<path d="M 476.50 305.50 C 474.20 314.35, 476.14 324.96, 475.50 334.50 C 471.15 349.85, 482.95 348.05, 493.50 347.50 C 496.80 343.51, 494.44 337.59, 496.50 333.50 C 496.14 327.84, 497.40 322.52, 495.50 318.50 C 496.62 314.34, 498.30 305.60, 493.50 305.50 C 489.95 305.32, 487.53 305.44, 485.50 306.50 C 482.17 305.50, 479.83 305.50, 477.50 305.50 Z" fill="rgb(223.10628019323673,203.81159420289856,169.93719806763286)" stroke="rgb(223.10628019323673,203.81159420289856,169.93719806763286)" stroke-width="1" />
<path d="M 235.50 310.50 C 235.50 314.50, 235.50 318.50, 235.50 322.50 C 235.50 327.83, 235.50 332.17, 235.50 336.50 C 236.43 341.01, 233.06 348.72, 238.50 348.50 C 244.69 348.40, 247.46 348.19, 252.50 348.50 C 255.72 343.95, 253.92 338.73, 254.50 334.50 C 254.50 329.17, 254.50 324.83, 254.50 320.50 C 253.90 315.76, 256.72 308.61, 250.50 310.50 C 245.17 310.50, 240.83 310.50, 236.50 310.50 Z" fill="rgb(150.91354838709677,189.70451612903227,164.58322580645162)" stroke="rgb(150.91354838709677,189.70451612903227,164.58322580645162)" stroke-width="1" />
<path d="M 52.50 308.50 C 52.50 312.50, 52.50 316.50, 52.50 320.50 C 52.50 325.83, 52.50 330.17, 52.50 334.50 C 52.87 339.13, 50.67 345.33, 56.50 343.50 C 61.83 343.50, 66.17 343.50, 70.50 343.50 C 71.50 339.50, 71.50 335.50, 71.50 331.50 C 71.50 326.17, 71.50 321.83, 71.50 317.50 C 71.13 312.87, 73.33 306.67, 67.50 308.50 C 62.17 308.50, 57.83 308.50, 53.50 308.50 Z" fill="rgb(116.62096774193549,107.89112903225806,120.16935483870968)" stroke="rgb(116.62096774193549,107.89112903225806,120.16935483870968)" stroke-width="1" />
<path d="M 591.50 232.50 C 589.26 236.71, 591.10 242.61, 590.50 247.50 C 590.50 250.83, 590.50 253.17, 590.50 255.50 C 590.50 259.17, 590.50 261.83, 590.50 264.50 C 588.55 269.83, 589.89 275.52, 589.50 280.50 C 589.50 283.83, 589.50 286.17, 589.50 288.50 C 589.50 292.17, 589.50 294.83, 589.50 297.50 C 588.56 303.25, 588.25 308.26, 588.50 313.50 C 586.46 316.13, 587.96 319.22, 587.50 321.50 C 588.00 325.51, 585.72 327.37, 586.50 330.50 C 585.64 336.42, 588.50 342.88, 584.50 346.50 C 581.05 350.93, 581.04 361.61, 588.50 359.50 C 606.06 357.49, 587.85 341.76, 589.50 332.50 C 589.04 326.17, 591.28 321.96, 590.50 316.50 C 591.56 313.47, 591.68 311.05, 591.50 308.50 C 591.50 304.83, 591.50 302.17, 591.50 299.50 C 591.89 293.52, 593.04 288.86, 592.50 283.50 C 592.50 280.17, 592.50 277.83, 592.50 275.50 C 592.50 271.83, 592.50 269.17, 592.50 266.50 C 592.92 260.20, 591.52 254.15, 593.50 249.50 C 592.96 242.46, 594.07 238.68, 592.50 232.50 Z" fill="rgb(57.70663265306123,52.05357142857143,76.29081632653062)" stroke="rgb(57.70663265306123,52.05357142857143,76.29081632653062)" stroke-width="1" />
<path d="M 88.50 318.50 C 85.61 326.64, 88.50 337.61, 87.50 347.50 C 83.17 362.49, 95.76 359.58, 105.50 359.50 C 108.80 357.13, 106.86 350.52, 107.50 346.50 C 103.59 346.03, 95.71 348.83, 97.50 341.50 C 95.77 332.63, 102.80 315.44, 89.50 318.50 Z" fill="rgb(102.4,81.6,87.6)" stroke="rgb(102.4,81.6,87.6)" stroke-width="1" />
<path d="M 452.50 354.50 C 451.13 359.54, 454.16 360.17, 458.50 359.50 C 463.50 359.50, 467.50 359.50, 471.50 359.50 C 476.50 359.50, 480.50 359.50, 484.50 359.50 C 489.50 359.50, 493.50 359.50, 497.50 359.50 C 502.50 359.50, 506.50 359.50, 510.50 359.50 C 515.50 359.50, 519.50 359.50, 523.50 359.50 C 528.50 359.50, 532.50 359.50, 536.50 359.50 C 541.50 359.50, 545.50 359.50, 549.50 359.50 C 551.87 354.46, 548.84 353.83, 544.50 354.50 C 539.50 354.50, 535.50 354.50, 531.50 354.50 C 526.50 354.50, 522.50 354.50, 518.50 354.50 C 513.50 354.50, 509.50 354.50, 505.50 354.50 C 500.50 354.50, 496.50 354.50, 492.50 354.50 C 487.50 354.50, 483.50 354.50, 479.50 354.50 C 474.50 354.50, 470.50 354.50, 466.50 354.50 C 461.50 354.50, 457.50 354.50, 453.50 354.50 Z" fill="rgb(52.602693602693606,9.6010101010101,46.388888888888886)" stroke="rgb(52.602693602693606,9.6010101010101,46.388888888888886)" stroke-width="1" />
<path d="M 288.50 147.50 C 262.08 156.29, 286.52 199.51, 304.50 179.50 C 292.60 181.65, 283.50 168.32, 288.50 159.50 C 294.51 147.81, 309.81 148.00, 289.50 147.50 Z" fill="rgb(116.75,174.75,148.25)" stroke="rgb(116.75,174.75,148.25)" stroke-width="1" />
<path d="M 289.50 147.50 C 279.10 150.72, 273.74 163.85, 278.50 173.50 C 282.47 184.73, 299.73 188.44, 305.50 179.50 C 293.76 183.85, 283.80 168.90, 287.50 159.50 C 293.64 147.78, 310.99 148.38, 290.50 147.50 Z" fill="rgb(172.9090909090909,197.22727272727272,165.54545454545453)" stroke="rgb(172.9090909090909,197.22727272727272,165.54545454545453)" stroke-width="1" />
<path d="M 289.50 147.50 C 285.19 150.11, 280.18 153.45, 278.50 158.50 C 275.88 163.56, 276.44 168.40, 278.50 172.50 C 281.51 177.50, 284.25 182.00, 289.50 183.50 C 294.63 187.21, 300.13 184.86, 303.50 182.50 C 301.77 179.62, 295.16 180.90, 292.50 176.50 C 287.81 172.36, 286.70 166.16, 287.50 162.50 C 288.41 156.97, 291.39 151.50, 296.50 150.50 C 305.20 148.45, 293.56 146.59, 290.50 147.50 Z" fill="rgb(232.6714876033058,223.2706611570248,185.12603305785123)" stroke="rgb(232.6714876033058,223.2706611570248,185.12603305785123)" stroke-width="1" />
<path d="M 120.50 228.50 C 116.27 230.36, 113.93 234.60, 112.50 238.50 C 111.99 243.93, 114.15 247.26, 116.50 250.50 C 121.99 254.58, 123.40 250.89, 122.50 246.50 C 120.59 241.09, 125.77 233.87, 126.50 241.50 C 127.13 245.54, 125.22 251.11, 127.50 252.50 C 133.69 253.03, 134.09 247.56, 136.50 244.50 C 136.28 239.65, 137.46 235.22, 134.50 232.50 C 130.27 228.65, 126.08 228.10, 121.50 228.50 Z" fill="rgb(211.04842105263157,133.9663157894737,108.65052631578948)" stroke="rgb(211.04842105263157,133.9663157894737,108.65052631578948)" stroke-width="1" />
<path d="M 283.50 309.50 C 281.37 311.76, 283.02 315.58, 282.50 318.50 C 282.50 322.50, 282.50 325.50, 282.50 328.50 C 283.23 331.77, 280.70 337.30, 284.50 336.50 C 288.83 336.50, 292.17 336.50, 295.50 336.50 C 300.17 336.17, 297.85 331.03, 298.50 328.50 C 298.50 324.17, 298.50 320.83, 298.50 317.50 C 298.20 313.93, 299.89 308.56, 295.50 309.50 C 290.95 308.96, 288.04 311.83, 284.50 309.50 Z" fill="rgb(170.1455938697318,161.73946360153258,158.1455938697318)" stroke="rgb(170.1455938697318,161.73946360153258,158.1455938697318)" stroke-width="1" />
<path d="M 189.50 263.50 C 187.26 266.20, 184.47 267.56, 181.50 268.50 C 180.50 271.17, 180.50 273.83, 180.50 276.50 C 181.51 280.06, 177.07 283.97, 181.50 284.50 C 185.55 285.10, 187.80 283.75, 190.50 283.50 C 194.85 282.47, 197.03 279.64, 199.50 277.50 C 202.66 274.17, 204.34 271.65, 204.50 268.50 C 206.77 263.57, 203.14 264.53, 200.50 264.50 C 197.24 262.37, 193.42 264.02, 190.50 263.50 Z" fill="rgb(186.38084112149534,210.56308411214954,183.3271028037383)" stroke="rgb(186.38084112149534,210.56308411214954,183.3271028037383)" stroke-width="1" />
<path d="M 155.50 259.50 C 155.46 262.32, 155.21 265.23, 156.50 267.50 C 157.32 271.52, 159.39 274.02, 161.50 276.50 C 163.59 279.28, 166.87 282.03, 169.50 282.50 C 173.87 284.12, 175.55 285.54, 176.50 281.50 C 176.50 277.83, 176.50 275.17, 176.50 272.50 C 177.97 268.46, 176.23 266.46, 173.50 264.50 C 172.59 259.84, 169.37 260.41, 166.50 260.50 C 162.07 261.19, 159.93 258.81, 156.50 259.50 Z" fill="rgb(188.61313868613138,211.20437956204378,185.97323600973235)" stroke="rgb(188.61313868613138,211.20437956204378,185.97323600973235)" stroke-width="1" />
<path d="M 587.50 228.50 C 583.32 230.10, 581.05 233.45, 579.50 237.50 C 579.30 242.45, 580.31 247.34, 584.50 248.50 C 590.74 252.11, 589.40 246.28, 589.50 242.50 C 589.74 238.60, 588.20 230.48, 592.50 232.50 C 593.50 237.17, 593.50 240.83, 593.50 244.50 C 591.61 251.65, 596.81 250.26, 598.50 246.50 C 600.65 241.74, 602.41 237.89, 599.50 234.50 C 596.63 229.90, 593.20 227.67, 588.50 228.50 Z" fill="rgb(207.17897727272728,135.89488636363637,110.1846590909091)" stroke="rgb(207.17897727272728,135.89488636363637,110.1846590909091)" stroke-width="1" />
<path d="M 72.50 155.50 C 77.82 158.91, 84.13 165.42, 82.50 173.50 C 79.77 181.55, 68.50 188.65, 82.50 184.50 C 90.27 181.53, 93.33 174.27, 92.50 166.50 C 89.70 157.69, 81.92 153.99, 73.50 155.50 Z" fill="rgb(150.41379310344828,191.9655172413793,165.89655172413794)" stroke="rgb(150.41379310344828,191.9655172413793,165.89655172413794)" stroke-width="1" />
<path d="M 74.50 155.50 C 73.99 158.67, 80.55 158.35, 80.50 162.50 C 82.97 165.75, 82.53 169.21, 82.50 172.50 C 81.46 176.76, 80.74 180.15, 77.50 182.50 C 70.92 185.81, 79.95 186.51, 81.50 184.50 C 85.67 183.80, 89.34 180.66, 90.50 177.50 C 91.50 173.50, 91.50 170.50, 91.50 167.50 C 91.39 163.02, 89.83 159.85, 86.50 158.50 C 82.73 155.47, 79.19 155.31, 75.50 155.50 Z" fill="rgb(186.0691823899371,210.10377358490567,183.00314465408806)" stroke="rgb(186.0691823899371,210.10377358490567,183.00314465408806)" stroke-width="1" />
<path d="M 88.50 318.50 C 86.24 323.37, 88.11 329.95, 87.50 335.50 C 86.39 342.96, 87.72 348.77, 95.50 346.50 C 97.79 344.23, 97.54 341.32, 97.50 338.50 C 97.50 334.83, 97.50 332.17, 97.50 329.50 C 97.50 325.83, 97.50 323.17, 97.50 320.50 C 95.56 317.41, 92.10 318.99, 89.50 318.50 Z" fill="rgb(128.03973509933775,140.02649006622516,121.1523178807947)" stroke="rgb(128.03973509933775,140.02649006622516,121.1523178807947)" stroke-width="1" />
<path d="M 178.50 262.50 C 178.28 266.21, 179.20 270.40, 177.50 273.50 C 177.22 278.52, 178.28 283.10, 176.50 286.50 C 176.73 291.40, 176.47 295.10, 175.50 298.50 C 176.24 303.95, 174.34 307.30, 174.50 311.50 C 175.19 316.59, 172.81 319.41, 173.50 323.50 C 173.06 328.46, 171.99 332.15, 172.50 336.50 C 173.07 341.87, 170.74 345.05, 171.50 349.50 C 171.87 354.49, 170.96 359.78, 171.50 362.50 C 175.14 361.07, 172.87 356.18, 173.50 352.50 C 172.74 347.05, 175.07 343.87, 174.50 339.50 C 173.74 334.05, 176.07 330.87, 175.50 326.50 C 174.74 321.05, 177.07 317.87, 176.50 313.50 C 175.72 308.37, 177.85 305.45, 177.50 301.50 C 176.99 296.15, 178.06 292.46, 178.50 288.50 C 177.99 283.15, 179.06 279.46, 179.50 275.50 C 179.50 270.50, 179.50 266.50, 179.50 262.50 Z" fill="rgb(47.01034482758621,40.53448275862069,79.92413793103448)" stroke="rgb(47.01034482758621,40.53448275862069,79.92413793103448)" stroke-width="1" />
<path d="M 105.50 345.50 C 103.87 347.54, 100.78 346.04, 98.50 346.50 C 95.87 348.54, 92.78 347.04, 90.50 347.50 C 86.14 346.47, 87.94 350.61, 87.50 352.50 C 88.11 355.56, 85.89 360.45, 89.50 359.50 C 95.50 359.50, 100.50 359.50, 105.50 359.50 C 108.71 359.38, 106.92 355.26, 107.50 353.50 C 106.91 350.43, 108.74 345.93, 106.50 345.50 Z" fill="rgb(158.2439024390244,123.11846689895471,107.66202090592334)" stroke="rgb(158.2439024390244,123.11846689895471,107.66202090592334)" stroke-width="1" />
<path d="M 376.50 310.50 C 376.50 315.50, 376.50 320.50, 376.50 325.50 C 376.50 328.83, 376.50 331.17, 376.50 333.50 C 379.17 334.50, 381.83 334.50, 384.50 334.50 C 387.54 332.87, 386.04 329.78, 386.50 327.50 C 386.01 324.23, 386.05 321.46, 386.50 319.50 C 386.56 316.47, 386.68 314.05, 386.50 311.50 C 382.83 310.50, 380.17 310.50, 377.50 310.50 Z" fill="rgb(115.9814126394052,106.03345724907064,97.13011152416357)" stroke="rgb(115.9814126394052,106.03345724907064,97.13011152416357)" stroke-width="1" />
<path d="M 588.50 340.50 C 587.14 344.43, 583.37 347.36, 582.50 351.50 C 581.45 356.70, 583.75 360.87, 588.50 359.50 C 594.01 360.73, 597.13 356.61, 596.50 352.50 C 595.13 347.40, 594.03 342.41, 589.50 340.50 Z" fill="rgb(39.418502202643175,17.14977973568282,58.198237885462554)" stroke="rgb(39.418502202643175,17.14977973568282,58.198237885462554)" stroke-width="1" />
<path d="M 553.50 35.50 C 553.54 39.53, 547.90 45.53, 544.50 40.50 C 540.67 33.73, 540.76 45.70, 542.50 47.50 C 545.27 52.22, 551.29 52.63, 554.50 49.50 C 556.93 44.74, 557.50 38.70, 554.50 35.50 Z" fill="rgb(181.9189189189189,208.3783783783784,186.2108108108108)" stroke="rgb(181.9189189189189,208.3783783783784,186.2108108108108)" stroke-width="1" />
<path d="M 125.50 345.50 C 123.58 348.12, 124.92 352.09, 122.50 354.50 C 121.28 360.03, 125.98 361.22, 129.50 360.50 C 134.03 360.14, 135.48 358.17, 135.50 354.50 C 133.58 350.31, 130.40 345.55, 126.50 345.50 Z" fill="rgb(40.73652694610779,29.526946107784433,56.02994011976048)" stroke="rgb(40.73652694610779,29.526946107784433,56.02994011976048)" stroke-width="1" />
<path d="M 88.50 327.50 C 85.56 330.84, 89.70 334.51, 88.50 338.50 C 87.50 344.19, 89.15 348.05, 94.50 346.50 C 95.50 342.83, 95.50 339.17, 95.50 335.50 C 96.50 329.81, 94.85 325.95, 89.50 327.50 Z" fill="rgb(105.03067484662577,78.04294478527608,81.15950920245399)" stroke="rgb(105.03067484662577,78.04294478527608,81.15950920245399)" stroke-width="1" />
<path d="M 63.50 320.50 C 63.50 324.83, 63.50 329.17, 63.50 333.50 C 63.42 338.91, 62.20 344.46, 68.50 342.50 C 69.50 338.17, 69.50 333.83, 69.50 329.50 C 69.58 324.09, 70.80 318.54, 64.50 320.50 Z" fill="rgb(37.03105590062112,19.31055900621118,41.099378881987576)" stroke="rgb(37.03105590062112,19.31055900621118,41.099378881987576)" stroke-width="1" />
<path d="M 475.50 333.50 C 475.50 336.83, 475.50 340.17, 475.50 343.50 C 474.05 349.29, 479.68 346.99, 482.50 347.50 C 485.66 344.92, 483.96 340.75, 484.50 337.50 C 485.31 331.76, 479.27 334.00, 476.50 333.50 Z" fill="rgb(112.21621621621621,102.27702702702703,100.97972972972973)" stroke="rgb(112.21621621621621,102.27702702702703,100.97972972972973)" stroke-width="1" />
<path d="M 487.50 333.50 C 487.50 336.50, 487.50 339.50, 487.50 342.50 C 486.01 348.33, 489.99 347.67, 493.50 347.50 C 496.66 344.92, 494.96 340.75, 495.50 337.50 C 496.95 331.71, 491.32 334.01, 488.50 333.50 Z" fill="rgb(119.21641791044776,103.55223880597015,102.49253731343283)" stroke="rgb(119.21641791044776,103.55223880597015,102.49253731343283)" stroke-width="1" />
<path d="M 476.50 319.50 C 474.41 321.44, 475.99 324.90, 475.50 327.50 C 474.70 332.30, 480.23 329.77, 482.50 330.50 C 485.74 330.07, 483.91 325.57, 484.50 323.50 C 485.44 318.11, 480.07 319.80, 477.50 319.50 Z" fill="rgb(113.65254237288136,98.38135593220339,101.72033898305085)" stroke="rgb(113.65254237288136,98.38135593220339,101.72033898305085)" stroke-width="1" />
<path d="M 475.50 306.50 C 475.50 309.17, 475.50 311.83, 475.50 314.50 C 476.24 317.76, 481.11 315.89, 483.50 316.50 C 484.50 313.83, 484.50 311.17, 484.50 308.50 C 483.76 305.24, 478.89 307.11, 476.50 306.50 Z" fill="rgb(114.11818181818182,116.03636363636363,116.45454545454545)" stroke="rgb(114.11818181818182,116.03636363636363,116.45454545454545)" stroke-width="1" />
<path d="M 487.50 319.50 C 487.50 322.17, 487.50 324.83, 487.50 327.50 C 486.70 332.30, 492.23 329.77, 494.50 330.50 C 495.50 327.83, 495.50 325.17, 495.50 322.50 C 496.30 317.70, 490.77 320.23, 488.50 319.50 Z" fill="rgb(98.69444444444444,96.69444444444444,100.44444444444444)" stroke="rgb(98.69444444444444,96.69444444444444,100.44444444444444)" stroke-width="1" />
<path d="M 487.50 306.50 C 487.50 309.17, 487.50 311.83, 487.50 314.50 C 487.93 317.74, 492.43 315.91, 494.50 316.50 C 495.50 313.83, 495.50 311.17, 495.50 308.50 C 495.07 305.26, 490.57 307.09, 488.50 306.50 Z" fill="rgb(98.97979797979798,96.8989898989899,100.63636363636364)" stroke="rgb(98.97979797979798,96.8989898989899,100.63636363636364)" stroke-width="1" />
<path d="M 283.50 323.50 C 284.44 327.55, 280.72 336.59, 287.50 335.50 C 288.50 332.17, 288.50 329.83, 288.50 327.50 C 289.50 323.16, 287.11 323.22, 284.50 323.50 Z" fill="rgb(64.60526315789474,38.38157894736842,44.421052631578945)" stroke="rgb(64.60526315789474,38.38157894736842,44.421052631578945)" stroke-width="1" />
<path d="M 291.50 311.50 C 289.86 312.77, 292.48 315.19, 291.50 317.50 C 290.47 321.86, 294.61 320.06, 296.50 320.50 C 297.30 316.03, 299.31 309.35, 292.50 311.50 Z" fill="rgb(82.78873239436619,67.66197183098592,77.49295774647888)" stroke="rgb(82.78873239436619,67.66197183098592,77.49295774647888)" stroke-width="1" />
<path d="M 63.50 310.50 C 63.42 314.91, 62.20 320.46, 68.50 318.50 C 69.58 314.09, 70.80 308.54, 64.50 310.50 Z" fill="rgb(36.55555555555556,18.825396825396826,40.507936507936506)" stroke="rgb(36.55555555555556,18.825396825396826,40.507936507936506)" stroke-width="1" />
<path d="M 283.50 311.50 C 284.10 315.24, 281.28 322.39, 287.50 320.50 C 287.90 316.76, 290.72 309.61, 284.50 311.50 Z" fill="rgb(62.46666666666667,53.35,60.63333333333333)" stroke="rgb(62.46666666666667,53.35,60.63333333333333)" stroke-width="1" />
<path d="M 111.50 340.50 C 112.00 343.51, 109.72 345.37, 110.50 348.50 C 110.43 352.61, 110.96 355.97, 109.50 358.50 C 113.17 359.17, 110.85 354.03, 111.50 351.50 C 111.50 347.50, 111.50 344.50, 111.50 341.50 Z" fill="rgb(54.39473684210526,35.026315789473685,58.73684210526316)" stroke="rgb(54.39473684210526,35.026315789473685,58.73684210526316)" stroke-width="1" />
</svg>