<svg xmlns="http://www.w3.org/2000/svg" width="640" height="427" viewbox="0 0 640 427">
<path d="M 0.50 0.50 C 0.50 88.83, 0.50 177.17, 0.50 265.50 C 0.50 310.50, 0.50 354.50, 0.50 398.50 C 0.50 404.50, 0.50 409.50, 0.50 414.50 C 0.50 417.83, 0.50 420.17, 0.50 422.50 C -0.77 427.43, 2.86 426.47, 5.50 426.50 C 17.17 426.50, 27.83 426.50, 38.50 426.50 C 61.50 426.50, 83.50 426.50, 105.50 426.50 C 283.83 426.50, 461.17 426.50, 638.50 426.50 C 639.50 338.17, 639.50 249.83, 639.50 161.50 C 639.50 116.50, 639.50 72.50, 639.50 28.50 C 639.50 22.50, 639.50 17.50, 639.50 12.50 C 639.50 9.17, 639.50 6.83, 639.50 4.50 C 640.77 -0.43, 637.14 0.53, 634.50 0.50 C 622.83 0.50, 612.17 0.50, 601.50 0.50 C 578.50 0.50, 556.50 0.50, 534.50 0.50 C 356.17 0.50, 178.83 0.50, 1.50 0.50 Z" fill="rgb(126.39339395064019,178.89274447949526,153.20634626090182)" stroke="rgb(126.39339395064019,178.89274447949526,153.20634626090182)" stroke-width="1" />
<path d="M 5.50 2.50 C 4.48 4.39, 2.16 3.14, 0.50 3.50 C 0.50 6.17, 0.50 7.83, 0.50 9.50 C 0.50 14.17, 0.50 17.83, 0.50 21.50 C 0.50 30.17, 0.50 37.83, 0.50 45.50 C 0.50 62.50, 0.50 78.50, 0.50 94.50 C 0.50 127.83, 0.50 160.17, 0.50 192.50 C 0.50 225.50, 0.50 257.50, 0.50 289.50 C 0.86 291.43, -0.39 296.27, 1.50 293.50 C 4.19 293.21, 5.45 291.91, 7.50 292.50 C 12.48 292.40, 16.30 293.69, 19.50 296.50 C 21.75 300.65, 22.86 304.27, 22.50 308.50 C 22.50 311.17, 22.50 312.83, 22.50 314.50 C 24.25 317.77, 22.47 318.97, 22.50 321.50 C 22.50 330.17, 22.50 337.83, 22.50 345.50 C 22.50 350.17, 22.50 353.83, 22.50 357.50 C 26.78 359.71, 32.27 360.43, 35.50 358.50 C 36.13 355.07, 35.07 350.18, 35.50 346.50 C 35.50 341.83, 35.50 338.17, 35.50 334.50 C 35.50 325.83, 35.50 318.17, 35.50 310.50 C 34.90 305.12, 38.89 301.15, 42.50 299.50 C 46.96 294.99, 50.72 292.23, 54.50 289.50 C 59.53 286.70, 62.33 281.96, 66.50 280.50 C 69.75 280.44, 70.74 283.39, 72.50 284.50 C 75.88 284.91, 77.27 287.71, 79.50 288.50 C 81.85 291.26, 84.49 289.92, 85.50 292.50 C 87.85 295.26, 90.49 293.92, 91.50 296.50 C 94.26 298.28, 95.52 300.25, 97.50 300.50 C 100.77 301.25, 99.90 304.83, 102.50 304.50 C 106.01 308.00, 112.49 309.11, 111.50 314.50 C 110.68 319.88, 114.12 323.64, 111.50 327.50 C 113.06 332.07, 111.32 336.60, 113.50 339.50 C 114.50 344.17, 114.50 347.83, 114.50 351.50 C 114.50 354.17, 114.50 355.83, 114.50 357.50 C 116.57 359.78, 117.11 358.36, 119.50 358.50 C 119.76 354.05, 121.66 350.70, 121.50 346.50 C 121.50 329.83, 121.50 314.17, 121.50 298.50 C 121.50 289.83, 121.50 282.17, 121.50 274.50 C 121.14 271.84, 122.39 269.52, 120.50 268.50 C 117.45 268.09, 116.19 266.79, 114.50 266.50 C 112.56 264.09, 109.44 266.91, 108.50 264.50 C 105.12 264.09, 103.73 261.29, 101.50 260.50 C 96.53 256.10, 93.84 252.16, 90.50 248.50 C 89.99 243.63, 87.62 240.53, 87.50 236.50 C 87.72 231.79, 86.80 227.60, 88.50 224.50 C 89.18 219.09, 91.52 215.37, 93.50 211.50 C 97.90 206.87, 101.37 203.38, 105.50 201.50 C 110.04 199.20, 113.96 198.80, 117.50 197.50 C 121.42 195.54, 126.52 196.36, 129.50 197.50 C 132.55 197.91, 133.81 199.21, 135.50 199.50 C 139.22 199.77, 140.87 201.60, 142.50 203.50 C 147.44 206.06, 149.97 209.65, 152.50 213.50 C 155.50 217.89, 156.39 221.74, 157.50 225.50 C 159.20 229.60, 158.28 233.79, 158.50 237.50 C 158.48 240.10, 155.99 242.12, 158.50 243.50 C 159.18 239.96, 162.36 239.90, 163.50 238.50 C 167.44 234.08, 171.67 233.77, 175.50 232.50 C 179.77 229.72, 183.92 232.76, 187.50 232.50 C 192.42 234.89, 196.71 235.37, 199.50 239.50 C 204.90 243.64, 205.67 248.29, 207.50 252.50 C 207.24 257.08, 210.28 261.23, 207.50 264.50 C 205.86 269.18, 205.90 273.55, 202.50 276.50 C 200.44 279.47, 199.47 280.44, 197.50 281.50 C 195.35 284.42, 193.57 284.81, 191.50 284.50 C 188.81 285.79, 187.55 287.09, 185.50 286.50 C 182.20 286.08, 180.77 286.51, 180.50 289.50 C 181.19 294.59, 178.81 297.41, 179.50 301.50 C 179.73 306.40, 179.47 310.10, 178.50 313.50 C 181.31 316.00, 177.46 317.43, 178.50 319.50 C 178.50 322.17, 178.50 323.83, 178.50 325.50 C 178.63 330.69, 178.64 334.83, 177.50 338.50 C 176.22 341.57, 177.64 342.11, 177.50 344.50 C 176.50 347.17, 176.50 348.83, 176.50 350.50 C 176.40 355.54, 175.56 359.64, 180.50 359.50 C 189.17 359.50, 196.83 359.50, 204.50 359.50 C 209.17 359.50, 212.83 359.50, 216.50 359.50 C 221.41 358.61, 218.69 352.63, 219.50 349.50 C 219.50 340.50, 219.50 332.50, 219.50 324.50 C 219.50 319.83, 219.50 316.17, 219.50 312.50 C 217.98 306.15, 222.33 304.53, 225.50 301.50 C 230.74 299.23, 233.89 295.31, 237.50 292.50 C 242.31 289.04, 246.21 285.80, 250.50 283.50 C 254.99 281.36, 258.36 274.78, 262.50 278.50 C 267.07 281.08, 270.84 283.15, 274.50 285.50 C 278.76 289.14, 283.21 289.93, 286.50 293.50 C 291.77 295.51, 295.23 299.49, 299.50 301.50 C 304.68 303.25, 307.94 307.53, 308.50 311.50 C 308.50 316.17, 308.50 319.83, 308.50 323.50 C 308.50 332.17, 308.50 339.83, 308.50 347.50 C 309.06 352.07, 307.32 356.60, 309.50 359.50 C 314.17 359.50, 317.83 359.50, 321.50 359.50 C 330.50 359.50, 338.50 359.50, 346.50 359.50 C 350.85 359.50, 356.77 360.37, 355.50 355.50 C 355.08 350.21, 356.35 346.98, 355.50 343.50 C 355.50 334.50, 355.50 326.50, 355.50 318.50 C 355.27 313.60, 355.53 309.90, 356.50 306.50 C 359.90 302.18, 363.72 299.89, 367.50 297.50 C 372.08 293.30, 376.30 291.63, 379.50 287.50 C 381.83 285.37, 384.17 285.63, 385.50 283.50 C 389.01 282.74, 389.61 278.36, 392.50 279.50 C 397.82 279.92, 401.12 282.82, 404.50 285.50 C 408.88 288.86, 412.98 290.49, 416.50 293.50 C 421.13 296.25, 424.95 298.54, 428.50 301.50 C 433.07 303.61, 438.98 307.88, 435.50 312.50 C 435.50 321.17, 435.50 328.83, 435.50 336.50 C 435.50 341.17, 435.50 344.83, 435.50 348.50 C 435.61 353.18, 434.79 359.61, 439.50 359.50 C 444.05 359.36, 449.18 359.69, 450.50 356.50 C 450.50 351.83, 450.50 348.17, 450.50 344.50 C 450.50 335.50, 450.50 327.50, 450.50 319.50 C 450.50 314.83, 450.50 311.17, 450.50 307.50 C 452.39 305.48, 451.14 303.16, 451.50 301.50 C 454.17 298.83, 455.83 297.17, 457.50 295.50 C 462.00 292.09, 465.89 289.64, 469.50 286.50 C 474.83 283.64, 478.33 279.75, 482.50 277.50 C 487.35 274.61, 490.35 270.66, 494.50 269.50 C 496.92 266.90, 498.56 265.83, 500.50 265.50 C 503.48 266.75, 504.74 268.72, 506.50 269.50 C 511.43 272.19, 514.90 275.01, 518.50 277.50 C 523.54 279.93, 527.00 282.77, 530.50 285.50 C 534.53 289.70, 539.47 289.30, 542.50 293.50 C 546.20 297.38, 551.94 297.62, 552.50 302.50 C 552.50 311.50, 552.50 319.50, 552.50 327.50 C 552.50 336.17, 552.50 343.83, 552.50 351.50 C 551.94 356.41, 552.32 361.08, 557.50 359.50 C 562.75 359.97, 567.37 358.74, 570.50 359.50 C 573.16 359.14, 575.48 360.39, 576.50 358.50 C 579.23 358.56, 581.34 359.00, 580.50 356.50 C 580.00 351.21, 580.99 347.54, 583.50 344.50 C 586.25 340.34, 583.05 335.23, 584.50 332.50 C 584.37 327.31, 584.36 323.17, 585.50 319.50 C 584.72 314.37, 586.85 311.45, 586.50 307.50 C 586.50 302.83, 586.50 299.17, 586.50 295.50 C 586.15 290.55, 588.28 287.63, 587.50 283.50 C 587.50 278.83, 587.50 275.17, 587.50 271.50 C 586.94 268.39, 583.66 270.00, 582.50 269.50 C 579.84 268.14, 577.52 269.39, 576.50 267.50 C 571.70 265.82, 567.74 264.53, 564.50 261.50 C 559.91 257.22, 557.50 253.44, 555.50 249.50 C 555.22 246.40, 552.78 245.60, 553.50 243.50 C 552.08 240.53, 553.48 237.82, 551.50 236.50 C 550.72 231.37, 552.85 228.45, 552.50 224.50 C 554.60 220.01, 554.71 215.70, 557.50 212.50 C 561.72 208.03, 564.20 204.54, 568.50 202.50 C 570.88 200.13, 572.90 200.33, 574.50 199.50 C 577.19 198.08, 579.07 197.12, 581.50 197.50 C 585.30 195.88, 590.70 195.88, 593.50 197.50 C 598.26 198.61, 602.11 199.50, 605.50 201.50 C 611.04 204.20, 612.85 208.17, 616.50 211.50 C 619.05 216.55, 622.85 219.67, 622.50 224.50 C 624.20 228.60, 623.28 232.79, 623.50 236.50 C 622.62 241.22, 621.13 244.68, 620.50 248.50 C 618.11 253.70, 614.74 257.07, 611.50 260.50 C 607.14 264.23, 603.28 265.77, 599.50 267.50 C 593.48 267.85, 596.17 274.50, 595.50 277.50 C 593.97 279.44, 593.97 282.56, 595.50 283.50 C 594.50 286.17, 594.50 287.83, 594.50 289.50 C 594.50 294.17, 594.50 297.83, 594.50 301.50 C 593.36 306.17, 593.37 310.31, 593.50 314.50 C 591.32 318.40, 593.06 322.93, 592.50 326.50 C 590.10 330.61, 592.05 335.24, 592.50 338.50 C 596.18 342.47, 597.19 346.55, 598.50 350.50 C 598.87 355.13, 596.67 361.33, 602.50 359.50 C 605.16 359.14, 607.48 360.39, 608.50 358.50 C 611.19 358.79, 612.45 360.09, 614.50 359.50 C 619.17 358.50, 622.83 358.50, 626.50 358.50 C 629.55 357.91, 630.81 359.21, 632.50 359.50 C 635.60 360.22, 636.40 357.78, 638.50 358.50 C 639.50 354.50, 639.50 350.50, 639.50 346.50 C 639.50 280.50, 639.50 215.50, 639.50 150.50 C 639.50 117.50, 639.50 85.50, 639.50 53.50 C 639.50 36.50, 639.50 20.50, 639.50 4.50 C 638.11 1.22, 632.54 3.13, 629.50 2.50 C 624.83 2.50, 621.17 2.50, 617.50 2.50 C 608.50 2.50, 600.50 2.50, 592.50 2.50 C 526.83 2.50, 462.17 2.50, 397.50 2.50 C 380.83 2.50, 365.17 2.50, 349.50 2.50 C 344.83 2.50, 341.17 2.50, 337.50 2.50 C 332.39 1.60, 328.69 4.15, 325.50 2.50 C 323.48 1.61, 321.16 2.86, 319.50 2.50 C 317.48 1.61, 315.16 2.86, 313.50 2.50 C 308.33 3.17, 305.28 2.25, 300.50 2.50 C 297.07 3.13, 292.18 2.07, 288.50 2.50 C 285.83 2.50, 284.17 2.50, 282.50 2.50 C 279.90 2.52, 277.88 5.01, 276.50 2.50 C 273.83 2.50, 272.17 2.50, 270.50 2.50 C 267.11 3.64, 266.57 2.22, 264.50 3.50 C 260.37 2.74, 255.75 3.97, 251.50 3.50 C 234.50 3.50, 218.50 3.50, 202.50 3.50 C 185.50 3.50, 169.50 3.50, 153.50 3.50 C 148.93 2.94, 144.40 4.68, 141.50 2.50 C 136.83 3.50, 133.17 3.50, 129.50 3.50 C 120.50 3.50, 112.50 3.50, 104.50 3.50 C 87.50 3.50, 71.50 3.50, 55.50 3.50 C 46.83 3.50, 39.17 3.50, 31.50 3.50 C 26.83 3.50, 23.17 3.50, 19.50 3.50 C 14.05 4.26, 10.87 1.93, 6.50 2.50 Z" fill="rgb(107.95068793046457,170.98118554885417,145.98379746286693)" stroke="rgb(107.95068793046457,170.98118554885417,145.98379746286693)" stroke-width="1" />
<path d="M 6.50 293.50 C 3.77 295.57, -1.09 294.41, 0.50 299.50 C 0.50 304.17, 0.50 307.83, 0.50 311.50 C 0.50 320.17, 0.50 327.83, 0.50 335.50 C 0.50 352.17, 0.50 367.83, 0.50 383.50 C 0.50 392.17, 0.50 399.83, 0.50 407.50 C 0.50 412.17, 0.50 415.83, 0.50 419.50 C 0.50 422.17, 0.50 423.83, 0.50 425.50 C 3.17 425.50, 4.83 425.50, 6.50 425.50 C 23.17 425.50, 38.83 425.50, 54.50 425.50 C 71.17 425.50, 86.83 425.50, 102.50 425.50 C 111.17 425.50, 118.83 425.50, 126.50 425.50 C 132.01 425.40, 134.15 425.11, 138.50 425.50 C 141.16 425.14, 143.48 426.39, 144.50 424.50 C 146.52 426.39, 148.84 425.14, 150.50 425.50 C 154.91 423.29, 158.33 426.54, 162.50 425.50 C 166.90 425.47, 170.60 425.73, 174.50 425.50 C 178.61 425.98, 183.39 425.98, 186.50 424.50 C 191.04 427.01, 194.38 423.59, 198.50 424.50 C 202.59 427.70, 207.24 421.92, 210.50 425.50 C 215.10 424.26, 218.90 424.26, 222.50 425.50 C 226.40 423.32, 230.93 425.06, 234.50 424.50 C 239.17 424.50, 242.83 424.50, 246.50 424.50 C 254.83 424.50, 262.17 424.50, 269.50 424.50 C 274.21 424.72, 278.40 423.80, 281.50 425.50 C 286.17 424.50, 289.83 424.50, 293.50 424.50 C 302.17 424.50, 309.83 424.50, 317.50 424.50 C 321.98 425.35, 325.21 424.08, 329.50 424.50 C 332.55 426.09, 333.81 424.79, 335.50 424.50 C 338.60 423.78, 339.40 426.22, 341.50 425.50 C 344.60 426.22, 345.40 423.78, 347.50 424.50 C 349.52 426.39, 351.84 425.14, 353.50 425.50 C 358.17 425.50, 361.83 425.50, 365.50 425.50 C 374.17 425.50, 381.83 425.50, 389.50 425.50 C 393.84 422.56, 397.51 426.70, 401.50 425.50 C 406.56 426.11, 409.79 424.73, 413.50 424.50 C 417.60 426.20, 421.79 425.28, 425.50 425.50 C 428.17 425.50, 429.83 425.50, 431.50 425.50 C 434.19 424.79, 435.45 426.09, 437.50 425.50 C 440.60 426.22, 441.40 423.78, 443.50 424.50 C 446.17 425.50, 447.83 425.50, 449.50 425.50 C 454.17 425.50, 457.83 425.50, 461.50 425.50 C 470.17 425.50, 477.83 425.50, 485.50 425.50 C 502.17 425.50, 517.83 425.50, 533.50 425.50 C 566.17 425.50, 597.83 425.50, 629.50 425.50 C 633.21 424.88, 638.44 426.77, 639.50 424.50 C 639.50 419.83, 639.50 416.17, 639.50 412.50 C 639.50 403.83, 639.50 396.17, 639.50 388.50 C 639.50 379.83, 639.50 372.17, 639.50 364.50 C 639.89 359.45, 633.27 362.40, 630.50 361.50 C 625.83 361.50, 622.17 361.50, 618.50 361.50 C 613.83 361.50, 610.17 361.50, 606.50 361.50 C 601.93 362.06, 597.40 360.32, 594.50 362.50 C 592.00 359.69, 590.57 363.54, 588.50 362.50 C 585.81 362.21, 584.55 360.91, 582.50 361.50 C 577.83 361.50, 574.17 361.50, 570.50 361.50 C 565.83 361.50, 562.17 361.50, 558.50 361.50 C 552.96 361.62, 550.00 361.34, 546.50 362.50 C 537.83 362.50, 530.17 362.50, 522.50 362.50 C 513.83 362.50, 506.17 362.50, 498.50 362.50 C 493.83 362.50, 490.17 362.50, 486.50 362.50 C 481.93 363.06, 477.40 361.32, 474.50 363.50 C 470.19 361.56, 465.91 362.72, 462.50 363.50 C 457.83 362.50, 454.17 362.50, 450.50 362.50 C 445.83 361.50, 442.17 361.50, 438.50 361.50 C 434.60 363.68, 430.07 361.94, 426.50 362.50 C 409.83 362.50, 394.17 362.50, 378.50 362.50 C 369.91 361.97, 361.42 363.64, 354.50 361.50 C 345.83 361.50, 338.17 361.50, 330.50 361.50 C 322.17 361.50, 314.83 361.50, 307.50 361.50 C 298.83 362.50, 291.17 362.50, 283.50 362.50 C 266.83 362.50, 251.17 362.50, 235.50 362.50 C 230.79 362.28, 226.60 363.20, 223.50 361.50 C 219.40 360.80, 215.21 361.72, 211.50 361.50 C 202.83 361.50, 195.17 361.50, 187.50 361.50 C 182.65 361.72, 178.22 360.54, 175.50 363.50 C 170.81 367.37, 167.61 360.90, 163.50 361.50 C 154.83 361.50, 147.17 361.50, 139.50 361.50 C 135.40 363.20, 131.21 362.28, 127.50 362.50 C 122.37 363.28, 119.45 361.15, 115.50 361.50 C 107.36 363.11, 99.24 362.33, 91.50 362.50 C 89.00 359.69, 87.57 363.54, 85.50 362.50 C 82.83 362.50, 81.17 362.50, 79.50 362.50 C 74.83 362.50, 71.17 362.50, 67.50 362.50 C 58.83 362.50, 51.17 362.50, 43.50 362.50 C 39.10 361.53, 35.40 361.27, 31.50 361.50 C 27.37 360.69, 21.39 363.41, 20.50 359.50 C 21.64 351.58, 19.97 343.09, 20.50 335.50 C 21.06 330.93, 19.32 326.40, 21.50 323.50 C 19.72 318.37, 21.85 315.45, 21.50 311.50 C 19.04 307.58, 21.83 302.48, 19.50 299.50 C 15.47 295.30, 12.06 293.01, 7.50 293.50 Z" fill="rgb(174.1873417721519,209.52151898734178,179.58987341772152)" stroke="rgb(174.1873417721519,209.52151898734178,179.58987341772152)" stroke-width="1" />
<path d="M 580.50 360.50 C 578.24 362.63, 574.42 360.98, 571.50 361.50 C 567.17 361.50, 563.83 361.50, 560.50 361.50 C 552.50 361.50, 545.50 361.50, 538.50 361.50 C 523.17 361.50, 508.83 361.50, 494.50 361.50 C 479.17 361.50, 464.83 361.50, 450.50 361.50 C 446.17 361.50, 442.83 361.50, 439.50 361.50 C 435.03 361.50, 432.26 363.20, 428.50 362.50 C 420.50 362.50, 413.50 362.50, 406.50 362.50 C 391.17 362.50, 376.83 362.50, 362.50 362.50 C 355.13 360.66, 347.51 361.82, 340.50 361.50 C 332.50 361.50, 325.50 361.50, 318.50 361.50 C 314.17 361.50, 310.83 361.50, 307.50 361.50 C 303.17 362.50, 299.83 362.50, 296.50 362.50 C 288.50 362.50, 281.50 362.50, 274.50 362.50 C 259.17 362.50, 244.83 362.50, 230.50 362.50 C 228.15 362.21, 226.24 363.28, 225.50 361.50 C 222.90 361.52, 220.88 364.01, 219.50 361.50 C 215.17 361.50, 211.83 361.50, 208.50 361.50 C 200.50 361.50, 193.50 361.50, 186.50 361.50 C 182.25 362.04, 178.08 360.34, 175.50 362.50 C 172.42 368.19, 168.78 363.23, 166.50 361.50 C 158.50 361.50, 151.50 361.50, 144.50 361.50 C 140.09 361.65, 136.31 360.90, 133.50 362.50 C 129.25 361.96, 125.08 363.66, 122.50 361.50 C 118.17 361.50, 114.83 361.50, 111.50 361.50 C 106.68 361.89, 104.68 362.58, 100.50 362.50 C 96.25 361.96, 92.08 363.66, 89.50 361.50 C 87.76 363.28, 85.85 362.21, 84.50 362.50 C 81.81 361.79, 80.55 363.09, 78.50 362.50 C 70.50 362.50, 63.50 362.50, 56.50 362.50 C 52.17 362.50, 48.83 362.50, 45.50 362.50 C 40.81 363.04, 38.29 360.73, 34.50 361.50 C 30.17 361.50, 26.83 361.50, 23.50 361.50 C 19.51 362.99, 15.85 362.87, 12.50 363.50 C 9.67 364.70, 8.59 361.00, 7.50 363.50 C 5.56 361.97, 2.44 361.97, 1.50 363.50 C 0.50 366.83, 0.50 370.17, 0.50 373.50 C 0.50 381.50, 0.50 388.50, 0.50 395.50 C 0.50 403.50, 0.50 410.50, 0.50 417.50 C 1.01 421.32, -1.29 426.95, 3.50 425.50 C 7.33 423.01, 11.48 425.22, 14.50 425.50 C 29.83 425.50, 44.17 425.50, 58.50 425.50 C 66.17 425.50, 72.83 425.50, 79.50 425.50 C 83.83 425.50, 87.17 425.50, 90.50 425.50 C 95.61 425.23, 97.39 425.23, 101.50 425.50 C 105.85 425.97, 109.51 422.65, 112.50 425.50 C 116.08 423.34, 120.25 425.04, 123.50 424.50 C 127.83 424.50, 131.17 424.50, 134.50 424.50 C 139.68 424.42, 141.68 425.11, 145.50 424.50 C 175.50 424.50, 204.50 424.50, 233.50 424.50 C 292.83 424.50, 351.17 424.50, 409.50 424.50 C 468.83 424.50, 527.17 424.50, 585.50 424.50 C 600.83 424.50, 615.17 424.50, 629.50 424.50 C 633.35 423.87, 638.01 427.47, 639.50 424.50 C 639.50 420.17, 639.50 416.83, 639.50 413.50 C 639.50 405.50, 639.50 398.50, 639.50 391.50 C 639.50 383.50, 639.50 376.50, 639.50 369.50 C 638.99 365.68, 641.29 360.05, 636.50 361.50 C 632.17 361.50, 628.83 361.50, 625.50 361.50 C 617.50 361.50, 610.50 361.50, 603.50 361.50 C 598.91 359.82, 596.43 361.69, 592.50 361.50 C 588.25 360.96, 584.08 362.66, 581.50 360.50 Z" fill="rgb(175.06392996395203,210.05309105176684,180.0393339709164)" stroke="rgb(175.06392996395203,210.05309105176684,180.0393339709164)" stroke-width="1" />
<path d="M 499.50 267.50 C 496.78 269.03, 494.42 271.43, 491.50 272.50 C 487.75 276.42, 484.10 277.20, 481.50 280.50 C 478.17 283.32, 475.16 284.48, 472.50 286.50 C 468.45 289.71, 465.28 291.63, 462.50 294.50 C 458.99 296.87, 456.42 299.12, 453.50 300.50 C 451.37 303.76, 453.02 307.58, 452.50 310.50 C 452.50 317.83, 452.50 324.17, 452.50 330.50 C 452.50 337.50, 452.50 343.50, 452.50 349.50 C 453.02 353.42, 451.37 357.24, 453.50 359.50 C 457.50 359.50, 460.50 359.50, 463.50 359.50 C 477.17 359.50, 489.83 359.50, 502.50 359.50 C 515.83 359.50, 528.17 359.50, 540.50 359.50 C 544.17 359.50, 546.83 359.50, 549.50 359.50 C 550.50 355.50, 550.50 352.50, 550.50 349.50 C 550.50 342.17, 550.50 335.83, 550.50 329.50 C 550.50 322.50, 550.50 316.50, 550.50 310.50 C 549.98 306.58, 551.63 302.76, 549.50 300.50 C 545.67 297.09, 542.70 295.01, 539.50 293.50 C 535.78 290.97, 533.42 288.57, 530.50 287.50 C 526.51 284.47, 523.49 282.53, 520.50 280.50 C 516.03 278.96, 513.80 275.44, 510.50 274.50 C 506.36 271.84, 503.71 268.99, 500.50 267.50 Z" fill="rgb(245.3023640271119,228.18548520416599,191.94362704579268)" stroke="rgb(245.3023640271119,228.18548520416599,191.94362704579268)" stroke-width="1" />
<path d="M 258.50 279.50 C 256.19 281.22, 254.11 283.50, 251.50 284.50 C 247.78 287.38, 245.07 289.27, 242.50 291.50 C 238.73 293.10, 237.16 296.61, 234.50 297.50 C 231.11 301.17, 227.89 301.83, 225.50 304.50 C 221.35 305.47, 221.22 309.12, 221.50 311.50 C 221.50 315.17, 221.50 317.83, 221.50 320.50 C 221.50 326.83, 221.50 332.17, 221.50 337.50 C 221.50 343.83, 221.50 349.17, 221.50 354.50 C 220.67 358.39, 222.61 360.33, 225.50 359.50 C 229.17 359.50, 231.83 359.50, 234.50 359.50 C 241.65 359.66, 245.35 359.66, 251.50 359.50 C 257.83 359.50, 263.17 359.50, 268.50 359.50 C 280.50 359.50, 291.50 359.50, 302.50 359.50 C 306.84 360.50, 306.78 358.11, 306.50 355.50 C 306.50 351.83, 306.50 349.17, 306.50 346.50 C 306.50 340.17, 306.50 334.83, 306.50 329.50 C 306.50 323.17, 306.50 317.83, 306.50 312.50 C 306.05 308.52, 305.20 306.47, 302.50 305.50 C 298.58 303.43, 296.22 301.03, 293.50 299.50 C 290.41 297.25, 287.78 296.31, 285.50 294.50 C 281.58 292.43, 279.22 290.03, 276.50 288.50 C 273.41 286.25, 270.78 285.31, 268.50 283.50 C 265.17 281.34, 262.65 279.66, 259.50 279.50 Z" fill="rgb(217.3530059458269,134.6049328341775,109.58929751156133)" stroke="rgb(217.3530059458269,134.6049328341775,109.58929751156133)" stroke-width="1" />
<path d="M 393.50 280.50 C 391.41 282.75, 388.78 283.69, 386.50 285.50 C 382.89 287.50, 380.81 289.78, 378.50 291.50 C 375.47 294.23, 372.75 295.29, 370.50 297.50 C 367.39 299.70, 365.13 301.54, 362.50 302.50 C 358.80 304.47, 357.95 306.52, 358.50 309.50 C 357.50 312.83, 357.50 315.17, 357.50 317.50 C 357.50 323.50, 357.50 328.50, 357.50 333.50 C 357.50 339.50, 357.50 344.50, 357.50 349.50 C 357.96 352.78, 356.46 355.87, 358.50 357.50 C 358.62 360.71, 362.74 358.92, 364.50 359.50 C 375.83 359.50, 386.17 359.50, 396.50 359.50 C 402.68 359.40, 407.06 361.22, 412.50 360.50 C 417.34 359.53, 424.10 361.85, 428.50 359.50 C 431.29 358.62, 434.81 360.55, 433.50 356.50 C 433.50 353.17, 433.50 350.83, 433.50 348.50 C 433.50 342.50, 433.50 337.50, 433.50 332.50 C 433.50 326.50, 433.50 321.50, 433.50 316.50 C 433.50 313.17, 433.50 310.83, 433.50 308.50 C 432.45 304.66, 429.39 305.12, 427.50 302.50 C 424.41 300.25, 421.78 299.31, 419.50 297.50 C 415.80 296.06, 414.20 292.94, 411.50 292.50 C 408.22 289.69, 405.59 288.75, 403.50 286.50 C 400.11 283.83, 396.89 283.17, 394.50 280.50 Z" fill="rgb(48.54113629307668,6.293387146848804,44.877056814653834)" stroke="rgb(48.54113629307668,6.293387146848804,44.877056814653834)" stroke-width="1" />
<path d="M 66.50 282.50 C 64.84 284.99, 62.29 285.33, 60.50 287.50 C 56.84 289.39, 55.27 292.90, 52.50 293.50 C 47.39 298.58, 41.09 301.09, 38.50 306.50 C 38.50 317.50, 38.50 327.50, 38.50 337.50 C 38.50 343.17, 38.50 347.83, 38.50 352.50 C 38.92 355.47, 37.52 358.18, 39.50 359.50 C 42.83 359.50, 45.17 359.50, 47.50 359.50 C 58.50 359.50, 68.50 359.50, 78.50 359.50 C 84.50 360.82, 89.22 356.61, 93.50 359.50 C 99.17 359.50, 103.83 359.50, 108.50 359.50 C 111.67 359.67, 109.95 355.95, 110.50 354.50 C 110.65 350.59, 111.16 348.39, 111.50 346.50 C 111.11 340.52, 109.96 335.86, 110.50 330.50 C 110.50 324.83, 110.50 320.17, 110.50 315.50 C 111.34 311.54, 108.07 310.83, 106.50 309.50 C 102.87 307.54, 100.61 305.70, 98.50 303.50 C 93.10 299.53, 87.90 297.47, 83.50 293.50 C 80.19 291.78, 78.11 289.50, 75.50 288.50 C 71.80 287.06, 70.20 283.94, 67.50 283.50 Z" fill="rgb(46.29940476190476,6.266666666666667,45.154761904761905)" stroke="rgb(46.29940476190476,6.266666666666667,45.154761904761905)" stroke-width="1" />
<path d="M 120.50 198.50 C 117.24 200.49, 112.59 199.10, 109.50 201.50 C 104.71 203.88, 100.67 205.64, 97.50 209.50 C 94.07 213.99, 91.81 217.55, 90.50 221.50 C 89.38 225.98, 89.03 229.78, 88.50 233.50 C 88.96 238.67, 90.23 242.09, 91.50 245.50 C 93.45 250.88, 97.01 254.18, 100.50 257.50 C 104.86 261.23, 108.72 262.77, 112.50 264.50 C 116.06 267.22, 124.02 262.83, 123.50 268.50 C 123.50 285.17, 123.50 300.83, 123.50 316.50 C 123.50 325.17, 123.50 332.83, 123.50 340.50 C 123.50 345.17, 123.50 348.83, 123.50 352.50 C 123.50 355.17, 123.50 356.83, 123.50 358.50 C 125.50 359.50, 127.50 359.50, 129.50 359.50 C 135.84 361.07, 134.98 354.11, 133.50 351.50 C 130.57 348.84, 130.61 347.50, 128.50 346.50 C 125.09 344.56, 127.91 341.44, 125.50 340.50 C 125.50 331.83, 125.50 324.17, 125.50 316.50 C 125.50 299.50, 125.50 283.50, 125.50 267.50 C 126.37 262.26, 133.01 266.12, 135.50 263.50 C 140.26 261.39, 144.35 260.09, 147.50 256.50 C 151.18 252.12, 154.08 248.82, 154.50 244.50 C 154.78 241.40, 157.22 240.60, 156.50 238.50 C 155.75 235.26, 159.35 233.30, 156.50 231.50 C 157.04 226.33, 155.77 222.91, 154.50 219.50 C 153.63 216.50, 151.37 215.50, 151.50 213.50 C 148.23 211.75, 149.10 208.17, 146.50 208.50 C 142.25 204.17, 138.56 201.88, 134.50 200.50 C 129.88 198.92, 125.85 198.32, 121.50 198.50 Z" fill="rgb(131.1086956521739,165.80434782608697,147.93478260869566)" stroke="rgb(131.1086956521739,165.80434782608697,147.93478260869566)" stroke-width="1" />
<path d="M 153.50 253.50 C 150.91 254.87, 148.71 257.20, 146.50 259.50 C 143.22 262.31, 140.59 263.25, 138.50 265.50 C 134.59 265.65, 132.39 266.16, 130.50 266.50 C 129.35 270.17, 127.58 272.05, 129.50 274.50 C 127.55 279.83, 128.89 285.52, 128.50 290.50 C 128.50 296.50, 128.50 301.50, 128.50 306.50 C 128.50 312.50, 128.50 317.50, 128.50 322.50 C 131.36 324.56, 127.49 324.97, 128.50 326.50 C 131.36 328.56, 127.49 328.97, 128.50 330.50 C 129.56 333.53, 129.68 335.95, 129.50 338.50 C 127.96 346.11, 136.63 348.48, 136.50 354.50 C 135.73 361.35, 144.30 358.98, 148.50 359.50 C 154.50 359.50, 159.50 359.50, 164.50 359.50 C 168.91 360.48, 168.70 356.75, 168.50 354.50 C 168.42 351.00, 170.23 349.27, 169.50 346.50 C 169.40 340.32, 171.22 335.94, 170.50 330.50 C 169.81 324.08, 172.19 319.92, 171.50 314.50 C 171.32 310.95, 171.44 308.53, 172.50 306.50 C 171.77 302.73, 173.58 301.00, 173.50 298.50 C 173.50 295.17, 173.50 292.83, 173.50 290.50 C 175.52 287.68, 172.19 284.39, 169.50 285.50 C 165.22 285.11, 163.87 281.08, 161.50 279.50 C 158.78 276.19, 156.50 274.11, 155.50 271.50 C 154.22 268.42, 153.30 266.19, 153.50 263.50 C 150.81 260.20, 153.67 257.08, 153.50 254.50 Z" fill="rgb(107.87691111686965,170.86784140969164,145.91811350090697)" stroke="rgb(107.87691111686965,170.86784140969164,145.91811350090697)" stroke-width="1" />
<path d="M 581.50 198.50 C 579.45 199.84, 576.90 200.00, 574.50 200.50 C 570.48 202.32, 567.98 204.39, 565.50 206.50 C 561.94 208.93, 559.59 211.46, 558.50 214.50 C 556.38 218.12, 554.69 220.50, 554.50 223.50 C 553.50 229.83, 553.50 235.17, 553.50 240.50 C 554.05 244.63, 555.99 246.77, 556.50 249.50 C 558.59 253.54, 560.94 256.07, 563.50 258.50 C 566.59 261.75, 569.22 262.69, 571.50 264.50 C 574.82 266.01, 577.44 266.78, 580.50 266.50 C 583.57 266.91, 588.07 268.74, 588.50 266.50 C 588.50 262.83, 588.50 260.17, 588.50 257.50 C 587.89 254.44, 590.11 249.55, 586.50 250.50 C 583.33 248.82, 579.03 247.06, 579.50 243.50 C 577.07 240.18, 579.41 236.70, 580.50 234.50 C 582.84 230.70, 585.46 228.60, 588.50 227.50 C 592.23 227.20, 594.64 227.69, 596.50 229.50 C 600.70 232.53, 600.88 235.82, 602.50 238.50 C 601.41 242.27, 601.22 245.41, 598.50 247.50 C 595.07 250.71, 592.97 253.06, 593.50 256.50 C 593.50 260.17, 593.50 262.83, 593.50 265.50 C 595.86 269.09, 598.55 264.72, 601.50 265.50 C 605.52 263.68, 608.02 261.61, 610.50 259.50 C 614.06 256.07, 616.41 253.54, 617.50 250.50 C 617.86 246.63, 621.14 245.37, 620.50 242.50 C 622.59 239.56, 621.01 236.10, 621.50 233.50 C 621.01 229.90, 622.59 226.44, 620.50 224.50 C 620.18 220.55, 619.25 217.86, 617.50 215.50 C 615.58 211.25, 611.60 209.27, 609.50 206.50 C 605.96 203.52, 603.14 202.23, 600.50 200.50 C 594.45 198.36, 588.53 198.30, 582.50 198.50 Z" fill="rgb(185.8252427184466,211.07178581935864,186.03147984701383)" stroke="rgb(185.8252427184466,211.07178581935864,186.03147984701383)" stroke-width="1" />
<path d="M 119.50 198.50 C 117.96 201.09, 114.04 197.91, 112.50 200.50 C 108.68 201.46, 106.03 202.83, 103.50 204.50 C 99.25 206.42, 97.27 210.40, 94.50 212.50 C 92.83 216.03, 91.46 218.68, 90.50 221.50 C 87.91 224.04, 91.09 227.96, 88.50 229.50 C 87.90 233.55, 89.25 235.80, 89.50 238.50 C 90.63 242.11, 90.86 245.10, 92.50 247.50 C 94.79 250.50, 96.18 254.51, 98.50 255.50 C 101.65 258.62, 103.62 261.15, 106.50 261.50 C 110.11 263.63, 113.10 263.86, 115.50 265.50 C 118.89 265.44, 123.50 266.45, 122.50 262.50 C 122.01 258.90, 123.59 255.44, 121.50 253.50 C 118.21 252.98, 114.89 251.24, 114.50 248.50 C 111.99 245.18, 111.22 242.56, 111.50 239.50 C 113.12 235.82, 113.30 232.53, 116.50 230.50 C 119.55 227.34, 122.49 227.33, 125.50 227.50 C 132.02 228.11, 138.54 233.02, 137.50 239.50 C 137.95 243.63, 136.01 245.77, 135.50 248.50 C 133.87 252.55, 129.71 252.88, 127.50 254.50 C 127.50 257.83, 127.50 260.17, 127.50 262.50 C 127.93 265.74, 132.43 263.91, 134.50 264.50 C 138.65 263.34, 141.17 261.66, 143.50 259.50 C 147.03 256.92, 149.95 254.49, 151.50 251.50 C 152.88 247.91, 155.12 246.09, 155.50 243.50 C 157.64 240.45, 155.58 236.65, 157.50 234.50 C 157.25 230.80, 155.90 228.55, 156.50 225.50 C 154.40 222.15, 155.50 218.48, 152.50 216.50 C 151.10 213.06, 148.90 210.94, 147.50 208.50 C 143.48 206.68, 141.62 203.08, 138.50 202.50 C 134.77 200.99, 132.63 199.05, 129.50 199.50 C 125.83 198.50, 123.17 198.50, 120.50 198.50 Z" fill="rgb(185.68359251031418,210.98095842589655,185.9612821326563)" stroke="rgb(185.68359251031418,210.98095842589655,185.9612821326563)" stroke-width="1" />
<path d="M 176.50 233.50 C 173.99 234.88, 170.99 235.08, 168.50 236.50 C 164.36 238.34, 162.17 242.06, 160.50 244.50 C 159.15 248.44, 156.18 250.29, 156.50 253.50 C 154.37 256.76, 156.02 260.58, 155.50 263.50 C 156.12 267.32, 157.61 269.79, 158.50 272.50 C 160.71 276.89, 164.68 279.62, 167.50 281.50 C 171.23 283.95, 174.66 283.41, 176.50 284.50 C 176.50 288.50, 176.50 291.50, 176.50 294.50 C 174.41 297.44, 175.99 300.90, 175.50 303.50 C 176.00 307.51, 173.72 309.37, 174.50 312.50 C 175.00 316.51, 172.72 318.37, 173.50 321.50 C 173.43 325.61, 173.96 328.97, 172.50 331.50 C 172.50 335.17, 172.50 337.83, 172.50 340.50 C 173.19 344.93, 170.81 347.07, 171.50 350.50 C 171.50 354.17, 171.50 356.83, 171.50 359.50 C 171.44 365.47, 174.14 358.63, 173.50 356.50 C 172.75 349.39, 174.69 344.38, 174.50 338.50 C 174.46 334.68, 174.21 331.77, 175.50 329.50 C 175.50 325.50, 175.50 322.50, 175.50 319.50 C 177.59 316.56, 176.01 313.10, 176.50 310.50 C 176.25 306.26, 178.27 303.96, 177.50 300.50 C 177.46 296.68, 177.21 293.77, 178.50 291.50 C 178.12 287.43, 178.20 283.19, 182.50 284.50 C 186.56 284.78, 189.18 284.01, 191.50 282.50 C 195.16 280.48, 198.17 279.32, 200.50 276.50 C 203.70 273.47, 203.88 270.18, 205.50 267.50 C 205.25 263.26, 207.27 260.96, 206.50 257.50 C 206.18 253.69, 205.25 251.13, 204.50 248.50 C 202.06 244.40, 199.69 241.28, 196.50 238.50 C 193.41 235.78, 190.27 235.59, 187.50 234.50 C 183.97 233.04, 180.61 233.57, 177.50 233.50 Z" fill="rgb(181.43478260869566,183.32608695652175,158.7826086956522)" stroke="rgb(181.43478260869566,183.32608695652175,158.7826086956522)" stroke-width="1" />
<path d="M 176.50 233.50 C 172.80 235.08, 168.78 235.89, 165.50 238.50 C 160.36 242.89, 158.74 247.32, 156.50 251.50 C 155.53 255.90, 155.27 259.60, 155.50 263.50 C 156.78 268.80, 157.75 273.22, 161.50 276.50 C 165.44 281.58, 169.65 282.60, 173.50 284.50 C 177.26 282.87, 176.36 277.20, 176.50 273.50 C 175.78 270.40, 178.22 269.60, 177.50 267.50 C 179.15 264.69, 174.29 262.07, 178.50 260.50 C 180.85 263.70, 183.49 259.06, 184.50 261.50 C 188.23 260.14, 190.02 264.87, 186.50 264.50 C 184.04 269.09, 182.91 261.62, 182.50 265.50 C 180.58 267.65, 180.19 269.43, 180.50 271.50 C 180.50 276.50, 180.50 280.50, 180.50 284.50 C 186.13 285.34, 189.45 283.05, 193.50 282.50 C 199.02 279.22, 201.98 274.51, 204.50 270.50 C 205.42 265.94, 206.57 262.47, 206.50 258.50 C 205.88 253.21, 205.61 248.76, 202.50 245.50 C 198.82 240.72, 195.17 236.89, 190.50 235.50 C 186.03 233.54, 181.85 233.31, 177.50 233.50 Z" fill="rgb(155.79268292682926,187.2560975609756,160.2439024390244)" stroke="rgb(155.79268292682926,187.2560975609756,160.2439024390244)" stroke-width="1" />
<path d="M 403.50 308.50 C 401.43 314.11, 402.98 321.23, 402.50 327.50 C 401.73 331.96, 403.75 334.26, 403.50 337.50 C 404.27 341.96, 402.25 344.26, 402.50 347.50 C 402.50 351.50, 402.50 354.50, 402.50 357.50 C 402.83 362.17, 407.97 359.85, 410.50 360.50 C 418.17 360.50, 424.83 360.50, 431.50 360.50 C 435.52 357.96, 432.72 355.22, 433.50 351.50 C 433.50 347.50, 433.50 344.50, 433.50 341.50 C 433.50 333.83, 433.50 327.17, 433.50 320.50 C 433.50 316.50, 433.50 313.50, 433.50 310.50 C 432.76 307.24, 427.89 309.11, 425.50 308.50 C 417.83 308.50, 411.17 308.50, 404.50 308.50 Z" fill="rgb(211.95127748068924,145.3868092691622,121.8716577540107)" stroke="rgb(211.95127748068924,145.3868092691622,121.8716577540107)" stroke-width="1" />
<path d="M 334.50 250.50 C 332.70 252.46, 329.42 250.82, 327.50 252.50 C 324.61 255.23, 321.39 254.77, 319.50 257.50 C 318.12 261.09, 314.82 262.47, 315.50 265.50 C 314.50 268.83, 314.50 271.17, 314.50 273.50 C 314.40 280.51, 316.93 285.43, 321.50 289.50 C 326.64 294.24, 331.62 295.95, 337.50 295.50 C 341.23 295.80, 343.64 295.31, 345.50 293.50 C 348.79 291.72, 351.63 291.28, 353.50 288.50 C 355.69 285.52, 356.63 283.02, 357.50 280.50 C 356.23 276.77, 359.91 274.36, 357.50 272.50 C 357.68 268.95, 357.56 266.53, 356.50 264.50 C 355.62 260.57, 351.92 259.21, 351.50 256.50 C 347.91 255.12, 346.53 251.82, 343.50 252.50 C 339.74 252.20, 338.26 249.80, 335.50 250.50 Z" fill="rgb(129.2,181.2,156.0)" stroke="rgb(129.2,181.2,156.0)" stroke-width="1" />
<path d="M 334.50 250.50 C 333.26 253.01, 329.74 249.99, 328.50 252.50 C 324.80 252.95, 322.85 255.21, 320.50 256.50 C 316.06 261.77, 314.16 266.67, 314.50 272.50 C 314.66 279.26, 316.04 284.52, 320.50 288.50 C 325.57 293.74, 330.54 295.81, 336.50 295.50 C 343.47 295.85, 347.94 292.56, 352.50 289.50 C 353.88 285.91, 357.18 284.53, 356.50 281.50 C 356.77 277.73, 358.58 276.00, 358.50 273.50 C 356.54 270.70, 358.18 267.42, 356.50 265.50 C 354.72 262.21, 354.28 259.37, 351.50 257.50 C 348.28 254.89, 346.46 252.33, 343.50 252.50 C 339.73 252.23, 338.00 250.42, 335.50 250.50 Z" fill="rgb(185.62261831591886,210.81069452980947,185.79532882606023)" stroke="rgb(185.62261831591886,210.81069452980947,185.79532882606023)" stroke-width="1" />
<path d="M 5.50 293.50 C 2.72 295.03, -0.83 295.04, 0.50 299.50 C 0.50 303.50, 0.50 306.50, 0.50 309.50 C 0.50 317.17, 0.50 323.83, 0.50 330.50 C 0.50 338.17, 0.50 344.83, 0.50 351.50 C 0.50 355.50, 0.50 358.50, 0.50 361.50 C 4.83 361.50, 8.17 361.50, 11.50 361.50 C 15.20 361.34, 19.88 362.33, 20.50 359.50 C 20.50 355.17, 20.50 351.83, 20.50 348.50 C 20.50 340.83, 20.50 334.17, 20.50 327.50 C 20.50 319.83, 20.50 313.17, 20.50 306.50 C 21.06 301.85, 19.30 299.17, 17.50 296.50 C 13.51 294.01, 10.34 292.95, 6.50 293.50 Z" fill="rgb(175.1786723163842,210.1024011299435,180.11158192090394)" stroke="rgb(175.1786723163842,210.1024011299435,180.11158192090394)" stroke-width="1" />
<path d="M 176.50 233.50 C 174.93 235.22, 172.22 234.17, 170.50 235.50 C 166.62 236.85, 164.65 239.38, 162.50 241.50 C 160.45 244.95, 158.83 247.17, 157.50 249.50 C 157.11 252.95, 155.36 254.83, 155.50 257.50 C 161.62 257.74, 165.59 259.76, 170.50 259.50 C 176.48 259.89, 181.14 261.04, 186.50 260.50 C 191.78 262.10, 196.50 262.65, 201.50 262.50 C 204.84 263.95, 207.34 262.69, 206.50 259.50 C 207.23 255.73, 205.42 254.00, 205.50 251.50 C 203.62 248.39, 203.38 245.61, 201.50 243.50 C 198.47 239.77, 195.75 238.71, 193.50 236.50 C 188.05 234.18, 183.05 233.16, 177.50 233.50 Z" fill="rgb(186.41206896551725,209.71293103448275,184.71379310344827)" stroke="rgb(186.41206896551725,209.71293103448275,184.71379310344827)" stroke-width="1" />
<path d="M 587.50 228.50 C 584.91 229.87, 582.71 232.20, 580.50 234.50 C 579.56 238.54, 579.56 240.46, 580.50 243.50 C 581.16 247.41, 584.60 249.61, 587.50 249.50 C 590.59 251.44, 589.01 254.90, 589.50 257.50 C 589.50 270.17, 589.50 281.83, 589.50 293.50 C 590.10 300.22, 587.75 304.72, 588.50 310.50 C 589.10 314.55, 587.75 316.80, 587.50 319.50 C 588.10 323.55, 586.75 325.80, 586.50 328.50 C 586.50 332.17, 586.50 334.83, 586.50 337.50 C 586.21 341.32, 587.60 344.84, 584.50 346.50 C 582.99 349.82, 582.22 352.44, 582.50 355.50 C 583.64 359.19, 586.34 359.88, 589.50 359.50 C 593.50 359.81, 595.27 357.78, 596.50 355.50 C 596.43 351.58, 595.79 348.91, 594.50 346.50 C 592.91 342.80, 589.43 340.89, 589.50 337.50 C 589.50 333.83, 589.50 331.17, 589.50 328.50 C 589.00 324.49, 591.28 322.63, 590.50 319.50 C 589.72 315.37, 592.00 313.51, 591.50 310.50 C 591.50 303.83, 591.50 298.17, 591.50 292.50 C 590.90 288.45, 592.25 286.20, 592.50 283.50 C 592.50 279.83, 592.50 277.17, 592.50 274.50 C 592.50 267.83, 592.50 262.17, 592.50 256.50 C 591.48 251.83, 595.14 250.00, 597.50 248.50 C 599.39 244.79, 600.88 242.32, 601.50 239.50 C 600.54 235.68, 599.17 233.03, 597.50 230.50 C 594.45 228.34, 591.51 228.33, 588.50 228.50 Z" fill="rgb(189.03703703703704,209.77777777777777,180.37037037037038)" stroke="rgb(189.03703703703704,209.77777777777777,180.37037037037038)" stroke-width="1" />
<path d="M 120.50 228.50 C 117.64 229.99, 114.99 232.64, 113.50 235.50 C 112.68 238.65, 111.37 242.45, 113.50 244.50 C 114.55 248.43, 116.65 251.10, 119.50 252.50 C 124.18 252.59, 123.55 256.89, 123.50 259.50 C 123.31 266.38, 125.25 271.39, 124.50 277.50 C 123.32 283.82, 123.39 289.65, 123.50 295.50 C 123.50 308.17, 123.50 319.83, 123.50 331.50 C 122.75 338.61, 124.69 343.62, 124.50 349.50 C 122.41 352.44, 123.99 355.90, 123.50 358.50 C 126.50 359.50, 129.50 359.50, 132.50 359.50 C 135.63 357.45, 134.32 353.65, 133.50 351.50 C 129.97 347.92, 127.05 345.49, 125.50 342.50 C 125.50 335.83, 125.50 330.17, 125.50 324.50 C 125.50 311.83, 125.50 300.17, 125.50 288.50 C 125.50 281.83, 125.50 276.17, 125.50 270.50 C 125.50 266.83, 125.50 264.17, 125.50 261.50 C 125.79 257.68, 124.40 254.16, 127.50 252.50 C 131.66 252.77, 134.14 250.43, 134.50 247.50 C 136.79 244.23, 136.54 241.32, 136.50 238.50 C 136.61 234.60, 134.41 231.16, 131.50 230.50 C 127.97 228.04, 124.61 228.57, 121.50 228.50 Z" fill="rgb(51.58653846153846,37.13782051282051,59.57051282051282)" stroke="rgb(51.58653846153846,37.13782051282051,59.57051282051282)" stroke-width="1" />
<path d="M 476.50 305.50 C 474.27 309.38, 476.09 314.94, 475.50 319.50 C 475.50 325.17, 475.50 329.83, 475.50 334.50 C 475.50 337.50, 475.50 339.50, 475.50 341.50 C 475.94 344.39, 474.14 348.53, 477.50 347.50 C 483.50 347.50, 488.50 347.50, 493.50 347.50 C 496.80 343.51, 494.44 337.59, 496.50 333.50 C 496.14 327.84, 497.40 322.52, 495.50 318.50 C 496.23 315.67, 496.87 313.79, 496.50 311.50 C 496.70 308.24, 496.29 304.77, 493.50 305.50 C 489.95 305.32, 487.53 305.44, 485.50 306.50 C 482.17 305.50, 479.83 305.50, 477.50 305.50 Z" fill="rgb(221.97607655502392,202.77033492822966,169.2775119617225)" stroke="rgb(221.97607655502392,202.77033492822966,169.2775119617225)" stroke-width="1" />
<path d="M 235.50 310.50 C 235.50 319.17, 235.50 327.83, 235.50 336.50 C 236.43 341.01, 233.06 348.72, 238.50 348.50 C 244.69 348.40, 247.46 348.19, 252.50 348.50 C 255.72 343.95, 253.92 338.73, 254.50 334.50 C 254.50 329.17, 254.50 324.83, 254.50 320.50 C 253.90 315.76, 256.72 308.61, 250.50 310.50 C 245.17 310.50, 240.83 310.50, 236.50 310.50 Z" fill="rgb(150.78682170542635,189.6046511627907,164.49612403100775)" stroke="rgb(150.78682170542635,189.6046511627907,164.49612403100775)" stroke-width="1" />
<path d="M 52.50 308.50 C 52.50 317.17, 52.50 325.83, 52.50 334.50 C 52.87 339.13, 50.67 345.33, 56.50 343.50 C 61.83 343.50, 66.17 343.50, 70.50 343.50 C 71.50 334.83, 71.50 326.17, 71.50 317.50 C 71.13 312.87, 73.33 306.67, 67.50 308.50 C 62.17 308.50, 57.83 308.50, 53.50 308.50 Z" fill="rgb(116.48178137651821,107.74696356275304,120.04858299595142)" stroke="rgb(116.48178137651821,107.74696356275304,120.04858299595142)" stroke-width="1" />
<path d="M 591.50 232.50 C 589.26 236.71, 591.10 242.61, 590.50 247.50 C 590.50 253.83, 590.50 259.17, 590.50 264.50 C 588.55 269.83, 589.89 275.52, 589.50 280.50 C 589.50 286.83, 589.50 292.17, 589.50 297.50 C 588.56 303.25, 588.25 308.26, 588.50 313.50 C 586.46 316.13, 587.96 319.22, 587.50 321.50 C 588.00 325.51, 585.72 327.37, 586.50 330.50 C 585.64 336.42, 588.50 342.88, 584.50 346.50 C 582.69 349.36, 582.20 351.77, 582.50 354.50 C 581.73 359.08, 585.73 360.07, 588.50 359.50 C 591.67 359.62, 595.28 359.70, 595.50 357.50 C 597.08 354.96, 597.08 351.04, 595.50 349.50 C 595.05 345.80, 592.79 343.85, 591.50 341.50 C 588.41 338.56, 589.99 335.10, 589.50 332.50 C 589.04 326.17, 591.28 321.96, 590.50 316.50 C 592.48 310.85, 591.08 304.80, 591.50 299.50 C 591.89 293.52, 593.04 288.86, 592.50 283.50 C 592.50 277.17, 592.50 271.83, 592.50 266.50 C 592.92 260.20, 591.52 254.15, 593.50 249.50 C 591.23 245.77, 594.91 243.36, 592.50 241.50 C 594.28 237.37, 592.00 235.51, 592.50 232.50 Z" fill="rgb(57.84183673469388,52.660714285714285,76.61989795918367)" stroke="rgb(57.84183673469388,52.660714285714285,76.61989795918367)" stroke-width="1" />
<path d="M 88.50 318.50 C 86.78 320.07, 87.83 322.78, 86.50 324.50 C 87.50 327.83, 87.50 330.17, 87.50 332.50 C 87.50 338.17, 87.50 342.83, 87.50 347.50 C 87.50 350.50, 87.50 352.50, 87.50 354.50 C 87.22 358.11, 87.16 360.50, 90.50 359.50 C 96.17 359.50, 100.83 359.50, 105.50 359.50 C 108.80 357.13, 106.86 350.52, 107.50 346.50 C 105.03 344.71, 103.81 346.92, 101.50 346.50 C 97.09 347.48, 97.30 343.75, 97.50 341.50 C 97.50 335.83, 97.50 331.17, 97.50 326.50 C 97.50 323.50, 97.50 321.50, 97.50 319.50 C 94.17 318.50, 91.83 318.50, 89.50 318.50 Z" fill="rgb(113.83333333333333,104.33333333333333,101.33333333333333)" stroke="rgb(113.83333333333333,104.33333333333333,101.33333333333333)" stroke-width="1" />
<path d="M 452.50 354.50 C 452.50 356.17, 452.50 357.83, 452.50 359.50 C 455.17 359.50, 456.83 359.50, 458.50 359.50 C 463.50 359.50, 467.50 359.50, 471.50 359.50 C 480.83 359.50, 489.17 359.50, 497.50 359.50 C 515.50 359.50, 532.50 359.50, 549.50 359.50 C 550.50 357.83, 550.50 356.17, 550.50 354.50 C 547.83 354.50, 546.17 354.50, 544.50 354.50 C 539.50 354.50, 535.50 354.50, 531.50 354.50 C 522.17 354.50, 513.83 354.50, 505.50 354.50 C 487.50 354.50, 470.50 354.50, 453.50 354.50 Z" fill="rgb(52.602693602693606,9.6010101010101,46.388888888888886)" stroke="rgb(52.602693602693606,9.6010101010101,46.388888888888886)" stroke-width="1" />
<path d="M 288.50 147.50 C 286.54 148.92, 284.46 150.08, 282.50 151.50 C 280.18 154.37, 279.10 156.33, 278.50 158.50 C 278.29 161.97, 276.08 163.19, 276.50 165.50 C 277.49 168.70, 277.51 171.30, 278.50 173.50 C 280.70 180.10, 286.88 182.80, 291.50 184.50 C 294.50 184.50, 296.50 184.50, 298.50 184.50 C 301.84 183.62, 304.97 181.84, 304.50 179.50 C 298.23 180.77, 293.94 178.66, 290.50 174.50 C 289.49 171.23, 286.88 170.03, 287.50 167.50 C 286.69 164.42, 287.06 161.72, 288.50 159.50 C 289.82 153.48, 295.23 149.35, 300.50 149.50 C 303.89 148.77, 299.10 147.28, 297.50 147.50 C 294.17 147.50, 291.83 147.50, 289.50 147.50 Z" fill="rgb(98.75,167.0,142.75)" stroke="rgb(98.75,167.0,142.75)" stroke-width="1" />
<path d="M 289.50 147.50 C 287.50 148.49, 285.52 149.55, 283.50 150.50 C 280.31 153.48, 279.37 155.98, 278.50 158.50 C 278.29 161.97, 276.08 163.19, 276.50 165.50 C 277.49 168.70, 277.51 171.30, 278.50 173.50 C 279.83 176.92, 281.60 178.74, 283.50 180.50 C 286.84 182.49, 289.29 183.21, 291.50 184.50 C 294.50 184.50, 296.50 184.50, 298.50 184.50 C 301.94 183.57, 304.92 181.58, 305.50 179.50 C 299.49 182.63, 293.96 178.39, 290.50 174.50 C 288.34 171.70, 287.59 169.74, 287.50 167.50 C 284.63 164.42, 288.61 162.19, 287.50 159.50 C 289.82 153.48, 295.23 149.35, 300.50 149.50 C 304.53 151.66, 300.06 146.72, 298.50 147.50 C 295.17 147.50, 292.83 147.50, 290.50 147.50 Z" fill="rgb(162.2173913043478,193.04347826086956,162.30434782608697)" stroke="rgb(162.2173913043478,193.04347826086956,162.30434782608697)" stroke-width="1" />
<path d="M 289.50 147.50 C 285.19 150.11, 280.18 153.45, 278.50 158.50 C 276.78 161.07, 277.83 163.78, 276.50 165.50 C 277.00 168.57, 278.00 170.43, 278.50 172.50 C 280.91 174.51, 280.39 178.33, 282.50 178.50 C 285.26 181.40, 287.08 183.17, 289.50 183.50 C 291.82 186.48, 294.53 185.08, 296.50 185.50 C 299.97 185.63, 301.17 182.70, 303.50 182.50 C 304.67 179.33, 300.95 181.05, 299.50 180.50 C 296.69 178.71, 294.07 178.88, 292.50 176.50 C 289.12 173.93, 289.29 171.31, 287.50 169.50 C 288.48 166.19, 285.86 163.77, 287.50 162.50 C 288.41 156.97, 291.39 151.50, 296.50 150.50 C 300.16 150.66, 302.01 147.68, 298.50 147.50 C 295.17 147.50, 292.83 147.50, 290.50 147.50 Z" fill="rgb(232.37577002053388,223.13552361396304,185.02669404517454)" stroke="rgb(232.37577002053388,223.13552361396304,185.02669404517454)" stroke-width="1" />
<path d="M 120.50 228.50 C 116.27 230.36, 113.93 234.60, 112.50 238.50 C 111.99 243.93, 114.15 247.26, 116.50 250.50 C 119.19 251.79, 120.45 253.09, 122.50 252.50 C 122.50 249.83, 122.50 248.17, 122.50 246.50 C 122.50 243.83, 122.50 242.17, 122.50 240.50 C 123.89 235.99, 127.23 238.80, 126.50 241.50 C 127.13 245.54, 125.22 251.11, 127.50 252.50 C 133.69 253.03, 134.09 247.56, 136.50 244.50 C 136.28 239.65, 137.46 235.22, 134.50 232.50 C 130.27 228.65, 126.08 228.10, 121.50 228.50 Z" fill="rgb(210.83647798742138,134.37945492662473,109.07756813417191)" stroke="rgb(210.83647798742138,134.37945492662473,109.07756813417191)" stroke-width="1" />
<path d="M 283.50 309.50 C 281.23 315.03, 283.12 322.29, 282.50 328.50 C 283.23 331.77, 280.70 337.30, 284.50 336.50 C 288.83 336.50, 292.17 336.50, 295.50 336.50 C 300.17 336.17, 297.85 331.03, 298.50 328.50 C 298.50 324.17, 298.50 320.83, 298.50 317.50 C 298.20 313.93, 299.89 308.56, 295.50 309.50 C 292.67 308.30, 291.59 312.00, 290.50 309.50 C 288.56 311.03, 285.44 311.03, 284.50 309.50 Z" fill="rgb(168.2167300380228,159.6615969581749,156.18631178707224)" stroke="rgb(168.2167300380228,159.6615969581749,156.18631178707224)" stroke-width="1" />
<path d="M 189.50 263.50 C 187.26 266.20, 184.47 267.56, 181.50 268.50 C 180.50 271.17, 180.50 273.83, 180.50 276.50 C 181.51 280.06, 177.07 283.97, 181.50 284.50 C 185.55 285.10, 187.80 283.75, 190.50 283.50 C 194.85 282.47, 197.03 279.64, 199.50 277.50 C 202.66 274.17, 204.34 271.65, 204.50 268.50 C 206.77 263.57, 203.14 264.53, 200.50 264.50 C 197.24 262.37, 193.42 264.02, 190.50 263.50 Z" fill="rgb(186.06279069767442,210.40232558139536,183.16976744186047)" stroke="rgb(186.06279069767442,210.40232558139536,183.16976744186047)" stroke-width="1" />
<path d="M 155.50 259.50 C 155.46 262.32, 155.21 265.23, 156.50 267.50 C 157.32 271.52, 159.39 274.02, 161.50 276.50 C 163.59 279.28, 166.87 282.03, 169.50 282.50 C 171.56 283.70, 173.03 282.89, 173.50 284.50 C 176.93 285.29, 174.13 281.65, 176.50 281.50 C 176.50 277.83, 176.50 275.17, 176.50 272.50 C 177.97 268.46, 176.23 266.46, 173.50 264.50 C 172.59 259.84, 169.37 260.41, 166.50 260.50 C 162.07 261.19, 159.93 258.81, 156.50 259.50 Z" fill="rgb(188.4014598540146,211.09002433090023,185.85401459854015)" stroke="rgb(188.4014598540146,211.09002433090023,185.85401459854015)" stroke-width="1" />
<path d="M 587.50 228.50 C 586.09 230.11, 583.91 229.89, 582.50 231.50 C 579.92 233.51, 581.26 236.15, 579.50 237.50 C 579.30 242.45, 580.31 247.34, 584.50 248.50 C 590.74 252.11, 589.40 246.28, 589.50 242.50 C 589.74 238.60, 588.20 230.48, 592.50 232.50 C 593.50 237.17, 593.50 240.83, 593.50 244.50 C 593.50 247.17, 593.50 248.83, 593.50 250.50 C 595.88 249.01, 598.74 248.61, 598.50 246.50 C 599.79 243.81, 601.09 242.55, 600.50 240.50 C 600.67 237.90, 600.87 235.88, 599.50 234.50 C 596.63 229.90, 593.20 227.67, 588.50 228.50 Z" fill="rgb(206.45378151260505,136.23529411764707,110.74509803921569)" stroke="rgb(206.45378151260505,136.23529411764707,110.74509803921569)" stroke-width="1" />
<path d="M 72.50 155.50 C 74.08 157.57, 78.41 159.30, 80.50 162.50 C 82.53 166.27, 82.69 169.81, 82.50 173.50 C 81.04 177.96, 79.51 181.95, 75.50 183.50 C 71.68 186.28, 75.73 185.21, 76.50 185.50 C 79.16 185.14, 81.48 186.39, 82.50 184.50 C 86.66 183.04, 89.38 180.74, 90.50 177.50 C 92.28 173.35, 92.84 170.11, 92.50 166.50 C 90.55 162.38, 88.55 157.77, 84.50 156.50 C 80.92 154.34, 76.75 156.04, 73.50 155.50 Z" fill="rgb(148.92,191.0,165.04)" stroke="rgb(148.92,191.0,165.04)" stroke-width="1" />
<path d="M 74.50 155.50 C 73.99 158.67, 80.55 158.35, 80.50 162.50 C 82.97 165.75, 82.53 169.21, 82.50 172.50 C 81.46 176.76, 80.74 180.15, 77.50 182.50 C 70.92 185.81, 79.95 186.51, 81.50 184.50 C 85.67 183.80, 89.34 180.66, 90.50 177.50 C 91.50 173.50, 91.50 170.50, 91.50 167.50 C 91.39 163.02, 89.83 159.85, 86.50 158.50 C 82.73 155.47, 79.19 155.31, 75.50 155.50 Z" fill="rgb(185.83177570093457,209.98442367601245,182.89096573208724)" stroke="rgb(185.83177570093457,209.98442367601245,182.89096573208724)" stroke-width="1" />
<path d="M 88.50 318.50 C 86.24 323.37, 88.11 329.95, 87.50 335.50 C 87.50 339.17, 87.50 341.83, 87.50 344.50 C 89.44 347.59, 92.90 346.01, 95.50 346.50 C 98.52 341.53, 97.06 335.12, 97.50 329.50 C 97.50 325.83, 97.50 323.17, 97.50 320.50 C 95.56 317.41, 92.10 318.99, 89.50 318.50 Z" fill="rgb(127.75333333333333,139.50666666666666,120.82666666666667)" stroke="rgb(127.75333333333333,139.50666666666666,120.82666666666667)" stroke-width="1" />
<path d="M 178.50 262.50 C 178.28 266.21, 179.20 270.40, 177.50 273.50 C 177.22 278.52, 178.28 283.10, 176.50 286.50 C 176.73 291.40, 176.47 295.10, 175.50 298.50 C 176.24 303.95, 174.34 307.30, 174.50 311.50 C 175.19 316.59, 172.81 319.41, 173.50 323.50 C 173.06 328.46, 171.99 332.15, 172.50 336.50 C 173.07 341.87, 170.74 345.05, 171.50 349.50 C 171.87 354.49, 170.96 359.78, 171.50 362.50 C 175.14 361.07, 172.87 356.18, 173.50 352.50 C 172.74 347.05, 175.07 343.87, 174.50 339.50 C 173.74 334.05, 176.07 330.87, 175.50 326.50 C 174.74 321.05, 177.07 317.87, 176.50 313.50 C 175.72 308.37, 177.85 305.45, 177.50 301.50 C 176.99 296.15, 178.06 292.46, 178.50 288.50 C 177.99 283.15, 179.06 279.46, 179.50 275.50 C 179.50 270.50, 179.50 266.50, 179.50 262.50 Z" fill="rgb(47.59183673469388,42.01020408163265,80.6156462585034)" stroke="rgb(47.59183673469388,42.01020408163265,80.6156462585034)" stroke-width="1" />
<path d="M 105.50 345.50 C 103.87 347.54, 100.78 346.04, 98.50 346.50 C 95.87 348.54, 92.78 347.04, 90.50 347.50 C 86.14 346.47, 87.94 350.61, 87.50 352.50 C 88.11 355.56, 85.89 360.45, 89.50 359.50 C 95.50 359.50, 100.50 359.50, 105.50 359.50 C 108.71 359.38, 106.92 355.26, 107.50 353.50 C 106.91 350.43, 108.74 345.93, 106.50 345.50 Z" fill="rgb(158.2439024390244,123.11846689895471,107.66202090592334)" stroke="rgb(158.2439024390244,123.11846689895471,107.66202090592334)" stroke-width="1" />
<path d="M 376.50 310.50 C 376.50 315.50, 376.50 320.50, 376.50 325.50 C 376.50 328.83, 376.50 331.17, 376.50 333.50 C 379.17 334.50, 381.83 334.50, 384.50 334.50 C 387.54 332.87, 386.04 329.78, 386.50 327.50 C 387.51 324.97, 383.64 324.56, 386.50 323.50 C 387.51 320.97, 383.64 320.56, 386.50 319.50 C 386.56 316.47, 386.68 314.05, 386.50 311.50 C 382.83 310.50, 380.17 310.50, 377.50 310.50 Z" fill="rgb(115.9814126394052,106.03345724907064,97.13011152416357)" stroke="rgb(115.9814126394052,106.03345724907064,97.13011152416357)" stroke-width="1" />
<path d="M 588.50 340.50 C 587.14 344.43, 583.37 347.36, 582.50 351.50 C 581.45 356.70, 583.75 360.87, 588.50 359.50 C 594.01 360.73, 597.13 356.61, 596.50 352.50 C 595.13 347.40, 594.03 342.41, 589.50 340.50 Z" fill="rgb(39.54625550660793,17.378854625550662,58.36123348017621)" stroke="rgb(39.54625550660793,17.378854625550662,58.36123348017621)" stroke-width="1" />
<path d="M 553.50 35.50 C 553.54 39.53, 547.90 45.53, 544.50 40.50 C 542.15 36.50, 541.07 37.55, 541.50 40.50 C 541.92 43.47, 540.52 46.18, 542.50 47.50 C 545.27 52.22, 551.29 52.63, 554.50 49.50 C 556.93 44.74, 557.50 38.70, 554.50 35.50 Z" fill="rgb(182.2173913043478,208.52717391304347,186.3804347826087)" stroke="rgb(182.2173913043478,208.52717391304347,186.3804347826087)" stroke-width="1" />
<path d="M 125.50 345.50 C 123.58 348.12, 124.92 352.09, 122.50 354.50 C 121.28 360.03, 125.98 361.22, 129.50 360.50 C 134.03 360.14, 135.48 358.17, 135.50 354.50 C 133.58 350.31, 130.40 345.55, 126.50 345.50 Z" fill="rgb(42.160714285714285,32.07738095238095,57.726190476190474)" stroke="rgb(42.160714285714285,32.07738095238095,57.726190476190474)" stroke-width="1" />
<path d="M 88.50 327.50 C 85.56 330.84, 89.70 334.51, 88.50 338.50 C 88.50 341.17, 88.50 342.83, 88.50 344.50 C 89.82 347.48, 92.53 346.08, 94.50 346.50 C 95.50 342.83, 95.50 339.17, 95.50 335.50 C 95.50 332.83, 95.50 331.17, 95.50 329.50 C 94.18 326.52, 91.47 327.92, 89.50 327.50 Z" fill="rgb(105.03067484662577,78.04294478527608,81.15950920245399)" stroke="rgb(105.03067484662577,78.04294478527608,81.15950920245399)" stroke-width="1" />
<path d="M 63.50 320.50 C 63.50 324.83, 63.50 329.17, 63.50 333.50 C 63.50 336.50, 63.50 338.50, 63.50 340.50 C 63.33 343.67, 67.05 341.95, 68.50 342.50 C 69.50 338.17, 69.50 333.83, 69.50 329.50 C 69.50 326.50, 69.50 324.50, 69.50 322.50 C 69.67 319.33, 65.95 321.05, 64.50 320.50 Z" fill="rgb(37.03105590062112,19.31055900621118,41.099378881987576)" stroke="rgb(37.03105590062112,19.31055900621118,41.099378881987576)" stroke-width="1" />
<path d="M 475.50 333.50 C 475.50 336.83, 475.50 340.17, 475.50 343.50 C 474.05 349.29, 479.68 346.99, 482.50 347.50 C 485.66 344.92, 483.96 340.75, 484.50 337.50 C 485.31 331.76, 479.27 334.00, 476.50 333.50 Z" fill="rgb(112.02721088435374,102.10884353741497,100.81632653061224)" stroke="rgb(112.02721088435374,102.10884353741497,100.81632653061224)" stroke-width="1" />
<path d="M 487.50 333.50 C 487.50 336.50, 487.50 339.50, 487.50 342.50 C 486.01 348.33, 489.99 347.67, 493.50 347.50 C 496.66 344.92, 494.96 340.75, 495.50 337.50 C 496.95 331.71, 491.32 334.01, 488.50 333.50 Z" fill="rgb(118.21212121212122,102.56818181818181,101.77272727272727)" stroke="rgb(118.21212121212122,102.56818181818181,101.77272727272727)" stroke-width="1" />
<path d="M 476.50 319.50 C 474.41 321.44, 475.99 324.90, 475.50 327.50 C 474.70 332.30, 480.23 329.77, 482.50 330.50 C 485.74 330.07, 483.91 325.57, 484.50 323.50 C 485.44 318.11, 480.07 319.80, 477.50 319.50 Z" fill="rgb(113.65254237288136,98.38135593220339,101.72033898305085)" stroke="rgb(113.65254237288136,98.38135593220339,101.72033898305085)" stroke-width="1" />
<path d="M 475.50 306.50 C 475.50 309.17, 475.50 311.83, 475.50 314.50 C 476.24 317.76, 481.11 315.89, 483.50 316.50 C 484.50 313.83, 484.50 311.17, 484.50 308.50 C 483.76 305.24, 478.89 307.11, 476.50 306.50 Z" fill="rgb(114.11818181818182,116.03636363636363,116.45454545454545)" stroke="rgb(114.11818181818182,116.03636363636363,116.45454545454545)" stroke-width="1" />
<path d="M 487.50 319.50 C 487.50 322.17, 487.50 324.83, 487.50 327.50 C 486.70 332.30, 492.23 329.77, 494.50 330.50 C 495.50 327.83, 495.50 325.17, 495.50 322.50 C 496.30 317.70, 490.77 320.23, 488.50 319.50 Z" fill="rgb(98.69444444444444,96.69444444444444,100.44444444444444)" stroke="rgb(98.69444444444444,96.69444444444444,100.44444444444444)" stroke-width="1" />
<path d="M 487.50 306.50 C 487.50 309.17, 487.50 311.83, 487.50 314.50 C 487.93 317.74, 492.43 315.91, 494.50 316.50 C 495.50 313.83, 495.50 311.17, 495.50 308.50 C 495.07 305.26, 490.57 307.09, 488.50 306.50 Z" fill="rgb(98.97979797979798,96.8989898989899,100.63636363636364)" stroke="rgb(98.97979797979798,96.8989898989899,100.63636363636364)" stroke-width="1" />
<path d="M 283.50 323.50 C 283.50 325.83, 283.50 328.17, 283.50 330.50 C 282.67 334.39, 284.61 336.33, 287.50 335.50 C 288.50 332.17, 288.50 329.83, 288.50 327.50 C 289.50 323.16, 287.11 323.22, 284.50 323.50 Z" fill="rgb(65.18666666666667,38.89333333333333,44.986666666666665)" stroke="rgb(65.18666666666667,38.89333333333333,44.986666666666665)" stroke-width="1" />
<path d="M 291.50 311.50 C 289.86 312.77, 292.48 315.19, 291.50 317.50 C 290.47 321.86, 294.61 320.06, 296.50 320.50 C 297.50 318.50, 297.50 316.50, 297.50 314.50 C 298.53 310.14, 294.39 311.94, 292.50 311.50 Z" fill="rgb(82.78873239436619,67.66197183098592,77.49295774647888)" stroke="rgb(82.78873239436619,67.66197183098592,77.49295774647888)" stroke-width="1" />
<path d="M 63.50 310.50 C 63.50 312.50, 63.50 314.50, 63.50 316.50 C 63.33 319.67, 67.05 317.95, 68.50 318.50 C 69.50 316.50, 69.50 314.50, 69.50 312.50 C 69.67 309.33, 65.95 311.05, 64.50 310.50 Z" fill="rgb(36.55555555555556,18.825396825396826,40.507936507936506)" stroke="rgb(36.55555555555556,18.825396825396826,40.507936507936506)" stroke-width="1" />
<path d="M 283.50 311.50 C 284.10 315.24, 281.28 322.39, 287.50 320.50 C 287.90 316.76, 290.72 309.61, 284.50 311.50 Z" fill="rgb(63.63793103448276,54.63793103448276,61.793103448275865)" stroke="rgb(63.63793103448276,54.63793103448276,61.793103448275865)" stroke-width="1" />
<path d="M 111.50 340.50 C 112.00 343.51, 109.72 345.37, 110.50 348.50 C 110.43 352.61, 110.96 355.97, 109.50 358.50 C 113.17 359.17, 110.85 354.03, 111.50 351.50 C 111.50 347.50, 111.50 344.50, 111.50 341.50 Z" fill="rgb(54.39473684210526,35.026315789473685,58.73684210526316)" stroke="rgb(54.39473684210526,35.026315789473685,58.73684210526316)" stroke-width="1" />
</svg>