<svg xmlns="http://www.w3.org/2000/svg" width="640" height="427" viewbox="0 0 640 427">
<path d="M 0.50 0.50 C 0.50 5.50, 0.50 10.50, 0.50 15.50 C 0.50 21.83, 0.50 27.17, 0.50 32.50 C 0.50 38.50, 0.50 43.50, 0.50 48.50 C 0.50 54.83, 0.50 60.17, 0.50 65.50 C 0.50 71.50, 0.50 76.50, 0.50 81.50 C 0.50 87.83, 0.50 93.17, 0.50 98.50 C 0.50 104.83, 0.50 110.17, 0.50 115.50 C 0.50 121.83, 0.50 127.17, 0.50 132.50 C 0.50 138.50, 0.50 143.50, 0.50 148.50 C 0.50 154.83, 0.50 160.17, 0.50 165.50 C 0.50 171.50, 0.50 176.50, 0.50 181.50 C 0.50 187.83, 0.50 193.17, 0.50 198.50 C 0.50 204.50, 0.50 209.50, 0.50 214.50 C 0.50 220.83, 0.50 226.17, 0.50 231.50 C 0.50 237.83, 0.50 243.17, 0.50 248.50 C 0.50 254.83, 0.50 260.17, 0.50 265.50 C 0.50 271.50, 0.50 276.50, 0.50 281.50 C 0.50 287.83, 0.50 293.17, 0.50 298.50 C 0.50 304.50, 0.50 309.50, 0.50 314.50 C 0.50 320.83, 0.50 326.17, 0.50 331.50 C 0.50 337.50, 0.50 342.50, 0.50 347.50 C 0.50 353.83, 0.50 359.17, 0.50 364.50 C 0.50 370.83, 0.50 376.17, 0.50 381.50 C 0.50 387.83, 0.50 393.17, 0.50 398.50 C 0.50 404.50, 0.50 409.50, 0.50 414.50 C 1.18 420.15, -2.16 428.83, 5.50 426.50 C 11.50 426.50, 16.50 426.50, 21.50 426.50 C 27.83 426.50, 33.17 426.50, 38.50 426.50 C 44.50 426.50, 49.50 426.50, 54.50 426.50 C 60.83 426.50, 66.17 426.50, 71.50 426.50 C 77.83 426.50, 83.17 426.50, 88.50 426.50 C 94.83 426.50, 100.17 426.50, 105.50 426.50 C 111.50 426.50, 116.50 426.50, 121.50 426.50 C 127.83 426.50, 133.17 426.50, 138.50 426.50 C 144.50 426.50, 149.50 426.50, 154.50 426.50 C 160.83 426.50, 166.17 426.50, 171.50 426.50 C 177.50 426.50, 182.50 426.50, 187.50 426.50 C 193.83 426.50, 199.17 426.50, 204.50 426.50 C 210.83 426.50, 216.17 426.50, 221.50 426.50 C 227.83 426.50, 233.17 426.50, 238.50 426.50 C 244.50 426.50, 249.50 426.50, 254.50 426.50 C 260.83 426.50, 266.17 426.50, 271.50 426.50 C 277.50 426.50, 282.50 426.50, 287.50 426.50 C 293.83 426.50, 299.17 426.50, 304.50 426.50 C 310.50 426.50, 315.50 426.50, 320.50 426.50 C 326.83 426.50, 332.17 426.50, 337.50 426.50 C 343.83 426.50, 349.17 426.50, 354.50 426.50 C 360.83 426.50, 366.17 426.50, 371.50 426.50 C 377.50 426.50, 382.50 426.50, 387.50 426.50 C 393.83 426.50, 399.17 426.50, 404.50 426.50 C 410.50 426.50, 415.50 426.50, 420.50 426.50 C 426.83 426.50, 432.17 426.50, 437.50 426.50 C 443.50 426.50, 448.50 426.50, 453.50 426.50 C 459.83 426.50, 465.17 426.50, 470.50 426.50 C 476.83 426.50, 482.17 426.50, 487.50 426.50 C 493.83 426.50, 499.17 426.50, 504.50 426.50 C 510.50 426.50, 515.50 426.50, 520.50 426.50 C 526.83 426.50, 532.17 426.50, 537.50 426.50 C 543.83 426.50, 549.17 426.50, 554.50 426.50 C 560.83 426.50, 566.17 426.50, 571.50 426.50 C 577.50 426.50, 582.50 426.50, 587.50 426.50 C 593.83 426.50, 599.17 426.50, 604.50 426.50 C 610.83 426.50, 616.17 426.50, 621.50 426.50 C 627.83 426.50, 633.17 426.50, 638.50 426.50 C 639.50 421.50, 639.50 416.50, 639.50 411.50 C 639.50 405.17, 639.50 399.83, 639.50 394.50 C 639.50 388.50, 639.50 383.50, 639.50 378.50 C 639.50 372.17, 639.50 366.83, 639.50 361.50 C 639.50 355.50, 639.50 350.50, 639.50 345.50 C 639.50 339.17, 639.50 333.83, 639.50 328.50 C 639.50 322.17, 639.50 316.83, 639.50 311.50 C 639.50 305.17, 639.50 299.83, 639.50 294.50 C 639.50 288.50, 639.50 283.50, 639.50 278.50 C 639.50 272.17, 639.50 266.83, 639.50 261.50 C 639.50 255.50, 639.50 250.50, 639.50 245.50 C 639.50 239.17, 639.50 233.83, 639.50 228.50 C 639.50 222.50, 639.50 217.50, 639.50 212.50 C 639.50 206.17, 639.50 200.83, 639.50 195.50 C 639.50 189.17, 639.50 183.83, 639.50 178.50 C 639.50 172.17, 639.50 166.83, 639.50 161.50 C 639.50 155.50, 639.50 150.50, 639.50 145.50 C 639.50 139.17, 639.50 133.83, 639.50 128.50 C 639.50 122.50, 639.50 117.50, 639.50 112.50 C 639.50 106.17, 639.50 100.83, 639.50 95.50 C 639.50 89.50, 639.50 84.50, 639.50 79.50 C 639.50 73.17, 639.50 67.83, 639.50 62.50 C 639.50 56.17, 639.50 50.83, 639.50 45.50 C 639.50 39.17, 639.50 33.83, 639.50 28.50 C 639.50 22.50, 639.50 17.50, 639.50 12.50 C 638.82 6.85, 642.16 -1.83, 634.50 0.50 C 628.50 0.50, 623.50 0.50, 618.50 0.50 C 612.17 0.50, 606.83 0.50, 601.50 0.50 C 595.50 0.50, 590.50 0.50, 585.50 0.50 C 579.17 0.50, 573.83 0.50, 568.50 0.50 C 562.17 0.50, 556.83 0.50, 551.50 0.50 C 545.17 0.50, 539.83 0.50, 534.50 0.50 C 528.50 0.50, 523.50 0.50, 518.50 0.50 C 512.17 0.50, 506.83 0.50, 501.50 0.50 C 495.50 0.50, 490.50 0.50, 485.50 0.50 C 479.17 0.50, 473.83 0.50, 468.50 0.50 C 462.50 0.50, 457.50 0.50, 452.50 0.50 C 446.17 0.50, 440.83 0.50, 435.50 0.50 C 429.17 0.50, 423.83 0.50, 418.50 0.50 C 412.17 0.50, 406.83 0.50, 401.50 0.50 C 395.50 0.50, 390.50 0.50, 385.50 0.50 C 379.17 0.50, 373.83 0.50, 368.50 0.50 C 362.50 0.50, 357.50 0.50, 352.50 0.50 C 346.17 0.50, 340.83 0.50, 335.50 0.50 C 329.50 0.50, 324.50 0.50, 319.50 0.50 C 313.17 0.50, 307.83 0.50, 302.50 0.50 C 296.17 0.50, 290.83 0.50, 285.50 0.50 C 279.17 0.50, 273.83 0.50, 268.50 0.50 C 262.50 0.50, 257.50 0.50, 252.50 0.50 C 246.17 0.50, 240.83 0.50, 235.50 0.50 C 229.50 0.50, 224.50 0.50, 219.50 0.50 C 213.17 0.50, 207.83 0.50, 202.50 0.50 C 196.50 0.50, 191.50 0.50, 186.50 0.50 C 180.17 0.50, 174.83 0.50, 169.50 0.50 C 163.17 0.50, 157.83 0.50, 152.50 0.50 C 146.17 0.50, 140.83 0.50, 135.50 0.50 C 129.50 0.50, 124.50 0.50, 119.50 0.50 C 113.17 0.50, 107.83 0.50, 102.50 0.50 C 96.17 0.50, 90.83 0.50, 85.50 0.50 C 79.17 0.50, 73.83 0.50, 68.50 0.50 C 62.50 0.50, 57.50 0.50, 52.50 0.50 C 46.17 0.50, 40.83 0.50, 35.50 0.50 C 29.17 0.50, 23.83 0.50, 18.50 0.50 C 12.17 0.50, 6.83 0.50, 1.50 0.50 Z" fill="rgb(126.12429171997806,178.89892158654726,153.20562968378724)" stroke="rgb(126.12429171997806,178.89892158654726,153.20562968378724)" stroke-width="1" />
<path d="M 5.50 2.50 C 1.28 3.37, -0.58 4.29, 0.50 9.50 C 0.50 14.17, 0.50 17.83, 0.50 21.50 C 0.50 26.17, 0.50 29.83, 0.50 33.50 C 0.50 38.17, 0.50 41.83, 0.50 45.50 C 0.50 50.17, 0.50 53.83, 0.50 57.50 C 0.50 62.17, 0.50 65.83, 0.50 69.50 C 0.50 74.17, 0.50 77.83, 0.50 81.50 C 0.50 86.50, 0.50 90.50, 0.50 94.50 C 0.50 99.17, 0.50 102.83, 0.50 106.50 C 0.50 111.17, 0.50 114.83, 0.50 118.50 C 0.50 123.17, 0.50 126.83, 0.50 130.50 C 0.50 135.50, 0.50 139.50, 0.50 143.50 C 0.50 148.17, 0.50 151.83, 0.50 155.50 C 0.50 160.17, 0.50 163.83, 0.50 167.50 C 0.50 172.17, 0.50 175.83, 0.50 179.50 C 0.50 184.50, 0.50 188.50, 0.50 192.50 C 0.50 197.17, 0.50 200.83, 0.50 204.50 C 0.50 209.17, 0.50 212.83, 0.50 216.50 C 0.50 221.17, 0.50 224.83, 0.50 228.50 C 0.50 233.17, 0.50 236.83, 0.50 240.50 C 0.50 245.17, 0.50 248.83, 0.50 252.50 C 0.50 257.17, 0.50 260.83, 0.50 264.50 C 0.50 269.17, 0.50 272.83, 0.50 276.50 C 0.50 281.50, 0.50 285.50, 0.50 289.50 C -0.91 297.05, 3.66 291.74, 7.50 292.50 C 12.48 292.40, 16.30 293.69, 19.50 296.50 C 21.75 300.65, 22.86 304.27, 22.50 308.50 C 21.85 314.13, 23.93 317.61, 22.50 321.50 C 22.50 326.17, 22.50 329.83, 22.50 333.50 C 22.50 338.17, 22.50 341.83, 22.50 345.50 C 22.50 350.17, 22.50 353.83, 22.50 357.50 C 26.78 359.71, 32.27 360.43, 35.50 358.50 C 36.13 355.07, 35.07 350.18, 35.50 346.50 C 35.50 341.83, 35.50 338.17, 35.50 334.50 C 35.50 329.83, 35.50 326.17, 35.50 322.50 C 35.50 317.83, 35.50 314.17, 35.50 310.50 C 34.90 305.12, 38.89 301.15, 42.50 299.50 C 46.96 294.99, 50.72 292.23, 54.50 289.50 C 59.53 286.70, 62.33 281.96, 66.50 280.50 C 71.49 283.20, 75.55 285.71, 79.50 288.50 C 84.40 291.27, 87.81 294.23, 91.50 296.50 C 96.16 299.72, 99.78 301.78, 102.50 304.50 C 106.01 308.00, 112.49 309.11, 111.50 314.50 C 110.68 319.88, 114.12 323.64, 111.50 327.50 C 113.06 332.07, 111.32 336.60, 113.50 339.50 C 114.50 344.17, 114.50 347.83, 114.50 351.50 C 113.85 357.03, 114.71 360.65, 119.50 358.50 C 119.76 354.05, 121.66 350.70, 121.50 346.50 C 121.50 341.83, 121.50 338.17, 121.50 334.50 C 121.50 329.83, 121.50 326.17, 121.50 322.50 C 121.50 317.83, 121.50 314.17, 121.50 310.50 C 121.50 305.83, 121.50 302.17, 121.50 298.50 C 121.50 293.83, 121.50 290.17, 121.50 286.50 C 121.50 281.83, 121.50 278.17, 121.50 274.50 C 123.05 268.26, 118.04 267.21, 114.50 266.50 C 109.27 265.05, 104.94 263.85, 101.50 260.50 C 96.53 256.10, 93.84 252.16, 90.50 248.50 C 89.99 243.63, 87.62 240.53, 87.50 236.50 C 87.72 231.79, 86.80 227.60, 88.50 224.50 C 89.18 219.09, 91.52 215.37, 93.50 211.50 C 97.90 206.87, 101.37 203.38, 105.50 201.50 C 110.04 199.20, 113.96 198.80, 117.50 197.50 C 121.42 195.54, 126.52 196.36, 129.50 197.50 C 134.91 199.19, 139.26 199.99, 142.50 203.50 C 147.44 206.06, 149.97 209.65, 152.50 213.50 C 155.50 217.89, 156.39 221.74, 157.50 225.50 C 159.20 229.60, 158.28 233.79, 158.50 237.50 C 155.75 245.66, 160.23 241.24, 163.50 238.50 C 167.44 234.08, 171.67 233.77, 175.50 232.50 C 179.77 229.72, 183.92 232.76, 187.50 232.50 C 192.42 234.89, 196.71 235.37, 199.50 239.50 C 204.90 243.64, 205.67 248.29, 207.50 252.50 C 207.24 257.08, 210.28 261.23, 207.50 264.50 C 205.86 269.18, 205.90 273.55, 202.50 276.50 C 199.15 280.25, 196.02 284.88, 191.50 284.50 C 186.86 288.44, 181.04 284.44, 180.50 289.50 C 181.19 294.59, 178.81 297.41, 179.50 301.50 C 179.73 306.40, 179.47 310.10, 178.50 313.50 C 179.94 317.22, 177.58 321.65, 178.50 325.50 C 178.63 330.69, 178.64 334.83, 177.50 338.50 C 177.51 342.83, 176.36 346.15, 176.50 350.50 C 176.40 355.54, 175.56 359.64, 180.50 359.50 C 185.17 359.50, 188.83 359.50, 192.50 359.50 C 197.17 359.50, 200.83 359.50, 204.50 359.50 C 209.17 359.50, 212.83 359.50, 216.50 359.50 C 221.41 358.61, 218.69 352.63, 219.50 349.50 C 219.50 344.83, 219.50 341.17, 219.50 337.50 C 219.50 332.50, 219.50 328.50, 219.50 324.50 C 219.50 319.83, 219.50 316.17, 219.50 312.50 C 217.98 306.15, 222.33 304.53, 225.50 301.50 C 230.74 299.23, 233.89 295.31, 237.50 292.50 C 242.31 289.04, 246.21 285.80, 250.50 283.50 C 254.99 281.36, 258.36 274.78, 262.50 278.50 C 267.07 281.08, 270.84 283.15, 274.50 285.50 C 278.76 289.14, 283.21 289.93, 286.50 293.50 C 291.77 295.51, 295.23 299.49, 299.50 301.50 C 304.68 303.25, 307.94 307.53, 308.50 311.50 C 308.50 316.17, 308.50 319.83, 308.50 323.50 C 308.50 328.17, 308.50 331.83, 308.50 335.50 C 308.50 340.17, 308.50 343.83, 308.50 347.50 C 309.06 352.07, 307.32 356.60, 309.50 359.50 C 314.17 359.50, 317.83 359.50, 321.50 359.50 C 326.17 359.50, 329.83 359.50, 333.50 359.50 C 338.50 359.50, 342.50 359.50, 346.50 359.50 C 350.85 359.50, 356.77 360.37, 355.50 355.50 C 355.08 350.21, 356.35 346.98, 355.50 343.50 C 355.50 338.83, 355.50 335.17, 355.50 331.50 C 355.50 326.50, 355.50 322.50, 355.50 318.50 C 355.27 313.60, 355.53 309.90, 356.50 306.50 C 359.90 302.18, 363.72 299.89, 367.50 297.50 C 372.08 293.30, 376.30 291.63, 379.50 287.50 C 384.54 284.93, 387.79 280.45, 392.50 279.50 C 397.82 279.92, 401.12 282.82, 404.50 285.50 C 408.88 288.86, 412.98 290.49, 416.50 293.50 C 421.13 296.25, 424.95 298.54, 428.50 301.50 C 433.07 303.61, 438.98 307.88, 435.50 312.50 C 435.50 317.17, 435.50 320.83, 435.50 324.50 C 435.50 329.17, 435.50 332.83, 435.50 336.50 C 435.50 341.17, 435.50 344.83, 435.50 348.50 C 435.61 353.18, 434.79 359.61, 439.50 359.50 C 444.05 359.36, 449.18 359.69, 450.50 356.50 C 450.50 351.83, 450.50 348.17, 450.50 344.50 C 450.50 339.83, 450.50 336.17, 450.50 332.50 C 450.50 327.50, 450.50 323.50, 450.50 319.50 C 450.50 314.83, 450.50 311.17, 450.50 307.50 C 451.37 302.23, 453.43 298.45, 457.50 295.50 C 462.00 292.09, 465.89 289.64, 469.50 286.50 C 474.83 283.64, 478.33 279.75, 482.50 277.50 C 487.35 274.61, 490.35 270.66, 494.50 269.50 C 498.80 263.46, 503.11 266.84, 506.50 269.50 C 511.43 272.19, 514.90 275.01, 518.50 277.50 C 523.54 279.93, 527.00 282.77, 530.50 285.50 C 534.53 289.70, 539.47 289.30, 542.50 293.50 C 546.20 297.38, 551.94 297.62, 552.50 302.50 C 552.50 307.17, 552.50 310.83, 552.50 314.50 C 552.50 319.50, 552.50 323.50, 552.50 327.50 C 552.50 332.17, 552.50 335.83, 552.50 339.50 C 552.50 344.17, 552.50 347.83, 552.50 351.50 C 551.94 356.41, 552.32 361.08, 557.50 359.50 C 562.75 359.97, 567.37 358.74, 570.50 359.50 C 574.55 358.95, 580.46 359.81, 580.50 356.50 C 580.00 351.21, 580.99 347.54, 583.50 344.50 C 586.25 340.34, 583.05 335.23, 584.50 332.50 C 584.37 327.31, 584.36 323.17, 585.50 319.50 C 584.72 314.37, 586.85 311.45, 586.50 307.50 C 586.50 302.83, 586.50 299.17, 586.50 295.50 C 586.15 290.55, 588.28 287.63, 587.50 283.50 C 587.50 278.83, 587.50 275.17, 587.50 271.50 C 584.82 268.29, 579.21 269.59, 576.50 267.50 C 571.70 265.82, 567.74 264.53, 564.50 261.50 C 559.91 257.22, 557.50 253.44, 555.50 249.50 C 553.25 244.61, 552.90 240.34, 551.50 236.50 C 550.72 231.37, 552.85 228.45, 552.50 224.50 C 554.60 220.01, 554.71 215.70, 557.50 212.50 C 561.72 208.03, 564.20 204.54, 568.50 202.50 C 573.45 200.04, 577.02 197.69, 581.50 197.50 C 585.30 195.88, 590.70 195.88, 593.50 197.50 C 598.26 198.61, 602.11 199.50, 605.50 201.50 C 611.04 204.20, 612.85 208.17, 616.50 211.50 C 619.05 216.55, 622.85 219.67, 622.50 224.50 C 624.20 228.60, 623.28 232.79, 623.50 236.50 C 622.62 241.22, 621.13 244.68, 620.50 248.50 C 618.11 253.70, 614.74 257.07, 611.50 260.50 C 607.14 264.23, 603.28 265.77, 599.50 267.50 C 593.48 267.85, 596.17 274.50, 595.50 277.50 C 593.59 282.12, 595.21 285.09, 594.50 289.50 C 594.50 294.17, 594.50 297.83, 594.50 301.50 C 593.36 306.17, 593.37 310.31, 593.50 314.50 C 591.32 318.40, 593.06 322.93, 592.50 326.50 C 590.10 330.61, 592.05 335.24, 592.50 338.50 C 596.18 342.47, 597.19 346.55, 598.50 350.50 C 598.87 355.13, 596.67 361.33, 602.50 359.50 C 607.79 359.21, 610.37 358.40, 614.50 359.50 C 619.17 358.50, 622.83 358.50, 626.50 358.50 C 631.41 359.00, 634.73 360.15, 638.50 358.50 C 639.50 354.50, 639.50 350.50, 639.50 346.50 C 639.50 341.83, 639.50 338.17, 639.50 334.50 C 639.50 329.83, 639.50 326.17, 639.50 322.50 C 639.50 317.83, 639.50 314.17, 639.50 310.50 C 639.50 305.50, 639.50 301.50, 639.50 297.50 C 639.50 292.83, 639.50 289.17, 639.50 285.50 C 639.50 280.83, 639.50 277.17, 639.50 273.50 C 639.50 268.83, 639.50 265.17, 639.50 261.50 C 639.50 256.50, 639.50 252.50, 639.50 248.50 C 639.50 243.83, 639.50 240.17, 639.50 236.50 C 639.50 231.83, 639.50 228.17, 639.50 224.50 C 639.50 219.83, 639.50 216.17, 639.50 212.50 C 639.50 207.50, 639.50 203.50, 639.50 199.50 C 639.50 194.83, 639.50 191.17, 639.50 187.50 C 639.50 182.83, 639.50 179.17, 639.50 175.50 C 639.50 170.83, 639.50 167.17, 639.50 163.50 C 639.50 158.50, 639.50 154.50, 639.50 150.50 C 639.50 145.83, 639.50 142.17, 639.50 138.50 C 639.50 133.83, 639.50 130.17, 639.50 126.50 C 639.50 121.83, 639.50 118.17, 639.50 114.50 C 639.50 109.83, 639.50 106.17, 639.50 102.50 C 639.50 97.83, 639.50 94.17, 639.50 90.50 C 639.50 85.83, 639.50 82.17, 639.50 78.50 C 639.50 73.83, 639.50 70.17, 639.50 66.50 C 639.50 61.50, 639.50 57.50, 639.50 53.50 C 639.50 48.83, 639.50 45.17, 639.50 41.50 C 639.50 36.83, 639.50 33.17, 639.50 29.50 C 639.50 24.83, 639.50 21.17, 639.50 17.50 C 639.50 12.50, 639.50 8.50, 639.50 4.50 C 638.11 1.22, 632.54 3.13, 629.50 2.50 C 624.83 2.50, 621.17 2.50, 617.50 2.50 C 612.83 2.50, 609.17 2.50, 605.50 2.50 C 600.50 2.50, 596.50 2.50, 592.50 2.50 C 587.83 2.50, 584.17 2.50, 580.50 2.50 C 575.83 2.50, 572.17 2.50, 568.50 2.50 C 563.83 2.50, 560.17 2.50, 556.50 2.50 C 551.83 2.50, 548.17 2.50, 544.50 2.50 C 539.83 2.50, 536.17 2.50, 532.50 2.50 C 527.83 2.50, 524.17 2.50, 520.50 2.50 C 515.83 2.50, 512.17 2.50, 508.50 2.50 C 503.50 2.50, 499.50 2.50, 495.50 2.50 C 490.83 2.50, 487.17 2.50, 483.50 2.50 C 478.83 2.50, 475.17 2.50, 471.50 2.50 C 466.83 2.50, 463.17 2.50, 459.50 2.50 C 454.50 2.50, 450.50 2.50, 446.50 2.50 C 441.83 2.50, 438.17 2.50, 434.50 2.50 C 429.83 2.50, 426.17 2.50, 422.50 2.50 C 417.83 2.50, 414.17 2.50, 410.50 2.50 C 405.50 2.50, 401.50 2.50, 397.50 2.50 C 392.83 2.50, 389.17 2.50, 385.50 2.50 C 380.83 2.50, 377.17 2.50, 373.50 2.50 C 368.83 2.50, 365.17 2.50, 361.50 2.50 C 356.83 2.50, 353.17 2.50, 349.50 2.50 C 344.83 2.50, 341.17 2.50, 337.50 2.50 C 332.39 1.60, 328.69 4.15, 325.50 2.50 C 320.74 1.34, 317.72 3.47, 313.50 2.50 C 308.33 3.17, 305.28 2.25, 300.50 2.50 C 297.07 3.13, 292.18 2.07, 288.50 2.50 C 283.52 1.25, 279.50 4.67, 276.50 2.50 C 271.15 2.36, 267.83 3.51, 264.50 3.50 C 260.37 2.74, 255.75 3.97, 251.50 3.50 C 246.83 3.50, 243.17 3.50, 239.50 3.50 C 234.83 3.50, 231.17 3.50, 227.50 3.50 C 222.83 3.50, 219.17 3.50, 215.50 3.50 C 210.50 3.50, 206.50 3.50, 202.50 3.50 C 197.83 3.50, 194.17 3.50, 190.50 3.50 C 185.83 3.50, 182.17 3.50, 178.50 3.50 C 173.83 3.50, 170.17 3.50, 166.50 3.50 C 161.50 3.50, 157.50 3.50, 153.50 3.50 C 148.93 2.94, 144.40 4.68, 141.50 2.50 C 136.83 3.50, 133.17 3.50, 129.50 3.50 C 124.83 3.50, 121.17 3.50, 117.50 3.50 C 112.50 3.50, 108.50 3.50, 104.50 3.50 C 99.83 3.50, 96.17 3.50, 92.50 3.50 C 87.83 3.50, 84.17 3.50, 80.50 3.50 C 75.83 3.50, 72.17 3.50, 68.50 3.50 C 63.50 3.50, 59.50 3.50, 55.50 3.50 C 50.83 3.50, 47.17 3.50, 43.50 3.50 C 38.83 3.50, 35.17 3.50, 31.50 3.50 C 26.83 3.50, 23.17 3.50, 19.50 3.50 C 14.05 4.26, 10.87 1.93, 6.50 2.50 Z" fill="rgb(107.9510475488549,170.9802737825564,145.98324355375394)" stroke="rgb(107.9510475488549,170.9802737825564,145.98324355375394)" stroke-width="1" />
<path d="M 6.50 293.50 C 3.77 295.57, -1.09 294.41, 0.50 299.50 C 0.50 304.17, 0.50 307.83, 0.50 311.50 C 0.50 316.17, 0.50 319.83, 0.50 323.50 C 0.50 328.17, 0.50 331.83, 0.50 335.50 C 0.50 340.17, 0.50 343.83, 0.50 347.50 C 0.50 352.17, 0.50 355.83, 0.50 359.50 C 0.50 364.17, 0.50 367.83, 0.50 371.50 C 0.50 376.17, 0.50 379.83, 0.50 383.50 C 0.50 388.17, 0.50 391.83, 0.50 395.50 C 0.50 400.17, 0.50 403.83, 0.50 407.50 C 0.50 412.17, 0.50 415.83, 0.50 419.50 C -0.87 425.54, 2.16 426.17, 6.50 425.50 C 11.17 425.50, 14.83 425.50, 18.50 425.50 C 23.17 425.50, 26.83 425.50, 30.50 425.50 C 35.17 425.50, 38.83 425.50, 42.50 425.50 C 47.17 425.50, 50.83 425.50, 54.50 425.50 C 59.17 425.50, 62.83 425.50, 66.50 425.50 C 71.17 425.50, 74.83 425.50, 78.50 425.50 C 83.17 425.50, 86.83 425.50, 90.50 425.50 C 95.17 425.50, 98.83 425.50, 102.50 425.50 C 107.17 425.50, 110.83 425.50, 114.50 425.50 C 119.17 425.50, 122.83 425.50, 126.50 425.50 C 132.01 425.40, 134.15 425.11, 138.50 425.50 C 143.86 425.02, 146.14 425.02, 150.50 425.50 C 154.91 423.29, 158.33 426.54, 162.50 425.50 C 166.90 425.47, 170.60 425.73, 174.50 425.50 C 178.61 425.98, 183.39 425.98, 186.50 424.50 C 191.04 427.01, 194.38 423.59, 198.50 424.50 C 202.59 427.70, 207.24 421.92, 210.50 425.50 C 215.10 424.26, 218.90 424.26, 222.50 425.50 C 226.40 423.32, 230.93 425.06, 234.50 424.50 C 239.17 424.50, 242.83 424.50, 246.50 424.50 C 254.83 424.50, 262.17 424.50, 269.50 424.50 C 274.21 424.72, 278.40 423.80, 281.50 425.50 C 286.17 424.50, 289.83 424.50, 293.50 424.50 C 298.17 424.50, 301.83 424.50, 305.50 424.50 C 310.17 424.50, 313.83 424.50, 317.50 424.50 C 321.98 425.35, 325.21 424.08, 329.50 424.50 C 334.41 425.00, 337.73 423.85, 341.50 425.50 C 346.35 423.64, 349.35 425.61, 353.50 425.50 C 358.17 425.50, 361.83 425.50, 365.50 425.50 C 370.17 425.50, 373.83 425.50, 377.50 425.50 C 382.17 425.50, 385.83 425.50, 389.50 425.50 C 393.84 422.56, 397.51 426.70, 401.50 425.50 C 406.56 426.11, 409.79 424.73, 413.50 424.50 C 417.60 426.20, 421.79 425.28, 425.50 425.50 C 430.94 425.58, 433.39 424.47, 437.50 425.50 C 442.32 423.69, 445.21 425.98, 449.50 425.50 C 454.17 425.50, 457.83 425.50, 461.50 425.50 C 470.17 425.50, 477.83 425.50, 485.50 425.50 C 494.17 425.50, 501.83 425.50, 509.50 425.50 C 518.17 425.50, 525.83 425.50, 533.50 425.50 C 542.17 425.50, 549.83 425.50, 557.50 425.50 C 566.17 425.50, 573.83 425.50, 581.50 425.50 C 590.17 425.50, 597.83 425.50, 605.50 425.50 C 614.17 425.50, 621.83 425.50, 629.50 425.50 C 633.21 424.88, 638.44 426.77, 639.50 424.50 C 639.50 419.83, 639.50 416.17, 639.50 412.50 C 639.50 403.83, 639.50 396.17, 639.50 388.50 C 639.50 379.83, 639.50 372.17, 639.50 364.50 C 639.89 359.45, 633.27 362.40, 630.50 361.50 C 625.83 361.50, 622.17 361.50, 618.50 361.50 C 613.83 361.50, 610.17 361.50, 606.50 361.50 C 601.93 362.06, 597.40 360.32, 594.50 362.50 C 590.43 361.70, 586.32 362.79, 582.50 361.50 C 577.83 361.50, 574.17 361.50, 570.50 361.50 C 565.83 361.50, 562.17 361.50, 558.50 361.50 C 552.96 361.62, 550.00 361.34, 546.50 362.50 C 537.83 362.50, 530.17 362.50, 522.50 362.50 C 513.83 362.50, 506.17 362.50, 498.50 362.50 C 493.83 362.50, 490.17 362.50, 486.50 362.50 C 481.93 363.06, 477.40 361.32, 474.50 363.50 C 470.19 361.56, 465.91 362.72, 462.50 363.50 C 457.83 362.50, 454.17 362.50, 450.50 362.50 C 441.38 360.74, 434.53 363.05, 426.50 362.50 C 417.83 362.50, 410.17 362.50, 402.50 362.50 C 393.83 362.50, 386.17 362.50, 378.50 362.50 C 369.91 361.97, 361.42 363.64, 354.50 361.50 C 345.83 361.50, 338.17 361.50, 330.50 361.50 C 322.17 361.50, 314.83 361.50, 307.50 361.50 C 298.83 362.50, 291.17 362.50, 283.50 362.50 C 274.83 362.50, 267.17 362.50, 259.50 362.50 C 250.83 362.50, 243.17 362.50, 235.50 362.50 C 230.79 362.28, 226.60 363.20, 223.50 361.50 C 219.40 360.80, 215.21 361.72, 211.50 361.50 C 202.83 361.50, 195.17 361.50, 187.50 361.50 C 182.65 361.72, 178.22 360.54, 175.50 363.50 C 170.81 367.37, 167.61 360.90, 163.50 361.50 C 154.83 361.50, 147.17 361.50, 139.50 361.50 C 131.44 363.69, 122.68 362.25, 115.50 361.50 C 110.79 361.73, 107.56 363.11, 103.50 362.50 C 98.83 362.50, 95.17 362.50, 91.50 362.50 C 87.78 361.06, 83.35 363.42, 79.50 362.50 C 74.83 362.50, 71.17 362.50, 67.50 362.50 C 58.83 362.50, 51.17 362.50, 43.50 362.50 C 39.10 361.53, 35.40 361.27, 31.50 361.50 C 27.37 360.69, 21.39 363.41, 20.50 359.50 C 21.64 351.58, 19.97 343.09, 20.50 335.50 C 21.06 330.93, 19.32 326.40, 21.50 323.50 C 19.72 318.37, 21.85 315.45, 21.50 311.50 C 19.04 307.58, 21.83 302.48, 19.50 299.50 C 15.47 295.30, 12.06 293.01, 7.50 293.50 Z" fill="rgb(174.43908629441626,209.6979695431472,179.73350253807106)" stroke="rgb(174.43908629441626,209.6979695431472,179.73350253807106)" stroke-width="1" />
<path d="M 580.50 360.50 C 574.64 362.78, 567.05 360.88, 560.50 361.50 C 552.50 361.50, 545.50 361.50, 538.50 361.50 C 530.50 361.50, 523.50 361.50, 516.50 361.50 C 508.50 361.50, 501.50 361.50, 494.50 361.50 C 486.50 361.50, 479.50 361.50, 472.50 361.50 C 464.50 361.50, 457.50 361.50, 450.50 361.50 C 442.13 360.93, 435.50 362.18, 428.50 362.50 C 420.50 362.50, 413.50 362.50, 406.50 362.50 C 398.50 362.50, 391.50 362.50, 384.50 362.50 C 376.50 362.50, 369.50 362.50, 362.50 362.50 C 355.13 360.66, 347.51 361.82, 340.50 361.50 C 332.50 361.50, 325.50 361.50, 318.50 361.50 C 310.08 360.81, 303.92 363.19, 296.50 362.50 C 288.50 362.50, 281.50 362.50, 274.50 362.50 C 266.50 362.50, 259.50 362.50, 252.50 362.50 C 244.50 362.50, 237.50 362.50, 230.50 362.50 C 225.76 361.02, 222.63 363.15, 219.50 361.50 C 215.17 361.50, 211.83 361.50, 208.50 361.50 C 200.50 361.50, 193.50 361.50, 186.50 361.50 C 182.25 362.04, 178.08 360.34, 175.50 362.50 C 172.42 368.19, 168.78 363.23, 166.50 361.50 C 158.50 361.50, 151.50 361.50, 144.50 361.50 C 136.37 360.60, 129.15 364.55, 122.50 361.50 C 113.45 361.06, 107.78 362.82, 100.50 362.50 C 96.25 361.96, 92.08 363.66, 89.50 361.50 C 85.18 363.64, 82.26 361.01, 78.50 362.50 C 70.50 362.50, 63.50 362.50, 56.50 362.50 C 48.21 362.88, 41.34 362.21, 34.50 361.50 C 25.95 360.85, 19.39 362.56, 12.50 363.50 C 7.95 364.04, 5.04 361.17, 1.50 363.50 C 0.50 366.83, 0.50 370.17, 0.50 373.50 C 0.50 381.50, 0.50 388.50, 0.50 395.50 C 0.50 403.50, 0.50 410.50, 0.50 417.50 C 1.01 421.32, -1.29 426.95, 3.50 425.50 C 7.33 423.01, 11.48 425.22, 14.50 425.50 C 22.50 425.50, 29.50 425.50, 36.50 425.50 C 44.50 425.50, 51.50 425.50, 58.50 425.50 C 66.17 425.50, 72.83 425.50, 79.50 425.50 C 88.00 425.74, 94.95 425.07, 101.50 425.50 C 109.82 424.17, 115.63 424.88, 123.50 424.50 C 131.81 424.24, 139.28 424.92, 145.50 424.50 C 153.50 424.50, 160.50 424.50, 167.50 424.50 C 175.50 424.50, 182.50 424.50, 189.50 424.50 C 197.50 424.50, 204.50 424.50, 211.50 424.50 C 219.50 424.50, 226.50 424.50, 233.50 424.50 C 241.50 424.50, 248.50 424.50, 255.50 424.50 C 263.50 424.50, 270.50 424.50, 277.50 424.50 C 285.50 424.50, 292.50 424.50, 299.50 424.50 C 307.50 424.50, 314.50 424.50, 321.50 424.50 C 329.50 424.50, 336.50 424.50, 343.50 424.50 C 351.50 424.50, 358.50 424.50, 365.50 424.50 C 373.50 424.50, 380.50 424.50, 387.50 424.50 C 395.50 424.50, 402.50 424.50, 409.50 424.50 C 417.50 424.50, 424.50 424.50, 431.50 424.50 C 439.50 424.50, 446.50 424.50, 453.50 424.50 C 461.50 424.50, 468.50 424.50, 475.50 424.50 C 483.50 424.50, 490.50 424.50, 497.50 424.50 C 505.50 424.50, 512.50 424.50, 519.50 424.50 C 527.50 424.50, 534.50 424.50, 541.50 424.50 C 549.50 424.50, 556.50 424.50, 563.50 424.50 C 571.50 424.50, 578.50 424.50, 585.50 424.50 C 593.50 424.50, 600.50 424.50, 607.50 424.50 C 615.50 424.50, 622.50 424.50, 629.50 424.50 C 633.35 423.87, 638.01 427.47, 639.50 424.50 C 639.50 420.17, 639.50 416.83, 639.50 413.50 C 639.50 405.50, 639.50 398.50, 639.50 391.50 C 639.50 383.50, 639.50 376.50, 639.50 369.50 C 642.64 358.36, 631.88 362.12, 625.50 361.50 C 617.50 361.50, 610.50 361.50, 603.50 361.50 C 596.41 359.64, 587.98 363.53, 581.50 360.50 Z" fill="rgb(175.06432547759766,210.05270127768105,180.03918875836868)" stroke="rgb(175.06432547759766,210.05270127768105,180.03918875836868)" stroke-width="1" />
<path d="M 499.50 267.50 C 493.44 271.68, 487.20 275.44, 481.50 280.50 C 474.76 285.80, 468.15 289.00, 462.50 294.50 C 455.74 298.80, 450.56 302.22, 452.50 310.50 C 452.50 317.83, 452.50 324.17, 452.50 330.50 C 452.50 337.50, 452.50 343.50, 452.50 349.50 C 453.02 353.42, 451.37 357.24, 453.50 359.50 C 457.50 359.50, 460.50 359.50, 463.50 359.50 C 470.50 359.50, 476.50 359.50, 482.50 359.50 C 489.83 359.50, 496.17 359.50, 502.50 359.50 C 509.50 359.50, 515.50 359.50, 521.50 359.50 C 528.50 359.50, 534.50 359.50, 540.50 359.50 C 549.43 361.65, 552.05 356.75, 550.50 349.50 C 550.50 342.17, 550.50 335.83, 550.50 329.50 C 550.50 322.50, 550.50 316.50, 550.50 310.50 C 552.81 301.08, 545.68 296.28, 539.50 293.50 C 532.50 288.50, 526.50 284.50, 520.50 280.50 C 512.70 276.64, 506.96 271.19, 500.50 267.50 Z" fill="rgb(245.38765718067506,228.2169093315685,191.96988749172732)" stroke="rgb(245.38765718067506,228.2169093315685,191.96988749172732)" stroke-width="1" />
<path d="M 258.50 279.50 C 253.36 283.97, 247.64 287.03, 242.50 291.50 C 235.99 296.08, 230.94 300.76, 225.50 304.50 C 218.87 307.48, 222.56 315.67, 221.50 320.50 C 221.50 326.83, 221.50 332.17, 221.50 337.50 C 221.50 343.83, 221.50 349.17, 221.50 354.50 C 220.59 362.51, 230.22 358.41, 234.50 359.50 C 241.65 359.66, 245.35 359.66, 251.50 359.50 C 257.83 359.50, 263.17 359.50, 268.50 359.50 C 274.83 359.50, 280.17 359.50, 285.50 359.50 C 291.83 359.50, 297.17 359.50, 302.50 359.50 C 309.47 360.14, 305.22 350.56, 306.50 346.50 C 306.50 340.17, 306.50 334.83, 306.50 329.50 C 306.50 323.17, 306.50 317.83, 306.50 312.50 C 306.54 304.40, 297.32 303.63, 293.50 299.50 C 287.39 295.30, 281.79 292.26, 276.50 288.50 C 270.44 284.85, 265.53 280.81, 259.50 279.50 Z" fill="rgb(217.40947136563878,134.5248898678414,109.5068281938326)" stroke="rgb(217.40947136563878,134.5248898678414,109.5068281938326)" stroke-width="1" />
<path d="M 393.50 280.50 C 388.66 284.56, 383.23 287.19, 378.50 291.50 C 372.86 296.03, 367.75 299.44, 362.50 302.50 C 356.82 305.88, 357.78 312.39, 357.50 317.50 C 357.50 323.50, 357.50 328.50, 357.50 333.50 C 357.50 339.50, 357.50 344.50, 357.50 349.50 C 356.89 355.98, 357.84 361.48, 364.50 359.50 C 370.50 359.50, 375.50 359.50, 380.50 359.50 C 386.50 359.50, 391.50 359.50, 396.50 359.50 C 402.68 359.40, 407.06 361.22, 412.50 360.50 C 417.34 359.53, 424.10 361.85, 428.50 359.50 C 435.80 360.35, 432.87 353.36, 433.50 348.50 C 433.50 342.50, 433.50 337.50, 433.50 332.50 C 433.50 326.50, 433.50 321.50, 433.50 316.50 C 434.35 309.23, 433.08 304.89, 427.50 302.50 C 421.68 298.74, 416.69 295.39, 411.50 292.50 C 405.21 287.74, 399.61 284.70, 394.50 280.50 Z" fill="rgb(48.50497203231821,6.1603480422622745,44.7958359229335)" stroke="rgb(48.50497203231821,6.1603480422622745,44.7958359229335)" stroke-width="1" />
<path d="M 66.50 282.50 C 61.92 286.38, 57.40 290.40, 52.50 293.50 C 47.39 298.58, 41.09 301.09, 38.50 306.50 C 38.50 312.17, 38.50 316.83, 38.50 321.50 C 38.50 327.50, 38.50 332.50, 38.50 337.50 C 38.50 343.17, 38.50 347.83, 38.50 352.50 C 36.46 360.19, 42.67 359.97, 47.50 359.50 C 53.17 359.50, 57.83 359.50, 62.50 359.50 C 68.50 359.50, 73.50 359.50, 78.50 359.50 C 84.50 360.82, 89.22 356.61, 93.50 359.50 C 99.17 359.50, 103.83 359.50, 108.50 359.50 C 111.66 356.91, 109.87 349.03, 111.50 346.50 C 111.11 340.52, 109.96 335.86, 110.50 330.50 C 110.50 324.83, 110.50 320.17, 110.50 315.50 C 109.66 308.55, 101.71 308.35, 98.50 303.50 C 93.10 299.53, 87.90 297.47, 83.50 293.50 C 77.80 289.45, 72.67 286.42, 67.50 283.50 Z" fill="rgb(46.17371871275328,6.022646007151371,44.98778307508939)" stroke="rgb(46.17371871275328,6.022646007151371,44.98778307508939)" stroke-width="1" />
<path d="M 120.50 198.50 C 117.24 200.49, 112.59 199.10, 109.50 201.50 C 104.71 203.88, 100.67 205.64, 97.50 209.50 C 91.07 217.02, 89.32 225.07, 88.50 233.50 C 89.12 243.84, 93.66 251.15, 100.50 257.50 C 104.86 261.23, 108.72 262.77, 112.50 264.50 C 116.06 267.22, 124.02 262.83, 123.50 268.50 C 123.50 277.17, 123.50 284.83, 123.50 292.50 C 123.50 301.17, 123.50 308.83, 123.50 316.50 C 123.50 325.17, 123.50 332.83, 123.50 340.50 C 123.50 345.17, 123.50 348.83, 123.50 352.50 C 122.36 358.64, 124.36 360.64, 129.50 359.50 C 135.84 361.07, 134.98 354.11, 133.50 351.50 C 129.63 347.33, 126.35 344.97, 125.50 340.50 C 125.50 331.83, 125.50 324.17, 125.50 316.50 C 125.50 307.83, 125.50 300.17, 125.50 292.50 C 125.50 287.83, 125.50 284.17, 125.50 280.50 C 125.50 275.50, 125.50 271.50, 125.50 267.50 C 126.37 262.26, 133.01 266.12, 135.50 263.50 C 140.26 261.39, 144.35 260.09, 147.50 256.50 C 151.18 252.12, 154.08 248.82, 154.50 244.50 C 155.52 239.61, 158.52 234.88, 156.50 231.50 C 157.04 226.33, 155.77 222.91, 154.50 219.50 C 152.29 214.88, 149.75 210.29, 146.50 208.50 C 142.25 204.17, 138.56 201.88, 134.50 200.50 C 129.88 198.92, 125.85 198.32, 121.50 198.50 Z" fill="rgb(123.63157894736842,159.1315789473684,143.10526315789474)" stroke="rgb(123.63157894736842,159.1315789473684,143.10526315789474)" stroke-width="1" />
<path d="M 153.50 253.50 C 148.37 257.19, 143.78 262.18, 138.50 265.50 C 131.68 264.61, 126.64 268.37, 129.50 274.50 C 127.55 279.83, 128.89 285.52, 128.50 290.50 C 128.50 296.50, 128.50 301.50, 128.50 306.50 C 128.50 312.50, 128.50 317.50, 128.50 322.50 C 128.64 327.79, 128.98 332.69, 129.50 338.50 C 127.96 346.11, 136.63 348.48, 136.50 354.50 C 135.73 361.35, 144.30 358.98, 148.50 359.50 C 154.50 359.50, 159.50 359.50, 164.50 359.50 C 170.75 358.90, 167.90 350.49, 169.50 346.50 C 169.40 340.32, 171.22 335.94, 170.50 330.50 C 169.81 324.08, 172.19 319.92, 171.50 314.50 C 171.55 308.24, 172.72 303.45, 173.50 298.50 C 172.40 292.66, 176.90 284.77, 169.50 285.50 C 162.68 283.04, 158.49 276.07, 155.50 271.50 C 153.22 265.72, 151.65 259.78, 153.50 254.50 Z" fill="rgb(107.8918007265179,170.87908666320706,145.92786715101192)" stroke="rgb(107.8918007265179,170.87908666320706,145.92786715101192)" stroke-width="1" />
<path d="M 581.50 198.50 C 575.89 200.50, 570.02 201.88, 565.50 206.50 C 559.49 211.47, 555.82 217.00, 554.50 223.50 C 553.50 229.83, 553.50 235.17, 553.50 240.50 C 554.88 248.25, 558.56 253.64, 563.50 258.50 C 569.20 263.36, 574.12 266.70, 580.50 266.50 C 589.59 269.92, 588.96 263.63, 588.50 257.50 C 591.69 247.93, 579.56 251.42, 579.50 243.50 C 576.46 236.66, 582.93 229.35, 588.50 227.50 C 596.29 226.40, 600.67 233.37, 602.50 238.50 C 602.59 246.44, 592.96 249.37, 593.50 256.50 C 592.25 264.96, 594.26 269.60, 601.50 265.50 C 608.56 262.32, 614.76 256.45, 617.50 250.50 C 619.80 244.29, 622.34 239.60, 621.50 233.50 C 621.81 226.15, 620.57 220.45, 617.50 215.50 C 612.94 208.36, 606.30 203.61, 600.50 200.50 C 594.45 198.36, 588.53 198.30, 582.50 198.50 Z" fill="rgb(185.95027949396882,211.11944689614592,186.0800235363342)" stroke="rgb(185.95027949396882,211.11944689614592,186.0800235363342)" stroke-width="1" />
<path d="M 119.50 198.50 C 113.99 200.06, 108.12 200.79, 103.50 204.50 C 96.15 208.70, 92.72 215.61, 90.50 221.50 C 88.75 227.38, 87.70 233.36, 89.50 238.50 C 91.01 245.26, 93.85 252.02, 98.50 255.50 C 103.78 262.03, 110.03 262.83, 115.50 265.50 C 124.35 268.13, 123.34 257.73, 121.50 253.50 C 114.74 251.89, 111.14 245.48, 111.50 239.50 C 113.36 232.94, 118.28 226.02, 125.50 227.50 C 132.02 228.11, 138.54 233.02, 137.50 239.50 C 137.40 247.08, 133.75 252.71, 127.50 254.50 C 126.74 261.59, 127.06 266.61, 134.50 264.50 C 141.95 262.39, 147.87 257.17, 151.50 251.50 C 155.25 245.61, 156.40 240.07, 157.50 234.50 C 156.00 227.77, 156.86 221.05, 152.50 216.50 C 149.21 209.89, 144.35 205.22, 138.50 202.50 C 132.20 199.60, 126.83 197.89, 120.50 198.50 Z" fill="rgb(185.8138871274572,211.00792644261256,185.9866835764109)" stroke="rgb(185.8138871274572,211.00792644261256,185.9866835764109)" stroke-width="1" />
<path d="M 176.50 233.50 C 170.52 235.44, 163.69 238.07, 160.50 244.50 C 156.81 250.94, 154.77 256.65, 155.50 263.50 C 157.21 271.04, 160.95 277.91, 167.50 281.50 C 176.29 282.60, 177.54 286.38, 176.50 294.50 C 174.60 300.65, 175.86 307.12, 174.50 312.50 C 172.71 319.03, 174.54 326.07, 172.50 331.50 C 172.82 338.77, 172.30 344.70, 171.50 350.50 C 170.73 357.52, 172.32 367.75, 173.50 356.50 C 172.75 349.39, 174.69 344.38, 174.50 338.50 C 174.45 331.34, 176.21 325.93, 175.50 319.50 C 177.24 312.94, 176.47 306.35, 177.50 300.50 C 178.84 294.59, 175.78 284.40, 182.50 284.50 C 190.32 284.61, 195.61 281.05, 200.50 276.50 C 205.74 270.84, 206.04 264.14, 206.50 257.50 C 205.81 249.41, 202.53 243.38, 196.50 238.50 C 190.58 234.23, 184.24 233.38, 177.50 233.50 Z" fill="rgb(189.57142857142858,184.88095238095238,160.0952380952381)" stroke="rgb(189.57142857142858,184.88095238095238,160.0952380952381)" stroke-width="1" />
<path d="M 176.50 233.50 C 172.80 235.08, 168.78 235.89, 165.50 238.50 C 160.36 242.89, 158.74 247.32, 156.50 251.50 C 155.53 255.90, 155.27 259.60, 155.50 263.50 C 156.78 268.80, 157.75 273.22, 161.50 276.50 C 165.44 281.58, 169.65 282.60, 173.50 284.50 C 177.26 282.87, 176.36 277.20, 176.50 273.50 C 178.98 267.86, 174.72 264.15, 178.50 260.50 C 181.37 261.95, 192.02 260.48, 186.50 264.50 C 182.97 263.75, 180.64 266.60, 180.50 271.50 C 180.50 276.50, 180.50 280.50, 180.50 284.50 C 186.13 285.34, 189.45 283.05, 193.50 282.50 C 199.02 279.22, 201.98 274.51, 204.50 270.50 C 205.42 265.94, 206.57 262.47, 206.50 258.50 C 205.88 253.21, 205.61 248.76, 202.50 245.50 C 198.82 240.72, 195.17 236.89, 190.50 235.50 C 186.03 233.54, 181.85 233.31, 177.50 233.50 Z" fill="rgb(155.45714285714286,185.71428571428572,158.62857142857143)" stroke="rgb(155.45714285714286,185.71428571428572,158.62857142857143)" stroke-width="1" />
<path d="M 403.50 308.50 C 401.43 314.11, 402.98 321.23, 402.50 327.50 C 403.00 334.89, 404.38 341.26, 402.50 347.50 C 402.50 351.50, 402.50 354.50, 402.50 357.50 C 402.83 362.17, 407.97 359.85, 410.50 360.50 C 418.17 360.50, 424.83 360.50, 431.50 360.50 C 435.19 355.82, 432.62 347.98, 433.50 341.50 C 433.50 333.83, 433.50 327.17, 433.50 320.50 C 433.50 316.50, 433.50 313.50, 433.50 310.50 C 432.76 307.24, 427.89 309.11, 425.50 308.50 C 417.83 308.50, 411.17 308.50, 404.50 308.50 Z" fill="rgb(211.99227569815804,145.44622697563875,121.90552584670232)" stroke="rgb(211.99227569815804,145.44622697563875,121.90552584670232)" stroke-width="1" />
<path d="M 334.50 250.50 C 329.18 252.06, 323.74 253.32, 319.50 257.50 C 315.68 262.89, 313.76 267.64, 314.50 273.50 C 314.40 280.51, 316.93 285.43, 321.50 289.50 C 326.64 294.24, 331.62 295.95, 337.50 295.50 C 344.48 295.54, 349.13 292.35, 353.50 288.50 C 357.60 283.90, 358.44 276.85, 357.50 272.50 C 358.47 265.27, 354.10 261.25, 351.50 256.50 C 345.96 252.73, 341.04 250.86, 335.50 250.50 Z" fill="rgb(133.3,183.6,158.5)" stroke="rgb(133.3,183.6,158.5)" stroke-width="1" />
<path d="M 334.50 250.50 C 329.68 252.13, 324.42 252.70, 320.50 256.50 C 316.06 261.77, 314.16 266.67, 314.50 272.50 C 314.66 279.26, 316.04 284.52, 320.50 288.50 C 325.57 293.74, 330.54 295.81, 336.50 295.50 C 343.47 295.85, 347.94 292.56, 352.50 289.50 C 356.60 284.09, 357.63 278.83, 358.50 273.50 C 356.55 267.34, 356.53 261.38, 351.50 257.50 C 346.52 252.04, 340.91 251.52, 335.50 250.50 Z" fill="rgb(185.74799753542823,210.875539125077,185.8607516943931)" stroke="rgb(185.74799753542823,210.875539125077,185.8607516943931)" stroke-width="1" />
<path d="M 5.50 293.50 C -2.41 294.24, 1.33 303.40, 0.50 309.50 C 0.50 317.17, 0.50 323.83, 0.50 330.50 C 0.50 338.17, 0.50 344.83, 0.50 351.50 C -2.00 361.67, 3.69 362.64, 11.50 361.50 C 22.09 364.16, 20.82 355.26, 20.50 348.50 C 20.50 340.83, 20.50 334.17, 20.50 327.50 C 20.50 319.83, 20.50 313.17, 20.50 306.50 C 21.36 297.64, 14.15 292.16, 6.50 293.50 Z" fill="rgb(175.2484076433121,210.14295824486908,180.14720452937013)" stroke="rgb(175.2484076433121,210.14295824486908,180.14720452937013)" stroke-width="1" />
<path d="M 176.50 233.50 C 171.53 235.44, 166.26 236.64, 162.50 241.50 C 158.78 247.20, 156.33 252.02, 155.50 257.50 C 161.62 257.74, 165.59 259.76, 170.50 259.50 C 176.48 259.89, 181.14 261.04, 186.50 260.50 C 191.78 262.10, 196.50 262.65, 201.50 262.50 C 208.78 265.47, 206.32 254.99, 205.50 251.50 C 203.10 245.03, 198.84 239.93, 193.50 236.50 C 188.05 234.18, 183.05 233.16, 177.50 233.50 Z" fill="rgb(186.5737704918033,209.79637618636755,184.79292493528905)" stroke="rgb(186.5737704918033,209.79637618636755,184.79292493528905)" stroke-width="1" />
<path d="M 587.50 228.50 C 581.82 231.20, 577.97 237.71, 580.50 243.50 C 583.01 250.57, 592.61 248.39, 589.50 257.50 C 589.50 264.17, 589.50 269.83, 589.50 275.50 C 589.50 282.17, 589.50 287.83, 589.50 293.50 C 590.10 300.22, 587.75 304.72, 588.50 310.50 C 588.05 317.26, 587.55 322.99, 586.50 328.50 C 585.56 335.05, 588.61 342.26, 584.50 346.50 C 580.88 351.90, 581.73 361.51, 589.50 359.50 C 597.75 359.86, 597.36 350.76, 594.50 346.50 C 589.10 341.38, 589.03 335.05, 589.50 328.50 C 590.62 322.02, 590.38 315.98, 591.50 310.50 C 591.50 303.83, 591.50 298.17, 591.50 292.50 C 591.71 285.78, 593.12 280.56, 592.50 274.50 C 592.50 267.83, 592.50 262.17, 592.50 256.50 C 593.11 248.91, 601.68 246.76, 601.50 239.50 C 600.04 232.54, 595.67 227.28, 588.50 228.50 Z" fill="rgb(199.375,220.0,188.25)" stroke="rgb(199.375,220.0,188.25)" stroke-width="1" />
<path d="M 120.50 228.50 C 115.01 231.25, 110.39 238.63, 113.50 244.50 C 114.27 252.87, 125.86 250.92, 123.50 259.50 C 123.31 266.38, 125.25 271.39, 124.50 277.50 C 123.32 283.82, 123.39 289.65, 123.50 295.50 C 123.50 302.17, 123.50 307.83, 123.50 313.50 C 123.50 320.17, 123.50 325.83, 123.50 331.50 C 122.75 338.61, 124.69 343.62, 124.50 349.50 C 120.64 357.30, 125.11 361.63, 132.50 359.50 C 138.05 352.52, 128.24 347.84, 125.50 342.50 C 125.50 335.83, 125.50 330.17, 125.50 324.50 C 125.50 317.83, 125.50 312.17, 125.50 306.50 C 125.50 299.83, 125.50 294.17, 125.50 288.50 C 125.50 281.83, 125.50 276.17, 125.50 270.50 C 126.44 263.95, 123.39 256.74, 127.50 252.50 C 134.90 252.09, 136.94 244.43, 136.50 238.50 C 136.00 230.39, 128.07 227.54, 121.50 228.50 Z" fill="rgb(50.02931596091205,35.615635179153095,58.60260586319218)" stroke="rgb(50.02931596091205,35.615635179153095,58.60260586319218)" stroke-width="1" />
<path d="M 476.50 305.50 C 474.27 309.38, 476.09 314.94, 475.50 319.50 C 475.50 325.17, 475.50 329.83, 475.50 334.50 C 476.55 339.12, 473.23 347.10, 477.50 347.50 C 483.50 347.50, 488.50 347.50, 493.50 347.50 C 496.80 343.51, 494.44 337.59, 496.50 333.50 C 496.14 327.84, 497.40 322.52, 495.50 318.50 C 496.62 314.34, 498.30 305.60, 493.50 305.50 C 486.92 306.15, 483.33 305.54, 477.50 305.50 Z" fill="rgb(223.10628019323673,203.81159420289856,169.93719806763286)" stroke="rgb(223.10628019323673,203.81159420289856,169.93719806763286)" stroke-width="1" />
<path d="M 235.50 310.50 C 235.50 314.50, 235.50 318.50, 235.50 322.50 C 235.50 327.83, 235.50 332.17, 235.50 336.50 C 236.43 341.01, 233.06 348.72, 238.50 348.50 C 244.69 348.40, 247.46 348.19, 252.50 348.50 C 255.72 343.95, 253.92 338.73, 254.50 334.50 C 254.50 329.17, 254.50 324.83, 254.50 320.50 C 253.90 315.76, 256.72 308.61, 250.50 310.50 C 245.17 310.50, 240.83 310.50, 236.50 310.50 Z" fill="rgb(150.91354838709677,189.70451612903227,164.58322580645162)" stroke="rgb(150.91354838709677,189.70451612903227,164.58322580645162)" stroke-width="1" />
<path d="M 52.50 308.50 C 52.50 312.50, 52.50 316.50, 52.50 320.50 C 52.50 325.83, 52.50 330.17, 52.50 334.50 C 52.87 339.13, 50.67 345.33, 56.50 343.50 C 61.83 343.50, 66.17 343.50, 70.50 343.50 C 71.50 339.50, 71.50 335.50, 71.50 331.50 C 71.50 326.17, 71.50 321.83, 71.50 317.50 C 71.13 312.87, 73.33 306.67, 67.50 308.50 C 62.17 308.50, 57.83 308.50, 53.50 308.50 Z" fill="rgb(116.62096774193549,107.89112903225806,120.16935483870968)" stroke="rgb(116.62096774193549,107.89112903225806,120.16935483870968)" stroke-width="1" />
<path d="M 591.50 232.50 C 589.26 236.71, 591.10 242.61, 590.50 247.50 C 590.50 253.83, 590.50 259.17, 590.50 264.50 C 588.55 269.83, 589.89 275.52, 589.50 280.50 C 589.50 286.83, 589.50 292.17, 589.50 297.50 C 588.56 303.25, 588.25 308.26, 588.50 313.50 C 586.68 319.35, 587.72 325.40, 586.50 330.50 C 585.64 336.42, 588.50 342.88, 584.50 346.50 C 581.05 350.93, 581.04 361.61, 588.50 359.50 C 595.70 361.33, 598.29 353.92, 595.50 349.50 C 593.81 343.04, 587.53 339.48, 589.50 332.50 C 589.04 326.17, 591.28 321.96, 590.50 316.50 C 592.48 310.85, 591.08 304.80, 591.50 299.50 C 591.89 293.52, 593.04 288.86, 592.50 283.50 C 592.50 277.17, 592.50 271.83, 592.50 266.50 C 592.92 260.20, 591.52 254.15, 593.50 249.50 C 592.96 242.46, 594.07 238.68, 592.50 232.50 Z" fill="rgb(57.70663265306123,52.05357142857143,76.29081632653062)" stroke="rgb(57.70663265306123,52.05357142857143,76.29081632653062)" stroke-width="1" />
<path d="M 88.50 318.50 C 85.44 322.86, 88.17 327.12, 87.50 332.50 C 87.50 338.17, 87.50 342.83, 87.50 347.50 C 88.60 352.07, 84.79 360.54, 90.50 359.50 C 96.17 359.50, 100.83 359.50, 105.50 359.50 C 108.80 357.13, 106.86 350.52, 107.50 346.50 C 103.59 346.03, 95.71 348.83, 97.50 341.50 C 97.50 335.83, 97.50 331.17, 97.50 326.50 C 99.25 319.29, 95.04 317.32, 89.50 318.50 Z" fill="rgb(102.4,81.6,87.6)" stroke="rgb(102.4,81.6,87.6)" stroke-width="1" />
<path d="M 452.50 354.50 C 451.13 359.54, 454.16 360.17, 458.50 359.50 C 463.50 359.50, 467.50 359.50, 471.50 359.50 C 476.50 359.50, 480.50 359.50, 484.50 359.50 C 489.50 359.50, 493.50 359.50, 497.50 359.50 C 502.50 359.50, 506.50 359.50, 510.50 359.50 C 515.50 359.50, 519.50 359.50, 523.50 359.50 C 528.50 359.50, 532.50 359.50, 536.50 359.50 C 541.50 359.50, 545.50 359.50, 549.50 359.50 C 551.87 354.46, 548.84 353.83, 544.50 354.50 C 539.50 354.50, 535.50 354.50, 531.50 354.50 C 526.50 354.50, 522.50 354.50, 518.50 354.50 C 513.50 354.50, 509.50 354.50, 505.50 354.50 C 500.50 354.50, 496.50 354.50, 492.50 354.50 C 487.50 354.50, 483.50 354.50, 479.50 354.50 C 474.50 354.50, 470.50 354.50, 466.50 354.50 C 461.50 354.50, 457.50 354.50, 453.50 354.50 Z" fill="rgb(52.602693602693606,9.6010101010101,46.388888888888886)" stroke="rgb(52.602693602693606,9.6010101010101,46.388888888888886)" stroke-width="1" />
<path d="M 288.50 147.50 C 284.15 150.00, 279.45 153.27, 278.50 158.50 C 276.19 164.37, 276.57 168.99, 278.50 173.50 C 280.70 180.10, 286.88 182.80, 291.50 184.50 C 297.06 184.79, 303.90 184.14, 304.50 179.50 C 298.23 180.77, 293.94 178.66, 290.50 174.50 C 287.53 168.97, 285.77 163.90, 288.50 159.50 C 289.82 153.48, 295.23 149.35, 300.50 149.50 C 302.66 146.03, 293.30 147.87, 289.50 147.50 Z" fill="rgb(116.75,174.75,148.25)" stroke="rgb(116.75,174.75,148.25)" stroke-width="1" />
<path d="M 289.50 147.50 C 284.62 149.35, 279.54 153.01, 278.50 158.50 C 276.19 164.37, 276.57 168.99, 278.50 173.50 C 280.62 180.31, 286.98 182.52, 291.50 184.50 C 297.55 184.94, 303.37 183.74, 305.50 179.50 C 299.49 182.63, 293.96 178.39, 290.50 174.50 C 287.04 169.09, 286.24 164.46, 287.50 159.50 C 289.82 153.48, 295.23 149.35, 300.50 149.50 C 304.18 148.70, 294.15 146.46, 290.50 147.50 Z" fill="rgb(172.9090909090909,197.22727272727272,165.54545454545453)" stroke="rgb(172.9090909090909,197.22727272727272,165.54545454545453)" stroke-width="1" />
<path d="M 289.50 147.50 C 285.19 150.11, 280.18 153.45, 278.50 158.50 C 275.88 163.56, 276.44 168.40, 278.50 172.50 C 281.51 177.50, 284.25 182.00, 289.50 183.50 C 294.63 187.21, 300.13 184.86, 303.50 182.50 C 301.77 179.62, 295.16 180.90, 292.50 176.50 C 287.81 172.36, 286.70 166.16, 287.50 162.50 C 288.41 156.97, 291.39 151.50, 296.50 150.50 C 305.20 148.45, 293.56 146.59, 290.50 147.50 Z" fill="rgb(232.6714876033058,223.2706611570248,185.12603305785123)" stroke="rgb(232.6714876033058,223.2706611570248,185.12603305785123)" stroke-width="1" />
<path d="M 120.50 228.50 C 116.27 230.36, 113.93 234.60, 112.50 238.50 C 111.99 243.93, 114.15 247.26, 116.50 250.50 C 121.99 254.58, 123.40 250.89, 122.50 246.50 C 120.59 241.09, 125.77 233.87, 126.50 241.50 C 127.13 245.54, 125.22 251.11, 127.50 252.50 C 133.69 253.03, 134.09 247.56, 136.50 244.50 C 136.28 239.65, 137.46 235.22, 134.50 232.50 C 130.27 228.65, 126.08 228.10, 121.50 228.50 Z" fill="rgb(211.04842105263157,133.9663157894737,108.65052631578948)" stroke="rgb(211.04842105263157,133.9663157894737,108.65052631578948)" stroke-width="1" />
<path d="M 283.50 309.50 C 281.23 315.03, 283.12 322.29, 282.50 328.50 C 283.23 331.77, 280.70 337.30, 284.50 336.50 C 288.83 336.50, 292.17 336.50, 295.50 336.50 C 300.85 332.82, 297.39 323.49, 298.50 317.50 C 298.20 313.93, 299.89 308.56, 295.50 309.50 C 290.95 308.96, 288.04 311.83, 284.50 309.50 Z" fill="rgb(170.1455938697318,161.73946360153258,158.1455938697318)" stroke="rgb(170.1455938697318,161.73946360153258,158.1455938697318)" stroke-width="1" />
<path d="M 189.50 263.50 C 184.66 268.24, 178.04 267.85, 180.50 276.50 C 176.49 285.41, 185.08 285.59, 190.50 283.50 C 197.55 281.08, 203.73 274.71, 204.50 268.50 C 205.26 262.04, 195.48 264.30, 190.50 263.50 Z" fill="rgb(186.38084112149534,210.56308411214954,183.3271028037383)" stroke="rgb(186.38084112149534,210.56308411214954,183.3271028037383)" stroke-width="1" />
<path d="M 155.50 259.50 C 155.07 266.17, 156.98 271.88, 161.50 276.50 C 164.98 280.45, 174.73 288.25, 176.50 281.50 C 175.33 274.19, 179.59 267.63, 173.50 264.50 C 170.90 257.80, 161.38 261.67, 156.50 259.50 Z" fill="rgb(188.61313868613138,211.20437956204378,185.97323600973235)" stroke="rgb(188.61313868613138,211.20437956204378,185.97323600973235)" stroke-width="1" />
<path d="M 587.50 228.50 C 583.32 230.10, 581.05 233.45, 579.50 237.50 C 579.30 242.45, 580.31 247.34, 584.50 248.50 C 590.74 252.11, 589.40 246.28, 589.50 242.50 C 589.74 238.60, 588.20 230.48, 592.50 232.50 C 593.50 237.17, 593.50 240.83, 593.50 244.50 C 591.61 251.65, 596.81 250.26, 598.50 246.50 C 600.65 241.74, 602.41 237.89, 599.50 234.50 C 596.63 229.90, 593.20 227.67, 588.50 228.50 Z" fill="rgb(207.17897727272728,135.89488636363637,110.1846590909091)" stroke="rgb(207.17897727272728,135.89488636363637,110.1846590909091)" stroke-width="1" />
<path d="M 72.50 155.50 C 77.82 158.91, 84.13 165.42, 82.50 173.50 C 81.04 177.96, 79.51 181.95, 75.50 183.50 C 72.62 186.12, 81.14 186.12, 82.50 184.50 C 90.27 181.53, 93.33 174.27, 92.50 166.50 C 89.70 157.69, 81.92 153.99, 73.50 155.50 Z" fill="rgb(150.41379310344828,191.9655172413793,165.89655172413794)" stroke="rgb(150.41379310344828,191.9655172413793,165.89655172413794)" stroke-width="1" />
<path d="M 74.50 155.50 C 77.84 159.31, 84.19 164.88, 82.50 172.50 C 81.46 176.76, 80.74 180.15, 77.50 182.50 C 70.92 185.81, 79.95 186.51, 81.50 184.50 C 89.86 182.64, 92.85 174.84, 91.50 167.50 C 91.17 158.95, 82.87 154.55, 75.50 155.50 Z" fill="rgb(186.0691823899371,210.10377358490567,183.00314465408806)" stroke="rgb(186.0691823899371,210.10377358490567,183.00314465408806)" stroke-width="1" />
<path d="M 88.50 318.50 C 86.24 323.37, 88.11 329.95, 87.50 335.50 C 86.39 342.96, 87.72 348.77, 95.50 346.50 C 98.52 341.53, 97.06 335.12, 97.50 329.50 C 98.61 322.04, 97.28 316.23, 89.50 318.50 Z" fill="rgb(128.03973509933775,140.02649006622516,121.1523178807947)" stroke="rgb(128.03973509933775,140.02649006622516,121.1523178807947)" stroke-width="1" />
<path d="M 178.50 262.50 C 178.28 266.21, 179.20 270.40, 177.50 273.50 C 177.22 278.52, 178.28 283.10, 176.50 286.50 C 176.73 291.40, 176.47 295.10, 175.50 298.50 C 176.24 303.95, 174.34 307.30, 174.50 311.50 C 175.19 316.59, 172.81 319.41, 173.50 323.50 C 173.06 328.46, 171.99 332.15, 172.50 336.50 C 173.07 341.87, 170.74 345.05, 171.50 349.50 C 171.87 354.49, 170.96 359.78, 171.50 362.50 C 175.14 361.07, 172.87 356.18, 173.50 352.50 C 172.74 347.05, 175.07 343.87, 174.50 339.50 C 173.74 334.05, 176.07 330.87, 175.50 326.50 C 174.74 321.05, 177.07 317.87, 176.50 313.50 C 175.72 308.37, 177.85 305.45, 177.50 301.50 C 176.99 296.15, 178.06 292.46, 178.50 288.50 C 177.99 283.15, 179.06 279.46, 179.50 275.50 C 179.50 270.50, 179.50 266.50, 179.50 262.50 Z" fill="rgb(47.01034482758621,40.53448275862069,79.92413793103448)" stroke="rgb(47.01034482758621,40.53448275862069,79.92413793103448)" stroke-width="1" />
<path d="M 105.50 345.50 C 100.83 346.96, 95.70 347.32, 90.50 347.50 C 86.25 347.37, 86.25 359.63, 89.50 359.50 C 95.50 359.50, 100.50 359.50, 105.50 359.50 C 108.16 357.12, 108.16 347.88, 106.50 345.50 Z" fill="rgb(158.2439024390244,123.11846689895471,107.66202090592334)" stroke="rgb(158.2439024390244,123.11846689895471,107.66202090592334)" stroke-width="1" />
<path d="M 376.50 310.50 C 376.50 315.50, 376.50 320.50, 376.50 325.50 C 374.99 333.35, 377.65 336.01, 384.50 334.50 C 388.17 329.58, 385.04 323.24, 386.50 319.50 C 389.45 312.16, 383.76 308.82, 377.50 310.50 Z" fill="rgb(115.9814126394052,106.03345724907064,97.13011152416357)" stroke="rgb(115.9814126394052,106.03345724907064,97.13011152416357)" stroke-width="1" />
<path d="M 588.50 340.50 C 587.14 344.43, 583.37 347.36, 582.50 351.50 C 581.45 356.70, 583.75 360.87, 588.50 359.50 C 594.01 360.73, 597.13 356.61, 596.50 352.50 C 595.13 347.40, 594.03 342.41, 589.50 340.50 Z" fill="rgb(39.418502202643175,17.14977973568282,58.198237885462554)" stroke="rgb(39.418502202643175,17.14977973568282,58.198237885462554)" stroke-width="1" />
<path d="M 553.50 35.50 C 553.54 39.53, 547.90 45.53, 544.50 40.50 C 540.67 33.73, 540.76 45.70, 542.50 47.50 C 545.27 52.22, 551.29 52.63, 554.50 49.50 C 556.93 44.74, 557.50 38.70, 554.50 35.50 Z" fill="rgb(181.9189189189189,208.3783783783784,186.2108108108108)" stroke="rgb(181.9189189189189,208.3783783783784,186.2108108108108)" stroke-width="1" />
<path d="M 125.50 345.50 C 123.58 348.12, 124.92 352.09, 122.50 354.50 C 121.28 360.03, 125.98 361.22, 129.50 360.50 C 139.83 359.77, 133.48 346.21, 126.50 345.50 Z" fill="rgb(40.73652694610779,29.526946107784433,56.02994011976048)" stroke="rgb(40.73652694610779,29.526946107784433,56.02994011976048)" stroke-width="1" />
<path d="M 88.50 327.50 C 85.56 330.84, 89.70 334.51, 88.50 338.50 C 87.50 344.19, 89.15 348.05, 94.50 346.50 C 95.50 342.83, 95.50 339.17, 95.50 335.50 C 96.50 329.81, 94.85 325.95, 89.50 327.50 Z" fill="rgb(105.03067484662577,78.04294478527608,81.15950920245399)" stroke="rgb(105.03067484662577,78.04294478527608,81.15950920245399)" stroke-width="1" />
<path d="M 63.50 320.50 C 63.50 324.83, 63.50 329.17, 63.50 333.50 C 63.42 338.91, 62.20 344.46, 68.50 342.50 C 69.50 338.17, 69.50 333.83, 69.50 329.50 C 69.58 324.09, 70.80 318.54, 64.50 320.50 Z" fill="rgb(37.03105590062112,19.31055900621118,41.099378881987576)" stroke="rgb(37.03105590062112,19.31055900621118,41.099378881987576)" stroke-width="1" />
<path d="M 475.50 333.50 C 475.50 336.83, 475.50 340.17, 475.50 343.50 C 474.05 349.29, 479.68 346.99, 482.50 347.50 C 485.66 344.92, 483.96 340.75, 484.50 337.50 C 485.31 331.76, 479.27 334.00, 476.50 333.50 Z" fill="rgb(112.21621621621621,102.27702702702703,100.97972972972973)" stroke="rgb(112.21621621621621,102.27702702702703,100.97972972972973)" stroke-width="1" />
<path d="M 487.50 333.50 C 488.48 339.19, 484.04 350.30, 493.50 347.50 C 496.66 344.92, 494.96 340.75, 495.50 337.50 C 496.95 331.71, 491.32 334.01, 488.50 333.50 Z" fill="rgb(119.21641791044776,103.55223880597015,102.49253731343283)" stroke="rgb(119.21641791044776,103.55223880597015,102.49253731343283)" stroke-width="1" />
<path d="M 476.50 319.50 C 474.18 324.76, 474.22 333.52, 482.50 330.50 C 485.92 326.99, 485.60 316.20, 477.50 319.50 Z" fill="rgb(113.65254237288136,98.38135593220339,101.72033898305085)" stroke="rgb(113.65254237288136,98.38135593220339,101.72033898305085)" stroke-width="1" />
<path d="M 475.50 306.50 C 474.55 313.45, 475.19 318.81, 483.50 316.50 C 485.45 309.55, 484.81 304.19, 476.50 306.50 Z" fill="rgb(114.11818181818182,116.03636363636363,116.45454545454545)" stroke="rgb(114.11818181818182,116.03636363636363,116.45454545454545)" stroke-width="1" />
<path d="M 487.50 319.50 C 487.33 325.67, 485.83 333.17, 494.50 330.50 C 495.67 324.33, 497.17 316.83, 488.50 319.50 Z" fill="rgb(98.69444444444444,96.69444444444444,100.44444444444444)" stroke="rgb(98.69444444444444,96.69444444444444,100.44444444444444)" stroke-width="1" />
<path d="M 487.50 306.50 C 487.04 312.63, 486.41 318.92, 494.50 316.50 C 495.96 310.37, 496.59 304.08, 488.50 306.50 Z" fill="rgb(98.97979797979798,96.8989898989899,100.63636363636364)" stroke="rgb(98.97979797979798,96.8989898989899,100.63636363636364)" stroke-width="1" />
<path d="M 283.50 323.50 C 284.44 327.55, 280.72 336.59, 287.50 335.50 C 287.53 330.47, 291.34 321.66, 284.50 323.50 Z" fill="rgb(64.60526315789474,38.38157894736842,44.421052631578945)" stroke="rgb(64.60526315789474,38.38157894736842,44.421052631578945)" stroke-width="1" />
<path d="M 291.50 311.50 C 291.50 314.40, 289.59 323.09, 296.50 320.50 C 297.30 316.03, 299.31 309.35, 292.50 311.50 Z" fill="rgb(82.78873239436619,67.66197183098592,77.49295774647888)" stroke="rgb(82.78873239436619,67.66197183098592,77.49295774647888)" stroke-width="1" />
<path d="M 63.50 310.50 C 63.42 314.91, 62.20 320.46, 68.50 318.50 C 69.58 314.09, 70.80 308.54, 64.50 310.50 Z" fill="rgb(36.55555555555556,18.825396825396826,40.507936507936506)" stroke="rgb(36.55555555555556,18.825396825396826,40.507936507936506)" stroke-width="1" />
<path d="M 283.50 311.50 C 284.10 315.24, 281.28 322.39, 287.50 320.50 C 287.90 316.76, 290.72 309.61, 284.50 311.50 Z" fill="rgb(62.46666666666667,53.35,60.63333333333333)" stroke="rgb(62.46666666666667,53.35,60.63333333333333)" stroke-width="1" />
<path d="M 111.50 340.50 C 109.71 346.03, 111.54 353.07, 109.50 358.50 C 113.83 356.14, 110.41 347.16, 111.50 341.50 Z" fill="rgb(54.39473684210526,35.026315789473685,58.73684210526316)" stroke="rgb(54.39473684210526,35.026315789473685,58.73684210526316)" stroke-width="1" />
</svg>