<svg xmlns="http://www.w3.org/2000/svg" width="640" height="427" viewbox="0 0 640 427">
<path d="M 0.00 0.00 C 0.00 88.33, 0.00 176.67, 0.00 265.00 C 0.00 310.00, 0.00 354.00, 0.00 398.00 C 0.00 404.00, 0.00 409.00, 0.00 414.00 C 0.00 417.33, 0.00 419.67, 0.00 422.00 C -1.27 426.93, 2.36 425.97, 5.00 426.00 C 16.67 426.00, 27.33 426.00, 38.00 426.00 C 61.00 426.00, 83.00 426.00, 105.00 426.00 C 283.33 426.00, 460.67 426.00, 638.00 426.00 C 639.00 337.67, 639.00 249.33, 639.00 161.00 C 639.00 116.00, 639.00 72.00, 639.00 28.00 C 639.00 22.00, 639.00 17.00, 639.00 12.00 C 639.00 8.67, 639.00 6.33, 639.00 4.00 C 640.27 -0.93, 636.64 0.03, 634.00 0.00 C 622.33 0.00, 611.67 0.00, 601.00 0.00 C 578.00 0.00, 556.00 0.00, 534.00 0.00 C 355.67 0.00, 178.33 0.00, 1.00 0.00 Z" fill="rgb(121.7112970711297,172.34089407619467,148.3679806210086)" stroke="rgb(121.7112970711297,172.34089407619467,148.3679806210086)" stroke-width="1" />
<path d="M 5.00 2.00 C 3.98 3.89, 1.66 2.64, 0.00 3.00 C 0.00 5.67, 0.00 7.33, 0.00 9.00 C 0.00 13.67, 0.00 17.33, 0.00 21.00 C 0.00 29.67, 0.00 37.33, 0.00 45.00 C 0.00 62.00, 0.00 78.00, 0.00 94.00 C 0.00 127.33, 0.00 159.67, 0.00 192.00 C 0.00 225.00, 0.00 257.00, 0.00 289.00 C 0.36 290.93, -0.89 295.77, 1.00 293.00 C 3.69 292.71, 4.95 291.41, 7.00 292.00 C 11.98 291.90, 15.80 293.19, 19.00 296.00 C 21.25 300.15, 22.36 303.77, 22.00 308.00 C 22.00 310.67, 22.00 312.33, 22.00 314.00 C 23.75 317.27, 21.97 318.47, 22.00 321.00 C 22.00 329.67, 22.00 337.33, 22.00 345.00 C 22.00 349.67, 22.00 353.33, 22.00 357.00 C 26.28 359.21, 31.77 359.93, 35.00 358.00 C 35.63 354.57, 34.57 349.68, 35.00 346.00 C 35.00 341.33, 35.00 337.67, 35.00 334.00 C 35.00 325.33, 35.00 317.67, 35.00 310.00 C 34.40 304.62, 38.39 300.65, 42.00 299.00 C 46.46 294.49, 50.22 291.73, 54.00 289.00 C 59.03 286.20, 61.83 281.46, 66.00 280.00 C 69.25 279.94, 70.24 282.89, 72.00 284.00 C 75.38 284.41, 76.77 287.21, 79.00 288.00 C 81.35 290.76, 83.99 289.42, 85.00 292.00 C 87.35 294.76, 89.99 293.42, 91.00 296.00 C 93.76 297.78, 95.02 299.75, 97.00 300.00 C 100.27 300.75, 99.40 304.33, 102.00 304.00 C 105.51 307.50, 111.99 308.61, 111.00 314.00 C 110.18 319.38, 113.62 323.14, 111.00 327.00 C 112.56 331.57, 110.82 336.10, 113.00 339.00 C 114.00 343.67, 114.00 347.33, 114.00 351.00 C 114.00 353.67, 114.00 355.33, 114.00 357.00 C 116.07 359.28, 116.61 357.86, 119.00 358.00 C 119.26 353.55, 121.16 350.20, 121.00 346.00 C 121.00 329.33, 121.00 313.67, 121.00 298.00 C 121.00 289.33, 121.00 281.67, 121.00 274.00 C 120.64 271.34, 121.89 269.02, 120.00 268.00 C 116.95 267.59, 115.69 266.29, 114.00 266.00 C 112.06 263.59, 108.94 266.41, 108.00 264.00 C 104.62 263.59, 103.23 260.79, 101.00 260.00 C 96.03 255.60, 93.34 251.66, 90.00 248.00 C 89.49 243.13, 87.12 240.03, 87.00 236.00 C 87.22 231.29, 86.30 227.10, 88.00 224.00 C 88.68 218.59, 91.02 214.87, 93.00 211.00 C 97.40 206.37, 100.87 202.88, 105.00 201.00 C 109.54 198.70, 113.46 198.30, 117.00 197.00 C 120.92 195.04, 126.02 195.86, 129.00 197.00 C 132.05 197.41, 133.31 198.71, 135.00 199.00 C 138.72 199.27, 140.37 201.10, 142.00 203.00 C 146.94 205.56, 149.47 209.15, 152.00 213.00 C 155.00 217.39, 155.89 221.24, 157.00 225.00 C 158.70 229.10, 157.78 233.29, 158.00 237.00 C 157.98 239.60, 155.49 241.62, 158.00 243.00 C 158.68 239.46, 161.86 239.40, 163.00 238.00 C 166.94 233.58, 171.17 233.27, 175.00 232.00 C 179.27 229.22, 183.42 232.26, 187.00 232.00 C 191.92 234.39, 196.21 234.87, 199.00 239.00 C 204.40 243.14, 205.17 247.79, 207.00 252.00 C 206.74 256.58, 209.78 260.73, 207.00 264.00 C 205.36 268.68, 205.40 273.05, 202.00 276.00 C 199.94 278.97, 198.97 279.94, 197.00 281.00 C 194.85 283.92, 193.07 284.31, 191.00 284.00 C 188.31 285.29, 187.05 286.59, 185.00 286.00 C 181.70 285.58, 180.27 286.01, 180.00 289.00 C 180.69 294.09, 178.31 296.91, 179.00 301.00 C 179.23 305.90, 178.97 309.60, 178.00 313.00 C 180.81 315.50, 176.96 316.93, 178.00 319.00 C 178.00 321.67, 178.00 323.33, 178.00 325.00 C 178.13 330.19, 178.14 334.33, 177.00 338.00 C 175.72 341.07, 177.14 341.61, 177.00 344.00 C 176.00 346.67, 176.00 348.33, 176.00 350.00 C 175.90 355.04, 175.06 359.14, 180.00 359.00 C 188.67 359.00, 196.33 359.00, 204.00 359.00 C 208.67 359.00, 212.33 359.00, 216.00 359.00 C 220.91 358.11, 218.19 352.13, 219.00 349.00 C 219.00 340.00, 219.00 332.00, 219.00 324.00 C 219.00 319.33, 219.00 315.67, 219.00 312.00 C 217.48 305.65, 221.83 304.03, 225.00 301.00 C 230.24 298.73, 233.39 294.81, 237.00 292.00 C 241.81 288.54, 245.71 285.30, 250.00 283.00 C 254.49 280.86, 257.86 274.28, 262.00 278.00 C 266.57 280.58, 270.34 282.65, 274.00 285.00 C 278.26 288.64, 282.71 289.43, 286.00 293.00 C 291.27 295.01, 294.73 298.99, 299.00 301.00 C 304.18 302.75, 307.44 307.03, 308.00 311.00 C 308.00 315.67, 308.00 319.33, 308.00 323.00 C 308.00 331.67, 308.00 339.33, 308.00 347.00 C 308.56 351.57, 306.82 356.10, 309.00 359.00 C 313.67 359.00, 317.33 359.00, 321.00 359.00 C 330.00 359.00, 338.00 359.00, 346.00 359.00 C 350.35 359.00, 356.27 359.87, 355.00 355.00 C 354.58 349.71, 355.85 346.48, 355.00 343.00 C 355.00 334.00, 355.00 326.00, 355.00 318.00 C 354.77 313.10, 355.03 309.40, 356.00 306.00 C 359.40 301.68, 363.22 299.39, 367.00 297.00 C 371.58 292.80, 375.80 291.13, 379.00 287.00 C 381.33 284.87, 383.67 285.13, 385.00 283.00 C 388.51 282.24, 389.11 277.86, 392.00 279.00 C 397.32 279.42, 400.62 282.32, 404.00 285.00 C 408.38 288.36, 412.48 289.99, 416.00 293.00 C 420.63 295.75, 424.45 298.04, 428.00 301.00 C 432.57 303.11, 438.48 307.38, 435.00 312.00 C 435.00 320.67, 435.00 328.33, 435.00 336.00 C 435.00 340.67, 435.00 344.33, 435.00 348.00 C 435.11 352.68, 434.29 359.11, 439.00 359.00 C 443.55 358.86, 448.68 359.19, 450.00 356.00 C 450.00 351.33, 450.00 347.67, 450.00 344.00 C 450.00 335.00, 450.00 327.00, 450.00 319.00 C 450.00 314.33, 450.00 310.67, 450.00 307.00 C 451.89 304.98, 450.64 302.66, 451.00 301.00 C 453.67 298.33, 455.33 296.67, 457.00 295.00 C 461.50 291.59, 465.39 289.14, 469.00 286.00 C 474.33 283.14, 477.83 279.25, 482.00 277.00 C 486.85 274.11, 489.85 270.16, 494.00 269.00 C 496.42 266.40, 498.06 265.33, 500.00 265.00 C 502.98 266.25, 504.24 268.22, 506.00 269.00 C 510.93 271.69, 514.40 274.51, 518.00 277.00 C 523.04 279.43, 526.50 282.27, 530.00 285.00 C 534.03 289.20, 538.97 288.80, 542.00 293.00 C 545.70 296.88, 551.44 297.12, 552.00 302.00 C 552.00 311.00, 552.00 319.00, 552.00 327.00 C 552.00 335.67, 552.00 343.33, 552.00 351.00 C 551.44 355.91, 551.82 360.58, 557.00 359.00 C 562.25 359.47, 566.87 358.24, 570.00 359.00 C 572.66 358.64, 574.98 359.89, 576.00 358.00 C 578.73 358.06, 580.84 358.50, 580.00 356.00 C 579.50 350.71, 580.49 347.04, 583.00 344.00 C 585.75 339.84, 582.55 334.73, 584.00 332.00 C 583.87 326.81, 583.86 322.67, 585.00 319.00 C 584.22 313.87, 586.35 310.95, 586.00 307.00 C 586.00 302.33, 586.00 298.67, 586.00 295.00 C 585.65 290.05, 587.78 287.13, 587.00 283.00 C 587.00 278.33, 587.00 274.67, 587.00 271.00 C 586.44 267.89, 583.16 269.50, 582.00 269.00 C 579.34 267.64, 577.02 268.89, 576.00 267.00 C 571.20 265.32, 567.24 264.03, 564.00 261.00 C 559.41 256.72, 557.00 252.94, 555.00 249.00 C 554.72 245.90, 552.28 245.10, 553.00 243.00 C 551.58 240.03, 552.98 237.32, 551.00 236.00 C 550.22 230.87, 552.35 227.95, 552.00 224.00 C 554.10 219.51, 554.21 215.20, 557.00 212.00 C 561.22 207.53, 563.70 204.04, 568.00 202.00 C 570.38 199.63, 572.40 199.83, 574.00 199.00 C 576.69 197.58, 578.57 196.62, 581.00 197.00 C 584.80 195.38, 590.20 195.38, 593.00 197.00 C 597.76 198.11, 601.61 199.00, 605.00 201.00 C 610.54 203.70, 612.35 207.67, 616.00 211.00 C 618.55 216.05, 622.35 219.17, 622.00 224.00 C 623.70 228.10, 622.78 232.29, 623.00 236.00 C 622.12 240.72, 620.63 244.18, 620.00 248.00 C 617.61 253.20, 614.24 256.57, 611.00 260.00 C 606.64 263.73, 602.78 265.27, 599.00 267.00 C 592.98 267.35, 595.67 274.00, 595.00 277.00 C 593.47 278.94, 593.47 282.06, 595.00 283.00 C 594.00 285.67, 594.00 287.33, 594.00 289.00 C 594.00 293.67, 594.00 297.33, 594.00 301.00 C 592.86 305.67, 592.87 309.81, 593.00 314.00 C 590.82 317.90, 592.56 322.43, 592.00 326.00 C 589.60 330.11, 591.55 334.74, 592.00 338.00 C 595.68 341.97, 596.69 346.05, 598.00 350.00 C 598.37 354.63, 596.17 360.83, 602.00 359.00 C 604.66 358.64, 606.98 359.89, 608.00 358.00 C 610.69 358.29, 611.95 359.59, 614.00 359.00 C 618.67 358.00, 622.33 358.00, 626.00 358.00 C 629.05 357.41, 630.31 358.71, 632.00 359.00 C 635.10 359.72, 635.90 357.28, 638.00 358.00 C 639.00 354.00, 639.00 350.00, 639.00 346.00 C 639.00 280.00, 639.00 215.00, 639.00 150.00 C 639.00 117.00, 639.00 85.00, 639.00 53.00 C 639.00 36.00, 639.00 20.00, 639.00 4.00 C 637.61 0.72, 632.04 2.63, 629.00 2.00 C 624.33 2.00, 620.67 2.00, 617.00 2.00 C 608.00 2.00, 600.00 2.00, 592.00 2.00 C 526.33 2.00, 461.67 2.00, 397.00 2.00 C 380.33 2.00, 364.67 2.00, 349.00 2.00 C 344.33 2.00, 340.67 2.00, 337.00 2.00 C 331.89 1.10, 328.19 3.65, 325.00 2.00 C 322.98 1.11, 320.66 2.36, 319.00 2.00 C 316.98 1.11, 314.66 2.36, 313.00 2.00 C 307.83 2.67, 304.78 1.75, 300.00 2.00 C 296.57 2.63, 291.68 1.57, 288.00 2.00 C 285.33 2.00, 283.67 2.00, 282.00 2.00 C 279.40 2.02, 277.38 4.51, 276.00 2.00 C 273.33 2.00, 271.67 2.00, 270.00 2.00 C 266.61 3.14, 266.07 1.72, 264.00 3.00 C 259.87 2.24, 255.25 3.47, 251.00 3.00 C 234.00 3.00, 218.00 3.00, 202.00 3.00 C 185.00 3.00, 169.00 3.00, 153.00 3.00 C 148.43 2.44, 143.90 4.18, 141.00 2.00 C 136.33 3.00, 132.67 3.00, 129.00 3.00 C 120.00 3.00, 112.00 3.00, 104.00 3.00 C 87.00 3.00, 71.00 3.00, 55.00 3.00 C 46.33 3.00, 38.67 3.00, 31.00 3.00 C 26.33 3.00, 22.67 3.00, 19.00 3.00 C 13.55 3.76, 10.37 1.43, 6.00 2.00 Z" fill="rgb(107.98556271787393,170.99687725328403,145.99845489094784)" stroke="rgb(107.98556271787393,170.99687725328403,145.99845489094784)" stroke-width="1" />
<path d="M 6.00 293.00 C 3.27 295.07, -1.59 293.91, 0.00 299.00 C 0.00 303.67, 0.00 307.33, 0.00 311.00 C 0.00 319.67, 0.00 327.33, 0.00 335.00 C 0.00 351.67, 0.00 367.33, 0.00 383.00 C 0.00 391.67, 0.00 399.33, 0.00 407.00 C 0.00 411.67, 0.00 415.33, 0.00 419.00 C 0.00 421.67, 0.00 423.33, 0.00 425.00 C 2.67 425.00, 4.33 425.00, 6.00 425.00 C 22.67 425.00, 38.33 425.00, 54.00 425.00 C 70.67 425.00, 86.33 425.00, 102.00 425.00 C 110.67 425.00, 118.33 425.00, 126.00 425.00 C 131.51 424.90, 133.65 424.61, 138.00 425.00 C 140.66 424.64, 142.98 425.89, 144.00 424.00 C 146.02 425.89, 148.34 424.64, 150.00 425.00 C 154.41 422.79, 157.83 426.04, 162.00 425.00 C 166.40 424.97, 170.10 425.23, 174.00 425.00 C 178.11 425.48, 182.89 425.48, 186.00 424.00 C 190.54 426.51, 193.88 423.09, 198.00 424.00 C 202.09 427.20, 206.74 421.42, 210.00 425.00 C 214.60 423.76, 218.40 423.76, 222.00 425.00 C 225.90 422.82, 230.43 424.56, 234.00 424.00 C 238.67 424.00, 242.33 424.00, 246.00 424.00 C 254.33 424.00, 261.67 424.00, 269.00 424.00 C 273.71 424.22, 277.90 423.30, 281.00 425.00 C 285.67 424.00, 289.33 424.00, 293.00 424.00 C 301.67 424.00, 309.33 424.00, 317.00 424.00 C 321.48 424.85, 324.71 423.58, 329.00 424.00 C 332.05 425.59, 333.31 424.29, 335.00 424.00 C 338.10 423.28, 338.90 425.72, 341.00 425.00 C 344.10 425.72, 344.90 423.28, 347.00 424.00 C 349.02 425.89, 351.34 424.64, 353.00 425.00 C 357.67 425.00, 361.33 425.00, 365.00 425.00 C 373.67 425.00, 381.33 425.00, 389.00 425.00 C 393.34 422.06, 397.01 426.20, 401.00 425.00 C 406.06 425.61, 409.29 424.23, 413.00 424.00 C 417.10 425.70, 421.29 424.78, 425.00 425.00 C 427.67 425.00, 429.33 425.00, 431.00 425.00 C 433.69 424.29, 434.95 425.59, 437.00 425.00 C 440.10 425.72, 440.90 423.28, 443.00 424.00 C 445.67 425.00, 447.33 425.00, 449.00 425.00 C 453.67 425.00, 457.33 425.00, 461.00 425.00 C 469.67 425.00, 477.33 425.00, 485.00 425.00 C 501.67 425.00, 517.33 425.00, 533.00 425.00 C 565.67 425.00, 597.33 425.00, 629.00 425.00 C 632.71 424.38, 637.94 426.27, 639.00 424.00 C 639.00 419.33, 639.00 415.67, 639.00 412.00 C 639.00 403.33, 639.00 395.67, 639.00 388.00 C 639.00 379.33, 639.00 371.67, 639.00 364.00 C 639.39 358.95, 632.77 361.90, 630.00 361.00 C 625.33 361.00, 621.67 361.00, 618.00 361.00 C 613.33 361.00, 609.67 361.00, 606.00 361.00 C 601.43 361.56, 596.90 359.82, 594.00 362.00 C 591.50 359.19, 590.07 363.04, 588.00 362.00 C 585.31 361.71, 584.05 360.41, 582.00 361.00 C 577.33 361.00, 573.67 361.00, 570.00 361.00 C 565.33 361.00, 561.67 361.00, 558.00 361.00 C 552.46 361.12, 549.50 360.84, 546.00 362.00 C 537.33 362.00, 529.67 362.00, 522.00 362.00 C 513.33 362.00, 505.67 362.00, 498.00 362.00 C 493.33 362.00, 489.67 362.00, 486.00 362.00 C 481.43 362.56, 476.90 360.82, 474.00 363.00 C 469.69 361.06, 465.41 362.22, 462.00 363.00 C 457.33 362.00, 453.67 362.00, 450.00 362.00 C 445.33 361.00, 441.67 361.00, 438.00 361.00 C 434.10 363.18, 429.57 361.44, 426.00 362.00 C 409.33 362.00, 393.67 362.00, 378.00 362.00 C 369.41 361.47, 360.92 363.14, 354.00 361.00 C 345.33 361.00, 337.67 361.00, 330.00 361.00 C 321.67 361.00, 314.33 361.00, 307.00 361.00 C 298.33 362.00, 290.67 362.00, 283.00 362.00 C 266.33 362.00, 250.67 362.00, 235.00 362.00 C 230.29 361.78, 226.10 362.70, 223.00 361.00 C 218.90 360.30, 214.71 361.22, 211.00 361.00 C 202.33 361.00, 194.67 361.00, 187.00 361.00 C 182.15 361.22, 177.72 360.04, 175.00 363.00 C 170.31 366.87, 167.11 360.40, 163.00 361.00 C 154.33 361.00, 146.67 361.00, 139.00 361.00 C 134.90 362.70, 130.71 361.78, 127.00 362.00 C 121.87 362.78, 118.95 360.65, 115.00 361.00 C 106.86 362.61, 98.74 361.83, 91.00 362.00 C 88.50 359.19, 87.07 363.04, 85.00 362.00 C 82.33 362.00, 80.67 362.00, 79.00 362.00 C 74.33 362.00, 70.67 362.00, 67.00 362.00 C 58.33 362.00, 50.67 362.00, 43.00 362.00 C 38.60 361.03, 34.90 360.77, 31.00 361.00 C 26.87 360.19, 20.89 362.91, 20.00 359.00 C 21.14 351.08, 19.47 342.59, 20.00 335.00 C 20.56 330.43, 18.82 325.90, 21.00 323.00 C 19.22 317.87, 21.35 314.95, 21.00 311.00 C 18.54 307.08, 21.33 301.98, 19.00 299.00 C 14.97 294.80, 11.56 292.51, 7.00 293.00 Z" fill="rgb(172.05448154657293,209.4956063268893,179.23022847100177)" stroke="rgb(172.05448154657293,209.4956063268893,179.23022847100177)" stroke-width="1" />
<path d="M 580.00 360.00 C 577.74 362.13, 573.92 360.48, 571.00 361.00 C 566.67 361.00, 563.33 361.00, 560.00 361.00 C 552.00 361.00, 545.00 361.00, 538.00 361.00 C 522.67 361.00, 508.33 361.00, 494.00 361.00 C 478.67 361.00, 464.33 361.00, 450.00 361.00 C 445.67 361.00, 442.33 361.00, 439.00 361.00 C 434.53 361.00, 431.76 362.70, 428.00 362.00 C 420.00 362.00, 413.00 362.00, 406.00 362.00 C 390.67 362.00, 376.33 362.00, 362.00 362.00 C 354.63 360.16, 347.01 361.32, 340.00 361.00 C 332.00 361.00, 325.00 361.00, 318.00 361.00 C 313.67 361.00, 310.33 361.00, 307.00 361.00 C 302.67 362.00, 299.33 362.00, 296.00 362.00 C 288.00 362.00, 281.00 362.00, 274.00 362.00 C 258.67 362.00, 244.33 362.00, 230.00 362.00 C 227.65 361.71, 225.74 362.78, 225.00 361.00 C 222.40 361.02, 220.38 363.51, 219.00 361.00 C 214.67 361.00, 211.33 361.00, 208.00 361.00 C 200.00 361.00, 193.00 361.00, 186.00 361.00 C 181.75 361.54, 177.58 359.84, 175.00 362.00 C 171.92 367.69, 168.28 362.73, 166.00 361.00 C 158.00 361.00, 151.00 361.00, 144.00 361.00 C 139.59 361.15, 135.81 360.40, 133.00 362.00 C 128.75 361.46, 124.58 363.16, 122.00 361.00 C 117.67 361.00, 114.33 361.00, 111.00 361.00 C 106.18 361.39, 104.18 362.08, 100.00 362.00 C 95.75 361.46, 91.58 363.16, 89.00 361.00 C 87.26 362.78, 85.35 361.71, 84.00 362.00 C 81.31 361.29, 80.05 362.59, 78.00 362.00 C 70.00 362.00, 63.00 362.00, 56.00 362.00 C 51.67 362.00, 48.33 362.00, 45.00 362.00 C 40.31 362.54, 37.79 360.23, 34.00 361.00 C 29.67 361.00, 26.33 361.00, 23.00 361.00 C 19.01 362.49, 15.35 362.37, 12.00 363.00 C 9.17 364.20, 8.09 360.50, 7.00 363.00 C 5.06 361.47, 1.94 361.47, 1.00 363.00 C 0.00 366.33, 0.00 369.67, 0.00 373.00 C 0.00 381.00, 0.00 388.00, 0.00 395.00 C 0.00 403.00, 0.00 410.00, 0.00 417.00 C 0.51 420.82, -1.79 426.45, 3.00 425.00 C 6.83 422.51, 10.98 424.72, 14.00 425.00 C 29.33 425.00, 43.67 425.00, 58.00 425.00 C 65.67 425.00, 72.33 425.00, 79.00 425.00 C 83.33 425.00, 86.67 425.00, 90.00 425.00 C 95.11 424.73, 96.89 424.73, 101.00 425.00 C 105.35 425.47, 109.01 422.15, 112.00 425.00 C 115.58 422.84, 119.75 424.54, 123.00 424.00 C 127.33 424.00, 130.67 424.00, 134.00 424.00 C 139.18 423.92, 141.18 424.61, 145.00 424.00 C 175.00 424.00, 204.00 424.00, 233.00 424.00 C 292.33 424.00, 350.67 424.00, 409.00 424.00 C 468.33 424.00, 526.67 424.00, 585.00 424.00 C 600.33 424.00, 614.67 424.00, 629.00 424.00 C 632.85 423.37, 637.51 426.97, 639.00 424.00 C 639.00 419.67, 639.00 416.33, 639.00 413.00 C 639.00 405.00, 639.00 398.00, 639.00 391.00 C 639.00 383.00, 639.00 376.00, 639.00 369.00 C 638.49 365.18, 640.79 359.55, 636.00 361.00 C 631.67 361.00, 628.33 361.00, 625.00 361.00 C 617.00 361.00, 610.00 361.00, 603.00 361.00 C 598.41 359.32, 595.93 361.19, 592.00 361.00 C 587.75 360.46, 583.58 362.16, 581.00 360.00 Z" fill="rgb(175.00539294994363,210.02350835907242,180.0137275089474)" stroke="rgb(175.00539294994363,210.02350835907242,180.0137275089474)" stroke-width="1" />
<path d="M 499.00 267.00 C 496.28 268.53, 493.92 270.93, 491.00 272.00 C 487.25 275.92, 483.60 276.70, 481.00 280.00 C 477.67 282.82, 474.66 283.98, 472.00 286.00 C 467.95 289.21, 464.78 291.13, 462.00 294.00 C 458.49 296.37, 455.92 298.62, 453.00 300.00 C 450.87 303.26, 452.52 307.08, 452.00 310.00 C 452.00 317.33, 452.00 323.67, 452.00 330.00 C 452.00 337.00, 452.00 343.00, 452.00 349.00 C 452.52 352.92, 450.87 356.74, 453.00 359.00 C 457.00 359.00, 460.00 359.00, 463.00 359.00 C 476.67 359.00, 489.33 359.00, 502.00 359.00 C 515.33 359.00, 527.67 359.00, 540.00 359.00 C 543.67 359.00, 546.33 359.00, 549.00 359.00 C 550.00 355.00, 550.00 352.00, 550.00 349.00 C 550.00 341.67, 550.00 335.33, 550.00 329.00 C 550.00 322.00, 550.00 316.00, 550.00 310.00 C 549.48 306.08, 551.13 302.26, 549.00 300.00 C 545.17 296.59, 542.20 294.51, 539.00 293.00 C 535.28 290.47, 532.92 288.07, 530.00 287.00 C 526.01 283.97, 522.99 282.03, 520.00 280.00 C 515.53 278.46, 513.30 274.94, 510.00 274.00 C 505.86 271.34, 503.21 268.49, 500.00 267.00 Z" fill="rgb(243.53288391976324,226.9052943110819,190.99671160802367)" stroke="rgb(243.53288391976324,226.9052943110819,190.99671160802367)" stroke-width="1" />
<path d="M 258.00 279.00 C 255.69 280.72, 253.61 283.00, 251.00 284.00 C 247.28 286.88, 244.57 288.77, 242.00 291.00 C 238.23 292.60, 236.66 296.11, 234.00 297.00 C 230.61 300.67, 227.39 301.33, 225.00 304.00 C 220.85 304.97, 220.72 308.62, 221.00 311.00 C 221.00 314.67, 221.00 317.33, 221.00 320.00 C 221.00 326.33, 221.00 331.67, 221.00 337.00 C 221.00 343.33, 221.00 348.67, 221.00 354.00 C 220.17 357.89, 222.11 359.83, 225.00 359.00 C 228.67 359.00, 231.33 359.00, 234.00 359.00 C 241.15 359.16, 244.85 359.16, 251.00 359.00 C 257.33 359.00, 262.67 359.00, 268.00 359.00 C 280.00 359.00, 291.00 359.00, 302.00 359.00 C 306.34 360.00, 306.28 357.61, 306.00 355.00 C 306.00 351.33, 306.00 348.67, 306.00 346.00 C 306.00 339.67, 306.00 334.33, 306.00 329.00 C 306.00 322.67, 306.00 317.33, 306.00 312.00 C 305.55 308.02, 304.70 305.97, 302.00 305.00 C 298.08 302.93, 295.72 300.53, 293.00 299.00 C 289.91 296.75, 287.28 295.81, 285.00 294.00 C 281.08 291.93, 278.72 289.53, 276.00 288.00 C 272.91 285.75, 270.28 284.81, 268.00 283.00 C 264.67 280.84, 262.15 279.16, 259.00 279.00 Z" fill="rgb(216.2419425087108,135.68336236933797,110.64459930313589)" stroke="rgb(216.2419425087108,135.68336236933797,110.64459930313589)" stroke-width="1" />
<path d="M 393.00 280.00 C 390.91 282.25, 388.28 283.19, 386.00 285.00 C 382.39 287.00, 380.31 289.28, 378.00 291.00 C 374.97 293.73, 372.25 294.79, 370.00 297.00 C 366.89 299.20, 364.63 301.04, 362.00 302.00 C 358.30 303.97, 357.45 306.02, 358.00 309.00 C 357.00 312.33, 357.00 314.67, 357.00 317.00 C 357.00 323.00, 357.00 328.00, 357.00 333.00 C 357.00 339.00, 357.00 344.00, 357.00 349.00 C 357.46 352.28, 355.96 355.37, 358.00 357.00 C 358.12 360.21, 362.24 358.42, 364.00 359.00 C 375.33 359.00, 385.67 359.00, 396.00 359.00 C 402.18 358.90, 406.56 360.72, 412.00 360.00 C 416.84 359.03, 423.60 361.35, 428.00 359.00 C 430.79 358.12, 434.31 360.05, 433.00 356.00 C 433.00 352.67, 433.00 350.33, 433.00 348.00 C 433.00 342.00, 433.00 337.00, 433.00 332.00 C 433.00 326.00, 433.00 321.00, 433.00 316.00 C 433.00 312.67, 433.00 310.33, 433.00 308.00 C 431.95 304.16, 428.89 304.62, 427.00 302.00 C 423.91 299.75, 421.28 298.81, 419.00 297.00 C 415.30 295.56, 413.70 292.44, 411.00 292.00 C 407.72 289.19, 405.09 288.25, 403.00 286.00 C 399.61 283.33, 396.39 282.67, 394.00 280.00 Z" fill="rgb(50.66158631415241,9.37542768273717,46.87216174183515)" stroke="rgb(50.66158631415241,9.37542768273717,46.87216174183515)" stroke-width="1" />
<path d="M 66.00 282.00 C 64.34 284.49, 61.79 284.83, 60.00 287.00 C 56.34 288.89, 54.77 292.40, 52.00 293.00 C 46.89 298.08, 40.59 300.59, 38.00 306.00 C 38.00 317.00, 38.00 327.00, 38.00 337.00 C 38.00 342.67, 38.00 347.33, 38.00 352.00 C 38.42 354.97, 37.02 357.68, 39.00 359.00 C 42.33 359.00, 44.67 359.00, 47.00 359.00 C 58.00 359.00, 68.00 359.00, 78.00 359.00 C 84.00 360.32, 88.72 356.11, 93.00 359.00 C 98.67 359.00, 103.33 359.00, 108.00 359.00 C 111.17 359.17, 109.45 355.45, 110.00 354.00 C 110.15 350.09, 110.66 347.89, 111.00 346.00 C 110.61 340.02, 109.46 335.36, 110.00 330.00 C 110.00 324.33, 110.00 319.67, 110.00 315.00 C 110.84 311.04, 107.57 310.33, 106.00 309.00 C 102.37 307.04, 100.11 305.20, 98.00 303.00 C 92.60 299.03, 87.40 296.97, 83.00 293.00 C 79.69 291.28, 77.61 289.00, 75.00 288.00 C 71.30 286.56, 69.70 283.44, 67.00 283.00 Z" fill="rgb(47.44378168804056,8.67611094542201,46.73188189680883)" stroke="rgb(47.44378168804056,8.67611094542201,46.73188189680883)" stroke-width="1" />
<path d="M 120.00 198.00 C 116.74 199.99, 112.09 198.60, 109.00 201.00 C 104.21 203.38, 100.17 205.14, 97.00 209.00 C 93.57 213.49, 91.31 217.05, 90.00 221.00 C 88.88 225.48, 88.53 229.28, 88.00 233.00 C 88.46 238.17, 89.73 241.59, 91.00 245.00 C 92.95 250.38, 96.51 253.68, 100.00 257.00 C 104.36 260.73, 108.22 262.27, 112.00 264.00 C 115.56 266.72, 123.52 262.33, 123.00 268.00 C 123.00 284.67, 123.00 300.33, 123.00 316.00 C 123.00 324.67, 123.00 332.33, 123.00 340.00 C 123.00 344.67, 123.00 348.33, 123.00 352.00 C 123.00 354.67, 123.00 356.33, 123.00 358.00 C 125.00 359.00, 127.00 359.00, 129.00 359.00 C 135.34 360.57, 134.48 353.61, 133.00 351.00 C 130.07 348.34, 130.11 347.00, 128.00 346.00 C 124.59 344.06, 127.41 340.94, 125.00 340.00 C 125.00 331.33, 125.00 323.67, 125.00 316.00 C 125.00 299.00, 125.00 283.00, 125.00 267.00 C 125.87 261.76, 132.51 265.62, 135.00 263.00 C 139.76 260.89, 143.85 259.59, 147.00 256.00 C 150.68 251.62, 153.58 248.32, 154.00 244.00 C 154.28 240.90, 156.72 240.10, 156.00 238.00 C 155.25 234.76, 158.85 232.80, 156.00 231.00 C 156.54 225.83, 155.27 222.41, 154.00 219.00 C 153.13 216.00, 150.87 215.00, 151.00 213.00 C 147.73 211.25, 148.60 207.67, 146.00 208.00 C 141.75 203.67, 138.06 201.38, 134.00 200.00 C 129.38 198.42, 125.35 197.82, 121.00 198.00 Z" fill="rgb(110.24468085106383,135.0744680851064,126.70212765957447)" stroke="rgb(110.24468085106383,135.0744680851064,126.70212765957447)" stroke-width="1" />
<path d="M 153.00 253.00 C 150.41 254.37, 148.21 256.70, 146.00 259.00 C 142.72 261.81, 140.09 262.75, 138.00 265.00 C 134.09 265.15, 131.89 265.66, 130.00 266.00 C 128.85 269.67, 127.08 271.55, 129.00 274.00 C 127.05 279.33, 128.39 285.02, 128.00 290.00 C 128.00 296.00, 128.00 301.00, 128.00 306.00 C 128.00 312.00, 128.00 317.00, 128.00 322.00 C 130.86 324.06, 126.99 324.47, 128.00 326.00 C 130.86 328.06, 126.99 328.47, 128.00 330.00 C 129.06 333.03, 129.18 335.45, 129.00 338.00 C 127.46 345.61, 136.13 347.98, 136.00 354.00 C 135.23 360.85, 143.80 358.48, 148.00 359.00 C 154.00 359.00, 159.00 359.00, 164.00 359.00 C 168.41 359.98, 168.20 356.25, 168.00 354.00 C 167.92 350.50, 169.73 348.77, 169.00 346.00 C 168.90 339.82, 170.72 335.44, 170.00 330.00 C 169.31 323.58, 171.69 319.42, 171.00 314.00 C 170.82 310.45, 170.94 308.03, 172.00 306.00 C 171.27 302.23, 173.08 300.50, 173.00 298.00 C 173.00 294.67, 173.00 292.33, 173.00 290.00 C 175.02 287.18, 171.69 283.89, 169.00 285.00 C 164.72 284.61, 163.37 280.58, 161.00 279.00 C 158.28 275.69, 156.00 273.61, 155.00 271.00 C 153.72 267.92, 152.80 265.69, 153.00 263.00 C 150.31 259.70, 153.17 256.58, 153.00 254.00 Z" fill="rgb(107.93661427467147,170.97165678948724,145.98763205359444)" stroke="rgb(107.93661427467147,170.97165678948724,145.98763205359444)" stroke-width="1" />
<path d="M 581.00 198.00 C 578.95 199.34, 576.40 199.50, 574.00 200.00 C 569.98 201.82, 567.48 203.89, 565.00 206.00 C 561.44 208.43, 559.09 210.96, 558.00 214.00 C 555.88 217.62, 554.19 220.00, 554.00 223.00 C 553.00 229.33, 553.00 234.67, 553.00 240.00 C 553.55 244.13, 555.49 246.27, 556.00 249.00 C 558.09 253.04, 560.44 255.57, 563.00 258.00 C 566.09 261.25, 568.72 262.19, 571.00 264.00 C 574.32 265.51, 576.94 266.28, 580.00 266.00 C 583.07 266.41, 587.57 268.24, 588.00 266.00 C 588.00 262.33, 588.00 259.67, 588.00 257.00 C 587.39 253.94, 589.61 249.05, 586.00 250.00 C 582.83 248.32, 578.53 246.56, 579.00 243.00 C 576.57 239.68, 578.91 236.20, 580.00 234.00 C 582.34 230.20, 584.96 228.10, 588.00 227.00 C 591.73 226.70, 594.14 227.19, 596.00 229.00 C 600.20 232.03, 600.38 235.32, 602.00 238.00 C 600.91 241.77, 600.72 244.91, 598.00 247.00 C 594.57 250.21, 592.47 252.56, 593.00 256.00 C 593.00 259.67, 593.00 262.33, 593.00 265.00 C 595.36 268.59, 598.05 264.22, 601.00 265.00 C 605.02 263.18, 607.52 261.11, 610.00 259.00 C 613.56 255.57, 615.91 253.04, 617.00 250.00 C 617.36 246.13, 620.64 244.87, 620.00 242.00 C 622.09 239.06, 620.51 235.60, 621.00 233.00 C 620.51 229.40, 622.09 225.94, 620.00 224.00 C 619.68 220.05, 618.75 217.36, 617.00 215.00 C 615.08 210.75, 611.10 208.77, 609.00 206.00 C 605.46 203.02, 602.64 201.73, 600.00 200.00 C 593.95 197.86, 588.03 197.80, 582.00 198.00 Z" fill="rgb(185.15783274440517,210.61012956419316,185.5630153121319)" stroke="rgb(185.15783274440517,210.61012956419316,185.5630153121319)" stroke-width="1" />
<path d="M 119.00 198.00 C 117.46 200.59, 113.54 197.41, 112.00 200.00 C 108.18 200.96, 105.53 202.33, 103.00 204.00 C 98.75 205.92, 96.77 209.90, 94.00 212.00 C 92.33 215.53, 90.96 218.18, 90.00 221.00 C 87.41 223.54, 90.59 227.46, 88.00 229.00 C 87.40 233.05, 88.75 235.30, 89.00 238.00 C 90.13 241.61, 90.36 244.60, 92.00 247.00 C 94.29 250.00, 95.68 254.01, 98.00 255.00 C 101.15 258.12, 103.12 260.65, 106.00 261.00 C 109.61 263.13, 112.60 263.36, 115.00 265.00 C 118.39 264.94, 123.00 265.95, 122.00 262.00 C 121.51 258.40, 123.09 254.94, 121.00 253.00 C 117.71 252.48, 114.39 250.74, 114.00 248.00 C 111.49 244.68, 110.72 242.06, 111.00 239.00 C 112.62 235.32, 112.80 232.03, 116.00 230.00 C 119.05 226.84, 121.99 226.83, 125.00 227.00 C 131.52 227.61, 138.04 232.52, 137.00 239.00 C 137.45 243.13, 135.51 245.27, 135.00 248.00 C 133.37 252.05, 129.21 252.38, 127.00 254.00 C 127.00 257.33, 127.00 259.67, 127.00 262.00 C 127.43 265.24, 131.93 263.41, 134.00 264.00 C 138.15 262.84, 140.67 261.16, 143.00 259.00 C 146.53 256.42, 149.45 253.99, 151.00 251.00 C 152.38 247.41, 154.62 245.59, 155.00 243.00 C 157.14 239.95, 155.08 236.15, 157.00 234.00 C 156.75 230.30, 155.40 228.05, 156.00 225.00 C 153.90 221.65, 155.00 217.98, 152.00 216.00 C 150.60 212.56, 148.40 210.44, 147.00 208.00 C 142.98 206.18, 141.12 202.58, 138.00 202.00 C 134.27 200.49, 132.13 198.55, 129.00 199.00 C 125.33 198.00, 122.67 198.00, 120.00 198.00 Z" fill="rgb(184.99299139853457,210.44759477540617,185.44249761070404)" stroke="rgb(184.99299139853457,210.44759477540617,185.44249761070404)" stroke-width="1" />
<path d="M 176.00 233.00 C 173.49 234.38, 170.49 234.58, 168.00 236.00 C 163.86 237.84, 161.67 241.56, 160.00 244.00 C 158.65 247.94, 155.68 249.79, 156.00 253.00 C 153.87 256.26, 155.52 260.08, 155.00 263.00 C 155.62 266.82, 157.11 269.29, 158.00 272.00 C 160.21 276.39, 164.18 279.12, 167.00 281.00 C 170.73 283.45, 174.16 282.91, 176.00 284.00 C 176.00 288.00, 176.00 291.00, 176.00 294.00 C 173.91 296.94, 175.49 300.40, 175.00 303.00 C 175.50 307.01, 173.22 308.87, 174.00 312.00 C 174.50 316.01, 172.22 317.87, 173.00 321.00 C 172.93 325.11, 173.46 328.47, 172.00 331.00 C 172.00 334.67, 172.00 337.33, 172.00 340.00 C 172.69 344.43, 170.31 346.57, 171.00 350.00 C 171.00 353.67, 171.00 356.33, 171.00 359.00 C 170.94 364.97, 173.64 358.13, 173.00 356.00 C 172.25 348.89, 174.19 343.88, 174.00 338.00 C 173.96 334.18, 173.71 331.27, 175.00 329.00 C 175.00 325.00, 175.00 322.00, 175.00 319.00 C 177.09 316.06, 175.51 312.60, 176.00 310.00 C 175.75 305.76, 177.77 303.46, 177.00 300.00 C 176.96 296.18, 176.71 293.27, 178.00 291.00 C 177.62 286.93, 177.70 282.69, 182.00 284.00 C 186.06 284.28, 188.68 283.51, 191.00 282.00 C 194.66 279.98, 197.67 278.82, 200.00 276.00 C 203.20 272.97, 203.38 269.68, 205.00 267.00 C 204.75 262.76, 206.77 260.46, 206.00 257.00 C 205.68 253.19, 204.75 250.63, 204.00 248.00 C 201.56 243.90, 199.19 240.78, 196.00 238.00 C 192.91 235.28, 189.77 235.09, 187.00 234.00 C 183.47 232.54, 180.11 233.07, 177.00 233.00 Z" fill="rgb(126.35714285714286,135.4857142857143,131.47142857142856)" stroke="rgb(126.35714285714286,135.4857142857143,131.47142857142856)" stroke-width="1" />
<path d="M 176.00 233.00 C 172.30 234.58, 168.28 235.39, 165.00 238.00 C 159.86 242.39, 158.24 246.82, 156.00 251.00 C 155.03 255.40, 154.77 259.10, 155.00 263.00 C 156.28 268.30, 157.25 272.72, 161.00 276.00 C 164.94 281.08, 169.15 282.10, 173.00 284.00 C 176.76 282.37, 175.86 276.70, 176.00 273.00 C 175.28 269.90, 177.72 269.10, 177.00 267.00 C 178.65 264.19, 173.79 261.57, 178.00 260.00 C 180.35 263.20, 182.99 258.56, 184.00 261.00 C 187.73 259.64, 189.52 264.37, 186.00 264.00 C 183.54 268.59, 182.41 261.12, 182.00 265.00 C 180.08 267.15, 179.69 268.93, 180.00 271.00 C 180.00 276.00, 180.00 280.00, 180.00 284.00 C 185.63 284.84, 188.95 282.55, 193.00 282.00 C 198.52 278.72, 201.48 274.01, 204.00 270.00 C 204.92 265.44, 206.07 261.97, 206.00 258.00 C 205.38 252.71, 205.11 248.26, 202.00 245.00 C 198.32 240.22, 194.67 236.39, 190.00 235.00 C 185.53 233.04, 181.35 232.81, 177.00 233.00 Z" fill="rgb(154.91463414634146,185.5121951219512,158.7439024390244)" stroke="rgb(154.91463414634146,185.5121951219512,158.7439024390244)" stroke-width="1" />
<path d="M 403.00 308.00 C 400.93 313.61, 402.48 320.73, 402.00 327.00 C 401.23 331.46, 403.25 333.76, 403.00 337.00 C 403.77 341.46, 401.75 343.76, 402.00 347.00 C 402.00 351.00, 402.00 354.00, 402.00 357.00 C 402.33 361.67, 407.47 359.35, 410.00 360.00 C 417.67 360.00, 424.33 360.00, 431.00 360.00 C 435.02 357.46, 432.22 354.72, 433.00 351.00 C 433.00 347.00, 433.00 344.00, 433.00 341.00 C 433.00 333.33, 433.00 326.67, 433.00 320.00 C 433.00 316.00, 433.00 313.00, 433.00 310.00 C 432.26 306.74, 427.39 308.61, 425.00 308.00 C 417.33 308.00, 410.67 308.00, 404.00 308.00 Z" fill="rgb(207.8576533650983,142.3222156045265,120.10601548540798)" stroke="rgb(207.8576533650983,142.3222156045265,120.10601548540798)" stroke-width="1" />
<path d="M 334.00 250.00 C 332.20 251.96, 328.92 250.32, 327.00 252.00 C 324.11 254.73, 320.89 254.27, 319.00 257.00 C 317.62 260.59, 314.32 261.97, 315.00 265.00 C 314.00 268.33, 314.00 270.67, 314.00 273.00 C 313.90 280.01, 316.43 284.93, 321.00 289.00 C 326.14 293.74, 331.12 295.45, 337.00 295.00 C 340.73 295.30, 343.14 294.81, 345.00 293.00 C 348.29 291.22, 351.13 290.78, 353.00 288.00 C 355.19 285.02, 356.13 282.52, 357.00 280.00 C 355.73 276.27, 359.41 273.86, 357.00 272.00 C 357.18 268.45, 357.06 266.03, 356.00 264.00 C 355.12 260.07, 351.42 258.71, 351.00 256.00 C 347.41 254.62, 346.03 251.32, 343.00 252.00 C 339.24 251.70, 337.76 249.30, 335.00 250.00 Z" fill="rgb(133.78947368421052,184.26315789473685,158.89473684210526)" stroke="rgb(133.78947368421052,184.26315789473685,158.89473684210526)" stroke-width="1" />
<path d="M 334.00 250.00 C 332.76 252.51, 329.24 249.49, 328.00 252.00 C 324.30 252.45, 322.35 254.71, 320.00 256.00 C 315.56 261.27, 313.66 266.17, 314.00 272.00 C 314.16 278.76, 315.54 284.02, 320.00 288.00 C 325.07 293.24, 330.04 295.31, 336.00 295.00 C 342.97 295.35, 347.44 292.06, 352.00 289.00 C 353.38 285.41, 356.68 284.03, 356.00 281.00 C 356.27 277.23, 358.08 275.50, 358.00 273.00 C 356.04 270.20, 357.68 266.92, 356.00 265.00 C 354.22 261.71, 353.78 258.87, 351.00 257.00 C 347.78 254.39, 345.96 251.83, 343.00 252.00 C 339.23 251.73, 337.50 249.92, 335.00 250.00 Z" fill="rgb(184.75,210.36083743842366,185.35283251231527)" stroke="rgb(184.75,210.36083743842366,185.35283251231527)" stroke-width="1" />
<path d="M 5.00 293.00 C 2.22 294.53, -1.33 294.54, 0.00 299.00 C 0.00 303.00, 0.00 306.00, 0.00 309.00 C 0.00 316.67, 0.00 323.33, 0.00 330.00 C 0.00 337.67, 0.00 344.33, 0.00 351.00 C 0.00 355.00, 0.00 358.00, 0.00 361.00 C 4.33 361.00, 7.67 361.00, 11.00 361.00 C 14.70 360.84, 19.38 361.83, 20.00 359.00 C 20.00 354.67, 20.00 351.33, 20.00 348.00 C 20.00 340.33, 20.00 333.67, 20.00 327.00 C 20.00 319.33, 20.00 312.67, 20.00 306.00 C 20.56 301.35, 18.80 298.67, 17.00 296.00 C 13.01 293.51, 9.84 292.45, 6.00 293.00 Z" fill="rgb(174.60753077480086,209.76755973931932,179.83345401882693)" stroke="rgb(174.60753077480086,209.76755973931932,179.83345401882693)" stroke-width="1" />
<path d="M 176.00 233.00 C 174.43 234.72, 171.72 233.67, 170.00 235.00 C 166.12 236.35, 164.15 238.88, 162.00 241.00 C 159.95 244.45, 158.33 246.67, 157.00 249.00 C 156.61 252.45, 154.86 254.33, 155.00 257.00 C 161.12 257.24, 165.09 259.26, 170.00 259.00 C 175.98 259.39, 180.64 260.54, 186.00 260.00 C 191.28 261.60, 196.00 262.15, 201.00 262.00 C 204.34 263.45, 206.84 262.19, 206.00 259.00 C 206.73 255.23, 204.92 253.50, 205.00 251.00 C 203.12 247.89, 202.88 245.11, 201.00 243.00 C 197.97 239.27, 195.25 238.21, 193.00 236.00 C 187.55 233.68, 182.55 232.66, 177.00 233.00 Z" fill="rgb(186.50603448275862,209.7594827586207,184.75086206896552)" stroke="rgb(186.50603448275862,209.7594827586207,184.75086206896552)" stroke-width="1" />
<path d="M 587.00 228.00 C 584.41 229.37, 582.21 231.70, 580.00 234.00 C 579.06 238.04, 579.06 239.96, 580.00 243.00 C 580.66 246.91, 584.10 249.11, 587.00 249.00 C 590.09 250.94, 588.51 254.40, 589.00 257.00 C 589.00 269.67, 589.00 281.33, 589.00 293.00 C 589.60 299.72, 587.25 304.22, 588.00 310.00 C 588.60 314.05, 587.25 316.30, 587.00 319.00 C 587.60 323.05, 586.25 325.30, 586.00 328.00 C 586.00 331.67, 586.00 334.33, 586.00 337.00 C 585.71 340.82, 587.10 344.34, 584.00 346.00 C 582.49 349.32, 581.72 351.94, 582.00 355.00 C 583.14 358.69, 585.84 359.38, 589.00 359.00 C 593.00 359.31, 594.77 357.28, 596.00 355.00 C 595.93 351.08, 595.29 348.41, 594.00 346.00 C 592.41 342.30, 588.93 340.39, 589.00 337.00 C 589.00 333.33, 589.00 330.67, 589.00 328.00 C 588.50 323.99, 590.78 322.13, 590.00 319.00 C 589.22 314.87, 591.50 313.01, 591.00 310.00 C 591.00 303.33, 591.00 297.67, 591.00 292.00 C 590.40 287.95, 591.75 285.70, 592.00 283.00 C 592.00 279.33, 592.00 276.67, 592.00 274.00 C 592.00 267.33, 592.00 261.67, 592.00 256.00 C 590.98 251.33, 594.64 249.50, 597.00 248.00 C 598.89 244.29, 600.38 241.82, 601.00 239.00 C 600.04 235.18, 598.67 232.53, 597.00 230.00 C 593.95 227.84, 591.01 227.83, 588.00 228.00 Z" fill="rgb(127.78571428571429,137.57142857142858,129.21428571428572)" stroke="rgb(127.78571428571429,137.57142857142858,129.21428571428572)" stroke-width="1" />
<path d="M 120.00 228.00 C 117.14 229.49, 114.49 232.14, 113.00 235.00 C 112.18 238.15, 110.87 241.95, 113.00 244.00 C 114.05 247.93, 116.15 250.60, 119.00 252.00 C 123.68 252.09, 123.05 256.39, 123.00 259.00 C 122.81 265.88, 124.75 270.89, 124.00 277.00 C 122.82 283.32, 122.89 289.15, 123.00 295.00 C 123.00 307.67, 123.00 319.33, 123.00 331.00 C 122.25 338.11, 124.19 343.12, 124.00 349.00 C 121.91 351.94, 123.49 355.40, 123.00 358.00 C 126.00 359.00, 129.00 359.00, 132.00 359.00 C 135.13 356.95, 133.82 353.15, 133.00 351.00 C 129.47 347.42, 126.55 344.99, 125.00 342.00 C 125.00 335.33, 125.00 329.67, 125.00 324.00 C 125.00 311.33, 125.00 299.67, 125.00 288.00 C 125.00 281.33, 125.00 275.67, 125.00 270.00 C 125.00 266.33, 125.00 263.67, 125.00 261.00 C 125.29 257.18, 123.90 253.66, 127.00 252.00 C 131.16 252.27, 133.64 249.93, 134.00 247.00 C 136.29 243.73, 136.04 240.82, 136.00 238.00 C 136.11 234.10, 133.91 230.66, 131.00 230.00 C 127.47 227.54, 124.11 228.07, 121.00 228.00 Z" fill="rgb(65.071875,58.71875,72.9625)" stroke="rgb(65.071875,58.71875,72.9625)" stroke-width="1" />
<path d="M 476.00 305.00 C 473.77 308.88, 475.59 314.44, 475.00 319.00 C 475.00 324.67, 475.00 329.33, 475.00 334.00 C 475.00 337.00, 475.00 339.00, 475.00 341.00 C 475.44 343.89, 473.64 348.03, 477.00 347.00 C 483.00 347.00, 488.00 347.00, 493.00 347.00 C 496.30 343.01, 493.94 337.09, 496.00 333.00 C 495.64 327.34, 496.90 322.02, 495.00 318.00 C 495.73 315.17, 496.37 313.29, 496.00 311.00 C 496.20 307.74, 495.79 304.27, 493.00 305.00 C 489.45 304.82, 487.03 304.94, 485.00 306.00 C 481.67 305.00, 479.33 305.00, 477.00 305.00 Z" fill="rgb(205.09417040358744,188.45291479820628,160.28251121076232)" stroke="rgb(205.09417040358744,188.45291479820628,160.28251121076232)" stroke-width="1" />
<path d="M 235.00 310.00 C 235.00 318.67, 235.00 327.33, 235.00 336.00 C 235.93 340.51, 232.56 348.22, 238.00 348.00 C 244.19 347.90, 246.96 347.69, 252.00 348.00 C 255.22 343.45, 253.42 338.23, 254.00 334.00 C 254.00 328.67, 254.00 324.33, 254.00 320.00 C 253.40 315.26, 256.22 308.11, 250.00 310.00 C 244.67 310.00, 240.33 310.00, 236.00 310.00 Z" fill="rgb(148.03191489361703,187.75132978723406,162.86170212765958)" stroke="rgb(148.03191489361703,187.75132978723406,162.86170212765958)" stroke-width="1" />
<path d="M 52.00 308.00 C 52.00 316.67, 52.00 325.33, 52.00 334.00 C 52.37 338.63, 50.17 344.83, 56.00 343.00 C 61.33 343.00, 65.67 343.00, 70.00 343.00 C 71.00 334.33, 71.00 325.67, 71.00 317.00 C 70.63 312.37, 72.83 306.17, 67.00 308.00 C 61.67 308.00, 57.33 308.00, 53.00 308.00 Z" fill="rgb(111.69153225806451,102.10483870967742,115.3366935483871)" stroke="rgb(111.69153225806451,102.10483870967742,115.3366935483871)" stroke-width="1" />
<path d="M 591.00 232.00 C 588.76 236.21, 590.60 242.11, 590.00 247.00 C 590.00 253.33, 590.00 258.67, 590.00 264.00 C 588.05 269.33, 589.39 275.02, 589.00 280.00 C 589.00 286.33, 589.00 291.67, 589.00 297.00 C 588.06 302.75, 587.75 307.76, 588.00 313.00 C 585.96 315.63, 587.46 318.72, 587.00 321.00 C 587.50 325.01, 585.22 326.87, 586.00 330.00 C 585.14 335.92, 588.00 342.38, 584.00 346.00 C 582.19 348.86, 581.70 351.27, 582.00 354.00 C 581.23 358.58, 585.23 359.57, 588.00 359.00 C 591.17 359.12, 594.78 359.20, 595.00 357.00 C 596.58 354.46, 596.58 350.54, 595.00 349.00 C 594.55 345.30, 592.29 343.35, 591.00 341.00 C 587.91 338.06, 589.49 334.60, 589.00 332.00 C 588.54 325.67, 590.78 321.46, 590.00 316.00 C 591.98 310.35, 590.58 304.30, 591.00 299.00 C 591.39 293.02, 592.54 288.36, 592.00 283.00 C 592.00 276.67, 592.00 271.33, 592.00 266.00 C 592.42 259.70, 591.02 253.65, 593.00 249.00 C 590.73 245.27, 594.41 242.86, 592.00 241.00 C 593.78 236.87, 591.50 235.01, 592.00 232.00 Z" fill="rgb(67.77941176470588,67.50980392156863,85.43872549019608)" stroke="rgb(67.77941176470588,67.50980392156863,85.43872549019608)" stroke-width="1" />
<path d="M 88.00 318.00 C 86.28 319.57, 87.33 322.28, 86.00 324.00 C 87.00 327.33, 87.00 329.67, 87.00 332.00 C 87.00 337.67, 87.00 342.33, 87.00 347.00 C 87.00 350.00, 87.00 352.00, 87.00 354.00 C 86.72 357.61, 86.66 360.00, 90.00 359.00 C 95.67 359.00, 100.33 359.00, 105.00 359.00 C 108.30 356.63, 106.36 350.02, 107.00 346.00 C 104.53 344.21, 103.31 346.42, 101.00 346.00 C 96.59 346.98, 96.80 343.25, 97.00 341.00 C 97.00 335.33, 97.00 330.67, 97.00 326.00 C 97.00 323.00, 97.00 321.00, 97.00 319.00 C 93.67 318.00, 91.33 318.00, 89.00 318.00 Z" fill="rgb(91.6842105263158,68.89473684210526,80.47368421052632)" stroke="rgb(91.6842105263158,68.89473684210526,80.47368421052632)" stroke-width="1" />
<path d="M 452.00 354.00 C 452.00 355.67, 452.00 357.33, 452.00 359.00 C 454.67 359.00, 456.33 359.00, 458.00 359.00 C 463.00 359.00, 467.00 359.00, 471.00 359.00 C 480.33 359.00, 488.67 359.00, 497.00 359.00 C 515.00 359.00, 532.00 359.00, 549.00 359.00 C 550.00 357.33, 550.00 355.67, 550.00 354.00 C 547.33 354.00, 545.67 354.00, 544.00 354.00 C 539.00 354.00, 535.00 354.00, 531.00 354.00 C 521.67 354.00, 513.33 354.00, 505.00 354.00 C 487.00 354.00, 470.00 354.00, 453.00 354.00 Z" fill="rgb(56.3015332197615,14.235093696763203,49.78364565587734)" stroke="rgb(56.3015332197615,14.235093696763203,49.78364565587734)" stroke-width="1" />
<path d="M 288.00 147.00 C 286.04 148.42, 283.96 149.58, 282.00 151.00 C 279.68 153.87, 278.60 155.83, 278.00 158.00 C 277.79 161.47, 275.58 162.69, 276.00 165.00 C 276.99 168.20, 277.01 170.80, 278.00 173.00 C 280.20 179.60, 286.38 182.30, 291.00 184.00 C 294.00 184.00, 296.00 184.00, 298.00 184.00 C 301.34 183.12, 304.47 181.34, 304.00 179.00 C 297.73 180.27, 293.44 178.16, 290.00 174.00 C 288.99 170.73, 286.38 169.53, 287.00 167.00 C 286.19 163.92, 286.56 161.22, 288.00 159.00 C 289.32 152.98, 294.73 148.85, 300.00 149.00 C 303.39 148.27, 298.60 146.78, 297.00 147.00 C 293.67 147.00, 291.33 147.00, 289.00 147.00 Z" fill="rgb(93.125,164.875,141.625)" stroke="rgb(93.125,164.875,141.625)" stroke-width="1" />
<path d="M 289.00 147.00 C 287.00 147.99, 285.02 149.05, 283.00 150.00 C 279.81 152.98, 278.87 155.48, 278.00 158.00 C 277.79 161.47, 275.58 162.69, 276.00 165.00 C 276.99 168.20, 277.01 170.80, 278.00 173.00 C 279.33 176.42, 281.10 178.24, 283.00 180.00 C 286.34 181.99, 288.79 182.71, 291.00 184.00 C 294.00 184.00, 296.00 184.00, 298.00 184.00 C 301.44 183.07, 304.42 181.08, 305.00 179.00 C 298.99 182.13, 293.46 177.89, 290.00 174.00 C 287.84 171.20, 287.09 169.24, 287.00 167.00 C 284.13 163.92, 288.11 161.69, 287.00 159.00 C 289.32 152.98, 294.73 148.85, 300.00 149.00 C 304.03 151.16, 299.56 146.22, 298.00 147.00 C 294.67 147.00, 292.33 147.00, 290.00 147.00 Z" fill="rgb(148.34615384615384,187.92307692307693,158.6153846153846)" stroke="rgb(148.34615384615384,187.92307692307693,158.6153846153846)" stroke-width="1" />
<path d="M 289.00 147.00 C 284.69 149.61, 279.68 152.95, 278.00 158.00 C 276.28 160.57, 277.33 163.28, 276.00 165.00 C 276.50 168.07, 277.50 169.93, 278.00 172.00 C 280.41 174.01, 279.89 177.83, 282.00 178.00 C 284.76 180.90, 286.58 182.67, 289.00 183.00 C 291.32 185.98, 294.03 184.58, 296.00 185.00 C 299.47 185.13, 300.67 182.20, 303.00 182.00 C 304.17 178.83, 300.45 180.55, 299.00 180.00 C 296.19 178.21, 293.57 178.38, 292.00 176.00 C 288.62 173.43, 288.79 170.81, 287.00 169.00 C 287.98 165.69, 285.36 163.27, 287.00 162.00 C 287.91 156.47, 290.89 151.00, 296.00 150.00 C 299.66 150.16, 301.51 147.18, 298.00 147.00 C 294.67 147.00, 292.33 147.00, 290.00 147.00 Z" fill="rgb(232.5983436853002,223.2111801242236,185.08902691511386)" stroke="rgb(232.5983436853002,223.2111801242236,185.08902691511386)" stroke-width="1" />
<path d="M 120.00 228.00 C 115.77 229.86, 113.43 234.10, 112.00 238.00 C 111.49 243.43, 113.65 246.76, 116.00 250.00 C 118.69 251.29, 119.95 252.59, 122.00 252.00 C 122.00 249.33, 122.00 247.67, 122.00 246.00 C 122.00 243.33, 122.00 241.67, 122.00 240.00 C 123.39 235.49, 126.73 238.30, 126.00 241.00 C 126.63 245.04, 124.72 250.61, 127.00 252.00 C 133.19 252.53, 133.59 247.06, 136.00 244.00 C 135.78 239.15, 136.96 234.72, 134.00 232.00 C 129.77 228.15, 125.58 227.60, 121.00 228.00 Z" fill="rgb(208.84583333333333,135.87708333333333,110.975)" stroke="rgb(208.84583333333333,135.87708333333333,110.975)" stroke-width="1" />
<path d="M 283.00 309.00 C 280.73 314.53, 282.62 321.79, 282.00 328.00 C 282.73 331.27, 280.20 336.80, 284.00 336.00 C 288.33 336.00, 291.67 336.00, 295.00 336.00 C 299.67 335.67, 297.35 330.53, 298.00 328.00 C 298.00 323.67, 298.00 320.33, 298.00 317.00 C 297.70 313.43, 299.39 308.06, 295.00 309.00 C 292.17 307.80, 291.09 311.50, 290.00 309.00 C 288.06 310.53, 284.94 310.53, 284.00 309.00 Z" fill="rgb(163.57358490566037,150.80377358490566,147.30943396226414)" stroke="rgb(163.57358490566037,150.80377358490566,147.30943396226414)" stroke-width="1" />
<path d="M 189.00 263.00 C 186.76 265.70, 183.97 267.06, 181.00 268.00 C 180.00 270.67, 180.00 273.33, 180.00 276.00 C 181.01 279.56, 176.57 283.47, 181.00 284.00 C 185.05 284.60, 187.30 283.25, 190.00 283.00 C 194.35 281.97, 196.53 279.14, 199.00 277.00 C 202.16 273.67, 203.84 271.15, 204.00 268.00 C 206.27 263.07, 202.64 264.03, 200.00 264.00 C 196.74 261.87, 192.92 263.52, 190.00 263.00 Z" fill="rgb(182.9284064665127,207.46651270207852,181.07621247113164)" stroke="rgb(182.9284064665127,207.46651270207852,181.07621247113164)" stroke-width="1" />
<path d="M 155.00 259.00 C 154.96 261.82, 154.71 264.73, 156.00 267.00 C 156.82 271.02, 158.89 273.52, 161.00 276.00 C 163.09 278.78, 166.37 281.53, 169.00 282.00 C 171.06 283.20, 172.53 282.39, 173.00 284.00 C 176.43 284.79, 173.63 281.15, 176.00 281.00 C 176.00 277.33, 176.00 274.67, 176.00 272.00 C 177.47 267.96, 175.73 265.96, 173.00 264.00 C 172.09 259.34, 168.87 259.91, 166.00 260.00 C 161.57 260.69, 159.43 258.31, 156.00 259.00 Z" fill="rgb(186.30339805825244,209.86165048543688,184.7621359223301)" stroke="rgb(186.30339805825244,209.86165048543688,184.7621359223301)" stroke-width="1" />
<path d="M 587.00 228.00 C 585.59 229.61, 583.41 229.39, 582.00 231.00 C 579.42 233.01, 580.76 235.65, 579.00 237.00 C 578.80 241.95, 579.81 246.84, 584.00 248.00 C 590.24 251.61, 588.90 245.78, 589.00 242.00 C 589.24 238.10, 587.70 229.98, 592.00 232.00 C 593.00 236.67, 593.00 240.33, 593.00 244.00 C 593.00 246.67, 593.00 248.33, 593.00 250.00 C 595.38 248.51, 598.24 248.11, 598.00 246.00 C 599.29 243.31, 600.59 242.05, 600.00 240.00 C 600.17 237.40, 600.37 235.38, 599.00 234.00 C 596.13 229.40, 592.70 227.17, 588.00 228.00 Z" fill="rgb(202.32869080779943,135.46518105849583,111.4958217270195)" stroke="rgb(202.32869080779943,135.46518105849583,111.4958217270195)" stroke-width="1" />
<path d="M 72.00 155.00 C 73.58 157.07, 77.91 158.80, 80.00 162.00 C 82.03 165.77, 82.19 169.31, 82.00 173.00 C 80.54 177.46, 79.01 181.45, 75.00 183.00 C 71.18 185.78, 75.23 184.71, 76.00 185.00 C 78.66 184.64, 80.98 185.89, 82.00 184.00 C 86.16 182.54, 88.88 180.24, 90.00 177.00 C 91.78 172.85, 92.34 169.61, 92.00 166.00 C 90.05 161.88, 88.05 157.27, 84.00 156.00 C 80.42 153.84, 76.25 155.54, 73.00 155.00 Z" fill="rgb(144.3030303030303,189.21212121212122,163.21212121212122)" stroke="rgb(144.3030303030303,189.21212121212122,163.21212121212122)" stroke-width="1" />
<path d="M 74.00 155.00 C 73.49 158.17, 80.05 157.85, 80.00 162.00 C 82.47 165.25, 82.03 168.71, 82.00 172.00 C 80.96 176.26, 80.24 179.65, 77.00 182.00 C 70.42 185.31, 79.45 186.01, 81.00 184.00 C 85.17 183.30, 88.84 180.16, 90.00 177.00 C 91.00 173.00, 91.00 170.00, 91.00 167.00 C 90.89 162.52, 89.33 159.35, 86.00 158.00 C 82.23 154.97, 78.69 154.81, 75.00 155.00 Z" fill="rgb(182.33333333333334,208.21806853582555,181.21495327102804)" stroke="rgb(182.33333333333334,208.21806853582555,181.21495327102804)" stroke-width="1" />
<path d="M 88.00 318.00 C 85.74 322.87, 87.61 329.45, 87.00 335.00 C 87.00 338.67, 87.00 341.33, 87.00 344.00 C 88.94 347.09, 92.40 345.51, 95.00 346.00 C 98.02 341.03, 96.56 334.62, 97.00 329.00 C 97.00 325.33, 97.00 322.67, 97.00 320.00 C 95.06 316.91, 91.60 318.49, 89.00 318.00 Z" fill="rgb(120.5,126.76282051282051,113.03846153846153)" stroke="rgb(120.5,126.76282051282051,113.03846153846153)" stroke-width="1" />
<path d="M 178.00 262.00 C 177.78 265.71, 178.70 269.90, 177.00 273.00 C 176.72 278.02, 177.78 282.60, 176.00 286.00 C 176.23 290.90, 175.97 294.60, 175.00 298.00 C 175.74 303.45, 173.84 306.80, 174.00 311.00 C 174.69 316.09, 172.31 318.91, 173.00 323.00 C 172.56 327.96, 171.49 331.65, 172.00 336.00 C 172.57 341.37, 170.24 344.55, 171.00 349.00 C 171.37 353.99, 170.46 359.28, 171.00 362.00 C 174.64 360.57, 172.37 355.68, 173.00 352.00 C 172.24 346.55, 174.57 343.37, 174.00 339.00 C 173.24 333.55, 175.57 330.37, 175.00 326.00 C 174.24 320.55, 176.57 317.37, 176.00 313.00 C 175.22 307.87, 177.35 304.95, 177.00 301.00 C 176.49 295.65, 177.56 291.96, 178.00 288.00 C 177.49 282.65, 178.56 278.96, 179.00 275.00 C 179.00 270.00, 179.00 266.00, 179.00 262.00 Z" fill="rgb(58.829787234042556,60.744680851063826,90.62056737588652)" stroke="rgb(58.829787234042556,60.744680851063826,90.62056737588652)" stroke-width="1" />
<path d="M 105.00 345.00 C 103.37 347.04, 100.28 345.54, 98.00 346.00 C 95.37 348.04, 92.28 346.54, 90.00 347.00 C 85.64 345.97, 87.44 350.11, 87.00 352.00 C 87.61 355.06, 85.39 359.95, 89.00 359.00 C 95.00 359.00, 100.00 359.00, 105.00 359.00 C 108.21 358.88, 106.42 354.76, 107.00 353.00 C 106.41 349.93, 108.24 345.43, 106.00 345.00 Z" fill="rgb(154.6962457337884,119.70648464163823,105.90102389078498)" stroke="rgb(154.6962457337884,119.70648464163823,105.90102389078498)" stroke-width="1" />
<path d="M 376.00 310.00 C 376.00 315.00, 376.00 320.00, 376.00 325.00 C 376.00 328.33, 376.00 330.67, 376.00 333.00 C 378.67 334.00, 381.33 334.00, 384.00 334.00 C 387.04 332.37, 385.54 329.28, 386.00 327.00 C 387.01 324.47, 383.14 324.06, 386.00 323.00 C 387.01 320.47, 383.14 320.06, 386.00 319.00 C 386.06 315.97, 386.18 313.55, 386.00 311.00 C 382.33 310.00, 379.67 310.00, 377.00 310.00 Z" fill="rgb(113.9963503649635,103.27372262773723,95.53284671532846)" stroke="rgb(113.9963503649635,103.27372262773723,95.53284671532846)" stroke-width="1" />
<path d="M 588.00 340.00 C 586.64 343.93, 582.87 346.86, 582.00 351.00 C 580.95 356.20, 583.25 360.37, 588.00 359.00 C 593.51 360.23, 596.63 356.11, 596.00 352.00 C 594.63 346.90, 593.53 341.91, 589.00 340.00 Z" fill="rgb(40.92139737991266,20.58951965065502,60.10043668122271)" stroke="rgb(40.92139737991266,20.58951965065502,60.10043668122271)" stroke-width="1" />
<path d="M 553.00 35.00 C 553.04 39.03, 547.40 45.03, 544.00 40.00 C 541.65 36.00, 540.57 37.05, 541.00 40.00 C 541.42 42.97, 540.02 45.68, 542.00 47.00 C 544.77 51.72, 550.79 52.13, 554.00 49.00 C 556.43 44.24, 557.00 38.20, 554.00 35.00 Z" fill="rgb(176.16230366492147,205.434554973822,183.06806282722513)" stroke="rgb(176.16230366492147,205.434554973822,183.06806282722513)" stroke-width="1" />
<path d="M 125.00 345.00 C 123.08 347.62, 124.42 351.59, 122.00 354.00 C 120.78 359.53, 125.48 360.72, 129.00 360.00 C 133.53 359.64, 134.98 357.67, 135.00 354.00 C 133.08 349.81, 129.90 345.05, 126.00 345.00 Z" fill="rgb(41.69879518072289,31.873493975903614,57.54819277108434)" stroke="rgb(41.69879518072289,31.873493975903614,57.54819277108434)" stroke-width="1" />
<path d="M 88.00 327.00 C 85.06 330.34, 89.20 334.01, 88.00 338.00 C 88.00 340.67, 88.00 342.33, 88.00 344.00 C 89.32 346.98, 92.03 345.58, 94.00 346.00 C 95.00 342.33, 95.00 338.67, 95.00 335.00 C 95.00 332.33, 95.00 330.67, 95.00 329.00 C 93.68 326.02, 90.97 327.42, 89.00 327.00 Z" fill="rgb(106.96153846153847,81.15384615384616,83.10897435897436)" stroke="rgb(106.96153846153847,81.15384615384616,83.10897435897436)" stroke-width="1" />
<path d="M 63.00 320.00 C 63.00 324.33, 63.00 328.67, 63.00 333.00 C 63.00 336.00, 63.00 338.00, 63.00 340.00 C 62.83 343.17, 66.55 341.45, 68.00 342.00 C 69.00 337.67, 69.00 333.33, 69.00 329.00 C 69.00 326.00, 69.00 324.00, 69.00 322.00 C 69.17 318.83, 65.45 320.55, 64.00 320.00 Z" fill="rgb(42.2962962962963,25.333333333333332,46.19753086419753)" stroke="rgb(42.2962962962963,25.333333333333332,46.19753086419753)" stroke-width="1" />
<path d="M 475.00 333.00 C 475.00 336.33, 475.00 339.67, 475.00 343.00 C 473.55 348.79, 479.18 346.49, 482.00 347.00 C 485.16 344.42, 483.46 340.25, 484.00 337.00 C 484.81 331.26, 478.77 333.50, 476.00 333.00 Z" fill="rgb(117.64864864864865,107.45945945945945,104.64189189189189)" stroke="rgb(117.64864864864865,107.45945945945945,104.64189189189189)" stroke-width="1" />
<path d="M 487.00 333.00 C 487.00 336.00, 487.00 339.00, 487.00 342.00 C 485.51 347.83, 489.49 347.17, 493.00 347.00 C 496.16 344.42, 494.46 340.25, 495.00 337.00 C 496.45 331.21, 490.82 333.51, 488.00 333.00 Z" fill="rgb(122.83458646616542,106.796992481203,104.6015037593985)" stroke="rgb(122.83458646616542,106.796992481203,104.6015037593985)" stroke-width="1" />
<path d="M 476.00 319.00 C 473.91 320.94, 475.49 324.40, 475.00 327.00 C 474.20 331.80, 479.73 329.27, 482.00 330.00 C 485.24 329.57, 483.41 325.07, 484.00 323.00 C 484.94 317.61, 479.57 319.30, 477.00 319.00 Z" fill="rgb(120.95762711864407,105.83898305084746,106.77118644067797)" stroke="rgb(120.95762711864407,105.83898305084746,106.77118644067797)" stroke-width="1" />
<path d="M 475.00 306.00 C 475.00 308.67, 475.00 311.33, 475.00 314.00 C 475.74 317.26, 480.61 315.39, 483.00 316.00 C 484.00 313.33, 484.00 310.67, 484.00 308.00 C 483.26 304.74, 478.39 306.61, 476.00 306.00 Z" fill="rgb(120.52252252252252,121.37837837837837,120.009009009009)" stroke="rgb(120.52252252252252,121.37837837837837,120.009009009009)" stroke-width="1" />
<path d="M 487.00 319.00 C 487.00 321.67, 487.00 324.33, 487.00 327.00 C 486.20 331.80, 491.73 329.27, 494.00 330.00 C 495.00 327.33, 495.00 324.67, 495.00 322.00 C 495.80 317.20, 490.27 319.73, 488.00 319.00 Z" fill="rgb(109.42056074766356,105.55140186915888,105.94392523364486)" stroke="rgb(109.42056074766356,105.55140186915888,105.94392523364486)" stroke-width="1" />
<path d="M 487.00 306.00 C 487.00 308.67, 487.00 311.33, 487.00 314.00 C 487.43 317.24, 491.93 315.41, 494.00 316.00 C 495.00 313.33, 495.00 310.67, 495.00 308.00 C 494.57 304.76, 490.07 306.59, 488.00 306.00 Z" fill="rgb(107.58762886597938,104.15463917525773,105.30927835051547)" stroke="rgb(107.58762886597938,104.15463917525773,105.30927835051547)" stroke-width="1" />
<path d="M 283.00 323.00 C 283.00 325.33, 283.00 327.67, 283.00 330.00 C 282.17 333.89, 284.11 335.83, 287.00 335.00 C 288.00 331.67, 288.00 329.33, 288.00 327.00 C 289.00 322.66, 286.61 322.72, 284.00 323.00 Z" fill="rgb(68.44871794871794,42.833333333333336,48.62820512820513)" stroke="rgb(68.44871794871794,42.833333333333336,48.62820512820513)" stroke-width="1" />
<path d="M 291.00 311.00 C 289.36 312.27, 291.98 314.69, 291.00 317.00 C 289.97 321.36, 294.11 319.56, 296.00 320.00 C 297.00 318.00, 297.00 316.00, 297.00 314.00 C 298.03 309.64, 293.89 311.44, 292.00 311.00 Z" fill="rgb(95.15714285714286,81.47142857142858,89.61428571428571)" stroke="rgb(95.15714285714286,81.47142857142858,89.61428571428571)" stroke-width="1" />
<path d="M 63.00 310.00 C 63.00 312.00, 63.00 314.00, 63.00 316.00 C 62.83 319.17, 66.55 317.45, 68.00 318.00 C 69.00 316.00, 69.00 314.00, 69.00 312.00 C 69.17 308.83, 65.45 310.55, 64.00 310.00 Z" fill="rgb(50.25,34.578125,53.78125)" stroke="rgb(50.25,34.578125,53.78125)" stroke-width="1" />
<path d="M 283.00 311.00 C 283.60 314.74, 280.78 321.89, 287.00 320.00 C 287.40 316.26, 290.22 309.11, 284.00 311.00 Z" fill="rgb(78.13333333333334,70.96666666666667,76.71666666666667)" stroke="rgb(78.13333333333334,70.96666666666667,76.71666666666667)" stroke-width="1" />
<path d="M 111.00 340.00 C 111.50 343.01, 109.22 344.87, 110.00 348.00 C 109.93 352.11, 110.46 355.47, 109.00 358.00 C 112.67 358.67, 110.35 353.53, 111.00 351.00 C 111.00 347.00, 111.00 344.00, 111.00 341.00 Z" fill="rgb(50.80952380952381,23.928571428571427,52.642857142857146)" stroke="rgb(50.80952380952381,23.928571428571427,52.642857142857146)" stroke-width="1" />
</svg>