<svg xmlns="http://www.w3.org/2000/svg" width="640" height="427" viewbox="0 0 640 427">
<path d="M 0.50 0.50 C 0.50 94.83, 0.50 189.17, 0.50 283.50 C 0.50 322.83, 0.50 361.17, 0.50 399.50 C 1.75 408.58, -2.06 421.72, 2.50 426.50 C 7.83 426.50, 12.17 426.50, 16.50 426.50 C 22.17 426.50, 26.83 426.50, 31.50 426.50 C 36.83 426.50, 41.17 426.50, 45.50 426.50 C 51.17 426.50, 55.83 426.50, 60.50 426.50 C 66.17 426.50, 70.83 426.50, 75.50 426.50 C 81.17 426.50, 85.83 426.50, 90.50 426.50 C 94.50 426.50, 97.50 426.50, 100.50 426.50 C 104.50 426.50, 107.50 426.50, 110.50 426.50 C 114.50 426.50, 117.50 426.50, 120.50 426.50 C 124.83 426.50, 128.17 426.50, 131.50 426.50 C 135.50 426.50, 138.50 426.50, 141.50 426.50 C 145.50 426.50, 148.50 426.50, 151.50 426.50 C 155.50 426.50, 158.50 426.50, 161.50 426.50 C 165.83 426.50, 169.17 426.50, 172.50 426.50 C 176.17 426.50, 178.83 426.50, 181.50 426.50 C 185.50 426.50, 188.50 426.50, 191.50 426.50 C 195.50 426.50, 198.50 426.50, 201.50 426.50 C 205.50 426.50, 208.50 426.50, 211.50 426.50 C 215.50 426.50, 218.50 426.50, 221.50 426.50 C 225.50 426.50, 228.50 426.50, 231.50 426.50 C 235.50 426.50, 238.50 426.50, 241.50 426.50 C 245.50 426.50, 248.50 426.50, 251.50 426.50 C 255.17 426.50, 257.83 426.50, 260.50 426.50 C 264.50 426.50, 267.50 426.50, 270.50 426.50 C 274.50 426.50, 277.50 426.50, 280.50 426.50 C 284.50 426.50, 287.50 426.50, 290.50 426.50 C 294.50 426.50, 297.50 426.50, 300.50 426.50 C 304.50 426.50, 307.50 426.50, 310.50 426.50 C 314.50 426.50, 317.50 426.50, 320.50 426.50 C 324.50 426.50, 327.50 426.50, 330.50 426.50 C 334.17 426.50, 336.83 426.50, 339.50 426.50 C 343.50 426.50, 346.50 426.50, 349.50 426.50 C 353.50 426.50, 356.50 426.50, 359.50 426.50 C 363.50 426.50, 366.50 426.50, 369.50 426.50 C 373.50 426.50, 376.50 426.50, 379.50 426.50 C 383.50 426.50, 386.50 426.50, 389.50 426.50 C 393.50 426.50, 396.50 426.50, 399.50 426.50 C 403.50 426.50, 406.50 426.50, 409.50 426.50 C 413.17 426.50, 415.83 426.50, 418.50 426.50 C 422.50 426.50, 425.50 426.50, 428.50 426.50 C 432.50 426.50, 435.50 426.50, 438.50 426.50 C 442.50 426.50, 445.50 426.50, 448.50 426.50 C 452.50 426.50, 455.50 426.50, 458.50 426.50 C 462.50 426.50, 465.50 426.50, 468.50 426.50 C 472.50 426.50, 475.50 426.50, 478.50 426.50 C 482.50 426.50, 485.50 426.50, 488.50 426.50 C 493.50 426.50, 497.50 426.50, 501.50 426.50 C 506.50 426.50, 510.50 426.50, 514.50 426.50 C 519.50 426.50, 523.50 426.50, 527.50 426.50 C 532.83 426.50, 537.17 426.50, 541.50 426.50 C 546.50 426.50, 550.50 426.50, 554.50 426.50 C 559.50 426.50, 563.50 426.50, 567.50 426.50 C 572.50 426.50, 576.50 426.50, 580.50 426.50 C 585.83 426.50, 590.17 426.50, 594.50 426.50 C 599.50 426.50, 603.50 426.50, 607.50 426.50 C 612.50 426.50, 616.50 426.50, 620.50 426.50 C 625.50 426.50, 629.50 426.50, 633.50 426.50 C 640.80 428.46, 639.58 422.91, 639.50 418.50 C 639.50 399.83, 639.50 382.17, 639.50 364.50 C 638.17 243.17, 642.17 117.50, 637.50 0.50 C 633.83 0.50, 631.17 0.50, 628.50 0.50 C 624.50 0.50, 621.50 0.50, 618.50 0.50 C 614.50 0.50, 611.50 0.50, 608.50 0.50 C 604.50 0.50, 601.50 0.50, 598.50 0.50 C 594.50 0.50, 591.50 0.50, 588.50 0.50 C 584.50 0.50, 581.50 0.50, 578.50 0.50 C 574.50 0.50, 571.50 0.50, 568.50 0.50 C 564.50 0.50, 561.50 0.50, 558.50 0.50 C 554.50 0.50, 551.50 0.50, 548.50 0.50 C 544.50 0.50, 541.50 0.50, 538.50 0.50 C 534.50 0.50, 531.50 0.50, 528.50 0.50 C 524.50 0.50, 521.50 0.50, 518.50 0.50 C 514.50 0.50, 511.50 0.50, 508.50 0.50 C 504.50 0.50, 501.50 0.50, 498.50 0.50 C 494.50 0.50, 491.50 0.50, 488.50 0.50 C 484.50 0.50, 481.50 0.50, 478.50 0.50 C 474.83 0.50, 472.17 0.50, 469.50 0.50 C 465.50 0.50, 462.50 0.50, 459.50 0.50 C 455.50 0.50, 452.50 0.50, 449.50 0.50 C 445.50 0.50, 442.50 0.50, 439.50 0.50 C 435.50 0.50, 432.50 0.50, 429.50 0.50 C 425.50 0.50, 422.50 0.50, 419.50 0.50 C 415.50 0.50, 412.50 0.50, 409.50 0.50 C 405.50 0.50, 402.50 0.50, 399.50 0.50 C 395.50 0.50, 392.50 0.50, 389.50 0.50 C 385.50 0.50, 382.50 0.50, 379.50 0.50 C 375.50 0.50, 372.50 0.50, 369.50 0.50 C 365.50 0.50, 362.50 0.50, 359.50 0.50 C 355.50 0.50, 352.50 0.50, 349.50 0.50 C 345.50 0.50, 342.50 0.50, 339.50 0.50 C 335.50 0.50, 332.50 0.50, 329.50 0.50 C 325.50 0.50, 322.50 0.50, 319.50 0.50 C 315.83 0.50, 313.17 0.50, 310.50 0.50 C 306.50 0.50, 303.50 0.50, 300.50 0.50 C 296.50 0.50, 293.50 0.50, 290.50 0.50 C 286.50 0.50, 283.50 0.50, 280.50 0.50 C 276.50 0.50, 273.50 0.50, 270.50 0.50 C 266.50 0.50, 263.50 0.50, 260.50 0.50 C 256.50 0.50, 253.50 0.50, 250.50 0.50 C 246.50 0.50, 243.50 0.50, 240.50 0.50 C 236.50 0.50, 233.50 0.50, 230.50 0.50 C 226.50 0.50, 223.50 0.50, 220.50 0.50 C 216.50 0.50, 213.50 0.50, 210.50 0.50 C 206.50 0.50, 203.50 0.50, 200.50 0.50 C 196.50 0.50, 193.50 0.50, 190.50 0.50 C 186.50 0.50, 183.50 0.50, 180.50 0.50 C 176.50 0.50, 173.50 0.50, 170.50 0.50 C 166.50 0.50, 163.50 0.50, 160.50 0.50 C 156.83 0.50, 154.17 0.50, 151.50 0.50 C 147.50 0.50, 144.50 0.50, 141.50 0.50 C 137.50 0.50, 134.50 0.50, 131.50 0.50 C 127.50 0.50, 124.50 0.50, 121.50 0.50 C 117.50 0.50, 114.50 0.50, 111.50 0.50 C 107.50 0.50, 104.50 0.50, 101.50 0.50 C 97.50 0.50, 94.50 0.50, 91.50 0.50 C 87.50 0.50, 84.50 0.50, 81.50 0.50 C 77.50 0.50, 74.50 0.50, 71.50 0.50 C 67.50 0.50, 64.50 0.50, 61.50 0.50 C 57.50 0.50, 54.50 0.50, 51.50 0.50 C 47.50 0.50, 44.50 0.50, 41.50 0.50 C 37.50 0.50, 34.50 0.50, 31.50 0.50 C 27.50 0.50, 24.50 0.50, 21.50 0.50 C 17.50 0.50, 14.50 0.50, 11.50 0.50 C 7.50 0.50, 4.50 0.50, 1.50 0.50 Z" fill="rgb(126.41567963902989,178.89340101522842,153.2319984959579)" stroke="rgb(126.41567963902989,178.89340101522842,153.2319984959579)" stroke-width="1" />
<path d="M 5.50 2.50 C 4.42 5.09, -0.72 1.54, 0.50 5.50 C 0.50 11.50, 0.50 16.50, 0.50 21.50 C 0.50 27.50, 0.50 32.50, 0.50 37.50 C 0.50 43.83, 0.50 49.17, 0.50 54.50 C 0.50 60.83, 0.50 66.17, 0.50 71.50 C 0.50 77.83, 0.50 83.17, 0.50 88.50 C 0.50 94.83, 0.50 100.17, 0.50 105.50 C 0.50 111.83, 0.50 117.17, 0.50 122.50 C 0.50 128.83, 0.50 134.17, 0.50 139.50 C 0.50 145.83, 0.50 151.17, 0.50 156.50 C 0.50 162.83, 0.50 168.17, 0.50 173.50 C 0.50 179.83, 0.50 185.17, 0.50 190.50 C 0.50 196.83, 0.50 202.17, 0.50 207.50 C 0.50 213.83, 0.50 219.17, 0.50 224.50 C 0.50 230.83, 0.50 236.17, 0.50 241.50 C 0.50 247.83, 0.50 253.17, 0.50 258.50 C 0.50 264.83, 0.50 270.17, 0.50 275.50 C 0.50 281.83, 0.50 287.17, 0.50 292.50 C 1.45 294.46, 6.82 291.96, 9.50 291.50 C 14.94 292.37, 19.56 295.39, 20.50 299.50 C 23.07 305.32, 22.36 311.09, 22.50 316.50 C 22.04 320.03, 22.57 323.39, 22.50 326.50 C 22.50 331.50, 22.50 335.50, 22.50 339.50 C 22.50 344.83, 22.50 349.17, 22.50 353.50 C 21.53 357.86, 24.60 359.71, 27.50 359.50 C 31.81 359.55, 35.55 360.28, 36.50 356.50 C 35.50 350.17, 35.50 344.83, 35.50 339.50 C 35.50 335.83, 35.50 333.17, 35.50 330.50 C 35.50 326.83, 35.50 324.17, 35.50 321.50 C 36.10 315.61, 34.26 309.71, 36.50 305.50 C 40.92 299.90, 45.82 296.47, 50.50 292.50 C 56.46 288.55, 60.93 284.41, 65.50 280.50 C 69.83 279.43, 70.58 284.58, 73.50 284.50 C 78.74 288.87, 83.88 291.06, 88.50 294.50 C 91.93 297.06, 94.46 299.41, 97.50 300.50 C 100.40 304.44, 103.75 304.17, 106.50 307.50 C 113.90 310.54, 110.02 317.84, 112.50 322.50 C 111.32 326.62, 112.37 328.17, 112.50 331.50 C 112.79 335.32, 111.40 338.84, 114.50 340.50 C 114.50 344.17, 114.50 346.83, 114.50 349.50 C 115.10 353.69, 112.89 358.37, 116.50 359.50 C 122.29 359.95, 119.99 354.32, 120.50 351.50 C 121.50 347.50, 121.50 344.50, 121.50 341.50 C 121.50 337.50, 121.50 334.50, 121.50 331.50 C 121.50 327.50, 121.50 324.50, 121.50 321.50 C 121.50 317.50, 121.50 314.50, 121.50 311.50 C 121.50 307.50, 121.50 304.50, 121.50 301.50 C 121.50 297.50, 121.50 294.50, 121.50 291.50 C 121.50 287.50, 121.50 284.50, 121.50 281.50 C 121.50 277.17, 121.50 273.83, 121.50 270.50 C 119.93 266.65, 116.65 267.94, 114.50 266.50 C 111.18 264.65, 107.70 265.62, 105.50 263.50 C 99.04 258.84, 93.56 253.09, 90.50 247.50 C 89.08 244.01, 88.88 241.01, 87.50 238.50 C 87.50 234.83, 87.50 232.17, 87.50 229.50 C 88.37 225.92, 87.96 222.80, 89.50 220.50 C 90.95 216.41, 92.21 213.24, 94.50 210.50 C 98.41 206.95, 100.76 203.05, 104.50 202.50 C 108.36 199.36, 111.87 198.79, 115.50 198.50 C 120.41 196.53, 125.66 195.60, 129.50 197.50 C 134.91 199.19, 139.26 199.99, 142.50 203.50 C 146.85 205.97, 149.84 208.68, 151.50 212.50 C 154.85 216.41, 156.42 219.65, 156.50 223.50 C 157.25 227.74, 159.27 230.04, 158.50 233.50 C 159.82 237.88, 155.92 240.96, 158.50 243.50 C 159.81 239.22, 164.07 239.38, 165.50 236.50 C 171.04 233.85, 175.45 231.91, 180.50 231.50 C 185.80 232.11, 189.77 233.53, 193.50 235.50 C 198.68 238.13, 204.00 242.78, 205.50 247.50 C 208.37 251.39, 207.13 255.99, 208.50 259.50 C 208.78 265.03, 205.69 268.16, 205.50 272.50 C 201.94 278.09, 198.09 281.94, 193.50 284.50 C 189.24 286.76, 183.32 286.77, 181.50 287.50 C 181.24 292.95, 179.34 296.30, 179.50 300.50 C 179.92 306.15, 179.13 310.29, 178.50 314.50 C 177.60 319.52, 178.86 324.84, 178.50 329.50 C 179.05 335.77, 176.04 339.99, 177.50 344.50 C 176.50 348.50, 176.50 351.50, 176.50 354.50 C 175.58 358.80, 177.66 358.04, 179.50 359.50 C 183.17 359.50, 185.83 359.50, 188.50 359.50 C 192.50 359.50, 195.50 359.50, 198.50 359.50 C 202.50 359.50, 205.50 359.50, 208.50 359.50 C 212.50 359.50, 215.50 359.50, 218.50 359.50 C 219.50 354.50, 219.50 350.50, 219.50 346.50 C 219.50 341.50, 219.50 337.50, 219.50 333.50 C 219.50 328.50, 219.50 324.50, 219.50 320.50 C 219.50 315.17, 219.50 310.83, 219.50 306.50 C 223.39 304.03, 225.61 300.97, 228.50 299.50 C 232.29 296.65, 235.21 294.12, 238.50 292.50 C 242.90 289.33, 245.57 285.40, 249.50 284.50 C 254.04 282.01, 256.18 277.12, 260.50 277.50 C 264.22 280.17, 268.06 280.14, 270.50 283.50 C 274.48 285.55, 277.82 286.72, 280.50 289.50 C 285.13 290.66, 287.25 294.45, 290.50 295.50 C 296.12 301.22, 302.88 301.78, 307.50 307.50 C 309.28 311.90, 308.22 316.48, 308.50 320.50 C 308.50 325.83, 308.50 330.17, 308.50 334.50 C 308.50 339.17, 308.50 342.83, 308.50 346.50 C 308.50 351.17, 308.50 354.83, 308.50 358.50 C 312.83 359.50, 316.17 359.50, 319.50 359.50 C 324.17 359.50, 327.83 359.50, 331.50 359.50 C 336.17 359.50, 339.83 359.50, 343.50 359.50 C 348.21 359.28, 352.40 360.20, 355.50 358.50 C 355.50 354.17, 355.50 350.83, 355.50 347.50 C 354.26 342.29, 356.10 336.39, 355.50 331.50 C 355.50 326.50, 355.50 322.50, 355.50 318.50 C 355.37 312.84, 355.35 308.22, 357.50 304.50 C 363.64 300.18, 368.60 296.41, 373.50 292.50 C 378.97 287.22, 384.68 284.94, 389.50 280.50 C 394.48 278.93, 397.64 280.35, 400.50 282.50 C 405.52 284.99, 408.62 288.68, 412.50 290.50 C 417.10 292.85, 420.06 295.77, 423.50 297.50 C 428.08 301.37, 432.40 302.46, 435.50 306.50 C 435.87 311.71, 435.08 315.85, 435.50 320.50 C 435.50 326.50, 435.50 331.50, 435.50 336.50 C 435.50 342.50, 435.50 347.50, 435.50 352.50 C 435.33 357.78, 437.81 360.74, 442.50 359.50 C 447.77 359.27, 452.09 358.00, 450.50 352.50 C 450.50 347.83, 450.50 344.17, 450.50 340.50 C 450.50 335.83, 450.50 332.17, 450.50 328.50 C 450.50 323.83, 450.50 320.17, 450.50 316.50 C 450.37 311.31, 450.36 307.17, 451.50 303.50 C 452.52 299.81, 455.81 296.52, 458.50 295.50 C 462.52 292.22, 465.36 289.49, 468.50 287.50 C 474.23 283.32, 478.93 280.07, 483.50 276.50 C 489.71 272.67, 494.50 268.82, 499.50 265.50 C 502.78 267.31, 505.41 268.25, 507.50 270.50 C 513.67 274.55, 519.27 277.57, 524.50 281.50 C 529.05 284.46, 532.87 286.75, 536.50 289.50 C 541.56 292.35, 545.58 295.32, 549.50 298.50 C 554.14 302.60, 551.87 309.15, 552.50 314.50 C 552.50 318.83, 552.50 322.17, 552.50 325.50 C 552.50 329.83, 552.50 333.17, 552.50 336.50 C 552.50 340.83, 552.50 344.17, 552.50 347.50 C 552.50 351.83, 552.50 355.17, 552.50 358.50 C 558.17 359.50, 562.83 359.50, 567.50 359.50 C 571.77 361.28, 575.92 358.24, 579.50 358.50 C 580.72 354.79, 579.80 350.60, 581.50 347.50 C 584.32 343.31, 584.91 339.61, 584.50 335.50 C 585.68 331.60, 583.94 327.07, 584.50 323.50 C 587.03 319.27, 584.08 313.78, 586.50 310.50 C 586.50 305.83, 586.50 302.17, 586.50 298.50 C 585.76 293.05, 587.66 289.70, 587.50 285.50 C 587.50 280.17, 587.50 275.83, 587.50 271.50 C 585.30 269.01, 581.14 268.85, 578.50 268.50 C 573.17 266.15, 568.30 265.12, 564.50 261.50 C 559.91 257.22, 557.50 253.44, 555.50 249.50 C 554.21 244.68, 551.65 241.79, 552.50 237.50 C 550.89 232.44, 552.27 229.21, 552.50 225.50 C 553.64 220.75, 554.99 217.09, 556.50 213.50 C 561.56 207.68, 565.50 204.22, 570.50 200.50 C 576.05 198.89, 580.50 197.03, 585.50 196.50 C 589.83 196.03, 592.58 196.97, 595.50 197.50 C 600.03 198.21, 602.57 200.33, 605.50 201.50 C 610.59 204.05, 612.45 207.39, 615.50 210.50 C 618.94 215.65, 622.56 219.31, 622.50 224.50 C 624.06 229.79, 624.06 236.21, 622.50 240.50 C 620.96 247.30, 618.61 252.76, 614.50 257.50 C 611.07 261.06, 608.54 263.41, 605.50 264.50 C 601.26 266.25, 598.47 268.10, 595.50 269.50 C 595.35 273.91, 596.10 277.69, 594.50 280.50 C 595.47 284.19, 593.93 287.79, 594.50 291.50 C 594.50 295.83, 594.50 299.17, 594.50 302.50 C 592.90 306.31, 593.65 310.09, 593.50 313.50 C 590.96 318.39, 594.13 324.64, 591.50 328.50 C 591.28 333.54, 591.75 337.28, 593.50 340.50 C 596.61 344.84, 598.53 348.27, 598.50 352.50 C 599.08 355.26, 597.29 359.38, 599.50 359.50 C 603.10 359.01, 606.56 360.59, 608.50 358.50 C 613.54 360.89, 617.70 357.38, 622.50 358.50 C 627.11 358.16, 630.35 358.72, 633.50 359.50 C 638.24 358.83, 640.65 358.21, 639.50 353.50 C 639.50 349.50, 639.50 346.50, 639.50 343.50 C 639.50 339.17, 639.50 335.83, 639.50 332.50 C 639.50 328.17, 639.50 324.83, 639.50 321.50 C 639.50 317.17, 639.50 313.83, 639.50 310.50 C 639.50 306.17, 639.50 302.83, 639.50 299.50 C 639.50 295.17, 639.50 291.83, 639.50 288.50 C 639.50 284.17, 639.50 280.83, 639.50 277.50 C 639.50 273.17, 639.50 269.83, 639.50 266.50 C 639.50 262.17, 639.50 258.83, 639.50 255.50 C 639.50 251.17, 639.50 247.83, 639.50 244.50 C 639.50 240.17, 639.50 236.83, 639.50 233.50 C 639.50 229.17, 639.50 225.83, 639.50 222.50 C 639.50 218.17, 639.50 214.83, 639.50 211.50 C 639.50 207.17, 639.50 203.83, 639.50 200.50 C 639.50 196.17, 639.50 192.83, 639.50 189.50 C 639.50 185.17, 639.50 181.83, 639.50 178.50 C 639.50 174.50, 639.50 171.50, 639.50 168.50 C 639.50 164.17, 639.50 160.83, 639.50 157.50 C 639.50 153.17, 639.50 149.83, 639.50 146.50 C 639.50 142.17, 639.50 138.83, 639.50 135.50 C 639.50 131.17, 639.50 127.83, 639.50 124.50 C 639.50 120.17, 639.50 116.83, 639.50 113.50 C 639.50 109.17, 639.50 105.83, 639.50 102.50 C 639.50 98.17, 639.50 94.83, 639.50 91.50 C 639.50 87.17, 639.50 83.83, 639.50 80.50 C 639.50 76.17, 639.50 72.83, 639.50 69.50 C 639.50 65.17, 639.50 61.83, 639.50 58.50 C 639.50 54.17, 639.50 50.83, 639.50 47.50 C 639.50 43.17, 639.50 39.83, 639.50 36.50 C 639.50 32.17, 639.50 28.83, 639.50 25.50 C 639.50 21.17, 639.50 17.83, 639.50 14.50 C 639.50 10.17, 639.50 6.83, 639.50 3.50 C 634.17 2.50, 628.83 2.50, 623.50 2.50 C 619.83 2.50, 617.17 2.50, 614.50 2.50 C 610.83 2.50, 608.17 2.50, 605.50 2.50 C 599.17 2.50, 593.83 2.50, 588.50 2.50 C 584.83 2.50, 582.17 2.50, 579.50 2.50 C 575.83 2.50, 573.17 2.50, 570.50 2.50 C 564.17 2.50, 558.83 2.50, 553.50 2.50 C 549.83 2.50, 547.17 2.50, 544.50 2.50 C 540.83 2.50, 538.17 2.50, 535.50 2.50 C 531.83 2.50, 529.17 2.50, 526.50 2.50 C 522.83 2.50, 520.17 2.50, 517.50 2.50 C 513.83 2.50, 511.17 2.50, 508.50 2.50 C 504.83 2.50, 502.17 2.50, 499.50 2.50 C 493.17 2.50, 487.83 2.50, 482.50 2.50 C 478.83 2.50, 476.17 2.50, 473.50 2.50 C 469.83 2.50, 467.17 2.50, 464.50 2.50 C 460.83 2.50, 458.17 2.50, 455.50 2.50 C 451.83 2.50, 449.17 2.50, 446.50 2.50 C 442.83 2.50, 440.17 2.50, 437.50 2.50 C 433.83 2.50, 431.17 2.50, 428.50 2.50 C 422.17 2.50, 416.83 2.50, 411.50 2.50 C 407.83 2.50, 405.17 2.50, 402.50 2.50 C 398.83 2.50, 396.17 2.50, 393.50 2.50 C 389.83 2.50, 387.17 2.50, 384.50 2.50 C 380.83 2.50, 378.17 2.50, 375.50 2.50 C 371.83 2.50, 369.17 2.50, 366.50 2.50 C 362.83 2.50, 360.17 2.50, 357.50 2.50 C 351.17 2.50, 345.83 2.50, 340.50 2.50 C 336.17 2.50, 332.83 2.50, 329.50 2.50 C 326.03 1.93, 324.83 3.65, 322.50 2.50 C 318.18 3.39, 315.53 2.11, 311.50 2.50 C 308.34 3.90, 307.21 2.01, 304.50 2.50 C 301.19 1.52, 298.77 4.14, 297.50 2.50 C 293.17 2.50, 289.83 2.50, 286.50 2.50 C 282.45 1.90, 280.20 3.25, 277.50 3.50 C 273.17 2.03, 270.42 2.97, 267.50 3.50 C 263.77 4.91, 261.39 2.08, 258.50 3.50 C 252.83 3.50, 248.17 3.50, 243.50 3.50 C 237.83 3.50, 233.17 3.50, 228.50 3.50 C 222.83 3.50, 218.17 3.50, 213.50 3.50 C 207.50 3.50, 202.50 3.50, 197.50 3.50 C 191.83 3.50, 187.17 3.50, 182.50 3.50 C 176.50 3.50, 171.50 3.50, 166.50 3.50 C 160.83 3.50, 156.17 3.50, 151.50 3.50 C 144.62 3.56, 141.00 3.10, 135.50 3.50 C 129.50 3.50, 124.50 3.50, 119.50 3.50 C 113.50 3.50, 108.50 3.50, 103.50 3.50 C 97.50 3.50, 92.50 3.50, 87.50 3.50 C 81.50 3.50, 76.50 3.50, 71.50 3.50 C 67.17 3.50, 63.83 3.50, 60.50 3.50 C 55.83 3.50, 52.17 3.50, 48.50 3.50 C 44.17 3.50, 40.83 3.50, 37.50 3.50 C 32.83 3.50, 29.17 3.50, 25.50 3.50 C 21.83 3.50, 19.17 3.50, 16.50 3.50 C 12.26 3.75, 9.96 1.73, 6.50 2.50 Z" fill="rgb(107.95720316708486,170.98360096031388,145.98605593882604)" stroke="rgb(107.95720316708486,170.98360096031388,145.98605593882604)" stroke-width="1" />
<path d="M 6.50 293.50 C -2.79 325.83, -4.77 396.78, 7.50 425.50 C 21.83 425.50, 35.17 425.50, 48.50 425.50 C 53.17 425.50, 56.83 425.50, 60.50 425.50 C 66.83 425.50, 72.17 425.50, 77.50 425.50 C 92.50 425.50, 106.50 425.50, 120.50 425.50 C 125.17 425.50, 128.83 425.50, 132.50 425.50 C 138.64 427.31, 144.50 423.79, 149.50 425.50 C 154.61 423.08, 159.36 427.55, 163.50 424.50 C 167.31 426.10, 171.09 425.35, 174.50 425.50 C 178.61 425.98, 183.39 425.98, 186.50 424.50 C 208.67 425.72, 229.66 424.17, 253.50 424.50 C 277.01 424.67, 297.60 424.47, 320.50 424.50 C 329.20 423.62, 336.45 425.36, 344.50 425.50 C 349.46 424.94, 353.15 426.01, 357.50 425.50 C 363.17 425.50, 367.83 425.50, 372.50 425.50 C 378.50 425.50, 383.50 425.50, 388.50 425.50 C 394.71 423.18, 400.43 426.72, 406.50 425.50 C 411.10 424.26, 414.90 424.26, 418.50 425.50 C 423.50 425.50, 427.50 425.50, 431.50 425.50 C 435.35 425.95, 439.65 425.95, 442.50 424.50 C 446.08 426.66, 450.25 424.96, 453.50 425.50 C 458.17 425.50, 461.83 425.50, 465.50 425.50 C 471.83 425.50, 477.17 425.50, 482.50 425.50 C 486.17 425.50, 488.83 425.50, 491.50 425.50 C 495.17 425.50, 497.83 425.50, 500.50 425.50 C 506.83 425.50, 512.17 425.50, 517.50 425.50 C 521.17 425.50, 523.83 425.50, 526.50 425.50 C 530.17 425.50, 532.83 425.50, 535.50 425.50 C 541.83 425.50, 547.17 425.50, 552.50 425.50 C 556.17 425.50, 558.83 425.50, 561.50 425.50 C 565.17 425.50, 567.83 425.50, 570.50 425.50 C 575.50 425.50, 579.50 425.50, 583.50 425.50 C 588.50 425.50, 592.50 425.50, 596.50 425.50 C 601.83 425.50, 606.17 425.50, 610.50 425.50 C 615.50 425.50, 619.50 425.50, 623.50 425.50 C 628.83 425.50, 633.17 425.50, 637.50 425.50 C 635.11 404.22, 655.34 350.66, 616.50 361.50 C 519.98 362.30, 424.05 363.41, 325.50 361.50 C 311.46 360.94, 299.62 363.26, 286.50 362.50 C 200.36 361.55, 126.53 362.17, 41.50 362.50 C 33.83 358.99, 15.88 366.53, 20.50 353.50 C 19.84 336.17, 21.61 321.15, 20.50 306.50 C 21.43 298.41, 14.00 292.97, 7.50 293.50 Z" fill="rgb(173.87886597938143,209.2757731958763,179.409793814433)" stroke="rgb(173.87886597938143,209.2757731958763,179.409793814433)" stroke-width="1" />
<path d="M 580.50 360.50 C 577.27 362.70, 572.40 360.93, 568.50 361.50 C 563.17 361.50, 558.83 361.50, 554.50 361.50 C 549.17 361.50, 544.83 361.50, 540.50 361.50 C 535.17 361.50, 530.83 361.50, 526.50 361.50 C 520.83 361.50, 516.17 361.50, 511.50 361.50 C 507.50 361.50, 504.50 361.50, 501.50 361.50 C 497.17 361.50, 493.83 361.50, 490.50 361.50 C 486.17 361.50, 482.83 361.50, 479.50 361.50 C 475.17 361.50, 471.83 361.50, 468.50 361.50 C 462.50 361.50, 457.50 361.50, 452.50 361.50 C 446.17 361.50, 440.83 361.50, 435.50 361.50 C 429.17 362.50, 423.83 362.50, 418.50 362.50 C 412.17 362.50, 406.83 362.50, 401.50 362.50 C 397.50 362.50, 394.50 362.50, 391.50 362.50 C 387.50 362.50, 384.50 362.50, 381.50 362.50 C 377.50 362.50, 374.50 362.50, 371.50 362.50 C 367.17 362.50, 363.83 362.50, 360.50 362.50 C 355.62 360.27, 350.06 362.09, 345.50 361.50 C 341.17 361.50, 337.83 361.50, 334.50 361.50 C 330.17 361.50, 326.83 361.50, 323.50 361.50 C 318.17 361.50, 313.83 361.50, 309.50 361.50 C 304.79 363.35, 299.84 362.18, 295.50 362.50 C 290.17 362.50, 285.83 362.50, 281.50 362.50 C 276.17 362.50, 271.83 362.50, 267.50 362.50 C 262.83 362.50, 259.17 362.50, 255.50 362.50 C 251.17 362.50, 247.83 362.50, 244.50 362.50 C 240.17 362.50, 236.83 362.50, 233.50 362.50 C 229.17 362.97, 226.42 362.03, 223.50 361.50 C 219.35 361.72, 216.11 361.16, 212.50 361.50 C 207.83 361.50, 204.17 361.50, 200.50 361.50 C 195.83 361.50, 192.17 361.50, 188.50 361.50 C 183.83 361.50, 180.17 361.50, 176.50 361.50 C 173.42 369.27, 168.53 362.25, 165.50 361.50 C 161.50 361.50, 158.50 361.50, 155.50 361.50 C 151.50 361.50, 148.50 361.50, 145.50 361.50 C 141.50 361.50, 138.50 361.50, 135.50 361.50 C 131.50 362.50, 128.50 362.50, 125.50 362.50 C 121.69 360.90, 117.91 361.65, 114.50 361.50 C 109.31 362.82, 106.66 362.01, 102.50 362.50 C 97.16 362.18, 92.21 363.35, 88.50 361.50 C 85.45 363.09, 84.19 361.79, 82.50 361.50 C 78.50 362.50, 75.50 362.50, 72.50 362.50 C 66.17 362.50, 60.83 362.50, 55.50 362.50 C 51.50 362.50, 48.50 362.50, 45.50 362.50 C 41.07 363.19, 38.93 360.81, 35.50 361.50 C 30.50 361.50, 26.50 361.50, 22.50 361.50 C 17.13 361.93, 13.95 364.26, 9.50 363.50 C 6.38 364.64, 3.04 360.78, 0.50 363.50 C 0.50 369.17, 0.50 373.83, 0.50 378.50 C 0.50 384.17, 0.50 388.83, 0.50 393.50 C 0.50 399.17, 0.50 403.83, 0.50 408.50 C 0.50 414.50, 0.50 419.50, 0.50 424.50 C 3.27 426.23, 5.00 424.42, 7.50 424.50 C 12.46 424.94, 16.15 426.01, 20.50 425.50 C 25.83 425.50, 30.17 425.50, 34.50 425.50 C 38.17 425.50, 40.83 425.50, 43.50 425.50 C 47.17 425.50, 49.83 425.50, 52.50 425.50 C 56.17 425.50, 58.83 425.50, 61.50 425.50 C 65.17 425.50, 67.83 425.50, 70.50 425.50 C 75.17 425.50, 78.83 425.50, 82.50 425.50 C 87.50 425.50, 91.50 425.50, 95.50 425.50 C 100.34 427.12, 105.43 424.59, 109.50 424.50 C 113.69 426.15, 117.39 423.60, 121.50 424.50 C 126.50 424.50, 130.50 424.50, 134.50 424.50 C 141.00 424.90, 144.62 424.44, 150.50 424.50 C 156.50 424.50, 161.50 424.50, 166.50 424.50 C 172.50 424.50, 177.50 424.50, 182.50 424.50 C 188.50 424.50, 193.50 424.50, 198.50 424.50 C 203.50 424.50, 207.50 424.50, 211.50 424.50 C 216.83 424.50, 221.17 424.50, 225.50 424.50 C 230.83 424.50, 235.17 424.50, 239.50 424.50 C 244.83 424.50, 249.17 424.50, 253.50 424.50 C 258.50 424.50, 262.50 424.50, 266.50 424.50 C 271.83 424.50, 276.17 424.50, 280.50 424.50 C 285.83 424.50, 290.17 424.50, 294.50 424.50 C 299.83 424.50, 304.17 424.50, 308.50 424.50 C 313.50 424.50, 317.50 424.50, 321.50 424.50 C 326.83 424.50, 331.17 424.50, 335.50 424.50 C 340.83 424.50, 345.17 424.50, 349.50 424.50 C 354.83 424.50, 359.17 424.50, 363.50 424.50 C 368.83 424.50, 373.17 424.50, 377.50 424.50 C 382.83 424.50, 387.17 424.50, 391.50 424.50 C 396.83 424.50, 401.17 424.50, 405.50 424.50 C 410.83 424.50, 415.17 424.50, 419.50 424.50 C 424.50 424.50, 428.50 424.50, 432.50 424.50 C 437.83 424.50, 442.17 424.50, 446.50 424.50 C 451.83 424.50, 456.17 424.50, 460.50 424.50 C 465.83 424.50, 470.17 424.50, 474.50 424.50 C 479.50 424.50, 483.50 424.50, 487.50 424.50 C 492.83 424.50, 497.17 424.50, 501.50 424.50 C 506.83 424.50, 511.17 424.50, 515.50 424.50 C 520.83 424.50, 525.17 424.50, 529.50 424.50 C 534.50 424.50, 538.50 424.50, 542.50 424.50 C 547.83 424.50, 552.17 424.50, 556.50 424.50 C 561.83 424.50, 566.17 424.50, 570.50 424.50 C 575.83 424.50, 580.17 424.50, 584.50 424.50 C 588.83 424.50, 592.17 424.50, 595.50 424.50 C 600.17 424.50, 603.83 424.50, 607.50 424.50 C 611.83 424.50, 615.17 424.50, 618.50 424.50 C 623.17 424.50, 626.83 424.50, 630.50 424.50 C 633.77 424.39, 638.44 427.24, 639.50 424.50 C 639.50 418.83, 639.50 414.17, 639.50 409.50 C 639.50 403.50, 639.50 398.50, 639.50 393.50 C 639.50 387.50, 639.50 382.50, 639.50 377.50 C 639.50 371.50, 639.50 366.50, 639.50 361.50 C 633.17 361.50, 627.83 361.50, 622.50 361.50 C 618.83 361.50, 616.17 361.50, 613.50 361.50 C 609.83 361.50, 607.17 361.50, 604.50 361.50 C 599.65 360.73, 597.35 360.73, 593.50 361.50 C 588.93 360.94, 584.40 362.68, 581.50 360.50 Z" fill="rgb(175.06248773788502,210.0512556405729,180.03808612909555)" stroke="rgb(175.06248773788502,210.0512556405729,180.03808612909555)" stroke-width="1" />
<path d="M 499.50 267.50 C 494.04 270.87, 488.91 275.01, 483.50 278.50 C 477.19 283.56, 471.51 286.73, 466.50 291.50 C 461.97 295.45, 456.16 297.81, 453.50 301.50 C 452.50 306.83, 452.50 311.17, 452.50 315.50 C 452.50 321.17, 452.50 325.83, 452.50 330.50 C 452.50 335.50, 452.50 339.50, 452.50 343.50 C 452.50 348.50, 452.50 352.50, 452.50 356.50 C 453.39 361.41, 459.37 358.69, 462.50 359.50 C 475.83 359.50, 488.17 359.50, 500.50 359.50 C 516.50 359.50, 531.50 359.50, 546.50 359.50 C 553.10 359.48, 549.47 351.28, 550.50 347.50 C 550.50 341.83, 550.50 337.17, 550.50 332.50 C 550.50 326.83, 550.50 322.17, 550.50 317.50 C 550.50 311.50, 550.50 306.50, 550.50 301.50 C 545.23 296.21, 540.12 293.94, 535.50 290.50 C 529.61 287.05, 525.21 283.40, 520.50 280.50 C 516.03 278.96, 513.80 275.44, 510.50 274.50 C 506.36 271.84, 503.71 268.99, 500.50 267.50 Z" fill="rgb(245.2559100677798,228.1590345511655,191.92395437262357)" stroke="rgb(245.2559100677798,228.1590345511655,191.92395437262357)" stroke-width="1" />
<path d="M 258.50 279.50 C 255.93 281.73, 253.22 283.62, 250.50 285.50 C 246.58 287.88, 244.01 290.13, 241.50 292.50 C 238.17 295.64, 234.93 296.60, 232.50 299.50 C 228.12 301.59, 225.63 304.81, 222.50 306.50 C 221.50 311.83, 221.50 316.17, 221.50 320.50 C 221.50 325.83, 221.50 330.17, 221.50 334.50 C 221.50 338.83, 221.50 342.17, 221.50 345.50 C 221.50 349.83, 221.50 353.17, 221.50 356.50 C 222.10 361.30, 227.67 358.77, 230.50 359.50 C 234.50 359.50, 237.50 359.50, 240.50 359.50 C 243.66 360.90, 244.79 359.01, 247.50 359.50 C 253.83 359.50, 259.17 359.50, 264.50 359.50 C 268.17 359.50, 270.83 359.50, 273.50 359.50 C 277.17 359.50, 279.83 359.50, 282.50 359.50 C 286.17 359.50, 288.83 359.50, 291.50 359.50 C 295.50 359.50, 298.50 359.50, 301.50 359.50 C 307.87 361.20, 306.39 356.06, 306.50 352.50 C 306.50 347.83, 306.50 344.17, 306.50 340.50 C 306.50 336.83, 306.50 334.17, 306.50 331.50 C 306.50 327.50, 306.50 324.50, 306.50 321.50 C 305.98 317.58, 307.63 313.76, 305.50 311.50 C 306.65 306.19, 301.78 305.70, 299.50 303.50 C 295.32 301.27, 292.68 298.73, 289.50 297.50 C 285.51 294.47, 282.49 292.53, 279.50 290.50 C 275.03 288.96, 272.80 285.44, 269.50 284.50 C 265.35 282.52, 263.14 279.29, 259.50 279.50 Z" fill="rgb(217.34682208049264,134.6094127996481,109.58698042665493)" stroke="rgb(217.34682208049264,134.6094127996481,109.58698042665493)" stroke-width="1" />
<path d="M 393.50 280.50 C 391.11 283.17, 387.89 283.83, 385.50 286.50 C 382.17 289.32, 379.16 290.48, 376.50 292.50 C 373.11 296.17, 369.89 296.83, 367.50 299.50 C 363.58 301.57, 361.22 303.97, 358.50 305.50 C 358.27 310.21, 356.89 313.44, 357.50 317.50 C 357.50 322.17, 357.50 325.83, 357.50 329.50 C 357.50 335.17, 357.50 339.83, 357.50 344.50 C 357.52 350.30, 357.11 355.27, 358.50 359.50 C 364.17 359.50, 368.83 359.50, 373.50 359.50 C 379.50 359.50, 384.50 359.50, 389.50 359.50 C 402.58 359.60, 413.04 360.97, 424.50 360.50 C 439.07 362.72, 431.62 343.32, 433.50 333.50 C 433.50 324.17, 433.50 315.83, 433.50 307.50 C 431.18 304.10, 426.63 303.30, 424.50 300.50 C 420.67 298.09, 417.70 296.01, 414.50 294.50 C 410.51 291.47, 407.49 289.53, 404.50 287.50 C 400.30 284.99, 397.33 282.91, 394.50 280.50 Z" fill="rgb(48.582427817448,6.339956535237504,44.90903446134741)" stroke="rgb(48.582427817448,6.339956535237504,44.90903446134741)" stroke-width="1" />
<path d="M 66.50 282.50 C 63.57 285.01, 60.76 287.80, 57.50 289.50 C 53.72 293.37, 50.55 295.29, 47.50 297.50 C 43.97 301.30, 38.41 302.97, 38.50 307.50 C 38.50 312.17, 38.50 315.83, 38.50 319.50 C 38.50 324.50, 38.50 328.50, 38.50 332.50 C 38.50 337.50, 38.50 341.50, 38.50 345.50 C 38.50 350.50, 38.50 354.50, 38.50 358.50 C 44.50 359.50, 49.50 359.50, 54.50 359.50 C 60.83 359.50, 66.17 359.50, 71.50 359.50 C 85.82 358.89, 97.03 359.32, 110.50 359.50 C 109.82 350.68, 112.91 345.69, 110.50 338.50 C 110.50 333.50, 110.50 329.50, 110.50 325.50 C 110.50 320.50, 110.50 316.50, 110.50 312.50 C 106.51 309.47, 103.49 307.53, 100.50 305.50 C 96.21 302.05, 92.60 300.39, 89.50 297.50 C 85.40 294.61, 81.79 292.95, 78.50 290.50 C 74.07 287.74, 70.99 285.12, 67.50 283.50 Z" fill="rgb(46.31009830205541,6.286267500744713,45.16026213881442)" stroke="rgb(46.31009830205541,6.286267500744713,45.16026213881442)" stroke-width="1" />
<path d="M 120.50 198.50 C 92.42 199.19, 77.50 237.82, 99.50 256.50 C 106.76 262.76, 113.84 266.05, 122.50 265.50 C 123.50 287.17, 123.50 307.83, 123.50 328.50 C 123.91 340.24, 119.31 369.46, 134.50 356.50 C 118.72 337.64, 127.93 307.77, 125.50 283.50 C 118.63 260.01, 140.49 266.74, 150.50 253.50 C 167.55 231.51, 149.17 196.28, 121.50 198.50 Z" fill="rgb(121.02816901408451,168.01408450704224,147.54929577464787)" stroke="rgb(121.02816901408451,168.01408450704224,147.54929577464787)" stroke-width="1" />
<path d="M 153.50 253.50 C 150.13 255.26, 147.45 258.71, 144.50 261.50 C 140.25 265.83, 134.01 265.82, 130.50 266.50 C 127.38 271.32, 130.86 274.78, 128.50 278.50 C 128.50 284.83, 128.50 290.17, 128.50 295.50 C 128.50 300.83, 128.50 305.17, 128.50 309.50 C 128.50 314.83, 128.50 319.17, 128.50 323.50 C 127.58 327.22, 129.41 329.18, 128.50 332.50 C 129.50 336.50, 129.50 339.50, 129.50 342.50 C 132.54 347.88, 137.87 351.30, 136.50 357.50 C 141.02 359.99, 146.40 359.42, 151.50 359.50 C 157.50 359.50, 162.50 359.50, 167.50 359.50 C 167.90 352.78, 170.25 348.28, 169.50 342.50 C 170.79 339.23, 170.54 336.32, 170.50 333.50 C 170.50 329.83, 170.50 327.17, 170.50 324.50 C 172.40 319.48, 171.14 314.16, 171.50 309.50 C 173.54 306.87, 172.04 303.78, 172.50 301.50 C 173.11 295.68, 174.10 290.14, 173.50 286.50 C 169.41 285.53, 166.62 284.82, 164.50 282.50 C 160.54 279.09, 158.80 276.18, 156.50 273.50 C 155.46 268.91, 152.72 266.43, 153.50 262.50 C 151.77 258.73, 153.58 257.00, 153.50 254.50 Z" fill="rgb(107.8983666061706,170.88903292714545,145.93440497796215)" stroke="rgb(107.8983666061706,170.88903292714545,145.93440497796215)" stroke-width="1" />
<path d="M 581.50 198.50 C 577.19 200.56, 572.01 200.52, 568.50 204.50 C 565.41 206.96, 561.15 207.93, 560.50 211.50 C 556.94 215.13, 556.60 218.68, 554.50 221.50 C 552.65 226.21, 553.82 231.16, 553.50 235.50 C 553.36 239.83, 554.11 242.80, 555.50 245.50 C 556.37 249.83, 558.61 252.59, 560.50 255.50 C 564.29 259.35, 567.04 262.29, 570.50 263.50 C 574.47 265.23, 576.99 267.07, 580.50 266.50 C 585.06 267.39, 590.20 268.87, 588.50 263.50 C 588.50 258.50, 588.50 254.50, 588.50 250.50 C 584.13 250.62, 580.55 247.62, 579.50 244.50 C 576.36 237.02, 582.76 228.54, 589.50 227.50 C 595.58 226.82, 599.10 231.86, 601.50 235.50 C 603.86 241.12, 600.34 246.16, 596.50 249.50 C 593.34 252.55, 593.33 255.49, 593.50 258.50 C 594.15 262.03, 591.83 267.17, 595.50 267.50 C 599.45 266.18, 602.14 265.25, 604.50 263.50 C 608.60 261.06, 611.72 258.69, 614.50 255.50 C 617.58 251.00, 619.11 247.28, 620.50 243.50 C 622.20 239.40, 621.28 235.21, 621.50 231.50 C 621.93 226.38, 620.47 223.04, 619.50 219.50 C 617.03 214.14, 613.56 210.20, 609.50 206.50 C 604.81 202.75, 600.87 200.60, 596.50 199.50 C 591.79 197.65, 586.84 198.82, 582.50 198.50 Z" fill="rgb(185.79117647058823,211.05617647058824,186.0158823529412)" stroke="rgb(185.79117647058823,211.05617647058824,186.0158823529412)" stroke-width="1" />
<path d="M 119.50 198.50 C 116.59 200.53, 112.13 198.80, 109.50 201.50 C 103.84 204.05, 99.34 206.97, 95.50 211.50 C 93.11 216.95, 89.80 220.60, 89.50 225.50 C 89.58 229.00, 87.77 230.73, 88.50 233.50 C 89.86 236.88, 89.14 240.12, 90.50 242.50 C 91.72 246.21, 93.02 248.89, 94.50 251.50 C 98.62 255.65, 101.87 260.18, 106.50 261.50 C 111.79 263.59, 115.49 266.14, 120.50 265.50 C 123.68 262.60, 121.94 258.07, 122.50 254.50 C 115.77 253.40, 112.75 247.08, 111.50 242.50 C 111.47 236.22, 114.46 230.70, 119.50 228.50 C 125.36 227.22, 130.07 227.32, 133.50 230.50 C 138.64 234.65, 138.05 241.28, 136.50 245.50 C 135.42 251.48, 129.78 252.30, 127.50 255.50 C 127.87 260.13, 125.67 266.33, 131.50 264.50 C 137.07 264.22, 140.60 261.42, 144.50 259.50 C 148.46 256.09, 150.20 253.18, 152.50 250.50 C 154.58 246.81, 155.49 243.63, 156.50 240.50 C 155.81 236.37, 159.41 233.21, 156.50 230.50 C 156.76 226.12, 156.27 223.04, 154.50 220.50 C 152.98 216.77, 151.85 213.89, 149.50 211.50 C 147.40 207.13, 143.01 205.81, 140.50 203.50 C 136.44 201.65, 133.90 199.53, 130.50 199.50 C 127.24 197.37, 123.42 199.02, 120.50 198.50 Z" fill="rgb(185.59046104928458,210.94022257551669,185.9255961844197)" stroke="rgb(185.59046104928458,210.94022257551669,185.9255961844197)" stroke-width="1" />
<path d="M 176.50 233.50 C 149.01 237.18, 149.37 283.10, 176.50 284.50 C 174.17 305.97, 169.15 394.03, 174.50 336.50 C 176.65 318.70, 176.26 300.85, 179.50 284.50 C 216.28 287.50, 212.93 227.79, 177.50 233.50 Z" fill="rgb(151.15384615384616,178.7051282051282,153.93589743589743)" stroke="rgb(151.15384615384616,178.7051282051282,153.93589743589743)" stroke-width="1" />
<path d="M 176.50 233.50 C 155.30 237.05, 147.01 268.83, 166.50 281.50 C 185.14 293.06, 168.82 256.31, 183.50 260.50 C 192.66 260.24, 184.37 269.30, 182.50 264.50 C 177.99 273.25, 178.84 291.87, 191.50 282.50 C 212.03 274.23, 210.92 240.56, 189.50 235.50 C 184.79 234.27, 181.56 232.89, 177.50 233.50 Z" fill="rgb(153.44,185.93333333333334,158.16)" stroke="rgb(153.44,185.93333333333334,158.16)" stroke-width="1" />
<path d="M 403.50 308.50 C 401.80 311.60, 402.72 315.79, 402.50 319.50 C 402.50 324.83, 402.50 329.17, 402.50 333.50 C 404.11 339.56, 402.72 343.79, 402.50 348.50 C 403.28 353.33, 399.99 361.74, 406.50 360.50 C 411.50 360.50, 415.50 360.50, 419.50 360.50 C 424.73 359.92, 429.95 361.72, 433.50 359.50 C 434.13 356.07, 433.07 351.18, 433.50 347.50 C 433.50 342.50, 433.50 338.50, 433.50 334.50 C 433.50 329.50, 433.50 325.50, 433.50 321.50 C 433.50 316.50, 433.50 312.50, 433.50 308.50 C 428.17 308.50, 423.83 308.50, 419.50 308.50 C 413.83 308.50, 409.17 308.50, 404.50 308.50 Z" fill="rgb(211.9565992865636,145.3793103448276,121.86504161712247)" stroke="rgb(211.9565992865636,145.3793103448276,121.86504161712247)" stroke-width="1" />
<path d="M 334.50 250.50 C 263.80 304.47, 413.30 294.65, 334.50 250.50 Z" fill="rgb(nan,nan,nan)" stroke="rgb(nan,nan,nan)" stroke-width="1" />
<path d="M 334.50 250.50 C 331.05 252.37, 326.50 251.55, 323.50 254.50 C 318.64 257.40, 315.39 261.98, 315.50 266.50 C 314.50 270.17, 314.50 272.83, 314.50 275.50 C 315.39 279.55, 316.12 282.66, 317.50 285.50 C 321.41 289.05, 323.76 292.95, 327.50 293.50 C 331.42 295.03, 334.17 295.97, 337.50 295.50 C 342.73 295.53, 346.16 293.61, 349.50 291.50 C 354.69 288.74, 356.21 283.43, 357.50 279.50 C 357.05 276.10, 360.28 273.55, 357.50 271.50 C 357.24 264.97, 354.87 260.32, 350.50 256.50 C 345.63 251.90, 340.45 251.48, 335.50 250.50 Z" fill="rgb(185.56633906633905,210.78071253071252,185.76658476658477)" stroke="rgb(185.56633906633905,210.78071253071252,185.76658476658477)" stroke-width="1" />
<path d="M 5.50 293.50 C 1.98 294.78, -0.71 295.79, 0.50 300.50 C 0.50 306.17, 0.50 310.83, 0.50 315.50 C 0.50 321.17, 0.50 325.83, 0.50 330.50 C 0.50 336.17, 0.50 340.83, 0.50 345.50 C 0.50 351.50, 0.50 356.50, 0.50 361.50 C 4.83 361.50, 8.17 361.50, 11.50 361.50 C 15.85 361.50, 21.77 362.37, 20.50 357.50 C 20.50 352.50, 20.50 348.50, 20.50 344.50 C 20.50 339.50, 20.50 335.50, 20.50 331.50 C 20.50 326.50, 20.50 322.50, 20.50 318.50 C 20.50 313.50, 20.50 309.50, 20.50 305.50 C 20.76 300.84, 18.83 298.09, 16.50 295.50 C 13.25 293.03, 9.79 293.47, 6.50 293.50 Z" fill="rgb(175.17090395480227,210.09887005649716,180.10875706214688)" stroke="rgb(175.17090395480227,210.09887005649716,180.10875706214688)" stroke-width="1" />
<path d="M 176.50 233.50 C 173.61 235.11, 170.02 235.01, 167.50 237.50 C 163.65 240.29, 160.71 243.04, 159.50 246.50 C 157.68 250.91, 155.82 253.88, 155.50 257.50 C 161.25 257.82, 165.04 259.46, 169.50 259.50 C 175.14 259.08, 178.71 261.28, 183.50 260.50 C 187.85 261.13, 191.51 261.01, 194.50 262.50 C 198.89 262.00, 203.34 263.24, 205.50 262.50 C 205.98 259.58, 207.63 255.76, 205.50 253.50 C 204.62 246.41, 199.97 240.76, 194.50 237.50 C 188.45 234.81, 183.49 232.92, 177.50 233.50 Z" fill="rgb(186.38693035253655,209.70077386070508,184.69991401547722)" stroke="rgb(186.38693035253655,209.70077386070508,184.69991401547722)" stroke-width="1" />
<path d="M 587.50 228.50 C 577.55 231.66, 576.62 249.60, 588.50 249.50 C 589.50 259.83, 589.50 269.17, 589.50 278.50 C 589.79 296.70, 588.66 313.32, 586.50 329.50 C 589.82 341.67, 573.34 363.54, 593.50 358.50 C 601.80 348.49, 586.16 341.59, 589.50 330.50 C 592.08 304.49, 592.49 278.58, 592.50 252.50 C 605.21 246.40, 602.73 226.39, 588.50 228.50 Z" fill="rgb(180.73529411764707,208.7058823529412,178.8235294117647)" stroke="rgb(180.73529411764707,208.7058823529412,178.8235294117647)" stroke-width="1" />
<path d="M 120.50 228.50 C 109.92 232.51, 109.87 250.83, 121.50 252.50 C 124.72 257.05, 122.92 262.27, 123.50 266.50 C 124.50 270.83, 124.50 274.17, 124.50 277.50 C 124.27 282.21, 122.89 285.44, 123.50 289.50 C 123.50 293.50, 123.50 296.50, 123.50 299.50 C 123.50 303.83, 123.50 307.17, 123.50 310.50 C 123.50 314.83, 123.50 318.17, 123.50 321.50 C 123.50 325.83, 123.50 329.17, 123.50 332.50 C 122.73 339.63, 124.99 344.49, 124.50 350.50 C 119.24 367.66, 145.73 356.69, 129.50 347.50 C 123.82 343.02, 125.98 336.71, 125.50 331.50 C 125.50 327.50, 125.50 324.50, 125.50 321.50 C 125.50 317.50, 125.50 314.50, 125.50 311.50 C 125.50 307.50, 125.50 304.50, 125.50 301.50 C 125.50 297.17, 125.50 293.83, 125.50 290.50 C 125.50 284.17, 125.50 278.83, 125.50 273.50 C 125.50 269.83, 125.50 267.17, 125.50 264.50 C 125.50 260.83, 125.50 258.17, 125.50 255.50 C 141.24 252.64, 140.02 224.18, 121.50 228.50 Z" fill="rgb(55.92546583850932,43.11801242236025,63.93167701863354)" stroke="rgb(55.92546583850932,43.11801242236025,63.93167701863354)" stroke-width="1" />
<path d="M 476.50 305.50 C 474.18 318.68, 476.16 333.63, 475.50 347.50 C 482.37 346.04, 493.52 350.74, 495.50 344.50 C 494.76 339.05, 496.66 335.70, 496.50 331.50 C 496.55 326.01, 496.78 321.44, 495.50 317.50 C 497.66 312.36, 497.57 303.02, 490.50 305.50 C 485.61 306.93, 482.13 304.85, 477.50 305.50 Z" fill="rgb(222.32857142857142,203.08095238095237,169.5)" stroke="rgb(222.32857142857142,203.08095238095237,169.5)" stroke-width="1" />
<path d="M 235.50 310.50 C 235.50 313.17, 235.50 315.83, 235.50 318.50 C 235.50 322.50, 235.50 325.50, 235.50 328.50 C 235.50 332.17, 235.50 334.83, 235.50 337.50 C 235.50 341.50, 235.50 344.50, 235.50 347.50 C 239.75 347.96, 243.92 349.66, 246.50 347.50 C 249.47 348.08, 252.18 349.48, 253.50 347.50 C 254.50 341.50, 254.50 336.50, 254.50 331.50 C 254.50 325.17, 254.50 319.83, 254.50 314.50 C 255.95 308.71, 250.32 311.01, 247.50 310.50 C 243.17 310.50, 239.83 310.50, 236.50 310.50 Z" fill="rgb(150.81653746770027,189.69250645994833,164.57751937984497)" stroke="rgb(150.81653746770027,189.69250645994833,164.57751937984497)" stroke-width="1" />
<path d="M 52.50 308.50 C 52.50 313.83, 52.50 319.17, 52.50 324.50 C 52.50 328.17, 52.50 330.83, 52.50 333.50 C 52.50 337.17, 52.50 339.83, 52.50 342.50 C 55.17 343.50, 57.83 343.50, 60.50 343.50 C 64.50 343.50, 67.50 343.50, 70.50 343.50 C 71.50 338.17, 71.50 332.83, 71.50 327.50 C 71.50 323.83, 71.50 321.17, 71.50 318.50 C 71.50 314.83, 71.50 312.17, 71.50 309.50 C 68.83 308.50, 66.17 308.50, 63.50 308.50 C 59.50 308.50, 56.50 308.50, 53.50 308.50 Z" fill="rgb(116.3714859437751,107.61847389558233,119.91767068273093)" stroke="rgb(116.3714859437751,107.61847389558233,119.91767068273093)" stroke-width="1" />
<path d="M 591.50 232.50 C 589.28 236.05, 591.08 241.27, 590.50 245.50 C 590.50 249.17, 590.50 251.83, 590.50 254.50 C 590.50 258.17, 590.50 260.83, 590.50 263.50 C 590.25 267.20, 588.90 269.45, 589.50 272.50 C 589.50 276.50, 589.50 279.50, 589.50 282.50 C 589.50 286.83, 589.50 290.17, 589.50 293.50 C 590.24 298.95, 588.34 302.30, 588.50 306.50 C 589.24 311.95, 587.34 315.30, 587.50 319.50 C 588.27 324.29, 585.96 326.81, 586.50 330.50 C 586.50 335.17, 586.50 338.83, 586.50 342.50 C 585.34 346.91, 581.85 349.34, 582.50 353.50 C 581.49 362.52, 598.56 361.31, 596.50 353.50 C 596.31 344.61, 587.05 340.48, 589.50 331.50 C 588.73 327.04, 590.75 324.74, 590.50 321.50 C 589.80 316.74, 591.50 313.97, 591.50 310.50 C 591.50 305.50, 591.50 301.50, 591.50 297.50 C 592.78 292.56, 592.55 287.99, 592.50 283.50 C 592.50 278.17, 592.50 273.83, 592.50 269.50 C 592.50 264.17, 592.50 259.83, 592.50 255.50 C 592.47 246.57, 594.18 240.56, 592.50 232.50 Z" fill="rgb(58.553030303030305,54.36363636363637,77.62626262626263)" stroke="rgb(58.553030303030305,54.36363636363637,77.62626262626263)" stroke-width="1" />
<path d="M 88.50 318.50 C 85.78 329.02, 88.41 343.12, 87.50 355.50 C 95.82 370.83, 121.40 346.92, 100.50 346.50 C 92.20 340.26, 105.67 315.67, 89.50 318.50 Z" fill="rgb(138.76190476190476,150.71428571428572,136.42857142857142)" stroke="rgb(138.76190476190476,150.71428571428572,136.42857142857142)" stroke-width="1" />
<path d="M 452.50 354.50 C 452.94 356.39, 451.14 360.53, 454.50 359.50 C 460.83 359.50, 466.17 359.50, 471.50 359.50 C 477.50 359.50, 482.50 359.50, 487.50 359.50 C 493.83 359.50, 499.17 359.50, 504.50 359.50 C 510.50 359.50, 515.50 359.50, 520.50 359.50 C 526.83 359.50, 532.17 359.50, 537.50 359.50 C 541.17 359.50, 543.83 359.50, 546.50 359.50 C 551.43 360.77, 550.47 357.14, 550.50 354.50 C 545.83 354.50, 542.17 354.50, 538.50 354.50 C 533.83 354.50, 530.17 354.50, 526.50 354.50 C 521.83 354.50, 518.17 354.50, 514.50 354.50 C 509.83 354.50, 506.17 354.50, 502.50 354.50 C 497.83 354.50, 494.17 354.50, 490.50 354.50 C 485.83 354.50, 482.17 354.50, 478.50 354.50 C 473.83 354.50, 470.17 354.50, 466.50 354.50 C 461.50 354.50, 457.50 354.50, 453.50 354.50 Z" fill="rgb(52.602693602693606,9.6010101010101,46.388888888888886)" stroke="rgb(52.602693602693606,9.6010101010101,46.388888888888886)" stroke-width="1" />
<path d="M 288.50 147.50 C 270.90 154.16, 274.38 183.32, 293.50 184.50 C 316.14 180.75, 290.27 181.60, 287.50 169.50 C 280.06 152.31, 316.62 146.20, 289.50 147.50 Z" fill="rgb(107.1,170.6,145.8)" stroke="rgb(107.1,170.6,145.8)" stroke-width="1" />
<path d="M 289.50 147.50 C 281.02 150.14, 276.49 158.81, 276.50 167.50 C 277.89 177.56, 286.39 184.95, 295.50 184.50 C 315.84 178.86, 291.84 183.05, 288.50 171.50 C 275.86 154.07, 318.16 145.91, 290.50 147.50 Z" fill="rgb(129.5483870967742,179.8709677419355,152.70967741935485)" stroke="rgb(129.5483870967742,179.8709677419355,152.70967741935485)" stroke-width="1" />
<path d="M 289.50 147.50 C 286.84 149.52, 283.83 150.68, 281.50 153.50 C 279.30 157.42, 277.02 159.89, 277.50 163.50 C 275.90 168.02, 278.65 170.16, 278.50 173.50 C 281.52 179.01, 286.07 182.05, 290.50 184.50 C 296.70 186.27, 300.94 184.70, 304.50 181.50 C 300.66 181.05, 297.49 179.99, 294.50 178.50 C 290.40 174.62, 287.74 171.56, 287.50 167.50 C 286.50 162.98, 287.69 159.84, 289.50 156.50 C 292.38 152.40, 295.44 149.74, 299.50 149.50 C 299.61 145.59, 293.63 148.31, 290.50 147.50 Z" fill="rgb(231.88934426229508,222.9262295081967,184.86885245901638)" stroke="rgb(231.88934426229508,222.9262295081967,184.86885245901638)" stroke-width="1" />
<path d="M 120.50 228.50 C 115.85 230.78, 112.81 235.52, 112.50 240.50 C 113.08 246.25, 115.91 252.45, 121.50 252.50 C 123.09 247.94, 121.27 242.38, 123.50 238.50 C 128.43 240.81, 125.68 246.90, 126.50 251.50 C 129.19 252.69, 133.10 252.48, 133.50 249.50 C 135.63 245.69, 137.18 243.06, 136.50 239.50 C 136.95 235.12, 134.76 231.36, 131.50 230.50 C 127.97 228.04, 124.61 228.57, 121.50 228.50 Z" fill="rgb(210.8267223382046,134.27348643006263,108.98956158663883)" stroke="rgb(210.8267223382046,134.27348643006263,108.98956158663883)" stroke-width="1" />
<path d="M 283.50 309.50 C 281.37 311.76, 283.02 315.58, 282.50 318.50 C 282.50 322.83, 282.50 326.17, 282.50 329.50 C 282.33 334.01, 281.67 337.99, 286.50 336.50 C 290.83 336.50, 294.17 336.50, 297.50 336.50 C 298.50 332.50, 298.50 329.50, 298.50 326.50 C 298.50 322.50, 298.50 319.50, 298.50 316.50 C 300.40 310.43, 295.31 307.38, 291.50 310.50 C 288.78 309.88, 286.07 311.85, 284.50 309.50 Z" fill="rgb(167.52851711026616,159.0494296577947,155.85551330798478)" stroke="rgb(167.52851711026616,159.0494296577947,155.85551330798478)" stroke-width="1" />
<path d="M 189.50 263.50 C 187.40 267.13, 182.23 267.34, 180.50 269.50 C 180.50 273.83, 180.50 277.17, 180.50 280.50 C 178.69 286.24, 184.73 284.00, 187.50 284.50 C 192.86 283.19, 196.35 280.75, 199.50 277.50 C 203.50 273.39, 204.86 269.59, 205.50 265.50 C 200.17 264.96, 195.96 262.72, 190.50 263.50 Z" fill="rgb(186.4158878504673,210.66121495327104,183.35981308411215)" stroke="rgb(186.4158878504673,210.66121495327104,183.35981308411215)" stroke-width="1" />
<path d="M 155.50 259.50 C 155.02 265.25, 156.72 270.10, 159.50 274.50 C 162.46 278.14, 164.05 279.02, 166.50 281.50 C 169.86 283.25, 172.55 284.18, 175.50 284.50 C 177.20 280.40, 176.28 276.21, 176.50 272.50 C 178.98 267.10, 173.15 265.50, 171.50 261.50 C 166.14 261.04, 161.48 259.89, 156.50 259.50 Z" fill="rgb(188.7712895377129,211.25547445255475,186.01216545012164)" stroke="rgb(188.7712895377129,211.25547445255475,186.01216545012164)" stroke-width="1" />
<path d="M 587.50 228.50 C 583.15 230.22, 580.39 233.91, 579.50 238.50 C 579.12 244.25, 582.35 249.60, 587.50 249.50 C 590.63 248.24, 588.98 244.42, 589.50 241.50 C 589.93 237.40, 588.17 233.40, 591.50 231.50 C 594.74 236.71, 592.90 242.61, 593.50 247.50 C 592.60 252.28, 596.94 248.14, 598.50 247.50 C 600.94 243.18, 601.66 239.25, 600.50 235.50 C 597.96 230.12, 593.19 227.67, 588.50 228.50 Z" fill="rgb(206.6,135.9830985915493,110.45633802816901)" stroke="rgb(206.6,135.9830985915493,110.45633802816901)" stroke-width="1" />
<path d="M 72.50 155.50 C 83.30 159.96, 87.16 178.57, 74.50 184.50 C 83.39 187.29, 91.80 180.82, 92.50 171.50 C 93.73 160.07, 83.34 153.35, 73.50 155.50 Z" fill="rgb(147.86363636363637,190.72727272727272,164.6818181818182)" stroke="rgb(147.86363636363637,190.72727272727272,164.6818181818182)" stroke-width="1" />
<path d="M 74.50 155.50 C 74.06 158.73, 81.59 158.73, 80.50 163.50 C 83.10 167.31, 82.35 171.09, 82.50 174.50 C 82.06 180.02, 76.17 182.82, 74.50 185.50 C 79.73 185.86, 83.35 184.75, 86.50 182.50 C 91.30 178.85, 91.95 174.91, 91.50 170.50 C 91.57 165.73, 91.54 160.60, 87.50 159.50 C 83.72 155.35, 79.64 155.37, 75.50 155.50 Z" fill="rgb(185.70093457943926,209.91277258566979,182.82242990654206)" stroke="rgb(185.70093457943926,209.91277258566979,182.82242990654206)" stroke-width="1" />
<path d="M 88.50 318.50 C 86.28 322.05, 88.08 327.27, 87.50 331.50 C 87.50 336.83, 87.50 341.17, 87.50 345.50 C 91.90 345.96, 97.51 348.31, 97.50 343.50 C 97.50 339.17, 97.50 335.83, 97.50 332.50 C 97.50 328.17, 97.50 324.83, 97.50 321.50 C 97.17 316.83, 92.03 319.15, 89.50 318.50 Z" fill="rgb(127.62,139.53333333333333,120.9)" stroke="rgb(127.62,139.53333333333333,120.9)" stroke-width="1" />
<path d="M 178.50 262.50 C 179.11 267.56, 177.72 271.79, 177.50 276.50 C 178.26 282.62, 175.91 286.45, 176.50 291.50 C 176.50 295.97, 174.80 298.74, 175.50 302.50 C 175.50 306.97, 173.80 309.74, 174.50 313.50 C 174.75 317.74, 172.73 320.04, 173.50 323.50 C 173.50 327.97, 171.80 330.74, 172.50 334.50 C 173.28 340.29, 171.08 343.86, 171.50 348.50 C 171.83 353.79, 171.03 359.49, 171.50 362.50 C 175.14 361.07, 172.87 356.18, 173.50 352.50 C 172.72 347.37, 174.85 344.45, 174.50 340.50 C 173.76 335.05, 175.66 331.70, 175.50 327.50 C 174.72 321.71, 176.92 318.14, 176.50 313.50 C 175.74 308.05, 178.07 304.87, 177.50 300.50 C 176.76 295.05, 178.66 291.70, 178.50 287.50 C 177.89 282.44, 179.27 279.21, 179.50 275.50 C 179.50 270.50, 179.50 266.50, 179.50 262.50 Z" fill="rgb(48.93624161073826,43.74496644295302,81.66107382550335)" stroke="rgb(48.93624161073826,43.74496644295302,81.66107382550335)" stroke-width="1" />
<path d="M 105.50 345.50 C 103.56 347.59, 100.10 346.01, 97.50 346.50 C 94.17 347.50, 91.83 347.50, 89.50 347.50 C 86.26 347.93, 88.09 352.43, 87.50 354.50 C 85.80 360.87, 90.94 359.39, 94.50 359.50 C 99.17 359.50, 102.83 359.50, 106.50 359.50 C 107.50 357.17, 107.50 354.83, 107.50 352.50 C 106.92 349.74, 108.71 345.62, 106.50 345.50 Z" fill="rgb(158.47202797202797,123.32517482517483,107.75174825174825)" stroke="rgb(158.47202797202797,123.32517482517483,107.75174825174825)" stroke-width="1" />
<path d="M 376.50 310.50 C 376.50 313.83, 376.50 317.17, 376.50 320.50 C 376.50 325.17, 376.50 328.83, 376.50 332.50 C 377.78 335.24, 384.24 335.04, 386.50 333.50 C 386.01 329.90, 387.59 326.44, 385.50 324.50 C 385.93 319.74, 385.44 318.44, 386.50 314.50 C 387.15 308.48, 380.50 311.17, 377.50 310.50 Z" fill="rgb(115.66417910447761,105.69776119402985,96.86194029850746)" stroke="rgb(115.66417910447761,105.69776119402985,96.86194029850746)" stroke-width="1" />
<path d="M 588.50 340.50 C 587.13 342.48, 587.13 345.04, 584.50 346.50 C 581.98 350.22, 580.65 358.37, 585.50 359.50 C 589.10 359.01, 592.56 360.59, 594.50 358.50 C 596.32 355.35, 597.63 351.55, 595.50 349.50 C 594.56 345.25, 592.86 341.94, 589.50 340.50 Z" fill="rgb(39.48684210526316,17.30263157894737,58.28947368421053)" stroke="rgb(39.48684210526316,17.30263157894737,58.28947368421053)" stroke-width="1" />
<path d="M 553.50 35.50 C 553.53 40.40, 546.80 45.75, 543.50 39.50 C 541.18 35.92, 540.65 45.92, 542.50 47.50 C 545.27 52.22, 551.29 52.63, 554.50 49.50 C 556.93 44.74, 557.50 38.70, 554.50 35.50 Z" fill="rgb(182.64835164835165,208.75274725274724,186.62637362637363)" stroke="rgb(182.64835164835165,208.75274725274724,186.62637362637363)" stroke-width="1" />
<path d="M 125.50 345.50 C 123.58 348.12, 124.92 352.09, 122.50 354.50 C 121.28 360.03, 125.98 361.22, 129.50 360.50 C 134.03 360.14, 135.48 358.17, 135.50 354.50 C 133.58 350.31, 130.40 345.55, 126.50 345.50 Z" fill="rgb(42.160714285714285,32.07738095238095,57.726190476190474)" stroke="rgb(42.160714285714285,32.07738095238095,57.726190476190474)" stroke-width="1" />
<path d="M 88.50 327.50 C 85.64 331.12, 89.81 335.15, 88.50 339.50 C 86.95 345.85, 90.81 347.50, 95.50 346.50 C 95.50 341.83, 95.50 338.17, 95.50 334.50 C 96.71 328.89, 94.11 326.29, 89.50 327.50 Z" fill="rgb(105.03067484662577,78.04294478527608,81.15950920245399)" stroke="rgb(105.03067484662577,78.04294478527608,81.15950920245399)" stroke-width="1" />
<path d="M 63.50 320.50 C 63.50 323.17, 63.50 325.83, 63.50 328.50 C 63.50 332.50, 63.50 335.50, 63.50 338.50 C 62.23 343.43, 65.86 342.47, 68.50 342.50 C 69.50 339.83, 69.50 337.17, 69.50 334.50 C 69.50 330.50, 69.50 327.50, 69.50 324.50 C 70.77 319.57, 67.14 320.53, 64.50 320.50 Z" fill="rgb(37.03105590062112,19.31055900621118,41.099378881987576)" stroke="rgb(37.03105590062112,19.31055900621118,41.099378881987576)" stroke-width="1" />
<path d="M 475.50 333.50 C 475.50 337.83, 475.50 342.17, 475.50 346.50 C 478.42 346.98, 482.24 348.63, 484.50 346.50 C 484.50 342.50, 484.50 339.50, 484.50 336.50 C 484.17 331.83, 479.03 334.15, 476.50 333.50 Z" fill="rgb(112.21621621621621,102.27702702702703,100.97972972972973)" stroke="rgb(112.21621621621621,102.27702702702703,100.97972972972973)" stroke-width="1" />
<path d="M 487.50 333.50 C 487.50 336.83, 487.50 340.17, 487.50 343.50 C 485.86 349.15, 493.38 347.89, 495.50 346.50 C 495.50 342.50, 495.50 339.50, 495.50 336.50 C 496.30 331.70, 490.77 334.23, 488.50 333.50 Z" fill="rgb(119.17293233082707,103.49624060150376,102.44360902255639)" stroke="rgb(119.17293233082707,103.49624060150376,102.44360902255639)" stroke-width="1" />
<path d="M 476.50 319.50 C 474.34 322.08, 476.04 326.25, 475.50 329.50 C 478.21 329.88, 483.44 331.77, 484.50 329.50 C 484.50 326.17, 484.50 323.83, 484.50 321.50 C 482.87 318.46, 479.78 319.96, 477.50 319.50 Z" fill="rgb(113.83760683760684,98.51282051282051,101.77777777777777)" stroke="rgb(113.83760683760684,98.51282051282051,101.77777777777777)" stroke-width="1" />
<path d="M 475.50 306.50 C 475.50 309.17, 475.50 311.83, 475.50 314.50 C 476.24 317.76, 481.11 315.89, 483.50 316.50 C 484.50 313.83, 484.50 311.17, 484.50 308.50 C 483.76 305.24, 478.89 307.11, 476.50 306.50 Z" fill="rgb(114.11818181818182,116.03636363636363,116.45454545454545)" stroke="rgb(114.11818181818182,116.03636363636363,116.45454545454545)" stroke-width="1" />
<path d="M 487.50 319.50 C 487.50 322.17, 487.50 324.83, 487.50 327.50 C 486.55 332.11, 491.44 329.89, 493.50 330.50 C 496.76 329.76, 494.89 324.89, 495.50 322.50 C 496.30 317.70, 490.77 320.23, 488.50 319.50 Z" fill="rgb(98.69444444444444,96.69444444444444,100.44444444444444)" stroke="rgb(98.69444444444444,96.69444444444444,100.44444444444444)" stroke-width="1" />
<path d="M 487.50 306.50 C 487.50 309.17, 487.50 311.83, 487.50 314.50 C 488.24 317.76, 493.11 315.89, 495.50 316.50 C 495.50 313.17, 495.50 310.83, 495.50 308.50 C 495.07 305.26, 490.57 307.09, 488.50 306.50 Z" fill="rgb(98.97979797979798,96.8989898989899,100.63636363636364)" stroke="rgb(98.97979797979798,96.8989898989899,100.63636363636364)" stroke-width="1" />
<path d="M 283.50 323.50 C 284.44 327.55, 280.72 336.59, 287.50 335.50 C 288.50 332.17, 288.50 329.83, 288.50 327.50 C 289.50 323.16, 287.11 323.22, 284.50 323.50 Z" fill="rgb(65.18666666666667,38.89333333333333,44.986666666666665)" stroke="rgb(65.18666666666667,38.89333333333333,44.986666666666665)" stroke-width="1" />
<path d="M 291.50 311.50 C 289.86 312.77, 292.48 315.19, 291.50 317.50 C 290.47 321.86, 294.61 320.06, 296.50 320.50 C 297.30 316.03, 299.31 309.35, 292.50 311.50 Z" fill="rgb(82.94285714285714,67.88571428571429,77.72857142857143)" stroke="rgb(82.94285714285714,67.88571428571429,77.72857142857143)" stroke-width="1" />
<path d="M 63.50 310.50 C 63.42 314.91, 62.20 320.46, 68.50 318.50 C 69.58 314.09, 70.80 308.54, 64.50 310.50 Z" fill="rgb(35.967213114754095,18.131147540983605,39.950819672131146)" stroke="rgb(35.967213114754095,18.131147540983605,39.950819672131146)" stroke-width="1" />
<path d="M 283.50 311.50 C 284.10 315.24, 281.28 322.39, 287.50 320.50 C 287.90 316.76, 290.72 309.61, 284.50 311.50 Z" fill="rgb(63.63793103448276,54.63793103448276,61.793103448275865)" stroke="rgb(63.63793103448276,54.63793103448276,61.793103448275865)" stroke-width="1" />
<path d="M 111.50 340.50 C 112.00 343.51, 109.72 345.37, 110.50 348.50 C 110.43 352.61, 110.96 355.97, 109.50 358.50 C 113.17 359.17, 110.85 354.03, 111.50 351.50 C 111.50 347.50, 111.50 344.50, 111.50 341.50 Z" fill="rgb(54.39473684210526,35.026315789473685,58.73684210526316)" stroke="rgb(54.39473684210526,35.026315789473685,58.73684210526316)" stroke-width="1" />
</svg>