<svg xmlns="http://www.w3.org/2000/svg" width="640" height="427" viewbox="0 0 640 427">
<path d="M 0.50 0.50 C 0.50 66.83, 0.50 133.17, 0.50 199.50 C 0.50 266.83, 0.50 333.17, 0.50 399.50 C 0.79 413.88, -4.33 432.66, 15.50 426.50 C 19.50 426.50, 22.50 426.50, 25.50 426.50 C 29.83 426.50, 33.17 426.50, 36.50 426.50 C 40.50 426.50, 43.50 426.50, 46.50 426.50 C 50.83 426.50, 54.17 426.50, 57.50 426.50 C 61.50 426.50, 64.50 426.50, 67.50 426.50 C 71.83 426.50, 75.17 426.50, 78.50 426.50 C 82.50 426.50, 85.50 426.50, 88.50 426.50 C 92.83 426.50, 96.17 426.50, 99.50 426.50 C 103.50 426.50, 106.50 426.50, 109.50 426.50 C 113.83 426.50, 117.17 426.50, 120.50 426.50 C 124.50 426.50, 127.50 426.50, 130.50 426.50 C 134.83 426.50, 138.17 426.50, 141.50 426.50 C 147.17 426.50, 151.83 426.50, 156.50 426.50 C 162.50 426.50, 167.50 426.50, 172.50 426.50 C 178.17 426.50, 182.83 426.50, 187.50 426.50 C 193.50 426.50, 198.50 426.50, 203.50 426.50 C 209.17 426.50, 213.83 426.50, 218.50 426.50 C 224.50 426.50, 229.50 426.50, 234.50 426.50 C 240.17 426.50, 244.83 426.50, 249.50 426.50 C 255.50 426.50, 260.50 426.50, 265.50 426.50 C 271.17 426.50, 275.83 426.50, 280.50 426.50 C 286.50 426.50, 291.50 426.50, 296.50 426.50 C 302.17 426.50, 306.83 426.50, 311.50 426.50 C 317.50 426.50, 322.50 426.50, 327.50 426.50 C 333.17 426.50, 337.83 426.50, 342.50 426.50 C 348.50 426.50, 353.50 426.50, 358.50 426.50 C 364.17 426.50, 368.83 426.50, 373.50 426.50 C 379.50 426.50, 384.50 426.50, 389.50 426.50 C 395.17 426.50, 399.83 426.50, 404.50 426.50 C 410.50 426.50, 415.50 426.50, 420.50 426.50 C 426.17 426.50, 430.83 426.50, 435.50 426.50 C 441.50 426.50, 446.50 426.50, 451.50 426.50 C 457.17 426.50, 461.83 426.50, 466.50 426.50 C 472.50 426.50, 477.50 426.50, 482.50 426.50 C 488.17 426.50, 492.83 426.50, 497.50 426.50 C 503.50 426.50, 508.50 426.50, 513.50 426.50 C 519.17 426.50, 523.83 426.50, 528.50 426.50 C 534.50 426.50, 539.50 426.50, 544.50 426.50 C 550.17 426.50, 554.83 426.50, 559.50 426.50 C 565.50 426.50, 570.50 426.50, 575.50 426.50 C 581.17 426.50, 585.83 426.50, 590.50 426.50 C 596.50 426.50, 601.50 426.50, 606.50 426.50 C 612.50 426.50, 617.50 426.50, 622.50 426.50 C 628.50 426.50, 633.50 426.50, 638.50 426.50 C 639.50 411.17, 639.50 395.83, 639.50 380.50 C 639.50 371.17, 639.50 362.83, 639.50 354.50 C 639.50 236.17, 639.50 118.83, 639.50 1.50 C 635.17 0.50, 630.83 0.50, 626.50 0.50 C 620.83 0.50, 616.17 0.50, 611.50 0.50 C 605.83 0.50, 601.17 0.50, 596.50 0.50 C 590.83 0.50, 586.17 0.50, 581.50 0.50 C 576.17 0.50, 571.83 0.50, 567.50 0.50 C 561.83 0.50, 557.17 0.50, 552.50 0.50 C 546.83 0.50, 542.17 0.50, 537.50 0.50 C 531.83 0.50, 527.17 0.50, 522.50 0.50 C 517.17 0.50, 512.83 0.50, 508.50 0.50 C 502.83 0.50, 498.17 0.50, 493.50 0.50 C 487.83 0.50, 483.17 0.50, 478.50 0.50 C 472.83 0.50, 468.17 0.50, 463.50 0.50 C 458.17 0.50, 453.83 0.50, 449.50 0.50 C 443.83 0.50, 439.17 0.50, 434.50 0.50 C 428.83 0.50, 424.17 0.50, 419.50 0.50 C 413.83 0.50, 409.17 0.50, 404.50 0.50 C 399.83 0.50, 396.17 0.50, 392.50 0.50 C 387.50 0.50, 383.50 0.50, 379.50 0.50 C 374.83 0.50, 371.17 0.50, 367.50 0.50 C 362.50 0.50, 358.50 0.50, 354.50 0.50 C 349.83 0.50, 346.17 0.50, 342.50 0.50 C 337.50 0.50, 333.50 0.50, 329.50 0.50 C 324.83 0.50, 321.17 0.50, 317.50 0.50 C 312.50 0.50, 308.50 0.50, 304.50 0.50 C 299.83 0.50, 296.17 0.50, 292.50 0.50 C 287.50 0.50, 283.50 0.50, 279.50 0.50 C 274.83 0.50, 271.17 0.50, 267.50 0.50 C 262.50 0.50, 258.50 0.50, 254.50 0.50 C 249.83 0.50, 246.17 0.50, 242.50 0.50 C 237.50 0.50, 233.50 0.50, 229.50 0.50 C 224.50 0.50, 220.50 0.50, 216.50 0.50 C 211.50 0.50, 207.50 0.50, 203.50 0.50 C 198.83 0.50, 195.17 0.50, 191.50 0.50 C 186.50 0.50, 182.50 0.50, 178.50 0.50 C 173.83 0.50, 170.17 0.50, 166.50 0.50 C 161.50 0.50, 157.50 0.50, 153.50 0.50 C 148.83 0.50, 145.17 0.50, 141.50 0.50 C 136.50 0.50, 132.50 0.50, 128.50 0.50 C 123.50 0.50, 119.50 0.50, 115.50 0.50 C 110.50 0.50, 106.50 0.50, 102.50 0.50 C 97.83 0.50, 94.17 0.50, 90.50 0.50 C 85.50 0.50, 81.50 0.50, 77.50 0.50 C 72.83 0.50, 69.17 0.50, 65.50 0.50 C 60.50 0.50, 56.50 0.50, 52.50 0.50 C 47.83 0.50, 44.17 0.50, 40.50 0.50 C 35.50 0.50, 31.50 0.50, 27.50 0.50 C 22.50 0.50, 18.50 0.50, 14.50 0.50 C 9.50 0.50, 5.50 0.50, 1.50 0.50 Z" fill="rgb(126.25598354525056,178.76533283470457,153.10789080029917)" stroke="rgb(126.25598354525056,178.76533283470457,153.10789080029917)" stroke-width="1" />
<path d="M 5.50 2.50 C 4.42 5.09, -0.72 1.54, 0.50 5.50 C 0.50 11.17, 0.50 15.83, 0.50 20.50 C 0.50 26.50, 0.50 31.50, 0.50 36.50 C 0.50 42.83, 0.50 48.17, 0.50 53.50 C 0.50 59.50, 0.50 64.50, 0.50 69.50 C 0.50 75.83, 0.50 81.17, 0.50 86.50 C 0.50 92.50, 0.50 97.50, 0.50 102.50 C 0.50 108.83, 0.50 114.17, 0.50 119.50 C 0.50 125.50, 0.50 130.50, 0.50 135.50 C 0.50 141.83, 0.50 147.17, 0.50 152.50 C 0.50 158.50, 0.50 163.50, 0.50 168.50 C 0.50 174.83, 0.50 180.17, 0.50 185.50 C 0.50 191.50, 0.50 196.50, 0.50 201.50 C 0.50 207.83, 0.50 213.17, 0.50 218.50 C 0.50 224.50, 0.50 229.50, 0.50 234.50 C 0.50 240.83, 0.50 246.17, 0.50 251.50 C 0.50 257.50, 0.50 262.50, 0.50 267.50 C 0.50 273.83, 0.50 279.17, 0.50 284.50 C -0.23 293.14, 0.19 295.20, 7.50 292.50 C 11.04 292.79, 14.38 292.18, 16.50 294.50 C 21.94 298.21, 22.83 304.83, 22.50 310.50 C 21.61 315.06, 24.42 317.69, 22.50 320.50 C 22.50 324.50, 22.50 327.50, 22.50 330.50 C 22.50 334.50, 22.50 337.50, 22.50 340.50 C 22.50 344.83, 22.50 348.17, 22.50 351.50 C 21.68 356.33, 23.23 360.02, 27.50 359.50 C 31.71 360.13, 37.95 359.30, 35.50 355.50 C 35.50 350.83, 35.50 347.17, 35.50 343.50 C 35.50 338.83, 35.50 335.17, 35.50 331.50 C 35.50 326.83, 35.50 323.17, 35.50 319.50 C 35.50 314.50, 35.50 310.50, 35.50 306.50 C 39.20 300.36, 45.23 297.19, 49.50 293.50 C 55.25 289.04, 59.91 285.35, 64.50 281.50 C 68.78 279.55, 70.41 282.58, 72.50 284.50 C 76.11 285.50, 78.19 287.78, 80.50 289.50 C 85.16 289.43, 85.84 295.57, 89.50 294.50 C 93.23 299.29, 97.40 299.61, 100.50 302.50 C 104.53 305.29, 108.19 307.97, 111.50 311.50 C 110.99 316.85, 112.06 320.54, 112.50 324.50 C 111.37 328.74, 113.24 334.06, 112.50 338.50 C 115.73 343.38, 113.91 348.94, 114.50 353.50 C 113.40 359.69, 116.71 359.08, 120.50 358.50 C 120.31 351.62, 122.25 346.61, 121.50 340.50 C 121.50 336.17, 121.50 332.83, 121.50 329.50 C 121.50 325.17, 121.50 321.83, 121.50 318.50 C 121.50 314.17, 121.50 310.83, 121.50 307.50 C 121.50 302.83, 121.50 299.17, 121.50 295.50 C 121.50 290.50, 121.50 286.50, 121.50 282.50 C 120.92 277.27, 122.72 272.05, 120.50 268.50 C 114.76 267.47, 111.13 264.78, 106.50 264.50 C 100.33 259.75, 95.25 254.67, 91.50 249.50 C 90.31 243.17, 86.59 239.29, 87.50 233.50 C 87.03 229.17, 87.97 226.42, 88.50 223.50 C 90.26 219.20, 90.37 215.23, 93.50 212.50 C 97.29 207.65, 100.95 203.51, 105.50 201.50 C 108.70 199.51, 111.30 199.49, 113.50 198.50 C 118.78 196.62, 124.85 195.36, 129.50 197.50 C 136.24 199.04, 141.21 201.45, 145.50 205.50 C 149.52 208.69, 151.16 212.44, 154.50 215.50 C 155.81 219.70, 157.12 222.91, 157.50 226.50 C 159.68 230.40, 157.94 234.93, 158.50 238.50 C 155.61 246.03, 160.90 240.40, 163.50 238.50 C 167.76 234.05, 172.15 233.31, 176.50 232.50 C 181.97 231.04, 185.71 232.34, 189.50 233.50 C 195.68 234.31, 198.85 239.00, 202.50 242.50 C 205.44 247.25, 207.80 250.82, 207.50 255.50 C 210.17 260.17, 207.54 265.02, 206.50 268.50 C 204.78 274.03, 201.57 278.86, 197.50 281.50 C 194.93 285.35, 191.65 284.06, 189.50 285.50 C 185.00 287.78, 182.02 285.32, 180.50 288.50 C 181.20 293.26, 179.50 296.03, 179.50 299.50 C 179.50 303.83, 179.50 307.17, 179.50 310.50 C 177.91 313.55, 179.21 314.81, 179.50 316.50 C 178.50 320.50, 178.50 323.50, 178.50 326.50 C 179.52 332.87, 176.54 338.51, 177.50 342.50 C 175.60 347.52, 176.86 352.84, 176.50 357.50 C 179.42 359.03, 182.17 359.97, 185.50 359.50 C 189.83 359.50, 193.17 359.50, 196.50 359.50 C 200.83 359.50, 204.17 359.50, 207.50 359.50 C 211.83 359.50, 215.17 359.50, 218.50 359.50 C 219.50 353.83, 219.50 349.17, 219.50 344.50 C 219.50 338.83, 219.50 334.17, 219.50 329.50 C 219.50 325.17, 219.50 321.83, 219.50 318.50 C 219.50 313.83, 219.50 310.17, 219.50 306.50 C 225.47 301.75, 230.53 298.25, 235.50 294.50 C 240.39 291.36, 243.57 287.52, 247.50 285.50 C 253.36 283.63, 257.04 274.59, 262.50 278.50 C 264.89 281.32, 268.11 279.68, 269.50 282.50 C 274.56 284.88, 278.25 287.17, 281.50 290.50 C 285.31 291.82, 287.68 294.21, 290.50 295.50 C 293.95 299.16, 297.72 299.64, 300.50 302.50 C 303.67 304.18, 307.97 305.94, 307.50 309.50 C 308.50 313.17, 308.50 315.83, 308.50 318.50 C 308.50 322.17, 308.50 324.83, 308.50 327.50 C 308.50 331.50, 308.50 334.50, 308.50 337.50 C 308.50 341.50, 308.50 344.50, 308.50 347.50 C 308.50 351.83, 308.50 355.17, 308.50 358.50 C 312.83 359.50, 316.17 359.50, 319.50 359.50 C 323.83 359.50, 327.17 359.50, 330.50 359.50 C 334.83 359.50, 338.17 359.50, 341.50 359.50 C 345.83 359.50, 349.17 359.50, 352.50 359.50 C 356.69 358.66, 355.16 355.25, 355.50 352.50 C 354.52 349.19, 357.14 346.77, 355.50 345.50 C 355.50 340.50, 355.50 336.50, 355.50 332.50 C 355.50 328.50, 355.50 325.50, 355.50 322.50 C 355.50 318.50, 355.50 315.50, 355.50 312.50 C 356.19 308.24, 356.18 304.68, 359.50 302.50 C 363.36 299.82, 366.64 298.18, 369.50 295.50 C 376.20 291.39, 381.17 286.52, 386.50 282.50 C 390.27 277.55, 396.02 279.65, 399.50 281.50 C 404.13 285.25, 408.21 286.92, 411.50 290.50 C 416.49 293.19, 420.64 295.49, 424.50 298.50 C 429.49 301.40, 433.32 303.67, 436.50 307.50 C 435.53 311.90, 435.27 315.60, 435.50 319.50 C 435.50 324.17, 435.50 327.83, 435.50 331.50 C 435.50 336.17, 435.50 339.83, 435.50 343.50 C 435.50 348.17, 435.50 351.83, 435.50 355.50 C 436.96 362.54, 445.76 358.29, 449.50 358.50 C 450.50 354.83, 450.50 352.17, 450.50 349.50 C 450.50 345.50, 450.50 342.50, 450.50 339.50 C 450.50 335.83, 450.50 333.17, 450.50 330.50 C 450.50 326.50, 450.50 323.50, 450.50 320.50 C 450.50 316.83, 450.50 314.17, 450.50 311.50 C 449.81 307.07, 452.19 304.93, 451.50 301.50 C 455.85 296.73, 459.69 294.15, 463.50 291.50 C 468.60 286.61, 473.48 284.60, 477.50 280.50 C 482.60 276.61, 487.48 274.60, 491.50 270.50 C 495.31 269.17, 497.31 265.90, 500.50 265.50 C 507.00 269.42, 512.07 273.39, 517.50 276.50 C 521.14 279.23, 523.96 280.52, 526.50 282.50 C 530.62 284.08, 532.48 287.68, 535.50 288.50 C 541.76 291.06, 545.37 296.62, 550.50 298.50 C 553.48 304.15, 552.08 310.20, 552.50 315.50 C 552.50 319.50, 552.50 322.50, 552.50 325.50 C 552.50 329.83, 552.50 333.17, 552.50 336.50 C 552.50 340.50, 552.50 343.50, 552.50 346.50 C 552.50 350.83, 552.50 354.17, 552.50 357.50 C 554.44 360.59, 557.90 359.01, 560.50 359.50 C 564.96 360.11, 567.99 358.40, 570.50 359.50 C 574.63 360.28, 576.49 358.00, 579.50 358.50 C 580.50 355.50, 580.50 352.50, 580.50 349.50 C 583.22 344.52, 586.48 339.07, 583.50 334.50 C 584.50 330.17, 584.50 326.83, 584.50 323.50 C 587.27 319.70, 583.73 314.30, 586.50 311.50 C 586.50 307.50, 586.50 304.50, 586.50 301.50 C 586.50 297.17, 586.50 293.83, 586.50 290.50 C 587.50 286.50, 587.50 283.50, 587.50 280.50 C 587.35 276.09, 588.10 272.31, 586.50 269.50 C 581.59 269.42, 578.27 267.92, 574.50 267.50 C 569.48 265.01, 565.57 263.28, 562.50 259.50 C 558.05 254.49, 555.44 250.14, 553.50 245.50 C 552.28 239.73, 551.22 234.89, 551.50 229.50 C 551.95 222.72, 554.85 218.37, 556.50 213.50 C 561.56 207.68, 565.50 204.22, 570.50 200.50 C 575.33 199.88, 578.12 196.78, 582.50 197.50 C 587.69 196.37, 591.83 196.36, 595.50 197.50 C 601.55 198.78, 605.69 201.23, 609.50 204.50 C 613.72 207.90, 617.72 212.52, 619.50 216.50 C 622.55 221.40, 622.88 226.01, 623.50 230.50 C 623.01 234.10, 624.59 237.56, 622.50 239.50 C 622.03 243.72, 620.99 246.70, 619.50 249.50 C 617.29 253.55, 615.37 256.72, 612.50 259.50 C 607.42 264.58, 602.23 265.98, 597.50 268.50 C 593.73 271.30, 597.27 276.70, 594.50 279.50 C 595.23 284.36, 594.09 288.68, 594.50 293.50 C 594.83 299.44, 594.29 304.02, 593.50 308.50 C 593.54 312.32, 593.79 315.23, 592.50 317.50 C 592.50 321.50, 592.50 324.50, 592.50 327.50 C 591.57 331.61, 591.04 334.97, 592.50 337.50 C 593.81 341.65, 597.02 344.01, 597.50 347.50 C 600.35 351.08, 596.63 357.90, 599.50 359.50 C 604.97 360.57, 608.86 357.40, 612.50 359.50 C 618.15 357.52, 624.20 358.92, 629.50 358.50 C 633.21 361.41, 636.37 357.81, 639.50 358.50 C 639.50 354.17, 639.50 350.83, 639.50 347.50 C 639.50 343.17, 639.50 339.83, 639.50 336.50 C 639.50 332.17, 639.50 328.83, 639.50 325.50 C 639.50 321.17, 639.50 317.83, 639.50 314.50 C 639.50 310.17, 639.50 306.83, 639.50 303.50 C 639.50 299.17, 639.50 295.83, 639.50 292.50 C 639.50 288.17, 639.50 284.83, 639.50 281.50 C 639.50 277.17, 639.50 273.83, 639.50 270.50 C 639.50 266.17, 639.50 262.83, 639.50 259.50 C 639.50 255.17, 639.50 251.83, 639.50 248.50 C 639.50 244.17, 639.50 240.83, 639.50 237.50 C 639.50 233.17, 639.50 229.83, 639.50 226.50 C 639.50 222.17, 639.50 218.83, 639.50 215.50 C 639.50 211.17, 639.50 207.83, 639.50 204.50 C 639.50 200.17, 639.50 196.83, 639.50 193.50 C 639.50 188.83, 639.50 185.17, 639.50 181.50 C 639.50 177.17, 639.50 173.83, 639.50 170.50 C 639.50 166.17, 639.50 162.83, 639.50 159.50 C 639.50 155.17, 639.50 151.83, 639.50 148.50 C 639.50 144.17, 639.50 140.83, 639.50 137.50 C 639.50 133.17, 639.50 129.83, 639.50 126.50 C 639.50 122.17, 639.50 118.83, 639.50 115.50 C 639.50 111.17, 639.50 107.83, 639.50 104.50 C 639.50 99.83, 639.50 96.17, 639.50 92.50 C 639.50 88.17, 639.50 84.83, 639.50 81.50 C 639.50 77.17, 639.50 73.83, 639.50 70.50 C 639.50 66.17, 639.50 62.83, 639.50 59.50 C 639.50 55.17, 639.50 51.83, 639.50 48.50 C 639.50 44.17, 639.50 40.83, 639.50 37.50 C 639.50 33.17, 639.50 29.83, 639.50 26.50 C 639.50 22.17, 639.50 18.83, 639.50 15.50 C 639.50 10.83, 639.50 7.17, 639.50 3.50 C 634.17 2.50, 628.83 2.50, 623.50 2.50 C 619.83 2.50, 617.17 2.50, 614.50 2.50 C 610.83 2.50, 608.17 2.50, 605.50 2.50 C 599.17 2.50, 593.83 2.50, 588.50 2.50 C 584.83 2.50, 582.17 2.50, 579.50 2.50 C 575.83 2.50, 573.17 2.50, 570.50 2.50 C 564.17 2.50, 558.83 2.50, 553.50 2.50 C 549.83 2.50, 547.17 2.50, 544.50 2.50 C 540.83 2.50, 538.17 2.50, 535.50 2.50 C 531.83 2.50, 529.17 2.50, 526.50 2.50 C 522.83 2.50, 520.17 2.50, 517.50 2.50 C 513.83 2.50, 511.17 2.50, 508.50 2.50 C 504.83 2.50, 502.17 2.50, 499.50 2.50 C 493.17 2.50, 487.83 2.50, 482.50 2.50 C 478.83 2.50, 476.17 2.50, 473.50 2.50 C 469.83 2.50, 467.17 2.50, 464.50 2.50 C 460.83 2.50, 458.17 2.50, 455.50 2.50 C 451.83 2.50, 449.17 2.50, 446.50 2.50 C 442.83 2.50, 440.17 2.50, 437.50 2.50 C 433.83 2.50, 431.17 2.50, 428.50 2.50 C 422.17 2.50, 416.83 2.50, 411.50 2.50 C 407.83 2.50, 405.17 2.50, 402.50 2.50 C 398.83 2.50, 396.17 2.50, 393.50 2.50 C 389.83 2.50, 387.17 2.50, 384.50 2.50 C 380.83 2.50, 378.17 2.50, 375.50 2.50 C 371.83 2.50, 369.17 2.50, 366.50 2.50 C 362.83 2.50, 360.17 2.50, 357.50 2.50 C 351.17 2.50, 345.83 2.50, 340.50 2.50 C 336.17 2.50, 332.83 2.50, 329.50 2.50 C 326.03 1.93, 324.83 3.65, 322.50 2.50 C 318.18 3.39, 315.53 2.11, 311.50 2.50 C 308.34 3.90, 307.21 2.01, 304.50 2.50 C 301.19 1.52, 298.77 4.14, 297.50 2.50 C 293.17 2.50, 289.83 2.50, 286.50 2.50 C 282.45 1.90, 280.20 3.25, 277.50 3.50 C 273.17 2.03, 270.42 2.97, 267.50 3.50 C 263.77 4.91, 261.39 2.08, 258.50 3.50 C 252.83 3.50, 248.17 3.50, 243.50 3.50 C 237.83 3.50, 233.17 3.50, 228.50 3.50 C 222.83 3.50, 218.17 3.50, 213.50 3.50 C 207.50 3.50, 202.50 3.50, 197.50 3.50 C 191.83 3.50, 187.17 3.50, 182.50 3.50 C 176.50 3.50, 171.50 3.50, 166.50 3.50 C 160.83 3.50, 156.17 3.50, 151.50 3.50 C 144.62 3.56, 141.00 3.10, 135.50 3.50 C 129.50 3.50, 124.50 3.50, 119.50 3.50 C 113.50 3.50, 108.50 3.50, 103.50 3.50 C 97.50 3.50, 92.50 3.50, 87.50 3.50 C 81.50 3.50, 76.50 3.50, 71.50 3.50 C 67.17 3.50, 63.83 3.50, 60.50 3.50 C 55.83 3.50, 52.17 3.50, 48.50 3.50 C 44.17 3.50, 40.83 3.50, 37.50 3.50 C 32.83 3.50, 29.17 3.50, 25.50 3.50 C 21.83 3.50, 19.17 3.50, 16.50 3.50 C 12.26 3.75, 9.96 1.73, 6.50 2.50 Z" fill="rgb(107.95829923308311,170.98427684886587,145.9864990108669)" stroke="rgb(107.95829923308311,170.98427684886587,145.9864990108669)" stroke-width="1" />
<path d="M 6.50 293.50 C -6.59 303.64, 3.84 332.53, 0.50 350.50 C 0.50 371.83, 0.50 392.17, 0.50 412.50 C -4.99 433.33, 19.67 423.00, 31.50 425.50 C 38.83 425.50, 45.17 425.50, 51.50 425.50 C 65.83 425.50, 79.17 425.50, 92.50 425.50 C 99.83 425.50, 106.17 425.50, 112.50 425.50 C 116.50 425.50, 119.50 425.50, 122.50 425.50 C 126.75 424.96, 130.92 426.66, 133.50 424.50 C 137.50 425.50, 140.50 425.50, 143.50 425.50 C 146.91 425.45, 151.17 426.56, 153.50 424.50 C 157.35 425.95, 161.65 425.95, 164.50 424.50 C 167.76 426.63, 171.58 424.98, 174.50 425.50 C 178.03 425.96, 181.39 425.43, 184.50 425.50 C 204.58 425.55, 221.82 424.55, 242.50 424.50 C 263.32 424.40, 281.30 424.76, 300.50 424.50 C 318.64 423.83, 332.78 426.00, 348.50 424.50 C 353.83 425.50, 358.17 425.50, 362.50 425.50 C 368.50 425.50, 373.50 425.50, 378.50 425.50 C 384.74 425.75, 389.75 425.44, 394.50 424.50 C 400.42 426.57, 407.51 425.53, 412.50 424.50 C 419.11 425.63, 426.95 426.51, 432.50 424.50 C 435.83 426.56, 440.09 425.45, 442.50 424.50 C 447.38 426.73, 452.94 424.91, 457.50 425.50 C 463.50 425.50, 468.50 425.50, 473.50 425.50 C 477.50 425.50, 480.50 425.50, 483.50 425.50 C 487.50 425.50, 490.50 425.50, 493.50 425.50 C 497.50 425.50, 500.50 425.50, 503.50 425.50 C 507.50 425.50, 510.50 425.50, 513.50 425.50 C 517.50 425.50, 520.50 425.50, 523.50 425.50 C 527.50 425.50, 530.50 425.50, 533.50 425.50 C 537.50 425.50, 540.50 425.50, 543.50 425.50 C 547.50 425.50, 550.50 425.50, 553.50 425.50 C 559.83 425.50, 565.17 425.50, 570.50 425.50 C 574.17 425.50, 576.83 425.50, 579.50 425.50 C 583.17 425.50, 585.83 425.50, 588.50 425.50 C 592.17 425.50, 594.83 425.50, 597.50 425.50 C 601.17 425.50, 603.83 425.50, 606.50 425.50 C 610.17 425.50, 612.83 425.50, 615.50 425.50 C 619.17 425.50, 621.83 425.50, 624.50 425.50 C 652.61 429.27, 634.05 387.38, 639.50 369.50 C 522.57 353.83, 377.39 366.22, 245.50 362.50 C 206.33 361.12, 172.12 362.04, 135.50 362.50 C 97.19 361.63, 59.76 363.49, 21.50 361.50 C 19.85 344.10, 21.38 324.15, 20.50 308.50 C 22.21 299.59, 14.93 292.88, 7.50 293.50 Z" fill="rgb(174.45945945945945,210.35872235872236,180.42997542997543)" stroke="rgb(174.45945945945945,210.35872235872236,180.42997542997543)" stroke-width="1" />
<path d="M 580.50 360.50 C 577.27 362.70, 572.40 360.93, 568.50 361.50 C 563.17 361.50, 558.83 361.50, 554.50 361.50 C 549.17 361.50, 544.83 361.50, 540.50 361.50 C 535.17 361.50, 530.83 361.50, 526.50 361.50 C 520.83 361.50, 516.17 361.50, 511.50 361.50 C 507.50 361.50, 504.50 361.50, 501.50 361.50 C 497.17 361.50, 493.83 361.50, 490.50 361.50 C 486.17 361.50, 482.83 361.50, 479.50 361.50 C 475.17 361.50, 471.83 361.50, 468.50 361.50 C 462.50 361.50, 457.50 361.50, 452.50 361.50 C 449.17 361.50, 446.83 361.50, 444.50 361.50 C 440.83 361.50, 438.17 361.50, 435.50 361.50 C 432.17 362.50, 429.83 362.50, 427.50 362.50 C 423.83 362.50, 421.17 362.50, 418.50 362.50 C 415.17 362.50, 412.83 362.50, 410.50 362.50 C 406.83 362.50, 404.17 362.50, 401.50 362.50 C 397.50 362.50, 394.50 362.50, 391.50 362.50 C 387.50 362.50, 384.50 362.50, 381.50 362.50 C 377.50 362.50, 374.50 362.50, 371.50 362.50 C 367.17 362.50, 363.83 362.50, 360.50 362.50 C 355.62 360.27, 350.06 362.09, 345.50 361.50 C 341.17 361.50, 337.83 361.50, 334.50 361.50 C 330.17 361.50, 326.83 361.50, 323.50 361.50 C 318.17 361.50, 313.83 361.50, 309.50 361.50 C 304.79 363.35, 299.84 362.18, 295.50 362.50 C 290.17 362.50, 285.83 362.50, 281.50 362.50 C 276.17 362.50, 271.83 362.50, 267.50 362.50 C 263.50 362.50, 260.50 362.50, 257.50 362.50 C 253.50 362.50, 250.50 362.50, 247.50 362.50 C 243.50 362.50, 240.50 362.50, 237.50 362.50 C 233.17 362.50, 229.83 362.50, 226.50 362.50 C 220.78 363.20, 216.04 360.65, 210.50 361.50 C 207.17 361.50, 204.83 361.50, 202.50 361.50 C 198.83 361.50, 196.17 361.50, 193.50 361.50 C 189.83 361.50, 187.17 361.50, 184.50 361.50 C 180.97 362.15, 175.83 359.83, 175.50 363.50 C 172.00 367.59, 168.97 363.17, 167.50 362.50 C 161.50 361.50, 156.50 361.50, 151.50 361.50 C 145.50 361.50, 140.50 361.50, 135.50 361.50 C 131.17 362.50, 127.83 362.50, 124.50 362.50 C 120.92 360.34, 116.75 362.04, 113.50 361.50 C 108.85 363.31, 106.34 361.67, 102.50 362.50 C 97.16 362.18, 92.21 363.35, 88.50 361.50 C 85.45 363.09, 84.19 361.79, 82.50 361.50 C 78.50 362.50, 75.50 362.50, 72.50 362.50 C 66.17 362.50, 60.83 362.50, 55.50 362.50 C 51.50 362.50, 48.50 362.50, 45.50 362.50 C 41.07 363.19, 38.93 360.81, 35.50 361.50 C 30.50 361.50, 26.50 361.50, 22.50 361.50 C 17.13 361.93, 13.95 364.26, 9.50 363.50 C 6.38 364.64, 3.04 360.78, 0.50 363.50 C 0.50 369.17, 0.50 373.83, 0.50 378.50 C 0.50 384.17, 0.50 388.83, 0.50 393.50 C 0.50 399.17, 0.50 403.83, 0.50 408.50 C 0.50 414.50, 0.50 419.50, 0.50 424.50 C 3.27 426.23, 5.00 424.42, 7.50 424.50 C 12.46 424.94, 16.15 426.01, 20.50 425.50 C 25.83 425.50, 30.17 425.50, 34.50 425.50 C 38.17 425.50, 40.83 425.50, 43.50 425.50 C 47.17 425.50, 49.83 425.50, 52.50 425.50 C 56.17 425.50, 58.83 425.50, 61.50 425.50 C 65.17 425.50, 67.83 425.50, 70.50 425.50 C 75.17 425.50, 78.83 425.50, 82.50 425.50 C 87.50 425.50, 91.50 425.50, 95.50 425.50 C 100.34 427.12, 105.43 424.59, 109.50 424.50 C 113.69 426.15, 117.39 423.60, 121.50 424.50 C 126.50 424.50, 130.50 424.50, 134.50 424.50 C 141.00 424.90, 144.62 424.44, 150.50 424.50 C 156.50 424.50, 161.50 424.50, 166.50 424.50 C 172.50 424.50, 177.50 424.50, 182.50 424.50 C 188.50 424.50, 193.50 424.50, 198.50 424.50 C 203.50 424.50, 207.50 424.50, 211.50 424.50 C 216.83 424.50, 221.17 424.50, 225.50 424.50 C 230.83 424.50, 235.17 424.50, 239.50 424.50 C 244.83 424.50, 249.17 424.50, 253.50 424.50 C 258.50 424.50, 262.50 424.50, 266.50 424.50 C 271.83 424.50, 276.17 424.50, 280.50 424.50 C 285.83 424.50, 290.17 424.50, 294.50 424.50 C 299.83 424.50, 304.17 424.50, 308.50 424.50 C 313.50 424.50, 317.50 424.50, 321.50 424.50 C 326.83 424.50, 331.17 424.50, 335.50 424.50 C 340.83 424.50, 345.17 424.50, 349.50 424.50 C 354.83 424.50, 359.17 424.50, 363.50 424.50 C 368.83 424.50, 373.17 424.50, 377.50 424.50 C 382.83 424.50, 387.17 424.50, 391.50 424.50 C 396.83 424.50, 401.17 424.50, 405.50 424.50 C 410.83 424.50, 415.17 424.50, 419.50 424.50 C 424.50 424.50, 428.50 424.50, 432.50 424.50 C 437.83 424.50, 442.17 424.50, 446.50 424.50 C 451.83 424.50, 456.17 424.50, 460.50 424.50 C 465.83 424.50, 470.17 424.50, 474.50 424.50 C 479.50 424.50, 483.50 424.50, 487.50 424.50 C 492.83 424.50, 497.17 424.50, 501.50 424.50 C 506.83 424.50, 511.17 424.50, 515.50 424.50 C 520.83 424.50, 525.17 424.50, 529.50 424.50 C 534.50 424.50, 538.50 424.50, 542.50 424.50 C 547.83 424.50, 552.17 424.50, 556.50 424.50 C 561.83 424.50, 566.17 424.50, 570.50 424.50 C 575.83 424.50, 580.17 424.50, 584.50 424.50 C 588.83 424.50, 592.17 424.50, 595.50 424.50 C 600.17 424.50, 603.83 424.50, 607.50 424.50 C 611.83 424.50, 615.17 424.50, 618.50 424.50 C 623.17 424.50, 626.83 424.50, 630.50 424.50 C 633.77 424.39, 638.44 427.24, 639.50 424.50 C 639.50 418.83, 639.50 414.17, 639.50 409.50 C 639.50 403.50, 639.50 398.50, 639.50 393.50 C 639.50 387.50, 639.50 382.50, 639.50 377.50 C 639.50 371.50, 639.50 366.50, 639.50 361.50 C 633.17 361.50, 627.83 361.50, 622.50 361.50 C 618.83 361.50, 616.17 361.50, 613.50 361.50 C 609.83 361.50, 607.17 361.50, 604.50 361.50 C 599.65 360.73, 597.35 360.73, 593.50 361.50 C 588.93 360.94, 584.40 362.68, 581.50 360.50 Z" fill="rgb(175.06199877375843,210.0507418761496,180.03767014101777)" stroke="rgb(175.06199877375843,210.0507418761496,180.03767014101777)" stroke-width="1" />
<path d="M 499.50 267.50 C 497.22 269.31, 494.59 270.25, 492.50 272.50 C 489.17 275.32, 486.16 276.48, 483.50 278.50 C 480.06 280.90, 477.94 283.10, 475.50 284.50 C 471.58 286.88, 469.01 289.13, 466.50 291.50 C 461.97 295.45, 456.16 297.81, 453.50 301.50 C 452.50 304.83, 452.50 307.17, 452.50 309.50 C 452.50 313.17, 452.50 315.83, 452.50 318.50 C 452.50 321.83, 452.50 324.17, 452.50 326.50 C 452.50 330.17, 452.50 332.83, 452.50 335.50 C 452.50 339.50, 452.50 342.50, 452.50 345.50 C 452.50 349.50, 452.50 352.50, 452.50 355.50 C 463.79 363.32, 485.22 357.64, 500.50 359.50 C 516.17 359.50, 530.83 359.50, 545.50 359.50 C 553.01 360.74, 549.72 352.33, 550.50 348.50 C 550.50 342.83, 550.50 338.17, 550.50 333.50 C 550.50 327.50, 550.50 322.50, 550.50 317.50 C 550.50 311.50, 550.50 306.50, 550.50 301.50 C 545.23 296.21, 540.12 293.94, 535.50 290.50 C 529.61 287.05, 525.21 283.40, 520.50 280.50 C 516.03 278.96, 513.80 275.44, 510.50 274.50 C 506.36 271.84, 503.71 268.99, 500.50 267.50 Z" fill="rgb(245.2779431216931,228.1671626984127,191.93055555555554)" stroke="rgb(245.2779431216931,228.1671626984127,191.93055555555554)" stroke-width="1" />
<path d="M 258.50 279.50 C 255.93 281.73, 253.22 283.62, 250.50 285.50 C 246.58 287.88, 244.01 290.13, 241.50 292.50 C 238.17 295.64, 234.93 296.60, 232.50 299.50 C 228.12 301.59, 225.63 304.81, 222.50 306.50 C 221.50 311.83, 221.50 316.17, 221.50 320.50 C 221.50 325.83, 221.50 330.17, 221.50 334.50 C 221.50 338.83, 221.50 342.17, 221.50 345.50 C 221.50 349.83, 221.50 353.17, 221.50 356.50 C 222.10 361.30, 227.67 358.77, 230.50 359.50 C 234.50 359.50, 237.50 359.50, 240.50 359.50 C 243.66 360.90, 244.79 359.01, 247.50 359.50 C 250.83 359.50, 253.17 359.50, 255.50 359.50 C 259.17 359.50, 261.83 359.50, 264.50 359.50 C 268.17 359.50, 270.83 359.50, 273.50 359.50 C 277.17 359.50, 279.83 359.50, 282.50 359.50 C 286.17 359.50, 288.83 359.50, 291.50 359.50 C 295.50 359.50, 298.50 359.50, 301.50 359.50 C 307.87 361.20, 306.39 356.06, 306.50 352.50 C 306.50 347.83, 306.50 344.17, 306.50 340.50 C 306.50 336.83, 306.50 334.17, 306.50 331.50 C 306.50 327.50, 306.50 324.50, 306.50 321.50 C 305.98 317.58, 307.63 313.76, 305.50 311.50 C 306.65 306.19, 301.78 305.70, 299.50 303.50 C 295.32 301.27, 292.68 298.73, 289.50 297.50 C 285.51 294.47, 282.49 292.53, 279.50 290.50 C 275.03 288.96, 272.80 285.44, 269.50 284.50 C 265.35 282.52, 263.14 279.29, 259.50 279.50 Z" fill="rgb(217.35290237467018,134.6358839050132,109.61895338610378)" stroke="rgb(217.35290237467018,134.6358839050132,109.61895338610378)" stroke-width="1" />
<path d="M 393.50 280.50 C 391.11 283.17, 387.89 283.83, 385.50 286.50 C 382.17 289.32, 379.16 290.48, 376.50 292.50 C 373.11 296.17, 369.89 296.83, 367.50 299.50 C 363.58 301.57, 361.22 303.97, 358.50 305.50 C 359.20 309.26, 356.80 310.74, 357.50 313.50 C 357.50 317.17, 357.50 319.83, 357.50 322.50 C 357.50 325.83, 357.50 328.17, 357.50 330.50 C 357.50 334.17, 357.50 336.83, 357.50 339.50 C 357.50 342.83, 357.50 345.17, 357.50 347.50 C 357.50 351.17, 357.50 353.83, 357.50 356.50 C 357.70 361.30, 363.23 358.77, 365.50 359.50 C 370.83 359.50, 375.17 359.50, 379.50 359.50 C 384.83 359.50, 389.17 359.50, 393.50 359.50 C 406.03 359.72, 416.71 361.96, 427.50 359.50 C 438.47 360.13, 431.37 340.09, 433.50 331.50 C 431.90 320.77, 438.25 305.41, 426.50 302.50 C 420.50 298.16, 415.50 294.84, 410.50 291.50 C 404.31 287.61, 399.32 284.26, 394.50 280.50 Z" fill="rgb(48.58633540372671,6.3304347826086955,44.90869565217391)" stroke="rgb(48.58633540372671,6.3304347826086955,44.90869565217391)" stroke-width="1" />
<path d="M 66.50 282.50 C 63.57 285.01, 60.76 287.80, 57.50 289.50 C 53.72 293.37, 50.55 295.29, 47.50 297.50 C 43.97 301.30, 38.41 302.97, 38.50 307.50 C 38.50 312.17, 38.50 315.83, 38.50 319.50 C 38.50 324.50, 38.50 328.50, 38.50 332.50 C 38.50 337.50, 38.50 341.50, 38.50 345.50 C 38.50 350.50, 38.50 354.50, 38.50 358.50 C 44.50 359.50, 49.50 359.50, 54.50 359.50 C 57.83 359.50, 60.17 359.50, 62.50 359.50 C 66.17 359.50, 68.83 359.50, 71.50 359.50 C 78.66 359.55, 84.89 359.77, 90.50 358.50 C 97.11 360.57, 104.23 359.02, 110.50 359.50 C 109.82 350.68, 112.91 345.69, 110.50 338.50 C 110.50 333.50, 110.50 329.50, 110.50 325.50 C 110.50 320.50, 110.50 316.50, 110.50 312.50 C 106.51 309.47, 103.49 307.53, 100.50 305.50 C 96.21 302.05, 92.60 300.39, 89.50 297.50 C 85.40 294.61, 81.79 292.95, 78.50 290.50 C 74.07 287.74, 70.99 285.12, 67.50 283.50 Z" fill="rgb(46.312052505966584,6.276551312649165,45.15930787589499)" stroke="rgb(46.312052505966584,6.276551312649165,45.15930787589499)" stroke-width="1" />
<path d="M 120.50 198.50 C 111.10 200.25, 102.18 203.17, 95.50 211.50 C 78.73 232.15, 95.73 267.39, 122.50 265.50 C 123.50 287.50, 123.50 308.50, 123.50 329.50 C 123.70 341.13, 119.67 369.41, 134.50 356.50 C 134.15 348.79, 126.20 346.97, 125.50 340.50 C 126.16 314.64, 124.17 288.67, 126.50 264.50 C 145.38 265.67, 159.25 246.38, 156.50 230.50 C 155.86 211.82, 139.25 197.66, 121.50 198.50 Z" fill="rgb(127.4423076923077,168.6346153846154,149.32692307692307)" stroke="rgb(127.4423076923077,168.6346153846154,149.32692307692307)" stroke-width="1" />
<path d="M 153.50 253.50 C 149.68 254.98, 147.38 260.16, 143.50 261.50 C 139.83 265.45, 135.91 265.35, 132.50 266.50 C 126.42 269.43, 130.81 274.66, 128.50 279.50 C 128.50 283.83, 128.50 287.17, 128.50 290.50 C 128.50 295.17, 128.50 298.83, 128.50 302.50 C 128.50 307.17, 128.50 310.83, 128.50 314.50 C 127.98 319.47, 129.36 323.60, 128.50 326.50 C 130.58 328.62, 126.44 331.95, 129.50 333.50 C 129.57 338.75, 128.73 343.37, 131.50 346.50 C 135.84 350.00, 137.06 353.38, 136.50 357.50 C 140.73 359.89, 145.70 359.48, 150.50 359.50 C 156.17 359.50, 160.83 359.50, 165.50 359.50 C 170.17 359.17, 167.85 354.03, 168.50 351.50 C 169.50 347.17, 169.50 343.83, 169.50 340.50 C 170.50 335.50, 170.50 331.50, 170.50 327.50 C 170.54 322.04, 172.18 318.25, 171.50 313.50 C 170.72 309.37, 173.00 307.51, 172.50 304.50 C 173.28 300.35, 173.84 297.11, 173.50 293.50 C 173.01 289.79, 174.90 288.66, 173.50 286.50 C 169.41 285.53, 166.62 284.82, 164.50 282.50 C 160.54 279.09, 158.80 276.18, 156.50 273.50 C 155.46 268.91, 152.72 266.43, 153.50 262.50 C 151.77 258.73, 153.58 257.00, 153.50 254.50 Z" fill="rgb(107.89450492483152,170.88076723691032,145.92949714878176)" stroke="rgb(107.89450492483152,170.88076723691032,145.92949714878176)" stroke-width="1" />
<path d="M 581.50 198.50 C 577.19 200.56, 572.01 200.52, 568.50 204.50 C 565.41 206.96, 561.15 207.93, 560.50 211.50 C 556.94 215.13, 556.60 218.68, 554.50 221.50 C 552.65 226.21, 553.82 231.16, 553.50 235.50 C 553.41 242.09, 555.64 246.72, 557.50 251.50 C 561.74 257.56, 567.00 262.65, 572.50 264.50 C 576.08 266.37, 579.20 265.96, 581.50 267.50 C 584.56 266.89, 589.45 269.11, 588.50 265.50 C 588.50 260.17, 588.50 255.83, 588.50 251.50 C 584.26 250.95, 578.87 247.21, 579.50 242.50 C 578.32 234.90, 583.57 227.70, 590.50 227.50 C 594.49 227.24, 596.47 229.43, 598.50 231.50 C 601.25 234.86, 602.18 237.55, 602.50 240.50 C 601.91 247.11, 594.08 249.30, 593.50 254.50 C 594.41 259.25, 591.43 266.02, 595.50 267.50 C 599.45 266.18, 602.14 265.25, 604.50 263.50 C 608.60 261.06, 611.72 258.69, 614.50 255.50 C 617.58 251.00, 619.11 247.28, 620.50 243.50 C 622.20 239.40, 621.28 235.21, 621.50 231.50 C 621.93 226.38, 620.47 223.04, 619.50 219.50 C 617.03 214.14, 613.56 210.20, 609.50 206.50 C 604.81 202.75, 600.87 200.60, 596.50 199.50 C 591.79 197.65, 586.84 198.82, 582.50 198.50 Z" fill="rgb(185.7583774250441,211.02616108171665,185.99147560258672)" stroke="rgb(185.7583774250441,211.02616108171665,185.99147560258672)" stroke-width="1" />
<path d="M 119.50 198.50 C 116.59 200.53, 112.13 198.80, 109.50 201.50 C 103.84 204.05, 99.34 206.97, 95.50 211.50 C 93.11 216.95, 89.80 220.60, 89.50 225.50 C 89.58 229.00, 87.77 230.73, 88.50 233.50 C 89.86 236.88, 89.14 240.12, 90.50 242.50 C 91.72 246.21, 93.02 248.89, 94.50 251.50 C 98.62 255.65, 101.87 260.18, 106.50 261.50 C 111.79 263.59, 115.49 266.14, 120.50 265.50 C 123.66 262.92, 121.96 258.75, 122.50 255.50 C 119.88 252.79, 115.17 252.55, 114.50 248.50 C 111.93 244.87, 110.15 240.41, 112.50 237.50 C 113.46 232.58, 117.58 228.46, 121.50 227.50 C 128.33 226.70, 132.83 229.10, 136.50 233.50 C 138.90 239.16, 137.29 245.63, 134.50 249.50 C 131.10 253.21, 125.74 253.54, 127.50 259.50 C 126.72 263.94, 128.06 265.28, 131.50 264.50 C 135.90 264.47, 138.44 262.35, 141.50 261.50 C 145.32 258.62, 149.29 255.89, 150.50 252.50 C 153.08 248.60, 155.30 245.97, 155.50 242.50 C 156.92 239.53, 155.52 236.82, 157.50 235.50 C 156.70 230.55, 156.81 226.24, 155.50 222.50 C 153.98 218.44, 152.41 215.40, 150.50 212.50 C 147.87 208.33, 144.61 206.09, 141.50 204.50 C 137.81 201.42, 134.63 200.51, 131.50 199.50 C 127.69 197.90, 123.91 198.65, 120.50 198.50 Z" fill="rgb(185.5889453621347,210.9510800508259,185.93360864040662)" stroke="rgb(185.5889453621347,210.9510800508259,185.93360864040662)" stroke-width="1" />
<path d="M 176.50 233.50 C 165.01 235.76, 156.10 246.83, 155.50 258.50 C 154.26 270.90, 164.94 284.35, 175.50 283.50 C 176.81 294.90, 174.87 304.38, 174.50 314.50 C 169.65 343.68, 173.16 381.31, 174.50 331.50 C 176.10 314.86, 176.84 299.28, 179.50 284.50 C 195.41 286.06, 207.06 272.64, 206.50 258.50 C 206.32 242.95, 191.84 232.02, 177.50 233.50 Z" fill="rgb(179.08695652173913,183.5,158.2608695652174)" stroke="rgb(179.08695652173913,183.5,158.2608695652174)" stroke-width="1" />
<path d="M 176.50 233.50 C 154.99 236.75, 146.70 270.52, 167.50 281.50 C 179.40 289.70, 175.28 273.80, 177.50 267.50 C 178.65 264.80, 174.55 260.66, 179.50 260.50 C 185.10 259.66, 192.12 263.03, 184.50 266.50 C 180.85 264.06, 179.85 274.25, 180.50 278.50 C 178.01 287.12, 188.07 284.80, 191.50 282.50 C 196.48 280.96, 200.35 277.31, 202.50 273.50 C 213.47 254.72, 198.65 230.60, 177.50 233.50 Z" fill="rgb(151.08641975308643,184.82716049382717,157.8641975308642)" stroke="rgb(151.08641975308643,184.82716049382717,157.8641975308642)" stroke-width="1" />
<path d="M 403.50 308.50 C 401.80 311.60, 402.72 315.79, 402.50 319.50 C 402.50 324.83, 402.50 329.17, 402.50 333.50 C 404.11 339.56, 402.72 343.79, 402.50 348.50 C 403.28 353.33, 399.99 361.74, 406.50 360.50 C 411.50 360.50, 415.50 360.50, 419.50 360.50 C 424.73 359.92, 429.95 361.72, 433.50 359.50 C 434.13 356.07, 433.07 351.18, 433.50 347.50 C 433.50 342.50, 433.50 338.50, 433.50 334.50 C 433.50 329.50, 433.50 325.50, 433.50 321.50 C 433.50 316.50, 433.50 312.50, 433.50 308.50 C 428.17 308.50, 423.83 308.50, 419.50 308.50 C 413.83 308.50, 409.17 308.50, 404.50 308.50 Z" fill="rgb(211.9565992865636,145.3793103448276,121.86504161712247)" stroke="rgb(211.9565992865636,145.3793103448276,121.86504161712247)" stroke-width="1" />
<path d="M 334.50 250.50 C 263.80 304.47, 413.30 294.65, 334.50 250.50 Z" fill="rgb(nan,nan,nan)" stroke="rgb(nan,nan,nan)" stroke-width="1" />
<path d="M 334.50 250.50 C 331.05 252.37, 326.50 251.55, 323.50 254.50 C 318.64 257.40, 315.39 261.98, 315.50 266.50 C 314.50 270.17, 314.50 272.83, 314.50 275.50 C 315.39 279.55, 316.12 282.66, 317.50 285.50 C 321.41 289.05, 323.76 292.95, 327.50 293.50 C 331.42 295.03, 334.17 295.97, 337.50 295.50 C 342.73 295.53, 346.16 293.61, 349.50 291.50 C 354.69 288.74, 356.21 283.43, 357.50 279.50 C 357.05 276.10, 360.28 273.55, 357.50 271.50 C 357.24 264.97, 354.87 260.32, 350.50 256.50 C 345.63 251.90, 340.45 251.48, 335.50 250.50 Z" fill="rgb(185.56633906633905,210.78071253071252,185.76658476658477)" stroke="rgb(185.56633906633905,210.78071253071252,185.76658476658477)" stroke-width="1" />
<path d="M 5.50 293.50 C 1.98 294.78, -0.71 295.79, 0.50 300.50 C 0.50 306.17, 0.50 310.83, 0.50 315.50 C 0.50 321.17, 0.50 325.83, 0.50 330.50 C 0.50 336.17, 0.50 340.83, 0.50 345.50 C 0.50 351.50, 0.50 356.50, 0.50 361.50 C 4.83 361.50, 8.17 361.50, 11.50 361.50 C 15.85 361.50, 21.77 362.37, 20.50 357.50 C 20.50 352.50, 20.50 348.50, 20.50 344.50 C 20.50 339.50, 20.50 335.50, 20.50 331.50 C 20.50 326.50, 20.50 322.50, 20.50 318.50 C 20.50 313.50, 20.50 309.50, 20.50 305.50 C 20.76 300.84, 18.83 298.09, 16.50 295.50 C 13.25 293.03, 9.79 293.47, 6.50 293.50 Z" fill="rgb(175.17090395480227,210.09887005649716,180.10875706214688)" stroke="rgb(175.17090395480227,210.09887005649716,180.10875706214688)" stroke-width="1" />
<path d="M 176.50 233.50 C 173.61 235.11, 170.02 235.01, 167.50 237.50 C 163.65 240.29, 160.71 243.04, 159.50 246.50 C 157.68 250.91, 155.82 253.88, 155.50 257.50 C 161.25 257.82, 165.04 259.46, 169.50 259.50 C 175.14 259.08, 178.71 261.28, 183.50 260.50 C 187.85 261.13, 191.51 261.01, 194.50 262.50 C 198.89 262.00, 203.34 263.24, 205.50 262.50 C 206.35 259.09, 207.10 255.31, 205.50 252.50 C 203.87 246.04, 199.86 240.49, 194.50 237.50 C 191.05 236.11, 189.17 234.36, 186.50 234.50 C 183.56 232.41, 180.10 233.99, 177.50 233.50 Z" fill="rgb(186.3688736027515,209.68873602751503,184.69045571797076)" stroke="rgb(186.3688736027515,209.68873602751503,184.69045571797076)" stroke-width="1" />
<path d="M 587.50 228.50 C 577.55 231.66, 576.62 249.60, 588.50 249.50 C 589.50 259.83, 589.50 269.17, 589.50 278.50 C 590.62 302.05, 586.01 322.22, 586.50 344.50 C 571.67 360.32, 603.17 365.68, 595.50 347.50 C 583.71 326.69, 594.55 300.34, 592.50 277.50 C 592.50 268.50, 592.50 260.50, 592.50 252.50 C 605.21 246.40, 602.73 226.39, 588.50 228.50 Z" fill="rgb(158.64,199.52,169.82)" stroke="rgb(158.64,199.52,169.82)" stroke-width="1" />
<path d="M 120.50 228.50 C 115.59 230.98, 112.38 236.03, 112.50 241.50 C 113.44 247.82, 117.28 252.18, 122.50 253.50 C 123.50 257.50, 123.50 260.50, 123.50 263.50 C 124.28 267.65, 124.84 270.89, 124.50 274.50 C 124.04 277.78, 125.54 280.87, 123.50 282.50 C 123.50 286.17, 123.50 288.83, 123.50 291.50 C 123.50 295.83, 123.50 299.17, 123.50 302.50 C 123.50 306.83, 123.50 310.17, 123.50 313.50 C 123.50 317.83, 123.50 321.17, 123.50 324.50 C 123.50 328.83, 123.50 332.17, 123.50 335.50 C 123.15 342.43, 125.93 347.93, 123.50 353.50 C 119.99 361.64, 134.58 361.36, 134.50 356.50 C 134.78 349.48, 126.24 347.10, 125.50 341.50 C 125.50 336.83, 125.50 333.17, 125.50 329.50 C 125.50 324.50, 125.50 320.50, 125.50 316.50 C 125.50 311.50, 125.50 307.50, 125.50 303.50 C 125.50 298.50, 125.50 294.50, 125.50 290.50 C 125.50 286.83, 125.50 284.17, 125.50 281.50 C 125.50 277.83, 125.50 275.17, 125.50 272.50 C 125.50 268.83, 125.50 266.17, 125.50 263.50 C 125.50 259.83, 125.50 257.17, 125.50 254.50 C 141.92 252.01, 138.99 223.69, 121.50 228.50 Z" fill="rgb(53.56012658227848,39.76898734177215,61.528481012658226)" stroke="rgb(53.56012658227848,39.76898734177215,61.528481012658226)" stroke-width="1" />
<path d="M 476.50 305.50 C 474.85 318.35, 474.83 335.63, 476.50 347.50 C 483.38 346.88, 490.30 348.76, 495.50 346.50 C 495.08 340.85, 495.87 336.71, 496.50 332.50 C 496.48 326.70, 496.89 321.73, 495.50 317.50 C 497.66 312.36, 497.57 303.02, 490.50 305.50 C 485.61 306.93, 482.13 304.85, 477.50 305.50 Z" fill="rgb(222.2775119617225,203.0287081339713,169.44976076555025)" stroke="rgb(222.2775119617225,203.0287081339713,169.44976076555025)" stroke-width="1" />
<path d="M 235.50 310.50 C 235.50 313.17, 235.50 315.83, 235.50 318.50 C 235.50 322.50, 235.50 325.50, 235.50 328.50 C 235.50 332.17, 235.50 334.83, 235.50 337.50 C 235.50 341.50, 235.50 344.50, 235.50 347.50 C 239.75 347.96, 243.92 349.66, 246.50 347.50 C 249.47 348.08, 252.18 349.48, 253.50 347.50 C 254.50 341.50, 254.50 336.50, 254.50 331.50 C 254.50 328.17, 254.50 325.83, 254.50 323.50 C 254.50 319.83, 254.50 317.17, 254.50 314.50 C 255.95 308.71, 250.32 311.01, 247.50 310.50 C 243.17 310.50, 239.83 310.50, 236.50 310.50 Z" fill="rgb(150.81653746770027,189.69250645994833,164.57751937984497)" stroke="rgb(150.81653746770027,189.69250645994833,164.57751937984497)" stroke-width="1" />
<path d="M 52.50 308.50 C 52.50 310.83, 52.50 313.17, 52.50 315.50 C 52.50 319.17, 52.50 321.83, 52.50 324.50 C 52.50 328.17, 52.50 330.83, 52.50 333.50 C 52.50 337.17, 52.50 339.83, 52.50 342.50 C 55.17 343.50, 57.83 343.50, 60.50 343.50 C 64.50 343.50, 67.50 343.50, 70.50 343.50 C 71.50 341.17, 71.50 338.83, 71.50 336.50 C 71.50 332.83, 71.50 330.17, 71.50 327.50 C 71.50 323.83, 71.50 321.17, 71.50 318.50 C 71.50 314.83, 71.50 312.17, 71.50 309.50 C 68.83 308.50, 66.17 308.50, 63.50 308.50 C 59.50 308.50, 56.50 308.50, 53.50 308.50 Z" fill="rgb(116.3714859437751,107.61847389558233,119.91767068273093)" stroke="rgb(116.3714859437751,107.61847389558233,119.91767068273093)" stroke-width="1" />
<path d="M 591.50 232.50 C 589.28 236.05, 591.08 241.27, 590.50 245.50 C 590.50 249.83, 590.50 253.17, 590.50 256.50 C 590.28 261.21, 591.20 265.40, 589.50 268.50 C 589.50 273.50, 589.50 277.50, 589.50 281.50 C 589.50 286.83, 589.50 291.17, 589.50 295.50 C 590.27 300.29, 587.96 302.81, 588.50 306.50 C 589.11 311.56, 587.73 314.79, 587.50 318.50 C 588.20 323.26, 586.50 326.03, 586.50 329.50 C 586.51 337.72, 587.63 345.41, 582.50 350.50 C 580.17 359.38, 587.42 360.50, 593.50 359.50 C 599.10 353.88, 594.98 344.88, 590.50 340.50 C 589.50 336.50, 589.50 333.50, 589.50 330.50 C 588.96 325.81, 591.27 323.29, 590.50 319.50 C 590.15 314.55, 592.28 311.63, 591.50 307.50 C 591.50 303.17, 591.50 299.83, 591.50 296.50 C 593.40 291.48, 592.14 286.16, 592.50 281.50 C 592.50 275.50, 592.50 270.50, 592.50 265.50 C 592.89 259.52, 591.55 253.83, 593.50 249.50 C 592.96 242.46, 594.07 238.68, 592.50 232.50 Z" fill="rgb(58.13486005089059,53.36641221374046,77.05343511450381)" stroke="rgb(58.13486005089059,53.36641221374046,77.05343511450381)" stroke-width="1" />
<path d="M 88.50 318.50 C 85.85 330.25, 88.38 345.85, 87.50 359.50 C 99.90 360.24, 112.08 361.74, 107.50 346.50 C 85.88 354.32, 108.61 314.54, 89.50 318.50 Z" fill="rgb(65.86666666666666,34.8,56.266666666666666)" stroke="rgb(65.86666666666666,34.8,56.266666666666666)" stroke-width="1" />
<path d="M 452.50 354.50 C 452.94 356.39, 451.14 360.53, 454.50 359.50 C 457.83 359.50, 460.17 359.50, 462.50 359.50 C 466.17 359.50, 468.83 359.50, 471.50 359.50 C 477.50 359.50, 482.50 359.50, 487.50 359.50 C 490.83 359.50, 493.17 359.50, 495.50 359.50 C 499.17 359.50, 501.83 359.50, 504.50 359.50 C 510.50 359.50, 515.50 359.50, 520.50 359.50 C 523.83 359.50, 526.17 359.50, 528.50 359.50 C 532.17 359.50, 534.83 359.50, 537.50 359.50 C 541.17 359.50, 543.83 359.50, 546.50 359.50 C 551.43 360.77, 550.47 357.14, 550.50 354.50 C 545.83 354.50, 542.17 354.50, 538.50 354.50 C 533.83 354.50, 530.17 354.50, 526.50 354.50 C 521.83 354.50, 518.17 354.50, 514.50 354.50 C 509.83 354.50, 506.17 354.50, 502.50 354.50 C 497.83 354.50, 494.17 354.50, 490.50 354.50 C 485.83 354.50, 482.17 354.50, 478.50 354.50 C 473.83 354.50, 470.17 354.50, 466.50 354.50 C 461.50 354.50, 457.50 354.50, 453.50 354.50 Z" fill="rgb(52.602693602693606,9.6010101010101,46.388888888888886)" stroke="rgb(52.602693602693606,9.6010101010101,46.388888888888886)" stroke-width="1" />
<path d="M 288.50 147.50 C 245.75 167.26, 324.27 200.21, 291.50 175.50 C 272.28 157.91, 318.29 144.35, 289.50 147.50 Z" fill="rgb(99.73170731707317,167.90243902439025,143.78048780487805)" stroke="rgb(99.73170731707317,167.90243902439025,143.78048780487805)" stroke-width="1" />
<path d="M 289.50 147.50 C 268.48 153.55, 275.95 188.55, 298.50 184.50 C 312.74 178.25, 296.56 182.86, 292.50 176.50 C 282.22 167.45, 287.89 149.86, 300.50 149.50 C 304.18 148.70, 294.15 146.46, 290.50 147.50 Z" fill="rgb(152.65,189.1,159.5)" stroke="rgb(152.65,189.1,159.5)" stroke-width="1" />
<path d="M 289.50 147.50 C 286.84 149.52, 283.83 150.68, 281.50 153.50 C 279.30 157.42, 277.02 159.89, 277.50 163.50 C 275.90 168.02, 278.65 170.16, 278.50 173.50 C 281.52 179.01, 286.07 182.05, 290.50 184.50 C 296.70 186.27, 300.94 184.70, 304.50 181.50 C 300.66 181.05, 297.49 179.99, 294.50 178.50 C 290.40 174.62, 287.74 171.56, 287.50 167.50 C 286.50 162.98, 287.69 159.84, 289.50 156.50 C 292.38 152.40, 295.44 149.74, 299.50 149.50 C 299.61 145.59, 293.63 148.31, 290.50 147.50 Z" fill="rgb(231.88934426229508,222.9262295081967,184.86885245901638)" stroke="rgb(231.88934426229508,222.9262295081967,184.86885245901638)" stroke-width="1" />
<path d="M 120.50 228.50 C 115.85 230.78, 112.81 235.52, 112.50 240.50 C 113.08 246.25, 115.91 252.45, 121.50 252.50 C 123.09 247.94, 121.27 242.38, 123.50 238.50 C 128.43 240.81, 125.68 246.90, 126.50 251.50 C 129.19 252.69, 133.10 252.48, 133.50 249.50 C 135.63 245.69, 137.18 243.06, 136.50 239.50 C 136.95 235.12, 134.76 231.36, 131.50 230.50 C 127.97 228.04, 124.61 228.57, 121.50 228.50 Z" fill="rgb(210.8267223382046,134.27348643006263,108.98956158663883)" stroke="rgb(210.8267223382046,134.27348643006263,108.98956158663883)" stroke-width="1" />
<path d="M 283.50 309.50 C 281.22 315.36, 283.12 322.95, 282.50 329.50 C 282.33 334.01, 281.67 337.99, 286.50 336.50 C 290.83 336.50, 294.17 336.50, 297.50 336.50 C 298.50 332.50, 298.50 329.50, 298.50 326.50 C 298.50 322.50, 298.50 319.50, 298.50 316.50 C 300.40 310.43, 295.31 307.38, 291.50 310.50 C 288.78 309.88, 286.07 311.85, 284.50 309.50 Z" fill="rgb(167.23282442748092,158.68320610687022,155.4770992366412)" stroke="rgb(167.23282442748092,158.68320610687022,155.4770992366412)" stroke-width="1" />
<path d="M 189.50 263.50 C 187.40 267.13, 182.23 267.34, 180.50 269.50 C 180.50 273.83, 180.50 277.17, 180.50 280.50 C 178.69 286.24, 184.73 284.00, 187.50 284.50 C 192.86 283.19, 196.35 280.75, 199.50 277.50 C 203.50 273.39, 204.86 269.59, 205.50 265.50 C 200.17 264.96, 195.96 262.72, 190.50 263.50 Z" fill="rgb(186.4158878504673,210.66121495327104,183.35981308411215)" stroke="rgb(186.4158878504673,210.66121495327104,183.35981308411215)" stroke-width="1" />
<path d="M 155.50 259.50 C 155.02 265.25, 156.72 270.10, 159.50 274.50 C 162.46 278.14, 164.05 279.02, 166.50 281.50 C 169.86 283.25, 172.55 284.18, 175.50 284.50 C 177.20 280.40, 176.28 276.21, 176.50 272.50 C 178.98 267.10, 173.15 265.50, 171.50 261.50 C 166.14 261.04, 161.48 259.89, 156.50 259.50 Z" fill="rgb(188.7712895377129,211.25547445255475,186.01216545012164)" stroke="rgb(188.7712895377129,211.25547445255475,186.01216545012164)" stroke-width="1" />
<path d="M 587.50 228.50 C 583.15 230.22, 580.39 233.91, 579.50 238.50 C 579.12 244.25, 582.35 249.60, 587.50 249.50 C 590.63 248.24, 588.98 244.42, 589.50 241.50 C 589.93 237.40, 588.17 233.40, 591.50 231.50 C 594.74 236.71, 592.90 242.61, 593.50 247.50 C 592.60 252.28, 596.94 248.14, 598.50 247.50 C 600.94 243.18, 601.66 239.25, 600.50 235.50 C 597.96 230.12, 593.19 227.67, 588.50 228.50 Z" fill="rgb(206.6,135.9830985915493,110.45633802816901)" stroke="rgb(206.6,135.9830985915493,110.45633802816901)" stroke-width="1" />
<path d="M 72.50 155.50 C 82.56 159.58, 87.43 177.62, 75.50 183.50 C 82.61 190.51, 99.24 173.68, 90.50 162.50 C 86.52 155.43, 80.20 155.01, 73.50 155.50 Z" fill="rgb(142.375,187.95833333333334,162.125)" stroke="rgb(142.375,187.95833333333334,162.125)" stroke-width="1" />
<path d="M 74.50 155.50 C 74.06 158.73, 81.59 158.73, 80.50 163.50 C 83.10 167.31, 82.35 171.09, 82.50 174.50 C 82.06 180.02, 76.17 182.82, 74.50 185.50 C 79.73 185.86, 83.35 184.75, 86.50 182.50 C 91.30 178.85, 91.95 174.91, 91.50 170.50 C 91.57 165.73, 91.54 160.60, 87.50 159.50 C 83.72 155.35, 79.64 155.37, 75.50 155.50 Z" fill="rgb(185.70093457943926,209.91277258566979,182.82242990654206)" stroke="rgb(185.70093457943926,209.91277258566979,182.82242990654206)" stroke-width="1" />
<path d="M 88.50 318.50 C 86.30 321.73, 88.07 326.60, 87.50 330.50 C 87.50 335.50, 87.50 339.50, 87.50 343.50 C 88.31 347.70, 96.58 347.54, 97.50 344.50 C 97.50 340.17, 97.50 336.83, 97.50 333.50 C 97.50 329.17, 97.50 325.83, 97.50 322.50 C 98.31 316.76, 92.27 319.00, 89.50 318.50 Z" fill="rgb(127.59731543624162,139.78523489932886,121.0738255033557)" stroke="rgb(127.59731543624162,139.78523489932886,121.0738255033557)" stroke-width="1" />
<path d="M 178.50 262.50 C 179.11 267.56, 177.72 271.79, 177.50 276.50 C 178.26 282.62, 175.91 286.45, 176.50 291.50 C 176.50 295.97, 174.80 298.74, 175.50 302.50 C 175.50 306.97, 173.80 309.74, 174.50 313.50 C 174.75 317.74, 172.73 320.04, 173.50 323.50 C 173.50 327.97, 171.80 330.74, 172.50 334.50 C 173.28 340.29, 171.08 343.86, 171.50 348.50 C 171.83 353.79, 171.03 359.49, 171.50 362.50 C 175.14 361.07, 172.87 356.18, 173.50 352.50 C 172.72 347.37, 174.85 344.45, 174.50 340.50 C 173.76 335.05, 175.66 331.70, 175.50 327.50 C 174.72 321.71, 176.92 318.14, 176.50 313.50 C 175.74 308.05, 178.07 304.87, 177.50 300.50 C 176.76 295.05, 178.66 291.70, 178.50 287.50 C 177.89 282.44, 179.27 279.21, 179.50 275.50 C 179.50 270.50, 179.50 266.50, 179.50 262.50 Z" fill="rgb(48.93624161073826,43.74496644295302,81.66107382550335)" stroke="rgb(48.93624161073826,43.74496644295302,81.66107382550335)" stroke-width="1" />
<path d="M 105.50 345.50 C 103.56 347.59, 100.10 346.01, 97.50 346.50 C 94.17 347.50, 91.83 347.50, 89.50 347.50 C 86.26 347.93, 88.09 352.43, 87.50 354.50 C 85.80 360.87, 90.94 359.39, 94.50 359.50 C 99.17 359.50, 102.83 359.50, 106.50 359.50 C 107.50 357.17, 107.50 354.83, 107.50 352.50 C 106.92 349.74, 108.71 345.62, 106.50 345.50 Z" fill="rgb(158.47202797202797,123.32517482517483,107.75174825174825)" stroke="rgb(158.47202797202797,123.32517482517483,107.75174825174825)" stroke-width="1" />
<path d="M 376.50 310.50 C 376.50 313.83, 376.50 317.17, 376.50 320.50 C 376.50 325.17, 376.50 328.83, 376.50 332.50 C 377.78 335.24, 384.24 335.04, 386.50 333.50 C 386.01 329.90, 387.59 326.44, 385.50 324.50 C 385.93 319.74, 385.44 318.44, 386.50 314.50 C 387.15 308.48, 380.50 311.17, 377.50 310.50 Z" fill="rgb(115.66417910447761,105.69776119402985,96.86194029850746)" stroke="rgb(115.66417910447761,105.69776119402985,96.86194029850746)" stroke-width="1" />
<path d="M 588.50 340.50 C 587.13 342.48, 587.13 345.04, 584.50 346.50 C 581.98 350.22, 580.65 358.37, 585.50 359.50 C 589.10 359.01, 592.56 360.59, 594.50 358.50 C 596.32 355.35, 597.63 351.55, 595.50 349.50 C 594.56 345.25, 592.86 341.94, 589.50 340.50 Z" fill="rgb(39.48684210526316,17.30263157894737,58.28947368421053)" stroke="rgb(39.48684210526316,17.30263157894737,58.28947368421053)" stroke-width="1" />
<path d="M 553.50 35.50 C 553.53 40.40, 546.80 45.75, 543.50 39.50 C 541.18 35.92, 540.65 45.92, 542.50 47.50 C 545.27 52.22, 551.29 52.63, 554.50 49.50 C 556.93 44.74, 557.50 38.70, 554.50 35.50 Z" fill="rgb(182.64835164835165,208.75274725274724,186.62637362637363)" stroke="rgb(182.64835164835165,208.75274725274724,186.62637362637363)" stroke-width="1" />
<path d="M 125.50 345.50 C 123.58 348.12, 124.92 352.09, 122.50 354.50 C 121.28 360.03, 125.98 361.22, 129.50 360.50 C 134.03 360.14, 135.48 358.17, 135.50 354.50 C 133.58 350.31, 130.40 345.55, 126.50 345.50 Z" fill="rgb(42.160714285714285,32.07738095238095,57.726190476190474)" stroke="rgb(42.160714285714285,32.07738095238095,57.726190476190474)" stroke-width="1" />
<path d="M 88.50 327.50 C 85.64 331.12, 89.81 335.15, 88.50 339.50 C 86.95 345.85, 90.81 347.50, 95.50 346.50 C 95.50 341.83, 95.50 338.17, 95.50 334.50 C 96.71 328.89, 94.11 326.29, 89.50 327.50 Z" fill="rgb(105.03067484662577,78.04294478527608,81.15950920245399)" stroke="rgb(105.03067484662577,78.04294478527608,81.15950920245399)" stroke-width="1" />
<path d="M 63.50 320.50 C 63.50 323.17, 63.50 325.83, 63.50 328.50 C 63.50 332.50, 63.50 335.50, 63.50 338.50 C 62.23 343.43, 65.86 342.47, 68.50 342.50 C 69.50 339.83, 69.50 337.17, 69.50 334.50 C 69.50 330.50, 69.50 327.50, 69.50 324.50 C 70.77 319.57, 67.14 320.53, 64.50 320.50 Z" fill="rgb(37.03105590062112,19.31055900621118,41.099378881987576)" stroke="rgb(37.03105590062112,19.31055900621118,41.099378881987576)" stroke-width="1" />
<path d="M 475.50 333.50 C 475.50 337.83, 475.50 342.17, 475.50 346.50 C 478.42 346.98, 482.24 348.63, 484.50 346.50 C 484.50 342.50, 484.50 339.50, 484.50 336.50 C 484.17 331.83, 479.03 334.15, 476.50 333.50 Z" fill="rgb(112.21621621621621,102.27702702702703,100.97972972972973)" stroke="rgb(112.21621621621621,102.27702702702703,100.97972972972973)" stroke-width="1" />
<path d="M 487.50 333.50 C 487.50 336.83, 487.50 340.17, 487.50 343.50 C 485.86 349.15, 493.38 347.89, 495.50 346.50 C 495.50 342.50, 495.50 339.50, 495.50 336.50 C 496.30 331.70, 490.77 334.23, 488.50 333.50 Z" fill="rgb(119.17293233082707,103.49624060150376,102.44360902255639)" stroke="rgb(119.17293233082707,103.49624060150376,102.44360902255639)" stroke-width="1" />
<path d="M 476.50 319.50 C 474.34 322.08, 476.04 326.25, 475.50 329.50 C 478.21 329.88, 483.44 331.77, 484.50 329.50 C 484.50 326.17, 484.50 323.83, 484.50 321.50 C 482.87 318.46, 479.78 319.96, 477.50 319.50 Z" fill="rgb(113.83760683760684,98.51282051282051,101.77777777777777)" stroke="rgb(113.83760683760684,98.51282051282051,101.77777777777777)" stroke-width="1" />
<path d="M 475.50 306.50 C 475.50 309.17, 475.50 311.83, 475.50 314.50 C 476.24 317.76, 481.11 315.89, 483.50 316.50 C 484.50 313.83, 484.50 311.17, 484.50 308.50 C 483.76 305.24, 478.89 307.11, 476.50 306.50 Z" fill="rgb(114.11818181818182,116.03636363636363,116.45454545454545)" stroke="rgb(114.11818181818182,116.03636363636363,116.45454545454545)" stroke-width="1" />
<path d="M 487.50 319.50 C 487.50 322.17, 487.50 324.83, 487.50 327.50 C 486.55 332.11, 491.44 329.89, 493.50 330.50 C 496.76 329.76, 494.89 324.89, 495.50 322.50 C 496.30 317.70, 490.77 320.23, 488.50 319.50 Z" fill="rgb(98.69444444444444,96.69444444444444,100.44444444444444)" stroke="rgb(98.69444444444444,96.69444444444444,100.44444444444444)" stroke-width="1" />
<path d="M 487.50 306.50 C 487.50 309.17, 487.50 311.83, 487.50 314.50 C 488.24 317.76, 493.11 315.89, 495.50 316.50 C 495.50 313.17, 495.50 310.83, 495.50 308.50 C 495.07 305.26, 490.57 307.09, 488.50 306.50 Z" fill="rgb(98.97979797979798,96.8989898989899,100.63636363636364)" stroke="rgb(98.97979797979798,96.8989898989899,100.63636363636364)" stroke-width="1" />
<path d="M 283.50 323.50 C 284.44 327.55, 280.72 336.59, 287.50 335.50 C 288.50 332.17, 288.50 329.83, 288.50 327.50 C 289.50 323.16, 287.11 323.22, 284.50 323.50 Z" fill="rgb(65.18666666666667,38.89333333333333,44.986666666666665)" stroke="rgb(65.18666666666667,38.89333333333333,44.986666666666665)" stroke-width="1" />
<path d="M 291.50 311.50 C 289.86 312.77, 292.48 315.19, 291.50 317.50 C 290.47 321.86, 294.61 320.06, 296.50 320.50 C 297.30 316.03, 299.31 309.35, 292.50 311.50 Z" fill="rgb(82.94285714285714,67.88571428571429,77.72857142857143)" stroke="rgb(82.94285714285714,67.88571428571429,77.72857142857143)" stroke-width="1" />
<path d="M 63.50 310.50 C 63.42 314.91, 62.20 320.46, 68.50 318.50 C 69.58 314.09, 70.80 308.54, 64.50 310.50 Z" fill="rgb(35.967213114754095,18.131147540983605,39.950819672131146)" stroke="rgb(35.967213114754095,18.131147540983605,39.950819672131146)" stroke-width="1" />
<path d="M 283.50 311.50 C 284.10 315.24, 281.28 322.39, 287.50 320.50 C 287.90 316.76, 290.72 309.61, 284.50 311.50 Z" fill="rgb(63.63793103448276,54.63793103448276,61.793103448275865)" stroke="rgb(63.63793103448276,54.63793103448276,61.793103448275865)" stroke-width="1" />
<path d="M 111.50 340.50 C 112.00 343.51, 109.72 345.37, 110.50 348.50 C 110.43 352.61, 110.96 355.97, 109.50 358.50 C 113.17 359.17, 110.85 354.03, 111.50 351.50 C 111.50 347.50, 111.50 344.50, 111.50 341.50 Z" fill="rgb(54.39473684210526,35.026315789473685,58.73684210526316)" stroke="rgb(54.39473684210526,35.026315789473685,58.73684210526316)" stroke-width="1" />
</svg>