<svg xmlns="http://www.w3.org/2000/svg" width="512" height="512" viewbox="0 0 512 512">
<path d="M 0.00 0.00 C 0.00 170.00, 0.00 340.00, 0.00 510.00 C 170.00 511.00, 340.00 511.00, 510.00 511.00 C 511.00 341.00, 511.00 171.00, 511.00 1.00 C 341.00 0.00, 171.00 0.00, 1.00 0.00 Z" fill="rgb(10.06489903254602,10.06489903254602,10.06489903254602)" stroke="rgb(10.06489903254602,10.06489903254602,10.06489903254602)" stroke-width="1" />
<path d="M 252.00 0.00 C 244.58 3.27, 235.71 3.01, 229.00 8.00 C 224.31 9.94, 220.72 12.13, 217.00 14.00 C 212.36 17.20, 207.97 17.60, 204.00 19.00 C 195.37 21.42, 187.42 23.08, 180.00 26.00 C 171.25 29.94, 162.87 32.35, 155.00 36.00 C 146.50 40.73, 138.78 44.95, 131.00 49.00 C 122.23 55.05, 113.40 60.96, 107.00 67.00 C 103.10 71.09, 98.25 72.49, 96.00 76.00 C 91.46 79.35, 88.74 83.67, 85.00 86.00 C 77.97 93.71, 72.51 101.01, 66.00 109.00 C 59.93 117.64, 54.79 125.25, 50.00 133.00 C 46.29 142.40, 40.23 149.41, 38.00 158.00 C 33.47 166.78, 31.70 175.29, 28.00 183.00 C 28.49 188.28, 24.83 190.85, 25.00 195.00 C 23.52 199.67, 23.49 203.93, 23.00 208.00 C 20.84 216.60, 19.55 224.15, 19.00 232.00 C 18.70 241.01, 17.43 248.62, 18.00 257.00 C 17.31 262.09, 19.69 264.91, 19.00 269.00 C 19.93 274.18, 18.74 277.47, 20.00 282.00 C 19.67 291.69, 23.02 298.85, 24.00 307.00 C 24.44 315.99, 30.02 323.28, 28.00 331.00 C 28.00 335.67, 28.00 339.33, 28.00 343.00 C 25.24 348.51, 19.17 348.57, 16.00 352.00 C 6.99 357.16, 7.94 369.35, 12.00 376.00 C 13.23 380.32, 14.33 385.26, 17.00 387.00 C 21.14 392.41, 27.32 389.48, 30.00 395.00 C 36.75 402.13, 46.31 397.73, 54.00 398.00 C 58.54 394.17, 63.55 397.26, 62.00 402.00 C 62.00 407.00, 62.00 411.00, 62.00 415.00 C 63.69 424.13, 65.15 432.35, 68.00 440.00 C 70.43 445.04, 73.27 448.50, 76.00 452.00 C 80.23 456.13, 82.73 459.09, 86.00 463.00 C 93.95 470.07, 102.27 473.82, 110.00 479.00 C 114.74 481.21, 116.85 484.25, 116.00 489.00 C 115.53 495.02, 118.95 498.43, 122.00 502.00 C 130.06 507.27, 138.50 508.20, 147.00 509.00 C 155.48 510.92, 163.54 511.44, 172.00 511.00 C 180.67 511.00, 188.33 511.00, 196.00 511.00 C 200.67 511.00, 204.33 511.00, 208.00 511.00 C 213.32 511.11, 216.23 507.81, 221.00 509.00 C 229.30 505.64, 238.70 508.36, 246.00 506.00 C 256.19 505.54, 261.85 507.57, 271.00 507.00 C 275.90 506.77, 279.60 507.03, 283.00 508.00 C 287.50 506.28, 291.83 509.91, 295.00 508.00 C 303.86 510.68, 312.90 507.69, 320.00 508.00 C 324.71 508.22, 328.90 507.30, 332.00 509.00 C 336.77 506.99, 340.91 510.38, 345.00 508.00 C 354.31 508.07, 362.31 507.41, 370.00 506.00 C 378.87 505.48, 386.22 503.72, 394.00 503.00 C 398.26 501.01, 402.91 502.40, 406.00 500.00 C 410.89 498.73, 415.62 499.50, 419.00 497.00 C 423.23 494.27, 427.93 495.12, 431.00 492.00 C 436.08 489.86, 440.17 487.74, 444.00 485.00 C 453.69 478.95, 460.32 469.99, 466.00 462.00 C 471.17 454.10, 474.15 446.28, 476.00 438.00 C 477.46 433.39, 475.73 428.45, 480.00 426.00 C 485.61 425.82, 489.58 424.08, 493.00 421.00 C 494.50 415.99, 497.58 412.63, 500.00 409.00 C 502.26 404.79, 502.81 399.64, 501.00 396.00 C 499.12 390.87, 495.63 387.40, 492.00 384.00 C 487.37 379.67, 490.32 374.93, 491.00 371.00 C 492.21 361.14, 488.61 354.28, 486.00 347.00 C 484.28 336.87, 488.85 329.94, 491.00 322.00 C 493.78 313.32, 494.25 304.69, 497.00 297.00 C 496.93 292.03, 498.08 288.56, 499.00 285.00 C 499.57 280.10, 497.80 275.23, 500.00 272.00 C 500.00 263.33, 500.00 255.67, 500.00 248.00 C 500.78 238.54, 498.53 231.33, 499.00 223.00 C 497.66 213.59, 495.03 206.13, 494.00 198.00 C 492.19 193.67, 491.32 189.95, 491.00 186.00 C 489.39 181.12, 486.98 177.56, 487.00 173.00 C 483.79 164.01, 479.92 156.70, 477.00 149.00 C 475.78 143.73, 471.33 141.22, 471.00 137.00 C 467.72 131.98, 465.14 128.08, 463.00 124.00 C 458.01 114.30, 449.70 107.40, 445.00 99.00 C 437.68 91.11, 430.79 83.57, 423.00 76.00 C 419.02 71.60, 414.22 68.96, 415.00 64.00 C 414.78 59.29, 415.70 55.10, 414.00 52.00 C 413.69 46.91, 411.08 43.77, 410.00 40.00 C 407.93 34.18, 404.64 31.85, 402.00 28.00 C 394.10 20.34, 386.06 16.45, 377.00 15.00 C 367.63 13.76, 359.35 13.76, 352.00 16.00 C 346.86 17.52, 343.57 20.10, 340.00 22.00 C 335.50 25.16, 331.17 23.64, 328.00 22.00 C 318.94 19.48, 309.99 19.11, 303.00 14.00 C 294.80 8.40, 286.37 5.78, 278.00 3.00 C 269.90 -0.17, 260.55 2.08, 253.00 0.00 Z" fill="rgb(241.03251561659704,240.7662267819468,244.0445952095313)" stroke="rgb(241.03251561659704,240.7662267819468,244.0445952095313)" stroke-width="1" />
<path d="M 194.00 340.00 C 188.57 340.35, 187.98 343.62, 186.00 348.00 C 185.07 353.50, 183.72 357.83, 182.00 362.00 C 182.57 369.51, 176.18 370.73, 172.00 368.00 C 166.52 367.36, 162.48 365.64, 158.00 365.00 C 152.65 364.51, 148.96 363.44, 145.00 363.00 C 140.13 361.93, 135.63 363.26, 131.00 362.00 C 126.42 362.89, 121.82 363.56, 117.00 364.00 C 112.11 367.07, 107.05 367.33, 103.00 370.00 C 97.65 373.15, 93.72 376.32, 90.00 380.00 C 85.80 384.72, 82.30 388.28, 80.00 393.00 C 76.44 401.95, 74.82 411.93, 77.00 421.00 C 78.11 426.37, 80.21 429.91, 81.00 434.00 C 84.15 439.18, 87.27 444.44, 91.00 447.00 C 95.79 452.98, 100.76 455.11, 105.00 459.00 C 110.64 461.58, 114.07 466.10, 119.00 467.00 C 128.60 471.83, 136.61 477.07, 146.00 479.00 C 151.13 481.17, 155.76 482.11, 160.00 484.00 C 165.63 484.28, 169.26 486.97, 174.00 487.00 C 178.44 489.34, 183.27 488.34, 187.00 490.00 C 191.69 492.22, 197.20 490.06, 201.00 492.00 C 206.34 492.32, 211.29 491.15, 215.00 493.00 C 220.63 491.85, 224.00 492.94, 229.00 492.00 C 239.01 492.49, 246.87 490.23, 256.00 491.00 C 262.85 488.28, 263.34 492.26, 269.00 493.00 C 274.79 492.22, 278.36 494.42, 283.00 494.00 C 288.35 492.65, 292.53 496.52, 296.00 494.00 C 301.63 495.73, 305.26 493.54, 310.00 495.00 C 314.87 493.93, 319.37 495.26, 324.00 494.00 C 329.33 494.00, 333.67 494.00, 338.00 494.00 C 343.20 494.16, 346.55 492.26, 351.00 493.00 C 356.76 493.69, 360.24 491.31, 365.00 492.00 C 370.21 491.37, 374.35 490.58, 379.00 491.00 C 384.76 490.69, 388.24 488.31, 393.00 489.00 C 398.36 487.88, 402.07 486.17, 406.00 485.00 C 411.10 483.11, 416.02 483.19, 420.00 481.00 C 425.99 479.59, 429.70 476.09, 434.00 474.00 C 440.05 470.49, 442.56 464.88, 447.00 462.00 C 448.77 456.63, 455.25 454.21, 455.00 449.00 C 457.60 443.64, 459.68 439.48, 461.00 435.00 C 461.15 429.33, 461.35 424.64, 459.00 421.00 C 456.61 415.93, 454.80 410.10, 450.00 408.00 C 446.12 404.34, 442.11 402.53, 438.00 401.00 C 431.83 400.68, 429.17 395.32, 424.00 396.00 C 418.94 394.01, 414.10 393.89, 410.00 392.00 C 404.37 391.71, 399.87 391.11, 396.00 389.00 C 391.26 387.69, 386.95 387.80, 383.00 387.00 C 377.86 385.54, 373.51 384.56, 369.00 384.00 C 363.77 382.75, 358.82 383.23, 355.00 381.00 C 349.82 379.97, 345.00 380.47, 341.00 379.00 C 335.58 377.35, 334.83 371.70, 333.00 368.00 C 330.03 363.07, 328.89 358.38, 327.00 354.00 C 323.64 349.09, 323.80 343.73, 320.00 340.00 C 314.67 340.00, 310.33 340.00, 306.00 340.00 C 287.00 340.00, 269.00 340.00, 251.00 340.00 C 241.00 340.00, 232.00 340.00, 223.00 340.00 C 217.67 340.00, 213.33 340.00, 209.00 340.00 C 203.64 338.69, 199.72 341.42, 195.00 340.00 Z" fill="rgb(117.95051092445019,59.84157752411037,88.60547538708211)" stroke="rgb(117.95051092445019,59.84157752411037,88.60547538708211)" stroke-width="1" />
<path d="M 284.00 140.00 C 279.12 142.62, 274.29 145.37, 269.00 147.00 C 263.79 149.24, 257.89 147.40, 253.00 148.00 C 246.62 148.21, 241.43 138.94, 237.00 146.00 C 233.35 150.73, 226.85 152.22, 222.00 154.00 C 216.09 156.54, 211.02 158.71, 206.00 161.00 C 199.72 164.32, 195.17 168.42, 190.00 171.00 C 177.70 180.24, 167.56 191.41, 158.00 202.00 C 155.05 208.16, 151.76 212.76, 150.00 218.00 C 147.84 223.93, 146.23 229.10, 144.00 234.00 C 142.61 239.98, 140.51 244.66, 140.00 250.00 C 138.63 256.59, 135.58 261.08, 136.00 267.00 C 135.09 273.31, 132.91 277.69, 133.00 283.00 C 131.25 288.83, 131.04 294.29, 129.00 299.00 C 129.73 302.77, 127.92 304.50, 128.00 307.00 C 129.94 311.65, 125.78 311.59, 124.00 313.00 C 118.89 319.57, 114.14 318.35, 108.00 322.00 C 103.17 326.69, 97.42 327.01, 93.00 331.00 C 88.67 330.93, 87.92 336.08, 85.00 336.00 C 81.56 338.11, 85.19 340.89, 86.00 343.00 C 88.43 349.51, 93.26 353.62, 95.00 359.00 C 96.72 367.52, 105.51 368.22, 110.00 364.00 C 115.72 361.99, 121.05 361.45, 126.00 360.00 C 132.51 360.57, 137.05 358.78, 142.00 358.00 C 147.96 354.25, 152.75 351.06, 158.00 349.00 C 163.42 344.21, 170.98 343.43, 173.00 337.00 C 175.40 331.30, 174.26 325.55, 176.00 321.00 C 178.59 318.46, 175.41 314.54, 178.00 313.00 C 175.38 310.74, 179.90 304.84, 181.00 307.00 C 181.33 312.00, 184.28 317.48, 184.00 323.00 C 187.39 328.66, 186.51 336.18, 191.00 339.00 C 202.33 339.00, 212.67 339.00, 223.00 339.00 C 229.72 338.30, 234.17 339.71, 239.00 338.00 C 245.11 340.01, 250.13 337.06, 256.00 338.00 C 267.33 338.00, 277.67 338.00, 288.00 338.00 C 294.00 338.00, 299.00 338.00, 304.00 338.00 C 309.85 337.02, 317.38 340.17, 320.00 336.00 C 319.92 330.04, 321.66 325.18, 322.00 320.00 C 322.84 313.99, 323.44 309.47, 325.00 304.00 C 326.16 298.20, 327.03 293.29, 327.00 288.00 C 329.19 292.53, 330.64 297.95, 333.00 303.00 C 336.72 308.43, 336.98 314.28, 340.00 319.00 C 343.42 325.10, 344.89 330.60, 349.00 335.00 C 353.63 334.96, 350.49 339.75, 354.00 340.00 C 356.12 343.91, 361.09 341.98, 360.00 346.00 C 366.66 350.22, 371.34 355.78, 377.00 359.00 C 381.68 364.22, 388.57 365.54, 392.00 369.00 C 396.11 373.29, 401.69 374.65, 405.00 379.00 C 410.51 383.20, 417.38 382.91, 421.00 377.00 C 427.43 371.56, 432.78 366.95, 438.00 362.00 C 439.99 358.80, 440.01 356.20, 441.00 354.00 C 437.69 349.91, 435.61 350.16, 433.00 352.00 C 429.70 349.02, 433.63 346.35, 431.00 344.00 C 428.28 341.12, 424.36 345.17, 424.00 341.00 C 422.06 334.56, 416.29 331.15, 413.00 327.00 C 407.13 320.92, 401.29 316.38, 397.00 312.00 C 391.09 305.77, 387.23 301.91, 382.00 297.00 C 378.66 291.42, 378.99 285.73, 377.00 281.00 C 374.93 275.31, 374.80 269.81, 373.00 265.00 C 371.87 258.72, 370.52 253.53, 370.00 248.00 C 368.07 242.39, 367.91 237.04, 367.00 232.00 C 366.04 225.98, 364.96 221.02, 364.00 216.00 C 362.99 209.45, 360.66 204.86, 359.00 200.00 C 355.09 193.91, 353.74 187.75, 349.00 183.00 C 344.92 176.23, 338.72 173.05, 334.00 169.00 C 328.45 165.24, 323.11 163.39, 318.00 161.00 C 311.56 158.39, 307.34 153.85, 302.00 152.00 C 295.58 147.54, 290.61 143.00, 285.00 140.00 Z" fill="rgb(254.63739096910993,254.35070599007275,254.35379017878657)" stroke="rgb(254.63739096910993,254.35070599007275,254.35379017878657)" stroke-width="1" />
<path d="M 281.00 0.00 C 285.29 2.06, 291.05 5.40, 295.00 5.00 C 299.34 9.94, 305.12 11.80, 310.00 15.00 C 315.56 16.58, 321.33 15.27, 325.00 19.00 C 331.26 18.89, 336.93 23.79, 341.00 18.00 C 345.79 13.88, 351.49 14.38, 356.00 12.00 C 361.33 10.05, 367.02 11.39, 372.00 11.00 C 376.67 11.71, 382.47 13.30, 387.00 15.00 C 393.05 17.68, 398.12 21.54, 402.00 25.00 C 407.18 30.32, 410.17 35.13, 413.00 40.00 C 415.44 45.54, 416.88 50.50, 417.00 56.00 C 417.45 61.39, 417.09 67.60, 420.00 70.00 C 423.90 75.00, 429.18 78.62, 433.00 82.00 C 437.34 87.88, 440.63 90.21, 444.00 95.00 C 449.62 100.74, 453.34 105.86, 457.00 111.00 C 460.93 117.17, 464.68 122.00, 468.00 127.00 C 471.26 132.89, 473.54 138.19, 477.00 143.00 C 479.66 148.53, 480.99 153.61, 484.00 158.00 C 486.41 163.83, 487.59 169.17, 490.00 174.00 C 491.14 179.75, 493.83 183.85, 494.00 189.00 C 495.44 195.23, 497.37 199.85, 498.00 205.00 C 500.03 210.24, 499.71 215.45, 501.00 220.00 C 502.49 225.52, 501.92 230.90, 502.00 236.00 C 503.00 247.00, 503.00 257.00, 503.00 267.00 C 502.24 272.18, 501.75 276.52, 502.00 282.00 C 499.93 287.56, 501.39 293.57, 499.00 298.00 C 499.00 301.00, 499.00 303.00, 499.00 305.00 C 501.05 300.71, 501.35 309.49, 503.00 305.00 C 503.44 302.72, 501.89 300.87, 504.00 298.00 C 504.94 292.35, 506.66 298.52, 507.00 300.00 C 507.00 304.38, 507.00 312.93, 507.00 313.00 C 511.47 317.33, 511.11 305.37, 511.00 302.00 C 511.00 290.67, 511.00 280.33, 511.00 270.00 C 511.00 186.33, 511.00 103.67, 511.00 21.00 C 511.00 15.33, 511.00 10.67, 511.00 6.00 C 513.26 -2.26, 505.55 0.45, 501.00 0.00 C 490.00 0.00, 480.00 0.00, 470.00 0.00 C 448.33 0.00, 427.67 0.00, 407.00 0.00 C 364.67 0.00, 323.33 0.00, 282.00 0.00 Z" fill="rgb(0.06501784803671597,0.06501784803671597,0.06501784803671597)" stroke="rgb(0.06501784803671597,0.06501784803671597,0.06501784803671597)" stroke-width="1" />
<path d="M 439.00 118.00 C 433.16 120.25, 427.26 122.34, 422.00 126.00 C 414.63 129.77, 408.77 133.78, 403.00 138.00 C 397.33 142.64, 391.25 145.89, 386.00 151.00 C 379.77 157.43, 371.62 161.83, 369.00 169.00 C 372.10 174.93, 373.53 180.56, 373.00 187.00 C 372.18 194.90, 369.85 201.18, 364.00 206.00 C 365.01 212.80, 366.66 218.34, 368.00 224.00 C 369.06 230.98, 369.57 237.18, 371.00 243.00 C 371.37 249.93, 374.09 254.88, 374.00 261.00 C 375.42 268.38, 377.39 274.12, 379.00 280.00 C 381.64 286.54, 380.85 293.50, 386.00 298.00 C 390.11 302.13, 391.70 298.36, 393.00 296.00 C 395.76 292.63, 399.21 289.95, 402.00 287.00 C 405.33 283.18, 408.34 282.02, 411.00 280.00 C 415.52 279.68, 413.07 274.51, 416.00 273.00 C 424.11 268.27, 428.31 280.33, 435.00 281.00 C 439.01 283.07, 440.79 283.65, 440.00 279.00 C 438.01 275.41, 438.99 271.59, 437.00 269.00 C 436.08 262.11, 434.89 256.32, 435.00 250.00 C 432.39 243.74, 436.18 237.62, 436.00 232.00 C 436.53 228.55, 440.83 223.24, 443.00 226.00 C 447.30 228.60, 448.08 232.25, 451.00 235.00 C 454.55 241.30, 456.27 247.36, 459.00 253.00 C 462.73 259.42, 462.72 266.39, 466.00 272.00 C 467.06 278.78, 469.46 284.00, 470.00 290.00 C 471.44 296.51, 471.07 305.91, 479.00 304.00 C 480.41 297.76, 483.36 292.56, 483.00 286.00 C 483.62 278.71, 485.78 273.46, 485.00 267.00 C 487.02 261.03, 485.56 254.62, 486.00 249.00 C 485.65 242.01, 484.44 236.37, 485.00 230.00 C 484.55 222.83, 482.41 217.77, 482.00 212.00 C 480.73 204.97, 478.79 199.23, 478.00 193.00 C 476.50 185.85, 473.47 180.75, 472.00 175.00 C 468.83 168.21, 466.76 161.96, 464.00 156.00 C 460.82 148.66, 456.78 143.09, 454.00 137.00 C 449.23 129.77, 445.79 123.40, 440.00 118.00 Z" fill="rgb(144.0054908263024,210.8900495513593,207.97930895942145)" stroke="rgb(144.0054908263024,210.8900495513593,207.97930895942145)" stroke-width="1" />
<path d="M 249.00 15.00 C 244.77 16.57, 240.14 17.21, 236.00 19.00 C 230.24 21.30, 226.42 24.87, 222.00 27.00 C 211.51 36.03, 206.28 45.81, 202.00 56.00 C 200.78 61.24, 198.81 65.17, 199.00 70.00 C 198.68 75.75, 197.04 79.54, 197.00 84.00 C 196.88 89.70, 196.53 94.30, 194.00 98.00 C 190.65 103.24, 186.25 107.43, 181.00 109.00 C 170.73 114.36, 161.15 122.68, 159.00 133.00 C 156.78 137.55, 158.58 142.77, 158.00 147.00 C 159.07 152.64, 159.60 157.50, 161.00 162.00 C 162.40 174.16, 156.36 182.23, 152.00 191.00 C 150.43 196.37, 148.31 200.11, 149.00 205.00 C 148.63 208.29, 149.27 210.17, 150.00 212.00 C 152.05 209.55, 153.67 207.33, 155.00 205.00 C 159.17 200.42, 161.85 194.61, 166.00 192.00 C 169.54 186.49, 174.35 182.59, 178.00 180.00 C 183.17 175.01, 186.38 172.42, 191.00 169.00 C 196.91 165.93, 201.05 161.98, 206.00 160.00 C 211.52 157.45, 215.68 155.03, 220.00 153.00 C 225.74 151.99, 229.86 149.46, 234.00 147.00 C 237.77 142.12, 241.58 138.68, 240.00 133.00 C 240.80 125.98, 232.04 128.37, 229.00 125.00 C 218.67 116.93, 215.76 107.21, 214.00 97.00 C 211.80 87.44, 213.57 77.24, 213.00 68.00 C 211.64 55.41, 219.17 46.45, 228.00 40.00 C 233.22 36.73, 237.72 35.13, 242.00 33.00 C 245.07 32.16, 246.38 29.50, 249.00 30.00 C 251.68 32.92, 250.04 36.20, 252.00 38.00 C 253.77 49.24, 260.16 58.62, 269.00 65.00 C 273.21 69.08, 280.26 68.25, 281.00 74.00 C 282.69 83.12, 288.70 72.54, 293.00 71.00 C 297.38 70.42, 306.90 74.12, 301.00 77.00 C 297.96 79.24, 303.50 75.34, 304.00 78.00 C 305.00 81.00, 305.00 83.00, 305.00 85.00 C 304.70 91.08, 298.96 95.42, 295.00 98.00 C 288.63 99.50, 289.44 105.34, 288.00 110.00 C 286.52 119.66, 285.89 128.68, 286.00 138.00 C 296.09 145.59, 304.86 152.95, 315.00 157.00 C 325.54 163.51, 336.05 166.66, 344.00 176.00 C 349.01 181.05, 353.25 185.01, 355.00 190.00 C 359.05 194.33, 359.25 203.66, 364.00 203.00 C 367.97 199.07, 369.77 194.65, 371.00 190.00 C 370.91 184.43, 371.70 179.49, 369.00 176.00 C 366.89 170.58, 366.32 165.51, 362.00 162.00 C 357.93 156.36, 353.38 152.34, 352.00 147.00 C 349.44 141.88, 352.25 137.43, 352.00 133.00 C 353.14 127.53, 353.85 122.88, 354.00 118.00 C 353.21 111.95, 349.33 107.68, 346.00 105.00 C 340.42 100.46, 335.66 97.34, 331.00 94.00 C 321.51 85.72, 317.86 76.44, 317.00 66.00 C 315.94 60.41, 314.62 56.35, 314.00 52.00 C 312.83 45.57, 309.20 41.58, 307.00 37.00 C 298.73 27.46, 289.30 21.20, 279.00 18.00 C 270.02 13.73, 259.63 15.29, 250.00 15.00 Z" fill="rgb(253.98358594677657,126.59872878396313,105.31913110288468)" stroke="rgb(253.98358594677657,126.59872878396313,105.31913110288468)" stroke-width="1" />
<path d="M 106.00 144.00 C 100.95 145.54, 95.50 146.12, 91.00 149.00 C 84.79 151.83, 79.66 154.85, 75.00 159.00 C 68.68 162.64, 65.61 168.30, 61.00 171.00 C 56.28 177.25, 51.19 181.94, 47.00 187.00 C 42.20 192.67, 38.65 197.44, 37.00 203.00 C 36.26 209.11, 35.08 214.03, 34.00 219.00 C 32.94 230.17, 31.47 240.17, 32.00 251.00 C 31.45 255.14, 33.11 266.85, 34.00 262.00 C 36.29 255.84, 38.55 251.09, 40.00 246.00 C 43.94 240.25, 45.30 234.43, 50.00 230.00 C 52.78 226.39, 59.96 217.31, 63.00 225.00 C 64.94 230.75, 65.25 235.76, 65.00 241.00 C 64.02 246.87, 63.53 251.94, 63.00 257.00 C 62.26 262.97, 61.74 268.03, 61.00 273.00 C 60.04 279.02, 58.96 283.98, 58.00 289.00 C 58.35 293.88, 52.61 302.86, 60.00 302.00 C 68.40 303.83, 70.06 295.48, 75.00 292.00 C 79.90 286.42, 84.26 280.55, 90.00 278.00 C 97.63 276.75, 99.74 285.04, 102.00 288.00 C 107.93 285.16, 112.43 281.28, 118.00 280.00 C 122.69 275.78, 131.27 277.80, 132.00 272.00 C 134.00 266.27, 134.78 261.05, 136.00 256.00 C 136.96 249.85, 139.66 245.41, 140.00 240.00 C 142.17 233.79, 143.84 228.80, 146.00 224.00 C 149.29 218.78, 147.73 212.86, 147.00 208.00 C 146.65 201.58, 147.22 196.54, 149.00 192.00 C 151.68 185.73, 154.98 181.13, 157.00 176.00 C 158.68 169.95, 161.09 163.31, 155.00 160.00 C 149.16 155.61, 144.12 152.72, 139.00 150.00 C 128.87 145.09, 118.38 143.46, 107.00 144.00 Z" fill="rgb(143.95643672767088,210.7430001564211,207.99929610511498)" stroke="rgb(143.95643672767088,210.7430001564211,207.99929610511498)" stroke-width="1" />
<path d="M 247.00 31.00 C 241.37 34.90, 234.77 36.44, 229.00 40.00 C 221.23 44.97, 216.42 52.25, 214.00 59.00 C 213.71 66.17, 211.73 74.30, 214.00 79.00 C 213.74 86.58, 214.08 92.91, 215.00 99.00 C 216.77 106.23, 219.08 112.24, 222.00 118.00 C 227.42 125.99, 236.57 125.38, 241.00 130.00 C 241.00 134.00, 241.00 137.00, 241.00 140.00 C 243.61 143.60, 246.65 145.18, 250.00 146.00 C 256.57 147.73, 264.98 147.87, 270.00 145.00 C 276.02 142.37, 285.84 140.90, 285.00 133.00 C 285.08 125.56, 286.67 119.75, 286.00 113.00 C 286.99 104.90, 288.73 97.72, 296.00 96.00 C 303.87 92.63, 304.68 85.34, 304.00 78.00 C 301.18 67.73, 289.70 71.18, 286.00 78.00 C 281.46 83.91, 280.87 76.16, 280.00 74.00 C 279.05 69.95, 274.60 69.41, 272.00 68.00 C 264.16 63.51, 258.30 56.65, 255.00 50.00 C 250.65 44.02, 252.18 35.08, 248.00 31.00 Z" fill="rgb(251.20181876196554,161.28190810465858,150.80567964262923)" stroke="rgb(251.20181876196554,161.28190810465858,150.80567964262923)" stroke-width="1" />
<path d="M 441.00 227.00 C 436.52 231.50, 436.84 237.99, 436.00 244.00 C 436.30 250.82, 436.73 256.58, 438.00 262.00 C 439.09 268.77, 440.29 274.49, 442.00 280.00 C 443.72 286.64, 445.06 292.45, 447.00 298.00 C 449.36 304.07, 443.59 301.11, 443.00 298.00 C 440.62 294.08, 438.37 291.51, 436.00 289.00 C 430.47 283.27, 427.03 275.23, 420.00 273.00 C 412.61 275.71, 417.68 284.27, 418.00 289.00 C 420.47 295.81, 422.28 301.88, 424.00 308.00 C 426.88 314.85, 429.40 320.44, 432.00 326.00 C 435.15 332.47, 436.85 338.53, 440.00 344.00 C 441.66 347.53, 441.85 350.67, 444.00 353.00 C 446.33 355.82, 448.28 360.71, 444.00 361.00 C 436.31 363.43, 432.94 369.62, 427.00 374.00 C 422.75 375.92, 420.77 379.90, 418.00 382.00 C 417.72 386.11, 422.16 386.25, 424.00 389.00 C 430.39 394.00, 435.66 398.30, 442.00 400.00 C 449.37 403.49, 454.66 408.41, 459.00 414.00 C 461.41 416.86, 466.51 417.04, 465.00 413.00 C 463.06 408.70, 459.54 406.47, 459.00 403.00 C 460.75 399.46, 461.95 404.60, 465.00 405.00 C 468.73 407.52, 471.61 408.65, 474.00 411.00 C 476.17 411.94, 483.39 413.30, 480.00 410.00 C 477.02 407.12, 475.73 403.01, 473.00 402.00 C 469.50 398.57, 468.24 394.29, 473.00 397.00 C 477.11 397.92, 478.95 400.93, 482.00 401.00 C 486.70 402.89, 489.36 400.83, 486.00 398.00 C 482.11 395.53, 479.89 392.47, 477.00 391.00 C 473.52 388.89, 471.02 386.82, 468.00 386.00 C 462.73 383.53, 462.73 380.47, 467.00 379.00 C 473.78 376.55, 477.14 370.87, 476.00 364.00 C 477.43 360.48, 472.37 354.59, 472.00 359.00 C 470.68 362.95, 469.75 365.64, 468.00 368.00 C 464.88 371.24, 461.54 371.57, 459.00 370.00 C 454.18 367.69, 457.63 363.63, 459.00 361.00 C 458.68 351.15, 476.03 358.69, 470.00 351.00 C 464.15 350.98, 465.63 347.70, 467.00 345.00 C 468.62 341.18, 470.11 338.71, 471.00 336.00 C 473.13 329.73, 476.45 323.92, 474.00 318.00 C 472.61 311.16, 471.58 305.18, 471.00 299.00 C 469.64 291.93, 467.88 286.44, 466.00 281.00 C 464.62 274.21, 462.71 268.65, 461.00 263.00 C 457.93 256.64, 456.64 250.54, 454.00 245.00 C 450.23 238.15, 447.82 230.62, 442.00 227.00 Z" fill="rgb(145.53333333333333,103.91111111111111,118.17777777777778)" stroke="rgb(145.53333333333333,103.91111111111111,118.17777777777778)" stroke-width="1" />
<path d="M 58.00 224.00 C 52.73 227.16, 49.46 233.16, 46.00 238.00 C 42.03 243.32, 41.08 248.89, 39.00 254.00 C 36.77 259.63, 35.73 264.75, 35.00 270.00 C 32.58 275.85, 32.76 281.70, 34.00 287.00 C 35.17 292.93, 35.38 298.26, 37.00 303.00 C 38.62 308.88, 39.38 314.12, 41.00 319.00 C 45.27 324.94, 42.61 329.25, 42.00 335.00 C 41.45 342.39, 44.72 347.29, 50.00 351.00 C 46.37 354.56, 41.43 356.36, 36.00 357.00 C 32.66 358.99, 30.21 359.71, 28.00 361.00 C 24.77 360.93, 19.78 366.08, 24.00 366.00 C 30.37 367.02, 36.01 364.04, 40.00 365.00 C 37.31 369.84, 26.44 371.78, 28.00 378.00 C 34.34 377.50, 39.01 375.36, 44.00 374.00 C 46.17 372.82, 52.49 370.63, 50.00 374.00 C 46.33 377.67, 43.67 380.33, 41.00 383.00 C 44.46 387.31, 50.53 381.95, 55.00 382.00 C 61.75 380.01, 66.61 376.88, 72.00 375.00 C 78.12 373.28, 82.70 370.28, 88.00 369.00 C 91.79 368.09, 93.79 366.29, 96.00 365.00 C 94.67 361.67, 93.05 359.45, 92.00 357.00 C 88.11 350.96, 85.82 345.66, 82.00 341.00 C 79.80 338.30, 79.18 334.16, 83.00 334.00 C 85.51 330.82, 85.59 327.64, 87.00 325.00 C 89.77 319.32, 90.99 313.99, 93.00 309.00 C 95.89 303.04, 97.30 297.46, 99.00 292.00 C 99.76 285.22, 97.93 279.72, 92.00 279.00 C 84.88 281.78, 80.26 288.16, 75.00 293.00 C 70.15 298.65, 67.01 304.00, 63.00 309.00 C 58.26 313.30, 59.57 322.07, 52.00 320.00 C 49.91 315.84, 52.97 310.05, 53.00 305.00 C 54.49 298.45, 55.48 293.12, 57.00 288.00 C 57.45 281.91, 58.80 277.19, 59.00 272.00 C 61.09 266.12, 60.13 259.97, 62.00 255.00 C 61.90 248.82, 63.72 244.44, 63.00 239.00 C 62.27 233.33, 65.35 224.45, 59.00 224.00 Z" fill="rgb(133.85245901639345,121.26229508196721,143.2622950819672)" stroke="rgb(133.85245901639345,121.26229508196721,143.2622950819672)" stroke-width="1" />
<path d="M 304.00 31.00 C 305.75 35.71, 310.77 39.07, 312.00 44.00 C 315.03 49.38, 315.17 54.54, 317.00 59.00 C 317.01 64.61, 319.30 68.27, 319.00 73.00 C 320.35 79.35, 323.07 83.72, 326.00 88.00 C 335.25 97.19, 347.75 101.11, 353.00 112.00 C 357.35 122.76, 352.10 131.93, 353.00 142.00 C 352.56 148.34, 355.31 152.37, 359.00 156.00 C 363.26 160.30, 366.93 169.68, 372.00 162.00 C 376.74 158.04, 381.06 152.87, 385.00 150.00 C 389.91 146.31, 393.98 141.03, 399.00 139.00 C 407.48 133.37, 399.83 133.84, 395.00 134.00 C 389.99 134.35, 384.36 134.27, 380.00 134.00 C 373.78 135.33, 369.75 134.52, 365.00 134.00 C 355.10 135.60, 362.85 126.72, 367.00 126.00 C 371.64 122.65, 376.33 122.85, 381.00 123.00 C 387.85 121.81, 391.67 125.52, 396.00 128.00 C 405.62 119.94, 414.43 112.36, 425.00 109.00 C 427.22 106.65, 430.92 107.85, 431.00 106.00 C 429.57 102.90, 426.26 101.58, 426.00 99.00 C 420.30 93.74, 416.16 88.14, 411.00 85.00 C 405.76 81.44, 399.88 70.94, 397.00 79.00 C 393.14 84.75, 387.88 89.77, 383.00 92.00 C 377.53 93.68, 373.97 96.54, 369.00 96.00 C 362.92 95.99, 357.98 95.66, 354.00 93.00 C 347.68 90.91, 343.29 86.58, 339.00 82.00 C 336.45 76.29, 332.37 72.62, 333.00 67.00 C 331.95 61.51, 331.72 56.94, 333.00 53.00 C 332.50 47.21, 341.62 41.61, 335.00 39.00 C 329.26 37.85, 325.02 35.49, 320.00 35.00 C 314.23 33.25, 309.50 32.39, 305.00 31.00 Z" fill="rgb(139.89473684210526,157.10526315789474,213.70676691729324)" stroke="rgb(139.89473684210526,157.10526315789474,213.70676691729324)" stroke-width="1" />
<path d="M 305.00 32.00 C 307.39 36.45, 311.00 40.39, 313.00 45.00 C 315.33 50.25, 316.45 55.01, 317.00 60.00 C 317.64 65.48, 319.36 69.52, 320.00 74.00 C 322.00 79.45, 323.41 85.12, 327.00 88.00 C 330.52 93.08, 336.34 95.31, 340.00 99.00 C 345.66 102.59, 351.20 106.74, 353.00 112.00 C 357.31 122.28, 352.51 131.53, 353.00 141.00 C 352.10 147.40, 355.41 151.05, 358.00 155.00 C 362.11 159.12, 365.97 169.11, 371.00 163.00 C 380.29 152.79, 391.09 145.78, 399.00 138.00 C 397.55 133.28, 392.35 136.45, 388.00 135.00 C 382.33 135.00, 377.67 135.00, 373.00 135.00 C 368.25 134.09, 361.48 137.07, 360.00 133.00 C 362.65 127.69, 368.14 124.31, 373.00 123.00 C 377.84 120.38, 382.93 122.91, 387.00 123.00 C 391.24 124.89, 399.46 130.78, 400.00 123.00 C 400.38 118.49, 410.39 120.90, 412.00 115.00 C 417.08 111.24, 421.99 109.51, 427.00 108.00 C 434.54 105.37, 423.49 99.38, 423.00 96.00 C 417.86 91.45, 414.58 88.39, 410.00 84.00 C 405.35 80.24, 400.07 72.14, 397.00 79.00 C 393.02 84.46, 388.08 90.24, 383.00 92.00 C 378.24 95.40, 373.39 95.13, 369.00 96.00 C 362.88 96.76, 359.05 94.41, 354.00 95.00 C 344.06 87.99, 333.68 79.20, 333.00 68.00 C 332.58 62.77, 330.78 57.55, 333.00 54.00 C 332.32 47.99, 339.47 42.96, 335.00 39.00 C 329.58 37.89, 325.42 36.11, 321.00 35.00 C 315.80 32.86, 311.20 31.71, 306.00 32.00 Z" fill="rgb(109.65287049399198,146.45340453938584,227.973564753004)" stroke="rgb(109.65287049399198,146.45340453938584,227.973564753004)" stroke-width="1" />
<path d="M 84.00 109.00 C 77.32 115.44, 73.13 122.92, 68.00 130.00 C 62.84 137.93, 59.72 145.30, 55.00 152.00 C 52.35 160.01, 47.92 166.28, 47.00 174.00 C 44.41 176.49, 43.54 180.41, 43.00 184.00 C 43.11 187.58, 39.44 195.14, 42.00 189.00 C 46.31 187.04, 47.54 182.89, 51.00 180.00 C 54.12 175.66, 57.84 173.77, 60.00 170.00 C 62.25 166.55, 66.17 165.18, 69.00 162.00 C 72.86 159.73, 74.27 155.37, 78.00 155.00 C 85.34 149.08, 92.33 145.71, 100.00 144.00 C 107.95 141.51, 115.56 141.96, 123.00 143.00 C 131.86 144.58, 138.61 147.87, 145.00 152.00 C 149.29 154.45, 152.90 156.11, 156.00 159.00 C 159.15 158.90, 157.93 153.14, 157.00 151.00 C 155.05 143.21, 155.77 134.92, 159.00 129.00 C 161.25 124.63, 162.61 120.89, 166.00 118.00 C 168.31 114.27, 178.16 110.25, 174.00 110.00 C 166.48 110.50, 159.10 109.91, 152.00 110.00 C 143.88 109.79, 135.29 110.66, 130.00 109.00 C 122.81 107.72, 114.88 109.63, 108.00 109.00 C 99.67 109.00, 92.33 109.00, 85.00 109.00 Z" fill="rgb(126.96022727272727,160.2215909090909,232.1931818181818)" stroke="rgb(126.96022727272727,160.2215909090909,232.1931818181818)" stroke-width="1" />
<path d="M 440.00 227.00 C 437.23 233.07, 435.33 239.50, 436.00 247.00 C 436.44 254.90, 437.45 261.56, 439.00 268.00 C 440.74 275.64, 442.42 282.30, 444.00 289.00 C 444.40 293.52, 447.15 295.66, 447.00 299.00 C 445.46 304.51, 442.49 295.45, 440.00 294.00 C 433.88 286.90, 429.75 278.44, 422.00 274.00 C 412.25 271.93, 417.02 284.39, 418.00 289.00 C 420.63 296.54, 422.25 303.51, 425.00 310.00 C 427.74 318.39, 432.01 324.72, 434.00 332.00 C 437.79 339.76, 440.42 346.57, 444.00 353.00 C 446.29 358.76, 448.71 356.18, 451.00 353.00 C 454.86 349.85, 458.02 348.43, 462.00 349.00 C 467.11 349.64, 466.68 344.36, 468.00 342.00 C 469.67 337.39, 471.13 334.11, 473.00 331.00 C 476.97 323.70, 472.64 317.13, 473.00 310.00 C 471.81 301.86, 469.84 295.46, 468.00 289.00 C 466.89 281.10, 464.22 274.85, 463.00 268.00 C 460.60 259.95, 457.51 253.59, 455.00 247.00 C 452.77 242.49, 452.01 238.78, 449.00 236.00 C 446.53 232.46, 445.58 226.78, 441.00 227.00 Z" fill="rgb(80.50524412296564,35.216636528028936,59.119710669077755)" stroke="rgb(80.50524412296564,35.216636528028936,59.119710669077755)" stroke-width="1" />
<path d="M 98.00 109.00 C 95.08 112.01, 92.52 111.69, 89.00 110.00 C 83.30 108.71, 81.07 113.37, 78.00 116.00 C 73.12 123.86, 67.78 130.10, 64.00 137.00 C 59.15 144.18, 56.14 151.11, 53.00 158.00 C 49.76 166.18, 46.11 172.77, 44.00 180.00 C 42.23 183.54, 41.74 186.62, 42.00 190.00 C 45.37 187.06, 46.96 184.23, 50.00 182.00 C 56.01 174.09, 62.02 168.22, 68.00 163.00 C 75.35 156.56, 81.67 151.06, 89.00 148.00 C 96.85 145.31, 103.05 142.05, 111.00 143.00 C 119.15 142.83, 126.20 142.91, 132.00 146.00 C 140.31 148.13, 146.62 152.64, 153.00 157.00 C 157.05 161.48, 158.96 157.63, 158.00 154.00 C 157.77 149.21, 155.46 146.69, 156.00 143.00 C 155.81 133.96, 158.85 127.25, 163.00 121.00 C 167.51 117.87, 168.49 113.16, 172.00 112.00 C 169.01 107.97, 165.15 113.10, 162.00 110.00 C 157.85 113.10, 153.99 107.97, 151.00 111.00 C 146.41 109.32, 143.93 111.19, 140.00 111.00 C 136.40 111.42, 132.60 111.42, 130.00 110.00 C 125.95 113.86, 122.08 108.78, 119.00 112.00 C 115.01 110.21, 111.84 112.92, 108.00 112.00 C 101.50 113.19, 102.88 108.02, 99.00 109.00 Z" fill="rgb(108.375732421875,146.298095703125,229.05029296875)" stroke="rgb(108.375732421875,146.298095703125,229.05029296875)" stroke-width="1" />
<path d="M 53.00 320.00 C 48.01 321.98, 51.58 322.91, 53.00 326.00 C 57.20 322.29, 59.52 326.57, 61.00 329.00 C 67.77 332.58, 62.81 343.74, 56.00 342.00 C 48.28 341.00, 47.19 331.61, 48.00 327.00 C 39.64 326.79, 42.06 336.68, 40.00 342.00 C 32.79 342.69, 27.00 344.40, 22.00 348.00 C 15.48 352.07, 8.04 356.30, 8.00 364.00 C 7.96 371.37, 13.13 375.59, 13.00 382.00 C 15.36 391.71, 25.41 389.60, 30.00 395.00 C 35.34 400.21, 42.01 398.79, 48.00 399.00 C 54.22 396.45, 63.37 396.82, 63.00 389.00 C 62.87 383.06, 59.42 385.35, 57.00 384.00 C 53.78 381.28, 60.32 381.09, 62.00 380.00 C 69.09 376.88, 74.71 373.64, 81.00 372.00 C 84.82 370.38, 87.29 368.89, 90.00 368.00 C 94.08 367.27, 97.50 364.93, 95.00 362.00 C 91.14 354.80, 86.81 349.22, 84.00 343.00 C 81.82 334.63, 70.92 338.84, 70.00 331.00 C 66.82 324.06, 61.49 320.06, 54.00 321.00 Z" fill="rgb(253.14653586756592,250.2286940527284,249.9202942979767)" stroke="rgb(253.14653586756592,250.2286940527284,249.9202942979767)" stroke-width="1" />
<path d="M 210.00 31.00 C 204.45 32.95, 198.49 33.90, 193.00 36.00 C 185.93 38.17, 179.59 39.68, 174.00 43.00 C 167.16 45.24, 161.38 47.65, 156.00 51.00 C 148.98 54.61, 142.54 57.23, 137.00 62.00 C 130.27 65.84, 124.66 69.98, 119.00 74.00 C 111.74 79.70, 105.74 85.03, 100.00 91.00 C 97.03 93.54, 92.20 98.15, 97.00 99.00 C 100.82 99.96, 103.47 101.33, 106.00 103.00 C 113.48 99.48, 118.65 92.82, 125.00 89.00 C 130.83 84.65, 137.05 83.65, 143.00 82.00 C 150.70 81.65, 156.80 82.73, 162.00 86.00 C 168.72 90.60, 173.48 95.48, 176.00 102.00 C 177.94 104.22, 175.97 111.65, 180.00 108.00 C 183.88 105.72, 187.59 105.41, 190.00 102.00 C 194.69 96.17, 195.63 90.20, 196.00 84.00 C 195.62 76.57, 197.50 71.07, 198.00 65.00 C 199.23 57.27, 203.42 52.17, 205.00 46.00 C 207.73 42.36, 209.02 39.54, 211.00 37.00 C 214.27 33.30, 216.68 29.78, 211.00 31.00 Z" fill="rgb(160.2295081967213,184.18032786885246,237.59016393442624)" stroke="rgb(160.2295081967213,184.18032786885246,237.59016393442624)" stroke-width="1" />
<path d="M 212.00 31.00 C 206.59 32.94, 200.70 33.74, 195.00 35.00 C 187.74 37.36, 181.88 39.70, 176.00 42.00 C 169.38 44.78, 163.46 46.84, 158.00 50.00 C 150.98 53.28, 145.04 56.76, 139.00 60.00 C 132.13 64.50, 126.27 68.04, 121.00 73.00 C 114.02 78.38, 107.61 82.74, 102.00 89.00 C 99.08 91.17, 96.50 94.65, 95.00 97.00 C 98.53 98.67, 101.18 100.04, 104.00 101.00 C 107.47 105.15, 111.41 100.28, 112.00 98.00 C 116.30 95.71, 118.81 92.53, 122.00 91.00 C 128.22 86.26, 134.07 84.03, 140.00 82.00 C 147.27 80.87, 153.19 81.68, 159.00 84.00 C 165.89 87.35, 171.87 92.92, 175.00 99.00 C 175.57 103.12, 178.94 104.67, 178.00 108.00 C 182.64 108.21, 184.85 104.98, 188.00 104.00 C 194.25 98.54, 194.75 92.11, 196.00 86.00 C 195.50 78.52, 196.94 72.84, 198.00 67.00 C 198.98 59.58, 202.01 54.01, 204.00 48.00 C 207.17 44.54, 207.20 41.20, 210.00 39.00 C 211.65 36.41, 217.83 30.79, 213.00 31.00 Z" fill="rgb(109.95659037095501,147.44725072349382,229.34280452512496)" stroke="rgb(109.95659037095501,147.44725072349382,229.34280452512496)" stroke-width="1" />
<path d="M 363.00 27.00 C 354.39 29.06, 346.31 32.40, 340.00 40.00 C 334.66 47.42, 332.85 55.30, 333.00 64.00 C 335.06 73.61, 338.40 81.69, 346.00 88.00 C 353.35 93.50, 361.44 94.83, 370.00 95.00 C 380.39 94.17, 387.49 88.78, 394.00 82.00 C 399.41 74.61, 400.72 66.52, 401.00 58.00 C 398.94 48.39, 395.60 40.31, 388.00 34.00 C 380.58 28.66, 372.70 26.85, 364.00 27.00 Z" fill="rgb(254.28223844282238,204.03703703703704,123.35928629359286)" stroke="rgb(254.28223844282238,204.03703703703704,123.35928629359286)" stroke-width="1" />
<path d="M 133.00 310.00 C 128.20 311.35, 122.95 311.60, 119.00 315.00 C 112.85 318.31, 108.08 321.52, 103.00 324.00 C 96.56 326.61, 92.34 331.15, 87.00 333.00 C 77.65 335.85, 85.87 342.54, 87.00 347.00 C 91.29 352.88, 93.31 358.29, 97.00 363.00 C 99.92 371.42, 106.38 365.85, 111.00 364.00 C 116.45 361.68, 121.45 360.66, 127.00 361.00 C 132.42 358.61, 139.03 361.48, 143.00 358.00 C 149.29 355.38, 153.76 351.76, 159.00 350.00 C 164.83 345.90, 170.72 342.58, 174.00 338.00 C 176.08 332.45, 176.46 327.19, 177.00 322.00 C 176.24 319.03, 178.15 314.82, 177.00 315.00 C 175.86 320.45, 173.01 316.98, 171.00 320.00 C 165.63 318.75, 160.01 321.46, 155.00 319.00 C 151.02 319.57, 148.70 318.52, 147.00 316.00 C 143.68 313.05, 141.98 312.77, 146.00 316.00 C 148.44 318.75, 151.25 318.99, 152.00 322.00 C 152.97 327.39, 147.77 323.20, 148.00 321.00 C 142.38 316.07, 137.42 312.97, 132.00 311.00 Z" fill="rgb(253.7350029120559,254.00465928945835,254.38584740827025)" stroke="rgb(253.7350029120559,254.00465928945835,254.38584740827025)" stroke-width="1" />
<path d="M 370.00 399.00 C 360.65 403.31, 350.93 406.68, 342.00 412.00 C 336.76 414.23, 332.81 417.16, 328.00 418.00 C 322.52 420.78, 318.36 423.34, 313.00 423.00 C 302.75 421.92, 291.05 419.87, 284.00 427.00 C 281.44 431.96, 281.69 436.68, 281.00 441.00 C 280.69 446.95, 279.84 451.68, 278.00 456.00 C 274.34 463.29, 281.39 462.79, 285.00 460.00 C 290.81 458.68, 295.25 456.47, 300.00 455.00 C 310.17 449.93, 320.41 447.45, 329.00 441.00 C 339.65 436.09, 348.73 429.82, 358.00 424.00 C 362.88 418.75, 368.12 415.07, 370.00 410.00 C 374.81 406.39, 379.28 397.32, 371.00 399.00 Z" fill="rgb(249.15500406834826,160.5113913751017,151.21155410903174)" stroke="rgb(249.15500406834826,160.5113913751017,151.21155410903174)" stroke-width="1" />
<path d="M 325.00 330.00 C 324.19 334.09, 322.80 340.01, 325.00 344.00 C 328.35 349.11, 327.50 354.95, 331.00 359.00 C 332.67 364.80, 336.10 368.88, 337.00 374.00 C 340.05 379.09, 346.82 377.73, 351.00 379.00 C 356.35 380.77, 361.76 379.97, 366.00 382.00 C 371.91 382.07, 375.85 384.51, 381.00 384.00 C 387.01 385.18, 391.51 386.58, 396.00 388.00 C 401.87 388.50, 406.49 389.63, 411.00 391.00 C 416.64 392.06, 421.13 393.49, 426.00 394.00 C 424.19 391.08, 419.45 385.92, 414.00 386.00 C 407.80 384.61, 404.01 379.85, 399.00 378.00 C 393.31 373.71, 388.57 370.56, 384.00 367.00 C 372.97 359.54, 363.77 351.09, 354.00 344.00 C 349.40 339.31, 345.33 334.80, 342.00 330.00 C 336.00 330.00, 331.00 330.00, 326.00 330.00 Z" fill="rgb(149.75833333333333,150.54166666666666,205.25)" stroke="rgb(149.75833333333333,150.54166666666666,205.25)" stroke-width="1" />
<path d="M 51.00 320.00 C 47.57 323.15, 52.90 325.07, 55.00 326.00 C 59.50 326.09, 60.94 329.38, 63.00 332.00 C 66.13 340.89, 55.93 344.58, 51.00 340.00 C 49.26 336.36, 47.23 334.26, 48.00 331.00 C 49.44 324.94, 45.14 325.24, 43.00 329.00 C 39.56 335.75, 41.08 343.38, 46.00 348.00 C 50.06 350.00, 52.83 352.27, 48.00 354.00 C 44.13 355.32, 40.59 355.00, 38.00 357.00 C 34.60 358.64, 31.61 358.87, 29.00 360.00 C 25.46 360.82, 18.99 366.50, 25.00 366.00 C 32.51 367.49, 38.33 362.22, 44.00 365.00 C 39.59 366.34, 37.23 369.21, 34.00 370.00 C 30.84 372.98, 24.79 374.72, 27.00 378.00 C 34.59 377.76, 40.30 375.38, 46.00 373.00 C 49.57 369.57, 54.54 374.44, 49.00 375.00 C 45.92 379.10, 40.81 380.95, 41.00 385.00 C 48.67 384.96, 53.92 381.47, 60.00 380.00 C 66.65 376.49, 73.35 375.51, 79.00 372.00 C 82.71 371.11, 85.18 369.62, 88.00 369.00 C 90.92 366.94, 98.18 366.51, 95.00 363.00 C 90.80 356.22, 88.09 349.82, 84.00 344.00 C 81.38 340.93, 82.10 336.94, 78.00 337.00 C 73.04 336.72, 71.80 332.79, 70.00 330.00 C 67.62 321.01, 58.05 321.39, 52.00 320.00 Z" fill="rgb(253.300350262697,166.39973730297723,156.08012259194396)" stroke="rgb(253.300350262697,166.39973730297723,156.08012259194396)" stroke-width="1" />
<path d="M 457.00 350.00 C 450.59 351.79, 448.85 361.94, 441.00 361.00 C 434.05 366.33, 428.89 372.55, 423.00 377.00 C 420.18 380.41, 414.17 383.32, 419.00 386.00 C 422.43 388.56, 424.96 390.91, 428.00 392.00 C 433.96 398.04, 440.60 399.02, 446.00 403.00 C 453.14 406.18, 456.90 415.12, 464.00 416.00 C 465.91 412.54, 462.75 410.77, 462.00 408.00 C 460.12 404.91, 453.77 400.65, 458.00 400.00 C 464.75 404.12, 469.63 409.37, 476.00 411.00 C 480.80 414.86, 482.05 410.26, 479.00 408.00 C 475.81 403.55, 472.91 402.20, 470.00 399.00 C 464.49 393.79, 470.95 395.63, 473.00 397.00 C 476.71 398.89, 479.18 400.38, 482.00 401.00 C 485.95 402.09, 489.68 402.66, 487.00 399.00 C 483.43 395.77, 480.72 393.88, 478.00 392.00 C 474.46 389.02, 471.64 387.73, 469.00 386.00 C 465.79 385.21, 460.13 380.71, 465.00 380.00 C 472.53 378.23, 476.14 372.38, 477.00 366.00 C 475.56 363.06, 476.66 358.47, 474.00 358.00 C 470.38 358.99, 470.78 362.24, 470.00 365.00 C 466.71 373.50, 456.15 371.53, 454.00 365.00 C 455.74 357.81, 462.43 353.99, 469.00 355.00 C 474.43 354.48, 470.78 349.51, 468.00 350.00 C 464.00 350.00, 461.00 350.00, 458.00 350.00 Z" fill="rgb(252.9639477242001,166.0793150067598,155.90536277602524)" stroke="rgb(252.9639477242001,166.0793150067598,155.90536277602524)" stroke-width="1" />
<path d="M 57.00 224.00 C 49.43 231.41, 43.97 239.69, 41.00 249.00 C 38.81 254.06, 37.67 258.14, 36.00 262.00 C 34.83 267.26, 34.81 272.00, 33.00 276.00 C 33.42 285.71, 34.72 294.06, 37.00 302.00 C 38.06 306.98, 38.42 311.24, 40.00 315.00 C 42.16 318.87, 41.17 328.10, 46.00 325.00 C 49.75 321.97, 50.35 316.47, 52.00 313.00 C 51.77 307.63, 54.57 304.51, 54.00 300.00 C 55.43 289.96, 58.36 281.95, 59.00 273.00 C 60.31 268.26, 60.20 263.95, 61.00 260.00 C 62.50 255.35, 61.29 250.57, 63.00 247.00 C 63.00 242.00, 63.00 238.00, 63.00 234.00 C 63.02 228.91, 63.69 222.38, 58.00 224.00 Z" fill="rgb(104.65517241379311,101.0,115.48275862068965)" stroke="rgb(104.65517241379311,101.0,115.48275862068965)" stroke-width="1" />
<path d="M 58.00 224.00 C 49.70 229.83, 44.89 239.39, 41.00 248.00 C 37.54 256.87, 35.48 265.31, 34.00 274.00 C 31.69 278.74, 33.80 283.05, 34.00 287.00 C 33.77 292.37, 36.57 295.49, 36.00 300.00 C 37.59 304.76, 38.59 308.76, 39.00 313.00 C 41.14 317.38, 41.31 325.95, 45.00 325.00 C 49.11 324.39, 50.64 318.65, 51.00 315.00 C 52.58 310.24, 52.94 305.98, 54.00 302.00 C 54.68 297.00, 55.62 293.12, 56.00 289.00 C 56.60 283.22, 58.49 279.40, 59.00 275.00 C 59.80 270.05, 59.69 265.74, 61.00 262.00 C 61.49 256.93, 61.52 252.67, 63.00 249.00 C 63.00 244.00, 63.00 240.00, 63.00 236.00 C 62.72 231.10, 64.48 223.86, 59.00 224.00 Z" fill="rgb(80.59313478041393,34.81171125694094,58.275618374558306)" stroke="rgb(80.59313478041393,34.81171125694094,58.275618374558306)" stroke-width="1" />
<path d="M 358.00 13.00 C 353.98 15.43, 348.82 15.09, 345.00 18.00 C 340.22 21.29, 335.08 22.29, 338.00 28.00 C 339.72 30.57, 338.67 33.28, 340.00 35.00 C 342.86 36.73, 344.02 33.39, 346.00 32.00 C 351.10 29.45, 355.39 27.33, 360.00 26.00 C 371.31 25.16, 380.56 26.89, 388.00 33.00 C 397.86 41.46, 402.23 50.78, 402.00 62.00 C 403.02 66.68, 396.99 73.92, 403.00 74.00 C 406.62 69.21, 413.63 71.07, 416.00 68.00 C 416.26 57.20, 415.65 47.77, 411.00 40.00 C 406.05 29.73, 397.99 20.78, 388.00 17.00 C 379.02 12.40, 368.96 12.83, 359.00 13.00 Z" fill="rgb(251.3066750629723,250.84382871536525,250.09949622166246)" stroke="rgb(251.3066750629723,250.84382871536525,250.09949622166246)" stroke-width="1" />
<path d="M 418.00 273.00 C 413.19 279.43, 418.76 287.46, 420.00 294.00 C 423.09 301.82, 424.50 309.35, 428.00 316.00 C 431.67 323.56, 432.59 332.51, 439.00 337.00 C 439.91 341.10, 439.31 345.23, 442.00 348.00 C 442.23 351.44, 448.38 359.07, 445.00 353.00 C 447.60 350.03, 450.92 346.54, 450.00 344.00 C 444.01 342.69, 449.95 337.78, 450.00 335.00 C 449.68 326.99, 450.84 319.37, 449.00 313.00 C 448.85 303.54, 442.36 297.71, 438.00 291.00 C 435.20 287.68, 430.86 284.61, 430.00 281.00 C 424.65 278.63, 424.05 272.48, 419.00 273.00 Z" fill="rgb(79.48682284040996,32.520497803806734,56.71595900439239)" stroke="rgb(79.48682284040996,32.520497803806734,56.71595900439239)" stroke-width="1" />
<path d="M 140.00 83.00 C 134.19 85.31, 128.40 87.69, 123.00 91.00 C 118.05 96.44, 106.90 100.32, 109.00 107.00 C 120.99 108.98, 133.37 107.59, 145.00 108.00 C 151.67 108.00, 157.33 108.00, 163.00 108.00 C 167.21 106.70, 169.06 108.44, 172.00 107.00 C 177.71 107.73, 175.22 103.32, 175.00 101.00 C 171.67 93.88, 166.00 88.58, 160.00 86.00 C 153.73 82.58, 147.33 82.86, 141.00 83.00 Z" fill="rgb(249.8548632218845,251.18465045592706,254.0919452887538)" stroke="rgb(249.8548632218845,251.18465045592706,254.0919452887538)" stroke-width="1" />
<path d="M 92.00 279.00 C 86.17 281.00, 81.71 286.29, 77.00 291.00 C 72.89 297.23, 67.51 301.52, 65.00 307.00 C 62.45 311.76, 53.71 319.31, 61.00 321.00 C 69.03 322.63, 69.82 330.40, 74.00 335.00 C 80.76 338.78, 84.82 331.53, 86.00 327.00 C 87.78 320.63, 91.48 316.47, 92.00 311.00 C 94.38 304.88, 96.75 300.17, 98.00 295.00 C 100.42 289.53, 99.40 280.25, 93.00 280.00 Z" fill="rgb(128.0,94.15384615384616,113.61538461538461)" stroke="rgb(128.0,94.15384615384616,113.61538461538461)" stroke-width="1" />
<path d="M 92.00 279.00 C 86.01 280.61, 81.78 286.47, 77.00 291.00 C 72.65 297.13, 67.94 301.70, 65.00 307.00 C 63.33 311.46, 53.56 319.93, 61.00 320.00 C 68.70 322.57, 70.96 330.06, 74.00 335.00 C 80.76 338.78, 84.82 331.53, 86.00 327.00 C 88.42 320.43, 90.93 315.30, 93.00 310.00 C 95.16 304.20, 96.83 299.21, 98.00 294.00 C 99.27 287.69, 99.42 279.90, 93.00 280.00 Z" fill="rgb(80.86717557251909,35.76793893129771,59.2412213740458)" stroke="rgb(80.86717557251909,35.76793893129771,59.2412213740458)" stroke-width="1" />
<path d="M 130.00 276.00 C 124.80 278.65, 118.88 279.58, 114.00 283.00 C 107.83 286.53, 100.12 288.97, 99.00 296.00 C 97.13 302.39, 95.07 307.70, 93.00 313.00 C 91.88 316.62, 90.19 319.00, 90.00 322.00 C 89.26 324.96, 84.71 329.72, 89.00 329.00 C 96.02 327.98, 100.47 323.20, 106.00 321.00 C 113.03 317.87, 118.21 313.70, 124.00 311.00 C 128.09 305.67, 126.34 298.92, 129.00 294.00 C 128.83 287.20, 132.18 280.86, 131.00 276.00 Z" fill="rgb(126.77795786061589,179.85413290113453,216.1223662884927)" stroke="rgb(126.77795786061589,179.85413290113453,216.1223662884927)" stroke-width="1" />
<path d="M 414.00 280.00 C 409.57 282.76, 404.70 284.47, 401.00 289.00 C 397.07 294.27, 389.57 298.90, 392.00 304.00 C 397.25 307.92, 401.23 313.90, 406.00 318.00 C 411.93 321.71, 414.98 328.93, 421.00 329.00 C 425.65 328.63, 433.95 330.82, 430.00 325.00 C 427.14 319.69, 425.75 314.77, 424.00 310.00 C 422.42 304.02, 419.58 299.98, 419.00 295.00 C 417.43 289.15, 415.18 285.00, 415.00 280.00 Z" fill="rgb(124.39159503342884,175.55300859598853,219.7344794651385)" stroke="rgb(124.39159503342884,175.55300859598853,219.7344794651385)" stroke-width="1" />
<path d="M 353.00 343.00 C 348.00 345.13, 342.03 344.94, 337.00 347.00 C 333.37 347.75, 330.81 348.68, 328.00 349.00 C 327.35 352.94, 330.32 354.79, 330.00 358.00 C 333.42 363.39, 333.44 371.98, 341.00 370.00 C 347.11 367.99, 353.00 367.85, 359.00 368.00 C 365.22 368.61, 371.46 366.75, 376.00 369.00 C 380.01 368.50, 381.87 370.78, 385.00 370.00 C 388.31 370.42, 394.47 374.83, 390.00 371.00 C 383.14 366.47, 377.58 362.20, 372.00 358.00 C 365.03 353.06, 359.55 347.94, 354.00 343.00 Z" fill="rgb(158.56268509378086,153.01085883514313,203.22704837117473)" stroke="rgb(158.56268509378086,153.01085883514313,203.22704837117473)" stroke-width="1" />
<path d="M 358.00 134.00 C 352.39 134.27, 352.57 139.04, 353.00 144.00 C 353.33 150.63, 357.74 154.58, 361.00 159.00 C 364.17 161.79, 364.51 164.34, 367.00 166.00 C 370.33 163.67, 372.67 161.33, 375.00 159.00 C 380.74 154.17, 385.19 149.65, 390.00 146.00 C 395.22 141.39, 399.78 138.61, 404.00 135.00 C 398.33 135.00, 393.67 135.00, 389.00 135.00 C 378.33 135.00, 368.67 135.00, 359.00 135.00 Z" fill="rgb(108.68181818181819,146.07900432900433,228.6103896103896)" stroke="rgb(108.68181818181819,146.07900432900433,228.6103896103896)" stroke-width="1" />
<path d="M 351.00 369.00 C 348.17 370.88, 344.02 369.57, 341.00 371.00 C 334.14 371.45, 338.37 377.68, 342.00 378.00 C 350.62 378.32, 357.28 380.94, 365.00 381.00 C 373.60 382.68, 380.85 384.23, 388.00 386.00 C 396.79 387.38, 404.37 389.25, 412.00 391.00 C 416.15 392.44, 420.01 392.17, 423.00 394.00 C 430.43 397.42, 426.64 390.95, 422.00 392.00 C 412.30 390.97, 406.05 384.02, 399.00 379.00 C 391.62 373.03, 384.14 370.71, 376.00 370.00 C 368.14 367.71, 359.54 369.63, 352.00 369.00 Z" fill="rgb(109.8493771234428,146.15062287655718,227.92525481313703)" stroke="rgb(109.8493771234428,146.15062287655718,227.92525481313703)" stroke-width="1" />
<path d="M 134.00 477.00 C 130.56 479.93, 129.09 483.68, 129.00 488.00 C 129.57 492.88, 134.01 494.33, 138.00 494.00 C 146.29 495.58, 154.04 496.04, 162.00 496.00 C 170.95 495.64, 177.87 497.77, 186.00 497.00 C 195.43 497.69, 202.86 496.00, 211.00 496.00 C 213.87 494.00, 222.37 496.00, 221.00 494.00 C 216.33 494.00, 212.67 494.00, 209.00 494.00 C 199.92 493.19, 191.91 492.22, 184.00 491.00 C 175.43 488.77, 167.51 487.38, 160.00 485.00 C 150.99 482.35, 143.04 479.57, 135.00 477.00 Z" fill="rgb(247.16117647058823,160.14705882352942,151.56117647058824)" stroke="rgb(247.16117647058823,160.14705882352942,151.56117647058824)" stroke-width="1" />
<path d="M 180.00 317.00 C 178.53 320.26, 183.83 322.54, 181.00 325.00 C 178.74 326.41, 177.52 330.31, 177.00 333.00 C 175.61 341.10, 167.74 345.88, 162.00 349.00 C 155.18 353.77, 148.77 356.12, 143.00 360.00 C 139.99 362.28, 147.73 359.90, 149.00 362.00 C 153.43 361.31, 155.57 363.69, 159.00 363.00 C 166.54 364.04, 171.89 366.93, 178.00 368.00 C 180.85 362.08, 182.79 356.19, 184.00 350.00 C 186.85 342.71, 187.13 336.94, 184.00 331.00 C 178.01 330.04, 181.54 326.94, 179.00 326.00 C 184.11 325.63, 180.57 319.88, 180.00 318.00 Z" fill="rgb(112.38729763387298,149.0909090909091,229.5068493150685)" stroke="rgb(112.38729763387298,149.0909090909091,229.5068493150685)" stroke-width="1" />
<path d="M 430.00 108.00 C 423.39 110.67, 416.54 112.76, 411.00 118.00 C 404.01 121.47, 397.92 133.96, 391.00 126.00 C 384.31 123.10, 376.94 122.01, 371.00 125.00 C 366.76 126.74, 363.63 128.77, 361.00 132.00 C 363.00 133.00, 366.00 133.00, 369.00 133.00 C 382.87 132.35, 396.82 134.32, 409.00 132.00 C 416.44 127.59, 422.58 123.45, 429.00 120.00 C 432.61 117.38, 436.52 117.93, 439.00 115.00 C 438.18 110.73, 434.38 107.23, 431.00 108.00 Z" fill="rgb(238.42724458204336,242.72755417956657,252.05263157894737)" stroke="rgb(238.42724458204336,242.72755417956657,252.05263157894737)" stroke-width="1" />
<path d="M 252.00 351.00 C 246.80 354.66, 241.09 357.09, 236.00 361.00 C 230.30 366.77, 225.19 371.36, 225.00 378.00 C 232.30 382.41, 237.37 373.95, 242.00 370.00 C 245.21 366.75, 246.27 364.03, 249.00 362.00 C 251.33 358.72, 254.46 353.30, 257.00 358.00 C 262.89 364.24, 266.53 370.00, 272.00 375.00 C 276.34 380.04, 286.26 382.87, 284.00 374.00 C 280.79 367.19, 275.59 361.83, 270.00 359.00 C 263.92 355.06, 259.40 350.76, 253.00 351.00 Z" fill="rgb(135.16212534059946,72.94141689373296,96.6757493188011)" stroke="rgb(135.16212534059946,72.94141689373296,96.6757493188011)" stroke-width="1" />
<path d="M 430.00 108.00 C 422.03 110.47, 414.91 114.98, 408.00 120.00 C 403.81 123.12, 399.56 126.34, 398.00 130.00 C 401.57 131.66, 405.60 133.94, 409.00 132.00 C 417.38 127.10, 424.39 122.32, 432.00 119.00 C 435.48 116.25, 441.46 117.40, 441.00 113.00 C 439.75 107.42, 435.10 107.73, 431.00 108.00 Z" fill="rgb(247.64624505928853,249.58300395256916,253.67786561264822)" stroke="rgb(247.64624505928853,249.58300395256916,253.67786561264822)" stroke-width="1" />
<path d="M 324.00 330.00 C 322.27 336.13, 322.88 342.74, 326.00 348.00 C 332.58 346.32, 338.96 345.56, 345.00 344.00 C 346.99 341.47, 354.71 344.79, 352.00 341.00 C 348.15 337.21, 345.62 334.29, 344.00 331.00 C 337.00 330.00, 331.00 330.00, 325.00 330.00 Z" fill="rgb(108.29355608591885,145.3890214797136,227.6945107398568)" stroke="rgb(108.29355608591885,145.3890214797136,227.6945107398568)" stroke-width="1" />
<path d="M 97.00 366.00 C 91.81 368.69, 86.24 370.45, 81.00 373.00 C 76.19 376.10, 64.18 376.49, 72.00 383.00 C 73.96 386.63, 75.80 388.89, 78.00 391.00 C 81.02 388.34, 82.18 385.33, 85.00 383.00 C 87.37 375.58, 101.96 373.60, 97.00 367.00 Z" fill="rgb(113.84100418410041,146.85774058577405,226.02928870292888)" stroke="rgb(113.84100418410041,146.85774058577405,226.02928870292888)" stroke-width="1" />
<path d="M 329.00 299.00 C 327.81 304.59, 327.19 310.41, 326.00 316.00 C 325.82 322.18, 321.81 331.59, 331.00 329.00 C 334.67 329.00, 337.33 329.00, 340.00 329.00 C 341.71 324.29, 338.52 322.20, 338.00 319.00 C 334.45 312.37, 332.95 305.88, 330.00 300.00 Z" fill="rgb(142.0247678018576,205.60061919504645,204.61919504643961)" stroke="rgb(142.0247678018576,205.60061919504645,204.61919504643961)" stroke-width="1" />
<path d="M 274.00 123.00 C 268.54 125.98, 262.68 127.98, 256.00 128.00 C 250.38 130.38, 239.52 125.52, 241.00 133.00 C 242.19 140.91, 252.31 139.13, 257.00 137.00 C 264.73 134.93, 272.07 129.94, 275.00 123.00 Z" fill="rgb(128.27702702702703,68.04391891891892,82.54391891891892)" stroke="rgb(128.27702702702703,68.04391891891892,82.54391891891892)" stroke-width="1" />
<path d="M 182.00 240.00 C 178.39 246.67, 178.41 254.84, 176.00 262.00 C 176.50 270.29, 173.07 278.07, 176.00 285.00 C 175.35 294.02, 178.62 300.41, 179.00 308.00 C 180.28 317.38, 184.40 324.17, 186.00 332.00 C 186.67 324.84, 181.84 318.95, 182.00 311.00 C 181.32 306.26, 179.81 303.28, 179.00 300.00 C 178.12 295.42, 178.61 291.27, 177.00 288.00 C 177.52 279.74, 175.87 271.59, 178.00 265.00 C 178.60 256.03, 181.33 248.94, 182.00 241.00 Z" fill="rgb(168.24576271186442,148.52966101694915,161.4364406779661)" stroke="rgb(168.24576271186442,148.52966101694915,161.4364406779661)" stroke-width="1" />
<path d="M 55.00 325.00 C 53.46 327.75, 49.72 329.83, 50.00 334.00 C 49.65 339.41, 53.84 341.73, 58.00 341.00 C 63.05 339.81, 63.50 335.90, 63.00 332.00 C 60.24 327.01, 53.95 326.24, 56.00 325.00 Z" fill="rgb(157.57142857142858,97.5,110.57142857142857)" stroke="rgb(157.57142857142858,97.5,110.57142857142857)" stroke-width="1" />
<path d="M 54.00 326.00 C 48.92 330.23, 48.06 341.88, 57.00 341.00 C 67.32 339.34, 62.05 326.94, 55.00 326.00 Z" fill="rgb(90.21428571428571,47.535714285714285,71.875)" stroke="rgb(90.21428571428571,47.535714285714285,71.875)" stroke-width="1" />
<path d="M 296.00 410.00 C 290.78 412.09, 284.77 412.24, 279.00 413.00 C 272.74 414.66, 266.45 413.82, 261.00 415.00 C 254.33 415.00, 248.67 415.00, 243.00 415.00 C 240.06 412.91, 236.60 414.49, 234.00 414.00 C 235.41 415.29, 238.08 415.93, 241.00 416.00 C 247.67 416.00, 253.33 416.00, 259.00 416.00 C 263.36 415.03, 265.21 418.10, 265.00 421.00 C 268.56 424.40, 262.60 417.44, 266.00 416.00 C 272.35 414.58, 278.35 414.71, 284.00 414.00 C 287.05 411.86, 290.85 413.92, 293.00 412.00 C 295.94 412.31, 301.77 409.83, 297.00 410.00 Z" fill="rgb(151.6951219512195,85.6890243902439,104.59756097560975)" stroke="rgb(151.6951219512195,85.6890243902439,104.59756097560975)" stroke-width="1" />
<path d="M 401.00 406.00 C 394.05 407.79, 387.00 409.33, 380.00 411.00 C 375.54 412.70, 372.18 413.62, 369.00 415.00 C 366.90 417.82, 374.49 413.68, 377.00 414.00 C 385.25 411.95, 391.79 409.16, 399.00 408.00 C 403.47 408.00, 406.24 406.30, 410.00 407.00 C 411.89 406.00, 404.41 406.00, 402.00 406.00 Z" fill="rgb(150.95283018867926,85.0754716981132,104.20754716981132)" stroke="rgb(150.95283018867926,85.0754716981132,104.20754716981132)" stroke-width="1" />
<path d="M 54.00 328.00 C 48.42 331.98, 49.43 342.13, 58.00 340.00 C 62.94 339.21, 57.81 334.94, 60.00 333.00 C 56.14 331.55, 58.30 329.84, 54.00 329.00 Z" fill="rgb(79.57657657657657,32.891891891891895,57.729729729729726)" stroke="rgb(79.57657657657657,32.891891891891895,57.729729729729726)" stroke-width="1" />
<path d="M 378.00 295.00 C 373.23 297.08, 368.55 299.38, 364.00 302.00 C 360.75 303.73, 358.86 305.34, 357.00 307.00 C 353.73 307.09, 350.09 314.34, 353.00 312.00 C 358.21 307.56, 363.11 304.80, 368.00 302.00 C 371.59 300.62, 373.41 298.38, 376.00 298.00 C 379.19 297.75, 383.29 294.40, 379.00 295.00 Z" fill="rgb(184.6,165.4,174.98947368421054)" stroke="rgb(184.6,165.4,174.98947368421054)" stroke-width="1" />
<path d="M 96.00 366.00 C 93.30 368.06, 89.95 368.54, 87.00 370.00 C 84.07 371.25, 76.73 374.59, 82.00 373.00 C 86.00 373.00, 89.00 373.00, 92.00 373.00 C 97.04 373.43, 101.18 369.04, 97.00 366.00 Z" fill="rgb(169.85555555555555,154.6888888888889,197.8111111111111)" stroke="rgb(169.85555555555555,154.6888888888889,197.8111111111111)" stroke-width="1" />
<path d="M 476.00 305.00 C 469.68 306.72, 476.55 314.62, 475.00 320.00 C 476.51 318.27, 478.45 316.13, 478.00 313.00 C 478.47 309.26, 482.32 304.44, 477.00 305.00 Z" fill="rgb(122.78048780487805,169.14634146341464,210.40243902439025)" stroke="rgb(122.78048780487805,169.14634146341464,210.40243902439025)" stroke-width="1" />
<path d="M 127.00 309.00 C 124.47 313.18, 135.18 309.31, 137.00 313.00 C 142.59 316.05, 147.05 319.41, 151.00 324.00 C 151.46 319.71, 146.00 316.70, 142.00 314.00 C 136.94 311.00, 132.81 309.19, 128.00 309.00 Z" fill="rgb(174.1604938271605,153.6172839506173,165.0)" stroke="rgb(174.1604938271605,153.6172839506173,165.0)" stroke-width="1" />
<path d="M 180.00 314.00 C 180.50 317.01, 178.22 318.87, 179.00 322.00 C 178.42 324.56, 176.23 329.91, 180.00 329.00 C 185.73 330.07, 183.14 326.60, 183.00 324.00 C 181.93 320.08, 181.29 317.41, 180.00 315.00 Z" fill="rgb(142.08695652173913,189.20289855072463,222.36231884057972)" stroke="rgb(142.08695652173913,189.20289855072463,222.36231884057972)" stroke-width="1" />
<path d="M 253.00 76.00 C 254.54 82.08, 263.32 80.43, 267.00 78.00 C 265.06 74.24, 257.98 81.43, 254.00 76.00 Z" fill="rgb(128.81632653061226,68.91836734693878,83.04081632653062)" stroke="rgb(128.81632653061226,68.91836734693878,83.04081632653062)" stroke-width="1" />
<path d="M 54.00 357.00 C 52.78 361.59, 56.26 367.69, 59.00 372.00 C 62.51 372.13, 56.75 369.31, 58.00 367.00 C 55.87 363.39, 55.64 360.40, 54.00 358.00 Z" fill="rgb(165.89743589743588,97.23076923076923,103.92307692307692)" stroke="rgb(165.89743589743588,97.23076923076923,103.92307692307692)" stroke-width="1" />
<path d="M 459.00 386.00 C 455.87 390.75, 452.06 395.22, 449.00 400.00 C 454.44 395.79, 457.20 390.89, 460.00 386.00 Z" fill="rgb(190.0,115.52777777777777,117.44444444444444)" stroke="rgb(190.0,115.52777777777777,117.44444444444444)" stroke-width="1" />
</svg>