<svg xmlns="http://www.w3.org/2000/svg" width="512" height="512" viewbox="0 0 512 512">
<path d="M 0.50 0.50 C 0.50 5.17, 0.50 9.83, 0.50 14.50 C 0.50 20.50, 0.50 25.50, 0.50 30.50 C 0.50 36.50, 0.50 41.50, 0.50 46.50 C 0.50 52.50, 0.50 57.50, 0.50 62.50 C 0.50 68.50, 0.50 73.50, 0.50 78.50 C 0.50 84.50, 0.50 89.50, 0.50 94.50 C 0.50 100.50, 0.50 105.50, 0.50 110.50 C 0.50 116.50, 0.50 121.50, 0.50 126.50 C 0.50 132.17, 0.50 136.83, 0.50 141.50 C 0.50 147.50, 0.50 152.50, 0.50 157.50 C 0.50 163.50, 0.50 168.50, 0.50 173.50 C 0.50 179.50, 0.50 184.50, 0.50 189.50 C 0.50 195.50, 0.50 200.50, 0.50 205.50 C 0.50 211.50, 0.50 216.50, 0.50 221.50 C 0.50 227.50, 0.50 232.50, 0.50 237.50 C 0.50 243.50, 0.50 248.50, 0.50 253.50 C 0.50 259.17, 0.50 263.83, 0.50 268.50 C 0.50 274.50, 0.50 279.50, 0.50 284.50 C 0.50 290.50, 0.50 295.50, 0.50 300.50 C 0.50 306.50, 0.50 311.50, 0.50 316.50 C 0.50 322.50, 0.50 327.50, 0.50 332.50 C 0.50 338.50, 0.50 343.50, 0.50 348.50 C 0.50 354.50, 0.50 359.50, 0.50 364.50 C 0.50 370.50, 0.50 375.50, 0.50 380.50 C 0.50 386.50, 0.50 391.50, 0.50 396.50 C 0.50 402.50, 0.50 407.50, 0.50 412.50 C 0.50 418.50, 0.50 423.50, 0.50 428.50 C 0.50 434.50, 0.50 439.50, 0.50 444.50 C 0.50 450.50, 0.50 455.50, 0.50 460.50 C 0.50 466.50, 0.50 471.50, 0.50 476.50 C 0.50 482.50, 0.50 487.50, 0.50 492.50 C 0.50 498.50, 0.50 503.50, 0.50 508.50 C 2.71 513.96, 13.02 510.32, 18.50 511.50 C 24.17 511.50, 28.83 511.50, 33.50 511.50 C 39.17 511.50, 43.83 511.50, 48.50 511.50 C 54.17 511.50, 58.83 511.50, 63.50 511.50 C 69.50 511.50, 74.50 511.50, 79.50 511.50 C 85.17 511.50, 89.83 511.50, 94.50 511.50 C 100.50 511.50, 105.50 511.50, 110.50 511.50 C 116.17 511.50, 120.83 511.50, 125.50 511.50 C 131.50 511.50, 136.50 511.50, 141.50 511.50 C 162.50 511.50, 182.50 511.50, 202.50 511.50 C 213.50 511.50, 223.50 511.50, 233.50 511.50 C 239.17 511.50, 243.83 511.50, 248.50 511.50 C 254.50 511.50, 259.50 511.50, 264.50 511.50 C 270.17 511.50, 274.83 511.50, 279.50 511.50 C 285.17 511.50, 289.83 511.50, 294.50 511.50 C 300.17 511.50, 304.83 511.50, 309.50 511.50 C 315.50 511.50, 320.50 511.50, 325.50 511.50 C 331.17 511.50, 335.83 511.50, 340.50 511.50 C 346.50 511.50, 351.50 511.50, 356.50 511.50 C 362.17 511.50, 366.83 511.50, 371.50 511.50 C 377.50 511.50, 382.50 511.50, 387.50 511.50 C 393.17 511.50, 397.83 511.50, 402.50 511.50 C 408.17 511.50, 412.83 511.50, 417.50 511.50 C 423.17 511.50, 427.83 511.50, 432.50 511.50 C 438.50 511.50, 443.50 511.50, 448.50 511.50 C 454.17 511.50, 458.83 511.50, 463.50 511.50 C 469.50 511.50, 474.50 511.50, 479.50 511.50 C 485.17 511.50, 489.83 511.50, 494.50 511.50 C 500.50 511.50, 505.50 511.50, 510.50 511.50 C 511.50 506.83, 511.50 502.17, 511.50 497.50 C 511.50 491.50, 511.50 486.50, 511.50 481.50 C 511.50 475.50, 511.50 470.50, 511.50 465.50 C 511.50 459.50, 511.50 454.50, 511.50 449.50 C 511.50 443.50, 511.50 438.50, 511.50 433.50 C 511.50 427.50, 511.50 422.50, 511.50 417.50 C 511.50 411.50, 511.50 406.50, 511.50 401.50 C 511.50 395.50, 511.50 390.50, 511.50 385.50 C 511.50 379.50, 511.50 374.50, 511.50 369.50 C 511.50 363.50, 511.50 358.50, 511.50 353.50 C 511.50 347.50, 511.50 342.50, 511.50 337.50 C 511.50 331.50, 511.50 326.50, 511.50 321.50 C 511.50 299.50, 511.50 278.50, 511.50 257.50 C 511.50 171.50, 511.50 86.50, 511.50 1.50 C 426.83 0.50, 342.17 0.50, 257.50 0.50 C 251.50 0.50, 246.50 0.50, 241.50 0.50 C 235.50 0.50, 230.50 0.50, 225.50 0.50 C 219.50 0.50, 214.50 0.50, 209.50 0.50 C 203.50 0.50, 198.50 0.50, 193.50 0.50 C 187.50 0.50, 182.50 0.50, 177.50 0.50 C 171.50 0.50, 166.50 0.50, 161.50 0.50 C 155.50 0.50, 150.50 0.50, 145.50 0.50 C 139.50 0.50, 134.50 0.50, 129.50 0.50 C 123.50 0.50, 118.50 0.50, 113.50 0.50 C 107.50 0.50, 102.50 0.50, 97.50 0.50 C 91.50 0.50, 86.50 0.50, 81.50 0.50 C 75.50 0.50, 70.50 0.50, 65.50 0.50 C 59.50 0.50, 54.50 0.50, 49.50 0.50 C 43.50 0.50, 38.50 0.50, 33.50 0.50 C 27.50 0.50, 22.50 0.50, 17.50 0.50 C 11.50 0.50, 6.50 0.50, 1.50 0.50 Z" fill="rgb(9.953267633598877,9.953267633598877,9.953267633598877)" stroke="rgb(9.953267633598877,9.953267633598877,9.953267633598877)" stroke-width="1" />
<path d="M 252.50 0.50 C 246.75 2.77, 240.50 3.83, 234.50 5.50 C 227.60 8.93, 221.83 11.68, 216.50 15.50 C 210.71 17.54, 206.10 19.01, 201.50 20.50 C 196.32 21.06, 192.76 23.13, 188.50 23.50 C 183.09 24.84, 179.40 26.92, 175.50 28.50 C 168.78 31.84, 162.09 32.84, 156.50 36.50 C 150.35 38.81, 145.58 42.02, 140.50 44.50 C 134.22 47.83, 129.28 50.96, 124.50 54.50 C 118.69 57.35, 115.09 62.12, 110.50 64.50 C 106.92 66.67, 103.91 71.17, 100.50 72.50 C 95.94 76.16, 93.61 80.17, 89.50 82.50 C 86.44 87.57, 82.27 89.69, 79.50 93.50 C 75.92 97.18, 73.51 100.86, 70.50 104.50 C 66.21 109.38, 64.04 113.72, 60.50 117.50 C 56.30 121.53, 56.70 126.47, 52.50 129.50 C 48.37 136.98, 45.42 143.94, 41.50 150.50 C 38.38 158.45, 34.91 165.25, 32.50 172.50 C 32.06 176.73, 29.60 179.13, 29.50 182.50 C 28.40 190.68, 23.36 195.81, 24.50 203.50 C 23.48 210.24, 21.34 215.10, 20.50 220.50 C 20.54 224.32, 20.79 227.23, 19.50 229.50 C 20.17 236.25, 18.56 241.05, 18.50 246.50 C 18.50 252.83, 18.50 258.17, 18.50 263.50 C 19.69 271.46, 19.53 276.16, 20.50 282.50 C 20.03 286.83, 20.97 289.58, 21.50 292.50 C 22.26 297.60, 23.34 301.57, 24.50 305.50 C 23.71 313.38, 27.95 318.18, 28.50 324.50 C 27.45 331.97, 32.23 346.20, 22.50 348.50 C 7.35 353.52, 7.72 370.03, 13.50 380.50 C 17.24 391.73, 29.79 392.55, 37.50 399.50 C 46.82 401.01, 54.57 396.02, 61.50 397.50 C 62.50 402.83, 62.50 407.17, 62.50 411.50 C 62.33 417.51, 63.86 421.82, 64.50 426.50 C 66.30 431.31, 66.26 435.88, 68.50 439.50 C 72.27 445.85, 74.75 452.90, 80.50 456.50 C 85.02 462.81, 91.81 467.37, 97.50 471.50 C 102.62 475.83, 107.99 477.13, 112.50 480.50 C 117.24 482.24, 116.46 487.26, 116.50 490.50 C 116.30 495.61, 119.34 498.37, 121.50 501.50 C 127.47 506.98, 134.03 507.63, 140.50 508.50 C 145.04 511.08, 150.92 508.02, 154.50 510.50 C 159.50 511.50, 163.50 511.50, 167.50 511.50 C 172.83 511.50, 177.17 511.50, 181.50 511.50 C 186.50 511.50, 190.50 511.50, 194.50 511.50 C 199.83 511.50, 204.17 511.50, 208.50 511.50 C 213.39 512.18, 215.43 508.40, 219.50 509.50 C 225.11 507.08, 230.85 507.41, 236.50 507.50 C 243.38 507.69, 248.39 505.75, 254.50 506.50 C 259.76 507.29, 262.47 507.56, 267.50 507.50 C 272.50 507.50, 276.50 507.50, 280.50 507.50 C 285.36 510.25, 289.50 506.96, 293.50 509.50 C 299.25 509.44, 304.26 509.75, 309.50 509.50 C 314.95 507.86, 318.32 508.97, 323.50 508.50 C 329.39 507.85, 333.13 510.58, 337.50 508.50 C 342.96 509.46, 346.75 507.82, 351.50 508.50 C 357.14 508.92, 360.71 506.72, 365.50 507.50 C 371.45 506.72, 376.24 505.55, 381.50 505.50 C 387.60 503.93, 393.29 503.80, 398.50 502.50 C 403.98 501.86, 408.02 500.14, 412.50 499.50 C 417.66 499.35, 420.75 496.63, 424.50 495.50 C 429.92 493.70, 434.18 491.54, 438.50 489.50 C 445.36 485.76, 450.42 481.11, 455.50 476.50 C 459.65 471.09, 463.75 467.08, 466.50 462.50 C 470.91 456.09, 472.90 449.67, 475.50 443.50 C 476.01 438.10, 477.90 434.28, 477.50 429.50 C 484.62 424.84, 495.32 425.20, 495.50 415.50 C 501.45 410.39, 502.74 404.76, 502.50 398.50 C 501.48 390.65, 493.25 387.21, 490.50 381.50 C 490.44 375.28, 492.08 370.35, 491.50 364.50 C 490.85 357.27, 488.24 351.86, 485.50 346.50 C 485.04 336.81, 489.47 330.16, 491.50 322.50 C 492.93 315.87, 494.84 310.45, 495.50 304.50 C 497.70 297.86, 497.53 291.24, 499.50 285.50 C 499.82 280.16, 498.65 275.21, 500.50 271.50 C 500.50 265.83, 500.50 261.17, 500.50 256.50 C 500.50 250.83, 500.50 246.17, 500.50 241.50 C 501.09 235.45, 498.74 231.62, 499.50 226.50 C 498.35 218.09, 496.55 210.95, 495.50 203.50 C 494.04 198.22, 493.39 193.60, 491.50 189.50 C 491.67 183.54, 488.40 180.01, 487.50 175.50 C 485.01 167.76, 482.51 161.02, 479.50 154.50 C 475.58 146.94, 473.13 139.77, 468.50 133.50 C 467.42 128.84, 463.90 126.61, 462.50 123.50 C 457.89 116.00, 453.24 109.52, 447.50 103.50 C 444.10 96.59, 438.33 92.80, 434.50 87.50 C 427.65 80.11, 420.21 74.37, 415.50 67.50 C 421.26 24.09, 367.83 -0.74, 336.50 24.50 C 332.57 25.28, 330.96 22.85, 328.50 22.50 C 322.52 21.13, 317.32 20.28, 312.50 18.50 C 305.79 16.41, 300.36 13.64, 295.50 9.50 C 290.62 7.55, 286.34 6.55, 282.50 4.50 C 277.13 3.60, 273.02 2.05, 268.50 1.50 C 262.70 1.48, 257.73 1.89, 253.50 0.50 Z" fill="rgb(240.84231056519212,241.1759897086895,244.64660967715164)" stroke="rgb(240.84231056519212,241.1759897086895,244.64660967715164)" stroke-width="1" />
<path d="M 194.50 340.50 C 193.32 343.08, 188.18 339.59, 188.50 343.50 C 186.85 349.04, 184.91 353.45, 184.50 358.50 C 182.01 363.24, 183.25 368.11, 178.50 370.50 C 175.02 367.45, 170.49 369.34, 167.50 367.50 C 162.41 366.71, 158.87 364.61, 154.50 364.50 C 149.14 364.71, 145.60 362.93, 141.50 362.50 C 136.30 363.89, 132.34 360.93, 128.50 363.50 C 123.64 364.65, 118.55 363.81, 114.50 365.50 C 109.66 367.76, 105.70 368.71, 102.50 371.50 C 97.95 374.78, 93.81 376.64, 90.50 380.50 C 85.79 385.91, 80.99 390.44, 79.50 396.50 C 78.11 400.20, 77.36 403.17, 77.50 406.50 C 76.78 411.52, 75.72 416.10, 77.50 419.50 C 78.96 424.78, 79.61 429.40, 81.50 433.50 C 85.40 440.88, 89.32 446.71, 95.50 451.50 C 100.61 456.36, 105.42 458.55, 109.50 462.50 C 115.43 466.48, 121.21 468.39, 126.50 471.50 C 132.63 475.45, 138.92 476.61, 144.50 479.50 C 149.83 480.05, 153.54 482.07, 157.50 483.50 C 163.09 485.01, 168.03 485.69, 172.50 487.50 C 178.43 488.68, 183.45 489.63, 188.50 490.50 C 196.86 490.96, 203.04 493.27, 210.50 492.50 C 214.00 492.42, 215.73 494.23, 218.50 493.50 C 223.99 494.27, 228.26 491.68, 233.50 492.50 C 241.93 492.41, 248.75 490.84, 256.50 491.50 C 260.78 492.95, 262.41 487.32, 264.50 491.50 C 268.97 494.44, 275.09 492.42, 279.50 494.50 C 285.74 494.25, 290.75 494.56, 295.50 495.50 C 301.64 495.90, 305.42 494.29, 310.50 495.50 C 313.91 492.44, 317.88 498.02, 320.50 494.50 C 327.17 494.50, 332.83 494.50, 338.50 494.50 C 345.02 493.82, 350.53 493.11, 356.50 493.50 C 363.15 491.98, 369.58 492.37, 375.50 491.50 C 381.23 490.98, 385.77 490.02, 390.50 489.50 C 394.71 489.34, 397.29 487.66, 400.50 487.50 C 408.09 484.18, 416.04 484.15, 422.50 480.50 C 426.29 479.47, 428.61 477.29, 431.50 476.50 C 439.00 472.11, 444.13 465.74, 448.50 460.50 C 456.55 453.37, 457.33 444.23, 461.50 436.50 C 461.88 427.52, 461.04 420.03, 455.50 414.50 C 454.97 408.95, 448.52 408.92, 447.50 405.50 C 441.93 404.55, 439.33 399.84, 434.50 400.50 C 429.45 397.49, 425.16 396.04, 420.50 395.50 C 413.69 392.89, 407.14 392.09, 400.50 391.50 C 392.74 388.58, 385.55 387.72, 378.50 386.50 C 370.82 383.26, 362.14 384.85, 355.50 381.50 C 347.82 379.83, 338.89 382.05, 335.50 374.50 C 334.46 370.38, 332.97 367.44, 331.50 364.50 C 328.17 356.64, 325.17 349.64, 322.50 342.50 C 318.27 339.30, 313.40 341.07, 309.50 340.50 C 304.17 340.50, 299.83 340.50, 295.50 340.50 C 290.17 340.50, 285.83 340.50, 281.50 340.50 C 276.17 340.50, 271.83 340.50, 267.50 340.50 C 261.83 340.50, 257.17 340.50, 252.50 340.50 C 247.17 340.50, 242.83 340.50, 238.50 340.50 C 233.17 340.50, 228.83 340.50, 224.50 340.50 C 218.61 341.10, 212.71 339.26, 208.50 341.50 C 202.73 340.70, 200.12 341.17, 195.50 340.50 Z" fill="rgb(117.74152978026444,59.5865911101547,88.37959974176889)" stroke="rgb(117.74152978026444,59.5865911101547,88.37959974176889)" stroke-width="1" />
<path d="M 284.50 140.50 C 282.17 142.65, 279.03 142.84, 276.50 144.50 C 270.50 147.30, 265.56 149.26, 259.50 148.50 C 251.76 149.42, 246.60 146.53, 241.50 143.50 C 237.71 146.07, 236.35 147.64, 233.50 149.50 C 226.70 153.31, 220.53 155.24, 214.50 157.50 C 206.79 161.26, 200.41 164.82, 194.50 169.50 C 189.89 172.64, 186.00 175.09, 182.50 178.50 C 177.83 182.17, 174.17 185.83, 170.50 189.50 C 165.44 193.86, 163.56 198.14, 159.50 201.50 C 156.26 206.07, 154.62 209.88, 152.50 213.50 C 150.56 218.72, 149.05 223.12, 147.50 227.50 C 145.81 233.10, 143.69 237.11, 142.50 241.50 C 140.43 248.33, 139.03 254.44, 137.50 260.50 C 134.91 263.04, 138.09 266.96, 135.50 268.50 C 134.85 276.65, 132.62 283.14, 132.50 290.50 C 129.53 304.01, 129.76 312.55, 118.50 319.50 C 106.51 323.89, 96.64 328.44, 86.50 336.50 C 83.60 344.47, 95.23 356.36, 99.50 365.50 C 124.09 362.09, 153.01 358.16, 171.50 340.50 C 177.09 330.02, 178.11 292.54, 183.50 317.50 C 185.48 324.84, 187.34 331.23, 189.50 337.50 C 192.40 340.68, 196.93 338.94, 200.50 339.50 C 205.17 339.50, 208.83 339.50, 212.50 339.50 C 219.50 339.50, 225.50 339.50, 231.50 339.50 C 234.33 339.23, 236.21 339.87, 238.50 339.50 C 242.42 337.59, 245.09 341.42, 247.50 338.50 C 253.83 338.50, 259.17 338.50, 264.50 338.50 C 269.50 338.50, 273.50 338.50, 277.50 338.50 C 282.50 338.50, 286.50 338.50, 290.50 338.50 C 295.50 338.50, 299.50 338.50, 303.50 338.50 C 308.50 338.50, 312.50 338.50, 316.50 338.50 C 320.33 339.11, 320.51 336.27, 319.50 334.50 C 320.87 327.75, 322.39 322.08, 323.50 315.50 C 323.38 312.26, 325.37 310.47, 324.50 307.50 C 326.98 302.45, 326.07 296.99, 327.50 292.50 C 327.37 284.38, 330.82 290.51, 329.50 294.50 C 332.45 299.85, 332.99 304.79, 336.50 308.50 C 336.59 314.62, 341.12 317.91, 342.50 322.50 C 344.99 327.39, 346.04 333.41, 350.50 335.50 C 351.85 340.57, 358.02 342.28, 360.50 345.50 C 365.61 350.24, 370.61 354.24, 375.50 358.50 C 382.30 361.36, 386.35 367.47, 392.50 368.50 C 391.68 372.89, 397.32 370.11, 396.50 373.50 C 403.71 375.55, 406.39 380.92, 412.50 382.50 C 421.49 380.70, 426.33 371.28, 433.50 367.50 C 437.00 363.71, 440.80 361.45, 440.50 357.50 C 443.29 352.93, 435.62 348.89, 433.50 352.50 C 432.31 348.48, 432.12 340.74, 426.50 343.50 C 425.28 336.60, 417.71 334.34, 415.50 328.50 C 410.84 325.15, 407.61 320.77, 403.50 318.50 C 399.42 313.47, 396.19 311.32, 392.50 307.50 C 388.22 301.68, 380.42 298.04, 379.50 291.50 C 379.43 287.58, 378.79 284.91, 377.50 282.50 C 376.23 275.14, 373.82 269.25, 373.50 262.50 C 372.02 254.95, 369.82 249.12, 369.50 242.50 C 369.19 237.41, 366.81 234.59, 367.50 230.50 C 365.55 225.89, 366.14 221.23, 364.50 217.50 C 362.88 213.42, 363.18 209.55, 361.50 206.50 C 360.19 200.88, 357.43 196.86, 355.50 192.50 C 352.11 187.19, 349.18 182.69, 345.50 178.50 C 340.78 173.83, 336.59 171.29, 332.50 168.50 C 323.99 164.27, 316.74 160.40, 309.50 156.50 C 304.57 153.81, 301.10 150.99, 297.50 148.50 C 293.03 145.36, 289.49 142.38, 285.50 140.50 Z" fill="rgb(254.67971684484255,254.5493836078205,254.58513916979678)" stroke="rgb(254.67971684484255,254.5493836078205,254.58513916979678)" stroke-width="1" />
<path d="M 281.50 0.50 C 285.79 2.56, 291.55 5.90, 295.50 5.50 C 299.84 10.44, 305.62 12.30, 310.50 15.50 C 316.06 17.08, 321.83 15.77, 325.50 19.50 C 330.21 19.25, 332.95 21.36, 336.50 21.50 C 341.36 18.83, 345.21 16.14, 349.50 14.50 C 356.21 12.81, 361.76 10.70, 368.50 11.50 C 373.74 12.04, 376.24 10.74, 379.50 13.50 C 389.13 14.30, 396.58 20.36, 402.50 25.50 C 407.68 30.82, 410.67 35.63, 413.50 40.50 C 415.85 45.08, 416.32 49.44, 417.50 53.50 C 416.82 59.25, 418.46 63.04, 418.50 67.50 C 422.65 73.56, 428.22 78.18, 433.50 82.50 C 439.42 89.34, 442.61 93.31, 448.50 99.50 C 451.20 103.76, 453.99 106.57, 456.50 109.50 C 459.62 114.78, 463.15 118.90, 465.50 123.50 C 469.61 130.59, 473.39 136.41, 476.50 142.50 C 477.57 146.55, 480.58 148.39, 480.50 151.50 C 484.14 158.04, 486.34 163.76, 488.50 169.50 C 491.10 175.92, 492.39 181.88, 494.50 187.50 C 496.71 194.94, 497.40 202.01, 499.50 208.50 C 500.87 214.35, 500.59 219.88, 502.50 224.50 C 501.88 231.56, 503.29 236.78, 503.50 242.50 C 503.50 249.17, 503.50 254.83, 503.50 260.50 C 503.93 265.18, 502.87 270.07, 503.50 272.50 C 503.04 278.86, 501.89 283.52, 501.50 288.50 C 500.68 293.10, 500.32 296.90, 499.50 300.50 C 498.33 307.90, 501.25 301.19, 501.50 306.50 C 506.21 304.49, 500.80 302.45, 504.50 299.50 C 504.49 292.58, 507.98 298.82, 507.50 301.50 C 506.53 310.27, 508.20 319.55, 511.50 310.50 C 511.50 304.83, 511.50 300.17, 511.50 295.50 C 511.50 289.50, 511.50 284.50, 511.50 279.50 C 511.50 273.83, 511.50 269.17, 511.50 264.50 C 511.50 258.50, 511.50 253.50, 511.50 248.50 C 511.50 242.83, 511.50 238.17, 511.50 233.50 C 511.50 227.50, 511.50 222.50, 511.50 217.50 C 511.50 211.83, 511.50 207.17, 511.50 202.50 C 511.50 196.50, 511.50 191.50, 511.50 186.50 C 511.50 180.83, 511.50 176.17, 511.50 171.50 C 511.50 165.50, 511.50 160.50, 511.50 155.50 C 511.50 149.83, 511.50 145.17, 511.50 140.50 C 511.50 134.50, 511.50 129.50, 511.50 124.50 C 511.50 118.83, 511.50 114.17, 511.50 109.50 C 511.50 103.50, 511.50 98.50, 511.50 93.50 C 511.50 87.83, 511.50 83.17, 511.50 78.50 C 511.50 72.50, 511.50 67.50, 511.50 62.50 C 511.50 57.83, 511.50 54.17, 511.50 50.50 C 511.50 45.50, 511.50 41.50, 511.50 37.50 C 511.50 32.83, 511.50 29.17, 511.50 25.50 C 511.50 20.50, 511.50 16.50, 511.50 12.50 C 511.50 7.83, 511.50 4.17, 511.50 0.50 C 506.17 0.50, 501.83 0.50, 497.50 0.50 C 491.83 0.50, 487.17 0.50, 482.50 0.50 C 477.83 0.50, 474.17 0.50, 470.50 0.50 C 465.50 0.50, 461.50 0.50, 457.50 0.50 C 452.83 0.50, 449.17 0.50, 445.50 0.50 C 440.50 0.50, 436.50 0.50, 432.50 0.50 C 427.83 0.50, 424.17 0.50, 420.50 0.50 C 415.50 0.50, 411.50 0.50, 407.50 0.50 C 402.83 0.50, 399.17 0.50, 395.50 0.50 C 390.50 0.50, 386.50 0.50, 382.50 0.50 C 377.83 0.50, 374.17 0.50, 370.50 0.50 C 365.50 0.50, 361.50 0.50, 357.50 0.50 C 352.83 0.50, 349.17 0.50, 345.50 0.50 C 340.50 0.50, 336.50 0.50, 332.50 0.50 C 327.83 0.50, 324.17 0.50, 320.50 0.50 C 315.50 0.50, 311.50 0.50, 307.50 0.50 C 302.83 0.50, 299.17 0.50, 295.50 0.50 C 290.50 0.50, 286.50 0.50, 282.50 0.50 Z" fill="rgb(0.0,0.0,0.0)" stroke="rgb(0.0,0.0,0.0)" stroke-width="1" />
<path d="M 439.50 118.50 C 436.61 120.11, 433.02 120.01, 430.50 122.50 C 421.95 126.31, 414.86 131.22, 407.50 135.50 C 403.44 138.45, 400.26 140.56, 397.50 142.50 C 388.81 148.97, 381.70 155.83, 374.50 162.50 C 371.51 165.53, 367.68 168.82, 370.50 171.50 C 373.26 177.10, 373.90 182.59, 373.50 188.50 C 372.20 195.87, 370.24 201.97, 364.50 206.50 C 364.51 212.58, 367.65 216.36, 367.50 221.50 C 369.66 229.49, 369.99 237.24, 371.50 244.50 C 371.82 248.31, 372.75 250.87, 373.50 253.50 C 374.37 259.89, 375.95 264.98, 376.50 270.50 C 378.11 275.66, 378.39 279.96, 380.50 283.50 C 382.39 289.21, 381.98 294.88, 386.50 298.50 C 391.39 303.43, 391.67 297.02, 394.50 296.50 C 399.96 289.58, 406.20 281.93, 413.50 280.50 C 414.07 275.98, 416.56 271.32, 420.50 271.50 C 426.90 276.20, 435.23 283.09, 440.50 282.50 C 440.02 274.81, 436.98 269.19, 436.50 262.50 C 436.06 257.54, 434.99 253.85, 435.50 249.50 C 434.44 242.87, 436.08 237.93, 436.50 232.50 C 437.40 226.56, 443.82 223.42, 446.50 228.50 C 450.06 234.21, 452.94 238.79, 455.50 243.50 C 458.36 250.75, 460.83 257.17, 463.50 263.50 C 464.17 269.44, 467.64 273.22, 467.50 278.50 C 470.55 285.26, 470.74 292.20, 472.50 298.50 C 472.99 302.72, 474.39 305.66, 478.50 304.50 C 482.02 301.83, 481.42 295.34, 483.50 291.50 C 484.14 285.82, 484.19 280.90, 485.50 276.50 C 484.75 269.39, 486.69 264.38, 486.50 258.50 C 486.50 253.83, 486.50 250.17, 486.50 246.50 C 485.36 241.83, 485.37 237.69, 485.50 233.50 C 485.25 229.80, 483.90 227.55, 484.50 224.50 C 482.93 218.40, 482.80 212.71, 481.50 207.50 C 479.88 201.62, 479.12 196.38, 477.50 191.50 C 475.84 185.50, 474.16 180.50, 472.50 175.50 C 470.04 170.02, 468.13 165.32, 466.50 160.50 C 463.05 152.47, 458.71 146.22, 455.50 139.50 C 449.93 132.07, 447.25 124.44, 440.50 118.50 Z" fill="rgb(143.9926411560075,210.97497993042546,207.999464811346)" stroke="rgb(143.9926411560075,210.97497993042546,207.999464811346)" stroke-width="1" />
<path d="M 249.50 15.50 C 242.11 17.22, 235.24 20.20, 228.50 23.50 C 219.91 28.72, 213.36 36.43, 208.50 43.50 C 205.97 48.95, 203.20 53.29, 202.50 58.50 C 200.65 64.56, 198.85 69.23, 198.50 74.50 C 198.46 79.96, 196.82 83.75, 197.50 88.50 C 196.19 93.18, 196.42 97.49, 193.50 100.50 C 190.61 104.84, 185.90 107.43, 182.50 109.50 C 177.59 111.25, 174.46 114.87, 170.50 116.50 C 165.27 120.99, 162.97 125.28, 160.50 129.50 C 158.08 135.11, 158.41 140.85, 158.50 146.50 C 159.05 153.02, 160.63 158.11, 161.50 163.50 C 162.60 173.12, 158.45 179.56, 155.50 186.50 C 151.51 190.95, 151.38 195.59, 149.50 199.50 C 149.78 204.52, 148.72 209.10, 150.50 212.50 C 153.85 208.84, 154.84 204.62, 158.50 201.50 C 161.66 196.01, 166.14 193.30, 168.50 189.50 C 174.04 183.65, 177.75 181.07, 182.50 176.50 C 186.65 171.54, 193.01 169.47, 197.50 165.50 C 201.83 163.63, 204.59 161.39, 207.50 159.50 C 214.79 155.93, 221.35 153.01, 228.50 151.50 C 234.00 147.27, 240.88 143.26, 240.50 136.50 C 243.04 127.23, 234.60 129.19, 230.50 125.50 C 224.45 120.60, 219.07 115.84, 217.50 109.50 C 215.35 103.17, 214.32 97.38, 213.50 91.50 C 213.50 82.83, 213.50 75.17, 213.50 67.50 C 213.60 62.93, 212.76 58.98, 215.50 56.50 C 218.98 47.09, 227.55 40.19, 235.50 36.50 C 240.36 34.15, 244.74 33.09, 248.50 30.50 C 251.95 33.57, 251.87 37.68, 252.50 41.50 C 255.52 52.91, 263.79 62.86, 273.50 67.50 C 283.16 67.55, 280.07 84.12, 287.50 76.50 C 301.91 64.59, 300.29 80.47, 305.50 79.50 C 307.59 89.27, 300.54 96.38, 293.50 99.50 C 288.99 100.88, 290.81 105.78, 288.50 108.50 C 287.47 118.68, 286.31 127.81, 286.50 137.50 C 292.28 143.37, 298.31 147.64, 304.50 151.50 C 311.55 155.71, 317.56 159.02, 323.50 162.50 C 329.72 164.97, 334.68 168.07, 339.50 171.50 C 345.01 177.09, 349.98 181.50, 353.50 186.50 C 356.93 192.46, 359.60 197.32, 361.50 202.50 C 367.66 204.67, 370.01 195.02, 371.50 190.50 C 371.50 186.83, 371.50 184.17, 371.50 181.50 C 368.09 173.73, 367.52 165.78, 360.50 160.50 C 354.91 154.24, 351.48 148.08, 351.50 140.50 C 353.34 136.65, 351.66 132.35, 353.50 129.50 C 353.11 124.30, 356.07 120.34, 353.50 116.50 C 352.11 110.39, 348.44 106.97, 344.50 103.50 C 337.36 99.32, 331.80 94.72, 326.50 89.50 C 321.81 83.40, 319.04 77.91, 318.50 71.50 C 316.81 62.10, 314.69 54.29, 312.50 46.50 C 309.00 40.97, 306.02 34.62, 301.50 31.50 C 295.09 25.42, 288.94 22.10, 282.50 19.50 C 276.04 16.87, 270.10 15.38, 263.50 15.50 C 258.50 15.50, 254.50 15.50, 250.50 15.50 Z" fill="rgb(254.58096897873824,126.3158591843848,104.65067967933078)" stroke="rgb(254.58096897873824,126.3158591843848,104.65067967933078)" stroke-width="1" />
<path d="M 106.50 144.50 C 99.90 146.19, 93.21 147.67, 87.50 151.50 C 81.66 154.42, 77.23 158.33, 72.50 161.50 C 66.23 167.58, 61.34 171.49, 56.50 177.50 C 50.24 184.39, 44.91 190.26, 40.50 196.50 C 38.55 201.52, 37.47 205.49, 36.50 209.50 C 34.91 216.59, 34.21 223.05, 33.50 229.50 C 33.11 235.48, 31.96 240.14, 32.50 245.50 C 32.64 251.91, 31.93 257.68, 33.50 262.50 C 34.63 265.11, 37.65 256.72, 37.50 253.50 C 39.92 250.01, 40.12 247.01, 41.50 244.50 C 45.46 235.70, 50.64 229.48, 56.50 223.50 C 62.89 219.44, 64.77 227.97, 65.50 231.50 C 65.68 238.04, 65.56 243.47, 64.50 248.50 C 63.68 255.10, 63.12 260.82, 62.50 266.50 C 61.23 272.72, 61.33 278.51, 59.50 283.50 C 58.31 290.09, 57.69 295.91, 56.50 301.50 C 66.38 304.88, 70.45 298.27, 75.50 292.50 C 81.54 286.45, 86.03 277.69, 94.50 278.50 C 100.09 280.20, 100.18 286.86, 102.50 288.50 C 109.21 284.46, 115.39 281.57, 121.50 278.50 C 124.70 276.38, 128.18 277.35, 130.50 275.50 C 133.17 272.11, 133.62 268.22, 134.50 264.50 C 136.46 259.90, 136.43 255.47, 137.50 251.50 C 140.12 245.89, 140.48 240.35, 142.50 235.50 C 144.81 229.29, 146.46 223.82, 148.50 218.50 C 148.27 210.75, 146.02 203.05, 148.50 196.50 C 149.19 191.90, 152.49 189.38, 152.50 185.50 C 156.70 178.66, 160.17 172.94, 159.50 165.50 C 155.90 160.21, 151.44 157.98, 147.50 154.50 C 142.64 152.16, 138.65 150.15, 134.50 148.50 C 129.85 146.65, 125.91 145.51, 121.50 145.50 C 116.17 144.50, 111.83 144.50, 107.50 144.50 Z" fill="rgb(143.9854391733208,210.96312822921558,207.99170189447315)" stroke="rgb(143.9854391733208,210.96312822921558,207.99170189447315)" stroke-width="1" />
<path d="M 247.50 31.50 C 240.87 36.07, 232.93 37.46, 226.50 42.50 C 219.12 49.71, 213.41 56.20, 214.50 65.50 C 214.06 70.07, 212.32 74.60, 214.50 77.50 C 215.75 83.04, 213.89 89.28, 214.50 94.50 C 214.75 100.42, 217.60 103.85, 217.50 108.50 C 220.53 114.57, 222.65 119.60, 227.50 123.50 C 232.24 128.87, 243.68 125.38, 241.50 134.50 C 241.66 138.36, 240.39 143.25, 244.50 143.50 C 250.82 147.94, 257.69 147.65, 264.50 147.50 C 272.45 144.93, 281.25 143.26, 285.50 136.50 C 284.96 128.14, 287.27 121.96, 286.50 114.50 C 288.53 110.59, 286.80 106.13, 289.50 103.50 C 289.20 97.22, 296.04 98.61, 298.50 95.50 C 303.56 92.95, 304.91 87.88, 304.50 83.50 C 305.17 77.35, 302.32 72.71, 297.50 71.50 C 291.04 72.12, 287.70 77.84, 283.50 81.50 C 281.21 78.09, 280.57 75.42, 280.50 72.50 C 273.28 69.17, 267.51 65.76, 262.50 60.50 C 257.11 54.41, 254.46 48.60, 252.50 42.50 C 249.82 38.87, 252.27 32.72, 248.50 31.50 Z" fill="rgb(251.44252321485752,161.76993275696447,151.33093179634966)" stroke="rgb(251.44252321485752,161.76993275696447,151.33093179634966)" stroke-width="1" />
<path d="M 441.50 227.50 C 437.22 230.75, 438.48 236.30, 436.50 240.50 C 436.11 253.21, 438.74 263.68, 440.50 274.50 C 445.84 290.91, 451.35 313.60, 436.50 288.50 C 396.03 253.91, 436.72 339.10, 446.50 356.50 C 441.36 364.74, 427.00 372.55, 418.50 382.50 C 431.09 397.05, 450.43 403.76, 464.50 416.50 C 441.73 384.48, 495.77 428.36, 473.50 402.50 C 466.87 393.18, 503.16 409.72, 477.50 391.50 C 465.66 385.72, 461.14 381.14, 473.50 375.50 C 481.12 367.90, 472.31 349.23, 470.50 365.50 C 468.70 373.66, 453.99 372.51, 457.50 365.50 C 460.71 361.29, 461.15 353.95, 467.50 355.50 C 478.03 355.29, 465.21 349.77, 466.50 348.50 C 480.28 328.74, 472.72 305.23, 467.50 284.50 C 461.30 264.13, 456.77 242.56, 442.50 227.50 Z" fill="rgb(157.28985507246378,137.29710144927537,155.80434782608697)" stroke="rgb(157.28985507246378,137.29710144927537,155.80434782608697)" stroke-width="1" />
<path d="M 58.50 224.50 C 39.11 242.87, 29.78 272.18, 36.50 298.50 C 38.77 309.00, 40.59 318.68, 44.50 327.50 C 23.67 377.25, 29.70 399.63, 94.50 360.50 C 89.51 352.50, 85.03 345.70, 81.50 338.50 C 88.33 321.90, 103.80 299.24, 96.50 281.50 C 85.33 277.78, 78.60 292.37, 71.50 298.50 C 62.79 305.01, 62.88 320.37, 52.50 320.50 C 52.01 307.05, 58.04 292.35, 58.50 277.50 C 59.38 260.32, 69.54 237.44, 59.50 224.50 Z" fill="rgb(158.48214285714286,155.57142857142858,176.91071428571428)" stroke="rgb(158.48214285714286,155.57142857142858,176.91071428571428)" stroke-width="1" />
<path d="M 304.50 31.50 C 318.21 46.11, 316.47 67.12, 323.50 84.50 C 330.09 94.22, 340.10 97.85, 347.50 104.50 C 365.79 120.46, 341.73 147.90, 363.50 161.50 C 365.39 167.26, 372.03 165.85, 372.50 161.50 C 377.44 157.83, 381.93 154.34, 384.50 150.50 C 390.07 146.60, 394.92 141.77, 400.50 138.50 C 398.56 130.41, 371.92 137.56, 360.50 134.50 C 366.39 121.85, 384.91 120.32, 395.50 127.50 C 407.23 119.45, 419.63 110.45, 431.50 106.50 C 426.35 100.23, 422.20 94.54, 416.50 89.50 C 410.45 84.30, 405.32 80.27, 400.50 75.50 C 390.40 95.06, 364.94 103.04, 348.50 90.50 C 337.05 81.76, 331.40 71.02, 332.50 57.50 C 343.93 40.08, 330.26 36.95, 315.50 33.50 C 311.71 32.32, 308.06 33.22, 305.50 31.50 Z" fill="rgb(137.5655172413793,155.55862068965519,215.13103448275862)" stroke="rgb(137.5655172413793,155.55862068965519,215.13103448275862)" stroke-width="1" />
<path d="M 305.50 32.50 C 307.89 36.95, 311.50 40.89, 313.50 45.50 C 315.83 50.75, 316.95 55.51, 317.50 60.50 C 318.07 66.68, 320.67 71.01, 320.50 76.50 C 320.93 80.82, 325.33 82.08, 324.50 85.50 C 329.32 91.70, 336.44 96.58, 342.50 100.50 C 346.43 104.24, 351.10 106.46, 352.50 110.50 C 357.18 114.98, 355.02 121.29, 355.50 126.50 C 349.36 141.39, 356.22 160.00, 369.50 165.50 C 378.72 155.76, 387.58 148.56, 396.50 141.50 C 402.99 131.12, 374.60 137.32, 364.50 135.50 C 356.83 135.50, 362.56 127.04, 366.50 127.50 C 372.00 122.23, 379.71 121.45, 385.50 123.50 C 391.33 122.83, 393.53 128.51, 398.50 127.50 C 399.34 118.07, 408.10 122.55, 412.50 115.50 C 417.89 109.95, 427.81 110.47, 430.50 105.50 C 425.57 99.84, 421.90 95.19, 417.50 91.50 C 412.75 86.42, 407.37 81.14, 402.50 77.50 C 398.00 76.29, 397.24 81.52, 394.50 83.50 C 388.00 90.17, 382.45 95.75, 374.50 95.50 C 368.35 98.14, 361.88 95.60, 356.50 95.50 C 350.92 92.75, 346.32 90.07, 342.50 85.50 C 338.79 81.79, 336.54 78.90, 335.50 75.50 C 332.57 67.86, 331.41 59.53, 333.50 52.50 C 334.18 47.63, 339.62 42.76, 335.50 39.50 C 330.08 38.39, 325.92 36.61, 321.50 35.50 C 316.30 33.36, 311.70 32.21, 306.50 32.50 Z" fill="rgb(108.51275167785235,146.15275167785234,228.7130201342282)" stroke="rgb(108.51275167785235,146.15275167785234,228.7130201342282)" stroke-width="1" />
<path d="M 84.50 109.50 C 68.15 128.03, 56.53 148.52, 48.50 170.50 C 29.26 214.85, 67.30 155.17, 87.50 149.50 C 107.80 138.76, 132.37 142.46, 149.50 154.50 C 166.86 168.55, 151.00 139.65, 158.50 131.50 C 161.97 123.18, 167.81 115.34, 175.50 111.50 C 169.26 109.11, 160.80 111.34, 152.50 110.50 C 148.50 110.50, 145.50 110.50, 142.50 110.50 C 132.73 110.60, 128.71 109.10, 119.50 109.50 C 113.17 109.50, 107.83 109.50, 102.50 109.50 C 96.17 109.50, 90.83 109.50, 85.50 109.50 Z" fill="rgb(110.63253012048193,147.55421686746988,228.33132530120483)" stroke="rgb(110.63253012048193,147.55421686746988,228.33132530120483)" stroke-width="1" />
<path d="M 440.50 227.50 C 438.36 232.83, 436.01 238.08, 436.50 244.50 C 436.15 251.92, 437.56 257.61, 438.50 263.50 C 439.07 269.68, 441.67 274.01, 441.50 279.50 C 443.44 287.80, 447.21 293.93, 447.50 301.50 C 441.45 295.38, 436.37 288.28, 430.50 281.50 C 414.19 262.03, 415.34 287.76, 420.50 297.50 C 427.57 317.83, 436.72 335.88, 444.50 354.50 C 447.91 360.51, 450.57 353.40, 453.50 351.50 C 456.98 348.76, 460.93 349.60, 464.50 349.50 C 467.98 346.17, 468.32 341.95, 470.50 338.50 C 472.76 333.75, 473.42 329.33, 475.50 325.50 C 474.20 319.29, 474.07 313.60, 472.50 308.50 C 472.27 303.99, 471.42 300.73, 470.50 297.50 C 468.96 293.06, 469.59 288.72, 467.50 285.50 C 466.95 280.65, 465.70 277.09, 464.50 273.50 C 462.96 267.12, 460.55 262.09, 459.50 256.50 C 456.81 249.57, 453.37 244.36, 451.50 238.50 C 447.77 234.30, 446.78 227.73, 441.50 227.50 Z" fill="rgb(79.9560639070443,33.69825708061002,57.623456790123456)" stroke="rgb(79.9560639070443,33.69825708061002,57.623456790123456)" stroke-width="1" />
<path d="M 98.50 109.50 C 94.27 115.69, 86.14 105.82, 81.50 113.50 C 75.78 119.87, 71.98 125.62, 68.50 131.50 C 63.95 138.41, 60.29 144.27, 57.50 150.50 C 54.05 156.45, 52.44 161.75, 49.50 166.50 C 47.95 171.08, 46.31 174.62, 45.50 178.50 C 44.21 183.32, 41.65 186.21, 42.50 190.50 C 46.52 186.03, 49.90 183.15, 53.50 178.50 C 59.85 171.77, 63.81 167.31, 69.50 162.50 C 76.02 157.16, 81.32 152.27, 87.50 149.50 C 92.25 147.36, 95.91 146.01, 99.50 144.50 C 103.90 143.53, 107.60 143.27, 111.50 143.50 C 116.17 143.50, 119.83 143.50, 123.50 143.50 C 129.10 144.04, 132.47 146.58, 136.50 147.50 C 141.51 149.80, 145.38 152.47, 149.50 154.50 C 152.95 155.48, 158.35 162.92, 158.50 157.50 C 158.25 153.80, 156.90 151.55, 157.50 148.50 C 156.40 141.85, 156.27 136.19, 158.50 131.50 C 160.62 124.06, 166.38 119.12, 170.50 113.50 C 173.90 108.22, 164.78 113.26, 162.50 110.50 C 158.35 113.60, 154.49 108.47, 151.50 111.50 C 146.48 109.32, 142.51 113.08, 138.50 110.50 C 132.28 109.97, 128.73 112.92, 124.50 111.50 C 118.82 112.39, 116.10 111.83, 111.50 112.50 C 104.36 114.11, 102.85 109.50, 99.50 109.50 Z" fill="rgb(108.0997798972854,146.15553925165077,228.9391049156273)" stroke="rgb(108.0997798972854,146.15553925165077,228.9391049156273)" stroke-width="1" />
<path d="M 53.50 320.50 C 46.85 323.16, 79.00 336.31, 56.50 342.50 C 47.39 332.70, 43.57 318.37, 41.50 341.50 C 37.35 343.28, 34.11 343.84, 30.50 343.50 C 25.44 347.83, 20.24 348.41, 16.50 352.50 C 11.00 356.27, 8.08 360.69, 8.50 366.50 C 9.11 370.80, 11.01 373.57, 12.50 376.50 C 13.07 385.26, 19.27 392.61, 27.50 392.50 C 32.33 398.33, 37.34 400.29, 43.50 399.50 C 50.45 399.65, 55.54 397.73, 60.50 395.50 C 64.04 393.20, 64.74 385.24, 60.50 384.50 C 57.81 385.63, 53.34 382.70, 57.50 382.50 C 71.06 377.05, 82.97 371.04, 95.50 366.50 C 86.68 346.12, 74.83 327.49, 54.50 321.50 Z" fill="rgb(254.48705302096178,252.56781750924785,252.50739827373613)" stroke="rgb(254.48705302096178,252.56781750924785,252.50739827373613)" stroke-width="1" />
<path d="M 210.50 31.50 C 167.86 42.62, 125.58 61.75, 95.50 98.50 C 119.43 100.39, 167.06 58.25, 177.50 108.50 C 183.45 107.28, 190.00 105.28, 192.50 99.50 C 198.41 80.27, 196.51 59.22, 207.50 43.50 C 208.81 38.68, 220.56 30.53, 211.50 31.50 Z" fill="rgb(150.50980392156862,167.86274509803923,225.15686274509804)" stroke="rgb(150.50980392156862,167.86274509803923,225.15686274509804)" stroke-width="1" />
<path d="M 212.50 31.50 C 209.15 33.27, 204.91 32.87, 201.50 34.50 C 195.29 35.67, 190.30 37.34, 185.50 39.50 C 179.51 41.51, 174.18 42.73, 169.50 45.50 C 163.97 48.16, 158.89 49.49, 154.50 52.50 C 149.31 55.52, 144.51 57.06, 140.50 60.50 C 135.05 64.34, 129.66 65.94, 125.50 70.50 C 121.72 73.37, 118.55 75.29, 115.50 77.50 C 108.03 83.82, 102.02 89.58, 96.50 95.50 C 96.12 99.13, 104.55 100.95, 107.50 103.50 C 112.12 100.97, 112.97 95.96, 117.50 95.50 C 123.28 89.83, 128.90 87.18, 134.50 84.50 C 139.32 82.27, 144.27 82.75, 148.50 81.50 C 154.84 82.20, 159.29 84.07, 163.50 86.50 C 169.71 90.50, 174.28 96.28, 176.50 101.50 C 178.92 103.75, 177.55 108.02, 179.50 108.50 C 184.84 106.74, 190.39 104.28, 192.50 99.50 C 195.00 94.37, 196.11 90.09, 196.50 85.50 C 195.88 77.97, 197.97 72.56, 198.50 66.50 C 200.06 60.79, 201.22 55.91, 203.50 51.50 C 207.06 46.07, 208.40 40.71, 212.50 36.50 C 214.51 34.23, 217.21 30.60, 213.50 31.50 Z" fill="rgb(108.45198631938963,146.2707182320442,229.00578795053934)" stroke="rgb(108.45198631938963,146.2707182320442,229.00578795053934)" stroke-width="1" />
<path d="M 363.50 27.50 C 360.42 29.12, 356.55 28.82, 353.50 30.50 C 347.83 32.89, 344.18 36.72, 340.50 40.50 C 337.21 44.97, 335.93 49.26, 334.50 53.50 C 333.53 58.41, 332.60 63.66, 334.50 67.50 C 335.88 76.25, 340.18 82.79, 346.50 88.50 C 350.62 91.82, 354.87 92.42, 358.50 94.50 C 363.45 94.15, 366.37 96.28, 370.50 95.50 C 379.96 94.69, 386.51 90.26, 392.50 84.50 C 395.93 80.01, 398.19 76.45, 399.50 72.50 C 400.49 67.64, 401.75 63.88, 401.50 59.50 C 400.00 52.49, 399.03 46.26, 394.50 41.50 C 390.33 35.96, 385.85 32.18, 380.50 30.50 C 374.55 28.72, 370.01 26.93, 364.50 27.50 Z" fill="rgb(254.5933621154884,203.95925526173772,122.60793308148948)" stroke="rgb(254.5933621154884,203.95925526173772,122.60793308148948)" stroke-width="1" />
<path d="M 133.50 310.50 C 123.94 311.21, 116.93 318.08, 108.50 321.50 C 103.60 325.07, 99.09 326.18, 95.50 329.50 C 90.69 332.29, 86.54 334.27, 82.50 336.50 C 85.56 344.89, 90.46 351.52, 94.50 358.50 C 97.03 362.24, 98.17 367.07, 101.50 368.50 C 109.65 365.72, 116.25 361.63, 124.50 361.50 C 128.97 361.50, 131.74 359.80, 135.50 360.50 C 141.47 361.51, 143.67 355.83, 148.50 356.50 C 155.63 352.47, 161.39 348.58, 167.50 345.50 C 171.94 340.90, 176.01 338.98, 175.50 333.50 C 175.93 328.13, 178.26 324.95, 177.50 320.50 C 177.09 316.56, 179.23 313.66, 176.50 317.50 C 170.93 321.40, 165.42 320.68, 157.50 320.50 C 154.22 319.04, 151.13 320.54, 149.50 318.50 C 137.20 308.95, 155.29 320.32, 152.50 325.50 C 146.67 318.68, 139.83 314.21, 132.50 311.50 Z" fill="rgb(254.73362445414847,254.75720524017467,254.84774381368268)" stroke="rgb(254.73362445414847,254.75720524017467,254.84774381368268)" stroke-width="1" />
<path d="M 370.50 399.50 C 367.05 401.68, 362.83 402.02, 359.50 404.50 C 354.74 407.08, 350.12 407.58, 346.50 410.50 C 342.05 413.01, 337.95 413.99, 334.50 416.50 C 329.74 419.08, 325.12 419.58, 321.50 422.50 C 316.70 423.21, 311.19 424.76, 307.50 422.50 C 302.17 422.50, 297.83 422.50, 293.50 422.50 C 288.53 424.03, 282.81 426.75, 282.50 431.50 C 281.80 438.82, 281.20 445.18, 280.50 451.50 C 280.77 455.83, 274.66 462.25, 279.50 462.50 C 287.66 460.54, 294.25 457.24, 301.50 455.50 C 309.76 452.13, 316.44 448.35, 323.50 445.50 C 331.56 440.65, 338.94 437.56, 345.50 432.50 C 353.73 427.39, 361.22 422.90, 367.50 415.50 C 370.05 410.07, 382.88 399.29, 371.50 399.50 Z" fill="rgb(251.6312143439283,162.41401792991036,152.3916055419723)" stroke="rgb(251.6312143439283,162.41401792991036,152.3916055419723)" stroke-width="1" />
<path d="M 325.50 330.50 C 322.21 338.59, 326.50 346.31, 328.50 353.50 C 331.88 362.56, 336.00 369.90, 339.50 377.50 C 369.44 382.21, 401.15 389.24, 427.50 394.50 C 422.30 390.85, 419.26 385.40, 413.50 386.50 C 400.16 378.98, 388.24 370.45, 376.50 361.50 C 356.44 352.87, 349.62 326.12, 326.50 330.50 Z" fill="rgb(151.873786407767,151.58252427184465,205.3398058252427)" stroke="rgb(151.873786407767,151.58252427184465,205.3398058252427)" stroke-width="1" />
<path d="M 51.50 320.50 C 48.07 323.65, 53.40 325.57, 55.50 326.50 C 62.13 326.87, 69.10 338.58, 60.50 341.50 C 50.14 343.97, 47.22 334.42, 48.50 326.50 C 41.07 329.31, 41.06 337.62, 42.50 343.50 C 43.86 348.99, 53.32 349.34, 50.50 353.50 C 45.88 355.74, 41.31 355.70, 37.50 357.50 C 31.68 359.31, 27.30 361.22, 23.50 364.50 C 29.33 368.67, 36.61 364.48, 43.50 364.50 C 38.65 368.39, 32.92 371.56, 27.50 375.50 C 26.95 381.23, 36.18 376.55, 39.50 376.50 C 43.65 374.75, 56.30 369.84, 49.50 375.50 C 46.92 378.84, 37.74 384.75, 43.50 385.50 C 48.71 384.67, 52.70 383.33, 56.50 381.50 C 61.57 380.01, 65.79 378.86, 69.50 376.50 C 78.91 373.35, 87.05 369.56, 95.50 366.50 C 94.90 361.20, 92.43 357.25, 89.50 353.50 C 87.20 348.49, 84.53 344.62, 82.50 340.50 C 79.01 336.66, 73.07 337.85, 71.50 332.50 C 68.52 323.31, 60.28 321.16, 52.50 320.50 Z" fill="rgb(254.00043649061544,166.04932343954604,155.51898734177215)" stroke="rgb(254.00043649061544,166.04932343954604,155.51898734177215)" stroke-width="1" />
<path d="M 457.50 350.50 C 453.14 352.59, 451.02 355.88, 447.50 359.50 C 444.07 362.40, 440.12 360.63, 438.50 364.50 C 431.83 370.95, 425.30 375.35, 419.50 381.50 C 417.01 387.79, 427.21 390.45, 430.50 394.50 C 435.87 397.40, 439.59 400.89, 444.50 401.50 C 450.67 405.28, 455.06 409.95, 459.50 414.50 C 461.98 416.01, 466.45 418.18, 465.50 414.50 C 463.66 409.05, 457.22 404.47, 457.50 400.50 C 465.19 405.59, 472.14 410.04, 479.50 413.50 C 483.72 410.20, 476.80 407.69, 476.50 404.50 C 472.25 402.58, 470.27 398.60, 467.50 396.50 C 474.92 397.62, 480.18 402.55, 487.50 402.50 C 487.24 396.48, 480.20 395.02, 476.50 390.50 C 472.06 386.57, 465.62 386.28, 463.50 381.50 C 472.81 380.14, 477.52 372.26, 477.50 364.50 C 477.34 360.16, 473.98 355.39, 471.50 359.50 C 471.48 366.24, 465.86 374.29, 459.50 370.50 C 453.56 367.36, 453.56 361.64, 458.50 358.50 C 462.91 355.40, 467.11 355.22, 471.50 355.50 C 472.05 348.15, 463.17 351.23, 458.50 350.50 Z" fill="rgb(253.91419586702605,166.0943396226415,155.59748427672955)" stroke="rgb(253.91419586702605,166.0943396226415,155.59748427672955)" stroke-width="1" />
<path d="M 57.50 224.50 C 41.30 241.71, 32.75 264.21, 34.50 287.50 C 37.66 300.23, 38.39 319.70, 45.50 325.50 C 55.29 314.61, 53.72 297.02, 58.50 283.50 C 58.26 264.83, 70.96 236.59, 58.50 224.50 Z" fill="rgb(107.65517241379311,110.3103448275862,126.24137931034483)" stroke="rgb(107.65517241379311,110.3103448275862,126.24137931034483)" stroke-width="1" />
<path d="M 58.50 224.50 C 52.94 227.54, 50.01 233.69, 46.50 238.50 C 43.74 243.13, 42.69 247.05, 40.50 250.50 C 38.96 255.75, 37.72 260.12, 36.50 264.50 C 34.79 269.87, 34.57 274.86, 33.50 279.50 C 34.35 286.56, 34.86 292.76, 36.50 298.50 C 37.92 305.93, 39.36 312.36, 41.50 318.50 C 42.74 321.86, 42.72 328.03, 46.50 325.50 C 49.01 324.86, 49.51 321.33, 50.50 319.50 C 51.67 313.16, 53.15 308.36, 54.50 303.50 C 54.00 299.49, 56.28 297.63, 55.50 294.50 C 58.14 288.37, 57.40 281.85, 59.50 276.50 C 59.63 269.28, 61.82 263.91, 61.50 257.50 C 62.45 250.34, 64.21 244.93, 63.50 238.50 C 62.91 233.09, 65.59 224.73, 59.50 224.50 Z" fill="rgb(79.52380952380952,32.18844984802432,56.02836879432624)" stroke="rgb(79.52380952380952,32.18844984802432,56.02836879432624)" stroke-width="1" />
<path d="M 358.50 13.50 C 354.01 15.58, 349.02 16.48, 344.50 18.50 C 338.26 21.51, 336.01 25.37, 339.50 30.50 C 339.58 33.83, 340.60 38.78, 343.50 35.50 C 346.70 31.70, 350.04 31.67, 352.50 29.50 C 358.26 25.51, 365.14 26.63, 371.50 26.50 C 379.19 27.83, 385.42 30.28, 390.50 35.50 C 395.01 40.15, 399.06 43.58, 399.50 48.50 C 401.49 53.36, 402.75 57.12, 402.50 61.50 C 402.57 66.47, 401.42 69.94, 400.50 73.50 C 406.60 73.89, 410.24 69.74, 415.50 69.50 C 416.08 64.20, 417.48 58.15, 415.50 53.50 C 415.26 46.11, 411.61 41.12, 409.50 35.50 C 405.72 30.11, 402.49 26.83, 398.50 23.50 C 393.81 19.75, 389.87 17.60, 385.50 16.50 C 380.85 14.65, 376.91 13.51, 372.50 13.50 C 367.50 13.50, 363.50 13.50, 359.50 13.50 Z" fill="rgb(254.51704545454547,254.35732323232324,254.09722222222223)" stroke="rgb(254.51704545454547,254.35732323232324,254.09722222222223)" stroke-width="1" />
<path d="M 418.50 273.50 C 414.19 277.82, 418.00 283.68, 418.50 288.50 C 419.78 291.58, 420.70 293.81, 420.50 296.50 C 423.46 303.18, 425.11 309.00, 427.50 314.50 C 429.79 320.85, 432.39 326.08, 434.50 331.50 C 435.01 336.57, 440.34 336.44, 439.50 339.50 C 439.15 344.92, 446.96 357.54, 445.50 354.50 C 446.39 350.73, 454.70 345.08, 448.50 344.50 C 447.22 339.64, 451.36 337.60, 450.50 333.50 C 450.50 328.83, 450.50 325.17, 450.50 321.50 C 450.85 316.55, 448.72 313.63, 449.50 309.50 C 446.94 303.32, 443.25 298.60, 440.50 293.50 C 436.62 289.12, 433.15 286.50, 430.50 282.50 C 425.93 279.48, 424.73 273.43, 419.50 273.50 Z" fill="rgb(79.33893352812272,32.070124178232284,56.20525931336742)" stroke="rgb(79.33893352812272,32.070124178232284,56.20525931336742)" stroke-width="1" />
<path d="M 140.50 83.50 C 135.13 86.09, 129.16 87.22, 124.50 91.50 C 119.51 96.30, 108.58 100.19, 109.50 106.50 C 115.30 108.30, 121.23 108.82, 127.50 108.50 C 132.83 108.50, 137.17 108.50, 141.50 108.50 C 146.50 108.50, 150.50 108.50, 154.50 108.50 C 159.84 108.18, 164.79 109.35, 168.50 107.50 C 171.33 107.77, 173.21 107.13, 175.50 107.50 C 176.21 101.46, 172.99 97.63, 170.50 93.50 C 165.10 89.19, 160.89 85.42, 155.50 84.50 C 150.17 83.50, 145.83 83.50, 141.50 83.50 Z" fill="rgb(252.64069591527988,253.25340393343419,254.58472012102874)" stroke="rgb(252.64069591527988,253.25340393343419,254.58472012102874)" stroke-width="1" />
<path d="M 92.50 279.50 C 88.43 281.19, 84.71 283.72, 81.50 287.50 C 74.79 297.99, 48.92 317.74, 65.50 322.50 C 82.41 359.14, 108.26 292.44, 93.50 280.50 Z" fill="rgb(141.21875,131.09375,151.40625)" stroke="rgb(141.21875,131.09375,151.40625)" stroke-width="1" />
<path d="M 92.50 279.50 C 84.69 282.01, 79.01 290.40, 73.50 296.50 C 67.53 304.37, 62.69 311.30, 58.50 318.50 C 60.22 321.39, 65.39 321.19, 67.50 324.50 C 72.73 329.51, 72.55 338.15, 80.50 336.50 C 84.93 333.85, 84.97 329.37, 87.50 326.50 C 88.58 321.73, 91.02 318.52, 91.50 314.50 C 93.23 309.25, 95.57 305.67, 96.50 301.50 C 98.10 297.08, 99.77 293.69, 99.50 289.50 C 99.60 284.61, 97.80 280.18, 93.50 280.50 Z" fill="rgb(79.66768525592055,32.57601222307105,56.472880061115355)" stroke="rgb(79.66768525592055,32.57601222307105,56.472880061115355)" stroke-width="1" />
<path d="M 130.50 276.50 C 126.00 278.91, 120.79 279.59, 116.50 282.50 C 110.39 285.58, 104.99 287.93, 100.50 292.50 C 100.18 297.12, 98.32 300.09, 97.50 303.50 C 96.16 308.91, 93.40 312.32, 92.50 316.50 C 90.14 321.21, 88.99 325.43, 87.50 329.50 C 92.58 329.97, 95.70 328.12, 98.50 325.50 C 103.42 322.96, 107.51 320.87, 111.50 318.50 C 116.31 315.71, 120.46 313.73, 124.50 311.50 C 128.59 306.17, 126.84 299.42, 129.50 294.50 C 129.33 287.70, 132.68 281.36, 131.50 276.50 Z" fill="rgb(127.20242914979757,181.085020242915,217.92793522267206)" stroke="rgb(127.20242914979757,181.085020242915,217.92793522267206)" stroke-width="1" />
<path d="M 414.50 280.50 C 410.49 283.13, 405.95 284.50, 402.50 288.50 C 397.37 293.50, 393.86 297.76, 391.50 302.50 C 396.64 308.94, 403.66 315.45, 409.50 321.50 C 414.53 323.15, 416.01 329.95, 420.50 329.50 C 424.54 328.87, 430.11 330.78, 431.50 328.50 C 429.63 323.92, 428.37 320.08, 426.50 316.50 C 424.91 311.94, 422.97 308.52, 422.50 304.50 C 421.30 299.50, 418.70 296.50, 418.50 292.50 C 417.79 287.44, 415.21 284.56, 415.50 280.50 Z" fill="rgb(124.02285714285715,174.75619047619048,219.53619047619048)" stroke="rgb(124.02285714285715,174.75619047619048,219.53619047619048)" stroke-width="1" />
<path d="M 353.50 343.50 C 349.89 345.45, 345.23 344.86, 341.50 346.50 C 336.57 347.66, 332.60 348.74, 328.50 349.50 C 329.26 354.13, 330.31 358.05, 332.50 361.50 C 334.50 364.87, 334.04 369.71, 337.50 370.50 C 345.04 370.34, 350.59 367.77, 357.50 368.50 C 362.83 368.50, 367.17 368.50, 371.50 368.50 C 379.37 369.67, 386.43 370.39, 392.50 373.50 C 387.71 369.00, 383.36 366.84, 379.50 363.50 C 374.88 359.24, 370.23 357.48, 366.50 353.50 C 362.16 349.38, 357.98 347.29, 354.50 343.50 Z" fill="rgb(158.7019607843137,153.0480392156863,203.24705882352941)" stroke="rgb(158.7019607843137,153.0480392156863,203.24705882352941)" stroke-width="1" />
<path d="M 358.50 134.50 C 357.07 136.46, 352.29 134.39, 353.50 138.50 C 353.50 143.78, 353.00 148.26, 355.50 151.50 C 358.81 157.26, 363.40 161.07, 366.50 165.50 C 371.75 164.58, 374.73 159.59, 378.50 156.50 C 383.84 152.99, 387.36 148.51, 391.50 145.50 C 396.56 141.65, 400.58 138.68, 404.50 135.50 C 396.50 135.50, 389.50 135.50, 382.50 135.50 C 374.17 135.50, 366.83 135.50, 359.50 135.50 Z" fill="rgb(108.30010718113613,146.14040728831725,228.7684887459807)" stroke="rgb(108.30010718113613,146.14040728831725,228.7684887459807)" stroke-width="1" />
<path d="M 351.50 369.50 C 347.49 372.17, 334.67 368.95, 338.50 376.50 C 343.10 378.32, 346.90 378.68, 350.50 379.50 C 355.10 380.32, 358.90 380.68, 362.50 381.50 C 366.48 382.21, 369.66 382.44, 372.50 383.50 C 380.30 384.51, 386.96 385.86, 393.50 387.50 C 397.48 388.21, 400.66 388.44, 403.50 389.50 C 410.99 391.60, 418.06 392.29, 424.50 394.50 C 427.59 396.98, 430.04 394.53, 426.50 393.50 C 417.32 393.49, 411.61 388.51, 405.50 384.50 C 400.88 379.59, 396.72 376.97, 392.50 374.50 C 387.86 372.30, 383.47 371.90, 379.50 370.50 C 374.54 370.06, 370.85 368.99, 366.50 369.50 C 361.17 369.50, 356.83 369.50, 352.50 369.50 Z" fill="rgb(108.65237020316027,145.72460496613996,228.10722347629797)" stroke="rgb(108.65237020316027,145.72460496613996,228.10722347629797)" stroke-width="1" />
<path d="M 134.50 477.50 C 130.00 481.13, 126.76 490.29, 132.50 493.50 C 136.49 494.99, 140.15 494.87, 143.50 495.50 C 149.83 495.04, 154.04 497.28, 159.50 496.50 C 166.04 496.32, 171.47 496.44, 176.50 497.50 C 184.17 497.50, 190.83 497.50, 197.50 497.50 C 203.48 497.11, 208.14 495.96, 213.50 496.50 C 222.92 496.10, 223.01 493.75, 214.50 494.50 C 207.05 495.24, 201.89 492.89, 195.50 493.50 C 188.00 492.70, 182.38 490.80, 176.50 489.50 C 170.98 488.96, 167.27 486.45, 162.50 486.50 C 156.99 484.60, 152.50 483.63, 148.50 481.50 C 143.33 480.57, 139.75 478.23, 135.50 477.50 Z" fill="rgb(251.10836277974087,163.17432273262662,153.44287396937574)" stroke="rgb(251.10836277974087,163.17432273262662,153.44287396937574)" stroke-width="1" />
<path d="M 180.50 317.50 C 183.27 324.47, 180.29 325.47, 177.50 331.50 C 178.10 338.76, 172.15 343.34, 167.50 346.50 C 161.38 350.22, 156.40 353.25, 151.50 356.50 C 147.75 357.63, 145.25 359.37, 142.50 360.50 C 147.54 361.25, 152.74 363.05, 158.50 363.50 C 165.72 365.44, 172.22 366.70, 178.50 368.50 C 180.99 363.90, 182.46 359.29, 183.50 354.50 C 185.74 349.88, 185.70 345.31, 187.50 341.50 C 182.54 327.36, 180.47 329.99, 180.50 318.50 Z" fill="rgb(108.74274905422446,145.82597730138713,228.01008827238334)" stroke="rgb(108.74274905422446,145.82597730138713,228.01008827238334)" stroke-width="1" />
<path d="M 430.50 108.50 C 418.09 112.09, 407.72 120.61, 397.50 129.50 C 392.00 126.29, 386.70 125.02, 381.50 123.50 C 373.14 124.03, 366.51 126.31, 361.50 132.50 C 363.50 133.50, 366.50 133.50, 369.50 133.50 C 376.83 133.50, 383.17 133.50, 389.50 133.50 C 396.71 132.88, 403.97 134.77, 409.50 132.50 C 417.55 124.15, 451.04 117.41, 431.50 108.50 Z" fill="rgb(246.6959247648903,249.03134796238245,253.3793103448276)" stroke="rgb(246.6959247648903,249.03134796238245,253.3793103448276)" stroke-width="1" />
<path d="M 252.50 351.50 C 245.02 356.49, 236.83 359.74, 230.50 367.50 C 228.55 371.94, 223.26 375.69, 226.50 379.50 C 233.56 380.87, 237.26 375.53, 241.50 371.50 C 246.59 365.87, 250.41 361.13, 254.50 356.50 C 260.09 360.92, 263.93 365.66, 267.50 370.50 C 273.00 375.70, 276.97 381.19, 283.50 380.50 C 285.22 371.76, 279.24 365.62, 273.50 361.50 C 266.40 356.94, 261.09 351.47, 253.50 351.50 Z" fill="rgb(135.5013586956522,73.2038043478261,96.84239130434783)" stroke="rgb(135.5013586956522,73.2038043478261,96.84239130434783)" stroke-width="1" />
<path d="M 430.50 108.50 C 427.61 110.11, 424.02 110.01, 421.50 112.50 C 414.07 116.93, 407.25 120.44, 401.50 126.50 C 394.15 132.64, 406.52 134.22, 409.50 132.50 C 415.24 129.02, 419.79 126.05, 424.50 123.50 C 429.65 119.93, 434.56 118.16, 439.50 116.50 C 444.28 110.95, 436.85 106.77, 431.50 108.50 Z" fill="rgb(251.93293885601577,253.17948717948718,254.1360946745562)" stroke="rgb(251.93293885601577,253.17948717948718,254.1360946745562)" stroke-width="1" />
<path d="M 324.50 330.50 C 322.77 336.63, 323.38 343.24, 326.50 348.50 C 331.77 347.20, 336.77 346.69, 341.50 345.50 C 345.59 343.10, 350.24 344.49, 353.50 342.50 C 348.15 338.46, 346.44 332.73, 342.50 330.50 C 336.17 330.50, 330.83 330.50, 325.50 330.50 Z" fill="rgb(108.49530516431925,145.91784037558685,228.4788732394366)" stroke="rgb(108.49530516431925,145.91784037558685,228.4788732394366)" stroke-width="1" />
<path d="M 97.50 366.50 C 88.32 370.88, 78.73 374.25, 69.50 378.50 C 72.64 383.44, 74.79 387.79, 78.50 391.50 C 82.01 387.30, 85.35 383.44, 88.50 379.50 C 92.33 375.24, 102.27 372.31, 97.50 367.50 Z" fill="rgb(110.1497975708502,144.80161943319837,225.52226720647772)" stroke="rgb(110.1497975708502,144.80161943319837,225.52226720647772)" stroke-width="1" />
<path d="M 329.50 299.50 C 328.86 304.18, 327.33 308.49, 327.50 313.50 C 327.19 319.92, 324.81 324.08, 325.50 329.50 C 331.15 328.24, 340.68 332.45, 341.50 326.50 C 338.55 321.89, 338.45 317.11, 335.50 313.50 C 334.06 308.41, 332.12 304.52, 330.50 300.50 Z" fill="rgb(144.03184713375796,209.71974522292993,208.18789808917197)" stroke="rgb(144.03184713375796,209.71974522292993,208.18789808917197)" stroke-width="1" />
<path d="M 274.50 123.50 C 269.66 126.36, 264.24 127.81, 258.50 128.50 C 252.85 130.48, 246.80 129.08, 241.50 129.50 C 240.24 135.67, 242.90 138.88, 247.50 139.50 C 253.42 138.78, 258.48 138.41, 262.50 135.50 C 268.25 132.95, 273.50 128.67, 275.50 123.50 Z" fill="rgb(127.05298013245033,67.3907284768212,82.18543046357615)" stroke="rgb(127.05298013245033,67.3907284768212,82.18543046357615)" stroke-width="1" />
<path d="M 182.50 240.50 C 180.86 242.90, 180.63 245.89, 179.50 248.50 C 178.39 255.12, 176.71 260.51, 176.50 266.50 C 175.56 272.25, 175.25 277.26, 175.50 282.50 C 176.94 288.18, 176.66 293.57, 177.50 298.50 C 179.37 303.47, 179.86 308.02, 180.50 312.50 C 182.09 316.26, 182.11 319.66, 183.50 322.50 C 185.35 325.01, 186.49 335.68, 186.50 331.50 C 186.70 327.81, 185.78 325.58, 184.50 323.50 C 183.66 317.10, 181.52 312.24, 181.50 306.50 C 179.97 301.78, 179.62 297.98, 178.50 294.50 C 178.66 289.30, 176.76 285.95, 177.50 281.50 C 177.01 273.82, 178.02 267.77, 178.50 261.50 C 179.07 253.57, 182.50 248.25, 182.50 241.50 Z" fill="rgb(169.62978723404257,148.92340425531916,161.22553191489362)" stroke="rgb(169.62978723404257,148.92340425531916,161.22553191489362)" stroke-width="1" />
<path d="M 55.50 325.50 C 39.89 351.22, 77.78 334.29, 55.50 325.50 Z" fill="rgb(232.14285714285714,147.42857142857142,141.14285714285714)" stroke="rgb(232.14285714285714,147.42857142857142,141.14285714285714)" stroke-width="1" />
<path d="M 54.50 326.50 C 48.93 331.04, 48.96 343.21, 58.50 341.50 C 68.17 339.12, 61.51 326.97, 55.50 326.50 Z" fill="rgb(88.51470588235294,43.14705882352941,67.36764705882354)" stroke="rgb(88.51470588235294,43.14705882352941,67.36764705882354)" stroke-width="1" />
<path d="M 296.50 410.50 C 294.70 412.46, 291.42 410.82, 289.50 412.50 C 283.68 412.81, 279.11 413.69, 274.50 414.50 C 266.92 414.24, 261.29 416.26, 254.50 415.50 C 246.37 416.28, 240.48 414.08, 233.50 414.50 C 239.53 416.56, 244.96 416.68, 250.50 416.50 C 256.34 417.37, 264.84 413.84, 265.50 420.50 C 267.17 427.38, 263.01 414.85, 268.50 416.50 C 275.29 416.27, 279.89 414.17, 285.50 414.50 C 289.83 413.84, 302.19 411.63, 297.50 410.50 Z" fill="rgb(155.63694267515925,88.71337579617834,106.47770700636943)" stroke="rgb(155.63694267515925,88.71337579617834,106.47770700636943)" stroke-width="1" />
<path d="M 401.50 406.50 C 398.51 407.99, 394.85 407.87, 391.50 408.50 C 385.06 409.78, 380.45 412.04, 375.50 413.50 C 373.19 414.88, 366.48 415.08, 368.50 416.50 C 375.53 414.90, 381.38 412.88, 387.50 411.50 C 394.29 408.87, 401.03 408.52, 407.50 407.50 C 416.99 406.11, 405.91 406.52, 402.50 406.50 Z" fill="rgb(151.78095238095239,85.71428571428571,104.5904761904762)" stroke="rgb(151.78095238095239,85.71428571428571,104.5904761904762)" stroke-width="1" />
<path d="M 54.50 328.50 C 48.92 332.48, 49.93 342.63, 58.50 340.50 C 62.33 336.20, 59.84 330.28, 54.50 329.50 Z" fill="rgb(79.02884615384616,31.134615384615383,55.20192307692308)" stroke="rgb(79.02884615384616,31.134615384615383,55.20192307692308)" stroke-width="1" />
<path d="M 378.50 295.50 C 371.53 298.43, 364.87 302.12, 358.50 306.50 C 353.90 308.21, 349.78 316.10, 355.50 311.50 C 359.60 307.61, 363.21 305.95, 366.50 303.50 C 370.47 300.41, 383.69 296.82, 379.50 295.50 Z" fill="rgb(178.47252747252747,157.57142857142858,168.01098901098902)" stroke="rgb(178.47252747252747,157.57142857142858,168.01098901098902)" stroke-width="1" />
<path d="M 96.50 366.50 C 92.31 368.85, 87.82 370.47, 83.50 372.50 C 76.84 375.42, 87.53 372.53, 90.50 373.50 C 95.95 374.63, 102.37 370.42, 97.50 366.50 Z" fill="rgb(162.19767441860466,153.7325581395349,201.6627906976744)" stroke="rgb(162.19767441860466,153.7325581395349,201.6627906976744)" stroke-width="1" />
<path d="M 476.50 305.50 C 471.05 306.33, 475.60 310.41, 474.50 314.50 C 474.62 322.52, 477.65 321.23, 478.50 315.50 C 478.72 311.76, 483.23 305.16, 477.50 305.50 Z" fill="rgb(124.6,174.3,217.0375)" stroke="rgb(124.6,174.3,217.0375)" stroke-width="1" />
<path d="M 127.50 309.50 C 124.36 311.98, 128.88 311.57, 130.50 311.50 C 139.94 312.70, 146.29 318.94, 152.50 325.50 C 150.95 319.98, 146.47 316.95, 142.50 314.50 C 137.44 311.50, 133.31 309.69, 128.50 309.50 Z" fill="rgb(174.85542168674698,153.51807228915663,164.6144578313253)" stroke="rgb(174.85542168674698,153.51807228915663,164.6144578313253)" stroke-width="1" />
<path d="M 180.50 314.50 C 179.98 319.23, 179.02 323.77, 178.50 328.50 C 180.97 329.57, 187.16 330.29, 183.50 326.50 C 182.06 322.35, 182.33 318.49, 180.50 315.50 Z" fill="rgb(127.74242424242425,178.8181818181818,215.8181818181818)" stroke="rgb(127.74242424242425,178.8181818181818,215.8181818181818)" stroke-width="1" />
<path d="M 253.50 76.50 C 254.35 83.62, 269.56 80.42, 267.50 76.50 C 262.96 78.62, 257.92 79.65, 254.50 76.50 Z" fill="rgb(122.2,63.88,79.32)" stroke="rgb(122.2,63.88,79.32)" stroke-width="1" />
<path d="M 54.50 357.50 C 53.42 362.30, 57.15 370.15, 60.50 373.50 C 57.85 368.10, 56.72 363.07, 54.50 358.50 Z" fill="rgb(159.72222222222223,92.52777777777777,100.47222222222223)" stroke="rgb(159.72222222222223,92.52777777777777,100.47222222222223)" stroke-width="1" />
<path d="M 459.50 386.50 C 456.08 390.80, 453.82 395.58, 449.50 399.50 C 454.98 397.74, 457.37 391.21, 460.50 386.50 Z" fill="rgb(161.71052631578948,94.02631578947368,101.57894736842105)" stroke="rgb(161.71052631578948,94.02631578947368,101.57894736842105)" stroke-width="1" />
</svg>