<svg xmlns="http://www.w3.org/2000/svg" width="512" height="512" viewbox="0 0 512 512">
<path d="M 0.50 0.50 C 0.50 170.50, 0.50 340.50, 0.50 510.50 C 170.50 511.50, 340.50 511.50, 510.50 511.50 C 511.50 341.50, 511.50 171.50, 511.50 1.50 C 341.50 0.50, 171.50 0.50, 1.50 0.50 Z" fill="rgb(10.111654126242954,10.111654126242954,10.111654126242954)" stroke="rgb(10.111654126242954,10.111654126242954,10.111654126242954)" stroke-width="1" />
<path d="M 252.50 0.50 C 245.08 3.77, 236.21 3.51, 229.50 8.50 C 224.81 10.44, 221.22 12.63, 217.50 14.50 C 212.86 17.70, 208.47 18.10, 204.50 19.50 C 195.87 21.92, 187.92 23.58, 180.50 26.50 C 171.75 30.44, 163.37 32.85, 155.50 36.50 C 147.00 41.23, 139.28 45.45, 131.50 49.50 C 122.73 55.55, 113.90 61.46, 107.50 67.50 C 103.60 71.59, 98.75 72.99, 96.50 76.50 C 91.96 79.85, 89.24 84.17, 85.50 86.50 C 78.47 94.21, 73.01 101.51, 66.50 109.50 C 60.43 118.14, 55.29 125.75, 50.50 133.50 C 46.79 142.90, 40.73 149.91, 38.50 158.50 C 33.97 167.28, 32.20 175.79, 28.50 183.50 C 28.99 188.78, 25.33 191.35, 25.50 195.50 C 24.02 200.17, 23.99 204.43, 23.50 208.50 C 21.34 217.10, 20.05 224.65, 19.50 232.50 C 19.20 241.51, 17.93 249.12, 18.50 257.50 C 17.81 262.59, 20.19 265.41, 19.50 269.50 C 20.43 274.68, 19.24 277.97, 20.50 282.50 C 20.17 292.19, 23.52 299.35, 24.50 307.50 C 24.94 316.49, 30.52 323.78, 28.50 331.50 C 28.50 336.17, 28.50 339.83, 28.50 343.50 C 25.74 349.01, 19.67 349.07, 16.50 352.50 C 7.49 357.66, 8.44 369.85, 12.50 376.50 C 13.73 380.82, 14.83 385.76, 17.50 387.50 C 21.64 392.91, 27.82 389.98, 30.50 395.50 C 37.25 402.63, 46.81 398.23, 54.50 398.50 C 59.04 394.67, 64.05 397.76, 62.50 402.50 C 62.50 407.50, 62.50 411.50, 62.50 415.50 C 64.19 424.63, 65.65 432.85, 68.50 440.50 C 70.93 445.54, 73.77 449.00, 76.50 452.50 C 80.73 456.63, 83.23 459.59, 86.50 463.50 C 94.45 470.57, 102.77 474.32, 110.50 479.50 C 115.24 481.71, 117.35 484.75, 116.50 489.50 C 116.03 495.52, 119.45 498.93, 122.50 502.50 C 130.56 507.77, 139.00 508.70, 147.50 509.50 C 155.98 511.42, 164.04 511.94, 172.50 511.50 C 181.17 511.50, 188.83 511.50, 196.50 511.50 C 201.17 511.50, 204.83 511.50, 208.50 511.50 C 213.82 511.61, 216.73 508.31, 221.50 509.50 C 229.80 506.14, 239.20 508.86, 246.50 506.50 C 256.69 506.04, 262.35 508.07, 271.50 507.50 C 276.40 507.27, 280.10 507.53, 283.50 508.50 C 288.00 506.78, 292.33 510.41, 295.50 508.50 C 304.36 511.18, 313.40 508.19, 320.50 508.50 C 325.21 508.72, 329.40 507.80, 332.50 509.50 C 337.27 507.49, 341.41 510.88, 345.50 508.50 C 354.81 508.57, 362.81 507.91, 370.50 506.50 C 379.37 505.98, 386.72 504.22, 394.50 503.50 C 398.76 501.51, 403.41 502.90, 406.50 500.50 C 411.39 499.23, 416.12 500.00, 419.50 497.50 C 423.73 494.77, 428.43 495.62, 431.50 492.50 C 436.58 490.36, 440.67 488.24, 444.50 485.50 C 454.19 479.45, 460.82 470.49, 466.50 462.50 C 471.67 454.60, 474.65 446.78, 476.50 438.50 C 477.96 433.89, 476.23 428.95, 480.50 426.50 C 486.11 426.32, 490.08 424.58, 493.50 421.50 C 495.00 416.49, 498.08 413.13, 500.50 409.50 C 502.76 405.29, 503.31 400.14, 501.50 396.50 C 499.62 391.37, 496.13 387.90, 492.50 384.50 C 487.87 380.17, 490.82 375.43, 491.50 371.50 C 492.71 361.64, 489.11 354.78, 486.50 347.50 C 484.78 337.37, 489.35 330.44, 491.50 322.50 C 494.28 313.82, 494.75 305.19, 497.50 297.50 C 497.43 292.53, 498.58 289.06, 499.50 285.50 C 500.07 280.60, 498.30 275.73, 500.50 272.50 C 500.50 263.83, 500.50 256.17, 500.50 248.50 C 501.28 239.04, 499.03 231.83, 499.50 223.50 C 498.16 214.09, 495.53 206.63, 494.50 198.50 C 492.69 194.17, 491.82 190.45, 491.50 186.50 C 489.89 181.62, 487.48 178.06, 487.50 173.50 C 484.29 164.51, 480.42 157.20, 477.50 149.50 C 476.28 144.23, 471.83 141.72, 471.50 137.50 C 468.22 132.48, 465.64 128.58, 463.50 124.50 C 458.51 114.80, 450.20 107.90, 445.50 99.50 C 438.18 91.61, 431.29 84.07, 423.50 76.50 C 419.52 72.10, 414.72 69.46, 415.50 64.50 C 415.28 59.79, 416.20 55.60, 414.50 52.50 C 414.19 47.41, 411.58 44.27, 410.50 40.50 C 408.43 34.68, 405.14 32.35, 402.50 28.50 C 394.60 20.84, 386.56 16.95, 377.50 15.50 C 368.13 14.26, 359.85 14.26, 352.50 16.50 C 347.36 18.02, 344.07 20.60, 340.50 22.50 C 336.00 25.66, 331.67 24.14, 328.50 22.50 C 319.44 19.98, 310.49 19.61, 303.50 14.50 C 295.30 8.90, 286.87 6.28, 278.50 3.50 C 270.40 0.33, 261.05 2.58, 253.50 0.50 Z" fill="rgb(240.29543957853144,240.57577378992426,244.15286466908134)" stroke="rgb(240.29543957853144,240.57577378992426,244.15286466908134)" stroke-width="1" />
<path d="M 194.50 340.50 C 189.07 340.85, 188.48 344.12, 186.50 348.50 C 185.57 354.00, 184.22 358.33, 182.50 362.50 C 183.07 370.01, 176.68 371.23, 172.50 368.50 C 167.02 367.86, 162.98 366.14, 158.50 365.50 C 153.15 365.01, 149.46 363.94, 145.50 363.50 C 140.63 362.43, 136.13 363.76, 131.50 362.50 C 126.92 363.39, 122.32 364.06, 117.50 364.50 C 112.61 367.57, 107.55 367.83, 103.50 370.50 C 98.15 373.65, 94.22 376.82, 90.50 380.50 C 86.30 385.22, 82.80 388.78, 80.50 393.50 C 76.94 402.45, 75.32 412.43, 77.50 421.50 C 78.61 426.87, 80.71 430.41, 81.50 434.50 C 84.65 439.68, 87.77 444.94, 91.50 447.50 C 96.29 453.48, 101.26 455.61, 105.50 459.50 C 111.14 462.08, 114.57 466.60, 119.50 467.50 C 129.10 472.33, 137.11 477.57, 146.50 479.50 C 151.63 481.67, 156.26 482.61, 160.50 484.50 C 166.13 484.78, 169.76 487.47, 174.50 487.50 C 178.94 489.84, 183.77 488.84, 187.50 490.50 C 192.19 492.72, 197.70 490.56, 201.50 492.50 C 206.84 492.82, 211.79 491.65, 215.50 493.50 C 221.13 492.35, 224.50 493.44, 229.50 492.50 C 239.51 492.99, 247.37 490.73, 256.50 491.50 C 263.35 488.78, 263.84 492.76, 269.50 493.50 C 275.29 492.72, 278.86 494.92, 283.50 494.50 C 288.85 493.15, 293.03 497.02, 296.50 494.50 C 302.13 496.23, 305.76 494.04, 310.50 495.50 C 315.37 494.43, 319.87 495.76, 324.50 494.50 C 329.83 494.50, 334.17 494.50, 338.50 494.50 C 343.70 494.66, 347.05 492.76, 351.50 493.50 C 357.26 494.19, 360.74 491.81, 365.50 492.50 C 370.71 491.87, 374.85 491.08, 379.50 491.50 C 385.26 491.19, 388.74 488.81, 393.50 489.50 C 398.86 488.38, 402.57 486.67, 406.50 485.50 C 411.60 483.61, 416.52 483.69, 420.50 481.50 C 426.49 480.09, 430.20 476.59, 434.50 474.50 C 440.55 470.99, 443.06 465.38, 447.50 462.50 C 449.27 457.13, 455.75 454.71, 455.50 449.50 C 458.10 444.14, 460.18 439.98, 461.50 435.50 C 461.65 429.83, 461.85 425.14, 459.50 421.50 C 457.11 416.43, 455.30 410.60, 450.50 408.50 C 446.62 404.84, 442.61 403.03, 438.50 401.50 C 432.33 401.18, 429.67 395.82, 424.50 396.50 C 419.44 394.51, 414.60 394.39, 410.50 392.50 C 404.87 392.21, 400.37 391.61, 396.50 389.50 C 391.76 388.19, 387.45 388.30, 383.50 387.50 C 378.36 386.04, 374.01 385.06, 369.50 384.50 C 364.27 383.25, 359.32 383.73, 355.50 381.50 C 350.32 380.47, 345.50 380.97, 341.50 379.50 C 336.08 377.85, 335.33 372.20, 333.50 368.50 C 330.53 363.57, 329.39 358.88, 327.50 354.50 C 324.14 349.59, 324.30 344.23, 320.50 340.50 C 315.17 340.50, 310.83 340.50, 306.50 340.50 C 287.50 340.50, 269.50 340.50, 251.50 340.50 C 241.50 340.50, 232.50 340.50, 223.50 340.50 C 218.17 340.50, 213.83 340.50, 209.50 340.50 C 204.14 339.19, 200.22 341.92, 195.50 340.50 Z" fill="rgb(117.72174911491723,59.56836666347718,88.36558702516506)" stroke="rgb(117.72174911491723,59.56836666347718,88.36558702516506)" stroke-width="1" />
<path d="M 284.50 140.50 C 279.62 143.12, 274.79 145.87, 269.50 147.50 C 264.29 149.74, 258.39 147.90, 253.50 148.50 C 247.12 148.71, 241.93 139.44, 237.50 146.50 C 233.85 151.23, 227.35 152.72, 222.50 154.50 C 216.59 157.04, 211.52 159.21, 206.50 161.50 C 200.22 164.82, 195.67 168.92, 190.50 171.50 C 178.20 180.74, 168.06 191.91, 158.50 202.50 C 155.55 208.66, 152.26 213.26, 150.50 218.50 C 148.34 224.43, 146.73 229.60, 144.50 234.50 C 143.11 240.48, 141.01 245.16, 140.50 250.50 C 139.13 257.09, 136.08 261.58, 136.50 267.50 C 135.59 273.81, 133.41 278.19, 133.50 283.50 C 131.75 289.33, 131.54 294.79, 129.50 299.50 C 130.23 303.27, 128.42 305.00, 128.50 307.50 C 130.44 312.15, 126.28 312.09, 124.50 313.50 C 119.39 320.07, 114.64 318.85, 108.50 322.50 C 103.67 327.19, 97.92 327.51, 93.50 331.50 C 89.17 331.43, 88.42 336.58, 85.50 336.50 C 82.06 338.61, 85.69 341.39, 86.50 343.50 C 88.93 350.01, 93.76 354.12, 95.50 359.50 C 97.22 368.02, 106.01 368.72, 110.50 364.50 C 116.22 362.49, 121.55 361.95, 126.50 360.50 C 133.01 361.07, 137.55 359.28, 142.50 358.50 C 148.46 354.75, 153.25 351.56, 158.50 349.50 C 163.92 344.71, 171.48 343.93, 173.50 337.50 C 175.90 331.80, 174.76 326.05, 176.50 321.50 C 179.09 318.96, 175.91 315.04, 178.50 313.50 C 175.88 311.24, 180.40 305.34, 181.50 307.50 C 181.83 312.50, 184.78 317.98, 184.50 323.50 C 187.89 329.16, 187.01 336.68, 191.50 339.50 C 202.83 339.50, 213.17 339.50, 223.50 339.50 C 230.22 338.80, 234.67 340.21, 239.50 338.50 C 245.61 340.51, 250.63 337.56, 256.50 338.50 C 267.83 338.50, 278.17 338.50, 288.50 338.50 C 294.50 338.50, 299.50 338.50, 304.50 338.50 C 310.35 337.52, 317.88 340.67, 320.50 336.50 C 320.42 330.54, 322.16 325.68, 322.50 320.50 C 323.34 314.49, 323.94 309.97, 325.50 304.50 C 326.66 298.70, 327.53 293.79, 327.50 288.50 C 329.69 293.03, 331.14 298.45, 333.50 303.50 C 337.22 308.93, 337.48 314.78, 340.50 319.50 C 343.92 325.60, 345.39 331.10, 349.50 335.50 C 354.13 335.46, 350.99 340.25, 354.50 340.50 C 356.62 344.41, 361.59 342.48, 360.50 346.50 C 367.16 350.72, 371.84 356.28, 377.50 359.50 C 382.18 364.72, 389.07 366.04, 392.50 369.50 C 396.61 373.79, 402.19 375.15, 405.50 379.50 C 411.01 383.70, 417.88 383.41, 421.50 377.50 C 427.93 372.06, 433.28 367.45, 438.50 362.50 C 440.49 359.30, 440.51 356.70, 441.50 354.50 C 438.19 350.41, 436.11 350.66, 433.50 352.50 C 430.20 349.52, 434.13 346.85, 431.50 344.50 C 428.78 341.62, 424.86 345.67, 424.50 341.50 C 422.56 335.06, 416.79 331.65, 413.50 327.50 C 407.63 321.42, 401.79 316.88, 397.50 312.50 C 391.59 306.27, 387.73 302.41, 382.50 297.50 C 379.16 291.92, 379.49 286.23, 377.50 281.50 C 375.43 275.81, 375.30 270.31, 373.50 265.50 C 372.37 259.22, 371.02 254.03, 370.50 248.50 C 368.57 242.89, 368.41 237.54, 367.50 232.50 C 366.54 226.48, 365.46 221.52, 364.50 216.50 C 363.49 209.95, 361.16 205.36, 359.50 200.50 C 355.59 194.41, 354.24 188.25, 349.50 183.50 C 345.42 176.73, 339.22 173.55, 334.50 169.50 C 328.95 165.74, 323.61 163.89, 318.50 161.50 C 312.06 158.89, 307.84 154.35, 302.50 152.50 C 296.08 148.04, 291.11 143.50, 285.50 140.50 Z" fill="rgb(254.70661077382672,254.59089814011756,254.6243133853715)" stroke="rgb(254.70661077382672,254.59089814011756,254.6243133853715)" stroke-width="1" />
<path d="M 281.50 0.50 C 285.79 2.56, 291.55 5.90, 295.50 5.50 C 299.84 10.44, 305.62 12.30, 310.50 15.50 C 316.06 17.08, 321.83 15.77, 325.50 19.50 C 331.76 19.39, 337.43 24.29, 341.50 18.50 C 346.29 14.38, 351.99 14.88, 356.50 12.50 C 361.83 10.55, 367.52 11.89, 372.50 11.50 C 377.17 12.21, 382.97 13.80, 387.50 15.50 C 393.55 18.18, 398.62 22.04, 402.50 25.50 C 407.68 30.82, 410.67 35.63, 413.50 40.50 C 415.94 46.04, 417.38 51.00, 417.50 56.50 C 417.95 61.89, 417.59 68.10, 420.50 70.50 C 424.40 75.50, 429.68 79.12, 433.50 82.50 C 437.84 88.38, 441.13 90.71, 444.50 95.50 C 450.12 101.24, 453.84 106.36, 457.50 111.50 C 461.43 117.67, 465.18 122.50, 468.50 127.50 C 471.76 133.39, 474.04 138.69, 477.50 143.50 C 480.16 149.03, 481.49 154.11, 484.50 158.50 C 486.91 164.33, 488.09 169.67, 490.50 174.50 C 491.64 180.25, 494.33 184.35, 494.50 189.50 C 495.94 195.73, 497.87 200.35, 498.50 205.50 C 500.53 210.74, 500.21 215.95, 501.50 220.50 C 502.99 226.02, 502.42 231.40, 502.50 236.50 C 503.50 247.50, 503.50 257.50, 503.50 267.50 C 502.74 272.68, 502.25 277.02, 502.50 282.50 C 500.43 288.06, 501.89 294.07, 499.50 298.50 C 499.50 301.50, 499.50 303.50, 499.50 305.50 C 501.55 301.21, 501.85 309.99, 503.50 305.50 C 503.94 303.22, 502.39 301.37, 504.50 298.50 C 505.44 292.85, 507.16 299.02, 507.50 300.50 C 507.50 304.88, 507.50 313.43, 507.50 313.50 C 511.97 317.83, 511.61 305.87, 511.50 302.50 C 511.50 291.17, 511.50 280.83, 511.50 270.50 C 511.50 186.83, 511.50 104.17, 511.50 21.50 C 511.50 15.83, 511.50 11.17, 511.50 6.50 C 513.76 -1.76, 506.05 0.95, 501.50 0.50 C 490.50 0.50, 480.50 0.50, 470.50 0.50 C 448.83 0.50, 428.17 0.50, 407.50 0.50 C 365.17 0.50, 323.83 0.50, 282.50 0.50 Z" fill="rgb(0.0,0.0,0.0)" stroke="rgb(0.0,0.0,0.0)" stroke-width="1" />
<path d="M 439.50 118.50 C 433.66 120.75, 427.76 122.84, 422.50 126.50 C 415.13 130.27, 409.27 134.28, 403.50 138.50 C 397.83 143.14, 391.75 146.39, 386.50 151.50 C 380.27 157.93, 372.12 162.33, 369.50 169.50 C 372.60 175.43, 374.03 181.06, 373.50 187.50 C 372.68 195.40, 370.35 201.68, 364.50 206.50 C 365.51 213.30, 367.16 218.84, 368.50 224.50 C 369.56 231.48, 370.07 237.68, 371.50 243.50 C 371.87 250.43, 374.59 255.38, 374.50 261.50 C 375.92 268.88, 377.89 274.62, 379.50 280.50 C 382.14 287.04, 381.35 294.00, 386.50 298.50 C 390.61 302.63, 392.20 298.86, 393.50 296.50 C 396.26 293.13, 399.71 290.45, 402.50 287.50 C 405.83 283.68, 408.84 282.52, 411.50 280.50 C 416.02 280.18, 413.57 275.01, 416.50 273.50 C 424.61 268.77, 428.81 280.83, 435.50 281.50 C 439.51 283.57, 441.29 284.15, 440.50 279.50 C 438.51 275.91, 439.49 272.09, 437.50 269.50 C 436.58 262.61, 435.39 256.82, 435.50 250.50 C 432.89 244.24, 436.68 238.12, 436.50 232.50 C 437.03 229.05, 441.33 223.74, 443.50 226.50 C 447.80 229.10, 448.58 232.75, 451.50 235.50 C 455.05 241.80, 456.77 247.86, 459.50 253.50 C 463.23 259.92, 463.22 266.89, 466.50 272.50 C 467.56 279.28, 469.96 284.50, 470.50 290.50 C 471.94 297.01, 471.57 306.41, 479.50 304.50 C 480.91 298.26, 483.86 293.06, 483.50 286.50 C 484.12 279.21, 486.28 273.96, 485.50 267.50 C 487.52 261.53, 486.06 255.12, 486.50 249.50 C 486.15 242.51, 484.94 236.87, 485.50 230.50 C 485.05 223.33, 482.91 218.27, 482.50 212.50 C 481.23 205.47, 479.29 199.73, 478.50 193.50 C 477.00 186.35, 473.97 181.25, 472.50 175.50 C 469.33 168.71, 467.26 162.46, 464.50 156.50 C 461.32 149.16, 457.28 143.59, 454.50 137.50 C 449.73 130.27, 446.29 123.90, 440.50 118.50 Z" fill="rgb(143.99109593626565,210.9801834371025,207.99933052152375)" stroke="rgb(143.99109593626565,210.9801834371025,207.99933052152375)" stroke-width="1" />
<path d="M 249.50 15.50 C 245.27 17.07, 240.64 17.71, 236.50 19.50 C 230.74 21.80, 226.92 25.37, 222.50 27.50 C 212.01 36.53, 206.78 46.31, 202.50 56.50 C 201.28 61.74, 199.31 65.67, 199.50 70.50 C 199.18 76.25, 197.54 80.04, 197.50 84.50 C 197.38 90.20, 197.03 94.80, 194.50 98.50 C 191.15 103.74, 186.75 107.93, 181.50 109.50 C 171.23 114.86, 161.65 123.18, 159.50 133.50 C 157.28 138.05, 159.08 143.27, 158.50 147.50 C 159.57 153.14, 160.10 158.00, 161.50 162.50 C 162.90 174.66, 156.86 182.73, 152.50 191.50 C 150.93 196.87, 148.81 200.61, 149.50 205.50 C 149.13 208.79, 149.77 210.67, 150.50 212.50 C 152.55 210.05, 154.17 207.83, 155.50 205.50 C 159.67 200.92, 162.35 195.11, 166.50 192.50 C 170.04 186.99, 174.85 183.09, 178.50 180.50 C 183.67 175.51, 186.88 172.92, 191.50 169.50 C 197.41 166.43, 201.55 162.48, 206.50 160.50 C 212.02 157.95, 216.18 155.53, 220.50 153.50 C 226.24 152.49, 230.36 149.96, 234.50 147.50 C 238.27 142.62, 242.08 139.18, 240.50 133.50 C 241.30 126.48, 232.54 128.87, 229.50 125.50 C 219.17 117.43, 216.26 107.71, 214.50 97.50 C 212.30 87.94, 214.07 77.74, 213.50 68.50 C 212.14 55.91, 219.67 46.95, 228.50 40.50 C 233.72 37.23, 238.22 35.63, 242.50 33.50 C 245.57 32.66, 246.88 30.00, 249.50 30.50 C 252.18 33.42, 250.54 36.70, 252.50 38.50 C 254.27 49.74, 260.66 59.12, 269.50 65.50 C 273.71 69.58, 280.76 68.75, 281.50 74.50 C 283.19 83.62, 289.20 73.04, 293.50 71.50 C 297.88 70.92, 307.40 74.62, 301.50 77.50 C 298.46 79.74, 304.00 75.84, 304.50 78.50 C 305.50 81.50, 305.50 83.50, 305.50 85.50 C 305.20 91.58, 299.46 95.92, 295.50 98.50 C 289.13 100.00, 289.94 105.84, 288.50 110.50 C 287.02 120.16, 286.39 129.18, 286.50 138.50 C 296.59 146.09, 305.36 153.45, 315.50 157.50 C 326.04 164.01, 336.55 167.16, 344.50 176.50 C 349.51 181.55, 353.75 185.51, 355.50 190.50 C 359.55 194.83, 359.75 204.16, 364.50 203.50 C 368.47 199.57, 370.27 195.15, 371.50 190.50 C 371.41 184.93, 372.20 179.99, 369.50 176.50 C 367.39 171.08, 366.82 166.01, 362.50 162.50 C 358.43 156.86, 353.88 152.84, 352.50 147.50 C 349.94 142.38, 352.75 137.93, 352.50 133.50 C 353.64 128.03, 354.35 123.38, 354.50 118.50 C 353.71 112.45, 349.83 108.18, 346.50 105.50 C 340.92 100.96, 336.16 97.84, 331.50 94.50 C 322.01 86.22, 318.36 76.94, 317.50 66.50 C 316.44 60.91, 315.12 56.85, 314.50 52.50 C 313.33 46.07, 309.70 42.08, 307.50 37.50 C 299.23 27.96, 289.80 21.70, 279.50 18.50 C 270.52 14.23, 260.13 15.79, 250.50 15.50 Z" fill="rgb(254.63206692227257,126.28246775880098,104.57769257581039)" stroke="rgb(254.63206692227257,126.28246775880098,104.57769257581039)" stroke-width="1" />
<path d="M 106.50 144.50 C 101.45 146.04, 96.00 146.62, 91.50 149.50 C 85.29 152.33, 80.16 155.35, 75.50 159.50 C 69.18 163.14, 66.11 168.80, 61.50 171.50 C 56.78 177.75, 51.69 182.44, 47.50 187.50 C 42.70 193.17, 39.15 197.94, 37.50 203.50 C 36.76 209.61, 35.58 214.53, 34.50 219.50 C 33.44 230.67, 31.97 240.67, 32.50 251.50 C 31.95 255.64, 33.61 267.35, 34.50 262.50 C 36.79 256.34, 39.05 251.59, 40.50 246.50 C 44.44 240.75, 45.80 234.93, 50.50 230.50 C 53.28 226.89, 60.46 217.81, 63.50 225.50 C 65.44 231.25, 65.75 236.26, 65.50 241.50 C 64.52 247.37, 64.03 252.44, 63.50 257.50 C 62.76 263.47, 62.24 268.53, 61.50 273.50 C 60.54 279.52, 59.46 284.48, 58.50 289.50 C 58.85 294.38, 53.11 303.36, 60.50 302.50 C 68.90 304.33, 70.56 295.98, 75.50 292.50 C 80.40 286.92, 84.76 281.05, 90.50 278.50 C 98.13 277.25, 100.24 285.54, 102.50 288.50 C 108.43 285.66, 112.93 281.78, 118.50 280.50 C 123.19 276.28, 131.77 278.30, 132.50 272.50 C 134.50 266.77, 135.28 261.55, 136.50 256.50 C 137.46 250.35, 140.16 245.91, 140.50 240.50 C 142.67 234.29, 144.34 229.30, 146.50 224.50 C 149.79 219.28, 148.23 213.36, 147.50 208.50 C 147.15 202.08, 147.72 197.04, 149.50 192.50 C 152.18 186.23, 155.48 181.63, 157.50 176.50 C 159.18 170.45, 161.59 163.81, 155.50 160.50 C 149.66 156.11, 144.62 153.22, 139.50 150.50 C 129.37 145.59, 118.88 143.96, 107.50 144.50 Z" fill="rgb(143.9854482866531,210.96878422782038,207.99679236426223)" stroke="rgb(143.9854482866531,210.96878422782038,207.99679236426223)" stroke-width="1" />
<path d="M 247.50 31.50 C 241.87 35.40, 235.27 36.94, 229.50 40.50 C 221.73 45.47, 216.92 52.75, 214.50 59.50 C 214.21 66.67, 212.23 74.80, 214.50 79.50 C 214.24 87.08, 214.58 93.41, 215.50 99.50 C 217.27 106.73, 219.58 112.74, 222.50 118.50 C 227.92 126.49, 237.07 125.88, 241.50 130.50 C 241.50 134.50, 241.50 137.50, 241.50 140.50 C 244.11 144.10, 247.15 145.68, 250.50 146.50 C 257.07 148.23, 265.48 148.37, 270.50 145.50 C 276.52 142.87, 286.34 141.40, 285.50 133.50 C 285.58 126.06, 287.17 120.25, 286.50 113.50 C 287.49 105.40, 289.23 98.22, 296.50 96.50 C 304.37 93.13, 305.18 85.84, 304.50 78.50 C 301.68 68.23, 290.20 71.68, 286.50 78.50 C 281.96 84.41, 281.37 76.66, 280.50 74.50 C 279.55 70.45, 275.10 69.91, 272.50 68.50 C 264.66 64.01, 258.80 57.15, 255.50 50.50 C 251.15 44.52, 252.68 35.58, 248.50 31.50 Z" fill="rgb(251.49767814251402,161.83682946357087,151.39631705364292)" stroke="rgb(251.49767814251402,161.83682946357087,151.39631705364292)" stroke-width="1" />
<path d="M 441.50 227.50 C 437.02 232.00, 437.34 238.49, 436.50 244.50 C 436.80 251.32, 437.23 257.08, 438.50 262.50 C 439.59 269.27, 440.79 274.99, 442.50 280.50 C 444.22 287.14, 445.56 292.95, 447.50 298.50 C 449.86 304.57, 444.09 301.61, 443.50 298.50 C 441.12 294.58, 438.87 292.01, 436.50 289.50 C 430.97 283.77, 427.53 275.73, 420.50 273.50 C 413.11 276.21, 418.18 284.77, 418.50 289.50 C 420.97 296.31, 422.78 302.38, 424.50 308.50 C 427.38 315.35, 429.90 320.94, 432.50 326.50 C 435.65 332.97, 437.35 339.03, 440.50 344.50 C 442.16 348.03, 442.35 351.17, 444.50 353.50 C 446.83 356.32, 448.78 361.21, 444.50 361.50 C 436.81 363.93, 433.44 370.12, 427.50 374.50 C 423.25 376.42, 421.27 380.40, 418.50 382.50 C 418.22 386.61, 422.66 386.75, 424.50 389.50 C 430.89 394.50, 436.16 398.80, 442.50 400.50 C 449.87 403.99, 455.16 408.91, 459.50 414.50 C 461.91 417.36, 467.01 417.54, 465.50 413.50 C 463.56 409.20, 460.04 406.97, 459.50 403.50 C 461.25 399.96, 462.45 405.10, 465.50 405.50 C 469.23 408.02, 472.11 409.15, 474.50 411.50 C 476.67 412.44, 483.89 413.80, 480.50 410.50 C 477.52 407.62, 476.23 403.51, 473.50 402.50 C 470.00 399.07, 468.74 394.79, 473.50 397.50 C 477.61 398.42, 479.45 401.43, 482.50 401.50 C 487.20 403.39, 489.86 401.33, 486.50 398.50 C 482.61 396.03, 480.39 392.97, 477.50 391.50 C 474.02 389.39, 471.52 387.32, 468.50 386.50 C 463.23 384.03, 463.23 380.97, 467.50 379.50 C 474.28 377.05, 477.64 371.37, 476.50 364.50 C 477.93 360.98, 472.87 355.09, 472.50 359.50 C 471.18 363.45, 470.25 366.14, 468.50 368.50 C 465.38 371.74, 462.04 372.07, 459.50 370.50 C 454.68 368.19, 458.13 364.13, 459.50 361.50 C 459.18 351.65, 476.53 359.19, 470.50 351.50 C 464.65 351.48, 466.13 348.20, 467.50 345.50 C 469.12 341.68, 470.61 339.21, 471.50 336.50 C 473.63 330.23, 476.95 324.42, 474.50 318.50 C 473.11 311.66, 472.08 305.68, 471.50 299.50 C 470.14 292.43, 468.38 286.94, 466.50 281.50 C 465.12 274.71, 463.21 269.15, 461.50 263.50 C 458.43 257.14, 457.14 251.04, 454.50 245.50 C 450.73 238.65, 448.32 231.12, 442.50 227.50 Z" fill="rgb(128.4561403508772,91.6140350877193,109.59649122807018)" stroke="rgb(128.4561403508772,91.6140350877193,109.59649122807018)" stroke-width="1" />
<path d="M 58.50 224.50 C 53.23 227.66, 49.96 233.66, 46.50 238.50 C 42.53 243.82, 41.58 249.39, 39.50 254.50 C 37.27 260.13, 36.23 265.25, 35.50 270.50 C 33.08 276.35, 33.26 282.20, 34.50 287.50 C 35.67 293.43, 35.88 298.76, 37.50 303.50 C 39.12 309.38, 39.88 314.62, 41.50 319.50 C 45.77 325.44, 43.11 329.75, 42.50 335.50 C 41.95 342.89, 45.22 347.79, 50.50 351.50 C 46.87 355.06, 41.93 356.86, 36.50 357.50 C 33.16 359.49, 30.71 360.21, 28.50 361.50 C 25.27 361.43, 20.28 366.58, 24.50 366.50 C 30.87 367.52, 36.51 364.54, 40.50 365.50 C 37.81 370.34, 26.94 372.28, 28.50 378.50 C 34.84 378.00, 39.51 375.86, 44.50 374.50 C 46.67 373.32, 52.99 371.13, 50.50 374.50 C 46.83 378.17, 44.17 380.83, 41.50 383.50 C 44.96 387.81, 51.03 382.45, 55.50 382.50 C 62.25 380.51, 67.11 377.38, 72.50 375.50 C 78.62 373.78, 83.20 370.78, 88.50 369.50 C 92.29 368.59, 94.29 366.79, 96.50 365.50 C 95.17 362.17, 93.55 359.95, 92.50 357.50 C 88.61 351.46, 86.32 346.16, 82.50 341.50 C 80.30 338.80, 79.68 334.66, 83.50 334.50 C 86.01 331.32, 86.09 328.14, 87.50 325.50 C 90.27 319.82, 91.49 314.49, 93.50 309.50 C 96.39 303.54, 97.80 297.96, 99.50 292.50 C 100.26 285.72, 98.43 280.22, 92.50 279.50 C 85.38 282.28, 80.76 288.66, 75.50 293.50 C 70.65 299.15, 67.51 304.50, 63.50 309.50 C 58.76 313.80, 60.07 322.57, 52.50 320.50 C 50.41 316.34, 53.47 310.55, 53.50 305.50 C 54.99 298.95, 55.98 293.62, 57.50 288.50 C 57.95 282.41, 59.30 277.69, 59.50 272.50 C 61.59 266.62, 60.63 260.47, 62.50 255.50 C 62.40 249.32, 64.22 244.94, 63.50 239.50 C 62.77 233.83, 65.85 224.95, 59.50 224.50 Z" fill="rgb(135.8095238095238,136.0,165.8095238095238)" stroke="rgb(135.8095238095238,136.0,165.8095238095238)" stroke-width="1" />
<path d="M 304.50 31.50 C 306.25 36.21, 311.27 39.57, 312.50 44.50 C 315.53 49.88, 315.67 55.04, 317.50 59.50 C 317.51 65.11, 319.80 68.77, 319.50 73.50 C 320.85 79.85, 323.57 84.22, 326.50 88.50 C 335.75 97.69, 348.25 101.61, 353.50 112.50 C 357.85 123.26, 352.60 132.43, 353.50 142.50 C 353.06 148.84, 355.81 152.87, 359.50 156.50 C 363.76 160.80, 367.43 170.18, 372.50 162.50 C 377.24 158.54, 381.56 153.37, 385.50 150.50 C 390.41 146.81, 394.48 141.53, 399.50 139.50 C 407.98 133.87, 400.33 134.34, 395.50 134.50 C 390.49 134.85, 384.86 134.77, 380.50 134.50 C 374.28 135.83, 370.25 135.02, 365.50 134.50 C 355.60 136.10, 363.35 127.22, 367.50 126.50 C 372.14 123.15, 376.83 123.35, 381.50 123.50 C 388.35 122.31, 392.17 126.02, 396.50 128.50 C 406.12 120.44, 414.93 112.86, 425.50 109.50 C 427.72 107.15, 431.42 108.35, 431.50 106.50 C 430.07 103.40, 426.76 102.08, 426.50 99.50 C 420.80 94.24, 416.66 88.64, 411.50 85.50 C 406.26 81.94, 400.38 71.44, 397.50 79.50 C 393.64 85.25, 388.38 90.27, 383.50 92.50 C 378.03 94.18, 374.47 97.04, 369.50 96.50 C 363.42 96.49, 358.48 96.16, 354.50 93.50 C 348.18 91.41, 343.79 87.08, 339.50 82.50 C 336.95 76.79, 332.87 73.12, 333.50 67.50 C 332.45 62.01, 332.22 57.44, 333.50 53.50 C 333.00 47.71, 342.12 42.11, 335.50 39.50 C 329.76 38.35, 325.52 35.99, 320.50 35.50 C 314.73 33.75, 310.00 32.89, 305.50 31.50 Z" fill="rgb(126.9920634920635,155.74603174603175,224.47619047619048)" stroke="rgb(126.9920634920635,155.74603174603175,224.47619047619048)" stroke-width="1" />
<path d="M 305.50 32.50 C 307.89 36.95, 311.50 40.89, 313.50 45.50 C 315.83 50.75, 316.95 55.51, 317.50 60.50 C 318.14 65.98, 319.86 70.02, 320.50 74.50 C 322.50 79.95, 323.91 85.62, 327.50 88.50 C 331.02 93.58, 336.84 95.81, 340.50 99.50 C 346.16 103.09, 351.70 107.24, 353.50 112.50 C 357.81 122.78, 353.01 132.03, 353.50 141.50 C 352.60 147.90, 355.91 151.55, 358.50 155.50 C 362.61 159.62, 366.47 169.61, 371.50 163.50 C 380.79 153.29, 391.59 146.28, 399.50 138.50 C 398.05 133.78, 392.85 136.95, 388.50 135.50 C 382.83 135.50, 378.17 135.50, 373.50 135.50 C 368.75 134.59, 361.98 137.57, 360.50 133.50 C 363.15 128.19, 368.64 124.81, 373.50 123.50 C 378.34 120.88, 383.43 123.41, 387.50 123.50 C 391.74 125.39, 399.96 131.28, 400.50 123.50 C 400.88 118.99, 410.89 121.40, 412.50 115.50 C 417.58 111.74, 422.49 110.01, 427.50 108.50 C 435.04 105.87, 423.99 99.88, 423.50 96.50 C 418.36 91.95, 415.08 88.89, 410.50 84.50 C 405.85 80.74, 400.57 72.64, 397.50 79.50 C 393.52 84.96, 388.58 90.74, 383.50 92.50 C 378.74 95.90, 373.89 95.63, 369.50 96.50 C 363.38 97.26, 359.55 94.91, 354.50 95.50 C 344.56 88.49, 334.18 79.70, 333.50 68.50 C 333.08 63.27, 331.28 58.05, 333.50 54.50 C 332.82 48.49, 339.97 43.46, 335.50 39.50 C 330.08 38.39, 325.92 36.61, 321.50 35.50 C 316.30 33.36, 311.70 32.21, 306.50 32.50 Z" fill="rgb(108.37738383024443,146.0996508192318,228.76470588235293)" stroke="rgb(108.37738383024443,146.0996508192318,228.76470588235293)" stroke-width="1" />
<path d="M 84.50 109.50 C 77.82 115.94, 73.63 123.42, 68.50 130.50 C 63.34 138.43, 60.22 145.80, 55.50 152.50 C 52.85 160.51, 48.42 166.78, 47.50 174.50 C 44.91 176.99, 44.04 180.91, 43.50 184.50 C 43.61 188.08, 39.94 195.64, 42.50 189.50 C 46.81 187.54, 48.04 183.39, 51.50 180.50 C 54.62 176.16, 58.34 174.27, 60.50 170.50 C 62.75 167.05, 66.67 165.68, 69.50 162.50 C 73.36 160.23, 74.77 155.87, 78.50 155.50 C 85.84 149.58, 92.83 146.21, 100.50 144.50 C 108.45 142.01, 116.06 142.46, 123.50 143.50 C 132.36 145.08, 139.11 148.37, 145.50 152.50 C 149.79 154.95, 153.40 156.61, 156.50 159.50 C 159.65 159.40, 158.43 153.64, 157.50 151.50 C 155.55 143.71, 156.27 135.42, 159.50 129.50 C 161.75 125.13, 163.11 121.39, 166.50 118.50 C 168.81 114.77, 178.66 110.75, 174.50 110.50 C 166.98 111.00, 159.60 110.41, 152.50 110.50 C 144.38 110.29, 135.79 111.16, 130.50 109.50 C 123.31 108.22, 115.38 110.13, 108.50 109.50 C 100.17 109.50, 92.83 109.50, 85.50 109.50 Z" fill="rgb(109.22560975609755,146.73170731707316,228.7439024390244)" stroke="rgb(109.22560975609755,146.73170731707316,228.7439024390244)" stroke-width="1" />
<path d="M 440.50 227.50 C 437.73 233.57, 435.83 240.00, 436.50 247.50 C 436.94 255.40, 437.95 262.06, 439.50 268.50 C 441.24 276.14, 442.92 282.80, 444.50 289.50 C 444.90 294.02, 447.65 296.16, 447.50 299.50 C 445.96 305.01, 442.99 295.95, 440.50 294.50 C 434.38 287.40, 430.25 278.94, 422.50 274.50 C 412.75 272.43, 417.52 284.89, 418.50 289.50 C 421.13 297.04, 422.75 304.01, 425.50 310.50 C 428.24 318.89, 432.51 325.22, 434.50 332.50 C 438.29 340.26, 440.92 347.07, 444.50 353.50 C 446.79 359.26, 449.21 356.68, 451.50 353.50 C 455.36 350.35, 458.52 348.93, 462.50 349.50 C 467.61 350.14, 467.18 344.86, 468.50 342.50 C 470.17 337.89, 471.63 334.61, 473.50 331.50 C 477.47 324.20, 473.14 317.63, 473.50 310.50 C 472.31 302.36, 470.34 295.96, 468.50 289.50 C 467.39 281.60, 464.72 275.35, 463.50 268.50 C 461.10 260.45, 458.01 254.09, 455.50 247.50 C 453.27 242.99, 452.51 239.28, 449.50 236.50 C 447.03 232.96, 446.08 227.28, 441.50 227.50 Z" fill="rgb(79.87581699346406,33.44444444444444,57.415758896151054)" stroke="rgb(79.87581699346406,33.44444444444444,57.415758896151054)" stroke-width="1" />
<path d="M 98.50 109.50 C 95.58 112.51, 93.02 112.19, 89.50 110.50 C 83.80 109.21, 81.57 113.87, 78.50 116.50 C 73.62 124.36, 68.28 130.60, 64.50 137.50 C 59.65 144.68, 56.64 151.61, 53.50 158.50 C 50.26 166.68, 46.61 173.27, 44.50 180.50 C 42.73 184.04, 42.24 187.12, 42.50 190.50 C 45.87 187.56, 47.46 184.73, 50.50 182.50 C 56.51 174.59, 62.52 168.72, 68.50 163.50 C 75.85 157.06, 82.17 151.56, 89.50 148.50 C 97.35 145.81, 103.55 142.55, 111.50 143.50 C 119.65 143.33, 126.70 143.41, 132.50 146.50 C 140.81 148.63, 147.12 153.14, 153.50 157.50 C 157.55 161.98, 159.46 158.13, 158.50 154.50 C 158.27 149.71, 155.96 147.19, 156.50 143.50 C 156.31 134.46, 159.35 127.75, 163.50 121.50 C 168.01 118.37, 168.99 113.66, 172.50 112.50 C 169.51 108.47, 165.65 113.60, 162.50 110.50 C 158.35 113.60, 154.49 108.47, 151.50 111.50 C 146.91 109.82, 144.43 111.69, 140.50 111.50 C 136.90 111.92, 133.10 111.92, 130.50 110.50 C 126.45 114.36, 122.58 109.28, 119.50 112.50 C 115.51 110.71, 112.34 113.42, 108.50 112.50 C 102.00 113.69, 103.38 108.52, 99.50 109.50 Z" fill="rgb(108.09528463229904,146.1478133398485,228.9411189836306)" stroke="rgb(108.09528463229904,146.1478133398485,228.9411189836306)" stroke-width="1" />
<path d="M 53.50 320.50 C 48.51 322.48, 52.08 323.41, 53.50 326.50 C 57.70 322.79, 60.02 327.07, 61.50 329.50 C 68.27 333.08, 63.31 344.24, 56.50 342.50 C 48.78 341.50, 47.69 332.11, 48.50 327.50 C 40.14 327.29, 42.56 337.18, 40.50 342.50 C 33.29 343.19, 27.50 344.90, 22.50 348.50 C 15.98 352.57, 8.54 356.80, 8.50 364.50 C 8.46 371.87, 13.63 376.09, 13.50 382.50 C 15.86 392.21, 25.91 390.10, 30.50 395.50 C 35.84 400.71, 42.51 399.29, 48.50 399.50 C 54.72 396.95, 63.87 397.32, 63.50 389.50 C 63.37 383.56, 59.92 385.85, 57.50 384.50 C 54.28 381.78, 60.82 381.59, 62.50 380.50 C 69.59 377.38, 75.21 374.14, 81.50 372.50 C 85.32 370.88, 87.79 369.39, 90.50 368.50 C 94.58 367.77, 98.00 365.43, 95.50 362.50 C 91.64 355.30, 87.31 349.72, 84.50 343.50 C 82.32 335.13, 71.42 339.34, 70.50 331.50 C 67.32 324.56, 61.99 320.56, 54.50 321.50 Z" fill="rgb(254.84710234278668,253.2157829839704,253.0672009864365)" stroke="rgb(254.84710234278668,253.2157829839704,253.0672009864365)" stroke-width="1" />
<path d="M 210.50 31.50 C 204.95 33.45, 198.99 34.40, 193.50 36.50 C 186.43 38.67, 180.09 40.18, 174.50 43.50 C 167.66 45.74, 161.88 48.15, 156.50 51.50 C 149.48 55.11, 143.04 57.73, 137.50 62.50 C 130.77 66.34, 125.16 70.48, 119.50 74.50 C 112.24 80.20, 106.24 85.53, 100.50 91.50 C 97.53 94.04, 92.70 98.65, 97.50 99.50 C 101.32 100.46, 103.97 101.83, 106.50 103.50 C 113.98 99.98, 119.15 93.32, 125.50 89.50 C 131.33 85.15, 137.55 84.15, 143.50 82.50 C 151.20 82.15, 157.30 83.23, 162.50 86.50 C 169.22 91.10, 173.98 95.98, 176.50 102.50 C 178.44 104.72, 176.47 112.15, 180.50 108.50 C 184.38 106.22, 188.09 105.91, 190.50 102.50 C 195.19 96.67, 196.13 90.70, 196.50 84.50 C 196.12 77.07, 198.00 71.57, 198.50 65.50 C 199.73 57.77, 203.92 52.67, 205.50 46.50 C 208.23 42.86, 209.52 40.04, 211.50 37.50 C 214.77 33.80, 217.18 30.28, 211.50 31.50 Z" fill="rgb(143.72727272727272,170.8181818181818,233.4181818181818)" stroke="rgb(143.72727272727272,170.8181818181818,233.4181818181818)" stroke-width="1" />
<path d="M 212.50 31.50 C 207.09 33.44, 201.20 34.24, 195.50 35.50 C 188.24 37.86, 182.38 40.20, 176.50 42.50 C 169.88 45.28, 163.96 47.34, 158.50 50.50 C 151.48 53.78, 145.54 57.26, 139.50 60.50 C 132.63 65.00, 126.77 68.54, 121.50 73.50 C 114.52 78.88, 108.11 83.24, 102.50 89.50 C 99.58 91.67, 97.00 95.15, 95.50 97.50 C 99.03 99.17, 101.68 100.54, 104.50 101.50 C 107.97 105.65, 111.91 100.78, 112.50 98.50 C 116.80 96.21, 119.31 93.03, 122.50 91.50 C 128.72 86.76, 134.57 84.53, 140.50 82.50 C 147.77 81.37, 153.69 82.18, 159.50 84.50 C 166.39 87.85, 172.37 93.42, 175.50 99.50 C 176.07 103.62, 179.44 105.17, 178.50 108.50 C 183.14 108.71, 185.35 105.48, 188.50 104.50 C 194.75 99.04, 195.25 92.61, 196.50 86.50 C 196.00 79.02, 197.44 73.34, 198.50 67.50 C 199.48 60.08, 202.51 54.51, 204.50 48.50 C 207.67 45.04, 207.70 41.70, 210.50 39.50 C 212.15 36.91, 218.33 31.29, 213.50 31.50 Z" fill="rgb(108.30742887249737,146.16280295047417,228.97839831401475)" stroke="rgb(108.30742887249737,146.16280295047417,228.97839831401475)" stroke-width="1" />
<path d="M 363.50 27.50 C 354.89 29.56, 346.81 32.90, 340.50 40.50 C 335.16 47.92, 333.35 55.80, 333.50 64.50 C 335.56 74.11, 338.90 82.19, 346.50 88.50 C 353.85 94.00, 361.94 95.33, 370.50 95.50 C 380.89 94.67, 387.99 89.28, 394.50 82.50 C 399.91 75.11, 401.22 67.02, 401.50 58.50 C 399.44 48.89, 396.10 40.81, 388.50 34.50 C 381.08 29.16, 373.20 27.35, 364.50 27.50 Z" fill="rgb(254.6908943528776,203.96973790867332,122.46609024587949)" stroke="rgb(254.6908943528776,203.96973790867332,122.46609024587949)" stroke-width="1" />
<path d="M 133.50 310.50 C 128.70 311.85, 123.45 312.10, 119.50 315.50 C 113.35 318.81, 108.58 322.02, 103.50 324.50 C 97.06 327.11, 92.84 331.65, 87.50 333.50 C 78.15 336.35, 86.37 343.04, 87.50 347.50 C 91.79 353.38, 93.81 358.79, 97.50 363.50 C 100.42 371.92, 106.88 366.35, 111.50 364.50 C 116.95 362.18, 121.95 361.16, 127.50 361.50 C 132.92 359.11, 139.53 361.98, 143.50 358.50 C 149.79 355.88, 154.26 352.26, 159.50 350.50 C 165.33 346.40, 171.22 343.08, 174.50 338.50 C 176.58 332.95, 176.96 327.69, 177.50 322.50 C 176.74 319.53, 178.65 315.32, 177.50 315.50 C 176.36 320.95, 173.51 317.48, 171.50 320.50 C 166.13 319.25, 160.51 321.96, 155.50 319.50 C 151.52 320.07, 149.20 319.02, 147.50 316.50 C 144.18 313.55, 142.48 313.27, 146.50 316.50 C 148.94 319.25, 151.75 319.49, 152.50 322.50 C 153.47 327.89, 148.27 323.70, 148.50 321.50 C 142.88 316.57, 137.92 313.47, 132.50 311.50 Z" fill="rgb(254.79558011049724,254.8322186682175,254.90084326839198)" stroke="rgb(254.79558011049724,254.8322186682175,254.90084326839198)" stroke-width="1" />
<path d="M 370.50 399.50 C 361.15 403.81, 351.43 407.18, 342.50 412.50 C 337.26 414.73, 333.31 417.66, 328.50 418.50 C 323.02 421.28, 318.86 423.84, 313.50 423.50 C 303.25 422.42, 291.55 420.37, 284.50 427.50 C 281.94 432.46, 282.19 437.18, 281.50 441.50 C 281.19 447.45, 280.34 452.18, 278.50 456.50 C 274.84 463.79, 281.89 463.29, 285.50 460.50 C 291.31 459.18, 295.75 456.97, 300.50 455.50 C 310.67 450.43, 320.91 447.95, 329.50 441.50 C 340.15 436.59, 349.23 430.32, 358.50 424.50 C 363.38 419.25, 368.62 415.57, 370.50 410.50 C 375.31 406.89, 379.78 397.82, 371.50 399.50 Z" fill="rgb(251.84229828850854,162.5762021189894,152.49388753056235)" stroke="rgb(251.84229828850854,162.5762021189894,152.49388753056235)" stroke-width="1" />
<path d="M 325.50 330.50 C 324.69 334.59, 323.30 340.51, 325.50 344.50 C 328.85 349.61, 328.00 355.45, 331.50 359.50 C 333.17 365.30, 336.60 369.38, 337.50 374.50 C 340.55 379.59, 347.32 378.23, 351.50 379.50 C 356.85 381.27, 362.26 380.47, 366.50 382.50 C 372.41 382.57, 376.35 385.01, 381.50 384.50 C 387.51 385.68, 392.01 387.08, 396.50 388.50 C 402.37 389.00, 406.99 390.13, 411.50 391.50 C 417.14 392.56, 421.63 393.99, 426.50 394.50 C 424.69 391.58, 419.95 386.42, 414.50 386.50 C 408.30 385.11, 404.51 380.35, 399.50 378.50 C 393.81 374.21, 389.07 371.06, 384.50 367.50 C 373.47 360.04, 364.27 351.59, 354.50 344.50 C 349.90 339.81, 345.83 335.30, 342.50 330.50 C 336.50 330.50, 331.50 330.50, 326.50 330.50 Z" fill="rgb(151.89361702127658,149.9787234042553,203.5531914893617)" stroke="rgb(151.89361702127658,149.9787234042553,203.5531914893617)" stroke-width="1" />
<path d="M 51.50 320.50 C 48.07 323.65, 53.40 325.57, 55.50 326.50 C 60.00 326.59, 61.44 329.88, 63.50 332.50 C 66.63 341.39, 56.43 345.08, 51.50 340.50 C 49.76 336.86, 47.73 334.76, 48.50 331.50 C 49.94 325.44, 45.64 325.74, 43.50 329.50 C 40.06 336.25, 41.58 343.88, 46.50 348.50 C 50.56 350.50, 53.33 352.77, 48.50 354.50 C 44.63 355.82, 41.09 355.50, 38.50 357.50 C 35.10 359.14, 32.11 359.37, 29.50 360.50 C 25.96 361.32, 19.49 367.00, 25.50 366.50 C 33.01 367.99, 38.83 362.72, 44.50 365.50 C 40.09 366.84, 37.73 369.71, 34.50 370.50 C 31.34 373.48, 25.29 375.22, 27.50 378.50 C 35.09 378.26, 40.80 375.88, 46.50 373.50 C 50.07 370.07, 55.04 374.94, 49.50 375.50 C 46.42 379.60, 41.31 381.45, 41.50 385.50 C 49.17 385.46, 54.42 381.97, 60.50 380.50 C 67.15 376.99, 73.85 376.01, 79.50 372.50 C 83.21 371.61, 85.68 370.12, 88.50 369.50 C 91.42 367.44, 98.68 367.01, 95.50 363.50 C 91.30 356.72, 88.59 350.32, 84.50 344.50 C 81.88 341.43, 82.60 337.44, 78.50 337.50 C 73.54 337.22, 72.30 333.29, 70.50 330.50 C 68.12 321.51, 58.55 321.89, 52.50 320.50 Z" fill="rgb(254.0052242054854,165.7797126686983,155.2080975185024)" stroke="rgb(254.0052242054854,165.7797126686983,155.2080975185024)" stroke-width="1" />
<path d="M 457.50 350.50 C 451.09 352.29, 449.35 362.44, 441.50 361.50 C 434.55 366.83, 429.39 373.05, 423.50 377.50 C 420.68 380.91, 414.67 383.82, 419.50 386.50 C 422.93 389.06, 425.46 391.41, 428.50 392.50 C 434.46 398.54, 441.10 399.52, 446.50 403.50 C 453.64 406.68, 457.40 415.62, 464.50 416.50 C 466.41 413.04, 463.25 411.27, 462.50 408.50 C 460.62 405.41, 454.27 401.15, 458.50 400.50 C 465.25 404.62, 470.13 409.87, 476.50 411.50 C 481.30 415.36, 482.55 410.76, 479.50 408.50 C 476.31 404.05, 473.41 402.70, 470.50 399.50 C 464.99 394.29, 471.45 396.13, 473.50 397.50 C 477.21 399.39, 479.68 400.88, 482.50 401.50 C 486.45 402.59, 490.18 403.16, 487.50 399.50 C 483.93 396.27, 481.22 394.38, 478.50 392.50 C 474.96 389.52, 472.14 388.23, 469.50 386.50 C 466.29 385.71, 460.63 381.21, 465.50 380.50 C 473.03 378.73, 476.64 372.88, 477.50 366.50 C 476.06 363.56, 477.16 358.97, 474.50 358.50 C 470.88 359.49, 471.28 362.74, 470.50 365.50 C 467.21 374.00, 456.65 372.03, 454.50 365.50 C 456.24 358.31, 462.93 354.49, 469.50 355.50 C 474.93 354.98, 471.28 350.01, 468.50 350.50 C 464.50 350.50, 461.50 350.50, 458.50 350.50 Z" fill="rgb(253.9702568724651,165.82244254168543,155.26002703920685)" stroke="rgb(253.9702568724651,165.82244254168543,155.26002703920685)" stroke-width="1" />
<path d="M 57.50 224.50 C 49.93 231.91, 44.47 240.19, 41.50 249.50 C 39.31 254.56, 38.17 258.64, 36.50 262.50 C 35.33 267.76, 35.31 272.50, 33.50 276.50 C 33.92 286.21, 35.22 294.56, 37.50 302.50 C 38.56 307.48, 38.92 311.74, 40.50 315.50 C 42.66 319.37, 41.67 328.60, 46.50 325.50 C 50.25 322.47, 50.85 316.97, 52.50 313.50 C 52.27 308.13, 55.07 305.01, 54.50 300.50 C 55.93 290.46, 58.86 282.45, 59.50 273.50 C 60.81 268.76, 60.70 264.45, 61.50 260.50 C 63.00 255.85, 61.79 251.07, 63.50 247.50 C 63.50 242.50, 63.50 238.50, 63.50 234.50 C 63.52 229.41, 64.19 222.88, 58.50 224.50 Z" fill="rgb(99.86666666666666,86.93333333333334,103.4)" stroke="rgb(99.86666666666666,86.93333333333334,103.4)" stroke-width="1" />
<path d="M 58.50 224.50 C 50.20 230.33, 45.39 239.89, 41.50 248.50 C 38.04 257.37, 35.98 265.81, 34.50 274.50 C 32.19 279.24, 34.30 283.55, 34.50 287.50 C 34.27 292.87, 37.07 295.99, 36.50 300.50 C 38.09 305.26, 39.09 309.26, 39.50 313.50 C 41.64 317.88, 41.81 326.45, 45.50 325.50 C 49.61 324.89, 51.14 319.15, 51.50 315.50 C 53.08 310.74, 53.44 306.48, 54.50 302.50 C 55.18 297.50, 56.12 293.62, 56.50 289.50 C 57.10 283.72, 58.99 279.90, 59.50 275.50 C 60.30 270.55, 60.19 266.24, 61.50 262.50 C 61.99 257.43, 62.02 253.17, 63.50 249.50 C 63.50 244.50, 63.50 240.50, 63.50 236.50 C 63.22 231.60, 64.98 224.36, 59.50 224.50 Z" fill="rgb(79.46477445514445,32.094272681196145,55.955397871262036)" stroke="rgb(79.46477445514445,32.094272681196145,55.955397871262036)" stroke-width="1" />
<path d="M 358.50 13.50 C 354.48 15.93, 349.32 15.59, 345.50 18.50 C 340.72 21.79, 335.58 22.79, 338.50 28.50 C 340.22 31.07, 339.17 33.78, 340.50 35.50 C 343.36 37.23, 344.52 33.89, 346.50 32.50 C 351.60 29.95, 355.89 27.83, 360.50 26.50 C 371.81 25.66, 381.06 27.39, 388.50 33.50 C 398.36 41.96, 402.73 51.28, 402.50 62.50 C 403.52 67.18, 397.49 74.42, 403.50 74.50 C 407.12 69.71, 414.13 71.57, 416.50 68.50 C 416.76 57.70, 416.15 48.27, 411.50 40.50 C 406.55 30.23, 398.49 21.28, 388.50 17.50 C 379.52 12.90, 369.46 13.33, 359.50 13.50 Z" fill="rgb(255.0,254.86383787207092,254.64154528182394)" stroke="rgb(255.0,254.86383787207092,254.64154528182394)" stroke-width="1" />
<path d="M 418.50 273.50 C 413.69 279.93, 419.26 287.96, 420.50 294.50 C 423.59 302.32, 425.00 309.85, 428.50 316.50 C 432.17 324.06, 433.09 333.01, 439.50 337.50 C 440.41 341.60, 439.81 345.73, 442.50 348.50 C 442.73 351.94, 448.88 359.57, 445.50 353.50 C 448.10 350.53, 451.42 347.04, 450.50 344.50 C 444.51 343.19, 450.45 338.28, 450.50 335.50 C 450.18 327.49, 451.34 319.87, 449.50 313.50 C 449.35 304.04, 442.86 298.21, 438.50 291.50 C 435.70 288.18, 431.36 285.11, 430.50 281.50 C 425.15 279.13, 424.55 272.98, 419.50 273.50 Z" fill="rgb(79.24963503649634,31.796350364963505,55.910218978102186)" stroke="rgb(79.24963503649634,31.796350364963505,55.910218978102186)" stroke-width="1" />
<path d="M 140.50 83.50 C 134.69 85.81, 128.90 88.19, 123.50 91.50 C 118.55 96.94, 107.40 100.82, 109.50 107.50 C 121.49 109.48, 133.87 108.09, 145.50 108.50 C 152.17 108.50, 157.83 108.50, 163.50 108.50 C 167.71 107.20, 169.56 108.94, 172.50 107.50 C 178.21 108.23, 175.72 103.82, 175.50 101.50 C 172.17 94.38, 166.50 89.08, 160.50 86.50 C 154.23 83.08, 147.83 83.36, 141.50 83.50 Z" fill="rgb(253.0431818181818,253.5530303030303,254.6560606060606)" stroke="rgb(253.0431818181818,253.5530303030303,254.6560606060606)" stroke-width="1" />
<path d="M 92.50 279.50 C 86.67 281.50, 82.21 286.79, 77.50 291.50 C 73.39 297.73, 68.01 302.02, 65.50 307.50 C 62.95 312.26, 54.21 319.81, 61.50 321.50 C 69.53 323.13, 70.32 330.90, 74.50 335.50 C 81.26 339.28, 85.32 332.03, 86.50 327.50 C 88.28 321.13, 91.98 316.97, 92.50 311.50 C 94.88 305.38, 97.25 300.67, 98.50 295.50 C 100.92 290.03, 99.90 280.75, 93.50 280.50 Z" fill="rgb(134.25,95.41666666666667,110.91666666666667)" stroke="rgb(134.25,95.41666666666667,110.91666666666667)" stroke-width="1" />
<path d="M 92.50 279.50 C 86.51 281.11, 82.28 286.97, 77.50 291.50 C 73.15 297.63, 68.44 302.20, 65.50 307.50 C 63.83 311.96, 54.06 320.43, 61.50 320.50 C 69.20 323.07, 71.46 330.56, 74.50 335.50 C 81.26 339.28, 85.32 332.03, 86.50 327.50 C 88.92 320.93, 91.43 315.80, 93.50 310.50 C 95.66 304.70, 97.33 299.71, 98.50 294.50 C 99.77 288.19, 99.92 280.40, 93.50 280.50 Z" fill="rgb(79.47166921898928,32.199846860643184,56.13782542113323)" stroke="rgb(79.47166921898928,32.199846860643184,56.13782542113323)" stroke-width="1" />
<path d="M 130.50 276.50 C 125.30 279.15, 119.38 280.08, 114.50 283.50 C 108.33 287.03, 100.62 289.47, 99.50 296.50 C 97.63 302.89, 95.57 308.20, 93.50 313.50 C 92.38 317.12, 90.69 319.50, 90.50 322.50 C 89.76 325.46, 85.21 330.22, 89.50 329.50 C 96.52 328.48, 100.97 323.70, 106.50 321.50 C 113.53 318.37, 118.71 314.20, 124.50 311.50 C 128.59 306.17, 126.84 299.42, 129.50 294.50 C 129.33 287.70, 132.68 281.36, 131.50 276.50 Z" fill="rgb(127.0928338762215,181.00895765472313,217.93648208469057)" stroke="rgb(127.0928338762215,181.00895765472313,217.93648208469057)" stroke-width="1" />
<path d="M 414.50 280.50 C 410.07 283.26, 405.20 284.97, 401.50 289.50 C 397.57 294.77, 390.07 299.40, 392.50 304.50 C 397.75 308.42, 401.73 314.40, 406.50 318.50 C 412.43 322.21, 415.48 329.43, 421.50 329.50 C 426.15 329.13, 434.45 331.32, 430.50 325.50 C 427.64 320.19, 426.25 315.27, 424.50 310.50 C 422.92 304.52, 420.08 300.48, 419.50 295.50 C 417.93 289.65, 415.68 285.50, 415.50 280.50 Z" fill="rgb(124.03336510962822,174.8274547187798,219.66253574833175)" stroke="rgb(124.03336510962822,174.8274547187798,219.66253574833175)" stroke-width="1" />
<path d="M 353.50 343.50 C 348.50 345.63, 342.53 345.44, 337.50 347.50 C 333.87 348.25, 331.31 349.18, 328.50 349.50 C 327.85 353.44, 330.82 355.29, 330.50 358.50 C 333.92 363.89, 333.94 372.48, 341.50 370.50 C 347.61 368.49, 353.50 368.35, 359.50 368.50 C 365.72 369.11, 371.96 367.25, 376.50 369.50 C 380.51 369.00, 382.37 371.28, 385.50 370.50 C 388.81 370.92, 394.97 375.33, 390.50 371.50 C 383.64 366.97, 378.08 362.70, 372.50 358.50 C 365.53 353.56, 360.05 348.44, 354.50 343.50 Z" fill="rgb(158.59055118110237,152.96259842519686,203.24311023622047)" stroke="rgb(158.59055118110237,152.96259842519686,203.24311023622047)" stroke-width="1" />
<path d="M 358.50 134.50 C 352.89 134.77, 353.07 139.54, 353.50 144.50 C 353.83 151.13, 358.24 155.08, 361.50 159.50 C 364.67 162.29, 365.01 164.84, 367.50 166.50 C 370.83 164.17, 373.17 161.83, 375.50 159.50 C 381.24 154.67, 385.69 150.15, 390.50 146.50 C 395.72 141.89, 400.28 139.11, 404.50 135.50 C 398.83 135.50, 394.17 135.50, 389.50 135.50 C 378.83 135.50, 369.17 135.50, 359.50 135.50 Z" fill="rgb(108.12633832976445,146.09528907922913,228.90578158458243)" stroke="rgb(108.12633832976445,146.09528907922913,228.90578158458243)" stroke-width="1" />
<path d="M 351.50 369.50 C 348.67 371.38, 344.52 370.07, 341.50 371.50 C 334.64 371.95, 338.87 378.18, 342.50 378.50 C 351.12 378.82, 357.78 381.44, 365.50 381.50 C 374.10 383.18, 381.35 384.73, 388.50 386.50 C 397.29 387.88, 404.87 389.75, 412.50 391.50 C 416.65 392.94, 420.51 392.67, 423.50 394.50 C 430.93 397.92, 427.14 391.45, 422.50 392.50 C 412.80 391.47, 406.55 384.52, 399.50 379.50 C 392.12 373.53, 384.64 371.21, 376.50 370.50 C 368.64 368.21, 360.04 370.13, 352.50 369.50 Z" fill="rgb(108.61060948081264,145.74604966139955,228.16930022573362)" stroke="rgb(108.61060948081264,145.74604966139955,228.16930022573362)" stroke-width="1" />
<path d="M 134.50 477.50 C 131.06 480.43, 129.59 484.18, 129.50 488.50 C 130.07 493.38, 134.51 494.83, 138.50 494.50 C 146.79 496.08, 154.54 496.54, 162.50 496.50 C 171.45 496.14, 178.37 498.27, 186.50 497.50 C 195.93 498.19, 203.36 496.50, 211.50 496.50 C 214.37 494.50, 222.87 496.50, 221.50 494.50 C 216.83 494.50, 213.17 494.50, 209.50 494.50 C 200.42 493.69, 192.41 492.72, 184.50 491.50 C 175.93 489.27, 168.01 487.88, 160.50 485.50 C 151.49 482.85, 143.54 480.07, 135.50 477.50 Z" fill="rgb(251.68278301886792,163.5884433962264,153.68632075471697)" stroke="rgb(251.68278301886792,163.5884433962264,153.68632075471697)" stroke-width="1" />
<path d="M 180.50 317.50 C 179.03 320.76, 184.33 323.04, 181.50 325.50 C 179.24 326.91, 178.02 330.81, 177.50 333.50 C 176.11 341.60, 168.24 346.38, 162.50 349.50 C 155.68 354.27, 149.27 356.62, 143.50 360.50 C 140.49 362.78, 148.23 360.40, 149.50 362.50 C 153.93 361.81, 156.07 364.19, 159.50 363.50 C 167.04 364.54, 172.39 367.43, 178.50 368.50 C 181.35 362.58, 183.29 356.69, 184.50 350.50 C 187.35 343.21, 187.63 337.44, 184.50 331.50 C 178.51 330.54, 182.04 327.44, 179.50 326.50 C 184.61 326.13, 181.07 320.38, 180.50 318.50 Z" fill="rgb(108.57393483709274,145.76817042606515,228.08521303258146)" stroke="rgb(108.57393483709274,145.76817042606515,228.08521303258146)" stroke-width="1" />
<path d="M 430.50 108.50 C 423.89 111.17, 417.04 113.26, 411.50 118.50 C 404.51 121.97, 398.42 134.46, 391.50 126.50 C 384.81 123.60, 377.44 122.51, 371.50 125.50 C 367.26 127.24, 364.13 129.27, 361.50 132.50 C 363.50 133.50, 366.50 133.50, 369.50 133.50 C 383.37 132.85, 397.32 134.82, 409.50 132.50 C 416.94 128.09, 423.08 123.95, 429.50 120.50 C 433.11 117.88, 437.02 118.43, 439.50 115.50 C 438.68 111.23, 434.88 107.73, 431.50 108.50 Z" fill="rgb(248.23659305993692,250.01261829652998,253.77602523659306)" stroke="rgb(248.23659305993692,250.01261829652998,253.77602523659306)" stroke-width="1" />
<path d="M 252.50 351.50 C 247.30 355.16, 241.59 357.59, 236.50 361.50 C 230.80 367.27, 225.69 371.86, 225.50 378.50 C 232.80 382.91, 237.87 374.45, 242.50 370.50 C 245.71 367.25, 246.77 364.53, 249.50 362.50 C 251.83 359.22, 254.96 353.80, 257.50 358.50 C 263.39 364.74, 267.03 370.50, 272.50 375.50 C 276.84 380.54, 286.76 383.37, 284.50 374.50 C 281.29 367.69, 276.09 362.33, 270.50 359.50 C 264.42 355.56, 259.90 351.26, 253.50 351.50 Z" fill="rgb(135.5940054495913,73.27520435967303,96.88555858310627)" stroke="rgb(135.5940054495913,73.27520435967303,96.88555858310627)" stroke-width="1" />
<path d="M 430.50 108.50 C 422.53 110.97, 415.41 115.48, 408.50 120.50 C 404.31 123.62, 400.06 126.84, 398.50 130.50 C 402.07 132.16, 406.10 134.44, 409.50 132.50 C 417.88 127.60, 424.89 122.82, 432.50 119.50 C 435.98 116.75, 441.96 117.90, 441.50 113.50 C 440.25 107.92, 435.60 108.23, 431.50 108.50 Z" fill="rgb(252.610337972167,253.66600397614314,254.26441351888667)" stroke="rgb(252.610337972167,253.66600397614314,254.26441351888667)" stroke-width="1" />
<path d="M 324.50 330.50 C 322.77 336.63, 323.38 343.24, 326.50 348.50 C 333.08 346.82, 339.46 346.06, 345.50 344.50 C 347.49 341.97, 355.21 345.29, 352.50 341.50 C 348.65 337.71, 346.12 334.79, 344.50 331.50 C 337.50 330.50, 331.50 330.50, 325.50 330.50 Z" fill="rgb(108.54098360655738,146.08665105386416,228.72365339578454)" stroke="rgb(108.54098360655738,146.08665105386416,228.72365339578454)" stroke-width="1" />
<path d="M 97.50 366.50 C 92.31 369.19, 86.74 370.95, 81.50 373.50 C 76.69 376.60, 64.68 376.99, 72.50 383.50 C 74.46 387.13, 76.30 389.39, 78.50 391.50 C 81.52 388.84, 82.68 385.83, 85.50 383.50 C 87.87 376.08, 102.46 374.10, 97.50 367.50 Z" fill="rgb(109.31818181818181,145.3801652892562,227.0206611570248)" stroke="rgb(109.31818181818181,145.3801652892562,227.0206611570248)" stroke-width="1" />
<path d="M 329.50 299.50 C 328.31 305.09, 327.69 310.91, 326.50 316.50 C 326.32 322.68, 322.31 332.09, 331.50 329.50 C 335.17 329.50, 337.83 329.50, 340.50 329.50 C 342.21 324.79, 339.02 322.70, 338.50 319.50 C 334.95 312.87, 333.45 306.38, 330.50 300.50 Z" fill="rgb(143.7746031746032,209.64761904761906,208.26984126984127)" stroke="rgb(143.7746031746032,209.64761904761906,208.26984126984127)" stroke-width="1" />
<path d="M 274.50 123.50 C 269.04 126.48, 263.18 128.48, 256.50 128.50 C 250.88 130.88, 240.02 126.02, 241.50 133.50 C 242.69 141.41, 252.81 139.63, 257.50 137.50 C 265.23 135.43, 272.57 130.44, 275.50 123.50 Z" fill="rgb(125.76666666666667,66.39666666666666,81.44333333333333)" stroke="rgb(125.76666666666667,66.39666666666666,81.44333333333333)" stroke-width="1" />
<path d="M 182.50 240.50 C 178.89 247.17, 178.91 255.34, 176.50 262.50 C 177.00 270.79, 173.57 278.57, 176.50 285.50 C 175.85 294.52, 179.12 300.91, 179.50 308.50 C 180.78 317.88, 184.90 324.67, 186.50 332.50 C 187.17 325.34, 182.34 319.45, 182.50 311.50 C 181.82 306.76, 180.31 303.78, 179.50 300.50 C 178.62 295.92, 179.11 291.77, 177.50 288.50 C 178.02 280.24, 176.37 272.09, 178.50 265.50 C 179.10 256.53, 181.83 249.44, 182.50 241.50 Z" fill="rgb(167.78969957081546,146.51931330472104,159.06437768240343)" stroke="rgb(167.78969957081546,146.51931330472104,159.06437768240343)" stroke-width="1" />
<path d="M 55.50 325.50 C 53.96 328.25, 50.22 330.33, 50.50 334.50 C 50.15 339.91, 54.34 342.23, 58.50 341.50 C 63.55 340.31, 64.00 336.40, 63.50 332.50 C 60.74 327.51, 54.45 326.74, 56.50 325.50 Z" fill="rgb(183.9,123.4,132.2)" stroke="rgb(183.9,123.4,132.2)" stroke-width="1" />
<path d="M 54.50 326.50 C 49.42 330.73, 48.56 342.38, 57.50 341.50 C 67.82 339.84, 62.55 327.44, 55.50 326.50 Z" fill="rgb(84.53125,36.96875,60.875)" stroke="rgb(84.53125,36.96875,60.875)" stroke-width="1" />
<path d="M 296.50 410.50 C 291.28 412.59, 285.27 412.74, 279.50 413.50 C 273.24 415.16, 266.95 414.32, 261.50 415.50 C 254.83 415.50, 249.17 415.50, 243.50 415.50 C 240.56 413.41, 237.10 414.99, 234.50 414.50 C 235.91 415.79, 238.58 416.43, 241.50 416.50 C 248.17 416.50, 253.83 416.50, 259.50 416.50 C 263.86 415.53, 265.71 418.60, 265.50 421.50 C 269.06 424.90, 263.10 417.94, 266.50 416.50 C 272.85 415.08, 278.85 415.21, 284.50 414.50 C 287.55 412.36, 291.35 414.42, 293.50 412.50 C 296.44 412.81, 302.27 410.33, 297.50 410.50 Z" fill="rgb(155.8987341772152,88.91772151898734,106.60759493670886)" stroke="rgb(155.8987341772152,88.91772151898734,106.60759493670886)" stroke-width="1" />
<path d="M 401.50 406.50 C 394.55 408.29, 387.50 409.83, 380.50 411.50 C 376.04 413.20, 372.68 414.12, 369.50 415.50 C 367.40 418.32, 374.99 414.18, 377.50 414.50 C 385.75 412.45, 392.29 409.66, 399.50 408.50 C 403.97 408.50, 406.74 406.80, 410.50 407.50 C 412.39 406.50, 404.91 406.50, 402.50 406.50 Z" fill="rgb(152.84761904761905,86.53333333333333,105.08571428571429)" stroke="rgb(152.84761904761905,86.53333333333333,105.08571428571429)" stroke-width="1" />
<path d="M 54.50 328.50 C 48.92 332.48, 49.93 342.63, 58.50 340.50 C 63.44 339.71, 58.31 335.44, 60.50 333.50 C 56.64 332.05, 58.80 330.34, 54.50 329.50 Z" fill="rgb(79.0,31.0,55.0)" stroke="rgb(79.0,31.0,55.0)" stroke-width="1" />
<path d="M 378.50 295.50 C 373.73 297.58, 369.05 299.88, 364.50 302.50 C 361.25 304.23, 359.36 305.84, 357.50 307.50 C 354.23 307.59, 350.59 314.84, 353.50 312.50 C 358.71 308.06, 363.61 305.30, 368.50 302.50 C 372.09 301.12, 373.91 298.88, 376.50 298.50 C 379.69 298.25, 383.79 294.90, 379.50 295.50 Z" fill="rgb(175.34065934065933,153.5934065934066,164.47252747252747)" stroke="rgb(175.34065934065933,153.5934065934066,164.47252747252747)" stroke-width="1" />
<path d="M 96.50 366.50 C 93.80 368.56, 90.45 369.04, 87.50 370.50 C 84.57 371.75, 77.23 375.09, 82.50 373.50 C 86.50 373.50, 89.50 373.50, 92.50 373.50 C 97.54 373.93, 101.68 369.54, 97.50 366.50 Z" fill="rgb(160.67441860465115,153.53488372093022,202.46511627906978)" stroke="rgb(160.67441860465115,153.53488372093022,202.46511627906978)" stroke-width="1" />
<path d="M 476.50 305.50 C 470.18 307.22, 477.05 315.12, 475.50 320.50 C 477.01 318.77, 478.95 316.63, 478.50 313.50 C 478.97 309.76, 482.82 304.94, 477.50 305.50 Z" fill="rgb(124.59756097560975,174.17073170731706,217.21951219512195)" stroke="rgb(124.59756097560975,174.17073170731706,217.21951219512195)" stroke-width="1" />
<path d="M 127.50 309.50 C 124.97 313.68, 135.68 309.81, 137.50 313.50 C 143.09 316.55, 147.55 319.91, 151.50 324.50 C 151.96 320.21, 146.50 317.20, 142.50 314.50 C 137.44 311.50, 133.31 309.69, 128.50 309.50 Z" fill="rgb(171.775,149.625,161.15)" stroke="rgb(171.775,149.625,161.15)" stroke-width="1" />
<path d="M 180.50 314.50 C 181.00 317.51, 178.72 319.37, 179.50 322.50 C 178.92 325.06, 176.73 330.41, 180.50 329.50 C 186.23 330.57, 183.64 327.10, 183.50 324.50 C 182.43 320.58, 181.79 317.91, 180.50 315.50 Z" fill="rgb(127.87878787878788,179.4090909090909,216.46969696969697)" stroke="rgb(127.87878787878788,179.4090909090909,216.46969696969697)" stroke-width="1" />
<path d="M 253.50 76.50 C 255.04 82.58, 263.82 80.93, 267.50 78.50 C 265.56 74.74, 258.48 81.93, 254.50 76.50 Z" fill="rgb(120.52941176470588,62.627450980392155,78.3921568627451)" stroke="rgb(120.52941176470588,62.627450980392155,78.3921568627451)" stroke-width="1" />
<path d="M 54.50 357.50 C 53.28 362.09, 56.76 368.19, 59.50 372.50 C 63.01 372.63, 57.25 369.81, 58.50 367.50 C 56.37 363.89, 56.14 360.90, 54.50 358.50 Z" fill="rgb(162.4102564102564,94.58974358974359,101.97435897435898)" stroke="rgb(162.4102564102564,94.58974358974359,101.97435897435898)" stroke-width="1" />
<path d="M 459.50 386.50 C 456.37 391.25, 452.56 395.72, 449.50 400.50 C 454.94 396.29, 457.70 391.39, 460.50 386.50 Z" fill="rgb(160.92307692307693,93.46153846153847,101.12820512820512)" stroke="rgb(160.92307692307693,93.46153846153847,101.12820512820512)" stroke-width="1" />
</svg>