<svg xmlns="http://www.w3.org/2000/svg" width="512" height="512" viewbox="0 0 512 512">
<path d="M 0.50 0.50 C 0.50 5.17, 0.50 9.83, 0.50 14.50 C 0.50 20.50, 0.50 25.50, 0.50 30.50 C 0.50 36.50, 0.50 41.50, 0.50 46.50 C 0.50 52.50, 0.50 57.50, 0.50 62.50 C 0.50 68.50, 0.50 73.50, 0.50 78.50 C 0.50 84.50, 0.50 89.50, 0.50 94.50 C 0.50 100.50, 0.50 105.50, 0.50 110.50 C 0.50 116.50, 0.50 121.50, 0.50 126.50 C 0.50 132.50, 0.50 137.50, 0.50 142.50 C 0.50 148.50, 0.50 153.50, 0.50 158.50 C 0.50 164.50, 0.50 169.50, 0.50 174.50 C 0.50 180.50, 0.50 185.50, 0.50 190.50 C 0.50 196.50, 0.50 201.50, 0.50 206.50 C 0.50 212.50, 0.50 217.50, 0.50 222.50 C 0.50 228.50, 0.50 233.50, 0.50 238.50 C 0.50 244.50, 0.50 249.50, 0.50 254.50 C 0.50 260.50, 0.50 265.50, 0.50 270.50 C 0.50 276.50, 0.50 281.50, 0.50 286.50 C 0.50 292.50, 0.50 297.50, 0.50 302.50 C 0.50 308.50, 0.50 313.50, 0.50 318.50 C 0.50 324.50, 0.50 329.50, 0.50 334.50 C 0.50 340.50, 0.50 345.50, 0.50 350.50 C 0.50 356.50, 0.50 361.50, 0.50 366.50 C 0.50 372.50, 0.50 377.50, 0.50 382.50 C 0.50 388.50, 0.50 393.50, 0.50 398.50 C 0.50 404.50, 0.50 409.50, 0.50 414.50 C 0.50 420.50, 0.50 425.50, 0.50 430.50 C 0.50 436.50, 0.50 441.50, 0.50 446.50 C 0.50 452.50, 0.50 457.50, 0.50 462.50 C 0.50 468.50, 0.50 473.50, 0.50 478.50 C 0.50 484.50, 0.50 489.50, 0.50 494.50 C 0.50 500.50, 0.50 505.50, 0.50 510.50 C 5.17 511.50, 9.83 511.50, 14.50 511.50 C 20.50 511.50, 25.50 511.50, 30.50 511.50 C 36.50 511.50, 41.50 511.50, 46.50 511.50 C 52.50 511.50, 57.50 511.50, 62.50 511.50 C 68.50 511.50, 73.50 511.50, 78.50 511.50 C 84.50 511.50, 89.50 511.50, 94.50 511.50 C 100.50 511.50, 105.50 511.50, 110.50 511.50 C 116.50 511.50, 121.50 511.50, 126.50 511.50 C 132.50 511.50, 137.50 511.50, 142.50 511.50 C 148.50 511.50, 153.50 511.50, 158.50 511.50 C 169.83 511.50, 180.17 511.50, 190.50 511.50 C 201.83 511.50, 212.17 511.50, 222.50 511.50 C 228.50 511.50, 233.50 511.50, 238.50 511.50 C 244.50 511.50, 249.50 511.50, 254.50 511.50 C 260.50 511.50, 265.50 511.50, 270.50 511.50 C 276.50 511.50, 281.50 511.50, 286.50 511.50 C 292.50 511.50, 297.50 511.50, 302.50 511.50 C 308.50 511.50, 313.50 511.50, 318.50 511.50 C 324.50 511.50, 329.50 511.50, 334.50 511.50 C 340.50 511.50, 345.50 511.50, 350.50 511.50 C 356.50 511.50, 361.50 511.50, 366.50 511.50 C 372.50 511.50, 377.50 511.50, 382.50 511.50 C 388.50 511.50, 393.50 511.50, 398.50 511.50 C 404.50 511.50, 409.50 511.50, 414.50 511.50 C 420.50 511.50, 425.50 511.50, 430.50 511.50 C 436.50 511.50, 441.50 511.50, 446.50 511.50 C 452.50 511.50, 457.50 511.50, 462.50 511.50 C 468.50 511.50, 473.50 511.50, 478.50 511.50 C 484.50 511.50, 489.50 511.50, 494.50 511.50 C 500.50 511.50, 505.50 511.50, 510.50 511.50 C 511.50 506.83, 511.50 502.17, 511.50 497.50 C 511.50 491.50, 511.50 486.50, 511.50 481.50 C 511.50 475.50, 511.50 470.50, 511.50 465.50 C 511.50 459.50, 511.50 454.50, 511.50 449.50 C 511.50 443.50, 511.50 438.50, 511.50 433.50 C 511.50 427.50, 511.50 422.50, 511.50 417.50 C 511.50 411.50, 511.50 406.50, 511.50 401.50 C 511.50 395.50, 511.50 390.50, 511.50 385.50 C 511.50 379.50, 511.50 374.50, 511.50 369.50 C 511.50 363.50, 511.50 358.50, 511.50 353.50 C 511.50 347.50, 511.50 342.50, 511.50 337.50 C 511.50 331.50, 511.50 326.50, 511.50 321.50 C 511.50 299.50, 511.50 278.50, 511.50 257.50 C 511.50 171.50, 511.50 86.50, 511.50 1.50 C 426.83 0.50, 342.17 0.50, 257.50 0.50 C 251.50 0.50, 246.50 0.50, 241.50 0.50 C 235.50 0.50, 230.50 0.50, 225.50 0.50 C 219.50 0.50, 214.50 0.50, 209.50 0.50 C 203.50 0.50, 198.50 0.50, 193.50 0.50 C 187.50 0.50, 182.50 0.50, 177.50 0.50 C 171.50 0.50, 166.50 0.50, 161.50 0.50 C 155.50 0.50, 150.50 0.50, 145.50 0.50 C 139.50 0.50, 134.50 0.50, 129.50 0.50 C 123.50 0.50, 118.50 0.50, 113.50 0.50 C 107.50 0.50, 102.50 0.50, 97.50 0.50 C 91.50 0.50, 86.50 0.50, 81.50 0.50 C 75.50 0.50, 70.50 0.50, 65.50 0.50 C 59.50 0.50, 54.50 0.50, 49.50 0.50 C 43.50 0.50, 38.50 0.50, 33.50 0.50 C 27.50 0.50, 22.50 0.50, 17.50 0.50 C 11.50 0.50, 6.50 0.50, 1.50 0.50 Z" fill="rgb(10.111654126242954,10.111654126242954,10.111654126242954)" stroke="rgb(10.111654126242954,10.111654126242954,10.111654126242954)" stroke-width="1" />
<path d="M 252.50 0.50 C 249.11 2.17, 245.22 2.62, 241.50 3.50 C 236.03 3.90, 232.93 6.61, 229.50 8.50 C 224.81 10.44, 221.22 12.63, 217.50 14.50 C 212.86 17.70, 208.47 18.10, 204.50 19.50 C 199.98 20.86, 196.18 21.53, 192.50 22.50 C 188.22 24.76, 183.93 24.61, 180.50 26.50 C 176.31 29.31, 171.69 28.69, 168.50 31.50 C 163.57 33.33, 159.40 34.60, 155.50 36.50 C 147.00 41.23, 139.28 45.45, 131.50 49.50 C 126.62 52.32, 123.52 56.01, 119.50 57.50 C 115.01 61.93, 110.13 64.18, 107.50 67.50 C 103.60 71.59, 98.75 72.99, 96.50 76.50 C 91.96 79.85, 89.24 84.17, 85.50 86.50 C 81.30 89.91, 80.59 94.54, 76.50 96.50 C 72.53 101.24, 69.96 105.55, 66.50 109.50 C 63.24 114.34, 60.91 118.14, 57.50 121.50 C 55.15 126.16, 53.08 129.93, 50.50 133.50 C 48.97 138.64, 45.75 141.66, 44.50 145.50 C 41.27 150.26, 40.28 154.55, 38.50 158.50 C 36.93 163.48, 33.83 166.42, 33.50 170.50 C 32.52 176.06, 30.11 179.62, 28.50 183.50 C 28.99 188.78, 25.33 191.35, 25.50 195.50 C 24.02 200.17, 23.99 204.43, 23.50 208.50 C 22.99 213.65, 20.73 216.65, 20.50 220.50 C 21.28 225.63, 19.15 228.55, 19.50 232.50 C 20.11 237.56, 18.73 240.79, 18.50 244.50 C 18.50 249.50, 18.50 253.50, 18.50 257.50 C 17.81 262.59, 20.19 265.41, 19.50 269.50 C 20.43 274.68, 19.24 277.97, 20.50 282.50 C 19.72 287.63, 21.85 290.55, 21.50 294.50 C 23.09 299.26, 24.09 303.26, 24.50 307.50 C 24.82 312.45, 25.69 316.17, 27.50 319.50 C 29.29 323.99, 28.72 328.20, 28.50 331.50 C 30.95 343.04, 25.01 349.05, 16.50 352.50 C 1.73 366.53, 14.68 390.78, 30.50 395.50 C 37.25 402.63, 46.81 398.23, 54.50 398.50 C 66.14 393.02, 61.58 409.22, 62.50 415.50 C 63.62 419.98, 63.97 423.78, 64.50 427.50 C 66.74 432.12, 66.70 436.69, 68.50 440.50 C 70.93 445.54, 73.77 449.00, 76.50 452.50 C 80.73 456.63, 83.23 459.59, 86.50 463.50 C 94.45 470.57, 102.77 474.32, 110.50 479.50 C 115.24 481.71, 117.35 484.75, 116.50 489.50 C 116.03 495.52, 119.45 498.93, 122.50 502.50 C 126.96 505.34, 130.32 507.41, 134.50 507.50 C 139.36 508.49, 143.12 509.75, 147.50 509.50 C 152.86 508.49, 155.14 512.51, 159.50 511.50 C 164.50 511.50, 168.50 511.50, 172.50 511.50 C 181.17 511.50, 188.83 511.50, 196.50 511.50 C 201.17 511.50, 204.83 511.50, 208.50 511.50 C 213.82 511.61, 216.73 508.31, 221.50 509.50 C 225.90 507.53, 229.60 507.27, 233.50 507.50 C 238.69 507.63, 242.83 507.64, 246.50 506.50 C 251.07 507.06, 255.60 505.32, 258.50 507.50 C 262.22 506.96, 267.51 507.87, 271.50 507.50 C 276.40 507.27, 280.10 507.53, 283.50 508.50 C 288.00 506.78, 292.33 510.41, 295.50 508.50 C 299.60 510.20, 303.79 509.28, 307.50 509.50 C 313.18 508.65, 316.04 508.69, 320.50 508.50 C 325.21 508.72, 329.40 507.80, 332.50 509.50 C 337.27 507.49, 341.41 510.88, 345.50 508.50 C 350.17 508.50, 353.83 508.50, 357.50 508.50 C 362.52 507.22, 367.10 508.28, 370.50 506.50 C 379.37 505.98, 386.72 504.22, 394.50 503.50 C 398.76 501.51, 403.41 502.90, 406.50 500.50 C 411.39 499.23, 416.12 500.00, 419.50 497.50 C 423.73 494.77, 428.43 495.62, 431.50 492.50 C 436.58 490.36, 440.67 488.24, 444.50 485.50 C 449.46 482.21, 453.04 479.01, 456.50 475.50 C 460.17 470.36, 464.02 466.71, 466.50 462.50 C 469.53 458.26, 470.82 454.30, 472.50 450.50 C 474.46 445.82, 475.71 442.25, 476.50 438.50 C 477.96 433.89, 476.23 428.95, 480.50 426.50 C 486.11 426.32, 490.08 424.58, 493.50 421.50 C 495.00 416.49, 498.08 413.13, 500.50 409.50 C 502.76 405.29, 503.31 400.14, 501.50 396.50 C 499.62 391.37, 496.13 387.90, 492.50 384.50 C 487.87 380.17, 490.82 375.43, 491.50 371.50 C 492.71 361.64, 489.11 354.78, 486.50 347.50 C 485.40 342.52, 485.22 338.50, 487.50 335.50 C 488.23 330.25, 490.57 326.67, 491.50 322.50 C 492.80 317.96, 493.20 314.04, 494.50 310.50 C 496.16 305.77, 495.16 300.94, 497.50 297.50 C 497.43 292.53, 498.58 289.06, 499.50 285.50 C 500.07 280.60, 498.30 275.73, 500.50 272.50 C 500.50 263.83, 500.50 256.17, 500.50 248.50 C 500.50 243.83, 500.50 240.17, 500.50 236.50 C 498.72 232.10, 499.78 227.52, 499.50 223.50 C 498.60 218.51, 497.95 214.84, 496.50 211.50 C 496.12 206.38, 495.18 202.50, 494.50 198.50 C 492.69 194.17, 491.82 190.45, 491.50 186.50 C 489.89 181.62, 487.48 178.06, 487.50 173.50 C 485.84 168.56, 483.54 165.29, 482.50 161.50 C 480.01 157.17, 479.18 153.16, 477.50 149.50 C 476.28 144.23, 471.83 141.72, 471.50 137.50 C 468.22 132.48, 465.64 128.58, 463.50 124.50 C 461.09 119.45, 457.60 116.26, 455.50 112.50 C 450.72 107.82, 448.30 103.58, 445.50 99.50 C 441.60 95.85, 439.25 91.66, 435.50 89.50 C 431.50 84.50, 427.50 80.50, 423.50 76.50 C 414.82 43.41, 394.77 2.53, 352.50 16.50 C 343.63 18.49, 336.81 28.77, 328.50 22.50 C 323.82 21.53, 320.02 20.86, 316.50 19.50 C 311.40 18.07, 306.86 17.71, 303.50 14.50 C 298.93 12.26, 295.67 9.28, 291.50 8.50 C 286.42 6.35, 282.53 4.77, 278.50 3.50 C 273.94 2.58, 270.47 1.43, 266.50 1.50 C 261.31 1.63, 257.17 1.64, 253.50 0.50 Z" fill="rgb(240.29543957853144,240.57577378992426,244.15286466908134)" stroke="rgb(240.29543957853144,240.57577378992426,244.15286466908134)" stroke-width="1" />
<path d="M 194.50 340.50 C 189.07 340.85, 188.48 344.12, 186.50 348.50 C 185.57 354.00, 184.22 358.33, 182.50 362.50 C 183.07 370.01, 176.68 371.23, 172.50 368.50 C 167.02 367.86, 162.98 366.14, 158.50 365.50 C 153.15 365.01, 149.46 363.94, 145.50 363.50 C 140.63 362.43, 136.13 363.76, 131.50 362.50 C 126.92 363.39, 122.32 364.06, 117.50 364.50 C 112.61 367.57, 107.55 367.83, 103.50 370.50 C 98.15 373.65, 94.22 376.82, 90.50 380.50 C 86.30 385.22, 82.80 388.78, 80.50 393.50 C 77.85 398.29, 78.53 403.46, 76.50 407.50 C 76.08 413.15, 76.87 417.29, 77.50 421.50 C 78.61 426.87, 80.71 430.41, 81.50 434.50 C 84.65 439.68, 87.77 444.94, 91.50 447.50 C 96.29 453.48, 101.26 455.61, 105.50 459.50 C 111.14 462.08, 114.57 466.60, 119.50 467.50 C 124.50 470.51, 128.65 472.13, 132.50 474.50 C 138.28 475.75, 141.72 479.25, 146.50 479.50 C 151.63 481.67, 156.26 482.61, 160.50 484.50 C 166.13 484.78, 169.76 487.47, 174.50 487.50 C 178.94 489.84, 183.77 488.84, 187.50 490.50 C 192.19 492.72, 197.70 490.56, 201.50 492.50 C 206.84 492.82, 211.79 491.65, 215.50 493.50 C 221.13 492.35, 224.50 493.44, 229.50 492.50 C 234.40 491.93, 239.27 493.70, 242.50 491.50 C 247.83 491.50, 252.17 491.50, 256.50 491.50 C 263.35 488.78, 263.84 492.76, 269.50 493.50 C 275.29 492.72, 278.86 494.92, 283.50 494.50 C 288.85 493.15, 293.03 497.02, 296.50 494.50 C 302.13 496.23, 305.76 494.04, 310.50 495.50 C 315.37 494.43, 319.87 495.76, 324.50 494.50 C 329.83 494.50, 334.17 494.50, 338.50 494.50 C 343.70 494.66, 347.05 492.76, 351.50 493.50 C 357.26 494.19, 360.74 491.81, 365.50 492.50 C 370.71 491.87, 374.85 491.08, 379.50 491.50 C 385.26 491.19, 388.74 488.81, 393.50 489.50 C 398.86 488.38, 402.57 486.67, 406.50 485.50 C 411.60 483.61, 416.52 483.69, 420.50 481.50 C 426.49 480.09, 430.20 476.59, 434.50 474.50 C 440.55 470.99, 443.06 465.38, 447.50 462.50 C 449.27 457.13, 455.75 454.71, 455.50 449.50 C 458.10 444.14, 460.18 439.98, 461.50 435.50 C 461.65 429.83, 461.85 425.14, 459.50 421.50 C 457.11 416.43, 455.30 410.60, 450.50 408.50 C 446.62 404.84, 442.61 403.03, 438.50 401.50 C 432.33 401.18, 429.67 395.82, 424.50 396.50 C 419.44 394.51, 414.60 394.39, 410.50 392.50 C 404.87 392.21, 400.37 391.61, 396.50 389.50 C 391.76 388.19, 387.45 388.30, 383.50 387.50 C 378.36 386.04, 374.01 385.06, 369.50 384.50 C 364.27 383.25, 359.32 383.73, 355.50 381.50 C 350.32 380.47, 345.50 380.97, 341.50 379.50 C 336.08 377.85, 335.33 372.20, 333.50 368.50 C 330.53 363.57, 329.39 358.88, 327.50 354.50 C 324.14 349.59, 324.30 344.23, 320.50 340.50 C 315.17 340.50, 310.83 340.50, 306.50 340.50 C 301.50 340.50, 297.50 340.50, 293.50 340.50 C 288.17 340.50, 283.83 340.50, 279.50 340.50 C 274.17 340.50, 269.83 340.50, 265.50 340.50 C 260.17 340.50, 255.83 340.50, 251.50 340.50 C 246.17 340.50, 241.83 340.50, 237.50 340.50 C 232.17 340.50, 227.83 340.50, 223.50 340.50 C 218.17 340.50, 213.83 340.50, 209.50 340.50 C 204.14 339.19, 200.22 341.92, 195.50 340.50 Z" fill="rgb(117.72174911491723,59.56836666347718,88.36558702516506)" stroke="rgb(117.72174911491723,59.56836666347718,88.36558702516506)" stroke-width="1" />
<path d="M 284.50 140.50 C 279.62 143.12, 274.79 145.87, 269.50 147.50 C 264.29 149.74, 258.39 147.90, 253.50 148.50 C 247.12 148.71, 241.93 139.44, 237.50 146.50 C 233.85 151.23, 227.35 152.72, 222.50 154.50 C 216.59 157.04, 211.52 159.21, 206.50 161.50 C 200.22 164.82, 195.67 168.92, 190.50 171.50 C 184.60 177.08, 179.03 180.03, 174.50 185.50 C 167.72 191.51, 163.94 197.35, 158.50 202.50 C 155.55 208.66, 152.26 213.26, 150.50 218.50 C 148.34 224.43, 146.73 229.60, 144.50 234.50 C 143.11 240.48, 141.01 245.16, 140.50 250.50 C 139.13 257.09, 136.08 261.58, 136.50 267.50 C 135.59 273.81, 133.41 278.19, 133.50 283.50 C 131.75 289.33, 131.54 294.79, 129.50 299.50 C 131.79 314.25, 118.25 317.95, 108.50 322.50 C 75.38 324.64, 86.29 368.72, 110.50 364.50 C 133.78 360.11, 158.80 355.48, 173.50 337.50 C 176.67 326.86, 175.42 311.23, 181.50 307.50 C 184.24 317.35, 185.35 331.69, 191.50 339.50 C 197.50 339.50, 202.50 339.50, 207.50 339.50 C 213.50 339.50, 218.50 339.50, 223.50 339.50 C 230.22 338.80, 234.67 340.21, 239.50 338.50 C 245.61 340.51, 250.63 337.56, 256.50 338.50 C 262.50 338.50, 267.50 338.50, 272.50 338.50 C 278.50 338.50, 283.50 338.50, 288.50 338.50 C 294.50 338.50, 299.50 338.50, 304.50 338.50 C 310.35 337.52, 317.88 340.67, 320.50 336.50 C 320.42 330.54, 322.16 325.68, 322.50 320.50 C 323.34 314.49, 323.94 309.97, 325.50 304.50 C 326.66 298.70, 327.53 293.79, 327.50 288.50 C 329.69 293.03, 331.14 298.45, 333.50 303.50 C 337.22 308.93, 337.48 314.78, 340.50 319.50 C 343.92 325.60, 345.39 331.10, 349.50 335.50 C 352.09 339.63, 358.71 342.34, 360.50 346.50 C 367.16 350.72, 371.84 356.28, 377.50 359.50 C 382.18 364.72, 389.07 366.04, 392.50 369.50 C 396.61 373.79, 402.19 375.15, 405.50 379.50 C 411.01 383.70, 417.88 383.41, 421.50 377.50 C 427.93 372.06, 433.28 367.45, 438.50 362.50 C 443.35 356.75, 439.36 347.70, 433.50 352.50 C 430.20 349.52, 434.13 346.85, 431.50 344.50 C 428.78 341.62, 424.86 345.67, 424.50 341.50 C 422.56 335.06, 416.79 331.65, 413.50 327.50 C 407.63 321.42, 401.79 316.88, 397.50 312.50 C 391.59 306.27, 387.73 302.41, 382.50 297.50 C 379.16 291.92, 379.49 286.23, 377.50 281.50 C 375.43 275.81, 375.30 270.31, 373.50 265.50 C 372.37 259.22, 371.02 254.03, 370.50 248.50 C 368.57 242.89, 368.41 237.54, 367.50 232.50 C 366.54 226.48, 365.46 221.52, 364.50 216.50 C 363.49 209.95, 361.16 205.36, 359.50 200.50 C 355.59 194.41, 354.24 188.25, 349.50 183.50 C 345.42 176.73, 339.22 173.55, 334.50 169.50 C 328.95 165.74, 323.61 163.89, 318.50 161.50 C 312.06 158.89, 307.84 154.35, 302.50 152.50 C 296.08 148.04, 291.11 143.50, 285.50 140.50 Z" fill="rgb(254.70661077382672,254.59089814011756,254.6243133853715)" stroke="rgb(254.70661077382672,254.59089814011756,254.6243133853715)" stroke-width="1" />
<path d="M 281.50 0.50 C 285.79 2.56, 291.55 5.90, 295.50 5.50 C 299.84 10.44, 305.62 12.30, 310.50 15.50 C 316.06 17.08, 321.83 15.77, 325.50 19.50 C 331.76 19.39, 337.43 24.29, 341.50 18.50 C 346.29 14.38, 351.99 14.88, 356.50 12.50 C 361.83 10.55, 367.52 11.89, 372.50 11.50 C 377.17 12.21, 382.97 13.80, 387.50 15.50 C 393.55 18.18, 398.62 22.04, 402.50 25.50 C 407.68 30.82, 410.67 35.63, 413.50 40.50 C 415.94 46.04, 417.38 51.00, 417.50 56.50 C 417.95 61.89, 417.59 68.10, 420.50 70.50 C 424.40 75.50, 429.68 79.12, 433.50 82.50 C 437.84 88.38, 441.13 90.71, 444.50 95.50 C 450.12 101.24, 453.84 106.36, 457.50 111.50 C 461.43 117.67, 465.18 122.50, 468.50 127.50 C 471.76 133.39, 474.04 138.69, 477.50 143.50 C 480.16 149.03, 481.49 154.11, 484.50 158.50 C 486.91 164.33, 488.09 169.67, 490.50 174.50 C 491.64 180.25, 494.33 184.35, 494.50 189.50 C 495.94 195.73, 497.87 200.35, 498.50 205.50 C 500.53 210.74, 500.21 215.95, 501.50 220.50 C 502.99 226.02, 502.42 231.40, 502.50 236.50 C 503.50 242.17, 503.50 246.83, 503.50 251.50 C 503.50 257.50, 503.50 262.50, 503.50 267.50 C 502.74 272.68, 502.25 277.02, 502.50 282.50 C 500.43 288.06, 501.89 294.07, 499.50 298.50 C 498.58 305.64, 500.76 305.85, 503.50 305.50 C 502.31 303.17, 505.86 290.19, 507.50 300.50 C 507.50 304.88, 507.50 313.43, 507.50 313.50 C 511.97 317.83, 511.61 305.87, 511.50 302.50 C 511.50 296.50, 511.50 291.50, 511.50 286.50 C 511.50 280.50, 511.50 275.50, 511.50 270.50 C 511.50 264.83, 511.50 260.17, 511.50 255.50 C 511.50 249.50, 511.50 244.50, 511.50 239.50 C 511.50 233.83, 511.50 229.17, 511.50 224.50 C 511.50 218.50, 511.50 213.50, 511.50 208.50 C 511.50 202.83, 511.50 198.17, 511.50 193.50 C 511.50 187.50, 511.50 182.50, 511.50 177.50 C 511.50 171.83, 511.50 167.17, 511.50 162.50 C 511.50 156.50, 511.50 151.50, 511.50 146.50 C 511.50 140.83, 511.50 136.17, 511.50 131.50 C 511.50 125.50, 511.50 120.50, 511.50 115.50 C 511.50 109.83, 511.50 105.17, 511.50 100.50 C 511.50 94.50, 511.50 89.50, 511.50 84.50 C 511.50 78.83, 511.50 74.17, 511.50 69.50 C 511.50 63.50, 511.50 58.50, 511.50 53.50 C 511.50 47.50, 511.50 42.50, 511.50 37.50 C 511.50 31.50, 511.50 26.50, 511.50 21.50 C 511.50 15.83, 511.50 11.17, 511.50 6.50 C 513.76 -1.76, 506.05 0.95, 501.50 0.50 C 495.83 0.50, 491.17 0.50, 486.50 0.50 C 480.50 0.50, 475.50 0.50, 470.50 0.50 C 464.83 0.50, 460.17 0.50, 455.50 0.50 C 449.50 0.50, 444.50 0.50, 439.50 0.50 C 433.50 0.50, 428.50 0.50, 423.50 0.50 C 417.50 0.50, 412.50 0.50, 407.50 0.50 C 401.83 0.50, 397.17 0.50, 392.50 0.50 C 386.50 0.50, 381.50 0.50, 376.50 0.50 C 370.83 0.50, 366.17 0.50, 361.50 0.50 C 355.50 0.50, 350.50 0.50, 345.50 0.50 C 339.83 0.50, 335.17 0.50, 330.50 0.50 C 324.50 0.50, 319.50 0.50, 314.50 0.50 C 308.50 0.50, 303.50 0.50, 298.50 0.50 C 292.50 0.50, 287.50 0.50, 282.50 0.50 Z" fill="rgb(0.0,0.0,0.0)" stroke="rgb(0.0,0.0,0.0)" stroke-width="1" />
<path d="M 439.50 118.50 C 433.66 120.75, 427.76 122.84, 422.50 126.50 C 415.13 130.27, 409.27 134.28, 403.50 138.50 C 397.83 143.14, 391.75 146.39, 386.50 151.50 C 380.27 157.93, 372.12 162.33, 369.50 169.50 C 372.60 175.43, 374.03 181.06, 373.50 187.50 C 372.68 195.40, 370.35 201.68, 364.50 206.50 C 365.51 213.30, 367.16 218.84, 368.50 224.50 C 369.56 231.48, 370.07 237.68, 371.50 243.50 C 371.87 250.43, 374.59 255.38, 374.50 261.50 C 375.92 268.88, 377.89 274.62, 379.50 280.50 C 382.14 287.04, 381.35 294.00, 386.50 298.50 C 393.95 302.32, 396.14 290.89, 402.50 287.50 C 408.54 281.19, 415.28 281.05, 416.50 273.50 C 424.61 268.77, 428.81 280.83, 435.50 281.50 C 444.17 287.10, 438.76 273.01, 437.50 269.50 C 436.58 262.61, 435.39 256.82, 435.50 250.50 C 432.89 244.24, 436.68 238.12, 436.50 232.50 C 437.03 229.05, 441.33 223.74, 443.50 226.50 C 447.80 229.10, 448.58 232.75, 451.50 235.50 C 455.05 241.80, 456.77 247.86, 459.50 253.50 C 463.23 259.92, 463.22 266.89, 466.50 272.50 C 467.56 279.28, 469.96 284.50, 470.50 290.50 C 471.94 297.01, 471.57 306.41, 479.50 304.50 C 480.91 298.26, 483.86 293.06, 483.50 286.50 C 484.12 279.21, 486.28 273.96, 485.50 267.50 C 487.52 261.53, 486.06 255.12, 486.50 249.50 C 486.15 242.51, 484.94 236.87, 485.50 230.50 C 485.05 223.33, 482.91 218.27, 482.50 212.50 C 481.23 205.47, 479.29 199.73, 478.50 193.50 C 477.00 186.35, 473.97 181.25, 472.50 175.50 C 469.33 168.71, 467.26 162.46, 464.50 156.50 C 461.32 149.16, 457.28 143.59, 454.50 137.50 C 449.73 130.27, 446.29 123.90, 440.50 118.50 Z" fill="rgb(143.99109593626565,210.9801834371025,207.99933052152375)" stroke="rgb(143.99109593626565,210.9801834371025,207.99933052152375)" stroke-width="1" />
<path d="M 249.50 15.50 C 245.27 17.07, 240.64 17.71, 236.50 19.50 C 230.74 21.80, 226.92 25.37, 222.50 27.50 C 217.62 32.75, 212.38 36.43, 210.50 41.50 C 206.62 46.94, 204.76 51.80, 202.50 56.50 C 201.28 61.74, 199.31 65.67, 199.50 70.50 C 199.18 76.25, 197.54 80.04, 197.50 84.50 C 197.38 90.20, 197.03 94.80, 194.50 98.50 C 191.15 103.74, 186.75 107.93, 181.50 109.50 C 175.76 112.52, 171.62 115.99, 167.50 119.50 C 162.96 124.33, 160.81 128.74, 159.50 133.50 C 157.28 138.05, 159.08 143.27, 158.50 147.50 C 159.57 153.14, 160.10 158.00, 161.50 162.50 C 161.41 168.07, 162.20 173.01, 159.50 176.50 C 158.01 182.52, 154.40 186.65, 152.50 191.50 C 150.93 196.87, 148.81 200.61, 149.50 205.50 C 148.70 215.54, 153.55 210.78, 155.50 205.50 C 159.67 200.92, 162.35 195.11, 166.50 192.50 C 170.04 186.99, 174.85 183.09, 178.50 180.50 C 183.67 175.51, 186.88 172.92, 191.50 169.50 C 197.41 166.43, 201.55 162.48, 206.50 160.50 C 212.02 157.95, 216.18 155.53, 220.50 153.50 C 226.24 152.49, 230.36 149.96, 234.50 147.50 C 238.27 142.62, 242.08 139.18, 240.50 133.50 C 241.30 126.48, 232.54 128.87, 229.50 125.50 C 219.17 117.43, 216.26 107.71, 214.50 97.50 C 212.30 87.94, 214.07 77.74, 213.50 68.50 C 212.14 55.91, 219.67 46.95, 228.50 40.50 C 233.72 37.23, 238.22 35.63, 242.50 33.50 C 248.74 27.21, 251.84 33.14, 252.50 38.50 C 254.27 49.74, 260.66 59.12, 269.50 65.50 C 273.71 69.58, 280.76 68.75, 281.50 74.50 C 283.19 83.62, 289.20 73.04, 293.50 71.50 C 306.96 75.80, 300.11 75.58, 305.50 85.50 C 305.20 91.58, 299.46 95.92, 295.50 98.50 C 289.13 100.00, 289.94 105.84, 288.50 110.50 C 286.65 115.21, 287.82 120.16, 287.50 124.50 C 286.50 129.83, 286.50 134.17, 286.50 138.50 C 291.88 142.38, 295.74 146.53, 300.50 148.50 C 305.86 152.90, 310.52 155.59, 315.50 157.50 C 320.74 160.73, 324.69 163.66, 329.50 164.50 C 335.34 168.74, 340.36 171.56, 344.50 176.50 C 349.51 181.55, 353.75 185.51, 355.50 190.50 C 359.55 194.83, 359.75 204.16, 364.50 203.50 C 368.47 199.57, 370.27 195.15, 371.50 190.50 C 371.41 184.93, 372.20 179.99, 369.50 176.50 C 367.39 171.08, 366.82 166.01, 362.50 162.50 C 358.43 156.86, 353.88 152.84, 352.50 147.50 C 349.94 142.38, 352.75 137.93, 352.50 133.50 C 353.64 128.03, 354.35 123.38, 354.50 118.50 C 353.71 112.45, 349.83 108.18, 346.50 105.50 C 340.92 100.96, 336.16 97.84, 331.50 94.50 C 325.97 89.66, 323.05 85.16, 320.50 80.50 C 319.28 75.26, 317.31 71.33, 317.50 66.50 C 316.44 60.91, 315.12 56.85, 314.50 52.50 C 313.33 46.07, 309.70 42.08, 307.50 37.50 C 302.62 32.14, 299.17 28.97, 294.50 25.50 C 289.35 21.93, 284.44 20.16, 279.50 18.50 C 274.63 16.39, 270.13 15.79, 265.50 15.50 C 259.83 15.50, 255.17 15.50, 250.50 15.50 Z" fill="rgb(254.63206692227257,126.28246775880098,104.57769257581039)" stroke="rgb(254.63206692227257,126.28246775880098,104.57769257581039)" stroke-width="1" />
<path d="M 106.50 144.50 C 101.45 146.04, 96.00 146.62, 91.50 149.50 C 85.29 152.33, 80.16 155.35, 75.50 159.50 C 69.18 163.14, 66.11 168.80, 61.50 171.50 C 56.78 177.75, 51.69 182.44, 47.50 187.50 C 42.70 193.17, 39.15 197.94, 37.50 203.50 C 36.76 209.61, 35.58 214.53, 34.50 219.50 C 33.44 225.34, 34.24 230.94, 32.50 235.50 C 32.50 241.50, 32.50 246.50, 32.50 251.50 C 31.95 255.64, 33.61 267.35, 34.50 262.50 C 36.79 256.34, 39.05 251.59, 40.50 246.50 C 44.44 240.75, 45.80 234.93, 50.50 230.50 C 53.28 226.89, 60.46 217.81, 63.50 225.50 C 65.44 231.25, 65.75 236.26, 65.50 241.50 C 64.52 247.37, 64.03 252.44, 63.50 257.50 C 62.76 263.47, 62.24 268.53, 61.50 273.50 C 60.54 279.52, 59.46 284.48, 58.50 289.50 C 58.85 294.38, 53.11 303.36, 60.50 302.50 C 68.90 304.33, 70.56 295.98, 75.50 292.50 C 80.40 286.92, 84.76 281.05, 90.50 278.50 C 98.13 277.25, 100.24 285.54, 102.50 288.50 C 108.43 285.66, 112.93 281.78, 118.50 280.50 C 123.19 276.28, 131.77 278.30, 132.50 272.50 C 134.50 266.77, 135.28 261.55, 136.50 256.50 C 137.46 250.35, 140.16 245.91, 140.50 240.50 C 142.67 234.29, 144.34 229.30, 146.50 224.50 C 149.79 219.28, 148.23 213.36, 147.50 208.50 C 147.15 202.08, 147.72 197.04, 149.50 192.50 C 152.18 186.23, 155.48 181.63, 157.50 176.50 C 159.18 170.45, 161.59 163.81, 155.50 160.50 C 149.66 156.11, 144.62 153.22, 139.50 150.50 C 134.00 147.62, 128.72 146.63, 123.50 145.50 C 118.17 143.55, 112.48 144.89, 107.50 144.50 Z" fill="rgb(143.9854482866531,210.96878422782038,207.99679236426223)" stroke="rgb(143.9854482866531,210.96878422782038,207.99679236426223)" stroke-width="1" />
<path d="M 247.50 31.50 C 241.87 35.40, 235.27 36.94, 229.50 40.50 C 221.73 45.47, 216.92 52.75, 214.50 59.50 C 214.21 66.67, 212.23 74.80, 214.50 79.50 C 214.24 87.08, 214.58 93.41, 215.50 99.50 C 217.27 106.73, 219.58 112.74, 222.50 118.50 C 227.92 126.49, 237.07 125.88, 241.50 130.50 C 240.00 139.01, 242.77 145.83, 250.50 146.50 C 257.07 148.23, 265.48 148.37, 270.50 145.50 C 276.52 142.87, 286.34 141.40, 285.50 133.50 C 285.58 126.06, 287.17 120.25, 286.50 113.50 C 287.49 105.40, 289.23 98.22, 296.50 96.50 C 304.37 93.13, 305.18 85.84, 304.50 78.50 C 301.68 68.23, 290.20 71.68, 286.50 78.50 C 281.96 84.41, 281.37 76.66, 280.50 74.50 C 279.55 70.45, 275.10 69.91, 272.50 68.50 C 264.66 64.01, 258.80 57.15, 255.50 50.50 C 251.15 44.52, 252.68 35.58, 248.50 31.50 Z" fill="rgb(251.49767814251402,161.83682946357087,151.39631705364292)" stroke="rgb(251.49767814251402,161.83682946357087,151.39631705364292)" stroke-width="1" />
<path d="M 441.50 227.50 C 429.66 249.81, 442.39 276.68, 447.50 298.50 C 442.55 303.77, 432.09 276.73, 420.50 273.50 C 411.56 283.22, 423.31 297.51, 424.50 308.50 C 429.86 321.43, 435.01 333.04, 440.50 344.50 C 454.02 360.49, 437.77 363.57, 427.50 374.50 C 406.82 384.55, 433.30 396.13, 442.50 400.50 C 453.58 408.08, 473.53 426.08, 459.50 403.50 C 464.94 405.83, 492.13 420.48, 473.50 402.50 C 466.87 393.18, 503.16 409.72, 477.50 391.50 C 453.66 382.34, 477.46 380.41, 476.50 364.50 C 474.74 351.96, 470.39 363.79, 468.50 368.50 C 461.60 375.28, 452.35 367.36, 459.50 361.50 C 459.18 351.65, 476.53 359.19, 470.50 351.50 C 461.49 350.58, 471.59 341.05, 471.50 336.50 C 479.01 324.46, 472.02 311.86, 471.50 299.50 C 465.14 273.36, 459.21 246.96, 442.50 227.50 Z" fill="rgb(128.4561403508772,91.6140350877193,109.59649122807018)" stroke="rgb(128.4561403508772,91.6140350877193,109.59649122807018)" stroke-width="1" />
<path d="M 58.50 224.50 C 41.17 240.25, 33.32 264.47, 34.50 287.50 C 36.19 299.10, 38.63 309.39, 41.50 319.50 C 47.26 330.25, 35.85 344.57, 50.50 351.50 C 9.12 365.48, 37.69 392.00, 72.50 375.50 C 115.92 371.45, 70.99 344.69, 87.50 325.50 C 101.50 308.45, 104.29 258.71, 75.50 293.50 C 65.15 301.37, 63.83 318.79, 52.50 320.50 C 51.73 310.73, 55.52 298.92, 57.50 288.50 C 58.19 267.82, 69.89 241.38, 59.50 224.50 Z" fill="rgb(135.8095238095238,136.0,165.8095238095238)" stroke="rgb(135.8095238095238,136.0,165.8095238095238)" stroke-width="1" />
<path d="M 304.50 31.50 C 320.00 47.12, 314.84 71.29, 326.50 88.50 C 335.75 97.69, 348.25 101.61, 353.50 112.50 C 357.85 123.26, 352.60 132.43, 353.50 142.50 C 354.02 151.32, 364.15 170.31, 372.50 162.50 C 382.53 154.17, 389.02 145.66, 399.50 139.50 C 408.54 130.49, 385.30 136.69, 380.50 134.50 C 373.06 136.62, 350.54 135.42, 367.50 126.50 C 376.93 121.94, 389.59 122.14, 396.50 128.50 C 406.12 120.44, 414.93 112.86, 425.50 109.50 C 438.45 105.56, 416.52 90.86, 411.50 85.50 C 399.69 67.13, 394.92 87.46, 383.50 92.50 C 363.03 103.17, 335.68 89.51, 333.50 67.50 C 329.05 56.24, 340.31 45.33, 335.50 39.50 C 325.11 36.18, 315.33 33.78, 305.50 31.50 Z" fill="rgb(126.9920634920635,155.74603174603175,224.47619047619048)" stroke="rgb(126.9920634920635,155.74603174603175,224.47619047619048)" stroke-width="1" />
<path d="M 305.50 32.50 C 307.89 36.95, 311.50 40.89, 313.50 45.50 C 315.83 50.75, 316.95 55.51, 317.50 60.50 C 318.14 65.98, 319.86 70.02, 320.50 74.50 C 322.50 79.95, 323.91 85.62, 327.50 88.50 C 331.02 93.58, 336.84 95.81, 340.50 99.50 C 346.16 103.09, 351.70 107.24, 353.50 112.50 C 357.81 122.78, 353.01 132.03, 353.50 141.50 C 353.80 150.76, 363.08 167.99, 371.50 163.50 C 380.79 153.29, 391.59 146.28, 399.50 138.50 C 394.39 133.76, 382.77 136.29, 373.50 135.50 C 355.39 139.51, 361.71 125.05, 373.50 123.50 C 378.34 120.88, 383.43 123.41, 387.50 123.50 C 391.74 125.39, 399.96 131.28, 400.50 123.50 C 400.88 118.99, 410.89 121.40, 412.50 115.50 C 417.58 111.74, 422.49 110.01, 427.50 108.50 C 435.04 105.87, 423.99 99.88, 423.50 96.50 C 418.36 91.95, 415.08 88.89, 410.50 84.50 C 405.85 80.74, 400.57 72.64, 397.50 79.50 C 393.52 84.96, 388.58 90.74, 383.50 92.50 C 378.74 95.90, 373.89 95.63, 369.50 96.50 C 363.38 97.26, 359.55 94.91, 354.50 95.50 C 348.91 91.45, 344.45 88.09, 340.50 83.50 C 336.61 78.20, 333.52 73.99, 333.50 68.50 C 333.08 63.27, 331.28 58.05, 333.50 54.50 C 332.82 48.49, 339.97 43.46, 335.50 39.50 C 330.08 38.39, 325.92 36.61, 321.50 35.50 C 316.30 33.36, 311.70 32.21, 306.50 32.50 Z" fill="rgb(108.37738383024443,146.0996508192318,228.76470588235293)" stroke="rgb(108.37738383024443,146.0996508192318,228.76470588235293)" stroke-width="1" />
<path d="M 84.50 109.50 C 71.90 122.62, 64.38 137.84, 55.50 152.50 C 49.88 164.42, 42.42 187.74, 42.50 189.50 C 65.16 167.51, 86.84 137.10, 123.50 143.50 C 136.73 140.43, 161.25 170.88, 157.50 151.50 C 150.70 134.36, 168.24 116.08, 174.50 110.50 C 166.98 111.00, 159.60 110.41, 152.50 110.50 C 144.38 110.29, 135.79 111.16, 130.50 109.50 C 123.31 108.22, 115.38 110.13, 108.50 109.50 C 100.17 109.50, 92.83 109.50, 85.50 109.50 Z" fill="rgb(109.22560975609755,146.73170731707316,228.7439024390244)" stroke="rgb(109.22560975609755,146.73170731707316,228.7439024390244)" stroke-width="1" />
<path d="M 440.50 227.50 C 437.73 233.57, 435.83 240.00, 436.50 247.50 C 436.94 255.40, 437.95 262.06, 439.50 268.50 C 441.24 276.14, 442.92 282.80, 444.50 289.50 C 448.79 299.92, 446.90 305.55, 440.50 294.50 C 434.38 287.40, 430.25 278.94, 422.50 274.50 C 412.75 272.43, 417.52 284.89, 418.50 289.50 C 422.89 304.89, 429.26 318.46, 434.50 332.50 C 438.29 340.26, 440.92 347.07, 444.50 353.50 C 449.47 362.45, 453.92 345.68, 462.50 349.50 C 467.61 350.14, 467.18 344.86, 468.50 342.50 C 470.17 337.89, 471.63 334.61, 473.50 331.50 C 477.47 324.20, 473.14 317.63, 473.50 310.50 C 472.31 302.36, 470.34 295.96, 468.50 289.50 C 467.39 281.60, 464.72 275.35, 463.50 268.50 C 461.10 260.45, 458.01 254.09, 455.50 247.50 C 451.72 239.84, 448.86 230.33, 441.50 227.50 Z" fill="rgb(79.87581699346406,33.44444444444444,57.415758896151054)" stroke="rgb(79.87581699346406,33.44444444444444,57.415758896151054)" stroke-width="1" />
<path d="M 98.50 109.50 C 95.58 112.51, 93.02 112.19, 89.50 110.50 C 83.80 109.21, 81.57 113.87, 78.50 116.50 C 73.62 124.36, 68.28 130.60, 64.50 137.50 C 59.65 144.68, 56.64 151.61, 53.50 158.50 C 50.26 166.68, 46.61 173.27, 44.50 180.50 C 42.73 184.04, 42.24 187.12, 42.50 190.50 C 45.87 187.56, 47.46 184.73, 50.50 182.50 C 56.51 174.59, 62.52 168.72, 68.50 163.50 C 75.85 157.06, 82.17 151.56, 89.50 148.50 C 97.35 145.81, 103.55 142.55, 111.50 143.50 C 119.65 143.33, 126.70 143.41, 132.50 146.50 C 140.81 148.63, 147.12 153.14, 153.50 157.50 C 157.55 161.98, 159.46 158.13, 158.50 154.50 C 158.27 149.71, 155.96 147.19, 156.50 143.50 C 156.31 134.46, 159.35 127.75, 163.50 121.50 C 168.01 118.37, 168.99 113.66, 172.50 112.50 C 169.51 108.47, 165.65 113.60, 162.50 110.50 C 158.35 113.60, 154.49 108.47, 151.50 111.50 C 146.91 109.82, 144.43 111.69, 140.50 111.50 C 136.90 111.92, 133.10 111.92, 130.50 110.50 C 126.45 114.36, 122.58 109.28, 119.50 112.50 C 115.51 110.71, 112.34 113.42, 108.50 112.50 C 102.00 113.69, 103.38 108.52, 99.50 109.50 Z" fill="rgb(108.09528463229904,146.1478133398485,228.9411189836306)" stroke="rgb(108.09528463229904,146.1478133398485,228.9411189836306)" stroke-width="1" />
<path d="M 53.50 320.50 C 75.59 353.09, 43.40 319.15, 40.50 342.50 C 33.29 343.19, 27.50 344.90, 22.50 348.50 C 15.98 352.57, 8.54 356.80, 8.50 364.50 C 8.46 371.87, 13.63 376.09, 13.50 382.50 C 15.86 392.21, 25.91 390.10, 30.50 395.50 C 35.84 400.71, 42.51 399.29, 48.50 399.50 C 54.72 396.95, 63.87 397.32, 63.50 389.50 C 60.96 383.22, 50.93 383.94, 62.50 380.50 C 69.59 377.38, 75.21 374.14, 81.50 372.50 C 112.12 363.06, 70.92 325.70, 54.50 321.50 Z" fill="rgb(254.84710234278668,253.2157829839704,253.0672009864365)" stroke="rgb(254.84710234278668,253.2157829839704,253.0672009864365)" stroke-width="1" />
<path d="M 210.50 31.50 C 184.73 38.36, 159.67 46.94, 137.50 62.50 C 124.04 71.05, 111.66 79.82, 100.50 91.50 C 90.83 108.90, 119.84 100.88, 125.50 89.50 C 155.16 59.89, 173.89 116.87, 190.50 102.50 C 198.79 91.55, 195.32 77.15, 198.50 65.50 C 197.71 52.61, 218.01 35.98, 211.50 31.50 Z" fill="rgb(143.72727272727272,170.8181818181818,233.4181818181818)" stroke="rgb(143.72727272727272,170.8181818181818,233.4181818181818)" stroke-width="1" />
<path d="M 212.50 31.50 C 207.09 33.44, 201.20 34.24, 195.50 35.50 C 188.24 37.86, 182.38 40.20, 176.50 42.50 C 169.88 45.28, 163.96 47.34, 158.50 50.50 C 151.48 53.78, 145.54 57.26, 139.50 60.50 C 132.63 65.00, 126.77 68.54, 121.50 73.50 C 114.52 78.88, 108.11 83.24, 102.50 89.50 C 99.58 91.67, 97.00 95.15, 95.50 97.50 C 99.03 99.17, 101.68 100.54, 104.50 101.50 C 107.97 105.65, 111.91 100.78, 112.50 98.50 C 116.80 96.21, 119.31 93.03, 122.50 91.50 C 128.72 86.76, 134.57 84.53, 140.50 82.50 C 147.77 81.37, 153.69 82.18, 159.50 84.50 C 166.39 87.85, 172.37 93.42, 175.50 99.50 C 176.07 103.62, 179.44 105.17, 178.50 108.50 C 183.14 108.71, 185.35 105.48, 188.50 104.50 C 194.75 99.04, 195.25 92.61, 196.50 86.50 C 196.00 79.02, 197.44 73.34, 198.50 67.50 C 199.48 60.08, 202.51 54.51, 204.50 48.50 C 207.67 45.04, 207.70 41.70, 210.50 39.50 C 212.15 36.91, 218.33 31.29, 213.50 31.50 Z" fill="rgb(108.30742887249737,146.16280295047417,228.97839831401475)" stroke="rgb(108.30742887249737,146.16280295047417,228.97839831401475)" stroke-width="1" />
<path d="M 363.50 27.50 C 360.05 29.37, 355.50 28.55, 352.50 31.50 C 347.56 33.85, 343.83 36.70, 340.50 40.50 C 337.18 44.62, 336.58 48.87, 334.50 52.50 C 334.27 57.21, 332.89 60.44, 333.50 64.50 C 335.37 68.95, 334.55 73.50, 337.50 76.50 C 339.85 81.44, 342.70 85.17, 346.50 88.50 C 350.62 91.82, 354.87 92.42, 358.50 94.50 C 363.45 94.15, 366.37 96.28, 370.50 95.50 C 375.73 94.86, 379.35 93.75, 382.50 91.50 C 387.44 89.15, 391.17 86.30, 394.50 82.50 C 397.12 78.23, 399.53 74.87, 399.50 70.50 C 400.15 65.55, 402.28 62.63, 401.50 58.50 C 399.63 54.05, 400.45 49.50, 397.50 46.50 C 395.15 41.56, 392.30 37.83, 388.50 34.50 C 384.38 31.18, 380.13 30.58, 376.50 28.50 C 371.79 28.27, 368.56 26.89, 364.50 27.50 Z" fill="rgb(254.6908943528776,203.96973790867332,122.46609024587949)" stroke="rgb(254.6908943528776,203.96973790867332,122.46609024587949)" stroke-width="1" />
<path d="M 133.50 310.50 C 128.70 311.85, 123.45 312.10, 119.50 315.50 C 113.35 318.81, 108.58 322.02, 103.50 324.50 C 97.06 327.11, 92.84 331.65, 87.50 333.50 C 78.15 336.35, 86.37 343.04, 87.50 347.50 C 91.79 353.38, 93.81 358.79, 97.50 363.50 C 100.42 371.92, 106.88 366.35, 111.50 364.50 C 116.95 362.18, 121.95 361.16, 127.50 361.50 C 132.92 359.11, 139.53 361.98, 143.50 358.50 C 149.79 355.88, 154.26 352.26, 159.50 350.50 C 165.33 346.40, 171.22 343.08, 174.50 338.50 C 176.58 332.95, 176.96 327.69, 177.50 322.50 C 178.73 311.46, 177.02 319.59, 171.50 320.50 C 166.13 319.25, 160.51 321.96, 155.50 319.50 C 149.75 321.64, 140.89 308.61, 146.50 316.50 C 153.16 318.92, 154.64 330.56, 148.50 321.50 C 142.88 316.57, 137.92 313.47, 132.50 311.50 Z" fill="rgb(254.79558011049724,254.8322186682175,254.90084326839198)" stroke="rgb(254.79558011049724,254.8322186682175,254.90084326839198)" stroke-width="1" />
<path d="M 370.50 399.50 C 366.34 401.93, 361.43 402.54, 357.50 405.50 C 351.80 407.76, 346.94 409.62, 342.50 412.50 C 337.26 414.73, 333.31 417.66, 328.50 418.50 C 323.02 421.28, 318.86 423.84, 313.50 423.50 C 308.04 423.46, 304.25 421.82, 299.50 422.50 C 293.00 422.16, 288.42 424.03, 284.50 427.50 C 281.94 432.46, 282.19 437.18, 281.50 441.50 C 281.19 447.45, 280.34 452.18, 278.50 456.50 C 274.84 463.79, 281.89 463.29, 285.50 460.50 C 291.31 459.18, 295.75 456.97, 300.50 455.50 C 305.69 453.15, 310.18 451.53, 314.50 449.50 C 319.93 446.26, 325.35 445.41, 329.50 441.50 C 334.84 439.19, 339.03 436.50, 343.50 434.50 C 349.27 430.75, 353.66 427.09, 358.50 424.50 C 363.38 419.25, 368.62 415.57, 370.50 410.50 C 375.31 406.89, 379.78 397.82, 371.50 399.50 Z" fill="rgb(251.84229828850854,162.5762021189894,152.49388753056235)" stroke="rgb(251.84229828850854,162.5762021189894,152.49388753056235)" stroke-width="1" />
<path d="M 325.50 330.50 C 325.02 348.58, 330.95 377.90, 351.50 379.50 C 372.21 383.40, 392.21 386.59, 411.50 391.50 C 427.25 397.89, 430.43 391.39, 414.50 386.50 C 403.26 381.55, 393.98 374.28, 384.50 367.50 C 361.51 357.78, 351.95 327.60, 326.50 330.50 Z" fill="rgb(151.89361702127658,149.9787234042553,203.5531914893617)" stroke="rgb(151.89361702127658,149.9787234042553,203.5531914893617)" stroke-width="1" />
<path d="M 51.50 320.50 C 48.64 328.18, 62.68 324.90, 63.50 332.50 C 66.63 341.39, 56.43 345.08, 51.50 340.50 C 49.76 336.86, 47.73 334.76, 48.50 331.50 C 49.94 325.44, 45.64 325.74, 43.50 329.50 C 40.06 336.25, 41.58 343.88, 46.50 348.50 C 50.56 350.50, 53.33 352.77, 48.50 354.50 C 44.63 355.82, 41.09 355.50, 38.50 357.50 C 35.10 359.14, 32.11 359.37, 29.50 360.50 C 25.96 361.32, 19.49 367.00, 25.50 366.50 C 33.01 367.99, 38.83 362.72, 44.50 365.50 C 38.08 368.97, 27.32 372.65, 27.50 378.50 C 35.09 378.26, 40.80 375.88, 46.50 373.50 C 50.07 370.07, 55.04 374.94, 49.50 375.50 C 46.42 379.60, 41.31 381.45, 41.50 385.50 C 49.17 385.46, 54.42 381.97, 60.50 380.50 C 67.15 376.99, 73.85 376.01, 79.50 372.50 C 84.79 369.44, 96.44 368.96, 95.50 363.50 C 91.30 356.72, 88.59 350.32, 84.50 344.50 C 82.34 335.94, 72.35 338.65, 70.50 330.50 C 68.12 321.51, 58.55 321.89, 52.50 320.50 Z" fill="rgb(254.0052242054854,165.7797126686983,155.2080975185024)" stroke="rgb(254.0052242054854,165.7797126686983,155.2080975185024)" stroke-width="1" />
<path d="M 457.50 350.50 C 451.09 352.29, 449.35 362.44, 441.50 361.50 C 434.55 366.83, 429.39 373.05, 423.50 377.50 C 412.36 383.87, 423.22 389.52, 428.50 392.50 C 434.46 398.54, 441.10 399.52, 446.50 403.50 C 453.64 406.68, 457.40 415.62, 464.50 416.50 C 467.11 410.06, 454.86 404.09, 458.50 400.50 C 465.25 404.62, 470.13 409.87, 476.50 411.50 C 481.30 415.36, 482.55 410.76, 479.50 408.50 C 476.31 404.05, 473.41 402.70, 470.50 399.50 C 465.97 391.71, 478.52 401.59, 482.50 401.50 C 494.32 403.84, 482.26 394.40, 478.50 392.50 C 474.51 387.74, 460.79 384.94, 465.50 380.50 C 473.03 378.73, 476.64 372.88, 477.50 366.50 C 476.06 363.56, 477.16 358.97, 474.50 358.50 C 470.88 359.49, 471.28 362.74, 470.50 365.50 C 467.21 374.00, 456.65 372.03, 454.50 365.50 C 456.24 358.31, 462.93 354.49, 469.50 355.50 C 476.78 350.03, 462.84 350.01, 458.50 350.50 Z" fill="rgb(253.9702568724651,165.82244254168543,155.26002703920685)" stroke="rgb(253.9702568724651,165.82244254168543,155.26002703920685)" stroke-width="1" />
<path d="M 57.50 224.50 C 42.32 238.86, 37.86 257.66, 33.50 276.50 C 35.91 293.36, 36.83 317.90, 46.50 325.50 C 55.27 310.22, 56.13 290.58, 59.50 273.50 C 60.34 258.59, 69.95 232.94, 58.50 224.50 Z" fill="rgb(99.86666666666666,86.93333333333334,103.4)" stroke="rgb(99.86666666666666,86.93333333333334,103.4)" stroke-width="1" />
<path d="M 58.50 224.50 C 53.96 226.77, 51.36 231.63, 48.50 235.50 C 45.24 240.39, 43.27 244.41, 41.50 248.50 C 39.67 253.30, 38.33 257.29, 37.50 261.50 C 35.91 266.26, 34.91 270.26, 34.50 274.50 C 32.19 279.24, 34.30 283.55, 34.50 287.50 C 34.27 292.87, 37.07 295.99, 36.50 300.50 C 38.09 305.26, 39.09 309.26, 39.50 313.50 C 41.64 317.88, 41.81 326.45, 45.50 325.50 C 49.61 324.89, 51.14 319.15, 51.50 315.50 C 53.08 310.74, 53.44 306.48, 54.50 302.50 C 55.18 297.50, 56.12 293.62, 56.50 289.50 C 57.10 283.72, 58.99 279.90, 59.50 275.50 C 60.30 270.55, 60.19 266.24, 61.50 262.50 C 61.99 257.43, 62.02 253.17, 63.50 249.50 C 63.50 244.50, 63.50 240.50, 63.50 236.50 C 63.22 231.60, 64.98 224.36, 59.50 224.50 Z" fill="rgb(79.46477445514445,32.094272681196145,55.955397871262036)" stroke="rgb(79.46477445514445,32.094272681196145,55.955397871262036)" stroke-width="1" />
<path d="M 358.50 13.50 C 354.48 15.93, 349.32 15.59, 345.50 18.50 C 340.72 21.79, 335.58 22.79, 338.50 28.50 C 339.59 34.80, 341.86 39.66, 346.50 32.50 C 351.60 29.95, 355.89 27.83, 360.50 26.50 C 365.83 26.50, 370.17 26.50, 374.50 26.50 C 380.45 28.01, 384.49 30.71, 388.50 33.50 C 393.54 38.54, 398.00 42.41, 399.50 47.50 C 402.16 52.48, 402.49 57.42, 402.50 62.50 C 403.52 67.18, 397.49 74.42, 403.50 74.50 C 407.12 69.71, 414.13 71.57, 416.50 68.50 C 415.92 63.27, 417.72 58.05, 415.50 54.50 C 415.57 48.59, 413.78 44.44, 411.50 40.50 C 409.24 34.86, 405.59 30.80, 402.50 26.50 C 397.67 22.29, 393.41 19.10, 388.50 17.50 C 383.50 15.37, 379.01 14.40, 374.50 13.50 C 368.83 13.50, 364.17 13.50, 359.50 13.50 Z" fill="rgb(255.0,254.86383787207092,254.64154528182394)" stroke="rgb(255.0,254.86383787207092,254.64154528182394)" stroke-width="1" />
<path d="M 418.50 273.50 C 415.88 275.98, 415.97 280.51, 417.50 283.50 C 418.58 287.80, 419.20 291.29, 420.50 294.50 C 423.59 302.32, 425.00 309.85, 428.50 316.50 C 429.26 321.07, 432.00 323.82, 432.50 327.50 C 434.99 331.82, 435.48 336.07, 439.50 337.50 C 440.41 341.60, 439.81 345.73, 442.50 348.50 C 442.73 351.94, 448.88 359.57, 445.50 353.50 C 448.10 350.53, 451.42 347.04, 450.50 344.50 C 444.51 343.19, 450.45 338.28, 450.50 335.50 C 450.18 327.49, 451.34 319.87, 449.50 313.50 C 449.35 304.04, 442.86 298.21, 438.50 291.50 C 435.70 288.18, 431.36 285.11, 430.50 281.50 C 425.15 279.13, 424.55 272.98, 419.50 273.50 Z" fill="rgb(79.24963503649634,31.796350364963505,55.910218978102186)" stroke="rgb(79.24963503649634,31.796350364963505,55.910218978102186)" stroke-width="1" />
<path d="M 140.50 83.50 C 134.69 85.81, 128.90 88.19, 123.50 91.50 C 118.55 96.94, 107.40 100.82, 109.50 107.50 C 115.82 108.68, 121.65 108.61, 127.50 108.50 C 134.17 108.50, 139.83 108.50, 145.50 108.50 C 152.17 108.50, 157.83 108.50, 163.50 108.50 C 167.71 107.20, 169.56 108.94, 172.50 107.50 C 178.21 108.23, 175.72 103.82, 175.50 101.50 C 172.17 94.38, 166.50 89.08, 160.50 86.50 C 154.23 83.08, 147.83 83.36, 141.50 83.50 Z" fill="rgb(253.0431818181818,253.5530303030303,254.6560606060606)" stroke="rgb(253.0431818181818,253.5530303030303,254.6560606060606)" stroke-width="1" />
<path d="M 92.50 279.50 C 81.02 284.89, 72.45 297.48, 65.50 307.50 C 49.86 321.49, 71.26 322.65, 74.50 335.50 C 89.75 331.57, 106.29 293.67, 93.50 280.50 Z" fill="rgb(134.25,95.41666666666667,110.91666666666667)" stroke="rgb(134.25,95.41666666666667,110.91666666666667)" stroke-width="1" />
<path d="M 92.50 279.50 C 86.51 281.11, 82.28 286.97, 77.50 291.50 C 73.15 297.63, 68.44 302.20, 65.50 307.50 C 63.83 311.96, 54.06 320.43, 61.50 320.50 C 69.20 323.07, 71.46 330.56, 74.50 335.50 C 81.26 339.28, 85.32 332.03, 86.50 327.50 C 88.92 320.93, 91.43 315.80, 93.50 310.50 C 95.66 304.70, 97.33 299.71, 98.50 294.50 C 99.77 288.19, 99.92 280.40, 93.50 280.50 Z" fill="rgb(79.47166921898928,32.199846860643184,56.13782542113323)" stroke="rgb(79.47166921898928,32.199846860643184,56.13782542113323)" stroke-width="1" />
<path d="M 130.50 276.50 C 125.30 279.15, 119.38 280.08, 114.50 283.50 C 108.33 287.03, 100.62 289.47, 99.50 296.50 C 97.63 302.89, 95.57 308.20, 93.50 313.50 C 92.54 318.89, 85.49 327.71, 89.50 329.50 C 96.52 328.48, 100.97 323.70, 106.50 321.50 C 113.53 318.37, 118.71 314.20, 124.50 311.50 C 128.59 306.17, 126.84 299.42, 129.50 294.50 C 129.33 287.70, 132.68 281.36, 131.50 276.50 Z" fill="rgb(127.0928338762215,181.00895765472313,217.93648208469057)" stroke="rgb(127.0928338762215,181.00895765472313,217.93648208469057)" stroke-width="1" />
<path d="M 414.50 280.50 C 410.07 283.26, 405.20 284.97, 401.50 289.50 C 397.57 294.77, 390.07 299.40, 392.50 304.50 C 397.75 308.42, 401.73 314.40, 406.50 318.50 C 412.43 322.21, 415.48 329.43, 421.50 329.50 C 426.15 329.13, 434.45 331.32, 430.50 325.50 C 427.64 320.19, 426.25 315.27, 424.50 310.50 C 422.92 304.52, 420.08 300.48, 419.50 295.50 C 417.93 289.65, 415.68 285.50, 415.50 280.50 Z" fill="rgb(124.03336510962822,174.8274547187798,219.66253574833175)" stroke="rgb(124.03336510962822,174.8274547187798,219.66253574833175)" stroke-width="1" />
<path d="M 353.50 343.50 C 348.50 345.63, 342.53 345.44, 337.50 347.50 C 333.87 348.25, 331.31 349.18, 328.50 349.50 C 327.85 353.44, 330.82 355.29, 330.50 358.50 C 333.92 363.89, 333.94 372.48, 341.50 370.50 C 347.61 368.49, 353.50 368.35, 359.50 368.50 C 365.72 369.11, 371.96 367.25, 376.50 369.50 C 381.59 368.65, 394.35 374.97, 390.50 371.50 C 383.64 366.97, 378.08 362.70, 372.50 358.50 C 365.53 353.56, 360.05 348.44, 354.50 343.50 Z" fill="rgb(158.59055118110237,152.96259842519686,203.24311023622047)" stroke="rgb(158.59055118110237,152.96259842519686,203.24311023622047)" stroke-width="1" />
<path d="M 358.50 134.50 C 352.89 134.77, 353.07 139.54, 353.50 144.50 C 353.83 151.13, 358.24 155.08, 361.50 159.50 C 365.79 168.67, 371.30 165.63, 375.50 159.50 C 381.24 154.67, 385.69 150.15, 390.50 146.50 C 395.72 141.89, 400.28 139.11, 404.50 135.50 C 398.83 135.50, 394.17 135.50, 389.50 135.50 C 383.83 135.50, 379.17 135.50, 374.50 135.50 C 368.83 135.50, 364.17 135.50, 359.50 135.50 Z" fill="rgb(108.12633832976445,146.09528907922913,228.90578158458243)" stroke="rgb(108.12633832976445,146.09528907922913,228.90578158458243)" stroke-width="1" />
<path d="M 351.50 369.50 C 348.67 371.38, 344.52 370.07, 341.50 371.50 C 334.64 371.95, 338.87 378.18, 342.50 378.50 C 351.12 378.82, 357.78 381.44, 365.50 381.50 C 374.10 383.18, 381.35 384.73, 388.50 386.50 C 393.27 386.92, 396.59 388.42, 400.50 388.50 C 404.89 390.17, 408.78 390.62, 412.50 391.50 C 416.65 392.94, 420.51 392.67, 423.50 394.50 C 430.93 397.92, 427.14 391.45, 422.50 392.50 C 417.79 392.08, 414.54 390.54, 411.50 388.50 C 406.14 386.51, 403.59 381.14, 399.50 379.50 C 392.12 373.53, 384.64 371.21, 376.50 370.50 C 372.60 368.32, 368.07 370.06, 364.50 369.50 C 359.83 369.50, 356.17 369.50, 352.50 369.50 Z" fill="rgb(108.61060948081264,145.74604966139955,228.16930022573362)" stroke="rgb(108.61060948081264,145.74604966139955,228.16930022573362)" stroke-width="1" />
<path d="M 134.50 477.50 C 131.06 480.43, 129.59 484.18, 129.50 488.50 C 130.07 493.38, 134.51 494.83, 138.50 494.50 C 142.40 496.68, 146.93 494.94, 150.50 495.50 C 155.17 496.50, 158.83 496.50, 162.50 496.50 C 167.21 496.72, 171.40 495.80, 174.50 497.50 C 179.17 497.50, 182.83 497.50, 186.50 497.50 C 191.17 497.50, 194.83 497.50, 198.50 497.50 C 203.46 497.06, 207.15 495.99, 211.50 496.50 C 214.37 494.50, 222.87 496.50, 221.50 494.50 C 216.83 494.50, 213.17 494.50, 209.50 494.50 C 204.55 494.85, 201.63 492.72, 197.50 493.50 C 192.76 492.19, 188.45 492.30, 184.50 491.50 C 180.28 489.43, 175.72 490.57, 172.50 488.50 C 167.96 487.20, 164.04 486.80, 160.50 485.50 C 156.07 483.61, 151.78 483.76, 148.50 481.50 C 143.33 480.57, 139.75 478.23, 135.50 477.50 Z" fill="rgb(251.68278301886792,163.5884433962264,153.68632075471697)" stroke="rgb(251.68278301886792,163.5884433962264,153.68632075471697)" stroke-width="1" />
<path d="M 180.50 317.50 C 184.10 325.05, 178.47 325.97, 177.50 333.50 C 176.11 341.60, 168.24 346.38, 162.50 349.50 C 155.68 354.27, 149.27 356.62, 143.50 360.50 C 143.89 362.29, 154.40 362.64, 159.50 363.50 C 167.04 364.54, 172.39 367.43, 178.50 368.50 C 181.35 362.58, 183.29 356.69, 184.50 350.50 C 185.05 346.37, 186.99 344.23, 187.50 341.50 C 185.51 337.91, 186.49 334.09, 184.50 331.50 C 174.51 328.39, 186.04 325.98, 180.50 318.50 Z" fill="rgb(108.57393483709274,145.76817042606515,228.08521303258146)" stroke="rgb(108.57393483709274,145.76817042606515,228.08521303258146)" stroke-width="1" />
<path d="M 430.50 108.50 C 423.89 111.17, 417.04 113.26, 411.50 118.50 C 404.51 121.97, 398.42 134.46, 391.50 126.50 C 384.81 123.60, 377.44 122.51, 371.50 125.50 C 363.25 128.79, 356.97 135.97, 369.50 133.50 C 376.83 133.50, 383.17 133.50, 389.50 133.50 C 396.71 132.88, 403.97 134.77, 409.50 132.50 C 417.55 124.15, 451.04 117.41, 431.50 108.50 Z" fill="rgb(248.23659305993692,250.01261829652998,253.77602523659306)" stroke="rgb(248.23659305993692,250.01261829652998,253.77602523659306)" stroke-width="1" />
<path d="M 252.50 351.50 C 247.30 355.16, 241.59 357.59, 236.50 361.50 C 230.80 367.27, 225.69 371.86, 225.50 378.50 C 232.80 382.91, 237.87 374.45, 242.50 370.50 C 247.98 366.50, 251.92 353.69, 257.50 358.50 C 263.39 364.74, 267.03 370.50, 272.50 375.50 C 276.84 380.54, 286.76 383.37, 284.50 374.50 C 281.29 367.69, 276.09 362.33, 270.50 359.50 C 264.42 355.56, 259.90 351.26, 253.50 351.50 Z" fill="rgb(135.5940054495913,73.27520435967303,96.88555858310627)" stroke="rgb(135.5940054495913,73.27520435967303,96.88555858310627)" stroke-width="1" />
<path d="M 430.50 108.50 C 427.14 109.78, 423.75 110.97, 420.50 112.50 C 415.75 115.64, 411.97 117.70, 408.50 120.50 C 404.31 123.62, 400.06 126.84, 398.50 130.50 C 402.07 132.16, 406.10 134.44, 409.50 132.50 C 417.88 127.60, 424.89 122.82, 432.50 119.50 C 435.98 116.75, 441.96 117.90, 441.50 113.50 C 440.25 107.92, 435.60 108.23, 431.50 108.50 Z" fill="rgb(252.610337972167,253.66600397614314,254.26441351888667)" stroke="rgb(252.610337972167,253.66600397614314,254.26441351888667)" stroke-width="1" />
<path d="M 324.50 330.50 C 322.77 336.63, 323.38 343.24, 326.50 348.50 C 333.08 346.82, 339.46 346.06, 345.50 344.50 C 347.49 341.97, 355.21 345.29, 352.50 341.50 C 348.65 337.71, 346.12 334.79, 344.50 331.50 C 337.50 330.50, 331.50 330.50, 325.50 330.50 Z" fill="rgb(108.54098360655738,146.08665105386416,228.72365339578454)" stroke="rgb(108.54098360655738,146.08665105386416,228.72365339578454)" stroke-width="1" />
<path d="M 97.50 366.50 C 92.31 369.19, 86.74 370.95, 81.50 373.50 C 76.69 376.60, 64.68 376.99, 72.50 383.50 C 74.46 387.13, 76.30 389.39, 78.50 391.50 C 81.52 388.84, 82.68 385.83, 85.50 383.50 C 87.87 376.08, 102.46 374.10, 97.50 367.50 Z" fill="rgb(109.31818181818181,145.3801652892562,227.0206611570248)" stroke="rgb(109.31818181818181,145.3801652892562,227.0206611570248)" stroke-width="1" />
<path d="M 329.50 299.50 C 328.31 305.09, 327.69 310.91, 326.50 316.50 C 326.32 322.68, 322.31 332.09, 331.50 329.50 C 335.17 329.50, 337.83 329.50, 340.50 329.50 C 342.21 324.79, 339.02 322.70, 338.50 319.50 C 334.95 312.87, 333.45 306.38, 330.50 300.50 Z" fill="rgb(143.7746031746032,209.64761904761906,208.26984126984127)" stroke="rgb(143.7746031746032,209.64761904761906,208.26984126984127)" stroke-width="1" />
<path d="M 274.50 123.50 C 269.04 126.48, 263.18 128.48, 256.50 128.50 C 250.88 130.88, 240.02 126.02, 241.50 133.50 C 242.69 141.41, 252.81 139.63, 257.50 137.50 C 265.23 135.43, 272.57 130.44, 275.50 123.50 Z" fill="rgb(125.76666666666667,66.39666666666666,81.44333333333333)" stroke="rgb(125.76666666666667,66.39666666666666,81.44333333333333)" stroke-width="1" />
<path d="M 182.50 240.50 C 181.01 243.63, 179.51 246.76, 179.50 250.50 C 177.10 254.59, 178.49 259.24, 176.50 262.50 C 176.84 267.11, 176.28 270.35, 175.50 273.50 C 176.06 278.07, 174.32 282.60, 176.50 285.50 C 175.85 294.52, 179.12 300.91, 179.50 308.50 C 180.78 317.88, 184.90 324.67, 186.50 332.50 C 187.17 325.34, 182.34 319.45, 182.50 311.50 C 181.82 306.76, 180.31 303.78, 179.50 300.50 C 178.62 295.92, 179.11 291.77, 177.50 288.50 C 178.02 280.24, 176.37 272.09, 178.50 265.50 C 179.03 260.78, 179.38 256.98, 180.50 253.50 C 180.73 248.65, 182.99 245.65, 182.50 241.50 Z" fill="rgb(167.78969957081546,146.51931330472104,159.06437768240343)" stroke="rgb(167.78969957081546,146.51931330472104,159.06437768240343)" stroke-width="1" />
<path d="M 55.50 325.50 C 39.89 351.22, 77.78 334.29, 55.50 325.50 Z" fill="rgb(183.9,123.4,132.2)" stroke="rgb(183.9,123.4,132.2)" stroke-width="1" />
<path d="M 54.50 326.50 C 49.42 330.73, 48.56 342.38, 57.50 341.50 C 67.82 339.84, 62.55 327.44, 55.50 326.50 Z" fill="rgb(84.53125,36.96875,60.875)" stroke="rgb(84.53125,36.96875,60.875)" stroke-width="1" />
<path d="M 296.50 410.50 C 291.28 412.59, 285.27 412.74, 279.50 413.50 C 273.24 415.16, 266.95 414.32, 261.50 415.50 C 254.83 415.50, 249.17 415.50, 243.50 415.50 C 234.80 412.38, 231.58 416.39, 241.50 416.50 C 248.17 416.50, 253.83 416.50, 259.50 416.50 C 268.70 417.76, 263.95 428.01, 266.50 416.50 C 272.85 415.08, 278.85 415.21, 284.50 414.50 C 288.36 412.75, 302.17 412.44, 297.50 410.50 Z" fill="rgb(155.8987341772152,88.91772151898734,106.60759493670886)" stroke="rgb(155.8987341772152,88.91772151898734,106.60759493670886)" stroke-width="1" />
<path d="M 401.50 406.50 C 394.55 408.29, 387.50 409.83, 380.50 411.50 C 376.04 413.20, 372.68 414.12, 369.50 415.50 C 367.40 418.32, 374.99 414.18, 377.50 414.50 C 385.75 412.45, 392.29 409.66, 399.50 408.50 C 409.96 407.58, 415.74 405.92, 402.50 406.50 Z" fill="rgb(152.84761904761905,86.53333333333333,105.08571428571429)" stroke="rgb(152.84761904761905,86.53333333333333,105.08571428571429)" stroke-width="1" />
<path d="M 54.50 328.50 C 48.92 332.48, 49.93 342.63, 58.50 340.50 C 62.33 336.20, 59.84 330.28, 54.50 329.50 Z" fill="rgb(79.0,31.0,55.0)" stroke="rgb(79.0,31.0,55.0)" stroke-width="1" />
<path d="M 378.50 295.50 C 373.73 297.58, 369.05 299.88, 364.50 302.50 C 360.30 304.73, 350.47 311.89, 353.50 312.50 C 358.71 308.06, 363.61 305.30, 368.50 302.50 C 371.92 299.71, 384.21 296.60, 379.50 295.50 Z" fill="rgb(175.34065934065933,153.5934065934066,164.47252747252747)" stroke="rgb(175.34065934065933,153.5934065934066,164.47252747252747)" stroke-width="1" />
<path d="M 96.50 366.50 C 93.02 368.86, 78.36 374.02, 82.50 373.50 C 86.50 373.50, 89.50 373.50, 92.50 373.50 C 97.54 373.93, 101.68 369.54, 97.50 366.50 Z" fill="rgb(160.67441860465115,153.53488372093022,202.46511627906978)" stroke="rgb(160.67441860465115,153.53488372093022,202.46511627906978)" stroke-width="1" />
<path d="M 476.50 305.50 C 470.18 307.22, 477.05 315.12, 475.50 320.50 C 477.01 318.77, 478.95 316.63, 478.50 313.50 C 478.97 309.76, 482.82 304.94, 477.50 305.50 Z" fill="rgb(124.59756097560975,174.17073170731706,217.21951219512195)" stroke="rgb(124.59756097560975,174.17073170731706,217.21951219512195)" stroke-width="1" />
<path d="M 127.50 309.50 C 124.97 313.68, 135.68 309.81, 137.50 313.50 C 143.09 316.55, 147.55 319.91, 151.50 324.50 C 151.96 320.21, 146.50 317.20, 142.50 314.50 C 137.44 311.50, 133.31 309.69, 128.50 309.50 Z" fill="rgb(171.775,149.625,161.15)" stroke="rgb(171.775,149.625,161.15)" stroke-width="1" />
<path d="M 180.50 314.50 C 181.26 319.05, 175.77 327.94, 180.50 329.50 C 187.87 329.53, 180.67 319.56, 180.50 315.50 Z" fill="rgb(127.87878787878788,179.4090909090909,216.46969696969697)" stroke="rgb(127.87878787878788,179.4090909090909,216.46969696969697)" stroke-width="1" />
<path d="M 253.50 76.50 C 255.04 82.58, 263.82 80.93, 267.50 78.50 C 265.56 74.74, 258.48 81.93, 254.50 76.50 Z" fill="rgb(120.52941176470588,62.627450980392155,78.3921568627451)" stroke="rgb(120.52941176470588,62.627450980392155,78.3921568627451)" stroke-width="1" />
<path d="M 54.50 357.50 C 53.28 362.09, 56.76 368.19, 59.50 372.50 C 60.87 370.10, 55.62 363.25, 54.50 358.50 Z" fill="rgb(162.4102564102564,94.58974358974359,101.97435897435898)" stroke="rgb(162.4102564102564,94.58974358974359,101.97435897435898)" stroke-width="1" />
<path d="M 459.50 386.50 C 456.37 391.25, 452.56 395.72, 449.50 400.50 C 454.94 396.29, 457.70 391.39, 460.50 386.50 Z" fill="rgb(160.92307692307693,93.46153846153847,101.12820512820512)" stroke="rgb(160.92307692307693,93.46153846153847,101.12820512820512)" stroke-width="1" />
</svg>