<svg xmlns="http://www.w3.org/2000/svg" width="512" height="512" viewbox="0 0 512 512">
<path d="M 0.50 0.50 C 0.50 5.17, 0.50 9.83, 0.50 14.50 C 0.50 20.50, 0.50 25.50, 0.50 30.50 C 0.50 36.50, 0.50 41.50, 0.50 46.50 C 0.50 52.50, 0.50 57.50, 0.50 62.50 C 0.50 68.50, 0.50 73.50, 0.50 78.50 C 0.50 84.50, 0.50 89.50, 0.50 94.50 C 0.50 100.50, 0.50 105.50, 0.50 110.50 C 0.50 116.50, 0.50 121.50, 0.50 126.50 C 0.50 132.50, 0.50 137.50, 0.50 142.50 C 0.50 148.50, 0.50 153.50, 0.50 158.50 C 0.50 164.50, 0.50 169.50, 0.50 174.50 C 0.50 180.50, 0.50 185.50, 0.50 190.50 C 0.50 196.50, 0.50 201.50, 0.50 206.50 C 0.50 212.50, 0.50 217.50, 0.50 222.50 C 0.50 228.50, 0.50 233.50, 0.50 238.50 C 0.50 244.50, 0.50 249.50, 0.50 254.50 C 0.50 260.50, 0.50 265.50, 0.50 270.50 C 0.50 276.50, 0.50 281.50, 0.50 286.50 C 0.50 292.50, 0.50 297.50, 0.50 302.50 C 0.50 308.50, 0.50 313.50, 0.50 318.50 C 0.50 324.50, 0.50 329.50, 0.50 334.50 C 0.50 340.50, 0.50 345.50, 0.50 350.50 C 0.50 356.50, 0.50 361.50, 0.50 366.50 C 0.50 372.50, 0.50 377.50, 0.50 382.50 C 0.50 388.50, 0.50 393.50, 0.50 398.50 C 0.50 404.50, 0.50 409.50, 0.50 414.50 C 0.50 420.50, 0.50 425.50, 0.50 430.50 C 0.50 436.50, 0.50 441.50, 0.50 446.50 C 0.50 452.50, 0.50 457.50, 0.50 462.50 C 0.50 468.50, 0.50 473.50, 0.50 478.50 C 0.50 484.50, 0.50 489.50, 0.50 494.50 C 0.50 500.50, 0.50 505.50, 0.50 510.50 C 5.50 511.50, 10.50 511.50, 15.50 511.50 C 21.50 511.50, 26.50 511.50, 31.50 511.50 C 37.50 511.50, 42.50 511.50, 47.50 511.50 C 53.50 511.50, 58.50 511.50, 63.50 511.50 C 69.50 511.50, 74.50 511.50, 79.50 511.50 C 85.50 511.50, 90.50 511.50, 95.50 511.50 C 101.50 511.50, 106.50 511.50, 111.50 511.50 C 117.50 511.50, 122.50 511.50, 127.50 511.50 C 133.50 511.50, 138.50 511.50, 143.50 511.50 C 149.50 511.50, 154.50 511.50, 159.50 511.50 C 170.83 511.50, 181.17 511.50, 191.50 511.50 C 202.83 511.50, 213.17 511.50, 223.50 511.50 C 229.50 511.50, 234.50 511.50, 239.50 511.50 C 245.50 511.50, 250.50 511.50, 255.50 511.50 C 261.50 511.50, 266.50 511.50, 271.50 511.50 C 277.50 511.50, 282.50 511.50, 287.50 511.50 C 293.50 511.50, 298.50 511.50, 303.50 511.50 C 309.50 511.50, 314.50 511.50, 319.50 511.50 C 325.50 511.50, 330.50 511.50, 335.50 511.50 C 341.50 511.50, 346.50 511.50, 351.50 511.50 C 357.50 511.50, 362.50 511.50, 367.50 511.50 C 373.50 511.50, 378.50 511.50, 383.50 511.50 C 389.50 511.50, 394.50 511.50, 399.50 511.50 C 405.50 511.50, 410.50 511.50, 415.50 511.50 C 421.50 511.50, 426.50 511.50, 431.50 511.50 C 437.50 511.50, 442.50 511.50, 447.50 511.50 C 453.50 511.50, 458.50 511.50, 463.50 511.50 C 469.50 511.50, 474.50 511.50, 479.50 511.50 C 485.50 511.50, 490.50 511.50, 495.50 511.50 C 501.50 511.50, 506.50 511.50, 511.50 511.50 C 511.50 505.83, 511.50 501.17, 511.50 496.50 C 511.50 490.50, 511.50 485.50, 511.50 480.50 C 511.50 474.50, 511.50 469.50, 511.50 464.50 C 511.50 458.50, 511.50 453.50, 511.50 448.50 C 511.50 442.50, 511.50 437.50, 511.50 432.50 C 511.50 426.50, 511.50 421.50, 511.50 416.50 C 511.50 410.50, 511.50 405.50, 511.50 400.50 C 511.50 394.50, 511.50 389.50, 511.50 384.50 C 511.50 378.50, 511.50 373.50, 511.50 368.50 C 511.50 362.50, 511.50 357.50, 511.50 352.50 C 511.50 346.50, 511.50 341.50, 511.50 336.50 C 511.50 330.50, 511.50 325.50, 511.50 320.50 C 511.50 298.50, 511.50 277.50, 511.50 256.50 C 511.50 170.83, 511.50 86.17, 511.50 1.50 C 469.50 0.50, 427.50 0.50, 385.50 0.50 C 363.50 0.50, 342.50 0.50, 321.50 0.50 C 310.17 0.50, 299.83 0.50, 289.50 0.50 C 283.50 0.50, 278.50 0.50, 273.50 0.50 C 267.50 0.50, 262.50 0.50, 257.50 0.50 C 251.50 0.50, 246.50 0.50, 241.50 0.50 C 235.50 0.50, 230.50 0.50, 225.50 0.50 C 219.50 0.50, 214.50 0.50, 209.50 0.50 C 203.50 0.50, 198.50 0.50, 193.50 0.50 C 187.50 0.50, 182.50 0.50, 177.50 0.50 C 171.50 0.50, 166.50 0.50, 161.50 0.50 C 155.50 0.50, 150.50 0.50, 145.50 0.50 C 139.50 0.50, 134.50 0.50, 129.50 0.50 C 123.50 0.50, 118.50 0.50, 113.50 0.50 C 107.50 0.50, 102.50 0.50, 97.50 0.50 C 91.50 0.50, 86.50 0.50, 81.50 0.50 C 75.50 0.50, 70.50 0.50, 65.50 0.50 C 59.50 0.50, 54.50 0.50, 49.50 0.50 C 43.50 0.50, 38.50 0.50, 33.50 0.50 C 27.50 0.50, 22.50 0.50, 17.50 0.50 C 11.50 0.50, 6.50 0.50, 1.50 0.50 Z" fill="rgb(10.111654126242954,10.111654126242954,10.111654126242954)" stroke="rgb(10.111654126242954,10.111654126242954,10.111654126242954)" stroke-width="1" />
<path d="M 252.50 0.50 C 246.75 2.77, 240.50 3.83, 234.50 5.50 C 227.60 8.93, 221.83 11.68, 216.50 15.50 C 210.71 17.54, 206.10 19.01, 201.50 20.50 C 196.32 21.06, 192.76 23.13, 188.50 23.50 C 183.09 24.84, 179.40 26.92, 175.50 28.50 C 168.78 31.84, 162.09 32.84, 156.50 36.50 C 150.35 38.81, 145.58 42.02, 140.50 44.50 C 134.22 47.83, 129.28 50.96, 124.50 54.50 C 118.69 57.35, 115.09 62.12, 110.50 64.50 C 106.92 66.67, 103.91 71.17, 100.50 72.50 C 95.94 76.16, 93.61 80.17, 89.50 82.50 C 86.44 87.57, 82.27 89.69, 79.50 93.50 C 75.92 97.18, 73.51 100.86, 70.50 104.50 C 66.21 109.38, 64.04 113.72, 60.50 117.50 C 56.30 121.53, 56.70 126.47, 52.50 129.50 C 48.37 136.98, 45.42 143.94, 41.50 150.50 C 38.38 158.45, 34.91 165.25, 32.50 172.50 C 32.06 176.73, 29.60 179.13, 29.50 182.50 C 28.40 190.68, 23.36 195.81, 24.50 203.50 C 23.59 210.62, 20.87 215.57, 20.50 221.50 C 20.68 225.05, 20.56 227.47, 19.50 229.50 C 20.04 235.86, 18.89 240.52, 18.50 245.50 C 18.50 251.50, 18.50 256.50, 18.50 261.50 C 20.72 269.40, 18.98 275.80, 20.50 282.50 C 20.27 290.34, 22.32 296.24, 23.50 302.50 C 26.20 305.66, 22.80 310.34, 25.50 312.50 C 26.93 319.38, 30.04 325.62, 28.50 331.50 C 28.31 338.41, 30.13 346.17, 23.50 348.50 C 13.70 352.08, 4.93 362.96, 11.50 372.50 C 14.17 392.33, 39.47 405.15, 57.50 396.50 C 64.52 396.15, 61.99 403.69, 62.50 407.50 C 61.89 413.56, 63.28 417.79, 63.50 422.50 C 65.88 429.34, 65.93 436.15, 69.50 441.50 C 73.04 446.57, 74.74 452.91, 79.50 455.50 C 82.89 459.53, 85.02 462.33, 88.50 464.50 C 92.88 468.86, 96.98 470.49, 100.50 473.50 C 105.51 475.67, 108.81 478.54, 112.50 480.50 C 117.24 482.24, 116.46 487.26, 116.50 490.50 C 116.30 495.61, 119.34 498.37, 121.50 501.50 C 127.47 506.98, 134.03 507.63, 140.50 508.50 C 145.04 511.08, 150.92 508.02, 154.50 510.50 C 159.50 511.50, 163.50 511.50, 167.50 511.50 C 172.83 511.50, 177.17 511.50, 181.50 511.50 C 186.50 511.50, 190.50 511.50, 194.50 511.50 C 199.83 511.50, 204.17 511.50, 208.50 511.50 C 213.39 512.18, 215.43 508.40, 219.50 509.50 C 225.11 507.08, 230.85 507.41, 236.50 507.50 C 243.38 507.69, 248.39 505.75, 254.50 506.50 C 259.76 507.29, 262.47 507.56, 267.50 507.50 C 272.50 507.50, 276.50 507.50, 280.50 507.50 C 285.36 510.25, 289.50 506.96, 293.50 509.50 C 299.25 509.44, 304.26 509.75, 309.50 509.50 C 314.95 507.86, 318.32 508.97, 323.50 508.50 C 329.39 507.85, 333.13 510.58, 337.50 508.50 C 342.96 509.46, 346.75 507.82, 351.50 508.50 C 357.14 508.92, 360.71 506.72, 365.50 507.50 C 371.45 506.72, 376.24 505.55, 381.50 505.50 C 387.60 503.93, 393.29 503.80, 398.50 502.50 C 403.98 501.86, 408.02 500.14, 412.50 499.50 C 417.66 499.35, 420.75 496.63, 424.50 495.50 C 429.92 493.70, 434.18 491.54, 438.50 489.50 C 445.36 485.76, 450.42 481.11, 455.50 476.50 C 459.65 471.09, 463.75 467.08, 466.50 462.50 C 470.91 456.09, 472.90 449.67, 475.50 443.50 C 476.01 438.10, 477.90 434.28, 477.50 429.50 C 480.94 425.01, 485.79 427.34, 488.50 424.50 C 492.96 422.84, 495.22 419.32, 495.50 415.50 C 501.45 410.39, 502.74 404.76, 502.50 398.50 C 501.48 390.65, 493.25 387.21, 490.50 381.50 C 490.44 375.28, 492.08 370.35, 491.50 364.50 C 490.85 357.27, 488.24 351.86, 485.50 346.50 C 484.66 340.87, 486.95 337.55, 487.50 333.50 C 490.46 328.70, 490.39 323.65, 492.50 319.50 C 493.13 313.01, 495.94 308.43, 495.50 302.50 C 497.29 296.08, 497.97 290.61, 499.50 285.50 C 498.72 277.37, 500.92 271.48, 500.50 264.50 C 500.50 256.83, 500.50 250.17, 500.50 243.50 C 501.26 237.38, 499.24 233.41, 499.50 228.50 C 499.16 221.23, 497.55 215.48, 496.50 209.50 C 495.18 205.44, 495.53 201.68, 494.50 198.50 C 492.69 194.17, 491.82 190.45, 491.50 186.50 C 489.83 182.31, 488.60 178.93, 487.50 175.50 C 486.93 170.52, 483.83 167.58, 483.50 163.50 C 480.09 157.14, 478.27 151.12, 475.50 145.50 C 471.64 141.47, 471.99 136.69, 468.50 133.50 C 466.60 127.57, 462.08 124.14, 460.50 119.50 C 456.82 113.90, 452.70 109.89, 449.50 105.50 C 445.53 97.47, 438.70 93.37, 434.50 87.50 C 427.65 80.11, 420.21 74.37, 415.50 67.50 C 421.34 24.89, 368.46 -1.20, 337.50 24.50 C 333.24 25.27, 331.14 23.24, 328.50 22.50 C 322.52 21.13, 317.32 20.28, 312.50 18.50 C 305.79 16.41, 300.36 13.64, 295.50 9.50 C 290.62 7.55, 286.34 6.55, 282.50 4.50 C 277.13 3.60, 273.02 2.05, 268.50 1.50 C 262.70 1.48, 257.73 1.89, 253.50 0.50 Z" fill="rgb(240.29543957853144,240.57577378992426,244.15286466908134)" stroke="rgb(240.29543957853144,240.57577378992426,244.15286466908134)" stroke-width="1" />
<path d="M 194.50 340.50 C 192.94 342.78, 187.29 339.84, 188.50 344.50 C 185.07 350.24, 185.93 356.76, 182.50 361.50 C 183.57 370.26, 176.56 370.88, 171.50 368.50 C 166.57 367.34, 162.60 366.26, 158.50 365.50 C 152.75 365.18, 148.96 363.54, 144.50 363.50 C 139.10 364.65, 135.28 362.15, 130.50 362.50 C 127.26 362.15, 125.47 364.12, 122.50 363.50 C 116.28 363.68, 112.73 366.91, 108.50 368.50 C 100.35 372.38, 92.22 377.03, 87.50 384.50 C 84.12 387.34, 82.42 390.47, 80.50 393.50 C 77.68 400.88, 76.25 407.84, 76.50 415.50 C 77.66 420.43, 78.74 424.40, 79.50 428.50 C 80.66 434.73, 83.63 438.80, 87.50 442.50 C 89.64 447.65, 94.46 449.40, 97.50 453.50 C 104.60 458.26, 110.29 463.01, 116.50 466.50 C 122.13 467.63, 125.02 471.99, 129.50 472.50 C 135.28 476.02, 140.43 477.66, 145.50 479.50 C 151.58 480.98, 156.32 483.28, 161.50 484.50 C 167.41 486.06, 172.48 487.23, 177.50 488.50 C 182.79 489.60, 187.28 490.23, 191.50 491.50 C 198.38 491.31, 203.39 493.25, 209.50 492.50 C 214.41 493.00, 217.73 494.15, 221.50 492.50 C 226.17 492.36, 230.31 492.37, 234.50 492.50 C 240.26 493.19, 243.74 490.81, 248.50 491.50 C 253.79 490.74, 259.49 493.35, 262.50 489.50 C 266.20 495.84, 274.78 491.83, 279.50 494.50 C 284.84 494.82, 289.79 493.65, 293.50 495.50 C 298.43 493.10, 302.40 496.89, 306.50 494.50 C 312.95 494.19, 317.23 496.28, 322.50 494.50 C 330.17 494.50, 336.83 494.50, 343.50 494.50 C 351.87 494.07, 358.50 492.82, 365.50 492.50 C 370.21 492.27, 373.44 490.89, 377.50 491.50 C 381.81 489.97, 386.09 490.79, 389.50 489.50 C 393.42 489.43, 396.09 488.79, 398.50 487.50 C 405.39 486.70, 410.26 483.45, 416.50 483.50 C 420.72 480.89, 424.35 480.27, 427.50 478.50 C 436.72 474.72, 443.26 466.80, 448.50 460.50 C 454.35 455.54, 455.39 449.59, 458.50 444.50 C 461.53 438.34, 461.88 432.07, 461.50 425.50 C 459.21 421.96, 459.82 418.62, 457.50 416.50 C 455.80 410.42, 449.60 408.83, 447.50 405.50 C 439.66 402.26, 433.10 399.34, 426.50 396.50 C 418.58 395.77, 412.95 391.95, 405.50 392.50 C 398.81 392.18, 395.19 387.82, 389.50 388.50 C 382.23 387.02, 375.96 385.53, 369.50 384.50 C 361.72 383.45, 355.19 381.77, 348.50 380.50 C 344.17 380.64, 341.20 379.89, 338.50 378.50 C 335.14 373.32, 333.86 368.68, 331.50 364.50 C 330.75 361.06, 328.44 359.27, 328.50 356.50 C 326.93 350.71, 323.25 347.21, 322.50 342.50 C 317.95 339.28, 312.73 341.08, 308.50 340.50 C 303.17 340.50, 298.83 340.50, 294.50 340.50 C 289.17 340.50, 284.83 340.50, 280.50 340.50 C 275.17 340.50, 270.83 340.50, 266.50 340.50 C 261.17 340.50, 256.83 340.50, 252.50 340.50 C 247.17 340.50, 242.83 340.50, 238.50 340.50 C 233.17 340.50, 228.83 340.50, 224.50 340.50 C 218.61 341.10, 212.71 339.26, 208.50 341.50 C 202.73 340.70, 200.12 341.17, 195.50 340.50 Z" fill="rgb(117.72174911491723,59.56836666347718,88.36558702516506)" stroke="rgb(117.72174911491723,59.56836666347718,88.36558702516506)" stroke-width="1" />
<path d="M 284.50 140.50 C 278.05 143.70, 272.03 147.91, 264.50 148.50 C 255.72 148.72, 247.89 149.06, 242.50 143.50 C 237.58 145.25, 236.02 148.13, 232.50 150.50 C 225.57 152.87, 220.28 155.77, 214.50 157.50 C 207.12 160.92, 201.31 164.71, 195.50 168.50 C 188.47 172.95, 182.95 177.63, 177.50 182.50 C 170.22 189.25, 165.11 195.48, 159.50 201.50 C 155.97 206.75, 153.81 211.16, 151.50 215.50 C 150.01 220.57, 148.86 224.79, 146.50 228.50 C 145.31 233.89, 143.19 237.90, 142.50 242.50 C 139.90 249.11, 138.74 255.32, 137.50 261.50 C 136.90 267.28, 135.01 271.10, 134.50 275.50 C 133.86 281.18, 132.33 285.49, 132.50 290.50 C 130.93 297.41, 127.65 303.91, 129.50 309.50 C 117.93 318.78, 107.19 323.58, 94.50 330.50 C 74.05 337.02, 95.55 359.36, 103.50 367.50 C 128.13 360.23, 154.82 357.77, 172.50 339.50 C 176.56 329.29, 177.64 294.77, 183.50 315.50 C 184.49 324.25, 187.91 331.00, 189.50 338.50 C 195.83 339.50, 201.17 339.50, 206.50 339.50 C 213.17 339.50, 218.83 339.50, 224.50 339.50 C 231.93 339.01, 236.34 339.72, 242.50 338.50 C 247.21 339.27, 250.44 337.89, 254.50 338.50 C 259.83 338.50, 264.17 338.50, 268.50 338.50 C 273.83 338.50, 278.17 338.50, 282.50 338.50 C 289.17 338.50, 294.83 338.50, 300.50 338.50 C 307.50 338.50, 313.50 338.50, 319.50 338.50 C 318.90 332.99, 322.94 327.80, 321.50 322.50 C 323.09 315.53, 323.42 311.26, 325.50 305.50 C 326.30 299.22, 327.64 294.17, 327.50 288.50 C 330.85 290.27, 328.08 295.17, 331.50 297.50 C 332.93 304.07, 337.26 308.44, 337.50 314.50 C 342.08 319.65, 342.99 324.91, 345.50 329.50 C 348.05 331.62, 347.90 335.35, 350.50 335.50 C 351.85 340.57, 358.02 342.28, 360.50 345.50 C 365.93 350.60, 371.39 354.63, 376.50 359.50 C 380.87 360.62, 382.96 364.80, 386.50 365.50 C 388.93 368.46, 393.71 366.39, 392.50 370.50 C 397.01 370.22, 395.99 375.78, 399.50 374.50 C 405.07 377.40, 407.88 381.93, 413.50 382.50 C 420.24 380.28, 424.42 374.31, 429.50 370.50 C 435.83 365.89, 441.04 360.95, 441.50 354.50 C 437.86 347.62, 432.87 355.86, 431.50 349.50 C 432.81 345.50, 430.78 343.73, 428.50 342.50 C 424.74 344.37, 424.04 341.64, 424.50 339.50 C 421.05 334.92, 417.13 333.03, 415.50 328.50 C 410.37 324.00, 405.95 320.23, 401.50 316.50 C 394.96 309.46, 388.77 303.60, 382.50 297.50 C 379.41 293.28, 380.04 288.94, 378.50 285.50 C 377.62 280.78, 376.13 277.32, 375.50 273.50 C 373.95 268.73, 373.86 264.35, 372.50 260.50 C 371.38 256.02, 371.03 252.22, 370.50 248.50 C 368.28 244.01, 369.53 239.07, 367.50 235.50 C 368.06 228.99, 365.22 224.89, 365.50 219.50 C 363.00 210.82, 361.39 203.19, 357.50 196.50 C 356.04 191.67, 352.90 188.94, 351.50 185.50 C 345.48 177.23, 338.31 172.42, 331.50 167.50 C 325.71 164.33, 320.29 162.67, 315.50 159.50 C 309.69 155.70, 303.98 154.08, 299.50 149.50 C 294.03 146.84, 290.23 142.55, 285.50 140.50 Z" fill="rgb(254.70661077382672,254.59089814011756,254.6243133853715)" stroke="rgb(254.70661077382672,254.59089814011756,254.6243133853715)" stroke-width="1" />
<path d="M 281.50 0.50 C 285.21 2.86, 289.43 4.01, 293.50 5.50 C 297.46 2.82, 297.97 9.97, 300.50 9.50 C 307.03 15.72, 315.00 16.05, 322.50 17.50 C 326.66 20.87, 331.81 19.42, 335.50 21.50 C 341.13 19.89, 344.78 15.91, 349.50 14.50 C 356.21 12.81, 361.76 10.70, 368.50 11.50 C 373.74 12.04, 376.24 10.74, 379.50 13.50 C 384.45 14.16, 388.31 15.01, 391.50 17.50 C 396.02 20.40, 399.61 22.87, 402.50 25.50 C 407.68 30.82, 410.67 35.63, 413.50 40.50 C 415.85 45.08, 416.32 49.44, 417.50 53.50 C 416.82 59.25, 418.46 63.04, 418.50 67.50 C 422.65 73.56, 428.22 78.18, 433.50 82.50 C 439.09 89.12, 442.16 92.61, 447.50 98.50 C 452.96 105.45, 457.72 111.27, 461.50 117.50 C 465.35 123.09, 468.70 127.47, 470.50 132.50 C 475.30 139.64, 478.44 146.05, 481.50 152.50 C 485.36 159.34, 486.98 166.11, 489.50 172.50 C 491.91 177.53, 492.09 182.47, 494.50 186.50 C 495.14 191.98, 496.86 196.02, 497.50 200.50 C 499.13 204.91, 498.73 209.15, 500.50 212.50 C 500.66 220.04, 503.23 225.59, 502.50 232.50 C 502.73 237.21, 504.11 240.44, 503.50 244.50 C 503.50 249.50, 503.50 253.50, 503.50 257.50 C 503.50 262.50, 503.50 266.50, 503.50 270.50 C 503.14 276.01, 502.06 283.14, 501.50 288.50 C 500.57 293.72, 499.02 303.04, 499.50 304.50 C 505.34 310.82, 502.02 299.63, 505.50 295.50 C 507.64 300.17, 507.63 304.31, 507.50 308.50 C 506.31 315.08, 509.81 315.56, 511.50 311.50 C 511.50 304.50, 511.50 298.50, 511.50 292.50 C 511.50 285.50, 511.50 279.50, 511.50 273.50 C 511.50 266.50, 511.50 260.50, 511.50 254.50 C 511.50 247.17, 511.50 240.83, 511.50 234.50 C 511.50 227.50, 511.50 221.50, 511.50 215.50 C 511.50 208.17, 511.50 201.83, 511.50 195.50 C 511.50 188.50, 511.50 182.50, 511.50 176.50 C 511.50 169.17, 511.50 162.83, 511.50 156.50 C 511.50 149.50, 511.50 143.50, 511.50 137.50 C 511.50 130.50, 511.50 124.50, 511.50 118.50 C 511.50 111.50, 511.50 105.50, 511.50 99.50 C 511.50 92.17, 511.50 85.83, 511.50 79.50 C 511.50 72.50, 511.50 66.50, 511.50 60.50 C 511.50 53.17, 511.50 46.83, 511.50 40.50 C 511.50 33.50, 511.50 27.50, 511.50 21.50 C 511.50 14.17, 511.50 7.83, 511.50 1.50 C 507.17 0.50, 502.83 0.50, 498.50 0.50 C 493.17 0.50, 488.83 0.50, 484.50 0.50 C 479.17 0.50, 474.83 0.50, 470.50 0.50 C 464.83 0.50, 460.17 0.50, 455.50 0.50 C 450.17 0.50, 445.83 0.50, 441.50 0.50 C 435.83 0.50, 431.17 0.50, 426.50 0.50 C 421.17 0.50, 416.83 0.50, 412.50 0.50 C 406.83 0.50, 402.17 0.50, 397.50 0.50 C 392.17 0.50, 387.83 0.50, 383.50 0.50 C 378.17 0.50, 373.83 0.50, 369.50 0.50 C 364.17 0.50, 359.83 0.50, 355.50 0.50 C 349.83 0.50, 345.17 0.50, 340.50 0.50 C 335.17 0.50, 330.83 0.50, 326.50 0.50 C 320.83 0.50, 316.17 0.50, 311.50 0.50 C 306.17 0.50, 301.83 0.50, 297.50 0.50 C 291.83 0.50, 287.17 0.50, 282.50 0.50 Z" fill="rgb(0.0,0.0,0.0)" stroke="rgb(0.0,0.0,0.0)" stroke-width="1" />
<path d="M 439.50 118.50 C 432.87 120.79, 426.54 123.80, 420.50 127.50 C 414.63 129.54, 411.55 134.91, 406.50 135.50 C 400.33 140.96, 395.69 143.36, 390.50 148.50 C 384.13 154.56, 377.87 158.44, 372.50 164.50 C 369.01 167.75, 369.01 171.25, 371.50 173.50 C 373.73 178.85, 373.68 184.15, 373.50 189.50 C 371.67 196.32, 370.16 202.27, 364.50 206.50 C 364.51 212.58, 367.65 216.36, 367.50 221.50 C 369.18 224.42, 367.54 227.70, 369.50 229.50 C 369.63 236.06, 371.37 240.94, 371.50 246.50 C 373.68 250.34, 372.54 254.56, 374.50 257.50 C 374.58 262.41, 376.08 265.73, 376.50 269.50 C 378.46 274.10, 378.43 278.53, 379.50 282.50 C 381.05 287.35, 382.30 290.91, 383.50 294.50 C 386.03 297.51, 387.72 301.53, 391.50 300.50 C 395.24 294.64, 400.40 289.57, 405.50 284.50 C 409.11 282.02, 411.79 280.72, 414.50 279.50 C 414.46 275.45, 416.92 271.18, 420.50 271.50 C 427.28 276.83, 433.52 281.06, 440.50 283.50 C 440.55 277.40, 438.58 273.13, 437.50 268.50 C 435.50 264.39, 437.50 259.61, 435.50 256.50 C 436.26 251.05, 433.93 247.87, 434.50 243.50 C 435.04 238.03, 436.34 234.29, 437.50 230.50 C 439.32 228.48, 441.33 223.43, 443.50 226.50 C 448.83 230.28, 450.22 235.28, 453.50 239.50 C 456.34 244.48, 457.15 249.31, 459.50 253.50 C 462.12 258.77, 463.40 263.60, 464.50 268.50 C 465.27 272.54, 467.73 274.46, 467.50 277.50 C 469.98 284.50, 470.60 291.27, 472.50 297.50 C 472.58 302.06, 474.05 305.80, 478.50 304.50 C 481.66 303.47, 480.49 298.58, 482.50 296.50 C 483.61 288.54, 484.62 281.55, 485.50 274.50 C 484.74 268.38, 486.76 264.41, 486.50 259.50 C 486.88 251.21, 486.21 244.34, 485.50 237.50 C 485.14 228.90, 484.22 221.54, 482.50 214.50 C 482.27 209.99, 481.42 206.73, 480.50 203.50 C 479.20 198.96, 478.80 195.04, 477.50 191.50 C 476.19 186.49, 474.81 182.51, 473.50 178.50 C 471.72 174.69, 471.28 171.31, 469.50 168.50 C 466.30 161.25, 463.71 154.74, 460.50 148.50 C 458.71 144.27, 455.84 141.91, 455.50 138.50 C 449.82 131.17, 446.78 124.17, 440.50 118.50 Z" fill="rgb(143.99109593626565,210.9801834371025,207.99933052152375)" stroke="rgb(143.99109593626565,210.9801834371025,207.99933052152375)" stroke-width="1" />
<path d="M 249.50 15.50 C 242.11 17.22, 235.24 20.20, 228.50 23.50 C 219.91 28.72, 213.36 36.43, 208.50 43.50 C 205.97 48.95, 203.20 53.29, 202.50 58.50 C 200.65 64.56, 198.85 69.23, 198.50 74.50 C 198.46 79.96, 196.82 83.75, 197.50 88.50 C 196.19 93.18, 196.42 97.49, 193.50 100.50 C 190.61 104.84, 185.90 107.43, 182.50 109.50 C 177.59 111.25, 174.46 114.87, 170.50 116.50 C 165.27 120.99, 162.97 125.28, 160.50 129.50 C 158.08 135.11, 158.41 140.85, 158.50 146.50 C 158.96 153.39, 161.04 158.61, 161.50 164.50 C 162.27 171.23, 160.05 175.73, 158.50 180.50 C 155.80 186.76, 151.45 190.93, 150.50 196.50 C 148.94 201.79, 148.94 208.21, 150.50 212.50 C 153.85 208.84, 154.84 204.62, 158.50 201.50 C 161.66 196.01, 166.14 193.30, 168.50 189.50 C 174.04 183.65, 177.75 181.07, 182.50 176.50 C 186.65 171.54, 193.01 169.47, 197.50 165.50 C 202.25 163.85, 204.83 160.35, 208.50 159.50 C 213.82 155.53, 219.39 154.58, 224.50 152.50 C 230.07 150.30, 234.63 147.95, 237.50 143.50 C 242.35 139.49, 239.74 133.79, 240.50 129.50 C 236.06 127.28, 231.50 127.78, 228.50 124.50 C 218.61 116.72, 216.36 107.19, 214.50 97.50 C 212.32 88.60, 214.05 79.08, 213.50 70.50 C 212.35 59.78, 215.84 51.98, 222.50 45.50 C 230.74 37.19, 240.29 35.46, 248.50 30.50 C 253.22 37.40, 252.53 46.12, 257.50 52.50 C 260.63 56.99, 263.37 61.81, 267.50 63.50 C 271.99 66.93, 275.55 69.19, 279.50 70.50 C 281.40 83.87, 287.89 74.80, 294.50 71.50 C 298.38 72.28, 303.88 72.34, 303.50 76.50 C 298.80 74.93, 312.08 86.13, 302.50 92.50 C 298.83 97.44, 294.96 98.48, 291.50 100.50 C 290.73 104.87, 287.93 107.99, 288.50 112.50 C 286.93 117.40, 288.70 122.27, 286.50 125.50 C 287.48 131.03, 283.99 138.80, 289.50 140.50 C 295.16 145.99, 300.62 148.54, 305.50 152.50 C 309.10 155.13, 312.35 156.21, 315.50 157.50 C 323.30 162.98, 331.28 164.61, 337.50 170.50 C 343.07 175.54, 349.05 179.99, 352.50 185.50 C 356.94 191.51, 359.26 196.99, 361.50 202.50 C 367.66 204.67, 370.01 195.02, 371.50 190.50 C 371.28 185.79, 372.20 181.60, 370.50 178.50 C 368.50 173.64, 367.21 169.48, 365.50 165.50 C 360.99 161.04, 358.23 157.28, 355.50 153.50 C 353.05 148.69, 351.23 145.03, 351.50 140.50 C 353.20 133.79, 353.04 127.31, 354.50 121.50 C 353.66 115.68, 352.68 110.93, 348.50 107.50 C 345.52 105.26, 343.25 102.30, 340.50 100.50 C 333.63 95.43, 325.60 90.89, 322.50 83.50 C 319.90 78.61, 319.21 74.34, 317.50 70.50 C 316.28 61.98, 315.28 54.37, 312.50 47.50 C 310.45 42.72, 308.57 38.86, 305.50 35.50 C 299.83 28.98, 293.24 24.14, 286.50 21.50 C 279.30 18.50, 273.33 15.98, 266.50 15.50 C 260.50 15.50, 255.50 15.50, 250.50 15.50 Z" fill="rgb(254.63206692227257,126.28246775880098,104.57769257581039)" stroke="rgb(254.63206692227257,126.28246775880098,104.57769257581039)" stroke-width="1" />
<path d="M 106.50 144.50 C 103.59 146.53, 99.13 144.80, 96.50 147.50 C 88.01 150.66, 80.77 154.39, 74.50 160.50 C 67.81 166.46, 62.39 170.13, 57.50 176.50 C 50.27 183.94, 44.92 190.73, 39.50 197.50 C 37.55 203.58, 36.81 209.16, 35.50 214.50 C 34.21 218.91, 35.03 223.19, 33.50 226.50 C 34.24 231.95, 32.34 235.30, 32.50 239.50 C 32.50 246.50, 32.50 252.50, 32.50 258.50 C 34.04 260.60, 33.58 267.76, 34.50 262.50 C 37.84 254.70, 39.35 247.55, 43.50 241.50 C 47.90 233.73, 51.56 226.93, 58.50 222.50 C 63.19 222.04, 64.85 226.43, 64.50 229.50 C 65.50 233.17, 65.50 235.83, 65.50 238.50 C 65.42 245.74, 63.79 251.34, 63.50 257.50 C 63.27 262.21, 61.89 265.44, 62.50 269.50 C 62.28 274.63, 60.15 277.55, 60.50 281.50 C 59.31 286.70, 58.55 290.66, 57.50 294.50 C 58.61 298.19, 54.63 300.42, 57.50 302.50 C 63.18 302.86, 69.24 303.02, 70.50 297.50 C 75.86 291.85, 79.52 286.90, 84.50 282.50 C 91.11 275.25, 100.57 279.95, 101.50 287.50 C 106.78 287.65, 110.63 283.35, 115.50 281.50 C 121.66 279.22, 126.17 276.37, 131.50 275.50 C 132.98 267.81, 136.02 262.19, 136.50 255.50 C 139.07 248.73, 139.76 242.20, 142.50 236.50 C 144.07 229.32, 147.22 223.80, 148.50 217.50 C 148.28 211.79, 146.89 207.56, 147.50 202.50 C 147.42 195.78, 150.64 191.42, 152.50 186.50 C 156.75 179.63, 159.95 173.32, 159.50 165.50 C 155.90 160.21, 151.44 157.98, 147.50 154.50 C 142.64 152.16, 138.65 150.15, 134.50 148.50 C 129.85 146.65, 125.91 145.51, 121.50 145.50 C 116.17 144.50, 111.83 144.50, 107.50 144.50 Z" fill="rgb(143.9854482866531,210.96878422782038,207.99679236426223)" stroke="rgb(143.9854482866531,210.96878422782038,207.99679236426223)" stroke-width="1" />
<path d="M 247.50 31.50 C 240.87 36.07, 232.93 37.46, 226.50 42.50 C 219.12 49.71, 213.41 56.20, 214.50 65.50 C 214.06 70.07, 212.32 74.60, 214.50 77.50 C 215.75 83.04, 213.89 89.28, 214.50 94.50 C 214.75 100.42, 217.60 103.85, 217.50 108.50 C 220.53 114.57, 222.65 119.60, 227.50 123.50 C 232.24 128.87, 243.68 125.38, 241.50 134.50 C 241.66 138.36, 240.39 143.25, 244.50 143.50 C 250.82 147.94, 257.69 147.65, 264.50 147.50 C 272.45 144.93, 281.25 143.26, 285.50 136.50 C 284.96 128.14, 287.27 121.96, 286.50 114.50 C 288.53 110.59, 286.80 106.13, 289.50 103.50 C 289.20 97.22, 296.04 98.61, 298.50 95.50 C 303.56 92.95, 304.91 87.88, 304.50 83.50 C 305.17 77.35, 302.32 72.71, 297.50 71.50 C 291.04 72.12, 287.70 77.84, 283.50 81.50 C 281.21 78.09, 280.57 75.42, 280.50 72.50 C 273.28 69.17, 267.51 65.76, 262.50 60.50 C 257.11 54.41, 254.46 48.60, 252.50 42.50 C 249.82 38.87, 252.27 32.72, 248.50 31.50 Z" fill="rgb(251.49767814251402,161.83682946357087,151.39631705364292)" stroke="rgb(251.49767814251402,161.83682946357087,151.39631705364292)" stroke-width="1" />
<path d="M 441.50 227.50 C 422.00 248.24, 466.70 329.67, 431.50 282.50 C 398.20 268.95, 440.35 338.86, 446.50 358.50 C 436.31 364.31, 428.43 373.91, 418.50 382.50 C 430.08 397.66, 450.20 401.41, 462.50 416.50 C 444.98 386.51, 492.88 426.63, 473.50 402.50 C 465.92 390.66, 481.65 404.05, 487.50 402.50 C 483.26 393.40, 473.67 390.27, 466.50 384.50 C 465.58 378.90, 483.16 371.90, 475.50 359.50 C 469.72 358.36, 471.43 371.52, 463.50 371.50 C 452.34 370.73, 459.32 361.26, 462.50 356.50 C 475.62 356.67, 464.18 337.71, 475.50 324.50 C 468.90 289.85, 464.08 253.97, 442.50 227.50 Z" fill="rgb(128.4561403508772,91.6140350877193,109.59649122807018)" stroke="rgb(128.4561403508772,91.6140350877193,109.59649122807018)" stroke-width="1" />
<path d="M 58.50 224.50 C 34.21 246.76, 28.50 284.34, 40.50 314.50 C 48.37 326.15, 35.95 340.09, 47.50 348.50 C 0.85 369.92, 58.36 404.44, 92.50 357.50 C 62.10 341.10, 128.08 267.96, 80.50 288.50 C 67.36 297.85, 64.91 318.38, 51.50 320.50 C 55.05 289.94, 69.79 252.76, 59.50 224.50 Z" fill="rgb(135.8095238095238,136.0,165.8095238095238)" stroke="rgb(135.8095238095238,136.0,165.8095238095238)" stroke-width="1" />
<path d="M 304.50 31.50 C 316.63 44.82, 317.09 62.98, 321.50 79.50 C 325.56 93.07, 340.12 96.99, 348.50 105.50 C 358.14 114.05, 355.51 126.70, 353.50 136.50 C 351.28 149.51, 359.96 159.92, 368.50 165.50 C 377.67 153.84, 400.35 142.04, 401.50 134.50 C 393.49 135.35, 388.71 133.49, 382.50 135.50 C 359.14 142.43, 356.22 122.30, 382.50 123.50 C 402.13 135.97, 412.65 108.42, 431.50 107.50 C 425.89 98.05, 417.49 90.10, 409.50 83.50 C 394.48 69.80, 376.35 111.43, 353.50 93.50 C 328.71 84.14, 332.58 54.00, 335.50 39.50 C 325.11 36.18, 315.33 33.78, 305.50 31.50 Z" fill="rgb(126.9920634920635,155.74603174603175,224.47619047619048)" stroke="rgb(126.9920634920635,155.74603174603175,224.47619047619048)" stroke-width="1" />
<path d="M 305.50 32.50 C 307.89 36.95, 311.50 40.89, 313.50 45.50 C 315.83 50.75, 316.95 55.51, 317.50 60.50 C 318.07 66.68, 320.67 71.01, 320.50 76.50 C 320.93 80.82, 325.33 82.08, 324.50 85.50 C 329.32 91.70, 336.44 96.58, 342.50 100.50 C 346.43 104.24, 351.10 106.46, 352.50 110.50 C 357.88 116.41, 355.04 125.31, 354.50 131.50 C 350.53 143.91, 355.94 154.93, 364.50 162.50 C 375.45 166.28, 385.87 146.19, 396.50 141.50 C 405.99 127.10, 353.87 145.13, 363.50 128.50 C 369.65 123.65, 376.05 121.80, 383.50 122.50 C 390.00 122.01, 392.60 127.52, 397.50 127.50 C 401.32 121.96, 401.44 119.94, 408.50 119.50 C 412.84 115.38, 416.22 112.35, 420.50 111.50 C 424.07 108.32, 430.43 109.16, 430.50 105.50 C 425.57 99.84, 421.90 95.19, 417.50 91.50 C 412.50 85.94, 406.57 80.76, 401.50 76.50 C 395.69 80.79, 390.67 90.09, 383.50 92.50 C 379.12 96.00, 374.39 95.23, 370.50 96.50 C 364.75 97.18, 360.96 95.54, 356.50 95.50 C 350.92 92.75, 346.32 90.07, 342.50 85.50 C 337.30 80.47, 334.95 75.67, 333.50 70.50 C 332.21 67.23, 332.46 64.32, 332.50 61.50 C 332.29 53.39, 335.24 47.59, 337.50 41.50 C 333.91 38.50, 330.37 38.82, 327.50 37.50 C 319.48 36.01, 314.09 31.60, 306.50 32.50 Z" fill="rgb(108.37738383024443,146.0996508192318,228.76470588235293)" stroke="rgb(108.37738383024443,146.0996508192318,228.76470588235293)" stroke-width="1" />
<path d="M 84.50 109.50 C 63.39 133.15, 50.24 161.35, 42.50 188.50 C 53.58 179.80, 80.03 143.35, 109.50 142.50 C 129.02 142.42, 144.30 150.16, 158.50 160.50 C 157.92 149.74, 154.48 139.83, 158.50 130.50 C 161.85 122.16, 168.61 115.26, 175.50 111.50 C 171.88 108.41, 167.73 111.29, 162.50 110.50 C 155.50 110.50, 149.50 110.50, 143.50 110.50 C 134.74 110.80, 131.38 109.49, 124.50 109.50 C 117.50 109.50, 111.50 109.50, 105.50 109.50 C 98.17 109.50, 91.83 109.50, 85.50 109.50 Z" fill="rgb(109.22560975609755,146.73170731707316,228.7439024390244)" stroke="rgb(109.22560975609755,146.73170731707316,228.7439024390244)" stroke-width="1" />
<path d="M 440.50 227.50 C 438.36 232.83, 436.01 238.08, 436.50 244.50 C 436.15 251.92, 437.56 257.61, 438.50 263.50 C 439.07 269.68, 441.67 274.01, 441.50 279.50 C 443.44 287.80, 447.21 293.93, 447.50 301.50 C 441.45 295.38, 436.37 288.28, 430.50 281.50 C 414.19 262.03, 415.34 287.76, 420.50 297.50 C 428.03 318.11, 436.46 336.93, 445.50 355.50 C 450.20 357.92, 455.15 346.71, 462.50 349.50 C 467.55 350.35, 466.63 345.37, 468.50 343.50 C 471.32 337.04, 472.91 331.06, 475.50 325.50 C 473.89 317.28, 473.37 309.61, 471.50 302.50 C 470.11 295.86, 469.25 290.00, 467.50 284.50 C 465.66 276.43, 463.27 269.60, 461.50 262.50 C 458.77 253.64, 454.84 246.69, 451.50 239.50 C 447.68 235.31, 447.41 227.91, 441.50 227.50 Z" fill="rgb(79.87581699346406,33.44444444444444,57.415758896151054)" stroke="rgb(79.87581699346406,33.44444444444444,57.415758896151054)" stroke-width="1" />
<path d="M 98.50 109.50 C 94.56 115.22, 88.73 107.67, 83.50 111.50 C 78.37 115.70, 76.70 119.92, 73.50 123.50 C 70.48 128.77, 67.73 132.73, 64.50 136.50 C 62.11 141.48, 60.11 145.62, 57.50 149.50 C 54.95 154.60, 52.83 158.89, 51.50 163.50 C 48.46 168.35, 48.09 172.88, 45.50 176.50 C 44.41 181.79, 41.86 185.49, 42.50 190.50 C 42.91 187.38, 47.92 188.26, 47.50 185.50 C 52.56 180.68, 57.19 174.57, 61.50 169.50 C 65.96 164.97, 70.91 161.28, 75.50 157.50 C 80.98 153.04, 85.76 150.33, 90.50 147.50 C 96.67 145.77, 101.56 143.38, 107.50 143.50 C 112.50 143.50, 116.50 143.50, 120.50 143.50 C 126.30 144.50, 131.29 145.06, 135.50 147.50 C 141.53 149.30, 145.91 152.65, 150.50 155.50 C 153.44 157.38, 159.59 162.61, 158.50 156.50 C 157.44 153.47, 157.32 151.05, 157.50 148.50 C 156.40 141.85, 156.27 136.19, 158.50 131.50 C 160.62 124.06, 166.38 119.12, 170.50 113.50 C 173.90 108.22, 164.78 113.26, 162.50 110.50 C 158.35 113.60, 154.49 108.47, 151.50 111.50 C 146.48 109.32, 142.51 113.08, 138.50 110.50 C 132.28 109.97, 128.73 112.92, 124.50 111.50 C 118.82 112.39, 116.10 111.83, 111.50 112.50 C 104.36 114.11, 102.85 109.50, 99.50 109.50 Z" fill="rgb(108.09528463229904,146.1478133398485,228.9411189836306)" stroke="rgb(108.09528463229904,146.1478133398485,228.9411189836306)" stroke-width="1" />
<path d="M 53.50 320.50 C 75.76 352.14, 43.39 320.74, 41.50 341.50 C 37.35 343.28, 34.11 343.84, 30.50 343.50 C 25.44 347.83, 20.24 348.41, 16.50 352.50 C 11.00 356.27, 8.08 360.69, 8.50 366.50 C 9.11 370.80, 11.01 373.57, 12.50 376.50 C 12.92 381.21, 14.46 384.46, 16.50 387.50 C 20.07 391.68, 23.96 391.66, 27.50 392.50 C 32.17 397.90, 36.67 400.30, 42.50 399.50 C 49.13 400.02, 53.71 398.00, 58.50 396.50 C 62.78 394.45, 63.81 391.62, 63.50 387.50 C 62.17 382.30, 58.47 387.06, 56.50 384.50 C 59.21 381.14, 63.43 379.99, 67.50 378.50 C 116.52 373.47, 79.54 328.73, 54.50 321.50 Z" fill="rgb(254.84710234278668,253.2157829839704,253.0672009864365)" stroke="rgb(254.84710234278668,253.2157829839704,253.0672009864365)" stroke-width="1" />
<path d="M 210.50 31.50 C 168.90 41.86, 130.77 60.61, 98.50 93.50 C 93.78 96.26, 95.70 100.90, 99.50 99.50 C 114.80 108.39, 124.34 83.14, 139.50 83.50 C 169.70 68.48, 175.62 129.40, 193.50 97.50 C 197.50 77.00, 197.69 56.35, 209.50 40.50 C 211.46 36.38, 219.52 30.15, 211.50 31.50 Z" fill="rgb(143.72727272727272,170.8181818181818,233.4181818181818)" stroke="rgb(143.72727272727272,170.8181818181818,233.4181818181818)" stroke-width="1" />
<path d="M 212.50 31.50 C 209.15 33.27, 204.91 32.87, 201.50 34.50 C 195.29 35.67, 190.30 37.34, 185.50 39.50 C 179.51 41.51, 174.18 42.73, 169.50 45.50 C 163.97 48.16, 158.89 49.49, 154.50 52.50 C 149.31 55.52, 144.51 57.06, 140.50 60.50 C 135.05 64.34, 129.66 65.94, 125.50 70.50 C 121.72 73.37, 118.55 75.29, 115.50 77.50 C 108.03 83.82, 102.02 89.58, 96.50 95.50 C 96.12 99.13, 104.55 100.95, 107.50 103.50 C 112.12 100.97, 112.97 95.96, 117.50 95.50 C 123.28 89.83, 128.90 87.18, 134.50 84.50 C 139.32 82.27, 144.27 82.75, 148.50 81.50 C 154.84 82.20, 159.29 84.07, 163.50 86.50 C 169.71 90.50, 174.28 96.28, 176.50 101.50 C 178.92 103.75, 177.55 108.02, 179.50 108.50 C 184.84 106.74, 190.39 104.28, 192.50 99.50 C 195.00 94.37, 196.11 90.09, 196.50 85.50 C 195.88 77.97, 197.97 72.56, 198.50 66.50 C 200.06 60.79, 201.22 55.91, 203.50 51.50 C 207.06 46.07, 208.40 40.71, 212.50 36.50 C 214.51 34.23, 217.21 30.60, 213.50 31.50 Z" fill="rgb(108.30742887249737,146.16280295047417,228.97839831401475)" stroke="rgb(108.30742887249737,146.16280295047417,228.97839831401475)" stroke-width="1" />
<path d="M 363.50 27.50 C 360.42 29.12, 356.55 28.82, 353.50 30.50 C 347.83 32.89, 344.18 36.72, 340.50 40.50 C 337.21 44.97, 335.93 49.26, 334.50 53.50 C 333.53 58.41, 332.60 63.66, 334.50 67.50 C 335.88 76.25, 340.18 82.79, 346.50 88.50 C 350.62 91.82, 354.87 92.42, 358.50 94.50 C 363.45 94.15, 366.37 96.28, 370.50 95.50 C 379.09 94.88, 384.88 90.88, 390.50 86.50 C 396.85 79.81, 400.39 73.36, 400.50 65.50 C 401.89 58.26, 400.34 52.82, 398.50 47.50 C 395.46 40.09, 389.22 34.81, 383.50 31.50 C 377.31 28.22, 371.09 27.40, 364.50 27.50 Z" fill="rgb(254.6908943528776,203.96973790867332,122.46609024587949)" stroke="rgb(254.6908943528776,203.96973790867332,122.46609024587949)" stroke-width="1" />
<path d="M 133.50 310.50 C 123.94 311.21, 116.93 318.08, 108.50 321.50 C 103.60 325.07, 99.09 326.18, 95.50 329.50 C 90.69 332.29, 86.54 334.27, 82.50 336.50 C 85.56 344.89, 90.46 351.52, 94.50 358.50 C 97.03 362.24, 98.17 367.07, 101.50 368.50 C 108.19 366.55, 113.14 362.83, 119.50 362.50 C 126.59 362.19, 131.41 359.81, 137.50 360.50 C 144.96 357.80, 151.05 354.21, 157.50 351.50 C 164.68 346.94, 172.29 342.98, 175.50 336.50 C 176.21 330.52, 177.83 325.91, 177.50 320.50 C 178.00 312.63, 178.27 317.74, 174.50 319.50 C 171.02 322.50, 166.78 320.25, 163.50 320.50 C 158.41 321.19, 155.59 318.81, 151.50 319.50 C 149.09 317.16, 143.49 312.35, 144.50 314.50 C 148.11 317.60, 156.44 322.83, 151.50 325.50 C 146.23 317.97, 139.24 314.18, 132.50 311.50 Z" fill="rgb(254.79558011049724,254.8322186682175,254.90084326839198)" stroke="rgb(254.79558011049724,254.8322186682175,254.90084326839198)" stroke-width="1" />
<path d="M 370.50 399.50 C 367.05 401.68, 362.83 402.02, 359.50 404.50 C 354.74 407.08, 350.12 407.58, 346.50 410.50 C 342.05 413.01, 337.95 413.99, 334.50 416.50 C 329.74 419.08, 325.12 419.58, 321.50 422.50 C 316.70 423.21, 311.19 424.76, 307.50 422.50 C 302.17 422.50, 297.83 422.50, 293.50 422.50 C 288.53 424.03, 282.81 426.75, 282.50 431.50 C 281.80 438.82, 281.20 445.18, 280.50 451.50 C 280.77 455.83, 274.66 462.25, 279.50 462.50 C 287.66 460.54, 294.25 457.24, 301.50 455.50 C 309.76 452.13, 316.44 448.35, 323.50 445.50 C 331.56 440.65, 338.94 437.56, 345.50 432.50 C 353.73 427.39, 361.22 422.90, 367.50 415.50 C 370.05 410.07, 382.88 399.29, 371.50 399.50 Z" fill="rgb(251.84229828850854,162.5762021189894,152.49388753056235)" stroke="rgb(251.84229828850854,162.5762021189894,152.49388753056235)" stroke-width="1" />
<path d="M 325.50 330.50 C 321.81 348.01, 333.84 362.49, 339.50 377.50 C 369.44 382.21, 401.15 389.24, 427.50 394.50 C 422.30 390.85, 419.26 385.40, 413.50 386.50 C 395.61 376.17, 379.48 364.03, 363.50 351.50 C 349.42 343.54, 344.95 325.14, 326.50 330.50 Z" fill="rgb(151.89361702127658,149.9787234042553,203.5531914893617)" stroke="rgb(151.89361702127658,149.9787234042553,203.5531914893617)" stroke-width="1" />
<path d="M 51.50 320.50 C 47.71 325.82, 56.83 325.79, 59.50 327.50 C 62.75 329.72, 65.12 333.70, 64.50 337.50 C 61.92 342.13, 57.27 343.77, 53.50 341.50 C 49.54 338.51, 47.96 334.94, 48.50 330.50 C 49.24 322.23, 40.66 330.68, 42.50 334.50 C 40.72 338.63, 43.00 340.49, 42.50 343.50 C 43.86 348.99, 53.32 349.34, 50.50 353.50 C 45.88 355.74, 41.31 355.70, 37.50 357.50 C 31.68 359.31, 27.30 361.22, 23.50 364.50 C 29.33 368.67, 36.61 364.48, 43.50 364.50 C 38.65 368.39, 32.92 371.56, 27.50 375.50 C 26.95 381.23, 36.18 376.55, 39.50 376.50 C 43.65 374.75, 56.30 369.84, 49.50 375.50 C 46.92 378.84, 37.74 384.75, 43.50 385.50 C 48.71 384.67, 52.70 383.33, 56.50 381.50 C 61.57 380.01, 65.79 378.86, 69.50 376.50 C 74.48 374.79, 78.64 373.50, 82.50 371.50 C 87.45 369.71, 91.30 367.68, 95.50 366.50 C 94.90 361.20, 92.43 357.25, 89.50 353.50 C 87.20 348.49, 84.53 344.62, 82.50 340.50 C 79.01 336.66, 73.07 337.85, 71.50 332.50 C 68.52 323.31, 60.28 321.16, 52.50 320.50 Z" fill="rgb(254.0052242054854,165.7797126686983,155.2080975185024)" stroke="rgb(254.0052242054854,165.7797126686983,155.2080975185024)" stroke-width="1" />
<path d="M 457.50 350.50 C 453.14 352.59, 451.02 355.88, 447.50 359.50 C 444.07 362.40, 440.12 360.63, 438.50 364.50 C 431.83 370.95, 425.30 375.35, 419.50 381.50 C 417.01 387.79, 427.21 390.45, 430.50 394.50 C 435.87 397.40, 439.59 400.89, 444.50 401.50 C 450.67 405.28, 455.06 409.95, 459.50 414.50 C 461.98 416.01, 466.45 418.18, 465.50 414.50 C 463.66 409.05, 457.22 404.47, 457.50 400.50 C 465.19 405.59, 472.14 410.04, 479.50 413.50 C 483.72 410.20, 476.80 407.69, 476.50 404.50 C 472.25 402.58, 470.27 398.60, 467.50 396.50 C 474.92 397.62, 480.18 402.55, 487.50 402.50 C 487.24 396.48, 480.20 395.02, 476.50 390.50 C 472.06 386.57, 465.62 386.28, 463.50 381.50 C 468.42 380.26, 471.58 378.18, 474.50 375.50 C 476.64 371.64, 477.21 368.13, 477.50 364.50 C 477.34 360.16, 473.98 355.39, 471.50 359.50 C 471.48 366.24, 465.86 374.29, 459.50 370.50 C 453.56 367.36, 453.56 361.64, 458.50 358.50 C 462.91 355.40, 467.11 355.22, 471.50 355.50 C 472.05 348.15, 463.17 351.23, 458.50 350.50 Z" fill="rgb(253.9702568724651,165.82244254168543,155.26002703920685)" stroke="rgb(253.9702568724651,165.82244254168543,155.26002703920685)" stroke-width="1" />
<path d="M 57.50 224.50 C 41.30 241.71, 32.75 264.21, 34.50 287.50 C 37.66 300.23, 38.39 319.70, 45.50 325.50 C 58.47 303.26, 58.13 273.45, 63.50 247.50 C 61.84 239.54, 67.68 224.60, 58.50 224.50 Z" fill="rgb(99.86666666666666,86.93333333333334,103.4)" stroke="rgb(99.86666666666666,86.93333333333334,103.4)" stroke-width="1" />
<path d="M 58.50 224.50 C 52.94 227.54, 50.01 233.69, 46.50 238.50 C 43.74 243.13, 42.69 247.05, 40.50 250.50 C 38.96 255.75, 37.72 260.12, 36.50 264.50 C 34.79 269.87, 34.57 274.86, 33.50 279.50 C 34.35 286.56, 34.86 292.76, 36.50 298.50 C 37.92 305.93, 39.36 312.36, 41.50 318.50 C 42.74 321.86, 42.72 328.03, 46.50 325.50 C 49.01 324.86, 49.51 321.33, 50.50 319.50 C 51.67 313.16, 53.15 308.36, 54.50 303.50 C 54.00 299.49, 56.28 297.63, 55.50 294.50 C 58.14 288.37, 57.40 281.85, 59.50 276.50 C 59.63 269.28, 61.82 263.91, 61.50 257.50 C 62.45 250.34, 64.21 244.93, 63.50 238.50 C 62.91 233.09, 65.59 224.73, 59.50 224.50 Z" fill="rgb(79.46477445514445,32.094272681196145,55.955397871262036)" stroke="rgb(79.46477445514445,32.094272681196145,55.955397871262036)" stroke-width="1" />
<path d="M 358.50 13.50 C 354.01 15.58, 349.02 16.48, 344.50 18.50 C 338.26 21.51, 336.01 25.37, 339.50 30.50 C 339.58 33.83, 340.60 38.78, 343.50 35.50 C 346.70 31.70, 350.04 31.67, 352.50 29.50 C 358.26 25.51, 365.14 26.63, 371.50 26.50 C 379.19 27.83, 385.42 30.28, 390.50 35.50 C 395.01 40.15, 399.06 43.58, 399.50 48.50 C 401.49 53.36, 402.75 57.12, 402.50 61.50 C 402.57 66.47, 401.42 69.94, 400.50 73.50 C 406.60 73.89, 410.24 69.74, 415.50 69.50 C 416.08 64.20, 417.48 58.15, 415.50 53.50 C 415.26 46.11, 411.61 41.12, 409.50 35.50 C 405.72 30.11, 402.49 26.83, 398.50 23.50 C 393.81 19.75, 389.87 17.60, 385.50 16.50 C 380.85 14.65, 376.91 13.51, 372.50 13.50 C 367.50 13.50, 363.50 13.50, 359.50 13.50 Z" fill="rgb(255.0,254.86383787207092,254.64154528182394)" stroke="rgb(255.0,254.86383787207092,254.64154528182394)" stroke-width="1" />
<path d="M 418.50 273.50 C 414.19 277.82, 418.00 283.68, 418.50 288.50 C 419.78 291.58, 420.70 293.81, 420.50 296.50 C 423.46 303.18, 425.11 309.00, 427.50 314.50 C 429.79 320.85, 432.39 326.08, 434.50 331.50 C 435.01 336.57, 440.34 336.44, 439.50 339.50 C 439.15 344.92, 446.96 357.54, 445.50 354.50 C 446.39 350.73, 454.70 345.08, 448.50 344.50 C 447.22 339.64, 451.36 337.60, 450.50 333.50 C 450.50 328.83, 450.50 325.17, 450.50 321.50 C 450.85 316.55, 448.72 313.63, 449.50 309.50 C 446.94 303.32, 443.25 298.60, 440.50 293.50 C 436.62 289.12, 433.15 286.50, 430.50 282.50 C 425.93 279.48, 424.73 273.43, 419.50 273.50 Z" fill="rgb(79.24963503649634,31.796350364963505,55.910218978102186)" stroke="rgb(79.24963503649634,31.796350364963505,55.910218978102186)" stroke-width="1" />
<path d="M 140.50 83.50 C 135.13 86.09, 129.16 87.22, 124.50 91.50 C 119.51 96.30, 108.58 100.19, 109.50 106.50 C 115.30 108.30, 121.23 108.82, 127.50 108.50 C 132.83 108.50, 137.17 108.50, 141.50 108.50 C 146.50 108.50, 150.50 108.50, 154.50 108.50 C 159.84 108.18, 164.79 109.35, 168.50 107.50 C 171.33 107.77, 173.21 107.13, 175.50 107.50 C 176.21 101.46, 172.99 97.63, 170.50 93.50 C 165.10 89.19, 160.89 85.42, 155.50 84.50 C 150.17 83.50, 145.83 83.50, 141.50 83.50 Z" fill="rgb(253.0431818181818,253.5530303030303,254.6560606060606)" stroke="rgb(253.0431818181818,253.5530303030303,254.6560606060606)" stroke-width="1" />
<path d="M 92.50 279.50 C 88.43 281.19, 84.71 283.72, 81.50 287.50 C 74.79 297.99, 48.92 317.74, 65.50 322.50 C 71.91 327.38, 71.08 337.38, 79.50 336.50 C 88.07 321.84, 107.73 295.12, 93.50 280.50 Z" fill="rgb(134.25,95.41666666666667,110.91666666666667)" stroke="rgb(134.25,95.41666666666667,110.91666666666667)" stroke-width="1" />
<path d="M 92.50 279.50 C 84.69 282.01, 79.01 290.40, 73.50 296.50 C 67.53 304.37, 62.69 311.30, 58.50 318.50 C 60.22 321.39, 65.39 321.19, 67.50 324.50 C 72.73 329.51, 72.55 338.15, 80.50 336.50 C 86.52 331.69, 87.31 324.00, 90.50 318.50 C 93.33 311.71, 94.79 305.34, 97.50 299.50 C 100.14 293.19, 101.70 280.95, 93.50 280.50 Z" fill="rgb(79.47166921898928,32.199846860643184,56.13782542113323)" stroke="rgb(79.47166921898928,32.199846860643184,56.13782542113323)" stroke-width="1" />
<path d="M 130.50 276.50 C 126.00 278.91, 120.79 279.59, 116.50 282.50 C 110.39 285.58, 104.99 287.93, 100.50 292.50 C 100.18 297.12, 98.32 300.09, 97.50 303.50 C 96.16 308.91, 93.40 312.32, 92.50 316.50 C 90.14 321.21, 88.99 325.43, 87.50 329.50 C 92.58 329.97, 95.70 328.12, 98.50 325.50 C 103.42 322.96, 107.51 320.87, 111.50 318.50 C 116.31 315.71, 120.46 313.73, 124.50 311.50 C 128.59 306.17, 126.84 299.42, 129.50 294.50 C 129.33 287.70, 132.68 281.36, 131.50 276.50 Z" fill="rgb(127.0928338762215,181.00895765472313,217.93648208469057)" stroke="rgb(127.0928338762215,181.00895765472313,217.93648208469057)" stroke-width="1" />
<path d="M 414.50 280.50 C 410.49 283.13, 405.95 284.50, 402.50 288.50 C 397.37 293.50, 393.86 297.76, 391.50 302.50 C 396.64 308.94, 403.66 315.45, 409.50 321.50 C 414.53 323.15, 416.01 329.95, 420.50 329.50 C 424.54 328.87, 430.11 330.78, 431.50 328.50 C 429.63 323.92, 428.37 320.08, 426.50 316.50 C 424.91 311.94, 422.97 308.52, 422.50 304.50 C 421.30 299.50, 418.70 296.50, 418.50 292.50 C 417.79 287.44, 415.21 284.56, 415.50 280.50 Z" fill="rgb(124.03336510962822,174.8274547187798,219.66253574833175)" stroke="rgb(124.03336510962822,174.8274547187798,219.66253574833175)" stroke-width="1" />
<path d="M 353.50 343.50 C 349.89 345.45, 345.23 344.86, 341.50 346.50 C 336.57 347.66, 332.60 348.74, 328.50 349.50 C 329.26 354.13, 330.31 358.05, 332.50 361.50 C 334.50 364.87, 334.04 369.71, 337.50 370.50 C 345.04 370.34, 350.59 367.77, 357.50 368.50 C 362.83 368.50, 367.17 368.50, 371.50 368.50 C 379.37 369.67, 386.43 370.39, 392.50 373.50 C 387.71 369.00, 383.36 366.84, 379.50 363.50 C 374.88 359.24, 370.23 357.48, 366.50 353.50 C 362.16 349.38, 357.98 347.29, 354.50 343.50 Z" fill="rgb(158.59055118110237,152.96259842519686,203.24311023622047)" stroke="rgb(158.59055118110237,152.96259842519686,203.24311023622047)" stroke-width="1" />
<path d="M 358.50 134.50 C 357.07 136.46, 352.29 134.39, 353.50 138.50 C 353.50 143.78, 353.00 148.26, 355.50 151.50 C 358.81 157.26, 363.40 161.07, 366.50 165.50 C 372.52 164.49, 375.48 157.51, 380.50 155.50 C 384.54 150.79, 388.24 148.68, 391.50 145.50 C 396.28 142.10, 399.72 138.90, 403.50 136.50 C 401.17 135.50, 397.83 135.50, 394.50 135.50 C 389.83 135.50, 386.17 135.50, 382.50 135.50 C 378.17 135.50, 374.83 135.50, 371.50 135.50 C 366.83 135.50, 363.17 135.50, 359.50 135.50 Z" fill="rgb(108.12633832976445,146.09528907922913,228.90578158458243)" stroke="rgb(108.12633832976445,146.09528907922913,228.90578158458243)" stroke-width="1" />
<path d="M 351.50 369.50 C 347.49 372.17, 334.67 368.95, 338.50 376.50 C 343.10 378.32, 346.90 378.68, 350.50 379.50 C 355.10 380.32, 358.90 380.68, 362.50 381.50 C 366.48 382.21, 369.66 382.44, 372.50 383.50 C 380.30 384.51, 386.96 385.86, 393.50 387.50 C 397.48 388.21, 400.66 388.44, 403.50 389.50 C 410.99 391.60, 418.06 392.29, 424.50 394.50 C 427.59 396.98, 430.04 394.53, 426.50 393.50 C 417.32 393.49, 411.61 388.51, 405.50 384.50 C 400.88 379.59, 396.72 376.97, 392.50 374.50 C 387.86 372.30, 383.47 371.90, 379.50 370.50 C 374.54 370.06, 370.85 368.99, 366.50 369.50 C 361.17 369.50, 356.83 369.50, 352.50 369.50 Z" fill="rgb(108.61060948081264,145.74604966139955,228.16930022573362)" stroke="rgb(108.61060948081264,145.74604966139955,228.16930022573362)" stroke-width="1" />
<path d="M 134.50 477.50 C 130.00 481.13, 126.76 490.29, 132.50 493.50 C 136.49 494.99, 140.15 494.87, 143.50 495.50 C 149.83 495.04, 154.04 497.28, 159.50 496.50 C 166.04 496.32, 171.47 496.44, 176.50 497.50 C 184.17 497.50, 190.83 497.50, 197.50 497.50 C 203.48 497.11, 208.14 495.96, 213.50 496.50 C 222.92 496.10, 223.01 493.75, 214.50 494.50 C 207.05 495.24, 201.89 492.89, 195.50 493.50 C 188.00 492.70, 182.38 490.80, 176.50 489.50 C 170.98 488.96, 167.27 486.45, 162.50 486.50 C 156.99 484.60, 152.50 483.63, 148.50 481.50 C 143.33 480.57, 139.75 478.23, 135.50 477.50 Z" fill="rgb(251.68278301886792,163.5884433962264,153.68632075471697)" stroke="rgb(251.68278301886792,163.5884433962264,153.68632075471697)" stroke-width="1" />
<path d="M 180.50 317.50 C 183.27 324.47, 180.29 325.47, 177.50 331.50 C 178.10 338.76, 172.15 343.34, 167.50 346.50 C 161.38 350.22, 156.40 353.25, 151.50 356.50 C 147.75 357.63, 145.25 359.37, 142.50 360.50 C 147.54 361.25, 152.74 363.05, 158.50 363.50 C 165.72 365.44, 172.22 366.70, 178.50 368.50 C 180.99 363.90, 182.46 359.29, 183.50 354.50 C 185.74 349.88, 185.70 345.31, 187.50 341.50 C 182.54 327.36, 180.47 329.99, 180.50 318.50 Z" fill="rgb(108.57393483709274,145.76817042606515,228.08521303258146)" stroke="rgb(108.57393483709274,145.76817042606515,228.08521303258146)" stroke-width="1" />
<path d="M 430.50 108.50 C 418.09 112.09, 407.72 120.61, 397.50 129.50 C 392.00 126.29, 386.70 125.02, 381.50 123.50 C 373.14 124.03, 366.51 126.31, 361.50 132.50 C 363.50 133.50, 366.50 133.50, 369.50 133.50 C 376.83 133.50, 383.17 133.50, 389.50 133.50 C 396.71 132.88, 403.97 134.77, 409.50 132.50 C 417.55 124.15, 451.04 117.41, 431.50 108.50 Z" fill="rgb(248.23659305993692,250.01261829652998,253.77602523659306)" stroke="rgb(248.23659305993692,250.01261829652998,253.77602523659306)" stroke-width="1" />
<path d="M 252.50 351.50 C 249.39 354.03, 245.77 355.36, 242.50 357.50 C 237.21 360.00, 234.02 364.14, 230.50 367.50 C 228.55 371.94, 223.26 375.69, 226.50 379.50 C 233.56 380.87, 237.26 375.53, 241.50 371.50 C 246.59 365.87, 250.41 361.13, 254.50 356.50 C 260.09 360.92, 263.93 365.66, 267.50 370.50 C 273.00 375.70, 276.97 381.19, 283.50 380.50 C 285.22 371.76, 279.24 365.62, 273.50 361.50 C 266.40 356.94, 261.09 351.47, 253.50 351.50 Z" fill="rgb(135.5940054495913,73.27520435967303,96.88555858310627)" stroke="rgb(135.5940054495913,73.27520435967303,96.88555858310627)" stroke-width="1" />
<path d="M 430.50 108.50 C 427.61 110.11, 424.02 110.01, 421.50 112.50 C 414.07 116.93, 407.25 120.44, 401.50 126.50 C 394.15 132.64, 406.52 134.22, 409.50 132.50 C 415.24 129.02, 419.79 126.05, 424.50 123.50 C 429.65 119.93, 434.56 118.16, 439.50 116.50 C 444.28 110.95, 436.85 106.77, 431.50 108.50 Z" fill="rgb(252.610337972167,253.66600397614314,254.26441351888667)" stroke="rgb(252.610337972167,253.66600397614314,254.26441351888667)" stroke-width="1" />
<path d="M 324.50 330.50 C 322.77 336.63, 323.38 343.24, 326.50 348.50 C 331.77 347.20, 336.77 346.69, 341.50 345.50 C 345.59 343.10, 350.24 344.49, 353.50 342.50 C 348.15 338.46, 346.44 332.73, 342.50 330.50 C 336.17 330.50, 330.83 330.50, 325.50 330.50 Z" fill="rgb(108.54098360655738,146.08665105386416,228.72365339578454)" stroke="rgb(108.54098360655738,146.08665105386416,228.72365339578454)" stroke-width="1" />
<path d="M 97.50 366.50 C 88.32 370.88, 78.73 374.25, 69.50 378.50 C 72.64 383.44, 74.79 387.79, 78.50 391.50 C 82.01 387.30, 85.35 383.44, 88.50 379.50 C 92.33 375.24, 102.27 372.31, 97.50 367.50 Z" fill="rgb(109.31818181818181,145.3801652892562,227.0206611570248)" stroke="rgb(109.31818181818181,145.3801652892562,227.0206611570248)" stroke-width="1" />
<path d="M 329.50 299.50 C 328.86 304.18, 327.33 308.49, 327.50 313.50 C 327.19 319.92, 324.81 324.08, 325.50 329.50 C 331.15 328.24, 340.68 332.45, 341.50 326.50 C 338.55 321.89, 338.45 317.11, 335.50 313.50 C 334.06 308.41, 332.12 304.52, 330.50 300.50 Z" fill="rgb(143.7746031746032,209.64761904761906,208.26984126984127)" stroke="rgb(143.7746031746032,209.64761904761906,208.26984126984127)" stroke-width="1" />
<path d="M 274.50 123.50 C 269.66 126.36, 264.24 127.81, 258.50 128.50 C 252.85 130.48, 246.80 129.08, 241.50 129.50 C 240.24 135.67, 242.90 138.88, 247.50 139.50 C 253.42 138.78, 258.48 138.41, 262.50 135.50 C 268.25 132.95, 273.50 128.67, 275.50 123.50 Z" fill="rgb(125.76666666666667,66.39666666666666,81.44333333333333)" stroke="rgb(125.76666666666667,66.39666666666666,81.44333333333333)" stroke-width="1" />
<path d="M 182.50 240.50 C 179.38 245.23, 179.99 251.51, 177.50 256.50 C 176.88 263.18, 176.32 268.90, 175.50 274.50 C 174.78 280.94, 176.60 285.32, 176.50 290.50 C 177.37 296.55, 178.32 301.57, 179.50 306.50 C 180.75 312.87, 182.11 318.19, 183.50 323.50 C 184.73 326.33, 186.99 335.76, 186.50 331.50 C 186.70 327.81, 185.78 325.58, 184.50 323.50 C 183.66 317.10, 181.52 312.24, 181.50 306.50 C 179.97 301.78, 179.62 297.98, 178.50 294.50 C 178.66 289.30, 176.76 285.95, 177.50 281.50 C 177.01 273.82, 178.02 267.77, 178.50 261.50 C 179.07 253.57, 182.50 248.25, 182.50 241.50 Z" fill="rgb(167.78969957081546,146.51931330472104,159.06437768240343)" stroke="rgb(167.78969957081546,146.51931330472104,159.06437768240343)" stroke-width="1" />
<path d="M 55.50 325.50 C 39.89 351.22, 77.78 334.29, 55.50 325.50 Z" fill="rgb(183.9,123.4,132.2)" stroke="rgb(183.9,123.4,132.2)" stroke-width="1" />
<path d="M 54.50 326.50 C 48.93 331.04, 48.96 343.21, 58.50 341.50 C 68.17 339.12, 61.51 326.97, 55.50 326.50 Z" fill="rgb(84.53125,36.96875,60.875)" stroke="rgb(84.53125,36.96875,60.875)" stroke-width="1" />
<path d="M 296.50 410.50 C 294.70 412.46, 291.42 410.82, 289.50 412.50 C 283.68 412.81, 279.11 413.69, 274.50 414.50 C 266.92 414.24, 261.29 416.26, 254.50 415.50 C 246.37 416.28, 240.48 414.08, 233.50 414.50 C 239.53 416.56, 244.96 416.68, 250.50 416.50 C 256.34 417.37, 264.84 413.84, 265.50 420.50 C 267.17 427.38, 263.01 414.85, 268.50 416.50 C 275.29 416.27, 279.89 414.17, 285.50 414.50 C 289.83 413.84, 302.19 411.63, 297.50 410.50 Z" fill="rgb(155.8987341772152,88.91772151898734,106.60759493670886)" stroke="rgb(155.8987341772152,88.91772151898734,106.60759493670886)" stroke-width="1" />
<path d="M 401.50 406.50 C 398.51 407.99, 394.85 407.87, 391.50 408.50 C 385.06 409.78, 380.45 412.04, 375.50 413.50 C 373.19 414.88, 366.48 415.08, 368.50 416.50 C 375.53 414.90, 381.38 412.88, 387.50 411.50 C 394.29 408.87, 401.03 408.52, 407.50 407.50 C 416.99 406.11, 405.91 406.52, 402.50 406.50 Z" fill="rgb(152.84761904761905,86.53333333333333,105.08571428571429)" stroke="rgb(152.84761904761905,86.53333333333333,105.08571428571429)" stroke-width="1" />
<path d="M 54.50 328.50 C 48.92 332.48, 49.93 342.63, 58.50 340.50 C 62.33 339.76, 60.49 336.69, 59.50 334.50 C 58.03 331.38, 58.35 330.90, 54.50 329.50 Z" fill="rgb(79.0,31.0,55.0)" stroke="rgb(79.0,31.0,55.0)" stroke-width="1" />
<path d="M 378.50 295.50 C 371.53 298.43, 364.87 302.12, 358.50 306.50 C 353.90 308.21, 349.78 316.10, 355.50 311.50 C 359.60 307.61, 363.21 305.95, 366.50 303.50 C 370.47 300.41, 383.69 296.82, 379.50 295.50 Z" fill="rgb(175.34065934065933,153.5934065934066,164.47252747252747)" stroke="rgb(175.34065934065933,153.5934065934066,164.47252747252747)" stroke-width="1" />
<path d="M 96.50 366.50 C 92.31 368.85, 87.82 370.47, 83.50 372.50 C 76.84 375.42, 87.53 372.53, 90.50 373.50 C 95.95 374.63, 102.37 370.42, 97.50 366.50 Z" fill="rgb(160.67441860465115,153.53488372093022,202.46511627906978)" stroke="rgb(160.67441860465115,153.53488372093022,202.46511627906978)" stroke-width="1" />
<path d="M 476.50 305.50 C 471.05 306.33, 475.60 310.41, 474.50 314.50 C 474.62 322.52, 477.65 321.23, 478.50 315.50 C 478.72 311.76, 483.23 305.16, 477.50 305.50 Z" fill="rgb(124.59756097560975,174.17073170731706,217.21951219512195)" stroke="rgb(124.59756097560975,174.17073170731706,217.21951219512195)" stroke-width="1" />
<path d="M 127.50 309.50 C 124.36 311.98, 128.88 311.57, 130.50 311.50 C 139.94 312.70, 146.29 318.94, 152.50 325.50 C 150.95 319.98, 146.47 316.95, 142.50 314.50 C 137.44 311.50, 133.31 309.69, 128.50 309.50 Z" fill="rgb(171.775,149.625,161.15)" stroke="rgb(171.775,149.625,161.15)" stroke-width="1" />
<path d="M 180.50 314.50 C 179.98 319.23, 179.02 323.77, 178.50 328.50 C 180.97 329.57, 187.16 330.29, 183.50 326.50 C 182.06 322.35, 182.33 318.49, 180.50 315.50 Z" fill="rgb(127.87878787878788,179.4090909090909,216.46969696969697)" stroke="rgb(127.87878787878788,179.4090909090909,216.46969696969697)" stroke-width="1" />
<path d="M 253.50 76.50 C 254.35 83.62, 269.56 80.42, 267.50 76.50 C 262.96 78.62, 257.92 79.65, 254.50 76.50 Z" fill="rgb(120.52941176470588,62.627450980392155,78.3921568627451)" stroke="rgb(120.52941176470588,62.627450980392155,78.3921568627451)" stroke-width="1" />
<path d="M 54.50 357.50 C 53.42 362.30, 57.15 370.15, 60.50 373.50 C 57.85 368.10, 56.72 363.07, 54.50 358.50 Z" fill="rgb(162.4102564102564,94.58974358974359,101.97435897435898)" stroke="rgb(162.4102564102564,94.58974358974359,101.97435897435898)" stroke-width="1" />
<path d="M 459.50 386.50 C 456.08 390.80, 453.82 395.58, 449.50 399.50 C 454.98 397.74, 457.37 391.21, 460.50 386.50 Z" fill="rgb(160.92307692307693,93.46153846153847,101.12820512820512)" stroke="rgb(160.92307692307693,93.46153846153847,101.12820512820512)" stroke-width="1" />
</svg>