<svg xmlns="http://www.w3.org/2000/svg" width="3492" height="3589" viewbox="0 0 3492 3589">
<path d="M 1.71 1.75 C 1.71 36.80, 1.71 71.85, 1.71 106.90 C 1.71 146.62, 1.71 182.84, 1.71 219.06 C 1.71 258.78, 1.71 294.99, 1.71 331.21 C 1.71 370.93, 1.71 407.15, 1.71 443.37 C 1.71 483.09, 1.71 519.31, 1.71 555.52 C 1.71 595.25, 1.71 631.46, 1.71 667.68 C 1.71 707.40, 1.71 743.62, 1.71 779.84 C 1.71 819.56, 1.71 855.78, 1.71 891.99 C 1.71 931.71, 1.71 967.93, 1.71 1004.15 C 1.71 1043.87, 1.71 1080.09, 1.71 1116.31 C 1.71 1156.03, 1.71 1192.24, 1.71 1228.46 C 1.71 1268.18, 1.71 1304.40, 1.71 1340.62 C 1.71 1380.34, 1.71 1416.56, 1.71 1452.77 C 1.71 1492.50, 1.71 1528.71, 1.71 1564.93 C 1.71 1604.65, 1.71 1640.87, 1.71 1677.09 C 1.71 1716.81, 1.71 1753.03, 1.71 1789.24 C 1.71 1828.96, 1.71 1865.18, 1.71 1901.40 C 1.71 1941.12, 1.71 1977.34, 1.71 2013.56 C 1.71 2053.28, 1.71 2089.49, 1.71 2125.71 C 1.71 2165.43, 1.71 2201.65, 1.71 2237.87 C 1.71 2277.59, 1.71 2313.81, 1.71 2350.02 C 1.71 2389.75, 1.71 2425.96, 1.71 2462.18 C 1.71 2501.90, 1.71 2538.12, 1.71 2574.34 C 1.71 2614.06, 1.71 2650.28, 1.71 2686.49 C 1.71 2726.21, 1.71 2762.43, 1.71 2798.65 C 1.71 2838.37, 1.71 2874.59, 1.71 2910.81 C 1.71 2950.53, 1.71 2986.74, 1.71 3022.96 C 1.71 3062.68, 1.71 3098.90, 1.71 3135.12 C 1.71 3174.84, 1.71 3211.06, 1.71 3247.27 C 1.71 3287.00, 1.71 3323.21, 1.71 3359.43 C 1.71 3399.15, 1.71 3435.37, 1.71 3471.59 C 1.71 3511.31, 1.71 3547.53, 1.71 3583.74 C 35.81 3587.25, 69.91 3587.25, 104.01 3587.25 C 142.66 3587.25, 177.90 3587.25, 213.13 3587.25 C 251.78 3587.25, 287.02 3587.25, 322.26 3587.25 C 360.91 3587.25, 396.15 3587.25, 431.38 3587.25 C 470.03 3587.25, 505.27 3587.25, 540.51 3587.25 C 579.16 3587.25, 614.40 3587.25, 649.63 3587.25 C 688.28 3587.25, 723.52 3587.25, 758.76 3587.25 C 797.41 3587.25, 832.65 3587.25, 867.88 3587.25 C 906.53 3587.25, 941.77 3587.25, 977.01 3587.25 C 1015.66 3587.25, 1050.90 3587.25, 1086.13 3587.25 C 1124.78 3587.25, 1160.02 3587.25, 1195.26 3587.25 C 1233.91 3587.25, 1269.15 3587.25, 1304.38 3587.25 C 1343.03 3587.25, 1378.27 3587.25, 1413.51 3587.25 C 1452.16 3587.25, 1487.40 3587.25, 1522.63 3587.25 C 1561.28 3587.25, 1596.52 3587.25, 1631.76 3587.25 C 1670.41 3587.25, 1705.65 3587.25, 1740.88 3587.25 C 1779.53 3587.25, 1814.77 3587.25, 1850.01 3587.25 C 1888.66 3587.25, 1923.90 3587.25, 1959.13 3587.25 C 1997.78 3587.25, 2033.02 3587.25, 2068.26 3587.25 C 2106.91 3587.25, 2142.15 3587.25, 2177.38 3587.25 C 2216.03 3587.25, 2251.27 3587.25, 2286.51 3587.25 C 2325.16 3587.25, 2360.40 3587.25, 2395.63 3587.25 C 2434.28 3587.25, 2469.52 3587.25, 2504.76 3587.25 C 2543.41 3587.25, 2578.65 3587.25, 2613.88 3587.25 C 2652.53 3587.25, 2687.77 3587.25, 2723.01 3587.25 C 2761.66 3587.25, 2796.90 3587.25, 2832.13 3587.25 C 2870.78 3587.25, 2906.02 3587.25, 2941.26 3587.25 C 2979.91 3587.25, 3015.15 3587.25, 3050.38 3587.25 C 3089.03 3587.25, 3124.27 3587.25, 3159.51 3587.25 C 3198.16 3587.25, 3233.40 3587.25, 3268.63 3587.25 C 3307.28 3587.25, 3342.52 3587.25, 3377.76 3587.25 C 3416.41 3587.25, 3451.65 3587.25, 3486.88 3587.25 C 3490.29 3552.20, 3490.29 3517.15, 3490.29 3482.10 C 3490.29 3442.38, 3490.29 3406.16, 3490.29 3369.94 C 3490.29 3330.22, 3490.29 3294.01, 3490.29 3257.79 C 3490.29 3218.07, 3490.29 3181.85, 3490.29 3145.63 C 3490.29 3105.91, 3490.29 3069.69, 3490.29 3033.48 C 3490.29 2993.75, 3490.29 2957.54, 3490.29 2921.32 C 3490.29 2881.60, 3490.29 2845.38, 3490.29 2809.16 C 3490.29 2769.44, 3490.29 2733.22, 3490.29 2697.01 C 3490.29 2657.29, 3490.29 2621.07, 3490.29 2584.85 C 3490.29 2545.13, 3490.29 2508.91, 3490.29 2472.69 C 3490.29 2432.97, 3490.29 2396.76, 3490.29 2360.54 C 3490.29 2320.82, 3490.29 2284.60, 3490.29 2248.38 C 3490.29 2208.66, 3490.29 2172.44, 3490.29 2136.23 C 3490.29 2096.50, 3490.29 2060.29, 3490.29 2024.07 C 3490.29 1984.35, 3490.29 1948.13, 3490.29 1911.91 C 3490.29 1872.19, 3490.29 1835.97, 3490.29 1799.76 C 3490.29 1760.04, 3490.29 1723.82, 3490.29 1687.60 C 3490.29 1647.88, 3490.29 1611.66, 3490.29 1575.44 C 3490.29 1535.72, 3490.29 1499.51, 3490.29 1463.29 C 3490.29 1423.57, 3490.29 1387.35, 3490.29 1351.13 C 3490.29 1311.41, 3490.29 1275.19, 3490.29 1238.98 C 3490.29 1199.25, 3490.29 1163.04, 3490.29 1126.82 C 3490.29 1087.10, 3490.29 1050.88, 3490.29 1014.66 C 3490.29 974.94, 3490.29 938.72, 3490.29 902.51 C 3490.29 862.79, 3490.29 826.57, 3490.29 790.35 C 3490.29 750.63, 3490.29 714.41, 3490.29 678.19 C 3490.29 638.47, 3490.29 602.26, 3490.29 566.04 C 3490.29 526.32, 3490.29 490.10, 3490.29 453.88 C 3490.29 414.16, 3490.29 377.94, 3490.29 341.73 C 3490.29 302.00, 3490.29 265.79, 3490.29 229.57 C 3490.29 189.85, 3490.29 153.63, 3490.29 117.41 C 3490.29 77.69, 3490.29 41.47, 3490.29 5.26 C 3456.19 1.75, 3422.09 1.75, 3387.99 1.75 C 3349.34 1.75, 3314.10 1.75, 3278.87 1.75 C 3240.22 1.75, 3204.98 1.75, 3169.74 1.75 C 3131.09 1.75, 3095.85 1.75, 3060.62 1.75 C 3021.97 1.75, 2986.73 1.75, 2951.49 1.75 C 2912.84 1.75, 2877.60 1.75, 2842.37 1.75 C 2803.72 1.75, 2768.48 1.75, 2733.24 1.75 C 2694.59 1.75, 2659.35 1.75, 2624.12 1.75 C 2585.47 1.75, 2550.23 1.75, 2514.99 1.75 C 2476.34 1.75, 2441.10 1.75, 2405.87 1.75 C 2367.22 1.75, 2331.98 1.75, 2296.74 1.75 C 2258.09 1.75, 2222.85 1.75, 2187.62 1.75 C 2148.97 1.75, 2113.73 1.75, 2078.49 1.75 C 2039.84 1.75, 2004.60 1.75, 1969.37 1.75 C 1930.72 1.75, 1895.48 1.75, 1860.24 1.75 C 1821.59 1.75, 1786.35 1.75, 1751.12 1.75 C 1712.47 1.75, 1677.23 1.75, 1641.99 1.75 C 1603.34 1.75, 1568.10 1.75, 1532.87 1.75 C 1494.22 1.75, 1458.98 1.75, 1423.74 1.75 C 1385.09 1.75, 1349.85 1.75, 1314.62 1.75 C 1275.97 1.75, 1240.73 1.75, 1205.49 1.75 C 1166.84 1.75, 1131.60 1.75, 1096.37 1.75 C 1057.72 1.75, 1022.48 1.75, 987.24 1.75 C 948.59 1.75, 913.35 1.75, 878.12 1.75 C 839.47 1.75, 804.23 1.75, 768.99 1.75 C 730.34 1.75, 695.10 1.75, 659.87 1.75 C 621.22 1.75, 585.98 1.75, 550.74 1.75 C 512.09 1.75, 476.85 1.75, 441.62 1.75 C 402.97 1.75, 367.73 1.75, 332.49 1.75 C 293.84 1.75, 258.60 1.75, 223.37 1.75 C 184.72 1.75, 149.48 1.75, 114.24 1.75 C 75.59 1.75, 40.35 1.75, 5.12 1.75 Z" fill="rgb(nan,nan,nan)" stroke="rgb(nan,nan,nan)" stroke-width="1" />
<path d="M 1.71 1.75 C 1.71 36.80, 1.71 71.85, 1.71 106.90 C 1.71 146.62, 1.71 182.84, 1.71 219.06 C 1.71 258.78, 1.71 294.99, 1.71 331.21 C 1.71 370.93, 1.71 407.15, 1.71 443.37 C 1.71 483.09, 1.71 519.31, 1.71 555.52 C 1.71 595.25, 1.71 631.46, 1.71 667.68 C 1.71 707.40, 1.71 743.62, 1.71 779.84 C 1.71 819.56, 1.71 855.78, 1.71 891.99 C 1.71 931.71, 1.71 967.93, 1.71 1004.15 C 1.71 1043.87, 1.71 1080.09, 1.71 1116.31 C 1.71 1156.03, 1.71 1192.24, 1.71 1228.46 C 1.71 1268.18, 1.71 1304.40, 1.71 1340.62 C 1.71 1380.34, 1.71 1416.56, 1.71 1452.77 C 1.71 1492.50, 1.71 1528.71, 1.71 1564.93 C 1.71 1604.65, 1.71 1640.87, 1.71 1677.09 C 1.71 1716.81, 1.71 1753.03, 1.71 1789.24 C 1.71 1828.96, 1.71 1865.18, 1.71 1901.40 C 1.71 1941.12, 1.71 1977.34, 1.71 2013.56 C 1.71 2053.28, 1.71 2089.49, 1.71 2125.71 C 1.71 2165.43, 1.71 2201.65, 1.71 2237.87 C 1.71 2277.59, 1.71 2313.81, 1.71 2350.02 C 1.71 2389.75, 1.71 2425.96, 1.71 2462.18 C 1.71 2501.90, 1.71 2538.12, 1.71 2574.34 C 1.71 2614.06, 1.71 2650.28, 1.71 2686.49 C 1.71 2726.21, 1.71 2762.43, 1.71 2798.65 C 1.71 2838.37, 1.71 2874.59, 1.71 2910.81 C 1.71 2950.53, 1.71 2986.74, 1.71 3022.96 C 1.71 3062.68, 1.71 3098.90, 1.71 3135.12 C 1.71 3174.84, 1.71 3211.06, 1.71 3247.27 C 1.71 3287.00, 1.71 3323.21, 1.71 3359.43 C 1.71 3399.15, 1.71 3435.37, 1.71 3471.59 C 1.71 3511.31, 1.71 3547.53, 1.71 3583.74 C 35.81 3587.25, 69.91 3587.25, 104.01 3587.25 C 142.66 3587.25, 177.90 3587.25, 213.13 3587.25 C 251.78 3587.25, 287.02 3587.25, 322.26 3587.25 C 360.91 3587.25, 396.15 3587.25, 431.38 3587.25 C 470.03 3587.25, 505.27 3587.25, 540.51 3587.25 C 579.16 3587.25, 614.40 3587.25, 649.63 3587.25 C 688.28 3587.25, 723.52 3587.25, 758.76 3587.25 C 797.41 3587.25, 832.65 3587.25, 867.88 3587.25 C 906.53 3587.25, 941.77 3587.25, 977.01 3587.25 C 1015.66 3587.25, 1050.90 3587.25, 1086.13 3587.25 C 1124.78 3587.25, 1160.02 3587.25, 1195.26 3587.25 C 1233.91 3587.25, 1269.15 3587.25, 1304.38 3587.25 C 1343.03 3587.25, 1378.27 3587.25, 1413.51 3587.25 C 1452.16 3587.25, 1487.40 3587.25, 1522.63 3587.25 C 1561.28 3587.25, 1596.52 3587.25, 1631.76 3587.25 C 1670.41 3587.25, 1705.65 3587.25, 1740.88 3587.25 C 1779.53 3587.25, 1814.77 3587.25, 1850.01 3587.25 C 1888.66 3587.25, 1923.90 3587.25, 1959.13 3587.25 C 1997.78 3587.25, 2033.02 3587.25, 2068.26 3587.25 C 2106.91 3587.25, 2142.15 3587.25, 2177.38 3587.25 C 2216.03 3587.25, 2251.27 3587.25, 2286.51 3587.25 C 2325.16 3587.25, 2360.40 3587.25, 2395.63 3587.25 C 2434.28 3587.25, 2469.52 3587.25, 2504.76 3587.25 C 2543.41 3587.25, 2578.65 3587.25, 2613.88 3587.25 C 2652.53 3587.25, 2687.77 3587.25, 2723.01 3587.25 C 2761.66 3587.25, 2796.90 3587.25, 2832.13 3587.25 C 2870.78 3587.25, 2906.02 3587.25, 2941.26 3587.25 C 2979.91 3587.25, 3015.15 3587.25, 3050.38 3587.25 C 3089.03 3587.25, 3124.27 3587.25, 3159.51 3587.25 C 3198.16 3587.25, 3233.40 3587.25, 3268.63 3587.25 C 3307.28 3587.25, 3342.52 3587.25, 3377.76 3587.25 C 3416.41 3587.25, 3451.65 3587.25, 3486.88 3587.25 C 3490.29 3552.20, 3490.29 3517.15, 3490.29 3482.10 C 3490.29 3442.38, 3490.29 3406.16, 3490.29 3369.94 C 3490.29 3330.22, 3490.29 3294.01, 3490.29 3257.79 C 3490.29 3218.07, 3490.29 3181.85, 3490.29 3145.63 C 3490.29 3105.91, 3490.29 3069.69, 3490.29 3033.48 C 3490.29 2993.75, 3490.29 2957.54, 3490.29 2921.32 C 3490.29 2881.60, 3490.29 2845.38, 3490.29 2809.16 C 3490.29 2769.44, 3490.29 2733.22, 3490.29 2697.01 C 3490.29 2657.29, 3490.29 2621.07, 3490.29 2584.85 C 3490.29 2545.13, 3490.29 2508.91, 3490.29 2472.69 C 3490.29 2432.97, 3490.29 2396.76, 3490.29 2360.54 C 3490.29 2320.82, 3490.29 2284.60, 3490.29 2248.38 C 3490.29 2208.66, 3490.29 2172.44, 3490.29 2136.23 C 3490.29 2096.50, 3490.29 2060.29, 3490.29 2024.07 C 3490.29 1984.35, 3490.29 1948.13, 3490.29 1911.91 C 3490.29 1872.19, 3490.29 1835.97, 3490.29 1799.76 C 3490.29 1760.04, 3490.29 1723.82, 3490.29 1687.60 C 3490.29 1647.88, 3490.29 1611.66, 3490.29 1575.44 C 3490.29 1535.72, 3490.29 1499.51, 3490.29 1463.29 C 3490.29 1423.57, 3490.29 1387.35, 3490.29 1351.13 C 3490.29 1311.41, 3490.29 1275.19, 3490.29 1238.98 C 3490.29 1199.25, 3490.29 1163.04, 3490.29 1126.82 C 3490.29 1087.10, 3490.29 1050.88, 3490.29 1014.66 C 3490.29 974.94, 3490.29 938.72, 3490.29 902.51 C 3490.29 862.79, 3490.29 826.57, 3490.29 790.35 C 3490.29 750.63, 3490.29 714.41, 3490.29 678.19 C 3490.29 638.47, 3490.29 602.26, 3490.29 566.04 C 3490.29 526.32, 3490.29 490.10, 3490.29 453.88 C 3490.29 414.16, 3490.29 377.94, 3490.29 341.73 C 3490.29 302.00, 3490.29 265.79, 3490.29 229.57 C 3490.29 189.85, 3490.29 153.63, 3490.29 117.41 C 3490.29 77.69, 3490.29 41.47, 3490.29 5.26 C 3456.19 1.75, 3422.09 1.75, 3387.99 1.75 C 3349.34 1.75, 3314.10 1.75, 3278.87 1.75 C 3240.22 1.75, 3204.98 1.75, 3169.74 1.75 C 3131.09 1.75, 3095.85 1.75, 3060.62 1.75 C 3021.97 1.75, 2986.73 1.75, 2951.49 1.75 C 2912.84 1.75, 2877.60 1.75, 2842.37 1.75 C 2803.72 1.75, 2768.48 1.75, 2733.24 1.75 C 2694.59 1.75, 2659.35 1.75, 2624.12 1.75 C 2585.47 1.75, 2550.23 1.75, 2514.99 1.75 C 2476.34 1.75, 2441.10 1.75, 2405.87 1.75 C 2367.22 1.75, 2331.98 1.75, 2296.74 1.75 C 2258.09 1.75, 2222.85 1.75, 2187.62 1.75 C 2148.97 1.75, 2113.73 1.75, 2078.49 1.75 C 2039.84 1.75, 2004.60 1.75, 1969.37 1.75 C 1930.72 1.75, 1895.48 1.75, 1860.24 1.75 C 1821.59 1.75, 1786.35 1.75, 1751.12 1.75 C 1712.47 1.75, 1677.23 1.75, 1641.99 1.75 C 1603.34 1.75, 1568.10 1.75, 1532.87 1.75 C 1494.22 1.75, 1458.98 1.75, 1423.74 1.75 C 1385.09 1.75, 1349.85 1.75, 1314.62 1.75 C 1275.97 1.75, 1240.73 1.75, 1205.49 1.75 C 1166.84 1.75, 1131.60 1.75, 1096.37 1.75 C 1057.72 1.75, 1022.48 1.75, 987.24 1.75 C 948.59 1.75, 913.35 1.75, 878.12 1.75 C 839.47 1.75, 804.23 1.75, 768.99 1.75 C 730.34 1.75, 695.10 1.75, 659.87 1.75 C 621.22 1.75, 585.98 1.75, 550.74 1.75 C 512.09 1.75, 476.85 1.75, 441.62 1.75 C 402.97 1.75, 367.73 1.75, 332.49 1.75 C 293.84 1.75, 258.60 1.75, 223.37 1.75 C 184.72 1.75, 149.48 1.75, 114.24 1.75 C 75.59 1.75, 40.35 1.75, 5.12 1.75 Z" fill="rgb(219.2281268252269,222.79760564657067,201.03463125970347)" stroke="rgb(219.2281268252269,222.79760564657067,201.03463125970347)" stroke-width="1" />
<path d="M 1597.66 1785.74 C 1581.10 1815.61, 1576.16 1840.48, 1560.15 1873.36 C 1563.15 1900.86, 1537.68 1941.66, 1543.10 1971.50 C 1540.76 2001.80, 1538.99 2035.19, 1539.69 2066.13 C 1540.27 2102.38, 1548.68 2131.80, 1549.92 2164.27 C 1552.55 2200.89, 1554.09 2230.41, 1570.38 2258.90 C 1573.95 2317.06, 1538.46 2238.15, 1529.46 2220.34 C 1507.51 2192.74, 1483.18 2165.85, 1481.71 2129.22 C 1475.68 2086.02, 1435.54 2071.91, 1416.92 2038.09 C 1385.29 2009.07, 1356.89 1984.02, 1324.85 1967.99 C 1277.27 1966.71, 1274.80 1957.42, 1243.00 1936.45 C 1219.33 1903.00, 1176.06 1919.41, 1185.03 1957.48 C 1142.72 1965.25, 1126.40 1948.43, 1157.75 1999.54 C 1168.90 2017.45, 1243.28 2019.72, 1188.44 2041.59 C 1199.99 2073.16, 1221.57 2103.34, 1253.23 2125.71 C 1285.09 2156.04, 1322.49 2177.31, 1345.31 2213.33 C 1345.63 2256.97, 1374.31 2277.50, 1393.05 2307.97 C 1403.57 2354.26, 1452.33 2343.59, 1474.89 2371.05 C 1495.13 2403.16, 1474.83 2438.42, 1485.12 2469.19 C 1482.87 2507.42, 1502.97 2534.08, 1515.81 2563.82 C 1526.53 2598.18, 1530.80 2631.78, 1543.10 2661.96 C 1550.09 2694.31, 1553.09 2724.86, 1553.33 2756.59 C 1559.37 2791.00, 1563.75 2822.62, 1566.97 2854.73 C 1580.88 2918.99, 1580.63 2985.77, 1584.02 3051.00 C 1581.15 3089.49, 1594.35 3117.63, 1607.89 3145.63 C 1605.32 3182.26, 1612.04 3211.42, 1611.30 3243.77 C 1612.38 3280.05, 1612.03 3312.21, 1597.66 3338.40 C 1583.08 3369.82, 1560.82 3401.66, 1573.79 3436.54 C 1565.40 3467.77, 1609.99 3505.28, 1638.58 3492.62 C 1670.97 3462.34, 1702.36 3496.10, 1734.06 3499.63 C 1766.86 3504.37, 1801.42 3512.18, 1829.55 3499.63 C 1857.78 3483.30, 1913.53 3475.72, 1897.75 3433.03 C 1883.85 3402.65, 1887.21 3368.42, 1880.70 3338.40 C 1859.85 3307.87, 1854.28 3274.35, 1850.01 3240.26 C 1843.31 3203.91, 1834.51 3173.41, 1819.32 3145.63 C 1808.25 3111.91, 1798.41 3081.16, 1795.45 3047.50 C 1793.22 2978.50, 1796.87 2915.52, 1805.68 2854.73 C 1805.68 2819.68, 1805.68 2788.13, 1805.68 2756.59 C 1798.39 2721.74, 1787.44 2691.95, 1785.22 2658.45 C 1780.21 2625.74, 1777.21 2595.67, 1778.40 2563.82 C 1772.22 2522.76, 1801.69 2500.37, 1802.27 2465.69 C 1808.31 2423.81, 1851.10 2417.28, 1870.47 2385.07 C 1897.77 2352.61, 1914.88 2321.26, 1942.08 2290.44 C 1965.72 2259.80, 1991.18 2243.36, 2010.29 2209.83 C 2038.88 2180.66, 2037.35 2142.18, 2054.62 2111.69 C 2075.86 2078.43, 2094.74 2049.11, 2098.95 2013.56 C 2130.09 1984.74, 2095.13 1940.89, 2122.82 1918.92 C 2131.11 1880.23, 2093.41 1863.08, 2122.82 1827.80 C 2110.92 1776.63, 2063.59 1815.43, 2047.80 1838.31 C 2042.86 1874.96, 2028.64 1906.48, 2006.88 1929.44 C 2015.97 1963.62, 1989.49 1993.30, 1972.78 2013.56 C 1966.84 2043.68, 1925.98 2069.75, 1925.03 2104.68 C 1917.71 2152.13, 1879.64 2151.37, 1856.83 2178.28 C 1836.23 2194.77, 1801.88 2242.13, 1832.96 2258.90 C 1885.14 2299.00, 1825.28 2288.46, 1812.50 2304.46 C 1836.69 2343.47, 1794.05 2367.89, 1764.76 2357.03 C 1729.02 2351.30, 1689.87 2365.38, 1682.91 2325.49 C 1673.05 2291.73, 1667.13 2259.81, 1662.45 2227.35 C 1659.90 2191.94, 1660.13 2158.85, 1652.22 2129.22 C 1646.44 2096.83, 1648.40 2064.65, 1645.40 2034.58 C 1661.03 1999.22, 1647.57 1971.93, 1652.22 1936.45 C 1647.03 1900.72, 1677.73 1879.62, 1659.04 1841.82 C 1667.45 1778.39, 1608.04 1819.69, 1601.07 1785.74 Z" fill="rgb(155.05205106897333,120.97741180025686,83.15292991866234)" stroke="rgb(155.05205106897333,120.97741180025686,83.15292991866234)" stroke-width="1" />
<path d="M 1338.49 1550.91 C 1336.96 1581.53, 1326.27 1620.97, 1294.15 1606.99 C 1257.34 1598.46, 1231.89 1584.61, 1212.31 1561.43 C 1167.33 1541.09, 1194.13 1599.99, 1171.39 1621.01 C 1136.44 1605.26, 1120.97 1600.52, 1113.42 1649.05 C 1094.58 1682.80, 1100.24 1715.89, 1140.70 1715.64 C 1149.14 1752.20, 1203.57 1736.63, 1208.90 1775.22 C 1190.31 1805.71, 1200.60 1842.53, 1219.13 1866.35 C 1222.50 1899.37, 1254.16 1942.62, 1283.92 1915.42 C 1304.32 1898.18, 1327.60 1867.30, 1345.31 1848.83 C 1380.90 1856.15, 1367.76 1862.88, 1389.64 1894.39 C 1401.03 1917.61, 1442.77 1920.92, 1461.25 1897.89 C 1504.48 1886.44, 1494.49 1848.71, 1502.17 1817.28 C 1533.02 1783.15, 1481.40 1756.61, 1457.84 1757.70 C 1438.97 1737.34, 1428.24 1702.63, 1416.92 1673.58 C 1377.58 1658.70, 1417.07 1580.95, 1372.59 1614.00 C 1332.12 1583.23, 1389.45 1557.43, 1341.90 1550.91 Z" fill="rgb(86.52604422604422,99.17076167076166,62.38894348894349)" stroke="rgb(86.52604422604422,99.17076167076166,62.38894348894349)" stroke-width="1" />
<path d="M 1287.33 2164.27 C 1262.86 2174.28, 1281.02 2220.11, 1249.82 2223.85 C 1210.93 2196.47, 1217.92 2245.84, 1195.26 2255.39 C 1166.38 2248.81, 1149.17 2278.17, 1144.11 2300.96 C 1140.73 2330.94, 1116.10 2348.38, 1120.24 2378.06 C 1114.93 2404.20, 1133.87 2431.96, 1147.52 2448.16 C 1180.25 2452.54, 1181.44 2498.09, 1215.72 2490.22 C 1249.03 2493.72, 1258.20 2462.71, 1263.46 2507.74 C 1267.06 2538.28, 1293.39 2564.86, 1318.03 2556.81 C 1334.52 2537.94, 1368.28 2541.60, 1386.23 2556.81 C 1414.83 2548.42, 1434.86 2527.19, 1461.25 2521.76 C 1490.28 2510.53, 1471.07 2473.90, 1474.89 2455.17 C 1457.76 2429.69, 1493.19 2402.81, 1471.48 2378.06 C 1449.12 2355.83, 1424.21 2351.87, 1399.87 2346.52 C 1368.07 2362.32, 1345.30 2336.82, 1338.49 2311.47 C 1334.60 2282.95, 1346.17 2261.94, 1345.31 2234.36 C 1343.31 2200.25, 1305.98 2184.90, 1290.74 2164.27 Z" fill="rgb(84.2358121330724,94.6917808219178,68.23231758456808)" stroke="rgb(84.2358121330724,94.6917808219178,68.23231758456808)" stroke-width="1" />
<path d="M 523.46 881.48 C 497.51 903.97, 470.83 924.63, 438.21 930.55 C 403.13 953.22, 383.55 989.07, 359.77 1014.66 C 337.67 1048.07, 317.23 1078.88, 298.39 1105.79 C 296.67 1150.45, 240.49 1138.99, 219.96 1126.82 C 179.32 1106.59, 170.35 1152.68, 151.75 1172.38 C 164.54 1192.61, 145.70 1258.11, 161.98 1249.49 C 169.99 1196.41, 213.03 1222.28, 226.78 1249.49 C 237.10 1274.57, 266.89 1296.49, 294.98 1298.56 C 330.26 1291.43, 344.78 1253.12, 356.36 1224.96 C 381.24 1205.88, 425.67 1235.87, 407.51 1179.39 C 406.09 1140.07, 427.82 1114.10, 441.62 1084.76 C 471.66 1032.67, 507.70 1094.38, 516.64 1049.71 C 528.38 1016.06, 566.67 997.42, 595.07 1004.15 C 632.16 1052.58, 644.42 999.52, 656.46 972.60 C 631.69 957.19, 663.63 882.95, 615.53 909.52 C 581.83 918.96, 565.75 867.12, 526.87 881.48 Z" fill="rgb(217.81863117870722,219.5416349809886,143.00817490494296)" stroke="rgb(217.81863117870722,219.5416349809886,143.00817490494296)" stroke-width="1" />
<path d="M 2177.38 906.01 C 2147.37 944.30, 2134.12 971.41, 2129.64 1014.66 C 2127.54 1042.71, 2101.02 1049.88, 2092.13 1070.74 C 2087.79 1086.34, 2122.74 1101.86, 2105.77 1126.82 C 2107.51 1154.41, 2101.75 1167.58, 2088.72 1186.40 C 2078.29 1214.04, 2103.72 1225.87, 2105.77 1249.49 C 2126.33 1268.98, 2179.12 1279.21, 2211.49 1270.52 C 2261.96 1263.77, 2266.13 1204.03, 2293.33 1175.89 C 2279.85 1156.63, 2278.44 1130.22, 2296.74 1116.31 C 2326.64 1100.71, 2295.63 1075.35, 2313.79 1056.72 C 2330.35 1020.11, 2321.68 956.66, 2296.74 944.57 C 2274.94 949.43, 2260.95 931.80, 2238.77 941.06 C 2215.98 926.74, 2204.41 907.53, 2180.79 906.01 Z" fill="rgb(95.88013029315961,112.7058631921824,64.64820846905538)" stroke="rgb(95.88013029315961,112.7058631921824,64.64820846905538)" stroke-width="1" />
<path d="M 2385.40 671.19 C 2368.46 672.44, 2349.65 695.70, 2337.66 674.69 C 2316.46 680.63, 2318.31 711.86, 2306.97 727.26 C 2305.63 770.88, 2203.03 752.72, 2238.77 811.38 C 2244.21 844.42, 2275.20 837.12, 2286.51 853.44 C 2298.53 883.01, 2333.04 848.79, 2341.07 874.47 C 2380.66 894.56, 2427.27 900.50, 2457.02 934.05 C 2495.85 922.94, 2556.70 954.79, 2559.32 913.02 C 2557.66 896.65, 2510.05 885.85, 2549.09 867.46 C 2574.89 859.65, 2579.10 829.40, 2572.96 811.38 C 2585.11 754.37, 2533.34 732.38, 2494.53 723.76 C 2471.41 720.04, 2448.78 723.58, 2433.15 709.74 C 2414.69 691.67, 2419.66 661.61, 2388.81 671.19 Z" fill="rgb(177.90726817042608,181.92898913951547,74.49289891395155)" stroke="rgb(177.90726817042608,181.92898913951547,74.49289891395155)" stroke-width="1" />
<path d="M 1577.20 755.30 C 1559.99 775.90, 1551.77 804.72, 1526.04 818.39 C 1492.85 826.63, 1487.39 862.01, 1471.48 877.97 C 1446.53 884.58, 1430.47 915.31, 1406.69 895.50 C 1380.73 901.79, 1357.84 907.25, 1335.08 913.02 C 1284.32 923.66, 1249.56 1000.96, 1300.97 1032.19 C 1326.02 1046.13, 1339.48 1075.37, 1369.18 1070.74 C 1382.17 1102.09, 1426.49 1072.12, 1430.56 1098.78 C 1450.90 1104.81, 1487.07 1101.01, 1485.12 1074.25 C 1480.01 1044.23, 1469.90 1019.84, 1447.61 1000.64 C 1434.67 956.77, 1488.89 983.25, 1488.53 951.58 C 1486.13 913.85, 1525.53 922.26, 1543.10 909.52 C 1565.59 894.79, 1590.96 886.09, 1611.30 884.98 C 1649.79 842.07, 1589.68 876.57, 1601.07 846.43 C 1629.28 834.68, 1635.04 808.20, 1638.58 783.34 C 1616.08 764.23, 1588.54 796.76, 1580.61 755.30 Z" fill="rgb(149.83388925950635,168.96997998665776,97.99533022014677)" stroke="rgb(149.83388925950635,168.96997998665776,97.99533022014677)" stroke-width="1" />
<path d="M 1543.10 247.09 C 1497.13 250.16, 1496.73 313.42, 1447.61 313.69 C 1416.62 316.19, 1430.24 345.67, 1444.20 359.25 C 1454.89 380.40, 1449.79 398.11, 1454.43 418.83 C 1448.02 499.04, 1513.89 399.39, 1532.87 429.35 C 1512.96 502.58, 1559.56 430.21, 1587.43 474.91 C 1598.31 534.22, 1643.60 469.40, 1659.04 464.40 C 1687.31 450.33, 1685.84 432.07, 1682.91 411.82 C 1699.72 396.71, 1715.99 383.78, 1737.47 383.78 C 1752.75 366.15, 1719.08 350.10, 1706.78 345.23 C 1688.48 327.37, 1682.43 306.45, 1659.04 299.67 C 1624.34 258.03, 1593.89 244.13, 1546.51 247.09 Z" fill="rgb(227.19332901554404,226.18944300518135,160.52137305699483)" stroke="rgb(227.19332901554404,226.18944300518135,160.52137305699483)" stroke-width="1" />
<path d="M 2388.81 394.30 C 2358.76 415.97, 2308.90 398.63, 2330.84 450.38 C 2291.17 434.87, 2246.70 494.55, 2296.74 509.96 C 2357.72 488.03, 2312.32 559.56, 2303.56 583.56 C 2316.97 603.42, 2341.56 604.86, 2351.30 622.12 C 2359.57 638.89, 2355.72 674.51, 2378.58 660.67 C 2394.51 614.83, 2438.83 630.37, 2474.07 632.63 C 2504.04 628.36, 2549.08 610.27, 2535.45 569.54 C 2522.67 552.50, 2502.43 531.20, 2525.22 516.97 C 2515.92 500.29, 2488.72 490.99, 2491.12 467.90 C 2469.83 431.33, 2424.54 416.20, 2392.22 394.30 Z" fill="rgb(231.2432528409091,230.35511363636363,165.77024147727272)" stroke="rgb(231.2432528409091,230.35511363636363,165.77024147727272)" stroke-width="1" />
<path d="M 1202.08 1571.94 C 1179.51 1580.06, 1186.00 1603.23, 1174.80 1621.01 C 1148.99 1631.36, 1126.70 1582.23, 1127.06 1621.01 C 1108.31 1661.39, 1086.98 1716.19, 1147.52 1712.14 C 1161.40 1744.71, 1231.65 1781.10, 1243.00 1757.70 C 1232.58 1721.49, 1259.53 1755.89, 1270.28 1757.70 C 1284.76 1737.68, 1303.12 1721.00, 1324.85 1736.67 C 1341.81 1708.29, 1355.95 1766.92, 1372.59 1750.69 C 1396.18 1751.50, 1413.53 1746.80, 1399.87 1719.15 C 1424.21 1705.52, 1417.35 1682.72, 1410.10 1666.57 C 1374.79 1674.36, 1405.70 1638.22, 1393.05 1621.01 C 1392.03 1602.70, 1361.69 1631.48, 1348.72 1599.98 C 1313.08 1580.60, 1335.12 1642.59, 1314.62 1624.51 C 1302.77 1595.60, 1275.58 1627.19, 1260.05 1599.98 C 1237.84 1587.30, 1216.64 1597.50, 1205.49 1571.94 Z" fill="rgb(66.64485165794066,78.16055846422339,52.43891797556719)" stroke="rgb(66.64485165794066,78.16055846422339,52.43891797556719)" stroke-width="1" />
<path d="M 2637.76 1775.22 C 2622.68 1808.29, 2583.92 1838.53, 2555.91 1859.34 C 2545.76 1890.35, 2550.36 1947.20, 2579.78 1957.48 C 2609.65 1987.04, 2549.52 2024.19, 2593.42 2055.61 C 2614.28 2081.51, 2658.91 2043.33, 2692.32 2059.12 C 2728.07 2019.32, 2769.82 2069.54, 2780.98 2013.56 C 2753.18 2000.21, 2744.20 1958.76, 2736.65 1922.43 C 2720.36 1894.37, 2642.58 1917.08, 2678.68 1862.85 C 2699.43 1823.59, 2677.56 1785.24, 2641.17 1775.22 Z" fill="rgb(108.2680126682502,123.54117181314331,66.84718923198733)" stroke="rgb(108.2680126682502,123.54117181314331,66.84718923198733)" stroke-width="1" />
<path d="M 1996.65 846.43 C 1974.34 868.29, 1919.56 870.19, 1921.62 902.51 C 1912.73 946.66, 1843.62 939.09, 1863.65 986.62 C 1887.84 1010.60, 1945.55 1017.89, 1921.62 1060.23 C 1926.10 1090.03, 1956.90 1121.47, 1983.01 1116.31 C 2015.73 1102.96, 2015.68 1068.14, 2058.03 1074.25 C 2081.51 1060.33, 2071.04 1036.64, 2054.62 1032.19 C 2054.33 1008.19, 2078.89 1002.71, 2085.31 983.12 C 2120.68 963.84, 2092.94 905.69, 2058.03 913.02 C 2010.69 884.89, 2056.31 841.98, 2000.06 846.43 Z" fill="rgb(91.2887556221889,108.00269865067466,67.23298350824588)" stroke="rgb(91.2887556221889,108.00269865067466,67.23298350824588)" stroke-width="1" />
<path d="M 458.67 1599.98 C 428.16 1610.05, 408.29 1636.79, 407.51 1670.08 C 392.44 1700.73, 393.01 1733.08, 383.64 1761.20 C 367.33 1792.56, 359.36 1821.67, 370.00 1852.33 C 347.35 1875.88, 355.73 1934.96, 393.87 1915.42 C 432.21 1907.10, 449.96 1881.23, 475.72 1855.84 C 489.66 1827.40, 498.76 1793.39, 492.77 1764.71 C 510.71 1735.18, 547.42 1706.90, 526.87 1673.58 C 522.33 1634.29, 477.02 1619.17, 462.08 1599.98 Z" fill="rgb(169.18308227114716,180.69177288528388,100.09154113557358)" stroke="rgb(169.18308227114716,180.69177288528388,100.09154113557358)" stroke-width="1" />
<path d="M 980.42 2178.28 C 961.82 2208.16, 921.64 2186.62, 908.81 2206.32 C 875.46 2214.28, 863.38 2248.78, 857.65 2276.42 C 839.79 2296.94, 843.80 2360.79, 861.06 2314.98 C 869.21 2344.82, 872.39 2384.12, 905.40 2388.58 C 934.06 2382.34, 963.73 2379.92, 977.01 2353.53 C 1008.34 2362.89, 1037.61 2345.76, 1052.03 2321.98 C 1055.53 2289.64, 1038.15 2268.23, 1041.80 2237.87 C 1041.00 2201.47, 994.51 2203.49, 983.83 2178.28 Z" fill="rgb(70.58527341635084,84.60151597184624,53.63183540877098)" stroke="rgb(70.58527341635084,84.60151597184624,53.63183540877098)" stroke-width="1" />
<path d="M 1491.94 867.46 C 1464.14 880.67, 1441.51 906.72, 1406.69 902.51 C 1373.99 907.83, 1340.97 907.42, 1314.62 923.54 C 1284.74 941.14, 1265.43 980.83, 1280.51 1011.16 C 1308.06 1035.88, 1333.58 1070.17, 1369.18 1070.74 C 1399.09 1065.75, 1427.32 1071.12, 1433.97 1102.29 C 1473.16 1110.88, 1501.59 1071.17, 1474.89 1042.70 C 1451.01 1007.90, 1431.37 981.11, 1464.66 948.07 C 1458.55 906.78, 1510.55 897.80, 1495.35 867.46 Z" fill="rgb(99.4549583648751,116.46328538985617,73.38531415594247)" stroke="rgb(99.4549583648751,116.46328538985617,73.38531415594247)" stroke-width="1" />
<path d="M 2654.81 548.51 C 2643.05 584.66, 2597.67 574.98, 2586.60 604.59 C 2589.84 633.30, 2532.11 670.90, 2579.78 671.19 C 2611.91 670.89, 2640.82 662.71, 2644.58 702.73 C 2672.27 720.48, 2709.90 712.30, 2726.42 737.78 C 2747.87 789.39, 2759.46 716.88, 2784.39 713.24 C 2824.00 732.22, 2812.71 667.04, 2794.62 653.66 C 2789.52 616.75, 2755.76 609.15, 2736.65 583.56 C 2718.66 554.00, 2690.54 546.46, 2658.22 548.51 Z" fill="rgb(230.43847962382446,228.34404388714734,164.1453761755486)" stroke="rgb(230.43847962382446,228.34404388714734,164.1453761755486)" stroke-width="1" />
<path d="M 2388.81 671.19 C 2364.55 690.81, 2338.01 668.85, 2324.02 685.20 C 2307.63 710.01, 2316.11 755.26, 2283.10 755.30 C 2250.76 751.38, 2212.64 792.12, 2245.59 814.89 C 2266.64 839.14, 2288.53 860.59, 2317.20 863.95 C 2346.02 868.72, 2358.62 898.48, 2392.22 891.99 C 2408.15 874.19, 2431.97 838.64, 2416.10 814.89 C 2423.48 785.80, 2393.03 752.30, 2426.33 737.78 C 2454.65 720.87, 2414.26 674.90, 2392.22 671.19 Z" fill="rgb(206.4126530612245,204.00938775510204,95.24734693877551)" stroke="rgb(206.4126530612245,204.00938775510204,95.24734693877551)" stroke-width="1" />
<path d="M 1819.32 1677.09 C 1777.42 1671.65, 1798.43 1713.77, 1771.58 1733.16 C 1744.36 1773.47, 1807.89 1773.61, 1805.68 1810.27 C 1835.29 1822.73, 1844.61 1860.35, 1846.60 1883.87 C 1853.54 1912.12, 1876.53 1939.03, 1901.16 1932.94 C 1920.19 1907.28, 1924.26 1878.75, 1925.03 1848.83 C 1949.27 1827.34, 1958.50 1811.84, 1955.72 1775.22 C 1933.97 1750.03, 1900.87 1747.98, 1907.98 1708.63 C 1873.10 1706.18, 1853.65 1677.40, 1822.73 1677.09 Z" fill="rgb(84.69763365468887,99.27870289219983,64.40753724802805)" stroke="rgb(84.69763365468887,99.27870289219983,64.40753724802805)" stroke-width="1" />
<path d="M 1519.22 1245.99 C 1487.42 1275.35, 1439.80 1271.10, 1416.92 1309.07 C 1392.15 1329.47, 1395.45 1290.44, 1369.18 1302.06 C 1340.78 1293.78, 1342.55 1330.78, 1321.44 1337.11 C 1297.15 1343.03, 1317.62 1375.11, 1300.97 1386.18 C 1278.83 1385.82, 1259.61 1339.83, 1253.23 1365.15 C 1231.58 1424.33, 1290.85 1417.56, 1324.85 1407.21 C 1366.23 1424.45, 1387.74 1427.84, 1427.15 1407.21 C 1393.46 1346.57, 1461.05 1379.75, 1488.53 1372.16 C 1494.70 1329.57, 1524.11 1390.78, 1532.87 1361.65 C 1513.37 1325.11, 1561.32 1350.21, 1560.15 1330.10 C 1574.85 1279.72, 1576.51 1260.37, 1522.63 1245.99 Z" fill="rgb(76.05197505197505,89.88981288981289,57.27609147609147)" stroke="rgb(76.05197505197505,89.88981288981289,57.27609147609147)" stroke-width="1" />
<path d="M 2204.67 1049.71 C 2178.76 1080.83, 2136.14 1046.79, 2112.59 1074.25 C 2076.66 1073.81, 2128.40 1127.72, 2105.77 1154.86 C 2080.29 1184.55, 2082.30 1215.49, 2109.18 1245.99 C 2120.02 1205.64, 2161.31 1286.47, 2187.62 1260.01 C 2236.61 1285.10, 2214.68 1228.43, 2225.13 1200.42 C 2253.39 1189.23, 2312.82 1180.66, 2262.64 1186.40 C 2264.56 1150.34, 2258.94 1102.11, 2231.95 1112.80 C 2229.28 1104.69, 2191.36 1076.36, 2208.08 1049.71 Z" fill="rgb(60.52297592997812,76.66783369803063,50.83019693654267)" stroke="rgb(60.52297592997812,76.66783369803063,50.83019693654267)" stroke-width="1" />
<path d="M 2487.71 1386.18 C 2474.75 1406.58, 2460.27 1404.36, 2446.79 1393.19 C 2434.92 1403.47, 2436.48 1436.39, 2416.10 1424.73 C 2370.60 1407.90, 2386.45 1470.94, 2388.81 1494.83 C 2373.39 1556.14, 2430.43 1519.49, 2446.79 1543.90 C 2460.49 1517.81, 2512.93 1468.22, 2501.35 1526.38 C 2491.40 1585.91, 2528.21 1521.27, 2559.32 1522.87 C 2585.19 1579.88, 2611.48 1506.73, 2620.71 1480.81 C 2626.37 1421.89, 2575.65 1447.20, 2545.68 1438.75 C 2514.86 1425.52, 2544.81 1366.11, 2491.12 1386.18 Z" fill="rgb(182.797703180212,189.47703180212014,141.20980565371025)" stroke="rgb(182.797703180212,189.47703180212014,141.20980565371025)" stroke-width="1" />
<path d="M 492.77 1214.44 C 467.21 1225.36, 442.02 1234.98, 424.56 1260.01 C 395.36 1273.67, 379.44 1320.59, 410.92 1333.61 C 447.40 1324.56, 451.14 1354.71, 465.49 1375.67 C 455.94 1395.42, 445.94 1433.75, 458.67 1449.27 C 489.28 1440.26, 504.22 1411.33, 530.28 1396.70 C 568.92 1388.96, 540.70 1345.78, 560.97 1326.60 C 579.74 1307.23, 609.69 1274.14, 571.20 1263.51 C 540.57 1250.18, 531.61 1206.06, 496.18 1214.44 Z" fill="rgb(223.15135135135134,223.61081081081082,159.87567567567567)" stroke="rgb(223.15135135135134,223.61081081081082,159.87567567567567)" stroke-width="1" />
<path d="M 462.08 1621.01 C 436.57 1626.87, 423.45 1650.77, 421.15 1677.09 C 406.24 1679.25, 396.14 1692.75, 397.28 1726.15 C 397.58 1779.24, 385.48 1849.73, 434.79 1869.85 C 468.20 1869.37, 482.46 1843.06, 489.36 1817.28 C 505.94 1790.83, 474.60 1755.58, 506.41 1747.18 C 520.57 1721.53, 547.72 1696.74, 523.46 1673.58 C 523.21 1639.82, 489.41 1625.61, 465.49 1621.01 Z" fill="rgb(113.7509765625,130.294921875,63.8125)" stroke="rgb(113.7509765625,130.294921875,63.8125)" stroke-width="1" />
<path d="M 499.59 2178.28 C 468.76 2204.78, 448.83 2255.87, 410.92 2265.91 C 392.38 2302.86, 390.93 2342.13, 373.41 2374.56 C 382.19 2417.93, 437.53 2380.59, 424.56 2346.52 C 456.96 2334.55, 495.44 2340.96, 526.87 2346.52 C 526.67 2301.02, 581.47 2309.70, 608.71 2307.97 C 640.33 2297.39, 611.38 2293.41, 595.07 2297.45 C 587.86 2280.57, 596.56 2252.85, 578.02 2244.88 C 536.75 2231.98, 502.26 2271.19, 479.13 2241.37 C 529.83 2241.89, 553.61 2200.70, 503.00 2178.28 Z" fill="rgb(240.84719334719335,239.46257796257797,215.99480249480249)" stroke="rgb(240.84719334719335,239.46257796257797,215.99480249480249)" stroke-width="1" />
<path d="M 2457.02 1876.86 C 2418.08 1885.31, 2462.13 1914.01, 2460.43 1943.46 C 2437.48 1971.72, 2442.24 2008.28, 2422.92 2034.58 C 2427.50 2076.97, 2391.11 2087.77, 2381.99 2118.70 C 2406.39 2142.20, 2428.63 2080.43, 2457.02 2069.63 C 2492.73 2018.65, 2494.60 2091.95, 2528.63 2062.62 C 2549.31 2046.55, 2591.66 2006.06, 2555.91 1989.02 C 2507.12 1970.44, 2558.58 1932.50, 2549.09 1904.90 C 2522.10 1881.22, 2488.48 1885.94, 2460.43 1876.86 Z" fill="rgb(197.95942338494393,204.16604378003203,145.2706887346503)" stroke="rgb(197.95942338494393,204.16604378003203,145.2706887346503)" stroke-width="1" />
<path d="M 2231.95 1424.73 C 2222.08 1471.17, 2181.50 1449.24, 2160.33 1477.31 C 2135.09 1496.86, 2102.11 1475.95, 2075.08 1473.80 C 2051.42 1510.54, 2001.88 1467.93, 2010.29 1508.85 C 2013.19 1541.07, 2038.43 1576.69, 2013.70 1603.48 C 2026.61 1662.10, 2046.56 1567.11, 2078.49 1599.98 C 2119.51 1605.26, 2117.63 1555.69, 2153.51 1547.41 C 2193.27 1536.11, 2200.36 1491.22, 2231.95 1480.81 C 2276.05 1475.51, 2283.22 1420.44, 2235.36 1424.73 Z" fill="rgb(201.13953488372093,204.76910299003322,172.67607973421926)" stroke="rgb(201.13953488372093,204.76910299003322,172.67607973421926)" stroke-width="1" />
<path d="M 3084.49 2080.15 C 3029.96 2076.96, 2986.24 2135.44, 2999.23 2192.30 C 3010.88 2246.16, 3040.13 2166.35, 3050.38 2199.31 C 3083.83 2200.18, 3079.35 2254.55, 3111.77 2230.86 C 3130.52 2225.64, 3191.67 2228.87, 3166.33 2209.83 C 3122.59 2219.29, 3199.06 2177.56, 3156.10 2178.28 C 3167.29 2144.73, 3168.24 2126.99, 3156.10 2097.67 C 3147.81 2058.37, 3105.61 2101.76, 3087.90 2080.15 Z" fill="rgb(185.95994993742178,193.60075093867334,94.74468085106383)" stroke="rgb(185.95994993742178,193.60075093867334,94.74468085106383)" stroke-width="1" />
<path d="M 496.18 1866.35 C 516.93 1888.26, 488.27 1910.20, 479.13 1939.95 C 469.19 1971.86, 430.91 1988.79, 441.62 2020.56 C 475.84 2036.61, 465.33 1970.88, 506.41 1989.02 C 540.65 1988.11, 542.24 2051.13, 567.79 2038.09 C 584.21 2025.38, 631.04 2041.09, 625.76 1996.03 C 644.66 1973.65, 634.86 1945.01, 653.04 1918.92 C 636.38 1892.18, 603.24 1899.31, 578.02 1904.90 C 542.72 1903.60, 519.66 1885.29, 499.59 1866.35 Z" fill="rgb(222.0356234096692,223.3027989821883,164.22010178117048)" stroke="rgb(222.0356234096692,223.3027989821883,164.22010178117048)" stroke-width="1" />
<path d="M 3111.77 1281.03 C 3089.05 1283.62, 3072.78 1302.19, 3050.38 1305.57 C 3024.04 1324.44, 3074.03 1339.42, 3036.74 1361.65 C 3041.04 1419.64, 3097.53 1439.93, 3139.05 1459.78 C 3165.47 1455.11, 3182.31 1432.11, 3203.84 1442.26 C 3219.06 1416.36, 3200.88 1396.07, 3197.02 1375.67 C 3198.76 1350.51, 3136.42 1349.99, 3166.33 1330.10 C 3147.88 1315.62, 3124.46 1303.69, 3115.18 1281.03 Z" fill="rgb(209.0516273849607,211.67340067340066,131.97250280583614)" stroke="rgb(209.0516273849607,211.67340067340066,131.97250280583614)" stroke-width="1" />
<path d="M 3203.84 1508.85 C 3196.73 1524.67, 3173.16 1579.37, 3169.74 1533.39 C 3154.01 1511.13, 3117.70 1530.20, 3115.18 1554.42 C 3101.70 1579.10, 3079.04 1592.26, 3081.08 1621.01 C 3069.80 1644.93, 3100.95 1669.59, 3087.90 1698.12 C 3079.26 1741.76, 3126.82 1724.15, 3139.05 1708.63 C 3162.36 1695.31, 3189.69 1675.88, 3186.79 1645.54 C 3201.78 1622.02, 3204.10 1596.89, 3220.89 1575.44 C 3241.96 1554.07, 3238.77 1510.82, 3207.25 1508.85 Z" fill="rgb(187.87366046249295,194.7698815566836,101.17992103778906)" stroke="rgb(187.87366046249295,194.7698815566836,101.17992103778906)" stroke-width="1" />
<path d="M 2109.18 632.63 C 2096.15 676.48, 2091.53 640.99, 2068.26 646.65 C 2030.93 645.59, 2062.97 700.53, 2037.57 709.74 C 2038.06 743.07, 2002.72 754.74, 2013.70 779.84 C 2044.86 779.74, 2072.11 787.85, 2075.08 818.39 C 2094.46 798.11, 2114.87 774.07, 2139.87 765.82 C 2148.16 730.46, 2179.70 719.73, 2204.67 709.74 C 2249.33 703.33, 2215.53 675.41, 2191.03 674.69 C 2160.89 664.93, 2142.92 633.44, 2112.59 632.63 Z" fill="rgb(148.92029395138496,170.9383832673827,107.69700395703788)" stroke="rgb(148.92029395138496,170.9383832673827,107.69700395703788)" stroke-width="1" />
<path d="M 2951.49 1147.85 C 2931.20 1171.61, 2915.61 1172.90, 2903.75 1165.37 C 2878.79 1172.51, 2858.18 1181.96, 2835.54 1186.40 C 2794.12 1178.75, 2818.56 1209.78, 2815.08 1231.97 C 2843.72 1244.89, 2853.42 1284.31, 2876.47 1288.04 C 2896.65 1277.32, 2930.19 1256.42, 2941.26 1281.03 C 2971.14 1298.61, 2968.86 1251.23, 2999.23 1260.01 C 3026.73 1218.93, 3011.75 1136.76, 2954.90 1147.85 Z" fill="rgb(182.9403409090909,181.16306818181818,56.63409090909091)" stroke="rgb(182.9403409090909,181.16306818181818,56.63409090909091)" stroke-width="1" />
<path d="M 1515.81 1729.66 C 1467.01 1756.19, 1561.69 1788.36, 1508.99 1820.79 C 1496.08 1854.80, 1533.66 1902.08, 1485.12 1908.41 C 1459.97 1972.52, 1427.32 1922.32, 1396.46 1950.47 C 1332.52 1952.19, 1367.08 1996.98, 1403.28 2020.56 C 1439.87 2053.97, 1464.14 1992.62, 1498.76 1989.02 C 1511.18 1953.53, 1515.32 1914.16, 1546.51 1901.40 C 1541.16 1859.94, 1568.80 1837.58, 1570.38 1799.76 C 1604.62 1778.50, 1540.40 1743.90, 1519.22 1729.66 Z" fill="rgb(199.4968152866242,205.7876857749469,166.5148619957537)" stroke="rgb(199.4968152866242,205.7876857749469,166.5148619957537)" stroke-width="1" />
<path d="M 704.20 2262.40 C 704.61 2310.90, 639.83 2318.59, 646.22 2374.56 C 621.55 2405.16, 609.71 2484.53, 673.51 2469.19 C 718.42 2448.81, 755.75 2419.84, 768.99 2374.56 C 782.52 2332.71, 751.91 2268.54, 707.61 2262.40 Z" fill="rgb(100.81888035126235,119.64983534577388,57.73216245883644)" stroke="rgb(100.81888035126235,119.64983534577388,57.73216245883644)" stroke-width="1" />
<path d="M 663.28 2013.56 C 622.85 2051.29, 579.62 2096.09, 578.02 2153.75 C 559.75 2175.58, 554.68 2211.85, 581.43 2220.34 C 606.71 2232.27, 636.33 2240.65, 635.99 2269.41 C 692.06 2257.36, 687.58 2184.04, 676.92 2139.73 C 670.07 2113.52, 645.82 2094.74, 653.04 2069.63 C 682.48 2068.16, 684.28 2025.45, 666.69 2013.56 Z" fill="rgb(110.33742331288343,129.22085889570553,64.71472392638037)" stroke="rgb(110.33742331288343,129.22085889570553,64.71472392638037)" stroke-width="1" />
<path d="M 3135.64 1726.15 C 3131.85 1754.30, 3089.77 1763.24, 3074.26 1743.68 C 3046.86 1763.09, 3060.92 1779.12, 3026.51 1792.75 C 3035.10 1823.80, 3006.75 1843.16, 2999.23 1869.85 C 2989.05 1917.48, 3026.19 1901.29, 3046.97 1887.38 C 3069.40 1920.69, 3107.31 1901.29, 3098.13 1866.35 C 3091.04 1832.36, 3113.59 1794.96, 3139.05 1824.29 C 3165.13 1822.14, 3204.09 1826.69, 3200.43 1796.25 C 3174.32 1777.36, 3166.23 1737.42, 3139.05 1726.15 Z" fill="rgb(253.33021806853583,253.10778816199377,250.01931464174456)" stroke="rgb(253.33021806853583,253.10778816199377,250.01931464174456)" stroke-width="1" />
<path d="M 3111.77 1817.28 C 3094.24 1834.64, 3104.04 1863.63, 3101.54 1887.38 C 3092.06 1910.80, 3073.50 1937.86, 3115.18 1939.95 C 3115.58 1967.22, 3134.87 1994.84, 3159.51 2003.04 C 3196.74 1997.68, 3192.64 1958.19, 3193.61 1936.45 C 3214.30 1920.72, 3202.67 1858.10, 3234.53 1887.38 C 3239.36 1933.20, 3258.52 1870.05, 3234.53 1859.34 C 3237.60 1823.50, 3214.60 1833.56, 3190.20 1820.79 C 3162.38 1837.78, 3140.50 1824.15, 3115.18 1817.28 Z" fill="rgb(226.66365688487585,226.45598194130926,157.70203160270881)" stroke="rgb(226.66365688487585,226.45598194130926,157.70203160270881)" stroke-width="1" />
<path d="M 2917.39 807.88 C 2899.13 822.43, 2883.93 851.99, 2856.01 835.91 C 2836.77 803.10, 2813.76 821.66, 2825.31 849.93 C 2833.91 878.10, 2845.09 882.01, 2818.49 906.01 C 2849.53 906.21, 2855.57 936.15, 2873.06 948.07 C 2903.27 922.79, 2912.01 964.75, 2937.85 958.59 C 2961.28 952.30, 2935.27 906.48, 2978.77 923.54 C 3011.14 904.23, 2974.53 881.24, 2968.54 860.45 C 2963.27 828.29, 2948.29 811.08, 2920.80 807.88 Z" fill="rgb(207.945963975984,210.91327551701133,128.17411607738492)" stroke="rgb(207.945963975984,210.91327551701133,128.17411607738492)" stroke-width="1" />
<path d="M 632.58 1705.13 C 608.63 1742.47, 567.02 1742.55, 554.15 1792.75 C 528.39 1805.38, 546.15 1837.97, 564.38 1841.82 C 586.98 1854.92, 610.72 1827.51, 622.35 1859.34 C 668.96 1863.97, 699.45 1831.21, 707.61 1789.24 C 719.01 1765.56, 677.81 1760.72, 680.33 1740.17 C 678.16 1708.57, 658.05 1705.61, 635.99 1705.13 Z" fill="rgb(99.96053511705685,121.15050167224081,56.43076923076923)" stroke="rgb(99.96053511705685,121.15050167224081,56.43076923076923)" stroke-width="1" />
<path d="M 1699.96 467.90 C 1689.19 480.95, 1698.35 511.22, 1679.50 527.48 C 1663.98 562.40, 1706.88 557.58, 1703.37 583.56 C 1691.28 612.26, 1712.57 630.82, 1734.06 636.14 C 1749.09 658.99, 1776.90 667.43, 1795.45 650.16 C 1818.13 639.96, 1806.32 607.22, 1809.09 590.57 C 1806.45 565.71, 1816.50 538.95, 1798.86 523.98 C 1784.70 495.67, 1785.32 489.69, 1754.53 502.95 C 1732.61 516.53, 1711.06 485.83, 1703.37 471.41 Z" fill="rgb(176.93450371370696,187.2430790006752,98.24172856178258)" stroke="rgb(176.93450371370696,187.2430790006752,98.24172856178258)" stroke-width="1" />
<path d="M 1246.41 765.82 C 1230.14 774.98, 1234.48 802.64, 1236.18 818.39 C 1250.00 847.26, 1191.35 833.30, 1222.54 860.45 C 1225.93 900.87, 1288.55 947.42, 1318.03 902.51 C 1328.67 863.17, 1383.19 837.11, 1358.95 793.86 C 1340.27 740.58, 1282.34 794.23, 1249.82 765.82 Z" fill="rgb(136.71418732782368,155.14669421487602,71.50757575757575)" stroke="rgb(136.71418732782368,155.14669421487602,71.50757575757575)" stroke-width="1" />
<path d="M 1914.80 2360.54 C 1894.19 2372.58, 1904.57 2418.22, 1867.06 2406.10 C 1839.52 2423.23, 1808.93 2437.73, 1812.50 2469.19 C 1833.46 2493.36, 1835.60 2515.85, 1839.78 2546.30 C 1846.94 2581.69, 1889.32 2573.68, 1901.16 2595.37 C 1919.84 2577.48, 1910.33 2535.31, 1945.49 2542.79 C 1955.31 2502.91, 1926.41 2484.20, 1911.39 2518.26 C 1897.79 2496.98, 1925.98 2469.38, 1921.62 2441.15 C 1892.85 2413.47, 1926.00 2384.98, 1918.21 2360.54 Z" fill="rgb(134.02843273231622,140.49445214979195,106.48196948682386)" stroke="rgb(134.02843273231622,140.49445214979195,106.48196948682386)" stroke-width="1" />
<path d="M 1641.99 1855.84 C 1614.26 1874.50, 1592.79 1899.66, 1580.61 1929.44 C 1547.74 1921.11, 1535.30 1942.94, 1536.28 1978.51 C 1568.21 1986.80, 1566.32 2016.45, 1590.84 2003.04 C 1584.33 2030.26, 1575.67 2067.72, 1601.07 2076.64 C 1600.25 2105.59, 1615.03 2134.84, 1628.35 2087.16 C 1625.88 2053.22, 1653.14 2027.98, 1652.22 2003.04 C 1654.07 1964.77, 1635.70 1956.63, 1645.40 1925.93 C 1647.81 1895.34, 1692.80 1867.61, 1645.40 1855.84 Z" fill="rgb(67.47457627118644,63.15677966101695,49.81214689265537)" stroke="rgb(67.47457627118644,63.15677966101695,49.81214689265537)" stroke-width="1" />
<path d="M 2255.82 1519.37 C 2233.22 1550.06, 2213.12 1539.49, 2187.62 1540.40 C 2152.19 1531.53, 2147.69 1578.80, 2126.23 1596.47 C 2095.13 1613.72, 2103.29 1655.62, 2136.46 1635.03 C 2163.56 1601.83, 2180.85 1661.01, 2211.49 1642.04 C 2239.27 1635.35, 2236.49 1601.86, 2255.82 1585.96 C 2289.54 1558.29, 2280.73 1601.07, 2300.15 1610.49 C 2314.48 1609.23, 2354.14 1563.46, 2324.02 1554.42 C 2312.65 1524.04, 2283.94 1540.98, 2259.23 1519.37 Z" fill="rgb(90.24096385542168,103.04039688164423,62.91778880226789)" stroke="rgb(90.24096385542168,103.04039688164423,62.91778880226789)" stroke-width="1" />
<path d="M 622.35 2609.39 C 602.52 2634.21, 585.42 2623.77, 557.56 2623.40 C 531.06 2605.34, 509.70 2634.09, 485.95 2626.91 C 457.90 2637.94, 435.25 2637.71, 465.49 2668.97 C 453.31 2702.42, 516.66 2669.36, 513.23 2704.02 C 532.48 2727.03, 561.83 2679.89, 574.61 2721.54 C 564.84 2753.71, 611.25 2750.81, 625.76 2735.56 C 635.07 2711.52, 675.44 2695.15, 639.40 2675.98 C 597.17 2660.26, 622.13 2619.65, 625.76 2612.89 Z" fill="rgb(204.57647907647907,209.1053391053391,126.96969696969697)" stroke="rgb(204.57647907647907,209.1053391053391,126.96969696969697)" stroke-width="1" />
<path d="M 2501.35 730.77 C 2488.87 743.69, 2454.41 732.09, 2457.02 758.81 C 2464.45 793.21, 2420.36 766.99, 2426.33 797.36 C 2440.51 839.75, 2402.21 893.68, 2463.84 881.48 C 2509.01 881.82, 2541.73 855.54, 2552.50 811.38 C 2597.58 778.15, 2542.79 734.06, 2504.76 730.77 Z" fill="rgb(147.56436363636362,156.93236363636365,65.92145454545455)" stroke="rgb(147.56436363636362,156.93236363636365,65.92145454545455)" stroke-width="1" />
<path d="M 2665.04 720.25 C 2614.75 733.76, 2637.22 786.51, 2613.88 814.89 C 2665.52 820.67, 2639.36 916.30, 2695.73 891.99 C 2730.68 871.66, 2751.69 850.78, 2746.88 804.37 C 2722.94 767.14, 2722.27 717.74, 2668.45 720.25 Z" fill="rgb(171.3088128186453,181.12818645302258,119.89075018208302)" stroke="rgb(171.3088128186453,181.12818645302258,119.89075018208302)" stroke-width="1" />
<path d="M 499.59 1989.02 C 473.73 1988.10, 472.81 2009.39, 462.08 2027.57 C 432.10 2041.92, 450.82 2072.83, 458.67 2083.65 C 423.57 2074.17, 463.08 2119.09, 434.79 2118.70 C 426.76 2146.18, 455.30 2159.78, 445.03 2181.79 C 481.93 2163.65, 527.64 2144.48, 543.92 2101.18 C 574.87 2060.48, 544.51 2000.06, 503.00 1989.02 Z" fill="rgb(131.72627737226279,146.3007299270073,75.17372262773722)" stroke="rgb(131.72627737226279,146.3007299270073,75.17372262773722)" stroke-width="1" />
<path d="M 312.03 2560.32 C 305.05 2579.91, 284.51 2593.73, 284.75 2616.40 C 304.97 2627.14, 315.24 2643.85, 315.44 2665.46 C 330.31 2677.47, 359.38 2673.66, 363.18 2693.50 C 361.44 2720.63, 406.08 2733.84, 407.51 2707.52 C 418.46 2664.75, 434.12 2627.83, 424.56 2584.85 C 414.50 2568.95, 391.60 2567.80, 373.41 2567.33 C 353.91 2593.05, 338.58 2551.95, 315.44 2560.32 Z" fill="rgb(228.93824228028504,228.41092636579572,169.44893111638956)" stroke="rgb(228.93824228028504,228.41092636579572,169.44893111638956)" stroke-width="1" />
<path d="M 407.51 2237.87 C 384.09 2244.48, 367.44 2269.36, 346.13 2286.94 C 314.59 2300.62, 294.98 2262.98, 274.52 2276.42 C 262.36 2298.96, 261.88 2327.07, 254.06 2346.52 C 238.12 2378.35, 281.23 2375.43, 298.39 2374.56 C 305.33 2413.91, 317.99 2412.92, 342.72 2395.59 C 375.09 2397.77, 371.37 2362.46, 383.64 2343.01 C 392.49 2318.66, 392.56 2294.07, 400.69 2272.92 C 415.26 2260.42, 456.77 2237.15, 410.92 2237.87 Z" fill="rgb(194.73809523809524,201.57142857142858,118.26785714285714)" stroke="rgb(194.73809523809524,201.57142857142858,118.26785714285714)" stroke-width="1" />
<path d="M 755.35 576.55 C 710.81 583.57, 644.19 608.14, 642.81 657.17 C 663.37 686.04, 650.26 798.81, 676.92 772.83 C 679.36 746.71, 677.39 722.22, 687.15 702.73 C 701.00 671.17, 727.61 698.83, 751.94 678.19 C 771.08 654.13, 782.39 633.75, 799.68 611.60 C 782.09 589.12, 801.80 567.74, 758.76 576.55 Z" fill="rgb(234.12423780487805,231.2576219512195,168.38490853658536)" stroke="rgb(234.12423780487805,231.2576219512195,168.38490853658536)" stroke-width="1" />
<path d="M 1768.17 934.05 C 1752.19 949.86, 1722.41 931.41, 1706.78 948.07 C 1688.53 967.93, 1703.05 993.76, 1706.78 1014.66 C 1719.64 1040.07, 1761.74 1034.60, 1757.94 1067.24 C 1768.13 1100.01, 1798.45 1081.46, 1805.68 1060.23 C 1809.25 1027.36, 1861.52 1052.11, 1850.01 1014.66 C 1853.19 990.46, 1849.78 964.04, 1839.78 944.57 C 1801.77 938.03, 1820.54 976.80, 1805.68 993.63 C 1787.04 977.57, 1775.70 957.54, 1771.58 934.05 Z" fill="rgb(163.57601222307105,182.34606569900689,106.89915966386555)" stroke="rgb(163.57601222307105,182.34606569900689,106.89915966386555)" stroke-width="1" />
<path d="M 1884.11 1705.13 C 1896.61 1751.16, 1832.34 1788.27, 1839.78 1841.82 C 1852.66 1864.94, 1846.66 1892.60, 1860.24 1911.91 C 1883.83 1930.78, 1898.99 1943.95, 1914.80 1908.41 C 1922.06 1884.01, 1928.76 1861.28, 1921.62 1838.31 C 1934.28 1815.28, 1964.07 1833.19, 1945.49 1792.75 C 1950.42 1748.20, 1923.92 1794.19, 1914.80 1757.70 C 1901.81 1737.96, 1919.59 1696.57, 1887.52 1705.13 Z" fill="rgb(66.583918813427,79.53708040593287,53.759562841530055)" stroke="rgb(66.583918813427,79.53708040593287,53.759562841530055)" stroke-width="1" />
<path d="M 2071.67 1473.80 C 2057.83 1504.52, 1985.44 1478.55, 2017.11 1540.40 C 2036.36 1568.74, 1994.13 1665.86, 2030.75 1624.51 C 2047.06 1597.29, 2064.54 1588.64, 2088.72 1599.98 C 2119.03 1600.92, 2115.01 1560.35, 2139.87 1554.42 C 2178.88 1514.09, 2112.44 1474.39, 2075.08 1473.80 Z" fill="rgb(156.7728,172.4648,106.8232)" stroke="rgb(156.7728,172.4648,106.8232)" stroke-width="1" />
<path d="M 356.36 1140.84 C 319.68 1166.08, 286.21 1151.60, 250.65 1175.89 C 244.63 1198.39, 240.42 1220.38, 257.47 1231.97 C 267.48 1255.91, 245.11 1274.76, 260.88 1291.55 C 308.64 1311.92, 340.33 1273.23, 352.95 1235.47 C 367.25 1214.61, 339.03 1186.03, 373.41 1182.90 C 395.26 1165.75, 375.35 1143.82, 359.77 1140.84 Z" fill="rgb(199.26601784266018,204.13057583130575,114.91078669910787)" stroke="rgb(199.26601784266018,204.13057583130575,114.91078669910787)" stroke-width="1" />
<path d="M 1304.38 460.89 C 1277.14 508.74, 1215.68 437.98, 1181.62 481.92 C 1182.12 531.51, 1289.17 486.90, 1273.69 534.49 C 1268.61 605.74, 1354.34 577.51, 1365.77 534.49 C 1427.48 501.92, 1349.19 456.95, 1307.79 460.89 Z" fill="rgb(165.5012987012987,176.1974025974026,111.9090909090909)" stroke="rgb(165.5012987012987,176.1974025974026,111.9090909090909)" stroke-width="1" />
<path d="M 2566.14 2206.32 C 2542.35 2225.50, 2457.71 2239.16, 2528.63 2255.39 C 2552.81 2284.94, 2566.46 2339.72, 2613.88 2343.01 C 2659.34 2348.71, 2699.64 2324.01, 2661.63 2283.43 C 2630.36 2269.29, 2660.34 2240.60, 2627.53 2234.36 C 2609.95 2205.78, 2577.38 2239.75, 2569.55 2206.32 Z" fill="rgb(215.36825396825398,216.17460317460316,184.0888888888889)" stroke="rgb(215.36825396825398,216.17460317460316,184.0888888888889)" stroke-width="1" />
<path d="M 2883.29 1918.92 C 2861.80 1957.01, 2799.31 1922.57, 2801.44 1982.01 C 2781.23 2005.98, 2797.35 2020.50, 2811.67 2034.58 C 2800.10 2061.76, 2813.94 2075.64, 2835.54 2062.62 C 2839.53 2132.91, 2882.54 2068.71, 2907.16 2041.59 C 2926.64 2016.70, 2892.74 2003.85, 2893.52 1982.01 C 2898.55 1960.57, 2897.81 1937.75, 2886.70 1922.43 Z" fill="rgb(235.72316865417378,235.190800681431,207.8901192504259)" stroke="rgb(235.72316865417378,235.190800681431,207.8901192504259)" stroke-width="1" />
<path d="M 1918.21 499.45 C 1906.27 519.17, 1893.90 529.97, 1873.88 538.00 C 1874.67 563.02, 1899.61 564.21, 1894.34 590.57 C 1871.62 642.28, 1931.35 683.33, 1952.31 629.13 C 1970.09 613.12, 1995.14 627.11, 2006.88 608.10 C 2019.29 585.69, 1998.25 564.78, 1996.65 552.02 C 1986.76 528.95, 1963.94 518.47, 1945.49 527.48 C 1910.30 527.98, 1963.33 494.30, 1921.62 499.45 Z" fill="rgb(184.74613003095976,198.6811145510836,126.984520123839)" stroke="rgb(184.74613003095976,198.6811145510836,126.984520123839)" stroke-width="1" />
<path d="M 380.23 2251.89 C 358.41 2307.95, 308.79 2283.48, 274.52 2276.42 C 261.59 2311.00, 253.29 2375.65, 298.39 2374.56 C 304.06 2400.93, 314.88 2421.14, 332.49 2395.59 C 358.30 2397.13, 371.45 2386.31, 373.41 2364.04 C 381.75 2325.97, 414.71 2275.18, 383.64 2251.89 Z" fill="rgb(185.73625429553263,194.5884879725086,98.2147766323024)" stroke="rgb(185.73625429553263,194.5884879725086,98.2147766323024)" stroke-width="1" />
<path d="M 1522.63 422.34 C 1489.71 431.71, 1477.05 466.72, 1481.71 499.45 C 1431.49 523.80, 1486.95 558.51, 1468.07 580.06 C 1439.46 558.31, 1382.07 604.37, 1427.15 615.11 C 1451.64 632.60, 1504.99 618.11, 1502.17 583.56 C 1531.05 567.68, 1553.18 538.90, 1556.74 523.98 C 1577.19 527.37, 1588.45 449.38, 1549.92 471.41 C 1515.24 491.26, 1552.30 537.72, 1498.76 513.47 C 1514.42 492.04, 1524.34 457.47, 1526.04 425.84 Z" fill="rgb(163.50775862068966,174.17155172413794,115.28103448275863)" stroke="rgb(163.50775862068966,174.17155172413794,115.28103448275863)" stroke-width="1" />
<path d="M 3115.18 1817.28 C 3090.06 1845.98, 3108.72 1877.89, 3101.54 1915.42 C 3113.06 1949.00, 3152.87 1973.60, 3183.38 1943.46 C 3195.59 1910.86, 3228.50 1874.75, 3214.07 1841.82 C 3190.71 1800.07, 3149.08 1849.30, 3118.59 1817.28 Z" fill="rgb(211.04192139737992,214.33799126637555,131.8585152838428)" stroke="rgb(211.04192139737992,214.33799126637555,131.8585152838428)" stroke-width="1" />
<path d="M 2071.67 1284.54 C 2096.13 1297.31, 2076.69 1324.24, 2054.62 1298.56 C 2044.87 1280.49, 2027.42 1329.67, 2006.88 1330.10 C 2008.39 1356.93, 2011.25 1388.90, 2040.98 1393.19 C 2050.43 1415.84, 1993.30 1414.17, 2040.98 1431.74 C 2049.46 1462.63, 2086.42 1439.75, 2098.95 1428.24 C 2068.67 1382.09, 2127.56 1433.83, 2133.05 1410.72 C 2152.85 1375.40, 2109.95 1365.87, 2098.95 1344.12 C 2103.60 1311.83, 2100.28 1295.32, 2075.08 1284.54 Z" fill="rgb(73.7070796460177,87.39734513274337,56.96637168141593)" stroke="rgb(73.7070796460177,87.39734513274337,56.96637168141593)" stroke-width="1" />
<path d="M 496.18 1214.44 C 455.77 1229.35, 401.73 1258.60, 393.87 1305.57 C 386.46 1330.95, 433.13 1349.96, 424.56 1312.58 C 445.19 1288.86, 475.57 1301.30, 492.77 1281.03 C 520.18 1252.83, 500.22 1311.92, 520.05 1316.08 C 546.63 1300.22, 564.48 1318.57, 581.43 1305.57 C 609.08 1279.01, 579.18 1259.64, 557.56 1260.01 C 538.09 1235.75, 528.59 1214.94, 499.59 1214.44 Z" fill="rgb(242.49184782608697,240.48007246376812,214.26992753623188)" stroke="rgb(242.49184782608697,240.48007246376812,214.26992753623188)" stroke-width="1" />
<path d="M 1754.53 1768.21 C 1746.95 1805.42, 1737.51 1834.70, 1730.65 1873.36 C 1734.10 1917.12, 1791.11 1892.83, 1809.09 1932.94 C 1854.42 1928.35, 1849.64 1871.41, 1829.55 1848.83 C 1809.17 1820.43, 1798.42 1777.98, 1757.94 1768.21 Z" fill="rgb(160.625468164794,175.23876404494382,116.42134831460675)" stroke="rgb(160.625468164794,175.23876404494382,116.42134831460675)" stroke-width="1" />
<path d="M 942.91 692.21 C 943.29 730.97, 893.27 753.80, 915.63 800.87 C 924.03 844.20, 972.63 883.85, 1011.11 867.46 C 992.19 820.04, 947.84 821.84, 1014.52 807.88 C 999.50 763.96, 995.20 716.78, 946.32 692.21 Z" fill="rgb(145.2420262664165,159.27298311444653,100.96060037523452)" stroke="rgb(145.2420262664165,159.27298311444653,100.96060037523452)" stroke-width="1" />
<path d="M 2545.68 604.59 C 2530.11 618.46, 2537.25 655.23, 2504.76 646.65 C 2479.50 629.75, 2460.40 647.57, 2436.56 636.14 C 2417.87 622.59, 2369.96 659.88, 2405.87 664.18 C 2433.93 668.17, 2419.84 713.46, 2453.61 706.23 C 2495.37 688.30, 2559.67 764.46, 2579.78 706.23 C 2575.14 676.95, 2533.64 685.59, 2545.68 650.16 C 2567.44 636.70, 2588.71 601.29, 2549.09 604.59 Z" fill="rgb(248.48964218455743,244.35687382297553,224.41242937853107)" stroke="rgb(248.48964218455743,244.35687382297553,224.41242937853107)" stroke-width="1" />
<path d="M 1546.51 2693.50 C 1543.24 2733.05, 1552.79 2767.13, 1560.15 2802.15 C 1562.04 2844.17, 1569.46 2880.34, 1573.79 2917.81 C 1581.59 2955.18, 1573.64 2995.75, 1580.61 3029.97 C 1582.64 3070.83, 1582.22 3119.58, 1611.30 3138.62 C 1638.34 3110.99, 1604.02 3069.73, 1607.89 3033.48 C 1605.49 2991.19, 1600.03 2955.16, 1597.66 2917.81 C 1597.16 2875.40, 1583.45 2843.57, 1584.02 2805.66 C 1575.15 2764.10, 1582.54 2716.77, 1549.92 2693.50 Z" fill="rgb(145.14744801512288,109.94517958412098,80.4007561436673)" stroke="rgb(145.14744801512288,109.94517958412098,80.4007561436673)" stroke-width="1" />
<path d="M 2985.59 2244.88 C 2945.73 2256.49, 2938.70 2311.86, 2896.93 2307.97 C 2905.39 2334.66, 2920.64 2388.14, 2954.90 2402.60 C 2972.76 2396.97, 2996.88 2376.34, 2975.36 2364.04 C 2984.48 2341.95, 3006.26 2359.50, 2999.23 2325.49 C 3024.59 2298.45, 3050.45 2234.77, 2989.00 2244.88 Z" fill="rgb(178.87196896217264,188.19592628516003,82.85838991270612)" stroke="rgb(178.87196896217264,188.19592628516003,82.85838991270612)" stroke-width="1" />
<path d="M 3081.08 2083.65 C 3043.90 2081.30, 3008.58 2113.26, 3002.64 2153.75 C 3020.81 2201.34, 3077.78 2150.16, 3091.31 2157.26 C 3092.83 2174.77, 3177.65 2174.02, 3159.51 2129.22 C 3163.14 2068.72, 3117.79 2091.22, 3084.49 2083.65 Z" fill="rgb(174.32146389713157,184.0979228486647,80.63105835806132)" stroke="rgb(174.32146389713157,184.0979228486647,80.63105835806132)" stroke-width="1" />
<path d="M 615.53 2076.64 C 572.47 2097.48, 590.69 2149.98, 560.97 2181.79 C 557.73 2236.08, 637.40 2220.89, 635.99 2265.91 C 677.37 2258.15, 662.22 2215.36, 659.87 2174.78 C 685.60 2133.51, 583.23 2138.05, 615.53 2080.15 Z" fill="rgb(89.5166163141994,109.79859013091641,53.94461228600201)" stroke="rgb(89.5166163141994,109.79859013091641,53.94461228600201)" stroke-width="1" />
<path d="M 2975.36 1831.30 C 2957.59 1849.48, 2934.34 1830.88, 2931.03 1855.84 C 2948.07 1877.17, 2917.41 1897.10, 2941.26 1911.91 C 2928.07 1939.70, 2938.69 1948.51, 2958.31 1964.49 C 2959.09 1990.34, 2928.41 2010.86, 2961.72 2024.07 C 2982.47 2045.87, 3011.39 1966.35, 3016.28 1936.45 C 2965.68 1910.07, 3026.84 1833.54, 2978.77 1831.30 Z" fill="rgb(178.27648839556005,185.9071644803229,96.7255297679112)" stroke="rgb(178.27648839556005,185.9071644803229,96.7255297679112)" stroke-width="1" />
<path d="M 618.94 1901.40 C 606.54 1931.60, 584.15 1936.56, 557.56 1922.43 C 542.51 1910.44, 486.89 1901.83, 499.59 1925.93 C 543.53 1937.61, 501.80 1954.16, 485.95 1957.48 C 474.19 1981.71, 430.27 1987.99, 445.03 2020.56 C 474.30 2032.45, 464.92 1976.90, 499.59 1985.52 C 532.19 1983.40, 545.65 2019.25, 554.15 2041.59 C 572.73 2028.17, 575.60 1994.73, 595.07 1978.51 C 617.25 1957.19, 623.26 1924.27, 622.35 1901.40 Z" fill="rgb(242.80384226491407,240.4216380182002,217.24368048533873)" stroke="rgb(242.80384226491407,240.4216380182002,217.24368048533873)" stroke-width="1" />
<path d="M 1669.27 306.68 C 1640.51 323.21, 1599.86 346.65, 1614.71 383.78 C 1584.23 423.17, 1630.16 463.03, 1648.81 439.86 C 1684.40 425.68, 1693.86 379.37, 1737.47 383.78 C 1743.53 347.77, 1683.82 342.19, 1672.68 306.68 Z" fill="rgb(215.86639260020556,217.6300102774923,142.42857142857142)" stroke="rgb(215.86639260020556,217.6300102774923,142.42857142857142)" stroke-width="1" />
<path d="M 496.18 1281.03 C 481.11 1298.61, 458.62 1297.75, 438.21 1302.06 C 418.27 1332.66, 455.32 1337.62, 458.67 1361.65 C 466.82 1386.45, 508.56 1399.67, 485.95 1424.73 C 458.98 1426.78, 456.05 1421.07, 458.67 1445.76 C 483.48 1440.63, 494.82 1424.16, 513.23 1410.72 C 535.64 1398.38, 562.72 1386.82, 554.15 1361.65 C 554.73 1341.12, 572.09 1296.36, 540.51 1316.08 C 508.39 1337.74, 511.69 1289.77, 499.59 1281.03 Z" fill="rgb(198.67805383022775,204.06832298136646,116.11180124223603)" stroke="rgb(198.67805383022775,204.06832298136646,116.11180124223603)" stroke-width="1" />
<path d="M 2944.67 1501.84 C 2931.85 1515.55, 2926.08 1553.45, 2948.08 1561.43 C 2978.68 1582.53, 2960.03 1612.05, 2934.44 1610.49 C 2912.77 1630.35, 2937.62 1651.10, 2934.44 1673.58 C 2929.57 1698.17, 2917.92 1727.85, 2948.08 1729.66 C 2971.62 1689.73, 2987.77 1644.92, 3019.69 1610.49 C 3017.14 1570.00, 2992.67 1593.40, 2978.77 1564.93 C 2991.44 1530.07, 2962.65 1523.06, 2948.08 1501.84 Z" fill="rgb(79.02323125659979,91.31467793030623,52.98416050686378)" stroke="rgb(79.02323125659979,91.31467793030623,52.98416050686378)" stroke-width="1" />
<path d="M 2160.33 741.28 C 2141.24 777.93, 2096.66 793.07, 2078.49 835.91 C 2026.42 864.23, 2087.46 923.04, 2122.82 891.99 C 2104.29 816.47, 2194.35 914.05, 2184.21 853.44 C 2157.15 818.04, 2185.71 772.99, 2163.74 741.28 Z" fill="rgb(231.65853658536585,231.9915164369035,199.30646871686108)" stroke="rgb(231.65853658536585,231.9915164369035,199.30646871686108)" stroke-width="1" />
<path d="M 2470.66 467.90 C 2450.96 496.44, 2448.35 531.55, 2443.38 562.53 C 2424.05 601.62, 2468.14 626.71, 2497.94 629.13 C 2521.77 611.99, 2561.01 584.39, 2521.81 555.52 C 2526.89 509.74, 2511.00 495.32, 2474.07 467.90 Z" fill="rgb(212.18597236981935,214.98193411264612,131.4431455897981)" stroke="rgb(212.18597236981935,214.98193411264612,131.4431455897981)" stroke-width="1" />
<path d="M 1028.16 485.43 C 1002.43 494.81, 954.12 521.40, 977.01 555.52 C 1020.56 555.78, 1005.22 615.76, 1045.21 594.08 C 1065.15 563.57, 1125.69 556.86, 1099.78 520.48 C 1103.94 475.80, 1060.60 486.02, 1031.57 485.43 Z" fill="rgb(164.94444444444446,174.80662393162393,123.86965811965813)" stroke="rgb(164.94444444444446,174.80662393162393,123.86965811965813)" stroke-width="1" />
<path d="M 2757.11 1028.68 C 2757.09 1049.46, 2748.08 1071.16, 2757.11 1091.77 C 2767.79 1122.28, 2808.52 1070.92, 2804.85 1112.80 C 2784.80 1138.22, 2821.99 1137.67, 2835.54 1154.86 C 2858.48 1164.92, 2891.49 1161.39, 2890.11 1130.32 C 2882.26 1106.01, 2890.96 1085.63, 2883.29 1063.73 C 2864.65 1027.52, 2839.64 1062.75, 2842.37 1084.76 C 2818.44 1107.76, 2856.90 1035.62, 2821.90 1056.72 C 2794.44 1062.22, 2768.97 1054.33, 2760.52 1028.68 Z" fill="rgb(133.978563772776,142.4823151125402,59.57984994640943)" stroke="rgb(133.978563772776,142.4823151125402,59.57984994640943)" stroke-width="1" />
<path d="M 318.85 2556.81 C 297.22 2575.51, 270.26 2624.42, 315.44 2633.92 C 352.55 2648.53, 357.33 2698.14, 393.87 2654.95 C 419.73 2640.89, 444.69 2590.60, 414.33 2574.34 C 374.70 2558.70, 355.78 2589.70, 322.26 2560.32 Z" fill="rgb(211.24104234527687,214.43648208469057,130.5884907709012)" stroke="rgb(211.24104234527687,214.43648208469057,130.5884907709012)" stroke-width="1" />
<path d="M 1662.45 2816.17 C 1653.02 2837.19, 1612.09 2846.90, 1645.40 2868.75 C 1655.43 2891.93, 1643.02 2914.24, 1641.99 2935.34 C 1646.06 2981.77, 1634.34 3032.25, 1669.27 3058.01 C 1695.53 3041.62, 1668.52 3013.47, 1693.14 2998.43 C 1700.99 2969.66, 1687.76 2953.69, 1689.73 2931.83 C 1692.84 2908.83, 1689.21 2890.23, 1693.14 2868.75 C 1672.05 2854.61, 1691.40 2812.29, 1665.86 2816.17 Z" fill="rgb(183.96851248642778,140.9370249728556,96.814332247557)" stroke="rgb(183.96851248642778,140.9370249728556,96.814332247557)" stroke-width="1" />
<path d="M 2596.83 2223.85 C 2576.68 2234.95, 2544.52 2269.58, 2552.50 2297.45 C 2579.97 2322.65, 2597.72 2358.45, 2634.35 2336.00 C 2673.40 2356.19, 2688.19 2307.04, 2661.63 2290.44 C 2641.38 2261.86, 2640.04 2230.04, 2600.24 2223.85 Z" fill="rgb(237.80363223609535,236.422247446084,214.49375709421113)" stroke="rgb(237.80363223609535,236.422247446084,214.49375709421113)" stroke-width="1" />
<path d="M 915.63 1845.32 C 913.96 1883.22, 870.87 1919.80, 837.19 1890.88 C 807.54 1889.59, 771.86 1955.67, 792.86 1982.01 C 828.09 2024.69, 855.49 1983.17, 881.53 1953.97 C 902.23 1922.15, 927.15 1882.73, 919.04 1845.32 Z" fill="rgb(209.59817351598173,213.7865296803653,143.90981735159818)" stroke="rgb(209.59817351598173,213.7865296803653,143.90981735159818)" stroke-width="1" />
<path d="M 397.28 2041.59 C 364.42 2055.94, 340.16 2084.56, 329.08 2118.70 C 309.87 2152.83, 278.38 2194.95, 335.90 2195.81 C 362.88 2200.89, 431.89 2182.05, 404.10 2146.74 C 389.14 2115.43, 382.78 2072.33, 400.69 2045.10 Z" fill="rgb(210.66933638443936,214.00572082379864,136.17734553775745)" stroke="rgb(210.66933638443936,214.00572082379864,136.17734553775745)" stroke-width="1" />
<path d="M 2402.46 1207.43 C 2374.86 1233.08, 2337.09 1252.35, 2334.25 1295.05 C 2329.45 1360.17, 2353.42 1326.83, 2388.81 1319.59 C 2427.12 1333.95, 2462.75 1339.97, 2429.74 1288.04 C 2411.48 1277.24, 2466.88 1219.31, 2405.87 1207.43 Z" fill="rgb(105.59133489461358,127.45316159250585,53.440281030444964)" stroke="rgb(105.59133489461358,127.45316159250585,53.440281030444964)" stroke-width="1" />
<path d="M 1969.37 527.48 C 1953.67 591.32, 1934.57 540.07, 1901.16 548.51 C 1903.40 588.02, 1879.54 623.89, 1904.57 650.16 C 1944.64 662.96, 1955.32 605.67, 1996.65 615.11 C 2031.47 587.06, 1983.80 547.20, 1972.78 527.48 Z" fill="rgb(151.021327014218,172.11966824644549,99.05568720379146)" stroke="rgb(151.021327014218,172.11966824644549,99.05568720379146)" stroke-width="1" />
<path d="M 2723.01 2122.21 C 2712.27 2139.94, 2677.58 2137.51, 2682.09 2167.77 C 2671.88 2203.61, 2710.71 2199.25, 2726.42 2188.80 C 2764.86 2195.33, 2702.84 2202.10, 2709.37 2227.35 C 2691.78 2254.60, 2666.35 2203.27, 2654.81 2234.36 C 2650.03 2262.59, 2683.92 2272.34, 2702.55 2279.93 C 2718.62 2306.92, 2755.54 2277.90, 2733.24 2255.39 C 2765.59 2213.29, 2761.22 2153.03, 2726.42 2122.21 Z" fill="rgb(109.66230677764565,122.27348394768133,62.07966706302022)" stroke="rgb(109.66230677764565,122.27348394768133,62.07966706302022)" stroke-width="1" />
<path d="M 2709.37 1904.90 C 2679.71 1930.65, 2697.27 1975.50, 2678.68 1999.54 C 2657.91 2055.08, 2708.13 2070.13, 2729.83 2027.57 C 2748.23 2082.89, 2812.86 1990.96, 2760.52 2003.04 C 2741.22 1967.64, 2745.38 1919.74, 2712.78 1904.90 Z" fill="rgb(108.79447115384616,124.77283653846153,65.52524038461539)" stroke="rgb(108.79447115384616,124.77283653846153,65.52524038461539)" stroke-width="1" />
<path d="M 987.24 643.15 C 963.81 668.02, 979.37 717.56, 1000.88 737.78 C 1010.15 768.69, 1015.75 828.03, 1062.26 804.37 C 1070.24 782.59, 1088.85 717.94, 1041.80 727.26 C 1048.44 690.05, 1023.03 646.38, 990.65 643.15 Z" fill="rgb(243.5306859205776,240.34416365824308,218.2406738868833)" stroke="rgb(243.5306859205776,240.34416365824308,218.2406738868833)" stroke-width="1" />
<path d="M 2105.77 271.63 C 2088.42 281.68, 2060.58 305.83, 2068.26 327.71 C 2089.54 344.71, 2072.16 384.56, 2047.80 376.77 C 1988.93 404.05, 2089.21 456.15, 2105.77 425.84 C 2108.90 397.78, 2162.61 411.92, 2150.10 383.78 C 2142.54 362.30, 2163.63 319.88, 2129.64 348.74 C 2122.59 381.42, 2081.29 370.60, 2092.13 341.73 C 2089.91 314.02, 2126.98 292.90, 2109.18 271.63 Z" fill="rgb(192.05575757575758,198.63636363636363,152.19636363636363)" stroke="rgb(192.05575757575758,198.63636363636363,152.19636363636363)" stroke-width="1" />
<path d="M 1324.85 460.89 C 1288.23 470.12, 1285.08 504.54, 1273.69 530.99 C 1254.38 562.31, 1304.45 596.85, 1321.44 573.05 C 1356.42 564.73, 1367.62 527.36, 1389.64 509.96 C 1383.56 493.86, 1354.77 468.48, 1328.26 460.89 Z" fill="rgb(134.07272727272726,147.2460606060606,80.30060606060606)" stroke="rgb(134.07272727272726,147.2460606060606,80.30060606060606)" stroke-width="1" />
<path d="M 963.37 2223.85 C 964.47 2260.21, 929.55 2277.44, 895.17 2276.42 C 858.18 2287.85, 864.45 2325.82, 878.12 2360.54 C 910.82 2373.69, 959.53 2341.79, 963.37 2307.97 C 972.76 2288.07, 1000.15 2280.69, 973.60 2262.40 C 982.17 2239.27, 995.38 2230.28, 966.78 2223.85 Z" fill="rgb(51.154981549815496,62.38622386223862,47.343173431734314)" stroke="rgb(51.154981549815496,62.38622386223862,47.343173431734314)" stroke-width="1" />
<path d="M 1508.99 1915.42 C 1478.11 1923.74, 1443.68 1978.04, 1413.51 1964.49 C 1460.06 1918.25, 1343.19 1964.96, 1362.36 1982.01 C 1400.68 2019.92, 1433.87 2060.70, 1464.66 2003.04 C 1504.39 1999.02, 1522.14 1937.06, 1512.40 1915.42 Z" fill="rgb(226.1177199504337,224.19578686493185,200.94919454770755)" stroke="rgb(226.1177199504337,224.19578686493185,200.94919454770755)" stroke-width="1" />
<path d="M 3033.33 1414.22 C 3018.01 1434.68, 3018.57 1497.25, 3057.21 1480.81 C 3072.34 1504.74, 3096.29 1584.39, 3115.18 1543.90 C 3118.72 1505.28, 3172.26 1502.21, 3139.05 1463.29 C 3099.75 1454.18, 3071.96 1425.00, 3036.74 1414.22 Z" fill="rgb(243.79900744416872,239.56079404466502,214.92803970223326)" stroke="rgb(243.79900744416872,239.56079404466502,214.92803970223326)" stroke-width="1" />
<path d="M 656.46 2346.52 C 650.77 2373.15, 634.40 2398.08, 629.17 2427.13 C 617.10 2468.13, 663.60 2470.53, 687.15 2465.69 C 717.97 2445.42, 745.02 2422.35, 741.71 2385.07 C 695.80 2399.77, 695.07 2351.16, 659.87 2346.52 Z" fill="rgb(79.06823821339951,98.74069478908189,52.71712158808933)" stroke="rgb(79.06823821339951,98.74069478908189,52.71712158808933)" stroke-width="1" />
<path d="M 1785.22 1918.92 C 1783.85 1955.36, 1783.51 1990.31, 1764.76 2017.06 C 1723.51 2060.37, 1776.02 2042.03, 1809.09 2055.61 C 1842.64 2078.36, 1877.00 2013.02, 1853.42 1996.03 C 1835.99 1959.15, 1813.53 1949.23, 1788.63 1918.92 Z" fill="rgb(130.25124378109453,140.27238805970148,100.3407960199005)" stroke="rgb(130.25124378109453,140.27238805970148,100.3407960199005)" stroke-width="1" />
<path d="M 2126.23 488.93 C 2086.60 511.59, 2050.04 539.67, 2030.75 580.06 C 2024.10 601.78, 1990.52 621.03, 2000.06 636.14 C 2022.69 631.22, 2045.96 636.33, 2061.44 622.12 C 2077.14 596.03, 2097.83 608.23, 2116.00 615.11 C 2147.83 608.88, 2144.72 569.88, 2119.41 576.55 C 2048.37 599.46, 2134.96 523.63, 2129.64 492.44 Z" fill="rgb(245.49687108886107,243.92115143929914,220.68085106382978)" stroke="rgb(245.49687108886107,243.92115143929914,220.68085106382978)" stroke-width="1" />
</svg>