<svg xmlns="http://www.w3.org/2000/svg" width="3492" height="3589" viewbox="0 0 3492 3589">
<path d="M 0.00 0.00 C 0.00 1194.00, 0.00 2387.99, 0.00 3581.99 C 1161.73 3585.50, 2323.45 3585.50, 3485.18 3585.50 C 3488.59 2391.50, 3488.59 1197.50, 3488.59 3.50 C 2326.86 0.00, 1165.14 0.00, 3.41 0.00 Z" fill="rgb(nan,nan,nan)" stroke="rgb(nan,nan,nan)" stroke-width="1" />
<path d="M 0.00 0.00 C 0.00 1194.00, 0.00 2387.99, 0.00 3581.99 C 1161.73 3585.50, 2323.45 3585.50, 3485.18 3585.50 C 3488.59 2391.50, 3488.59 1197.50, 3488.59 3.50 C 2326.86 0.00, 1165.14 0.00, 3.41 0.00 Z" fill="rgb(219.1849053745076,222.7502777701257,200.99164394002003)" stroke="rgb(219.1849053745076,222.7502777701257,200.99164394002003)" stroke-width="1" />
<path d="M 1595.95 1783.99 C 1579.39 1813.85, 1574.46 1838.73, 1558.44 1871.61 C 1561.44 1899.10, 1535.98 1939.91, 1541.39 1969.74 C 1536.21 2033.50, 1538.72 2102.44, 1548.21 2162.51 C 1550.84 2199.14, 1552.38 2228.66, 1568.67 2257.14 C 1576.01 2286.49, 1565.28 2286.45, 1551.62 2267.66 C 1545.06 2248.37, 1534.23 2234.41, 1527.75 2218.59 C 1505.80 2190.99, 1481.47 2164.10, 1480.01 2127.46 C 1473.98 2084.27, 1433.83 2070.16, 1415.21 2036.34 C 1383.59 2007.32, 1355.18 1982.27, 1323.14 1966.24 C 1304.86 1958.64, 1291.48 1961.85, 1275.40 1962.73 C 1269.71 1956.09, 1262.42 1935.20, 1241.30 1934.70 C 1230.81 1915.93, 1216.32 1916.14, 1200.38 1917.17 C 1176.87 1916.11, 1193.21 1945.91, 1183.32 1955.72 C 1168.54 1972.57, 1146.59 1962.61, 1142.40 1952.22 C 1126.71 1969.30, 1155.88 1981.19, 1156.04 1997.78 C 1160.15 2021.86, 1179.99 2006.92, 1193.55 2015.31 C 1217.84 2017.53, 1204.64 2044.75, 1186.73 2039.84 C 1198.29 2071.40, 1219.87 2101.58, 1251.53 2123.96 C 1283.39 2154.28, 1320.79 2175.55, 1343.60 2211.58 C 1343.92 2255.22, 1372.60 2275.75, 1391.34 2306.21 C 1401.87 2352.51, 1450.62 2341.84, 1473.19 2369.30 C 1493.43 2401.40, 1473.12 2436.67, 1483.42 2467.44 C 1481.17 2505.66, 1501.26 2532.32, 1514.11 2562.07 C 1524.83 2596.43, 1529.10 2630.02, 1541.39 2660.21 C 1552.97 2725.25, 1555.13 2790.81, 1565.26 2852.97 C 1579.17 2917.23, 1578.92 2984.02, 1582.31 3049.25 C 1579.45 3087.74, 1592.64 3115.88, 1606.18 3143.88 C 1603.61 3180.51, 1610.34 3209.67, 1609.59 3242.02 C 1610.68 3278.29, 1610.32 3310.45, 1595.95 3336.65 C 1581.37 3368.07, 1559.11 3399.91, 1572.08 3434.79 C 1563.69 3466.02, 1608.29 3503.53, 1636.88 3490.86 C 1669.26 3460.59, 1700.66 3494.35, 1732.36 3497.87 C 1765.16 3502.62, 1799.72 3510.43, 1827.84 3497.87 C 1856.08 3481.54, 1911.82 3473.97, 1896.05 3431.28 C 1882.14 3400.90, 1885.51 3366.67, 1879.00 3336.65 C 1858.15 3306.12, 1852.57 3272.59, 1848.30 3238.51 C 1838.93 3167.20, 1797.57 3114.46, 1793.74 3045.74 C 1791.52 2976.75, 1795.16 2913.76, 1803.97 2852.97 C 1803.97 2817.93, 1803.97 2786.38, 1803.97 2754.84 C 1796.68 2719.99, 1785.73 2690.20, 1783.51 2656.70 C 1778.50 2623.98, 1775.51 2593.92, 1776.69 2562.07 C 1770.52 2521.01, 1799.98 2498.62, 1800.56 2463.93 C 1806.61 2422.05, 1849.40 2415.53, 1868.77 2383.32 C 1896.06 2350.86, 1913.17 2319.50, 1940.38 2288.69 C 1964.02 2258.05, 1989.48 2241.61, 2008.58 2208.08 C 2037.17 2178.91, 2035.65 2140.42, 2052.91 2109.94 C 2074.16 2076.68, 2093.03 2047.36, 2097.25 2011.80 C 2094.37 1990.44, 2118.52 1982.63, 2114.30 1962.73 C 2105.89 1947.78, 2101.63 1921.27, 2121.12 1917.17 C 2131.34 1902.75, 2122.14 1881.13, 2114.30 1875.11 C 2096.22 1858.45, 2123.27 1843.01, 2121.12 1826.04 C 2123.31 1804.55, 2100.71 1799.67, 2087.02 1798.00 C 2069.96 1811.37, 2058.19 1827.09, 2046.09 1836.56 C 2041.15 1873.21, 2026.93 1904.72, 2005.17 1927.69 C 2007.05 1943.97, 2011.59 1966.46, 1994.94 1973.25 C 1983.72 1983.19, 1991.74 2014.08, 1971.07 2011.80 C 1965.13 2041.93, 1924.27 2067.99, 1923.33 2102.93 C 1916.01 2150.38, 1877.94 2149.62, 1855.12 2176.53 C 1849.34 2195.88, 1821.40 2192.82, 1824.43 2215.09 C 1823.29 2231.14, 1807.01 2256.73, 1831.25 2257.14 C 1840.70 2267.14, 1869.96 2282.29, 1848.30 2295.70 C 1835.42 2304.83, 1808.13 2271.47, 1810.79 2302.71 C 1834.99 2341.72, 1792.34 2366.14, 1763.05 2355.28 C 1727.32 2349.54, 1688.17 2363.63, 1681.21 2323.74 C 1658.52 2261.28, 1663.00 2190.76, 1650.52 2127.46 C 1644.74 2095.08, 1646.70 2062.90, 1643.70 2032.83 C 1659.33 1997.47, 1645.86 1970.17, 1650.52 1934.70 C 1655.18 1913.37, 1643.16 1900.26, 1660.75 1889.13 C 1673.12 1870.19, 1654.46 1856.23, 1657.34 1840.06 C 1656.81 1821.83, 1655.70 1798.30, 1636.88 1798.00 C 1613.57 1802.92, 1607.48 1807.69, 1599.36 1783.99 Z" fill="rgb(155.20684358948535,121.21988619196294,83.35003525027696)" stroke="rgb(155.20684358948535,121.21988619196294,83.35003525027696)" stroke-width="1" />
<path d="M 1336.78 1549.16 C 1335.26 1579.78, 1324.57 1619.22, 1292.45 1605.24 C 1270.54 1612.63, 1260.26 1596.10, 1248.12 1584.21 C 1222.81 1593.22, 1225.78 1567.79, 1210.61 1559.67 C 1165.62 1539.34, 1192.42 1598.24, 1169.68 1619.26 C 1151.46 1627.22, 1142.66 1604.32, 1128.76 1601.73 C 1128.95 1620.38, 1112.10 1630.34, 1111.71 1647.29 C 1092.87 1681.04, 1098.53 1714.14, 1138.99 1713.89 C 1157.19 1717.65, 1147.92 1746.41, 1169.68 1741.93 C 1189.00 1742.70, 1209.09 1755.47, 1207.20 1773.47 C 1188.61 1803.96, 1198.90 1840.77, 1217.43 1864.60 C 1220.79 1897.62, 1252.46 1940.87, 1282.22 1913.67 C 1302.62 1896.43, 1325.89 1865.55, 1343.60 1847.07 C 1361.28 1845.86, 1386.84 1856.72, 1360.65 1861.09 C 1376.64 1866.49, 1391.03 1872.02, 1387.93 1892.64 C 1382.84 1916.54, 1410.16 1911.71, 1418.62 1903.15 C 1436.67 1926.06, 1447.85 1903.23, 1459.55 1896.14 C 1502.78 1884.68, 1492.79 1846.96, 1500.47 1815.53 C 1531.32 1781.40, 1479.70 1754.85, 1456.14 1755.95 C 1437.26 1735.59, 1426.54 1700.88, 1415.21 1671.83 C 1375.88 1656.94, 1415.37 1579.20, 1370.88 1612.25 C 1353.93 1605.09, 1340.41 1578.48, 1360.65 1573.69 C 1368.73 1550.06, 1346.76 1565.70, 1340.19 1549.16 Z" fill="rgb(86.39205103042198,99.05127576054956,62.30961727183513)" stroke="rgb(86.39205103042198,99.05127576054956,62.30961727183513)" stroke-width="1" />
<path d="M 1285.63 2162.51 C 1261.16 2172.52, 1279.32 2218.36, 1248.12 2222.10 C 1209.22 2194.72, 1216.22 2244.09, 1193.55 2253.64 C 1164.67 2247.06, 1147.47 2276.41, 1142.40 2299.20 C 1139.02 2329.19, 1114.40 2346.63, 1118.53 2376.31 C 1113.22 2402.45, 1132.16 2430.21, 1145.81 2446.41 C 1178.54 2450.78, 1179.74 2496.34, 1214.02 2488.47 C 1247.33 2491.97, 1256.49 2460.96, 1261.76 2505.99 C 1265.36 2536.52, 1291.68 2563.10, 1316.32 2555.06 C 1332.81 2536.19, 1366.57 2539.85, 1384.52 2555.06 C 1413.13 2546.66, 1433.16 2525.44, 1459.55 2520.01 C 1488.58 2508.77, 1469.37 2472.15, 1473.19 2453.42 C 1456.05 2427.93, 1491.48 2401.05, 1469.78 2376.31 C 1447.41 2354.08, 1422.51 2350.12, 1398.16 2344.77 C 1366.37 2360.57, 1343.59 2335.07, 1336.78 2309.72 C 1332.90 2281.20, 1344.47 2260.19, 1343.60 2232.61 C 1341.61 2198.49, 1304.27 2183.15, 1289.04 2162.51 Z" fill="rgb(84.51040648135215,94.97276155887694,68.39684313451599)" stroke="rgb(84.51040648135215,94.97276155887694,68.39684313451599)" stroke-width="1" />
<path d="M 521.75 879.73 C 495.81 902.21, 469.12 922.87, 436.50 928.79 C 401.42 951.47, 381.84 987.32, 358.07 1012.91 C 335.97 1046.32, 315.52 1077.13, 296.68 1104.04 C 294.97 1148.69, 238.79 1137.23, 218.25 1125.07 C 177.61 1104.83, 168.64 1150.93, 150.05 1170.63 C 153.84 1189.33, 158.33 1200.32, 153.46 1216.19 C 151.97 1228.80, 153.63 1267.40, 160.28 1247.74 C 171.44 1235.02, 167.21 1208.61, 187.56 1212.69 C 197.87 1232.37, 222.50 1228.43, 225.07 1247.74 C 218.43 1273.75, 245.13 1259.61, 252.35 1275.78 C 259.17 1300.61, 279.70 1287.13, 293.27 1296.81 C 328.56 1289.68, 343.07 1251.37, 354.66 1223.20 C 366.71 1200.56, 381.39 1215.85, 395.58 1219.70 C 419.21 1212.89, 402.35 1193.19, 405.81 1177.64 C 404.39 1138.32, 426.11 1112.35, 439.91 1083.01 C 457.73 1073.23, 467.26 1054.86, 484.24 1054.97 C 493.20 1079.33, 514.59 1069.31, 514.93 1047.96 C 526.67 1014.31, 564.97 995.67, 593.37 1002.40 C 604.53 1017.75, 625.28 1030.88, 634.29 1019.92 C 633.96 997.22, 651.98 987.28, 654.75 970.85 C 631.36 962.67, 647.07 942.12, 644.52 928.79 C 647.61 903.47, 628.48 896.55, 613.83 907.76 C 580.13 917.21, 564.05 865.37, 525.16 879.73 Z" fill="rgb(218.36994877632327,219.99943084803644,144.12293682413204)" stroke="rgb(218.36994877632327,219.99943084803644,144.12293682413204)" stroke-width="1" />
<path d="M 2175.68 904.26 C 2155.79 917.91, 2158.27 945.05, 2141.58 956.83 C 2122.78 974.42, 2145.71 994.65, 2127.94 1012.91 C 2125.84 1040.96, 2099.32 1048.13, 2090.43 1068.99 C 2086.08 1084.59, 2121.04 1100.11, 2104.07 1125.07 C 2105.80 1152.66, 2100.05 1165.83, 2087.02 1184.65 C 2076.58 1212.29, 2102.02 1224.12, 2104.07 1247.74 C 2101.52 1273.89, 2137.13 1253.59, 2148.40 1265.26 C 2170.01 1281.04, 2189.55 1270.24, 2209.78 1268.77 C 2260.26 1262.02, 2264.43 1202.28, 2291.62 1174.14 C 2278.14 1154.87, 2276.74 1128.46, 2295.04 1114.55 C 2324.93 1098.96, 2293.92 1073.60, 2312.09 1054.97 C 2325.63 1037.09, 2315.14 1012.48, 2322.32 995.39 C 2308.06 978.41, 2316.87 937.19, 2295.04 942.81 C 2273.23 947.68, 2259.25 930.05, 2237.06 939.31 C 2214.28 924.99, 2202.70 905.78, 2179.09 904.26 Z" fill="rgb(96.01538461538462,112.830441898527,64.81702127659574)" stroke="rgb(96.01538461538462,112.830441898527,64.81702127659574)" stroke-width="1" />
<path d="M 2383.70 669.43 C 2366.76 670.69, 2347.95 693.95, 2335.96 672.94 C 2314.76 678.87, 2316.60 710.10, 2305.27 725.51 C 2311.82 760.40, 2276.40 749.89, 2260.93 757.05 C 2239.69 770.52, 2217.38 786.43, 2237.06 809.63 C 2242.51 842.66, 2273.49 835.37, 2284.80 851.69 C 2296.83 881.26, 2331.34 847.04, 2339.37 872.72 C 2378.96 892.81, 2425.57 898.75, 2455.31 932.30 C 2476.53 930.18, 2497.80 936.68, 2513.29 928.79 C 2537.50 929.44, 2560.76 945.27, 2557.62 911.27 C 2555.96 894.90, 2508.35 884.10, 2547.39 865.71 C 2573.19 857.90, 2577.40 827.64, 2571.26 809.63 C 2583.40 752.61, 2531.63 730.62, 2492.82 722.01 C 2469.70 718.29, 2447.07 721.82, 2431.44 707.99 C 2412.98 689.91, 2417.95 659.86, 2387.11 669.43 Z" fill="rgb(178.63758389261744,182.498322147651,75.76342281879195)" stroke="rgb(178.63758389261744,182.498322147651,75.76342281879195)" stroke-width="1" />
<path d="M 1575.49 753.55 C 1558.28 774.15, 1550.06 802.97, 1524.34 816.64 C 1491.15 824.88, 1485.69 860.25, 1469.78 876.22 C 1444.82 882.83, 1428.76 913.56, 1404.98 893.75 C 1379.02 900.04, 1356.13 905.50, 1333.37 911.27 C 1282.62 921.91, 1247.86 999.21, 1299.27 1030.44 C 1324.32 1044.38, 1337.77 1073.62, 1367.47 1068.99 C 1380.47 1100.34, 1424.78 1070.37, 1428.86 1097.03 C 1449.20 1103.05, 1485.37 1099.26, 1483.42 1072.49 C 1478.30 1042.48, 1468.20 1018.09, 1445.91 998.89 C 1432.96 955.02, 1487.18 981.50, 1486.83 949.82 C 1484.43 912.10, 1523.83 920.51, 1541.39 907.76 C 1563.88 893.03, 1589.26 884.33, 1609.59 883.23 C 1611.55 873.28, 1635.52 858.77, 1619.82 855.19 C 1606.41 865.18, 1587.11 860.90, 1599.36 844.68 C 1627.57 832.93, 1633.33 806.44, 1636.88 781.59 C 1629.76 765.58, 1613.25 771.13, 1606.18 778.08 C 1586.14 787.61, 1591.21 759.66, 1578.90 753.55 Z" fill="rgb(149.65225933202356,168.58284217419776,97.93123772102162)" stroke="rgb(149.65225933202356,168.58284217419776,97.93123772102162)" stroke-width="1" />
<path d="M 1541.39 245.34 C 1495.42 248.41, 1495.03 311.66, 1445.91 311.93 C 1414.92 314.44, 1428.54 343.91, 1442.50 357.50 C 1453.18 378.65, 1448.08 396.36, 1452.73 417.08 C 1448.57 443.04, 1455.19 453.07, 1476.60 452.13 C 1494.62 438.55, 1518.35 401.08, 1531.16 427.60 C 1535.36 449.26, 1523.08 471.83, 1534.57 466.15 C 1553.14 451.98, 1580.98 447.02, 1585.72 473.16 C 1587.30 492.28, 1603.23 519.44, 1619.82 490.68 C 1638.90 466.45, 1642.34 484.10, 1657.34 462.64 C 1685.61 448.58, 1684.13 430.32, 1681.21 410.07 C 1698.01 394.95, 1714.29 382.03, 1735.77 382.03 C 1751.05 364.39, 1717.37 348.34, 1705.08 343.48 C 1686.77 325.62, 1680.73 304.70, 1657.34 297.92 C 1622.63 256.27, 1592.18 242.38, 1544.80 245.34 Z" fill="rgb(227.4866344605475,226.45378421900162,161.19194847020933)" stroke="rgb(227.4866344605475,226.45378421900162,161.19194847020933)" stroke-width="1" />
<path d="M 2387.11 392.55 C 2374.41 405.20, 2358.07 408.81, 2339.37 406.57 C 2310.76 404.61, 2337.72 439.18, 2329.14 448.62 C 2309.37 461.77, 2291.03 438.54, 2277.98 462.64 C 2262.34 479.16, 2277.85 509.19, 2295.04 508.21 C 2312.67 496.87, 2339.94 503.23, 2325.73 525.73 C 2320.85 548.07, 2303.73 561.70, 2301.86 581.81 C 2315.27 601.67, 2339.85 603.11, 2349.60 620.36 C 2357.87 637.14, 2354.01 672.76, 2376.88 658.92 C 2392.81 613.08, 2437.13 628.62, 2472.36 630.88 C 2492.04 628.47, 2507.34 627.00, 2513.29 609.85 C 2541.05 612.63, 2538.02 583.21, 2533.75 567.79 C 2520.97 550.75, 2500.73 529.44, 2523.52 515.22 C 2514.22 498.54, 2487.02 489.24, 2489.41 466.15 C 2485.88 441.75, 2461.41 433.08, 2445.08 427.60 C 2423.15 419.57, 2413.39 389.79, 2390.52 392.55 Z" fill="rgb(231.55991516436904,230.6595970307529,166.81795687522091)" stroke="rgb(231.55991516436904,230.6595970307529,166.81795687522091)" stroke-width="1" />
<path d="M 1200.38 1570.19 C 1177.81 1578.31, 1184.30 1601.48, 1173.09 1619.26 C 1147.29 1629.61, 1125.00 1580.47, 1125.35 1619.26 C 1112.67 1639.93, 1112.03 1660.76, 1104.89 1678.84 C 1090.87 1707.91, 1132.28 1703.56, 1145.81 1710.38 C 1151.95 1734.93, 1174.51 1746.38, 1193.55 1748.94 C 1204.08 1761.66, 1245.15 1778.85, 1241.30 1755.95 C 1230.87 1719.74, 1257.83 1754.14, 1268.58 1755.95 C 1283.06 1735.93, 1301.42 1719.25, 1323.14 1734.92 C 1340.10 1706.54, 1354.25 1765.17, 1370.88 1748.94 C 1394.48 1749.75, 1411.82 1745.05, 1398.16 1717.39 C 1422.50 1703.77, 1415.65 1680.97, 1408.39 1664.82 C 1373.08 1672.60, 1403.99 1636.47, 1391.34 1619.26 C 1390.33 1600.95, 1359.98 1629.73, 1347.01 1598.23 C 1311.38 1578.84, 1333.41 1640.84, 1312.91 1622.76 C 1301.06 1593.85, 1273.87 1625.43, 1258.35 1598.23 C 1236.13 1585.54, 1214.93 1595.75, 1203.79 1570.19 Z" fill="rgb(67.02649199417759,78.54992721979622,52.5863173216885)" stroke="rgb(67.02649199417759,78.54992721979622,52.5863173216885)" stroke-width="1" />
<path d="M 2636.05 1773.47 C 2620.97 1806.54, 2582.22 1836.78, 2554.21 1857.59 C 2540.30 1875.02, 2550.31 1895.21, 2554.21 1910.16 C 2554.69 1931.94, 2557.30 1954.81, 2578.08 1955.72 C 2601.15 1972.25, 2585.56 1986.58, 2578.08 2001.29 C 2569.55 2021.81, 2579.54 2041.09, 2591.72 2053.86 C 2606.93 2085.42, 2616.44 2053.42, 2636.05 2057.37 C 2658.70 2058.94, 2672.98 2051.31, 2690.61 2057.37 C 2711.76 2054.45, 2728.39 2024.24, 2741.77 2036.34 C 2762.01 2056.21, 2776.89 2027.53, 2779.28 2011.80 C 2774.72 1990.42, 2749.24 2003.92, 2748.59 1976.75 C 2747.95 1954.06, 2734.92 1940.15, 2734.95 1920.68 C 2730.91 1896.85, 2701.04 1900.26, 2690.61 1910.16 C 2667.26 1897.81, 2660.37 1876.82, 2676.97 1861.09 C 2684.11 1841.29, 2693.16 1823.64, 2676.97 1808.52 C 2681.02 1783.39, 2650.81 1787.07, 2639.46 1773.47 Z" fill="rgb(108.38485804416403,123.65851735015772,66.80283911671924)" stroke="rgb(108.38485804416403,123.65851735015772,66.80283911671924)" stroke-width="1" />
<path d="M 1994.94 844.68 C 1972.64 866.54, 1917.85 868.44, 1919.92 900.75 C 1909.05 916.74, 1899.38 939.60, 1882.41 942.81 C 1858.66 942.67, 1853.43 970.53, 1861.95 984.87 C 1880.93 995.58, 1888.20 1010.40, 1906.28 1012.91 C 1922.10 1020.83, 1933.57 1044.61, 1919.92 1058.47 C 1914.14 1083.28, 1928.91 1087.61, 1943.79 1093.52 C 1952.41 1109.99, 1961.32 1126.66, 1981.30 1114.55 C 2002.30 1117.43, 2011.50 1099.95, 2008.58 1083.01 C 2026.09 1070.25, 2042.96 1086.55, 2056.32 1072.49 C 2079.81 1058.57, 2069.33 1034.88, 2052.91 1030.44 C 2052.63 1006.44, 2077.18 1000.96, 2083.61 981.37 C 2118.98 962.09, 2091.24 903.94, 2056.32 911.27 C 2034.81 902.13, 2027.86 878.55, 2029.04 865.71 C 2045.76 842.13, 2010.28 856.07, 1998.35 844.68 Z" fill="rgb(91.840190816935,108.62760882528325,67.55217650566487)" stroke="rgb(91.840190816935,108.62760882528325,67.55217650566487)" stroke-width="1" />
<path d="M 456.96 1598.23 C 426.46 1608.30, 406.58 1635.04, 405.81 1668.32 C 390.74 1698.98, 391.30 1731.33, 381.94 1759.45 C 365.63 1790.81, 357.65 1819.91, 368.30 1850.58 C 345.64 1874.12, 354.02 1933.21, 392.17 1913.67 C 430.51 1905.34, 448.25 1879.48, 474.01 1854.08 C 487.96 1825.65, 497.06 1791.64, 491.06 1762.96 C 509.01 1733.43, 545.72 1705.15, 525.16 1671.83 C 520.62 1632.53, 475.31 1617.41, 460.37 1598.23 Z" fill="rgb(170.1750291715286,181.44340723453908,100.93582263710618)" stroke="rgb(170.1750291715286,181.44340723453908,100.93582263710618)" stroke-width="1" />
<path d="M 978.71 2176.53 C 960.12 2206.41, 919.93 2184.87, 907.10 2204.57 C 873.76 2212.53, 861.67 2247.03, 855.95 2274.67 C 838.09 2295.18, 842.10 2359.04, 859.36 2313.22 C 867.51 2343.07, 870.68 2382.37, 903.69 2386.83 C 932.36 2380.59, 962.03 2378.17, 975.30 2351.78 C 1006.64 2361.13, 1035.91 2344.01, 1050.33 2320.23 C 1053.82 2287.89, 1036.45 2266.48, 1040.10 2236.12 C 1039.29 2199.72, 992.80 2201.74, 982.12 2176.53 Z" fill="rgb(70.82065217391305,84.83260869565217,53.703804347826086)" stroke="rgb(70.82065217391305,84.83260869565217,53.703804347826086)" stroke-width="1" />
<path d="M 1490.24 865.71 C 1462.44 878.92, 1439.81 904.97, 1404.98 900.75 C 1372.28 906.08, 1339.27 905.67, 1312.91 921.78 C 1283.04 939.39, 1263.73 979.08, 1278.81 1009.41 C 1306.35 1034.13, 1331.87 1068.42, 1367.47 1068.99 C 1380.54 1081.25, 1402.61 1054.74, 1408.39 1068.99 C 1415.62 1086.35, 1436.72 1080.09, 1432.27 1100.53 C 1471.46 1109.12, 1499.89 1069.42, 1473.19 1040.95 C 1465.45 1022.36, 1457.33 1007.45, 1442.50 995.39 C 1448.45 977.29, 1452.16 960.30, 1462.96 946.32 C 1477.03 933.59, 1460.76 907.93, 1476.60 904.26 C 1494.85 898.35, 1503.38 875.37, 1493.65 865.71 Z" fill="rgb(100.0878787878788,117.1405303030303,73.7753787878788)" stroke="rgb(100.0878787878788,117.1405303030303,73.7753787878788)" stroke-width="1" />
<path d="M 2653.10 546.76 C 2641.35 582.91, 2595.97 573.23, 2584.90 602.84 C 2583.93 621.80, 2578.02 635.74, 2564.44 641.39 C 2552.79 657.00, 2562.95 680.17, 2578.08 669.43 C 2610.21 669.14, 2639.11 660.95, 2642.87 700.98 C 2670.57 718.73, 2708.20 710.55, 2724.71 736.03 C 2746.16 787.64, 2757.75 715.13, 2782.69 711.49 C 2822.29 730.47, 2811.00 665.28, 2792.92 651.91 C 2787.82 615.00, 2754.06 607.40, 2734.95 581.81 C 2716.95 552.25, 2688.83 544.70, 2656.51 546.76 Z" fill="rgb(230.59464777646596,228.5013774104683,164.56709956709958)" stroke="rgb(230.59464777646596,228.5013774104683,164.56709956709958)" stroke-width="1" />
<path d="M 2387.11 669.43 C 2376.95 685.22, 2358.16 662.52, 2353.01 683.45 C 2339.34 682.41, 2325.97 660.35, 2322.32 683.45 C 2305.92 708.26, 2314.40 753.51, 2281.39 753.55 C 2249.05 749.63, 2210.94 790.36, 2243.88 813.13 C 2248.41 834.03, 2265.60 837.31, 2277.98 841.17 C 2286.74 856.31, 2297.56 866.76, 2315.50 862.20 C 2344.31 866.97, 2356.91 896.73, 2390.52 890.24 C 2406.44 872.43, 2430.27 836.89, 2414.39 813.13 C 2421.78 784.05, 2391.32 750.55, 2424.62 736.03 C 2450.86 719.63, 2433.49 715.87, 2424.62 700.98 C 2412.54 686.79, 2411.17 665.37, 2390.52 669.43 Z" fill="rgb(206.70755483346872,204.32575142160846,96.22502030869212)" stroke="rgb(206.70755483346872,204.32575142160846,96.22502030869212)" stroke-width="1" />
<path d="M 1817.61 1675.33 C 1775.71 1669.89, 1796.73 1712.01, 1769.87 1731.41 C 1742.66 1771.72, 1806.18 1771.85, 1803.97 1808.52 C 1833.59 1820.98, 1842.90 1858.60, 1844.89 1882.12 C 1849.69 1896.03, 1847.18 1918.20, 1865.36 1913.67 C 1875.83 1927.20, 1881.28 1943.26, 1899.46 1931.19 C 1918.49 1905.53, 1922.55 1877.00, 1923.33 1847.07 C 1922.56 1819.27, 1945.76 1837.42, 1954.02 1819.03 C 1949.05 1798.80, 1950.37 1791.20, 1954.02 1773.47 C 1946.61 1759.79, 1934.23 1749.31, 1919.92 1748.94 C 1900.54 1737.31, 1915.42 1721.60, 1906.28 1706.88 C 1871.39 1704.43, 1851.95 1675.64, 1821.02 1675.33 Z" fill="rgb(85.63499111900533,100.24955595026643,65.03285968028419)" stroke="rgb(85.63499111900533,100.24955595026643,65.03285968028419)" stroke-width="1" />
<path d="M 1517.52 1244.23 C 1502.25 1258.01, 1484.78 1266.32, 1466.37 1272.27 C 1437.68 1268.26, 1433.59 1300.97, 1415.21 1307.32 C 1390.45 1327.72, 1393.75 1288.69, 1367.47 1300.31 C 1339.07 1292.03, 1340.85 1329.02, 1319.73 1335.36 C 1295.45 1341.28, 1315.92 1373.36, 1299.27 1384.43 C 1277.12 1384.07, 1257.90 1338.08, 1251.53 1363.40 C 1252.42 1384.27, 1238.75 1412.79, 1265.17 1412.47 C 1289.62 1417.22, 1303.29 1403.67, 1323.14 1405.46 C 1348.89 1399.94, 1360.31 1423.58, 1370.88 1426.49 C 1387.50 1408.04, 1414.91 1419.31, 1425.45 1405.46 C 1422.22 1384.66, 1404.92 1353.56, 1432.27 1370.41 C 1453.50 1358.60, 1473.93 1381.20, 1486.83 1370.41 C 1493.00 1327.82, 1522.41 1389.02, 1531.16 1359.89 C 1511.67 1323.36, 1559.61 1348.45, 1558.44 1328.35 C 1560.26 1303.27, 1557.71 1285.43, 1575.49 1272.27 C 1550.83 1265.83, 1542.11 1246.48, 1520.93 1244.23 Z" fill="rgb(76.44796003330558,90.29433805162364,57.5428809325562)" stroke="rgb(76.44796003330558,90.29433805162364,57.5428809325562)" stroke-width="1" />
<path d="M 2202.96 1047.96 C 2177.05 1079.08, 2134.43 1045.04, 2110.89 1072.49 C 2075.78 1069.04, 2098.40 1085.95, 2107.48 1100.53 C 2101.43 1119.25, 2108.31 1139.73, 2104.07 1153.11 C 2103.68 1170.48, 2086.47 1176.80, 2083.61 1195.17 C 2082.21 1213.26, 2103.45 1225.72, 2107.48 1244.23 C 2110.30 1219.13, 2124.90 1239.52, 2138.17 1247.74 C 2159.49 1244.16, 2167.60 1282.35, 2185.91 1258.25 C 2200.10 1272.40, 2225.27 1266.65, 2223.42 1247.74 C 2204.43 1231.59, 2232.13 1217.59, 2223.42 1198.67 C 2234.13 1188.87, 2259.09 1175.32, 2264.34 1195.17 C 2294.60 1173.23, 2278.41 1177.94, 2260.93 1184.65 C 2250.01 1163.52, 2260.65 1153.15, 2260.93 1135.58 C 2251.01 1103.23, 2239.10 1117.24, 2230.24 1111.05 C 2244.35 1075.37, 2211.03 1118.85, 2213.19 1093.52 C 2188.25 1077.49, 2217.61 1050.96, 2206.37 1047.96 Z" fill="rgb(61.1441637630662,77.29442508710801,51.11933797909408)" stroke="rgb(61.1441637630662,77.29442508710801,51.11933797909408)" stroke-width="1" />
<path d="M 2486.00 1384.43 C 2473.04 1404.82, 2458.57 1402.61, 2445.08 1391.44 C 2433.21 1401.72, 2434.78 1434.64, 2414.39 1422.98 C 2368.89 1406.15, 2384.75 1469.19, 2387.11 1493.08 C 2393.51 1511.74, 2380.61 1533.66, 2400.75 1535.14 C 2419.33 1536.48, 2439.55 1518.19, 2445.08 1542.15 C 2444.95 1514.11, 2473.73 1523.31, 2479.18 1507.10 C 2487.83 1474.85, 2511.12 1509.16, 2499.64 1524.62 C 2497.01 1540.85, 2495.11 1569.92, 2516.70 1545.65 C 2522.72 1525.77, 2544.78 1528.74, 2557.62 1521.12 C 2567.83 1540.65, 2590.88 1561.16, 2591.72 1531.63 C 2599.49 1511.21, 2623.93 1501.38, 2619.00 1479.06 C 2623.70 1456.68, 2610.45 1440.37, 2595.13 1433.50 C 2579.90 1444.32, 2557.77 1441.92, 2543.98 1437.00 C 2520.04 1438.23, 2528.66 1411.80, 2526.93 1398.45 C 2530.49 1374.92, 2501.57 1388.29, 2489.41 1384.43 Z" fill="rgb(182.29186813186814,189.08307692307693,140.47692307692307)" stroke="rgb(182.29186813186814,189.08307692307693,140.47692307692307)" stroke-width="1" />
<path d="M 491.06 1212.69 C 465.51 1223.60, 440.32 1233.23, 422.86 1258.25 C 393.65 1271.92, 377.74 1318.84, 409.22 1331.86 C 445.69 1322.80, 449.44 1352.96, 463.78 1373.91 C 454.23 1393.67, 444.24 1432.00, 456.96 1447.52 C 487.58 1438.51, 502.52 1409.58, 528.57 1394.94 C 567.22 1387.21, 539.00 1344.03, 559.27 1324.85 C 578.04 1305.48, 607.99 1272.39, 569.50 1261.76 C 538.86 1248.43, 529.90 1204.31, 494.47 1212.69 Z" fill="rgb(223.640625,224.21354166666666,163.75)" stroke="rgb(223.640625,224.21354166666666,163.75)" stroke-width="1" />
<path d="M 460.37 1619.26 C 434.87 1625.11, 421.75 1649.02, 419.45 1675.33 C 412.74 1705.90, 405.83 1659.73, 402.40 1685.85 C 394.03 1702.70, 399.67 1711.36, 395.58 1724.40 C 390.89 1753.47, 393.16 1777.52, 395.58 1801.51 C 399.85 1828.86, 404.35 1864.43, 433.09 1868.10 C 466.49 1867.61, 480.75 1841.30, 487.65 1815.53 C 504.24 1789.08, 472.89 1753.82, 504.70 1745.43 C 518.87 1719.78, 546.01 1694.99, 521.75 1671.83 C 521.51 1638.06, 487.70 1623.86, 463.78 1619.26 Z" fill="rgb(114.86365841824357,131.32411450752062,64.39640950994662)" stroke="rgb(114.86365841824357,131.32411450752062,64.39640950994662)" stroke-width="1" />
<path d="M 497.88 2176.53 C 467.06 2203.03, 447.12 2254.11, 409.22 2264.15 C 390.67 2301.10, 389.23 2340.38, 371.71 2372.81 C 365.12 2401.55, 394.89 2394.59, 405.81 2386.83 C 433.48 2388.51, 410.00 2356.38, 422.86 2344.77 C 455.26 2332.80, 493.73 2339.21, 525.16 2344.77 C 532.04 2330.16, 532.25 2303.57, 555.86 2309.72 C 578.22 2311.83, 589.51 2299.59, 607.01 2306.21 C 638.63 2295.64, 609.67 2291.66, 593.37 2295.70 C 586.15 2278.82, 594.85 2251.10, 576.32 2243.12 C 556.99 2243.12, 541.08 2243.12, 525.16 2243.12 C 510.14 2253.68, 486.32 2259.45, 477.42 2239.62 C 498.84 2236.91, 516.30 2226.97, 525.16 2222.10 C 547.60 2208.86, 509.51 2180.88, 501.29 2176.53 Z" fill="rgb(240.0728029121165,238.8408736349454,214.44409776391055)" stroke="rgb(240.0728029121165,238.8408736349454,214.44409776391055)" stroke-width="1" />
<path d="M 2455.31 1875.11 C 2444.24 1877.58, 2422.47 1891.87, 2445.08 1896.14 C 2458.65 1910.79, 2443.63 1932.66, 2458.72 1941.71 C 2435.77 1969.97, 2440.54 2006.53, 2421.21 2032.83 C 2425.79 2075.22, 2389.41 2086.02, 2380.29 2116.95 C 2404.68 2140.45, 2426.93 2078.67, 2455.31 2067.88 C 2468.68 2058.14, 2483.49 2034.79, 2496.23 2053.86 C 2492.85 2082.37, 2515.06 2060.16, 2526.93 2060.87 C 2547.61 2044.79, 2589.96 2004.31, 2554.21 1987.27 C 2505.42 1968.69, 2556.88 1930.74, 2547.39 1903.15 C 2520.39 1879.47, 2486.78 1884.19, 2458.72 1875.11 Z" fill="rgb(197.6060442525634,203.7436589314625,145.13707501349162)" stroke="rgb(197.6060442525634,203.7436589314625,145.13707501349162)" stroke-width="1" />
<path d="M 2230.24 1422.98 C 2220.37 1469.42, 2179.79 1447.49, 2158.63 1475.56 C 2133.39 1495.11, 2100.41 1474.20, 2073.38 1472.05 C 2060.81 1489.02, 2043.34 1485.36, 2029.04 1489.58 C 2008.44 1482.60, 2009.73 1484.80, 2008.58 1507.10 C 2011.48 1539.32, 2036.73 1574.94, 2011.99 1601.73 C 2024.90 1660.35, 2044.86 1565.36, 2076.79 1598.23 C 2117.80 1603.51, 2115.92 1553.93, 2151.81 1545.65 C 2167.24 1528.78, 2185.84 1531.75, 2196.14 1514.11 C 2203.08 1496.51, 2213.10 1478.46, 2230.24 1479.06 C 2244.75 1463.60, 2265.60 1469.31, 2271.16 1451.02 C 2265.05 1431.86, 2252.78 1418.70, 2233.65 1422.98 Z" fill="rgb(200.37925445705025,204.22204213938411,171.47325769854132)" stroke="rgb(200.37925445705025,204.22204213938411,171.47325769854132)" stroke-width="1" />
<path d="M 3082.78 2078.40 C 3060.19 2084.62, 3029.00 2083.70, 3014.58 2109.94 C 3002.80 2137.90, 2989.31 2163.30, 2997.53 2190.55 C 2997.98 2207.53, 3009.77 2215.01, 3021.40 2208.08 C 3032.71 2195.83, 3037.96 2172.33, 3048.68 2197.56 C 3082.13 2198.43, 3077.64 2252.80, 3110.06 2229.11 C 3128.82 2223.89, 3189.97 2227.12, 3164.62 2208.08 C 3150.22 2225.50, 3139.66 2200.77, 3157.80 2194.06 C 3178.85 2191.73, 3160.35 2174.95, 3154.39 2176.53 C 3156.79 2160.91, 3157.70 2148.16, 3164.62 2137.98 C 3167.42 2119.95, 3149.01 2113.00, 3154.39 2095.92 C 3146.10 2056.62, 3103.90 2100.01, 3086.19 2078.40 Z" fill="rgb(185.66084788029926,193.36159600997507,94.34413965087282)" stroke="rgb(185.66084788029926,193.36159600997507,94.34413965087282)" stroke-width="1" />
<path d="M 494.47 1864.60 C 479.93 1878.16, 518.75 1879.59, 501.29 1896.14 C 491.95 1911.91, 472.88 1920.03, 477.42 1938.20 C 467.49 1970.11, 429.21 1987.04, 439.91 2018.81 C 474.14 2034.86, 463.63 1969.13, 504.70 1987.27 C 538.95 1986.35, 540.54 2049.38, 566.09 2036.34 C 576.06 2006.95, 590.56 2044.92, 603.60 2029.33 C 613.86 2017.73, 629.46 2012.57, 624.06 1994.28 C 613.08 1973.59, 646.91 1974.95, 641.11 1959.23 C 631.63 1941.76, 643.91 1928.37, 651.34 1917.17 C 634.67 1890.43, 601.53 1897.56, 576.32 1903.15 C 541.01 1901.85, 517.96 1883.53, 497.88 1864.60 Z" fill="rgb(221.90062111801242,223.15155279503105,164.55900621118013)" stroke="rgb(221.90062111801242,223.15155279503105,164.55900621118013)" stroke-width="1" />
<path d="M 3110.06 1279.28 C 3087.35 1281.86, 3071.07 1300.44, 3048.68 1303.82 C 3022.33 1322.69, 3072.32 1337.67, 3035.04 1359.89 C 3039.34 1417.89, 3095.82 1438.18, 3137.34 1458.03 C 3163.77 1453.35, 3180.61 1430.36, 3202.14 1440.51 C 3217.36 1414.60, 3199.18 1394.32, 3195.32 1373.91 C 3197.06 1348.76, 3134.71 1348.24, 3164.62 1328.35 C 3146.17 1313.86, 3122.75 1301.94, 3113.47 1279.28 Z" fill="rgb(209.14729119638827,211.75959367945825,132.20541760722347)" stroke="rgb(209.14729119638827,211.75959367945825,132.20541760722347)" stroke-width="1" />
<path d="M 3202.14 1507.10 C 3195.03 1522.92, 3171.45 1577.61, 3168.04 1531.63 C 3152.30 1509.37, 3115.99 1528.44, 3113.47 1552.66 C 3099.99 1577.34, 3077.33 1590.51, 3079.37 1619.26 C 3068.09 1643.18, 3099.24 1667.84, 3086.19 1696.36 C 3074.87 1712.77, 3091.29 1719.76, 3099.83 1727.91 C 3118.27 1731.76, 3125.55 1699.45, 3137.34 1706.88 C 3160.66 1693.56, 3187.99 1674.13, 3185.09 1643.79 C 3200.07 1620.27, 3202.40 1595.13, 3219.19 1573.69 C 3240.25 1552.31, 3237.07 1509.07, 3205.55 1507.10 Z" fill="rgb(188.12267867191898,194.95779403489027,101.63083849184018)" stroke="rgb(188.12267867191898,194.95779403489027,101.63083849184018)" stroke-width="1" />
<path d="M 2107.48 630.88 C 2093.93 635.45, 2107.14 656.25, 2090.43 662.42 C 2086.76 645.51, 2078.02 630.09, 2066.55 644.90 C 2029.22 643.83, 2061.27 698.78, 2035.86 707.99 C 2036.35 741.32, 2001.01 752.99, 2011.99 778.08 C 2043.16 777.99, 2070.40 786.10, 2073.38 816.64 C 2092.76 796.36, 2113.16 772.31, 2138.17 764.06 C 2146.45 728.71, 2178.00 717.98, 2202.96 707.99 C 2247.62 701.58, 2213.82 673.66, 2189.32 672.94 C 2159.19 663.18, 2141.22 631.69, 2110.89 630.88 Z" fill="rgb(149.32329545454544,171.3096590909091,108.28011363636364)" stroke="rgb(149.32329545454544,171.3096590909091,108.28011363636364)" stroke-width="1" />
<path d="M 2949.79 1146.10 C 2939.87 1153.29, 2929.14 1157.83, 2925.91 1170.63 C 2907.13 1176.01, 2911.76 1148.36, 2902.04 1163.62 C 2877.09 1170.76, 2856.47 1180.21, 2833.84 1184.65 C 2792.41 1177.00, 2816.85 1208.02, 2813.38 1230.21 C 2842.01 1243.14, 2851.72 1282.55, 2874.76 1286.29 C 2894.94 1275.56, 2928.48 1254.67, 2939.55 1279.28 C 2969.43 1296.86, 2967.16 1249.47, 2997.53 1258.25 C 3025.03 1217.17, 3010.04 1135.00, 2953.20 1146.10 Z" fill="rgb(182.93250141803745,181.2251843448667,57.119682359614295)" stroke="rgb(182.93250141803745,181.2251843448667,57.119682359614295)" stroke-width="1" />
<path d="M 1514.11 1727.91 C 1499.80 1733.56, 1487.93 1761.50, 1510.70 1766.46 C 1532.68 1783.85, 1521.61 1806.70, 1507.29 1819.03 C 1494.38 1853.05, 1531.95 1900.33, 1483.42 1906.66 C 1473.25 1927.39, 1457.93 1939.88, 1442.50 1948.71 C 1426.99 1926.80, 1412.27 1933.66, 1394.75 1948.71 C 1377.37 1962.31, 1358.47 1949.70, 1350.42 1969.74 C 1369.13 1989.97, 1385.12 2004.97, 1401.57 2018.81 C 1438.16 2052.22, 1462.44 1990.87, 1497.06 1987.27 C 1509.48 1951.78, 1513.61 1912.41, 1544.80 1899.65 C 1556.08 1882.26, 1539.55 1863.59, 1548.21 1850.58 C 1561.63 1832.56, 1571.78 1818.10, 1568.67 1798.00 C 1593.98 1778.17, 1580.66 1775.76, 1561.85 1766.46 C 1550.96 1746.35, 1536.24 1729.95, 1517.52 1727.91 Z" fill="rgb(197.67194092827003,204.1149789029536,164.3976793248945)" stroke="rgb(197.67194092827003,204.1149789029536,164.3976793248945)" stroke-width="1" />
<path d="M 702.49 2260.65 C 709.62 2288.39, 683.83 2294.59, 675.21 2309.72 C 652.03 2324.57, 646.77 2350.59, 644.52 2372.81 C 634.40 2394.88, 624.58 2411.46, 624.06 2435.89 C 619.89 2466.93, 651.44 2469.90, 671.80 2467.44 C 692.49 2456.40, 719.89 2451.22, 726.36 2428.88 C 756.23 2418.21, 756.54 2394.09, 767.29 2372.81 C 791.39 2347.23, 759.66 2327.51, 757.05 2306.21 C 748.94 2281.03, 730.15 2261.51, 705.90 2260.65 Z" fill="rgb(101.46229508196721,120.23169398907103,58.15191256830601)" stroke="rgb(101.46229508196721,120.23169398907103,58.15191256830601)" stroke-width="1" />
<path d="M 661.57 2011.80 C 637.73 2027.87, 617.33 2053.23, 607.01 2078.40 C 576.59 2097.64, 581.53 2126.98, 576.32 2152.00 C 558.04 2173.83, 552.97 2210.10, 579.73 2218.59 C 605.00 2230.51, 634.63 2238.90, 634.29 2267.66 C 664.20 2268.11, 675.24 2232.57, 682.03 2211.58 C 686.66 2181.77, 674.48 2162.62, 675.21 2137.98 C 668.37 2111.76, 644.12 2092.99, 651.34 2067.88 C 680.77 2066.41, 682.58 2023.69, 664.98 2011.80 Z" fill="rgb(111.92519083969465,130.69312977099236,65.47480916030534)" stroke="rgb(111.92519083969465,130.69312977099236,65.47480916030534)" stroke-width="1" />
<path d="M 3133.93 1724.40 C 3130.14 1752.55, 3088.06 1761.48, 3072.55 1741.93 C 3055.07 1739.45, 3044.09 1762.37, 3058.91 1769.97 C 3048.91 1781.30, 3026.65 1771.13, 3024.81 1791.00 C 3033.39 1822.04, 3005.05 1841.41, 2997.53 1868.10 C 2987.34 1915.72, 3024.49 1899.53, 3045.27 1885.63 C 3067.70 1918.94, 3105.60 1899.53, 3096.42 1864.60 C 3089.34 1830.61, 3111.89 1793.21, 3137.34 1822.54 C 3163.43 1820.39, 3202.39 1824.94, 3198.73 1794.50 C 3172.62 1775.61, 3164.53 1735.66, 3137.34 1724.40 Z" fill="rgb(252.921875,252.698125,248.94)" stroke="rgb(252.921875,252.698125,248.94)" stroke-width="1" />
<path d="M 3110.06 1815.53 C 3092.53 1832.88, 3102.34 1861.88, 3099.83 1885.63 C 3104.15 1904.38, 3092.35 1907.85, 3082.78 1913.67 C 3087.30 1928.66, 3099.38 1942.03, 3113.47 1938.20 C 3113.88 1965.47, 3133.17 1993.09, 3157.80 2001.29 C 3195.04 1995.93, 3190.93 1956.44, 3191.91 1934.70 C 3212.59 1918.96, 3200.97 1856.35, 3232.83 1885.63 C 3237.66 1931.45, 3256.82 1868.30, 3232.83 1857.59 C 3235.90 1821.75, 3212.89 1831.81, 3188.50 1819.03 C 3160.68 1836.03, 3138.79 1822.40, 3113.47 1815.53 Z" fill="rgb(225.75221238938053,225.82743362831857,156.5)" stroke="rgb(225.75221238938053,225.82743362831857,156.5)" stroke-width="1" />
<path d="M 2915.68 806.12 C 2897.43 820.68, 2882.22 850.24, 2854.30 834.16 C 2839.44 833.50, 2833.65 808.59, 2830.43 813.13 C 2821.77 827.29, 2811.63 834.35, 2823.61 848.18 C 2828.25 861.86, 2818.76 872.44, 2837.25 872.72 C 2840.44 893.13, 2813.56 886.28, 2816.79 904.26 C 2847.83 904.46, 2853.87 934.40, 2871.35 946.32 C 2901.56 921.04, 2910.30 963.00, 2936.14 956.83 C 2958.67 951.58, 2950.07 944.06, 2942.96 932.30 C 2950.14 912.81, 2965.84 921.56, 2977.07 921.78 C 3009.43 902.48, 2972.83 879.48, 2966.84 858.70 C 2961.56 826.54, 2946.59 809.32, 2919.09 806.12 Z" fill="rgb(208.28571428571428,211.17089452603471,128.73164218958613)" stroke="rgb(208.28571428571428,211.17089452603471,128.73164218958613)" stroke-width="1" />
<path d="M 630.88 1703.37 C 631.98 1731.63, 591.00 1718.59, 593.37 1741.93 C 576.05 1745.64, 554.27 1771.45, 552.45 1791.00 C 526.68 1803.63, 544.44 1836.22, 562.68 1840.06 C 585.27 1853.17, 609.02 1825.76, 620.65 1857.59 C 643.48 1864.53, 660.73 1847.29, 678.62 1840.06 C 705.66 1833.20, 685.16 1798.93, 705.90 1787.49 C 717.30 1763.81, 676.10 1758.96, 678.62 1738.42 C 676.46 1706.82, 656.35 1703.86, 634.29 1703.37 Z" fill="rgb(100.70226969292389,121.75367156208277,56.7369826435247)" stroke="rgb(100.70226969292389,121.75367156208277,56.7369826435247)" stroke-width="1" />
<path d="M 1698.26 466.15 C 1687.48 479.20, 1696.65 509.46, 1677.80 525.73 C 1662.28 560.65, 1705.17 555.83, 1701.67 581.81 C 1689.58 610.51, 1710.87 629.07, 1732.36 634.38 C 1747.38 657.24, 1775.19 665.68, 1793.74 648.40 C 1816.42 638.21, 1804.61 605.46, 1807.38 588.82 C 1804.75 563.96, 1814.80 537.20, 1797.15 522.23 C 1782.99 493.91, 1783.61 487.94, 1752.82 501.20 C 1730.91 514.78, 1709.35 484.08, 1701.67 469.65 Z" fill="rgb(177.19581363943283,187.424037812289,98.64821066846726)" stroke="rgb(177.19581363943283,187.424037812289,98.64821066846726)" stroke-width="1" />
<path d="M 1244.71 764.06 C 1228.44 773.22, 1232.78 800.89, 1234.48 816.64 C 1248.29 845.51, 1189.65 831.55, 1220.84 858.70 C 1222.00 884.03, 1233.70 898.05, 1254.94 904.26 C 1274.15 929.77, 1302.36 921.63, 1316.32 900.75 C 1337.42 888.54, 1327.77 856.07, 1347.01 848.18 C 1364.80 834.91, 1370.26 808.19, 1357.24 792.10 C 1348.76 769.26, 1329.68 759.17, 1309.50 767.57 C 1283.13 775.04, 1268.03 772.56, 1248.12 764.06 Z" fill="rgb(137.02762430939225,155.39364640883977,71.74240331491713)" stroke="rgb(137.02762430939225,155.39364640883977,71.74240331491713)" stroke-width="1" />
<path d="M 1913.10 2358.79 C 1892.49 2370.82, 1902.86 2416.46, 1865.36 2404.35 C 1837.82 2421.47, 1807.22 2435.98, 1810.79 2467.44 C 1831.75 2491.61, 1833.89 2514.10, 1838.07 2544.54 C 1845.24 2579.94, 1887.62 2571.93, 1899.46 2593.61 C 1918.13 2575.72, 1908.62 2533.55, 1943.79 2541.04 C 1941.95 2526.15, 1947.74 2511.52, 1940.38 2502.49 C 1925.28 2485.70, 1918.13 2512.26, 1909.69 2516.51 C 1896.08 2495.22, 1924.28 2467.63, 1919.92 2439.40 C 1891.14 2411.72, 1924.29 2383.23, 1916.51 2358.79 Z" fill="rgb(134.50556328233657,140.72878998609178,107.0500695410292)" stroke="rgb(134.50556328233657,140.72878998609178,107.0500695410292)" stroke-width="1" />
<path d="M 1640.29 1854.08 C 1612.56 1872.75, 1591.08 1897.90, 1578.90 1927.69 C 1546.03 1919.36, 1533.60 1941.19, 1534.57 1976.75 C 1540.79 1997.98, 1561.86 1975.13, 1568.67 1994.28 C 1565.92 2028.19, 1576.67 1986.20, 1589.13 2001.29 C 1582.63 2028.51, 1573.96 2065.97, 1599.36 2074.89 C 1620.56 2084.91, 1588.92 2101.80, 1606.18 2113.44 C 1614.28 2108.98, 1627.77 2100.54, 1626.64 2085.41 C 1624.18 2051.47, 1651.43 2026.23, 1650.52 2001.29 C 1652.37 1963.01, 1633.99 1954.87, 1643.70 1924.18 C 1646.11 1893.59, 1691.10 1865.86, 1643.70 1854.08 Z" fill="rgb(68.01768033946252,63.81966053748232,50.097595473833096)" stroke="rgb(68.01768033946252,63.81966053748232,50.097595473833096)" stroke-width="1" />
<path d="M 2254.11 1517.61 C 2242.66 1527.24, 2230.82 1531.46, 2223.42 1545.65 C 2208.20 1541.74, 2196.99 1524.91, 2185.91 1538.64 C 2150.49 1529.77, 2145.98 1577.05, 2124.53 1594.72 C 2093.42 1611.97, 2101.58 1653.87, 2134.76 1633.28 C 2161.86 1600.08, 2179.14 1659.26, 2209.78 1640.29 C 2228.51 1641.46, 2233.02 1629.19, 2230.24 1615.75 C 2242.97 1606.85, 2248.55 1597.12, 2254.11 1584.21 C 2262.11 1571.48, 2280.53 1569.82, 2284.80 1580.70 C 2269.35 1604.87, 2301.62 1590.79, 2298.45 1608.74 C 2316.62 1617.45, 2313.68 1597.09, 2318.91 1587.71 C 2338.00 1574.33, 2341.25 1557.03, 2322.32 1552.66 C 2316.91 1542.95, 2306.73 1520.05, 2298.45 1538.64 C 2281.98 1533.01, 2273.22 1516.70, 2257.52 1517.61 Z" fill="rgb(91.03808180535967,103.79196050775741,63.5345557122708)" stroke="rgb(91.03808180535967,103.79196050775741,63.5345557122708)" stroke-width="1" />
<path d="M 620.65 2607.63 C 600.82 2632.45, 583.71 2622.01, 555.86 2621.65 C 529.35 2603.59, 508.00 2632.33, 484.24 2625.16 C 472.86 2640.99, 462.38 2632.39, 450.14 2632.17 C 445.53 2649.12, 458.99 2656.32, 463.78 2667.22 C 451.61 2700.67, 514.96 2667.61, 511.52 2702.26 C 530.77 2725.27, 560.12 2678.13, 572.91 2719.79 C 563.14 2751.96, 609.54 2749.06, 624.06 2733.81 C 633.36 2709.76, 673.73 2693.40, 637.70 2674.23 C 621.17 2667.64, 616.97 2652.01, 610.42 2642.68 C 607.42 2629.35, 639.05 2611.39, 624.06 2611.14 Z" fill="rgb(204.44363636363636,208.99054545454544,126.76290909090909)" stroke="rgb(204.44363636363636,208.99054545454544,126.76290909090909)" stroke-width="1" />
<path d="M 2499.64 729.02 C 2487.16 741.94, 2452.71 730.34, 2455.31 757.05 C 2462.75 791.46, 2418.65 765.24, 2424.62 795.61 C 2435.91 814.31, 2427.90 837.51, 2424.62 855.19 C 2418.34 877.00, 2444.19 882.40, 2462.13 879.73 C 2481.28 862.07, 2508.01 891.36, 2516.70 858.70 C 2549.07 859.76, 2531.94 821.47, 2550.80 809.63 C 2570.56 804.53, 2574.22 771.02, 2561.03 760.56 C 2544.58 740.57, 2522.66 737.66, 2503.05 729.02 Z" fill="rgb(148.49096167751264,157.6999276934201,66.46565437454808)" stroke="rgb(148.49096167751264,157.6999276934201,66.46565437454808)" stroke-width="1" />
<path d="M 2663.33 718.50 C 2647.66 731.70, 2627.94 732.10, 2629.23 757.05 C 2612.83 777.24, 2638.14 800.40, 2612.18 813.13 C 2635.41 820.82, 2649.54 842.19, 2653.10 862.20 C 2647.39 889.30, 2677.93 901.90, 2694.02 890.24 C 2706.02 869.79, 2727.54 871.55, 2738.36 862.20 C 2732.08 836.68, 2754.36 821.23, 2745.18 802.62 C 2721.74 783.25, 2731.71 762.57, 2717.89 743.04 C 2707.50 724.26, 2684.20 724.11, 2666.74 718.50 Z" fill="rgb(172.34130434782608,181.9978260869565,120.78188405797101)" stroke="rgb(172.34130434782608,181.9978260869565,120.78188405797101)" stroke-width="1" />
<path d="M 497.88 1987.27 C 472.03 1986.35, 471.10 2007.64, 460.37 2025.82 C 430.39 2040.17, 449.12 2071.08, 456.96 2081.90 C 421.86 2072.42, 461.37 2117.34, 433.09 2116.95 C 425.06 2144.43, 453.60 2158.03, 443.32 2180.04 C 459.14 2171.58, 483.19 2167.15, 494.47 2152.00 C 517.77 2135.88, 536.95 2123.83, 542.21 2099.42 C 548.76 2076.07, 573.81 2052.65, 545.62 2036.34 C 541.12 2013.96, 523.65 1985.68, 501.29 1987.27 Z" fill="rgb(133.05502567865003,147.44827586206895,76.22523844460748)" stroke="rgb(133.05502567865003,147.44827586206895,76.22523844460748)" stroke-width="1" />
<path d="M 310.32 2558.56 C 303.35 2578.16, 282.80 2591.98, 283.04 2614.64 C 303.27 2625.39, 313.53 2642.10, 313.73 2663.71 C 328.61 2675.72, 357.67 2671.91, 361.48 2691.75 C 359.74 2718.87, 404.37 2732.09, 405.81 2705.77 C 416.76 2663.00, 432.41 2626.08, 422.86 2583.10 C 412.79 2567.19, 389.90 2566.05, 371.71 2565.57 C 352.20 2591.30, 336.88 2550.20, 313.73 2558.56 Z" fill="rgb(228.61267605633802,228.16666666666666,168.80751173708921)" stroke="rgb(228.61267605633802,228.16666666666666,168.80751173708921)" stroke-width="1" />
<path d="M 405.81 2236.12 C 382.38 2242.73, 365.74 2267.60, 344.43 2285.18 C 312.89 2298.87, 293.28 2261.23, 272.81 2274.67 C 260.66 2297.21, 260.17 2325.31, 252.35 2344.77 C 236.42 2376.60, 279.52 2373.68, 296.68 2372.81 C 307.58 2385.09, 299.56 2400.47, 310.32 2407.85 C 323.59 2409.04, 325.99 2388.44, 341.02 2393.83 C 373.38 2396.02, 369.66 2360.70, 381.94 2341.26 C 390.79 2316.91, 390.86 2292.32, 398.99 2271.16 C 399.24 2250.59, 419.31 2262.19, 426.27 2253.64 C 440.24 2236.13, 420.25 2234.95, 409.22 2236.12 Z" fill="rgb(196.0421052631579,202.80526315789473,121.6421052631579)" stroke="rgb(196.0421052631579,202.80526315789473,121.6421052631579)" stroke-width="1" />
<path d="M 753.64 574.80 C 733.80 586.16, 705.31 576.08, 688.85 595.83 C 664.66 612.62, 634.71 628.03, 641.11 655.41 C 646.66 681.86, 660.61 701.22, 654.75 729.02 C 647.08 749.51, 676.00 804.40, 675.21 771.07 C 677.66 744.96, 675.68 720.47, 685.44 700.98 C 699.29 669.42, 725.90 697.07, 750.23 676.44 C 769.38 652.38, 780.68 632.00, 797.98 609.85 C 780.74 603.33, 783.86 585.15, 794.57 578.31 C 779.79 574.80, 768.42 574.80, 757.05 574.80 Z" fill="rgb(234.53084539223153,231.65727341964967,169.67555217060166)" stroke="rgb(234.53084539223153,231.65727341964967,169.67555217060166)" stroke-width="1" />
<path d="M 1766.46 932.30 C 1750.49 948.10, 1720.71 929.66, 1705.08 946.32 C 1686.82 966.18, 1701.34 992.01, 1705.08 1012.91 C 1717.93 1038.32, 1760.04 1032.85, 1756.23 1065.48 C 1766.42 1098.26, 1796.74 1079.71, 1803.97 1058.47 C 1807.54 1025.61, 1859.82 1050.35, 1848.30 1012.91 C 1851.49 988.71, 1848.07 962.28, 1838.07 942.81 C 1800.06 936.28, 1818.83 975.05, 1803.97 991.88 C 1785.34 975.82, 1774.00 955.79, 1769.87 932.30 Z" fill="rgb(164.19726858877087,182.87556904400606,107.85508345978755)" stroke="rgb(164.19726858877087,182.87556904400606,107.85508345978755)" stroke-width="1" />
<path d="M 1882.41 1703.37 C 1895.29 1724.54, 1872.78 1751.23, 1858.54 1769.97 C 1847.82 1794.98, 1839.12 1815.89, 1838.07 1840.06 C 1850.95 1863.19, 1844.95 1890.84, 1858.54 1910.16 C 1882.12 1929.03, 1897.29 1942.20, 1913.10 1906.66 C 1920.36 1882.26, 1927.05 1859.52, 1919.92 1836.56 C 1923.81 1815.25, 1930.86 1821.74, 1943.79 1826.04 C 1962.63 1813.33, 1936.17 1805.63, 1943.79 1791.00 C 1949.25 1777.64, 1943.36 1753.99, 1933.56 1769.97 C 1919.94 1785.37, 1923.80 1756.79, 1913.10 1755.95 C 1900.11 1736.21, 1917.89 1694.82, 1885.82 1703.37 Z" fill="rgb(66.85990712074303,79.83823529411765,53.93188854489164)" stroke="rgb(66.85990712074303,79.83823529411765,53.93188854489164)" stroke-width="1" />
<path d="M 2069.96 1472.05 C 2053.29 1486.03, 2053.33 1493.68, 2025.63 1493.08 C 1993.88 1488.95, 2016.89 1524.03, 2015.40 1538.64 C 2024.97 1559.10, 2026.60 1586.76, 2011.99 1601.73 C 2014.90 1622.95, 2017.52 1658.72, 2029.04 1622.76 C 2045.36 1595.54, 2062.83 1586.88, 2087.02 1598.23 C 2117.33 1599.17, 2113.30 1558.60, 2138.17 1552.66 C 2163.61 1534.01, 2151.30 1510.94, 2131.35 1496.58 C 2115.12 1481.00, 2093.52 1473.78, 2073.38 1472.05 Z" fill="rgb(156.28824476650564,171.99838969404186,106.61030595813205)" stroke="rgb(156.28824476650564,171.99838969404186,106.61030595813205)" stroke-width="1" />
<path d="M 354.66 1139.09 C 341.30 1160.62, 320.49 1145.89, 303.50 1153.11 C 289.97 1178.69, 263.03 1143.81, 248.94 1174.14 C 242.92 1196.64, 238.71 1218.63, 255.76 1230.21 C 265.77 1254.16, 243.41 1273.00, 259.17 1289.80 C 306.93 1310.17, 338.62 1271.47, 351.25 1233.72 C 365.54 1212.86, 337.32 1184.28, 371.71 1181.15 C 393.56 1163.99, 373.64 1142.07, 358.07 1139.09 Z" fill="rgb(199.54132901134523,204.3670988654781,115.22933549432739)" stroke="rgb(199.54132901134523,204.3670988654781,115.22933549432739)" stroke-width="1" />
<path d="M 1302.68 459.14 C 1292.22 497.66, 1265.43 461.32, 1244.71 473.16 C 1219.42 467.10, 1197.43 454.97, 1179.91 480.17 C 1174.49 512.71, 1209.71 503.25, 1227.66 504.70 C 1244.01 517.80, 1291.95 502.63, 1271.99 532.74 C 1262.75 561.10, 1286.39 582.77, 1309.50 578.31 C 1334.49 565.91, 1352.84 558.04, 1364.06 532.74 C 1388.68 516.42, 1404.64 493.18, 1370.88 483.67 C 1353.77 464.95, 1329.74 457.61, 1306.09 459.14 Z" fill="rgb(167.78426395939087,177.997461928934,114.71827411167513)" stroke="rgb(167.78426395939087,177.997461928934,114.71827411167513)" stroke-width="1" />
<path d="M 2564.44 2204.57 C 2544.85 2212.77, 2532.82 2233.73, 2509.88 2225.60 C 2479.95 2238.51, 2509.01 2256.56, 2526.93 2253.64 C 2555.03 2260.56, 2533.76 2295.12, 2557.62 2302.71 C 2576.77 2318.47, 2584.25 2347.71, 2612.18 2341.26 C 2632.59 2325.70, 2653.88 2345.08, 2670.15 2334.25 C 2674.91 2313.77, 2674.85 2292.35, 2659.92 2281.68 C 2628.66 2267.53, 2658.63 2238.85, 2625.82 2232.61 C 2608.25 2204.03, 2575.67 2238.00, 2567.85 2204.57 Z" fill="rgb(212.72372372372374,213.97897897897897,180.57057057057057)" stroke="rgb(212.72372372372374,213.97897897897897,180.57057057057057)" stroke-width="1" />
<path d="M 2881.58 1917.17 C 2875.47 1938.86, 2852.90 1940.35, 2833.84 1938.20 C 2801.42 1931.63, 2813.85 1967.99, 2799.74 1980.26 C 2779.52 2004.23, 2795.64 2018.75, 2809.97 2032.83 C 2798.39 2060.01, 2812.23 2073.88, 2833.84 2060.87 C 2845.14 2075.90, 2838.59 2119.32, 2861.12 2088.91 C 2873.65 2069.42, 2895.93 2062.63, 2905.45 2039.84 C 2924.94 2014.95, 2891.04 2002.10, 2891.81 1980.26 C 2896.84 1958.82, 2896.10 1936.00, 2884.99 1920.68 Z" fill="rgb(234.7940425531915,234.47148936170214,206.57702127659576)" stroke="rgb(234.7940425531915,234.47148936170214,206.57702127659576)" stroke-width="1" />
<path d="M 1916.51 497.69 C 1904.57 517.42, 1892.20 528.22, 1872.18 536.25 C 1872.96 561.27, 1897.90 562.45, 1892.64 588.82 C 1894.58 612.71, 1881.15 633.21, 1899.46 648.40 C 1921.44 665.28, 1941.93 645.01, 1950.61 627.37 C 1968.38 611.36, 1993.43 625.36, 2005.17 606.34 C 2017.58 583.93, 1996.54 563.03, 1994.94 550.27 C 1985.06 527.19, 1962.24 516.72, 1943.79 525.73 C 1908.59 526.22, 1961.62 492.54, 1919.92 497.69 Z" fill="rgb(185.46105919003116,198.95638629283488,126.8753894080997)" stroke="rgb(185.46105919003116,198.95638629283488,126.8753894080997)" stroke-width="1" />
<path d="M 378.53 2250.13 C 363.71 2263.05, 354.56 2292.35, 330.79 2288.69 C 305.81 2294.57, 292.76 2260.92, 272.81 2274.67 C 268.85 2297.24, 255.06 2316.39, 262.58 2334.25 C 266.31 2357.12, 272.11 2380.16, 296.68 2372.81 C 302.36 2399.18, 313.17 2419.39, 330.79 2393.83 C 356.59 2395.38, 369.75 2384.56, 371.71 2362.29 C 379.98 2339.75, 386.02 2321.20, 392.17 2302.71 C 384.58 2286.60, 411.00 2252.68, 381.94 2250.13 Z" fill="rgb(186.99828326180258,195.6618025751073,100.78369098712446)" stroke="rgb(186.99828326180258,195.6618025751073,100.78369098712446)" stroke-width="1" />
<path d="M 1520.93 420.59 C 1508.47 428.59, 1495.66 434.72, 1483.42 448.62 C 1471.07 465.81, 1491.22 484.53, 1480.01 497.69 C 1458.80 503.41, 1464.36 524.85, 1452.73 536.25 C 1466.05 549.25, 1486.85 567.75, 1466.37 578.31 C 1437.76 556.56, 1380.36 602.62, 1425.45 613.35 C 1449.94 630.85, 1503.29 616.36, 1500.47 581.81 C 1505.57 561.31, 1528.17 567.22, 1537.98 553.77 C 1560.69 551.07, 1532.25 511.12, 1555.03 522.23 C 1581.57 529.54, 1565.36 507.35, 1568.67 494.19 C 1585.30 473.76, 1562.51 457.64, 1548.21 469.65 C 1531.19 472.51, 1518.19 498.53, 1534.57 504.70 C 1531.30 518.26, 1506.97 522.13, 1497.06 511.71 C 1512.71 490.29, 1522.64 455.72, 1524.34 424.09 Z" fill="rgb(166.09716251074806,176.3396388650043,117.932932072227)" stroke="rgb(166.09716251074806,176.3396388650043,117.932932072227)" stroke-width="1" />
<path d="M 3113.47 1815.53 C 3095.68 1825.42, 3098.55 1845.70, 3103.24 1861.09 C 3093.25 1876.22, 3102.61 1897.53, 3099.83 1913.67 C 3099.81 1939.40, 3126.04 1934.61, 3130.52 1955.72 C 3150.85 1955.88, 3169.74 1959.07, 3181.68 1941.71 C 3199.36 1929.01, 3197.43 1909.41, 3202.14 1892.64 C 3215.74 1877.14, 3226.88 1855.27, 3212.37 1840.06 C 3189.00 1798.32, 3147.37 1847.55, 3116.88 1815.53 Z" fill="rgb(211.5780701754386,214.77105263157895,133.2342105263158)" stroke="rgb(211.5780701754386,214.77105263157895,133.2342105263158)" stroke-width="1" />
<path d="M 2069.96 1282.79 C 2062.97 1301.12, 2087.28 1286.04, 2087.02 1300.31 C 2075.79 1310.07, 2053.84 1310.76, 2052.91 1296.81 C 2046.61 1275.26, 2040.30 1295.21, 2039.27 1303.82 C 2029.55 1322.41, 2008.96 1315.07, 2005.17 1328.35 C 2006.69 1355.18, 2009.54 1387.14, 2039.27 1391.44 C 2054.84 1407.32, 2035.25 1411.61, 2025.63 1408.96 C 2009.27 1418.00, 2031.12 1426.97, 2039.27 1429.99 C 2047.76 1460.88, 2084.72 1437.99, 2097.25 1426.49 C 2066.97 1380.34, 2125.85 1432.08, 2131.35 1408.96 C 2151.15 1373.65, 2108.25 1364.12, 2097.25 1342.37 C 2101.89 1310.07, 2098.57 1293.57, 2073.38 1282.79 Z" fill="rgb(73.947695035461,87.64095744680851,57.105496453900706)" stroke="rgb(73.947695035461,87.64095744680851,57.105496453900706)" stroke-width="1" />
<path d="M 494.47 1212.69 C 472.73 1220.03, 451.96 1229.77, 433.09 1244.23 C 421.11 1271.28, 383.99 1272.19, 392.17 1303.82 C 384.76 1329.20, 431.43 1348.20, 422.86 1310.83 C 443.49 1287.10, 473.86 1299.54, 491.06 1279.28 C 518.47 1251.08, 498.52 1310.17, 518.34 1314.33 C 532.51 1317.29, 541.11 1311.38, 549.04 1303.82 C 564.70 1304.62, 568.49 1324.06, 579.73 1303.82 C 607.38 1277.26, 577.48 1257.88, 555.86 1258.25 C 536.38 1234.00, 526.89 1213.19, 497.88 1212.69 Z" fill="rgb(242.13566936208446,240.2533692722372,213.9433962264151)" stroke="rgb(242.13566936208446,240.2533692722372,213.9433962264151)" stroke-width="1" />
<path d="M 1752.82 1766.46 C 1745.24 1803.67, 1735.80 1832.95, 1728.95 1871.61 C 1726.08 1898.46, 1741.98 1906.02, 1759.64 1896.14 C 1784.48 1901.08, 1791.73 1925.07, 1807.38 1931.19 C 1824.16 1934.66, 1849.34 1910.13, 1841.48 1896.14 C 1847.23 1868.62, 1832.82 1865.03, 1827.84 1847.07 C 1835.71 1815.85, 1796.83 1827.30, 1800.56 1805.01 C 1794.48 1781.18, 1774.65 1770.31, 1756.23 1766.46 Z" fill="rgb(159.39684014869889,173.978624535316,115.53903345724908)" stroke="rgb(159.39684014869889,173.978624535316,115.53903345724908)" stroke-width="1" />
<path d="M 941.20 690.46 C 949.18 717.80, 924.90 720.68, 917.33 739.53 C 906.96 756.90, 908.41 783.23, 913.92 799.11 C 923.84 819.74, 924.54 846.59, 948.02 851.69 C 967.52 863.25, 990.71 882.53, 1009.41 865.71 C 1011.43 838.57, 990.44 830.45, 971.89 823.65 C 964.43 804.94, 1007.62 821.40, 1012.82 806.12 C 998.73 785.55, 1005.86 764.51, 995.77 746.54 C 987.08 718.29, 961.99 708.20, 944.61 690.46 Z" fill="rgb(145.92415730337078,159.85955056179776,101.50187265917603)" stroke="rgb(145.92415730337078,159.85955056179776,101.50187265917603)" stroke-width="1" />
<path d="M 2543.98 602.84 C 2528.41 616.70, 2535.54 653.48, 2503.05 644.90 C 2477.80 627.99, 2458.70 645.82, 2434.85 634.38 C 2416.16 620.84, 2368.25 658.12, 2404.16 662.42 C 2432.22 666.42, 2418.14 711.71, 2451.90 704.48 C 2479.12 689.64, 2501.63 708.71, 2520.11 722.01 C 2542.74 726.18, 2583.37 728.65, 2578.08 704.48 C 2573.44 675.20, 2531.93 683.84, 2543.98 648.40 C 2565.73 634.95, 2587.01 599.53, 2547.39 602.84 Z" fill="rgb(248.0946579194002,244.02061855670104,222.91752577319588)" stroke="rgb(248.0946579194002,244.02061855670104,222.91752577319588)" stroke-width="1" />
<path d="M 1544.80 2691.75 C 1541.53 2731.29, 1551.08 2765.38, 1558.44 2800.40 C 1560.34 2842.42, 1567.75 2878.58, 1572.08 2916.06 C 1579.88 2953.43, 1571.93 2994.00, 1578.90 3028.22 C 1580.94 3069.08, 1580.51 3117.83, 1609.59 3136.87 C 1636.63 3109.23, 1602.31 3067.98, 1606.18 3031.72 C 1603.79 2989.43, 1598.33 2953.41, 1595.95 2916.06 C 1595.45 2873.65, 1581.74 2841.82, 1582.31 2803.91 C 1573.45 2762.35, 1580.83 2715.02, 1548.21 2691.75 Z" fill="rgb(148.3754752851711,114.52566539923954,86.11311787072243)" stroke="rgb(148.3754752851711,114.52566539923954,86.11311787072243)" stroke-width="1" />
<path d="M 2983.89 2243.12 C 2966.51 2258.31, 2952.56 2259.94, 2939.55 2278.17 C 2931.16 2297.77, 2915.20 2313.31, 2895.22 2306.21 C 2876.24 2328.70, 2920.51 2332.46, 2915.68 2355.28 C 2923.82 2374.54, 2931.51 2400.19, 2953.20 2400.84 C 2971.05 2395.22, 2995.18 2374.59, 2973.66 2362.29 C 2982.77 2340.20, 3004.56 2357.75, 2997.53 2323.74 C 2998.42 2297.69, 3028.11 2293.28, 3028.22 2271.16 C 3026.33 2244.28, 3009.26 2239.53, 2987.30 2243.12 Z" fill="rgb(179.27891156462584,188.54324586977648,83.50728862973762)" stroke="rgb(179.27891156462584,188.54324586977648,83.50728862973762)" stroke-width="1" />
<path d="M 3079.37 2081.90 C 3065.23 2091.94, 3045.50 2079.27, 3031.63 2095.92 C 3009.13 2112.69, 3010.58 2134.71, 3000.94 2152.00 C 3001.99 2174.02, 3032.36 2175.93, 3045.27 2169.52 C 3069.66 2177.37, 3076.43 2134.92, 3089.60 2155.50 C 3088.14 2187.43, 3113.53 2153.70, 3130.52 2162.51 C 3157.77 2169.65, 3160.63 2145.88, 3157.80 2127.46 C 3146.22 2112.60, 3160.64 2078.71, 3137.34 2081.90 C 3113.62 2081.16, 3100.94 2093.83, 3082.78 2081.90 Z" fill="rgb(174.5752741774676,184.31006979062812,80.9481555333998)" stroke="rgb(174.5752741774676,184.31006979062812,80.9481555333998)" stroke-width="1" />
<path d="M 613.83 2074.89 C 570.77 2095.73, 588.99 2148.22, 559.27 2180.04 C 556.02 2234.33, 635.69 2219.14, 634.29 2264.15 C 654.16 2272.37, 675.41 2239.72, 651.34 2232.61 C 673.96 2214.39, 659.68 2191.52, 658.16 2173.03 C 680.03 2151.45, 651.32 2133.92, 630.88 2137.98 C 611.94 2119.26, 606.53 2099.43, 613.83 2078.40 Z" fill="rgb(90.54373757455268,110.77236580516899,54.388667992047715)" stroke="rgb(90.54373757455268,110.77236580516899,54.388667992047715)" stroke-width="1" />
<path d="M 2973.66 1829.55 C 2955.89 1847.73, 2932.63 1829.12, 2929.32 1854.08 C 2946.37 1875.42, 2915.71 1895.35, 2939.55 1910.16 C 2926.36 1937.94, 2936.98 1946.76, 2956.61 1962.73 C 2957.38 1988.59, 2926.71 2009.10, 2960.02 2022.32 C 2967.14 2054.18, 2984.88 2008.12, 2990.71 1997.78 C 3004.02 1975.73, 3011.87 1956.31, 3014.58 1934.70 C 3001.88 1914.46, 2981.22 1899.03, 2994.12 1875.11 C 2987.87 1855.05, 3014.49 1822.78, 2977.07 1829.55 Z" fill="rgb(177.79453441295547,185.43623481781376,96.93825910931174)" stroke="rgb(177.79453441295547,185.43623481781376,96.93825910931174)" stroke-width="1" />
<path d="M 617.24 1899.65 C 604.84 1929.85, 582.45 1934.80, 555.86 1920.68 C 540.81 1908.69, 485.18 1900.08, 497.88 1924.18 C 513.90 1919.04, 521.14 1933.73, 518.34 1945.21 C 504.77 1949.74, 487.16 1944.97, 484.24 1955.72 C 472.49 1979.95, 428.57 1986.23, 443.32 2018.81 C 472.59 2030.70, 463.22 1975.14, 497.88 1983.76 C 530.48 1981.64, 543.95 2017.49, 552.45 2039.84 C 571.03 2026.42, 573.90 1992.97, 593.37 1976.75 C 615.55 1955.44, 621.56 1922.52, 620.65 1899.65 Z" fill="rgb(242.48515864892528,240.17502558853633,216.55066530194472)" stroke="rgb(242.48515864892528,240.17502558853633,216.55066530194472)" stroke-width="1" />
<path d="M 1667.57 304.92 C 1638.80 321.46, 1598.16 344.90, 1613.00 382.03 C 1597.15 398.31, 1606.94 413.55, 1606.18 431.10 C 1624.14 462.07, 1636.48 428.93, 1647.11 438.11 C 1682.69 423.93, 1692.15 377.61, 1735.77 382.03 C 1752.19 364.56, 1723.48 351.89, 1711.90 346.98 C 1688.00 339.78, 1689.13 313.13, 1670.98 304.92 Z" fill="rgb(216.06611570247935,217.77169421487602,142.72107438016528)" stroke="rgb(216.06611570247935,217.77169421487602,142.72107438016528)" stroke-width="1" />
<path d="M 494.47 1279.28 C 479.41 1296.85, 456.91 1296.00, 436.50 1300.31 C 416.56 1330.91, 453.61 1335.87, 456.96 1359.89 C 465.12 1384.70, 506.85 1397.92, 484.24 1422.98 C 470.39 1435.22, 463.72 1426.66, 456.96 1415.97 C 456.96 1425.72, 456.96 1449.31, 456.96 1444.01 C 481.77 1438.88, 493.11 1422.41, 511.52 1408.96 C 533.93 1396.62, 561.02 1385.07, 552.45 1359.89 C 553.02 1339.37, 570.38 1294.61, 538.80 1314.33 C 506.68 1335.99, 509.99 1288.02, 497.88 1279.28 Z" fill="rgb(199.26791277258567,204.52232606438213,116.99273104880581)" stroke="rgb(199.26791277258567,204.52232606438213,116.99273104880581)" stroke-width="1" />
<path d="M 2942.96 1500.09 C 2930.14 1513.80, 2924.37 1551.70, 2946.38 1559.67 C 2976.97 1580.78, 2958.33 1610.29, 2932.73 1608.74 C 2911.06 1628.60, 2935.92 1649.35, 2932.73 1671.83 C 2927.87 1696.42, 2916.21 1726.10, 2946.38 1727.91 C 2963.56 1714.54, 2968.37 1688.70, 2973.66 1668.32 C 2989.34 1643.42, 3006.30 1632.12, 3017.99 1608.74 C 3015.44 1568.25, 2990.96 1591.64, 2977.07 1563.18 C 2989.74 1528.32, 2960.95 1521.31, 2946.38 1500.09 Z" fill="rgb(78.89240506329114,91.17827004219409,52.94198312236287)" stroke="rgb(78.89240506329114,91.17827004219409,52.94198312236287)" stroke-width="1" />
<path d="M 2158.63 739.53 C 2152.04 761.57, 2133.80 766.65, 2121.12 781.59 C 2097.41 796.28, 2091.38 817.05, 2076.79 834.16 C 2024.72 862.47, 2085.75 921.29, 2121.12 890.24 C 2110.32 865.51, 2130.40 846.57, 2148.40 862.20 C 2167.64 877.49, 2189.59 880.63, 2182.50 851.69 C 2155.45 816.29, 2184.01 771.23, 2162.04 739.53 Z" fill="rgb(229.86349206349206,230.67089947089949,197.73439153439153)" stroke="rgb(229.86349206349206,230.67089947089949,197.73439153439153)" stroke-width="1" />
<path d="M 2468.95 466.15 C 2457.74 478.24, 2447.16 495.92, 2455.31 511.71 C 2450.99 531.32, 2432.45 544.86, 2441.67 560.78 C 2422.34 599.87, 2466.44 624.96, 2496.23 627.37 C 2500.42 603.66, 2527.87 616.92, 2533.75 599.33 C 2536.25 579.67, 2535.25 560.78, 2520.11 553.77 C 2502.60 534.08, 2527.32 517.63, 2520.11 504.70 C 2498.27 498.61, 2491.20 474.29, 2472.36 466.15 Z" fill="rgb(212.08779443254818,214.88543897216275,131.15203426124197)" stroke="rgb(212.08779443254818,214.88543897216275,131.15203426124197)" stroke-width="1" />
<path d="M 1026.46 483.67 C 1000.73 493.06, 952.42 519.65, 975.30 553.77 C 996.30 553.17, 1000.75 572.05, 1016.23 578.31 C 1003.61 601.30, 1032.88 598.11, 1043.51 592.33 C 1063.45 561.82, 1123.99 555.11, 1098.07 518.72 C 1102.23 474.05, 1058.90 484.27, 1029.87 483.67 Z" fill="rgb(167.44349680170575,176.9765458422175,126.92963752665246)" stroke="rgb(167.44349680170575,176.9765458422175,126.92963752665246)" stroke-width="1" />
<path d="M 2755.41 1026.93 C 2755.39 1047.70, 2746.38 1069.41, 2755.41 1090.02 C 2766.09 1120.53, 2806.82 1069.17, 2803.15 1111.05 C 2783.09 1136.47, 2820.28 1135.92, 2833.84 1153.11 C 2856.77 1163.17, 2889.79 1159.64, 2888.40 1128.57 C 2880.56 1104.25, 2889.25 1083.88, 2881.58 1061.98 C 2862.95 1025.77, 2837.93 1061.00, 2840.66 1083.01 C 2816.74 1106.00, 2855.20 1033.87, 2820.20 1054.97 C 2792.73 1060.47, 2767.27 1052.57, 2758.82 1026.93 Z" fill="rgb(135.82346723044398,144.0845665961945,60.25581395348837)" stroke="rgb(135.82346723044398,144.0845665961945,60.25581395348837)" stroke-width="1" />
<path d="M 317.14 2555.06 C 295.52 2573.76, 268.55 2622.67, 313.73 2632.17 C 329.77 2643.62, 347.39 2648.08, 351.25 2663.71 C 361.79 2687.78, 378.63 2655.74, 392.17 2653.20 C 418.03 2639.14, 442.99 2588.85, 412.63 2572.58 C 397.59 2569.19, 375.62 2557.16, 368.30 2572.58 C 348.88 2584.68, 339.15 2554.60, 320.55 2558.56 Z" fill="rgb(211.98591549295776,215.1018418201517,132.50379198266523)" stroke="rgb(211.98591549295776,215.1018418201517,132.50379198266523)" stroke-width="1" />
<path d="M 1660.75 2814.42 C 1651.31 2835.44, 1610.39 2845.15, 1643.70 2866.99 C 1653.72 2890.18, 1641.32 2912.49, 1640.29 2933.59 C 1644.72 2960.29, 1638.42 2976.83, 1640.29 2996.67 C 1658.89 3016.48, 1636.06 3050.71, 1667.57 3056.26 C 1693.83 3039.87, 1666.82 3011.71, 1691.44 2996.67 C 1699.28 2967.91, 1686.05 2951.94, 1688.03 2930.08 C 1691.13 2907.08, 1687.50 2888.48, 1691.44 2866.99 C 1670.34 2852.85, 1689.69 2810.53, 1664.16 2814.42 Z" fill="rgb(184.51472191930208,141.44492911668485,97.24863685932388)" stroke="rgb(184.51472191930208,141.44492911668485,97.24863685932388)" stroke-width="1" />
<path d="M 2595.13 2222.10 C 2574.98 2233.20, 2542.82 2267.83, 2550.80 2295.70 C 2578.27 2320.89, 2596.01 2356.70, 2632.64 2334.25 C 2671.69 2354.44, 2686.48 2305.29, 2659.92 2288.69 C 2653.04 2271.29, 2631.30 2264.99, 2642.87 2246.63 C 2624.86 2238.50, 2614.50 2223.35, 2598.54 2222.10 Z" fill="rgb(237.8265306122449,236.42743764172334,214.359410430839)" stroke="rgb(237.8265306122449,236.42743764172334,214.359410430839)" stroke-width="1" />
<path d="M 913.92 1843.57 C 912.25 1881.47, 869.17 1918.04, 835.49 1889.13 C 809.32 1876.20, 811.40 1914.79, 794.57 1924.18 C 794.77 1947.91, 768.33 1964.39, 791.16 1980.26 C 804.07 2005.60, 826.78 1996.20, 838.90 1997.78 C 845.20 1971.03, 875.09 1974.73, 879.82 1952.22 C 900.53 1920.39, 925.44 1880.98, 917.33 1843.57 Z" fill="rgb(208.2568493150685,212.80479452054794,142.33561643835617)" stroke="rgb(208.2568493150685,212.80479452054794,142.33561643835617)" stroke-width="1" />
<path d="M 395.58 2039.84 C 362.72 2054.19, 338.46 2082.81, 327.38 2116.95 C 322.09 2138.72, 308.23 2151.87, 296.68 2166.02 C 293.44 2192.35, 321.59 2187.17, 334.20 2194.06 C 349.75 2196.95, 369.31 2188.72, 381.94 2190.55 C 399.96 2174.81, 424.93 2163.03, 402.40 2144.99 C 387.43 2113.68, 381.07 2070.58, 398.99 2043.35 Z" fill="rgb(211.5463917525773,214.7709049255441,138.0836197021764)" stroke="rgb(211.5463917525773,214.7709049255441,138.0836197021764)" stroke-width="1" />
<path d="M 2400.75 1205.68 C 2373.16 1231.33, 2335.38 1250.60, 2332.55 1293.30 C 2339.53 1309.49, 2328.22 1337.47, 2342.78 1338.87 C 2352.28 1323.93, 2370.06 1318.97, 2387.11 1317.84 C 2413.24 1307.44, 2412.63 1335.63, 2434.85 1331.86 C 2457.88 1321.53, 2425.34 1302.24, 2428.03 1286.29 C 2401.83 1275.58, 2429.71 1265.68, 2438.26 1251.24 C 2437.06 1227.38, 2421.18 1211.17, 2404.16 1205.68 Z" fill="rgb(106.08868144690781,127.8343057176196,53.67211201866978)" stroke="rgb(106.08868144690781,127.8343057176196,53.67211201866978)" stroke-width="1" />
<path d="M 1967.66 525.73 C 1956.55 538.29, 1956.84 560.90, 1940.38 567.79 C 1931.82 551.09, 1913.60 528.20, 1899.46 546.76 C 1901.69 586.27, 1877.83 622.14, 1902.87 648.40 C 1918.91 658.41, 1944.14 648.34, 1943.79 630.88 C 1959.63 614.06, 1980.04 620.53, 1994.94 613.35 C 2017.88 600.93, 2013.84 578.94, 1994.94 567.79 C 1990.09 550.03, 1982.59 532.65, 1971.07 525.73 Z" fill="rgb(151.89153754469606,172.8021454112038,99.7818831942789)" stroke="rgb(151.89153754469606,172.8021454112038,99.7818831942789)" stroke-width="1" />
<path d="M 2721.30 2120.45 C 2710.56 2138.19, 2675.88 2135.75, 2680.38 2166.02 C 2670.18 2201.86, 2709.00 2197.50, 2724.71 2187.05 C 2763.15 2193.57, 2701.14 2200.35, 2707.66 2225.60 C 2690.08 2252.85, 2664.64 2201.52, 2653.10 2232.61 C 2648.33 2260.84, 2682.21 2270.59, 2700.84 2278.17 C 2716.92 2305.17, 2753.83 2276.14, 2731.54 2253.64 C 2763.88 2211.54, 2759.51 2151.28, 2724.71 2120.45 Z" fill="rgb(111.0117508813161,123.72385428907168,62.72150411280846)" stroke="rgb(111.0117508813161,123.72385428907168,62.72150411280846)" stroke-width="1" />
<path d="M 2707.66 1903.15 C 2695.01 1912.73, 2681.81 1931.01, 2690.61 1948.71 C 2704.84 1977.09, 2663.55 1974.83, 2676.97 1997.78 C 2677.04 2021.44, 2667.12 2038.40, 2680.38 2053.86 C 2700.86 2047.34, 2721.92 2045.83, 2728.12 2025.82 C 2746.82 2024.14, 2754.66 2065.10, 2765.64 2032.83 C 2784.21 2013.06, 2787.14 1989.42, 2758.82 2001.29 C 2746.72 1982.02, 2745.98 1962.88, 2741.77 1945.21 C 2727.13 1932.03, 2735.59 1901.45, 2711.07 1903.15 Z" fill="rgb(109.0882708585248,125.07738814993954,65.78355501813785)" stroke="rgb(109.0882708585248,125.07738814993954,65.78355501813785)" stroke-width="1" />
<path d="M 985.54 641.39 C 962.10 666.26, 977.67 715.80, 999.18 736.03 C 1017.81 755.03, 996.19 774.46, 1012.82 785.09 C 1021.42 810.25, 1044.01 814.27, 1060.56 802.62 C 1092.10 790.73, 1052.41 768.26, 1067.38 753.55 C 1081.61 729.84, 1057.06 722.35, 1040.10 725.51 C 1042.27 706.88, 1044.65 683.31, 1026.46 676.44 C 1021.60 652.98, 1010.11 639.81, 988.95 641.39 Z" fill="rgb(242.6778042959427,239.65751789976133,217.2434367541766)" stroke="rgb(242.6778042959427,239.65751789976133,217.2434367541766)" stroke-width="1" />
<path d="M 2104.07 269.88 C 2086.72 279.93, 2058.88 304.08, 2066.55 325.95 C 2087.83 342.96, 2070.45 382.80, 2046.09 375.02 C 2011.74 376.13, 2028.34 416.66, 2046.09 424.09 C 2064.15 423.47, 2098.23 444.52, 2104.07 424.09 C 2107.19 396.03, 2160.91 410.17, 2148.40 382.03 C 2140.83 360.55, 2161.92 318.12, 2127.94 346.98 C 2120.88 379.67, 2079.58 368.85, 2090.43 339.97 C 2088.20 312.27, 2125.27 291.15, 2107.48 269.88 Z" fill="rgb(192.82230392156862,199.29044117647058,152.94730392156862)" stroke="rgb(192.82230392156862,199.29044117647058,152.94730392156862)" stroke-width="1" />
<path d="M 1323.14 459.14 C 1286.53 468.37, 1283.37 502.79, 1271.99 529.24 C 1252.67 560.56, 1302.74 595.09, 1319.73 571.30 C 1354.72 562.98, 1365.91 525.61, 1387.93 508.21 C 1381.85 492.11, 1353.06 466.73, 1326.55 459.14 Z" fill="rgb(134.95631067961165,148.04854368932038,81.40169902912622)" stroke="rgb(134.95631067961165,148.04854368932038,81.40169902912622)" stroke-width="1" />
<path d="M 961.66 2222.10 C 944.94 2231.19, 970.33 2258.99, 944.61 2260.65 C 922.92 2267.80, 912.12 2276.70, 893.46 2274.67 C 880.91 2284.19, 866.14 2290.28, 862.77 2302.71 C 876.69 2319.75, 861.36 2345.73, 876.41 2358.79 C 898.31 2383.90, 910.13 2350.30, 927.56 2348.27 C 948.00 2342.55, 960.58 2324.56, 961.66 2306.21 C 971.06 2286.31, 998.45 2278.94, 971.89 2260.65 C 980.46 2237.52, 993.68 2228.53, 965.07 2222.10 Z" fill="rgb(51.8279702970297,63.1509900990099,47.55321782178218)" stroke="rgb(51.8279702970297,63.1509900990099,47.55321782178218)" stroke-width="1" />
<path d="M 1507.29 1913.67 C 1499.91 1936.15, 1470.25 1919.83, 1459.55 1941.71 C 1446.98 1954.14, 1422.60 1980.58, 1411.80 1962.73 C 1428.03 1933.43, 1423.83 1935.71, 1398.16 1948.71 C 1385.59 1965.51, 1338.38 1955.71, 1360.65 1980.26 C 1380.71 1995.42, 1399.33 2015.65, 1411.80 2029.33 C 1437.05 2050.58, 1443.97 2007.18, 1462.96 2001.29 C 1483.48 1992.39, 1502.39 1989.80, 1503.88 1966.24 C 1503.15 1947.61, 1529.83 1920.28, 1510.70 1913.67 Z" fill="rgb(225.9179104477612,224.25497512437812,200.2002487562189)" stroke="rgb(225.9179104477612,224.25497512437812,200.2002487562189)" stroke-width="1" />
<path d="M 3031.63 1412.47 C 3008.71 1426.14, 3026.40 1440.25, 3028.22 1458.03 C 3016.91 1486.25, 3037.63 1478.89, 3055.50 1479.06 C 3067.16 1497.63, 3067.27 1516.16, 3082.78 1528.13 C 3090.34 1550.51, 3104.62 1571.94, 3113.47 1542.15 C 3117.16 1526.69, 3121.54 1496.08, 3140.75 1510.60 C 3150.14 1494.83, 3150.17 1468.96, 3137.34 1461.54 C 3098.05 1452.43, 3070.25 1423.24, 3035.04 1412.47 Z" fill="rgb(243.09541511771994,239.0260223048327,213.81536555142503)" stroke="rgb(243.09541511771994,239.0260223048327,213.81536555142503)" stroke-width="1" />
<path d="M 654.75 2344.77 C 639.39 2349.71, 654.84 2373.20, 644.52 2383.32 C 627.66 2393.71, 631.56 2410.65, 627.47 2425.38 C 615.40 2466.38, 661.89 2468.77, 685.44 2463.93 C 716.27 2443.67, 743.32 2420.60, 740.00 2383.32 C 722.70 2385.12, 708.17 2384.99, 695.67 2379.82 C 694.04 2357.83, 673.07 2345.36, 658.16 2344.77 Z" fill="rgb(80.08014796547472,99.69667077681875,53.27990135635019)" stroke="rgb(80.08014796547472,99.69667077681875,53.27990135635019)" stroke-width="1" />
<path d="M 1783.51 1917.17 C 1774.89 1932.59, 1783.86 1949.85, 1783.51 1966.24 C 1770.93 1981.84, 1772.82 2003.55, 1763.05 2015.31 C 1746.68 2015.22, 1737.89 2060.91, 1756.23 2046.85 C 1770.96 2038.61, 1788.84 2056.32, 1807.38 2053.86 C 1824.69 2048.43, 1850.10 2070.90, 1844.89 2043.35 C 1849.22 2022.31, 1882.26 2004.26, 1851.71 1994.28 C 1852.83 1964.57, 1834.52 1969.25, 1817.61 1959.23 C 1821.70 1931.85, 1797.78 1937.59, 1786.92 1917.17 Z" fill="rgb(129.40391676866585,139.45410036719707,99.56058751529987)" stroke="rgb(129.40391676866585,139.45410036719707,99.56058751529987)" stroke-width="1" />
<path d="M 2124.53 487.18 C 2108.43 500.90, 2083.00 504.14, 2073.38 525.73 C 2046.79 540.66, 2042.22 556.74, 2029.04 578.31 C 2022.39 600.03, 1988.81 619.27, 1998.35 634.38 C 2020.99 629.46, 2044.25 634.58, 2059.73 620.36 C 2075.44 594.27, 2096.13 606.48, 2114.30 613.35 C 2146.13 607.12, 2143.01 568.13, 2117.71 574.80 C 2093.37 594.30, 2077.37 576.23, 2093.84 553.77 C 2110.48 532.65, 2132.15 517.18, 2127.94 490.68 Z" fill="rgb(244.45261845386534,243.0773067331671,218.14837905236908)" stroke="rgb(244.45261845386534,243.0773067331671,218.14837905236908)" stroke-width="1" />
</svg>