<svg xmlns="http://www.w3.org/2000/svg" width="3492" height="3589" viewbox="0 0 3492 3589">
<path d="M 1.71 1.75 C -1133.90 8638.69, 8405.21 -1165.40, 1.71 1.75 Z" fill="rgb(nan,nan,nan)" stroke="rgb(nan,nan,nan)" stroke-width="1" />
<path d="M 1.71 1.75 C 1.71 36.80, 1.71 71.85, 1.71 106.90 C 1.71 146.62, 1.71 182.84, 1.71 219.06 C 1.71 258.78, 1.71 294.99, 1.71 331.21 C 1.71 370.93, 1.71 407.15, 1.71 443.37 C 1.71 483.09, 1.71 519.31, 1.71 555.52 C 1.71 595.25, 1.71 631.46, 1.71 667.68 C 1.71 707.40, 1.71 743.62, 1.71 779.84 C 1.71 819.56, 1.71 855.78, 1.71 891.99 C 1.71 931.71, 1.71 967.93, 1.71 1004.15 C 1.71 1043.87, 1.71 1080.09, 1.71 1116.31 C 1.71 1156.03, 1.71 1192.24, 1.71 1228.46 C 1.71 1268.18, 1.71 1304.40, 1.71 1340.62 C 1.71 1380.34, 1.71 1416.56, 1.71 1452.77 C 1.71 1492.50, 1.71 1528.71, 1.71 1564.93 C 1.71 1604.65, 1.71 1640.87, 1.71 1677.09 C 1.71 1716.81, 1.71 1753.03, 1.71 1789.24 C 1.71 1828.96, 1.71 1865.18, 1.71 1901.40 C 1.71 1941.12, 1.71 1977.34, 1.71 2013.56 C 1.71 2053.28, 1.71 2089.49, 1.71 2125.71 C 1.71 2165.43, 1.71 2201.65, 1.71 2237.87 C 1.71 2277.59, 1.71 2313.81, 1.71 2350.02 C 1.71 2389.75, 1.71 2425.96, 1.71 2462.18 C 1.71 2501.90, 1.71 2538.12, 1.71 2574.34 C 1.71 2614.06, 1.71 2650.28, 1.71 2686.49 C 1.71 2726.21, 1.71 2762.43, 1.71 2798.65 C 1.71 2838.37, 1.71 2874.59, 1.71 2910.81 C 1.71 2950.53, 1.71 2986.74, 1.71 3022.96 C 1.71 3062.68, 1.71 3098.90, 1.71 3135.12 C 1.71 3174.84, 1.71 3211.06, 1.71 3247.27 C 1.71 3287.00, 1.71 3323.21, 1.71 3359.43 C 1.71 3399.15, 1.71 3435.37, 1.71 3471.59 C 1.71 3511.31, 1.71 3547.53, 1.71 3583.74 C 35.81 3587.25, 69.91 3587.25, 104.01 3587.25 C 142.66 3587.25, 177.90 3587.25, 213.13 3587.25 C 251.78 3587.25, 287.02 3587.25, 322.26 3587.25 C 360.91 3587.25, 396.15 3587.25, 431.38 3587.25 C 470.03 3587.25, 505.27 3587.25, 540.51 3587.25 C 579.16 3587.25, 614.40 3587.25, 649.63 3587.25 C 688.28 3587.25, 723.52 3587.25, 758.76 3587.25 C 797.41 3587.25, 832.65 3587.25, 867.88 3587.25 C 906.53 3587.25, 941.77 3587.25, 977.01 3587.25 C 1015.66 3587.25, 1050.90 3587.25, 1086.13 3587.25 C 1124.78 3587.25, 1160.02 3587.25, 1195.26 3587.25 C 1233.91 3587.25, 1269.15 3587.25, 1304.38 3587.25 C 1343.03 3587.25, 1378.27 3587.25, 1413.51 3587.25 C 1452.16 3587.25, 1487.40 3587.25, 1522.63 3587.25 C 1561.28 3587.25, 1596.52 3587.25, 1631.76 3587.25 C 1670.41 3587.25, 1705.65 3587.25, 1740.88 3587.25 C 1779.53 3587.25, 1814.77 3587.25, 1850.01 3587.25 C 1888.66 3587.25, 1923.90 3587.25, 1959.13 3587.25 C 1997.78 3587.25, 2033.02 3587.25, 2068.26 3587.25 C 2106.91 3587.25, 2142.15 3587.25, 2177.38 3587.25 C 2216.03 3587.25, 2251.27 3587.25, 2286.51 3587.25 C 2325.16 3587.25, 2360.40 3587.25, 2395.63 3587.25 C 2434.28 3587.25, 2469.52 3587.25, 2504.76 3587.25 C 2543.41 3587.25, 2578.65 3587.25, 2613.88 3587.25 C 2652.53 3587.25, 2687.77 3587.25, 2723.01 3587.25 C 2761.66 3587.25, 2796.90 3587.25, 2832.13 3587.25 C 2870.78 3587.25, 2906.02 3587.25, 2941.26 3587.25 C 2979.91 3587.25, 3015.15 3587.25, 3050.38 3587.25 C 3089.03 3587.25, 3124.27 3587.25, 3159.51 3587.25 C 3198.16 3587.25, 3233.40 3587.25, 3268.63 3587.25 C 3307.28 3587.25, 3342.52 3587.25, 3377.76 3587.25 C 3416.41 3587.25, 3451.65 3587.25, 3486.88 3587.25 C 3490.29 3552.20, 3490.29 3517.15, 3490.29 3482.10 C 3490.29 3442.38, 3490.29 3406.16, 3490.29 3369.94 C 3490.29 3330.22, 3490.29 3294.01, 3490.29 3257.79 C 3490.29 3218.07, 3490.29 3181.85, 3490.29 3145.63 C 3490.29 3105.91, 3490.29 3069.69, 3490.29 3033.48 C 3490.29 2993.75, 3490.29 2957.54, 3490.29 2921.32 C 3490.29 2881.60, 3490.29 2845.38, 3490.29 2809.16 C 3490.29 2769.44, 3490.29 2733.22, 3490.29 2697.01 C 3490.29 2657.29, 3490.29 2621.07, 3490.29 2584.85 C 3490.29 2545.13, 3490.29 2508.91, 3490.29 2472.69 C 3490.29 2432.97, 3490.29 2396.76, 3490.29 2360.54 C 3490.29 2320.82, 3490.29 2284.60, 3490.29 2248.38 C 3490.29 2208.66, 3490.29 2172.44, 3490.29 2136.23 C 3490.29 2096.50, 3490.29 2060.29, 3490.29 2024.07 C 3490.29 1984.35, 3490.29 1948.13, 3490.29 1911.91 C 3490.29 1872.19, 3490.29 1835.97, 3490.29 1799.76 C 3490.29 1760.04, 3490.29 1723.82, 3490.29 1687.60 C 3490.29 1647.88, 3490.29 1611.66, 3490.29 1575.44 C 3490.29 1535.72, 3490.29 1499.51, 3490.29 1463.29 C 3490.29 1423.57, 3490.29 1387.35, 3490.29 1351.13 C 3490.29 1311.41, 3490.29 1275.19, 3490.29 1238.98 C 3490.29 1199.25, 3490.29 1163.04, 3490.29 1126.82 C 3490.29 1087.10, 3490.29 1050.88, 3490.29 1014.66 C 3490.29 974.94, 3490.29 938.72, 3490.29 902.51 C 3490.29 862.79, 3490.29 826.57, 3490.29 790.35 C 3490.29 750.63, 3490.29 714.41, 3490.29 678.19 C 3490.29 638.47, 3490.29 602.26, 3490.29 566.04 C 3490.29 526.32, 3490.29 490.10, 3490.29 453.88 C 3490.29 414.16, 3490.29 377.94, 3490.29 341.73 C 3490.29 302.00, 3490.29 265.79, 3490.29 229.57 C 3490.29 189.85, 3490.29 153.63, 3490.29 117.41 C 3490.29 77.69, 3490.29 41.47, 3490.29 5.26 C 3456.19 1.75, 3422.09 1.75, 3387.99 1.75 C 3349.34 1.75, 3314.10 1.75, 3278.87 1.75 C 3240.22 1.75, 3204.98 1.75, 3169.74 1.75 C 3131.09 1.75, 3095.85 1.75, 3060.62 1.75 C 3021.97 1.75, 2986.73 1.75, 2951.49 1.75 C 2912.84 1.75, 2877.60 1.75, 2842.37 1.75 C 2803.72 1.75, 2768.48 1.75, 2733.24 1.75 C 2694.59 1.75, 2659.35 1.75, 2624.12 1.75 C 2585.47 1.75, 2550.23 1.75, 2514.99 1.75 C 2476.34 1.75, 2441.10 1.75, 2405.87 1.75 C 2367.22 1.75, 2331.98 1.75, 2296.74 1.75 C 2258.09 1.75, 2222.85 1.75, 2187.62 1.75 C 2148.97 1.75, 2113.73 1.75, 2078.49 1.75 C 2039.84 1.75, 2004.60 1.75, 1969.37 1.75 C 1930.72 1.75, 1895.48 1.75, 1860.24 1.75 C 1821.59 1.75, 1786.35 1.75, 1751.12 1.75 C 1712.47 1.75, 1677.23 1.75, 1641.99 1.75 C 1603.34 1.75, 1568.10 1.75, 1532.87 1.75 C 1494.22 1.75, 1458.98 1.75, 1423.74 1.75 C 1385.09 1.75, 1349.85 1.75, 1314.62 1.75 C 1275.97 1.75, 1240.73 1.75, 1205.49 1.75 C 1166.84 1.75, 1131.60 1.75, 1096.37 1.75 C 1057.72 1.75, 1022.48 1.75, 987.24 1.75 C 948.59 1.75, 913.35 1.75, 878.12 1.75 C 839.47 1.75, 804.23 1.75, 768.99 1.75 C 730.34 1.75, 695.10 1.75, 659.87 1.75 C 621.22 1.75, 585.98 1.75, 550.74 1.75 C 512.09 1.75, 476.85 1.75, 441.62 1.75 C 402.97 1.75, 367.73 1.75, 332.49 1.75 C 293.84 1.75, 258.60 1.75, 223.37 1.75 C 184.72 1.75, 149.48 1.75, 114.24 1.75 C 75.59 1.75, 40.35 1.75, 5.12 1.75 Z" fill="rgb(219.2281268252269,222.79760564657067,201.03463125970347)" stroke="rgb(219.2281268252269,222.79760564657067,201.03463125970347)" stroke-width="1" />
<path d="M 1597.66 1785.74 C 1581.10 1815.61, 1576.16 1840.48, 1560.15 1873.36 C 1563.15 1900.86, 1537.68 1941.66, 1543.10 1971.50 C 1540.76 2001.80, 1538.99 2035.19, 1539.69 2066.13 C 1540.27 2102.38, 1548.68 2131.80, 1549.92 2164.27 C 1552.55 2200.89, 1554.09 2230.41, 1570.38 2258.90 C 1573.95 2317.06, 1538.46 2238.15, 1529.46 2220.34 C 1507.51 2192.74, 1483.18 2165.85, 1481.71 2129.22 C 1475.68 2086.02, 1435.54 2071.91, 1416.92 2038.09 C 1385.29 2009.07, 1356.89 1984.02, 1324.85 1967.99 C 1306.56 1960.40, 1293.18 1963.60, 1277.10 1964.49 C 1271.41 1957.84, 1264.13 1936.95, 1243.00 1936.45 C 1219.33 1903.00, 1176.06 1919.41, 1185.03 1957.48 C 1170.24 1974.32, 1148.29 1964.36, 1144.11 1953.97 C 1128.41 1971.06, 1157.59 1982.95, 1157.75 1999.54 C 1168.90 2017.45, 1243.28 2019.72, 1188.44 2041.59 C 1199.99 2073.16, 1221.57 2103.34, 1253.23 2125.71 C 1285.09 2156.04, 1322.49 2177.31, 1345.31 2213.33 C 1345.63 2256.97, 1374.31 2277.50, 1393.05 2307.97 C 1403.57 2354.26, 1452.33 2343.59, 1474.89 2371.05 C 1495.13 2403.16, 1474.83 2438.42, 1485.12 2469.19 C 1482.87 2507.42, 1502.97 2534.08, 1515.81 2563.82 C 1526.53 2598.18, 1530.80 2631.78, 1543.10 2661.96 C 1557.93 2793.47, 1581.98 2917.55, 1584.02 3051.00 C 1581.15 3089.49, 1594.35 3117.63, 1607.89 3145.63 C 1605.32 3182.26, 1612.04 3211.42, 1611.30 3243.77 C 1612.38 3280.05, 1612.03 3312.21, 1597.66 3338.40 C 1583.08 3369.82, 1560.82 3401.66, 1573.79 3436.54 C 1565.40 3467.77, 1609.99 3505.28, 1638.58 3492.62 C 1670.97 3462.34, 1702.36 3496.10, 1734.06 3499.63 C 1766.86 3504.37, 1801.42 3512.18, 1829.55 3499.63 C 1857.78 3483.30, 1913.53 3475.72, 1897.75 3433.03 C 1883.85 3402.65, 1887.21 3368.42, 1880.70 3338.40 C 1859.85 3307.87, 1854.28 3274.35, 1850.01 3240.26 C 1843.31 3203.91, 1834.51 3173.41, 1819.32 3145.63 C 1808.25 3111.91, 1798.41 3081.16, 1795.45 3047.50 C 1795.45 3013.62, 1795.45 2983.24, 1795.45 2952.86 C 1796.06 2916.63, 1804.64 2887.28, 1805.68 2854.73 C 1805.68 2819.68, 1805.68 2788.13, 1805.68 2756.59 C 1798.39 2721.74, 1787.44 2691.95, 1785.22 2658.45 C 1780.21 2625.74, 1777.21 2595.67, 1778.40 2563.82 C 1772.22 2522.76, 1801.69 2500.37, 1802.27 2465.69 C 1808.31 2423.81, 1851.10 2417.28, 1870.47 2385.07 C 1897.77 2352.61, 1914.88 2321.26, 1942.08 2290.44 C 1965.72 2259.80, 1991.18 2243.36, 2010.29 2209.83 C 2038.88 2180.66, 2037.35 2142.18, 2054.62 2111.69 C 2075.86 2078.43, 2094.74 2049.11, 2098.95 2013.56 C 2096.08 1992.19, 2120.23 1984.38, 2116.00 1964.49 C 2107.59 1949.53, 2103.34 1923.02, 2122.82 1918.92 C 2131.11 1880.23, 2093.41 1863.08, 2122.82 1827.80 C 2110.92 1776.63, 2063.59 1815.43, 2047.80 1838.31 C 2042.86 1874.96, 2028.64 1906.48, 2006.88 1929.44 C 2015.97 1963.62, 1989.49 1993.30, 1972.78 2013.56 C 1966.84 2043.68, 1925.98 2069.75, 1925.03 2104.68 C 1917.71 2152.13, 1879.64 2151.37, 1856.83 2178.28 C 1851.04 2197.63, 1823.11 2194.58, 1826.14 2216.84 C 1824.99 2232.89, 1808.71 2258.48, 1832.96 2258.90 C 1842.40 2268.89, 1871.67 2284.04, 1850.01 2297.45 C 1837.12 2306.58, 1809.84 2273.22, 1812.50 2304.46 C 1836.69 2343.47, 1794.05 2367.89, 1764.76 2357.03 C 1729.02 2351.30, 1689.87 2365.38, 1682.91 2325.49 C 1673.05 2291.73, 1667.13 2259.81, 1662.45 2227.35 C 1659.90 2191.94, 1660.13 2158.85, 1652.22 2129.22 C 1646.44 2096.83, 1648.40 2064.65, 1645.40 2034.58 C 1661.03 1999.22, 1647.57 1971.93, 1652.22 1936.45 C 1647.03 1900.72, 1677.73 1879.62, 1659.04 1841.82 C 1658.52 1823.58, 1657.41 1800.05, 1638.58 1799.76 C 1615.27 1804.67, 1609.18 1809.44, 1601.07 1785.74 Z" fill="rgb(155.05205106897333,120.97741180025686,83.15292991866234)" stroke="rgb(155.05205106897333,120.97741180025686,83.15292991866234)" stroke-width="1" />
<path d="M 1338.49 1550.91 C 1336.96 1581.53, 1326.27 1620.97, 1294.15 1606.99 C 1257.34 1598.46, 1231.89 1584.61, 1212.31 1561.43 C 1167.33 1541.09, 1194.13 1599.99, 1171.39 1621.01 C 1136.44 1605.26, 1120.97 1600.52, 1113.42 1649.05 C 1094.58 1682.80, 1100.24 1715.89, 1140.70 1715.64 C 1149.14 1752.20, 1203.57 1736.63, 1208.90 1775.22 C 1190.31 1805.71, 1200.60 1842.53, 1219.13 1866.35 C 1222.50 1899.37, 1254.16 1942.62, 1283.92 1915.42 C 1304.32 1898.18, 1327.60 1867.30, 1345.31 1848.83 C 1380.90 1856.15, 1367.76 1862.88, 1389.64 1894.39 C 1384.55 1918.29, 1411.87 1913.46, 1420.33 1904.90 C 1438.38 1927.81, 1449.55 1904.98, 1461.25 1897.89 C 1504.48 1886.44, 1494.49 1848.71, 1502.17 1817.28 C 1533.02 1783.15, 1481.40 1756.61, 1457.84 1757.70 C 1438.97 1737.34, 1428.24 1702.63, 1416.92 1673.58 C 1377.58 1658.70, 1417.07 1580.95, 1372.59 1614.00 C 1355.63 1606.84, 1342.11 1580.24, 1362.36 1575.44 C 1370.43 1551.81, 1348.46 1567.45, 1341.90 1550.91 Z" fill="rgb(86.52604422604422,99.17076167076166,62.38894348894349)" stroke="rgb(86.52604422604422,99.17076167076166,62.38894348894349)" stroke-width="1" />
<path d="M 1287.33 2164.27 C 1262.86 2174.28, 1281.02 2220.11, 1249.82 2223.85 C 1210.93 2196.47, 1217.92 2245.84, 1195.26 2255.39 C 1166.38 2248.81, 1149.17 2278.17, 1144.11 2300.96 C 1140.73 2330.94, 1116.10 2348.38, 1120.24 2378.06 C 1114.93 2404.20, 1133.87 2431.96, 1147.52 2448.16 C 1180.25 2452.54, 1181.44 2498.09, 1215.72 2490.22 C 1249.03 2493.72, 1258.20 2462.71, 1263.46 2507.74 C 1267.06 2538.28, 1293.39 2564.86, 1318.03 2556.81 C 1334.52 2537.94, 1368.28 2541.60, 1386.23 2556.81 C 1414.83 2548.42, 1434.86 2527.19, 1461.25 2521.76 C 1490.28 2510.53, 1471.07 2473.90, 1474.89 2455.17 C 1457.76 2429.69, 1493.19 2402.81, 1471.48 2378.06 C 1449.12 2355.83, 1424.21 2351.87, 1399.87 2346.52 C 1368.07 2362.32, 1345.30 2336.82, 1338.49 2311.47 C 1334.60 2282.95, 1346.17 2261.94, 1345.31 2234.36 C 1343.31 2200.25, 1305.98 2184.90, 1290.74 2164.27 Z" fill="rgb(84.2358121330724,94.6917808219178,68.23231758456808)" stroke="rgb(84.2358121330724,94.6917808219178,68.23231758456808)" stroke-width="1" />
<path d="M 523.46 881.48 C 497.51 903.97, 470.83 924.63, 438.21 930.55 C 403.13 953.22, 383.55 989.07, 359.77 1014.66 C 337.67 1048.07, 317.23 1078.88, 298.39 1105.79 C 296.67 1150.45, 240.49 1138.99, 219.96 1126.82 C 179.32 1106.59, 170.35 1152.68, 151.75 1172.38 C 164.54 1192.61, 145.70 1258.11, 161.98 1249.49 C 169.99 1196.41, 213.03 1222.28, 226.78 1249.49 C 237.10 1274.57, 266.89 1296.49, 294.98 1298.56 C 330.26 1291.43, 344.78 1253.12, 356.36 1224.96 C 381.24 1205.88, 425.67 1235.87, 407.51 1179.39 C 406.09 1140.07, 427.82 1114.10, 441.62 1084.76 C 459.43 1074.98, 468.97 1056.62, 485.95 1056.72 C 494.90 1081.09, 516.30 1071.06, 516.64 1049.71 C 528.38 1016.06, 566.67 997.42, 595.07 1004.15 C 632.16 1052.58, 644.42 999.52, 656.46 972.60 C 631.69 957.19, 663.63 882.95, 615.53 909.52 C 581.83 918.96, 565.75 867.12, 526.87 881.48 Z" fill="rgb(217.81863117870722,219.5416349809886,143.00817490494296)" stroke="rgb(217.81863117870722,219.5416349809886,143.00817490494296)" stroke-width="1" />
<path d="M 2177.38 906.01 C 2157.50 919.67, 2159.98 946.81, 2143.28 958.59 C 2124.49 976.17, 2147.41 996.40, 2129.64 1014.66 C 2127.54 1042.71, 2101.02 1049.88, 2092.13 1070.74 C 2087.79 1086.34, 2122.74 1101.86, 2105.77 1126.82 C 2102.12 1175.84, 2068.87 1207.13, 2105.77 1249.49 C 2103.23 1275.64, 2138.84 1255.34, 2150.10 1267.02 C 2171.71 1282.79, 2191.26 1271.99, 2211.49 1270.52 C 2261.96 1263.77, 2266.13 1204.03, 2293.33 1175.89 C 2279.85 1156.63, 2278.44 1130.22, 2296.74 1116.31 C 2326.64 1100.71, 2295.63 1075.35, 2313.79 1056.72 C 2327.34 1038.84, 2316.85 1014.23, 2324.02 997.14 C 2309.76 980.16, 2318.57 938.94, 2296.74 944.57 C 2274.94 949.43, 2260.95 931.80, 2238.77 941.06 C 2215.98 926.74, 2204.41 907.53, 2180.79 906.01 Z" fill="rgb(95.88013029315961,112.7058631921824,64.64820846905538)" stroke="rgb(95.88013029315961,112.7058631921824,64.64820846905538)" stroke-width="1" />
<path d="M 2385.40 671.19 C 2346.63 687.46, 2316.57 664.59, 2306.97 727.26 C 2305.63 770.88, 2203.03 752.72, 2238.77 811.38 C 2262.29 855.53, 2308.17 861.19, 2341.07 874.47 C 2380.66 894.56, 2427.27 900.50, 2457.02 934.05 C 2478.23 931.93, 2499.51 938.43, 2514.99 930.55 C 2539.20 931.20, 2562.46 947.02, 2559.32 913.02 C 2557.66 896.65, 2510.05 885.85, 2549.09 867.46 C 2574.89 859.65, 2579.10 829.40, 2572.96 811.38 C 2585.11 754.37, 2533.34 732.38, 2494.53 723.76 C 2471.41 720.04, 2448.78 723.58, 2433.15 709.74 C 2414.69 691.67, 2419.66 661.61, 2388.81 671.19 Z" fill="rgb(177.90726817042608,181.92898913951547,74.49289891395155)" stroke="rgb(177.90726817042608,181.92898913951547,74.49289891395155)" stroke-width="1" />
<path d="M 1577.20 755.30 C 1559.99 775.90, 1551.77 804.72, 1526.04 818.39 C 1492.85 826.63, 1487.39 862.01, 1471.48 877.97 C 1429.29 910.26, 1381.48 891.45, 1335.08 913.02 C 1284.32 923.66, 1249.56 1000.96, 1300.97 1032.19 C 1326.02 1046.13, 1339.48 1075.37, 1369.18 1070.74 C 1382.17 1102.09, 1426.49 1072.12, 1430.56 1098.78 C 1500.89 1118.35, 1492.40 1029.99, 1447.61 1000.64 C 1434.67 956.77, 1488.89 983.25, 1488.53 951.58 C 1486.13 913.85, 1525.53 922.26, 1543.10 909.52 C 1565.59 894.79, 1590.96 886.09, 1611.30 884.98 C 1649.79 842.07, 1589.68 876.57, 1601.07 846.43 C 1629.28 834.68, 1635.04 808.20, 1638.58 783.34 C 1616.08 764.23, 1588.54 796.76, 1580.61 755.30 Z" fill="rgb(149.83388925950635,168.96997998665776,97.99533022014677)" stroke="rgb(149.83388925950635,168.96997998665776,97.99533022014677)" stroke-width="1" />
<path d="M 1543.10 247.09 C 1497.13 250.16, 1496.73 313.42, 1447.61 313.69 C 1416.62 316.19, 1430.24 345.67, 1444.20 359.25 C 1454.89 380.40, 1449.79 398.11, 1454.43 418.83 C 1448.02 499.04, 1513.89 399.39, 1532.87 429.35 C 1537.07 451.01, 1524.79 473.58, 1536.28 467.90 C 1554.84 453.74, 1582.68 448.77, 1587.43 474.91 C 1589.00 494.03, 1604.93 521.20, 1621.53 492.44 C 1640.61 468.21, 1644.05 485.85, 1659.04 464.40 C 1697.12 438.02, 1674.54 380.53, 1737.47 383.78 C 1733.19 352.63, 1683.84 325.46, 1659.04 299.67 C 1624.34 258.03, 1593.89 244.13, 1546.51 247.09 Z" fill="rgb(227.19332901554404,226.18944300518135,160.52137305699483)" stroke="rgb(227.19332901554404,226.18944300518135,160.52137305699483)" stroke-width="1" />
<path d="M 2388.81 394.30 C 2376.12 406.96, 2359.78 410.57, 2341.07 408.32 C 2312.47 406.36, 2339.42 440.93, 2330.84 450.38 C 2311.08 463.52, 2292.73 440.30, 2279.69 464.40 C 2264.04 480.92, 2279.56 510.94, 2296.74 509.96 C 2357.72 488.03, 2312.32 559.56, 2303.56 583.56 C 2316.97 603.42, 2341.56 604.86, 2351.30 622.12 C 2359.57 638.89, 2355.72 674.51, 2378.58 660.67 C 2394.51 614.83, 2438.83 630.37, 2474.07 632.63 C 2504.04 628.36, 2549.08 610.27, 2535.45 569.54 C 2510.32 526.25, 2523.61 504.43, 2491.12 467.90 C 2487.58 443.50, 2463.12 434.83, 2446.79 429.35 C 2424.85 421.32, 2415.09 391.54, 2392.22 394.30 Z" fill="rgb(231.2432528409091,230.35511363636363,165.77024147727272)" stroke="rgb(231.2432528409091,230.35511363636363,165.77024147727272)" stroke-width="1" />
<path d="M 1202.08 1571.94 C 1179.51 1580.06, 1186.00 1603.23, 1174.80 1621.01 C 1148.99 1631.36, 1126.70 1582.23, 1127.06 1621.01 C 1114.38 1641.68, 1113.73 1662.52, 1106.60 1680.59 C 1092.58 1709.66, 1133.98 1705.31, 1147.52 1712.14 C 1153.65 1736.68, 1176.22 1748.13, 1195.26 1750.69 C 1205.79 1763.41, 1246.85 1780.60, 1243.00 1757.70 C 1232.58 1721.49, 1259.53 1755.89, 1270.28 1757.70 C 1284.76 1737.68, 1303.12 1721.00, 1324.85 1736.67 C 1341.81 1708.29, 1355.95 1766.92, 1372.59 1750.69 C 1396.18 1751.50, 1413.53 1746.80, 1399.87 1719.15 C 1424.21 1705.52, 1417.35 1682.72, 1410.10 1666.57 C 1374.79 1674.36, 1405.70 1638.22, 1393.05 1621.01 C 1392.03 1602.70, 1361.69 1631.48, 1348.72 1599.98 C 1313.08 1580.60, 1335.12 1642.59, 1314.62 1624.51 C 1302.77 1595.60, 1275.58 1627.19, 1260.05 1599.98 C 1237.84 1587.30, 1216.64 1597.50, 1205.49 1571.94 Z" fill="rgb(66.64485165794066,78.16055846422339,52.43891797556719)" stroke="rgb(66.64485165794066,78.16055846422339,52.43891797556719)" stroke-width="1" />
<path d="M 2637.76 1775.22 C 2622.68 1808.29, 2583.92 1838.53, 2555.91 1859.34 C 2542.00 1876.78, 2552.02 1896.96, 2555.91 1911.91 C 2556.39 1933.69, 2559.01 1956.56, 2579.78 1957.48 C 2602.85 1974.00, 2587.26 1988.34, 2579.78 2003.04 C 2571.25 2023.56, 2581.25 2042.84, 2593.42 2055.61 C 2608.63 2087.17, 2618.14 2055.17, 2637.76 2059.12 C 2660.40 2060.69, 2674.68 2053.06, 2692.32 2059.12 C 2728.07 2019.32, 2769.82 2069.54, 2780.98 2013.56 C 2753.18 2000.21, 2744.20 1958.76, 2736.65 1922.43 C 2720.36 1894.37, 2642.58 1917.08, 2678.68 1862.85 C 2699.43 1823.59, 2677.56 1785.24, 2641.17 1775.22 Z" fill="rgb(108.2680126682502,123.54117181314331,66.84718923198733)" stroke="rgb(108.2680126682502,123.54117181314331,66.84718923198733)" stroke-width="1" />
<path d="M 1996.65 846.43 C 1974.34 868.29, 1919.56 870.19, 1921.62 902.51 C 1912.73 946.66, 1843.62 939.09, 1863.65 986.62 C 1887.84 1010.60, 1945.55 1017.89, 1921.62 1060.23 C 1915.84 1085.03, 1930.62 1089.36, 1945.49 1095.28 C 1954.12 1111.74, 1963.02 1128.41, 1983.01 1116.31 C 2004.00 1119.18, 2013.21 1101.70, 2010.29 1084.76 C 2027.80 1072.00, 2044.67 1088.30, 2058.03 1074.25 C 2081.51 1060.33, 2071.04 1036.64, 2054.62 1032.19 C 2054.33 1008.19, 2078.89 1002.71, 2085.31 983.12 C 2120.68 963.84, 2092.94 905.69, 2058.03 913.02 C 2036.52 903.88, 2029.57 880.30, 2030.75 867.46 C 2047.46 843.88, 2011.99 857.82, 2000.06 846.43 Z" fill="rgb(91.2887556221889,108.00269865067466,67.23298350824588)" stroke="rgb(91.2887556221889,108.00269865067466,67.23298350824588)" stroke-width="1" />
<path d="M 458.67 1599.98 C 428.16 1610.05, 408.29 1636.79, 407.51 1670.08 C 392.44 1700.73, 393.01 1733.08, 383.64 1761.20 C 367.33 1792.56, 359.36 1821.67, 370.00 1852.33 C 347.35 1875.88, 355.73 1934.96, 393.87 1915.42 C 432.21 1907.10, 449.96 1881.23, 475.72 1855.84 C 489.66 1827.40, 498.76 1793.39, 492.77 1764.71 C 510.71 1735.18, 547.42 1706.90, 526.87 1673.58 C 522.33 1634.29, 477.02 1619.17, 462.08 1599.98 Z" fill="rgb(169.18308227114716,180.69177288528388,100.09154113557358)" stroke="rgb(169.18308227114716,180.69177288528388,100.09154113557358)" stroke-width="1" />
<path d="M 980.42 2178.28 C 961.82 2208.16, 921.64 2186.62, 908.81 2206.32 C 875.46 2214.28, 863.38 2248.78, 857.65 2276.42 C 839.79 2296.94, 843.80 2360.79, 861.06 2314.98 C 869.21 2344.82, 872.39 2384.12, 905.40 2388.58 C 934.06 2382.34, 963.73 2379.92, 977.01 2353.53 C 1008.34 2362.89, 1037.61 2345.76, 1052.03 2321.98 C 1055.53 2289.64, 1038.15 2268.23, 1041.80 2237.87 C 1041.00 2201.47, 994.51 2203.49, 983.83 2178.28 Z" fill="rgb(70.58527341635084,84.60151597184624,53.63183540877098)" stroke="rgb(70.58527341635084,84.60151597184624,53.63183540877098)" stroke-width="1" />
<path d="M 1491.94 867.46 C 1464.14 880.67, 1441.51 906.72, 1406.69 902.51 C 1373.99 907.83, 1340.97 907.42, 1314.62 923.54 C 1284.74 941.14, 1265.43 980.83, 1280.51 1011.16 C 1308.06 1035.88, 1333.58 1070.17, 1369.18 1070.74 C 1399.09 1065.75, 1427.32 1071.12, 1433.97 1102.29 C 1473.16 1110.88, 1501.59 1071.17, 1474.89 1042.70 C 1467.16 1024.12, 1459.03 1009.20, 1444.20 997.14 C 1450.16 979.05, 1453.86 962.05, 1464.66 948.07 C 1458.55 906.78, 1510.55 897.80, 1495.35 867.46 Z" fill="rgb(99.4549583648751,116.46328538985617,73.38531415594247)" stroke="rgb(99.4549583648751,116.46328538985617,73.38531415594247)" stroke-width="1" />
<path d="M 2654.81 548.51 C 2643.05 584.66, 2597.67 574.98, 2586.60 604.59 C 2589.84 633.30, 2532.11 670.90, 2579.78 671.19 C 2611.91 670.89, 2640.82 662.71, 2644.58 702.73 C 2672.27 720.48, 2709.90 712.30, 2726.42 737.78 C 2747.87 789.39, 2759.46 716.88, 2784.39 713.24 C 2824.00 732.22, 2812.71 667.04, 2794.62 653.66 C 2789.52 616.75, 2755.76 609.15, 2736.65 583.56 C 2718.66 554.00, 2690.54 546.46, 2658.22 548.51 Z" fill="rgb(230.43847962382446,228.34404388714734,164.1453761755486)" stroke="rgb(230.43847962382446,228.34404388714734,164.1453761755486)" stroke-width="1" />
<path d="M 2388.81 671.19 C 2364.55 690.81, 2338.01 668.85, 2324.02 685.20 C 2307.63 710.01, 2316.11 755.26, 2283.10 755.30 C 2250.76 751.38, 2212.64 792.12, 2245.59 814.89 C 2266.64 839.14, 2288.53 860.59, 2317.20 863.95 C 2346.02 868.72, 2358.62 898.48, 2392.22 891.99 C 2408.15 874.19, 2431.97 838.64, 2416.10 814.89 C 2423.48 785.80, 2393.03 752.30, 2426.33 737.78 C 2454.65 720.87, 2414.26 674.90, 2392.22 671.19 Z" fill="rgb(206.4126530612245,204.00938775510204,95.24734693877551)" stroke="rgb(206.4126530612245,204.00938775510204,95.24734693877551)" stroke-width="1" />
<path d="M 1819.32 1677.09 C 1777.42 1671.65, 1798.43 1713.77, 1771.58 1733.16 C 1744.36 1773.47, 1807.89 1773.61, 1805.68 1810.27 C 1835.29 1822.73, 1844.61 1860.35, 1846.60 1883.87 C 1853.54 1912.12, 1876.53 1939.03, 1901.16 1932.94 C 1920.19 1907.28, 1924.26 1878.75, 1925.03 1848.83 C 1949.27 1827.34, 1958.50 1811.84, 1955.72 1775.22 C 1933.97 1750.03, 1900.87 1747.98, 1907.98 1708.63 C 1873.10 1706.18, 1853.65 1677.40, 1822.73 1677.09 Z" fill="rgb(84.69763365468887,99.27870289219983,64.40753724802805)" stroke="rgb(84.69763365468887,99.27870289219983,64.40753724802805)" stroke-width="1" />
<path d="M 1519.22 1245.99 C 1503.96 1259.76, 1486.49 1268.07, 1468.07 1274.02 C 1439.38 1270.01, 1435.29 1302.72, 1416.92 1309.07 C 1392.15 1329.47, 1395.45 1290.44, 1369.18 1302.06 C 1340.78 1293.78, 1342.55 1330.78, 1321.44 1337.11 C 1297.15 1343.03, 1317.62 1375.11, 1300.97 1386.18 C 1278.83 1385.82, 1259.61 1339.83, 1253.23 1365.15 C 1231.58 1424.33, 1290.85 1417.56, 1324.85 1407.21 C 1350.59 1401.70, 1362.02 1425.33, 1372.59 1428.24 C 1389.21 1409.79, 1416.62 1421.06, 1427.15 1407.21 C 1423.92 1386.42, 1406.63 1355.31, 1433.97 1372.16 C 1455.21 1360.35, 1475.64 1382.95, 1488.53 1372.16 C 1494.70 1329.57, 1524.11 1390.78, 1532.87 1361.65 C 1513.37 1325.11, 1561.32 1350.21, 1560.15 1330.10 C 1561.96 1305.02, 1559.41 1287.19, 1577.20 1274.02 C 1552.54 1267.58, 1543.81 1248.23, 1522.63 1245.99 Z" fill="rgb(76.05197505197505,89.88981288981289,57.27609147609147)" stroke="rgb(76.05197505197505,89.88981288981289,57.27609147609147)" stroke-width="1" />
<path d="M 2204.67 1049.71 C 2178.76 1080.83, 2136.14 1046.79, 2112.59 1074.25 C 2077.48 1070.79, 2100.11 1087.70, 2109.18 1102.29 C 2103.13 1121.01, 2110.01 1141.49, 2105.77 1154.86 C 2105.39 1172.23, 2088.18 1178.55, 2085.31 1196.92 C 2083.92 1215.02, 2105.16 1227.47, 2109.18 1245.99 C 2112.01 1220.88, 2126.60 1241.28, 2139.87 1249.49 C 2161.19 1245.91, 2169.31 1284.11, 2187.62 1260.01 C 2236.61 1285.10, 2214.68 1228.43, 2225.13 1200.42 C 2235.83 1190.62, 2260.80 1177.07, 2266.05 1196.92 C 2296.30 1174.98, 2280.11 1179.69, 2262.64 1186.40 C 2251.71 1165.27, 2262.35 1154.90, 2262.64 1137.33 C 2252.72 1104.98, 2240.81 1118.99, 2231.95 1112.80 C 2246.06 1077.12, 2212.73 1120.60, 2214.90 1095.28 C 2189.96 1079.24, 2219.31 1052.71, 2208.08 1049.71 Z" fill="rgb(60.52297592997812,76.66783369803063,50.83019693654267)" stroke="rgb(60.52297592997812,76.66783369803063,50.83019693654267)" stroke-width="1" />
<path d="M 2487.71 1386.18 C 2474.75 1406.58, 2460.27 1404.36, 2446.79 1393.19 C 2434.92 1403.47, 2436.48 1436.39, 2416.10 1424.73 C 2370.60 1407.90, 2386.45 1470.94, 2388.81 1494.83 C 2395.21 1513.49, 2382.32 1535.42, 2402.46 1536.89 C 2421.03 1538.23, 2441.25 1519.94, 2446.79 1543.90 C 2446.65 1515.86, 2475.44 1525.06, 2480.89 1508.85 C 2489.54 1476.60, 2512.83 1510.91, 2501.35 1526.38 C 2491.40 1585.91, 2528.21 1521.27, 2559.32 1522.87 C 2569.54 1542.41, 2592.59 1562.92, 2593.42 1533.39 C 2601.20 1512.96, 2625.63 1503.14, 2620.71 1480.81 C 2626.37 1421.89, 2575.65 1447.20, 2545.68 1438.75 C 2521.74 1439.98, 2530.37 1413.55, 2528.63 1400.20 C 2532.19 1376.68, 2503.28 1390.04, 2491.12 1386.18 Z" fill="rgb(182.797703180212,189.47703180212014,141.20980565371025)" stroke="rgb(182.797703180212,189.47703180212014,141.20980565371025)" stroke-width="1" />
<path d="M 492.77 1214.44 C 453.72 1228.88, 359.50 1285.96, 410.92 1333.61 C 447.40 1324.56, 451.14 1354.71, 465.49 1375.67 C 455.94 1395.42, 445.94 1433.75, 458.67 1449.27 C 509.25 1417.80, 562.52 1388.39, 560.97 1326.60 C 630.26 1282.87, 539.70 1226.77, 496.18 1214.44 Z" fill="rgb(223.15135135135134,223.61081081081082,159.87567567567567)" stroke="rgb(223.15135135135134,223.61081081081082,159.87567567567567)" stroke-width="1" />
<path d="M 462.08 1621.01 C 436.57 1626.87, 423.45 1650.77, 421.15 1677.09 C 406.24 1679.25, 396.14 1692.75, 397.28 1726.15 C 392.59 1755.22, 394.86 1779.27, 397.28 1803.26 C 401.56 1830.61, 406.05 1866.18, 434.79 1869.85 C 468.20 1869.37, 482.46 1843.06, 489.36 1817.28 C 505.94 1790.83, 474.60 1755.58, 506.41 1747.18 C 520.57 1721.53, 547.72 1696.74, 523.46 1673.58 C 523.21 1639.82, 489.41 1625.61, 465.49 1621.01 Z" fill="rgb(113.7509765625,130.294921875,63.8125)" stroke="rgb(113.7509765625,130.294921875,63.8125)" stroke-width="1" />
<path d="M 499.59 2178.28 C 468.76 2204.78, 448.83 2255.87, 410.92 2265.91 C 392.38 2302.86, 390.93 2342.13, 373.41 2374.56 C 366.82 2403.30, 396.59 2396.35, 407.51 2388.58 C 435.19 2390.26, 411.70 2358.13, 424.56 2346.52 C 456.96 2334.55, 495.44 2340.96, 526.87 2346.52 C 526.67 2301.02, 581.47 2309.70, 608.71 2307.97 C 640.33 2297.39, 611.38 2293.41, 595.07 2297.45 C 587.86 2280.57, 596.56 2252.85, 578.02 2244.88 C 558.70 2244.88, 542.78 2244.88, 526.87 2244.88 C 511.84 2255.43, 488.02 2261.21, 479.13 2241.37 C 500.55 2238.66, 518.01 2228.72, 526.87 2223.85 C 549.30 2210.61, 511.22 2182.63, 503.00 2178.28 Z" fill="rgb(240.84719334719335,239.46257796257797,215.99480249480249)" stroke="rgb(240.84719334719335,239.46257796257797,215.99480249480249)" stroke-width="1" />
<path d="M 2457.02 1876.86 C 2418.08 1885.31, 2462.13 1914.01, 2460.43 1943.46 C 2437.48 1971.72, 2442.24 2008.28, 2422.92 2034.58 C 2427.50 2076.97, 2391.11 2087.77, 2381.99 2118.70 C 2406.39 2142.20, 2428.63 2080.43, 2457.02 2069.63 C 2492.73 2018.65, 2494.60 2091.95, 2528.63 2062.62 C 2549.31 2046.55, 2591.66 2006.06, 2555.91 1989.02 C 2507.12 1970.44, 2558.58 1932.50, 2549.09 1904.90 C 2522.10 1881.22, 2488.48 1885.94, 2460.43 1876.86 Z" fill="rgb(197.95942338494393,204.16604378003203,145.2706887346503)" stroke="rgb(197.95942338494393,204.16604378003203,145.2706887346503)" stroke-width="1" />
<path d="M 2231.95 1424.73 C 2222.08 1471.17, 2181.50 1449.24, 2160.33 1477.31 C 2135.09 1496.86, 2102.11 1475.95, 2075.08 1473.80 C 2051.42 1510.54, 2001.88 1467.93, 2010.29 1508.85 C 2013.19 1541.07, 2038.43 1576.69, 2013.70 1603.48 C 2026.61 1662.10, 2046.56 1567.11, 2078.49 1599.98 C 2119.51 1605.26, 2117.63 1555.69, 2153.51 1547.41 C 2193.27 1536.11, 2200.36 1491.22, 2231.95 1480.81 C 2276.05 1475.51, 2283.22 1420.44, 2235.36 1424.73 Z" fill="rgb(201.13953488372093,204.76910299003322,172.67607973421926)" stroke="rgb(201.13953488372093,204.76910299003322,172.67607973421926)" stroke-width="1" />
<path d="M 3084.49 2080.15 C 3061.89 2086.37, 3030.70 2085.45, 3016.28 2111.69 C 3004.51 2139.65, 2991.02 2165.05, 2999.23 2192.30 C 3010.88 2246.16, 3040.13 2166.35, 3050.38 2199.31 C 3083.83 2200.18, 3079.35 2254.55, 3111.77 2230.86 C 3130.52 2225.64, 3191.67 2228.87, 3166.33 2209.83 C 3122.59 2219.29, 3199.06 2177.56, 3156.10 2178.28 C 3167.29 2144.73, 3168.24 2126.99, 3156.10 2097.67 C 3147.81 2058.37, 3105.61 2101.76, 3087.90 2080.15 Z" fill="rgb(185.95994993742178,193.60075093867334,94.74468085106383)" stroke="rgb(185.95994993742178,193.60075093867334,94.74468085106383)" stroke-width="1" />
<path d="M 496.18 1866.35 C 516.93 1888.26, 488.27 1910.20, 479.13 1939.95 C 469.19 1971.86, 430.91 1988.79, 441.62 2020.56 C 479.57 1968.10, 538.22 2000.48, 567.79 2038.09 C 584.21 2025.38, 631.04 2041.09, 625.76 1996.03 C 644.66 1973.65, 634.86 1945.01, 653.04 1918.92 C 636.38 1892.18, 603.24 1899.31, 578.02 1904.90 C 542.72 1903.60, 519.66 1885.29, 499.59 1866.35 Z" fill="rgb(222.0356234096692,223.3027989821883,164.22010178117048)" stroke="rgb(222.0356234096692,223.3027989821883,164.22010178117048)" stroke-width="1" />
<path d="M 3111.77 1281.03 C 3089.05 1283.62, 3072.78 1302.19, 3050.38 1305.57 C 3024.04 1324.44, 3074.03 1339.42, 3036.74 1361.65 C 3041.04 1419.64, 3097.53 1439.93, 3139.05 1459.78 C 3165.47 1455.11, 3182.31 1432.11, 3203.84 1442.26 C 3219.06 1416.36, 3200.88 1396.07, 3197.02 1375.67 C 3198.76 1350.51, 3136.42 1349.99, 3166.33 1330.10 C 3147.88 1315.62, 3124.46 1303.69, 3115.18 1281.03 Z" fill="rgb(209.0516273849607,211.67340067340066,131.97250280583614)" stroke="rgb(209.0516273849607,211.67340067340066,131.97250280583614)" stroke-width="1" />
<path d="M 3203.84 1508.85 C 3196.73 1524.67, 3173.16 1579.37, 3169.74 1533.39 C 3154.01 1511.13, 3117.70 1530.20, 3115.18 1554.42 C 3101.70 1579.10, 3079.04 1592.26, 3081.08 1621.01 C 3069.80 1644.93, 3100.95 1669.59, 3087.90 1698.12 C 3079.26 1741.76, 3126.82 1724.15, 3139.05 1708.63 C 3162.36 1695.31, 3189.69 1675.88, 3186.79 1645.54 C 3201.78 1622.02, 3204.10 1596.89, 3220.89 1575.44 C 3241.96 1554.07, 3238.77 1510.82, 3207.25 1508.85 Z" fill="rgb(187.87366046249295,194.7698815566836,101.17992103778906)" stroke="rgb(187.87366046249295,194.7698815566836,101.17992103778906)" stroke-width="1" />
<path d="M 2109.18 632.63 C 2096.15 676.48, 2091.53 640.99, 2068.26 646.65 C 2030.93 645.59, 2062.97 700.53, 2037.57 709.74 C 2038.06 743.07, 2002.72 754.74, 2013.70 779.84 C 2044.86 779.74, 2072.11 787.85, 2075.08 818.39 C 2094.46 798.11, 2114.87 774.07, 2139.87 765.82 C 2148.16 730.46, 2179.70 719.73, 2204.67 709.74 C 2249.33 703.33, 2215.53 675.41, 2191.03 674.69 C 2160.89 664.93, 2142.92 633.44, 2112.59 632.63 Z" fill="rgb(148.92029395138496,170.9383832673827,107.69700395703788)" stroke="rgb(148.92029395138496,170.9383832673827,107.69700395703788)" stroke-width="1" />
<path d="M 2951.49 1147.85 C 2931.20 1171.61, 2915.61 1172.90, 2903.75 1165.37 C 2878.79 1172.51, 2858.18 1181.96, 2835.54 1186.40 C 2794.12 1178.75, 2818.56 1209.78, 2815.08 1231.97 C 2843.72 1244.89, 2853.42 1284.31, 2876.47 1288.04 C 2896.65 1277.32, 2930.19 1256.42, 2941.26 1281.03 C 2971.14 1298.61, 2968.86 1251.23, 2999.23 1260.01 C 3026.73 1218.93, 3011.75 1136.76, 2954.90 1147.85 Z" fill="rgb(182.9403409090909,181.16306818181818,56.63409090909091)" stroke="rgb(182.9403409090909,181.16306818181818,56.63409090909091)" stroke-width="1" />
<path d="M 1515.81 1729.66 C 1501.50 1735.31, 1489.63 1763.25, 1512.40 1768.21 C 1534.39 1785.60, 1523.31 1808.45, 1508.99 1820.79 C 1496.08 1854.80, 1533.66 1902.08, 1485.12 1908.41 C 1459.97 1972.52, 1427.32 1922.32, 1396.46 1950.47 C 1332.52 1952.19, 1367.08 1996.98, 1403.28 2020.56 C 1439.87 2053.97, 1464.14 1992.62, 1498.76 1989.02 C 1511.18 1953.53, 1515.32 1914.16, 1546.51 1901.40 C 1557.79 1884.02, 1541.26 1865.34, 1549.92 1852.33 C 1563.33 1834.31, 1573.49 1819.86, 1570.38 1799.76 C 1595.68 1779.92, 1582.36 1777.52, 1563.56 1768.21 C 1552.66 1748.10, 1537.94 1731.70, 1519.22 1729.66 Z" fill="rgb(199.4968152866242,205.7876857749469,166.5148619957537)" stroke="rgb(199.4968152866242,205.7876857749469,166.5148619957537)" stroke-width="1" />
<path d="M 704.20 2262.40 C 711.33 2290.15, 685.54 2296.35, 676.92 2311.47 C 653.74 2326.32, 648.47 2352.34, 646.22 2374.56 C 621.55 2405.16, 609.71 2484.53, 673.51 2469.19 C 718.42 2448.81, 755.75 2419.84, 768.99 2374.56 C 793.10 2348.98, 761.37 2329.26, 758.76 2307.97 C 750.65 2282.78, 731.86 2263.27, 707.61 2262.40 Z" fill="rgb(100.81888035126235,119.64983534577388,57.73216245883644)" stroke="rgb(100.81888035126235,119.64983534577388,57.73216245883644)" stroke-width="1" />
<path d="M 663.28 2013.56 C 622.85 2051.29, 579.62 2096.09, 578.02 2153.75 C 523.46 2221.86, 630.52 2220.62, 635.99 2269.41 C 665.91 2269.87, 676.94 2234.33, 683.74 2213.33 C 688.37 2183.52, 676.19 2164.37, 676.92 2139.73 C 670.07 2113.52, 645.82 2094.74, 653.04 2069.63 C 682.48 2068.16, 684.28 2025.45, 666.69 2013.56 Z" fill="rgb(110.33742331288343,129.22085889570553,64.71472392638037)" stroke="rgb(110.33742331288343,129.22085889570553,64.71472392638037)" stroke-width="1" />
<path d="M 3135.64 1726.15 C 3131.85 1754.30, 3089.77 1763.24, 3074.26 1743.68 C 3056.77 1741.21, 3045.80 1764.13, 3060.62 1771.72 C 3050.61 1783.06, 3028.36 1772.88, 3026.51 1792.75 C 3035.10 1823.80, 3006.75 1843.16, 2999.23 1869.85 C 2989.05 1917.48, 3026.19 1901.29, 3046.97 1887.38 C 3069.40 1920.69, 3107.31 1901.29, 3098.13 1866.35 C 3091.04 1832.36, 3113.59 1794.96, 3139.05 1824.29 C 3165.13 1822.14, 3204.09 1826.69, 3200.43 1796.25 C 3174.32 1777.36, 3166.23 1737.42, 3139.05 1726.15 Z" fill="rgb(253.33021806853583,253.10778816199377,250.01931464174456)" stroke="rgb(253.33021806853583,253.10778816199377,250.01931464174456)" stroke-width="1" />
<path d="M 3111.77 1817.28 C 3094.24 1834.64, 3104.04 1863.63, 3101.54 1887.38 C 3092.06 1910.80, 3073.50 1937.86, 3115.18 1939.95 C 3115.58 1967.22, 3134.87 1994.84, 3159.51 2003.04 C 3196.74 1997.68, 3192.64 1958.19, 3193.61 1936.45 C 3214.30 1920.72, 3202.67 1858.10, 3234.53 1887.38 C 3239.36 1933.20, 3258.52 1870.05, 3234.53 1859.34 C 3234.16 1796.48, 3153.07 1844.73, 3115.18 1817.28 Z" fill="rgb(226.66365688487585,226.45598194130926,157.70203160270881)" stroke="rgb(226.66365688487585,226.45598194130926,157.70203160270881)" stroke-width="1" />
<path d="M 2917.39 807.88 C 2899.13 822.43, 2883.93 851.99, 2856.01 835.91 C 2836.77 803.10, 2813.76 821.66, 2825.31 849.93 C 2833.91 878.10, 2845.09 882.01, 2818.49 906.01 C 2849.53 906.21, 2855.57 936.15, 2873.06 948.07 C 2903.27 922.79, 2912.01 964.75, 2937.85 958.59 C 2961.28 952.30, 2935.27 906.48, 2978.77 923.54 C 3011.14 904.23, 2974.53 881.24, 2968.54 860.45 C 2963.27 828.29, 2948.29 811.08, 2920.80 807.88 Z" fill="rgb(207.945963975984,210.91327551701133,128.17411607738492)" stroke="rgb(207.945963975984,210.91327551701133,128.17411607738492)" stroke-width="1" />
<path d="M 632.58 1705.13 C 633.69 1733.38, 592.70 1720.35, 595.07 1743.68 C 577.76 1747.40, 555.97 1773.20, 554.15 1792.75 C 528.39 1805.38, 546.15 1837.97, 564.38 1841.82 C 586.98 1854.92, 610.72 1827.51, 622.35 1859.34 C 645.18 1866.28, 662.43 1849.05, 680.33 1841.82 C 707.36 1834.95, 686.87 1800.68, 707.61 1789.24 C 719.01 1765.56, 677.81 1760.72, 680.33 1740.17 C 678.16 1708.57, 658.05 1705.61, 635.99 1705.13 Z" fill="rgb(99.96053511705685,121.15050167224081,56.43076923076923)" stroke="rgb(99.96053511705685,121.15050167224081,56.43076923076923)" stroke-width="1" />
<path d="M 1699.96 467.90 C 1689.19 480.95, 1698.35 511.22, 1679.50 527.48 C 1663.98 562.40, 1706.88 557.58, 1703.37 583.56 C 1691.28 612.26, 1712.57 630.82, 1734.06 636.14 C 1749.09 658.99, 1776.90 667.43, 1795.45 650.16 C 1818.13 639.96, 1806.32 607.22, 1809.09 590.57 C 1806.45 565.71, 1816.50 538.95, 1798.86 523.98 C 1784.70 495.67, 1785.32 489.69, 1754.53 502.95 C 1732.61 516.53, 1711.06 485.83, 1703.37 471.41 Z" fill="rgb(176.93450371370696,187.2430790006752,98.24172856178258)" stroke="rgb(176.93450371370696,187.2430790006752,98.24172856178258)" stroke-width="1" />
<path d="M 1246.41 765.82 C 1230.14 774.98, 1234.48 802.64, 1236.18 818.39 C 1250.00 847.26, 1191.35 833.30, 1222.54 860.45 C 1223.71 885.79, 1235.41 899.81, 1256.64 906.01 C 1275.85 931.53, 1304.06 923.38, 1318.03 902.51 C 1339.13 890.30, 1329.48 857.82, 1348.72 849.93 C 1366.51 836.66, 1371.96 809.94, 1358.95 793.86 C 1350.46 771.01, 1331.39 760.92, 1311.21 769.32 C 1284.84 776.79, 1269.73 774.31, 1249.82 765.82 Z" fill="rgb(136.71418732782368,155.14669421487602,71.50757575757575)" stroke="rgb(136.71418732782368,155.14669421487602,71.50757575757575)" stroke-width="1" />
<path d="M 1914.80 2360.54 C 1894.19 2372.58, 1904.57 2418.22, 1867.06 2406.10 C 1839.52 2423.23, 1808.93 2437.73, 1812.50 2469.19 C 1833.46 2493.36, 1835.60 2515.85, 1839.78 2546.30 C 1846.94 2581.69, 1889.32 2573.68, 1901.16 2595.37 C 1919.84 2577.48, 1910.33 2535.31, 1945.49 2542.79 C 1955.31 2502.91, 1926.41 2484.20, 1911.39 2518.26 C 1897.79 2496.98, 1925.98 2469.38, 1921.62 2441.15 C 1892.85 2413.47, 1926.00 2384.98, 1918.21 2360.54 Z" fill="rgb(134.02843273231622,140.49445214979195,106.48196948682386)" stroke="rgb(134.02843273231622,140.49445214979195,106.48196948682386)" stroke-width="1" />
<path d="M 1641.99 1855.84 C 1614.26 1874.50, 1592.79 1899.66, 1580.61 1929.44 C 1547.74 1921.11, 1535.30 1942.94, 1536.28 1978.51 C 1568.21 1986.80, 1566.32 2016.45, 1590.84 2003.04 C 1584.33 2030.26, 1575.67 2067.72, 1601.07 2076.64 C 1600.25 2105.59, 1615.03 2134.84, 1628.35 2087.16 C 1625.88 2053.22, 1653.14 2027.98, 1652.22 2003.04 C 1654.07 1964.77, 1635.70 1956.63, 1645.40 1925.93 C 1647.81 1895.34, 1692.80 1867.61, 1645.40 1855.84 Z" fill="rgb(67.47457627118644,63.15677966101695,49.81214689265537)" stroke="rgb(67.47457627118644,63.15677966101695,49.81214689265537)" stroke-width="1" />
<path d="M 2255.82 1519.37 C 2233.22 1550.06, 2213.12 1539.49, 2187.62 1540.40 C 2152.19 1531.53, 2147.69 1578.80, 2126.23 1596.47 C 2095.13 1613.72, 2103.29 1655.62, 2136.46 1635.03 C 2163.56 1601.83, 2180.85 1661.01, 2211.49 1642.04 C 2239.27 1635.35, 2236.49 1601.86, 2255.82 1585.96 C 2289.54 1558.29, 2280.73 1601.07, 2300.15 1610.49 C 2314.48 1609.23, 2354.14 1563.46, 2324.02 1554.42 C 2312.65 1524.04, 2283.94 1540.98, 2259.23 1519.37 Z" fill="rgb(90.24096385542168,103.04039688164423,62.91778880226789)" stroke="rgb(90.24096385542168,103.04039688164423,62.91778880226789)" stroke-width="1" />
<path d="M 622.35 2609.39 C 602.52 2634.21, 585.42 2623.77, 557.56 2623.40 C 531.06 2605.34, 509.70 2634.09, 485.95 2626.91 C 457.90 2637.94, 435.25 2637.71, 465.49 2668.97 C 453.31 2702.42, 516.66 2669.36, 513.23 2704.02 C 532.48 2727.03, 561.83 2679.89, 574.61 2721.54 C 564.84 2753.71, 611.25 2750.81, 625.76 2735.56 C 635.07 2711.52, 675.44 2695.15, 639.40 2675.98 C 597.17 2660.26, 622.13 2619.65, 625.76 2612.89 Z" fill="rgb(204.57647907647907,209.1053391053391,126.96969696969697)" stroke="rgb(204.57647907647907,209.1053391053391,126.96969696969697)" stroke-width="1" />
<path d="M 2501.35 730.77 C 2488.87 743.69, 2454.41 732.09, 2457.02 758.81 C 2464.45 793.21, 2420.36 766.99, 2426.33 797.36 C 2437.61 816.06, 2429.61 839.27, 2426.33 856.94 C 2420.05 878.75, 2445.89 884.15, 2463.84 881.48 C 2482.98 863.83, 2509.72 893.11, 2518.40 860.45 C 2550.78 861.51, 2533.64 823.23, 2552.50 811.38 C 2572.26 806.28, 2575.93 772.77, 2562.73 762.31 C 2546.29 742.32, 2524.37 739.41, 2504.76 730.77 Z" fill="rgb(147.56436363636362,156.93236363636365,65.92145454545455)" stroke="rgb(147.56436363636362,156.93236363636365,65.92145454545455)" stroke-width="1" />
<path d="M 2665.04 720.25 C 2649.36 733.45, 2629.65 733.85, 2630.94 758.81 C 2614.53 778.99, 2639.85 802.15, 2613.88 814.89 C 2637.11 822.57, 2651.25 843.95, 2654.81 863.95 C 2649.09 891.06, 2679.63 903.65, 2695.73 891.99 C 2707.73 871.54, 2729.24 873.31, 2740.06 863.95 C 2733.78 838.43, 2756.07 822.98, 2746.88 804.37 C 2723.45 785.00, 2733.42 764.32, 2719.60 744.79 C 2709.21 726.01, 2685.90 725.86, 2668.45 720.25 Z" fill="rgb(171.3088128186453,181.12818645302258,119.89075018208302)" stroke="rgb(171.3088128186453,181.12818645302258,119.89075018208302)" stroke-width="1" />
<path d="M 499.59 1989.02 C 473.73 1988.10, 472.81 2009.39, 462.08 2027.57 C 432.10 2041.92, 450.82 2072.83, 458.67 2083.65 C 423.57 2074.17, 463.08 2119.09, 434.79 2118.70 C 426.76 2146.18, 455.30 2159.78, 445.03 2181.79 C 460.85 2173.33, 484.90 2168.90, 496.18 2153.75 C 519.47 2137.63, 538.66 2125.58, 543.92 2101.18 C 550.46 2077.82, 575.52 2054.40, 547.33 2038.09 C 542.83 2015.71, 525.36 1987.43, 503.00 1989.02 Z" fill="rgb(131.72627737226279,146.3007299270073,75.17372262773722)" stroke="rgb(131.72627737226279,146.3007299270073,75.17372262773722)" stroke-width="1" />
<path d="M 312.03 2560.32 C 305.05 2579.91, 284.51 2593.73, 284.75 2616.40 C 304.97 2627.14, 315.24 2643.85, 315.44 2665.46 C 330.31 2677.47, 359.38 2673.66, 363.18 2693.50 C 361.44 2720.63, 406.08 2733.84, 407.51 2707.52 C 418.46 2664.75, 434.12 2627.83, 424.56 2584.85 C 389.59 2554.39, 354.10 2586.71, 315.44 2560.32 Z" fill="rgb(228.93824228028504,228.41092636579572,169.44893111638956)" stroke="rgb(228.93824228028504,228.41092636579572,169.44893111638956)" stroke-width="1" />
<path d="M 407.51 2237.87 C 370.31 2271.81, 320.93 2305.77, 274.52 2276.42 C 262.36 2298.96, 261.88 2327.07, 254.06 2346.52 C 238.12 2378.35, 281.23 2375.43, 298.39 2374.56 C 304.79 2439.21, 384.02 2387.03, 383.64 2343.01 C 392.49 2318.66, 392.56 2294.07, 400.69 2272.92 C 415.26 2260.42, 456.77 2237.15, 410.92 2237.87 Z" fill="rgb(194.73809523809524,201.57142857142858,118.26785714285714)" stroke="rgb(194.73809523809524,201.57142857142858,118.26785714285714)" stroke-width="1" />
<path d="M 755.35 576.55 C 735.51 587.91, 707.02 577.83, 690.56 597.58 C 666.37 614.37, 636.41 629.79, 642.81 657.17 C 648.37 683.61, 662.31 702.97, 656.46 730.77 C 648.79 751.26, 677.70 806.15, 676.92 772.83 C 679.36 746.71, 677.39 722.22, 687.15 702.73 C 701.00 671.17, 727.61 698.83, 751.94 678.19 C 771.08 654.13, 782.39 633.75, 799.68 611.60 C 782.09 589.12, 801.80 567.74, 758.76 576.55 Z" fill="rgb(234.12423780487805,231.2576219512195,168.38490853658536)" stroke="rgb(234.12423780487805,231.2576219512195,168.38490853658536)" stroke-width="1" />
<path d="M 1768.17 934.05 C 1752.19 949.86, 1722.41 931.41, 1706.78 948.07 C 1688.53 967.93, 1703.05 993.76, 1706.78 1014.66 C 1719.64 1040.07, 1761.74 1034.60, 1757.94 1067.24 C 1768.13 1100.01, 1798.45 1081.46, 1805.68 1060.23 C 1809.25 1027.36, 1861.52 1052.11, 1850.01 1014.66 C 1853.19 990.46, 1849.78 964.04, 1839.78 944.57 C 1801.77 938.03, 1820.54 976.80, 1805.68 993.63 C 1787.04 977.57, 1775.70 957.54, 1771.58 934.05 Z" fill="rgb(163.57601222307105,182.34606569900689,106.89915966386555)" stroke="rgb(163.57601222307105,182.34606569900689,106.89915966386555)" stroke-width="1" />
<path d="M 1884.11 1705.13 C 1897.00 1726.29, 1874.49 1752.98, 1860.24 1771.72 C 1849.52 1796.73, 1840.82 1817.64, 1839.78 1841.82 C 1852.66 1864.94, 1846.66 1892.60, 1860.24 1911.91 C 1883.83 1930.78, 1898.99 1943.95, 1914.80 1908.41 C 1922.06 1884.01, 1928.76 1861.28, 1921.62 1838.31 C 1934.28 1815.28, 1964.07 1833.19, 1945.49 1792.75 C 1950.42 1748.20, 1923.92 1794.19, 1914.80 1757.70 C 1901.81 1737.96, 1919.59 1696.57, 1887.52 1705.13 Z" fill="rgb(66.583918813427,79.53708040593287,53.759562841530055)" stroke="rgb(66.583918813427,79.53708040593287,53.759562841530055)" stroke-width="1" />
<path d="M 2071.67 1473.80 C 2054.99 1487.78, 2055.04 1495.43, 2027.34 1494.83 C 1995.59 1490.71, 2018.60 1525.79, 2017.11 1540.40 C 2026.68 1560.86, 2028.31 1588.52, 2013.70 1603.48 C 2016.61 1624.71, 2019.23 1660.47, 2030.75 1624.51 C 2047.06 1597.29, 2064.54 1588.64, 2088.72 1599.98 C 2119.03 1600.92, 2115.01 1560.35, 2139.87 1554.42 C 2165.31 1535.77, 2153.00 1512.69, 2133.05 1498.34 C 2116.83 1482.75, 2095.22 1475.53, 2075.08 1473.80 Z" fill="rgb(156.7728,172.4648,106.8232)" stroke="rgb(156.7728,172.4648,106.8232)" stroke-width="1" />
<path d="M 356.36 1140.84 C 343.00 1162.37, 322.19 1147.65, 305.21 1154.86 C 291.68 1180.44, 264.74 1145.56, 250.65 1175.89 C 244.63 1198.39, 240.42 1220.38, 257.47 1231.97 C 267.48 1255.91, 245.11 1274.76, 260.88 1291.55 C 308.64 1311.92, 340.33 1273.23, 352.95 1235.47 C 367.25 1214.61, 339.03 1186.03, 373.41 1182.90 C 395.26 1165.75, 375.35 1143.82, 359.77 1140.84 Z" fill="rgb(199.26601784266018,204.13057583130575,114.91078669910787)" stroke="rgb(199.26601784266018,204.13057583130575,114.91078669910787)" stroke-width="1" />
<path d="M 1304.38 460.89 C 1293.92 499.41, 1267.13 463.08, 1246.41 474.91 C 1221.13 468.85, 1199.14 456.72, 1181.62 481.92 C 1176.19 514.47, 1211.41 505.01, 1229.36 506.46 C 1245.71 519.55, 1293.65 504.38, 1273.69 534.49 C 1268.61 605.74, 1354.34 577.51, 1365.77 534.49 C 1427.48 501.92, 1349.19 456.95, 1307.79 460.89 Z" fill="rgb(165.5012987012987,176.1974025974026,111.9090909090909)" stroke="rgb(165.5012987012987,176.1974025974026,111.9090909090909)" stroke-width="1" />
<path d="M 2566.14 2206.32 C 2546.55 2214.53, 2534.53 2235.48, 2511.58 2227.35 C 2481.65 2240.26, 2510.71 2258.31, 2528.63 2255.39 C 2552.81 2284.94, 2566.46 2339.72, 2613.88 2343.01 C 2659.34 2348.71, 2699.64 2324.01, 2661.63 2283.43 C 2630.36 2269.29, 2660.34 2240.60, 2627.53 2234.36 C 2609.95 2205.78, 2577.38 2239.75, 2569.55 2206.32 Z" fill="rgb(215.36825396825398,216.17460317460316,184.0888888888889)" stroke="rgb(215.36825396825398,216.17460317460316,184.0888888888889)" stroke-width="1" />
<path d="M 2883.29 1918.92 C 2877.18 1940.61, 2854.60 1942.10, 2835.54 1939.95 C 2803.13 1933.39, 2815.55 1969.74, 2801.44 1982.01 C 2781.23 2005.98, 2797.35 2020.50, 2811.67 2034.58 C 2800.10 2061.76, 2813.94 2075.64, 2835.54 2062.62 C 2846.84 2077.65, 2840.30 2121.08, 2862.83 2090.66 C 2875.36 2071.17, 2897.64 2064.39, 2907.16 2041.59 C 2926.64 2016.70, 2892.74 2003.85, 2893.52 1982.01 C 2898.55 1960.57, 2897.81 1937.75, 2886.70 1922.43 Z" fill="rgb(235.72316865417378,235.190800681431,207.8901192504259)" stroke="rgb(235.72316865417378,235.190800681431,207.8901192504259)" stroke-width="1" />
<path d="M 1918.21 499.45 C 1906.27 519.17, 1893.90 529.97, 1873.88 538.00 C 1874.67 563.02, 1899.61 564.21, 1894.34 590.57 C 1871.62 642.28, 1931.35 683.33, 1952.31 629.13 C 2005.13 628.41, 2027.03 583.90, 1996.65 552.02 C 1986.76 528.95, 1963.94 518.47, 1945.49 527.48 C 1910.30 527.98, 1963.33 494.30, 1921.62 499.45 Z" fill="rgb(184.74613003095976,198.6811145510836,126.984520123839)" stroke="rgb(184.74613003095976,198.6811145510836,126.984520123839)" stroke-width="1" />
<path d="M 380.23 2251.89 C 365.42 2264.80, 356.26 2294.10, 332.49 2290.44 C 307.52 2296.32, 294.47 2262.68, 274.52 2276.42 C 270.55 2298.99, 256.76 2318.14, 264.29 2336.00 C 268.01 2358.87, 273.82 2381.91, 298.39 2374.56 C 304.06 2400.93, 314.88 2421.14, 332.49 2395.59 C 358.30 2397.13, 371.45 2386.31, 373.41 2364.04 C 381.69 2341.50, 387.73 2322.96, 393.87 2304.46 C 386.29 2288.35, 412.70 2254.43, 383.64 2251.89 Z" fill="rgb(185.73625429553263,194.5884879725086,98.2147766323024)" stroke="rgb(185.73625429553263,194.5884879725086,98.2147766323024)" stroke-width="1" />
<path d="M 1522.63 422.34 C 1489.71 431.71, 1477.05 466.72, 1481.71 499.45 C 1460.50 505.16, 1466.06 526.60, 1454.43 538.00 C 1467.76 551.01, 1488.56 569.50, 1468.07 580.06 C 1439.46 558.31, 1382.07 604.37, 1427.15 615.11 C 1451.64 632.60, 1504.99 618.11, 1502.17 583.56 C 1507.27 563.06, 1529.88 568.98, 1539.69 555.52 C 1562.40 552.82, 1533.96 512.88, 1556.74 523.98 C 1577.19 527.37, 1588.45 449.38, 1549.92 471.41 C 1532.90 474.26, 1519.90 500.28, 1536.28 506.46 C 1533.01 520.02, 1508.67 523.88, 1498.76 513.47 C 1514.42 492.04, 1524.34 457.47, 1526.04 425.84 Z" fill="rgb(163.50775862068966,174.17155172413794,115.28103448275863)" stroke="rgb(163.50775862068966,174.17155172413794,115.28103448275863)" stroke-width="1" />
<path d="M 3115.18 1817.28 C 3090.06 1845.98, 3108.72 1877.89, 3101.54 1915.42 C 3113.06 1949.00, 3152.87 1973.60, 3183.38 1943.46 C 3201.07 1930.76, 3199.13 1911.16, 3203.84 1894.39 C 3217.44 1878.89, 3228.58 1857.02, 3214.07 1841.82 C 3190.71 1800.07, 3149.08 1849.30, 3118.59 1817.28 Z" fill="rgb(211.04192139737992,214.33799126637555,131.8585152838428)" stroke="rgb(211.04192139737992,214.33799126637555,131.8585152838428)" stroke-width="1" />
<path d="M 2071.67 1284.54 C 2096.13 1297.31, 2076.69 1324.24, 2054.62 1298.56 C 2044.87 1280.49, 2027.42 1329.67, 2006.88 1330.10 C 2008.39 1356.93, 2011.25 1388.90, 2040.98 1393.19 C 2050.43 1415.84, 1993.30 1414.17, 2040.98 1431.74 C 2049.46 1462.63, 2086.42 1439.75, 2098.95 1428.24 C 2068.67 1382.09, 2127.56 1433.83, 2133.05 1410.72 C 2152.85 1375.40, 2109.95 1365.87, 2098.95 1344.12 C 2103.60 1311.83, 2100.28 1295.32, 2075.08 1284.54 Z" fill="rgb(73.7070796460177,87.39734513274337,56.96637168141593)" stroke="rgb(73.7070796460177,87.39734513274337,56.96637168141593)" stroke-width="1" />
<path d="M 496.18 1214.44 C 474.44 1221.78, 453.67 1231.52, 434.79 1245.99 C 422.82 1273.03, 385.69 1273.94, 393.87 1305.57 C 386.46 1330.95, 433.13 1349.96, 424.56 1312.58 C 445.19 1288.86, 475.57 1301.30, 492.77 1281.03 C 520.18 1252.83, 500.22 1311.92, 520.05 1316.08 C 546.63 1300.22, 564.48 1318.57, 581.43 1305.57 C 609.08 1279.01, 579.18 1259.64, 557.56 1260.01 C 538.09 1235.75, 528.59 1214.94, 499.59 1214.44 Z" fill="rgb(242.49184782608697,240.48007246376812,214.26992753623188)" stroke="rgb(242.49184782608697,240.48007246376812,214.26992753623188)" stroke-width="1" />
<path d="M 1754.53 1768.21 C 1746.95 1805.42, 1737.51 1834.70, 1730.65 1873.36 C 1727.79 1900.21, 1743.68 1907.77, 1761.35 1897.89 C 1786.19 1902.83, 1793.44 1926.82, 1809.09 1932.94 C 1854.42 1928.35, 1849.64 1871.41, 1829.55 1848.83 C 1837.41 1817.61, 1798.54 1829.06, 1802.27 1806.77 C 1796.18 1782.93, 1776.36 1772.06, 1757.94 1768.21 Z" fill="rgb(160.625468164794,175.23876404494382,116.42134831460675)" stroke="rgb(160.625468164794,175.23876404494382,116.42134831460675)" stroke-width="1" />
<path d="M 942.91 692.21 C 950.88 719.56, 926.60 722.44, 919.04 741.28 C 908.66 758.65, 910.11 784.98, 915.63 800.87 C 925.55 821.49, 926.24 848.34, 949.73 853.44 C 969.23 865.00, 992.42 884.28, 1011.11 867.46 C 1013.14 840.33, 992.15 832.20, 973.60 825.40 C 966.14 806.69, 1009.32 823.15, 1014.52 807.88 C 1000.43 787.30, 1007.57 766.26, 997.47 748.29 C 988.78 720.04, 963.69 709.95, 946.32 692.21 Z" fill="rgb(145.2420262664165,159.27298311444653,100.96060037523452)" stroke="rgb(145.2420262664165,159.27298311444653,100.96060037523452)" stroke-width="1" />
<path d="M 2545.68 604.59 C 2530.11 618.46, 2537.25 655.23, 2504.76 646.65 C 2479.50 629.75, 2460.40 647.57, 2436.56 636.14 C 2417.87 622.59, 2369.96 659.88, 2405.87 664.18 C 2433.93 668.17, 2419.84 713.46, 2453.61 706.23 C 2480.82 691.39, 2503.34 710.46, 2521.81 723.76 C 2544.45 727.93, 2585.08 730.41, 2579.78 706.23 C 2575.14 676.95, 2533.64 685.59, 2545.68 650.16 C 2567.44 636.70, 2588.71 601.29, 2549.09 604.59 Z" fill="rgb(248.48964218455743,244.35687382297553,224.41242937853107)" stroke="rgb(248.48964218455743,244.35687382297553,224.41242937853107)" stroke-width="1" />
<path d="M 1546.51 2693.50 C 1543.24 2733.05, 1552.79 2767.13, 1560.15 2802.15 C 1562.04 2844.17, 1569.46 2880.34, 1573.79 2917.81 C 1581.59 2955.18, 1573.64 2995.75, 1580.61 3029.97 C 1582.64 3070.83, 1582.22 3119.58, 1611.30 3138.62 C 1638.34 3110.99, 1604.02 3069.73, 1607.89 3033.48 C 1605.49 2991.19, 1600.03 2955.16, 1597.66 2917.81 C 1597.16 2875.40, 1583.45 2843.57, 1584.02 2805.66 C 1575.15 2764.10, 1582.54 2716.77, 1549.92 2693.50 Z" fill="rgb(145.14744801512288,109.94517958412098,80.4007561436673)" stroke="rgb(145.14744801512288,109.94517958412098,80.4007561436673)" stroke-width="1" />
<path d="M 2985.59 2244.88 C 2968.21 2260.07, 2954.27 2261.69, 2941.26 2279.93 C 2932.87 2299.53, 2916.90 2315.07, 2896.93 2307.97 C 2877.95 2330.45, 2922.22 2334.21, 2917.39 2357.03 C 2925.53 2376.30, 2933.21 2401.95, 2954.90 2402.60 C 2972.76 2396.97, 2996.88 2376.34, 2975.36 2364.04 C 2984.48 2341.95, 3006.26 2359.50, 2999.23 2325.49 C 3000.12 2299.44, 3029.82 2295.03, 3029.92 2272.92 C 3028.04 2246.04, 3010.97 2241.28, 2989.00 2244.88 Z" fill="rgb(178.87196896217264,188.19592628516003,82.85838991270612)" stroke="rgb(178.87196896217264,188.19592628516003,82.85838991270612)" stroke-width="1" />
<path d="M 3081.08 2083.65 C 3066.93 2093.69, 3047.20 2081.02, 3033.33 2097.67 C 3010.83 2114.44, 3012.29 2136.46, 3002.64 2153.75 C 3003.69 2175.77, 3034.07 2177.68, 3046.97 2171.27 C 3071.37 2179.12, 3078.13 2136.67, 3091.31 2157.26 C 3089.85 2189.18, 3115.24 2155.45, 3132.23 2164.27 C 3159.48 2171.40, 3162.34 2147.63, 3159.51 2129.22 C 3147.93 2114.35, 3162.35 2080.47, 3139.05 2083.65 C 3115.32 2082.91, 3102.65 2095.58, 3084.49 2083.65 Z" fill="rgb(174.32146389713157,184.0979228486647,80.63105835806132)" stroke="rgb(174.32146389713157,184.0979228486647,80.63105835806132)" stroke-width="1" />
<path d="M 615.53 2076.64 C 600.11 2092.52, 585.32 2100.01, 581.43 2122.21 C 584.81 2148.75, 571.71 2164.77, 560.97 2181.79 C 557.73 2236.08, 637.40 2220.89, 635.99 2265.91 C 655.86 2274.12, 677.11 2241.47, 653.04 2234.36 C 675.66 2216.14, 661.38 2193.27, 659.87 2174.78 C 681.73 2153.20, 653.02 2135.68, 632.58 2139.73 C 613.64 2121.02, 608.23 2101.18, 615.53 2080.15 Z" fill="rgb(89.5166163141994,109.79859013091641,53.94461228600201)" stroke="rgb(89.5166163141994,109.79859013091641,53.94461228600201)" stroke-width="1" />
<path d="M 2975.36 1831.30 C 2957.59 1849.48, 2934.34 1830.88, 2931.03 1855.84 C 2948.07 1877.17, 2917.41 1897.10, 2941.26 1911.91 C 2928.07 1939.70, 2938.69 1948.51, 2958.31 1964.49 C 2959.09 1990.34, 2928.41 2010.86, 2961.72 2024.07 C 2968.84 2055.93, 2986.58 2009.87, 2992.41 1999.54 C 3005.72 1977.48, 3013.58 1958.06, 3016.28 1936.45 C 3003.58 1916.21, 2982.93 1900.78, 2995.82 1876.86 C 2989.57 1856.81, 3016.19 1824.53, 2978.77 1831.30 Z" fill="rgb(178.27648839556005,185.9071644803229,96.7255297679112)" stroke="rgb(178.27648839556005,185.9071644803229,96.7255297679112)" stroke-width="1" />
<path d="M 618.94 1901.40 C 606.54 1931.60, 584.15 1936.56, 557.56 1922.43 C 542.51 1910.44, 486.89 1901.83, 499.59 1925.93 C 543.53 1937.61, 501.80 1954.16, 485.95 1957.48 C 474.19 1981.71, 430.27 1987.99, 445.03 2020.56 C 474.30 2032.45, 464.92 1976.90, 499.59 1985.52 C 532.19 1983.40, 545.65 2019.25, 554.15 2041.59 C 572.73 2028.17, 575.60 1994.73, 595.07 1978.51 C 617.25 1957.19, 623.26 1924.27, 622.35 1901.40 Z" fill="rgb(242.80384226491407,240.4216380182002,217.24368048533873)" stroke="rgb(242.80384226491407,240.4216380182002,217.24368048533873)" stroke-width="1" />
<path d="M 1669.27 306.68 C 1640.51 323.21, 1599.86 346.65, 1614.71 383.78 C 1598.85 400.07, 1608.64 415.30, 1607.89 432.85 C 1625.85 463.82, 1638.18 430.68, 1648.81 439.86 C 1684.40 425.68, 1693.86 379.37, 1737.47 383.78 C 1753.89 366.31, 1725.18 353.64, 1713.60 348.74 C 1689.71 341.53, 1690.84 314.88, 1672.68 306.68 Z" fill="rgb(215.86639260020556,217.6300102774923,142.42857142857142)" stroke="rgb(215.86639260020556,217.6300102774923,142.42857142857142)" stroke-width="1" />
<path d="M 496.18 1281.03 C 481.11 1298.61, 458.62 1297.75, 438.21 1302.06 C 418.27 1332.66, 455.32 1337.62, 458.67 1361.65 C 466.82 1386.45, 508.56 1399.67, 485.95 1424.73 C 458.98 1426.78, 456.05 1421.07, 458.67 1445.76 C 483.48 1440.63, 494.82 1424.16, 513.23 1410.72 C 535.64 1398.38, 562.72 1386.82, 554.15 1361.65 C 554.73 1341.12, 572.09 1296.36, 540.51 1316.08 C 508.39 1337.74, 511.69 1289.77, 499.59 1281.03 Z" fill="rgb(198.67805383022775,204.06832298136646,116.11180124223603)" stroke="rgb(198.67805383022775,204.06832298136646,116.11180124223603)" stroke-width="1" />
<path d="M 2944.67 1501.84 C 2931.85 1515.55, 2926.08 1553.45, 2948.08 1561.43 C 2978.68 1582.53, 2960.03 1612.05, 2934.44 1610.49 C 2912.77 1630.35, 2937.62 1651.10, 2934.44 1673.58 C 2929.57 1698.17, 2917.92 1727.85, 2948.08 1729.66 C 2965.26 1716.29, 2970.07 1690.45, 2975.36 1670.08 C 2991.04 1645.17, 3008.00 1633.87, 3019.69 1610.49 C 3017.14 1570.00, 2992.67 1593.40, 2978.77 1564.93 C 2991.44 1530.07, 2962.65 1523.06, 2948.08 1501.84 Z" fill="rgb(79.02323125659979,91.31467793030623,52.98416050686378)" stroke="rgb(79.02323125659979,91.31467793030623,52.98416050686378)" stroke-width="1" />
<path d="M 2160.33 741.28 C 2153.75 763.33, 2135.51 768.40, 2122.82 783.34 C 2099.12 798.03, 2093.09 818.80, 2078.49 835.91 C 2026.42 864.23, 2087.46 923.04, 2122.82 891.99 C 2104.29 816.47, 2194.35 914.05, 2184.21 853.44 C 2157.15 818.04, 2185.71 772.99, 2163.74 741.28 Z" fill="rgb(231.65853658536585,231.9915164369035,199.30646871686108)" stroke="rgb(231.65853658536585,231.9915164369035,199.30646871686108)" stroke-width="1" />
<path d="M 2470.66 467.90 C 2459.44 479.99, 2448.86 497.67, 2457.02 513.47 C 2452.69 533.08, 2434.16 546.61, 2443.38 562.53 C 2424.05 601.62, 2468.14 626.71, 2497.94 629.13 C 2502.13 605.41, 2529.58 618.67, 2535.45 601.09 C 2537.95 581.43, 2536.95 562.53, 2521.81 555.52 C 2504.30 535.84, 2529.02 519.38, 2521.81 506.46 C 2499.97 500.36, 2492.91 476.04, 2474.07 467.90 Z" fill="rgb(212.18597236981935,214.98193411264612,131.4431455897981)" stroke="rgb(212.18597236981935,214.98193411264612,131.4431455897981)" stroke-width="1" />
<path d="M 1028.16 485.43 C 1002.43 494.81, 954.12 521.40, 977.01 555.52 C 1020.56 555.78, 1005.22 615.76, 1045.21 594.08 C 1065.15 563.57, 1125.69 556.86, 1099.78 520.48 C 1103.94 475.80, 1060.60 486.02, 1031.57 485.43 Z" fill="rgb(164.94444444444446,174.80662393162393,123.86965811965813)" stroke="rgb(164.94444444444446,174.80662393162393,123.86965811965813)" stroke-width="1" />
<path d="M 2757.11 1028.68 C 2757.09 1049.46, 2748.08 1071.16, 2757.11 1091.77 C 2767.79 1122.28, 2808.52 1070.92, 2804.85 1112.80 C 2784.80 1138.22, 2821.99 1137.67, 2835.54 1154.86 C 2858.48 1164.92, 2891.49 1161.39, 2890.11 1130.32 C 2882.26 1106.01, 2890.96 1085.63, 2883.29 1063.73 C 2864.65 1027.52, 2839.64 1062.75, 2842.37 1084.76 C 2818.44 1107.76, 2856.90 1035.62, 2821.90 1056.72 C 2794.44 1062.22, 2768.97 1054.33, 2760.52 1028.68 Z" fill="rgb(133.978563772776,142.4823151125402,59.57984994640943)" stroke="rgb(133.978563772776,142.4823151125402,59.57984994640943)" stroke-width="1" />
<path d="M 318.85 2556.81 C 297.22 2575.51, 270.26 2624.42, 315.44 2633.92 C 331.47 2645.37, 349.10 2649.84, 352.95 2665.46 C 363.50 2689.54, 380.34 2657.49, 393.87 2654.95 C 419.73 2640.89, 444.69 2590.60, 414.33 2574.34 C 399.30 2570.94, 377.32 2558.91, 370.00 2574.34 C 350.59 2586.43, 340.85 2556.35, 322.26 2560.32 Z" fill="rgb(211.24104234527687,214.43648208469057,130.5884907709012)" stroke="rgb(211.24104234527687,214.43648208469057,130.5884907709012)" stroke-width="1" />
<path d="M 1662.45 2816.17 C 1653.02 2837.19, 1612.09 2846.90, 1645.40 2868.75 C 1655.43 2891.93, 1643.02 2914.24, 1641.99 2935.34 C 1646.42 2962.05, 1640.13 2978.59, 1641.99 2998.43 C 1660.60 3018.23, 1637.76 3052.46, 1669.27 3058.01 C 1695.53 3041.62, 1668.52 3013.47, 1693.14 2998.43 C 1700.99 2969.66, 1687.76 2953.69, 1689.73 2931.83 C 1692.84 2908.83, 1689.21 2890.23, 1693.14 2868.75 C 1672.05 2854.61, 1691.40 2812.29, 1665.86 2816.17 Z" fill="rgb(183.96851248642778,140.9370249728556,96.814332247557)" stroke="rgb(183.96851248642778,140.9370249728556,96.814332247557)" stroke-width="1" />
<path d="M 2596.83 2223.85 C 2576.68 2234.95, 2544.52 2269.58, 2552.50 2297.45 C 2579.97 2322.65, 2597.72 2358.45, 2634.35 2336.00 C 2673.40 2356.19, 2688.19 2307.04, 2661.63 2290.44 C 2641.38 2261.86, 2640.04 2230.04, 2600.24 2223.85 Z" fill="rgb(237.80363223609535,236.422247446084,214.49375709421113)" stroke="rgb(237.80363223609535,236.422247446084,214.49375709421113)" stroke-width="1" />
<path d="M 915.63 1845.32 C 913.96 1883.22, 870.87 1919.80, 837.19 1890.88 C 811.03 1877.95, 813.11 1916.54, 796.27 1925.93 C 796.48 1949.66, 770.04 1966.14, 792.86 1982.01 C 805.77 2007.36, 828.49 1997.95, 840.60 1999.54 C 846.90 1972.79, 876.79 1976.49, 881.53 1953.97 C 897.06 1937.07, 905.06 1920.76, 908.81 1901.40 C 918.09 1883.77, 929.14 1862.94, 919.04 1845.32 Z" fill="rgb(209.59817351598173,213.7865296803653,143.90981735159818)" stroke="rgb(209.59817351598173,213.7865296803653,143.90981735159818)" stroke-width="1" />
<path d="M 397.28 2041.59 C 364.42 2055.94, 340.16 2084.56, 329.08 2118.70 C 323.80 2140.47, 309.93 2153.63, 298.39 2167.77 C 295.15 2194.10, 323.30 2188.92, 335.90 2195.81 C 362.88 2200.89, 431.89 2182.05, 404.10 2146.74 C 389.14 2115.43, 382.78 2072.33, 400.69 2045.10 Z" fill="rgb(210.66933638443936,214.00572082379864,136.17734553775745)" stroke="rgb(210.66933638443936,214.00572082379864,136.17734553775745)" stroke-width="1" />
<path d="M 2402.46 1207.43 C 2374.86 1233.08, 2337.09 1252.35, 2334.25 1295.05 C 2329.45 1360.17, 2353.42 1326.83, 2388.81 1319.59 C 2414.95 1309.19, 2414.33 1337.38, 2436.56 1333.61 C 2459.58 1323.28, 2427.05 1303.99, 2429.74 1288.04 C 2403.53 1277.34, 2431.41 1267.43, 2439.97 1253.00 C 2438.77 1229.13, 2422.88 1212.92, 2405.87 1207.43 Z" fill="rgb(105.59133489461358,127.45316159250585,53.440281030444964)" stroke="rgb(105.59133489461358,127.45316159250585,53.440281030444964)" stroke-width="1" />
<path d="M 1969.37 527.48 C 1958.25 540.04, 1958.54 562.65, 1942.08 569.54 C 1933.52 552.84, 1915.30 529.95, 1901.16 548.51 C 1903.40 588.02, 1879.54 623.89, 1904.57 650.16 C 1920.61 660.16, 1945.84 650.09, 1945.49 632.63 C 1961.34 615.81, 1981.74 622.28, 1996.65 615.11 C 2019.58 602.68, 2015.54 580.69, 1996.65 569.54 C 1991.79 551.79, 1984.29 534.40, 1972.78 527.48 Z" fill="rgb(151.021327014218,172.11966824644549,99.05568720379146)" stroke="rgb(151.021327014218,172.11966824644549,99.05568720379146)" stroke-width="1" />
<path d="M 2723.01 2122.21 C 2712.27 2139.94, 2677.58 2137.51, 2682.09 2167.77 C 2671.88 2203.61, 2710.71 2199.25, 2726.42 2188.80 C 2764.86 2195.33, 2702.84 2202.10, 2709.37 2227.35 C 2691.78 2254.60, 2666.35 2203.27, 2654.81 2234.36 C 2650.03 2262.59, 2683.92 2272.34, 2702.55 2279.93 C 2718.62 2306.92, 2755.54 2277.90, 2733.24 2255.39 C 2747.39 2232.52, 2755.82 2212.18, 2757.11 2188.80 C 2753.45 2162.14, 2741.56 2137.04, 2726.42 2122.21 Z" fill="rgb(109.66230677764565,122.27348394768133,62.07966706302022)" stroke="rgb(109.66230677764565,122.27348394768133,62.07966706302022)" stroke-width="1" />
<path d="M 2709.37 1904.90 C 2696.71 1914.48, 2683.51 1932.77, 2692.32 1950.47 C 2706.54 1978.84, 2665.25 1976.58, 2678.68 1999.54 C 2678.75 2023.19, 2668.83 2040.16, 2682.09 2055.61 C 2702.56 2049.09, 2723.62 2047.58, 2729.83 2027.57 C 2748.52 2025.90, 2756.36 2066.85, 2767.34 2034.58 C 2785.92 2014.82, 2788.85 1991.18, 2760.52 2003.04 C 2741.22 1967.64, 2745.38 1919.74, 2712.78 1904.90 Z" fill="rgb(108.79447115384616,124.77283653846153,65.52524038461539)" stroke="rgb(108.79447115384616,124.77283653846153,65.52524038461539)" stroke-width="1" />
<path d="M 987.24 643.15 C 963.81 668.02, 979.37 717.56, 1000.88 737.78 C 1010.15 768.69, 1015.75 828.03, 1062.26 804.37 C 1093.80 792.48, 1054.12 770.02, 1069.08 755.30 C 1083.32 731.59, 1058.76 724.10, 1041.80 727.26 C 1043.97 708.63, 1046.36 685.06, 1028.16 678.19 C 1023.31 654.74, 1011.82 641.56, 990.65 643.15 Z" fill="rgb(243.5306859205776,240.34416365824308,218.2406738868833)" stroke="rgb(243.5306859205776,240.34416365824308,218.2406738868833)" stroke-width="1" />
<path d="M 2105.77 271.63 C 2088.42 281.68, 2060.58 305.83, 2068.26 327.71 C 2089.54 344.71, 2072.16 384.56, 2047.80 376.77 C 2013.44 377.88, 2030.04 418.42, 2047.80 425.84 C 2065.86 425.22, 2099.94 446.27, 2105.77 425.84 C 2108.90 397.78, 2162.61 411.92, 2150.10 383.78 C 2142.54 362.30, 2163.63 319.88, 2129.64 348.74 C 2122.59 381.42, 2081.29 370.60, 2092.13 341.73 C 2089.91 314.02, 2126.98 292.90, 2109.18 271.63 Z" fill="rgb(192.05575757575758,198.63636363636363,152.19636363636363)" stroke="rgb(192.05575757575758,198.63636363636363,152.19636363636363)" stroke-width="1" />
<path d="M 1324.85 460.89 C 1288.23 470.12, 1285.08 504.54, 1273.69 530.99 C 1254.38 562.31, 1304.45 596.85, 1321.44 573.05 C 1356.42 564.73, 1367.62 527.36, 1389.64 509.96 C 1383.56 493.86, 1354.77 468.48, 1328.26 460.89 Z" fill="rgb(134.07272727272726,147.2460606060606,80.30060606060606)" stroke="rgb(134.07272727272726,147.2460606060606,80.30060606060606)" stroke-width="1" />
<path d="M 963.37 2223.85 C 946.65 2232.94, 972.03 2260.74, 946.32 2262.40 C 924.62 2269.55, 913.83 2278.45, 895.17 2276.42 C 882.61 2285.94, 867.85 2292.03, 864.47 2304.46 C 878.39 2321.50, 863.07 2347.49, 878.12 2360.54 C 900.01 2385.65, 911.84 2352.05, 929.27 2350.02 C 949.71 2344.30, 962.29 2326.31, 963.37 2307.97 C 972.76 2288.07, 1000.15 2280.69, 973.60 2262.40 C 982.17 2239.27, 995.38 2230.28, 966.78 2223.85 Z" fill="rgb(51.154981549815496,62.38622386223862,47.343173431734314)" stroke="rgb(51.154981549815496,62.38622386223862,47.343173431734314)" stroke-width="1" />
<path d="M 1508.99 1915.42 C 1501.61 1937.90, 1471.95 1921.58, 1461.25 1943.46 C 1448.69 1955.89, 1424.31 1982.33, 1413.51 1964.49 C 1429.74 1935.18, 1425.54 1937.46, 1399.87 1950.47 C 1387.29 1967.26, 1340.08 1957.47, 1362.36 1982.01 C 1382.42 1997.17, 1401.04 2017.41, 1413.51 2031.08 C 1438.75 2052.33, 1445.67 2008.93, 1464.66 2003.04 C 1485.18 1994.14, 1504.10 1991.55, 1505.58 1967.99 C 1504.85 1949.37, 1531.54 1922.03, 1512.40 1915.42 Z" fill="rgb(226.1177199504337,224.19578686493185,200.94919454770755)" stroke="rgb(226.1177199504337,224.19578686493185,200.94919454770755)" stroke-width="1" />
<path d="M 3033.33 1414.22 C 3010.41 1427.90, 3028.10 1442.00, 3029.92 1459.78 C 3018.62 1488.00, 3039.33 1480.64, 3057.21 1480.81 C 3072.34 1504.74, 3096.29 1584.39, 3115.18 1543.90 C 3118.72 1505.28, 3172.26 1502.21, 3139.05 1463.29 C 3099.75 1454.18, 3071.96 1425.00, 3036.74 1414.22 Z" fill="rgb(243.79900744416872,239.56079404466502,214.92803970223326)" stroke="rgb(243.79900744416872,239.56079404466502,214.92803970223326)" stroke-width="1" />
<path d="M 656.46 2346.52 C 650.77 2373.15, 634.40 2398.08, 629.17 2427.13 C 617.10 2468.13, 663.60 2470.53, 687.15 2465.69 C 717.97 2445.42, 745.02 2422.35, 741.71 2385.07 C 695.80 2399.77, 695.07 2351.16, 659.87 2346.52 Z" fill="rgb(79.06823821339951,98.74069478908189,52.71712158808933)" stroke="rgb(79.06823821339951,98.74069478908189,52.71712158808933)" stroke-width="1" />
<path d="M 1785.22 1918.92 C 1776.59 1934.34, 1785.57 1951.60, 1785.22 1967.99 C 1772.63 1983.59, 1774.52 2005.30, 1764.76 2017.06 C 1748.38 2016.97, 1739.59 2062.66, 1757.94 2048.60 C 1772.67 2040.36, 1790.54 2058.07, 1809.09 2055.61 C 1826.40 2050.19, 1851.81 2072.66, 1846.60 2045.10 C 1850.92 2024.06, 1883.96 2006.01, 1853.42 1996.03 C 1854.54 1966.32, 1836.23 1971.01, 1819.32 1960.98 C 1823.41 1933.61, 1799.48 1939.34, 1788.63 1918.92 Z" fill="rgb(130.25124378109453,140.27238805970148,100.3407960199005)" stroke="rgb(130.25124378109453,140.27238805970148,100.3407960199005)" stroke-width="1" />
<path d="M 2126.23 488.93 C 2110.14 502.65, 2084.71 505.89, 2075.08 527.48 C 2048.49 542.41, 2043.92 558.49, 2030.75 580.06 C 2024.10 601.78, 1990.52 621.03, 2000.06 636.14 C 2022.69 631.22, 2045.96 636.33, 2061.44 622.12 C 2077.14 596.03, 2097.83 608.23, 2116.00 615.11 C 2147.83 608.88, 2144.72 569.88, 2119.41 576.55 C 2095.08 596.05, 2079.07 577.98, 2095.54 555.52 C 2112.18 534.40, 2133.86 518.93, 2129.64 492.44 Z" fill="rgb(245.49687108886107,243.92115143929914,220.68085106382978)" stroke="rgb(245.49687108886107,243.92115143929914,220.68085106382978)" stroke-width="1" />
</svg>