<svg xmlns="http://www.w3.org/2000/svg" width="3492" height="3589" viewbox="0 0 3492 3589">
<path d="M 1.71 1.75 C -1133.90 8638.69, 8405.21 -1165.40, 1.71 1.75 Z" fill="rgb(nan,nan,nan)" stroke="rgb(nan,nan,nan)" stroke-width="1" />
<path d="M 1.71 1.75 C 1.71 37.97, 1.71 74.19, 1.71 110.40 C 1.71 150.13, 1.71 186.34, 1.71 222.56 C 1.71 262.28, 1.71 298.50, 1.71 334.72 C 1.71 374.44, 1.71 410.66, 1.71 446.87 C 1.71 486.59, 1.71 522.81, 1.71 559.03 C 1.71 598.75, 1.71 634.97, 1.71 671.19 C 1.71 710.91, 1.71 747.12, 1.71 783.34 C 1.71 823.06, 1.71 859.28, 1.71 895.50 C 1.71 935.22, 1.71 971.44, 1.71 1007.65 C 1.71 1047.38, 1.71 1083.59, 1.71 1119.81 C 1.71 1159.53, 1.71 1195.75, 1.71 1231.97 C 1.71 1271.69, 1.71 1307.91, 1.71 1344.12 C 1.71 1383.84, 1.71 1420.06, 1.71 1456.28 C 1.71 1496.00, 1.71 1532.22, 1.71 1568.44 C 1.71 1608.16, 1.71 1644.37, 1.71 1680.59 C 1.71 1720.31, 1.71 1756.53, 1.71 1792.75 C 1.71 1832.47, 1.71 1868.69, 1.71 1904.90 C 1.71 1944.63, 1.71 1980.84, 1.71 2017.06 C 1.71 2056.78, 1.71 2093.00, 1.71 2129.22 C 1.71 2168.94, 1.71 2205.16, 1.71 2241.37 C 1.71 2281.09, 1.71 2317.31, 1.71 2353.53 C 1.71 2393.25, 1.71 2429.47, 1.71 2465.69 C 1.71 2505.41, 1.71 2541.62, 1.71 2577.84 C 1.71 2617.56, 1.71 2653.78, 1.71 2690.00 C 1.71 2729.72, 1.71 2765.94, 1.71 2802.15 C 1.71 2841.88, 1.71 2878.09, 1.71 2914.31 C 1.71 2954.03, 1.71 2990.25, 1.71 3026.47 C 1.71 3066.19, 1.71 3102.41, 1.71 3138.62 C 1.71 3178.34, 1.71 3214.56, 1.71 3250.78 C 1.71 3290.50, 1.71 3326.72, 1.71 3362.94 C 1.71 3402.66, 1.71 3438.87, 1.71 3475.09 C 1.71 3514.81, 1.71 3551.03, 1.71 3587.25 C 39.22 3587.25, 73.32 3587.25, 107.42 3587.25 C 146.07 3587.25, 181.31 3587.25, 216.54 3587.25 C 254.06 3587.25, 288.16 3587.25, 322.26 3587.25 C 360.91 3587.25, 396.15 3587.25, 431.38 3587.25 C 468.90 3587.25, 503.00 3587.25, 537.10 3587.25 C 575.75 3587.25, 610.99 3587.25, 646.22 3587.25 C 684.87 3587.25, 720.11 3587.25, 755.35 3587.25 C 794.00 3587.25, 829.24 3587.25, 864.47 3587.25 C 901.99 3587.25, 936.09 3587.25, 970.19 3587.25 C 1008.84 3587.25, 1044.08 3587.25, 1079.31 3587.25 C 1116.83 3587.25, 1150.93 3587.25, 1185.03 3587.25 C 1223.68 3587.25, 1258.92 3587.25, 1294.15 3587.25 C 1331.67 3587.25, 1365.77 3587.25, 1399.87 3587.25 C 1438.52 3587.25, 1473.76 3587.25, 1508.99 3587.25 C 1547.64 3587.25, 1582.88 3587.25, 1618.12 3587.25 C 1656.77 3587.25, 1692.01 3587.25, 1727.24 3587.25 C 1764.76 3587.25, 1798.86 3587.25, 1832.96 3587.25 C 1871.61 3587.25, 1906.85 3587.25, 1942.08 3587.25 C 1979.60 3587.25, 2013.70 3587.25, 2047.80 3587.25 C 2086.45 3587.25, 2121.69 3587.25, 2156.92 3587.25 C 2194.44 3587.25, 2228.54 3587.25, 2262.64 3587.25 C 2301.29 3587.25, 2336.53 3587.25, 2371.76 3587.25 C 2410.41 3587.25, 2445.65 3587.25, 2480.89 3587.25 C 2519.54 3587.25, 2554.78 3587.25, 2590.01 3587.25 C 2627.53 3587.25, 2661.63 3587.25, 2695.73 3587.25 C 2734.38 3587.25, 2769.62 3587.25, 2804.85 3587.25 C 2842.37 3587.25, 2876.47 3587.25, 2910.57 3587.25 C 2949.22 3587.25, 2984.46 3587.25, 3019.69 3587.25 C 3057.21 3587.25, 3091.31 3587.25, 3125.41 3587.25 C 3164.06 3587.25, 3199.29 3587.25, 3234.53 3587.25 C 3273.18 3587.25, 3308.42 3587.25, 3343.66 3587.25 C 3382.31 3587.25, 3417.54 3587.25, 3452.78 3587.25 C 3466.57 3583.89, 3490.78 3594.75, 3490.29 3580.24 C 3490.29 3541.68, 3490.29 3506.64, 3490.29 3471.59 C 3490.29 3431.86, 3490.29 3395.65, 3490.29 3359.43 C 3490.29 3319.71, 3490.29 3283.49, 3490.29 3247.27 C 3490.29 3207.55, 3490.29 3171.33, 3490.29 3135.12 C 3490.29 3095.40, 3490.29 3059.18, 3490.29 3022.96 C 3490.29 2983.24, 3490.29 2947.02, 3490.29 2910.81 C 3490.29 2871.08, 3490.29 2834.87, 3490.29 2798.65 C 3490.29 2758.93, 3490.29 2722.71, 3490.29 2686.49 C 3490.29 2647.94, 3490.29 2612.89, 3490.29 2577.84 C 3490.29 2538.12, 3490.29 2501.90, 3490.29 2465.69 C 3490.29 2425.96, 3490.29 2389.75, 3490.29 2353.53 C 3490.29 2313.81, 3490.29 2277.59, 3490.29 2241.37 C 3490.29 2201.65, 3490.29 2165.43, 3490.29 2129.22 C 3490.29 2089.49, 3490.29 2053.28, 3490.29 2017.06 C 3490.29 1977.34, 3490.29 1941.12, 3490.29 1904.90 C 3490.29 1865.18, 3490.29 1828.96, 3490.29 1792.75 C 3490.29 1754.19, 3490.29 1719.15, 3490.29 1684.10 C 3490.29 1644.37, 3490.29 1608.16, 3490.29 1571.94 C 3490.29 1532.22, 3490.29 1496.00, 3490.29 1459.78 C 3490.29 1420.06, 3490.29 1383.84, 3490.29 1347.63 C 3490.29 1307.91, 3490.29 1271.69, 3490.29 1235.47 C 3490.29 1195.75, 3490.29 1159.53, 3490.29 1123.31 C 3490.29 1083.59, 3490.29 1047.38, 3490.29 1011.16 C 3490.29 971.44, 3490.29 935.22, 3490.29 899.00 C 3490.29 859.28, 3490.29 823.06, 3490.29 786.85 C 3490.29 747.12, 3490.29 710.91, 3490.29 674.69 C 3490.29 634.97, 3490.29 598.75, 3490.29 562.53 C 3490.29 522.81, 3490.29 486.59, 3490.29 450.38 C 3490.29 410.66, 3490.29 374.44, 3490.29 338.22 C 3490.29 298.50, 3490.29 262.28, 3490.29 226.06 C 3490.29 186.34, 3490.29 150.13, 3490.29 113.91 C 3490.29 74.19, 3490.29 37.97, 3490.29 1.75 C 3452.78 1.75, 3418.68 1.75, 3384.58 1.75 C 3345.93 1.75, 3310.69 1.75, 3275.46 1.75 C 3236.81 1.75, 3201.57 1.75, 3166.33 1.75 C 3127.68 1.75, 3092.44 1.75, 3057.21 1.75 C 3018.56 1.75, 2983.32 1.75, 2948.08 1.75 C 2909.43 1.75, 2874.19 1.75, 2838.96 1.75 C 2800.31 1.75, 2765.07 1.75, 2729.83 1.75 C 2691.18 1.75, 2655.94 1.75, 2620.71 1.75 C 2582.06 1.75, 2546.82 1.75, 2511.58 1.75 C 2472.93 1.75, 2437.69 1.75, 2402.46 1.75 C 2363.81 1.75, 2328.57 1.75, 2293.33 1.75 C 2254.68 1.75, 2219.44 1.75, 2184.21 1.75 C 2145.56 1.75, 2110.32 1.75, 2075.08 1.75 C 2036.43 1.75, 2001.19 1.75, 1965.96 1.75 C 1927.31 1.75, 1892.07 1.75, 1856.83 1.75 C 1818.18 1.75, 1782.94 1.75, 1747.71 1.75 C 1710.19 1.75, 1676.09 1.75, 1641.99 1.75 C 1603.34 1.75, 1568.10 1.75, 1532.87 1.75 C 1494.22 1.75, 1458.98 1.75, 1423.74 1.75 C 1385.09 1.75, 1349.85 1.75, 1314.62 1.75 C 1275.97 1.75, 1240.73 1.75, 1205.49 1.75 C 1166.84 1.75, 1131.60 1.75, 1096.37 1.75 C 1057.72 1.75, 1022.48 1.75, 987.24 1.75 C 948.59 1.75, 913.35 1.75, 878.12 1.75 C 839.47 1.75, 804.23 1.75, 768.99 1.75 C 730.34 1.75, 695.10 1.75, 659.87 1.75 C 621.22 1.75, 585.98 1.75, 550.74 1.75 C 512.09 1.75, 476.85 1.75, 441.62 1.75 C 402.97 1.75, 367.73 1.75, 332.49 1.75 C 293.84 1.75, 258.60 1.75, 223.37 1.75 C 184.72 1.75, 149.48 1.75, 114.24 1.75 C 75.59 1.75, 40.35 1.75, 5.12 1.75 Z" fill="rgb(219.21795486837183,222.7866094812686,201.02837081295235)" stroke="rgb(219.21795486837183,222.7866094812686,201.02837081295235)" stroke-width="1" />
<path d="M 1597.66 1785.74 C 1580.30 1814.45, 1578.90 1839.28, 1560.15 1869.85 C 1569.20 1890.21, 1547.90 1911.69, 1546.51 1932.94 C 1536.49 1982.19, 1540.55 2034.96, 1539.69 2090.66 C 1550.22 2117.32, 1543.50 2147.82, 1553.33 2171.27 C 1553.75 2198.72, 1552.21 2219.70, 1563.56 2241.37 C 1573.44 2256.10, 1581.51 2300.91, 1560.15 2276.42 C 1542.60 2248.53, 1532.33 2217.89, 1512.40 2199.31 C 1491.39 2171.11, 1482.83 2139.05, 1471.48 2108.19 C 1471.55 2080.33, 1432.85 2077.42, 1430.56 2052.11 C 1391.02 2014.32, 1355.98 1977.32, 1311.21 1964.49 C 1299.21 1957.40, 1258.19 1974.72, 1273.69 1953.97 C 1249.22 1942.78, 1237.13 1921.06, 1215.72 1918.92 C 1171.48 1905.70, 1201.25 1987.59, 1154.34 1964.49 C 1133.40 1935.00, 1136.99 1986.02, 1157.75 1992.53 C 1155.35 2022.33, 1187.06 2014.98, 1202.08 2013.56 C 1218.07 2032.26, 1199.48 2044.30, 1185.03 2041.59 C 1197.91 2062.73, 1208.11 2081.91, 1222.54 2101.18 C 1251.65 2114.85, 1268.85 2146.12, 1294.15 2157.26 C 1321.93 2188.51, 1359.83 2210.49, 1352.13 2251.89 C 1380.16 2279.54, 1392.25 2314.57, 1416.92 2343.01 C 1447.69 2352.57, 1491.02 2365.15, 1485.12 2406.10 C 1477.97 2434.86, 1487.78 2458.80, 1481.71 2483.21 C 1492.16 2521.95, 1514.25 2552.24, 1522.63 2588.36 C 1531.51 2625.84, 1541.57 2659.31, 1549.92 2693.50 C 1556.39 2812.42, 1583.16 2919.18, 1584.02 3036.98 C 1580.36 3080.48, 1591.03 3114.37, 1607.89 3145.63 C 1605.24 3184.63, 1612.81 3215.77, 1611.30 3250.78 C 1615.50 3300.15, 1601.78 3338.38, 1580.61 3373.45 C 1560.19 3397.94, 1578.64 3430.75, 1570.38 3454.06 C 1573.06 3469.82, 1590.89 3472.48, 1597.66 3482.10 C 1624.58 3513.40, 1651.17 3479.82, 1676.09 3478.60 C 1713.98 3501.12, 1756.73 3503.10, 1798.86 3506.64 C 1825.08 3504.28, 1842.96 3489.72, 1863.65 3482.10 C 1881.67 3480.35, 1894.13 3467.17, 1901.16 3454.06 C 1895.04 3418.03, 1882.07 3388.42, 1884.11 3352.42 C 1881.55 3330.26, 1867.86 3316.35, 1860.24 3299.85 C 1856.85 3270.15, 1846.65 3246.85, 1846.60 3219.23 C 1838.40 3187.02, 1828.03 3160.70, 1815.91 3135.12 C 1812.65 3121.03, 1808.93 3110.65, 1805.68 3100.07 C 1794.59 3053.30, 1794.92 3006.63, 1795.45 2959.87 C 1793.50 2931.21, 1801.39 2910.23, 1802.27 2886.27 C 1809.67 2838.70, 1803.81 2788.99, 1805.68 2742.57 C 1803.73 2728.13, 1792.24 2722.71, 1795.45 2711.03 C 1786.85 2659.89, 1776.14 2614.62, 1778.40 2563.82 C 1774.08 2517.22, 1806.75 2489.87, 1805.68 2448.16 C 1817.64 2422.48, 1849.07 2417.54, 1860.24 2395.59 C 1885.20 2361.15, 1910.34 2337.42, 1928.44 2304.46 C 1946.76 2279.56, 1961.00 2262.23, 1983.01 2248.38 C 2000.85 2208.91, 2040.39 2180.13, 2044.39 2136.23 C 2063.03 2100.69, 2082.50 2069.00, 2095.54 2034.58 C 2104.64 2015.89, 2089.47 1997.61, 2109.18 1985.52 C 2126.85 1963.18, 2095.22 1939.54, 2116.00 1922.43 C 2151.91 1896.26, 2088.51 1870.10, 2116.00 1845.32 C 2138.40 1813.55, 2093.99 1784.62, 2075.08 1810.27 C 2066.38 1830.94, 2041.21 1829.31, 2047.80 1852.33 C 2034.56 1878.89, 2029.58 1908.60, 2010.29 1925.93 C 2001.31 1942.03, 2018.03 1967.16, 1996.65 1975.00 C 1985.42 1984.94, 1993.45 2015.83, 1972.78 2013.56 C 1967.74 2038.49, 1938.25 2061.86, 1928.44 2087.16 C 1922.84 2113.61, 1917.81 2141.83, 1894.34 2153.75 C 1866.37 2166.00, 1850.15 2186.90, 1826.14 2206.32 C 1831.50 2227.03, 1812.33 2240.87, 1822.73 2255.39 C 1851.50 2253.72, 1872.27 2306.74, 1836.37 2297.45 C 1791.94 2273.32, 1831.26 2336.98, 1812.50 2350.02 C 1771.90 2367.01, 1733.18 2349.78, 1696.55 2353.53 C 1681.93 2324.54, 1675.71 2296.93, 1669.27 2269.41 C 1659.88 2227.08, 1661.87 2183.41, 1655.63 2143.24 C 1642.52 2115.82, 1653.81 2081.52, 1645.40 2055.61 C 1653.90 2000.62, 1652.81 1959.61, 1652.22 1908.41 C 1683.06 1884.05, 1652.76 1842.60, 1655.63 1810.27 C 1632.40 1780.87, 1607.61 1824.17, 1601.07 1785.74 Z" fill="rgb(155.04200262043943,120.97817980245918,83.16045152187058)" stroke="rgb(155.04200262043943,120.97817980245918,83.16045152187058)" stroke-width="1" />
<path d="M 1338.49 1550.91 C 1334.04 1573.72, 1334.95 1604.22, 1311.21 1610.49 C 1284.19 1617.00, 1262.16 1602.23, 1243.00 1582.45 C 1221.18 1596.03, 1226.85 1555.81, 1205.49 1561.43 C 1171.45 1550.73, 1188.41 1591.92, 1178.21 1614.00 C 1158.16 1642.98, 1127.16 1578.75, 1127.06 1617.50 C 1111.45 1642.57, 1111.10 1669.17, 1099.78 1691.11 C 1137.72 1710.26, 1154.16 1742.06, 1195.26 1750.69 C 1225.29 1773.73, 1191.74 1796.06, 1198.67 1820.79 C 1207.68 1850.52, 1223.91 1873.66, 1229.36 1901.40 C 1240.41 1915.52, 1253.91 1920.06, 1266.87 1925.93 C 1299.85 1915.98, 1302.34 1892.18, 1324.85 1869.85 C 1359.23 1829.57, 1363.16 1866.79, 1382.82 1869.85 C 1388.16 1891.46, 1384.58 1924.72, 1413.51 1908.41 C 1443.67 1933.91, 1461.21 1887.60, 1488.53 1883.87 C 1502.23 1859.53, 1493.30 1839.05, 1502.17 1817.28 C 1534.21 1778.00, 1471.52 1752.48, 1447.61 1757.70 C 1439.85 1723.45, 1422.65 1696.73, 1413.51 1666.57 C 1385.34 1652.14, 1403.81 1617.02, 1393.05 1603.48 C 1370.31 1630.15, 1332.47 1581.89, 1365.77 1571.94 C 1360.57 1551.19, 1351.54 1568.04, 1341.90 1550.91 Z" fill="rgb(86.52674190382729,99.1648675171737,62.38444553483808)" stroke="rgb(86.52674190382729,99.1648675171737,62.38444553483808)" stroke-width="1" />
<path d="M 1287.33 2164.27 C 1262.65 2175.78, 1280.52 2231.91, 1239.59 2223.85 C 1203.59 2194.31, 1219.16 2274.58, 1185.03 2251.89 C 1146.31 2265.16, 1148.07 2302.51, 1133.88 2332.50 C 1115.51 2364.71, 1115.68 2398.89, 1130.47 2427.13 C 1144.84 2450.77, 1165.15 2451.74, 1181.62 2469.19 C 1193.97 2507.19, 1249.64 2487.88, 1253.23 2483.21 C 1268.36 2508.95, 1267.29 2549.82, 1300.97 2556.81 C 1316.92 2565.61, 1326.47 2551.93, 1335.08 2546.30 C 1355.39 2547.84, 1376.02 2543.62, 1389.64 2556.81 C 1418.14 2540.19, 1445.16 2528.32, 1471.48 2514.75 C 1487.37 2481.89, 1461.33 2449.60, 1474.89 2420.12 C 1485.62 2375.30, 1448.11 2355.86, 1416.92 2350.02 C 1393.12 2343.10, 1362.05 2363.36, 1352.13 2336.00 C 1326.26 2305.82, 1345.59 2280.76, 1341.90 2251.89 C 1359.74 2210.21, 1308.70 2187.11, 1290.74 2164.27 Z" fill="rgb(84.53034742570112,94.93386354123064,68.42514301660388)" stroke="rgb(84.53034742570112,94.93386354123064,68.42514301660388)" stroke-width="1" />
<path d="M 523.46 881.48 C 497.51 903.97, 470.83 924.63, 438.21 930.55 C 395.44 961.86, 371.91 1002.62, 342.72 1039.20 C 326.21 1057.84, 324.23 1077.70, 308.62 1091.77 C 291.12 1101.04, 300.89 1120.47, 288.16 1130.32 C 254.19 1148.71, 228.63 1123.40, 199.49 1123.31 C 174.02 1116.67, 179.82 1141.60, 168.80 1151.35 C 145.77 1162.00, 151.79 1186.04, 158.57 1200.42 C 148.81 1214.61, 158.30 1278.93, 161.98 1242.48 C 176.36 1194.33, 205.11 1228.32, 226.78 1242.48 C 223.09 1264.25, 229.45 1267.49, 243.83 1270.52 C 279.52 1332.12, 351.52 1277.32, 356.36 1221.45 C 373.67 1197.96, 389.43 1230.58, 404.10 1217.95 C 417.84 1202.95, 398.61 1181.27, 410.92 1165.37 C 407.26 1128.60, 433.60 1108.10, 445.03 1081.26 C 462.11 1066.22, 487.92 1042.32, 499.59 1070.74 C 524.54 1058.86, 519.40 1017.13, 554.15 1011.16 C 585.27 987.48, 603.12 1021.72, 629.17 1025.18 C 641.84 1013.44, 643.31 989.59, 656.46 976.11 C 632.41 964.78, 649.36 941.95, 646.22 923.54 C 642.18 890.34, 616.05 912.62, 598.48 913.02 C 579.40 892.08, 556.11 876.23, 526.87 881.48 Z" fill="rgb(217.84471931493815,219.56194100856328,143.16784015223595)" stroke="rgb(217.84471931493815,219.56194100856328,143.16784015223595)" stroke-width="1" />
<path d="M 2177.38 906.01 C 2154.60 923.89, 2159.73 954.87, 2133.05 965.60 C 2146.64 1007.65, 2116.44 1041.49, 2092.13 1070.74 C 2113.43 1094.25, 2114.18 1156.51, 2088.72 1186.40 C 2078.29 1214.04, 2103.72 1225.87, 2105.77 1249.49 C 2100.98 1268.44, 2116.99 1262.49, 2126.23 1263.51 C 2152.50 1262.79, 2172.86 1282.77, 2194.44 1274.02 C 2240.21 1277.68, 2265.79 1236.02, 2272.87 1200.42 C 2308.25 1182.92, 2279.19 1158.84, 2283.10 1133.83 C 2293.17 1115.36, 2320.00 1107.04, 2310.38 1088.27 C 2297.48 1063.04, 2328.07 1049.28, 2320.61 1025.18 C 2331.10 999.14, 2310.99 985.22, 2313.79 962.09 C 2304.80 931.29, 2279.54 954.64, 2259.23 937.56 C 2221.77 947.38, 2210.94 905.09, 2180.79 906.01 Z" fill="rgb(95.67100130039012,112.48374512353706,64.61053315994799)" stroke="rgb(95.67100130039012,112.48374512353706,64.61053315994799)" stroke-width="1" />
<path d="M 2385.40 671.19 C 2363.36 692.24, 2337.09 667.88, 2324.02 685.20 C 2311.52 724.12, 2305.88 765.88, 2259.23 758.81 C 2209.68 776.51, 2241.64 848.05, 2279.69 842.92 C 2321.34 878.41, 2374.58 883.99, 2426.33 909.52 C 2444.86 943.99, 2480.73 932.43, 2511.58 934.05 C 2530.98 924.13, 2543.56 943.13, 2555.91 934.05 C 2583.85 895.29, 2502.93 894.22, 2549.09 867.46 C 2565.79 860.21, 2577.37 849.11, 2572.96 832.41 C 2569.79 799.47, 2581.83 755.33, 2545.68 744.79 C 2517.64 727.70, 2490.33 720.76, 2460.43 720.25 C 2418.84 722.30, 2428.42 659.51, 2388.81 671.19 Z" fill="rgb(178.1312143439283,182.1874490627547,75.98125509372453)" stroke="rgb(178.1312143439283,182.1874490627547,75.98125509372453)" stroke-width="1" />
<path d="M 1577.20 755.30 C 1558.25 790.97, 1530.05 819.94, 1495.35 839.42 C 1479.65 880.60, 1438.52 911.24, 1399.87 895.50 C 1373.60 907.84, 1345.48 907.11, 1321.44 916.53 C 1287.73 932.81, 1263.88 977.57, 1280.51 1011.16 C 1293.07 1034.14, 1316.32 1040.09, 1328.26 1053.22 C 1372.87 1083.06, 1417.91 1090.33, 1454.43 1102.29 C 1515.25 1086.86, 1465.69 1019.55, 1444.20 990.13 C 1449.50 961.05, 1474.16 974.41, 1481.71 965.60 C 1491.30 951.59, 1491.43 938.51, 1495.35 927.04 C 1525.57 917.49, 1551.52 909.32, 1573.79 891.99 C 1592.68 883.27, 1613.56 893.82, 1618.12 874.47 C 1643.53 844.28, 1569.73 874.50, 1607.89 842.92 C 1635.27 831.88, 1654.79 759.11, 1611.30 776.33 C 1588.50 789.57, 1593.07 764.19, 1580.61 755.30 Z" fill="rgb(149.9505016722408,169.0314381270903,98.161872909699)" stroke="rgb(149.9505016722408,169.0314381270903,98.161872909699)" stroke-width="1" />
<path d="M 1543.10 247.09 C 1497.93 250.28, 1497.48 309.82, 1451.02 313.69 C 1404.94 317.69, 1446.39 355.22, 1451.02 376.77 C 1446.95 401.12, 1458.83 426.01, 1454.43 450.38 C 1485.53 463.92, 1498.58 424.50, 1522.63 418.83 C 1537.49 432.61, 1527.42 453.18, 1536.28 460.89 C 1517.84 491.29, 1566.37 438.21, 1577.20 460.89 C 1587.92 476.79, 1590.74 493.97, 1601.07 506.46 C 1625.13 498.44, 1634.33 472.31, 1645.40 474.91 C 1655.85 469.44, 1674.16 450.67, 1686.32 439.86 C 1652.74 382.35, 1797.33 390.41, 1717.01 348.74 C 1685.61 324.25, 1662.26 295.84, 1628.35 271.63 C 1606.73 244.09, 1576.66 250.75, 1546.51 247.09 Z" fill="rgb(227.24895195098355,226.25088681070622,160.71073847146081)" stroke="rgb(227.24895195098355,226.25088681070622,160.71073847146081)" stroke-width="1" />
<path d="M 2388.81 394.30 C 2375.53 408.31, 2357.30 410.07, 2337.66 408.32 C 2312.31 412.55, 2345.14 444.59, 2327.43 453.88 C 2311.70 459.86, 2303.28 447.36, 2293.33 453.88 C 2261.47 470.07, 2273.79 517.81, 2306.97 509.96 C 2322.14 496.33, 2335.29 509.66, 2330.84 523.98 C 2325.12 552.81, 2282.29 583.23, 2320.61 601.09 C 2350.78 609.73, 2359.66 633.79, 2361.53 660.67 C 2391.45 676.30, 2387.50 620.13, 2416.10 629.13 C 2448.46 624.63, 2499.58 646.45, 2511.58 611.60 C 2556.49 611.99, 2534.20 557.33, 2514.99 541.50 C 2545.09 502.62, 2484.01 499.81, 2491.12 460.89 C 2477.46 442.45, 2462.22 431.42, 2443.38 429.35 C 2422.42 419.38, 2413.89 390.54, 2392.22 394.30 Z" fill="rgb(231.27366182204892,230.37681673165545,165.90393477490252)" stroke="rgb(231.27366182204892,230.37681673165545,165.90393477490252)" stroke-width="1" />
<path d="M 1202.08 1571.94 C 1176.50 1582.76, 1180.47 1653.93, 1140.70 1610.49 C 1119.69 1612.91, 1110.70 1668.57, 1103.19 1698.12 C 1142.72 1701.57, 1152.89 1728.10, 1178.21 1747.18 C 1199.27 1749.58, 1252.70 1791.50, 1239.59 1750.69 C 1245.52 1717.86, 1264.04 1779.23, 1277.10 1750.69 C 1295.51 1722.35, 1335.29 1732.80, 1345.31 1736.67 C 1367.12 1769.28, 1380.39 1734.32, 1403.28 1750.69 C 1403.04 1736.29, 1404.86 1724.51, 1399.87 1715.64 C 1430.15 1702.02, 1415.35 1653.61, 1389.64 1663.07 C 1399.64 1649.41, 1397.87 1597.46, 1382.82 1614.00 C 1362.94 1614.86, 1316.75 1570.90, 1324.85 1624.51 C 1310.64 1602.18, 1275.02 1624.37, 1253.23 1592.97 C 1228.38 1600.50, 1217.53 1586.42, 1205.49 1571.94 Z" fill="rgb(66.94844159627148,78.47422079813575,52.5819982522575)" stroke="rgb(66.94844159627148,78.47422079813575,52.5819982522575)" stroke-width="1" />
<path d="M 2637.76 1775.22 C 2621.93 1796.85, 2601.21 1836.94, 2569.55 1845.32 C 2539.20 1869.16, 2553.14 1903.72, 2559.32 1932.94 C 2558.00 1962.47, 2598.63 1951.92, 2593.42 1982.01 C 2563.25 2003.80, 2579.72 2045.84, 2600.24 2066.13 C 2617.73 2079.25, 2619.78 2052.03, 2637.76 2059.12 C 2677.65 2057.87, 2709.99 2060.98, 2736.65 2031.08 C 2769.25 2076.19, 2803.27 1986.05, 2757.11 1996.03 C 2745.02 1964.11, 2742.37 1931.67, 2726.42 1904.90 C 2699.35 1907.41, 2675.65 1913.92, 2668.45 1883.87 C 2677.59 1858.65, 2699.81 1832.13, 2678.68 1810.27 C 2682.72 1785.15, 2652.51 1788.83, 2641.17 1775.22 Z" fill="rgb(108.32371541501976,123.600395256917,66.86719367588933)" stroke="rgb(108.32371541501976,123.600395256917,66.86719367588933)" stroke-width="1" />
<path d="M 1996.65 846.43 C 1971.91 859.96, 1948.04 875.62, 1921.62 884.98 C 1930.34 911.02, 1902.43 926.24, 1890.93 944.57 C 1864.03 938.93, 1853.02 969.76, 1863.65 986.62 C 1885.89 1010.57, 1944.69 1016.55, 1921.62 1056.72 C 1910.28 1096.17, 1958.96 1088.24, 1959.13 1116.31 C 1990.02 1121.16, 2013.63 1111.79, 2013.70 1081.26 C 2038.45 1083.15, 2057.35 1080.46, 2071.67 1060.23 C 2069.09 1042.91, 2064.79 1035.69, 2051.21 1028.68 C 2073.31 992.47, 2124.21 968.44, 2092.13 923.54 C 2056.88 920.35, 2017.82 888.94, 2034.16 856.94 C 2027.14 854.76, 2012.30 850.73, 2000.06 846.43 Z" fill="rgb(91.50328358208955,108.23462686567164,67.34955223880597)" stroke="rgb(91.50328358208955,108.23462686567164,67.34955223880597)" stroke-width="1" />
<path d="M 458.67 1599.98 C 443.18 1611.47, 414.82 1616.28, 414.33 1642.04 C 408.45 1669.31, 394.35 1689.57, 393.87 1715.64 C 387.00 1744.14, 384.00 1770.79, 370.00 1792.75 C 362.17 1826.05, 376.90 1856.34, 356.36 1883.87 C 356.38 1938.99, 411.07 1912.58, 434.79 1897.89 C 456.93 1867.91, 494.03 1848.29, 489.36 1806.77 C 482.56 1755.56, 529.22 1732.19, 533.69 1687.60 C 537.21 1642.93, 479.18 1620.13, 462.08 1599.98 Z" fill="rgb(169.1398843930636,180.62543352601156,100.10404624277457)" stroke="rgb(169.1398843930636,180.62543352601156,100.10404624277457)" stroke-width="1" />
<path d="M 980.42 2178.28 C 965.08 2191.49, 942.21 2205.06, 922.45 2195.81 C 905.04 2212.77, 872.64 2214.84, 867.88 2244.88 C 854.23 2272.83, 845.70 2299.45, 844.01 2328.99 C 861.38 2342.87, 856.26 2302.85, 864.47 2321.98 C 864.84 2355.28, 881.32 2384.44, 908.81 2392.08 C 933.43 2382.35, 963.39 2384.23, 970.19 2357.03 C 1004.53 2362.31, 1036.23 2349.07, 1052.03 2321.98 C 1054.56 2287.71, 1037.11 2264.00, 1041.80 2230.86 C 1032.12 2202.65, 995.10 2200.95, 983.83 2178.28 Z" fill="rgb(70.54229934924078,84.53687635574838,53.61279826464208)" stroke="rgb(70.54229934924078,84.53687635574838,53.61279826464208)" stroke-width="1" />
<path d="M 1491.94 867.46 C 1474.27 883.25, 1450.82 884.68, 1433.97 902.51 C 1391.05 894.34, 1359.34 912.05, 1321.44 916.53 C 1283.19 939.41, 1258.15 991.11, 1290.74 1025.18 C 1318.00 1037.12, 1333.05 1067.39, 1358.95 1070.74 C 1377.34 1064.91, 1386.75 1081.77, 1399.87 1067.24 C 1414.83 1081.02, 1432.06 1085.25, 1437.38 1102.29 C 1462.55 1103.28, 1488.39 1094.01, 1485.12 1067.24 C 1474.85 1041.75, 1468.25 1018.21, 1447.61 1000.64 C 1440.46 969.30, 1479.79 947.66, 1471.48 913.02 C 1487.73 902.54, 1508.94 884.43, 1495.35 867.46 Z" fill="rgb(99.83075179448433,116.82659614658104,73.6071023800529)" stroke="rgb(99.83075179448433,116.82659614658104,73.6071023800529)" stroke-width="1" />
<path d="M 2654.81 548.51 C 2641.67 589.28, 2582.50 573.36, 2583.19 618.61 C 2581.29 639.65, 2549.57 647.55, 2562.73 667.68 C 2595.50 677.14, 2641.17 653.28, 2644.58 702.73 C 2663.05 719.82, 2688.06 708.75, 2702.55 723.76 C 2731.87 718.36, 2727.09 778.67, 2753.70 751.80 C 2762.59 731.90, 2776.60 703.34, 2798.03 713.24 C 2817.10 714.57, 2812.27 691.25, 2808.26 681.70 C 2800.84 659.27, 2788.11 642.62, 2784.39 622.12 C 2758.71 607.86, 2744.07 589.73, 2723.01 573.05 C 2710.26 549.09, 2682.39 548.53, 2658.22 548.51 Z" fill="rgb(230.44077134986225,228.3486816214089,164.14285714285714)" stroke="rgb(230.44077134986225,228.3486816214089,164.14285714285714)" stroke-width="1" />
<path d="M 2388.81 671.19 C 2378.66 686.97, 2359.86 664.28, 2354.71 685.20 C 2341.39 688.61, 2334.61 664.02, 2327.43 678.19 C 2310.44 704.45, 2314.42 739.04, 2293.33 755.30 C 2264.75 750.04, 2243.26 766.06, 2231.95 786.85 C 2233.93 806.91, 2249.98 817.49, 2255.82 832.41 C 2287.96 835.84, 2290.53 874.33, 2324.02 863.95 C 2342.71 881.68, 2403.82 916.16, 2409.28 867.46 C 2429.56 838.13, 2421.05 801.59, 2409.28 776.33 C 2403.38 744.55, 2433.33 739.11, 2443.38 720.25 C 2419.10 707.84, 2421.05 667.66, 2392.22 671.19 Z" fill="rgb(206.3585755218993,203.99140401146133,95.37535816618912)" stroke="rgb(206.3585755218993,203.99140401146133,95.37535816618912)" stroke-width="1" />
<path d="M 1819.32 1677.09 C 1810.20 1685.74, 1783.61 1673.46, 1788.63 1694.61 C 1791.66 1723.82, 1761.63 1735.46, 1764.76 1761.20 C 1774.76 1772.28, 1787.68 1772.62, 1795.45 1785.74 C 1804.04 1795.22, 1807.62 1803.32, 1805.68 1813.78 C 1859.96 1828.48, 1827.31 1904.92, 1870.47 1915.42 C 1902.00 1969.60, 1932.13 1876.00, 1925.03 1841.82 C 1934.62 1828.36, 1967.65 1828.52, 1952.31 1803.26 C 1970.20 1772.20, 1939.08 1750.98, 1914.80 1747.18 C 1907.65 1732.04, 1915.19 1720.81, 1907.98 1708.63 C 1873.10 1706.18, 1853.65 1677.40, 1822.73 1677.09 Z" fill="rgb(85.16003536693192,99.79133510167993,64.71175950486295)" stroke="rgb(85.16003536693192,99.79133510167993,64.71175950486295)" stroke-width="1" />
<path d="M 1519.22 1245.99 C 1499.10 1261.81, 1478.43 1276.28, 1451.02 1274.02 C 1433.85 1295.71, 1422.83 1307.01, 1403.28 1316.08 C 1393.51 1298.39, 1372.07 1301.32, 1352.13 1298.56 C 1345.20 1328.26, 1315.01 1331.49, 1307.79 1351.13 C 1308.13 1366.12, 1310.66 1392.16, 1294.15 1382.68 C 1273.71 1369.89, 1248.46 1337.72, 1253.23 1379.17 C 1239.96 1405.39, 1261.74 1420.31, 1283.92 1414.22 C 1309.53 1407.15, 1337.05 1402.90, 1358.95 1414.22 C 1366.99 1446.66, 1392.70 1404.04, 1413.51 1414.22 C 1446.77 1413.82, 1399.13 1353.07, 1427.15 1372.16 C 1450.09 1369.48, 1464.14 1368.29, 1481.71 1375.67 C 1487.58 1328.33, 1544.02 1399.92, 1529.46 1344.12 C 1563.67 1344.47, 1556.29 1327.31, 1563.56 1298.56 C 1597.06 1268.84, 1543.76 1257.41, 1522.63 1245.99 Z" fill="rgb(76.39617145235123,90.2213899292551,57.490220557636285)" stroke="rgb(76.39617145235123,90.2213899292551,57.490220557636285)" stroke-width="1" />
<path d="M 2204.67 1049.71 C 2180.30 1079.61, 2139.37 1049.56, 2116.00 1070.74 C 2067.02 1069.79, 2127.38 1108.43, 2109.18 1133.83 C 2121.04 1166.40, 2059.34 1195.54, 2098.95 1221.45 C 2102.82 1235.79, 2112.08 1261.19, 2112.59 1235.47 C 2127.73 1237.56, 2133.37 1252.35, 2150.10 1249.49 C 2168.85 1279.04, 2192.52 1257.78, 2218.31 1267.02 C 2219.85 1240.94, 2216.48 1209.98, 2235.36 1189.91 C 2257.10 1190.45, 2294.24 1194.05, 2279.69 1179.39 C 2247.63 1198.22, 2259.87 1151.20, 2262.64 1133.83 C 2247.82 1095.28, 2226.65 1135.64, 2235.36 1095.28 C 2222.47 1104.74, 2215.99 1109.20, 2211.49 1091.77 C 2187.06 1078.34, 2222.28 1051.28, 2208.08 1049.71 Z" fill="rgb(61.07739665787159,77.2467018469657,51.04661389621812)" stroke="rgb(61.07739665787159,77.2467018469657,51.04661389621812)" stroke-width="1" />
<path d="M 2487.71 1386.18 C 2479.05 1397.64, 2459.90 1413.95, 2453.61 1393.19 C 2429.07 1390.06, 2444.86 1423.54, 2426.33 1424.73 C 2407.23 1423.16, 2379.17 1412.62, 2385.40 1442.26 C 2380.36 1469.20, 2391.30 1487.95, 2392.22 1512.36 C 2381.03 1550.29, 2426.01 1529.62, 2439.97 1533.39 C 2452.22 1543.11, 2484.11 1491.50, 2497.94 1498.34 C 2505.13 1519.10, 2501.74 1536.57, 2497.94 1554.42 C 2520.41 1556.10, 2517.94 1528.61, 2538.86 1529.88 C 2562.75 1502.42, 2575.74 1565.60, 2590.01 1543.90 C 2593.78 1516.62, 2627.07 1505.40, 2620.71 1477.31 C 2625.19 1443.89, 2594.48 1428.24, 2572.96 1442.26 C 2546.55 1444.18, 2520.14 1437.25, 2528.63 1407.21 C 2536.57 1376.85, 2506.99 1388.56, 2491.12 1386.18 Z" fill="rgb(182.7106890459364,189.38825088339223,141.12190812720848)" stroke="rgb(182.7106890459364,189.38825088339223,141.12190812720848)" stroke-width="1" />
<path d="M 492.77 1214.44 C 447.47 1221.92, 340.33 1317.64, 431.38 1337.11 C 478.56 1358.08, 454.49 1400.76, 451.85 1445.76 C 502.59 1424.56, 564.51 1391.97, 557.56 1330.10 C 628.14 1283.16, 543.31 1227.93, 496.18 1214.44 Z" fill="rgb(223.09417040358744,223.79372197309416,164.55605381165918)" stroke="rgb(223.09417040358744,223.79372197309416,164.55605381165918)" stroke-width="1" />
<path d="M 462.08 1621.01 C 434.91 1627.56, 420.41 1654.66, 421.15 1684.10 C 395.36 1667.22, 394.67 1735.99, 393.87 1768.21 C 398.59 1792.19, 395.37 1816.04, 404.10 1834.81 C 410.70 1883.18, 471.67 1874.85, 482.54 1838.31 C 487.87 1810.80, 503.00 1784.91, 489.36 1761.20 C 499.65 1748.51, 508.60 1746.58, 513.23 1733.16 C 526.59 1719.65, 544.70 1694.95, 526.87 1684.10 C 536.49 1646.79, 490.74 1624.87, 465.49 1621.01 Z" fill="rgb(114.04722492697177,130.56475170399221,63.96640701071081)" stroke="rgb(114.04722492697177,130.56475170399221,63.96640701071081)" stroke-width="1" />
<path d="M 499.59 2178.28 C 477.01 2206.88, 449.02 2233.16, 427.97 2262.40 C 406.95 2260.46, 407.07 2278.01, 397.28 2286.94 C 407.02 2325.39, 343.59 2387.82, 393.87 2395.59 C 430.03 2390.72, 417.49 2367.93, 424.56 2343.01 C 458.69 2337.81, 487.32 2341.27, 516.64 2343.01 C 542.56 2358.25, 524.20 2305.36, 550.74 2311.47 C 582.88 2314.43, 659.60 2295.93, 595.07 2297.45 C 588.84 2281.49, 593.54 2262.10, 584.84 2248.38 C 563.70 2240.44, 540.11 2247.04, 520.05 2244.88 C 511.63 2264.09, 483.63 2253.95, 479.13 2241.37 C 495.36 2241.98, 502.41 2231.73, 513.23 2230.86 C 552.39 2230.72, 524.73 2183.69, 503.00 2178.28 Z" fill="rgb(240.76182965299685,239.39800210304944,215.75709779179812)" stroke="rgb(240.76182965299685,239.39800210304944,215.75709779179812)" stroke-width="1" />
<path d="M 2457.02 1876.86 C 2430.74 1883.64, 2437.32 1894.65, 2453.61 1908.41 C 2446.21 1931.68, 2472.09 1947.96, 2450.20 1960.98 C 2444.23 1999.98, 2420.37 2026.41, 2419.51 2062.62 C 2412.81 2090.48, 2376.25 2099.98, 2381.99 2125.71 C 2418.81 2118.31, 2439.75 2076.16, 2474.07 2055.61 C 2503.13 2037.03, 2494.90 2093.13, 2521.81 2062.62 C 2547.56 2059.73, 2556.45 2030.74, 2569.55 2017.06 C 2579.05 1981.58, 2532.05 1993.65, 2532.04 1964.49 C 2539.36 1939.22, 2564.94 1913.96, 2538.86 1894.39 C 2512.50 1883.45, 2485.02 1883.74, 2460.43 1876.86 Z" fill="rgb(197.6745308310992,203.89812332439678,145.01823056300267)" stroke="rgb(197.6745308310992,203.89812332439678,145.01823056300267)" stroke-width="1" />
<path d="M 2231.95 1424.73 C 2225.40 1436.93, 2218.55 1454.13, 2204.67 1459.78 C 2187.12 1452.75, 2162.71 1466.50, 2156.92 1484.32 C 2106.77 1480.89, 2068.34 1467.78, 2027.34 1494.83 C 1997.85 1472.88, 2015.47 1544.80, 2023.93 1561.43 C 1996.82 1663.59, 2045.17 1584.58, 2102.36 1596.47 C 2118.55 1565.40, 2156.48 1541.46, 2187.62 1526.38 C 2207.61 1511.17, 2204.40 1487.60, 2225.13 1480.81 C 2238.17 1477.47, 2245.51 1468.45, 2255.82 1466.79 C 2287.63 1456.05, 2260.56 1415.88, 2235.36 1424.73 Z" fill="rgb(198.36129032258066,202.36774193548388,169.6516129032258)" stroke="rgb(198.36129032258066,202.36774193548388,169.6516129032258)" stroke-width="1" />
<path d="M 3084.49 2080.15 C 3067.53 2090.80, 3045.48 2078.07, 3029.92 2097.67 C 3000.68 2125.90, 2990.03 2170.29, 3002.64 2206.32 C 3026.19 2225.43, 3031.79 2188.63, 3043.56 2188.80 C 3046.02 2216.02, 3082.26 2200.49, 3081.08 2223.85 C 3100.00 2249.52, 3143.12 2216.17, 3173.15 2223.85 C 3176.64 2197.91, 3140.39 2232.54, 3152.69 2202.82 C 3187.74 2188.21, 3153.46 2187.34, 3156.10 2167.77 C 3155.46 2150.58, 3168.03 2143.96, 3169.74 2132.72 C 3147.55 2113.64, 3165.99 2067.69, 3125.41 2080.15 C 3109.63 2083.72, 3097.65 2092.45, 3087.90 2080.15 Z" fill="rgb(186.02132998745296,193.63989962358846,94.83312421580928)" stroke="rgb(186.02132998745296,193.63989962358846,94.83312421580928)" stroke-width="1" />
<path d="M 496.18 1866.35 C 485.50 1879.76, 522.37 1887.10, 499.59 1904.90 C 470.88 1935.94, 468.77 1971.60, 441.62 1996.03 C 424.02 2027.83, 476.23 2038.96, 468.90 2003.04 C 518.43 1940.16, 547.16 2070.20, 574.61 2027.57 C 605.36 2053.72, 634.85 2007.48, 625.76 1982.01 C 632.02 1968.47, 646.28 1975.87, 642.81 1964.49 C 627.00 1940.35, 676.22 1903.61, 632.58 1904.90 C 617.66 1894.95, 601.86 1897.55, 591.66 1904.90 C 550.53 1908.21, 521.98 1888.34, 499.59 1866.35 Z" fill="rgb(222.09290322580645,223.31225806451613,164.5316129032258)" stroke="rgb(222.09290322580645,223.31225806451613,164.5316129032258)" stroke-width="1" />
<path d="M 3111.77 1281.03 C 3085.76 1290.79, 3050.98 1300.30, 3036.74 1323.09 C 3077.59 1334.04, 3019.51 1360.34, 3036.74 1379.17 C 3055.02 1422.43, 3095.99 1440.25, 3132.23 1456.28 C 3157.26 1472.36, 3172.81 1428.62, 3193.61 1442.26 C 3216.62 1437.96, 3214.29 1406.10, 3200.43 1393.19 C 3203.85 1348.75, 3140.86 1350.87, 3162.92 1319.59 C 3133.90 1323.73, 3126.68 1291.05, 3115.18 1281.03 Z" fill="rgb(209.22964626614262,211.82144862436834,132.3548568220101)" stroke="rgb(209.22964626614262,211.82144862436834,132.3548568220101)" stroke-width="1" />
<path d="M 3203.84 1508.85 C 3192.11 1519.45, 3189.45 1565.74, 3169.74 1547.41 C 3176.13 1515.67, 3148.53 1522.86, 3132.23 1526.38 C 3113.24 1562.74, 3086.21 1581.62, 3081.08 1617.50 C 3060.45 1632.52, 3084.76 1645.75, 3087.90 1659.56 C 3096.78 1687.36, 3067.89 1716.39, 3101.54 1729.66 C 3119.98 1733.51, 3127.26 1701.20, 3139.05 1708.63 C 3170.55 1694.73, 3189.75 1665.22, 3190.20 1631.52 C 3206.76 1618.36, 3201.70 1594.18, 3217.48 1582.45 C 3238.10 1559.74, 3243.93 1512.59, 3207.25 1508.85 Z" fill="rgb(188.04890387858347,194.91174817313097,101.43057897695334)" stroke="rgb(188.04890387858347,194.91174817313097,101.43057897695334)" stroke-width="1" />
<path d="M 2109.18 632.63 C 2095.64 637.20, 2108.85 658.00, 2092.13 664.18 C 2083.51 617.93, 2031.94 656.81, 2047.80 692.21 C 2032.98 711.05, 2030.62 735.20, 2020.52 755.30 C 1993.07 776.26, 2032.08 786.26, 2051.21 783.34 C 2073.65 791.43, 2073.41 841.85, 2092.13 804.37 C 2123.77 776.16, 2144.62 757.33, 2167.15 727.26 C 2191.04 716.14, 2260.65 696.44, 2208.08 681.70 C 2168.25 677.22, 2148.66 634.47, 2112.59 632.63 Z" fill="rgb(149.16553672316385,171.13220338983052,107.95197740112994)" stroke="rgb(149.16553672316385,171.13220338983052,107.95197740112994)" stroke-width="1" />
<path d="M 2951.49 1147.85 C 2935.04 1153.22, 2920.04 1192.75, 2910.57 1161.87 C 2899.10 1169.60, 2883.62 1170.87, 2869.65 1175.89 C 2854.47 1195.98, 2798.58 1172.18, 2811.67 1203.93 C 2808.35 1244.13, 2857.05 1261.15, 2869.65 1288.04 C 2896.23 1283.24, 2929.82 1251.23, 2944.67 1284.54 C 2972.95 1291.37, 2966.80 1257.50, 2992.41 1260.01 C 3022.37 1245.05, 3013.62 1200.39, 3006.05 1175.89 C 2998.84 1149.96, 2974.83 1145.65, 2954.90 1147.85 Z" fill="rgb(182.9788812785388,181.2288812785388,56.843607305936075)" stroke="rgb(182.9788812785388,181.2288812785388,56.843607305936075)" stroke-width="1" />
<path d="M 1515.81 1729.66 C 1501.50 1735.31, 1489.63 1763.25, 1512.40 1768.21 C 1532.85 1784.12, 1524.96 1805.35, 1512.40 1817.28 C 1493.27 1849.31, 1535.69 1900.62, 1488.53 1904.90 C 1474.52 1926.00, 1455.62 1951.17, 1437.38 1950.47 C 1426.75 1922.69, 1409.41 1943.42, 1396.46 1950.47 C 1305.00 1942.88, 1420.45 2072.40, 1451.02 2017.06 C 1516.12 2006.69, 1497.10 1925.28, 1543.10 1908.41 C 1557.76 1883.45, 1535.63 1856.99, 1560.15 1841.82 C 1574.73 1820.62, 1565.44 1790.25, 1587.43 1778.73 C 1552.12 1777.98, 1551.75 1728.07, 1519.22 1729.66 Z" fill="rgb(197.31010101010102,203.21515151515152,164.03030303030303)" stroke="rgb(197.31010101010102,203.21515151515152,164.03030303030303)" stroke-width="1" />
<path d="M 704.20 2262.40 C 708.45 2308.45, 649.45 2309.86, 649.63 2357.03 C 645.05 2394.11, 601.46 2440.27, 642.81 2469.19 C 697.32 2478.97, 724.48 2432.99, 755.35 2409.61 C 754.96 2381.72, 782.83 2370.82, 779.22 2346.52 C 756.96 2313.23, 752.25 2263.62, 707.61 2262.40 Z" fill="rgb(101.17923497267759,119.99344262295082,57.949726775956286)" stroke="rgb(101.17923497267759,119.99344262295082,57.949726775956286)" stroke-width="1" />
<path d="M 663.28 2013.56 C 627.66 2035.52, 614.12 2075.22, 588.25 2104.68 C 577.90 2159.18, 535.05 2223.72, 612.12 2234.36 C 637.78 2241.52, 631.50 2289.17, 659.87 2262.40 C 684.62 2235.83, 689.50 2197.08, 680.33 2164.27 C 679.85 2135.86, 670.31 2116.32, 656.46 2101.18 C 659.05 2087.95, 639.57 2073.11, 656.46 2069.63 C 684.69 2067.66, 682.01 2021.87, 666.69 2013.56 Z" fill="rgb(110.49773071104387,129.39183055975795,64.76399394856278)" stroke="rgb(110.49773071104387,129.39183055975795,64.76399394856278)" stroke-width="1" />
<path d="M 3135.64 1726.15 C 3133.35 1750.62, 3095.38 1763.17, 3081.08 1747.18 C 3045.34 1736.14, 3061.84 1773.07, 3053.79 1778.73 C 3011.24 1773.83, 3041.62 1820.85, 3016.28 1831.30 C 3014.07 1852.64, 2993.60 1862.70, 2999.23 1883.87 C 2995.69 1919.94, 3031.16 1896.01, 3043.56 1887.38 C 3080.57 1929.10, 3108.92 1886.09, 3098.13 1845.32 C 3101.84 1796.32, 3131.23 1825.06, 3159.51 1824.29 C 3178.00 1816.25, 3206.67 1823.42, 3200.43 1796.25 C 3174.32 1777.36, 3166.23 1737.42, 3139.05 1726.15 Z" fill="rgb(253.24185463659148,253.0093984962406,249.70363408521303)" stroke="rgb(253.24185463659148,253.0093984962406,249.70363408521303)" stroke-width="1" />
<path d="M 3111.77 1817.28 C 3087.24 1846.26, 3117.65 1903.11, 3084.49 1922.43 C 3094.29 1944.80, 3118.09 1933.39, 3122.00 1950.47 C 3121.06 1976.11, 3144.22 2006.66, 3166.33 1999.54 C 3207.92 1982.76, 3180.30 1939.08, 3207.25 1915.42 C 3203.42 1868.79, 3238.01 1878.95, 3241.35 1908.41 C 3262.15 1883.20, 3227.37 1865.39, 3231.12 1841.82 C 3212.48 1809.09, 3152.42 1840.05, 3115.18 1817.28 Z" fill="rgb(226.7601809954751,226.53619909502262,158.0158371040724)" stroke="rgb(226.7601809954751,226.53619909502262,158.0158371040724)" stroke-width="1" />
<path d="M 2917.39 807.88 C 2899.49 819.75, 2885.93 852.88, 2859.42 835.91 C 2827.51 797.70, 2816.99 832.09, 2825.31 863.95 C 2859.32 878.86, 2820.28 888.56, 2818.49 909.52 C 2841.11 913.78, 2862.26 920.36, 2862.83 944.57 C 2881.80 948.65, 2900.38 930.42, 2913.98 948.07 C 2920.60 966.11, 2948.77 955.94, 2954.90 948.07 C 2927.82 903.40, 3008.40 943.62, 2992.41 895.50 C 2957.03 869.53, 2971.12 806.25, 2920.80 807.88 Z" fill="rgb(208.4505928853755,211.30171277997366,129.0592885375494)" stroke="rgb(208.4505928853755,211.30171277997366,129.0592885375494)" stroke-width="1" />
<path d="M 632.58 1705.13 C 633.69 1733.38, 592.70 1720.35, 595.07 1743.68 C 577.08 1747.94, 553.71 1774.80, 554.15 1796.25 C 527.76 1808.36, 550.04 1843.19, 567.79 1841.82 C 587.59 1851.59, 597.08 1835.36, 612.12 1845.32 C 633.21 1879.57, 662.91 1843.61, 687.15 1841.82 C 703.38 1823.34, 689.03 1796.80, 711.02 1785.74 C 705.86 1770.11, 695.22 1756.35, 680.33 1750.69 C 683.42 1715.44, 661.81 1702.73, 635.99 1705.13 Z" fill="rgb(100.1367292225201,121.29892761394102,56.52144772117963)" stroke="rgb(100.1367292225201,121.29892761394102,56.52144772117963)" stroke-width="1" />
<path d="M 1699.96 467.90 C 1689.13 482.12, 1698.41 514.82, 1676.09 530.99 C 1667.39 552.11, 1693.29 565.71, 1699.96 569.54 C 1704.22 593.80, 1692.16 619.82, 1717.01 629.13 C 1741.93 638.11, 1761.19 675.63, 1788.63 653.66 C 1824.60 638.53, 1803.46 594.14, 1809.09 562.53 C 1817.08 530.21, 1779.80 515.37, 1785.22 495.94 C 1751.11 516.06, 1716.01 504.67, 1703.37 471.41 Z" fill="rgb(176.97966101694917,187.28474576271188,98.33830508474577)" stroke="rgb(176.97966101694917,187.28474576271188,98.33830508474577)" stroke-width="1" />
<path d="M 1246.41 765.82 C 1215.13 785.28, 1261.74 845.07, 1212.31 842.92 C 1220.76 885.83, 1246.12 906.19, 1280.51 923.54 C 1312.01 918.91, 1330.97 892.16, 1338.49 867.46 C 1343.24 845.78, 1372.27 841.40, 1365.77 814.89 C 1361.53 791.59, 1349.63 776.73, 1335.08 765.82 C 1303.97 773.12, 1275.47 780.49, 1249.82 765.82 Z" fill="rgb(136.8343685300207,155.22981366459626,71.6984126984127)" stroke="rgb(136.8343685300207,155.22981366459626,71.6984126984127)" stroke-width="1" />
<path d="M 1914.80 2360.54 C 1893.36 2367.80, 1907.66 2412.08, 1877.29 2406.10 C 1845.68 2408.31, 1817.41 2437.90, 1812.50 2458.68 C 1828.77 2487.70, 1838.41 2514.64, 1839.78 2549.80 C 1847.15 2584.05, 1889.14 2566.92, 1894.34 2595.37 C 1924.46 2588.93, 1904.96 2536.54, 1942.08 2542.79 C 1945.08 2528.12, 1950.65 2488.40, 1928.44 2500.73 C 1916.94 2505.74, 1917.31 2527.71, 1904.57 2514.75 C 1915.48 2483.25, 1932.37 2444.44, 1907.98 2416.62 C 1905.57 2393.99, 1928.49 2378.15, 1918.21 2360.54 Z" fill="rgb(134.70637119113573,141.13019390581718,107.27423822714681)" stroke="rgb(134.70637119113573,141.13019390581718,107.27423822714681)" stroke-width="1" />
<path d="M 1641.99 1855.84 C 1611.51 1874.73, 1593.40 1903.30, 1577.20 1932.94 C 1562.39 1942.58, 1544.99 1914.18, 1546.51 1939.95 C 1533.47 1957.38, 1528.76 1997.68, 1556.74 1989.02 C 1577.33 1999.94, 1564.60 2022.55, 1584.02 1999.54 C 1598.26 2024.56, 1566.67 2068.00, 1604.48 2080.15 C 1608.23 2089.39, 1597.13 2134.12, 1618.12 2108.19 C 1633.15 2094.26, 1624.85 2066.46, 1635.17 2052.11 C 1649.95 2024.26, 1659.45 2000.74, 1648.81 1971.50 C 1651.04 1953.25, 1629.95 1955.86, 1645.40 1939.95 C 1635.59 1901.03, 1698.24 1870.74, 1645.40 1855.84 Z" fill="rgb(67.76180408738549,63.45313601127555,49.92389006342495)" stroke="rgb(67.76180408738549,63.45313601127555,49.92389006342495)" stroke-width="1" />
<path d="M 2255.82 1519.37 C 2242.12 1527.28, 2233.30 1538.69, 2221.72 1547.41 C 2200.03 1523.75, 2182.22 1547.77, 2160.33 1543.90 C 2153.45 1582.63, 2095.99 1606.79, 2109.18 1635.03 C 2131.69 1654.70, 2157.50 1603.88, 2170.56 1635.03 C 2191.43 1652.21, 2240.22 1647.09, 2231.95 1614.00 C 2254.88 1609.60, 2248.95 1575.54, 2269.46 1575.44 C 2299.87 1563.23, 2269.69 1611.23, 2296.74 1599.98 C 2308.43 1635.20, 2318.34 1585.98, 2330.84 1578.95 C 2348.19 1555.46, 2310.76 1558.28, 2313.79 1536.89 C 2293.93 1550.70, 2279.59 1519.57, 2259.23 1519.37 Z" fill="rgb(90.56258890469417,103.33854907539119,63.16998577524893)" stroke="rgb(90.56258890469417,103.33854907539119,63.16998577524893)" stroke-width="1" />
<path d="M 622.35 2609.39 C 608.59 2616.10, 596.19 2639.38, 581.43 2623.40 C 554.98 2628.76, 535.80 2606.93, 516.64 2623.40 C 491.19 2625.99, 459.48 2630.89, 448.44 2644.43 C 469.24 2667.79, 456.44 2695.09, 492.77 2686.49 C 513.27 2684.66, 512.02 2705.91, 520.05 2714.53 C 539.16 2720.58, 547.91 2686.05, 560.97 2707.52 C 581.18 2718.34, 568.12 2738.18, 581.43 2746.08 C 600.19 2746.97, 619.97 2746.59, 625.76 2732.06 C 630.53 2708.13, 664.76 2709.80, 653.04 2686.49 C 608.89 2670.96, 610.44 2624.23, 625.76 2612.89 Z" fill="rgb(204.67898550724638,209.20942028985507,127.31811594202898)" stroke="rgb(204.67898550724638,209.20942028985507,127.31811594202898)" stroke-width="1" />
<path d="M 2501.35 730.77 C 2484.26 742.02, 2447.83 735.55, 2457.02 769.32 C 2449.86 787.54, 2422.24 771.09, 2426.33 797.36 C 2444.75 819.57, 2417.15 859.34, 2426.33 867.46 C 2439.61 901.74, 2475.42 860.16, 2494.53 877.97 C 2522.90 862.54, 2545.11 852.09, 2545.68 818.39 C 2559.97 807.16, 2572.85 803.81, 2569.55 786.85 C 2573.03 747.29, 2529.33 741.69, 2504.76 730.77 Z" fill="rgb(147.9963556851312,157.28935860058309,66.11297376093295)" stroke="rgb(147.9963556851312,157.28935860058309,66.11297376093295)" stroke-width="1" />
<path d="M 2665.04 720.25 C 2638.12 730.84, 2623.34 756.51, 2624.12 783.34 C 2635.53 804.57, 2604.61 809.04, 2620.71 821.90 C 2656.72 829.26, 2647.43 871.43, 2665.04 891.99 C 2692.76 900.67, 2706.26 884.50, 2719.60 870.96 C 2751.10 881.83, 2733.87 834.13, 2746.88 821.90 C 2753.44 801.29, 2728.96 795.96, 2729.83 779.84 C 2724.40 741.91, 2704.62 722.16, 2668.45 720.25 Z" fill="rgb(171.61499272197963,181.3740902474527,120.11208151382824)" stroke="rgb(171.61499272197963,181.3740902474527,120.11208151382824)" stroke-width="1" />
<path d="M 499.59 1989.02 C 466.03 1985.93, 475.29 2025.97, 451.85 2038.09 C 441.16 2054.92, 444.23 2070.44, 458.67 2076.64 C 448.75 2085.70, 438.05 2078.69, 441.62 2101.18 C 458.09 2118.29, 424.67 2112.65, 431.38 2129.22 C 445.51 2147.06, 440.50 2188.05, 455.26 2181.79 C 483.71 2166.26, 501.34 2150.50, 523.46 2132.72 C 541.91 2108.58, 554.57 2083.43, 560.97 2055.61 C 541.10 2032.74, 537.66 1988.79, 503.00 1989.02 Z" fill="rgb(132.3009495982469,146.81519357195032,75.53104455807159)" stroke="rgb(132.3009495982469,146.81519357195032,75.53104455807159)" stroke-width="1" />
<path d="M 312.03 2560.32 C 298.09 2584.12, 264.68 2622.85, 308.62 2633.92 C 302.55 2676.88, 340.92 2672.92, 363.18 2686.49 C 364.55 2707.34, 377.05 2725.79, 397.28 2721.54 C 418.13 2695.98, 419.29 2664.59, 424.56 2637.42 C 451.48 2543.25, 358.03 2584.73, 315.44 2560.32 Z" fill="rgb(229.6152073732719,229.1036866359447,171.73041474654377)" stroke="rgb(229.6152073732719,229.1036866359447,171.73041474654377)" stroke-width="1" />
<path d="M 407.51 2237.87 C 373.46 2244.01, 350.06 2314.22, 305.21 2283.43 C 257.64 2246.41, 266.86 2331.87, 250.65 2353.53 C 248.74 2379.89, 282.10 2374.11, 298.39 2374.56 C 326.76 2454.90, 404.95 2348.25, 393.87 2286.94 C 394.24 2257.15, 466.30 2243.31, 410.92 2237.87 Z" fill="rgb(198.15591397849462,204.33333333333334,123.65591397849462)" stroke="rgb(198.15591397849462,204.33333333333334,123.65591397849462)" stroke-width="1" />
<path d="M 755.35 576.55 C 732.43 588.27, 700.40 577.36, 683.74 604.59 C 639.85 616.76, 631.09 665.65, 656.46 695.72 C 656.83 730.60, 650.79 769.83, 676.92 786.85 C 677.69 751.36, 677.40 718.93, 690.56 692.21 C 716.29 687.62, 766.46 688.67, 772.40 646.65 C 788.19 629.32, 808.42 611.53, 786.04 597.58 C 808.97 572.09, 775.45 576.38, 758.76 576.55 Z" fill="rgb(234.13536121673005,231.2768060836502,168.48973384030418)" stroke="rgb(234.13536121673005,231.2768060836502,168.48973384030418)" stroke-width="1" />
<path d="M 1768.17 934.05 C 1744.24 948.65, 1689.30 928.34, 1696.55 976.11 C 1697.19 1012.92, 1719.52 1034.80, 1747.71 1042.70 C 1753.24 1079.67, 1784.21 1103.16, 1802.27 1067.24 C 1807.24 1028.00, 1865.83 1050.55, 1850.01 1004.15 C 1847.88 979.09, 1849.58 924.40, 1815.91 948.07 C 1810.17 965.79, 1820.43 994.20, 1798.86 993.63 C 1788.37 968.91, 1773.11 957.44, 1771.58 934.05 Z" fill="rgb(163.46317388003038,182.19893697798025,106.94001518602886)" stroke="rgb(163.46317388003038,182.19893697798025,106.94001518602886)" stroke-width="1" />
<path d="M 1884.11 1705.13 C 1901.59 1742.14, 1845.33 1770.64, 1846.60 1810.27 C 1834.39 1846.57, 1852.19 1876.89, 1856.83 1908.41 C 1883.59 1906.74, 1879.16 1949.75, 1901.16 1929.44 C 1919.60 1898.98, 1929.61 1867.38, 1921.62 1834.81 C 1925.69 1815.81, 1971.38 1834.84, 1945.49 1803.26 C 1958.27 1758.40, 1934.09 1781.15, 1921.62 1768.21 C 1894.35 1756.10, 1925.21 1696.86, 1887.52 1705.13 Z" fill="rgb(66.70615744349182,79.65939204988308,53.839438815276694)" stroke="rgb(66.70615744349182,79.65939204988308,53.839438815276694)" stroke-width="1" />
<path d="M 2071.67 1473.80 C 2056.56 1492.81, 2043.08 1496.21, 2010.29 1494.83 C 2009.78 1518.70, 2017.88 1535.40, 2020.52 1554.42 C 2029.75 1581.03, 2015.73 1595.69, 2010.29 1614.00 C 2019.08 1660.75, 2025.51 1626.04, 2044.39 1606.99 C 2067.87 1583.03, 2112.85 1617.12, 2119.41 1571.94 C 2135.19 1555.31, 2150.17 1551.24, 2156.92 1533.39 C 2142.68 1497.22, 2111.13 1475.87, 2075.08 1473.80 Z" fill="rgb(156.42470119521911,172.09163346613545,106.63266932270916)" stroke="rgb(156.42470119521911,172.09163346613545,106.63266932270916)" stroke-width="1" />
<path d="M 356.36 1140.84 C 337.12 1166.10, 307.12 1139.68, 291.57 1168.88 C 243.83 1147.60, 235.76 1218.22, 257.47 1238.98 C 267.48 1260.42, 238.92 1290.12, 271.11 1295.05 C 292.73 1293.44, 318.22 1301.72, 325.67 1281.03 C 341.56 1252.62, 372.58 1226.60, 352.95 1196.92 C 387.43 1183.50, 392.93 1147.84, 359.77 1140.84 Z" fill="rgb(199.51813053988718,204.36019339242546,115.32876712328768)" stroke="rgb(199.51813053988718,204.36019339242546,115.32876712328768)" stroke-width="1" />
<path d="M 1304.38 460.89 C 1298.38 479.57, 1281.19 485.98, 1266.87 474.91 C 1233.09 484.07, 1205.30 447.71, 1181.62 481.92 C 1182.48 522.34, 1237.32 499.31, 1260.05 513.47 C 1299.81 513.04, 1248.75 554.28, 1280.51 569.54 C 1334.42 598.23, 1366.86 533.87, 1393.05 502.95 C 1366.80 484.76, 1347.01 454.84, 1307.79 460.89 Z" fill="rgb(164.4787234042553,175.28989361702128,110.67819148936171)" stroke="rgb(164.4787234042553,175.28989361702128,110.67819148936171)" stroke-width="1" />
<path d="M 2566.14 2206.32 C 2544.93 2218.23, 2531.27 2234.52, 2504.76 2227.35 C 2485.77 2254.96, 2522.44 2251.41, 2535.45 2258.90 C 2548.97 2296.26, 2583.47 2359.95, 2630.94 2336.00 C 2693.82 2360.66, 2679.42 2281.85, 2644.58 2265.91 C 2660.15 2242.28, 2621.21 2232.88, 2610.47 2220.34 C 2591.65 2225.15, 2575.61 2225.27, 2569.55 2206.32 Z" fill="rgb(213.6880733944954,214.67889908256882,181.31498470948011)" stroke="rgb(213.6880733944954,214.67889908256882,181.31498470948011)" stroke-width="1" />
<path d="M 2883.29 1918.92 C 2875.12 1946.94, 2844.37 1939.24, 2821.90 1939.95 C 2807.08 1961.16, 2804.06 1985.94, 2791.21 2006.55 C 2793.55 2023.70, 2823.00 2028.48, 2808.26 2048.60 C 2803.34 2081.98, 2826.84 2056.04, 2838.96 2066.13 C 2850.81 2078.47, 2830.99 2106.06, 2856.01 2101.18 C 2863.52 2072.74, 2888.52 2074.08, 2900.34 2052.11 C 2907.48 2038.23, 2912.10 2028.23, 2913.98 2017.06 C 2877.63 1990.76, 2909.79 1949.43, 2886.70 1922.43 Z" fill="rgb(235.5537542662116,235.009385665529,207.59556313993173)" stroke="rgb(235.5537542662116,235.009385665529,207.59556313993173)" stroke-width="1" />
<path d="M 1918.21 499.45 C 1906.54 522.32, 1889.92 528.58, 1870.47 541.50 C 1884.65 563.08, 1899.99 575.07, 1894.34 604.59 C 1873.67 657.02, 1942.99 673.23, 1955.72 625.62 C 2041.36 634.05, 2010.15 521.61, 1952.31 523.98 C 1907.90 540.06, 1962.72 492.24, 1921.62 499.45 Z" fill="rgb(185.88563049853371,199.42521994134898,128.12316715542522)" stroke="rgb(185.88563049853371,199.42521994134898,128.12316715542522)" stroke-width="1" />
<path d="M 380.23 2251.89 C 364.57 2278.18, 334.28 2305.41, 305.21 2283.43 C 270.34 2249.30, 264.65 2308.18, 260.88 2328.99 C 272.03 2347.09, 265.78 2380.11, 291.57 2374.56 C 310.13 2378.22, 305.71 2431.12, 325.67 2399.09 C 370.03 2403.84, 376.41 2363.20, 383.64 2332.50 C 387.25 2304.63, 412.12 2264.80, 383.64 2251.89 Z" fill="rgb(186.1630716134599,194.9430543572045,99.10785159620363)" stroke="rgb(186.1630716134599,194.9430543572045,99.10785159620363)" stroke-width="1" />
<path d="M 1522.63 422.34 C 1500.46 432.06, 1469.29 457.04, 1485.12 488.93 C 1469.32 502.52, 1462.88 519.92, 1454.43 538.00 C 1466.87 552.71, 1486.08 563.38, 1471.48 580.06 C 1451.00 578.85, 1438.83 570.41, 1423.74 580.06 C 1381.49 603.05, 1446.60 635.08, 1464.66 618.61 C 1491.49 620.48, 1508.28 600.03, 1502.17 576.55 C 1516.22 565.39, 1530.22 566.09, 1539.69 555.52 C 1562.40 552.82, 1533.96 512.88, 1556.74 523.98 C 1588.08 531.06, 1558.01 496.32, 1577.20 485.43 C 1574.38 455.41, 1539.40 471.71, 1529.46 485.43 C 1547.94 515.83, 1523.78 527.28, 1498.76 513.47 C 1514.42 492.04, 1524.34 457.47, 1526.04 425.84 Z" fill="rgb(164.3713298791019,174.89637305699483,116.06044905008636)" stroke="rgb(164.3713298791019,174.89637305699483,116.06044905008636)" stroke-width="1" />
<path d="M 3115.18 1817.28 C 3087.62 1836.84, 3113.18 1864.16, 3101.54 1887.38 C 3093.68 1932.07, 3123.33 1954.17, 3152.69 1957.48 C 3189.18 1954.95, 3203.30 1921.34, 3203.84 1890.88 C 3237.71 1865.71, 3209.12 1807.64, 3176.56 1824.29 C 3156.99 1839.01, 3135.06 1823.22, 3118.59 1817.28 Z" fill="rgb(211.18134263295553,214.44812554489974,132.14734088927636)" stroke="rgb(211.18134263295553,214.44812554489974,132.14734088927636)" stroke-width="1" />
<path d="M 2071.67 1284.54 C 2099.97 1297.91, 2069.78 1326.54, 2054.62 1295.05 C 2038.75 1278.50, 2046.63 1312.13, 2030.75 1316.08 C 1992.91 1320.47, 2009.03 1365.20, 2020.52 1382.68 C 2030.72 1394.82, 2050.44 1390.76, 2047.80 1407.21 C 2001.75 1406.68, 2034.04 1426.70, 2044.39 1442.26 C 2063.37 1452.22, 2091.12 1440.96, 2098.95 1424.73 C 2070.42 1386.18, 2123.93 1428.47, 2133.05 1414.22 C 2155.17 1382.02, 2116.82 1364.58, 2098.95 1347.63 C 2102.36 1313.62, 2102.24 1295.58, 2075.08 1284.54 Z" fill="rgb(74.08318584070797,87.78407079646017,57.17787610619469)" stroke="rgb(74.08318584070797,87.78407079646017,57.17787610619469)" stroke-width="1" />
<path d="M 496.18 1214.44 C 466.33 1224.82, 437.30 1237.53, 417.74 1267.02 C 383.14 1279.10, 385.88 1333.73, 417.74 1337.11 C 419.10 1295.38, 458.93 1298.49, 482.54 1288.04 C 525.23 1247.34, 494.16 1318.79, 530.28 1319.59 C 558.93 1308.26, 607.74 1311.28, 584.84 1267.02 C 542.71 1272.44, 540.53 1209.07, 499.59 1214.44 Z" fill="rgb(242.0291704649043,240.13035551504103,213.50865998176846)" stroke="rgb(242.0291704649043,240.13035551504103,213.50865998176846)" stroke-width="1" />
<path d="M 1754.53 1768.21 C 1745.53 1808.19, 1737.07 1842.58, 1727.24 1883.87 C 1738.11 1913.97, 1750.16 1892.70, 1768.17 1901.40 C 1795.91 1905.63, 1799.60 1948.65, 1826.14 1932.94 C 1861.12 1906.82, 1839.35 1869.16, 1829.55 1845.32 C 1833.08 1815.25, 1792.39 1828.83, 1802.27 1799.76 C 1791.62 1778.64, 1773.57 1772.56, 1757.94 1768.21 Z" fill="rgb(159.89181561618062,174.46754468485418,115.89463781749765)" stroke="rgb(159.89181561618062,174.46754468485418,115.89463781749765)" stroke-width="1" />
<path d="M 942.91 692.21 C 942.58 703.96, 947.15 726.02, 929.27 723.76 C 901.44 763.06, 912.51 814.11, 936.09 846.43 C 961.90 852.41, 980.67 883.20, 1004.29 870.96 C 1038.14 834.86, 924.83 818.55, 997.47 814.89 C 1038.38 810.79, 989.84 779.40, 1004.29 758.81 C 991.82 728.35, 969.58 710.45, 946.32 692.21 Z" fill="rgb(145.70346117867166,159.67165575304023,101.34518241347054)" stroke="rgb(145.70346117867166,159.67165575304023,101.34518241347054)" stroke-width="1" />
<path d="M 2545.68 604.59 C 2534.25 626.10, 2524.62 664.24, 2491.12 639.64 C 2459.13 649.65, 2431.67 625.44, 2402.46 639.64 C 2373.40 673.92, 2435.69 654.46, 2426.33 688.71 C 2443.73 723.00, 2482.88 681.09, 2504.76 713.24 C 2529.01 743.99, 2611.41 724.44, 2569.55 685.20 C 2537.90 685.36, 2539.20 640.33, 2562.73 632.63 C 2583.69 619.76, 2566.85 598.61, 2549.09 604.59 Z" fill="rgb(248.30447193149382,244.1779257849667,223.75166508087537)" stroke="rgb(248.30447193149382,244.1779257849667,223.75166508087537)" stroke-width="1" />
<path d="M 1546.51 2693.50 C 1541.45 2738.48, 1558.33 2774.12, 1560.15 2816.17 C 1566.81 2858.98, 1570.16 2899.70, 1577.20 2938.84 C 1574.55 2983.68, 1582.04 3020.70, 1580.61 3061.52 C 1577.69 3092.94, 1606.81 3169.12, 1624.94 3121.10 C 1615.40 3076.69, 1602.17 3037.36, 1604.48 2991.42 C 1598.00 2973.83, 1602.29 2955.16, 1601.07 2938.84 C 1595.28 2912.02, 1594.35 2888.08, 1590.84 2865.24 C 1585.99 2837.81, 1583.09 2813.06, 1580.61 2788.13 C 1570.80 2754.17, 1581.93 2711.35, 1549.92 2693.50 Z" fill="rgb(145.3735741444867,110.23669201520913,80.73384030418251)" stroke="rgb(145.3735741444867,110.23669201520913,80.73384030418251)" stroke-width="1" />
<path d="M 2985.59 2244.88 C 2963.99 2262.01, 2943.13 2268.91, 2931.03 2293.95 C 2921.38 2319.49, 2893.16 2296.10, 2890.11 2318.48 C 2927.01 2338.15, 2913.19 2395.35, 2954.90 2402.60 C 2969.89 2401.50, 2978.14 2385.14, 2985.59 2378.06 C 2960.61 2364.12, 2988.22 2342.32, 2995.82 2350.02 C 2993.11 2318.27, 3010.41 2299.52, 3026.51 2283.43 C 3032.75 2252.75, 3015.39 2238.32, 2989.00 2244.88 Z" fill="rgb(179.02044790652386,188.31353456669913,83.06621226874391)" stroke="rgb(179.02044790652386,188.31353456669913,83.06621226874391)" stroke-width="1" />
<path d="M 3081.08 2083.65 C 3070.91 2095.43, 3058.33 2080.72, 3046.97 2090.66 C 3016.10 2105.63, 3006.44 2135.91, 3002.64 2164.27 C 3026.91 2178.84, 3059.21 2175.17, 3074.26 2160.76 C 3097.62 2131.45, 3086.26 2197.81, 3111.77 2164.27 C 3153.99 2176.64, 3170.09 2144.82, 3156.10 2111.69 C 3159.60 2059.05, 3104.14 2101.66, 3084.49 2083.65 Z" fill="rgb(174.4257425742574,184.18613861386137,80.76336633663367)" stroke="rgb(174.4257425742574,184.18613861386137,80.76336633663367)" stroke-width="1" />
<path d="M 615.53 2076.64 C 576.22 2095.37, 588.79 2139.80, 567.79 2171.27 C 548.60 2217.54, 603.86 2228.00, 629.17 2244.88 C 631.80 2266.13, 647.70 2281.74, 659.87 2255.39 C 648.29 2234.86, 677.54 2209.54, 659.87 2181.79 C 658.66 2165.57, 679.11 2152.33, 659.87 2146.74 C 625.17 2144.49, 603.02 2110.50, 615.53 2080.15 Z" fill="rgb(90.01104417670683,110.25602409638554,54.18172690763052)" stroke="rgb(90.01104417670683,110.25602409638554,54.18172690763052)" stroke-width="1" />
<path d="M 2975.36 1831.30 C 2954.99 1845.03, 2915.76 1838.61, 2937.85 1869.85 C 2916.76 1897.46, 2955.32 1910.34, 2934.44 1936.45 C 2960.88 1952.99, 2963.49 1982.43, 2944.67 2006.55 C 2959.64 2015.19, 2958.95 2031.92, 2968.54 2038.09 C 2986.99 2001.77, 3027.59 1963.55, 3009.46 1922.43 C 2984.33 1911.85, 2995.54 1886.62, 2995.82 1869.85 C 3001.09 1850.24, 3007.91 1824.81, 2978.77 1831.30 Z" fill="rgb(178.46598984771575,186.10152284263958,96.93908629441624)" stroke="rgb(178.46598984771575,186.10152284263958,96.93908629441624)" stroke-width="1" />
<path d="M 618.94 1901.40 C 606.47 1909.76, 608.07 1929.66, 591.66 1932.94 C 559.29 1927.77, 539.30 1903.85, 506.41 1911.91 C 484.08 1914.47, 552.79 1953.27, 496.18 1950.47 C 481.63 1976.56, 446.88 1977.61, 441.62 2010.05 C 448.28 2037.40, 472.18 2022.90, 468.90 2003.04 C 479.83 1985.33, 496.99 1986.58, 513.23 1985.52 C 534.07 1998.57, 548.45 2020.25, 554.15 2041.59 C 577.29 2039.32, 562.56 2000.50, 584.84 1996.03 C 603.60 1964.89, 627.89 1933.15, 622.35 1901.40 Z" fill="rgb(242.65922920892496,240.30425963488844,216.9056795131846)" stroke="rgb(242.65922920892496,240.30425963488844,216.9056795131846)" stroke-width="1" />
<path d="M 1669.27 306.68 C 1640.51 323.21, 1599.86 346.65, 1614.71 383.78 C 1585.76 407.48, 1625.01 478.14, 1641.99 432.85 C 1669.41 445.22, 1679.41 413.31, 1693.14 397.80 C 1714.30 384.81, 1770.66 382.10, 1727.24 355.75 C 1695.77 351.77, 1691.69 319.13, 1672.68 306.68 Z" fill="rgb(216.03089598352213,217.76828012358393,142.8496395468589)" stroke="rgb(216.03089598352213,217.76828012358393,142.8496395468589)" stroke-width="1" />
<path d="M 496.18 1281.03 C 483.23 1288.59, 472.88 1302.60, 455.26 1298.56 C 428.71 1294.52, 421.96 1335.34, 445.03 1337.11 C 455.54 1368.00, 480.15 1383.87, 492.77 1407.21 C 491.72 1424.57, 467.15 1441.13, 462.08 1421.23 C 458.32 1453.51, 452.69 1440.66, 482.54 1438.75 C 500.22 1404.05, 562.91 1402.81, 554.15 1361.65 C 548.55 1340.46, 574.91 1317.93, 550.74 1309.07 C 518.07 1344.58, 508.69 1297.10, 499.59 1281.03 Z" fill="rgb(199.1789038262668,204.48397104446744,117.08273009307135)" stroke="rgb(199.1789038262668,204.48397104446744,117.08273009307135)" stroke-width="1" />
<path d="M 2944.67 1501.84 C 2923.67 1525.50, 2934.22 1561.79, 2961.72 1575.44 C 2981.31 1615.95, 2912.53 1597.55, 2924.21 1635.03 C 2939.05 1663.16, 2931.51 1689.77, 2927.62 1715.64 C 2961.39 1751.21, 2967.64 1691.57, 2978.77 1666.57 C 2992.80 1638.22, 3030.00 1622.27, 3012.87 1589.46 C 2998.79 1584.47, 2972.96 1574.80, 2978.77 1543.90 C 2980.34 1522.63, 2953.69 1518.95, 2948.08 1501.84 Z" fill="rgb(79.26187961985217,91.57127771911298,53.0623020063358)" stroke="rgb(79.26187961985217,91.57127771911298,53.0623020063358)" stroke-width="1" />
<path d="M 2160.33 741.28 C 2147.35 777.55, 2099.06 783.73, 2088.72 825.40 C 2037.79 844.31, 2059.00 910.57, 2105.77 899.00 C 2123.34 897.08, 2126.63 882.82, 2119.41 870.96 C 2141.11 841.61, 2201.07 909.59, 2180.79 842.92 C 2158.21 809.87, 2185.98 769.38, 2163.74 741.28 Z" fill="rgb(230.87513227513227,231.4126984126984,198.46243386243387)" stroke="rgb(230.87513227513227,231.4126984126984,198.46243386243387)" stroke-width="1" />
<path d="M 2470.66 467.90 C 2445.96 492.69, 2460.45 525.23, 2439.97 552.02 C 2454.73 567.56, 2435.91 578.42, 2439.97 594.08 C 2454.09 619.39, 2478.06 625.77, 2501.35 629.13 C 2500.11 603.43, 2530.57 619.33, 2532.04 604.59 C 2546.42 579.05, 2527.70 559.71, 2514.99 545.01 C 2537.25 504.06, 2498.17 494.23, 2474.07 467.90 Z" fill="rgb(212.63703703703703,215.4021164021164,132.6952380952381)" stroke="rgb(212.63703703703703,215.4021164021164,132.6952380952381)" stroke-width="1" />
<path d="M 1028.16 485.43 C 1004.62 495.75, 974.83 508.57, 970.19 538.00 C 966.76 558.98, 986.81 552.42, 994.06 559.03 C 1000.36 573.15, 1029.34 577.34, 1014.52 594.08 C 1041.05 602.65, 1063.20 587.29, 1075.90 566.04 C 1113.42 554.93, 1108.18 533.23, 1096.37 506.46 C 1095.35 472.60, 1052.57 490.07, 1031.57 485.43 Z" fill="rgb(165.4845908607864,175.27842720510097,124.14771519659936)" stroke="rgb(165.4845908607864,175.27842720510097,124.14771519659936)" stroke-width="1" />
<path d="M 2757.11 1028.68 C 2757.09 1052.56, 2744.56 1080.07, 2763.93 1102.29 C 2778.98 1102.95, 2787.40 1092.13, 2801.44 1095.28 C 2814.07 1118.22, 2781.52 1140.18, 2811.67 1133.83 C 2823.14 1153.70, 2833.06 1156.75, 2849.19 1151.35 C 2865.93 1172.04, 2878.25 1151.20, 2890.11 1144.34 C 2883.38 1107.59, 2897.46 1067.26, 2866.24 1046.21 C 2840.09 1052.33, 2847.53 1079.75, 2838.96 1095.28 C 2823.50 1081.40, 2854.10 1054.10, 2828.72 1053.22 C 2801.14 1064.92, 2769.43 1056.59, 2760.52 1028.68 Z" fill="rgb(134.51657754010697,142.95614973262033,59.80534759358289)" stroke="rgb(134.51657754010697,142.95614973262033,59.80534759358289)" stroke-width="1" />
<path d="M 318.85 2556.81 C 305.99 2572.70, 278.11 2600.74, 294.98 2623.40 C 331.15 2632.26, 346.71 2663.09, 366.59 2675.98 C 400.82 2650.44, 439.72 2626.05, 424.56 2581.35 C 408.03 2573.05, 392.54 2565.68, 373.41 2567.33 C 356.36 2596.08, 343.03 2556.66, 322.26 2560.32 Z" fill="rgb(211.43290043290042,214.60173160173161,131.0530303030303)" stroke="rgb(211.43290043290042,214.60173160173161,131.0530303030303)" stroke-width="1" />
<path d="M 1662.45 2816.17 C 1649.31 2837.74, 1612.39 2849.62, 1648.81 2872.25 C 1658.31 2882.95, 1647.29 2891.87, 1648.81 2900.29 C 1642.50 2935.94, 1643.02 2968.30, 1641.99 2994.92 C 1658.95 3016.98, 1637.91 3055.58, 1672.68 3058.01 C 1683.14 3024.76, 1690.83 2999.34, 1696.55 2966.88 C 1676.99 2931.31, 1704.09 2886.91, 1686.32 2851.22 C 1673.00 2837.68, 1689.57 2808.67, 1665.86 2816.17 Z" fill="rgb(184.48968512486428,141.4657980456026,97.28447339847992)" stroke="rgb(184.48968512486428,141.4657980456026,97.28447339847992)" stroke-width="1" />
<path d="M 2596.83 2223.85 C 2574.83 2234.65, 2552.65 2265.63, 2549.09 2293.95 C 2577.77 2313.49, 2592.43 2361.81, 2627.53 2336.00 C 2645.82 2335.79, 2681.88 2348.10, 2671.86 2321.98 C 2682.05 2296.84, 2654.62 2284.66, 2644.58 2269.41 C 2653.26 2241.18, 2617.38 2231.26, 2600.24 2223.85 Z" fill="rgb(237.4762443438914,236.15271493212668,213.92420814479638)" stroke="rgb(237.4762443438914,236.15271493212668,213.92420814479638)" stroke-width="1" />
<path d="M 915.63 1845.32 C 914.20 1888.00, 864.24 1920.44, 830.37 1887.38 C 811.68 1897.35, 796.12 1921.85, 792.86 1943.46 C 774.36 1965.53, 792.24 1989.89, 809.91 1999.54 C 823.29 1984.89, 841.87 2017.14, 844.01 1992.53 C 869.87 1971.75, 890.24 1950.10, 901.99 1922.43 C 904.05 1892.82, 933.70 1872.23, 919.04 1845.32 Z" fill="rgb(209.1527936145952,213.4230330672748,143.51425313568984)" stroke="rgb(209.1527936145952,213.4230330672748,143.51425313568984)" stroke-width="1" />
<path d="M 397.28 2041.59 C 374.83 2051.14, 353.68 2069.82, 342.72 2090.66 C 328.85 2116.75, 322.08 2140.91, 305.21 2160.76 C 288.10 2195.67, 345.62 2201.41, 363.18 2192.30 C 386.30 2202.75, 397.02 2173.51, 414.33 2167.77 C 391.10 2133.44, 379.14 2081.45, 400.69 2045.10 Z" fill="rgb(210.48224513172966,213.86139747995418,135.9495990836197)" stroke="rgb(210.48224513172966,213.86139747995418,135.9495990836197)" stroke-width="1" />
<path d="M 2402.46 1207.43 C 2373.49 1233.74, 2326.67 1259.47, 2337.66 1305.57 C 2330.37 1372.36, 2366.91 1306.84, 2402.46 1319.59 C 2415.04 1318.30, 2429.69 1346.43, 2446.79 1330.10 C 2439.49 1304.37, 2422.42 1282.51, 2419.51 1270.52 C 2457.76 1255.88, 2430.25 1212.42, 2405.87 1207.43 Z" fill="rgb(106.03985932004689,127.85345838218053,53.72567409144197)" stroke="rgb(106.03985932004689,127.85345838218053,53.72567409144197)" stroke-width="1" />
<path d="M 1969.37 527.48 C 1959.98 547.28, 1942.40 590.41, 1928.44 548.51 C 1897.14 523.65, 1896.79 573.78, 1894.34 590.57 C 1905.16 613.61, 1875.83 640.65, 1907.98 650.16 C 1941.83 663.43, 1941.56 622.41, 1965.96 622.12 C 1991.82 626.36, 2028.08 602.03, 2006.88 580.06 C 1992.03 559.36, 1988.40 536.85, 1972.78 527.48 Z" fill="rgb(151.2850356294537,172.32660332541568,99.32185273159145)" stroke="rgb(151.2850356294537,172.32660332541568,99.32185273159145)" stroke-width="1" />
<path d="M 2723.01 2122.21 C 2717.13 2139.26, 2687.18 2133.32, 2685.50 2153.75 C 2684.75 2170.68, 2673.52 2200.16, 2695.73 2195.81 C 2714.26 2200.17, 2734.66 2176.46, 2743.47 2195.81 C 2714.42 2193.94, 2714.71 2224.95, 2702.55 2237.87 C 2682.00 2236.03, 2675.36 2216.64, 2654.81 2227.35 C 2648.20 2256.37, 2675.76 2274.28, 2699.14 2276.42 C 2711.54 2307.56, 2757.67 2282.34, 2733.24 2258.90 C 2743.47 2244.48, 2748.09 2231.17, 2750.29 2216.84 C 2765.36 2179.87, 2745.96 2143.60, 2726.42 2122.21 Z" fill="rgb(110.13136094674556,122.74674556213017,62.306508875739645)" stroke="rgb(110.13136094674556,122.74674556213017,62.306508875739645)" stroke-width="1" />
<path d="M 2709.37 1904.90 C 2690.12 1916.85, 2687.63 1938.43, 2692.32 1960.98 C 2677.72 1982.44, 2665.67 2025.25, 2682.09 2055.61 C 2699.67 2049.78, 2718.52 2048.48, 2726.42 2034.58 C 2733.47 2015.92, 2751.63 2028.07, 2746.88 2041.59 C 2768.49 2051.78, 2777.06 2018.15, 2784.39 2003.04 C 2741.00 2017.33, 2754.33 1954.83, 2736.65 1939.95 C 2735.80 1920.94, 2728.47 1903.99, 2712.78 1904.90 Z" fill="rgb(109.35379061371842,125.32731648616125,65.94584837545126)" stroke="rgb(109.35379061371842,125.32731648616125,65.94584837545126)" stroke-width="1" />
<path d="M 987.24 643.15 C 969.22 661.33, 971.27 714.05, 997.47 727.26 C 1016.59 752.15, 998.80 775.26, 1017.93 790.35 C 1026.74 832.38, 1101.78 797.55, 1065.67 769.32 C 1079.95 746.29, 1074.71 721.23, 1045.21 727.26 C 1037.00 713.52, 1051.27 685.42, 1028.16 678.19 C 1023.31 654.74, 1011.82 641.56, 990.65 643.15 Z" fill="rgb(243.2491017964072,240.12095808383233,217.70299401197605)" stroke="rgb(243.2491017964072,240.12095808383233,217.70299401197605)" stroke-width="1" />
<path d="M 2105.77 271.63 C 2087.27 282.68, 2053.64 311.23, 2071.67 334.72 C 2087.59 367.80, 2055.46 381.80, 2030.75 380.28 C 2021.17 411.09, 2049.76 432.32, 2068.26 429.35 C 2086.27 430.51, 2105.94 445.53, 2109.18 422.34 C 2110.98 401.60, 2132.73 413.31, 2139.87 401.31 C 2164.09 394.09, 2140.88 376.09, 2146.69 359.25 C 2163.29 323.03, 2119.46 347.08, 2119.41 366.26 C 2086.03 377.71, 2087.16 336.43, 2098.95 320.70 C 2097.40 300.49, 2129.91 287.21, 2109.18 271.63 Z" fill="rgb(192.47342995169083,199.006038647343,152.78985507246378)" stroke="rgb(192.47342995169083,199.006038647343,152.78985507246378)" stroke-width="1" />
<path d="M 1324.85 460.89 C 1306.75 469.69, 1273.55 488.72, 1283.92 513.47 C 1252.60 541.70, 1280.11 591.14, 1318.03 580.06 C 1352.06 563.68, 1368.30 530.50, 1393.05 506.46 C 1378.97 495.65, 1355.38 466.24, 1328.26 460.89 Z" fill="rgb(134.91666666666666,147.9891304347826,81.06642512077295)" stroke="rgb(134.91666666666666,147.9891304347826,81.06642512077295)" stroke-width="1" />
<path d="M 963.37 2223.85 C 946.65 2232.94, 972.03 2260.74, 946.32 2262.40 C 925.87 2260.13, 925.85 2282.19, 908.81 2276.42 C 895.60 2275.79, 877.05 2273.70, 881.53 2290.44 C 849.44 2292.71, 877.64 2337.62, 874.71 2357.03 C 900.38 2391.16, 913.86 2342.49, 939.50 2350.02 C 964.01 2328.98, 961.63 2296.57, 983.83 2283.43 C 953.35 2257.95, 1009.81 2229.39, 966.78 2223.85 Z" fill="rgb(51.59657701711492,62.90220048899756,47.484107579462105)" stroke="rgb(51.59657701711492,62.90220048899756,47.484107579462105)" stroke-width="1" />
<path d="M 1508.99 1915.42 C 1502.12 1938.66, 1466.67 1920.53, 1461.25 1946.96 C 1445.85 1959.78, 1409.89 1988.59, 1413.51 1953.97 C 1440.84 1920.99, 1384.32 1968.71, 1365.77 1964.49 C 1343.88 1970.04, 1367.92 1988.59, 1376.00 1992.53 C 1401.36 2020.36, 1433.72 2059.55, 1451.02 2013.56 C 1468.98 1993.79, 1504.98 2001.05, 1502.17 1971.50 C 1502.51 1950.82, 1532.16 1923.29, 1512.40 1915.42 Z" fill="rgb(225.96004993757802,224.0724094881398,200.74032459425717)" stroke="rgb(225.96004993757802,224.0724094881398,200.74032459425717)" stroke-width="1" />
<path d="M 3033.33 1414.22 C 3006.22 1430.65, 3035.70 1447.06, 3029.92 1470.30 C 3025.48 1493.33, 3050.62 1471.88, 3060.62 1484.32 C 3064.80 1515.70, 3092.62 1532.06, 3098.13 1557.92 C 3121.01 1552.39, 3112.84 1522.78, 3128.82 1508.85 C 3152.72 1517.11, 3149.60 1481.94, 3145.87 1466.79 C 3102.39 1458.91, 3074.20 1425.08, 3036.74 1414.22 Z" fill="rgb(243.58961681087763,239.39431396786156,214.52286773794808)" stroke="rgb(243.58961681087763,239.39431396786156,214.52286773794808)" stroke-width="1" />
<path d="M 656.46 2346.52 C 649.38 2366.77, 642.31 2392.92, 632.58 2413.11 C 604.88 2456.15, 656.82 2476.40, 687.15 2465.69 C 717.97 2445.42, 745.02 2422.35, 741.71 2385.07 C 695.80 2399.77, 695.07 2351.16, 659.87 2346.52 Z" fill="rgb(79.43640897755611,99.07481296758105,52.890274314214466)" stroke="rgb(79.43640897755611,99.07481296758105,52.890274314214466)" stroke-width="1" />
<path d="M 1785.22 1918.92 C 1772.18 1939.50, 1797.11 1967.20, 1778.40 1985.52 C 1780.35 2016.86, 1736.16 2023.69, 1751.12 2052.11 C 1758.20 2037.84, 1771.70 2039.78, 1778.40 2052.11 C 1805.71 2054.38, 1829.08 2056.78, 1846.60 2059.12 C 1843.77 2039.14, 1851.39 2027.11, 1863.65 2017.06 C 1867.24 1998.44, 1842.21 1994.13, 1850.01 1971.50 C 1807.38 1969.54, 1821.39 1931.65, 1788.63 1918.92 Z" fill="rgb(130.05955334987593,140.1029776674938,100.11414392059554)" stroke="rgb(130.05955334987593,140.1029776674938,100.11414392059554)" stroke-width="1" />
<path d="M 2126.23 488.93 C 2108.27 502.85, 2082.77 507.90, 2071.67 530.99 C 2039.16 548.18, 2031.16 585.51, 2010.29 611.60 C 1974.72 652.37, 2059.20 631.72, 2071.67 615.11 C 2087.86 587.45, 2105.89 626.95, 2122.82 611.60 C 2165.73 588.69, 2113.41 559.68, 2092.13 587.07 C 2083.03 544.96, 2136.11 531.37, 2129.64 492.44 Z" fill="rgb(244.93632958801498,243.47440699126093,219.72534332084894)" stroke="rgb(244.93632958801498,243.47440699126093,219.72534332084894)" stroke-width="1" />
</svg>