<svg xmlns="http://www.w3.org/2000/svg" width="3492" height="3589" viewbox="0 0 3492 3589">
<path d="M 1.71 1.75 C -1133.90 8638.69, 8405.21 -1165.40, 1.71 1.75 Z" fill="rgb(nan,nan,nan)" stroke="rgb(nan,nan,nan)" stroke-width="1" />
<path d="M 1.71 1.75 C 1.71 75.35, 1.71 148.96, 1.71 222.56 C 1.71 299.67, 1.71 373.27, 1.71 446.87 C 1.71 523.98, 1.71 597.58, 1.71 671.19 C 1.71 748.29, 1.71 821.90, 1.71 895.50 C 1.71 972.60, 1.71 1046.21, 1.71 1119.81 C 1.71 1196.92, 1.71 1270.52, 1.71 1344.12 C 1.71 1421.23, 1.71 1494.83, 1.71 1568.44 C 1.71 1645.54, 1.71 1719.15, 1.71 1792.75 C 1.71 1869.85, 1.71 1943.46, 1.71 2017.06 C 1.71 2094.17, 1.71 2167.77, 1.71 2241.37 C 1.71 2318.48, 1.71 2392.08, 1.71 2465.69 C 1.71 2542.79, 1.71 2616.40, 1.71 2690.00 C 1.71 2767.10, 1.71 2840.71, 1.71 2914.31 C 1.71 2991.42, 1.71 3065.02, 1.71 3138.62 C 1.71 3215.73, 1.71 3289.33, 1.71 3362.94 C 1.71 3440.04, 1.71 3513.65, 1.71 3587.25 C 75.59 3587.25, 146.07 3587.25, 216.54 3587.25 C 290.43 3587.25, 360.91 3587.25, 431.38 3587.25 C 505.27 3587.25, 575.75 3587.25, 646.22 3587.25 C 721.25 3587.25, 792.86 3587.25, 864.47 3587.25 C 938.36 3587.25, 1008.84 3587.25, 1079.31 3587.25 C 1153.20 3587.25, 1223.68 3587.25, 1294.15 3587.25 C 1368.04 3587.25, 1438.52 3587.25, 1508.99 3587.25 C 1584.02 3587.25, 1655.63 3587.25, 1727.24 3587.25 C 1801.13 3587.25, 1871.61 3587.25, 1942.08 3587.25 C 2015.97 3587.25, 2086.45 3587.25, 2156.92 3587.25 C 2230.81 3587.25, 2301.29 3587.25, 2371.76 3587.25 C 2446.79 3587.25, 2518.40 3587.25, 2590.01 3587.25 C 2663.90 3587.25, 2734.38 3587.25, 2804.85 3587.25 C 2878.74 3587.25, 2949.22 3587.25, 3019.69 3587.25 C 3093.58 3587.25, 3164.06 3587.25, 3234.53 3587.25 C 3309.56 3587.25, 3381.17 3587.25, 3452.78 3587.25 C 3466.57 3583.89, 3490.78 3594.75, 3490.29 3580.24 C 3490.29 3504.30, 3490.29 3431.86, 3490.29 3359.43 C 3490.29 3282.32, 3490.29 3208.72, 3490.29 3135.12 C 3490.29 3058.01, 3490.29 2984.41, 3490.29 2910.81 C 3490.29 2833.70, 3490.29 2760.10, 3490.29 2686.49 C 3490.29 2610.55, 3490.29 2538.12, 3490.29 2465.69 C 3490.29 2388.58, 3490.29 2314.98, 3490.29 2241.37 C 3490.29 2164.27, 3490.29 2090.66, 3490.29 2017.06 C 3490.29 1939.95, 3490.29 1866.35, 3490.29 1792.75 C 3490.29 1716.81, 3490.29 1644.37, 3490.29 1571.94 C 3490.29 1494.83, 3490.29 1421.23, 3490.29 1347.63 C 3490.29 1270.52, 3490.29 1196.92, 3490.29 1123.31 C 3490.29 1046.21, 3490.29 972.60, 3490.29 899.00 C 3490.29 821.90, 3490.29 748.29, 3490.29 674.69 C 3490.29 597.58, 3490.29 523.98, 3490.29 450.38 C 3490.29 373.27, 3490.29 299.67, 3490.29 226.06 C 3490.29 148.96, 3490.29 75.35, 3490.29 1.75 C 3416.41 1.75, 3345.93 1.75, 3275.46 1.75 C 3200.43 1.75, 3128.82 1.75, 3057.21 1.75 C 2982.18 1.75, 2910.57 1.75, 2838.96 1.75 C 2763.93 1.75, 2692.32 1.75, 2620.71 1.75 C 2545.68 1.75, 2474.07 1.75, 2402.46 1.75 C 2327.43 1.75, 2255.82 1.75, 2184.21 1.75 C 2109.18 1.75, 2037.57 1.75, 1965.96 1.75 C 1890.93 1.75, 1819.32 1.75, 1747.71 1.75 C 1673.82 1.75, 1603.34 1.75, 1532.87 1.75 C 1457.84 1.75, 1386.23 1.75, 1314.62 1.75 C 1239.59 1.75, 1167.98 1.75, 1096.37 1.75 C 1021.34 1.75, 949.73 1.75, 878.12 1.75 C 803.09 1.75, 731.48 1.75, 659.87 1.75 C 584.84 1.75, 513.23 1.75, 441.62 1.75 C 366.59 1.75, 294.98 1.75, 223.37 1.75 C 148.34 1.75, 76.73 1.75, 5.12 1.75 Z" fill="rgb(220.86880419381924,224.34413023262442,203.42974295754993)" stroke="rgb(220.86880419381924,224.34413023262442,203.42974295754993)" stroke-width="1" />
<path d="M 1597.66 1785.74 C 1571.30 1833.30, 1562.92 1879.51, 1546.51 1932.94 C 1536.65 1981.34, 1540.47 2032.48, 1539.69 2087.16 C 1547.73 2119.55, 1547.59 2151.92, 1553.33 2181.79 C 1547.60 2218.96, 1572.15 2248.47, 1573.79 2283.43 C 1550.17 2267.95, 1539.36 2238.42, 1526.04 2213.33 C 1484.83 2183.85, 1485.82 2121.88, 1461.25 2087.16 C 1449.20 2073.85, 1430.25 2068.00, 1430.56 2052.11 C 1380.70 2001.45, 1330.44 1955.20, 1266.87 1960.98 C 1257.27 1939.19, 1225.91 1911.68, 1191.85 1918.92 C 1200.46 1969.74, 1154.65 1970.29, 1137.29 1957.48 C 1151.24 1996.82, 1167.89 2024.10, 1205.49 2017.06 C 1216.22 2046.89, 1165.91 2037.44, 1195.26 2059.12 C 1209.56 2096.96, 1241.35 2112.54, 1266.87 2136.23 C 1302.08 2169.94, 1358.66 2199.40, 1352.13 2251.89 C 1383.19 2279.71, 1391.99 2322.92, 1423.74 2346.52 C 1498.74 2350.68, 1485.49 2432.50, 1481.71 2483.21 C 1513.12 2551.95, 1532.82 2622.17, 1549.92 2693.50 C 1556.39 2812.42, 1583.16 2919.18, 1584.02 3036.98 C 1573.77 3096.14, 1614.51 3130.08, 1607.89 3184.19 C 1612.13 3235.24, 1616.63 3291.40, 1601.07 3334.90 C 1583.37 3370.55, 1560.46 3404.18, 1573.79 3443.55 C 1572.56 3483.80, 1636.88 3515.35, 1665.86 3478.60 C 1724.68 3497.47, 1799.28 3526.06, 1853.42 3485.61 C 1933.00 3472.38, 1878.55 3392.84, 1880.70 3341.91 C 1846.32 3285.71, 1852.84 3215.61, 1826.14 3159.65 C 1813.88 3131.79, 1807.36 3104.99, 1798.86 3079.04 C 1792.69 3006.55, 1792.98 2930.71, 1805.68 2865.24 C 1802.57 2809.72, 1815.00 2751.08, 1792.04 2707.52 C 1785.85 2657.99, 1776.44 2613.32, 1778.40 2563.82 C 1774.08 2517.22, 1806.75 2489.87, 1805.68 2448.16 C 1852.16 2405.32, 1896.78 2357.54, 1928.44 2304.46 C 1946.76 2279.56, 1961.00 2262.23, 1983.01 2248.38 C 2000.85 2208.91, 2040.39 2180.13, 2044.39 2136.23 C 2077.15 2087.55, 2093.70 2034.03, 2109.18 1985.52 C 2126.85 1963.18, 2095.22 1939.54, 2116.00 1922.43 C 2151.91 1896.26, 2088.51 1870.10, 2116.00 1845.32 C 2138.40 1813.55, 2093.99 1784.62, 2075.08 1810.27 C 2036.15 1844.06, 2039.99 1903.58, 2003.47 1936.45 C 2003.93 1989.00, 1970.33 2017.46, 1945.49 2059.12 C 1923.10 2086.25, 1927.55 2119.86, 1907.98 2143.24 C 1866.68 2163.69, 1819.73 2196.47, 1819.32 2251.89 C 1842.04 2258.16, 1848.31 2272.13, 1860.24 2286.94 C 1842.00 2310.93, 1797.82 2272.32, 1815.91 2318.48 C 1829.22 2342.04, 1806.77 2358.39, 1788.63 2357.03 C 1759.60 2365.31, 1727.95 2348.23, 1703.37 2353.53 C 1684.09 2339.89, 1678.76 2313.11, 1676.09 2290.44 C 1658.94 2229.81, 1662.65 2165.27, 1648.81 2108.19 C 1652.73 2072.27, 1636.24 2038.57, 1652.22 2010.05 C 1636.86 1947.98, 1670.88 1900.27, 1659.04 1845.32 C 1669.72 1780.26, 1609.08 1818.20, 1601.07 1785.74 Z" fill="rgb(154.9257620827295,120.85266824295121,83.0418478122696)" stroke="rgb(154.9257620827295,120.85266824295121,83.0418478122696)" stroke-width="1" />
<path d="M 1338.49 1550.91 C 1334.04 1573.72, 1334.95 1604.22, 1311.21 1610.49 C 1266.64 1617.75, 1235.39 1576.74, 1205.49 1561.43 C 1171.45 1550.73, 1188.41 1591.92, 1178.21 1614.00 C 1121.64 1587.93, 1114.97 1638.93, 1099.78 1694.61 C 1134.12 1729.33, 1228.59 1740.00, 1198.67 1803.26 C 1200.84 1863.79, 1255.29 1970.36, 1304.38 1897.89 C 1320.72 1853.93, 1380.70 1836.29, 1369.18 1869.85 C 1392.28 1866.31, 1390.75 1892.64, 1386.23 1904.90 C 1428.72 1919.57, 1453.26 1908.27, 1488.53 1883.87 C 1502.23 1859.53, 1493.30 1839.05, 1502.17 1817.28 C 1534.21 1778.00, 1471.52 1752.48, 1447.61 1757.70 C 1436.47 1701.74, 1393.14 1657.16, 1393.05 1603.48 C 1324.11 1622.74, 1389.63 1546.51, 1341.90 1550.91 Z" fill="rgb(90.95297029702971,103.60643564356435,64.75092821782178)" stroke="rgb(90.95297029702971,103.60643564356435,64.75092821782178)" stroke-width="1" />
<path d="M 1287.33 2164.27 C 1264.75 2177.30, 1275.58 2241.75, 1232.77 2220.34 C 1207.12 2208.61, 1215.58 2245.67, 1202.08 2255.39 C 1155.86 2245.02, 1144.46 2295.35, 1137.29 2328.99 C 1113.47 2362.74, 1113.46 2405.78, 1137.29 2434.14 C 1145.73 2455.06, 1179.80 2452.33, 1181.62 2476.20 C 1207.01 2507.46, 1248.44 2483.48, 1256.64 2483.21 C 1258.15 2532.92, 1305.33 2584.51, 1341.90 2542.79 C 1392.73 2570.02, 1428.82 2534.38, 1471.48 2514.75 C 1487.37 2481.89, 1461.33 2449.60, 1474.89 2420.12 C 1485.62 2375.30, 1448.11 2355.86, 1416.92 2350.02 C 1347.26 2372.47, 1326.18 2299.07, 1341.90 2251.89 C 1359.74 2210.21, 1308.70 2187.11, 1290.74 2164.27 Z" fill="rgb(86.5208585247884,96.8740931076179,69.53476420798066)" stroke="rgb(86.5208585247884,96.8740931076179,69.53476420798066)" stroke-width="1" />
<path d="M 523.46 881.48 C 497.51 903.97, 470.83 924.63, 438.21 930.55 C 380.75 977.86, 346.85 1034.49, 308.62 1091.77 C 291.12 1101.04, 300.89 1120.47, 288.16 1130.32 C 244.73 1154.74, 184.19 1088.32, 168.80 1151.35 C 142.07 1165.07, 158.05 1270.09, 161.98 1242.48 C 190.01 1177.64, 224.24 1260.86, 243.83 1270.52 C 315.01 1369.19, 341.05 1186.45, 404.10 1217.95 C 404.22 1169.81, 413.86 1119.08, 445.03 1081.26 C 462.11 1066.22, 487.92 1042.32, 499.59 1070.74 C 524.54 1058.86, 519.40 1017.13, 554.15 1011.16 C 585.27 987.48, 603.12 1021.72, 629.17 1025.18 C 659.89 990.55, 643.73 965.93, 646.22 923.54 C 642.18 890.34, 616.05 912.62, 598.48 913.02 C 579.40 892.08, 556.11 876.23, 526.87 881.48 Z" fill="rgb(218.03000379794912,219.72635776680593,143.63539688568173)" stroke="rgb(218.03000379794912,219.72635776680593,143.63539688568173)" stroke-width="1" />
<path d="M 2177.38 906.01 C 2154.60 923.89, 2159.73 954.87, 2133.05 965.60 C 2146.64 1007.65, 2116.44 1041.49, 2092.13 1070.74 C 2122.78 1103.20, 2103.23 1167.94, 2081.90 1207.43 C 2111.64 1222.28, 2091.78 1269.82, 2122.82 1263.51 C 2150.94 1260.99, 2171.61 1283.14, 2194.44 1274.02 C 2243.38 1278.32, 2264.67 1231.75, 2276.28 1196.92 C 2312.79 1178.67, 2265.46 1145.94, 2289.92 1123.31 C 2327.70 1107.28, 2297.12 1075.28, 2313.79 1053.22 C 2327.78 1013.60, 2320.09 972.52, 2303.56 944.57 C 2284.72 960.92, 2271.18 928.84, 2255.82 941.06 C 2220.34 945.04, 2210.15 904.73, 2180.79 906.01 Z" fill="rgb(95.47479674796747,112.28260162601626,64.53040650406504)" stroke="rgb(95.47479674796747,112.28260162601626,64.53040650406504)" stroke-width="1" />
<path d="M 2385.40 671.19 C 2342.69 681.26, 2306.66 674.10, 2306.97 744.79 C 2148.94 781.35, 2315.03 891.22, 2388.81 891.99 C 2413.99 902.96, 2437.96 910.14, 2450.20 934.05 C 2486.77 939.57, 2521.08 922.89, 2549.09 937.56 C 2572.55 909.06, 2550.82 899.06, 2532.04 884.98 C 2554.14 864.80, 2586.42 847.08, 2572.96 814.89 C 2586.35 742.22, 2512.08 722.00, 2460.43 720.25 C 2418.84 722.30, 2428.42 659.51, 2388.81 671.19 Z" fill="rgb(178.14787581699346,182.18709150326796,76.08251633986929)" stroke="rgb(178.14787581699346,182.18709150326796,76.08251633986929)" stroke-width="1" />
<path d="M 1577.20 755.30 C 1558.25 790.97, 1530.05 819.94, 1495.35 839.42 C 1467.00 921.40, 1382.65 887.53, 1321.44 916.53 C 1195.23 1009.10, 1389.85 1101.26, 1457.84 1102.29 C 1515.00 1084.49, 1463.31 1017.61, 1444.20 990.13 C 1449.50 961.05, 1474.16 974.41, 1481.71 965.60 C 1485.73 908.70, 1543.79 921.07, 1573.79 891.99 C 1592.68 883.27, 1613.56 893.82, 1618.12 874.47 C 1643.53 844.28, 1569.73 874.50, 1607.89 842.92 C 1635.27 831.88, 1654.79 759.11, 1611.30 776.33 C 1588.50 789.57, 1593.07 764.19, 1580.61 755.30 Z" fill="rgb(149.72938829787233,168.7307180851064,98.14627659574468)" stroke="rgb(149.72938829787233,168.7307180851064,98.14627659574468)" stroke-width="1" />
<path d="M 1543.10 247.09 C 1497.93 250.28, 1497.48 309.82, 1451.02 313.69 C 1404.94 317.69, 1446.39 355.22, 1451.02 376.77 C 1446.95 401.12, 1458.83 426.01, 1454.43 450.38 C 1497.85 447.10, 1540.01 394.11, 1536.28 460.89 C 1517.84 491.29, 1566.37 438.21, 1577.20 460.89 C 1587.92 476.79, 1590.74 493.97, 1601.07 506.46 C 1641.81 472.98, 1649.83 478.06, 1686.32 439.86 C 1652.74 382.35, 1797.33 390.41, 1717.01 348.74 C 1664.05 308.44, 1620.98 235.54, 1546.51 247.09 Z" fill="rgb(227.26508760545101,226.26054510058404,160.7118754055808)" stroke="rgb(227.26508760545101,226.26054510058404,160.7118754055808)" stroke-width="1" />
<path d="M 2388.81 394.30 C 2352.00 413.72, 2314.65 402.80, 2327.43 453.88 C 2279.42 425.90, 2249.50 516.22, 2306.97 509.96 C 2371.75 506.53, 2268.18 582.16, 2320.61 601.09 C 2350.78 609.73, 2359.66 633.79, 2361.53 660.67 C 2391.45 676.30, 2387.50 620.13, 2416.10 629.13 C 2475.27 645.25, 2581.14 613.39, 2514.99 541.50 C 2545.09 502.62, 2484.01 499.81, 2491.12 460.89 C 2459.17 433.83, 2426.31 412.54, 2392.22 394.30 Z" fill="rgb(231.45928798026083,230.58653507225944,166.68734578780402)" stroke="rgb(231.45928798026083,230.58653507225944,166.68734578780402)" stroke-width="1" />
<path d="M 1202.08 1571.94 C 1172.76 1577.90, 1193.07 1628.51, 1157.75 1624.51 C 1119.41 1577.50, 1117.79 1656.45, 1106.60 1684.10 C 1101.19 1720.10, 1157.08 1694.63, 1154.34 1729.66 C 1187.49 1746.56, 1209.72 1767.38, 1243.00 1768.21 C 1225.03 1709.70, 1281.86 1789.53, 1297.56 1729.66 C 1341.11 1723.15, 1354.13 1759.35, 1389.64 1747.18 C 1402.55 1738.70, 1439.75 1660.05, 1389.64 1663.07 C 1411.88 1599.74, 1376.07 1628.02, 1345.31 1596.47 C 1317.34 1589.37, 1329.72 1619.68, 1321.44 1631.52 C 1307.81 1592.46, 1270.46 1629.65, 1253.23 1592.97 C 1228.38 1600.50, 1217.53 1586.42, 1205.49 1571.94 Z" fill="rgb(69.55679513184585,81.56118999323867,53.14063556457066)" stroke="rgb(69.55679513184585,81.56118999323867,53.14063556457066)" stroke-width="1" />
<path d="M 2637.76 1775.22 C 2623.59 1795.17, 2605.89 1827.06, 2579.78 1841.82 C 2533.60 1858.99, 2554.46 1913.28, 2562.73 1946.96 C 2624.38 1962.51, 2557.97 2008.46, 2583.19 2045.10 C 2597.77 2059.55, 2610.39 2084.42, 2620.71 2062.62 C 2683.94 2064.42, 2734.15 2039.25, 2770.75 2034.58 C 2800.80 1994.23, 2748.41 2008.08, 2750.29 1975.00 C 2745.47 1953.61, 2739.22 1936.32, 2733.24 1918.92 C 2717.26 1895.52, 2650.68 1919.18, 2675.27 1869.85 C 2700.16 1829.93, 2681.27 1785.46, 2641.17 1775.22 Z" fill="rgb(108.15244144501787,123.42993251290194,66.74831282254863)" stroke="rgb(108.15244144501787,123.42993251290194,66.74831282254863)" stroke-width="1" />
<path d="M 1996.65 846.43 C 1971.91 859.96, 1948.04 875.62, 1921.62 884.98 C 1936.66 940.60, 1841.49 935.76, 1863.65 986.62 C 1885.89 1010.57, 1944.69 1016.55, 1921.62 1056.72 C 1910.28 1096.17, 1958.96 1088.24, 1959.13 1116.31 C 1990.02 1121.16, 2013.63 1111.79, 2013.70 1081.26 C 2038.45 1083.15, 2057.35 1080.46, 2071.67 1060.23 C 2010.07 1010.62, 2140.06 982.52, 2092.13 923.54 C 2056.88 920.35, 2017.82 888.94, 2034.16 856.94 C 2027.14 854.76, 2012.30 850.73, 2000.06 846.43 Z" fill="rgb(91.54806828391735,108.2806229410003,67.38544474393531)" stroke="rgb(91.54806828391735,108.2806229410003,67.38544474393531)" stroke-width="1" />
<path d="M 458.67 1599.98 C 443.18 1611.47, 414.82 1616.28, 414.33 1642.04 C 391.57 1691.21, 395.11 1748.08, 370.00 1792.75 C 362.17 1826.05, 376.90 1856.34, 356.36 1883.87 C 356.38 1938.99, 411.07 1912.58, 434.79 1897.89 C 503.35 1841.47, 488.96 1754.02, 533.69 1687.60 C 537.21 1642.93, 479.18 1620.13, 462.08 1599.98 Z" fill="rgb(168.69476082004556,180.20956719817767,99.76537585421413)" stroke="rgb(168.69476082004556,180.20956719817767,99.76537585421413)" stroke-width="1" />
<path d="M 980.42 2178.28 C 941.16 2212.04, 887.95 2184.65, 867.88 2244.88 C 846.80 2276.73, 834.45 2354.10, 864.47 2321.98 C 864.84 2355.28, 881.32 2384.44, 908.81 2392.08 C 933.43 2382.35, 963.39 2384.23, 970.19 2357.03 C 1004.53 2362.31, 1036.23 2349.07, 1052.03 2321.98 C 1054.56 2287.71, 1037.11 2264.00, 1041.80 2230.86 C 1032.12 2202.65, 995.10 2200.95, 983.83 2178.28 Z" fill="rgb(70.60573282855597,84.59762033531639,53.64250946457545)" stroke="rgb(70.60573282855597,84.59762033531639,53.64250946457545)" stroke-width="1" />
<path d="M 1491.94 867.46 C 1474.27 883.25, 1450.82 884.68, 1433.97 902.51 C 1391.05 894.34, 1359.34 912.05, 1321.44 916.53 C 1283.19 939.41, 1258.15 991.11, 1290.74 1025.18 C 1318.00 1037.12, 1333.05 1067.39, 1358.95 1070.74 C 1398.65 1065.56, 1423.81 1070.82, 1437.38 1102.29 C 1507.96 1107.62, 1482.89 1027.43, 1447.61 1000.64 C 1440.46 969.30, 1479.79 947.66, 1471.48 913.02 C 1487.73 902.54, 1508.94 884.43, 1495.35 867.46 Z" fill="rgb(99.95647236941711,116.95079485238456,73.70476911430734)" stroke="rgb(99.95647236941711,116.95079485238456,73.70476911430734)" stroke-width="1" />
<path d="M 2654.81 548.51 C 2641.67 589.28, 2582.50 573.36, 2583.19 618.61 C 2581.29 639.65, 2549.57 647.55, 2562.73 667.68 C 2595.50 677.14, 2641.17 653.28, 2644.58 702.73 C 2663.05 719.82, 2688.06 708.75, 2702.55 723.76 C 2731.87 718.36, 2727.09 778.67, 2753.70 751.80 C 2758.46 697.27, 2828.69 733.02, 2808.26 681.70 C 2800.84 659.27, 2788.11 642.62, 2784.39 622.12 C 2736.72 597.32, 2718.09 538.08, 2658.22 548.51 Z" fill="rgb(230.45311268715525,228.3628841607565,164.18321513002365)" stroke="rgb(230.45311268715525,228.3628841607565,164.18321513002365)" stroke-width="1" />
<path d="M 2388.81 671.19 C 2378.66 686.97, 2359.86 664.28, 2354.71 685.20 C 2309.29 650.36, 2320.23 739.30, 2293.33 755.30 C 2240.40 745.86, 2214.60 803.23, 2255.82 832.41 C 2287.96 835.84, 2290.53 874.33, 2324.02 863.95 C 2342.71 881.68, 2403.82 916.16, 2409.28 867.46 C 2429.56 838.13, 2421.05 801.59, 2409.28 776.33 C 2403.38 744.55, 2433.33 739.11, 2443.38 720.25 C 2419.10 707.84, 2421.05 667.66, 2392.22 671.19 Z" fill="rgb(206.2998366013072,203.95833333333334,95.42606209150327)" stroke="rgb(206.2998366013072,203.95833333333334,95.42606209150327)" stroke-width="1" />
<path d="M 1819.32 1677.09 C 1778.35 1676.80, 1782.67 1730.93, 1764.76 1761.20 C 1774.76 1772.28, 1787.68 1772.62, 1795.45 1785.74 C 1804.04 1795.22, 1807.62 1803.32, 1805.68 1813.78 C 1840.85 1884.30, 1917.16 2005.00, 1925.03 1841.82 C 1969.90 1831.93, 1967.39 1749.27, 1914.80 1747.18 C 1921.86 1694.90, 1856.46 1692.43, 1822.73 1677.09 Z" fill="rgb(86.0650623885918,100.72370766488413,65.35739750445633)" stroke="rgb(86.0650623885918,100.72370766488413,65.35739750445633)" stroke-width="1" />
<path d="M 1519.22 1245.99 C 1479.12 1272.62, 1436.23 1282.24, 1403.28 1316.08 C 1371.81 1272.55, 1328.47 1324.25, 1307.79 1351.13 C 1308.13 1366.12, 1310.66 1392.16, 1294.15 1382.68 C 1273.71 1369.89, 1248.46 1337.72, 1253.23 1379.17 C 1233.63 1418.20, 1288.66 1422.32, 1307.79 1407.21 C 1355.72 1396.84, 1364.94 1446.00, 1399.87 1414.22 C 1438.85 1422.47, 1423.69 1386.67, 1416.92 1368.66 C 1459.84 1392.98, 1491.97 1347.28, 1519.22 1368.66 C 1542.67 1336.88, 1613.92 1266.68, 1522.63 1245.99 Z" fill="rgb(77.89966555183946,91.6644370122631,58.342251950947606)" stroke="rgb(77.89966555183946,91.6644370122631,58.342251950947606)" stroke-width="1" />
<path d="M 2204.67 1049.71 C 2180.30 1079.61, 2139.37 1049.56, 2116.00 1070.74 C 2067.02 1069.79, 2127.38 1108.43, 2109.18 1133.83 C 2121.04 1166.40, 2059.34 1195.54, 2098.95 1221.45 C 2102.82 1235.79, 2112.08 1261.19, 2112.59 1235.47 C 2148.49 1256.09, 2176.83 1269.75, 2218.31 1267.02 C 2219.85 1240.94, 2216.48 1209.98, 2235.36 1189.91 C 2257.10 1190.45, 2294.24 1194.05, 2279.69 1179.39 C 2247.63 1198.22, 2259.87 1151.20, 2262.64 1133.83 C 2229.84 1103.19, 2238.77 1109.72, 2211.49 1091.77 C 2187.06 1078.34, 2222.28 1051.28, 2208.08 1049.71 Z" fill="rgb(61.19102112676056,77.36399647887323,51.08318661971831)" stroke="rgb(61.19102112676056,77.36399647887323,51.08318661971831)" stroke-width="1" />
<path d="M 2487.71 1386.18 C 2472.25 1425.33, 2437.07 1369.14, 2436.56 1414.22 C 2419.94 1440.63, 2375.03 1400.94, 2385.40 1449.27 C 2379.74 1473.13, 2394.14 1492.78, 2392.22 1515.86 C 2412.87 1553.57, 2469.07 1538.11, 2487.71 1494.83 C 2517.00 1516.12, 2483.78 1588.41, 2528.63 1533.39 C 2558.40 1497.17, 2579.74 1572.81, 2593.42 1536.89 C 2595.39 1515.17, 2622.09 1507.47, 2620.71 1487.82 C 2639.26 1398.71, 2520.09 1480.21, 2528.63 1407.21 C 2536.57 1376.85, 2506.99 1388.56, 2491.12 1386.18 Z" fill="rgb(168.77983407785578,177.93363114231013,128.0516911295469)" stroke="rgb(168.77983407785578,177.93363114231013,128.0516911295469)" stroke-width="1" />
<path d="M 492.77 1214.44 C 447.47 1221.92, 340.33 1317.64, 431.38 1337.11 C 478.56 1358.08, 454.49 1400.76, 451.85 1445.76 C 502.59 1424.56, 564.51 1391.97, 557.56 1330.10 C 628.14 1283.16, 543.31 1227.93, 496.18 1214.44 Z" fill="rgb(222.48245614035088,223.33333333333334,163.4561403508772)" stroke="rgb(222.48245614035088,223.33333333333334,163.4561403508772)" stroke-width="1" />
<path d="M 462.08 1621.01 C 434.91 1627.56, 420.41 1654.66, 421.15 1684.10 C 386.30 1675.95, 390.10 1791.67, 404.10 1834.81 C 410.70 1883.18, 471.67 1874.85, 482.54 1838.31 C 503.18 1797.87, 478.33 1756.60, 513.23 1733.16 C 557.98 1693.33, 515.73 1624.95, 465.49 1621.01 Z" fill="rgb(114.31058020477816,130.80546075085323,64.0960507069722)" stroke="rgb(114.31058020477816,130.80546075085323,64.0960507069722)" stroke-width="1" />
<path d="M 499.59 2178.28 C 467.50 2219.28, 429.84 2256.57, 397.28 2286.94 C 407.02 2325.39, 343.59 2387.82, 393.87 2395.59 C 430.03 2390.72, 417.49 2367.93, 424.56 2343.01 C 458.69 2337.81, 487.32 2341.27, 516.64 2343.01 C 542.56 2358.25, 524.20 2305.36, 550.74 2311.47 C 582.88 2314.43, 659.60 2295.93, 595.07 2297.45 C 588.84 2281.49, 593.54 2262.10, 584.84 2248.38 C 544.51 2227.21, 502.70 2272.41, 479.13 2241.37 C 529.83 2241.89, 553.61 2200.70, 503.00 2178.28 Z" fill="rgb(240.43924250394528,239.13677012098896,215.01209889531825)" stroke="rgb(240.43924250394528,239.13677012098896,215.01209889531825)" stroke-width="1" />
<path d="M 2457.02 1876.86 C 2410.75 1885.03, 2484.28 1932.38, 2450.20 1960.98 C 2444.23 1999.98, 2420.37 2026.41, 2419.51 2062.62 C 2412.81 2090.48, 2376.25 2099.98, 2381.99 2125.71 C 2418.81 2118.31, 2439.75 2076.16, 2474.07 2055.61 C 2486.13 2041.58, 2502.57 2053.51, 2497.94 2066.13 C 2530.28 2071.17, 2570.49 2038.05, 2569.55 1999.54 C 2541.13 1989.37, 2520.96 1963.44, 2542.27 1936.45 C 2567.42 1882.01, 2491.73 1886.20, 2460.43 1876.86 Z" fill="rgb(184.97799511002444,194.51426242868786,129.83048084759577)" stroke="rgb(184.97799511002444,194.51426242868786,129.83048084759577)" stroke-width="1" />
<path d="M 2231.95 1424.73 C 2225.40 1436.93, 2218.55 1454.13, 2204.67 1459.78 C 2191.67 1453.44, 2170.18 1463.60, 2163.74 1473.80 C 2124.85 1501.57, 2073.00 1456.71, 2034.16 1491.33 C 1979.28 1480.89, 2048.56 1582.89, 2013.70 1614.00 C 2073.18 1609.17, 2158.71 1564.10, 2211.49 1491.33 C 2253.23 1482.02, 2302.14 1430.05, 2235.36 1424.73 Z" fill="rgb(148.96363636363637,160.3939393939394,110.2969696969697)" stroke="rgb(148.96363636363637,160.3939393939394,110.2969696969697)" stroke-width="1" />
<path d="M 3084.49 2080.15 C 3024.34 2076.07, 2980.53 2147.14, 3002.64 2206.32 C 3026.19 2225.43, 3031.79 2188.63, 3043.56 2188.80 C 3046.02 2216.02, 3082.26 2200.49, 3081.08 2223.85 C 3100.00 2249.52, 3143.12 2216.17, 3173.15 2223.85 C 3127.86 2212.59, 3187.41 2192.41, 3156.10 2167.77 C 3170.15 2136.63, 3167.45 2074.95, 3125.41 2080.15 C 3109.63 2083.72, 3097.65 2092.45, 3087.90 2080.15 Z" fill="rgb(186.24843945068665,193.8302122347066,95.25468164794007)" stroke="rgb(186.24843945068665,193.8302122347066,95.25468164794007)" stroke-width="1" />
<path d="M 496.18 1866.35 C 485.50 1879.76, 522.37 1887.10, 499.59 1904.90 C 468.06 1934.32, 413.71 2063.88, 468.90 2003.04 C 518.43 1940.16, 547.16 2070.20, 574.61 2027.57 C 626.15 2060.44, 620.47 1977.69, 642.81 1964.49 C 627.00 1940.35, 676.22 1903.61, 632.58 1904.90 C 583.67 1905.12, 528.39 1907.25, 499.59 1866.35 Z" fill="rgb(222.10677083333334,223.36588541666666,164.5625)" stroke="rgb(222.10677083333334,223.36588541666666,164.5625)" stroke-width="1" />
<path d="M 3111.77 1281.03 C 3085.76 1290.79, 3050.98 1300.30, 3036.74 1323.09 C 3077.59 1334.04, 3019.51 1360.34, 3036.74 1379.17 C 3055.02 1422.43, 3095.99 1440.25, 3132.23 1456.28 C 3157.26 1472.36, 3172.81 1428.62, 3193.61 1442.26 C 3216.62 1437.96, 3214.29 1406.10, 3200.43 1393.19 C 3203.85 1348.75, 3140.86 1350.87, 3162.92 1319.59 C 3133.90 1323.73, 3126.68 1291.05, 3115.18 1281.03 Z" fill="rgb(209.22964626614262,211.82144862436834,132.3548568220101)" stroke="rgb(209.22964626614262,211.82144862436834,132.3548568220101)" stroke-width="1" />
<path d="M 3203.84 1508.85 C 3179.21 1583.30, 3179.54 1514.43, 3132.23 1526.38 C 3109.23 1572.31, 3053.23 1613.80, 3087.90 1659.56 C 3096.78 1687.36, 3067.89 1716.39, 3101.54 1729.66 C 3142.03 1706.64, 3191.15 1688.25, 3190.20 1631.52 C 3202.98 1595.76, 3268.80 1529.38, 3207.25 1508.85 Z" fill="rgb(188.08722919042188,194.9429874572406,101.4709236031927)" stroke="rgb(188.08722919042188,194.9429874572406,101.4709236031927)" stroke-width="1" />
<path d="M 2109.18 632.63 C 2104.68 685.37, 2038.86 604.98, 2047.80 692.21 C 2035.01 727.96, 1977.92 791.00, 2051.21 783.34 C 2073.65 791.43, 2073.41 841.85, 2092.13 804.37 C 2123.77 776.16, 2144.62 757.33, 2167.15 727.26 C 2287.97 701.93, 2162.86 658.80, 2112.59 632.63 Z" fill="rgb(156.72803935347858,177.89739985945187,116.24736472241743)" stroke="rgb(156.72803935347858,177.89739985945187,116.24736472241743)" stroke-width="1" />
<path d="M 2951.49 1147.85 C 2918.81 1188.17, 2911.62 1151.58, 2869.65 1175.89 C 2854.47 1195.98, 2798.58 1172.18, 2811.67 1203.93 C 2808.35 1244.13, 2857.05 1261.15, 2869.65 1288.04 C 2896.23 1283.24, 2929.82 1251.23, 2944.67 1284.54 C 2972.95 1291.37, 2966.80 1257.50, 2992.41 1260.01 C 3031.78 1230.86, 3012.99 1134.79, 2954.90 1147.85 Z" fill="rgb(183.03663423010875,181.28734974241556,56.954207212364054)" stroke="rgb(183.03663423010875,181.28734974241556,56.954207212364054)" stroke-width="1" />
<path d="M 1515.81 1729.66 C 1466.67 1755.64, 1558.35 1784.83, 1512.40 1817.28 C 1493.27 1849.31, 1535.69 1900.62, 1488.53 1904.90 C 1461.59 1969.66, 1428.92 1924.98, 1396.46 1950.47 C 1305.00 1942.88, 1420.45 2072.40, 1451.02 2017.06 C 1516.12 2006.69, 1497.10 1925.28, 1543.10 1908.41 C 1546.81 1858.52, 1564.02 1815.02, 1587.43 1778.73 C 1552.12 1777.98, 1551.75 1728.07, 1519.22 1729.66 Z" fill="rgb(197.89107883817428,203.93153526970954,164.77178423236515)" stroke="rgb(197.89107883817428,203.93153526970954,164.77178423236515)" stroke-width="1" />
<path d="M 704.20 2262.40 C 708.45 2308.45, 649.45 2309.86, 649.63 2357.03 C 645.05 2394.11, 601.46 2440.27, 642.81 2469.19 C 718.32 2471.40, 763.56 2408.69, 779.22 2346.52 C 756.96 2313.23, 752.25 2263.62, 707.61 2262.40 Z" fill="rgb(101.4041394335512,120.20588235294117,58.06318082788671)" stroke="rgb(101.4041394335512,120.20588235294117,58.06318082788671)" stroke-width="1" />
<path d="M 663.28 2013.56 C 606.04 2062.32, 509.21 2202.74, 612.12 2234.36 C 631.51 2242.24, 633.06 2254.95, 635.99 2269.41 C 701.73 2251.73, 689.87 2147.96, 659.87 2108.19 C 627.30 2067.60, 709.27 2052.56, 666.69 2013.56 Z" fill="rgb(111.2703927492447,130.12084592145015,65.14199395770393)" stroke="rgb(111.2703927492447,130.12084592145015,65.14199395770393)" stroke-width="1" />
<path d="M 3135.64 1726.15 C 3122.08 1783.99, 3040.51 1715.42, 3053.79 1778.73 C 3011.24 1773.83, 3041.62 1820.85, 3016.28 1831.30 C 2986.68 1865.80, 2996.97 1934.33, 3043.56 1887.38 C 3080.57 1929.10, 3108.92 1886.09, 3098.13 1845.32 C 3101.84 1796.32, 3131.23 1825.06, 3159.51 1824.29 C 3239.43 1822.04, 3167.21 1748.49, 3139.05 1726.15 Z" fill="rgb(252.94106583072102,252.69905956112854,248.72225705329154)" stroke="rgb(252.94106583072102,252.69905956112854,248.72225705329154)" stroke-width="1" />
<path d="M 3111.77 1817.28 C 3087.24 1846.26, 3117.65 1903.11, 3084.49 1922.43 C 3131.42 1935.56, 3116.09 2003.63, 3166.33 1999.54 C 3207.92 1982.76, 3180.30 1939.08, 3207.25 1915.42 C 3203.42 1868.79, 3238.01 1878.95, 3241.35 1908.41 C 3262.15 1883.20, 3227.37 1865.39, 3231.12 1841.82 C 3212.48 1809.09, 3152.42 1840.05, 3115.18 1817.28 Z" fill="rgb(227.07192575406032,226.76566125290023,158.65661252900233)" stroke="rgb(227.07192575406032,226.76566125290023,158.65661252900233)" stroke-width="1" />
<path d="M 2917.39 807.88 C 2899.49 819.75, 2885.93 852.88, 2859.42 835.91 C 2827.51 797.70, 2816.99 832.09, 2825.31 863.95 C 2859.32 878.86, 2820.28 888.56, 2818.49 909.52 C 2841.11 913.78, 2862.26 920.36, 2862.83 944.57 C 2902.65 921.59, 2924.74 979.79, 2954.90 948.07 C 2927.82 903.40, 3008.40 943.62, 2992.41 895.50 C 2957.03 869.53, 2971.12 806.25, 2920.80 807.88 Z" fill="rgb(208.4917273328921,211.3302448709464,129.12508272667108)" stroke="rgb(208.4917273328921,211.3302448709464,129.12508272667108)" stroke-width="1" />
<path d="M 632.58 1705.13 C 608.80 1743.01, 563.48 1743.22, 554.15 1796.25 C 518.91 1836.01, 588.31 1852.46, 612.12 1845.32 C 633.21 1879.57, 662.91 1843.61, 687.15 1841.82 C 697.32 1802.02, 730.18 1766.87, 680.33 1750.69 C 683.42 1715.44, 661.81 1702.73, 635.99 1705.13 Z" fill="rgb(104.36654804270462,125.31138790035587,58.269572953736656)" stroke="rgb(104.36654804270462,125.31138790035587,58.269572953736656)" stroke-width="1" />
<path d="M 1699.96 467.90 C 1698.60 497.30, 1651.84 557.30, 1699.96 569.54 C 1686.55 624.70, 1738.76 645.86, 1774.99 660.67 C 1828.40 652.10, 1803.70 593.28, 1809.09 555.52 C 1816.14 526.28, 1775.96 519.33, 1788.63 495.94 C 1755.22 507.79, 1716.06 510.82, 1703.37 471.41 Z" fill="rgb(187.89392378990732,195.4799176107106,104.74665293511843)" stroke="rgb(187.89392378990732,195.4799176107106,104.74665293511843)" stroke-width="1" />
<path d="M 1246.41 765.82 C 1215.13 785.28, 1261.74 845.07, 1212.31 842.92 C 1220.92 886.03, 1247.53 909.41, 1283.92 923.54 C 1335.23 909.60, 1332.71 855.17, 1365.77 828.90 C 1370.37 742.17, 1293.94 785.14, 1249.82 765.82 Z" fill="rgb(151.37300435413644,168.23512336719884,79.93178519593614)" stroke="rgb(151.37300435413644,168.23512336719884,79.93178519593614)" stroke-width="1" />
<path d="M 1914.80 2360.54 C 1893.36 2367.80, 1907.66 2412.08, 1877.29 2406.10 C 1845.68 2408.31, 1817.41 2437.90, 1812.50 2458.68 C 1828.77 2487.70, 1838.41 2514.64, 1839.78 2549.80 C 1847.15 2584.05, 1889.14 2566.92, 1894.34 2595.37 C 1924.46 2588.93, 1904.96 2536.54, 1942.08 2542.79 C 1954.96 2492.18, 1925.68 2499.23, 1904.57 2514.75 C 1915.48 2483.25, 1932.37 2444.44, 1907.98 2416.62 C 1905.57 2393.99, 1928.49 2378.15, 1918.21 2360.54 Z" fill="rgb(134.97368421052633,141.38227146814404,107.54293628808864)" stroke="rgb(134.97368421052633,141.38227146814404,107.54293628808864)" stroke-width="1" />
<path d="M 1641.99 1855.84 C 1611.51 1874.73, 1593.40 1903.30, 1577.20 1932.94 C 1544.61 1905.12, 1514.05 1991.31, 1556.74 1989.02 C 1577.33 1999.94, 1564.60 2022.55, 1584.02 1999.54 C 1598.26 2024.56, 1566.67 2068.00, 1604.48 2080.15 C 1594.34 2145.33, 1636.02 2094.97, 1635.17 2052.11 C 1667.69 2016.30, 1642.49 1966.97, 1645.40 1939.95 C 1635.59 1901.03, 1698.24 1870.74, 1645.40 1855.84 Z" fill="rgb(68.29658060013956,63.87997208653175,50.14026517794836)" stroke="rgb(68.29658060013956,63.87997208653175,50.14026517794836)" stroke-width="1" />
<path d="M 2255.82 1519.37 C 2226.06 1559.25, 2197.50 1530.30, 2160.33 1543.90 C 2153.45 1582.63, 2095.99 1606.79, 2109.18 1635.03 C 2131.69 1654.70, 2157.50 1603.88, 2170.56 1635.03 C 2229.34 1672.42, 2235.45 1595.73, 2269.46 1575.44 C 2289.97 1588.94, 2307.44 1640.48, 2330.84 1578.95 C 2331.75 1535.49, 2292.74 1538.18, 2259.23 1519.37 Z" fill="rgb(91.11055988660524,103.81927710843374,63.62154500354359)" stroke="rgb(91.11055988660524,103.81927710843374,63.62154500354359)" stroke-width="1" />
<path d="M 622.35 2609.39 C 600.93 2637.23, 573.84 2622.74, 543.92 2619.90 C 507.47 2624.14, 479.72 2632.43, 448.44 2637.42 C 454.43 2695.34, 501.95 2677.69, 526.87 2714.53 C 578.18 2669.38, 560.10 2766.49, 608.71 2746.08 C 625.66 2726.36, 663.40 2707.08, 649.63 2682.99 C 604.87 2669.49, 613.72 2622.20, 625.76 2612.89 Z" fill="rgb(204.98034934497818,209.50582241630278,128.264192139738)" stroke="rgb(204.98034934497818,209.50582241630278,128.264192139738)" stroke-width="1" />
<path d="M 2501.35 730.77 C 2484.26 742.02, 2447.83 735.55, 2457.02 769.32 C 2409.59 772.77, 2437.76 846.56, 2426.33 867.46 C 2439.61 901.74, 2475.42 860.16, 2494.53 877.97 C 2522.90 862.54, 2545.11 852.09, 2545.68 818.39 C 2601.58 787.71, 2546.54 732.05, 2504.76 730.77 Z" fill="rgb(148.22773722627738,157.4773722627737,66.26496350364964)" stroke="rgb(148.22773722627738,157.4773722627737,66.26496350364964)" stroke-width="1" />
<path d="M 2665.04 720.25 C 2498.39 939.31, 2908.18 874.98, 2665.04 720.25 Z" fill="rgb(156.32857142857142,167.4,105.42857142857143)" stroke="rgb(156.32857142857142,167.4,105.42857142857143)" stroke-width="1" />
<path d="M 499.59 1989.02 C 466.03 1985.93, 475.29 2025.97, 451.85 2038.09 C 441.16 2054.92, 444.23 2070.44, 458.67 2076.64 C 448.75 2085.70, 438.05 2078.69, 441.62 2101.18 C 423.74 2116.51, 440.64 2180.93, 455.26 2181.79 C 483.71 2166.26, 501.34 2150.50, 523.46 2132.72 C 541.91 2108.58, 554.57 2083.43, 560.97 2055.61 C 541.10 2032.74, 537.66 1988.79, 503.00 1989.02 Z" fill="rgb(132.67392883079157,147.15032679738562,75.70733478576616)" stroke="rgb(132.67392883079157,147.15032679738562,75.70733478576616)" stroke-width="1" />
<path d="M 312.03 2560.32 C 298.09 2584.12, 264.68 2622.85, 308.62 2633.92 C 302.55 2676.88, 340.92 2672.92, 363.18 2686.49 C 388.65 2767.36, 430.60 2674.69, 424.56 2637.42 C 451.48 2543.25, 358.03 2584.73, 315.44 2560.32 Z" fill="rgb(229.46318289786223,228.9643705463183,171.35154394299286)" stroke="rgb(229.46318289786223,228.9643705463183,171.35154394299286)" stroke-width="1" />
<path d="M 407.51 2237.87 C 373.46 2244.01, 350.06 2314.22, 305.21 2283.43 C 258.75 2246.01, 219.29 2408.69, 298.39 2374.56 C 326.76 2454.90, 404.95 2348.25, 393.87 2286.94 C 394.24 2257.15, 466.30 2243.31, 410.92 2237.87 Z" fill="rgb(200.78,206.55,127.955)" stroke="rgb(200.78,206.55,127.955)" stroke-width="1" />
<path d="M 755.35 576.55 C 732.43 588.27, 700.40 577.36, 683.74 604.59 C 639.85 616.76, 631.09 665.65, 656.46 695.72 C 656.83 730.60, 650.79 769.83, 676.92 786.85 C 677.69 751.36, 677.40 718.93, 690.56 692.21 C 716.29 687.62, 766.46 688.67, 772.40 646.65 C 801.32 620.86, 806.79 564.56, 758.76 576.55 Z" fill="rgb(234.25951293759513,231.40867579908675,168.92998477929984)" stroke="rgb(234.25951293759513,231.40867579908675,168.92998477929984)" stroke-width="1" />
<path d="M 1768.17 934.05 C 1744.24 948.65, 1689.30 928.34, 1696.55 976.11 C 1697.19 1012.92, 1719.52 1034.80, 1747.71 1042.70 C 1752.12 1071.29, 1781.11 1108.29, 1795.45 1070.74 C 1805.69 1033.16, 1862.61 1050.01, 1850.01 1004.15 C 1847.88 979.09, 1849.58 924.40, 1815.91 948.07 C 1821.78 1022.67, 1771.96 971.70, 1771.58 934.05 Z" fill="rgb(163.63093415007657,182.3529862174579,107.17381316998468)" stroke="rgb(163.63093415007657,182.3529862174579,107.17381316998468)" stroke-width="1" />
<path d="M 1884.11 1705.13 C 1901.59 1742.14, 1845.33 1770.64, 1846.60 1810.27 C 1834.39 1846.57, 1852.19 1876.89, 1856.83 1908.41 C 1883.59 1906.74, 1879.16 1949.75, 1901.16 1929.44 C 1919.60 1898.98, 1929.61 1867.38, 1921.62 1834.81 C 1925.69 1815.81, 1971.38 1834.84, 1945.49 1803.26 C 1958.27 1758.40, 1934.09 1781.15, 1921.62 1768.21 C 1894.35 1756.10, 1925.21 1696.86, 1887.52 1705.13 Z" fill="rgb(66.70615744349182,79.65939204988308,53.839438815276694)" stroke="rgb(66.70615744349182,79.65939204988308,53.839438815276694)" stroke-width="1" />
<path d="M 2071.67 1473.80 C 2056.56 1492.81, 2043.08 1496.21, 2010.29 1494.83 C 2009.78 1518.70, 2017.88 1535.40, 2020.52 1554.42 C 2015.64 1598.10, 2004.94 1677.44, 2044.39 1606.99 C 2067.87 1583.03, 2112.85 1617.12, 2119.41 1571.94 C 2191.74 1537.86, 2125.24 1471.23, 2075.08 1473.80 Z" fill="rgb(155.996812749004,171.64621513944223,106.38406374501992)" stroke="rgb(155.996812749004,171.64621513944223,106.38406374501992)" stroke-width="1" />
<path d="M 356.36 1140.84 C 337.12 1166.10, 307.12 1139.68, 291.57 1168.88 C 243.83 1147.60, 235.76 1218.22, 257.47 1238.98 C 267.48 1260.42, 238.92 1290.12, 271.11 1295.05 C 326.82 1308.21, 368.90 1239.39, 352.95 1196.92 C 387.43 1183.50, 392.93 1147.84, 359.77 1140.84 Z" fill="rgb(199.63893376413571,204.4660743134087,115.63651050080776)" stroke="rgb(199.63893376413571,204.4660743134087,115.63651050080776)" stroke-width="1" />
<path d="M 1304.38 460.89 C 1277.14 508.74, 1215.68 437.98, 1181.62 481.92 C 1182.48 522.34, 1237.32 499.31, 1260.05 513.47 C 1299.81 513.04, 1248.75 554.28, 1280.51 569.54 C 1372.87 597.75, 1437.40 448.68, 1307.79 460.89 Z" fill="rgb(168.29950495049505,178.48019801980197,115.02970297029702)" stroke="rgb(168.29950495049505,178.48019801980197,115.02970297029702)" stroke-width="1" />
<path d="M 2566.14 2206.32 C 2544.89 2226.64, 2458.86 2235.78, 2525.22 2255.39 C 2554.69 2278.81, 2572.90 2362.92, 2627.53 2336.00 C 2691.98 2361.49, 2681.86 2284.16, 2644.58 2265.91 C 2658.20 2217.16, 2582.76 2232.79, 2569.55 2206.32 Z" fill="rgb(212.6103896103896,213.76298701298703,180.9935064935065)" stroke="rgb(212.6103896103896,213.76298701298703,180.9935064935065)" stroke-width="1" />
<path d="M 2883.29 1918.92 C 2875.12 1946.94, 2844.37 1939.24, 2821.90 1939.95 C 2813.54 1965.68, 2782.52 1999.11, 2798.03 2020.56 C 2826.41 2030.82, 2792.07 2065.48, 2818.49 2069.63 C 2855.82 2047.95, 2832.18 2100.76, 2852.60 2101.18 C 2868.99 2069.40, 2912.71 2058.52, 2913.98 2017.06 C 2877.63 1990.76, 2909.79 1949.43, 2886.70 1922.43 Z" fill="rgb(236.02260869565217,235.40782608695653,208.17652173913044)" stroke="rgb(236.02260869565217,235.40782608695653,208.17652173913044)" stroke-width="1" />
<path d="M 1918.21 499.45 C 1906.54 522.32, 1889.92 528.58, 1870.47 541.50 C 1904.76 574.70, 1886.05 714.66, 1955.72 625.62 C 2041.36 634.05, 2010.15 521.61, 1952.31 523.98 C 1907.90 540.06, 1962.72 492.24, 1921.62 499.45 Z" fill="rgb(186.13529411764705,199.64411764705883,128.3470588235294)" stroke="rgb(186.13529411764705,199.64411764705883,128.3470588235294)" stroke-width="1" />
<path d="M 380.23 2251.89 C 364.57 2278.18, 334.28 2305.41, 305.21 2283.43 C 270.34 2249.30, 264.65 2308.18, 260.88 2328.99 C 272.03 2347.09, 265.78 2380.11, 291.57 2374.56 C 310.13 2378.22, 305.71 2431.12, 325.67 2399.09 C 370.03 2403.84, 376.41 2363.20, 383.64 2332.50 C 387.25 2304.63, 412.12 2264.80, 383.64 2251.89 Z" fill="rgb(186.1630716134599,194.9430543572045,99.10785159620363)" stroke="rgb(186.1630716134599,194.9430543572045,99.10785159620363)" stroke-width="1" />
<path d="M 1522.63 422.34 C 1470.06 440.57, 1490.03 500.22, 1457.84 534.49 C 1510.27 591.24, 1433.40 564.06, 1410.10 594.08 C 1423.13 635.24, 1504.79 630.94, 1502.17 580.06 C 1556.49 541.09, 1566.33 535.28, 1577.20 474.91 C 1552.85 455.40, 1508.55 493.33, 1539.69 509.96 C 1463.94 537.81, 1531.61 470.13, 1526.04 425.84 Z" fill="rgb(175.12337662337663,183.504329004329,119.13636363636364)" stroke="rgb(175.12337662337663,183.504329004329,119.13636363636364)" stroke-width="1" />
<path d="M 3115.18 1817.28 C 3087.62 1836.84, 3113.18 1864.16, 3101.54 1887.38 C 3093.68 1932.07, 3123.33 1954.17, 3152.69 1957.48 C 3189.18 1954.95, 3203.30 1921.34, 3203.84 1890.88 C 3237.71 1865.71, 3209.12 1807.64, 3176.56 1824.29 C 3156.99 1839.01, 3135.06 1823.22, 3118.59 1817.28 Z" fill="rgb(211.18134263295553,214.44812554489974,132.14734088927636)" stroke="rgb(211.18134263295553,214.44812554489974,132.14734088927636)" stroke-width="1" />
<path d="M 2071.67 1284.54 C 2099.97 1297.91, 2069.78 1326.54, 2054.62 1295.05 C 2032.31 1303.58, 1982.51 1343.67, 2020.52 1382.68 C 2077.83 1409.95, 1988.18 1411.22, 2044.39 1442.26 C 2063.37 1452.22, 2091.12 1440.96, 2098.95 1424.73 C 2070.42 1386.18, 2123.93 1428.47, 2133.05 1414.22 C 2155.17 1382.02, 2116.82 1364.58, 2098.95 1347.63 C 2102.36 1313.62, 2102.24 1295.58, 2075.08 1284.54 Z" fill="rgb(74.50218340611353,88.21310043668122,57.417467248908295)" stroke="rgb(74.50218340611353,88.21310043668122,57.417467248908295)" stroke-width="1" />
<path d="M 496.18 1214.44 C 466.33 1224.82, 437.30 1237.53, 417.74 1267.02 C 383.14 1279.10, 385.88 1333.73, 417.74 1337.11 C 419.10 1295.38, 458.93 1298.49, 482.54 1288.04 C 525.23 1247.34, 494.16 1318.79, 530.28 1319.59 C 558.93 1308.26, 607.74 1311.28, 584.84 1267.02 C 542.71 1272.44, 540.53 1209.07, 499.59 1214.44 Z" fill="rgb(241.8692098092643,239.99818346957312,213.1262488646685)" stroke="rgb(241.8692098092643,239.99818346957312,213.1262488646685)" stroke-width="1" />
<path d="M 1754.53 1768.21 C 1745.53 1808.19, 1737.07 1842.58, 1727.24 1883.87 C 1738.11 1913.97, 1750.16 1892.70, 1768.17 1901.40 C 1795.91 1905.63, 1799.60 1948.65, 1826.14 1932.94 C 1861.12 1906.82, 1839.35 1869.16, 1829.55 1845.32 C 1805.35 1820.95, 1799.19 1775.97, 1757.94 1768.21 Z" fill="rgb(159.91509433962264,174.46698113207546,115.9245283018868)" stroke="rgb(159.91509433962264,174.46698113207546,115.9245283018868)" stroke-width="1" />
<path d="M 942.91 692.21 C 942.58 703.96, 947.15 726.02, 929.27 723.76 C 901.44 763.06, 912.51 814.11, 936.09 846.43 C 961.90 852.41, 980.67 883.20, 1004.29 870.96 C 1038.14 834.86, 924.83 818.55, 997.47 814.89 C 1029.60 790.31, 989.11 715.32, 946.32 692.21 Z" fill="rgb(145.69245283018867,159.65377358490565,101.30566037735849)" stroke="rgb(145.69245283018867,159.65377358490565,101.30566037735849)" stroke-width="1" />
<path d="M 2545.68 604.59 C 2534.25 626.10, 2524.62 664.24, 2491.12 639.64 C 2459.13 649.65, 2431.67 625.44, 2402.46 639.64 C 2373.40 673.92, 2435.69 654.46, 2426.33 688.71 C 2443.73 723.00, 2482.88 681.09, 2504.76 713.24 C 2529.01 743.99, 2611.41 724.44, 2569.55 685.20 C 2498.60 669.97, 2616.09 607.38, 2549.09 604.59 Z" fill="rgb(248.24357754519505,244.12274024738343,223.50142721217887)" stroke="rgb(248.24357754519505,244.12274024738343,223.50142721217887)" stroke-width="1" />
<path d="M 1546.51 2693.50 C 1541.45 2738.48, 1558.33 2774.12, 1560.15 2816.17 C 1566.81 2858.98, 1570.16 2899.70, 1577.20 2938.84 C 1574.55 2983.68, 1582.04 3020.70, 1580.61 3061.52 C 1577.69 3092.94, 1606.81 3169.12, 1624.94 3121.10 C 1608.23 3061.74, 1601.05 3001.82, 1601.07 2938.84 C 1595.16 2884.91, 1585.61 2837.49, 1580.61 2788.13 C 1570.80 2754.17, 1581.93 2711.35, 1549.92 2693.50 Z" fill="rgb(145.54380952380953,110.39904761904762,80.8647619047619)" stroke="rgb(145.54380952380953,110.39904761904762,80.8647619047619)" stroke-width="1" />
<path d="M 2985.59 2244.88 C 2946.94 2266.26, 2925.24 2307.90, 2890.11 2318.48 C 2927.01 2338.15, 2913.19 2395.35, 2954.90 2402.60 C 3002.58 2395.56, 2958.94 2343.36, 2995.82 2350.02 C 2994.13 2305.28, 3070.28 2242.30, 2989.00 2244.88 Z" fill="rgb(179.4149459193707,188.63618485742379,83.68338249754179)" stroke="rgb(179.4149459193707,188.63618485742379,83.68338249754179)" stroke-width="1" />
<path d="M 3081.08 2083.65 C 3040.64 2080.78, 3002.65 2119.14, 3002.64 2164.27 C 3026.91 2178.84, 3059.21 2175.17, 3074.26 2160.76 C 3097.62 2131.45, 3086.26 2197.81, 3111.77 2164.27 C 3153.99 2176.64, 3170.09 2144.82, 3156.10 2111.69 C 3159.60 2059.05, 3104.14 2101.66, 3084.49 2083.65 Z" fill="rgb(174.5698818897638,184.3051181102362,80.93897637795276)" stroke="rgb(174.5698818897638,184.3051181102362,80.93897637795276)" stroke-width="1" />
<path d="M 615.53 2076.64 C 576.22 2095.37, 588.79 2139.80, 567.79 2171.27 C 548.60 2217.54, 603.86 2228.00, 629.17 2244.88 C 652.65 2304.93, 675.85 2214.13, 659.87 2181.79 C 691.11 2131.37, 583.96 2141.88, 615.53 2080.15 Z" fill="rgb(90.2210953346856,110.45841784989858,54.27383367139959)" stroke="rgb(90.2210953346856,110.45841784989858,54.27383367139959)" stroke-width="1" />
<path d="M 2975.36 1831.30 C 2954.99 1845.03, 2915.76 1838.61, 2937.85 1869.85 C 2916.76 1897.46, 2955.32 1910.34, 2934.44 1936.45 C 2964.43 1954.07, 2959.53 1983.77, 2944.67 2010.05 C 2963.23 2015.39, 2957.75 2034.92, 2968.54 2038.09 C 2986.49 2004.45, 3019.74 1970.86, 3012.87 1932.94 C 2963.28 1909.03, 3028.66 1831.96, 2978.77 1831.30 Z" fill="rgb(178.6783505154639,186.29381443298968,97.24536082474226)" stroke="rgb(178.6783505154639,186.29381443298968,97.24536082474226)" stroke-width="1" />
<path d="M 618.94 1901.40 C 596.08 1962.81, 551.27 1900.86, 506.41 1911.91 C 484.08 1914.47, 552.79 1953.27, 496.18 1950.47 C 481.63 1976.56, 446.88 1977.61, 441.62 2010.05 C 468.99 2051.98, 468.54 1964.35, 513.23 1985.52 C 534.07 1998.57, 548.45 2020.25, 554.15 2041.59 C 577.29 2039.32, 562.56 2000.50, 584.84 1996.03 C 603.60 1964.89, 627.89 1933.15, 622.35 1901.40 Z" fill="rgb(242.26632653061225,239.97551020408164,216.534693877551)" stroke="rgb(242.26632653061225,239.97551020408164,216.534693877551)" stroke-width="1" />
<path d="M 1669.27 306.68 C 1640.51 323.21, 1599.86 346.65, 1614.71 383.78 C 1585.76 407.48, 1625.01 478.14, 1641.99 432.85 C 1669.41 445.22, 1679.41 413.31, 1693.14 397.80 C 1714.30 384.81, 1770.66 382.10, 1727.24 355.75 C 1695.77 351.77, 1691.69 319.13, 1672.68 306.68 Z" fill="rgb(216.03089598352213,217.76828012358393,142.8496395468589)" stroke="rgb(216.03089598352213,217.76828012358393,142.8496395468589)" stroke-width="1" />
<path d="M 496.18 1281.03 C 477.88 1300.03, 399.16 1302.31, 445.03 1337.11 C 455.54 1368.00, 480.15 1383.87, 492.77 1407.21 C 471.69 1430.20, 429.99 1441.27, 482.54 1438.75 C 500.22 1404.05, 562.91 1402.81, 554.15 1361.65 C 548.55 1340.46, 574.91 1317.93, 550.74 1309.07 C 518.07 1344.58, 508.69 1297.10, 499.59 1281.03 Z" fill="rgb(199.20459290187893,204.49582463465552,117.13361169102296)" stroke="rgb(199.20459290187893,204.49582463465552,117.13361169102296)" stroke-width="1" />
<path d="M 2944.67 1501.84 C 2923.67 1525.50, 2934.22 1561.79, 2961.72 1575.44 C 2981.31 1615.95, 2912.53 1597.55, 2924.21 1635.03 C 2939.05 1663.16, 2931.51 1689.77, 2927.62 1715.64 C 2961.39 1751.21, 2967.64 1691.57, 2978.77 1666.57 C 2992.80 1638.22, 3030.00 1622.27, 3012.87 1589.46 C 2968.52 1588.31, 2991.53 1520.91, 2948.08 1501.84 Z" fill="rgb(79.98634453781513,92.27731092436974,53.33403361344538)" stroke="rgb(79.98634453781513,92.27731092436974,53.33403361344538)" stroke-width="1" />
<path d="M 2160.33 741.28 C 2147.35 777.55, 2099.06 783.73, 2088.72 825.40 C 2037.79 844.31, 2059.00 910.57, 2105.77 899.00 C 2123.34 897.08, 2126.63 882.82, 2119.41 870.96 C 2141.11 841.61, 2201.07 909.59, 2180.79 842.92 C 2158.21 809.87, 2185.98 769.38, 2163.74 741.28 Z" fill="rgb(230.87513227513227,231.4126984126984,198.46243386243387)" stroke="rgb(230.87513227513227,231.4126984126984,198.46243386243387)" stroke-width="1" />
<path d="M 2470.66 467.90 C 2445.82 507.87, 2445.52 550.05, 2439.97 594.08 C 2454.09 619.39, 2478.06 625.77, 2501.35 629.13 C 2535.23 611.50, 2553.23 572.24, 2514.99 545.01 C 2537.25 504.06, 2498.17 494.23, 2474.07 467.90 Z" fill="rgb(213.0358271865121,215.72708113804003,133.51527924130664)" stroke="rgb(213.0358271865121,215.72708113804003,133.51527924130664)" stroke-width="1" />
<path d="M 1028.16 485.43 C 996.86 488.95, 938.97 547.53, 994.06 559.03 C 1010.13 634.72, 1105.63 567.62, 1103.19 527.48 C 1107.52 478.78, 1064.25 483.71, 1031.57 485.43 Z" fill="rgb(176.52380952380952,185.18125960061445,136.3763440860215)" stroke="rgb(176.52380952380952,185.18125960061445,136.3763440860215)" stroke-width="1" />
<path d="M 2757.11 1028.68 C 2748.53 1061.62, 2749.06 1124.79, 2801.44 1095.28 C 2790.53 1135.22, 2813.93 1151.46, 2849.19 1151.35 C 2865.93 1172.04, 2878.25 1151.20, 2890.11 1144.34 C 2883.38 1107.59, 2897.46 1067.26, 2866.24 1046.21 C 2840.09 1052.33, 2847.53 1079.75, 2838.96 1095.28 C 2859.79 1025.11, 2773.54 1084.88, 2760.52 1028.68 Z" fill="rgb(135.45899893503727,143.77529286474973,60.13844515441959)" stroke="rgb(135.45899893503727,143.77529286474973,60.13844515441959)" stroke-width="1" />
<path d="M 318.85 2556.81 C 305.99 2572.70, 278.11 2600.74, 294.98 2623.40 C 331.15 2632.26, 346.71 2663.09, 366.59 2675.98 C 400.82 2650.44, 439.72 2626.05, 424.56 2581.35 C 383.64 2555.03, 358.37 2591.07, 322.26 2560.32 Z" fill="rgb(211.59803921568627,214.74618736383442,131.50108932461873)" stroke="rgb(211.59803921568627,214.74618736383442,131.50108932461873)" stroke-width="1" />
<path d="M 1662.45 2816.17 C 1649.31 2837.74, 1612.39 2849.62, 1648.81 2872.25 C 1647.84 2911.87, 1639.60 2960.20, 1641.99 2994.92 C 1658.95 3016.98, 1637.91 3055.58, 1672.68 3058.01 C 1683.14 3024.76, 1690.83 2999.34, 1696.55 2966.88 C 1676.99 2931.31, 1704.09 2886.91, 1686.32 2851.22 C 1673.00 2837.68, 1689.57 2808.67, 1665.86 2816.17 Z" fill="rgb(184.53094462540716,141.5027144408252,97.31487513572205)" stroke="rgb(184.53094462540716,141.5027144408252,97.31487513572205)" stroke-width="1" />
<path d="M 2596.83 2223.85 C 2574.83 2234.65, 2552.65 2265.63, 2549.09 2293.95 C 2577.77 2313.49, 2592.43 2361.81, 2627.53 2336.00 C 2689.10 2358.10, 2681.20 2289.06, 2644.58 2269.41 C 2653.26 2241.18, 2617.38 2231.26, 2600.24 2223.85 Z" fill="rgb(237.58466819221968,236.24713958810068,214.20938215102976)" stroke="rgb(237.58466819221968,236.24713958810068,214.20938215102976)" stroke-width="1" />
<path d="M 915.63 1845.32 C 914.20 1888.00, 864.24 1920.44, 830.37 1887.38 C 811.68 1897.35, 796.12 1921.85, 792.86 1943.46 C 765.04 1983.23, 830.36 2020.06, 844.01 1992.53 C 889.87 1958.54, 923.41 1902.44, 919.04 1845.32 Z" fill="rgb(208.66666666666666,212.9885452462772,143.17640320733105)" stroke="rgb(208.66666666666666,212.9885452462772,143.17640320733105)" stroke-width="1" />
<path d="M 397.28 2041.59 C 343.82 2060.37, 334.73 2118.26, 305.21 2160.76 C 288.10 2195.67, 345.62 2201.41, 363.18 2192.30 C 386.30 2202.75, 397.02 2173.51, 414.33 2167.77 C 391.10 2133.44, 379.14 2081.45, 400.69 2045.10 Z" fill="rgb(210.5665529010239,213.93401592719,136.12855517633673)" stroke="rgb(210.5665529010239,213.93401592719,136.12855517633673)" stroke-width="1" />
<path d="M 2402.46 1207.43 C 2373.49 1233.74, 2326.67 1259.47, 2337.66 1305.57 C 2330.37 1372.36, 2366.91 1306.84, 2402.46 1319.59 C 2458.71 1363.77, 2437.45 1288.69, 2419.51 1270.52 C 2457.76 1255.88, 2430.25 1212.42, 2405.87 1207.43 Z" fill="rgb(106.14235294117647,127.94823529411765,53.80117647058824)" stroke="rgb(106.14235294117647,127.94823529411765,53.80117647058824)" stroke-width="1" />
<path d="M 1969.37 527.48 C 1959.98 547.28, 1942.40 590.41, 1928.44 548.51 C 1897.14 523.65, 1896.79 573.78, 1894.34 590.57 C 1905.16 613.61, 1875.83 640.65, 1907.98 650.16 C 1941.83 663.43, 1941.56 622.41, 1965.96 622.12 C 2042.86 626.27, 1995.13 546.67, 1972.78 527.48 Z" fill="rgb(151.3890214797136,172.4057279236277,99.42601431980907)" stroke="rgb(151.3890214797136,172.4057279236277,99.42601431980907)" stroke-width="1" />
<path d="M 2723.01 2122.21 C 2605.74 2183.83, 2781.76 2188.79, 2712.78 2216.84 C 2702.75 2262.89, 2672.51 2207.11, 2654.81 2230.86 C 2648.54 2270.81, 2757.24 2322.09, 2733.24 2258.90 C 2766.26 2217.39, 2762.18 2153.95, 2726.42 2122.21 Z" fill="rgb(116.94350282485875,129.08851224105462,65.60640301318267)" stroke="rgb(116.94350282485875,129.08851224105462,65.60640301318267)" stroke-width="1" />
<path d="M 2709.37 1904.90 C 2690.12 1916.85, 2687.63 1938.43, 2692.32 1960.98 C 2677.72 1982.44, 2665.67 2025.25, 2682.09 2055.61 C 2699.67 2049.78, 2718.52 2048.48, 2726.42 2034.58 C 2751.65 2035.12, 2771.90 2057.48, 2784.39 2003.04 C 2728.46 2010.57, 2756.54 1914.24, 2712.78 1904.90 Z" fill="rgb(110.20808561236623,126.16052318668252,66.50416171224732)" stroke="rgb(110.20808561236623,126.16052318668252,66.50416171224732)" stroke-width="1" />
<path d="M 987.24 643.15 C 969.22 661.33, 971.27 714.05, 997.47 727.26 C 1016.59 752.15, 998.80 775.26, 1017.93 790.35 C 1026.74 832.38, 1101.78 797.55, 1065.67 769.32 C 1079.95 746.29, 1074.71 721.23, 1045.21 727.26 C 1044.56 694.43, 1027.21 646.26, 990.65 643.15 Z" fill="rgb(243.29602888086643,240.15764139590854,217.83393501805054)" stroke="rgb(243.29602888086643,240.15764139590854,217.83393501805054)" stroke-width="1" />
<path d="M 2105.77 271.63 C 2081.62 284.51, 2049.01 320.16, 2078.49 345.23 C 1930.13 453.68, 2220.08 441.62, 2136.46 341.73 C 2114.50 396.51, 2072.70 351.34, 2098.95 317.19 C 2101.03 299.54, 2128.82 285.84, 2109.18 271.63 Z" fill="rgb(207.4923076923077,211.27692307692308,173.5730769230769)" stroke="rgb(207.4923076923077,211.27692307692308,173.5730769230769)" stroke-width="1" />
<path d="M 1324.85 460.89 C 1306.75 469.69, 1273.55 488.72, 1283.92 513.47 C 1252.60 541.70, 1280.11 591.14, 1318.03 580.06 C 1352.06 563.68, 1368.30 530.50, 1393.05 506.46 C 1378.97 495.65, 1355.38 466.24, 1328.26 460.89 Z" fill="rgb(134.91666666666666,147.9891304347826,81.06642512077295)" stroke="rgb(134.91666666666666,147.9891304347826,81.06642512077295)" stroke-width="1" />
<path d="M 963.37 2223.85 C 962.23 2254.61, 941.94 2272.16, 908.81 2276.42 C 860.47 2279.18, 863.16 2315.46, 874.71 2357.03 C 900.38 2391.16, 913.86 2342.49, 939.50 2350.02 C 964.01 2328.98, 961.63 2296.57, 983.83 2283.43 C 953.35 2257.95, 1009.81 2229.39, 966.78 2223.85 Z" fill="rgb(51.75397796817625,63.083231334149325,47.52998776009792)" stroke="rgb(51.75397796817625,63.083231334149325,47.52998776009792)" stroke-width="1" />
<path d="M 1508.99 1915.42 C 1480.50 1919.28, 1428.16 1996.87, 1413.51 1953.97 C 1440.84 1920.99, 1384.32 1968.71, 1365.77 1964.49 C 1357.02 1984.76, 1432.69 2072.84, 1451.02 2013.56 C 1497.24 2004.16, 1524.28 1946.08, 1512.40 1915.42 Z" fill="rgb(223.72749691738593,221.82120838471025,197.97040690505548)" stroke="rgb(223.72749691738593,221.82120838471025,197.97040690505548)" stroke-width="1" />
<path d="M 3033.33 1414.22 C 3016.43 1440.35, 3020.67 1493.89, 3060.62 1484.32 C 3064.80 1515.70, 3092.62 1532.06, 3098.13 1557.92 C 3112.54 1518.30, 3158.30 1513.86, 3145.87 1466.79 C 3102.39 1458.91, 3074.20 1425.08, 3036.74 1414.22 Z" fill="rgb(242.92019950124688,238.83915211970074,213.40523690773068)" stroke="rgb(242.92019950124688,238.83915211970074,213.40523690773068)" stroke-width="1" />
<path d="M 656.46 2346.52 C 649.38 2366.77, 642.31 2392.92, 632.58 2413.11 C 604.88 2456.15, 656.82 2476.40, 687.15 2465.69 C 717.97 2445.42, 745.02 2422.35, 741.71 2385.07 C 695.80 2399.77, 695.07 2351.16, 659.87 2346.52 Z" fill="rgb(79.43640897755611,99.07481296758105,52.890274314214466)" stroke="rgb(79.43640897755611,99.07481296758105,52.890274314214466)" stroke-width="1" />
<path d="M 1785.22 1918.92 C 1772.18 1939.50, 1797.11 1967.20, 1778.40 1985.52 C 1768.04 2025.41, 1722.24 2051.55, 1778.40 2052.11 C 1830.66 2059.90, 1845.36 2065.59, 1863.65 2017.06 C 1848.13 1970.41, 1818.56 1953.70, 1788.63 1918.92 Z" fill="rgb(128.36172839506173,138.34814814814814,98.79012345679013)" stroke="rgb(128.36172839506173,138.34814814814814,98.79012345679013)" stroke-width="1" />
<path d="M 2126.23 488.93 C 2063.82 518.98, 2031.39 573.89, 1996.65 632.63 C 2029.55 636.19, 2061.86 629.17, 2081.90 604.59 C 2117.73 640.18, 2169.33 573.27, 2116.00 576.55 C 2049.10 591.21, 2137.65 524.36, 2129.64 492.44 Z" fill="rgb(245.00504413619169,243.54098360655738,219.78310214375787)" stroke="rgb(245.00504413619169,243.54098360655738,219.78310214375787)" stroke-width="1" />
<path d="M 1202.08 2097.67 C 1174.61 2127.06, 1213.32 2169.34, 1178.21 2195.81 C 1167.55 2250.72, 1204.42 2256.88, 1215.72 2209.83 C 1238.16 2221.50, 1270.79 2227.66, 1266.87 2192.30 C 1292.66 2144.46, 1235.36 2115.37, 1205.49 2097.67 Z" fill="rgb(173.0511221945137,181.13216957605985,98.83167082294264)" stroke="rgb(173.0511221945137,181.13216957605985,98.83167082294264)" stroke-width="1" />
<path d="M 1249.82 765.82 C 1219.76 791.49, 1246.56 851.90, 1263.46 856.94 C 1300.19 833.63, 1333.37 855.91, 1365.77 825.40 C 1359.11 801.78, 1352.53 776.48, 1331.67 765.82 C 1306.15 778.32, 1273.12 787.10, 1253.23 765.82 Z" fill="rgb(124.0546875,143.76041666666666,64.72135416666667)" stroke="rgb(124.0546875,143.76041666666666,64.72135416666667)" stroke-width="1" />
<path d="M 2494.53 2378.06 C 2448.81 2389.56, 2420.31 2452.07, 2463.84 2483.21 C 2493.38 2531.13, 2534.06 2487.53, 2532.04 2444.66 C 2574.49 2432.63, 2504.08 2394.86, 2497.94 2378.06 Z" fill="rgb(138.08062418725618,149.59297789336802,88.72431729518856)" stroke="rgb(138.08062418725618,149.59297789336802,88.72431729518856)" stroke-width="1" />
<path d="M 1386.23 597.58 C 1350.93 599.71, 1373.66 640.38, 1345.31 643.15 C 1323.46 626.54, 1272.09 582.91, 1266.87 629.13 C 1270.38 661.37, 1312.75 632.48, 1321.44 657.17 C 1339.39 677.22, 1376.17 710.48, 1393.05 671.19 C 1464.37 672.84, 1440.99 608.32, 1389.64 597.58 Z" fill="rgb(243.32291666666666,240.85416666666666,220.10546875)" stroke="rgb(243.32291666666666,240.85416666666666,220.10546875)" stroke-width="1" />
<path d="M 942.91 1908.41 C 904.76 1937.28, 930.05 1999.70, 980.42 1996.03 C 983.17 2054.57, 1058.73 2019.43, 1024.75 1978.51 C 1038.50 1925.84, 986.80 1912.38, 946.32 1908.41 Z" fill="rgb(64.63953488372093,76.93152454780362,52.3875968992248)" stroke="rgb(64.63953488372093,76.93152454780362,52.3875968992248)" stroke-width="1" />
<path d="M 318.85 1414.22 C 297.23 1444.59, 310.62 1481.47, 342.72 1501.84 C 335.39 1558.89, 395.63 1539.50, 397.28 1501.84 C 415.84 1496.03, 429.01 1391.17, 400.69 1435.25 C 366.45 1465.42, 353.53 1409.19, 322.26 1414.22 Z" fill="rgb(178.76015727391874,186.56618610747051,97.94888597640892)" stroke="rgb(178.76015727391874,186.56618610747051,97.94888597640892)" stroke-width="1" />
<path d="M 2849.19 1571.94 C 2825.32 1598.36, 2785.13 1592.33, 2801.44 1638.53 C 2807.78 1699.90, 2900.89 1681.36, 2900.34 1624.51 C 2932.53 1581.20, 2863.08 1594.69, 2852.60 1571.94 Z" fill="rgb(143.94533333333334,161.92933333333335,75.54133333333333)" stroke="rgb(143.94533333333334,161.92933333333335,75.54133333333333)" stroke-width="1" />
<path d="M 2603.65 1677.09 C 2594.49 1700.23, 2641.28 1702.29, 2637.76 1729.66 C 2625.23 1771.80, 2680.42 1761.70, 2705.96 1768.21 C 2755.79 1774.90, 2749.47 1709.54, 2705.96 1715.64 C 2700.01 1659.68, 2644.32 1681.66, 2607.06 1677.09 Z" fill="rgb(189.18132611637347,196.5981055480379,120.24627875507443)" stroke="rgb(189.18132611637347,196.5981055480379,120.24627875507443)" stroke-width="1" />
<path d="M 1478.30 499.45 C 1460.42 513.94, 1444.29 546.73, 1474.89 559.03 C 1479.60 597.04, 1440.36 564.89, 1423.74 580.06 C 1383.49 607.32, 1453.53 637.74, 1471.48 615.11 C 1502.80 619.06, 1501.03 592.20, 1505.58 573.05 C 1535.42 568.71, 1570.75 538.90, 1532.87 520.48 C 1506.52 526.45, 1495.96 511.13, 1481.71 499.45 Z" fill="rgb(160.8431105047749,172.18826739427013,117.61255115961801)" stroke="rgb(160.8431105047749,172.18826739427013,117.61255115961801)" stroke-width="1" />
<path d="M 2716.19 758.81 C 2659.33 780.17, 2686.10 828.61, 2654.81 874.47 C 2659.87 899.16, 2694.35 902.72, 2702.55 884.98 C 2741.06 877.07, 2739.19 848.59, 2750.29 814.89 C 2730.31 798.64, 2734.81 770.26, 2719.60 758.81 Z" fill="rgb(152.43571428571428,164.40571428571428,102.83)" stroke="rgb(152.43571428571428,164.40571428571428,102.83)" stroke-width="1" />
<path d="M 2443.38 1393.19 C 2435.11 1407.78, 2435.47 1435.89, 2409.28 1428.24 C 2373.79 1409.38, 2388.68 1457.64, 2385.40 1477.31 C 2382.56 1521.07, 2407.37 1556.27, 2439.97 1522.87 C 2421.01 1480.45, 2475.19 1450.81, 2480.89 1417.73 C 2458.72 1418.80, 2461.18 1392.33, 2446.79 1393.19 Z" fill="rgb(212.57879656160458,213.88681948424068,168.91977077363896)" stroke="rgb(212.57879656160458,213.88681948424068,168.91977077363896)" stroke-width="1" />
<path d="M 2443.38 1564.93 C 2426.27 1602.97, 2338.48 1585.72, 2402.46 1635.03 C 2446.15 1624.42, 2423.78 1709.61, 2467.25 1666.57 C 2475.73 1643.62, 2505.94 1646.44, 2497.94 1617.50 C 2516.05 1570.95, 2451.31 1597.13, 2446.79 1564.93 Z" fill="rgb(94.27086383601757,107.14202049780381,64.05856515373353)" stroke="rgb(94.27086383601757,107.14202049780381,64.05856515373353)" stroke-width="1" />
<path d="M 2180.79 1414.22 C 2164.08 1431.98, 2218.59 1473.81, 2180.79 1463.29 C 2145.72 1471.20, 2151.49 1517.65, 2170.56 1533.39 C 2206.37 1513.19, 2216.49 1466.80, 2262.64 1466.79 C 2284.34 1402.81, 2215.04 1423.30, 2184.21 1414.22 Z" fill="rgb(204.63499245852188,208.41176470588235,175.38310708898945)" stroke="rgb(204.63499245852188,208.41176470588235,175.38310708898945)" stroke-width="1" />
<path d="M 745.12 800.87 C 742.75 837.30, 689.21 794.03, 693.97 835.91 C 678.93 863.78, 709.22 870.84, 724.66 877.97 C 747.73 906.06, 779.09 936.08, 775.81 884.98 C 828.87 844.73, 788.50 820.16, 748.53 804.37 Z" fill="rgb(201.7807807807808,208.41141141141142,122.32132132132132)" stroke="rgb(201.7807807807808,208.41141141141142,122.32132132132132)" stroke-width="1" />
<path d="M 2450.20 1876.86 C 2436.65 1898.00, 2465.87 1944.20, 2470.66 1978.51 C 2498.06 1969.11, 2532.98 1973.07, 2538.86 1939.95 C 2572.63 1888.07, 2485.03 1882.17, 2453.61 1876.86 Z" fill="rgb(220.86862442040186,220.86089644513137,173.13910355486863)" stroke="rgb(220.86862442040186,220.86089644513137,173.13910355486863)" stroke-width="1" />
<path d="M 441.62 2553.31 C 410.99 2603.48, 454.27 2661.99, 506.41 2616.40 C 539.50 2608.62, 593.68 2639.25, 591.66 2591.86 C 533.99 2592.85, 490.00 2571.86, 445.03 2553.31 Z" fill="rgb(246.05128205128204,243.6892911010558,218.51282051282053)" stroke="rgb(246.05128205128204,243.6892911010558,218.51282051282053)" stroke-width="1" />
<path d="M 1519.22 1245.99 C 1500.15 1263.23, 1457.27 1277.36, 1491.94 1302.06 C 1520.65 1324.73, 1491.95 1348.07, 1471.48 1354.64 C 1483.44 1405.43, 1495.25 1316.77, 1519.22 1368.66 C 1540.16 1359.99, 1510.88 1321.99, 1553.33 1340.62 C 1557.96 1317.51, 1556.00 1283.58, 1577.20 1274.02 C 1552.01 1269.87, 1543.87 1249.09, 1522.63 1245.99 Z" fill="rgb(73.98767334360555,87.95069337442219,56.29738058551618)" stroke="rgb(73.98767334360555,87.95069337442219,56.29738058551618)" stroke-width="1" />
<path d="M 2661.63 720.25 C 2617.88 735.44, 2626.12 790.08, 2617.29 818.39 C 2632.81 828.21, 2654.16 857.21, 2665.04 835.91 C 2673.95 813.54, 2656.69 768.54, 2695.73 776.33 C 2742.99 755.07, 2703.35 712.80, 2665.04 720.25 Z" fill="rgb(194.95679012345678,201.84722222222223,140.83487654320987)" stroke="rgb(194.95679012345678,201.84722222222223,140.83487654320987)" stroke-width="1" />
<path d="M 2098.95 1098.78 C 2074.08 1160.26, 1963.55 1079.56, 1955.72 1161.87 C 1994.81 1175.37, 2041.63 1175.41, 2075.08 1179.39 C 2083.80 1149.60, 2107.58 1124.86, 2102.36 1098.78 Z" fill="rgb(131.22943722943722,153.11688311688312,86.15584415584415)" stroke="rgb(131.22943722943722,153.11688311688312,86.15584415584415)" stroke-width="1" />
<path d="M 1219.13 1109.30 C 1196.76 1129.54, 1137.53 1185.51, 1181.62 1203.93 C 1203.27 1237.86, 1240.85 1282.54, 1236.18 1214.44 C 1196.07 1180.17, 1283.44 1120.01, 1222.54 1109.30 Z" fill="rgb(92.36769759450172,105.44845360824742,66.18384879725086)" stroke="rgb(92.36769759450172,105.44845360824742,66.18384879725086)" stroke-width="1" />
<path d="M 724.66 1119.81 C 685.13 1150.31, 716.62 1196.73, 717.84 1235.47 C 764.93 1293.62, 782.64 1209.90, 765.58 1172.38 C 742.75 1158.14, 749.41 1124.53, 728.07 1119.81 Z" fill="rgb(101.54406779661016,115.31694915254238,64.57796610169491)" stroke="rgb(101.54406779661016,115.31694915254238,64.57796610169491)" stroke-width="1" />
<path d="M 2139.87 341.73 C 2124.94 348.56, 2127.28 369.22, 2109.18 369.77 C 2077.26 354.26, 2051.36 381.99, 2027.34 387.29 C 2030.28 430.30, 2070.13 430.48, 2102.36 432.85 C 2107.35 397.22, 2171.28 410.48, 2146.69 369.77 C 2124.19 363.30, 2166.22 346.72, 2143.28 341.73 Z" fill="rgb(188.62648556876061,195.98471986417658,146.82003395585738)" stroke="rgb(188.62648556876061,195.98471986417658,146.82003395585738)" stroke-width="1" />
<path d="M 2913.98 1834.81 C 2905.43 1867.73, 2868.55 1900.94, 2896.93 1936.45 C 2873.41 1991.20, 2944.94 2028.65, 2954.90 1971.50 C 2921.66 1947.27, 2942.52 1923.04, 2924.21 1894.39 C 2910.06 1874.97, 2944.59 1840.56, 2917.39 1834.81 Z" fill="rgb(83.1555944055944,92.74300699300699,64.4632867132867)" stroke="rgb(83.1555944055944,92.74300699300699,64.4632867132867)" stroke-width="1" />
<path d="M 1734.06 1487.82 C 1738.11 1529.25, 1688.38 1517.14, 1672.68 1543.90 C 1679.47 1564.51, 1683.53 1597.10, 1710.19 1592.97 C 1730.74 1594.27, 1718.49 1557.85, 1740.88 1561.43 C 1806.60 1562.07, 1784.79 1491.91, 1737.47 1491.33 Z" fill="rgb(230.21052631578948,229.3684210526316,210.7982456140351)" stroke="rgb(230.21052631578948,229.3684210526316,210.7982456140351)" stroke-width="1" />
<path d="M 1812.50 765.82 C 1778.12 792.94, 1757.85 791.04, 1727.24 828.90 C 1659.77 831.32, 1704.37 877.95, 1740.88 835.91 C 1769.56 837.93, 1745.27 879.32, 1771.58 874.47 C 1772.54 834.74, 1824.17 857.41, 1812.50 811.38 C 1807.34 788.73, 1846.26 774.21, 1815.91 765.82 Z" fill="rgb(163.83509513742072,184.02536997885835,126.26004228329809)" stroke="rgb(163.83509513742072,184.02536997885835,126.26004228329809)" stroke-width="1" />
<path d="M 2300.15 1680.59 C 2261.19 1718.92, 2120.49 1741.91, 2211.49 1747.18 C 2321.97 1720.51, 2360.20 1813.91, 2303.56 1684.10 Z" fill="rgb(137.15217391304347,148.02173913043478,100.8695652173913)" stroke="rgb(137.15217391304347,148.02173913043478,100.8695652173913)" stroke-width="1" />
<path d="M 2801.44 2290.44 C 2784.27 2301.86, 2741.35 2323.24, 2753.70 2343.01 C 2735.78 2382.62, 2814.10 2410.43, 2818.49 2357.03 C 2870.04 2332.73, 2838.92 2297.69, 2804.85 2290.44 Z" fill="rgb(247.0725663716814,244.63362831858407,223.58938053097344)" stroke="rgb(247.0725663716814,244.63362831858407,223.58938053097344)" stroke-width="1" />
<path d="M 3067.44 1918.92 C 3029.07 1931.81, 3033.19 2015.85, 3081.08 2010.05 C 3172.03 2046.21, 3115.53 1935.51, 3070.85 1918.92 Z" fill="rgb(240.37960339943342,237.671388101983,197.43909348441926)" stroke="rgb(240.37960339943342,237.671388101983,197.43909348441926)" stroke-width="1" />
<path d="M 2027.34 2346.52 C 2039.99 2400.28, 1951.19 2470.30, 2040.98 2451.67 C 2074.85 2473.99, 2112.08 2436.48, 2075.08 2413.11 C 2105.63 2390.53, 2037.24 2381.13, 2030.75 2346.52 Z" fill="rgb(86.40774907749078,98.06273062730628,64.08487084870849)" stroke="rgb(86.40774907749078,98.06273062730628,64.08487084870849)" stroke-width="1" />
<path d="M 1243.00 1435.25 C 1180.60 1441.96, 1197.67 1541.77, 1239.59 1568.44 C 1260.55 1548.80, 1221.83 1541.37, 1236.18 1522.87 C 1269.58 1506.36, 1298.92 1422.20, 1246.41 1435.25 Z" fill="rgb(187.0862385321101,194.9137614678899,128.4954128440367)" stroke="rgb(187.0862385321101,194.9137614678899,128.4954128440367)" stroke-width="1" />
<path d="M 1515.81 2080.15 C 1465.23 2137.06, 1533.73 2242.17, 1566.97 2269.41 C 1535.21 2213.36, 1556.33 2116.83, 1519.22 2080.15 Z" fill="rgb(196.1602564102564,180.42307692307693,158.80769230769232)" stroke="rgb(196.1602564102564,180.42307692307693,158.80769230769232)" stroke-width="1" />
<path d="M 1335.08 2546.30 C 1303.49 2564.23, 1312.08 2586.51, 1345.31 2598.87 C 1340.31 2637.34, 1393.76 2630.89, 1410.10 2619.90 C 1397.17 2594.13, 1430.55 2535.96, 1399.87 2556.81 C 1379.70 2549.27, 1358.07 2550.32, 1338.49 2546.30 Z" fill="rgb(190.92,197.83809523809524,149.42285714285714)" stroke="rgb(190.92,197.83809523809524,149.42285714285714)" stroke-width="1" />
<path d="M 1805.68 566.04 C 1778.72 575.17, 1690.66 578.71, 1744.29 625.62 C 1752.01 640.11, 1751.65 659.37, 1768.17 660.67 C 1821.05 660.00, 1812.11 606.30, 1805.68 569.54 Z" fill="rgb(156.53529411764706,171.92156862745097,86.31372549019608)" stroke="rgb(156.53529411764706,171.92156862745097,86.31372549019608)" stroke-width="1" />
<path d="M 1355.54 1785.74 C 1335.53 1796.39, 1345.51 1870.17, 1376.00 1841.82 C 1386.20 1891.80, 1436.43 1881.43, 1430.56 1848.83 C 1442.97 1827.95, 1468.60 1838.13, 1461.25 1813.78 C 1425.13 1814.51, 1383.40 1819.03, 1358.95 1785.74 Z" fill="rgb(69.9628180039139,82.89628180039139,54.56360078277886)" stroke="rgb(69.9628180039139,82.89628180039139,54.56360078277886)" stroke-width="1" />
<path d="M 1314.62 2343.01 C 1308.79 2363.41, 1307.88 2401.48, 1277.10 2395.59 C 1275.49 2342.01, 1228.50 2390.40, 1232.77 2416.62 C 1241.80 2437.52, 1266.60 2437.93, 1287.33 2434.14 C 1311.62 2469.26, 1342.51 2418.94, 1331.67 2399.09 C 1303.37 2386.98, 1323.55 2355.62, 1318.03 2343.01 Z" fill="rgb(55.15139442231076,66.24900398406375,52.04980079681275)" stroke="rgb(55.15139442231076,66.24900398406375,52.04980079681275)" stroke-width="1" />
<path d="M 2804.85 1670.08 C 2796.44 1700.32, 2761.72 1737.93, 2808.26 1754.19 C 2849.75 1816.60, 2888.26 1738.03, 2842.37 1705.13 C 2854.86 1681.18, 2821.91 1677.44, 2808.26 1673.58 Z" fill="rgb(117.8740157480315,140.5275590551181,58.131889763779526)" stroke="rgb(117.8740157480315,140.5275590551181,58.131889763779526)" stroke-width="1" />
<path d="M 1294.15 1656.06 C 1313.79 1703.39, 1252.94 1691.05, 1232.77 1715.64 C 1249.46 1747.61, 1266.66 1700.47, 1263.46 1757.70 C 1288.44 1742.40, 1296.62 1717.14, 1324.85 1733.16 C 1318.60 1681.21, 1342.64 1733.30, 1345.31 1698.12 C 1361.81 1637.18, 1314.35 1689.87, 1297.56 1656.06 Z" fill="rgb(52.34623217922607,61.05498981670061,49.67413441955193)" stroke="rgb(52.34623217922607,61.05498981670061,49.67413441955193)" stroke-width="1" />
<path d="M 1676.09 615.11 C 1614.89 659.79, 1662.88 686.63, 1710.19 720.25 C 1738.14 727.16, 1751.37 703.74, 1747.71 681.70 C 1706.97 678.03, 1695.40 635.60, 1679.50 615.11 Z" fill="rgb(229.68664850136238,228.6485013623978,170.858310626703)" stroke="rgb(229.68664850136238,228.6485013623978,170.858310626703)" stroke-width="1" />
<path d="M 2354.71 1035.69 C 2292.67 1051.50, 2363.42 1117.34, 2354.71 1161.87 C 2360.04 1198.17, 2398.45 1180.65, 2385.40 1151.35 C 2363.13 1114.03, 2398.98 1053.24, 2358.12 1035.69 Z" fill="rgb(220.8698347107438,221.79132231404958,180.06611570247935)" stroke="rgb(220.8698347107438,221.79132231404958,180.06611570247935)" stroke-width="1" />
<path d="M 734.89 1487.82 C 720.35 1497.41, 684.52 1568.58, 731.48 1575.44 C 764.84 1609.70, 774.79 1579.62, 786.04 1550.91 C 762.95 1530.84, 773.60 1484.71, 738.30 1487.82 Z" fill="rgb(77.4610655737705,92.69672131147541,55.239754098360656)" stroke="rgb(77.4610655737705,92.69672131147541,55.239754098360656)" stroke-width="1" />
<path d="M 2381.99 909.52 C 2381.12 931.33, 2357.68 953.45, 2378.58 969.10 C 2359.79 1005.12, 2405.05 1034.21, 2426.33 1025.18 C 2440.13 993.86, 2415.35 977.02, 2419.51 948.07 C 2443.67 925.77, 2401.58 911.32, 2385.40 909.52 Z" fill="rgb(234.84742268041236,233.6061855670103,206.14639175257733)" stroke="rgb(234.84742268041236,233.6061855670103,206.14639175257733)" stroke-width="1" />
<path d="M 1894.34 3394.48 C 1899.96 3420.60, 1914.00 3469.21, 1877.29 3478.60 C 1834.87 3492.68, 1909.75 3488.75, 1928.44 3489.11 C 1994.53 3528.83, 1995.65 3430.65, 1935.26 3440.04 C 1885.67 3445.86, 1935.92 3401.03, 1897.75 3394.48 Z" fill="rgb(146.49056603773585,120.75262054507337,97.13207547169812)" stroke="rgb(146.49056603773585,120.75262054507337,97.13207547169812)" stroke-width="1" />
<path d="M 1672.68 1992.53 C 1659.25 2025.11, 1637.72 2137.33, 1693.14 2069.63 C 1767.39 2085.72, 1719.40 1992.03, 1676.09 1992.53 Z" fill="rgb(212.99780701754386,214.16228070175438,190.74780701754386)" stroke="rgb(212.99780701754386,214.16228070175438,190.74780701754386)" stroke-width="1" />
<path d="M 2873.06 1463.29 C 2834.39 1469.06, 2788.53 1505.43, 2804.85 1550.91 C 2817.07 1540.23, 2813.57 1507.74, 2835.54 1512.36 C 2852.48 1531.41, 2875.98 1525.74, 2896.93 1526.38 C 2888.33 1504.47, 2927.56 1449.66, 2876.47 1466.79 Z" fill="rgb(71.91814159292035,83.98672566371681,51.16150442477876)" stroke="rgb(71.91814159292035,83.98672566371681,51.16150442477876)" stroke-width="1" />
<path d="M 2296.74 1680.59 C 2266.48 1698.03, 2239.52 1723.63, 2204.67 1729.66 C 2182.74 1704.54, 2176.66 1733.13, 2177.38 1754.19 C 2218.56 1750.70, 2246.21 1754.90, 2276.28 1736.67 C 2305.09 1767.65, 2308.00 1698.80, 2300.15 1680.59 Z" fill="rgb(151.90702947845804,160.2562358276644,118.15192743764172)" stroke="rgb(151.90702947845804,160.2562358276644,118.15192743764172)" stroke-width="1" />
<path d="M 1270.28 1841.82 C 1274.68 1863.81, 1241.56 1871.00, 1219.13 1862.85 C 1203.25 1893.73, 1269.67 1958.74, 1273.69 1922.43 C 1318.70 1919.29, 1289.40 1853.30, 1273.69 1841.82 Z" fill="rgb(77.37028301886792,89.26179245283019,55.35141509433962)" stroke="rgb(77.37028301886792,89.26179245283019,55.35141509433962)" stroke-width="1" />
<path d="M 1768.17 2136.23 C 1736.02 2167.36, 1818.44 2223.44, 1832.96 2188.80 C 1852.03 2167.87, 1898.52 2158.94, 1863.65 2136.23 C 1817.75 2124.30, 1788.90 2189.14, 1771.58 2136.23 Z" fill="rgb(172.8653846153846,173.5408653846154,149.05769230769232)" stroke="rgb(172.8653846153846,173.5408653846154,149.05769230769232)" stroke-width="1" />
<path d="M 2538.86 2297.45 C 2501.84 2303.17, 2529.47 2379.13, 2549.09 2388.58 C 2617.21 2390.28, 2586.39 2306.33, 2542.27 2297.45 Z" fill="rgb(213.13603818615752,216.29594272076372,140.50835322195704)" stroke="rgb(213.13603818615752,216.29594272076372,140.50835322195704)" stroke-width="1" />
<path d="M 2017.11 1119.81 C 1958.53 1114.97, 1935.05 1185.32, 2010.29 1172.38 C 2064.24 1190.03, 2075.26 1109.50, 2020.52 1119.81 Z" fill="rgb(166.27654320987654,183.5135802469136,118.95308641975309)" stroke="rgb(166.27654320987654,183.5135802469136,118.95308641975309)" stroke-width="1" />
<path d="M 1457.84 1445.76 C 1429.41 1469.12, 1486.66 1532.39, 1447.61 1554.42 C 1477.61 1609.68, 1510.84 1546.89, 1481.71 1512.36 C 1503.65 1494.83, 1486.43 1443.59, 1461.25 1445.76 Z" fill="rgb(77.30325814536342,90.37593984962406,54.421052631578945)" stroke="rgb(77.30325814536342,90.37593984962406,54.421052631578945)" stroke-width="1" />
<path d="M 973.60 580.06 C 940.99 588.97, 849.57 620.10, 922.45 643.15 C 975.03 695.34, 943.85 605.26, 987.24 611.60 C 989.40 595.37, 996.89 573.64, 977.01 580.06 Z" fill="rgb(242.2091836734694,240.7423469387755,223.8826530612245)" stroke="rgb(242.2091836734694,240.7423469387755,223.8826530612245)" stroke-width="1" />
<path d="M 1519.22 2080.15 C 1492.57 2093.09, 1495.40 2157.03, 1505.58 2181.79 C 1510.59 2202.78, 1532.40 2184.13, 1539.69 2199.31 C 1542.49 2164.34, 1542.71 2101.42, 1522.63 2080.15 Z" fill="rgb(213.12271540469973,207.96083550913838,191.01827676240208)" stroke="rgb(213.12271540469973,207.96083550913838,191.01827676240208)" stroke-width="1" />
<path d="M 1447.61 457.39 C 1438.25 480.68, 1397.95 472.75, 1399.87 499.45 C 1398.64 516.04, 1381.24 522.26, 1386.23 538.00 C 1406.56 543.80, 1416.91 529.80, 1430.56 523.98 C 1466.70 528.15, 1498.36 456.74, 1451.02 457.39 Z" fill="rgb(253.10204081632654,253.19897959183675,251.49744897959184)" stroke="rgb(253.10204081632654,253.19897959183675,251.49744897959184)" stroke-width="1" />
<path d="M 1669.27 2181.79 C 1661.82 2229.47, 1674.24 2281.31, 1686.32 2325.49 C 1706.21 2404.51, 1749.96 2252.87, 1689.73 2279.93 C 1656.38 2250.51, 1721.19 2196.45, 1672.68 2181.79 Z" fill="rgb(170.27950310559007,170.22981366459626,147.583850931677)" stroke="rgb(170.27950310559007,170.22981366459626,147.583850931677)" stroke-width="1" />
<path d="M 635.99 1708.63 C 631.02 1733.64, 577.63 1727.85, 608.71 1754.19 C 608.10 1797.59, 667.82 1795.08, 659.87 1761.20 C 693.95 1742.30, 669.95 1697.57, 639.40 1708.63 Z" fill="rgb(89.24731182795699,110.83333333333333,52.24731182795699)" stroke="rgb(89.24731182795699,110.83333333333333,52.24731182795699)" stroke-width="1" />
<path d="M 1011.11 2388.58 C 1001.20 2409.61, 977.58 2414.16, 963.37 2437.65 C 907.98 2452.12, 955.07 2468.08, 983.83 2469.19 C 1015.34 2478.53, 1051.81 2397.69, 1014.52 2388.58 Z" fill="rgb(215.67810026385223,217.74934036939314,147.73087071240104)" stroke="rgb(215.67810026385223,217.74934036939314,147.73087071240104)" stroke-width="1" />
<path d="M 1362.36 1119.81 C 1292.41 1253.65, 1469.29 1169.01, 1362.36 1119.81 Z" fill="rgb(200.90625,211.21875,156.59375)" stroke="rgb(200.90625,211.21875,156.59375)" stroke-width="1" />
<path d="M 2924.21 997.14 C 2925.43 1028.04, 2953.51 1063.13, 2971.95 1088.27 C 3094.23 1054.61, 2962.73 1045.75, 2927.62 1000.64 Z" fill="rgb(228.83516483516485,227.82417582417582,172.42857142857142)" stroke="rgb(228.83516483516485,227.82417582417582,172.42857142857142)" stroke-width="1" />
<path d="M 2156.92 660.67 C 2150.52 674.38, 2150.08 690.63, 2139.87 702.73 C 2107.49 764.75, 2203.80 706.54, 2228.54 699.22 C 2216.70 676.22, 2179.82 677.45, 2160.33 660.67 Z" fill="rgb(118.65014577259475,143.65014577259475,73.72594752186589)" stroke="rgb(118.65014577259475,143.65014577259475,73.72594752186589)" stroke-width="1" />
<path d="M 1420.33 790.35 C 1411.62 801.74, 1378.62 801.08, 1393.05 821.90 C 1390.57 861.15, 1427.01 851.19, 1447.61 863.95 C 1481.05 872.13, 1487.24 840.12, 1457.84 835.91 C 1430.84 834.01, 1447.93 795.54, 1423.74 790.35 Z" fill="rgb(239.5653409090909,236.7244318181818,216.89488636363637)" stroke="rgb(239.5653409090909,236.7244318181818,216.89488636363637)" stroke-width="1" />
<path d="M 2136.46 471.41 C 2150.40 514.44, 2102.93 537.82, 2088.72 573.05 C 2100.54 591.33, 2120.98 557.73, 2136.46 573.05 C 2162.02 545.74, 2175.78 486.71, 2139.87 471.41 Z" fill="rgb(197.18235294117648,203.69411764705882,160.2764705882353)" stroke="rgb(197.18235294117648,203.69411764705882,160.2764705882353)" stroke-width="1" />
<path d="M 243.83 1323.09 C 221.03 1338.43, 230.27 1366.38, 247.24 1375.67 C 163.37 1385.23, 259.19 1464.06, 254.06 1379.17 C 290.81 1362.20, 295.38 1309.97, 247.24 1323.09 Z" fill="rgb(210.3677130044843,213.5201793721973,144.43497757847533)" stroke="rgb(210.3677130044843,213.5201793721973,144.43497757847533)" stroke-width="1" />
<path d="M 1365.77 1119.81 C 1322.24 1135.28, 1333.43 1222.82, 1386.23 1203.93 C 1416.43 1187.83, 1395.38 1119.32, 1372.59 1154.86 C 1351.46 1147.97, 1383.49 1132.92, 1369.18 1119.81 Z" fill="rgb(227.34745762711864,230.75706214689265,199.42655367231637)" stroke="rgb(227.34745762711864,230.75706214689265,199.42655367231637)" stroke-width="1" />
<path d="M 2726.42 2129.22 C 2694.22 2127.67, 2666.06 2170.44, 2688.91 2195.81 C 2733.31 2199.35, 2771.96 2163.07, 2729.83 2129.22 Z" fill="rgb(100.88817891373802,114.38977635782747,57.97444089456869)" stroke="rgb(100.88817891373802,114.38977635782747,57.97444089456869)" stroke-width="1" />
<path d="M 717.84 2136.23 C 716.04 2164.41, 667.81 2132.68, 687.15 2171.27 C 699.70 2193.29, 677.10 2229.35, 707.61 2230.86 C 744.19 2211.97, 737.09 2161.31, 721.25 2139.73 Z" fill="rgb(196.39490445859872,204.48407643312103,142.71019108280254)" stroke="rgb(196.39490445859872,204.48407643312103,142.71019108280254)" stroke-width="1" />
<path d="M 1045.21 1477.31 C 1034.07 1509.48, 1009.78 1463.12, 1000.88 1491.33 C 980.41 1515.32, 1004.93 1547.42, 1028.16 1533.39 C 1063.76 1540.98, 1081.94 1484.13, 1048.62 1477.31 Z" fill="rgb(74.70322580645161,88.65806451612903,52.438709677419354)" stroke="rgb(74.70322580645161,88.65806451612903,52.438709677419354)" stroke-width="1" />
<path d="M 2245.59 601.09 C 2198.68 628.21, 2206.98 687.65, 2266.05 678.19 C 2265.87 653.72, 2277.76 615.90, 2249.00 601.09 Z" fill="rgb(179.06796116504853,188.97087378640776,131.83818770226537)" stroke="rgb(179.06796116504853,188.97087378640776,131.83818770226537)" stroke-width="1" />
<path d="M 1092.96 506.46 C 1057.81 511.12, 1073.87 598.18, 1024.75 559.03 C 999.27 552.55, 1020.91 627.97, 1052.03 587.07 C 1076.79 556.66, 1126.65 551.90, 1096.37 509.96 Z" fill="rgb(147.28664495114006,158.8013029315961,102.2214983713355)" stroke="rgb(147.28664495114006,158.8013029315961,102.2214983713355)" stroke-width="1" />
<path d="M 1877.29 1617.50 C 1886.95 1654.52, 1811.68 1654.43, 1884.11 1670.08 C 1899.33 1676.08, 1890.57 1705.05, 1914.80 1698.12 C 1905.09 1659.55, 1939.21 1616.11, 1880.70 1617.50 Z" fill="rgb(225.18439716312056,228.5177304964539,200.65248226950354)" stroke="rgb(225.18439716312056,228.5177304964539,200.65248226950354)" stroke-width="1" />
<path d="M 2948.08 1035.69 C 2947.42 1057.13, 2968.05 1111.91, 2999.23 1081.26 C 3068.70 1057.88, 2986.44 1028.93, 2951.49 1035.69 Z" fill="rgb(242.09859154929578,239.81690140845072,210.2394366197183)" stroke="rgb(242.09859154929578,239.81690140845072,210.2394366197183)" stroke-width="1" />
<path d="M 2109.18 937.56 C 2119.97 977.55, 2069.53 993.25, 2058.03 1028.68 C 2119.79 1060.23, 2141.86 971.86, 2112.59 937.56 Z" fill="rgb(149.92255892255892,166.9124579124579,105.5016835016835)" stroke="rgb(149.92255892255892,166.9124579124579,105.5016835016835)" stroke-width="1" />
<path d="M 1348.72 2262.40 C 1329.51 2292.85, 1345.40 2365.81, 1393.05 2343.01 C 1397.57 2317.06, 1375.28 2282.96, 1352.13 2265.91 Z" fill="rgb(221.00359712230215,216.10071942446044,201.24100719424462)" stroke="rgb(221.00359712230215,216.10071942446044,201.24100719424462)" stroke-width="1" />
<path d="M 2699.14 1249.49 C 2704.80 1270.80, 2663.69 1274.21, 2678.68 1295.05 C 2697.14 1335.04, 2758.43 1330.14, 2723.01 1284.54 C 2731.73 1264.33, 2724.21 1244.15, 2702.55 1249.49 Z" fill="rgb(58.222627737226276,70.52554744525547,49.02919708029197)" stroke="rgb(58.222627737226276,70.52554744525547,49.02919708029197)" stroke-width="1" />
<path d="M 953.14 2087.16 C 940.70 2110.58, 930.75 2183.89, 980.42 2164.27 C 1005.87 2138.27, 968.95 2102.16, 956.55 2087.16 Z" fill="rgb(166.2101167315175,177.2373540856031,107.91050583657588)" stroke="rgb(166.2101167315175,177.2373540856031,107.91050583657588)" stroke-width="1" />
<path d="M 1778.40 2272.92 C 1749.58 2282.13, 1761.33 2329.50, 1771.58 2350.02 C 1817.81 2352.15, 1810.83 2284.40, 1781.81 2272.92 Z" fill="rgb(67.74418604651163,68.14728682170542,51.151162790697676)" stroke="rgb(67.74418604651163,68.14728682170542,51.151162790697676)" stroke-width="1" />
<path d="M 1307.79 1165.37 C 1276.45 1179.66, 1245.68 1256.96, 1304.38 1249.49 C 1304.72 1223.39, 1324.38 1183.64, 1311.21 1165.37 Z" fill="rgb(229.32669322709162,230.58964143426294,209.28286852589642)" stroke="rgb(229.32669322709162,230.58964143426294,209.28286852589642)" stroke-width="1" />
<path d="M 977.01 446.87 C 958.21 463.74, 932.84 474.58, 919.04 495.94 C 903.00 539.19, 979.98 468.72, 1004.29 464.40 C 1029.26 446.64, 992.20 444.62, 980.42 446.87 Z" fill="rgb(220.37339055793993,221.61802575107296,192.03004291845494)" stroke="rgb(220.37339055793993,221.61802575107296,192.03004291845494)" stroke-width="1" />
<path d="M 786.04 737.78 C 759.33 756.65, 790.26 787.07, 765.58 800.87 C 784.83 838.35, 841.66 837.47, 796.27 800.87 C 816.31 781.05, 798.13 747.86, 789.45 737.78 Z" fill="rgb(172.9873417721519,183.75527426160338,104.85232067510549)" stroke="rgb(172.9873417721519,183.75527426160338,104.85232067510549)" stroke-width="1" />
<path d="M 799.68 2437.65 C 776.85 2451.32, 735.04 2470.33, 786.04 2472.69 C 819.70 2535.14, 865.39 2450.37, 803.09 2437.65 Z" fill="rgb(165.8483606557377,175.0327868852459,103.1311475409836)" stroke="rgb(165.8483606557377,175.0327868852459,103.1311475409836)" stroke-width="1" />
<path d="M 1972.78 1946.96 C 1952.86 1964.83, 1969.26 2003.20, 1959.13 2031.08 C 1984.53 2032.38, 1986.61 1999.75, 1989.83 1978.51 C 2022.94 1963.15, 1998.66 1938.50, 1976.19 1946.96 Z" fill="rgb(203.03056768558952,200.05676855895197,167.02183406113537)" stroke="rgb(203.03056768558952,200.05676855895197,167.02183406113537)" stroke-width="1" />
<path d="M 1676.09 2269.41 C 1670.47 2313.75, 1713.79 2395.17, 1720.42 2311.47 C 1730.31 2266.95, 1688.43 2294.19, 1679.50 2269.41 Z" fill="rgb(207.35398230088495,199.6283185840708,184.60619469026548)" stroke="rgb(207.35398230088495,199.6283185840708,184.60619469026548)" stroke-width="1" />
<path d="M 117.65 1267.02 C 72.09 1281.16, 132.49 1344.47, 158.57 1319.59 C 168.71 1285.55, 136.82 1283.24, 121.06 1267.02 Z" fill="rgb(222.36607142857142,224.23660714285714,151.52232142857142)" stroke="rgb(222.36607142857142,224.23660714285714,151.52232142857142)" stroke-width="1" />
<path d="M 2695.73 1838.31 C 2656.09 1867.73, 2691.71 1923.83, 2716.19 1873.36 C 2763.13 1862.15, 2724.91 1831.15, 2699.14 1838.31 Z" fill="rgb(170.97663551401868,185.5,105.72429906542057)" stroke="rgb(170.97663551401868,185.5,105.72429906542057)" stroke-width="1" />
<path d="M 2269.46 1869.85 C 2249.48 1876.89, 2245.90 1889.24, 2249.00 1911.91 C 2250.29 1991.07, 2320.92 1889.30, 2272.87 1869.85 Z" fill="rgb(78.42396313364056,91.29953917050692,57.36405529953917)" stroke="rgb(78.42396313364056,91.29953917050692,57.36405529953917)" stroke-width="1" />
<path d="M 700.79 2507.74 C 683.05 2517.58, 645.63 2511.31, 670.10 2542.79 C 689.50 2594.49, 754.20 2499.27, 704.20 2507.74 Z" fill="rgb(202.39810426540285,208.16587677725119,132.01895734597156)" stroke="rgb(202.39810426540285,208.16587677725119,132.01895734597156)" stroke-width="1" />
<path d="M 3081.08 1971.50 C 3042.55 2006.55, 3084.14 2003.21, 3111.77 2020.56 C 3156.08 1993.47, 3113.17 1973.26, 3084.49 1971.50 Z" fill="rgb(249.04390243902438,246.1219512195122,223.2780487804878)" stroke="rgb(249.04390243902438,246.1219512195122,223.2780487804878)" stroke-width="1" />
<path d="M 1867.06 488.93 C 1840.98 512.45, 1825.23 515.13, 1798.86 502.95 C 1812.50 565.99, 1868.54 542.38, 1870.47 488.93 Z" fill="rgb(235.79187817258884,235.86294416243655,205.5989847715736)" stroke="rgb(235.79187817258884,235.86294416243655,205.5989847715736)" stroke-width="1" />
<path d="M 1703.37 3341.91 C 1678.87 3357.67, 1680.43 3392.21, 1665.86 3415.51 C 1689.95 3467.95, 1703.08 3367.24, 1706.78 3341.91 Z" fill="rgb(182.66666666666666,140.82758620689654,99.59770114942529)" stroke="rgb(182.66666666666666,140.82758620689654,99.59770114942529)" stroke-width="1" />
<path d="M 1815.91 1046.21 C 1814.00 1059.80, 1800.64 1079.80, 1822.73 1084.76 C 1876.35 1119.47, 1867.44 1031.74, 1819.32 1046.21 Z" fill="rgb(117.70165745856353,137.14364640883977,77.12154696132596)" stroke="rgb(117.70165745856353,137.14364640883977,77.12154696132596)" stroke-width="1" />
<path d="M 2324.02 1719.15 C 2287.55 1717.99, 2287.79 1799.65, 2327.43 1764.71 C 2368.51 1769.41, 2340.45 1734.51, 2324.02 1722.65 Z" fill="rgb(190.3956043956044,196.07142857142858,157.0879120879121)" stroke="rgb(190.3956043956044,196.07142857142858,157.0879120879121)" stroke-width="1" />
<path d="M 2965.13 1365.15 C 2920.49 1364.63, 2950.73 1439.96, 2975.36 1407.21 C 2993.82 1381.79, 2999.95 1376.59, 2968.54 1365.15 Z" fill="rgb(223.2289156626506,222.62048192771084,180.40361445783134)" stroke="rgb(223.2289156626506,222.62048192771084,180.40361445783134)" stroke-width="1" />
<path d="M 1648.81 650.16 C 1621.97 668.87, 1694.66 713.80, 1696.55 678.19 C 1698.06 646.96, 1667.09 657.28, 1652.22 650.16 Z" fill="rgb(241.64743589743588,240.0897435897436,204.12820512820514)" stroke="rgb(241.64743589743588,240.0897435897436,204.12820512820514)" stroke-width="1" />
<path d="M 1628.35 1491.33 C 1615.80 1503.75, 1577.54 1481.06, 1580.61 1508.85 C 1579.42 1544.55, 1659.25 1509.33, 1631.76 1491.33 Z" fill="rgb(172.06164383561645,185.1986301369863,135.84246575342465)" stroke="rgb(172.06164383561645,185.1986301369863,135.84246575342465)" stroke-width="1" />
<path d="M 2787.80 2073.14 C 2766.26 2080.46, 2773.25 2106.51, 2763.93 2122.21 C 2785.33 2144.45, 2823.20 2086.43, 2791.21 2073.14 Z" fill="rgb(133.986301369863,145.92465753424656,79.73287671232876)" stroke="rgb(133.986301369863,145.92465753424656,79.73287671232876)" stroke-width="1" />
<path d="M 2296.74 2143.24 C 2284.80 2159.59, 2230.95 2164.91, 2266.05 2188.80 C 2297.51 2204.15, 2301.43 2167.53, 2296.74 2146.74 Z" fill="rgb(63.0,73.18604651162791,55.25581395348837)" stroke="rgb(63.0,73.18604651162791,55.25581395348837)" stroke-width="1" />
<path d="M 230.19 1382.68 C 216.94 1387.91, 193.83 1400.90, 216.54 1414.22 C 242.51 1445.80, 272.46 1373.18, 233.60 1382.68 Z" fill="rgb(221.59259259259258,222.43703703703704,157.85925925925926)" stroke="rgb(221.59259259259258,222.43703703703704,157.85925925925926)" stroke-width="1" />
<path d="M 1505.58 2441.15 C 1471.93 2439.02, 1467.85 2462.65, 1502.17 2476.20 C 1520.06 2476.43, 1530.24 2436.59, 1508.99 2441.15 Z" fill="rgb(142.6611570247934,125.07438016528926,85.0909090909091)" stroke="rgb(142.6611570247934,125.07438016528926,85.0909090909091)" stroke-width="1" />
<path d="M 1699.96 825.40 C 1637.28 889.82, 1786.21 832.24, 1699.96 825.40 Z" fill="rgb(142.30107526881721,162.247311827957,103.94623655913979)" stroke="rgb(142.30107526881721,162.247311827957,103.94623655913979)" stroke-width="1" />
<path d="M 1976.19 800.87 C 1893.89 828.18, 2043.27 835.42, 1976.19 800.87 Z" fill="rgb(210.04,221.26666666666668,184.58666666666667)" stroke="rgb(210.04,221.26666666666668,184.58666666666667)" stroke-width="1" />
<path d="M 2337.66 2399.09 C 2273.23 2425.19, 2387.91 2452.62, 2337.66 2399.09 Z" fill="rgb(112.39473684210526,122.11842105263158,78.51315789473684)" stroke="rgb(112.39473684210526,122.11842105263158,78.51315789473684)" stroke-width="1" />
</svg>