<svg xmlns="http://www.w3.org/2000/svg" width="512" height="512" viewbox="0 0 512 512">
<path d="M 0.50 0.50 C 0.50 5.17, 0.50 9.83, 0.50 14.50 C 0.50 20.50, 0.50 25.50, 0.50 30.50 C 0.50 36.50, 0.50 41.50, 0.50 46.50 C 0.50 52.50, 0.50 57.50, 0.50 62.50 C 0.50 68.50, 0.50 73.50, 0.50 78.50 C 0.50 84.50, 0.50 89.50, 0.50 94.50 C 0.50 100.50, 0.50 105.50, 0.50 110.50 C 0.50 116.50, 0.50 121.50, 0.50 126.50 C 0.50 132.50, 0.50 137.50, 0.50 142.50 C 0.50 148.50, 0.50 153.50, 0.50 158.50 C 0.50 164.50, 0.50 169.50, 0.50 174.50 C 0.50 180.50, 0.50 185.50, 0.50 190.50 C 0.50 196.50, 0.50 201.50, 0.50 206.50 C 0.50 212.50, 0.50 217.50, 0.50 222.50 C 0.50 228.50, 0.50 233.50, 0.50 238.50 C 0.50 244.50, 0.50 249.50, 0.50 254.50 C 0.50 260.50, 0.50 265.50, 0.50 270.50 C 0.50 276.50, 0.50 281.50, 0.50 286.50 C 0.50 292.50, 0.50 297.50, 0.50 302.50 C 0.50 308.50, 0.50 313.50, 0.50 318.50 C 0.50 324.50, 0.50 329.50, 0.50 334.50 C 0.50 340.50, 0.50 345.50, 0.50 350.50 C 0.50 356.50, 0.50 361.50, 0.50 366.50 C 0.50 372.50, 0.50 377.50, 0.50 382.50 C 0.50 388.50, 0.50 393.50, 0.50 398.50 C 0.50 404.50, 0.50 409.50, 0.50 414.50 C 0.50 420.50, 0.50 425.50, 0.50 430.50 C 0.50 436.50, 0.50 441.50, 0.50 446.50 C 0.50 452.50, 0.50 457.50, 0.50 462.50 C 0.50 468.50, 0.50 473.50, 0.50 478.50 C 0.50 484.50, 0.50 489.50, 0.50 494.50 C 0.50 500.50, 0.50 505.50, 0.50 510.50 C 5.17 511.50, 9.83 511.50, 14.50 511.50 C 20.50 511.50, 25.50 511.50, 30.50 511.50 C 36.50 511.50, 41.50 511.50, 46.50 511.50 C 52.50 511.50, 57.50 511.50, 62.50 511.50 C 68.50 511.50, 73.50 511.50, 78.50 511.50 C 84.50 511.50, 89.50 511.50, 94.50 511.50 C 100.50 511.50, 105.50 511.50, 110.50 511.50 C 116.50 511.50, 121.50 511.50, 126.50 511.50 C 132.50 511.50, 137.50 511.50, 142.50 511.50 C 148.50 511.50, 153.50 511.50, 158.50 511.50 C 164.50 511.50, 169.50 511.50, 174.50 511.50 C 180.50 511.50, 185.50 511.50, 190.50 511.50 C 196.50 511.50, 201.50 511.50, 206.50 511.50 C 212.50 511.50, 217.50 511.50, 222.50 511.50 C 228.50 511.50, 233.50 511.50, 238.50 511.50 C 244.50 511.50, 249.50 511.50, 254.50 511.50 C 260.50 511.50, 265.50 511.50, 270.50 511.50 C 276.50 511.50, 281.50 511.50, 286.50 511.50 C 292.50 511.50, 297.50 511.50, 302.50 511.50 C 308.50 511.50, 313.50 511.50, 318.50 511.50 C 324.50 511.50, 329.50 511.50, 334.50 511.50 C 340.50 511.50, 345.50 511.50, 350.50 511.50 C 356.50 511.50, 361.50 511.50, 366.50 511.50 C 372.50 511.50, 377.50 511.50, 382.50 511.50 C 388.50 511.50, 393.50 511.50, 398.50 511.50 C 404.50 511.50, 409.50 511.50, 414.50 511.50 C 420.50 511.50, 425.50 511.50, 430.50 511.50 C 436.50 511.50, 441.50 511.50, 446.50 511.50 C 452.50 511.50, 457.50 511.50, 462.50 511.50 C 468.50 511.50, 473.50 511.50, 478.50 511.50 C 484.50 511.50, 489.50 511.50, 494.50 511.50 C 500.50 511.50, 505.50 511.50, 510.50 511.50 C 511.50 506.83, 511.50 502.17, 511.50 497.50 C 511.50 491.50, 511.50 486.50, 511.50 481.50 C 511.50 475.50, 511.50 470.50, 511.50 465.50 C 511.50 459.50, 511.50 454.50, 511.50 449.50 C 511.50 443.50, 511.50 438.50, 511.50 433.50 C 511.50 427.50, 511.50 422.50, 511.50 417.50 C 511.50 411.50, 511.50 406.50, 511.50 401.50 C 511.50 395.50, 511.50 390.50, 511.50 385.50 C 511.50 379.50, 511.50 374.50, 511.50 369.50 C 511.50 363.50, 511.50 358.50, 511.50 353.50 C 511.50 347.50, 511.50 342.50, 511.50 337.50 C 511.50 331.50, 511.50 326.50, 511.50 321.50 C 511.50 315.50, 511.50 310.50, 511.50 305.50 C 511.50 299.50, 511.50 294.50, 511.50 289.50 C 511.50 283.50, 511.50 278.50, 511.50 273.50 C 511.50 267.50, 511.50 262.50, 511.50 257.50 C 511.50 251.50, 511.50 246.50, 511.50 241.50 C 511.50 235.50, 511.50 230.50, 511.50 225.50 C 511.50 219.50, 511.50 214.50, 511.50 209.50 C 511.50 203.50, 511.50 198.50, 511.50 193.50 C 511.50 187.50, 511.50 182.50, 511.50 177.50 C 511.50 171.50, 511.50 166.50, 511.50 161.50 C 511.50 155.50, 511.50 150.50, 511.50 145.50 C 511.50 139.50, 511.50 134.50, 511.50 129.50 C 511.50 123.50, 511.50 118.50, 511.50 113.50 C 511.50 107.50, 511.50 102.50, 511.50 97.50 C 511.50 91.50, 511.50 86.50, 511.50 81.50 C 511.50 75.50, 511.50 70.50, 511.50 65.50 C 511.50 59.50, 511.50 54.50, 511.50 49.50 C 511.50 43.50, 511.50 38.50, 511.50 33.50 C 511.50 27.50, 511.50 22.50, 511.50 17.50 C 511.50 11.50, 511.50 6.50, 511.50 1.50 C 506.83 0.50, 502.17 0.50, 497.50 0.50 C 491.50 0.50, 486.50 0.50, 481.50 0.50 C 475.50 0.50, 470.50 0.50, 465.50 0.50 C 459.50 0.50, 454.50 0.50, 449.50 0.50 C 443.50 0.50, 438.50 0.50, 433.50 0.50 C 427.50 0.50, 422.50 0.50, 417.50 0.50 C 411.50 0.50, 406.50 0.50, 401.50 0.50 C 395.50 0.50, 390.50 0.50, 385.50 0.50 C 379.50 0.50, 374.50 0.50, 369.50 0.50 C 363.50 0.50, 358.50 0.50, 353.50 0.50 C 347.50 0.50, 342.50 0.50, 337.50 0.50 C 331.50 0.50, 326.50 0.50, 321.50 0.50 C 315.50 0.50, 310.50 0.50, 305.50 0.50 C 299.50 0.50, 294.50 0.50, 289.50 0.50 C 283.50 0.50, 278.50 0.50, 273.50 0.50 C 267.50 0.50, 262.50 0.50, 257.50 0.50 C 251.50 0.50, 246.50 0.50, 241.50 0.50 C 235.50 0.50, 230.50 0.50, 225.50 0.50 C 219.50 0.50, 214.50 0.50, 209.50 0.50 C 203.50 0.50, 198.50 0.50, 193.50 0.50 C 187.50 0.50, 182.50 0.50, 177.50 0.50 C 171.50 0.50, 166.50 0.50, 161.50 0.50 C 155.50 0.50, 150.50 0.50, 145.50 0.50 C 139.50 0.50, 134.50 0.50, 129.50 0.50 C 123.50 0.50, 118.50 0.50, 113.50 0.50 C 107.50 0.50, 102.50 0.50, 97.50 0.50 C 91.50 0.50, 86.50 0.50, 81.50 0.50 C 75.50 0.50, 70.50 0.50, 65.50 0.50 C 59.50 0.50, 54.50 0.50, 49.50 0.50 C 43.50 0.50, 38.50 0.50, 33.50 0.50 C 27.50 0.50, 22.50 0.50, 17.50 0.50 C 11.50 0.50, 6.50 0.50, 1.50 0.50 Z" fill="rgb(0.4907473149687683,0.5041118051498674,0.6855884599829236)" stroke="rgb(0.4907473149687683,0.5041118051498674,0.6855884599829236)" stroke-width="1" />
<path d="M 179.50 5.50 C 175.49 6.61, 172.73 10.25, 172.50 14.50 C 170.30 18.73, 172.07 23.60, 171.50 27.50 C 171.27 32.40, 171.53 36.10, 172.50 39.50 C 172.04 45.10, 174.58 48.47, 175.50 52.50 C 176.71 57.77, 180.20 60.68, 181.50 64.50 C 186.38 69.12, 189.82 73.82, 194.50 75.50 C 198.03 80.59, 205.54 80.37, 204.50 86.50 C 201.78 91.26, 196.49 88.80, 192.50 89.50 C 187.52 87.93, 184.58 84.83, 180.50 84.50 C 175.61 81.90, 171.34 81.21, 167.50 79.50 C 162.93 78.28, 158.90 78.13, 155.50 76.50 C 150.46 75.27, 146.28 74.36, 142.50 72.50 C 137.60 71.72, 133.80 70.72, 130.50 68.50 C 125.72 65.63, 120.86 65.37, 117.50 61.50 C 112.98 58.35, 109.14 55.95, 104.50 55.50 C 99.94 54.25, 94.63 57.90, 94.50 62.50 C 92.94 67.07, 94.68 71.60, 92.50 74.50 C 94.11 79.66, 94.39 83.96, 96.50 87.50 C 96.92 92.54, 100.44 95.30, 100.50 99.50 C 102.97 104.86, 107.40 107.99, 108.50 112.50 C 103.97 114.84, 100.59 116.51, 96.50 116.50 C 91.98 119.00, 86.63 117.07, 83.50 120.50 C 77.99 119.93, 74.87 122.73, 70.50 122.50 C 65.49 124.47, 61.52 125.55, 57.50 126.50 C 52.88 128.96, 48.91 129.54, 45.50 131.50 C 40.35 132.82, 36.49 134.81, 32.50 136.50 C 27.86 139.37, 23.06 139.43, 19.50 142.50 C 14.50 145.20, 17.54 151.03, 17.50 154.50 C 20.74 159.07, 22.38 162.88, 24.50 166.50 C 26.78 171.80, 29.04 175.69, 31.50 179.50 C 33.13 184.93, 36.07 188.40, 37.50 192.50 C 42.31 196.48, 39.52 202.60, 44.50 205.50 C 42.15 211.14, 46.01 213.62, 46.50 217.50 C 49.68 221.60, 47.24 227.02, 49.50 230.50 C 49.01 235.65, 51.27 238.65, 51.50 242.50 C 52.90 247.34, 53.25 251.61, 54.50 255.50 C 56.38 260.22, 56.83 264.11, 58.50 267.50 C 60.91 272.19, 60.29 277.14, 63.50 280.50 C 64.99 285.57, 66.14 289.79, 68.50 293.50 C 69.87 299.71, 71.62 301.81, 68.50 306.50 C 69.34 310.92, 77.34 309.19, 76.50 314.50 C 80.04 319.28, 80.10 324.08, 83.50 327.50 C 85.20 332.63, 87.47 336.51, 89.50 340.50 C 92.89 345.06, 92.75 350.09, 96.50 353.50 C 96.94 358.68, 101.06 361.32, 101.50 365.50 C 104.74 370.40, 105.83 374.78, 108.50 378.50 C 111.24 383.19, 112.70 387.42, 114.50 391.50 C 116.20 396.63, 118.47 400.51, 120.50 404.50 C 121.67 409.24, 124.38 412.33, 124.50 416.50 C 126.74 421.54, 128.74 425.26, 129.50 429.50 C 126.91 434.45, 120.89 431.71, 119.50 436.50 C 120.84 442.17, 126.20 438.32, 130.50 439.50 C 135.68 440.79, 136.39 445.96, 137.50 449.50 C 139.06 454.41, 140.17 458.50, 141.50 462.50 C 141.69 467.84, 144.78 470.97, 144.50 475.50 C 145.77 480.39, 145.00 485.12, 147.50 488.50 C 147.65 493.52, 151.07 496.18, 150.50 500.50 C 149.48 505.57, 156.05 504.25, 159.50 504.50 C 164.85 503.68, 168.88 503.08, 172.50 501.50 C 176.93 499.12, 182.54 502.01, 185.50 498.50 C 190.12 497.39, 193.09 494.71, 197.50 495.50 C 203.18 495.15, 206.44 492.35, 210.50 491.50 C 215.82 490.93, 219.56 488.98, 223.50 487.50 C 228.86 487.71, 232.40 485.93, 236.50 485.50 C 240.30 482.07, 245.70 484.93, 248.50 481.50 C 253.26 479.91, 257.26 478.91, 261.50 478.50 C 265.80 476.29, 270.48 477.40, 273.50 474.50 C 279.10 474.95, 281.82 470.86, 286.50 471.50 C 290.66 469.77, 295.77 470.31, 298.50 470.50 C 303.51 473.80, 306.59 479.36, 311.50 480.50 C 316.15 484.68, 320.34 486.55, 324.50 488.50 C 328.65 492.21, 333.48 491.89, 337.50 493.50 C 342.45 494.15, 345.37 496.28, 349.50 495.50 C 353.78 497.92, 359.27 494.97, 362.50 497.50 C 366.40 495.32, 370.93 497.06, 374.50 496.50 C 379.46 496.06, 383.15 494.99, 387.50 495.50 C 391.76 493.51, 396.41 494.90, 399.50 492.50 C 404.93 491.21, 408.86 489.70, 412.50 487.50 C 417.96 486.62, 421.88 484.42, 425.50 481.50 C 430.48 478.79, 434.56 476.30, 438.50 473.50 C 443.41 470.31, 446.37 465.73, 449.50 463.50 C 453.51 458.64, 455.81 454.49, 458.50 450.50 C 461.11 446.22, 461.92 442.20, 463.50 438.50 C 462.76 433.05, 464.66 429.70, 464.50 425.50 C 463.05 421.66, 463.73 417.76, 463.50 413.50 C 461.19 408.06, 463.83 403.56, 468.50 402.50 C 473.38 399.55, 478.36 399.25, 481.50 394.50 C 485.79 391.90, 488.23 387.52, 489.50 383.50 C 492.27 379.70, 488.73 374.30, 491.50 371.50 C 490.74 367.37, 491.97 362.75, 491.50 358.50 C 489.72 353.34, 491.96 349.04, 490.50 345.50 C 490.50 340.50, 490.50 336.50, 490.50 332.50 C 489.89 327.44, 491.27 324.21, 491.50 320.50 C 491.43 314.00, 483.99 313.05, 482.50 308.50 C 476.74 305.57, 474.83 301.21, 470.50 298.50 C 465.63 293.53, 461.19 290.92, 457.50 286.50 C 453.46 282.40, 448.64 280.65, 446.50 276.50 C 441.45 273.28, 437.72 269.31, 433.50 266.50 C 428.67 262.90, 425.14 259.57, 421.50 256.50 C 416.76 252.53, 412.45 249.96, 408.50 246.50 C 403.64 243.31, 400.55 239.24, 396.50 237.50 C 391.77 233.60, 386.95 230.50, 386.50 225.50 C 385.99 220.15, 387.06 216.46, 387.50 212.50 C 387.50 207.50, 387.50 203.50, 387.50 199.50 C 387.50 194.83, 387.50 191.17, 387.50 187.50 C 387.50 182.50, 387.50 178.50, 387.50 174.50 C 387.50 169.50, 387.50 165.50, 387.50 161.50 C 387.50 156.50, 387.50 152.50, 387.50 148.50 C 385.48 144.39, 387.14 139.76, 385.50 136.50 C 385.73 131.13, 382.93 128.01, 383.50 123.50 C 382.83 118.23, 381.71 114.14, 379.50 110.50 C 375.62 106.14, 375.39 101.27, 372.50 97.50 C 370.61 92.37, 367.04 89.36, 365.50 85.50 C 361.21 80.62, 359.04 76.28, 355.50 72.50 C 350.98 67.88, 348.86 64.59, 344.50 62.50 C 339.85 59.65, 335.91 58.51, 331.50 58.50 C 326.37 58.72, 323.45 60.85, 319.50 60.50 C 314.38 60.88, 311.04 63.13, 306.50 62.50 C 301.12 63.25, 297.36 64.51, 293.50 65.50 C 288.61 66.77, 283.88 66.00, 280.50 68.50 C 275.55 68.15, 272.63 70.28, 268.50 69.50 C 263.17 66.29, 259.72 61.96, 255.50 59.50 C 251.17 56.30, 247.64 52.16, 243.50 49.50 C 238.43 45.67, 234.30 42.99, 230.50 39.50 C 226.19 35.98, 222.01 34.54, 218.50 31.50 C 213.96 27.73, 209.65 25.81, 205.50 23.50 C 200.08 20.52, 196.40 16.74, 192.50 13.50 C 189.80 8.21, 185.11 5.15, 180.50 5.50 Z" fill="rgb(25.87202359542479,30.68782821379757,42.08053377454859)" stroke="rgb(25.87202359542479,30.68782821379757,42.08053377454859)" stroke-width="1" />
<path d="M 105.50 116.50 C 104.08 121.65, 98.36 120.18, 94.50 121.50 C 95.63 122.43, 89.94 125.79, 85.50 124.50 C 79.27 123.31, 76.60 125.73, 73.50 128.50 C 67.88 128.63, 64.75 128.67, 61.50 131.50 C 56.00 133.61, 52.85 131.30, 50.50 135.50 C 45.15 135.99, 41.46 137.06, 37.50 137.50 C 42.85 140.22, 33.22 140.74, 30.50 139.50 C 29.65 142.91, 24.64 144.17, 23.50 147.50 C 19.06 141.43, 14.00 147.12, 17.50 151.50 C 19.14 156.79, 22.04 160.55, 24.50 164.50 C 25.85 169.77, 28.88 173.34, 30.50 177.50 C 31.84 183.05, 36.19 185.94, 36.50 190.50 C 40.95 194.90, 40.37 199.97, 43.50 203.50 C 43.67 209.28, 55.01 209.22, 50.50 211.50 C 45.28 214.90, 48.00 218.59, 47.50 223.50 C 48.45 229.13, 49.44 233.33, 50.50 237.50 C 52.46 242.10, 52.43 246.53, 53.50 250.50 C 56.61 254.76, 54.99 259.99, 57.50 263.50 C 58.23 268.75, 60.57 272.33, 61.50 276.50 C 63.63 281.58, 64.68 285.70, 66.50 289.50 C 69.47 294.24, 68.62 299.55, 73.50 302.50 C 64.02 308.49, 79.50 305.50, 75.50 310.50 C 77.51 315.50, 78.90 319.75, 81.50 323.50 C 84.12 328.24, 85.14 332.65, 87.50 336.50 C 89.61 341.45, 92.39 345.13, 93.50 349.50 C 96.15 354.65, 98.16 358.64, 100.50 362.50 C 102.84 367.36, 104.85 371.35, 106.50 375.50 C 109.49 380.51, 110.61 384.87, 113.50 388.50 C 115.74 393.40, 116.83 397.78, 119.50 401.50 C 120.90 406.61, 123.58 410.19, 124.50 414.50 C 126.43 419.67, 128.77 423.25, 129.50 427.50 C 134.37 430.86, 139.63 428.45, 143.50 427.50 C 148.59 426.71, 152.13 424.61, 156.50 424.50 C 161.23 422.53, 165.20 421.11, 169.50 420.50 C 174.51 419.19, 178.21 417.13, 182.50 416.50 C 187.68 415.60, 191.09 412.84, 195.50 412.50 C 200.38 410.89, 203.94 408.48, 208.50 408.50 C 213.01 405.65, 217.80 405.90, 221.50 403.50 C 226.41 401.94, 230.50 400.83, 234.50 399.50 C 240.48 398.07, 241.55 395.42, 239.50 390.50 C 237.54 386.03, 237.31 381.85, 237.50 377.50 C 236.23 372.13, 237.11 369.01, 237.50 364.50 C 238.86 358.13, 235.53 354.95, 231.50 352.50 C 226.63 348.85, 222.65 345.48, 218.50 342.50 C 214.62 337.73, 211.01 333.84, 208.50 329.50 C 205.09 324.53, 201.77 320.94, 200.50 316.50 C 197.50 311.64, 195.43 307.80, 194.50 303.50 C 192.44 297.91, 190.11 293.86, 188.50 289.50 C 188.90 283.78, 184.17 281.19, 184.50 276.50 C 183.40 271.83, 184.17 268.09, 183.50 263.50 C 183.07 258.13, 180.74 254.95, 181.50 250.50 C 179.30 246.27, 181.07 241.40, 180.50 237.50 C 179.50 232.50, 179.50 228.50, 179.50 224.50 C 179.22 219.48, 180.28 214.90, 178.50 211.50 C 178.68 206.15, 178.08 202.12, 176.50 198.50 C 176.77 192.97, 174.06 189.68, 173.50 185.50 C 171.55 181.04, 170.62 176.04, 165.50 176.50 C 155.65 175.29, 167.21 175.41, 167.50 171.50 C 166.26 166.32, 164.50 162.36, 162.50 158.50 C 160.13 153.51, 158.04 149.42, 155.50 145.50 C 151.50 142.14, 148.78 136.72, 144.50 133.50 C 139.79 129.14, 135.00 128.37, 131.50 124.50 C 126.21 123.53, 122.66 120.77, 118.50 119.50 C 110.82 120.89, 112.29 116.45, 106.50 117.50 Z" fill="rgb(227.38290171606863,136.18814352574103,130.3640561622465)" stroke="rgb(227.38290171606863,136.18814352574103,130.3640561622465)" stroke-width="1" />
<path d="M 345.50 284.50 C 342.15 286.27, 337.91 285.87, 334.50 287.50 C 330.12 290.01, 324.28 293.19, 325.50 298.50 C 326.14 304.32, 329.30 307.08, 333.50 309.50 C 337.97 311.46, 342.15 311.69, 346.50 311.50 C 350.40 313.68, 354.93 311.94, 358.50 312.50 C 363.40 313.07, 368.27 311.30, 371.50 313.50 C 378.95 317.76, 372.04 321.86, 368.50 321.50 C 367.15 328.19, 361.82 318.02, 357.50 320.50 C 352.21 320.00, 348.54 320.99, 345.50 323.50 C 340.60 325.40, 336.43 326.67, 332.50 328.50 C 327.62 330.11, 324.06 332.52, 319.50 332.50 C 314.09 333.84, 310.68 336.60, 306.50 337.50 C 300.99 339.19, 298.79 342.51, 297.50 346.50 C 296.44 351.89, 292.90 355.25, 291.50 359.50 C 287.60 363.70, 285.39 370.55, 280.50 368.50 C 274.95 363.51, 280.98 359.42, 282.50 355.50 C 286.64 352.44, 285.41 347.58, 288.50 344.50 C 289.18 339.50, 290.12 335.62, 290.50 331.50 C 290.50 326.50, 290.50 322.50, 290.50 318.50 C 289.63 313.06, 286.61 308.44, 282.50 307.50 C 277.79 306.72, 273.60 305.80, 270.50 307.50 C 265.27 309.78, 261.94 314.18, 260.50 318.50 C 258.23 323.53, 256.42 327.33, 255.50 331.50 C 253.00 335.88, 253.77 340.61, 252.50 344.50 C 251.38 348.98, 251.03 352.78, 250.50 356.50 C 251.07 361.87, 248.74 365.05, 249.50 369.50 C 249.78 374.52, 248.72 379.10, 250.50 382.50 C 249.75 388.36, 252.31 391.85, 254.50 395.50 C 258.69 398.32, 262.39 398.91, 266.50 398.50 C 271.15 396.66, 275.82 397.27, 279.50 395.50 C 284.46 395.06, 288.15 393.99, 292.50 394.50 C 298.59 393.08, 301.65 397.00, 301.50 401.50 C 299.90 406.05, 299.34 410.04, 297.50 413.50 C 295.72 418.59, 295.80 422.87, 296.50 426.50 C 295.46 431.31, 294.46 436.05, 297.50 438.50 C 295.78 442.34, 302.30 445.92, 301.50 450.50 C 303.96 455.67, 308.70 458.47, 310.50 462.50 C 315.64 466.16, 319.17 470.30, 323.50 472.50 C 327.76 476.28, 332.63 476.18, 336.50 478.50 C 341.15 480.35, 345.09 481.49, 349.50 481.50 C 354.40 482.27, 358.10 482.53, 361.50 483.50 C 366.40 482.93, 371.27 484.70, 374.50 482.50 C 379.85 482.69, 384.03 482.46, 387.50 480.50 C 392.80 479.89, 396.77 478.47, 400.50 476.50 C 405.56 475.77, 408.35 472.00, 412.50 471.50 C 417.71 467.68, 421.82 464.61, 425.50 460.50 C 429.48 455.67, 432.53 453.10, 434.50 448.50 C 436.79 443.76, 438.97 439.97, 439.50 435.50 C 440.42 430.94, 441.57 427.47, 441.50 423.50 C 442.01 418.15, 440.94 414.46, 440.50 410.50 C 439.58 405.33, 438.47 401.24, 436.50 397.50 C 434.51 391.80, 431.07 388.13, 427.50 384.50 C 423.21 379.92, 419.13 378.25, 415.50 375.50 C 410.78 373.15, 406.80 371.44, 402.50 370.50 C 397.89 368.55, 393.34 368.88, 389.50 367.50 C 384.18 367.27, 379.69 367.46, 376.50 364.50 C 375.96 359.33, 377.23 355.91, 378.50 352.50 C 381.30 347.28, 383.42 342.99, 385.50 339.50 C 387.32 334.31, 387.76 331.17, 389.50 326.50 C 388.46 322.59, 391.21 318.40, 390.50 314.50 C 388.72 309.13, 386.22 305.48, 384.50 301.50 C 381.46 296.04, 376.48 292.65, 372.50 290.50 C 368.14 287.29, 363.60 286.93, 359.50 285.50 C 355.10 283.72, 350.52 284.78, 346.50 284.50 Z" fill="rgb(253.23058966812138,221.34116512737236,129.6994316451842)" stroke="rgb(253.23058966812138,221.34116512737236,129.6994316451842)" stroke-width="1" />
<path d="M 168.50 183.50 C 165.60 185.68, 161.07 183.94, 157.50 184.50 C 152.61 185.77, 149.16 188.10, 144.50 187.50 C 144.55 195.20, 137.88 189.43, 134.50 191.50 C 128.96 190.87, 125.62 193.12, 121.50 193.50 C 117.33 195.70, 113.15 195.47, 109.50 196.50 C 103.88 196.67, 101.27 200.70, 96.50 199.50 C 90.90 200.05, 88.18 204.14, 83.50 203.50 C 78.70 205.33, 74.71 206.67, 70.50 207.50 C 65.63 208.00, 62.61 210.57, 58.50 210.50 C 54.05 212.70, 47.46 212.41, 47.50 217.50 C 49.31 222.03, 47.37 227.11, 49.50 230.50 C 50.57 235.47, 50.54 239.90, 52.50 243.50 C 52.23 249.03, 54.94 252.32, 55.50 256.50 C 56.90 261.47, 57.30 265.86, 59.50 269.50 C 60.68 274.70, 62.71 278.55, 64.50 282.50 C 65.68 287.70, 67.71 291.55, 69.50 295.50 C 71.30 301.56, 75.05 299.20, 79.50 299.50 C 84.43 297.33, 88.14 295.62, 92.50 295.50 C 97.14 293.30, 101.53 292.90, 105.50 291.50 C 110.39 290.23, 113.84 287.90, 118.50 288.50 C 123.64 287.65, 126.76 285.32, 130.50 284.50 C 135.68 283.94, 139.24 281.87, 143.50 281.50 C 149.18 281.48, 152.11 278.23, 156.50 278.50 C 161.74 277.09, 165.74 276.09, 169.50 274.50 C 174.32 274.21, 177.21 271.65, 181.50 272.50 C 184.78 269.57, 182.28 263.54, 181.50 260.50 C 182.07 255.13, 179.74 251.95, 180.50 247.50 C 178.37 243.11, 180.31 238.03, 178.50 234.50 C 177.93 228.72, 178.75 225.56, 177.50 221.50 C 176.93 216.60, 178.70 211.73, 176.50 208.50 C 177.07 203.13, 174.74 199.95, 175.50 195.50 C 173.53 190.72, 173.37 185.11, 169.50 183.50 Z" fill="rgb(228.9985186476124,136.99895433949112,130.99921575461835)" stroke="rgb(228.9985186476124,136.99895433949112,130.99921575461835)" stroke-width="1" />
<path d="M 106.50 72.50 C 103.67 75.42, 105.23 77.89, 105.50 81.50 C 105.02 85.42, 103.37 89.24, 105.50 91.50 C 107.04 99.62, 112.77 105.80, 119.50 108.50 C 127.69 110.77, 132.57 118.60, 139.50 121.50 C 147.79 124.20, 154.42 129.78, 158.50 136.50 C 162.81 143.71, 165.79 150.05, 168.50 156.50 C 171.78 164.33, 174.69 170.89, 177.50 177.50 C 180.65 184.36, 181.37 191.22, 183.50 197.50 C 183.78 205.47, 186.34 211.49, 186.50 218.50 C 187.29 225.78, 187.21 232.42, 188.50 238.50 C 188.49 246.11, 189.21 252.42, 190.50 258.50 C 190.68 266.31, 192.12 272.60, 194.50 278.50 C 195.37 286.77, 199.05 292.88, 201.50 299.50 C 205.23 307.22, 208.46 313.74, 213.50 319.50 C 218.24 327.63, 223.77 332.54, 228.50 339.50 C 231.22 343.44, 233.96 346.95, 237.50 347.50 C 241.18 346.70, 239.48 341.56, 241.50 339.50 C 242.23 330.15, 233.61 325.67, 231.50 318.50 C 229.72 313.55, 224.64 312.95, 223.50 309.50 C 221.25 305.74, 219.85 302.63, 218.50 299.50 C 215.76 291.92, 212.24 286.08, 210.50 279.50 C 207.65 272.66, 206.97 265.92, 205.50 259.50 C 203.27 252.21, 203.02 245.09, 201.50 238.50 C 200.76 231.06, 199.24 224.94, 198.50 218.50 C 196.97 213.43, 201.80 212.27, 204.50 211.50 C 208.91 210.68, 211.88 208.82, 215.50 208.50 C 222.80 206.43, 228.97 204.03, 235.50 202.50 C 238.11 199.34, 238.11 194.66, 236.50 192.50 C 236.27 187.99, 235.42 184.73, 234.50 181.50 C 232.97 174.11, 232.16 167.42, 229.50 161.50 C 228.10 153.45, 225.01 147.09, 222.50 140.50 C 218.53 132.74, 215.18 126.14, 209.50 120.50 C 203.94 112.70, 196.50 106.79, 189.50 103.50 C 182.33 99.78, 176.29 96.73, 169.50 95.50 C 161.95 93.23, 155.14 91.56, 148.50 89.50 C 140.60 87.20, 134.81 83.22, 128.50 80.50 C 121.28 76.75, 115.26 72.52, 107.50 72.50 Z" fill="rgb(247.23451806635816,216.2249680023629,127.01614649995078)" stroke="rgb(247.23451806635816,216.2249680023629,127.01614649995078)" stroke-width="1" />
<path d="M 245.50 405.50 C 242.82 409.21, 237.41 406.34, 234.50 409.50 C 229.95 411.92, 225.58 412.36, 221.50 413.50 C 216.93 415.72, 212.90 415.87, 209.50 417.50 C 204.53 419.90, 200.14 420.30, 196.50 422.50 C 191.95 423.78, 188.04 424.19, 184.50 425.50 C 179.44 427.68, 175.08 428.15, 171.50 430.50 C 167.31 432.64, 162.36 430.54, 159.50 433.50 C 154.83 435.64, 149.93 434.80, 146.50 437.50 C 141.98 438.02, 137.14 438.76, 135.50 441.50 C 137.17 446.36, 138.31 450.44, 139.50 454.50 C 141.23 459.00, 141.77 463.00, 143.50 466.50 C 143.88 471.62, 144.82 475.50, 145.50 479.50 C 146.78 484.05, 147.19 487.96, 148.50 491.50 C 149.52 497.33, 156.01 499.16, 159.50 496.50 C 164.74 496.09, 168.74 495.09, 172.50 493.50 C 177.27 491.95, 181.41 491.28, 185.50 490.50 C 189.72 488.41, 194.06 489.04, 197.50 487.50 C 202.59 486.71, 206.13 484.61, 210.50 484.50 C 215.56 483.79, 218.44 481.21, 222.50 481.50 C 227.86 480.38, 231.57 478.67, 235.50 477.50 C 239.85 475.73, 244.09 476.13, 247.50 474.50 C 252.04 472.39, 256.34 472.11, 260.50 471.50 C 265.68 469.94, 269.24 467.87, 273.50 467.50 C 278.25 465.56, 282.60 465.08, 286.50 463.50 C 293.51 463.01, 288.52 457.79, 288.50 454.50 C 286.94 449.32, 284.87 445.76, 284.50 441.50 C 282.80 437.40, 283.72 433.21, 283.50 429.50 C 282.74 424.05, 285.07 420.87, 284.50 416.50 C 284.80 412.66, 290.52 406.61, 285.50 406.50 C 280.43 406.99, 276.17 407.02, 272.50 408.50 C 267.05 407.76, 263.70 409.66, 259.50 409.50 C 254.35 408.53, 250.64 406.49, 246.50 405.50 Z" fill="rgb(223.82608695652175,134.3913043478261,128.95652173913044)" stroke="rgb(223.82608695652175,134.3913043478261,128.95652173913044)" stroke-width="1" />
<path d="M 240.50 407.50 C 238.21 409.60, 230.21 409.71, 231.50 412.50 C 230.43 419.97, 225.92 411.51, 221.50 414.50 C 216.21 414.65, 213.32 417.21, 209.50 417.50 C 204.17 419.05, 200.46 421.07, 196.50 422.50 C 191.98 423.86, 188.18 424.53, 184.50 425.50 C 179.08 426.50, 175.96 429.60, 171.50 429.50 C 166.85 431.53, 162.67 431.30, 159.50 433.50 C 154.32 434.06, 150.76 436.13, 146.50 436.50 C 142.61 438.45, 137.17 437.99, 135.50 440.50 C 136.29 445.59, 138.39 449.13, 138.50 453.50 C 140.29 458.25, 141.54 461.82, 142.50 465.50 C 143.99 470.57, 144.02 474.83, 145.50 478.50 C 145.49 483.59, 147.16 486.97, 148.50 490.50 C 150.26 495.17, 154.03 499.86, 158.50 496.50 C 163.91 496.49, 167.85 495.35, 171.50 493.50 C 176.52 492.55, 180.49 491.47, 184.50 490.50 C 188.77 488.53, 193.12 489.19, 196.50 487.50 C 201.68 486.94, 205.24 484.87, 209.50 484.50 C 214.64 483.65, 217.76 481.32, 221.50 480.50 C 226.86 480.38, 230.57 478.67, 234.50 477.50 C 238.89 475.83, 242.78 475.38, 246.50 474.50 C 251.50 472.82, 255.38 471.88, 259.50 471.50 C 264.43 469.33, 268.14 467.62, 272.50 467.50 C 277.48 465.44, 281.74 465.08, 285.50 463.50 C 291.16 461.79, 288.22 456.96, 287.50 453.50 C 284.99 448.99, 285.68 444.15, 283.50 440.50 C 281.59 435.88, 283.21 432.91, 282.50 428.50 C 283.81 423.63, 282.17 418.53, 285.50 415.50 C 286.11 410.44, 285.52 406.42, 280.50 407.50 C 275.31 408.37, 271.17 408.36, 267.50 409.50 C 262.50 409.50, 258.50 409.50, 254.50 409.50 C 250.10 406.72, 245.52 407.78, 241.50 407.50 Z" fill="rgb(228.99254376485845,136.9955694834666,130.9967581586341)" stroke="rgb(228.99254376485845,136.9955694834666,130.9967581586341)" stroke-width="1" />
<path d="M 113.50 120.50 C 111.17 122.78, 106.91 120.40, 104.50 122.50 C 100.32 123.53, 96.56 123.18, 93.50 124.50 C 89.27 125.42, 86.01 126.27, 82.50 126.50 C 78.10 128.02, 74.90 128.98, 71.50 129.50 C 63.35 131.33, 57.25 134.69, 50.50 136.50 C 46.58 139.16, 42.51 139.05, 39.50 141.50 C 35.18 143.21, 31.41 143.82, 28.50 146.50 C 24.95 147.57, 20.43 148.78, 18.50 145.50 C 15.02 145.58, 17.00 150.78, 17.50 153.50 C 19.87 157.96, 22.50 160.89, 23.50 164.50 C 25.81 168.98, 27.49 172.31, 29.50 175.50 C 31.94 179.51, 33.16 183.03, 34.50 186.50 C 37.63 190.64, 38.29 194.39, 40.50 197.50 C 42.16 201.43, 44.74 207.09, 48.50 203.50 C 53.26 203.54, 56.18 201.52, 59.50 200.50 C 66.88 197.82, 74.06 197.04, 80.50 194.50 C 84.49 192.67, 88.35 192.94, 91.50 191.50 C 95.60 189.59, 99.73 190.19, 102.50 187.50 C 111.04 187.13, 117.14 183.30, 124.50 182.50 C 132.35 180.13, 139.59 178.72, 146.50 176.50 C 151.02 177.10, 153.16 174.35, 156.50 174.50 C 160.10 172.59, 165.44 173.82, 166.50 170.50 C 164.74 166.20, 164.63 162.23, 161.50 159.50 C 159.58 155.13, 159.15 151.15, 155.50 148.50 C 151.92 139.50, 143.31 134.13, 136.50 129.50 C 132.23 127.36, 128.61 126.03, 125.50 123.50 C 121.37 122.02, 118.50 119.88, 114.50 120.50 Z" fill="rgb(228.74241664577588,136.87076961644522,130.8985961393833)" stroke="rgb(228.74241664577588,136.87076961644522,130.8985961393833)" stroke-width="1" />
<path d="M 179.50 18.50 C 175.86 20.93, 178.13 25.82, 177.50 29.50 C 177.55 34.76, 178.08 38.81, 179.50 42.50 C 181.33 47.43, 182.60 51.60, 184.50 55.50 C 187.54 61.22, 191.42 62.73, 195.50 65.50 C 199.90 69.82, 203.72 72.11, 207.50 74.50 C 212.70 78.03, 216.37 81.81, 220.50 84.50 C 225.40 89.39, 228.62 92.81, 231.50 96.50 C 236.17 101.22, 238.71 105.41, 241.50 109.50 C 244.04 114.36, 247.61 117.37, 248.50 121.50 C 250.53 126.76, 254.15 129.95, 254.50 134.50 C 256.68 139.70, 258.71 143.55, 260.50 147.50 C 262.70 152.14, 263.10 156.53, 264.50 160.50 C 266.27 164.85, 265.87 169.09, 267.50 172.50 C 268.56 177.48, 268.92 181.74, 270.50 185.50 C 269.22 192.79, 275.04 191.68, 278.50 189.50 C 283.43 188.33, 287.14 186.62, 291.50 186.50 C 296.35 184.95, 299.91 183.70, 303.50 182.50 C 308.05 180.62, 314.06 181.14, 315.50 176.50 C 316.18 171.22, 315.21 167.21, 313.50 163.50 C 312.19 158.49, 310.81 154.51, 309.50 150.50 C 308.35 145.34, 305.63 142.25, 304.50 138.50 C 301.70 133.69, 299.63 129.58, 297.50 125.50 C 294.29 120.31, 291.59 116.32, 288.50 112.50 C 284.52 107.35, 281.15 103.37, 277.50 99.50 C 272.46 95.40, 271.37 91.08, 268.50 87.50 C 264.52 82.35, 261.15 78.37, 257.50 74.50 C 253.95 69.04, 249.15 65.51, 245.50 61.50 C 240.28 57.69, 236.55 53.72, 232.50 50.50 C 227.31 47.29, 223.32 44.59, 219.50 41.50 C 214.70 39.02, 210.73 36.94, 206.50 35.50 C 200.97 33.45, 198.10 28.39, 193.50 27.50 C 188.70 23.35, 185.92 17.73, 180.50 18.50 Z" fill="rgb(252.2453605514316,220.52372746553553,129.2367444326617)" stroke="rgb(252.2453605514316,220.52372746553553,129.2367444326617)" stroke-width="1" />
<path d="M 316.50 191.50 C 313.94 193.22, 310.29 192.32, 307.50 193.50 C 302.46 192.47, 300.01 195.27, 296.50 195.50 C 292.29 196.80, 288.80 197.42, 285.50 198.50 C 281.59 200.53, 277.13 198.80, 274.50 201.50 C 270.52 203.36, 266.93 203.74, 263.50 204.50 C 259.72 206.83, 255.62 205.99, 252.50 207.50 C 245.10 211.29, 237.12 211.25, 230.50 214.50 C 226.58 215.68, 222.68 214.51, 220.50 217.50 C 216.27 218.42, 213.01 219.27, 209.50 219.50 C 203.93 220.52, 208.21 225.57, 207.50 228.50 C 207.34 232.68, 213.67 231.18, 211.50 236.50 C 209.54 240.56, 210.84 244.32, 211.50 247.50 C 212.82 251.56, 212.47 255.32, 213.50 258.50 C 213.80 263.26, 215.50 266.03, 215.50 269.50 C 219.55 272.70, 219.03 275.47, 220.50 277.50 C 224.55 276.61, 227.66 275.88, 230.50 274.50 C 233.88 271.21, 238.38 273.02, 241.50 271.50 C 245.23 268.72, 249.61 269.92, 252.50 267.50 C 257.05 267.36, 259.79 265.25, 263.50 265.50 C 268.21 264.75, 270.95 262.64, 274.50 262.50 C 279.60 262.36, 281.64 258.22, 285.50 258.50 C 288.67 254.69, 293.71 257.80, 296.50 255.50 C 300.57 253.86, 303.38 251.60, 307.50 252.50 C 311.74 250.27, 315.35 249.95, 318.50 248.50 C 323.15 247.93, 325.63 244.53, 329.50 244.50 C 333.45 244.18, 338.73 243.99, 338.50 240.50 C 338.75 235.79, 336.64 233.05, 336.50 229.50 C 335.03 221.28, 332.78 214.38, 330.50 207.50 C 327.59 200.55, 326.77 189.72, 317.50 191.50 Z" fill="rgb(41.830963154492565,51.28377504848093,64.60019392372334)" stroke="rgb(41.830963154492565,51.28377504848093,64.60019392372334)" stroke-width="1" />
<path d="M 380.50 234.50 C 374.40 236.40, 367.53 236.43, 361.50 238.50 C 357.29 238.66, 354.71 240.34, 351.50 240.50 C 346.52 241.88, 349.54 246.78, 350.50 249.50 C 358.19 257.25, 363.76 262.45, 370.50 268.50 C 376.56 277.38, 385.43 276.06, 391.50 281.50 C 398.91 285.75, 405.19 292.56, 407.50 299.50 C 409.14 307.25, 411.56 313.80, 409.50 320.50 C 408.79 328.70, 405.96 335.02, 403.50 341.50 C 402.88 344.80, 396.73 349.85, 401.50 349.50 C 406.11 347.83, 409.39 346.37, 412.50 344.50 C 419.71 341.54, 426.51 339.99, 432.50 336.50 C 440.21 333.93, 446.94 331.43, 453.50 328.50 C 461.11 325.69, 467.66 322.76, 474.50 320.50 C 480.60 320.21, 478.01 314.35, 476.50 312.50 C 472.42 307.89, 468.51 306.29, 465.50 302.50 C 458.08 296.23, 451.18 291.14, 444.50 285.50 C 436.89 278.35, 429.99 272.94, 423.50 266.50 C 415.59 260.74, 409.46 254.12, 402.50 249.50 C 398.90 245.20, 395.25 244.42, 392.50 241.50 C 388.22 238.37, 385.67 234.49, 381.50 234.50 Z" fill="rgb(226.71641791044777,135.84328358208955,130.11194029850745)" stroke="rgb(226.71641791044777,135.84328358208955,130.11194029850745)" stroke-width="1" />
<path d="M 355.50 239.50 C 353.58 241.08, 346.76 240.54, 350.50 244.50 C 346.47 247.31, 352.45 251.21, 354.50 253.50 C 360.32 259.36, 367.44 265.62, 373.50 271.50 C 377.11 273.61, 378.37 277.63, 382.50 276.50 C 386.82 279.21, 390.59 279.82, 393.50 282.50 C 401.18 287.84, 406.83 295.10, 408.50 302.50 C 411.20 305.66, 407.80 310.34, 410.50 312.50 C 409.72 316.65, 409.16 319.89, 409.50 323.50 C 407.68 331.79, 404.37 338.06, 401.50 344.50 C 396.97 349.22, 401.13 350.14, 404.50 348.50 C 409.23 347.12, 412.12 344.73, 415.50 343.50 C 423.03 340.50, 429.90 338.32, 436.50 335.50 C 440.03 333.03, 443.79 333.54, 446.50 331.50 C 450.61 329.63, 453.89 328.17, 457.50 327.50 C 465.36 324.29, 472.18 322.01, 478.50 318.50 C 477.17 309.07, 466.93 305.01, 461.50 299.50 C 453.75 293.03, 447.05 287.46, 440.50 281.50 C 432.51 275.61, 426.54 268.27, 419.50 263.50 C 412.05 256.65, 405.69 250.57, 398.50 246.50 C 394.59 243.29, 392.22 239.76, 388.50 239.50 C 385.02 242.24, 379.98 238.76, 377.50 241.50 C 369.72 240.45, 362.71 240.93, 356.50 239.50 Z" fill="rgb(228.76384839650146,136.91089650145773,130.94806851311952)" stroke="rgb(228.76384839650146,136.91089650145773,130.94806851311952)" stroke-width="1" />
<path d="M 367.50 120.50 C 362.59 123.20, 356.58 123.21, 351.50 125.50 C 344.86 127.22, 339.05 128.56, 333.50 130.50 C 327.49 132.86, 319.77 132.27, 316.50 136.50 C 319.14 143.04, 321.34 148.76, 323.50 154.50 C 325.55 160.68, 326.90 166.14, 328.50 171.50 C 329.64 178.52, 332.17 183.97, 334.50 189.50 C 335.88 196.29, 337.79 201.85, 339.50 207.50 C 341.02 214.23, 342.98 219.77, 344.50 225.50 C 344.95 233.09, 352.57 230.81, 357.50 229.50 C 364.27 228.75, 369.80 227.41, 375.50 226.50 C 384.26 226.16, 378.05 215.52, 381.50 211.50 C 382.44 205.45, 379.39 199.53, 380.50 193.50 C 379.98 186.36, 378.43 181.06, 377.50 175.50 C 376.86 168.68, 376.22 162.87, 374.50 157.50 C 374.84 150.42, 372.16 145.58, 372.50 139.50 C 369.90 133.36, 370.31 126.97, 368.50 121.50 Z" fill="rgb(208.85526315789474,127.19736842105263,123.40789473684211)" stroke="rgb(208.85526315789474,127.19736842105263,123.40789473684211)" stroke-width="1" />
<path d="M 366.50 121.50 C 361.42 123.77, 355.53 124.09, 350.50 126.50 C 343.61 127.30, 338.74 130.55, 332.50 130.50 C 326.89 133.66, 319.61 133.07, 316.50 136.50 C 319.85 142.75, 321.47 148.71, 323.50 154.50 C 324.88 161.23, 327.68 165.95, 328.50 171.50 C 330.08 178.34, 332.08 184.01, 334.50 189.50 C 336.45 196.05, 337.40 202.01, 339.50 207.50 C 341.43 214.06, 342.96 219.78, 344.50 225.50 C 345.30 232.69, 354.23 230.66, 358.50 229.50 C 364.99 227.74, 371.28 227.90, 376.50 225.50 C 383.97 224.78, 378.14 214.40, 381.50 210.50 C 381.60 203.12, 379.77 197.69, 379.50 192.50 C 379.14 185.82, 378.62 181.47, 377.50 175.50 C 376.02 169.03, 376.14 162.90, 374.50 157.50 C 374.78 153.44, 374.01 150.82, 372.50 148.50 C 372.93 145.99, 372.99 141.53, 371.50 139.50 C 370.07 132.24, 369.92 126.52, 367.50 121.50 Z" fill="rgb(228.99291961682633,136.9960433152853,130.9987505206164)" stroke="rgb(228.99291961682633,136.9960433152853,130.9987505206164)" stroke-width="1" />
<path d="M 337.50 252.50 C 334.32 253.88, 330.96 254.80, 327.50 255.50 C 323.04 257.20, 319.68 258.12, 316.50 259.50 C 311.88 259.82, 308.91 261.68, 305.50 262.50 C 301.20 264.71, 296.52 263.60, 293.50 266.50 C 289.04 267.20, 285.68 268.12, 282.50 269.50 C 277.88 270.96, 273.91 271.54, 270.50 273.50 C 266.04 274.20, 262.68 275.12, 259.50 276.50 C 254.96 277.80, 251.04 278.20, 247.50 279.50 C 243.56 281.46, 239.34 280.32, 236.50 282.50 C 231.78 283.38, 228.32 284.87, 224.50 285.50 C 221.14 288.77, 226.19 292.39, 227.50 295.50 C 230.14 300.04, 231.86 303.96, 234.50 307.50 C 237.03 311.61, 238.36 315.23, 240.50 318.50 C 242.29 321.85, 245.30 330.39, 246.50 323.50 C 248.24 318.92, 250.35 315.91, 251.50 312.50 C 254.66 307.76, 257.01 304.10, 259.50 300.50 C 261.90 295.46, 266.57 293.24, 269.50 290.50 C 273.54 287.99, 277.21 287.00, 281.50 287.50 C 286.06 288.95, 289.87 289.79, 292.50 293.50 C 296.84 297.75, 298.07 301.87, 300.50 305.50 C 300.54 310.09, 303.28 312.57, 302.50 316.50 C 302.61 321.06, 301.13 326.20, 306.50 324.50 C 310.69 322.49, 314.02 320.81, 317.50 319.50 C 321.97 317.38, 328.29 314.38, 323.50 310.50 C 320.17 306.44, 318.33 303.18, 317.50 299.50 C 317.14 294.27, 318.25 290.65, 320.50 287.50 C 324.35 283.01, 327.96 281.34, 331.50 279.50 C 336.18 277.53, 339.98 276.86, 343.50 275.50 C 347.65 274.72, 350.89 274.16, 354.50 274.50 C 358.81 274.79, 365.45 275.17, 361.50 270.50 C 357.24 266.32, 353.54 264.21, 350.50 260.50 C 346.00 256.76, 343.68 251.17, 338.50 252.50 Z" fill="rgb(218.6641664650375,219.740866198887,219.8463585773046)" stroke="rgb(218.6641664650375,219.740866198887,219.8463585773046)" stroke-width="1" />
<path d="M 314.50 201.50 C 309.87 203.73, 304.75 204.77, 299.50 205.50 C 292.88 207.15, 287.88 209.29, 282.50 210.50 C 276.51 213.00, 270.76 213.65, 265.50 215.50 C 259.51 218.00, 253.76 218.65, 248.50 220.50 C 242.69 222.62, 237.31 223.38, 232.50 225.50 C 227.63 228.07, 217.09 226.77, 220.50 233.50 C 222.38 239.61, 222.04 245.63, 224.50 250.50 C 225.43 255.53, 224.93 266.60, 231.50 262.50 C 237.70 261.65, 242.48 259.78, 247.50 258.50 C 253.58 256.23, 259.47 255.91, 264.50 253.50 C 270.76 251.65, 276.51 251.00, 281.50 248.50 C 288.07 247.74, 292.93 245.26, 298.50 244.50 C 304.84 242.99, 309.52 240.89, 314.50 239.50 C 318.97 236.91, 330.75 238.10, 327.50 231.50 C 327.12 224.77, 324.72 219.88, 323.50 214.50 C 320.62 209.59, 322.59 200.09, 315.50 201.50 Z" fill="rgb(0.0,0.0,0.07003792667509481)" stroke="rgb(0.0,0.0,0.07003792667509481)" stroke-width="1" />
<path d="M 319.50 70.50 C 315.83 71.98, 311.57 72.01, 307.50 72.50 C 302.94 74.23, 298.32 73.39, 294.50 74.50 C 289.38 76.52, 286.04 74.07, 281.50 74.50 C 271.83 75.18, 280.93 80.77, 282.50 84.50 C 287.40 89.13, 289.85 93.36, 292.50 97.50 C 296.84 102.36, 299.00 106.71, 302.50 110.50 C 305.04 115.42, 307.13 119.51, 309.50 123.50 C 311.36 131.04, 317.21 123.96, 321.50 125.50 C 326.51 123.53, 330.48 122.45, 334.50 121.50 C 339.74 120.09, 343.74 119.09, 347.50 117.50 C 352.68 116.94, 356.24 114.87, 360.50 114.50 C 368.69 113.77, 364.78 109.46, 364.50 104.50 C 363.37 98.87, 359.01 95.98, 358.50 91.50 C 354.37 86.47, 351.50 80.78, 346.50 78.50 C 343.48 74.36, 338.01 73.41, 334.50 71.50 C 329.79 69.65, 324.84 70.82, 320.50 70.50 Z" fill="rgb(201.5,123.03333333333333,120.3)" stroke="rgb(201.5,123.03333333333333,120.3)" stroke-width="1" />
<path d="M 319.50 70.50 C 315.83 71.98, 311.57 72.01, 307.50 72.50 C 302.76 73.81, 298.45 73.70, 294.50 74.50 C 289.38 76.52, 286.04 74.07, 281.50 74.50 C 272.10 75.33, 280.41 80.35, 282.50 83.50 C 285.48 87.47, 289.27 91.71, 291.50 95.50 C 295.33 100.62, 297.53 103.31, 300.50 107.50 C 302.77 112.94, 306.09 116.53, 308.50 120.50 C 310.32 127.31, 314.47 126.81, 319.50 125.50 C 324.12 123.26, 328.69 123.30, 332.50 121.50 C 337.43 120.33, 341.14 118.62, 345.50 118.50 C 350.60 116.74, 354.57 115.66, 358.50 114.50 C 364.49 113.94, 367.53 110.54, 364.50 105.50 C 362.49 100.50, 361.10 96.25, 358.50 92.50 C 355.08 87.06, 352.20 82.41, 347.50 78.50 C 342.61 75.24, 338.95 72.42, 334.50 71.50 C 329.79 69.65, 324.84 70.82, 320.50 70.50 Z" fill="rgb(228.95535714285714,136.9716748768473,130.9682881773399)" stroke="rgb(228.95535714285714,136.9716748768473,130.9682881773399)" stroke-width="1" />
<path d="M 272.50 305.50 C 268.30 307.56, 263.86 311.18, 261.50 315.50 C 258.47 320.41, 257.67 325.24, 255.50 329.50 C 254.50 334.83, 253.68 339.24, 252.50 343.50 C 251.44 348.67, 250.45 352.87, 250.50 357.50 C 249.50 362.50, 249.50 366.50, 249.50 370.50 C 249.08 376.15, 249.87 380.29, 250.50 384.50 C 251.50 390.02, 253.57 395.58, 258.50 397.50 C 263.99 398.55, 268.56 398.78, 272.50 397.50 C 275.82 393.93, 283.57 396.77, 282.50 391.50 C 282.40 385.31, 283.00 382.27, 282.50 377.50 C 283.25 370.90, 279.12 368.73, 277.50 364.50 C 280.59 359.20, 283.69 354.91, 286.50 350.50 C 288.35 345.85, 289.49 341.91, 289.50 337.50 C 291.35 332.79, 290.18 327.84, 290.50 323.50 C 290.48 317.62, 290.01 312.93, 286.50 309.50 C 282.94 305.64, 278.45 305.00, 273.50 305.50 Z" fill="rgb(251.9434724091521,220.28701211305517,129.10935397039032)" stroke="rgb(251.9434724091521,220.28701211305517,129.10935397039032)" stroke-width="1" />
<path d="M 478.50 328.50 C 474.64 330.50, 470.48 331.79, 466.50 333.50 C 461.88 336.09, 457.35 336.46, 453.50 338.50 C 448.79 340.86, 444.57 342.01, 440.50 343.50 C 434.88 345.47, 430.76 347.65, 426.50 349.50 C 421.52 351.21, 417.36 352.50, 413.50 354.50 C 408.38 356.60, 400.90 359.00, 409.50 360.50 C 414.44 361.97, 418.96 362.05, 422.50 364.50 C 428.57 366.37, 431.48 369.08, 435.50 371.50 C 440.64 375.49, 444.76 378.53, 448.50 382.50 C 453.82 387.42, 456.08 392.20, 459.50 396.50 C 464.31 395.04, 468.20 392.78, 472.50 391.50 C 477.54 387.68, 483.34 386.15, 484.50 380.50 C 484.50 375.50, 484.50 371.50, 484.50 367.50 C 484.50 362.17, 484.50 357.83, 484.50 353.50 C 484.50 348.50, 484.50 344.50, 484.50 340.50 C 484.47 335.36, 484.31 328.77, 479.50 328.50 Z" fill="rgb(226.7530864197531,135.90123456790124,130.02469135802468)" stroke="rgb(226.7530864197531,135.90123456790124,130.02469135802468)" stroke-width="1" />
<path d="M 476.50 329.50 C 472.88 332.41, 467.90 332.05, 464.50 335.50 C 459.20 336.43, 455.36 338.50, 451.50 340.50 C 446.43 341.99, 442.21 343.14, 438.50 345.50 C 433.54 344.95, 429.16 350.45, 424.50 350.50 C 419.17 352.05, 415.46 354.07, 411.50 355.50 C 403.87 357.02, 407.42 361.27, 412.50 360.50 C 418.25 361.34, 421.86 363.97, 425.50 366.50 C 431.13 368.46, 435.30 371.51, 439.50 374.50 C 444.11 377.43, 447.72 382.01, 451.50 385.50 C 455.76 389.46, 456.92 395.99, 461.50 396.50 C 466.41 393.94, 470.79 392.53, 474.50 389.50 C 480.12 387.59, 484.22 383.72, 484.50 378.50 C 484.50 373.50, 484.50 369.50, 484.50 365.50 C 484.55 360.01, 484.78 355.44, 483.50 351.50 C 483.50 346.50, 483.50 342.50, 483.50 338.50 C 484.15 332.79, 483.32 327.74, 477.50 329.50 Z" fill="rgb(228.99618453000346,136.9972251127298,130.99791883454733)" stroke="rgb(228.99618453000346,136.9972251127298,130.99791883454733)" stroke-width="1" />
<path d="M 218.50 93.50 C 215.72 96.34, 208.48 94.44, 208.50 99.50 C 211.51 105.52, 218.49 108.48, 220.50 113.50 C 224.48 118.37, 226.99 122.44, 229.50 126.50 C 233.06 131.32, 233.53 136.43, 236.50 140.50 C 237.41 145.95, 241.22 149.20, 242.50 153.50 C 243.04 158.75, 244.28 163.12, 245.50 167.50 C 247.63 172.50, 248.60 176.99, 249.50 181.50 C 250.43 187.41, 252.22 191.56, 254.50 195.50 C 259.32 195.74, 265.42 195.21, 264.50 190.50 C 264.41 185.12, 260.92 180.23, 262.50 176.50 C 260.60 171.13, 259.05 167.02, 258.50 162.50 C 257.08 156.79, 254.75 152.87, 253.50 148.50 C 251.95 143.17, 249.93 139.46, 248.50 135.50 C 246.66 129.69, 243.73 125.74, 241.50 121.50 C 238.84 115.75, 235.02 111.89, 232.50 107.50 C 228.66 101.69, 223.45 97.85, 219.50 93.50 Z" fill="rgb(38.56410256410256,41.3525641025641,56.30769230769231)" stroke="rgb(38.56410256410256,41.3525641025641,56.30769230769231)" stroke-width="1" />
<path d="M 290.50 463.50 C 284.66 465.56, 278.63 467.14, 272.50 468.50 C 265.80 471.24, 259.27 471.93, 253.50 474.50 C 246.31 475.71, 240.42 477.65, 234.50 479.50 C 227.51 481.19, 221.44 482.68, 215.50 484.50 C 208.60 486.40, 202.27 487.27, 196.50 489.50 C 189.66 491.54, 183.19 492.07, 177.50 494.50 C 170.34 495.44, 164.82 497.94, 158.50 498.50 C 154.49 499.00, 152.63 501.28, 149.50 500.50 C 146.74 502.24, 146.50 508.64, 150.50 507.50 C 157.83 506.97, 163.07 503.79, 169.50 503.50 C 176.83 501.97, 182.07 498.79, 188.50 498.50 C 196.10 497.61, 201.24 494.20, 207.50 493.50 C 214.10 490.87, 220.63 490.48, 226.50 488.50 C 233.44 486.70, 239.21 484.47, 245.50 483.50 C 252.19 481.08, 258.29 479.67, 264.50 478.50 C 271.70 476.32, 277.66 474.56, 283.50 472.50 C 287.52 471.54, 290.48 470.46, 293.50 469.50 C 298.60 468.67, 294.74 462.78, 291.50 463.50 Z" fill="rgb(23.836717428087987,34.00423011844332,50.5507614213198)" stroke="rgb(23.836717428087987,34.00423011844332,50.5507614213198)" stroke-width="1" />
<path d="M 239.50 398.50 C 234.77 400.82, 229.79 402.54, 224.50 403.50 C 218.23 405.51, 213.58 408.02, 208.50 409.50 C 202.70 411.65, 197.40 412.59, 192.50 414.50 C 186.46 416.88, 181.08 418.42, 175.50 419.50 C 169.30 421.35, 164.52 423.22, 159.50 424.50 C 153.67 426.25, 148.85 428.02, 143.50 428.50 C 137.27 429.94, 132.65 431.87, 127.50 432.50 C 121.26 431.64, 113.56 439.97, 122.50 440.50 C 128.84 439.99, 133.52 437.89, 138.50 436.50 C 144.62 435.45, 149.60 434.07, 154.50 432.50 C 160.52 431.22, 165.30 429.35, 170.50 428.50 C 177.39 427.51, 181.61 423.49, 187.50 423.50 C 193.71 421.33, 198.70 419.66, 203.50 417.50 C 209.88 415.96, 214.91 413.55, 220.50 412.50 C 226.71 410.33, 231.70 408.66, 236.50 406.50 C 243.51 406.16, 250.46 399.28, 240.50 398.50 Z" fill="rgb(29.25251509054326,36.65291750503018,52.6317907444668)" stroke="rgb(29.25251509054326,36.65291750503018,52.6317907444668)" stroke-width="1" />
<path d="M 164.50 173.50 C 159.89 175.78, 154.37 175.86, 149.50 177.50 C 143.53 179.70, 137.77 180.00, 132.50 181.50 C 126.25 183.23, 121.13 184.27, 116.50 186.50 C 109.97 187.36, 104.92 189.38, 99.50 190.50 C 93.88 193.09, 88.21 193.13, 83.50 195.50 C 77.13 197.07, 71.58 198.21, 66.50 200.50 C 60.65 202.52, 55.11 202.88, 50.50 205.50 C 47.58 206.00, 44.05 206.01, 43.50 207.50 C 42.23 211.58, 44.57 215.00, 47.50 212.50 C 53.32 210.40, 58.81 209.91, 63.50 207.50 C 69.76 205.65, 75.51 205.00, 80.50 202.50 C 86.68 201.59, 91.32 199.41, 96.50 198.50 C 102.49 196.00, 108.24 195.35, 113.50 193.50 C 119.50 192.16, 124.45 190.70, 129.50 189.50 C 135.59 187.59, 140.93 186.26, 146.50 185.50 C 152.54 183.26, 158.00 183.05, 162.50 180.50 C 170.10 182.10, 173.83 172.31, 165.50 173.50 Z" fill="rgb(30.48539778449144,37.26283987915408,53.12286002014099)" stroke="rgb(30.48539778449144,37.26283987915408,53.12286002014099)" stroke-width="1" />
<path d="M 181.50 273.50 C 177.12 275.53, 171.75 275.17, 167.50 277.50 C 161.59 277.91, 157.44 280.16, 152.50 280.50 C 147.03 282.31, 142.19 283.23, 137.50 284.50 C 131.77 286.50, 126.55 287.28, 121.50 288.50 C 116.15 290.60, 111.53 292.04, 106.50 292.50 C 100.30 294.35, 95.52 296.22, 90.50 297.50 C 85.21 300.08, 79.72 299.76, 75.50 302.50 C 68.78 301.04, 62.50 309.26, 70.50 310.50 C 76.09 308.64, 81.07 307.74, 85.50 305.50 C 91.35 304.60, 95.72 302.56, 100.50 301.50 C 105.97 299.70, 110.67 298.44, 115.50 297.50 C 121.12 294.91, 126.79 294.87, 131.50 292.50 C 137.35 291.93, 141.50 289.68, 146.50 289.50 C 152.65 287.87, 157.27 285.94, 162.50 285.50 C 168.50 284.32, 172.65 282.07, 177.50 281.50 C 183.37 281.78, 189.74 275.40, 182.50 273.50 Z" fill="rgb(30.876741693461952,37.41586280814577,53.32583065380493)" stroke="rgb(30.876741693461952,37.41586280814577,53.32583065380493)" stroke-width="1" />
<path d="M 357.50 283.50 C 360.39 285.92, 364.77 284.72, 367.50 287.50 C 372.56 288.88, 376.25 291.17, 379.50 294.50 C 384.61 298.57, 386.23 302.67, 388.50 306.50 C 390.78 310.50, 390.60 314.52, 390.50 318.50 C 391.20 323.26, 389.50 326.03, 389.50 329.50 C 388.03 334.52, 386.09 337.94, 384.50 341.50 C 382.60 346.07, 380.02 349.36, 379.50 353.50 C 377.04 361.02, 385.53 354.95, 384.50 351.50 C 384.26 346.10, 388.81 343.69, 391.50 340.50 C 394.62 335.74, 397.60 332.35, 399.50 328.50 C 401.90 324.41, 400.51 319.76, 402.50 316.50 C 403.28 311.37, 401.15 308.45, 401.50 304.50 C 399.06 299.94, 397.81 296.29, 394.50 293.50 C 389.87 290.41, 386.97 286.56, 382.50 286.50 C 377.65 285.27, 374.65 283.01, 370.50 283.50 C 365.83 283.50, 362.17 283.50, 358.50 283.50 Z" fill="rgb(0.0,0.0,0.1459521094640821)" stroke="rgb(0.0,0.0,0.1459521094640821)" stroke-width="1" />
<path d="M 218.50 93.50 C 215.85 96.43, 204.09 95.41, 210.50 101.50 C 216.17 107.22, 220.29 112.17, 223.50 117.50 C 227.91 123.33, 230.55 128.48, 233.50 133.50 C 236.54 138.68, 237.21 145.40, 240.50 148.50 C 245.15 147.22, 254.24 147.12, 250.50 141.50 C 248.42 135.40, 245.51 130.63, 243.50 125.50 C 240.33 119.16, 237.24 114.19, 233.50 109.50 C 229.36 103.00, 224.32 98.30, 219.50 93.50 Z" fill="rgb(223.1437125748503,134.0682634730539,128.70419161676648)" stroke="rgb(223.1437125748503,134.0682634730539,128.70419161676648)" stroke-width="1" />
<path d="M 108.50 113.50 C 105.23 115.11, 101.08 114.62, 97.50 115.50 C 92.74 117.08, 88.48 117.44, 84.50 118.50 C 79.98 119.86, 76.18 120.53, 72.50 121.50 C 67.66 123.21, 63.39 123.90, 59.50 125.50 C 54.92 127.05, 51.38 128.69, 47.50 129.50 C 42.09 130.84, 38.68 133.60, 34.50 134.50 C 29.20 136.43, 25.36 138.50, 21.50 140.50 C 16.43 144.20, 23.46 150.82, 26.50 145.50 C 30.83 143.01, 34.84 142.18, 38.50 140.50 C 43.91 139.16, 47.09 135.84, 51.50 135.50 C 56.71 133.67, 60.70 132.33, 64.50 130.50 C 69.31 128.70, 73.88 128.74, 77.50 126.50 C 82.22 125.62, 86.11 125.17, 89.50 123.50 C 95.01 124.07, 98.13 121.27, 102.50 121.50 C 107.17 120.02, 111.43 119.99, 115.50 119.50 C 120.68 114.14, 112.09 115.70, 109.50 113.50 Z" fill="rgb(23.055263157894736,33.52763157894737,50.19736842105263)" stroke="rgb(23.055263157894736,33.52763157894737,50.19736842105263)" stroke-width="1" />
<path d="M 479.50 319.50 C 472.92 323.52, 465.08 324.48, 458.50 328.50 C 454.09 329.65, 451.08 331.76, 447.50 332.50 C 443.17 334.98, 438.95 335.32, 435.50 337.50 C 427.28 340.78, 419.69 343.16, 412.50 346.50 C 408.31 348.17, 404.93 349.40, 401.50 350.50 C 394.49 349.73, 396.40 361.24, 400.50 357.50 C 408.92 354.71, 416.44 352.15, 423.50 348.50 C 431.92 345.71, 439.44 343.15, 446.50 339.50 C 454.82 336.48, 462.41 334.09, 469.50 330.50 C 473.87 329.26, 477.13 327.74, 480.50 326.50 C 486.00 325.88, 485.31 317.97, 480.50 319.50 Z" fill="rgb(27.755364806866954,35.896995708154506,52.042918454935624)" stroke="rgb(27.755364806866954,35.896995708154506,52.042918454935624)" stroke-width="1" />
<path d="M 251.50 153.50 C 249.09 155.94, 241.01 154.84, 243.50 159.50 C 245.70 164.14, 246.10 168.53, 247.50 172.50 C 248.80 177.04, 250.32 180.49, 250.50 184.50 C 253.17 188.93, 251.53 194.89, 256.50 196.50 C 261.02 196.00, 267.21 193.59, 263.50 189.50 C 263.50 184.23, 261.50 180.77, 261.50 176.50 C 260.79 171.44, 258.21 168.56, 258.50 164.50 C 256.78 159.97, 256.89 153.63, 252.50 153.50 Z" fill="rgb(221.95135135135135,133.45585585585584,128.2108108108108)" stroke="rgb(221.95135135135135,133.45585585585584,128.2108108108108)" stroke-width="1" />
<path d="M 373.50 119.50 C 369.90 120.63, 369.07 121.82, 370.50 125.50 C 371.56 129.34, 371.79 132.52, 372.50 135.50 C 373.86 142.69, 375.21 148.87, 375.50 155.50 C 377.42 162.12, 377.71 168.41, 378.50 174.50 C 380.54 181.40, 380.23 188.28, 381.50 194.50 C 383.20 190.07, 382.28 183.54, 382.50 177.50 C 383.26 169.71, 381.24 164.08, 381.50 157.50 C 381.46 149.91, 380.50 143.70, 379.50 137.50 C 380.19 133.07, 377.81 130.93, 378.50 127.50 C 376.28 124.64, 378.84 118.64, 374.50 119.50 Z" fill="rgb(0.5604395604395604,0.5604395604395604,0.8879120879120879)" stroke="rgb(0.5604395604395604,0.5604395604395604,0.8879120879120879)" stroke-width="1" />
<path d="M 369.50 112.50 C 365.23 114.80, 360.23 115.31, 355.50 116.50 C 349.67 118.25, 344.85 120.02, 339.50 120.50 C 333.16 122.01, 328.48 124.11, 323.50 125.50 C 318.91 127.61, 308.53 126.82, 312.50 133.50 C 317.91 134.93, 323.77 131.57, 328.50 130.50 C 334.52 129.22, 339.30 127.35, 344.50 126.50 C 350.85 125.02, 355.67 123.25, 360.50 121.50 C 365.55 121.35, 374.79 118.04, 370.50 113.50 Z" fill="rgb(28.061674008810574,36.048458149779734,52.169603524229075)" stroke="rgb(28.061674008810574,36.048458149779734,52.169603524229075)" stroke-width="1" />
<path d="M 207.50 226.50 C 206.99 231.66, 208.87 235.82, 209.50 240.50 C 210.41 246.20, 211.75 250.73, 212.50 255.50 C 213.56 261.14, 214.99 265.63, 215.50 270.50 C 214.98 278.57, 220.68 280.21, 225.50 276.50 C 235.10 272.37, 222.56 276.02, 220.50 270.50 C 219.59 264.80, 218.25 260.27, 217.50 255.50 C 215.95 250.06, 216.22 244.87, 214.50 240.50 C 212.23 235.53, 214.43 227.05, 208.50 226.50 Z" fill="rgb(199.55555555555554,201.7017543859649,203.43859649122808)" stroke="rgb(199.55555555555554,201.7017543859649,203.43859649122808)" stroke-width="1" />
<path d="M 376.50 227.50 C 370.53 229.71, 363.49 229.34, 357.50 231.50 C 353.52 232.21, 350.34 232.44, 347.50 233.50 C 344.16 236.23, 346.53 241.09, 350.50 239.50 C 357.36 237.02, 364.07 236.61, 370.50 235.50 C 374.06 233.78, 377.71 234.68, 380.50 233.50 C 384.50 232.26, 381.41 225.67, 377.50 227.50 Z" fill="rgb(26.483516483516482,35.234432234432234,51.54945054945055)" stroke="rgb(26.483516483516482,35.234432234432234,51.54945054945055)" stroke-width="1" />
<path d="M 380.50 398.50 C 376.46 402.78, 383.34 406.01, 384.50 409.50 C 388.40 413.79, 389.12 418.70, 393.50 420.50 C 397.32 417.53, 394.34 411.88, 392.50 409.50 C 389.28 405.25, 386.59 399.05, 381.50 398.50 Z" fill="rgb(172.0,156.0,102.0)" stroke="rgb(172.0,156.0,102.0)" stroke-width="1" />
<path d="M 347.50 410.50 C 342.61 413.91, 347.82 418.66, 350.50 421.50 C 353.27 425.69, 351.74 432.10, 356.50 433.50 C 361.91 431.57, 358.29 425.73, 357.50 422.50 C 355.00 417.61, 352.81 412.75, 348.50 410.50 Z" fill="rgb(139.15384615384616,128.76923076923077,90.38461538461539)" stroke="rgb(139.15384615384616,128.76923076923077,90.38461538461539)" stroke-width="1" />
<path d="M 380.50 398.50 C 376.46 402.78, 383.34 406.01, 384.50 409.50 C 388.98 413.54, 388.75 418.85, 393.50 420.50 C 397.32 417.53, 394.34 411.88, 392.50 409.50 C 389.28 405.25, 386.59 399.05, 381.50 398.50 Z" fill="rgb(31.908571428571427,41.61714285714286,53.12571428571429)" stroke="rgb(31.908571428571427,41.61714285714286,53.12571428571429)" stroke-width="1" />
<path d="M 347.50 410.50 C 342.32 414.03, 348.98 418.16, 350.50 421.50 C 353.45 425.80, 352.13 431.67, 356.50 433.50 C 361.79 430.62, 358.26 425.82, 357.50 422.50 C 355.24 417.86, 352.31 412.15, 348.50 411.50 Z" fill="rgb(28.253086419753085,38.660493827160494,51.876543209876544)" stroke="rgb(28.253086419753085,38.660493827160494,51.876543209876544)" stroke-width="1" />
<path d="M 279.50 131.50 C 281.26 140.04, 285.74 135.93, 279.50 131.50 Z" fill="rgb(120.0,106.6470588235294,61.411764705882355)" stroke="rgb(120.0,106.6470588235294,61.411764705882355)" stroke-width="1" />
<path d="M 372.50 392.50 C 375.70 392.50, 375.70 392.50, 372.50 392.50 Z" fill="rgb(0.0,0.0,0.0)" stroke="rgb(0.0,0.0,0.0)" stroke-width="1" />
</svg>