<svg xmlns="http://www.w3.org/2000/svg" width="512" height="512" viewbox="0 0 512 512">
<path d="M 0.50 0.50 C 0.50 5.50, 0.50 10.50, 0.50 15.50 C 0.50 21.50, 0.50 26.50, 0.50 31.50 C 0.50 37.50, 0.50 42.50, 0.50 47.50 C 0.50 53.50, 0.50 58.50, 0.50 63.50 C 0.50 69.50, 0.50 74.50, 0.50 79.50 C 0.50 85.50, 0.50 90.50, 0.50 95.50 C 0.50 101.50, 0.50 106.50, 0.50 111.50 C 0.50 117.50, 0.50 122.50, 0.50 127.50 C 0.50 133.50, 0.50 138.50, 0.50 143.50 C 0.50 149.50, 0.50 154.50, 0.50 159.50 C 0.50 165.50, 0.50 170.50, 0.50 175.50 C 0.50 181.50, 0.50 186.50, 0.50 191.50 C 0.50 197.50, 0.50 202.50, 0.50 207.50 C 0.50 213.50, 0.50 218.50, 0.50 223.50 C 0.50 229.50, 0.50 234.50, 0.50 239.50 C 0.50 245.50, 0.50 250.50, 0.50 255.50 C 0.50 261.50, 0.50 266.50, 0.50 271.50 C 0.50 277.50, 0.50 282.50, 0.50 287.50 C 0.50 293.50, 0.50 298.50, 0.50 303.50 C 0.50 309.50, 0.50 314.50, 0.50 319.50 C 0.50 325.50, 0.50 330.50, 0.50 335.50 C 0.50 341.50, 0.50 346.50, 0.50 351.50 C 0.50 357.50, 0.50 362.50, 0.50 367.50 C 0.50 373.50, 0.50 378.50, 0.50 383.50 C 0.50 389.50, 0.50 394.50, 0.50 399.50 C 0.50 405.50, 0.50 410.50, 0.50 415.50 C 0.50 421.50, 0.50 426.50, 0.50 431.50 C 0.50 437.50, 0.50 442.50, 0.50 447.50 C 0.50 453.50, 0.50 458.50, 0.50 463.50 C 0.50 469.50, 0.50 474.50, 0.50 479.50 C 0.50 485.50, 0.50 490.50, 0.50 495.50 C 0.50 501.50, 0.50 506.50, 0.50 511.50 C 6.17 511.50, 10.83 511.50, 15.50 511.50 C 21.50 511.50, 26.50 511.50, 31.50 511.50 C 37.17 511.50, 41.83 511.50, 46.50 511.50 C 52.50 511.50, 57.50 511.50, 62.50 511.50 C 68.17 511.50, 72.83 511.50, 77.50 511.50 C 83.50 511.50, 88.50 511.50, 93.50 511.50 C 99.50 511.50, 104.50 511.50, 109.50 511.50 C 115.50 511.50, 120.50 511.50, 125.50 511.50 C 131.17 511.50, 135.83 511.50, 140.50 511.50 C 146.50 511.50, 151.50 511.50, 156.50 511.50 C 162.17 511.50, 166.83 511.50, 171.50 511.50 C 177.50 511.50, 182.50 511.50, 187.50 511.50 C 193.17 511.50, 197.83 511.50, 202.50 511.50 C 208.50 511.50, 213.50 511.50, 218.50 511.50 C 224.50 511.50, 229.50 511.50, 234.50 511.50 C 240.50 511.50, 245.50 511.50, 250.50 511.50 C 256.17 511.50, 260.83 511.50, 265.50 511.50 C 271.50 511.50, 276.50 511.50, 281.50 511.50 C 287.17 511.50, 291.83 511.50, 296.50 511.50 C 302.50 511.50, 307.50 511.50, 312.50 511.50 C 318.17 511.50, 322.83 511.50, 327.50 511.50 C 333.50 511.50, 338.50 511.50, 343.50 511.50 C 349.50 511.50, 354.50 511.50, 359.50 511.50 C 365.50 511.50, 370.50 511.50, 375.50 511.50 C 381.17 511.50, 385.83 511.50, 390.50 511.50 C 396.50 511.50, 401.50 511.50, 406.50 511.50 C 412.50 511.50, 417.50 511.50, 422.50 511.50 C 428.50 511.50, 433.50 511.50, 438.50 511.50 C 444.17 511.50, 448.83 511.50, 453.50 511.50 C 459.50 511.50, 464.50 511.50, 469.50 511.50 C 475.50 511.50, 480.50 511.50, 485.50 511.50 C 491.50 511.50, 496.50 511.50, 501.50 511.50 C 505.27 510.60, 511.89 513.55, 511.50 509.50 C 511.50 503.83, 511.50 499.17, 511.50 494.50 C 511.50 488.50, 511.50 483.50, 511.50 478.50 C 511.50 472.50, 511.50 467.50, 511.50 462.50 C 511.50 456.50, 511.50 451.50, 511.50 446.50 C 511.50 440.50, 511.50 435.50, 511.50 430.50 C 511.50 424.50, 511.50 419.50, 511.50 414.50 C 511.50 408.50, 511.50 403.50, 511.50 398.50 C 511.50 392.50, 511.50 387.50, 511.50 382.50 C 511.50 376.83, 511.50 372.17, 511.50 367.50 C 511.50 361.50, 511.50 356.50, 511.50 351.50 C 511.50 345.50, 511.50 340.50, 511.50 335.50 C 511.50 329.50, 511.50 324.50, 511.50 319.50 C 511.50 313.50, 511.50 308.50, 511.50 303.50 C 511.50 297.50, 511.50 292.50, 511.50 287.50 C 511.50 281.50, 511.50 276.50, 511.50 271.50 C 511.50 265.50, 511.50 260.50, 511.50 255.50 C 511.50 249.83, 511.50 245.17, 511.50 240.50 C 511.50 234.50, 511.50 229.50, 511.50 224.50 C 511.50 218.50, 511.50 213.50, 511.50 208.50 C 511.50 202.50, 511.50 197.50, 511.50 192.50 C 511.50 186.50, 511.50 181.50, 511.50 176.50 C 511.50 170.50, 511.50 165.50, 511.50 160.50 C 511.50 154.50, 511.50 149.50, 511.50 144.50 C 511.50 138.50, 511.50 133.50, 511.50 128.50 C 511.50 122.50, 511.50 117.50, 511.50 112.50 C 511.50 106.50, 511.50 101.50, 511.50 96.50 C 511.50 90.50, 511.50 85.50, 511.50 80.50 C 511.50 74.50, 511.50 69.50, 511.50 64.50 C 511.50 58.50, 511.50 53.50, 511.50 48.50 C 511.50 42.50, 511.50 37.50, 511.50 32.50 C 511.50 26.50, 511.50 21.50, 511.50 16.50 C 511.50 10.50, 511.50 5.50, 511.50 0.50 C 505.83 0.50, 501.17 0.50, 496.50 0.50 C 490.50 0.50, 485.50 0.50, 480.50 0.50 C 474.50 0.50, 469.50 0.50, 464.50 0.50 C 458.50 0.50, 453.50 0.50, 448.50 0.50 C 442.50 0.50, 437.50 0.50, 432.50 0.50 C 426.50 0.50, 421.50 0.50, 416.50 0.50 C 410.50 0.50, 405.50 0.50, 400.50 0.50 C 394.50 0.50, 389.50 0.50, 384.50 0.50 C 378.50 0.50, 373.50 0.50, 368.50 0.50 C 362.50 0.50, 357.50 0.50, 352.50 0.50 C 346.50 0.50, 341.50 0.50, 336.50 0.50 C 330.50 0.50, 325.50 0.50, 320.50 0.50 C 314.50 0.50, 309.50 0.50, 304.50 0.50 C 298.50 0.50, 293.50 0.50, 288.50 0.50 C 282.50 0.50, 277.50 0.50, 272.50 0.50 C 266.50 0.50, 261.50 0.50, 256.50 0.50 C 250.83 0.50, 246.17 0.50, 241.50 0.50 C 235.50 0.50, 230.50 0.50, 225.50 0.50 C 219.50 0.50, 214.50 0.50, 209.50 0.50 C 203.50 0.50, 198.50 0.50, 193.50 0.50 C 187.50 0.50, 182.50 0.50, 177.50 0.50 C 171.50 0.50, 166.50 0.50, 161.50 0.50 C 155.50 0.50, 150.50 0.50, 145.50 0.50 C 139.50 0.50, 134.50 0.50, 129.50 0.50 C 123.50 0.50, 118.50 0.50, 113.50 0.50 C 107.50 0.50, 102.50 0.50, 97.50 0.50 C 91.50 0.50, 86.50 0.50, 81.50 0.50 C 75.50 0.50, 70.50 0.50, 65.50 0.50 C 59.50 0.50, 54.50 0.50, 49.50 0.50 C 43.50 0.50, 38.50 0.50, 33.50 0.50 C 27.50 0.50, 22.50 0.50, 17.50 0.50 C 11.50 0.50, 6.50 0.50, 1.50 0.50 Z" fill="rgb(0.49074839962598,0.49884017837876715,0.6758163705675034)" stroke="rgb(0.49074839962598,0.49884017837876715,0.6758163705675034)" stroke-width="1" />
<path d="M 179.50 5.50 C 177.00 6.64, 174.54 7.58, 173.50 10.50 C 170.83 16.00, 171.59 21.93, 171.50 27.50 C 170.75 34.28, 173.10 38.78, 172.50 44.50 C 173.53 48.90, 175.65 51.44, 176.50 54.50 C 178.41 58.40, 179.98 61.44, 181.50 64.50 C 186.57 69.80, 190.73 73.88, 195.50 76.50 C 198.82 80.34, 202.37 80.20, 204.50 83.50 C 205.72 89.03, 201.02 90.22, 197.50 89.50 C 192.12 90.22, 189.33 87.12, 185.50 86.50 C 179.05 84.12, 174.44 80.69, 168.50 80.50 C 163.85 78.47, 159.67 78.70, 156.50 76.50 C 151.04 76.60, 147.92 73.50, 143.50 73.50 C 138.76 72.49, 135.63 70.99, 132.50 69.50 C 128.04 68.13, 125.11 65.50, 121.50 64.50 C 117.90 61.20, 114.25 60.42, 111.50 57.50 C 108.09 55.08, 104.12 56.42, 101.50 54.50 C 96.19 56.68, 93.88 61.06, 93.50 65.50 C 93.75 71.28, 92.83 74.33, 93.50 78.50 C 94.33 83.98, 96.16 87.64, 97.50 91.50 C 99.81 98.40, 102.89 103.56, 106.50 108.50 C 110.99 112.82, 105.32 113.95, 103.50 115.50 C 72.81 122.52, 39.66 128.43, 16.50 146.50 C 17.67 158.48, 25.96 166.51, 29.50 176.50 C 34.41 188.70, 43.58 198.91, 43.50 210.50 C 46.65 215.22, 47.39 219.94, 48.50 224.50 C 51.47 251.50, 61.13 274.73, 69.50 298.50 C 70.23 303.88, 66.13 310.59, 75.50 311.50 C 90.23 345.83, 109.50 376.87, 122.50 410.50 C 125.73 417.13, 127.72 423.27, 129.50 429.50 C 127.30 433.77, 123.21 432.47, 120.50 434.50 C 117.57 441.20, 124.39 439.44, 128.50 439.50 C 132.76 438.53, 134.24 441.32, 135.50 443.50 C 137.94 453.87, 141.77 462.25, 143.50 471.50 C 143.95 482.89, 148.81 491.04, 150.50 500.50 C 158.99 508.52, 176.96 500.00, 188.50 497.50 C 225.15 488.14, 260.46 477.93, 296.50 469.50 C 302.96 471.12, 305.55 478.65, 310.50 480.50 C 315.63 484.45, 320.34 487.01, 325.50 488.50 C 329.16 491.32, 332.06 492.57, 335.50 492.50 C 339.34 494.56, 342.52 494.79, 345.50 495.50 C 349.96 494.73, 352.26 496.75, 355.50 496.50 C 359.05 496.32, 361.47 496.44, 363.50 497.50 C 367.50 496.50, 370.50 496.50, 373.50 496.50 C 378.19 497.04, 380.71 494.73, 384.50 495.50 C 390.00 495.22, 394.00 493.78, 398.50 493.50 C 402.93 490.61, 407.22 490.76, 410.50 488.50 C 414.01 487.12, 417.01 486.92, 419.50 485.50 C 423.52 483.68, 426.02 481.61, 428.50 479.50 C 432.52 478.68, 434.38 475.08, 437.50 474.50 C 440.93 470.60, 444.17 469.64, 446.50 466.50 C 449.15 462.58, 453.34 460.32, 454.50 456.50 C 457.62 451.88, 459.26 448.07, 461.50 444.50 C 463.25 440.28, 463.72 436.54, 463.50 432.50 C 465.90 426.44, 463.10 422.34, 463.50 417.50 C 464.38 411.49, 460.35 406.93, 465.50 403.50 C 468.52 402.55, 471.04 402.80, 472.50 400.50 C 479.07 400.22, 481.49 392.58, 485.50 391.50 C 486.85 387.56, 489.82 385.71, 489.50 382.50 C 490.50 378.50, 490.50 375.50, 490.50 372.50 C 490.59 368.33, 491.83 366.26, 491.50 362.50 C 492.24 357.05, 490.34 353.70, 490.50 349.50 C 490.11 344.27, 490.52 339.30, 490.50 334.50 C 489.78 328.06, 491.60 323.68, 491.50 318.50 C 487.02 313.59, 483.78 309.76, 479.50 306.50 C 474.35 301.93, 469.95 298.04, 465.50 293.50 C 460.81 289.08, 456.37 286.47, 452.50 282.50 C 447.29 278.36, 444.17 274.60, 439.50 271.50 C 435.72 267.63, 432.55 265.71, 429.50 263.50 C 425.72 259.63, 422.55 257.71, 419.50 255.50 C 413.81 250.90, 409.30 246.83, 404.50 243.50 C 398.63 238.20, 393.12 235.41, 388.50 230.50 C 386.69 225.41, 385.30 219.49, 387.50 215.50 C 387.50 210.50, 387.50 206.50, 387.50 202.50 C 387.50 197.17, 387.50 192.83, 387.50 188.50 C 387.50 183.17, 387.50 178.83, 387.50 174.50 C 387.50 169.17, 387.50 164.83, 387.50 160.50 C 387.50 156.50, 387.50 153.50, 387.50 150.50 C 386.72 146.35, 386.16 143.11, 386.50 139.50 C 386.34 133.21, 383.56 129.42, 383.50 124.50 C 383.25 117.91, 381.04 113.14, 378.50 108.50 C 375.51 104.30, 374.83 100.56, 372.50 97.50 C 370.32 92.83, 368.20 89.54, 365.50 86.50 C 360.87 80.76, 358.71 75.00, 353.50 70.50 C 350.52 66.86, 349.14 65.48, 346.50 63.50 C 343.41 60.77, 340.62 59.73, 337.50 59.50 C 334.20 56.81, 331.08 59.67, 328.50 59.50 C 324.03 59.50, 321.26 61.20, 317.50 60.50 C 313.41 62.90, 308.76 61.51, 305.50 63.50 C 301.37 62.72, 299.51 65.00, 296.50 64.50 C 293.20 66.04, 290.08 65.63, 287.50 66.50 C 283.46 66.27, 281.54 68.73, 278.50 68.50 C 274.58 69.03, 271.83 69.97, 268.50 69.50 C 264.24 66.80, 261.43 64.01, 258.50 61.50 C 254.91 58.89, 252.77 56.02, 249.50 54.50 C 245.18 49.65, 240.68 48.67, 237.50 44.50 C 232.58 41.32, 228.56 38.35, 224.50 35.50 C 220.19 31.98, 216.01 30.54, 212.50 27.50 C 207.21 24.86, 203.45 21.96, 199.50 19.50 C 195.62 16.08, 192.07 14.06, 190.50 10.50 C 187.16 6.57, 184.09 5.41, 180.50 5.50 Z" fill="rgb(25.902873418177887,30.770847604283087,42.133756354328156)" stroke="rgb(25.902873418177887,30.770847604283087,42.133756354328156)" stroke-width="1" />
<path d="M 105.50 116.50 C 78.17 137.09, 7.85 127.08, 23.50 162.50 C 41.56 196.81, 50.47 210.98, 52.50 246.50 C 56.31 255.36, 56.12 264.88, 60.50 272.50 C 62.08 277.40, 64.16 281.09, 64.50 285.50 C 67.85 291.50, 68.08 297.37, 72.50 301.50 C 64.30 308.54, 79.28 305.53, 76.50 312.50 C 77.81 316.98, 79.49 320.31, 81.50 323.50 C 82.79 326.71, 84.59 328.71, 84.50 331.50 C 87.78 337.99, 90.74 343.20, 93.50 348.50 C 95.17 352.03, 96.54 354.68, 97.50 357.50 C 99.27 361.73, 101.73 364.27, 102.50 367.50 C 104.27 371.73, 106.73 374.27, 107.50 377.50 C 109.70 381.55, 111.11 384.52, 112.50 387.50 C 112.49 391.19, 116.51 391.81, 115.50 394.50 C 118.12 399.52, 120.06 403.41, 121.50 407.50 C 123.51 411.63, 124.42 414.81, 126.50 417.50 C 126.94 421.73, 129.40 424.13, 129.50 427.50 C 132.55 430.63, 136.35 429.32, 138.50 428.50 C 142.63 428.95, 144.77 427.01, 147.50 426.50 C 153.22 424.15, 159.23 424.93, 163.50 421.50 C 168.22 420.62, 172.11 420.17, 175.50 418.50 C 179.67 416.30, 183.85 416.53, 187.50 415.50 C 193.43 412.67, 198.79 411.86, 203.50 409.50 C 206.30 407.54, 209.58 409.18, 211.50 407.50 C 218.09 405.45, 223.12 403.04, 228.50 401.50 C 234.05 401.62, 236.40 397.46, 240.50 397.50 C 240.75 392.79, 238.64 390.05, 238.50 386.50 C 236.32 382.60, 238.06 378.07, 237.50 374.50 C 234.68 370.53, 238.80 367.20, 237.50 363.50 C 238.92 357.39, 234.90 354.96, 231.50 352.50 C 228.17 349.36, 224.93 348.40, 222.50 345.50 C 218.37 343.12, 217.54 339.73, 214.50 337.50 C 212.03 333.61, 208.97 331.39, 207.50 328.50 C 205.56 324.20, 202.04 321.97, 201.50 318.50 C 199.02 314.89, 197.72 312.21, 196.50 309.50 C 193.52 303.43, 192.45 297.58, 189.50 292.50 C 188.48 285.09, 184.54 279.90, 183.50 273.50 C 185.00 267.54, 182.31 260.87, 181.50 255.50 C 180.47 248.65, 181.24 242.06, 179.50 236.50 C 179.50 232.50, 179.50 229.50, 179.50 226.50 C 179.50 222.50, 179.50 219.50, 179.50 216.50 C 178.36 210.36, 178.24 204.80, 177.50 199.50 C 176.77 193.97, 174.95 190.31, 173.50 186.50 C 172.28 181.62, 170.94 177.04, 166.50 176.50 C 155.07 175.59, 167.94 175.64, 167.50 170.50 C 164.90 163.47, 162.04 157.55, 159.50 151.50 C 155.33 144.09, 150.28 139.30, 144.50 133.50 C 140.83 132.78, 140.17 128.22, 137.50 128.50 C 133.31 126.50, 130.59 123.35, 126.50 123.50 C 118.49 119.23, 112.00 118.90, 106.50 117.50 Z" fill="rgb(227.31949740576357,136.1556541851597,130.34018878539726)" stroke="rgb(227.31949740576357,136.1556541851597,130.34018878539726)" stroke-width="1" />
<path d="M 345.50 284.50 C 342.15 286.27, 337.91 285.87, 334.50 287.50 C 330.12 290.01, 324.28 293.19, 325.50 298.50 C 326.34 303.59, 328.26 306.98, 332.50 308.50 C 337.04 310.47, 340.38 311.93, 344.50 311.50 C 350.02 312.99, 355.40 312.42, 360.50 312.50 C 367.08 312.19, 374.63 311.79, 375.50 318.50 C 372.09 322.37, 367.26 318.98, 367.50 323.50 C 362.94 319.69, 357.11 320.37, 351.50 320.50 C 345.44 323.50, 339.98 325.53, 334.50 327.50 C 330.39 329.37, 327.11 330.83, 323.50 331.50 C 318.76 332.51, 315.63 334.01, 312.50 335.50 C 308.52 336.89, 305.55 338.30, 302.50 339.50 C 297.37 342.47, 297.99 348.88, 295.50 352.50 C 292.76 356.61, 291.53 359.93, 288.50 362.50 C 286.31 368.84, 279.69 371.23, 277.50 364.50 C 285.33 353.56, 290.52 342.35, 290.50 328.50 C 294.80 311.78, 277.72 299.21, 265.50 310.50 C 252.45 334.86, 239.24 376.60, 259.50 398.50 C 263.91 398.35, 267.69 399.10, 270.50 397.50 C 275.34 396.45, 279.30 395.69, 283.50 395.50 C 288.50 394.50, 292.50 394.50, 296.50 394.50 C 302.69 396.21, 301.23 402.34, 300.50 406.50 C 300.14 410.37, 296.86 411.63, 297.50 414.50 C 296.70 418.97, 295.63 420.47, 296.50 423.50 C 297.97 428.29, 294.45 432.03, 295.50 436.50 C 299.98 437.66, 294.45 441.56, 297.50 441.50 C 300.68 445.95, 301.02 450.17, 303.50 453.50 C 307.16 457.80, 309.95 462.54, 313.50 464.50 C 317.67 469.36, 321.71 471.12, 325.50 473.50 C 329.56 475.35, 332.10 477.47, 335.50 477.50 C 339.34 479.89, 342.74 479.91, 345.50 481.50 C 349.74 481.25, 352.04 483.27, 355.50 482.50 C 359.65 483.28, 362.89 483.84, 366.50 483.50 C 371.95 484.26, 375.13 481.93, 379.50 482.50 C 384.98 481.86, 389.02 480.14, 393.50 479.50 C 398.87 476.78, 404.01 475.94, 408.50 473.50 C 413.86 470.70, 417.70 467.65, 421.50 464.50 C 426.58 459.24, 430.26 456.01, 432.50 451.50 C 435.46 445.82, 438.16 441.44, 439.50 436.50 C 440.01 431.10, 441.90 427.28, 441.50 422.50 C 442.28 416.71, 440.08 413.14, 440.50 408.50 C 440.01 402.27, 436.57 398.67, 434.50 394.50 C 432.34 389.02, 428.33 385.29, 424.50 381.50 C 419.08 378.37, 415.26 374.80, 410.50 373.50 C 405.47 371.56, 401.76 369.88, 397.50 369.50 C 391.86 368.92, 388.29 366.72, 383.50 367.50 C 374.71 368.41, 376.05 358.73, 377.50 354.50 C 378.92 349.18, 381.82 345.88, 384.50 342.50 C 389.09 332.45, 390.09 324.61, 390.50 314.50 C 388.72 309.13, 386.22 305.48, 384.50 301.50 C 381.46 296.04, 376.48 292.65, 372.50 290.50 C 368.14 287.29, 363.60 286.93, 359.50 285.50 C 355.10 283.72, 350.52 284.78, 346.50 284.50 Z" fill="rgb(252.8966216901694,221.05321091610023,129.53596428933753)" stroke="rgb(252.8966216901694,221.05321091610023,129.53596428933753)" stroke-width="1" />
<path d="M 168.50 183.50 C 166.24 185.63, 162.42 183.98, 159.50 184.50 C 154.91 184.88, 151.70 186.19, 148.50 187.50 C 142.76 185.03, 145.64 194.45, 141.50 191.50 C 137.33 190.59, 135.26 191.83, 131.50 191.50 C 127.69 191.82, 125.13 192.75, 122.50 193.50 C 118.53 194.23, 116.01 196.07, 112.50 195.50 C 108.52 197.21, 105.34 197.44, 102.50 198.50 C 98.04 198.73, 95.74 200.75, 92.50 200.50 C 88.45 203.18, 84.58 202.88, 81.50 204.50 C 76.76 205.32, 73.64 207.65, 69.50 207.50 C 64.64 209.17, 60.56 210.31, 56.50 211.50 C 53.15 213.60, 49.48 212.50, 47.50 215.50 C 48.34 221.43, 48.06 226.82, 49.50 231.50 C 51.18 234.42, 49.54 237.70, 51.50 239.50 C 52.37 243.08, 51.96 246.20, 53.50 248.50 C 53.07 252.62, 56.44 254.17, 55.50 257.50 C 57.09 261.26, 57.11 264.66, 58.50 267.50 C 60.14 270.90, 60.37 273.89, 61.50 276.50 C 63.63 280.11, 63.86 283.10, 65.50 285.50 C 68.08 290.55, 68.27 297.10, 72.50 299.50 C 75.04 297.91, 78.96 301.09, 80.50 298.50 C 86.00 295.95, 91.46 295.74, 96.50 294.50 C 102.97 292.15, 108.65 291.33, 113.50 288.50 C 117.63 289.28, 119.49 287.00, 122.50 287.50 C 126.54 286.73, 128.46 284.27, 131.50 284.50 C 134.95 284.11, 136.83 282.36, 139.50 282.50 C 144.57 279.72, 150.29 280.94, 154.50 278.50 C 158.65 277.06, 162.51 277.33, 165.50 275.50 C 169.93 274.74, 173.52 274.36, 176.50 272.50 C 181.25 273.09, 184.77 271.79, 183.50 267.50 C 183.19 262.41, 180.81 259.59, 181.50 255.50 C 178.80 252.34, 182.20 247.66, 179.50 245.50 C 180.26 239.38, 177.91 235.55, 178.50 230.50 C 175.95 227.16, 180.32 224.71, 177.50 222.50 C 177.50 218.83, 177.50 216.17, 177.50 213.50 C 177.75 209.26, 175.73 206.96, 176.50 203.50 C 173.85 200.65, 177.15 196.35, 174.50 194.50 C 173.07 190.24, 173.34 184.79, 169.50 183.50 Z" fill="rgb(228.99529616724737,136.99747386759583,130.99756097560976)" stroke="rgb(228.99529616724737,136.99747386759583,130.99756097560976)" stroke-width="1" />
<path d="M 106.50 72.50 C 102.65 75.80, 107.08 79.75, 104.50 83.50 C 104.01 89.45, 105.49 93.59, 107.50 97.50 C 110.95 102.81, 114.46 106.61, 119.50 108.50 C 123.71 110.00, 127.10 111.05, 129.50 114.50 C 133.81 117.55, 136.67 120.71, 140.50 121.50 C 146.98 124.60, 152.72 128.31, 156.50 133.50 C 160.06 139.88, 164.26 144.57, 165.50 150.50 C 167.27 154.73, 169.73 157.27, 170.50 160.50 C 172.37 164.61, 173.83 167.89, 174.50 171.50 C 177.11 175.72, 177.73 179.35, 179.50 182.50 C 180.80 186.71, 181.42 190.20, 182.50 193.50 C 183.67 199.43, 183.88 204.76, 185.50 209.50 C 185.00 213.51, 187.28 215.37, 186.50 218.50 C 185.73 222.96, 187.75 225.26, 187.50 228.50 C 187.46 232.32, 187.21 235.23, 188.50 237.50 C 188.50 241.50, 188.50 244.50, 188.50 247.50 C 188.74 253.62, 190.76 257.59, 190.50 262.50 C 191.88 267.34, 191.55 271.89, 193.50 275.50 C 194.72 280.07, 194.87 284.10, 196.50 287.50 C 198.03 292.97, 200.21 296.76, 202.50 300.50 C 202.70 303.83, 205.63 305.03, 205.50 307.50 C 208.02 313.31, 211.91 317.13, 214.50 321.50 C 218.50 327.50, 222.16 330.52, 225.50 335.50 C 229.05 340.49, 232.18 345.14, 236.50 347.50 C 240.30 348.38, 239.45 345.01, 240.50 343.50 C 241.33 338.99, 242.71 334.39, 239.50 331.50 C 236.59 326.60, 232.95 323.00, 231.50 318.50 C 228.02 312.57, 221.87 310.57, 221.50 304.50 C 217.00 298.65, 215.90 292.81, 213.50 287.50 C 212.73 283.46, 210.27 281.54, 210.50 278.50 C 209.18 274.69, 208.25 272.13, 207.50 269.50 C 206.44 265.66, 206.21 262.48, 205.50 259.50 C 204.79 255.52, 203.40 252.82, 203.50 249.50 C 201.87 245.90, 203.13 242.10, 201.50 239.50 C 202.19 235.07, 199.81 232.93, 200.50 229.50 C 197.91 226.96, 201.09 223.04, 198.50 221.50 C 197.65 217.38, 196.70 214.59, 200.50 212.50 C 204.37 211.18, 207.91 211.50, 210.50 209.50 C 214.65 208.06, 218.51 208.33, 221.50 206.50 C 226.12 205.04, 230.09 204.46, 233.50 202.50 C 237.05 202.61, 237.97 199.63, 237.50 197.50 C 237.49 191.89, 235.20 188.23, 235.50 183.50 C 233.98 176.97, 232.63 171.78, 231.50 166.50 C 230.38 159.66, 227.33 155.04, 226.50 149.50 C 224.12 142.77, 220.45 137.99, 218.50 132.50 C 214.58 125.72, 209.97 120.64, 205.50 115.50 C 200.76 110.53, 196.45 107.96, 192.50 104.50 C 187.26 102.27, 183.31 99.34, 178.50 98.50 C 172.08 96.38, 167.03 94.36, 161.50 93.50 C 158.10 91.86, 155.11 91.63, 152.50 90.50 C 148.79 89.61, 146.32 88.12, 143.50 87.50 C 138.18 84.33, 132.99 83.25, 128.50 80.50 C 124.44 78.98, 121.80 76.44, 118.50 75.50 C 113.91 74.46, 111.43 71.72, 107.50 72.50 Z" fill="rgb(246.86326972260477,215.89937045052133,126.82805429864253)" stroke="rgb(246.86326972260477,215.89937045052133,126.82805429864253)" stroke-width="1" />
<path d="M 245.50 405.50 C 242.01 409.20, 235.92 406.64, 232.50 410.50 C 229.18 412.35, 225.70 411.38, 223.50 413.50 C 195.28 423.24, 167.14 430.77, 139.50 439.50 C 133.68 449.79, 146.13 468.29, 146.50 482.50 C 149.66 510.59, 180.34 488.17, 196.50 487.50 C 205.28 485.76, 212.81 483.45, 220.50 481.50 C 229.59 479.72, 237.00 476.30, 245.50 475.50 C 252.14 473.11, 257.76 471.65, 263.50 470.50 C 270.60 468.08, 276.84 466.99, 282.50 464.50 C 285.99 463.80, 290.96 463.89, 290.50 460.50 C 286.57 453.16, 285.86 445.49, 283.50 438.50 C 283.50 434.50, 283.50 431.50, 283.50 428.50 C 283.32 420.20, 285.94 414.07, 287.50 407.50 C 282.38 405.74, 278.55 408.09, 273.50 407.50 C 267.38 407.74, 263.41 409.76, 258.50 409.50 C 252.95 409.62, 250.60 405.46, 246.50 405.50 Z" fill="rgb(224.5988023952096,134.77245508982037,129.24550898203591)" stroke="rgb(224.5988023952096,134.77245508982037,129.24550898203591)" stroke-width="1" />
<path d="M 240.50 407.50 C 238.52 409.35, 235.48 408.65, 233.50 410.50 C 227.88 411.63, 234.99 413.24, 231.50 415.50 C 226.15 412.14, 222.09 415.58, 216.50 415.50 C 212.49 417.61, 208.51 417.39, 205.50 419.50 C 200.69 420.48, 197.31 422.52, 193.50 423.50 C 187.17 424.03, 183.03 427.45, 177.50 427.50 C 171.59 430.06, 166.52 431.23, 161.50 432.50 C 156.40 434.39, 151.78 435.04, 147.50 436.50 C 143.09 437.96, 137.52 438.05, 135.50 440.50 C 136.58 444.80, 137.20 448.29, 138.50 451.50 C 140.31 455.50, 140.35 459.23, 141.50 462.50 C 143.95 468.65, 144.07 474.34, 145.50 479.50 C 146.33 486.32, 148.67 491.51, 151.50 496.50 C 155.21 499.41, 158.37 495.81, 161.50 496.50 C 165.80 495.42, 169.29 494.80, 172.50 493.50 C 177.82 491.32, 183.22 491.76, 187.50 489.50 C 191.98 488.38, 195.78 488.03, 199.50 487.50 C 204.76 486.13, 208.32 484.06, 212.50 483.50 C 217.26 480.78, 222.34 481.26, 226.50 479.50 C 232.35 478.60, 236.72 476.56, 241.50 475.50 C 247.19 473.43, 252.45 472.72, 257.50 471.50 C 262.98 469.71, 267.38 467.74, 272.50 467.50 C 278.44 465.03, 283.98 464.98, 288.50 462.50 C 290.67 457.60, 286.16 453.91, 286.50 449.50 C 285.77 443.97, 283.06 440.68, 282.50 436.50 C 283.64 432.92, 280.90 426.68, 283.50 423.50 C 282.45 417.46, 286.89 414.69, 285.50 409.50 C 281.71 406.03, 277.97 409.55, 273.50 408.50 C 269.80 408.75, 267.55 410.10, 264.50 409.50 C 260.83 409.50, 258.17 409.50, 255.50 409.50 C 251.26 406.20, 245.94 407.92, 241.50 407.50 Z" fill="rgb(228.98789450929527,136.99297449200174,130.9948119325551)" stroke="rgb(228.98789450929527,136.99297449200174,130.9948119325551)" stroke-width="1" />
<path d="M 113.50 120.50 C 111.65 123.15, 107.35 119.85, 105.50 122.50 C 98.97 123.02, 93.78 124.37, 88.50 125.50 C 84.87 126.25, 82.31 127.18, 79.50 127.50 C 74.99 127.93, 72.47 129.77, 69.50 130.50 C 65.89 131.63, 62.90 131.86, 60.50 133.50 C 56.48 134.46, 53.52 135.54, 50.50 136.50 C 46.17 138.99, 42.16 139.82, 38.50 141.50 C 33.76 144.12, 29.35 145.14, 25.50 147.50 C 18.18 145.42, 14.69 143.89, 17.50 152.50 C 20.03 155.81, 20.09 159.14, 22.50 161.50 C 24.69 165.28, 25.31 168.72, 27.50 171.50 C 30.15 177.03, 32.83 181.56, 34.50 186.50 C 37.63 192.25, 40.51 196.69, 42.50 201.50 C 42.97 205.14, 47.57 205.21, 48.50 203.50 C 52.83 204.44, 54.38 201.07, 57.50 201.50 C 61.12 200.38, 63.50 198.69, 66.50 198.50 C 70.34 197.11, 73.74 197.09, 76.50 195.50 C 80.23 194.99, 82.37 193.05, 85.50 193.50 C 90.02 193.10, 92.16 190.35, 95.50 190.50 C 99.43 189.33, 101.97 187.21, 105.50 187.50 C 109.52 186.54, 112.48 185.46, 115.50 184.50 C 119.48 183.79, 122.18 182.40, 125.50 182.50 C 129.09 180.50, 132.63 180.82, 135.50 179.50 C 141.03 178.16, 145.26 176.11, 150.50 176.50 C 156.41 175.09, 160.56 172.84, 165.50 172.50 C 167.44 168.17, 164.07 166.62, 164.50 163.50 C 162.01 159.57, 160.11 156.80, 159.50 153.50 C 156.91 149.47, 154.64 146.72, 153.50 143.50 C 149.40 140.07, 147.09 135.75, 143.50 134.50 C 139.35 132.19, 136.99 128.98, 133.50 128.50 C 129.40 127.21, 127.60 123.79, 124.50 123.50 C 121.15 120.93, 117.98 120.34, 114.50 120.50 Z" fill="rgb(228.81208474363797,136.90572897079102,130.925661276169)" stroke="rgb(228.81208474363797,136.90572897079102,130.925661276169)" stroke-width="1" />
<path d="M 179.50 18.50 C 175.86 20.93, 178.13 25.82, 177.50 29.50 C 177.45 35.13, 178.44 39.33, 179.50 43.50 C 181.00 49.79, 184.25 53.94, 186.50 58.50 C 188.90 62.03, 191.86 63.06, 194.50 64.50 C 197.93 68.06, 200.46 70.41, 203.50 71.50 C 207.25 75.42, 210.90 76.20, 213.50 79.50 C 217.58 83.11, 221.49 84.71, 224.50 88.50 C 228.88 93.39, 231.48 96.48, 235.50 100.50 C 239.33 105.49, 241.96 109.98, 244.50 114.50 C 247.84 119.36, 249.85 123.35, 251.50 127.50 C 254.10 132.86, 256.18 137.02, 257.50 141.50 C 260.05 146.88, 261.56 151.28, 263.50 155.50 C 264.38 161.22, 266.33 165.49, 266.50 170.50 C 266.72 174.63, 269.00 176.49, 268.50 179.50 C 268.81 183.93, 271.19 186.07, 270.50 189.50 C 274.60 192.56, 281.23 188.29, 285.50 187.50 C 290.59 186.71, 294.13 184.61, 298.50 184.50 C 302.71 183.34, 305.29 181.66, 308.50 181.50 C 313.02 180.74, 316.00 177.74, 316.50 174.50 C 315.35 170.23, 315.31 166.50, 313.50 163.50 C 312.68 159.09, 310.82 156.12, 310.50 152.50 C 308.10 148.19, 307.83 144.42, 305.50 141.50 C 303.80 137.18, 302.00 133.90, 300.50 130.50 C 297.33 127.04, 297.30 123.70, 294.50 121.50 C 291.83 118.11, 291.17 114.89, 288.50 112.50 C 286.45 108.44, 282.33 106.65, 281.50 103.50 C 277.83 99.83, 275.17 97.17, 272.50 94.50 C 269.71 89.41, 267.17 85.22, 263.50 81.50 C 259.28 75.98, 255.31 71.77, 251.50 67.50 C 245.40 61.27, 240.03 56.68, 234.50 52.50 C 231.11 48.83, 227.89 48.17, 225.50 45.50 C 222.02 43.39, 219.52 41.32, 216.50 40.50 C 210.90 37.01, 205.90 35.48, 201.50 32.50 C 197.68 29.05, 194.19 28.24, 191.50 25.50 C 187.51 21.68, 184.97 17.75, 180.50 18.50 Z" fill="rgb(251.79433187657264,220.1333598198914,129.0321811680572)" stroke="rgb(251.79433187657264,220.1333598198914,129.0321811680572)" stroke-width="1" />
<path d="M 316.50 191.50 C 313.14 192.91, 309.33 193.23, 305.50 193.50 C 301.57 192.72, 299.96 195.15, 297.50 195.50 C 293.83 195.36, 291.95 197.11, 289.50 197.50 C 285.77 198.01, 283.63 199.95, 280.50 199.50 C 275.69 200.48, 272.31 202.52, 268.50 203.50 C 263.78 204.38, 260.32 205.87, 256.50 206.50 C 249.89 207.51, 245.32 211.01, 239.50 211.50 C 236.18 213.35, 232.70 212.38, 230.50 214.50 C 226.92 215.37, 223.80 214.96, 221.50 216.50 C 215.96 218.81, 210.87 218.78, 206.50 220.50 C 212.89 237.06, 210.94 265.54, 220.50 277.50 C 228.07 276.07, 233.67 272.29, 240.50 271.50 C 244.34 270.12, 247.45 269.39, 250.50 268.50 C 254.49 266.67, 258.35 266.94, 261.50 265.50 C 267.88 264.29, 272.88 262.15, 278.50 261.50 C 283.95 259.44, 287.51 256.25, 292.50 256.50 C 296.25 255.71, 299.08 255.09, 301.50 253.50 C 305.71 253.15, 308.14 251.91, 310.50 250.50 C 314.91 251.63, 316.09 247.37, 319.50 248.50 C 323.01 248.74, 323.61 244.36, 326.50 245.50 C 330.41 243.47, 334.87 245.20, 337.50 242.50 C 338.72 238.46, 338.25 234.72, 336.50 231.50 C 336.69 225.67, 334.72 221.74, 333.50 217.50 C 332.02 211.89, 330.22 207.42, 329.50 202.50 C 326.40 196.53, 324.81 189.72, 317.50 191.50 Z" fill="rgb(42.13081395348837,51.51614987080104,64.75872093023256)" stroke="rgb(42.13081395348837,51.51614987080104,64.75872093023256)" stroke-width="1" />
<path d="M 380.50 234.50 C 376.60 236.54, 371.26 235.11, 367.50 237.50 C 360.50 238.72, 352.59 239.03, 348.50 242.50 C 357.59 260.41, 375.54 275.85, 393.50 281.50 C 416.90 298.74, 411.88 329.20, 399.50 348.50 C 420.24 335.52, 479.46 332.85, 472.50 308.50 C 440.81 284.84, 413.53 253.93, 381.50 234.50 Z" fill="rgb(216.0068493150685,131.0068493150685,126.28767123287672)" stroke="rgb(216.0068493150685,131.0068493150685,126.28767123287672)" stroke-width="1" />
<path d="M 355.50 239.50 C 354.10 241.49, 349.58 239.68, 349.50 242.50 C 352.87 245.39, 350.01 245.96, 349.50 247.50 C 351.26 250.93, 354.91 252.58, 355.50 255.50 C 359.63 256.88, 360.46 260.27, 363.50 262.50 C 367.09 264.87, 369.29 267.20, 371.50 269.50 C 375.50 272.50, 376.60 274.77, 379.50 276.50 C 384.93 277.13, 388.40 280.07, 392.50 281.50 C 396.87 284.26, 399.55 287.71, 402.50 290.50 C 405.91 293.91, 406.22 297.62, 408.50 300.50 C 409.03 304.42, 409.97 307.17, 409.50 310.50 C 412.41 314.20, 408.33 317.17, 409.50 320.50 C 409.18 324.31, 408.25 326.87, 407.50 329.50 C 405.86 332.90, 405.63 335.89, 404.50 338.50 C 402.41 342.27, 402.22 345.41, 399.50 347.50 C 399.78 351.48, 402.72 347.54, 404.50 348.50 C 408.29 347.59, 410.29 345.79, 412.50 344.50 C 418.08 343.42, 421.92 340.58, 426.50 339.50 C 431.87 336.79, 436.89 335.63, 441.50 333.50 C 445.03 331.84, 448.17 331.65, 450.50 329.50 C 454.21 328.61, 456.68 327.12, 459.50 326.50 C 463.54 325.73, 465.46 323.27, 468.50 323.50 C 472.21 321.61, 474.68 320.12, 477.50 319.50 C 479.80 312.86, 473.38 310.41, 470.50 306.50 C 465.07 303.53, 461.86 298.63, 457.50 296.50 C 451.64 290.84, 446.44 286.97, 441.50 282.50 C 438.25 279.29, 435.53 278.23, 433.50 275.50 C 430.07 271.60, 426.83 270.64, 424.50 267.50 C 420.24 263.32, 416.54 261.21, 413.50 257.50 C 409.49 253.71, 405.58 252.11, 402.50 248.50 C 398.20 245.75, 394.80 243.25, 391.50 240.50 C 387.03 239.50, 384.26 241.20, 380.50 240.50 C 376.60 241.36, 372.47 239.98, 368.50 240.50 C 363.44 241.11, 360.21 239.73, 356.50 239.50 Z" fill="rgb(228.48316038594575,136.72200983069362,130.76224285454214)" stroke="rgb(228.48316038594575,136.72200983069362,130.76224285454214)" stroke-width="1" />
<path d="M 367.50 120.50 C 359.86 123.71, 351.42 124.98, 343.50 127.50 C 334.40 130.40, 325.94 132.43, 317.50 134.50 C 320.31 147.58, 325.63 159.03, 328.50 171.50 C 334.26 190.32, 339.97 208.17, 344.50 226.50 C 351.09 235.38, 369.20 226.05, 379.50 225.50 C 380.27 214.00, 381.63 207.54, 380.50 197.50 C 378.31 178.30, 375.59 160.33, 372.50 142.50 C 371.34 134.76, 369.87 128.15, 368.50 121.50 Z" fill="rgb(205.63076923076923,125.3076923076923,121.92307692307692)" stroke="rgb(205.63076923076923,125.3076923076923,121.92307692307692)" stroke-width="1" />
<path d="M 366.50 121.50 C 363.11 123.17, 359.22 123.62, 355.50 124.50 C 350.14 125.62, 346.43 127.33, 342.50 128.50 C 337.83 130.63, 332.87 129.65, 329.50 132.50 C 324.40 133.26, 320.43 134.34, 316.50 135.50 C 318.12 140.52, 320.06 144.41, 321.50 148.50 C 323.47 153.23, 324.89 157.20, 325.50 161.50 C 326.05 165.63, 327.99 167.77, 328.50 170.50 C 329.56 174.34, 329.79 177.52, 330.50 180.50 C 332.40 186.01, 335.67 189.54, 335.50 194.50 C 338.08 199.79, 337.76 205.28, 340.50 209.50 C 340.66 213.71, 342.34 216.29, 342.50 219.50 C 343.66 223.71, 345.34 226.29, 345.50 229.50 C 351.44 230.83, 356.02 230.29, 360.50 229.50 C 365.70 227.37, 370.78 227.37, 375.50 226.50 C 380.80 226.81, 380.88 222.57, 380.50 219.50 C 379.80 214.74, 381.50 211.97, 381.50 208.50 C 381.57 203.53, 380.42 200.06, 379.50 196.50 C 378.63 192.17, 380.15 186.75, 378.50 184.50 C 378.68 180.95, 378.56 178.53, 377.50 176.50 C 377.25 172.80, 375.90 170.55, 376.50 167.50 C 375.14 164.12, 375.86 160.88, 374.50 158.50 C 374.76 154.12, 374.27 151.04, 372.50 148.50 C 374.14 146.23, 371.52 143.81, 372.50 141.50 C 370.94 137.53, 370.28 134.20, 370.50 130.50 C 368.83 126.24, 369.51 124.50, 367.50 121.50 Z" fill="rgb(228.94763092269326,136.97381546134665,130.9804655029094)" stroke="rgb(228.94763092269326,136.97381546134665,130.9804655029094)" stroke-width="1" />
<path d="M 337.50 252.50 C 334.07 254.39, 329.78 254.24, 326.50 256.50 C 321.40 258.39, 316.56 258.51, 312.50 260.50 C 307.25 262.04, 302.88 263.28, 298.50 264.50 C 292.78 266.84, 287.29 267.32, 282.50 269.50 C 278.89 270.63, 275.90 270.86, 273.50 272.50 C 269.63 273.82, 266.09 273.50, 263.50 275.50 C 257.98 276.04, 254.27 278.55, 249.50 278.50 C 243.73 280.25, 239.20 281.59, 234.50 282.50 C 229.65 282.91, 227.35 286.09, 223.50 285.50 C 223.37 289.02, 224.31 291.52, 226.50 293.50 C 228.23 297.14, 229.52 299.96, 231.50 302.50 C 233.69 305.48, 234.63 307.98, 235.50 310.50 C 238.17 314.03, 239.54 316.68, 240.50 319.50 C 242.68 325.89, 246.60 328.43, 247.50 321.50 C 248.41 317.71, 250.21 315.71, 251.50 313.50 C 253.85 310.11, 254.98 307.23, 256.50 304.50 C 260.12 299.72, 262.84 294.45, 267.50 292.50 C 272.15 289.31, 275.64 286.75, 280.50 287.50 C 287.08 288.20, 292.83 292.16, 295.50 297.50 C 298.38 300.61, 298.62 303.39, 300.50 305.50 C 300.27 309.54, 302.73 311.46, 302.50 314.50 C 303.10 319.24, 300.28 326.39, 306.50 324.50 C 310.28 322.31, 313.72 321.69, 316.50 319.50 C 319.94 317.35, 324.49 316.74, 325.50 313.50 C 322.08 308.20, 318.25 304.49, 317.50 299.50 C 317.07 292.83, 319.02 288.14, 323.50 284.50 C 327.14 281.77, 329.96 280.48, 332.50 278.50 C 336.23 277.99, 338.37 276.05, 341.50 276.50 C 345.20 275.11, 348.17 274.36, 351.50 274.50 C 355.83 274.50, 359.17 274.50, 362.50 274.50 C 362.15 267.97, 355.31 266.70, 352.50 262.50 C 347.19 258.45, 344.58 251.28, 338.50 252.50 Z" fill="rgb(218.35954512460683,219.45172997822405,219.58359545124605)" stroke="rgb(218.35954512460683,219.45172997822405,219.58359545124605)" stroke-width="1" />
<path d="M 314.50 201.50 C 311.52 203.36, 307.93 203.74, 304.50 204.50 C 300.51 206.33, 296.65 206.06, 293.50 207.50 C 289.11 209.17, 285.22 209.62, 281.50 210.50 C 276.65 212.05, 273.09 213.30, 269.50 214.50 C 265.89 215.63, 262.90 215.86, 260.50 217.50 C 256.16 217.35, 254.02 220.10, 250.50 219.50 C 246.29 220.66, 243.71 222.34, 240.50 222.50 C 235.24 223.87, 231.68 225.94, 227.50 226.50 C 224.58 228.00, 221.05 228.01, 220.50 229.50 C 220.85 235.36, 222.33 240.16, 222.50 245.50 C 224.15 251.65, 225.20 256.62, 226.50 261.50 C 228.55 265.28, 231.10 262.05, 233.50 262.50 C 239.21 260.13, 244.88 260.09, 249.50 257.50 C 252.90 257.00, 255.45 256.84, 257.50 255.50 C 261.13 254.75, 263.69 253.82, 266.50 253.50 C 271.35 253.09, 273.65 249.91, 277.50 250.50 C 282.05 249.36, 284.79 247.25, 288.50 247.50 C 293.35 245.95, 296.91 244.70, 300.50 243.50 C 305.31 241.70, 309.88 241.74, 313.50 239.50 C 318.84 239.31, 321.97 236.22, 326.50 236.50 C 330.25 233.18, 326.23 230.56, 327.50 227.50 C 327.10 222.98, 324.35 220.84, 324.50 217.50 C 322.50 213.91, 322.82 210.37, 321.50 207.50 C 319.97 203.72, 319.96 200.17, 315.50 201.50 Z" fill="rgb(0.08941651932306138,0.13564031321040668,0.27128062642081335)" stroke="rgb(0.08941651932306138,0.13564031321040668,0.27128062642081335)" stroke-width="1" />
<path d="M 319.50 70.50 C 305.83 74.01, 291.21 74.55, 277.50 75.50 C 281.50 84.72, 290.55 92.26, 295.50 101.50 C 303.06 110.12, 306.63 120.57, 312.50 127.50 C 328.22 117.69, 365.59 123.30, 364.50 104.50 C 358.97 89.57, 348.27 74.80, 333.50 71.50 C 329.27 69.30, 324.40 71.07, 320.50 70.50 Z" fill="rgb(174.41935483870967,107.2258064516129,105.03225806451613)" stroke="rgb(174.41935483870967,107.2258064516129,105.03225806451613)" stroke-width="1" />
<path d="M 319.50 70.50 C 317.65 73.15, 313.35 69.85, 311.50 72.50 C 306.71 71.73, 304.19 74.04, 300.50 73.50 C 296.65 75.34, 292.35 73.66, 289.50 75.50 C 284.93 73.58, 280.15 74.62, 276.50 75.50 C 278.94 80.75, 283.72 83.39, 285.50 87.50 C 289.97 92.57, 293.18 98.35, 296.50 101.50 C 299.12 106.79, 302.69 110.28, 304.50 114.50 C 307.82 118.96, 309.29 124.39, 312.50 126.50 C 317.15 125.47, 321.33 125.70, 324.50 123.50 C 328.84 123.65, 330.98 120.90, 334.50 121.50 C 338.71 120.34, 341.29 118.66, 344.50 118.50 C 348.09 116.50, 351.63 116.82, 354.50 115.50 C 358.71 114.20, 362.20 113.58, 365.50 112.50 C 365.77 107.31, 364.10 103.92, 362.50 100.50 C 360.26 95.93, 358.62 92.12, 356.50 88.50 C 353.95 84.51, 351.03 82.08, 348.50 79.50 C 345.11 76.15, 342.23 75.02, 339.50 73.50 C 335.69 72.18, 333.13 71.25, 330.50 70.50 C 326.50 70.50, 323.50 70.50, 320.50 70.50 Z" fill="rgb(228.80246533127888,136.89337442218797,130.89676425269644)" stroke="rgb(228.80246533127888,136.89337442218797,130.89676425269644)" stroke-width="1" />
<path d="M 272.50 305.50 C 268.94 307.53, 264.16 310.25, 262.50 314.50 C 260.05 319.26, 258.08 322.80, 256.50 326.50 C 255.42 332.13, 253.45 336.40, 253.50 341.50 C 252.25 347.67, 250.22 352.11, 250.50 357.50 C 249.50 363.17, 249.50 367.83, 249.50 372.50 C 249.22 378.89, 250.28 383.73, 251.50 388.50 C 252.59 392.54, 254.94 395.07, 257.50 397.50 C 260.44 399.59, 263.90 398.01, 266.50 398.50 C 270.31 398.18, 272.87 397.25, 275.50 396.50 C 279.04 394.59, 283.73 395.60, 282.50 391.50 C 282.25 385.72, 283.17 382.67, 282.50 378.50 C 282.99 372.13, 280.64 368.80, 277.50 365.50 C 279.14 360.07, 282.73 356.46, 285.50 352.50 C 288.06 347.67, 289.00 343.18, 289.50 338.50 C 290.03 334.58, 290.97 331.83, 290.50 328.50 C 290.50 324.17, 290.50 320.83, 290.50 317.50 C 289.93 312.52, 287.14 309.36, 284.50 307.50 C 280.69 304.90, 276.91 305.65, 273.50 305.50 Z" fill="rgb(251.76092804303968,220.12945527908542,129.04606590450572)" stroke="rgb(251.76092804303968,220.12945527908542,129.04606590450572)" stroke-width="1" />
<path d="M 478.50 328.50 C 471.95 331.46, 465.28 334.11, 458.50 336.50 C 453.79 338.86, 449.57 340.01, 445.50 341.50 C 439.88 343.47, 435.76 345.65, 431.50 347.50 C 426.67 349.58, 422.25 350.24, 418.50 352.50 C 413.31 354.84, 408.60 355.93, 404.50 358.50 C 418.37 361.71, 429.55 366.82, 439.50 374.50 C 446.54 380.05, 452.88 386.07, 456.50 392.50 C 464.61 399.02, 488.13 387.01, 484.50 372.50 C 484.50 364.17, 484.50 356.83, 484.50 349.50 C 484.50 345.17, 484.50 341.83, 484.50 338.50 C 484.11 334.14, 483.80 328.36, 479.50 328.50 Z" fill="rgb(220.84444444444443,132.92222222222222,127.71111111111111)" stroke="rgb(220.84444444444443,132.92222222222222,127.71111111111111)" stroke-width="1" />
<path d="M 476.50 329.50 C 473.80 331.56, 470.45 332.04, 467.50 333.50 C 463.77 336.62, 459.25 335.43, 456.50 338.50 C 452.28 340.11, 448.65 340.73, 445.50 342.50 C 440.27 344.17, 437.73 346.63, 433.50 346.50 C 428.77 349.82, 424.23 350.17, 420.50 352.50 C 414.79 353.25, 411.29 356.93, 406.50 357.50 C 407.10 360.88, 411.73 359.58, 413.50 361.50 C 417.45 361.82, 420.14 362.75, 422.50 364.50 C 426.27 366.59, 429.41 366.78, 431.50 369.50 C 435.34 371.88, 438.47 373.58, 441.50 375.50 C 444.14 378.72, 448.11 381.70, 450.50 384.50 C 454.18 388.36, 455.82 391.64, 458.50 394.50 C 462.97 398.44, 467.49 393.01, 471.50 391.50 C 476.52 389.01, 480.43 387.28, 483.50 383.50 C 484.64 378.83, 484.63 374.69, 484.50 370.50 C 484.50 366.17, 484.50 362.83, 484.50 359.50 C 485.04 354.81, 482.73 352.29, 483.50 348.50 C 483.50 343.83, 483.50 340.17, 483.50 336.50 C 484.39 331.01, 482.05 328.30, 477.50 329.50 Z" fill="rgb(228.95287595287596,136.975744975745,130.98128898128897)" stroke="rgb(228.95287595287596,136.975744975745,130.98128898128897)" stroke-width="1" />
<path d="M 218.50 93.50 C 215.99 96.18, 205.86 94.97, 209.50 100.50 C 219.29 110.15, 226.14 120.01, 231.50 130.50 C 235.08 139.15, 238.70 146.36, 242.50 153.50 C 245.55 166.67, 249.08 179.07, 252.50 191.50 C 257.53 201.19, 270.48 190.84, 262.50 183.50 C 263.13 176.32, 259.97 172.86, 259.50 166.50 C 256.87 160.09, 255.89 154.01, 253.50 148.50 C 246.68 127.35, 236.17 109.15, 219.50 93.50 Z" fill="rgb(39.47770700636943,41.81528662420382,56.65605095541401)" stroke="rgb(39.47770700636943,41.81528662420382,56.65605095541401)" stroke-width="1" />
<path d="M 290.50 463.50 C 286.44 465.49, 281.60 465.61, 277.50 467.50 C 272.41 468.29, 268.87 470.39, 264.50 470.50 C 260.16 471.35, 258.02 474.10, 254.50 473.50 C 251.03 473.71, 249.81 475.92, 247.50 475.50 C 242.47 477.57, 237.90 478.32, 233.50 479.50 C 228.44 481.49, 223.60 481.61, 219.50 483.50 C 215.35 484.94, 211.49 484.67, 208.50 486.50 C 204.07 487.26, 200.48 487.64, 197.50 489.50 C 192.95 489.64, 190.21 491.75, 186.50 491.50 C 181.79 492.25, 179.05 494.36, 175.50 494.50 C 171.11 496.17, 167.22 496.62, 163.50 497.50 C 159.11 499.17, 155.22 499.62, 151.50 500.50 C 146.12 499.03, 146.12 508.97, 150.50 507.50 C 155.35 508.09, 157.65 504.91, 161.50 505.50 C 166.56 504.79, 169.44 502.21, 173.50 502.50 C 178.22 500.62, 182.11 500.17, 185.50 498.50 C 190.87 497.59, 195.35 496.94, 199.50 495.50 C 204.56 493.51, 209.40 493.39, 213.50 491.50 C 219.13 491.22, 222.76 488.53, 227.50 488.50 C 233.27 487.55, 236.98 485.04, 241.50 484.50 C 246.79 484.34, 249.37 481.04, 253.50 481.50 C 258.02 481.10, 260.16 478.35, 263.50 478.50 C 267.09 476.50, 270.63 476.82, 273.50 475.50 C 277.52 474.54, 280.48 473.46, 283.50 472.50 C 287.52 471.54, 290.48 470.46, 293.50 469.50 C 298.60 468.67, 294.74 462.78, 291.50 463.50 Z" fill="rgb(24.769681742043552,34.40954773869347,50.78140703517588)" stroke="rgb(24.769681742043552,34.40954773869347,50.78140703517588)" stroke-width="1" />
<path d="M 239.50 398.50 C 236.05 401.49, 230.87 400.32, 227.50 403.50 C 222.17 404.05, 218.46 406.07, 214.50 407.50 C 209.95 409.10, 205.96 409.66, 202.50 411.50 C 199.05 411.89, 197.17 413.64, 194.50 413.50 C 190.46 414.27, 188.54 416.73, 185.50 416.50 C 181.07 418.26, 177.48 418.64, 174.50 420.50 C 170.20 421.58, 166.71 422.20, 163.50 423.50 C 159.29 424.80, 155.80 425.42, 152.50 426.50 C 148.51 428.33, 144.65 428.06, 141.50 429.50 C 137.52 430.21, 134.82 431.60, 131.50 431.50 C 127.80 432.89, 124.83 433.64, 121.50 433.50 C 117.16 434.25, 117.66 442.07, 121.50 440.50 C 125.56 440.78, 128.18 440.01, 130.50 438.50 C 134.54 438.73, 136.46 436.27, 139.50 436.50 C 144.59 435.71, 148.13 433.61, 152.50 433.50 C 157.12 431.26, 161.69 431.30, 165.50 429.50 C 170.31 427.70, 174.88 427.74, 178.50 425.50 C 183.70 423.86, 188.30 423.14, 192.50 421.50 C 197.53 419.09, 202.47 418.91, 206.50 416.50 C 212.12 414.72, 217.09 413.78, 221.50 411.50 C 226.12 410.04, 230.09 409.46, 233.50 407.50 C 238.57 406.01, 242.79 404.86, 246.50 402.50 C 245.61 398.95, 242.63 398.03, 240.50 398.50 Z" fill="rgb(30.384538152610443,37.20783132530121,53.02710843373494)" stroke="rgb(30.384538152610443,37.20783132530121,53.02710843373494)" stroke-width="1" />
<path d="M 164.50 173.50 C 160.25 175.83, 154.88 175.47, 150.50 177.50 C 145.35 178.94, 140.87 179.59, 136.50 180.50 C 133.30 182.62, 129.82 181.65, 127.50 183.50 C 122.65 184.05, 119.09 185.30, 115.50 186.50 C 109.91 188.01, 104.97 188.69, 100.50 190.50 C 96.66 191.89, 93.26 191.91, 90.50 193.50 C 86.63 194.82, 83.09 194.50, 80.50 196.50 C 74.52 197.08, 70.29 199.46, 65.50 200.50 C 62.30 202.62, 58.82 201.65, 56.50 203.50 C 52.66 204.89, 49.26 204.91, 46.50 206.50 C 42.09 205.78, 42.04 210.54, 43.50 212.50 C 47.80 212.42, 51.29 211.80, 54.50 210.50 C 58.93 208.61, 63.22 208.76, 66.50 206.50 C 70.17 206.64, 72.05 204.89, 74.50 204.50 C 78.23 203.99, 80.37 202.05, 83.50 202.50 C 87.71 201.34, 90.29 199.66, 93.50 199.50 C 98.35 199.09, 100.65 195.91, 104.50 196.50 C 109.05 195.36, 111.79 193.25, 115.50 193.50 C 120.21 192.75, 122.95 190.64, 126.50 190.50 C 131.21 189.75, 133.95 187.64, 137.50 187.50 C 141.89 185.83, 145.78 185.38, 149.50 184.50 C 153.63 184.28, 155.49 182.00, 158.50 182.50 C 162.31 181.18, 164.87 180.25, 167.50 179.50 C 172.73 178.11, 169.90 171.56, 165.50 173.50 Z" fill="rgb(31.300200803212853,37.674698795180724,53.44277108433735)" stroke="rgb(31.300200803212853,37.674698795180724,53.44277108433735)" stroke-width="1" />
<path d="M 181.50 273.50 C 179.20 275.04, 176.08 274.63, 173.50 275.50 C 170.09 276.79, 167.42 277.43, 164.50 277.50 C 159.99 277.93, 157.47 279.77, 154.50 280.50 C 149.02 281.14, 144.98 282.86, 140.50 283.50 C 134.88 284.80, 130.80 286.42, 126.50 287.50 C 122.20 288.58, 118.71 289.20, 115.50 290.50 C 111.51 292.33, 107.65 292.06, 104.50 293.50 C 98.79 295.87, 93.12 295.91, 88.50 298.50 C 85.30 299.49, 82.70 299.51, 80.50 300.50 C 77.30 302.62, 73.82 301.65, 71.50 303.50 C 65.91 302.72, 65.60 308.51, 68.50 310.50 C 72.47 311.37, 74.26 309.38, 76.50 308.50 C 82.11 307.02, 86.58 305.22, 91.50 304.50 C 95.31 303.18, 97.87 302.25, 100.50 301.50 C 103.82 299.65, 107.30 300.62, 109.50 298.50 C 113.71 298.34, 116.29 296.66, 119.50 296.50 C 124.02 296.10, 126.16 293.35, 129.50 293.50 C 133.49 291.67, 137.35 291.94, 140.50 290.50 C 145.59 289.71, 149.13 287.61, 153.50 287.50 C 158.46 285.27, 163.54 285.73, 167.50 283.50 C 172.98 282.86, 177.02 281.14, 181.50 280.50 C 186.45 280.82, 187.17 272.81, 182.50 273.50 Z" fill="rgb(32.567481402763015,38.26567481402763,53.98724760892667)" stroke="rgb(32.567481402763015,38.26567481402763,53.98724760892667)" stroke-width="1" />
<path d="M 357.50 283.50 C 361.56 285.82, 366.57 285.85, 370.50 288.50 C 373.78 290.31, 376.41 291.25, 378.50 293.50 C 382.03 297.08, 384.95 299.51, 386.50 302.50 C 388.65 305.83, 388.84 308.97, 390.50 311.50 C 390.50 315.17, 390.50 317.83, 390.50 320.50 C 391.23 324.27, 389.42 326.00, 389.50 328.50 C 387.86 331.90, 387.63 334.89, 386.50 337.50 C 385.82 341.71, 382.85 343.56, 382.50 346.50 C 380.61 350.21, 379.12 352.68, 378.50 355.50 C 379.44 359.78, 383.08 354.75, 384.50 353.50 C 383.69 348.14, 386.40 345.24, 389.50 342.50 C 393.51 337.98, 396.04 334.25, 398.50 330.50 C 400.82 327.38, 400.21 324.04, 401.50 321.50 C 401.00 317.49, 403.28 315.63, 402.50 312.50 C 401.63 308.92, 402.04 305.80, 400.50 303.50 C 398.33 300.04, 398.30 296.70, 395.50 294.50 C 391.93 291.27, 389.22 289.38, 386.50 287.50 C 383.10 285.86, 380.11 285.63, 377.50 284.50 C 374.23 283.21, 371.32 283.46, 368.50 283.50 C 364.50 283.50, 361.50 283.50, 358.50 283.50 Z" fill="rgb(1.5943181818181817,1.3125,1.1477272727272727)" stroke="rgb(1.5943181818181817,1.3125,1.1477272727272727)" stroke-width="1" />
<path d="M 218.50 93.50 C 216.00 96.97, 208.33 94.11, 208.50 99.50 C 212.29 103.45, 215.74 106.13, 217.50 109.50 C 220.99 113.77, 223.96 116.84, 225.50 120.50 C 228.57 124.80, 230.43 128.20, 232.50 131.50 C 235.16 135.42, 235.05 139.49, 237.50 142.50 C 239.25 145.57, 238.44 149.79, 242.50 148.50 C 245.90 146.86, 248.89 146.63, 251.50 145.50 C 250.00 140.43, 249.22 136.06, 246.50 132.50 C 244.16 127.64, 242.15 123.65, 240.50 119.50 C 237.29 114.31, 234.32 110.44, 231.50 106.50 C 227.47 101.23, 223.45 97.38, 219.50 93.50 Z" fill="rgb(221.8168846611177,133.40190249702735,128.18668252080857)" stroke="rgb(221.8168846611177,133.40190249702735,128.18668252080857)" stroke-width="1" />
<path d="M 108.50 113.50 C 105.67 115.38, 101.52 114.07, 98.50 115.50 C 94.06 117.04, 89.72 116.41, 86.50 118.50 C 81.41 119.28, 77.27 119.95, 73.50 121.50 C 68.12 122.72, 63.75 123.96, 59.50 125.50 C 54.28 127.44, 49.88 128.95, 45.50 130.50 C 41.05 132.68, 36.83 133.02, 33.50 135.50 C 28.87 137.26, 24.95 138.31, 21.50 140.50 C 18.34 141.77, 19.36 146.74, 21.50 147.50 C 25.32 146.54, 27.97 145.17, 30.50 143.50 C 36.08 141.29, 40.76 139.33, 45.50 137.50 C 50.77 134.88, 55.63 133.67, 60.50 132.50 C 64.72 131.03, 67.70 129.99, 70.50 128.50 C 74.84 128.65, 76.98 125.90, 80.50 126.50 C 85.21 125.75, 87.95 123.64, 91.50 123.50 C 96.35 123.27, 99.35 121.01, 103.50 121.50 C 108.63 121.28, 111.55 119.15, 115.50 119.50 C 120.68 114.14, 112.09 115.70, 109.50 113.50 Z" fill="rgb(24.056135770234988,34.007832898172325,50.6201044386423)" stroke="rgb(24.056135770234988,34.007832898172325,50.6201044386423)" stroke-width="1" />
<path d="M 479.50 319.50 C 475.42 321.77, 471.17 323.66, 466.50 324.50 C 463.15 326.46, 460.48 326.65, 458.50 328.50 C 454.56 328.85, 452.71 331.82, 449.50 331.50 C 445.63 331.86, 444.37 335.14, 441.50 334.50 C 437.68 336.12, 435.21 337.61, 432.50 338.50 C 429.29 339.79, 426.84 340.51, 424.50 341.50 C 420.55 342.82, 417.86 343.75, 415.50 345.50 C 411.79 346.39, 409.32 347.88, 406.50 348.50 C 402.50 349.69, 400.12 351.38, 397.50 352.50 C 396.19 355.49, 398.22 360.53, 400.50 357.50 C 404.32 356.88, 406.79 355.39, 409.50 354.50 C 413.20 352.44, 416.55 351.96, 419.50 350.50 C 423.03 348.03, 426.79 348.54, 429.50 346.50 C 434.36 344.50, 438.52 343.21, 442.50 341.50 C 447.21 339.14, 451.43 337.99, 455.50 336.50 C 460.06 333.78, 464.43 333.00, 468.50 331.50 C 474.12 329.53, 478.24 327.35, 482.50 325.50 C 485.92 323.29, 484.08 318.09, 480.50 319.50 Z" fill="rgb(29.079658605974394,36.56330014224751,52.56187766714083)" stroke="rgb(29.079658605974394,36.56330014224751,52.56187766714083)" stroke-width="1" />
<path d="M 251.50 153.50 C 249.10 155.14, 246.11 155.37, 243.50 156.50 C 244.46 160.91, 245.04 164.88, 246.50 168.50 C 248.30 173.31, 248.26 177.88, 250.50 181.50 C 249.91 186.35, 253.09 188.65, 252.50 192.50 C 253.72 196.13, 256.79 196.56, 258.50 195.50 C 261.32 194.48, 265.45 194.98, 264.50 191.50 C 262.55 186.89, 263.14 182.23, 261.50 178.50 C 260.34 173.57, 259.26 169.60, 258.50 165.50 C 255.91 161.29, 257.72 153.72, 252.50 153.50 Z" fill="rgb(220.247311827957,132.59856630824373,127.54301075268818)" stroke="rgb(220.247311827957,132.59856630824373,127.54301075268818)" stroke-width="1" />
<path d="M 373.50 119.50 C 372.40 120.82, 367.17 120.76, 370.50 123.50 C 370.00 127.51, 372.28 129.37, 371.50 132.50 C 371.72 136.63, 374.00 138.49, 373.50 141.50 C 374.82 145.56, 374.47 149.32, 375.50 152.50 C 374.80 156.26, 377.20 157.74, 376.50 160.50 C 377.64 165.97, 378.35 170.62, 378.50 175.50 C 379.50 178.50, 379.50 180.50, 379.50 182.50 C 380.50 185.83, 380.50 188.17, 380.50 190.50 C 380.81 199.50, 383.19 189.92, 382.50 186.50 C 382.50 181.17, 382.50 176.83, 382.50 172.50 C 382.97 168.17, 382.03 165.42, 381.50 162.50 C 381.50 158.17, 381.50 154.83, 381.50 151.50 C 380.77 148.67, 380.13 146.79, 380.50 144.50 C 379.47 139.32, 379.97 134.50, 378.50 130.50 C 377.46 126.26, 378.74 119.54, 374.50 119.50 Z" fill="rgb(1.0416666666666667,0.6776315789473685,1.0285087719298245)" stroke="rgb(1.0416666666666667,0.6776315789473685,1.0285087719298245)" stroke-width="1" />
<path d="M 369.50 112.50 C 366.91 114.50, 363.37 114.18, 360.50 115.50 C 356.35 116.94, 352.49 116.67, 349.50 118.50 C 344.57 119.66, 340.60 120.74, 336.50 121.50 C 332.91 123.50, 329.37 123.18, 326.50 124.50 C 322.74 126.09, 319.34 126.11, 316.50 127.50 C 311.68 127.05, 309.96 132.60, 313.50 133.50 C 319.09 132.99, 324.03 132.31, 328.50 130.50 C 334.52 129.22, 339.30 127.35, 344.50 126.50 C 349.86 125.38, 353.57 123.67, 357.50 122.50 C 361.13 121.75, 363.69 120.82, 366.50 120.50 C 371.07 120.92, 373.15 114.17, 370.50 113.50 Z" fill="rgb(28.642543859649123,36.33991228070175,52.39912280701754)" stroke="rgb(28.642543859649123,36.33991228070175,52.39912280701754)" stroke-width="1" />
<path d="M 207.50 226.50 C 206.80 230.26, 208.50 233.03, 208.50 236.50 C 209.99 240.49, 209.87 244.15, 210.50 247.50 C 211.29 252.86, 213.07 256.40, 213.50 260.50 C 214.66 265.43, 215.74 269.40, 216.50 273.50 C 216.42 277.94, 219.51 280.22, 222.50 277.50 C 225.20 276.02, 233.75 273.65, 227.50 274.50 C 219.51 274.55, 220.76 266.17, 218.50 262.50 C 218.50 257.23, 216.50 253.77, 216.50 249.50 C 215.14 244.65, 215.05 240.27, 213.50 236.50 C 212.39 232.46, 213.20 226.19, 208.50 226.50 Z" fill="rgb(198.1075581395349,200.32558139534885,202.19767441860466)" stroke="rgb(198.1075581395349,200.32558139534885,202.19767441860466)" stroke-width="1" />
<path d="M 376.50 227.50 C 372.63 229.62, 367.37 228.38, 363.50 230.50 C 359.74 229.80, 358.26 232.20, 355.50 231.50 C 352.20 233.04, 349.08 232.63, 346.50 233.50 C 345.85 237.10, 345.98 240.57, 349.50 239.50 C 355.01 238.13, 359.63 237.00, 364.50 236.50 C 370.24 234.88, 375.57 234.67, 380.50 233.50 C 384.50 232.26, 381.41 225.67, 377.50 227.50 Z" fill="rgb(26.901818181818182,35.447272727272725,51.70909090909091)" stroke="rgb(26.901818181818182,35.447272727272725,51.70909090909091)" stroke-width="1" />
<path d="M 380.50 398.50 C 384.35 427.88, 408.53 414.51, 380.50 398.50 Z" fill="rgb(230.33333333333334,203.0,121.83333333333333)" stroke="rgb(230.33333333333334,203.0,121.83333333333333)" stroke-width="1" />
<path d="M 347.50 410.50 C 342.50 417.71, 354.52 424.61, 354.50 432.50 C 365.03 430.34, 354.54 414.41, 348.50 410.50 Z" fill="rgb(157.4375,143.75,96.625)" stroke="rgb(157.4375,143.75,96.625)" stroke-width="1" />
<path d="M 380.50 398.50 C 378.94 399.74, 378.94 403.26, 380.50 404.50 C 385.57 409.39, 387.93 413.99, 390.50 418.50 C 397.51 422.46, 395.57 413.34, 393.50 410.50 C 390.39 405.47, 386.53 399.38, 381.50 398.50 Z" fill="rgb(33.965714285714284,43.285714285714285,53.83428571428571)" stroke="rgb(33.965714285714284,43.285714285714285,53.83428571428571)" stroke-width="1" />
<path d="M 347.50 410.50 C 342.44 413.63, 348.46 417.37, 349.50 420.50 C 352.18 425.02, 352.82 428.98, 354.50 432.50 C 358.33 435.66, 360.39 429.96, 359.50 427.50 C 358.82 423.29, 355.85 421.44, 355.50 418.50 C 353.29 415.28, 351.07 411.31, 348.50 411.50 Z" fill="rgb(28.78395061728395,39.092592592592595,52.05555555555556)" stroke="rgb(28.78395061728395,39.092592592592595,52.05555555555556)" stroke-width="1" />
<path d="M 279.50 131.50 C 280.45 133.52, 280.20 136.04, 282.50 137.50 C 283.63 135.03, 280.70 133.83, 280.50 131.50 Z" fill="rgb(120.0,106.6470588235294,61.411764705882355)" stroke="rgb(120.0,106.6470588235294,61.411764705882355)" stroke-width="1" />
<path d="M 372.50 392.50 C 375.70 392.50, 375.70 392.50, 372.50 392.50 Z" fill="rgb(0.0,0.0,0.0)" stroke="rgb(0.0,0.0,0.0)" stroke-width="1" />
</svg>