<svg xmlns="http://www.w3.org/2000/svg" width="512" height="512" viewbox="0 0 512 512">
<path d="M 0.50 0.50 C 0.50 5.50, 0.50 10.50, 0.50 15.50 C 0.50 21.50, 0.50 26.50, 0.50 31.50 C 0.50 37.50, 0.50 42.50, 0.50 47.50 C 0.50 53.50, 0.50 58.50, 0.50 63.50 C 0.50 69.50, 0.50 74.50, 0.50 79.50 C 0.50 85.50, 0.50 90.50, 0.50 95.50 C 0.50 101.50, 0.50 106.50, 0.50 111.50 C 0.50 117.50, 0.50 122.50, 0.50 127.50 C 0.50 133.50, 0.50 138.50, 0.50 143.50 C 0.50 149.50, 0.50 154.50, 0.50 159.50 C 0.50 165.50, 0.50 170.50, 0.50 175.50 C 0.50 181.50, 0.50 186.50, 0.50 191.50 C 0.50 197.50, 0.50 202.50, 0.50 207.50 C 0.50 213.50, 0.50 218.50, 0.50 223.50 C 0.50 229.50, 0.50 234.50, 0.50 239.50 C 0.50 245.50, 0.50 250.50, 0.50 255.50 C 0.50 261.50, 0.50 266.50, 0.50 271.50 C 0.50 277.50, 0.50 282.50, 0.50 287.50 C 0.50 293.50, 0.50 298.50, 0.50 303.50 C 0.50 309.50, 0.50 314.50, 0.50 319.50 C 0.50 325.50, 0.50 330.50, 0.50 335.50 C 0.50 341.50, 0.50 346.50, 0.50 351.50 C 0.50 357.50, 0.50 362.50, 0.50 367.50 C 0.50 373.50, 0.50 378.50, 0.50 383.50 C 0.50 389.50, 0.50 394.50, 0.50 399.50 C 0.50 405.50, 0.50 410.50, 0.50 415.50 C 0.50 421.50, 0.50 426.50, 0.50 431.50 C 0.50 437.50, 0.50 442.50, 0.50 447.50 C 0.50 453.50, 0.50 458.50, 0.50 463.50 C 0.50 469.50, 0.50 474.50, 0.50 479.50 C 0.50 485.50, 0.50 490.50, 0.50 495.50 C 0.50 501.50, 0.50 506.50, 0.50 511.50 C 6.17 511.50, 10.83 511.50, 15.50 511.50 C 21.50 511.50, 26.50 511.50, 31.50 511.50 C 37.17 511.50, 41.83 511.50, 46.50 511.50 C 52.50 511.50, 57.50 511.50, 62.50 511.50 C 68.17 511.50, 72.83 511.50, 77.50 511.50 C 83.50 511.50, 88.50 511.50, 93.50 511.50 C 99.50 511.50, 104.50 511.50, 109.50 511.50 C 115.50 511.50, 120.50 511.50, 125.50 511.50 C 131.17 511.50, 135.83 511.50, 140.50 511.50 C 146.50 511.50, 151.50 511.50, 156.50 511.50 C 162.17 511.50, 166.83 511.50, 171.50 511.50 C 177.50 511.50, 182.50 511.50, 187.50 511.50 C 193.17 511.50, 197.83 511.50, 202.50 511.50 C 208.50 511.50, 213.50 511.50, 218.50 511.50 C 224.50 511.50, 229.50 511.50, 234.50 511.50 C 240.50 511.50, 245.50 511.50, 250.50 511.50 C 256.17 511.50, 260.83 511.50, 265.50 511.50 C 271.50 511.50, 276.50 511.50, 281.50 511.50 C 287.17 511.50, 291.83 511.50, 296.50 511.50 C 302.50 511.50, 307.50 511.50, 312.50 511.50 C 318.17 511.50, 322.83 511.50, 327.50 511.50 C 333.50 511.50, 338.50 511.50, 343.50 511.50 C 349.50 511.50, 354.50 511.50, 359.50 511.50 C 365.50 511.50, 370.50 511.50, 375.50 511.50 C 381.17 511.50, 385.83 511.50, 390.50 511.50 C 396.50 511.50, 401.50 511.50, 406.50 511.50 C 412.50 511.50, 417.50 511.50, 422.50 511.50 C 428.50 511.50, 433.50 511.50, 438.50 511.50 C 444.17 511.50, 448.83 511.50, 453.50 511.50 C 459.50 511.50, 464.50 511.50, 469.50 511.50 C 475.50 511.50, 480.50 511.50, 485.50 511.50 C 491.50 511.50, 496.50 511.50, 501.50 511.50 C 505.27 510.60, 511.89 513.55, 511.50 509.50 C 511.50 503.83, 511.50 499.17, 511.50 494.50 C 511.50 488.50, 511.50 483.50, 511.50 478.50 C 511.50 472.50, 511.50 467.50, 511.50 462.50 C 511.50 456.50, 511.50 451.50, 511.50 446.50 C 511.50 440.50, 511.50 435.50, 511.50 430.50 C 511.50 424.50, 511.50 419.50, 511.50 414.50 C 511.50 408.50, 511.50 403.50, 511.50 398.50 C 511.50 392.50, 511.50 387.50, 511.50 382.50 C 511.50 376.83, 511.50 372.17, 511.50 367.50 C 511.50 361.50, 511.50 356.50, 511.50 351.50 C 511.50 345.50, 511.50 340.50, 511.50 335.50 C 511.50 329.50, 511.50 324.50, 511.50 319.50 C 511.50 313.50, 511.50 308.50, 511.50 303.50 C 511.50 297.50, 511.50 292.50, 511.50 287.50 C 511.50 281.50, 511.50 276.50, 511.50 271.50 C 511.50 265.50, 511.50 260.50, 511.50 255.50 C 511.50 249.83, 511.50 245.17, 511.50 240.50 C 511.50 234.50, 511.50 229.50, 511.50 224.50 C 511.50 218.50, 511.50 213.50, 511.50 208.50 C 511.50 202.50, 511.50 197.50, 511.50 192.50 C 511.50 186.50, 511.50 181.50, 511.50 176.50 C 511.50 170.50, 511.50 165.50, 511.50 160.50 C 511.50 154.50, 511.50 149.50, 511.50 144.50 C 511.50 138.50, 511.50 133.50, 511.50 128.50 C 511.50 122.50, 511.50 117.50, 511.50 112.50 C 511.50 106.50, 511.50 101.50, 511.50 96.50 C 511.50 90.50, 511.50 85.50, 511.50 80.50 C 511.50 74.50, 511.50 69.50, 511.50 64.50 C 511.50 58.50, 511.50 53.50, 511.50 48.50 C 511.50 42.50, 511.50 37.50, 511.50 32.50 C 511.50 26.50, 511.50 21.50, 511.50 16.50 C 511.50 10.50, 511.50 5.50, 511.50 0.50 C 505.83 0.50, 501.17 0.50, 496.50 0.50 C 490.50 0.50, 485.50 0.50, 480.50 0.50 C 474.50 0.50, 469.50 0.50, 464.50 0.50 C 458.50 0.50, 453.50 0.50, 448.50 0.50 C 442.50 0.50, 437.50 0.50, 432.50 0.50 C 426.50 0.50, 421.50 0.50, 416.50 0.50 C 410.50 0.50, 405.50 0.50, 400.50 0.50 C 394.50 0.50, 389.50 0.50, 384.50 0.50 C 378.50 0.50, 373.50 0.50, 368.50 0.50 C 362.50 0.50, 357.50 0.50, 352.50 0.50 C 346.50 0.50, 341.50 0.50, 336.50 0.50 C 330.50 0.50, 325.50 0.50, 320.50 0.50 C 314.50 0.50, 309.50 0.50, 304.50 0.50 C 298.50 0.50, 293.50 0.50, 288.50 0.50 C 282.50 0.50, 277.50 0.50, 272.50 0.50 C 266.50 0.50, 261.50 0.50, 256.50 0.50 C 250.83 0.50, 246.17 0.50, 241.50 0.50 C 235.50 0.50, 230.50 0.50, 225.50 0.50 C 219.50 0.50, 214.50 0.50, 209.50 0.50 C 203.50 0.50, 198.50 0.50, 193.50 0.50 C 187.50 0.50, 182.50 0.50, 177.50 0.50 C 171.50 0.50, 166.50 0.50, 161.50 0.50 C 155.50 0.50, 150.50 0.50, 145.50 0.50 C 139.50 0.50, 134.50 0.50, 129.50 0.50 C 123.50 0.50, 118.50 0.50, 113.50 0.50 C 107.50 0.50, 102.50 0.50, 97.50 0.50 C 91.50 0.50, 86.50 0.50, 81.50 0.50 C 75.50 0.50, 70.50 0.50, 65.50 0.50 C 59.50 0.50, 54.50 0.50, 49.50 0.50 C 43.50 0.50, 38.50 0.50, 33.50 0.50 C 27.50 0.50, 22.50 0.50, 17.50 0.50 C 11.50 0.50, 6.50 0.50, 1.50 0.50 Z" fill="rgb(0.46271904192478175,0.4836409735396456,0.6616437247691574)" stroke="rgb(0.46271904192478175,0.4836409735396456,0.6616437247691574)" stroke-width="1" />
<path d="M 179.50 5.50 C 177.00 6.64, 174.54 7.58, 173.50 10.50 C 171.16 15.47, 171.44 20.53, 171.50 25.50 C 170.83 32.25, 172.44 37.05, 172.50 42.50 C 173.63 46.11, 173.86 49.10, 175.50 51.50 C 177.16 55.03, 177.35 58.17, 179.50 60.50 C 180.86 66.26, 186.84 68.69, 189.50 72.50 C 194.71 74.52, 197.17 79.77, 201.50 80.50 C 206.09 83.27, 205.02 90.45, 200.50 89.50 C 195.93 89.40, 191.98 90.24, 189.50 87.50 C 184.87 85.74, 180.95 84.69, 177.50 82.50 C 172.69 80.70, 168.12 80.74, 164.50 78.50 C 159.65 79.09, 157.35 75.91, 153.50 76.50 C 148.02 73.59, 142.42 73.36, 137.50 71.50 C 133.69 69.72, 130.31 69.28, 127.50 67.50 C 123.86 65.09, 120.68 65.01, 118.50 62.50 C 114.58 60.43, 112.22 58.03, 109.50 56.50 C 102.99 54.07, 97.65 55.05, 94.50 60.50 C 93.44 63.53, 93.32 65.95, 93.50 68.50 C 93.14 71.16, 94.39 73.48, 92.50 74.50 C 93.73 79.01, 94.58 82.27, 95.50 85.50 C 97.58 88.05, 95.38 91.38, 98.50 92.50 C 99.84 96.97, 101.06 100.49, 103.50 103.50 C 104.39 107.16, 107.90 108.73, 108.50 111.50 C 79.01 121.79, 48.10 127.64, 20.50 141.50 C 12.02 148.17, 20.46 158.33, 23.50 164.50 C 30.48 178.65, 37.27 191.46, 43.50 204.50 C 40.67 211.20, 48.05 215.77, 47.50 221.50 C 50.33 248.84, 60.10 271.88, 68.50 295.50 C 74.38 301.18, 63.02 309.10, 73.50 310.50 C 87.45 335.71, 99.25 361.41, 112.50 386.50 C 116.67 398.23, 123.07 408.04, 125.50 419.50 C 128.62 422.70, 127.65 426.18, 129.50 428.50 C 128.49 435.08, 119.41 431.15, 119.50 437.50 C 123.17 441.72, 134.64 436.11, 136.50 444.50 C 137.32 452.18, 140.89 457.73, 141.50 464.50 C 146.27 475.43, 144.63 488.02, 150.50 497.50 C 147.10 509.25, 164.34 502.48, 170.50 502.50 C 182.55 499.62, 193.17 495.70, 204.50 493.50 C 235.71 485.21, 265.76 476.51, 296.50 469.50 C 300.78 469.89, 302.13 473.92, 304.50 475.50 C 307.63 479.80, 311.18 479.66, 313.50 482.50 C 319.89 486.03, 325.11 488.97, 330.50 491.50 C 334.01 492.88, 337.01 493.08, 339.50 494.50 C 345.64 495.64, 351.20 495.76, 356.50 496.50 C 360.23 495.23, 362.64 498.91, 364.50 496.50 C 367.83 496.50, 370.17 496.50, 372.50 496.50 C 378.68 496.60, 383.06 494.78, 388.50 495.50 C 393.20 494.72, 396.53 494.06, 399.50 492.50 C 404.24 491.49, 407.37 489.99, 410.50 488.50 C 415.97 486.84, 420.49 485.29, 424.50 482.50 C 428.72 480.36, 431.47 478.09, 434.50 476.50 C 438.94 473.10, 442.29 470.45, 445.50 467.50 C 448.87 463.25, 451.77 461.06, 454.50 457.50 C 456.93 453.01, 459.19 449.45, 460.50 445.50 C 462.25 441.87, 463.18 439.31, 463.50 436.50 C 462.73 432.04, 464.75 429.74, 464.50 426.50 C 463.33 422.47, 463.94 421.01, 463.50 417.50 C 463.97 413.17, 463.03 410.42, 462.50 407.50 C 464.63 401.60, 471.31 404.14, 473.50 399.50 C 478.80 399.08, 481.87 393.80, 484.50 391.50 C 487.08 388.60, 489.30 385.97, 489.50 382.50 C 490.50 378.50, 490.50 375.50, 490.50 372.50 C 491.64 369.11, 490.22 368.57, 491.50 366.50 C 491.50 362.17, 491.50 358.83, 491.50 355.50 C 488.81 352.20, 491.67 349.08, 491.50 346.50 C 490.50 341.50, 490.50 337.50, 490.50 333.50 C 489.82 327.75, 491.46 323.96, 491.50 319.50 C 490.76 314.13, 484.49 313.30, 483.50 309.50 C 478.96 306.20, 475.89 303.98, 473.50 300.50 C 469.55 297.71, 466.87 294.26, 463.50 292.50 C 459.82 288.06, 456.35 286.53, 453.50 283.50 C 449.09 280.46, 447.62 277.40, 444.50 275.50 C 439.80 272.71, 437.20 268.29, 433.50 266.50 C 427.16 261.18, 421.62 257.36, 416.50 252.50 C 411.13 247.78, 405.87 245.22, 401.50 240.50 C 396.58 235.96, 389.97 234.19, 387.50 228.50 C 385.41 225.56, 386.99 222.10, 386.50 219.50 C 387.03 215.58, 387.97 212.83, 387.50 209.50 C 387.50 205.83, 387.50 203.17, 387.50 200.50 C 387.50 196.50, 387.50 193.50, 387.50 190.50 C 387.50 184.17, 387.50 178.83, 387.50 173.50 C 387.50 167.17, 387.50 161.83, 387.50 156.50 C 388.26 150.38, 386.24 146.41, 386.50 141.50 C 384.72 136.49, 386.08 131.18, 383.50 127.50 C 383.96 122.03, 382.66 118.29, 381.50 114.50 C 378.68 112.11, 380.32 108.89, 377.50 107.50 C 374.41 102.81, 373.87 98.07, 370.50 94.50 C 368.47 90.51, 366.53 87.49, 364.50 84.50 C 361.97 80.31, 358.79 77.80, 357.50 74.50 C 352.85 70.71, 351.00 66.49, 347.50 64.50 C 343.27 61.92, 340.65 58.86, 336.50 59.50 C 329.94 58.63, 325.06 60.37, 319.50 60.50 C 315.29 60.66, 312.71 62.34, 309.50 62.50 C 304.15 63.12, 300.09 64.44, 295.50 64.50 C 289.91 65.56, 285.85 66.88, 281.50 67.50 C 276.41 67.81, 273.59 70.19, 269.50 69.50 C 265.36 67.51, 262.52 64.78, 259.50 62.50 C 255.30 59.28, 253.29 56.35, 249.50 54.50 C 245.90 50.20, 242.25 49.42, 239.50 46.50 C 235.05 43.44, 231.87 40.76, 228.50 38.50 C 223.12 34.60, 218.50 32.30, 214.50 28.50 C 209.43 25.20, 204.91 22.99, 200.50 20.50 C 197.25 16.31, 192.42 15.54, 191.50 11.50 C 187.84 7.22, 184.63 5.24, 180.50 5.50 Z" fill="rgb(26.03035109220676,30.835700382092135,42.1992646528729)" stroke="rgb(26.03035109220676,30.835700382092135,42.1992646528729)" stroke-width="1" />
<path d="M 105.50 116.50 C 92.40 126.84, 73.03 124.05, 56.50 133.50 C 37.67 139.75, 27.17 140.46, 16.50 149.50 C 21.66 159.77, 25.95 169.40, 31.50 178.50 C 43.41 203.23, 51.34 208.48, 49.50 232.50 C 50.83 239.50, 53.02 245.14, 53.50 251.50 C 56.49 264.86, 61.98 275.77, 65.50 287.50 C 71.28 299.54, 70.59 306.07, 75.50 310.50 C 76.89 314.48, 78.30 317.45, 79.50 320.50 C 81.19 325.10, 84.49 327.62, 84.50 331.50 C 87.08 336.20, 89.05 339.74, 90.50 343.50 C 92.89 347.48, 94.30 350.45, 95.50 353.50 C 97.81 357.98, 99.49 361.31, 101.50 364.50 C 103.69 368.28, 104.31 371.72, 106.50 374.50 C 108.51 378.69, 110.19 382.02, 111.50 385.50 C 114.04 389.47, 115.33 392.96, 116.50 396.50 C 118.94 401.59, 120.88 405.48, 122.50 409.50 C 123.81 414.92, 127.54 417.93, 127.50 422.50 C 129.38 425.74, 129.67 430.30, 133.50 429.50 C 137.20 429.25, 139.45 427.90, 142.50 428.50 C 147.76 427.13, 151.32 425.06, 155.50 424.50 C 160.87 423.25, 164.79 420.92, 169.50 420.50 C 174.86 419.23, 178.65 416.59, 183.50 416.50 C 188.52 414.08, 193.22 413.31, 197.50 411.50 C 201.56 410.65, 204.10 408.53, 207.50 408.50 C 211.72 406.89, 215.35 406.27, 218.50 404.50 C 222.81 403.10, 226.58 402.83, 229.50 400.50 C 234.60 401.36, 236.64 397.22, 240.50 397.50 C 240.75 392.79, 238.64 390.05, 238.50 386.50 C 236.32 382.60, 238.06 378.07, 237.50 374.50 C 234.68 370.53, 238.80 367.20, 237.50 363.50 C 238.92 357.39, 234.90 354.96, 231.50 352.50 C 226.63 348.85, 222.65 345.48, 218.50 342.50 C 214.14 337.45, 210.72 333.02, 207.50 328.50 C 204.30 323.45, 201.64 319.58, 199.50 315.50 C 197.42 309.92, 194.58 306.08, 193.50 301.50 C 190.71 297.30, 190.60 292.99, 188.50 289.50 C 188.76 284.17, 184.98 281.52, 184.50 277.50 C 183.19 272.47, 184.54 269.10, 183.50 264.50 C 181.15 258.73, 182.34 252.48, 180.50 247.50 C 180.92 241.85, 180.13 237.71, 179.50 233.50 C 179.50 229.50, 179.50 226.50, 179.50 223.50 C 179.50 219.50, 179.50 216.50, 179.50 213.50 C 177.98 209.58, 179.63 205.76, 177.50 203.50 C 177.27 198.99, 176.42 195.73, 175.50 192.50 C 173.10 186.21, 172.87 180.26, 168.50 176.50 C 153.09 176.55, 172.30 174.79, 166.50 166.50 C 164.42 161.26, 161.71 157.69, 160.50 153.50 C 157.43 149.44, 156.62 145.28, 153.50 143.50 C 150.92 138.58, 146.26 135.93, 143.50 132.50 C 140.22 128.76, 136.43 128.66, 133.50 126.50 C 129.40 123.26, 125.08 123.98, 122.50 120.50 C 114.35 120.17, 111.96 117.78, 106.50 117.50 Z" fill="rgb(227.3011370735974,136.14500812195428,130.33131325752842)" stroke="rgb(227.3011370735974,136.14500812195428,130.33131325752842)" stroke-width="1" />
<path d="M 345.50 284.50 C 342.79 285.87, 339.63 286.15, 336.50 286.50 C 331.55 287.20, 329.29 291.00, 326.50 293.50 C 325.16 299.90, 326.03 304.85, 330.50 307.50 C 335.83 310.32, 340.21 312.00, 345.50 311.50 C 349.03 312.96, 352.39 312.43, 355.50 312.50 C 359.50 312.50, 362.50 312.50, 365.50 312.50 C 370.62 311.77, 373.95 314.03, 375.50 317.50 C 373.23 322.83, 367.34 318.65, 367.50 323.50 C 363.74 321.79, 360.72 319.70, 356.50 320.50 C 351.02 319.55, 348.10 322.35, 344.50 323.50 C 341.17 325.65, 338.03 325.84, 335.50 327.50 C 331.55 328.96, 328.20 329.44, 325.50 331.50 C 321.87 332.25, 319.31 333.18, 316.50 333.50 C 312.13 334.60, 309.73 337.06, 306.50 337.50 C 302.49 339.50, 298.80 340.80, 298.50 344.50 C 297.11 348.48, 295.70 351.45, 294.50 354.50 C 291.72 357.79, 291.28 360.63, 288.50 362.50 C 286.31 368.84, 279.69 371.23, 277.50 364.50 C 287.23 351.89, 291.69 337.38, 290.50 320.50 C 290.85 304.63, 268.45 301.60, 262.50 314.50 C 258.09 322.86, 255.39 330.51, 253.50 338.50 C 251.53 357.29, 240.55 391.08, 262.50 398.50 C 268.42 399.25, 271.85 396.40, 276.50 396.50 C 280.34 395.44, 283.52 395.21, 286.50 394.50 C 290.83 394.50, 294.17 394.50, 297.50 394.50 C 303.51 398.65, 300.39 404.45, 299.50 409.50 C 296.96 414.75, 295.45 419.31, 296.50 423.50 C 297.47 427.13, 295.84 429.69, 295.50 432.50 C 294.34 436.58, 297.32 436.12, 297.50 438.50 C 294.04 441.95, 301.20 442.04, 299.50 445.50 C 301.01 450.31, 303.64 453.25, 305.50 456.50 C 310.06 461.29, 312.40 464.44, 316.50 467.50 C 321.45 470.96, 325.21 473.86, 329.50 475.50 C 335.28 476.75, 338.72 480.25, 343.50 480.50 C 348.65 482.40, 353.48 482.68, 358.50 482.50 C 362.17 483.50, 364.83 483.50, 367.50 483.50 C 371.55 484.10, 373.80 482.75, 376.50 482.50 C 380.96 483.27, 383.26 481.25, 386.50 481.50 C 392.72 480.51, 396.81 477.78, 401.50 476.50 C 407.05 473.54, 412.05 471.69, 416.50 468.50 C 420.49 465.95, 422.92 463.03, 425.50 460.50 C 428.67 456.26, 431.20 455.07, 432.50 451.50 C 435.16 447.97, 435.35 444.83, 437.50 442.50 C 439.83 438.72, 438.99 434.62, 440.50 431.50 C 442.07 425.68, 441.36 419.91, 441.50 414.50 C 440.76 407.51, 438.81 402.43, 436.50 397.50 C 435.34 393.35, 432.65 391.24, 431.50 388.50 C 427.55 384.71, 424.87 381.26, 421.50 379.50 C 417.11 376.98, 414.12 374.47, 410.50 373.50 C 405.47 371.56, 401.76 369.88, 397.50 369.50 C 391.86 368.92, 388.29 366.72, 383.50 367.50 C 379.13 367.37, 375.42 365.36, 376.50 361.50 C 376.51 356.76, 378.01 353.63, 379.50 350.50 C 383.21 344.50, 384.68 341.07, 386.50 335.50 C 388.15 329.31, 390.01 325.50, 390.50 319.50 C 390.55 315.47, 389.09 311.06, 387.50 307.50 C 385.53 301.80, 382.37 298.00, 378.50 294.50 C 372.61 290.91, 368.08 287.44, 362.50 286.50 C 357.27 283.99, 351.77 284.51, 346.50 284.50 Z" fill="rgb(253.0241538539605,221.16369817831227,129.60521642056122)" stroke="rgb(253.0241538539605,221.16369817831227,129.60521642056122)" stroke-width="1" />
<path d="M 168.50 183.50 C 166.24 185.63, 162.42 183.98, 159.50 184.50 C 154.91 184.88, 151.70 186.19, 148.50 187.50 C 142.76 185.03, 145.64 194.45, 141.50 191.50 C 137.33 190.59, 135.26 191.83, 131.50 191.50 C 127.69 191.82, 125.13 192.75, 122.50 193.50 C 118.53 194.23, 116.01 196.07, 112.50 195.50 C 108.52 197.21, 105.34 197.44, 102.50 198.50 C 98.04 198.73, 95.74 200.75, 92.50 200.50 C 88.45 203.18, 84.58 202.88, 81.50 204.50 C 76.76 205.32, 73.64 207.65, 69.50 207.50 C 64.64 209.17, 60.56 210.31, 56.50 211.50 C 53.15 213.60, 49.48 212.50, 47.50 215.50 C 48.34 221.43, 48.06 226.82, 49.50 231.50 C 51.18 234.42, 49.54 237.70, 51.50 239.50 C 52.37 243.08, 51.96 246.20, 53.50 248.50 C 53.07 252.62, 56.44 254.17, 55.50 257.50 C 57.09 261.26, 57.11 264.66, 58.50 267.50 C 60.14 270.90, 60.37 273.89, 61.50 276.50 C 63.63 280.11, 63.86 283.10, 65.50 285.50 C 68.08 290.55, 68.27 297.10, 72.50 299.50 C 76.00 298.30, 80.39 300.66, 82.50 297.50 C 86.13 296.75, 88.69 295.82, 91.50 295.50 C 97.70 293.50, 103.25 292.36, 108.50 290.50 C 114.38 288.07, 120.27 288.08, 125.50 286.50 C 128.81 285.92, 130.03 283.71, 132.50 284.50 C 137.53 282.43, 142.10 281.68, 146.50 280.50 C 151.32 279.87, 154.78 278.38, 158.50 277.50 C 163.43 276.34, 167.40 275.26, 171.50 274.50 C 175.49 271.87, 180.12 273.20, 183.50 271.50 C 182.97 266.78, 182.62 262.98, 181.50 259.50 C 182.28 255.37, 180.00 253.51, 180.50 250.50 C 180.75 246.26, 178.73 243.96, 179.50 240.50 C 178.97 236.58, 178.03 233.83, 178.50 230.50 C 176.45 226.79, 179.84 224.32, 177.50 221.50 C 177.50 217.83, 177.50 215.17, 177.50 212.50 C 176.69 206.89, 175.81 202.32, 175.50 197.50 C 173.30 192.43, 174.07 185.62, 169.50 183.50 Z" fill="rgb(228.9952969865877,136.99747430761192,130.9975614004529)" stroke="rgb(228.9952969865877,136.99747430761192,130.9975614004529)" stroke-width="1" />
<path d="M 106.50 72.50 C 102.65 75.80, 107.08 79.75, 104.50 83.50 C 104.06 90.23, 105.87 95.04, 108.50 99.50 C 112.41 105.43, 118.05 108.49, 123.50 109.50 C 128.88 112.59, 131.94 117.86, 136.50 119.50 C 141.50 121.36, 144.93 123.61, 148.50 125.50 C 153.81 129.69, 156.22 133.32, 159.50 137.50 C 161.38 141.74, 164.37 144.53, 164.50 148.50 C 166.81 152.98, 168.49 156.31, 170.50 159.50 C 171.74 163.87, 173.26 167.13, 174.50 170.50 C 176.54 174.54, 178.08 177.79, 178.50 181.50 C 180.13 186.32, 181.62 189.78, 182.50 193.50 C 183.32 198.10, 183.68 201.90, 184.50 205.50 C 185.55 210.34, 186.31 214.30, 186.50 218.50 C 186.56 224.95, 188.17 229.75, 187.50 235.50 C 188.50 239.17, 188.50 241.83, 188.50 244.50 C 188.75 248.20, 190.10 250.45, 189.50 253.50 C 190.48 259.37, 190.97 264.44, 191.50 269.50 C 193.35 274.15, 194.49 278.09, 194.50 282.50 C 196.23 287.75, 198.57 291.33, 199.50 295.50 C 202.17 301.44, 204.85 305.97, 207.50 310.50 C 211.14 316.51, 214.64 321.58, 218.50 326.50 C 221.56 328.81, 222.54 331.95, 224.50 334.50 C 227.49 338.64, 230.22 341.48, 232.50 344.50 C 236.40 348.53, 240.65 348.17, 240.50 343.50 C 241.33 338.99, 242.71 334.39, 239.50 331.50 C 237.27 327.93, 235.38 325.22, 233.50 322.50 C 231.57 318.06, 229.53 315.07, 226.50 312.50 C 222.50 307.97, 220.50 303.03, 217.50 298.50 C 215.38 292.88, 213.92 287.99, 211.50 283.50 C 210.54 279.48, 209.46 276.52, 208.50 273.50 C 207.79 269.52, 206.40 266.82, 206.50 263.50 C 205.13 259.79, 204.85 256.63, 204.50 253.50 C 203.55 247.87, 202.56 243.67, 201.50 239.50 C 201.54 233.54, 199.73 229.35, 199.50 224.50 C 199.35 220.63, 196.07 217.09, 198.50 214.50 C 201.70 211.38, 205.18 212.35, 207.50 210.50 C 211.34 209.11, 214.74 209.09, 217.50 207.50 C 221.54 207.73, 223.46 205.27, 226.50 205.50 C 230.72 204.03, 233.70 202.99, 236.50 201.50 C 237.01 197.90, 238.59 194.44, 236.50 192.50 C 237.00 188.49, 234.72 186.63, 235.50 183.50 C 233.98 176.97, 232.63 171.78, 231.50 166.50 C 230.38 159.66, 227.33 155.04, 226.50 149.50 C 224.12 142.77, 220.45 137.99, 218.50 132.50 C 214.58 125.72, 209.97 120.64, 205.50 115.50 C 200.76 110.53, 196.45 107.96, 192.50 104.50 C 187.26 102.27, 183.31 99.34, 178.50 98.50 C 172.08 96.38, 167.03 94.36, 161.50 93.50 C 158.10 91.86, 155.11 91.63, 152.50 90.50 C 148.79 89.61, 146.32 88.12, 143.50 87.50 C 138.18 84.33, 132.99 83.25, 128.50 80.50 C 124.44 78.98, 121.80 76.44, 118.50 75.50 C 113.91 74.46, 111.43 71.72, 107.50 72.50 Z" fill="rgb(246.78053097345133,215.8276302851524,126.78731563421829)" stroke="rgb(246.78053097345133,215.8276302851524,126.78731563421829)" stroke-width="1" />
<path d="M 245.50 405.50 C 242.82 409.21, 237.41 406.34, 234.50 409.50 C 230.35 412.09, 225.98 411.72, 222.50 413.50 C 194.85 423.82, 166.76 430.65, 139.50 439.50 C 133.67 450.77, 147.27 469.84, 146.50 485.50 C 153.55 509.25, 180.48 487.77, 196.50 487.50 C 205.28 485.76, 212.81 483.45, 220.50 481.50 C 229.59 479.72, 237.00 476.30, 245.50 475.50 C 252.14 473.11, 257.76 471.65, 263.50 470.50 C 270.60 468.08, 276.84 466.99, 282.50 464.50 C 285.99 463.80, 290.96 463.89, 290.50 460.50 C 286.57 453.16, 285.86 445.49, 283.50 438.50 C 283.50 433.17, 283.50 428.83, 283.50 424.50 C 284.97 418.89, 284.75 413.58, 287.50 409.50 C 286.73 403.59, 279.14 408.36, 275.50 407.50 C 265.05 410.12, 255.02 409.74, 246.50 405.50 Z" fill="rgb(224.75,134.84146341463415,129.28658536585365)" stroke="rgb(224.75,134.84146341463415,129.28658536585365)" stroke-width="1" />
<path d="M 240.50 407.50 C 238.52 409.35, 235.48 408.65, 233.50 410.50 C 227.88 411.63, 234.99 413.24, 231.50 415.50 C 226.15 412.14, 222.09 415.58, 216.50 415.50 C 212.49 417.61, 208.51 417.39, 205.50 419.50 C 200.69 420.48, 197.31 422.52, 193.50 423.50 C 187.17 424.03, 183.03 427.45, 177.50 427.50 C 171.59 430.06, 166.52 431.23, 161.50 432.50 C 156.40 434.39, 151.78 435.04, 147.50 436.50 C 143.09 437.96, 137.52 438.05, 135.50 440.50 C 137.18 446.83, 138.23 452.41, 140.50 457.50 C 140.60 461.87, 143.06 464.27, 143.50 467.50 C 143.75 471.20, 145.10 473.45, 144.50 476.50 C 145.87 480.21, 146.15 483.37, 146.50 486.50 C 148.47 490.59, 149.72 495.15, 152.50 496.50 C 157.70 497.31, 161.66 496.55, 165.50 495.50 C 170.31 493.70, 174.88 493.74, 178.50 491.50 C 184.98 491.67, 188.92 488.09, 194.50 488.50 C 197.82 486.65, 201.30 487.62, 203.50 485.50 C 207.84 485.65, 209.98 482.90, 213.50 483.50 C 217.54 482.73, 219.46 480.27, 222.50 480.50 C 226.71 480.34, 229.29 478.66, 232.50 478.50 C 237.60 476.74, 241.57 475.66, 245.50 474.50 C 250.26 472.10, 255.11 472.37, 259.50 471.50 C 264.60 468.61, 269.44 468.49, 273.50 466.50 C 278.65 465.06, 283.13 464.41, 287.50 463.50 C 288.93 459.71, 290.12 457.71, 287.50 455.50 C 286.96 449.98, 284.45 446.27, 284.50 441.50 C 281.87 435.62, 282.88 431.35, 282.50 425.50 C 284.54 421.60, 282.53 417.02, 285.50 414.50 C 287.43 405.83, 280.29 407.88, 275.50 408.50 C 270.81 407.96, 268.29 410.27, 264.50 409.50 C 259.79 409.28, 255.60 410.20, 252.50 408.50 C 248.17 407.50, 244.83 407.50, 241.50 407.50 Z" fill="rgb(228.98725013506214,136.992868719611,130.9947055645597)" stroke="rgb(228.98725013506214,136.992868719611,130.9947055645597)" stroke-width="1" />
<path d="M 113.50 120.50 C 110.67 122.38, 106.52 121.07, 103.50 122.50 C 98.77 124.16, 93.94 123.16, 90.50 125.50 C 85.14 125.62, 81.43 127.33, 77.50 128.50 C 72.68 129.13, 69.22 130.62, 65.50 131.50 C 60.70 133.33, 56.71 134.67, 52.50 135.50 C 47.42 136.83, 44.48 139.93, 40.50 140.50 C 35.51 142.38, 31.82 143.99, 28.50 146.50 C 21.64 151.07, 15.31 139.42, 16.50 150.50 C 17.44 154.27, 19.75 156.06, 20.50 158.50 C 23.48 164.31, 25.82 168.98, 28.50 173.50 C 30.98 178.30, 33.06 182.27, 34.50 186.50 C 37.85 191.83, 39.54 196.43, 42.50 200.50 C 43.43 204.93, 46.86 205.17, 49.50 203.50 C 53.62 203.93, 55.17 200.56, 58.50 201.50 C 62.62 200.93, 64.17 197.56, 67.50 198.50 C 71.09 196.50, 74.63 196.82, 77.50 195.50 C 81.09 193.50, 84.63 193.82, 87.50 192.50 C 93.00 190.43, 98.42 190.58, 102.50 187.50 C 107.43 188.28, 109.91 185.54, 113.50 185.50 C 118.21 184.75, 120.95 182.64, 124.50 182.50 C 128.71 181.20, 132.20 180.58, 135.50 179.50 C 140.43 178.33, 144.14 176.62, 148.50 176.50 C 153.27 174.95, 157.41 174.28, 161.50 173.50 C 169.48 173.54, 164.99 166.66, 164.50 163.50 C 160.50 158.44, 160.33 153.21, 156.50 149.50 C 154.84 143.06, 149.11 139.72, 145.50 135.50 C 139.67 132.23, 135.34 128.76, 130.50 126.50 C 124.98 123.33, 120.37 120.39, 114.50 120.50 Z" fill="rgb(228.8008028098344,136.90002508780734,130.9212242849975)" stroke="rgb(228.8008028098344,136.90002508780734,130.9212242849975)" stroke-width="1" />
<path d="M 179.50 18.50 C 175.86 20.93, 178.13 25.82, 177.50 29.50 C 177.45 35.13, 178.44 39.33, 179.50 43.50 C 181.00 49.79, 184.25 53.94, 186.50 58.50 C 188.90 62.03, 191.86 63.06, 194.50 64.50 C 197.93 68.06, 200.46 70.41, 203.50 71.50 C 207.25 75.42, 210.90 76.20, 213.50 79.50 C 217.58 83.11, 221.49 84.71, 224.50 88.50 C 228.88 93.39, 231.48 96.48, 235.50 100.50 C 239.33 105.49, 241.96 109.98, 244.50 114.50 C 247.84 119.36, 249.85 123.35, 251.50 127.50 C 254.10 132.86, 256.18 137.02, 257.50 141.50 C 260.05 146.88, 261.56 151.28, 263.50 155.50 C 264.38 161.22, 266.33 165.49, 266.50 170.50 C 266.72 174.63, 269.00 176.49, 268.50 179.50 C 268.81 183.93, 271.19 186.07, 270.50 189.50 C 274.60 192.56, 281.23 188.29, 285.50 187.50 C 290.59 186.71, 294.13 184.61, 298.50 184.50 C 302.71 183.34, 305.29 181.66, 308.50 181.50 C 313.02 180.74, 316.00 177.74, 316.50 174.50 C 315.35 170.23, 315.31 166.50, 313.50 163.50 C 312.68 159.09, 310.82 156.12, 310.50 152.50 C 308.10 148.19, 307.83 144.42, 305.50 141.50 C 303.80 137.18, 302.00 133.90, 300.50 130.50 C 297.33 127.04, 297.30 123.70, 294.50 121.50 C 291.83 118.11, 291.17 114.89, 288.50 112.50 C 286.45 108.44, 282.33 106.65, 281.50 103.50 C 277.83 99.83, 275.17 97.17, 272.50 94.50 C 269.71 89.41, 267.17 85.22, 263.50 81.50 C 259.28 75.98, 255.31 71.77, 251.50 67.50 C 245.40 61.27, 240.03 56.68, 234.50 52.50 C 231.11 48.83, 227.89 48.17, 225.50 45.50 C 222.02 43.39, 219.52 41.32, 216.50 40.50 C 210.90 37.01, 205.90 35.48, 201.50 32.50 C 197.68 29.05, 194.19 28.24, 191.50 25.50 C 187.51 21.68, 184.97 17.75, 180.50 18.50 Z" fill="rgb(251.79433187657264,220.1333598198914,129.0321811680572)" stroke="rgb(251.79433187657264,220.1333598198914,129.0321811680572)" stroke-width="1" />
<path d="M 316.50 191.50 C 313.14 192.91, 309.33 193.23, 305.50 193.50 C 301.57 192.72, 299.96 195.15, 297.50 195.50 C 290.95 196.32, 286.23 199.12, 280.50 199.50 C 275.69 200.48, 272.31 202.52, 268.50 203.50 C 263.78 204.38, 260.32 205.87, 256.50 206.50 C 249.89 207.51, 245.32 211.01, 239.50 211.50 C 236.18 213.35, 232.70 212.38, 230.50 214.50 C 226.92 215.37, 223.80 214.96, 221.50 216.50 C 215.96 218.81, 210.87 218.78, 206.50 220.50 C 207.48 231.55, 212.75 234.79, 211.50 245.50 C 213.14 257.72, 215.67 272.57, 220.50 277.50 C 228.07 276.07, 233.67 272.29, 240.50 271.50 C 244.34 270.12, 247.45 269.39, 250.50 268.50 C 254.49 266.67, 258.35 266.94, 261.50 265.50 C 267.88 264.29, 272.88 262.15, 278.50 261.50 C 283.95 259.44, 287.51 256.25, 292.50 256.50 C 296.25 255.71, 299.08 255.09, 301.50 253.50 C 305.71 253.15, 308.14 251.91, 310.50 250.50 C 314.91 251.63, 316.09 247.37, 319.50 248.50 C 323.01 248.74, 323.61 244.36, 326.50 245.50 C 330.41 243.47, 334.87 245.20, 337.50 242.50 C 338.72 238.46, 338.25 234.72, 336.50 231.50 C 336.69 225.67, 334.72 221.74, 333.50 217.50 C 332.02 211.89, 330.22 207.42, 329.50 202.50 C 326.40 196.53, 324.81 189.72, 317.50 191.50 Z" fill="rgb(42.09002904162633,51.466279444982256,64.69603097773475)" stroke="rgb(42.09002904162633,51.466279444982256,64.69603097773475)" stroke-width="1" />
<path d="M 380.50 234.50 C 376.60 236.54, 371.26 235.11, 367.50 237.50 C 360.50 238.72, 352.59 239.03, 348.50 242.50 C 357.59 260.41, 375.54 275.85, 393.50 281.50 C 416.90 298.74, 411.88 329.20, 399.50 348.50 C 413.23 345.45, 425.86 338.75, 439.50 334.50 C 452.87 328.02, 469.33 325.01, 478.50 316.50 C 464.69 299.72, 446.41 288.95, 431.50 273.50 C 414.09 260.02, 399.21 243.83, 381.50 234.50 Z" fill="rgb(218.16197183098592,131.38028169014083,126.38028169014085)" stroke="rgb(218.16197183098592,131.38028169014083,126.38028169014085)" stroke-width="1" />
<path d="M 355.50 239.50 C 354.10 241.49, 349.58 239.68, 349.50 242.50 C 353.56 245.90, 348.71 245.76, 349.50 248.50 C 354.40 254.32, 358.08 255.99, 361.50 260.50 C 365.35 264.53, 368.82 266.06, 371.50 269.50 C 375.85 272.38, 376.69 275.86, 380.50 276.50 C 385.51 278.49, 389.87 279.61, 393.50 282.50 C 398.79 285.27, 401.57 290.18, 404.50 293.50 C 407.08 298.40, 409.16 302.09, 409.50 306.50 C 408.72 310.63, 411.00 312.49, 410.50 315.50 C 409.43 319.61, 409.96 322.97, 408.50 325.50 C 407.54 329.52, 406.46 332.48, 405.50 335.50 C 403.42 339.19, 402.51 342.37, 401.50 345.50 C 396.96 352.20, 404.94 347.36, 407.50 347.50 C 411.72 344.89, 415.35 344.27, 418.50 342.50 C 422.69 339.69, 427.31 340.31, 430.50 337.50 C 434.87 336.26, 438.13 334.74, 441.50 333.50 C 446.08 331.63, 449.92 330.37, 453.50 328.50 C 457.12 327.38, 459.50 325.69, 462.50 325.50 C 466.45 324.18, 469.14 323.25, 471.50 321.50 C 477.62 320.94, 481.54 315.18, 475.50 311.50 C 470.19 305.63, 465.00 302.91, 460.50 298.50 C 453.88 293.85, 449.07 288.27, 443.50 284.50 C 437.14 278.90, 431.99 273.79, 426.50 269.50 C 420.38 263.32, 414.77 259.31, 409.50 254.50 C 405.61 252.03, 403.39 248.97, 400.50 247.50 C 396.52 245.26, 394.25 242.30, 391.50 240.50 C 387.03 239.50, 384.26 241.20, 380.50 240.50 C 376.60 241.36, 372.47 239.98, 368.50 240.50 C 363.44 241.11, 360.21 239.73, 356.50 239.50 Z" fill="rgb(228.3353946889778,136.66278646780648,130.71662422699163)" stroke="rgb(228.3353946889778,136.66278646780648,130.71662422699163)" stroke-width="1" />
<path d="M 367.50 120.50 C 359.86 123.71, 351.42 124.98, 343.50 127.50 C 334.40 130.40, 325.94 132.43, 317.50 134.50 C 324.89 156.26, 329.52 178.57, 337.50 199.50 C 339.49 208.97, 342.11 217.19, 344.50 225.50 C 349.99 236.94, 367.36 224.99, 378.50 226.50 C 382.70 208.78, 380.11 191.78, 377.50 174.50 C 376.22 165.15, 374.86 156.82, 373.50 148.50 C 372.13 138.71, 370.32 130.10, 368.50 121.50 Z" fill="rgb(208.0909090909091,126.25757575757575,122.62121212121212)" stroke="rgb(208.0909090909091,126.25757575757575,122.62121212121212)" stroke-width="1" />
<path d="M 366.50 121.50 C 363.11 123.17, 359.22 123.62, 355.50 124.50 C 350.14 125.62, 346.43 127.33, 342.50 128.50 C 337.83 130.63, 332.87 129.65, 329.50 132.50 C 324.40 133.26, 320.43 134.34, 316.50 135.50 C 318.12 140.52, 320.06 144.41, 321.50 148.50 C 323.47 153.23, 324.89 157.20, 325.50 161.50 C 326.05 165.63, 327.99 167.77, 328.50 170.50 C 329.56 174.34, 329.79 177.52, 330.50 180.50 C 332.40 186.01, 335.67 189.54, 335.50 194.50 C 338.08 199.79, 337.76 205.28, 340.50 209.50 C 340.66 213.71, 342.34 216.29, 342.50 219.50 C 343.66 223.71, 345.34 226.29, 345.50 229.50 C 351.44 230.83, 356.02 230.29, 360.50 229.50 C 365.70 227.37, 370.78 227.37, 375.50 226.50 C 383.51 226.41, 379.41 216.78, 380.50 212.50 C 381.88 206.07, 380.93 201.18, 379.50 196.50 C 378.98 190.42, 379.25 186.23, 378.50 181.50 C 377.72 175.55, 375.93 171.01, 376.50 165.50 C 374.97 159.44, 374.48 154.37, 373.50 149.50 C 373.90 146.34, 372.01 145.21, 372.50 142.50 C 371.53 137.96, 370.07 134.62, 370.50 130.50 C 368.83 126.24, 369.51 124.50, 367.50 121.50 Z" fill="rgb(228.9459234608985,136.97254575707154,130.9800332778702)" stroke="rgb(228.9459234608985,136.97254575707154,130.9800332778702)" stroke-width="1" />
<path d="M 337.50 252.50 C 334.07 254.39, 329.78 254.24, 326.50 256.50 C 321.40 258.39, 316.56 258.51, 312.50 260.50 C 307.25 262.04, 302.88 263.28, 298.50 264.50 C 292.78 266.84, 287.29 267.32, 282.50 269.50 C 278.89 270.63, 275.90 270.86, 273.50 272.50 C 269.63 273.82, 266.09 273.50, 263.50 275.50 C 257.98 276.04, 254.27 278.55, 249.50 278.50 C 243.73 280.25, 239.20 281.59, 234.50 282.50 C 229.65 282.91, 227.35 286.09, 223.50 285.50 C 223.37 289.02, 224.31 291.52, 226.50 293.50 C 228.23 297.14, 229.52 299.96, 231.50 302.50 C 233.69 305.48, 234.63 307.98, 235.50 310.50 C 238.17 314.03, 239.54 316.68, 240.50 319.50 C 242.68 325.89, 246.60 328.43, 247.50 321.50 C 248.41 317.71, 250.21 315.71, 251.50 313.50 C 253.85 310.11, 254.98 307.23, 256.50 304.50 C 260.12 299.72, 262.84 294.45, 267.50 292.50 C 272.15 289.31, 275.64 286.75, 280.50 287.50 C 287.08 288.20, 292.83 292.16, 295.50 297.50 C 299.89 303.26, 301.19 308.88, 302.50 314.50 C 303.10 319.24, 300.28 326.39, 306.50 324.50 C 310.28 322.31, 313.72 321.69, 316.50 319.50 C 319.94 317.35, 324.49 316.74, 325.50 313.50 C 322.08 308.20, 318.25 304.49, 317.50 299.50 C 317.07 292.83, 319.02 288.14, 323.50 284.50 C 327.14 281.77, 329.96 280.48, 332.50 278.50 C 336.23 277.99, 338.37 276.05, 341.50 276.50 C 345.20 275.11, 348.17 274.36, 351.50 274.50 C 355.83 274.50, 359.17 274.50, 362.50 274.50 C 362.15 267.97, 355.31 266.70, 352.50 262.50 C 347.19 258.45, 344.58 251.28, 338.50 252.50 Z" fill="rgb(218.4088598402324,219.49842653110628,219.62599854756718)" stroke="rgb(218.4088598402324,219.49842653110628,219.62599854756718)" stroke-width="1" />
<path d="M 314.50 201.50 C 311.52 203.36, 307.93 203.74, 304.50 204.50 C 300.51 206.33, 296.65 206.06, 293.50 207.50 C 289.11 209.17, 285.22 209.62, 281.50 210.50 C 276.65 212.05, 273.09 213.30, 269.50 214.50 C 265.89 215.63, 262.90 215.86, 260.50 217.50 C 256.16 217.35, 254.02 220.10, 250.50 219.50 C 246.29 220.66, 243.71 222.34, 240.50 222.50 C 235.24 223.87, 231.68 225.94, 227.50 226.50 C 224.58 228.00, 221.05 228.01, 220.50 229.50 C 220.85 235.36, 222.33 240.16, 222.50 245.50 C 224.15 251.65, 225.20 256.62, 226.50 261.50 C 228.55 265.28, 231.10 262.05, 233.50 262.50 C 239.21 260.13, 244.88 260.09, 249.50 257.50 C 252.90 257.00, 255.45 256.84, 257.50 255.50 C 261.13 254.75, 263.69 253.82, 266.50 253.50 C 271.35 253.09, 273.65 249.91, 277.50 250.50 C 282.05 249.36, 284.79 247.25, 288.50 247.50 C 293.35 245.95, 296.91 244.70, 300.50 243.50 C 305.31 241.70, 309.88 241.74, 313.50 239.50 C 318.84 239.31, 321.97 236.22, 326.50 236.50 C 330.25 233.18, 326.23 230.56, 327.50 227.50 C 327.10 222.98, 324.35 220.84, 324.50 217.50 C 322.50 213.91, 322.82 210.37, 321.50 207.50 C 319.97 203.72, 319.96 200.17, 315.50 201.50 Z" fill="rgb(0.08941651932306138,0.13564031321040668,0.27128062642081335)" stroke="rgb(0.08941651932306138,0.13564031321040668,0.27128062642081335)" stroke-width="1" />
<path d="M 319.50 70.50 C 305.47 74.11, 290.68 74.57, 276.50 75.50 C 283.27 85.12, 290.50 93.56, 296.50 102.50 C 303.75 110.73, 306.54 122.51, 313.50 127.50 C 331.36 122.64, 347.61 117.30, 364.50 113.50 C 364.32 97.34, 351.23 75.34, 333.50 71.50 C 329.27 69.30, 324.40 71.07, 320.50 70.50 Z" fill="rgb(167.33333333333334,101.7,99.0)" stroke="rgb(167.33333333333334,101.7,99.0)" stroke-width="1" />
<path d="M 319.50 70.50 C 317.87 72.54, 314.78 71.04, 312.50 71.50 C 306.74 71.81, 303.26 74.19, 298.50 73.50 C 295.22 74.96, 292.13 73.46, 290.50 75.50 C 285.70 74.44, 278.74 73.37, 276.50 76.50 C 279.94 79.89, 282.09 83.30, 284.50 85.50 C 286.66 90.32, 290.65 92.97, 292.50 96.50 C 296.07 102.01, 299.42 105.66, 302.50 110.50 C 305.93 116.32, 308.86 121.35, 311.50 126.50 C 317.90 126.47, 322.22 123.83, 327.50 123.50 C 332.35 121.95, 335.91 120.70, 339.50 119.50 C 344.59 118.71, 348.13 116.61, 352.50 116.50 C 357.87 115.39, 361.41 113.29, 365.50 112.50 C 365.77 107.31, 364.10 103.92, 362.50 100.50 C 360.26 95.93, 358.62 92.12, 356.50 88.50 C 353.95 84.51, 351.03 82.08, 348.50 79.50 C 345.11 76.15, 342.23 75.02, 339.50 73.50 C 335.69 72.18, 333.13 71.25, 330.50 70.50 C 326.50 70.50, 323.50 70.50, 320.50 70.50 Z" fill="rgb(228.77654662973222,136.88027085257002,130.8861188057864)" stroke="rgb(228.77654662973222,136.88027085257002,130.8861188057864)" stroke-width="1" />
<path d="M 272.50 305.50 C 268.94 307.53, 264.16 310.25, 262.50 314.50 C 260.05 319.26, 258.08 322.80, 256.50 326.50 C 255.42 332.13, 253.45 336.40, 253.50 341.50 C 252.25 347.67, 250.22 352.11, 250.50 357.50 C 249.50 363.17, 249.50 367.83, 249.50 372.50 C 249.22 378.89, 250.28 383.73, 251.50 388.50 C 252.59 392.54, 254.94 395.07, 257.50 397.50 C 260.44 399.59, 263.90 398.01, 266.50 398.50 C 270.31 398.18, 272.87 397.25, 275.50 396.50 C 279.04 394.59, 283.73 395.60, 282.50 391.50 C 282.25 385.72, 283.17 382.67, 282.50 378.50 C 282.99 372.13, 280.64 368.80, 277.50 365.50 C 279.14 360.07, 282.73 356.46, 285.50 352.50 C 288.06 347.67, 289.00 343.18, 289.50 338.50 C 290.03 334.58, 290.97 331.83, 290.50 328.50 C 290.50 324.17, 290.50 320.83, 290.50 317.50 C 289.93 312.52, 287.14 309.36, 284.50 307.50 C 280.69 304.90, 276.91 305.65, 273.50 305.50 Z" fill="rgb(251.76092804303968,220.12945527908542,129.04606590450572)" stroke="rgb(251.76092804303968,220.12945527908542,129.04606590450572)" stroke-width="1" />
<path d="M 478.50 328.50 C 471.95 331.46, 465.28 334.11, 458.50 336.50 C 453.79 338.86, 449.57 340.01, 445.50 341.50 C 439.88 343.47, 435.76 345.65, 431.50 347.50 C 426.67 349.58, 422.25 350.24, 418.50 352.50 C 413.31 354.84, 408.60 355.93, 404.50 358.50 C 420.68 362.01, 432.76 368.64, 444.50 378.50 C 454.80 386.07, 458.10 403.78, 469.50 392.50 C 474.89 389.09, 482.58 387.70, 483.50 381.50 C 484.50 367.17, 484.50 353.83, 484.50 340.50 C 484.47 335.36, 484.31 328.77, 479.50 328.50 Z" fill="rgb(222.2962962962963,133.53086419753086,128.23456790123456)" stroke="rgb(222.2962962962963,133.53086419753086,128.23456790123456)" stroke-width="1" />
<path d="M 476.50 329.50 C 473.80 331.56, 470.45 332.04, 467.50 333.50 C 463.77 336.62, 459.25 335.43, 456.50 338.50 C 452.28 340.11, 448.65 340.73, 445.50 342.50 C 440.27 344.17, 437.73 346.63, 433.50 346.50 C 428.77 349.82, 424.23 350.17, 420.50 352.50 C 414.79 353.25, 411.29 356.93, 406.50 357.50 C 407.10 360.88, 411.73 359.58, 413.50 361.50 C 417.45 361.82, 420.14 362.75, 422.50 364.50 C 426.27 366.59, 429.41 366.78, 431.50 369.50 C 435.34 371.88, 438.47 373.58, 441.50 375.50 C 444.14 378.72, 448.11 381.70, 450.50 384.50 C 454.18 388.36, 455.82 391.64, 458.50 394.50 C 462.97 398.44, 467.49 393.01, 471.50 391.50 C 476.52 389.01, 480.43 387.28, 483.50 383.50 C 484.64 378.83, 484.63 374.69, 484.50 370.50 C 484.50 366.17, 484.50 362.83, 484.50 359.50 C 485.04 354.81, 482.73 352.29, 483.50 348.50 C 483.50 343.83, 483.50 340.17, 483.50 336.50 C 484.39 331.01, 482.05 328.30, 477.50 329.50 Z" fill="rgb(228.95287595287596,136.975744975745,130.98128898128897)" stroke="rgb(228.95287595287596,136.975744975745,130.98128898128897)" stroke-width="1" />
<path d="M 218.50 93.50 C 215.99 96.18, 205.86 94.97, 209.50 100.50 C 219.29 110.15, 226.14 120.01, 231.50 130.50 C 235.08 139.15, 238.70 146.36, 242.50 153.50 C 243.94 160.32, 244.61 166.87, 247.50 172.50 C 249.52 179.35, 250.40 185.68, 252.50 191.50 C 257.53 201.19, 270.48 190.84, 262.50 183.50 C 263.13 176.32, 259.97 172.86, 259.50 166.50 C 256.87 160.09, 255.89 154.01, 253.50 148.50 C 246.68 127.35, 236.17 109.15, 219.50 93.50 Z" fill="rgb(39.46496815286624,41.802547770700635,56.64968152866242)" stroke="rgb(39.46496815286624,41.802547770700635,56.64968152866242)" stroke-width="1" />
<path d="M 290.50 463.50 C 286.44 465.49, 281.60 465.61, 277.50 467.50 C 272.41 468.29, 268.87 470.39, 264.50 470.50 C 260.16 471.35, 258.02 474.10, 254.50 473.50 C 251.03 473.71, 249.81 475.92, 247.50 475.50 C 242.47 477.57, 237.90 478.32, 233.50 479.50 C 228.44 481.49, 223.60 481.61, 219.50 483.50 C 215.35 484.94, 211.49 484.67, 208.50 486.50 C 204.07 487.26, 200.48 487.64, 197.50 489.50 C 192.95 489.64, 190.21 491.75, 186.50 491.50 C 181.79 492.25, 179.05 494.36, 175.50 494.50 C 171.11 496.17, 167.22 496.62, 163.50 497.50 C 159.11 499.17, 155.22 499.62, 151.50 500.50 C 146.12 499.03, 146.12 508.97, 150.50 507.50 C 155.35 508.09, 157.65 504.91, 161.50 505.50 C 166.56 504.79, 169.44 502.21, 173.50 502.50 C 178.22 500.62, 182.11 500.17, 185.50 498.50 C 190.87 497.59, 195.35 496.94, 199.50 495.50 C 204.56 493.51, 209.40 493.39, 213.50 491.50 C 219.13 491.22, 222.76 488.53, 227.50 488.50 C 233.27 487.55, 236.98 485.04, 241.50 484.50 C 246.79 484.34, 249.37 481.04, 253.50 481.50 C 258.02 481.10, 260.16 478.35, 263.50 478.50 C 267.09 476.50, 270.63 476.82, 273.50 475.50 C 277.52 474.54, 280.48 473.46, 283.50 472.50 C 287.52 471.54, 290.48 470.46, 293.50 469.50 C 298.60 468.67, 294.74 462.78, 291.50 463.50 Z" fill="rgb(24.769681742043552,34.40954773869347,50.78140703517588)" stroke="rgb(24.769681742043552,34.40954773869347,50.78140703517588)" stroke-width="1" />
<path d="M 239.50 398.50 C 236.05 401.49, 230.87 400.32, 227.50 403.50 C 222.17 404.05, 218.46 406.07, 214.50 407.50 C 209.95 409.10, 205.96 409.66, 202.50 411.50 C 199.05 411.89, 197.17 413.64, 194.50 413.50 C 190.46 414.27, 188.54 416.73, 185.50 416.50 C 181.07 418.26, 177.48 418.64, 174.50 420.50 C 170.20 421.58, 166.71 422.20, 163.50 423.50 C 159.29 424.80, 155.80 425.42, 152.50 426.50 C 148.51 428.33, 144.65 428.06, 141.50 429.50 C 137.52 430.21, 134.82 431.60, 131.50 431.50 C 127.80 432.89, 124.83 433.64, 121.50 433.50 C 117.16 434.25, 117.66 442.07, 121.50 440.50 C 125.56 440.78, 128.18 440.01, 130.50 438.50 C 134.54 438.73, 136.46 436.27, 139.50 436.50 C 144.59 435.71, 148.13 433.61, 152.50 433.50 C 157.12 431.26, 161.69 431.30, 165.50 429.50 C 170.31 427.70, 174.88 427.74, 178.50 425.50 C 183.70 423.86, 188.30 423.14, 192.50 421.50 C 197.53 419.09, 202.47 418.91, 206.50 416.50 C 212.12 414.72, 217.09 413.78, 221.50 411.50 C 226.12 410.04, 230.09 409.46, 233.50 407.50 C 238.57 406.01, 242.79 404.86, 246.50 402.50 C 245.61 398.95, 242.63 398.03, 240.50 398.50 Z" fill="rgb(30.384538152610443,37.20783132530121,53.02710843373494)" stroke="rgb(30.384538152610443,37.20783132530121,53.02710843373494)" stroke-width="1" />
<path d="M 164.50 173.50 C 160.25 175.83, 154.88 175.47, 150.50 177.50 C 145.35 178.94, 140.87 179.59, 136.50 180.50 C 133.30 182.62, 129.82 181.65, 127.50 183.50 C 122.65 184.05, 119.09 185.30, 115.50 186.50 C 109.91 188.01, 104.97 188.69, 100.50 190.50 C 96.66 191.89, 93.26 191.91, 90.50 193.50 C 86.63 194.82, 83.09 194.50, 80.50 196.50 C 74.52 197.08, 70.29 199.46, 65.50 200.50 C 62.30 202.62, 58.82 201.65, 56.50 203.50 C 52.66 204.89, 49.26 204.91, 46.50 206.50 C 42.09 205.78, 42.04 210.54, 43.50 212.50 C 47.80 212.42, 51.29 211.80, 54.50 210.50 C 58.93 208.61, 63.22 208.76, 66.50 206.50 C 70.17 206.64, 72.05 204.89, 74.50 204.50 C 78.23 203.99, 80.37 202.05, 83.50 202.50 C 87.71 201.34, 90.29 199.66, 93.50 199.50 C 98.35 199.09, 100.65 195.91, 104.50 196.50 C 109.05 195.36, 111.79 193.25, 115.50 193.50 C 120.21 192.75, 122.95 190.64, 126.50 190.50 C 131.21 189.75, 133.95 187.64, 137.50 187.50 C 141.89 185.83, 145.78 185.38, 149.50 184.50 C 153.63 184.28, 155.49 182.00, 158.50 182.50 C 162.31 181.18, 164.87 180.25, 167.50 179.50 C 172.73 178.11, 169.90 171.56, 165.50 173.50 Z" fill="rgb(31.300200803212853,37.674698795180724,53.44277108433735)" stroke="rgb(31.300200803212853,37.674698795180724,53.44277108433735)" stroke-width="1" />
<path d="M 181.50 273.50 C 179.20 275.04, 176.08 274.63, 173.50 275.50 C 170.09 276.79, 167.42 277.43, 164.50 277.50 C 159.99 277.93, 157.47 279.77, 154.50 280.50 C 149.02 281.14, 144.98 282.86, 140.50 283.50 C 134.88 284.80, 130.80 286.42, 126.50 287.50 C 122.20 288.58, 118.71 289.20, 115.50 290.50 C 111.51 292.33, 107.65 292.06, 104.50 293.50 C 98.79 295.87, 93.12 295.91, 88.50 298.50 C 85.30 299.49, 82.70 299.51, 80.50 300.50 C 77.30 302.62, 73.82 301.65, 71.50 303.50 C 65.91 302.72, 65.60 308.51, 68.50 310.50 C 72.47 311.37, 74.26 309.38, 76.50 308.50 C 82.11 307.02, 86.58 305.22, 91.50 304.50 C 95.31 303.18, 97.87 302.25, 100.50 301.50 C 103.82 299.65, 107.30 300.62, 109.50 298.50 C 113.71 298.34, 116.29 296.66, 119.50 296.50 C 124.02 296.10, 126.16 293.35, 129.50 293.50 C 133.49 291.67, 137.35 291.94, 140.50 290.50 C 145.59 289.71, 149.13 287.61, 153.50 287.50 C 158.46 285.27, 163.54 285.73, 167.50 283.50 C 172.98 282.86, 177.02 281.14, 181.50 280.50 C 186.45 280.82, 187.17 272.81, 182.50 273.50 Z" fill="rgb(32.567481402763015,38.26567481402763,53.98724760892667)" stroke="rgb(32.567481402763015,38.26567481402763,53.98724760892667)" stroke-width="1" />
<path d="M 357.50 283.50 C 361.56 285.82, 366.57 285.85, 370.50 288.50 C 373.78 290.31, 376.41 291.25, 378.50 293.50 C 382.03 297.08, 384.95 299.51, 386.50 302.50 C 388.65 305.83, 388.84 308.97, 390.50 311.50 C 390.50 315.17, 390.50 317.83, 390.50 320.50 C 391.23 324.27, 389.42 326.00, 389.50 328.50 C 387.86 331.90, 387.63 334.89, 386.50 337.50 C 385.82 341.71, 382.85 343.56, 382.50 346.50 C 380.61 350.21, 379.12 352.68, 378.50 355.50 C 379.44 359.78, 383.08 354.75, 384.50 353.50 C 383.69 348.14, 386.40 345.24, 389.50 342.50 C 393.51 337.98, 396.04 334.25, 398.50 330.50 C 400.82 327.38, 400.21 324.04, 401.50 321.50 C 401.00 317.49, 403.28 315.63, 402.50 312.50 C 401.63 308.92, 402.04 305.80, 400.50 303.50 C 398.33 300.04, 398.30 296.70, 395.50 294.50 C 391.93 291.27, 389.22 289.38, 386.50 287.50 C 383.10 285.86, 380.11 285.63, 377.50 284.50 C 374.23 283.21, 371.32 283.46, 368.50 283.50 C 364.50 283.50, 361.50 283.50, 358.50 283.50 Z" fill="rgb(1.5943181818181817,1.3125,1.1477272727272727)" stroke="rgb(1.5943181818181817,1.3125,1.1477272727272727)" stroke-width="1" />
<path d="M 218.50 93.50 C 216.00 96.97, 208.33 94.11, 208.50 99.50 C 212.29 103.45, 215.74 106.13, 217.50 109.50 C 220.99 113.77, 223.96 116.84, 225.50 120.50 C 228.57 124.80, 230.43 128.20, 232.50 131.50 C 235.16 135.42, 235.05 139.49, 237.50 142.50 C 239.25 145.57, 238.44 149.79, 242.50 148.50 C 245.90 146.86, 248.89 146.63, 251.50 145.50 C 250.00 140.43, 249.22 136.06, 246.50 132.50 C 244.16 127.64, 242.15 123.65, 240.50 119.50 C 237.29 114.31, 234.32 110.44, 231.50 106.50 C 227.47 101.23, 223.45 97.38, 219.50 93.50 Z" fill="rgb(221.8168846611177,133.40190249702735,128.18668252080857)" stroke="rgb(221.8168846611177,133.40190249702735,128.18668252080857)" stroke-width="1" />
<path d="M 108.50 113.50 C 105.67 115.38, 101.52 114.07, 98.50 115.50 C 94.06 117.04, 89.72 116.41, 86.50 118.50 C 81.41 119.28, 77.27 119.95, 73.50 121.50 C 68.12 122.72, 63.75 123.96, 59.50 125.50 C 54.28 127.44, 49.88 128.95, 45.50 130.50 C 41.05 132.68, 36.83 133.02, 33.50 135.50 C 28.87 137.26, 24.95 138.31, 21.50 140.50 C 18.34 141.77, 19.36 146.74, 21.50 147.50 C 25.32 146.54, 27.97 145.17, 30.50 143.50 C 36.08 141.29, 40.76 139.33, 45.50 137.50 C 50.77 134.88, 55.63 133.67, 60.50 132.50 C 64.72 131.03, 67.70 129.99, 70.50 128.50 C 74.84 128.65, 76.98 125.90, 80.50 126.50 C 85.21 125.75, 87.95 123.64, 91.50 123.50 C 96.35 123.27, 99.35 121.01, 103.50 121.50 C 108.63 121.28, 111.55 119.15, 115.50 119.50 C 120.68 114.14, 112.09 115.70, 109.50 113.50 Z" fill="rgb(24.056135770234988,34.007832898172325,50.6201044386423)" stroke="rgb(24.056135770234988,34.007832898172325,50.6201044386423)" stroke-width="1" />
<path d="M 479.50 319.50 C 475.42 321.77, 471.17 323.66, 466.50 324.50 C 463.15 326.46, 460.48 326.65, 458.50 328.50 C 454.56 328.85, 452.71 331.82, 449.50 331.50 C 445.63 331.86, 444.37 335.14, 441.50 334.50 C 437.68 336.12, 435.21 337.61, 432.50 338.50 C 429.29 339.79, 426.84 340.51, 424.50 341.50 C 420.55 342.82, 417.86 343.75, 415.50 345.50 C 411.79 346.39, 409.32 347.88, 406.50 348.50 C 402.50 349.69, 400.12 351.38, 397.50 352.50 C 396.19 355.49, 398.22 360.53, 400.50 357.50 C 404.32 356.88, 406.79 355.39, 409.50 354.50 C 413.20 352.44, 416.55 351.96, 419.50 350.50 C 423.03 348.03, 426.79 348.54, 429.50 346.50 C 434.36 344.50, 438.52 343.21, 442.50 341.50 C 447.21 339.14, 451.43 337.99, 455.50 336.50 C 460.06 333.78, 464.43 333.00, 468.50 331.50 C 474.12 329.53, 478.24 327.35, 482.50 325.50 C 485.92 323.29, 484.08 318.09, 480.50 319.50 Z" fill="rgb(29.079658605974394,36.56330014224751,52.56187766714083)" stroke="rgb(29.079658605974394,36.56330014224751,52.56187766714083)" stroke-width="1" />
<path d="M 251.50 153.50 C 249.10 155.14, 246.11 155.37, 243.50 156.50 C 244.46 160.91, 245.04 164.88, 246.50 168.50 C 248.30 173.31, 248.26 177.88, 250.50 181.50 C 249.91 186.35, 253.09 188.65, 252.50 192.50 C 253.72 196.13, 256.79 196.56, 258.50 195.50 C 261.32 194.48, 265.45 194.98, 264.50 191.50 C 262.55 186.89, 263.14 182.23, 261.50 178.50 C 260.34 173.57, 259.26 169.60, 258.50 165.50 C 255.91 161.29, 257.72 153.72, 252.50 153.50 Z" fill="rgb(220.247311827957,132.59856630824373,127.54301075268818)" stroke="rgb(220.247311827957,132.59856630824373,127.54301075268818)" stroke-width="1" />
<path d="M 373.50 119.50 C 372.40 120.82, 367.17 120.76, 370.50 123.50 C 370.00 127.51, 372.28 129.37, 371.50 132.50 C 371.72 136.63, 374.00 138.49, 373.50 141.50 C 374.82 145.56, 374.47 149.32, 375.50 152.50 C 374.80 156.26, 377.20 157.74, 376.50 160.50 C 377.64 165.97, 378.35 170.62, 378.50 175.50 C 379.50 178.50, 379.50 180.50, 379.50 182.50 C 380.50 185.83, 380.50 188.17, 380.50 190.50 C 380.81 199.50, 383.19 189.92, 382.50 186.50 C 382.50 181.17, 382.50 176.83, 382.50 172.50 C 382.97 168.17, 382.03 165.42, 381.50 162.50 C 381.50 158.17, 381.50 154.83, 381.50 151.50 C 380.77 148.67, 380.13 146.79, 380.50 144.50 C 379.47 139.32, 379.97 134.50, 378.50 130.50 C 377.46 126.26, 378.74 119.54, 374.50 119.50 Z" fill="rgb(1.0416666666666667,0.6776315789473685,1.0285087719298245)" stroke="rgb(1.0416666666666667,0.6776315789473685,1.0285087719298245)" stroke-width="1" />
<path d="M 369.50 112.50 C 366.91 114.50, 363.37 114.18, 360.50 115.50 C 356.35 116.94, 352.49 116.67, 349.50 118.50 C 344.57 119.66, 340.60 120.74, 336.50 121.50 C 332.91 123.50, 329.37 123.18, 326.50 124.50 C 322.74 126.09, 319.34 126.11, 316.50 127.50 C 311.68 127.05, 309.96 132.60, 313.50 133.50 C 319.09 132.99, 324.03 132.31, 328.50 130.50 C 334.52 129.22, 339.30 127.35, 344.50 126.50 C 349.86 125.38, 353.57 123.67, 357.50 122.50 C 361.13 121.75, 363.69 120.82, 366.50 120.50 C 371.07 120.92, 373.15 114.17, 370.50 113.50 Z" fill="rgb(28.642543859649123,36.33991228070175,52.39912280701754)" stroke="rgb(28.642543859649123,36.33991228070175,52.39912280701754)" stroke-width="1" />
<path d="M 207.50 226.50 C 206.80 230.26, 208.50 233.03, 208.50 236.50 C 209.99 240.49, 209.87 244.15, 210.50 247.50 C 211.29 252.86, 213.07 256.40, 213.50 260.50 C 214.66 265.43, 215.74 269.40, 216.50 273.50 C 216.42 277.94, 219.51 280.22, 222.50 277.50 C 225.20 276.02, 233.75 273.65, 227.50 274.50 C 219.51 274.55, 220.76 266.17, 218.50 262.50 C 218.50 257.23, 216.50 253.77, 216.50 249.50 C 215.14 244.65, 215.05 240.27, 213.50 236.50 C 212.39 232.46, 213.20 226.19, 208.50 226.50 Z" fill="rgb(198.1075581395349,200.32558139534885,202.19767441860466)" stroke="rgb(198.1075581395349,200.32558139534885,202.19767441860466)" stroke-width="1" />
<path d="M 376.50 227.50 C 372.63 229.62, 367.37 228.38, 363.50 230.50 C 359.74 229.80, 358.26 232.20, 355.50 231.50 C 352.20 233.04, 349.08 232.63, 346.50 233.50 C 345.85 237.10, 345.98 240.57, 349.50 239.50 C 355.01 238.13, 359.63 237.00, 364.50 236.50 C 370.24 234.88, 375.57 234.67, 380.50 233.50 C 384.50 232.26, 381.41 225.67, 377.50 227.50 Z" fill="rgb(26.901818181818182,35.447272727272725,51.70909090909091)" stroke="rgb(26.901818181818182,35.447272727272725,51.70909090909091)" stroke-width="1" />
<path d="M 380.50 398.50 C 384.35 427.88, 408.53 414.51, 380.50 398.50 Z" fill="rgb(230.33333333333334,203.0,121.83333333333333)" stroke="rgb(230.33333333333334,203.0,121.83333333333333)" stroke-width="1" />
<path d="M 347.50 410.50 C 342.50 417.71, 354.52 424.61, 354.50 432.50 C 365.03 430.34, 354.54 414.41, 348.50 410.50 Z" fill="rgb(157.4375,143.75,96.625)" stroke="rgb(157.4375,143.75,96.625)" stroke-width="1" />
<path d="M 380.50 398.50 C 378.94 399.74, 378.94 403.26, 380.50 404.50 C 385.57 409.39, 387.93 413.99, 390.50 418.50 C 397.51 422.46, 395.57 413.34, 393.50 410.50 C 390.39 405.47, 386.53 399.38, 381.50 398.50 Z" fill="rgb(33.965714285714284,43.285714285714285,53.83428571428571)" stroke="rgb(33.965714285714284,43.285714285714285,53.83428571428571)" stroke-width="1" />
<path d="M 347.50 410.50 C 342.44 413.63, 348.46 417.37, 349.50 420.50 C 352.18 425.02, 352.82 428.98, 354.50 432.50 C 358.33 435.66, 360.39 429.96, 359.50 427.50 C 358.82 423.29, 355.85 421.44, 355.50 418.50 C 353.29 415.28, 351.07 411.31, 348.50 411.50 Z" fill="rgb(28.78395061728395,39.092592592592595,52.05555555555556)" stroke="rgb(28.78395061728395,39.092592592592595,52.05555555555556)" stroke-width="1" />
<path d="M 279.50 131.50 C 280.45 133.52, 280.20 136.04, 282.50 137.50 C 283.63 135.03, 280.70 133.83, 280.50 131.50 Z" fill="rgb(120.0,106.6470588235294,61.411764705882355)" stroke="rgb(120.0,106.6470588235294,61.411764705882355)" stroke-width="1" />
<path d="M 372.50 392.50 C 375.70 392.50, 375.70 392.50, 372.50 392.50 Z" fill="rgb(0.0,0.0,0.0)" stroke="rgb(0.0,0.0,0.0)" stroke-width="1" />
</svg>