<svg xmlns="http://www.w3.org/2000/svg" width="512" height="512" viewbox="0 0 512 512">
<path d="M 0.00 0.00 C 0.00 170.00, 0.00 340.00, 0.00 510.00 C 170.00 511.00, 340.00 511.00, 510.00 511.00 C 511.00 341.00, 511.00 171.00, 511.00 1.00 C 341.00 0.00, 171.00 0.00, 1.00 0.00 Z" fill="rgb(0.3745604015074518,0.4532069328392441,0.6515591692825213)" stroke="rgb(0.3745604015074518,0.4532069328392441,0.6515591692825213)" stroke-width="1" />
<path d="M 179.00 5.00 C 174.99 6.11, 172.23 9.75, 172.00 14.00 C 169.80 18.23, 171.57 23.10, 171.00 27.00 C 170.77 31.90, 171.03 35.60, 172.00 39.00 C 171.54 44.60, 174.08 47.97, 175.00 52.00 C 176.21 57.27, 179.70 60.18, 181.00 64.00 C 185.88 68.62, 189.32 73.32, 194.00 75.00 C 197.53 80.09, 205.04 79.87, 204.00 86.00 C 201.28 90.76, 195.99 88.30, 192.00 89.00 C 187.02 87.43, 184.08 84.33, 180.00 84.00 C 175.11 81.40, 170.84 80.71, 167.00 79.00 C 162.43 77.78, 158.40 77.63, 155.00 76.00 C 149.96 74.77, 145.78 73.86, 142.00 72.00 C 137.10 71.22, 133.30 70.22, 130.00 68.00 C 125.22 65.13, 120.36 64.87, 117.00 61.00 C 112.48 57.85, 108.64 55.45, 104.00 55.00 C 99.44 53.75, 94.13 57.40, 94.00 62.00 C 92.44 66.57, 94.18 71.10, 92.00 74.00 C 93.61 79.16, 93.89 83.46, 96.00 87.00 C 96.42 92.04, 99.94 94.80, 100.00 99.00 C 102.47 104.36, 106.90 107.49, 108.00 112.00 C 103.47 114.34, 100.09 116.01, 96.00 116.00 C 91.48 118.50, 86.13 116.57, 83.00 120.00 C 77.49 119.43, 74.37 122.23, 70.00 122.00 C 64.99 123.97, 61.02 125.05, 57.00 126.00 C 52.38 128.46, 48.41 129.04, 45.00 131.00 C 39.85 132.32, 35.99 134.31, 32.00 136.00 C 27.36 138.87, 22.56 138.93, 19.00 142.00 C 14.00 144.70, 17.04 150.53, 17.00 154.00 C 20.24 158.57, 21.88 162.38, 24.00 166.00 C 26.28 171.30, 28.54 175.19, 31.00 179.00 C 32.63 184.43, 35.57 187.90, 37.00 192.00 C 41.81 195.98, 39.02 202.10, 44.00 205.00 C 41.65 210.64, 45.51 213.12, 46.00 217.00 C 49.18 221.10, 46.74 226.52, 49.00 230.00 C 48.51 235.15, 50.77 238.15, 51.00 242.00 C 52.40 246.84, 52.75 251.11, 54.00 255.00 C 55.88 259.72, 56.33 263.61, 58.00 267.00 C 60.41 271.69, 59.79 276.64, 63.00 280.00 C 64.49 285.07, 65.64 289.29, 68.00 293.00 C 67.28 296.10, 69.72 296.90, 69.00 299.00 C 72.80 301.98, 66.34 303.14, 68.00 306.00 C 68.84 310.42, 76.84 308.69, 76.00 314.00 C 79.54 318.78, 79.60 323.58, 83.00 327.00 C 84.70 332.13, 86.97 336.01, 89.00 340.00 C 92.39 344.56, 92.25 349.59, 96.00 353.00 C 96.44 358.18, 100.56 360.82, 101.00 365.00 C 104.24 369.90, 105.33 374.28, 108.00 378.00 C 110.74 382.69, 112.20 386.92, 114.00 391.00 C 115.70 396.13, 117.97 400.01, 120.00 404.00 C 121.17 408.74, 123.88 411.83, 124.00 416.00 C 126.24 421.04, 128.24 424.76, 129.00 429.00 C 126.41 433.95, 120.39 431.21, 119.00 436.00 C 120.34 441.67, 125.70 437.82, 130.00 439.00 C 135.18 440.29, 135.89 445.46, 137.00 449.00 C 138.56 453.91, 139.67 458.00, 141.00 462.00 C 141.19 467.34, 144.28 470.47, 144.00 475.00 C 145.27 479.89, 144.50 484.62, 147.00 488.00 C 147.15 493.02, 150.57 495.68, 150.00 500.00 C 148.98 505.07, 155.55 503.75, 159.00 504.00 C 164.35 503.18, 168.38 502.58, 172.00 501.00 C 176.43 498.62, 182.04 501.51, 185.00 498.00 C 189.62 496.89, 192.59 494.21, 197.00 495.00 C 202.68 494.65, 205.94 491.85, 210.00 491.00 C 215.32 490.43, 219.06 488.48, 223.00 487.00 C 228.36 487.21, 231.90 485.43, 236.00 485.00 C 239.80 481.57, 245.20 484.43, 248.00 481.00 C 252.76 479.41, 256.76 478.41, 261.00 478.00 C 265.30 475.79, 269.98 476.90, 273.00 474.00 C 278.60 474.45, 281.32 470.36, 286.00 471.00 C 290.16 469.27, 295.27 469.81, 298.00 470.00 C 303.01 473.30, 306.09 478.86, 311.00 480.00 C 315.65 484.18, 319.84 486.05, 324.00 488.00 C 328.15 491.71, 332.98 491.39, 337.00 493.00 C 341.95 493.65, 344.87 495.78, 349.00 495.00 C 353.28 497.42, 358.77 494.47, 362.00 497.00 C 365.90 494.82, 370.43 496.56, 374.00 496.00 C 378.96 495.56, 382.65 494.49, 387.00 495.00 C 391.26 493.01, 395.91 494.40, 399.00 492.00 C 404.43 490.71, 408.36 489.20, 412.00 487.00 C 417.46 486.12, 421.38 483.92, 425.00 481.00 C 429.98 478.29, 434.06 475.80, 438.00 473.00 C 442.91 469.81, 445.87 465.23, 449.00 463.00 C 453.01 458.14, 455.31 453.99, 458.00 450.00 C 460.61 445.72, 461.42 441.70, 463.00 438.00 C 462.26 432.55, 464.16 429.20, 464.00 425.00 C 462.55 421.16, 463.23 417.26, 463.00 413.00 C 460.69 407.56, 463.33 403.06, 468.00 402.00 C 472.88 399.05, 477.86 398.75, 481.00 394.00 C 485.29 391.40, 487.73 387.02, 489.00 383.00 C 491.77 379.20, 488.23 373.80, 491.00 371.00 C 490.24 366.87, 491.47 362.25, 491.00 358.00 C 491.59 354.95, 490.29 353.69, 490.00 352.00 C 489.25 348.76, 492.85 346.80, 490.00 345.00 C 490.00 340.00, 490.00 336.00, 490.00 332.00 C 489.39 326.94, 490.77 323.71, 491.00 320.00 C 490.93 313.50, 483.49 312.55, 482.00 308.00 C 476.24 305.07, 474.33 300.71, 470.00 298.00 C 465.13 293.03, 460.69 290.42, 457.00 286.00 C 452.96 281.90, 448.14 280.15, 446.00 276.00 C 440.95 272.78, 437.22 268.81, 433.00 266.00 C 428.17 262.40, 424.64 259.07, 421.00 256.00 C 416.26 252.03, 411.95 249.46, 408.00 246.00 C 403.14 242.81, 400.05 238.74, 396.00 237.00 C 391.27 233.10, 386.45 230.00, 386.00 225.00 C 385.49 219.65, 386.56 215.96, 387.00 212.00 C 387.00 207.00, 387.00 203.00, 387.00 199.00 C 387.00 181.33, 387.00 164.67, 387.00 148.00 C 384.98 143.89, 386.64 139.26, 385.00 136.00 C 385.23 130.63, 382.43 127.51, 383.00 123.00 C 382.33 117.73, 381.21 113.64, 379.00 110.00 C 375.12 105.64, 374.89 100.77, 372.00 97.00 C 370.11 91.87, 366.54 88.86, 365.00 85.00 C 360.71 80.12, 358.54 75.78, 355.00 72.00 C 350.48 67.38, 348.36 64.09, 344.00 62.00 C 339.35 59.15, 335.41 58.01, 331.00 58.00 C 325.87 58.22, 322.95 60.35, 319.00 60.00 C 313.88 60.38, 310.54 62.63, 306.00 62.00 C 300.62 62.75, 296.86 64.01, 293.00 65.00 C 288.11 66.27, 283.38 65.50, 280.00 68.00 C 275.05 67.65, 272.13 69.78, 268.00 69.00 C 262.67 65.79, 259.22 61.46, 255.00 59.00 C 250.67 55.80, 247.14 51.66, 243.00 49.00 C 237.93 45.17, 233.80 42.49, 230.00 39.00 C 225.69 35.48, 221.51 34.04, 218.00 31.00 C 213.46 27.23, 209.15 25.31, 205.00 23.00 C 199.58 20.02, 195.90 16.24, 192.00 13.00 C 189.30 7.71, 184.61 4.65, 180.00 5.00 Z" fill="rgb(28.158961940217587,32.84103805978241,43.5314996204865)" stroke="rgb(28.158961940217587,32.84103805978241,43.5314996204865)" stroke-width="1" />
<path d="M 105.00 116.00 C 103.58 121.15, 97.86 119.68, 94.00 121.00 C 90.82 119.92, 96.46 123.31, 92.00 123.00 C 89.00 124.00, 87.00 124.00, 85.00 124.00 C 82.33 124.00, 80.67 124.00, 79.00 124.00 C 75.24 123.58, 76.12 128.59, 73.00 128.00 C 67.38 128.13, 64.25 128.17, 61.00 131.00 C 57.93 130.96, 56.50 134.81, 55.00 132.00 C 50.62 130.55, 53.27 135.70, 50.00 135.00 C 44.65 135.49, 40.96 136.56, 37.00 137.00 C 41.35 136.69, 39.24 140.08, 37.00 139.00 C 33.69 140.42, 32.47 138.21, 30.00 139.00 C 24.27 140.33, 30.94 141.40, 28.00 143.00 C 23.42 143.27, 23.59 145.10, 23.00 147.00 C 20.58 145.40, 18.94 144.33, 17.00 144.00 C 15.44 146.24, 15.44 149.76, 17.00 151.00 C 18.64 156.29, 21.54 160.05, 24.00 164.00 C 25.35 169.27, 28.38 172.84, 30.00 177.00 C 31.34 182.55, 35.69 185.44, 36.00 190.00 C 40.45 194.40, 39.87 199.47, 43.00 203.00 C 45.70 205.65, 44.43 207.22, 47.00 208.00 C 50.12 207.95, 54.06 210.71, 50.00 211.00 C 44.78 214.40, 47.50 218.09, 47.00 223.00 C 47.95 228.63, 48.94 232.83, 50.00 237.00 C 51.96 241.60, 51.93 246.03, 53.00 250.00 C 56.11 254.26, 54.49 259.49, 57.00 263.00 C 57.73 268.25, 60.07 271.83, 61.00 276.00 C 63.13 281.08, 64.18 285.20, 66.00 289.00 C 68.97 293.74, 68.12 299.05, 73.00 302.00 C 71.01 304.27, 67.15 306.73, 71.00 306.00 C 73.96 306.23, 78.00 307.97, 75.00 310.00 C 77.01 315.00, 78.40 319.25, 81.00 323.00 C 83.62 327.74, 84.64 332.15, 87.00 336.00 C 89.11 340.95, 91.89 344.63, 93.00 349.00 C 95.65 354.15, 97.66 358.14, 100.00 362.00 C 102.34 366.86, 104.35 370.85, 106.00 375.00 C 108.99 380.01, 110.11 384.37, 113.00 388.00 C 115.24 392.90, 116.33 397.28, 119.00 401.00 C 120.40 406.11, 123.08 409.69, 124.00 414.00 C 125.93 419.17, 128.27 422.75, 129.00 427.00 C 133.87 430.36, 139.13 427.95, 143.00 427.00 C 148.09 426.21, 151.63 424.11, 156.00 424.00 C 160.73 422.03, 164.70 420.61, 169.00 420.00 C 174.01 418.69, 177.71 416.63, 182.00 416.00 C 187.18 415.10, 190.59 412.34, 195.00 412.00 C 199.88 410.39, 203.44 407.98, 208.00 408.00 C 212.51 405.15, 217.30 405.40, 221.00 403.00 C 225.91 401.44, 230.00 400.33, 234.00 399.00 C 236.50 397.93, 237.93 396.69, 240.00 397.00 C 240.79 393.53, 238.58 392.31, 239.00 390.00 C 237.04 385.53, 236.81 381.35, 237.00 377.00 C 235.73 371.63, 236.61 368.51, 237.00 364.00 C 238.36 357.63, 235.03 354.45, 231.00 352.00 C 226.13 348.35, 222.15 344.98, 218.00 342.00 C 214.12 337.23, 210.51 333.34, 208.00 329.00 C 204.59 324.03, 201.27 320.44, 200.00 316.00 C 197.00 311.14, 194.93 307.30, 194.00 303.00 C 191.94 297.41, 189.61 293.36, 188.00 289.00 C 188.40 283.28, 183.67 280.69, 184.00 276.00 C 181.49 273.62, 183.98 271.60, 184.00 270.00 C 182.02 267.68, 183.42 264.97, 183.00 263.00 C 182.57 257.63, 180.24 254.45, 181.00 250.00 C 178.80 245.77, 180.57 240.90, 180.00 237.00 C 178.45 227.75, 180.17 218.57, 178.00 211.00 C 178.18 205.65, 177.58 201.62, 176.00 198.00 C 176.27 192.47, 173.56 189.18, 173.00 185.00 C 171.05 180.54, 170.12 175.54, 165.00 176.00 C 162.74 176.31, 158.18 175.92, 161.00 174.00 C 164.13 174.47, 167.11 173.55, 167.00 171.00 C 165.76 165.82, 164.00 161.86, 162.00 158.00 C 159.63 153.01, 157.54 148.92, 155.00 145.00 C 151.00 141.64, 148.28 136.22, 144.00 133.00 C 139.29 128.64, 134.50 127.87, 131.00 124.00 C 125.71 123.03, 122.16 120.27, 118.00 119.00 C 115.00 119.00, 113.00 119.00, 111.00 119.00 C 112.64 116.02, 107.13 117.42, 106.00 117.00 Z" fill="rgb(226.4606068173305,135.73404919465602,130.01591959046073)" stroke="rgb(226.4606068173305,135.73404919465602,130.01591959046073)" stroke-width="1" />
<path d="M 345.00 284.00 C 341.65 285.77, 337.41 285.37, 334.00 287.00 C 329.62 289.51, 323.78 292.69, 325.00 298.00 C 325.64 303.82, 328.80 306.58, 333.00 309.00 C 337.47 310.96, 341.65 311.19, 346.00 311.00 C 354.06 313.93, 363.94 310.07, 371.00 313.00 C 373.60 314.42, 374.67 316.06, 375.00 318.00 C 372.02 321.17, 369.46 319.62, 368.00 321.00 C 366.65 327.69, 361.32 317.52, 357.00 320.00 C 351.71 319.50, 348.04 320.49, 345.00 323.00 C 340.10 324.90, 335.93 326.17, 332.00 328.00 C 327.12 329.61, 323.56 332.02, 319.00 332.00 C 313.59 333.34, 310.18 336.10, 306.00 337.00 C 300.49 338.69, 298.29 342.01, 297.00 346.00 C 295.94 351.39, 292.40 354.75, 291.00 359.00 C 287.10 363.20, 284.89 370.05, 280.00 368.00 C 274.45 363.01, 280.48 358.92, 282.00 355.00 C 286.14 351.94, 284.91 347.08, 288.00 344.00 C 288.68 339.00, 289.62 335.12, 290.00 331.00 C 290.00 326.00, 290.00 322.00, 290.00 318.00 C 289.13 312.56, 286.11 307.94, 282.00 307.00 C 277.29 306.22, 273.10 305.30, 270.00 307.00 C 264.77 309.28, 261.44 313.68, 260.00 318.00 C 257.73 323.03, 255.92 326.83, 255.00 331.00 C 252.50 335.38, 253.27 340.11, 252.00 344.00 C 250.88 348.48, 250.53 352.28, 250.00 356.00 C 250.57 361.37, 248.24 364.55, 249.00 369.00 C 249.28 374.02, 248.22 378.60, 250.00 382.00 C 249.25 387.86, 251.81 391.35, 254.00 395.00 C 258.19 397.82, 261.89 398.41, 266.00 398.00 C 270.65 396.16, 275.32 396.77, 279.00 395.00 C 283.96 394.56, 287.65 393.49, 292.00 394.00 C 298.09 392.58, 301.15 396.50, 301.00 401.00 C 299.40 405.55, 298.84 409.54, 297.00 413.00 C 295.11 415.02, 296.36 417.34, 296.00 419.00 C 298.41 421.72, 292.90 424.43, 296.00 426.00 C 294.96 430.81, 293.96 435.55, 297.00 438.00 C 294.00 441.11, 298.26 441.07, 299.00 443.00 C 299.01 446.27, 301.62 447.47, 301.00 450.00 C 303.46 455.17, 308.20 457.97, 310.00 462.00 C 315.14 465.66, 318.67 469.80, 323.00 472.00 C 327.26 475.78, 332.13 475.68, 336.00 478.00 C 340.65 479.85, 344.59 480.99, 349.00 481.00 C 353.90 481.77, 357.60 482.03, 361.00 483.00 C 365.90 482.43, 370.77 484.20, 374.00 482.00 C 379.35 482.19, 383.53 481.96, 387.00 480.00 C 392.30 479.39, 396.27 477.97, 400.00 476.00 C 405.06 475.27, 407.85 471.50, 412.00 471.00 C 417.21 467.18, 421.32 464.11, 425.00 460.00 C 428.98 455.17, 432.03 452.60, 434.00 448.00 C 436.29 443.26, 438.47 439.47, 439.00 435.00 C 439.92 430.44, 441.07 426.97, 441.00 423.00 C 441.51 417.65, 440.44 413.96, 440.00 410.00 C 439.08 404.83, 437.97 400.74, 436.00 397.00 C 434.01 391.30, 430.57 387.63, 427.00 384.00 C 422.71 379.42, 418.63 377.75, 415.00 375.00 C 410.28 372.65, 406.30 370.94, 402.00 370.00 C 397.39 368.05, 392.84 368.38, 389.00 367.00 C 383.68 366.77, 379.19 366.96, 376.00 364.00 C 375.46 358.83, 376.73 355.41, 378.00 352.00 C 380.80 346.78, 382.92 342.49, 385.00 339.00 C 384.41 336.06, 388.45 334.42, 386.00 333.00 C 389.51 330.76, 386.49 327.24, 389.00 326.00 C 388.47 325.06, 388.47 321.94, 390.00 321.00 C 389.54 317.31, 389.54 316.69, 390.00 314.00 C 388.22 308.63, 385.72 304.98, 384.00 301.00 C 380.96 295.54, 375.98 292.15, 372.00 290.00 C 367.64 286.79, 363.10 286.43, 359.00 285.00 C 354.60 283.22, 350.02 284.28, 346.00 284.00 Z" fill="rgb(251.8911192214112,220.21071573398217,129.1410685320357)" stroke="rgb(251.8911192214112,220.21071573398217,129.1410685320357)" stroke-width="1" />
<path d="M 168.00 183.00 C 165.10 185.18, 160.57 183.44, 157.00 184.00 C 152.11 185.27, 148.66 187.60, 144.00 187.00 C 144.05 194.70, 137.38 188.93, 134.00 191.00 C 128.46 190.37, 125.12 192.62, 121.00 193.00 C 116.83 195.20, 112.65 194.97, 109.00 196.00 C 103.38 196.17, 100.77 200.20, 96.00 199.00 C 90.40 199.55, 87.68 203.64, 83.00 203.00 C 78.20 204.83, 74.21 206.17, 70.00 207.00 C 65.13 207.50, 62.11 210.07, 58.00 210.00 C 53.55 212.20, 46.96 211.91, 47.00 217.00 C 48.81 221.53, 46.87 226.61, 49.00 230.00 C 50.07 234.97, 50.04 239.40, 52.00 243.00 C 51.73 248.53, 54.44 251.82, 55.00 256.00 C 56.40 260.97, 56.80 265.36, 59.00 269.00 C 60.18 274.20, 62.21 278.05, 64.00 282.00 C 65.18 287.20, 67.21 291.05, 69.00 295.00 C 70.80 301.06, 74.55 298.70, 79.00 299.00 C 83.93 296.83, 87.64 295.12, 92.00 295.00 C 96.64 292.80, 101.03 292.40, 105.00 291.00 C 109.89 289.73, 113.34 287.40, 118.00 288.00 C 123.14 287.15, 126.26 284.82, 130.00 284.00 C 135.18 283.44, 138.74 281.37, 143.00 281.00 C 148.68 280.98, 151.61 277.73, 156.00 278.00 C 161.24 276.59, 165.24 275.59, 169.00 274.00 C 173.82 273.71, 176.71 271.15, 181.00 272.00 C 184.28 269.07, 181.78 263.04, 181.00 260.00 C 181.57 254.63, 179.24 251.45, 180.00 247.00 C 177.87 242.61, 179.81 237.53, 178.00 234.00 C 177.43 228.22, 178.25 225.06, 177.00 221.00 C 176.43 216.10, 178.20 211.23, 176.00 208.00 C 176.57 202.63, 174.24 199.45, 175.00 195.00 C 173.03 190.22, 172.87 184.61, 169.00 183.00 Z" fill="rgb(228.89505796217205,136.95607077486272,130.96740172579098)" stroke="rgb(228.89505796217205,136.95607077486272,130.96740172579098)" stroke-width="1" />
<path d="M 106.00 72.00 C 103.17 74.92, 104.73 77.39, 105.00 81.00 C 104.52 84.92, 102.87 88.74, 105.00 91.00 C 106.04 95.26, 106.76 98.65, 110.00 101.00 C 112.80 104.49, 115.75 106.61, 119.00 108.00 C 123.21 109.50, 126.60 110.55, 129.00 114.00 C 132.97 117.07, 135.85 119.36, 139.00 121.00 C 143.33 121.87, 146.09 124.11, 149.00 126.00 C 153.48 129.39, 155.70 132.46, 158.00 136.00 C 159.94 140.30, 162.48 142.94, 164.00 146.00 C 164.77 150.23, 167.23 152.77, 168.00 156.00 C 169.44 160.23, 171.90 162.63, 172.00 166.00 C 173.74 170.58, 175.85 173.59, 177.00 177.00 C 178.49 180.80, 179.53 183.78, 180.00 187.00 C 181.35 191.13, 181.63 194.29, 183.00 197.00 C 182.31 201.43, 184.69 203.57, 184.00 207.00 C 184.23 211.79, 186.54 214.31, 186.00 218.00 C 185.23 222.46, 187.25 224.76, 187.00 228.00 C 186.53 232.33, 187.47 235.08, 188.00 238.00 C 188.52 241.92, 186.87 245.74, 189.00 248.00 C 189.07 252.11, 188.54 255.47, 190.00 258.00 C 189.23 262.46, 191.25 264.76, 191.00 268.00 C 192.39 271.84, 192.41 275.24, 194.00 278.00 C 193.93 282.44, 195.18 285.34, 197.00 288.00 C 197.74 292.58, 199.85 295.59, 201.00 299.00 C 201.95 303.57, 205.73 305.56, 206.00 309.00 C 208.74 313.11, 209.97 316.43, 213.00 319.00 C 215.60 322.65, 217.15 326.85, 220.00 328.00 C 222.54 332.66, 225.51 335.73, 228.00 339.00 C 230.72 342.94, 233.46 346.45, 237.00 347.00 C 240.68 346.20, 238.98 341.06, 241.00 339.00 C 241.73 329.65, 233.11 325.17, 231.00 318.00 C 229.22 313.05, 224.14 312.45, 223.00 309.00 C 220.75 305.24, 219.35 302.13, 218.00 299.00 C 216.04 294.98, 214.96 292.02, 214.00 289.00 C 212.04 284.98, 210.96 282.02, 210.00 279.00 C 208.00 275.41, 208.32 271.87, 207.00 269.00 C 205.94 265.16, 205.71 261.98, 205.00 259.00 C 204.29 255.02, 202.90 252.32, 203.00 249.00 C 201.68 244.94, 202.03 241.18, 201.00 238.00 C 201.25 233.76, 199.23 231.46, 200.00 228.00 C 199.77 223.54, 197.75 221.24, 198.00 218.00 C 196.47 212.93, 201.30 211.77, 204.00 211.00 C 208.41 210.18, 211.38 208.32, 215.00 208.00 C 218.76 206.41, 222.16 206.39, 225.00 205.00 C 228.80 203.51, 231.78 202.47, 235.00 202.00 C 237.61 198.84, 237.61 194.16, 236.00 192.00 C 235.77 187.49, 234.92 184.23, 234.00 181.00 C 232.37 177.40, 233.63 173.60, 232.00 171.00 C 230.61 167.16, 230.59 163.76, 229.00 161.00 C 228.53 156.78, 227.49 153.80, 226.00 151.00 C 224.76 146.63, 223.24 143.37, 222.00 140.00 C 218.03 132.24, 214.68 125.64, 209.00 120.00 C 206.75 115.41, 202.43 113.10, 200.00 110.00 C 196.00 106.86, 192.81 104.18, 189.00 103.00 C 184.77 101.23, 182.23 98.77, 179.00 98.00 C 175.20 96.51, 172.22 95.47, 169.00 95.00 C 165.41 93.01, 161.59 93.99, 159.00 92.00 C 154.79 90.70, 151.30 90.08, 148.00 89.00 C 143.60 87.97, 141.06 85.85, 138.00 85.00 C 134.05 82.54, 130.70 82.06, 128.00 80.00 C 123.94 78.48, 121.30 75.94, 118.00 75.00 C 113.41 73.96, 110.93 71.22, 107.00 72.00 Z" fill="rgb(246.19648122665618,215.30165126793787,126.59770001965795)" stroke="rgb(246.19648122665618,215.30165126793787,126.59770001965795)" stroke-width="1" />
<path d="M 245.00 405.00 C 242.32 408.71, 236.91 405.84, 234.00 409.00 C 229.45 411.42, 225.08 411.86, 221.00 413.00 C 216.43 415.22, 212.40 415.37, 209.00 417.00 C 204.03 419.40, 199.64 419.80, 196.00 422.00 C 191.45 423.28, 187.54 423.69, 184.00 425.00 C 178.94 427.18, 174.58 427.65, 171.00 430.00 C 166.81 432.14, 161.86 430.04, 159.00 433.00 C 154.33 435.14, 149.43 434.30, 146.00 437.00 C 141.48 437.52, 136.64 438.26, 135.00 441.00 C 136.67 445.86, 137.81 449.94, 139.00 454.00 C 140.73 458.50, 141.27 462.50, 143.00 466.00 C 143.38 471.12, 144.32 475.00, 145.00 479.00 C 146.28 483.55, 146.69 487.46, 148.00 491.00 C 149.02 496.83, 155.51 498.66, 159.00 496.00 C 164.24 495.59, 168.24 494.59, 172.00 493.00 C 176.77 491.45, 180.91 490.78, 185.00 490.00 C 189.22 487.91, 193.56 488.54, 197.00 487.00 C 202.09 486.21, 205.63 484.11, 210.00 484.00 C 215.06 483.29, 217.94 480.71, 222.00 481.00 C 227.36 479.88, 231.07 478.17, 235.00 477.00 C 239.35 475.23, 243.59 475.63, 247.00 474.00 C 251.54 471.89, 255.84 471.61, 260.00 471.00 C 265.18 469.44, 268.74 467.37, 273.00 467.00 C 277.75 465.06, 282.10 464.58, 286.00 463.00 C 293.01 462.51, 288.02 457.29, 288.00 454.00 C 286.44 448.82, 284.37 445.26, 284.00 441.00 C 282.30 436.90, 283.22 432.71, 283.00 429.00 C 282.24 423.55, 284.57 420.37, 284.00 416.00 C 284.30 412.16, 290.02 406.11, 285.00 406.00 C 279.93 406.49, 275.67 406.52, 272.00 408.00 C 266.55 407.26, 263.20 409.16, 259.00 409.00 C 253.85 408.03, 250.14 405.99, 246.00 405.00 Z" fill="rgb(224.76129032258063,134.8967741935484,129.29677419354837)" stroke="rgb(224.76129032258063,134.8967741935484,129.29677419354837)" stroke-width="1" />
<path d="M 240.00 407.00 C 237.71 409.10, 229.71 409.21, 231.00 412.00 C 232.32 414.71, 229.14 417.60, 228.00 415.00 C 224.84 412.60, 223.71 414.49, 221.00 414.00 C 215.71 414.15, 212.82 416.71, 209.00 417.00 C 203.67 418.55, 199.96 420.57, 196.00 422.00 C 191.48 423.36, 187.68 424.03, 184.00 425.00 C 178.58 426.00, 175.46 429.10, 171.00 429.00 C 166.35 431.03, 162.17 430.80, 159.00 433.00 C 153.82 433.56, 150.26 435.63, 146.00 436.00 C 142.11 437.95, 136.67 437.49, 135.00 440.00 C 135.79 445.09, 137.89 448.63, 138.00 453.00 C 139.79 457.75, 141.04 461.32, 142.00 465.00 C 143.49 470.07, 143.52 474.33, 145.00 478.00 C 144.99 483.09, 146.66 486.47, 148.00 490.00 C 149.76 494.67, 153.53 499.36, 158.00 496.00 C 163.41 495.99, 167.35 494.85, 171.00 493.00 C 176.02 492.05, 179.99 490.97, 184.00 490.00 C 188.27 488.03, 192.62 488.69, 196.00 487.00 C 201.18 486.44, 204.74 484.37, 209.00 484.00 C 214.14 483.15, 217.26 480.82, 221.00 480.00 C 226.36 479.88, 230.07 478.17, 234.00 477.00 C 238.39 475.33, 242.28 474.88, 246.00 474.00 C 251.00 472.32, 254.88 471.38, 259.00 471.00 C 263.93 468.83, 267.64 467.12, 272.00 467.00 C 276.98 464.94, 281.24 464.58, 285.00 463.00 C 290.66 461.29, 287.72 456.46, 287.00 453.00 C 284.49 448.49, 285.18 443.65, 283.00 440.00 C 281.09 435.38, 282.71 432.41, 282.00 428.00 C 283.31 423.13, 281.67 418.03, 285.00 415.00 C 285.61 409.94, 285.02 405.92, 280.00 407.00 C 274.81 407.87, 270.67 407.86, 267.00 409.00 C 262.00 409.00, 258.00 409.00, 254.00 409.00 C 249.60 406.22, 245.02 407.28, 241.00 407.00 Z" fill="rgb(228.9273453524776,136.95811292237937,130.96577782575838)" stroke="rgb(228.9273453524776,136.95811292237937,130.96577782575838)" stroke-width="1" />
<path d="M 113.00 120.00 C 110.67 122.28, 106.41 119.90, 104.00 122.00 C 99.82 123.03, 96.06 122.68, 93.00 124.00 C 88.77 124.92, 85.51 125.77, 82.00 126.00 C 77.60 127.52, 74.40 128.48, 71.00 129.00 C 66.48 129.40, 64.34 132.15, 61.00 132.00 C 56.38 133.32, 53.41 135.18, 50.00 136.00 C 46.08 138.66, 42.01 138.55, 39.00 141.00 C 34.68 142.71, 30.91 143.32, 28.00 146.00 C 24.45 147.07, 19.93 148.28, 18.00 145.00 C 14.52 145.08, 16.50 150.28, 17.00 153.00 C 19.37 157.46, 22.00 160.39, 23.00 164.00 C 25.31 168.48, 26.99 171.81, 29.00 175.00 C 31.44 179.01, 32.66 182.53, 34.00 186.00 C 37.13 190.14, 37.79 193.89, 40.00 197.00 C 41.66 200.93, 44.24 206.59, 48.00 203.00 C 52.76 203.04, 55.68 201.02, 59.00 200.00 C 62.65 198.17, 66.22 198.53, 69.00 197.00 C 73.30 195.92, 76.79 195.30, 80.00 194.00 C 83.99 192.17, 87.85 192.44, 91.00 191.00 C 95.10 189.09, 99.23 189.69, 102.00 187.00 C 106.93 187.78, 109.41 185.04, 113.00 185.00 C 117.71 184.25, 120.45 182.14, 124.00 182.00 C 128.21 180.70, 131.70 180.08, 135.00 179.00 C 139.21 177.70, 142.70 177.08, 146.00 176.00 C 150.52 176.60, 152.66 173.85, 156.00 174.00 C 159.60 172.09, 164.94 173.32, 166.00 170.00 C 164.24 165.70, 164.13 161.73, 161.00 159.00 C 159.08 154.63, 158.65 150.65, 155.00 148.00 C 153.65 143.12, 150.11 140.15, 147.00 137.00 C 142.81 133.31, 139.21 131.64, 136.00 129.00 C 131.73 126.86, 128.11 125.53, 125.00 123.00 C 120.87 121.52, 118.00 119.38, 114.00 120.00 Z" fill="rgb(227.87891702180997,136.4442216094259,130.5720732013036)" stroke="rgb(227.87891702180997,136.4442216094259,130.5720732013036)" stroke-width="1" />
<path d="M 179.00 18.00 C 175.36 20.43, 177.63 25.32, 177.00 29.00 C 177.05 34.26, 177.58 38.31, 179.00 42.00 C 180.83 46.93, 182.10 51.10, 184.00 55.00 C 187.04 60.72, 190.92 62.23, 195.00 65.00 C 199.40 69.32, 203.22 71.61, 207.00 74.00 C 212.20 77.53, 215.87 81.31, 220.00 84.00 C 224.90 88.89, 228.12 92.31, 231.00 96.00 C 235.67 100.72, 238.21 104.91, 241.00 109.00 C 243.54 113.86, 247.11 116.87, 248.00 121.00 C 250.03 126.26, 253.65 129.45, 254.00 134.00 C 256.18 139.20, 258.21 143.05, 260.00 147.00 C 262.20 151.64, 262.60 156.03, 264.00 160.00 C 265.77 164.35, 265.37 168.59, 267.00 172.00 C 268.06 176.98, 268.42 181.24, 270.00 185.00 C 268.72 192.29, 274.54 191.18, 278.00 189.00 C 282.93 187.83, 286.64 186.12, 291.00 186.00 C 295.85 184.45, 299.41 183.20, 303.00 182.00 C 307.55 180.12, 313.56 180.64, 315.00 176.00 C 315.68 170.72, 314.71 166.71, 313.00 163.00 C 311.69 157.99, 310.31 154.01, 309.00 150.00 C 307.85 144.84, 305.13 141.75, 304.00 138.00 C 301.20 133.19, 299.13 129.08, 297.00 125.00 C 293.79 119.81, 291.09 115.82, 288.00 112.00 C 284.02 106.85, 280.65 102.87, 277.00 99.00 C 271.96 94.90, 270.87 90.58, 268.00 87.00 C 264.02 81.85, 260.65 77.87, 257.00 74.00 C 253.45 68.54, 248.65 65.01, 245.00 61.00 C 239.78 57.19, 236.05 53.22, 232.00 50.00 C 226.81 46.79, 222.82 44.09, 219.00 41.00 C 214.20 38.52, 210.23 36.44, 206.00 35.00 C 200.47 32.95, 197.60 27.89, 193.00 27.00 C 188.20 22.85, 185.42 17.23, 180.00 18.00 Z" fill="rgb(250.95361781076068,219.42751126424596,128.6815531407368)" stroke="rgb(250.95361781076068,219.42751126424596,128.6815531407368)" stroke-width="1" />
<path d="M 316.00 191.00 C 313.44 192.72, 309.79 191.82, 307.00 193.00 C 301.96 191.97, 299.51 194.77, 296.00 195.00 C 291.79 196.30, 288.30 196.92, 285.00 198.00 C 281.09 200.03, 276.63 198.30, 274.00 201.00 C 270.02 202.86, 266.43 203.24, 263.00 204.00 C 259.22 206.33, 255.12 205.49, 252.00 207.00 C 247.75 208.53, 244.36 209.72, 241.00 211.00 C 236.57 211.76, 232.98 212.14, 230.00 214.00 C 226.08 215.18, 222.18 214.01, 220.00 217.00 C 215.77 217.92, 212.51 218.77, 209.00 219.00 C 203.43 220.02, 207.71 225.07, 207.00 228.00 C 206.84 232.18, 213.17 230.68, 211.00 236.00 C 209.04 240.06, 210.34 243.82, 211.00 247.00 C 212.32 251.06, 211.97 254.82, 213.00 258.00 C 213.30 262.76, 215.00 265.53, 215.00 269.00 C 216.40 271.11, 215.68 272.68, 218.00 272.00 C 221.88 274.11, 215.22 277.06, 220.00 277.00 C 224.05 276.11, 227.16 275.38, 230.00 274.00 C 233.38 270.71, 237.88 272.52, 241.00 271.00 C 244.73 268.22, 249.11 269.42, 252.00 267.00 C 256.55 266.86, 259.29 264.75, 263.00 265.00 C 267.71 264.25, 270.45 262.14, 274.00 262.00 C 279.10 261.86, 281.14 257.72, 285.00 258.00 C 288.17 254.19, 293.21 257.30, 296.00 255.00 C 300.07 253.36, 302.88 251.10, 307.00 252.00 C 311.24 249.77, 314.85 249.45, 318.00 248.00 C 322.65 247.43, 325.13 244.03, 329.00 244.00 C 332.95 243.68, 338.23 243.49, 338.00 240.00 C 338.25 235.29, 336.14 232.55, 336.00 229.00 C 335.24 224.57, 334.86 220.98, 333.00 218.00 C 332.68 213.38, 330.82 210.41, 330.00 207.00 C 329.26 202.42, 327.15 199.41, 326.00 196.00 C 324.80 191.00, 320.60 190.67, 317.00 191.00 Z" fill="rgb(36.711755233494365,45.880515297906605,58.977777777777774)" stroke="rgb(36.711755233494365,45.880515297906605,58.977777777777774)" stroke-width="1" />
<path d="M 380.00 234.00 C 377.67 236.28, 373.41 233.90, 371.00 236.00 C 367.02 236.71, 363.84 236.94, 361.00 238.00 C 356.79 238.16, 354.21 239.84, 351.00 240.00 C 346.02 241.38, 349.04 246.28, 350.00 249.00 C 357.69 256.75, 363.26 261.95, 370.00 268.00 C 373.75 271.94, 376.49 274.89, 380.00 276.00 C 384.30 277.76, 388.27 277.87, 391.00 281.00 C 398.41 285.25, 404.69 292.06, 407.00 299.00 C 407.75 303.24, 409.77 305.54, 409.00 309.00 C 411.85 312.99, 408.53 316.65, 409.00 320.00 C 409.10 324.32, 407.71 327.02, 407.00 330.00 C 405.23 334.15, 404.61 337.78, 403.00 341.00 C 402.38 344.30, 396.23 349.35, 401.00 349.00 C 405.61 347.33, 408.89 345.87, 412.00 344.00 C 415.71 341.96, 419.47 342.47, 422.00 340.00 C 425.95 338.54, 429.30 338.06, 432.00 336.00 C 436.13 334.99, 439.31 334.08, 442.00 332.00 C 446.43 330.90, 449.81 329.67, 453.00 328.00 C 456.81 326.22, 460.19 325.78, 463.00 324.00 C 467.12 322.16, 470.55 321.06, 474.00 320.00 C 480.10 319.71, 477.51 313.85, 476.00 312.00 C 471.92 307.39, 468.01 305.79, 465.00 302.00 C 457.58 295.73, 450.68 290.64, 444.00 285.00 C 436.39 277.85, 429.49 272.44, 423.00 266.00 C 418.48 263.92, 416.45 259.25, 413.00 258.00 C 408.79 254.05, 405.44 251.40, 402.00 249.00 C 398.40 244.70, 394.75 243.92, 392.00 241.00 C 387.72 237.87, 385.17 233.99, 381.00 234.00 Z" fill="rgb(215.82394366197184,130.38732394366198,125.82394366197182)" stroke="rgb(215.82394366197184,130.38732394366198,125.82394366197182)" stroke-width="1" />
<path d="M 355.00 239.00 C 353.08 240.58, 346.26 240.04, 350.00 244.00 C 345.97 246.81, 351.95 250.71, 354.00 253.00 C 356.99 255.84, 359.75 257.97, 362.00 261.00 C 366.50 264.61, 369.85 267.57, 373.00 271.00 C 376.61 273.11, 377.87 277.13, 382.00 276.00 C 386.32 278.71, 390.09 279.32, 393.00 282.00 C 397.02 284.35, 400.65 287.98, 402.00 291.00 C 405.55 294.97, 407.47 298.19, 408.00 302.00 C 410.70 305.16, 407.30 309.84, 410.00 312.00 C 409.22 316.15, 408.66 319.39, 409.00 323.00 C 408.60 327.52, 405.85 329.66, 406.00 333.00 C 404.62 337.73, 402.23 340.62, 401.00 344.00 C 396.47 348.72, 400.63 349.64, 404.00 348.00 C 408.73 346.62, 411.62 344.23, 415.00 343.00 C 419.05 341.80, 422.02 340.39, 425.00 339.00 C 429.37 337.76, 432.63 336.24, 436.00 335.00 C 439.53 332.53, 443.29 333.04, 446.00 331.00 C 450.11 329.13, 453.39 327.67, 457.00 327.00 C 461.02 325.04, 463.98 323.96, 467.00 323.00 C 470.92 320.34, 474.99 320.45, 478.00 318.00 C 479.01 312.75, 474.14 310.94, 472.00 308.00 C 467.70 304.25, 464.30 301.75, 461.00 299.00 C 453.25 292.53, 446.55 286.96, 440.00 281.00 C 435.63 278.24, 432.95 274.79, 430.00 272.00 C 424.98 269.98, 423.02 264.02, 419.00 263.00 C 415.32 258.56, 411.85 257.03, 409.00 254.00 C 404.47 251.15, 401.82 247.16, 398.00 246.00 C 394.09 242.79, 391.72 239.26, 388.00 239.00 C 384.52 241.74, 379.48 238.26, 377.00 241.00 C 369.22 239.95, 362.21 240.43, 356.00 239.00 Z" fill="rgb(227.74749681412706,136.3846713999636,130.50973966866923)" stroke="rgb(227.74749681412706,136.3846713999636,130.50973966866923)" stroke-width="1" />
<path d="M 367.00 120.00 C 362.09 122.70, 356.08 122.71, 351.00 125.00 C 344.36 126.72, 338.55 128.06, 333.00 130.00 C 329.37 130.75, 326.81 131.68, 324.00 132.00 C 320.44 133.12, 316.53 133.29, 316.00 136.00 C 318.64 142.54, 320.84 148.26, 323.00 154.00 C 325.05 160.18, 326.40 165.64, 328.00 171.00 C 329.36 174.38, 328.64 177.62, 330.00 180.00 C 332.13 183.61, 332.36 186.60, 334.00 189.00 C 335.38 195.79, 337.29 201.35, 339.00 207.00 C 340.52 213.73, 342.48 219.27, 344.00 225.00 C 345.54 228.59, 344.62 230.25, 348.00 231.00 C 351.60 229.51, 355.06 231.09, 357.00 229.00 C 363.77 228.25, 369.30 226.91, 375.00 226.00 C 383.76 225.66, 377.55 215.02, 381.00 211.00 C 381.97 207.37, 380.34 204.81, 380.00 202.00 C 380.00 198.33, 380.00 195.67, 380.00 193.00 C 379.48 185.86, 377.93 180.56, 377.00 175.00 C 377.78 170.87, 375.50 169.01, 376.00 166.00 C 374.08 162.85, 376.14 159.05, 374.00 157.00 C 374.34 149.92, 371.66 145.08, 372.00 139.00 C 370.71 135.59, 370.07 132.92, 370.00 130.00 C 367.86 126.95, 369.92 123.15, 368.00 121.00 Z" fill="rgb(165.42465753424656,105.0,106.0958904109589)" stroke="rgb(165.42465753424656,105.0,106.0958904109589)" stroke-width="1" />
<path d="M 366.00 121.00 C 360.92 123.27, 355.03 123.59, 350.00 126.00 C 343.11 126.80, 338.24 130.05, 332.00 130.00 C 328.80 131.99, 326.20 132.01, 324.00 133.00 C 321.06 134.44, 316.47 133.34, 316.00 136.00 C 319.35 142.25, 320.97 148.21, 323.00 154.00 C 324.38 160.73, 327.18 165.45, 328.00 171.00 C 329.54 174.30, 329.13 177.42, 330.00 180.00 C 331.62 183.82, 333.11 186.29, 334.00 189.00 C 335.54 192.30, 335.13 195.42, 336.00 198.00 C 336.55 202.13, 338.49 204.27, 339.00 207.00 C 340.29 210.41, 340.93 213.08, 341.00 216.00 C 341.77 220.04, 344.23 221.96, 344.00 225.00 C 345.26 228.10, 345.38 231.13, 349.00 230.00 C 352.82 230.04, 355.73 230.29, 358.00 229.00 C 361.81 228.68, 364.37 227.75, 367.00 227.00 C 370.92 226.93, 373.59 226.29, 376.00 225.00 C 380.95 226.00, 379.94 221.39, 380.00 219.00 C 379.96 215.18, 379.71 212.27, 381.00 210.00 C 381.04 206.18, 381.29 203.27, 380.00 201.00 C 378.70 196.79, 380.44 194.94, 379.00 192.00 C 378.99 188.02, 378.89 185.70, 378.00 184.00 C 378.60 179.95, 377.25 177.70, 377.00 175.00 C 375.71 171.73, 375.96 168.82, 376.00 166.00 C 374.46 162.70, 374.87 159.58, 374.00 157.00 C 374.28 152.94, 373.51 150.32, 372.00 148.00 C 372.43 145.49, 372.49 141.03, 371.00 139.00 C 370.75 135.30, 369.40 133.05, 370.00 130.00 C 368.33 125.74, 369.01 124.00, 367.00 121.00 Z" fill="rgb(228.43139293139293,136.7130977130977,130.77609147609147)" stroke="rgb(228.43139293139293,136.7130977130977,130.77609147609147)" stroke-width="1" />
<path d="M 337.00 252.00 C 333.82 253.38, 330.46 254.30, 327.00 255.00 C 322.54 256.70, 319.18 257.62, 316.00 259.00 C 311.38 259.32, 308.41 261.18, 305.00 262.00 C 300.70 264.21, 296.02 263.10, 293.00 266.00 C 288.54 266.70, 285.18 267.62, 282.00 269.00 C 277.38 270.46, 273.41 271.04, 270.00 273.00 C 265.54 273.70, 262.18 274.62, 259.00 276.00 C 254.46 277.30, 250.54 277.70, 247.00 279.00 C 243.06 280.96, 238.84 279.82, 236.00 282.00 C 231.28 282.88, 227.82 284.37, 224.00 285.00 C 220.64 288.27, 225.69 291.89, 227.00 295.00 C 229.64 299.54, 231.36 303.46, 234.00 307.00 C 236.53 311.11, 237.86 314.73, 240.00 318.00 C 241.79 321.35, 244.80 329.89, 246.00 323.00 C 247.74 318.42, 249.85 315.41, 251.00 312.00 C 254.16 307.26, 256.51 303.60, 259.00 300.00 C 261.40 294.96, 266.07 292.74, 269.00 290.00 C 273.04 287.49, 276.71 286.50, 281.00 287.00 C 285.56 288.45, 289.37 289.29, 292.00 293.00 C 296.34 297.25, 297.57 301.37, 300.00 305.00 C 300.04 309.59, 302.78 312.07, 302.00 316.00 C 302.11 320.56, 300.63 325.70, 306.00 324.00 C 310.19 321.99, 313.52 320.31, 317.00 319.00 C 321.47 316.88, 327.79 313.88, 323.00 310.00 C 319.67 305.94, 317.83 302.68, 317.00 299.00 C 316.64 293.77, 317.75 290.15, 320.00 287.00 C 323.85 282.51, 327.46 280.84, 331.00 279.00 C 335.68 277.03, 339.48 276.36, 343.00 275.00 C 347.15 274.22, 350.39 273.66, 354.00 274.00 C 358.31 274.29, 364.95 274.67, 361.00 270.00 C 356.74 265.82, 353.04 263.71, 350.00 260.00 C 345.50 256.26, 343.18 250.67, 338.00 252.00 Z" fill="rgb(214.92548830479865,216.18061249095732,216.57511454063177)" stroke="rgb(214.92548830479865,216.18061249095732,216.57511454063177)" stroke-width="1" />
<path d="M 314.00 201.00 C 309.37 203.23, 304.25 204.27, 299.00 205.00 C 292.38 206.65, 287.38 208.79, 282.00 210.00 C 276.01 212.50, 270.26 213.15, 265.00 215.00 C 259.01 217.50, 253.26 218.15, 248.00 220.00 C 242.19 222.12, 236.81 222.88, 232.00 225.00 C 228.55 225.39, 226.67 227.14, 224.00 227.00 C 219.45 226.92, 218.24 230.60, 220.00 233.00 C 221.88 239.11, 221.54 245.13, 224.00 250.00 C 223.30 253.76, 225.70 255.24, 225.00 258.00 C 225.70 261.59, 228.04 265.07, 231.00 262.00 C 237.20 261.15, 241.98 259.28, 247.00 258.00 C 253.08 255.73, 258.97 255.41, 264.00 253.00 C 270.26 251.15, 276.01 250.50, 281.00 248.00 C 287.57 247.24, 292.43 244.76, 298.00 244.00 C 304.34 242.49, 309.02 240.39, 314.00 239.00 C 317.45 238.61, 319.33 236.86, 322.00 237.00 C 325.94 237.18, 330.09 233.38, 327.00 231.00 C 326.62 224.27, 324.22 219.38, 323.00 214.00 C 321.66 210.95, 321.50 208.40, 321.00 206.00 C 320.46 201.59, 318.14 200.31, 315.00 201.00 Z" fill="rgb(0.3443491422805247,0.5850151362260343,0.9220484359233098)" stroke="rgb(0.3443491422805247,0.5850151362260343,0.9220484359233098)" stroke-width="1" />
<path d="M 319.00 70.00 C 315.33 71.48, 311.07 71.51, 307.00 72.00 C 302.44 73.73, 297.82 72.89, 294.00 74.00 C 288.88 76.02, 285.54 73.57, 281.00 74.00 C 278.49 75.05, 275.12 74.20, 276.00 77.00 C 278.43 80.10, 281.74 81.42, 282.00 84.00 C 286.90 88.63, 289.35 92.86, 292.00 97.00 C 296.34 101.86, 298.50 106.21, 302.00 110.00 C 304.54 114.92, 306.63 119.01, 309.00 123.00 C 310.86 130.54, 316.71 123.46, 321.00 125.00 C 326.01 123.03, 329.98 121.95, 334.00 121.00 C 339.24 119.59, 343.24 118.59, 347.00 117.00 C 352.18 116.44, 355.74 114.37, 360.00 114.00 C 362.63 113.35, 365.76 112.67, 366.00 111.00 C 365.42 107.69, 363.21 106.47, 364.00 104.00 C 362.87 98.37, 358.51 95.48, 358.00 91.00 C 353.87 85.97, 351.00 80.28, 346.00 78.00 C 342.98 73.86, 337.51 72.91, 334.00 71.00 C 329.29 69.15, 324.34 70.32, 320.00 70.00 Z" fill="rgb(195.82142857142858,120.32142857142857,118.0)" stroke="rgb(195.82142857142858,120.32142857142857,118.0)" stroke-width="1" />
<path d="M 319.00 70.00 C 315.33 71.48, 311.07 71.51, 307.00 72.00 C 302.26 73.31, 297.95 73.20, 294.00 74.00 C 288.88 76.02, 285.54 73.57, 281.00 74.00 C 278.49 75.05, 275.12 74.20, 276.00 77.00 C 278.91 80.04, 281.00 80.40, 282.00 83.00 C 284.98 86.97, 288.77 91.21, 291.00 95.00 C 294.83 100.12, 297.03 102.81, 300.00 107.00 C 302.27 112.44, 305.59 116.03, 308.00 120.00 C 309.45 122.45, 310.19 125.69, 312.00 126.00 C 315.31 126.42, 316.53 124.21, 319.00 125.00 C 323.62 122.76, 328.19 122.80, 332.00 121.00 C 336.93 119.83, 340.64 118.12, 345.00 118.00 C 350.10 116.24, 354.07 115.16, 358.00 114.00 C 360.57 112.28, 363.28 113.33, 365.00 112.00 C 365.37 108.71, 364.73 106.83, 364.00 105.00 C 361.99 100.00, 360.60 95.75, 358.00 92.00 C 354.58 86.56, 351.70 81.91, 347.00 78.00 C 342.11 74.74, 338.45 71.92, 334.00 71.00 C 329.29 69.15, 324.34 70.32, 320.00 70.00 Z" fill="rgb(227.13300492610838,135.9048645320197,129.9667487684729)" stroke="rgb(227.13300492610838,135.9048645320197,129.9667487684729)" stroke-width="1" />
<path d="M 272.00 305.00 C 267.80 307.06, 263.36 310.68, 261.00 315.00 C 257.97 319.91, 257.17 324.74, 255.00 329.00 C 254.00 334.33, 253.18 338.74, 252.00 343.00 C 250.94 348.17, 249.95 352.37, 250.00 357.00 C 249.25 366.70, 248.26 375.92, 250.00 384.00 C 251.00 389.52, 253.07 395.08, 258.00 397.00 C 263.49 398.05, 268.06 398.28, 272.00 397.00 C 275.32 393.43, 283.07 396.27, 282.00 391.00 C 281.90 384.81, 282.50 381.77, 282.00 377.00 C 282.75 370.40, 278.62 368.23, 277.00 364.00 C 280.09 358.70, 283.19 354.41, 286.00 350.00 C 287.85 345.35, 288.99 341.41, 289.00 337.00 C 290.85 332.29, 289.68 327.34, 290.00 323.00 C 289.98 317.12, 289.51 312.43, 286.00 309.00 C 282.44 305.14, 277.95 304.50, 273.00 305.00 Z" fill="rgb(247.34419073203492,216.24714573539288,126.7558764271323)" stroke="rgb(247.34419073203492,216.24714573539288,126.7558764271323)" stroke-width="1" />
<path d="M 478.00 328.00 C 474.14 330.00, 469.98 331.29, 466.00 333.00 C 461.38 335.59, 456.85 335.96, 453.00 338.00 C 448.29 340.36, 444.07 341.51, 440.00 343.00 C 434.38 344.97, 430.26 347.15, 426.00 349.00 C 421.02 350.71, 416.86 352.00, 413.00 354.00 C 410.43 356.03, 407.72 355.33, 406.00 357.00 C 402.30 359.30, 408.00 359.05, 409.00 360.00 C 413.94 361.47, 418.46 361.55, 422.00 364.00 C 428.07 365.87, 430.98 368.58, 435.00 371.00 C 440.14 374.99, 444.26 378.03, 448.00 382.00 C 453.32 386.92, 455.58 391.70, 459.00 396.00 C 463.81 394.54, 467.70 392.28, 472.00 391.00 C 477.04 387.18, 482.84 385.65, 484.00 380.00 C 484.00 370.33, 484.00 361.67, 484.00 353.00 C 484.00 348.00, 484.00 344.00, 484.00 340.00 C 483.97 334.86, 483.81 328.27, 479.00 328.00 Z" fill="rgb(190.20652173913044,117.53260869565217,115.81521739130434)" stroke="rgb(190.20652173913044,117.53260869565217,115.81521739130434)" stroke-width="1" />
<path d="M 476.00 329.00 C 472.38 331.91, 467.40 331.55, 464.00 335.00 C 458.70 335.93, 454.86 338.00, 451.00 340.00 C 445.93 341.49, 441.71 342.64, 438.00 345.00 C 433.04 344.45, 428.66 349.95, 424.00 350.00 C 418.67 351.55, 414.96 353.57, 411.00 355.00 C 408.86 356.83, 405.91 356.45, 406.00 358.00 C 408.31 358.58, 409.53 360.79, 412.00 360.00 C 417.75 360.84, 421.36 363.47, 425.00 366.00 C 430.63 367.96, 434.80 371.01, 439.00 374.00 C 443.61 376.93, 447.22 381.51, 451.00 385.00 C 455.26 388.96, 456.42 395.49, 461.00 396.00 C 465.91 393.44, 470.29 392.03, 474.00 389.00 C 479.62 387.09, 483.72 383.22, 484.00 378.00 C 483.58 368.37, 484.99 358.98, 483.00 351.00 C 483.00 346.00, 483.00 342.00, 483.00 338.00 C 483.65 332.29, 482.82 327.24, 477.00 329.00 Z" fill="rgb(228.73142067058416,136.86380919460768,130.89249913584516)" stroke="rgb(228.73142067058416,136.86380919460768,130.89249913584516)" stroke-width="1" />
<path d="M 218.00 93.00 C 215.22 95.84, 207.98 93.94, 208.00 99.00 C 211.01 105.02, 217.99 107.98, 220.00 113.00 C 223.98 117.87, 226.49 121.94, 229.00 126.00 C 232.56 130.82, 233.03 135.93, 236.00 140.00 C 236.91 145.45, 240.72 148.70, 242.00 153.00 C 242.54 158.25, 243.78 162.62, 245.00 167.00 C 247.13 172.00, 248.10 176.49, 249.00 181.00 C 249.93 186.91, 251.72 191.06, 254.00 195.00 C 258.82 195.24, 264.92 194.71, 264.00 190.00 C 263.91 184.62, 260.42 179.73, 262.00 176.00 C 260.10 170.63, 258.55 166.52, 258.00 162.00 C 256.58 156.29, 254.25 152.37, 253.00 148.00 C 251.45 142.67, 249.43 138.96, 248.00 135.00 C 246.16 129.19, 243.23 125.24, 241.00 121.00 C 238.34 115.25, 234.52 111.39, 232.00 107.00 C 228.16 101.19, 222.95 97.35, 219.00 93.00 Z" fill="rgb(54.33974358974359,49.23717948717949,62.467948717948715)" stroke="rgb(54.33974358974359,49.23717948717949,62.467948717948715)" stroke-width="1" />
<path d="M 290.00 463.00 C 287.59 464.29, 284.92 464.93, 282.00 465.00 C 277.79 466.16, 275.21 467.84, 272.00 468.00 C 268.80 470.12, 265.32 469.15, 263.00 471.00 C 259.16 472.39, 255.76 472.41, 253.00 474.00 C 249.19 474.32, 246.63 475.25, 244.00 476.00 C 240.24 477.59, 236.84 477.61, 234.00 479.00 C 230.37 479.75, 227.81 480.68, 225.00 481.00 C 221.41 483.00, 217.87 482.68, 215.00 484.00 C 211.37 484.75, 208.81 485.68, 206.00 486.00 C 202.24 487.59, 198.84 487.61, 196.00 489.00 C 192.37 489.75, 189.81 490.68, 187.00 491.00 C 183.41 492.99, 179.59 492.01, 177.00 494.00 C 173.19 494.32, 170.63 495.25, 168.00 496.00 C 164.02 496.71, 161.32 498.10, 158.00 498.00 C 153.99 498.50, 152.13 500.78, 149.00 500.00 C 146.24 501.74, 146.00 508.14, 150.00 507.00 C 157.33 506.47, 162.57 503.29, 169.00 503.00 C 176.33 501.47, 181.57 498.29, 188.00 498.00 C 195.60 497.11, 200.74 493.70, 207.00 493.00 C 210.32 491.49, 212.94 490.72, 216.00 491.00 C 220.52 490.60, 222.66 487.85, 226.00 488.00 C 229.41 486.71, 232.08 486.07, 235.00 486.00 C 239.34 485.15, 241.48 482.40, 245.00 483.00 C 248.20 480.88, 251.68 481.85, 254.00 480.00 C 258.34 480.15, 260.48 477.40, 264.00 478.00 C 271.20 475.82, 277.16 474.06, 283.00 472.00 C 287.02 471.04, 289.98 469.96, 293.00 469.00 C 298.10 468.17, 294.24 462.28, 291.00 463.00 Z" fill="rgb(34.62689075630252,39.285714285714285,54.59915966386555)" stroke="rgb(34.62689075630252,39.285714285714285,54.59915966386555)" stroke-width="1" />
<path d="M 239.00 398.00 C 237.27 400.45, 233.99 399.17, 232.00 401.00 C 228.54 401.35, 226.93 403.78, 224.00 403.00 C 217.73 405.01, 213.08 407.52, 208.00 409.00 C 202.20 411.15, 196.90 412.09, 192.00 414.00 C 185.96 416.38, 180.58 417.92, 175.00 419.00 C 168.80 420.85, 164.02 422.72, 159.00 424.00 C 153.17 425.75, 148.35 427.52, 143.00 428.00 C 136.77 429.44, 132.15 431.37, 127.00 432.00 C 124.20 433.96, 120.92 432.32, 119.00 434.00 C 117.36 437.98, 118.37 441.11, 122.00 440.00 C 128.34 439.49, 133.02 437.39, 138.00 436.00 C 144.12 434.95, 149.10 433.57, 154.00 432.00 C 160.02 430.72, 164.80 428.85, 170.00 428.00 C 176.89 427.01, 181.11 422.99, 187.00 423.00 C 193.21 420.83, 198.20 419.16, 203.00 417.00 C 209.38 415.46, 214.41 413.05, 220.00 412.00 C 226.21 409.83, 231.20 408.16, 236.00 406.00 C 239.34 405.01, 241.79 404.29, 244.00 403.00 C 246.94 401.00, 243.08 396.81, 240.00 398.00 Z" fill="rgb(38.84015984015984,41.36363636363637,56.23776223776224)" stroke="rgb(38.84015984015984,41.36363636363637,56.23776223776224)" stroke-width="1" />
<path d="M 164.00 173.00 C 159.39 175.28, 153.87 175.36, 149.00 177.00 C 143.03 179.20, 137.27 179.50, 132.00 181.00 C 125.75 182.73, 120.63 183.77, 116.00 186.00 C 109.47 186.86, 104.42 188.88, 99.00 190.00 C 93.38 192.59, 87.71 192.63, 83.00 195.00 C 76.63 196.57, 71.08 197.71, 66.00 200.00 C 60.15 202.02, 54.61 202.38, 50.00 205.00 C 47.08 205.50, 43.55 205.51, 43.00 207.00 C 41.73 211.08, 44.07 214.50, 47.00 212.00 C 52.82 209.90, 58.31 209.41, 63.00 207.00 C 69.26 205.15, 75.01 204.50, 80.00 202.00 C 86.18 201.09, 90.82 198.91, 96.00 198.00 C 101.99 195.50, 107.74 194.85, 113.00 193.00 C 119.00 191.66, 123.95 190.20, 129.00 189.00 C 135.09 187.09, 140.43 185.76, 146.00 185.00 C 152.04 182.76, 157.50 182.55, 162.00 180.00 C 165.67 180.14, 167.55 178.39, 170.00 178.00 C 170.46 173.59, 168.14 172.31, 165.00 173.00 Z" fill="rgb(40.61144578313253,42.34839357429719,57.09538152610442)" stroke="rgb(40.61144578313253,42.34839357429719,57.09538152610442)" stroke-width="1" />
<path d="M 181.00 273.00 C 176.62 275.03, 171.25 274.67, 167.00 277.00 C 161.09 277.41, 156.94 279.66, 152.00 280.00 C 146.53 281.81, 141.69 282.73, 137.00 284.00 C 131.27 286.00, 126.05 286.78, 121.00 288.00 C 115.65 290.10, 111.03 291.54, 106.00 292.00 C 99.80 293.85, 95.02 295.72, 90.00 297.00 C 84.71 299.58, 79.22 299.26, 75.00 302.00 C 71.60 302.50, 69.05 302.66, 67.00 304.00 C 65.93 307.30, 67.06 310.70, 70.00 310.00 C 75.59 308.14, 80.57 307.24, 85.00 305.00 C 90.85 304.10, 95.22 302.06, 100.00 301.00 C 105.47 299.20, 110.17 297.94, 115.00 297.00 C 120.62 294.41, 126.29 294.37, 131.00 292.00 C 136.85 291.43, 141.00 289.18, 146.00 289.00 C 152.15 287.37, 156.77 285.44, 162.00 285.00 C 168.00 283.82, 172.15 281.57, 177.00 281.00 C 180.05 279.66, 182.60 279.50, 185.00 279.00 C 185.20 275.75, 185.41 272.02, 182.00 273.00 Z" fill="rgb(41.00423728813559,42.46822033898305,57.119703389830505)" stroke="rgb(41.00423728813559,42.46822033898305,57.119703389830505)" stroke-width="1" />
<path d="M 357.00 283.00 C 359.89 285.42, 364.27 284.22, 367.00 287.00 C 372.06 288.38, 375.75 290.67, 379.00 294.00 C 386.57 301.33, 390.60 308.70, 390.00 318.00 C 390.70 322.76, 389.00 325.53, 389.00 329.00 C 387.53 334.02, 385.59 337.44, 384.00 341.00 C 382.10 345.57, 379.52 348.86, 379.00 353.00 C 376.54 360.52, 385.03 354.45, 384.00 351.00 C 383.76 345.60, 388.31 343.19, 391.00 340.00 C 394.12 335.24, 397.10 331.85, 399.00 328.00 C 401.40 323.91, 400.01 319.26, 402.00 316.00 C 402.78 310.87, 400.65 307.95, 401.00 304.00 C 398.56 299.44, 397.31 295.79, 394.00 293.00 C 389.37 289.91, 386.47 286.06, 382.00 286.00 C 374.04 282.62, 365.99 282.88, 358.00 283.00 Z" fill="rgb(7.316268486916951,6.7007963594994315,4.600682593856655)" stroke="rgb(7.316268486916951,6.7007963594994315,4.600682593856655)" stroke-width="1" />
<path d="M 218.00 93.00 C 216.31 94.42, 214.43 95.38, 212.00 95.00 C 207.34 94.91, 207.04 99.88, 210.00 101.00 C 215.67 106.72, 219.79 111.67, 223.00 117.00 C 227.41 122.83, 230.05 127.98, 233.00 133.00 C 236.04 138.18, 236.71 144.90, 240.00 148.00 C 243.24 147.91, 245.20 147.16, 247.00 146.00 C 251.45 145.96, 251.44 143.34, 250.00 141.00 C 247.92 134.90, 245.01 130.13, 243.00 125.00 C 239.83 118.66, 236.74 113.69, 233.00 109.00 C 228.86 102.50, 223.82 97.80, 219.00 93.00 Z" fill="rgb(220.82134292565948,132.90047961630697,127.79496402877697)" stroke="rgb(220.82134292565948,132.90047961630697,127.79496402877697)" stroke-width="1" />
<path d="M 108.00 113.00 C 104.73 114.61, 100.58 114.12, 97.00 115.00 C 92.24 116.58, 87.98 116.94, 84.00 118.00 C 79.48 119.36, 75.68 120.03, 72.00 121.00 C 67.16 122.71, 62.89 123.40, 59.00 125.00 C 54.42 126.55, 50.88 128.19, 47.00 129.00 C 41.59 130.34, 38.18 133.10, 34.00 134.00 C 28.70 135.93, 24.86 138.00, 21.00 140.00 C 15.93 143.70, 22.96 150.32, 26.00 145.00 C 30.33 142.51, 34.34 141.68, 38.00 140.00 C 43.41 138.66, 46.59 135.34, 51.00 135.00 C 56.21 133.17, 60.20 131.83, 64.00 130.00 C 68.81 128.20, 73.38 128.24, 77.00 126.00 C 81.72 125.12, 85.61 124.67, 89.00 123.00 C 94.51 123.57, 97.63 120.77, 102.00 121.00 C 106.67 119.52, 110.93 119.49, 115.00 119.00 C 120.18 113.64, 111.59 115.20, 109.00 113.00 Z" fill="rgb(21.411458333333332,31.55078125,47.70703125)" stroke="rgb(21.411458333333332,31.55078125,47.70703125)" stroke-width="1" />
<path d="M 479.00 319.00 C 475.89 320.87, 472.61 322.33, 469.00 323.00 C 464.39 324.67, 461.11 326.13, 458.00 328.00 C 453.59 329.15, 450.58 331.26, 447.00 332.00 C 442.67 334.48, 438.45 334.82, 435.00 337.00 C 430.85 338.77, 427.22 339.39, 424.00 341.00 C 418.98 342.47, 415.56 344.41, 412.00 346.00 C 407.81 347.67, 404.43 348.90, 401.00 350.00 C 393.99 349.23, 395.90 360.74, 400.00 357.00 C 404.43 355.90, 407.81 354.67, 411.00 353.00 C 415.45 350.82, 419.67 350.48, 423.00 348.00 C 427.43 346.90, 430.81 345.67, 434.00 344.00 C 438.45 341.82, 442.67 341.48, 446.00 339.00 C 450.22 337.39, 453.85 336.77, 457.00 335.00 C 461.19 332.19, 465.81 332.81, 469.00 330.00 C 473.37 328.76, 476.63 327.24, 480.00 326.00 C 485.50 325.38, 484.81 317.47, 480.00 319.00 Z" fill="rgb(39.43404255319149,41.771631205673756,56.61702127659574)" stroke="rgb(39.43404255319149,41.771631205673756,56.61702127659574)" stroke-width="1" />
<path d="M 251.00 153.00 C 248.59 155.44, 240.51 154.34, 243.00 159.00 C 245.20 163.64, 245.60 168.03, 247.00 172.00 C 248.30 176.54, 249.82 179.99, 250.00 184.00 C 252.67 188.43, 251.03 194.39, 256.00 196.00 C 260.52 195.50, 266.71 193.09, 263.00 189.00 C 263.00 183.73, 261.00 180.27, 261.00 176.00 C 260.29 170.94, 257.71 168.06, 258.00 164.00 C 256.28 159.47, 256.39 153.13, 252.00 153.00 Z" fill="rgb(216.69767441860466,130.81932021466906,126.15742397137745)" stroke="rgb(216.69767441860466,130.81932021466906,126.15742397137745)" stroke-width="1" />
<path d="M 373.00 119.00 C 369.40 120.13, 368.57 121.32, 370.00 125.00 C 371.06 128.84, 371.29 132.02, 372.00 135.00 C 373.63 138.60, 372.37 142.40, 374.00 145.00 C 373.75 149.24, 375.77 151.54, 375.00 155.00 C 377.14 158.05, 375.08 161.85, 377.00 164.00 C 376.31 168.43, 378.69 170.57, 378.00 174.00 C 380.28 177.33, 377.90 181.59, 380.00 184.00 C 379.23 188.46, 381.25 190.76, 381.00 194.00 C 382.70 189.57, 381.78 183.04, 382.00 177.00 C 382.76 169.21, 380.74 163.58, 381.00 157.00 C 380.93 152.89, 381.46 149.53, 380.00 147.00 C 380.47 142.67, 379.53 139.92, 379.00 137.00 C 379.69 132.57, 377.31 130.43, 378.00 127.00 C 375.78 124.14, 378.34 118.14, 374.00 119.00 Z" fill="rgb(13.048140043763675,8.330415754923413,8.466083150984682)" stroke="rgb(13.048140043763675,8.330415754923413,8.466083150984682)" stroke-width="1" />
<path d="M 369.00 112.00 C 364.73 114.30, 359.73 114.81, 355.00 116.00 C 349.17 117.75, 344.35 119.52, 339.00 120.00 C 332.66 121.51, 327.98 123.61, 323.00 125.00 C 319.55 125.39, 317.67 127.14, 315.00 127.00 C 311.01 128.01, 310.24 130.42, 312.00 133.00 C 314.73 134.84, 318.01 132.78, 320.00 132.00 C 323.67 132.14, 325.55 130.39, 328.00 130.00 C 334.02 128.72, 338.80 126.85, 344.00 126.00 C 350.35 124.52, 355.17 122.75, 360.00 121.00 C 363.67 121.14, 365.55 119.39, 368.00 119.00 C 371.14 118.24, 372.16 113.27, 370.00 113.00 Z" fill="rgb(39.380434782608695,41.78260869565217,56.60434782608696)" stroke="rgb(39.380434782608695,41.78260869565217,56.60434782608696)" stroke-width="1" />
<path d="M 207.00 226.00 C 206.49 231.16, 208.37 235.32, 209.00 240.00 C 209.91 245.70, 211.25 250.23, 212.00 255.00 C 213.06 260.64, 214.49 265.13, 215.00 270.00 C 215.27 273.77, 217.08 275.50, 217.00 278.00 C 220.93 278.78, 222.54 276.35, 225.00 276.00 C 226.40 273.57, 232.34 273.92, 228.00 274.00 C 224.79 272.37, 221.52 273.29, 220.00 270.00 C 219.09 264.30, 217.75 259.77, 217.00 255.00 C 215.45 249.56, 215.72 244.37, 214.00 240.00 C 212.32 237.08, 213.96 233.80, 212.00 232.00 C 212.07 228.70, 210.94 225.30, 208.00 226.00 Z" fill="rgb(193.61449275362318,196.01159420289855,198.2173913043478)" stroke="rgb(193.61449275362318,196.01159420289855,198.2173913043478)" stroke-width="1" />
<path d="M 376.00 227.00 C 373.44 228.72, 369.79 227.82, 367.00 229.00 C 363.02 229.71, 359.84 229.94, 357.00 231.00 C 353.02 231.71, 349.84 231.94, 347.00 233.00 C 343.66 235.73, 346.03 240.59, 350.00 239.00 C 353.70 237.61, 356.67 236.86, 360.00 237.00 C 364.46 236.77, 366.76 234.75, 370.00 235.00 C 373.56 233.28, 377.21 234.18, 380.00 233.00 C 384.00 231.76, 380.91 225.17, 377.00 227.00 Z" fill="rgb(35.03971119133574,39.54873646209386,54.898916967509024)" stroke="rgb(35.03971119133574,39.54873646209386,54.898916967509024)" stroke-width="1" />
<path d="M 380.00 398.00 C 375.96 402.28, 382.84 405.51, 384.00 409.00 C 387.90 413.29, 388.62 418.20, 393.00 420.00 C 396.82 417.03, 393.84 411.38, 392.00 409.00 C 388.78 404.75, 386.09 398.55, 381.00 398.00 Z" fill="rgb(197.0,176.0,110.5)" stroke="rgb(197.0,176.0,110.5)" stroke-width="1" />
<path d="M 347.00 410.00 C 342.11 413.41, 347.32 418.16, 350.00 421.00 C 352.77 425.19, 351.24 431.60, 356.00 433.00 C 361.41 431.07, 357.79 425.23, 357.00 422.00 C 354.50 417.11, 352.31 412.25, 348.00 410.00 Z" fill="rgb(114.16666666666667,108.58333333333333,81.66666666666667)" stroke="rgb(114.16666666666667,108.58333333333333,81.66666666666667)" stroke-width="1" />
<path d="M 380.00 398.00 C 375.96 402.28, 382.84 405.51, 384.00 409.00 C 388.48 413.04, 388.25 418.35, 393.00 420.00 C 396.82 417.03, 393.84 411.38, 392.00 409.00 C 388.78 404.75, 386.09 398.55, 381.00 398.00 Z" fill="rgb(32.578947368421055,42.1812865497076,53.36842105263158)" stroke="rgb(32.578947368421055,42.1812865497076,53.36842105263158)" stroke-width="1" />
<path d="M 347.00 410.00 C 341.82 413.53, 348.48 417.66, 350.00 421.00 C 352.95 425.30, 351.63 431.17, 356.00 433.00 C 361.29 430.12, 357.76 425.32, 357.00 422.00 C 354.74 417.36, 351.81 411.65, 348.00 411.00 Z" fill="rgb(33.52173913043478,42.93167701863354,53.683229813664596)" stroke="rgb(33.52173913043478,42.93167701863354,53.683229813664596)" stroke-width="1" />
<path d="M 279.00 131.00 C 279.95 133.02, 279.70 135.54, 282.00 137.00 C 283.13 134.53, 280.20 133.33, 280.00 131.00 Z" fill="rgb(111.4375,99.5625,57.1875)" stroke="rgb(111.4375,99.5625,57.1875)" stroke-width="1" />
<path d="M 372.00 392.00 C 375.20 392.00, 375.20 392.00, 372.00 392.00 Z" fill="rgb(101.6,88.8,52.0)" stroke="rgb(101.6,88.8,52.0)" stroke-width="1" />
</svg>