<svg xmlns="http://www.w3.org/2000/svg" width="100%" height="100%">
<path d="M 1785.00 710.00 C 1757.69 716.76, 1726.19 713.37, 1698.00 718.00 C 1671.25 723.37, 1646.98 722.75, 1627.00 724.00 C 1614.21 728.49, 1616.74 743.74, 1606.00 750.00 C 1600.23 764.09, 1587.66 773.43, 1575.00 773.00 C 1555.13 777.46, 1535.98 780.24, 1516.00 781.00 C 1500.46 780.61, 1486.16 783.04, 1472.00 779.00 C 1462.34 776.46, 1454.61 772.66, 1446.00 771.00 C 1430.52 762.08, 1420.10 748.17, 1411.00 736.00 C 1400.67 728.58, 1394.80 744.12, 1385.00 746.00 C 1375.17 758.28, 1360.54 757.10, 1348.00 760.00 C 1310.02 761.21, 1298.11 758.41, 1289.00 754.00 C 1279.10 750.70, 1270.86 743.17, 1262.00 748.00 C 1243.56 751.88, 1226.51 755.70, 1208.00 756.00 C 1179.67 758.54, 1154.18 764.52, 1126.00 764.00 C 1095.50 763.39, 1069.63 769.78, 1040.00 770.00 C 1008.89 769.39, 981.76 774.94, 954.00 779.00 C 912.31 779.77, 887.04 785.44, 861.00 785.00 C 833.24 788.02, 815.49 785.91, 797.00 791.00 C 751.52 795.73, 711.22 791.23, 676.00 799.00 C 660.50 805.75, 659.35 822.47, 646.00 831.00 C 637.18 837.30, 630.09 846.77, 620.00 849.00 C 603.00 854.08, 587.24 854.92, 572.00 857.00 C 517.97 854.41, 508.32 853.30, 500.00 849.00 C 481.27 840.24, 470.86 813.80, 449.00 815.00 C 433.82 814.71, 418.03 812.55, 406.00 818.00 C 375.22 823.62, 344.89 820.64, 318.00 826.00 C 270.12 828.59, 241.14 830.11, 212.00 832.00 C 174.97 834.45, 140.08 838.65, 104.00 840.00 C 80.37 841.80, 57.67 842.45, 37.00 848.00 C 26.06 850.14, 15.91 850.79, 6.00 852.00 C 2.50 851.31, 2.50 855.69, 0.00 854.00 C 13477.14 33110.10, 462.98 1069.56, 772.00 1194.00 C 829.84 1193.50, 888.36 1195.49, 945.00 1194.00 C 1056.02 1191.42, 1174.80 1204.07, 1284.00 1194.00 C 1351.24 1286.99, 1331.14 1170.53, 1369.00 1194.00 C 1565.13 1056.06, 2246.81 1498.07, 1799.00 710.00 Z" fill="rgb(179.69577649214207,175.76752497212962,180.7296671402081)" />
<path d="M 775.00 282.00 C 739.75 284.55, 705.27 284.31, 670.00 285.00 C 643.19 286.63, 613.76 289.12, 589.00 289.00 C 555.89 292.81, 524.48 293.50, 493.00 294.00 C 445.55 296.38, 398.59 296.53, 353.00 300.00 C 299.62 299.94, 265.26 304.78, 229.00 305.00 C 223.34 308.48, 217.84 308.95, 213.00 311.00 C 206.13 315.45, 199.51 319.96, 197.00 326.00 C 196.91 335.14, 188.78 337.75, 185.00 343.00 C 182.87 349.36, 182.03 354.84, 178.00 359.00 C 167.72 365.93, 172.26 377.99, 167.00 386.00 C 158.72 397.66, 157.34 407.95, 153.00 417.00 C 139.29 429.00, 145.44 447.23, 136.00 459.00 C 127.46 477.42, 124.48 493.16, 130.00 507.00 C 127.30 515.92, 138.38 522.08, 131.00 528.00 C 134.05 536.30, 134.05 539.70, 131.00 543.00 C 133.07 560.47, 132.88 573.80, 132.00 588.00 C 136.47 598.25, 131.55 610.98, 138.00 619.00 C 140.52 629.98, 139.87 639.27, 143.00 647.00 C 143.22 659.60, 156.46 663.94, 155.00 676.00 C 153.23 685.12, 146.35 680.13, 144.00 682.00 C 136.71 683.83, 140.53 689.44, 137.00 692.00 C 130.42 698.27, 125.61 687.23, 120.00 691.00 C 117.05 703.73, 98.90 699.94, 89.00 702.00 C 86.57 711.88, 83.74 725.26, 94.00 727.00 C 107.35 732.58, 120.98 727.38, 133.00 730.00 C 141.47 731.45, 148.71 738.36, 156.00 733.00 C 163.78 721.04, 157.84 732.90, 162.00 734.00 C 174.89 729.77, 183.13 726.92, 192.00 732.00 C 204.65 727.08, 218.47 729.79, 230.00 727.00 C 237.62 719.04, 255.46 719.47, 264.00 726.00 C 281.64 730.14, 302.96 728.89, 319.00 729.00 C 329.56 730.64, 339.13 731.27, 347.00 736.00 C 357.32 730.26, 359.04 740.03, 363.00 743.00 C 377.17 741.18, 383.63 746.51, 386.00 750.00 C 394.97 757.63, 393.17 766.90, 399.00 773.00 C 405.45 775.83, 404.50 782.64, 409.00 785.00 C 414.51 788.53, 420.88 790.35, 424.00 795.00 C 439.02 793.53, 449.03 810.58, 460.00 800.00 C 463.49 805.77, 464.95 810.12, 469.00 812.00 C 477.97 814.06, 481.29 823.64, 489.00 827.00 C 494.46 829.42, 496.52 833.93, 502.00 834.00 C 515.41 838.87, 521.56 844.21, 530.00 844.00 C 536.97 848.48, 544.22 844.11, 550.00 848.00 C 568.23 846.85, 583.64 848.39, 595.00 844.00 C 601.39 840.87, 607.99 840.64, 614.00 839.00 C 628.25 828.74, 632.16 824.24, 637.00 822.00 C 644.14 819.94, 644.88 812.68, 649.00 809.00 C 655.27 800.59, 661.83 794.15, 668.00 786.00 C 671.12 777.60, 672.74 770.58, 673.00 763.00 C 679.02 752.62, 667.60 731.24, 681.00 727.00 C 686.97 724.86, 697.41 721.38, 701.00 725.00 C 706.57 731.77, 708.82 738.49, 714.00 744.00 C 725.62 752.75, 741.41 750.14, 753.00 745.00 C 759.48 741.60, 757.83 732.72, 765.00 731.00 C 772.14 729.82, 775.49 724.30, 781.00 724.00 C 788.70 717.03, 800.51 713.09, 809.00 719.00 C 828.11 711.27, 847.51 717.94, 864.00 716.00 C 892.30 715.08, 914.95 714.92, 936.00 713.00 C 944.08 713.38, 952.04 713.03, 958.00 709.00 C 974.47 707.61, 979.21 703.59, 984.00 706.00 C 990.45 709.38, 994.09 712.73, 999.00 713.00 C 1015.99 710.87, 1031.56 715.78, 1046.00 715.00 C 1054.02 705.79, 1064.39 708.97, 1070.00 705.00 C 1096.33 703.73, 1114.77 703.59, 1135.00 706.00 C 1147.34 708.64, 1160.88 704.99, 1170.00 712.00 C 1188.79 715.50, 1204.83 714.97, 1220.00 713.00 C 1230.00 713.23, 1234.55 698.23, 1243.00 707.00 C 1243.77 712.56, 1246.17 716.23, 1251.00 717.00 C 1257.00 726.09, 1263.57 728.38, 1269.00 732.00 C 1286.03 747.92, 1311.92 745.74, 1333.00 743.00 C 1349.19 743.85, 1357.74 742.44, 1364.00 740.00 C 1372.74 739.74, 1379.95 737.16, 1384.00 732.00 C 1396.18 725.81, 1387.03 722.10, 1379.00 723.00 C 1374.49 716.64, 1391.05 716.72, 1396.00 718.00 C 1411.76 705.94, 1412.24 725.13, 1421.00 730.00 C 1426.04 737.32, 1433.73 742.59, 1441.00 746.00 C 1449.32 749.55, 1453.94 757.22, 1461.00 759.00 C 1466.47 762.14, 1472.08 761.53, 1476.00 765.00 C 1486.39 770.55, 1498.37 769.85, 1510.00 770.00 C 1525.78 769.60, 1542.16 772.07, 1555.00 766.00 C 1565.62 764.36, 1573.33 760.53, 1582.00 759.00 C 1590.54 754.30, 1597.52 747.62, 1603.00 741.00 C 1610.36 735.06, 1609.19 726.58, 1615.00 721.00 C 1617.83 713.73, 1618.66 707.05, 1621.00 701.00 C 1624.46 687.33, 1624.15 673.51, 1627.00 661.00 C 1645.13 663.04, 1653.55 660.97, 1660.00 658.00 C 1672.15 656.10, 1679.47 649.39, 1689.00 648.00 C 1696.35 644.72, 1698.29 638.56, 1701.00 633.00 C 1702.98 627.46, 1704.67 622.81, 1706.00 618.00 C 1707.93 602.22, 1703.50 589.39, 1706.00 576.00 C 1705.53 562.58, 1707.08 554.17, 1706.00 549.00 C 1703.07 540.39, 1702.62 535.74, 1700.00 532.00 C 1698.17 526.24, 1698.09 520.72, 1692.00 520.00 C 1686.35 513.25, 1680.41 516.08, 1674.00 517.00 C 1665.22 516.80, 1660.95 512.67, 1659.00 506.00 C 1655.66 499.95, 1656.51 493.15, 1651.00 489.00 C 1646.70 483.12, 1644.76 479.10, 1643.00 475.00 C 1640.37 465.68, 1629.70 460.70, 1628.00 452.00 C 1619.99 452.25, 1616.34 444.37, 1610.00 443.00 C 1596.40 442.58, 1586.01 437.83, 1574.00 437.00 C 1558.67 434.33, 1543.52 434.62, 1530.00 431.00 C 1495.97 427.81, 1474.95 426.99, 1454.00 426.00 C 1425.69 423.27, 1398.15 422.12, 1371.00 420.00 C 1346.00 419.61, 1336.64 417.67, 1328.00 414.00 C 1321.05 412.22, 1316.92 410.85, 1313.00 409.00 C 1306.12 406.90, 1304.49 398.79, 1298.00 399.00 C 1291.14 393.67, 1283.50 393.63, 1279.00 386.00 C 1272.07 380.68, 1263.47 381.82, 1259.00 373.00 C 1248.85 366.09, 1238.58 361.86, 1229.00 356.00 C 1218.07 349.04, 1207.75 342.99, 1197.00 338.00 C 1188.28 329.92, 1177.33 329.61, 1169.00 323.00 C 1159.26 318.05, 1150.68 312.70, 1141.00 310.00 C 1131.62 304.97, 1123.10 301.28, 1114.00 299.00 C 1107.21 295.02, 1099.66 296.29, 1094.00 293.00 C 1056.32 288.62, 1028.77 288.75, 1002.00 287.00 C 979.33 288.49, 956.72 286.47, 935.00 288.00 C 917.46 286.85, 903.43 291.59, 887.00 292.00 C 881.53 288.86, 876.61 287.81, 872.00 286.00 C 851.73 282.53, 832.96 282.10, 814.00 282.00 Z" fill="rgb(140.82801306820647,144.82973885295013,155.41880128511266)" />
<path d="M 215.00 0.00 C 216.43 13.44, 216.48 22.35, 213.00 33.00 C 219.51 40.85, 210.71 50.55, 217.00 57.00 C 218.18 69.41, 220.40 79.07, 217.00 85.00 C 220.12 104.71, 217.35 117.62, 219.00 132.00 C 216.94 145.31, 224.20 153.25, 221.00 167.00 C 224.01 209.56, 218.54 255.04, 224.00 296.00 C 237.00 301.67, 252.87 297.03, 267.00 298.00 C 291.23 294.89, 310.03 299.44, 335.00 295.00 C 377.90 291.80, 387.59 295.37, 394.00 291.00 C 415.46 292.64, 430.56 290.32, 448.00 291.00 C 478.38 290.72, 506.15 287.56, 535.00 287.00 C 550.02 284.28, 561.41 287.21, 575.00 284.00 C 620.01 281.07, 642.25 283.55, 662.00 280.00 C 671.41 278.26, 676.46 276.46, 681.00 278.00 C 697.89 281.88, 713.57 277.24, 730.00 280.00 C 744.85 278.38, 759.51 277.91, 772.00 277.00 C 841.70 275.25, 865.46 278.62, 887.00 283.00 C 904.54 285.39, 919.33 280.87, 935.00 283.00 C 975.54 281.72, 1016.27 280.04, 1055.00 284.00 C 1081.55 284.52, 1096.35 289.29, 1112.00 292.00 C 1121.61 293.39, 1128.69 297.48, 1136.00 301.00 C 1144.49 307.17, 1154.07 308.30, 1163.00 311.00 C 1172.14 319.75, 1181.32 321.56, 1189.00 327.00 C 1196.51 334.59, 1205.66 335.82, 1214.00 339.00 C 1222.08 342.67, 1227.79 348.64, 1235.00 351.00 C 1243.36 356.74, 1250.72 362.48, 1259.00 366.00 C 1267.60 372.44, 1275.82 374.97, 1283.00 380.00 C 1298.33 392.47, 1311.03 394.23, 1320.00 405.00 C 1333.01 410.07, 1346.53 411.46, 1360.00 413.00 C 1403.21 418.57, 1447.80 417.39, 1490.00 422.00 C 1521.58 425.67, 1545.47 426.19, 1568.00 430.00 C 1578.06 430.24, 1585.57 433.22, 1594.00 434.00 C 1602.65 436.71, 1611.94 434.45, 1618.00 440.00 C 1629.69 449.39, 1645.77 456.97, 1649.00 472.00 C 1660.18 481.47, 1657.07 495.43, 1667.00 504.00 C 1683.13 505.44, 1702.30 507.23, 1708.00 525.00 C 1708.14 529.77, 1711.57 531.76, 1712.00 535.00 C 1715.01 545.39, 1710.49 558.72, 1720.00 564.00 C 1742.99 549.76, 1771.00 569.39, 1787.00 560.00 C 1815.66 561.91, 1800.41 519.40, 1796.00 502.00 C 1795.15 488.19, 1792.96 476.35, 1792.00 464.00 C 1796.58 446.17, 1788.10 429.52, 1771.00 431.00 C 1762.11 432.15, 1755.46 429.87, 1748.00 426.00 C 1743.14 418.96, 1740.23 413.95, 1742.00 407.00 C 1741.76 395.63, 1736.57 385.55, 1741.00 376.00 C 1745.70 366.86, 1754.01 372.86, 1761.00 370.00 C 1889.43 378.62, 2091.05 336.96, 1799.00 0.00 Z" fill="rgb(166.86615186615185,116.70570570570571,124.11111111111111)" />
<path d="M 1162.00 0.00 C 1160.41 8.31, 1147.92 3.41, 1143.00 9.00 C 1136.69 13.52, 1130.53 16.00, 1125.00 20.00 C 1108.81 28.75, 1098.29 34.09, 1088.00 40.00 C 1080.54 44.84, 1074.13 49.80, 1067.00 53.00 C 1059.40 55.56, 1053.00 57.59, 1048.00 63.00 C 1041.07 65.38, 1035.71 69.10, 1030.00 72.00 C 1017.67 81.00, 1012.77 84.06, 1007.00 85.00 C 1000.36 87.32, 997.79 93.13, 992.00 95.00 C 982.82 99.43, 977.26 102.34, 972.00 106.00 C 966.54 109.96, 961.44 112.39, 956.00 114.00 C 948.58 117.65, 943.90 124.50, 937.00 126.00 C 925.06 132.34, 914.80 139.32, 904.00 145.00 C 895.92 149.00, 891.31 154.57, 885.00 156.00 C 878.75 160.68, 872.70 163.40, 867.00 167.00 C 859.44 169.32, 854.12 174.63, 848.00 178.00 C 841.83 181.24, 836.80 183.85, 832.00 187.00 C 824.67 192.27, 818.20 197.24, 810.00 198.00 C 798.61 204.25, 794.46 210.91, 788.00 212.00 C 780.25 214.85, 775.20 220.82, 769.00 224.00 C 762.81 226.54, 758.23 230.54, 753.00 233.00 C 740.09 238.14, 730.27 247.33, 719.00 253.00 C 706.47 261.81, 692.67 265.13, 682.00 276.00 C 711.11 279.91, 740.99 277.00, 768.00 278.00 C 806.32 275.20, 847.47 274.20, 882.00 283.00 C 889.93 284.81, 899.41 288.99, 904.00 284.00 C 960.61 281.06, 999.70 282.34, 1038.00 283.00 C 1059.18 284.76, 1080.01 283.96, 1098.00 290.00 C 1113.69 293.47, 1126.14 297.52, 1138.00 303.00 C 1149.88 307.67, 1160.50 311.98, 1170.00 319.00 C 1177.65 320.30, 1181.96 326.23, 1188.00 328.00 C 1194.23 331.25, 1199.25 335.02, 1205.00 337.00 C 1216.80 343.01, 1227.37 349.58, 1238.00 356.00 C 1244.20 358.18, 1248.56 362.40, 1254.00 364.00 C 1264.79 365.34, 1269.62 377.67, 1279.00 379.00 C 1293.28 389.13, 1306.15 395.84, 1318.00 405.00 C 1325.73 408.65, 1333.49 408.82, 1340.00 412.00 C 1371.54 417.06, 1402.41 416.47, 1432.00 419.00 C 1472.71 420.89, 1493.98 423.86, 1516.00 425.00 C 1535.00 427.18, 1553.37 427.50, 1570.00 432.00 C 1589.41 434.63, 1600.47 438.10, 1613.00 438.00 C 1620.45 442.71, 1625.60 446.17, 1631.00 449.00 C 1639.97 456.71, 1642.08 464.44, 1647.00 471.00 C 1651.64 477.65, 1657.69 481.31, 1658.00 489.00 C 1660.28 497.18, 1665.47 504.86, 1673.00 506.00 C 1685.38 508.93, 1696.99 508.91, 1704.00 520.00 C 1706.86 525.59, 1709.49 530.27, 1712.00 535.00 C 1713.10 543.90, 1714.26 551.36, 1715.00 559.00 C 1733.94 563.08, 1754.70 562.97, 1770.00 561.00 C 1779.31 558.94, 1784.76 557.22, 1790.00 555.00 C 1795.12 554.03, 1794.84 548.95, 1797.00 547.00 C 1809.91 531.12, 1789.94 537.35, 1795.00 525.00 C 1791.31 509.38, 1798.87 489.94, 1792.00 475.00 C 1786.12 455.41, 1796.57 441.06, 1787.00 435.00 C 1778.18 428.75, 1764.62 436.34, 1756.00 432.00 C 1740.09 429.97, 1744.50 412.31, 1741.00 403.00 C 1735.12 385.12, 1741.81 372.21, 1738.00 362.00 C 1736.10 298.30, 1736.06 263.19, 1734.00 227.00 C 1731.46 193.38, 1730.54 158.08, 1729.00 127.00 C 1729.62 90.79, 1725.51 69.87, 1725.00 48.00 C 1724.71 31.83, 1724.42 14.44, 1720.00 0.00 Z" fill="rgb(127.32041308132538,59.43565764509888,72.20562173177845)" />
<path d="M 215.00 0.00 C 216.95 7.39, 213.90 14.12, 216.00 21.00 C 212.18 28.99, 211.85 36.38, 220.00 33.00 C 223.61 86.69, 219.76 144.05, 222.00 198.00 C 249.36 214.26, 206.30 278.20, 227.00 298.00 C 282.23 297.23, 337.27 297.39, 390.00 292.00 C 457.19 289.79, 519.82 288.63, 581.00 284.00 C 626.44 279.51, 653.78 286.85, 674.00 277.00 C 682.50 274.34, 688.03 267.93, 695.00 265.00 C 703.39 259.00, 711.09 254.74, 719.00 251.00 C 727.20 245.34, 733.08 240.92, 740.00 239.00 C 754.97 230.06, 767.84 222.89, 780.00 214.00 C 793.11 208.73, 803.72 199.85, 816.00 195.00 C 826.32 186.17, 832.80 185.13, 838.00 181.00 C 845.52 176.64, 851.78 171.66, 859.00 169.00 C 867.00 164.66, 873.35 158.76, 881.00 156.00 C 888.55 151.38, 895.71 148.24, 902.00 143.00 C 910.13 141.25, 915.07 134.22, 922.00 132.00 C 929.64 128.06, 934.27 123.71, 940.00 122.00 C 947.14 114.58, 956.04 114.84, 962.00 108.00 C 968.81 103.06, 975.71 100.77, 982.00 97.00 C 989.60 92.03, 995.92 86.39, 1004.00 85.00 C 1012.66 80.13, 1018.12 74.35, 1025.00 72.00 C 1029.79 69.32, 1033.93 67.63, 1035.00 65.00 C 1045.09 43.95, 1029.74 54.81, 1024.00 51.00 C 1016.54 55.67, 1006.53 55.43, 1000.00 54.00 C 995.07 53.53, 995.16 44.51, 993.00 48.00 C 990.70 61.31, 981.52 47.05, 977.00 51.00 C 972.11 54.95, 970.96 48.85, 968.00 48.00 C 952.97 61.29, 928.69 51.22, 913.00 58.00 C 901.56 58.75, 891.13 53.51, 883.00 60.00 C 864.90 54.31, 847.95 64.92, 838.00 56.00 C 826.88 59.88, 810.90 63.49, 806.00 51.00 C 802.49 34.76, 805.89 19.08, 804.00 6.00 C 1345.47 -544.02, 451.84 -66.94, 514.00 8.00 C 510.96 14.92, 509.83 19.20, 514.00 22.00 C 511.72 27.41, 507.61 26.38, 505.00 29.00 C 497.21 31.09, 499.20 15.41, 505.00 15.00 C 506.17 8.99, 509.06 5.10, 509.00 0.00 Z" fill="rgb(162.67091870707532,65.95254266309,77.91982002549322)" />
<path d="M 0.00 0.00 C -1497.50 -3657.53, -174.91 833.23, 16.00 697.00 C 23.35 688.27, 29.41 698.90, 36.00 695.00 C 43.21 697.57, 52.15 689.93, 56.00 695.00 C 58.73 701.18, 58.02 711.30, 60.00 711.00 C 59.80 700.77, 74.16 699.23, 70.00 711.00 C 65.45 720.84, 77.52 738.30, 75.00 716.00 C 73.57 706.52, 69.98 695.51, 80.00 694.00 C 86.92 693.55, 91.43 690.71, 96.00 688.00 C 109.32 672.99, 131.05 680.68, 146.00 672.00 C 148.38 666.21, 142.58 661.02, 142.00 656.00 C 141.79 648.12, 135.73 644.08, 137.00 637.00 C 131.36 621.01, 131.15 604.19, 127.00 589.00 C 125.33 576.00, 124.86 564.07, 126.00 552.00 C 123.39 535.81, 131.00 515.96, 122.00 503.00 C 124.66 481.72, 125.97 465.88, 132.00 452.00 C 136.34 442.08, 138.56 432.29, 142.00 423.00 C 147.26 414.66, 148.29 406.57, 153.00 400.00 C 155.67 395.08, 155.52 390.99, 158.00 388.00 C 164.13 379.63, 167.63 372.17, 167.00 363.00 C 169.65 356.30, 175.04 352.16, 178.00 347.00 C 178.84 340.91, 181.92 337.16, 184.00 333.00 C 192.79 324.19, 198.87 313.69, 208.00 310.00 C 234.10 300.27, 213.75 267.14, 220.00 252.00 C 218.12 197.42, 218.06 175.07, 219.00 153.00 C 217.09 119.06, 217.18 93.94, 218.00 67.00 C 221.67 52.38, 215.50 44.08, 208.00 37.00 C 214.54 22.19, 209.91 10.97, 206.00 0.00 Z" fill="rgb(149.4691754369026,149.01223809983586,153.93683016317468)" />
<path d="M 930.00 295.00 C 923.31 296.93, 928.67 301.74, 927.00 305.00 C 930.01 310.42, 928.44 320.45, 936.00 320.00 C 928.86 323.18, 935.98 328.52, 934.00 334.00 C 936.63 340.88, 936.86 347.33, 939.00 353.00 C 941.77 366.96, 946.07 379.28, 947.00 393.00 C 951.96 405.80, 952.45 419.03, 956.00 431.00 C 959.79 447.20, 961.92 459.09, 964.00 471.00 C 970.10 487.66, 969.87 505.53, 973.00 522.00 C 979.00 569.69, 977.98 614.27, 979.00 657.00 C 979.71 661.82, 983.14 664.70, 987.00 664.00 C 1001.92 667.25, 1019.33 662.24, 1032.00 665.00 C 1061.42 663.89, 1085.50 665.44, 1108.00 663.00 C 1113.68 660.97, 1117.49 660.25, 1120.00 663.00 C 1126.98 658.34, 1137.07 661.13, 1143.00 661.00 C 1151.82 659.59, 1157.37 660.71, 1161.00 661.00 C 1174.15 662.17, 1186.69 663.51, 1198.00 662.00 C 1207.99 659.36, 1215.87 664.11, 1220.00 660.00 C 1220.81 654.92, 1234.09 654.83, 1229.00 660.00 C 1238.95 666.95, 1238.44 650.29, 1246.00 658.00 C 1257.47 666.98, 1253.09 652.58, 1264.00 656.00 C 1259.37 663.52, 1277.70 661.91, 1270.00 657.00 C 1276.92 652.77, 1283.80 656.05, 1290.00 654.00 C 1303.51 651.16, 1324.88 659.08, 1331.00 650.00 C 1336.84 641.20, 1335.63 630.07, 1337.00 620.00 C 1341.48 576.72, 1344.67 529.68, 1336.00 489.00 C 1332.89 477.71, 1333.36 467.94, 1327.00 461.00 C 1324.03 452.79, 1322.11 445.15, 1319.00 438.00 C 1315.19 430.31, 1312.08 423.75, 1307.00 418.00 C 1304.85 414.20, 1304.57 410.63, 1302.00 408.00 C 1298.49 408.84, 1294.38 408.10, 1292.00 409.00 C 1291.08 420.29, 1292.73 428.94, 1290.00 438.00 C 1287.71 444.56, 1277.10 447.54, 1272.00 445.00 C 1261.94 447.22, 1248.01 440.79, 1247.00 432.00 C 1241.66 411.30, 1244.20 396.34, 1238.00 385.00 C 1229.96 377.33, 1220.91 372.71, 1213.00 369.00 C 1203.16 361.67, 1193.88 357.81, 1185.00 353.00 C 1176.87 348.32, 1169.81 344.47, 1163.00 340.00 C 1154.95 336.33, 1148.41 333.81, 1142.00 331.00 C 1134.25 326.38, 1126.51 325.18, 1120.00 321.00 C 1106.47 317.19, 1094.86 313.60, 1082.00 313.00 C 1072.89 312.08, 1065.91 309.41, 1058.00 309.00 C 1041.87 306.92, 1025.62 309.63, 1011.00 308.00 C 997.28 308.79, 986.72 308.79, 977.00 308.00 C 963.54 311.31, 955.71 304.83, 946.00 308.00 C 942.04 305.87, 936.96 303.13, 941.00 300.00 C 948.76 296.89, 933.18 300.42, 931.00 295.00 Z" fill="rgb(162.97217136580008,163.8127059685097,177.758330281948)" />
<path d="M 818.00 287.00 C 808.84 291.64, 796.25 288.00, 786.00 290.00 C 778.56 290.34, 780.54 293.25, 782.00 297.00 C 770.10 301.15, 759.58 298.68, 750.00 302.00 C 735.29 302.44, 724.02 301.43, 715.00 305.00 C 689.25 307.94, 670.28 305.51, 655.00 312.00 C 649.44 334.00, 651.74 358.04, 655.00 380.00 C 658.47 397.32, 654.22 412.22, 660.00 425.00 C 656.72 436.61, 660.06 446.42, 665.00 454.00 C 670.39 458.33, 676.18 460.71, 682.00 463.00 C 705.39 462.45, 708.33 477.46, 721.00 469.00 C 725.20 473.77, 720.97 475.07, 721.00 478.00 C 715.99 476.92, 711.35 475.64, 708.00 479.00 C 698.68 485.36, 686.46 477.56, 678.00 481.00 C 669.27 486.60, 659.34 484.47, 653.00 491.00 C 646.74 494.40, 639.60 497.08, 636.00 502.00 C 646.86 505.67, 639.81 516.80, 648.00 519.00 C 653.59 522.84, 658.35 526.29, 663.00 530.00 C 674.15 541.50, 681.04 546.83, 684.00 554.00 C 688.04 562.74, 691.32 571.25, 689.00 580.00 C 684.01 594.96, 686.51 603.89, 691.00 612.00 C 694.21 618.30, 694.61 624.77, 698.00 630.00 C 703.84 636.69, 702.16 645.49, 706.00 652.00 C 710.66 662.70, 709.86 673.67, 713.00 683.00 C 712.24 703.53, 718.65 710.45, 729.00 706.00 C 743.66 702.38, 759.52 705.05, 773.00 702.00 C 815.20 700.89, 857.04 696.53, 898.00 696.00 C 911.84 697.43, 920.34 689.40, 932.00 689.00 C 937.38 688.87, 939.83 685.30, 941.00 682.00 C 939.40 661.58, 937.49 654.29, 938.00 646.00 C 934.77 625.96, 933.78 606.40, 930.00 588.00 C 925.41 563.27, 927.17 544.91, 923.00 529.00 C 919.55 512.46, 920.65 499.04, 916.00 488.00 C 910.48 477.90, 907.73 466.91, 910.00 457.00 C 906.99 440.95, 904.60 431.64, 903.00 422.00 C 897.94 403.19, 896.88 384.13, 896.00 365.00 C 893.05 349.64, 891.00 335.33, 889.00 321.00 C 889.06 309.55, 888.18 295.91, 877.00 291.00 C 858.11 287.45, 839.77 288.49, 822.00 287.00 Z" fill="rgb(169.12653139356814,172.90290007656967,184.60805895865238)" />
<path d="M 953.00 390.00 C 954.02 414.15, 958.87 436.72, 962.00 460.00 C 964.64 476.76, 970.28 490.86, 971.00 507.00 C 975.67 557.25, 981.32 605.68, 980.00 657.00 C 981.63 666.47, 991.56 664.90, 998.00 666.00 C 1028.06 664.61, 1056.78 663.41, 1085.00 661.00 C 1126.31 658.80, 1147.05 657.66, 1168.00 657.00 C 1195.67 655.48, 1221.76 653.56, 1248.00 652.00 C 1283.00 649.54, 1306.75 648.69, 1329.00 650.00 C 1336.66 646.91, 1333.22 637.45, 1336.00 633.00 C 1342.63 588.53, 1345.71 543.40, 1339.00 504.00 C 1335.84 489.07, 1334.21 477.50, 1330.00 467.00 C 1326.52 458.26, 1323.83 450.60, 1321.00 443.00 C 1317.36 433.58, 1312.59 427.45, 1311.00 420.00 C 1306.46 416.31, 1304.90 405.42, 1298.00 411.00 C 1293.85 414.91, 1293.37 419.94, 1293.00 425.00 C 1296.48 434.03, 1293.38 444.75, 1285.00 446.00 C 1271.01 450.72, 1258.13 448.08, 1251.00 442.00 C 1245.98 438.39, 1241.40 434.50, 1236.00 437.00 C 1178.84 438.95, 1122.69 439.93, 1067.00 442.00 C 1032.29 442.23, 1007.01 449.02, 988.00 441.00 C 976.50 437.53, 979.31 424.97, 973.00 418.00 C 969.78 411.03, 968.95 403.49, 968.00 396.00 C 967.33 385.27, 956.56 398.97, 953.00 391.00 Z" fill="rgb(165.45499547084114,172.67776629540322,188.40056901545017)" />
<path d="M 562.00 562.00 C 545.54 562.09, 529.90 564.16, 515.00 568.00 C 504.99 569.37, 497.59 573.62, 489.00 575.00 C 482.15 578.09, 477.16 582.24, 472.00 586.00 C 460.87 594.47, 449.57 601.88, 441.00 612.00 C 434.13 617.56, 430.38 623.99, 428.00 631.00 C 423.50 638.77, 419.60 644.24, 423.00 648.00 C 428.20 649.51, 424.51 654.79, 422.00 655.00 C 417.55 663.00, 417.55 669.00, 419.00 674.00 C 422.97 675.16, 428.17 677.92, 423.00 681.00 C 418.81 688.59, 416.80 694.66, 421.00 701.00 C 429.39 710.55, 416.03 731.29, 429.00 734.00 C 434.18 733.29, 436.79 729.33, 438.00 726.00 C 442.53 732.56, 441.21 741.66, 440.00 749.00 C 444.37 757.18, 439.00 761.15, 433.00 763.00 C 425.34 764.98, 432.86 776.84, 435.00 770.00 C 438.52 759.08, 443.76 773.54, 439.00 777.00 C 442.60 778.51, 447.90 778.77, 447.00 783.00 C 445.57 789.34, 440.68 785.50, 437.00 785.00 C 433.78 778.04, 429.63 785.14, 427.00 788.00 C 424.12 792.39, 418.28 784.94, 418.00 790.00 C 424.57 790.68, 427.60 796.50, 432.00 799.00 C 438.57 796.35, 444.93 796.63, 450.00 798.00 C 466.71 803.10, 468.18 825.65, 486.00 831.00 C 492.45 835.66, 498.03 840.02, 505.00 841.00 C 515.71 843.42, 522.71 851.40, 534.00 849.00 C 557.31 851.57, 581.90 852.94, 602.00 846.00 C 609.41 843.04, 615.40 841.49, 621.00 839.00 C 629.90 831.61, 639.05 827.26, 647.00 820.00 C 658.72 804.14, 663.31 799.46, 666.00 794.00 C 669.47 787.86, 670.45 782.11, 673.00 777.00 C 681.57 756.01, 667.01 732.21, 682.00 721.00 C 689.58 719.42, 692.83 714.48, 700.00 714.00 C 716.39 701.57, 710.01 677.21, 705.00 662.00 C 702.06 652.92, 701.28 645.94, 698.00 640.00 C 695.53 628.87, 689.70 620.55, 682.00 613.00 C 675.48 603.63, 667.83 597.03, 662.00 591.00 C 654.15 587.44, 646.85 584.96, 641.00 579.00 C 634.85 572.81, 626.32 574.79, 621.00 569.00 C 602.80 561.51, 584.68 563.49, 568.00 562.00 Z" fill="rgb(10.105976586568083,9.211953173136168,13.680221811460259)" />
<path d="M 883.00 469.00 C 878.30 468.47, 872.90 478.92, 872.00 471.00 C 861.37 467.66, 870.69 480.03, 862.00 480.00 C 853.88 477.11, 851.78 467.31, 842.00 470.00 C 816.18 472.77, 791.62 475.17, 766.00 475.00 C 757.03 479.95, 744.73 473.47, 737.00 478.00 C 723.74 481.97, 724.31 491.34, 716.00 488.00 C 706.59 492.14, 701.24 490.46, 692.00 493.00 C 686.25 481.91, 685.69 497.01, 680.00 494.00 C 673.07 495.22, 668.40 498.49, 663.00 500.00 C 657.26 503.15, 653.99 505.44, 650.00 506.00 C 660.35 509.69, 653.61 520.09, 660.00 523.00 C 669.45 532.26, 678.33 540.68, 684.00 552.00 C 693.31 564.87, 693.55 578.20, 694.00 591.00 C 690.40 594.65, 681.25 594.60, 686.00 602.00 C 689.56 609.79, 693.88 613.03, 694.00 618.00 C 697.62 626.96, 702.97 633.79, 705.00 642.00 C 710.44 661.40, 713.95 680.19, 715.00 700.00 C 727.06 706.28, 736.72 700.34, 748.00 702.00 C 773.48 701.62, 795.37 696.01, 820.00 697.00 C 842.33 696.27, 862.19 692.99, 883.00 692.00 C 894.95 692.71, 906.81 689.82, 917.00 691.00 C 926.98 689.19, 943.29 691.06, 940.00 677.00 C 939.11 667.23, 938.18 658.06, 937.00 649.00 C 935.66 638.91, 934.38 629.83, 933.00 620.00 C 930.70 598.60, 931.01 586.11, 928.00 575.00 C 922.96 549.70, 923.93 526.92, 918.00 507.00 C 915.75 493.77, 917.07 486.06, 912.00 481.00 C 907.77 479.59, 909.49 476.13, 908.00 474.00 C 896.80 475.90, 894.98 462.66, 884.00 470.00 Z" fill="rgb(160.24336843697415,170.86738764629143,185.570550755327)" />
<path d="M 219.00 0.00 C 220.01 73.55, 220.17 154.30, 223.00 229.00 C 219.95 256.50, 222.27 279.11, 224.00 297.00 C 227.12 301.82, 238.80 303.10, 242.00 300.00 C 285.98 287.69, 313.64 308.40, 328.00 297.00 C 355.45 282.43, 389.06 307.01, 393.00 290.00 C 389.09 193.67, 394.02 95.82, 390.00 0.00 Z" fill="rgb(181.09581712062257,105.78105058365759,112.8256420233463)" />
<path d="M 581.00 318.00 C 549.52 321.26, 516.00 319.58, 485.00 324.00 C 445.81 327.16, 416.12 326.69, 388.00 330.00 C 344.55 331.65, 317.18 335.13, 292.00 334.00 C 279.86 336.06, 266.18 336.32, 263.00 349.00 C 261.21 354.02, 257.06 358.63, 258.00 362.00 C 248.37 370.20, 251.13 381.53, 247.00 390.00 C 241.73 394.59, 246.31 396.81, 246.00 401.00 C 245.33 407.83, 235.34 409.38, 240.00 417.00 C 233.02 426.94, 231.46 439.41, 235.00 448.00 C 247.73 462.12, 266.55 456.30, 284.00 457.00 C 322.40 455.29, 358.54 451.57, 396.00 451.00 C 417.57 451.33, 434.77 444.50, 455.00 445.00 C 480.63 444.75, 509.98 443.27, 536.00 441.00 C 578.77 435.15, 597.18 443.76, 614.00 437.00 C 627.47 432.19, 624.38 416.90, 625.00 406.00 C 622.66 382.20, 620.44 359.76, 619.00 337.00 C 617.58 327.12, 611.08 318.52, 602.00 318.00 Z" fill="rgb(60.690153989734014,62.968735417638825,78.15912272515166)" />
<path d="M 559.00 626.00 C 543.40 626.74, 528.72 629.72, 515.00 635.00 C 504.52 641.77, 493.30 644.37, 485.00 654.00 C 473.25 666.69, 462.23 677.89, 457.00 690.00 C 451.68 700.45, 450.68 711.28, 447.00 721.00 C 444.55 751.50, 447.49 769.00, 454.00 784.00 C 457.03 793.26, 461.58 799.90, 465.00 807.00 C 476.63 821.92, 489.15 837.33, 505.00 841.00 C 519.75 848.15, 535.92 849.46, 552.00 851.00 C 572.82 851.48, 594.55 851.35, 612.00 844.00 C 621.56 839.35, 629.45 834.10, 637.00 828.00 C 650.94 819.14, 659.18 806.35, 666.00 794.00 C 671.91 780.20, 675.33 766.38, 675.00 751.00 C 674.40 732.23, 674.44 713.77, 668.00 698.00 C 664.14 693.33, 659.91 690.52, 660.00 685.00 C 657.67 678.92, 652.33 675.08, 650.00 670.00 C 637.64 655.32, 624.65 643.70, 609.00 637.00 C 593.57 630.63, 580.49 625.39, 565.00 626.00 Z" fill="rgb(17.398725977110775,15.351579932340027,23.124703087885987)" />
<path d="M 1507.00 561.00 C 1493.00 562.39, 1479.63 565.31, 1467.00 570.00 C 1459.58 574.92, 1452.46 577.16, 1446.00 581.00 C 1435.65 589.78, 1423.04 598.61, 1416.00 609.00 C 1410.14 615.95, 1410.78 619.75, 1410.00 624.00 C 1404.76 636.60, 1406.55 652.40, 1407.00 665.00 C 1408.27 685.55, 1402.63 708.14, 1413.00 725.00 C 1420.89 735.24, 1426.44 748.83, 1439.00 752.00 C 1451.24 763.64, 1460.89 764.47, 1469.00 769.00 C 1478.53 772.28, 1485.14 772.94, 1492.00 773.00 C 1510.16 774.54, 1524.85 774.98, 1541.00 774.00 C 1555.27 773.06, 1567.25 770.01, 1578.00 764.00 C 1590.14 756.53, 1601.39 747.37, 1609.00 737.00 C 1612.75 728.70, 1618.60 722.27, 1620.00 714.00 C 1626.58 694.13, 1629.89 668.76, 1622.00 650.00 C 1619.72 641.03, 1616.52 633.45, 1613.00 626.00 C 1610.57 619.15, 1606.12 614.56, 1604.00 609.00 C 1595.70 603.58, 1596.46 592.18, 1586.00 588.00 C 1577.22 579.38, 1567.67 575.04, 1558.00 571.00 C 1544.98 565.44, 1532.30 562.47, 1519.00 561.00 Z" fill="rgb(17.467849654422615,14.69189252155005,21.326667702104526)" />
<path d="M 273.00 736.00 C 243.72 740.54, 212.11 739.47, 182.00 742.00 C 157.41 743.57, 134.04 744.68, 112.00 749.00 C 93.58 752.78, 75.95 758.01, 57.00 754.00 C 16.42 757.59, -41.31 746.09, 0.00 817.00 C 8.49 817.69, 14.34 822.32, 21.00 825.00 C 34.70 828.18, 40.82 842.81, 55.00 838.00 C 89.67 837.81, 122.63 834.92, 156.00 833.00 C 186.24 830.58, 214.42 826.60, 244.00 826.00 C 270.68 826.11, 296.09 820.83, 320.00 821.00 C 348.44 814.89, 378.91 818.53, 406.00 814.00 C 418.28 809.66, 426.63 815.13, 431.00 811.00 C 429.84 805.97, 428.55 804.21, 426.00 804.00 C 419.15 798.99, 411.40 794.95, 407.00 790.00 C 398.19 779.53, 390.88 771.27, 386.00 762.00 C 384.57 758.72, 381.52 753.25, 380.00 758.00 C 373.24 760.52, 366.78 759.68, 361.00 759.00 C 351.30 755.91, 356.05 735.47, 345.00 743.00 C 338.57 756.82, 339.93 744.78, 339.00 741.00 C 335.60 724.72, 309.14 743.45, 301.00 736.00 Z" fill="rgb(170.88,162.96,163.36)" />
<path d="M 259.00 735.00 C 234.10 735.15, 210.53 738.54, 187.00 742.00 C 167.93 743.64, 154.10 743.44, 141.00 745.00 C 134.24 745.43, 121.07 738.40, 120.00 747.00 C 103.88 751.65, 87.37 751.95, 72.00 755.00 C 42.44 751.15, 20.23 756.53, 0.00 758.00 C 8.79 814.34, 13.93 821.50, 21.00 824.00 C 28.87 830.46, 36.32 834.51, 44.00 838.00 C 73.46 842.61, 98.44 833.73, 125.00 835.00 C 157.77 832.72, 188.69 829.39, 220.00 827.00 C 257.41 823.24, 288.35 823.18, 318.00 820.00 C 348.93 817.22, 370.70 814.90, 394.00 815.00 C 402.97 811.32, 414.24 816.60, 421.00 811.00 C 423.92 804.91, 419.54 801.38, 417.00 800.00 C 408.89 792.46, 402.15 786.58, 395.00 780.00 C 392.20 773.74, 388.57 767.58, 385.00 764.00 C 375.29 757.22, 362.16 762.10, 354.00 755.00 C 352.69 751.79, 352.00 749.33, 351.00 747.00 C 345.01 744.40, 340.36 756.98, 339.00 747.00 C 339.14 741.68, 336.16 738.74, 333.00 737.00 C 315.09 734.80, 304.23 738.82, 295.00 735.00 Z" fill="rgb(191.30393700787403,186.15118110236222,186.31338582677165)" />
<path d="M 958.00 312.00 C 946.13 317.49, 957.17 331.84, 956.00 342.00 C 959.96 350.41, 961.44 358.43, 964.00 366.00 C 966.63 377.21, 971.23 384.60, 971.00 394.00 C 973.90 402.84, 975.89 410.66, 979.00 418.00 C 981.86 427.22, 980.28 437.79, 989.00 439.00 C 1024.48 441.73, 1064.93 438.48, 1101.00 437.00 C 1170.86 433.83, 1207.69 435.42, 1242.00 434.00 C 1247.77 422.03, 1238.50 407.73, 1239.00 395.00 C 1237.04 384.09, 1226.19 381.38, 1220.00 375.00 C 1213.63 370.95, 1207.69 368.29, 1202.00 365.00 C 1189.67 358.80, 1179.60 350.55, 1168.00 346.00 C 1160.56 343.86, 1155.93 338.35, 1150.00 336.00 C 1142.14 332.99, 1135.73 328.91, 1128.00 328.00 C 1120.26 326.44, 1115.02 322.30, 1109.00 320.00 C 1091.88 314.40, 1075.46 314.35, 1060.00 312.00 Z" fill="rgb(52.65864252658927,57.89100430299586,79.30149387026061)" />
<path d="M 1104.00 710.00 C 1093.63 712.86, 1081.41 711.23, 1071.00 714.00 C 1063.56 716.75, 1055.55 714.69, 1051.00 721.00 C 1014.77 731.38, 991.21 710.99, 964.00 718.00 C 929.00 720.19, 912.44 721.04, 898.00 727.00 C 885.58 730.01, 879.34 728.35, 873.00 727.00 C 858.59 722.64, 842.71 724.24, 829.00 726.00 C 819.54 727.51, 823.51 736.44, 816.00 737.00 C 810.85 739.77, 806.25 740.47, 802.00 742.00 C 785.95 745.97, 770.07 740.67, 759.00 747.00 C 755.97 754.32, 746.77 749.43, 743.00 754.00 C 726.24 759.17, 705.30 749.93, 692.00 762.00 C 682.91 765.15, 675.56 767.92, 675.00 778.00 C 666.69 800.44, 712.11 798.08, 716.00 791.00 C 757.61 787.91, 778.46 787.84, 799.00 787.00 C 818.36 783.11, 839.89 787.90, 857.00 782.00 C 882.62 777.34, 898.01 779.36, 912.00 778.00 C 942.36 775.21, 970.73 771.01, 1000.00 769.00 C 1047.98 766.09, 1094.15 762.22, 1141.00 760.00 C 1167.64 761.89, 1190.31 751.75, 1214.00 753.00 C 1228.88 751.18, 1242.69 750.20, 1256.00 748.00 C 1270.28 750.62, 1267.84 739.99, 1261.00 737.00 C 1251.04 730.21, 1243.12 721.32, 1235.00 714.00 C 1219.94 720.82, 1202.71 715.17, 1189.00 718.00 C 1164.78 715.72, 1141.00 713.79, 1118.00 710.00 Z" fill="rgb(146.535571036521,136.88376609668566,131.14853282668355)" />
<path d="M 148.00 360.00 C 116.62 361.79, 75.08 366.79, 47.00 362.00 C -17.69 304.83, -252.46 641.52, 0.00 557.00 C 56.75 538.83, 95.25 573.17, 112.00 555.00 C 133.25 549.75, 118.54 530.38, 128.00 524.00 C 127.64 516.38, 124.78 511.20, 122.00 506.00 C 121.07 491.73, 124.34 479.79, 128.00 468.00 C 128.87 457.31, 134.79 450.13, 136.00 441.00 C 137.45 432.55, 142.61 427.06, 144.00 420.00 C 146.52 412.33, 150.10 406.51, 152.00 400.00 C 154.20 392.39, 159.57 387.51, 161.00 381.00 C 164.11 372.88, 174.81 359.13, 159.00 360.00 Z" fill="rgb(149.174578527063,155.7310706891452,154.7844942324756)" />
<path d="M 1310.00 409.00 C 1307.49 414.96, 1312.98 421.38, 1317.00 426.00 C 1318.81 431.61, 1319.86 436.53, 1322.00 441.00 C 1326.24 450.04, 1329.02 458.27, 1333.00 466.00 C 1335.67 471.25, 1335.20 476.80, 1338.00 481.00 C 1338.70 490.12, 1343.67 499.78, 1350.00 494.00 C 1358.62 490.72, 1369.37 489.23, 1373.00 496.00 C 1375.96 520.46, 1378.33 543.17, 1378.00 567.00 C 1381.28 573.95, 1385.72 566.56, 1387.00 565.00 C 1390.42 558.62, 1394.01 555.14, 1396.00 551.00 C 1406.84 537.53, 1419.13 524.44, 1434.00 518.00 C 1443.12 511.81, 1450.65 508.63, 1458.00 505.00 C 1472.40 499.88, 1486.41 498.66, 1499.00 494.00 C 1532.24 491.56, 1553.81 496.44, 1574.00 502.00 C 1578.29 506.17, 1581.93 508.61, 1587.00 509.00 C 1594.02 512.82, 1598.69 518.88, 1605.00 521.00 C 1630.29 523.83, 1647.85 518.11, 1660.00 524.00 C 1661.75 515.45, 1654.58 509.76, 1650.00 503.00 C 1647.70 498.46, 1646.22 494.57, 1644.00 491.00 C 1633.53 485.39, 1640.02 472.71, 1630.00 470.00 C 1619.35 459.33, 1615.60 440.78, 1599.00 441.00 C 1588.25 439.67, 1579.68 436.50, 1570.00 436.00 C 1555.65 433.37, 1542.75 430.65, 1529.00 430.00 C 1499.59 427.72, 1484.39 427.33, 1470.00 425.00 C 1423.48 421.36, 1385.69 420.81, 1348.00 420.00 C 1334.10 421.34, 1323.42 413.16, 1312.00 409.00 Z" fill="rgb(190.14696312364424,194.46471180663156,205.40211496746204)" />
<path d="M 551.00 558.00 C 538.40 559.37, 525.77 560.63, 514.00 564.00 C 506.60 568.44, 497.99 566.56, 492.00 571.00 C 475.92 575.92, 462.98 586.01, 450.00 596.00 C 434.49 614.04, 427.36 625.65, 422.00 638.00 C 418.66 645.44, 417.94 651.97, 416.00 658.00 C 412.37 671.74, 410.49 684.79, 409.00 698.00 C 408.28 700.85, 408.50 728.55, 414.00 716.00 C 414.12 711.88, 413.14 706.49, 419.00 708.00 C 421.92 712.37, 422.15 715.02, 424.00 717.00 C 433.33 719.75, 428.12 719.66, 427.00 721.00 C 422.56 738.53, 427.45 720.39, 433.00 726.00 C 445.41 720.61, 445.73 710.37, 448.00 702.00 C 448.03 690.03, 454.78 687.55, 456.00 681.00 C 464.21 674.00, 466.48 666.12, 472.00 661.00 C 480.75 651.19, 490.48 643.93, 499.00 638.00 C 505.52 634.97, 510.36 632.74, 515.00 630.00 C 525.27 625.43, 533.54 623.27, 543.00 624.00 C 564.96 621.06, 584.99 621.39, 602.00 629.00 C 607.73 630.85, 612.37 632.92, 617.00 635.00 C 624.30 636.78, 631.84 638.78, 633.00 646.00 C 639.57 656.92, 649.48 661.70, 654.00 669.00 C 662.78 677.04, 662.96 687.65, 671.00 695.00 C 673.60 703.75, 675.96 711.60, 677.00 720.00 C 679.34 727.57, 689.41 722.39, 693.00 722.00 C 702.59 721.60, 704.59 716.94, 705.00 712.00 C 712.84 696.52, 710.92 684.26, 709.00 672.00 C 708.60 661.26, 703.26 653.97, 702.00 645.00 C 697.46 630.70, 690.49 618.83, 681.00 608.00 C 669.44 592.65, 654.07 580.51, 638.00 573.00 C 629.44 569.54, 622.80 568.30, 617.00 565.00 C 604.01 559.42, 590.35 560.29, 578.00 558.00 Z" fill="rgb(18.921820548347817,17.566108242012007,23.94340177184364)" />
<path d="M 771.00 303.00 C 751.89 304.86, 732.40 305.83, 713.00 307.00 C 696.35 309.36, 679.17 307.04, 665.00 312.00 C 649.94 323.06, 664.20 344.43, 659.00 359.00 C 660.69 375.60, 661.48 391.16, 664.00 406.00 C 662.46 432.82, 684.58 442.63, 702.00 434.00 C 750.48 432.22, 772.42 431.54, 794.00 430.00 C 808.71 431.05, 825.80 426.85, 840.00 427.00 C 849.63 426.02, 854.57 422.98, 857.00 419.00 C 859.39 402.29, 854.78 388.18, 855.00 374.00 C 851.03 357.50, 855.90 337.02, 842.00 327.00 C 833.53 321.99, 827.47 318.01, 821.00 315.00 C 811.98 308.76, 803.37 304.97, 794.00 303.00 Z" fill="rgb(34.678162853297444,40.156502355316285,64.97274562584118)" />
<path d="M 112.00 557.00 C 76.63 563.32, 50.00 554.58, 16.00 560.00 C -54.39 543.22, -63.06 773.18, 7.00 754.00 C 38.05 748.92, 64.27 753.46, 89.00 751.00 C 98.10 749.71, 105.44 747.59, 113.00 746.00 C 123.02 742.44, 119.81 742.94, 111.00 741.00 C 102.25 737.02, 96.86 737.54, 94.00 735.00 C 87.88 732.79, 80.47 730.19, 82.00 723.00 C 80.91 711.63, 76.08 696.06, 89.00 692.00 C 93.92 690.03, 94.45 685.18, 99.00 684.00 C 106.17 676.44, 116.95 680.02, 125.00 677.00 C 141.33 674.77, 155.75 679.30, 150.00 669.00 C 147.56 664.24, 146.19 660.45, 144.00 657.00 C 141.37 644.43, 133.55 635.43, 134.00 623.00 C 132.10 611.49, 130.54 601.25, 129.00 591.00 C 123.20 579.76, 133.46 563.41, 122.00 557.00 Z" fill="rgb(133.09291338582676,141.24251968503938,150.74330708661418)" />
<path d="M 593.00 319.00 C 579.95 322.36, 569.54 319.30, 557.00 321.00 C 548.88 319.77, 540.64 324.20, 534.00 322.00 C 519.78 325.53, 510.64 321.73, 497.00 324.00 C 479.14 325.87, 462.76 327.90, 446.00 329.00 C 423.78 328.65, 424.57 338.03, 426.00 346.00 C 427.62 360.96, 429.17 374.54, 431.00 388.00 C 433.43 404.21, 434.47 415.00, 435.00 426.00 C 434.30 435.62, 440.98 446.35, 449.00 438.00 C 461.46 438.02, 468.17 439.63, 476.00 441.00 C 497.30 440.90, 518.64 439.75, 539.00 438.00 C 551.55 438.12, 565.07 436.35, 576.00 437.00 C 589.81 433.41, 605.97 438.90, 617.00 432.00 C 624.82 427.05, 621.46 408.83, 621.00 403.00 C 622.70 390.99, 617.76 378.28, 619.00 367.00 C 615.90 349.84, 621.23 324.49, 602.00 319.00 Z" fill="rgb(32.91518511730205,37.65702895894428,62.754307184750736)" />
<path d="M 396.00 0.00 C 394.74 19.06, 385.44 44.38, 397.00 60.00 C 404.68 60.91, 413.24 60.88, 420.00 60.00 C 617.05 17.66, 710.94 91.66, 746.00 55.00 C 745.08 36.38, 747.17 17.10, 744.00 0.00 Z" fill="rgb(157.96600023943495,77.49910211899916,89.39405004190111)" />
<path d="M 1741.00 71.00 C 1720.38 66.49, 1733.68 91.83, 1730.00 101.00 C 1733.02 166.77, 1733.84 205.46, 1735.00 244.00 C 1736.36 286.74, 1740.46 326.92, 1740.00 369.00 C 1746.27 372.61, 1752.43 369.68, 1756.00 373.00 C 1906.58 412.96, 1893.70 18.76, 1747.00 71.00 Z" fill="rgb(105.99051152928703,42.208216273522396,54.014100185528754)" />
<path d="M 410.00 331.00 C 383.27 332.98, 356.40 334.63, 329.00 335.00 C 310.32 337.31, 291.27 335.30, 275.00 340.00 C 266.56 345.97, 268.03 357.06, 263.00 364.00 C 262.20 370.89, 259.16 374.85, 259.00 380.00 C 258.42 385.63, 264.39 382.39, 265.00 386.00 C 257.24 382.70, 257.21 387.46, 255.00 390.00 C 252.13 395.83, 250.79 401.30, 250.00 407.00 C 243.27 415.46, 244.34 423.14, 241.00 429.00 C 237.34 436.04, 238.51 451.19, 247.00 451.00 C 257.51 453.69, 264.76 451.37, 276.00 452.00 C 301.85 450.10, 327.22 450.48, 351.00 447.00 C 371.22 446.61, 392.08 443.80, 411.00 444.00 C 418.01 441.51, 428.09 444.88, 431.00 438.00 C 427.25 425.53, 428.63 412.93, 426.00 402.00 C 422.60 382.72, 423.44 369.68, 421.00 358.00 C 418.10 343.79, 422.07 333.70, 415.00 331.00 Z" fill="rgb(30.454220425928806,34.70951862790818,59.4782113062853)" />
<path d="M 806.00 0.00 C 804.75 18.05, 804.88 36.04, 807.00 54.00 C 806.51 58.94, 810.91 56.99, 812.00 59.00 C 871.37 34.75, 918.32 56.49, 948.00 58.00 C 972.22 59.18, 997.87 55.40, 1023.00 56.00 C 1038.59 59.59, 1049.24 54.67, 1060.00 50.00 C 1065.60 46.17, 1070.98 45.22, 1075.00 41.00 C 1084.77 32.89, 1090.76 27.82, 1104.00 27.00 C 1110.02 20.43, 1115.98 17.10, 1123.00 15.00 C 1130.98 9.74, 1139.18 8.42, 1142.00 0.00 Z" fill="rgb(131.68733624454148,56.59093886462882,70.88460698689957)" />
<path d="M 276.00 735.00 C 248.32 740.19, 217.62 738.08, 189.00 741.00 C 165.69 743.04, 145.83 743.68, 124.00 747.00 C 109.76 750.03, 100.08 752.01, 90.00 753.00 C 59.27 755.50, 28.44 752.36, 0.00 758.00 C 18.04 799.98, 38.32 798.05, 55.00 797.00 C 83.76 790.73, 96.47 801.87, 106.00 796.00 C 130.85 792.51, 151.10 792.38, 170.00 789.00 C 202.46 787.45, 227.86 783.09, 252.00 784.00 C 265.94 781.60, 278.60 782.79, 292.00 780.00 C 309.14 780.02, 325.39 779.65, 342.00 779.00 C 357.76 775.84, 376.25 782.95, 390.00 778.00 C 394.45 778.78, 401.05 788.33, 400.00 784.00 C 396.17 778.35, 393.64 774.15, 391.00 770.00 C 386.74 766.44, 383.76 751.07, 381.00 756.00 C 372.17 766.77, 352.36 758.17, 353.00 746.00 C 353.32 740.20, 345.43 739.33, 346.00 744.00 C 346.93 748.38, 345.97 751.40, 344.00 754.00 C 333.18 752.27, 343.42 738.11, 336.00 737.00 C 315.60 735.66, 297.72 738.16, 279.00 735.00 Z" fill="rgb(223.8839174892133,220.87174182871328,221.025297003369)" />
<path d="M 901.00 291.00 C 896.96 293.94, 887.65 292.42, 892.00 302.00 C 894.53 317.92, 894.92 333.31, 897.00 348.00 C 900.85 375.98, 901.32 399.36, 906.00 421.00 C 909.36 434.60, 912.15 447.02, 916.00 459.00 C 913.11 479.09, 923.60 490.60, 923.00 505.00 C 925.38 528.53, 930.26 549.62, 932.00 572.00 C 934.73 599.86, 937.99 626.09, 942.00 652.00 C 944.26 665.95, 944.21 672.86, 946.00 679.00 C 949.53 685.63, 951.55 690.09, 959.00 689.00 C 969.70 684.52, 977.46 687.45, 983.00 685.00 C 990.01 685.12, 993.36 684.29, 999.00 684.00 C 998.20 680.09, 997.34 676.45, 994.00 675.00 C 986.00 676.62, 987.39 664.91, 984.00 672.00 C 977.63 668.60, 987.31 666.86, 982.00 665.00 C 963.83 641.95, 981.68 604.39, 975.00 577.00 C 973.01 536.92, 969.81 511.33, 966.00 486.00 C 963.23 471.49, 960.16 458.52, 956.00 446.00 C 952.53 428.53, 951.22 415.16, 947.00 403.00 C 943.62 384.49, 939.43 371.32, 938.00 357.00 C 932.72 345.20, 931.30 333.21, 928.00 322.00 C 924.49 316.23, 925.16 310.74, 924.00 306.00 C 918.41 300.06, 926.37 294.84, 920.00 291.00 Z" fill="rgb(170.21807278988302,176.00237487383484,187.72344594193433)" />
<path d="M 394.00 778.00 C 391.11 784.65, 381.70 783.53, 378.00 779.00 C 371.53 780.88, 364.44 784.05, 361.00 780.00 C 349.54 786.15, 334.95 780.12, 325.00 783.00 C 292.84 782.16, 261.55 786.47, 232.00 786.00 C 209.51 789.77, 195.17 789.37, 180.00 790.00 C 160.44 792.92, 141.08 792.91, 123.00 796.00 C 110.24 797.34, 97.34 801.26, 87.00 799.00 C 62.59 794.73, 35.83 800.13, 12.00 802.00 C -5.57 802.19, -3.31 821.69, 7.00 818.00 C 10.20 819.33, 12.24 821.04, 15.00 821.00 C 23.49 827.90, 32.26 827.29, 38.00 834.00 C 57.09 839.44, 71.97 838.95, 88.00 837.00 C 128.89 834.73, 153.14 833.35, 177.00 831.00 C 207.22 828.54, 236.31 826.74, 265.00 824.00 C 292.74 822.22, 309.05 820.70, 323.00 820.00 C 358.91 815.36, 390.73 817.76, 420.00 814.00 C 423.02 811.78, 433.97 814.89, 433.00 809.00 C 425.46 803.16, 423.00 802.15, 421.00 800.00 C 411.23 794.53, 405.35 786.55, 397.00 781.00 Z" fill="rgb(156.40271126501142,146.03742724526634,141.15361379208724)" />
<path d="M 1793.00 601.00 C 1771.09 602.64, 1748.43 607.42, 1727.00 607.00 C 1706.42 605.96, 1714.54 625.25, 1707.00 633.00 C 1702.15 643.22, 1694.82 650.91, 1686.00 657.00 C 1677.01 662.10, 1666.50 661.12, 1658.00 665.00 C 1648.65 669.95, 1638.72 664.50, 1632.00 667.00 C 1627.65 679.11, 1629.60 693.00, 1627.00 705.00 C 1627.43 711.70, 1618.65 723.26, 1632.00 720.00 C 1647.29 718.69, 1660.92 716.80, 1675.00 716.00 C 1693.30 713.93, 1710.51 712.62, 1728.00 712.00 C 1734.52 710.18, 1738.12 708.29, 1744.00 710.00 C 1790.21 706.98, 1875.06 716.49, 1799.00 601.00 Z" fill="rgb(202.81333333333333,196.70666666666668,195.52)" />
<path d="M 561.00 676.00 C 545.83 678.38, 531.27 682.22, 520.00 694.00 C 508.83 706.08, 500.82 719.05, 500.00 735.00 C 498.18 752.99, 503.03 767.65, 511.00 781.00 C 523.44 797.49, 537.59 805.54, 552.00 808.00 C 572.06 813.07, 589.26 807.27, 604.00 798.00 C 620.87 784.33, 626.51 769.47, 630.00 755.00 C 627.07 719.78, 621.68 706.59, 610.00 696.00 C 597.83 684.24, 583.83 677.91, 568.00 676.00 Z" fill="rgb(77.29536983944953,80.63976490825688,94.61819094036697)" />
<path d="M 1788.00 602.00 C 1774.40 605.29, 1759.09 604.47, 1746.00 609.00 C 1724.42 600.09, 1709.03 612.87, 1714.00 628.00 C 1708.88 638.23, 1704.81 649.46, 1694.00 654.00 C 1685.17 662.64, 1675.12 661.48, 1667.00 665.00 C 1655.36 669.36, 1645.73 671.57, 1637.00 668.00 C 1630.52 683.33, 1630.94 700.27, 1626.00 715.00 C 1627.27 727.31, 1655.30 701.18, 1657.00 717.00 C 1675.89 714.72, 1693.97 713.93, 1712.00 713.00 C 1723.10 711.24, 1733.18 710.43, 1743.00 709.00 C 1799.57 699.77, 1874.70 729.54, 1799.00 602.00 Z" fill="rgb(224.0,220.0,219.0)" />
<path d="M 1517.00 606.00 C 1501.08 608.61, 1485.01 613.23, 1475.00 628.00 C 1466.61 637.17, 1461.36 649.00, 1461.00 661.00 C 1459.11 679.69, 1462.39 695.66, 1472.00 709.00 C 1481.33 722.30, 1494.02 729.57, 1507.00 735.00 C 1528.88 741.11, 1548.68 735.33, 1563.00 724.00 C 1581.57 701.11, 1587.70 684.38, 1585.00 664.00 C 1582.34 649.67, 1576.91 637.91, 1567.00 628.00 C 1554.66 614.38, 1539.91 607.59, 1523.00 606.00 Z" fill="rgb(62.27548293502329,63.443154920974266,77.5186683973429)" />
<path d="M 126.00 583.00 C 116.41 613.54, 40.45 557.18, 25.00 590.00 C -18.87 569.27, -38.87 673.92, 3.00 677.00 C 8.11 676.48, 12.55 664.15, 17.00 671.00 C 21.77 672.40, 27.96 674.89, 27.00 681.00 C 24.12 688.80, 12.67 680.76, 9.00 686.00 C 13.37 690.94, 26.35 687.47, 34.00 690.00 C 54.83 689.61, 77.02 686.36, 97.00 684.00 C 111.25 672.75, 131.32 677.97, 148.00 675.00 C 150.84 670.16, 145.09 663.00, 144.00 658.00 C 140.43 648.96, 137.04 641.26, 135.00 633.00 C 130.03 615.82, 134.20 598.85, 126.00 587.00 Z" fill="rgb(147.79368894402234,154.00294619320826,153.74399131648318)" />
<path d="M 1676.00 511.00 C 1672.95 514.28, 1667.04 510.69, 1664.00 514.00 C 1665.00 518.60, 1667.05 523.43, 1665.00 526.00 C 1648.39 522.11, 1623.87 522.61, 1605.00 525.00 C 1602.73 532.61, 1608.08 535.89, 1609.00 541.00 C 1610.43 549.16, 1619.83 551.16, 1621.00 558.00 C 1625.99 568.14, 1631.15 576.80, 1635.00 586.00 C 1639.10 594.41, 1639.20 603.06, 1641.00 611.00 C 1642.96 623.33, 1644.41 635.02, 1638.00 644.00 C 1640.25 651.34, 1645.24 651.48, 1650.00 654.00 C 1653.05 645.09, 1662.00 656.49, 1662.00 660.00 C 1670.34 654.79, 1679.57 658.99, 1685.00 654.00 C 1693.03 649.13, 1697.85 643.25, 1702.00 636.00 C 1705.28 629.25, 1709.03 624.12, 1708.00 617.00 C 1710.26 597.59, 1709.06 577.46, 1708.00 560.00 C 1708.03 548.38, 1707.14 537.72, 1704.00 528.00 C 1700.87 517.41, 1689.52 512.33, 1681.00 511.00 Z" fill="rgb(32.383219954648524,29.349206349206348,35.43310657596372)" />
<path d="M 202.00 300.00 C 193.29 299.38, 187.81 303.52, 182.00 308.00 C 159.88 310.31, 133.62 321.10, 115.00 310.00 C 101.16 301.64, 81.93 308.72, 68.00 303.00 C 55.43 295.96, 37.92 303.82, 28.00 304.00 C -24.80 284.22, -14.95 392.18, 27.00 359.00 C 68.84 363.61, 109.62 361.60, 147.00 359.00 C 174.93 355.19, 175.07 349.81, 179.00 346.00 C 182.48 338.78, 185.76 332.49, 191.00 327.00 C 194.24 317.21, 222.63 308.66, 207.00 300.00 Z" fill="rgb(196.95628207565102,186.33377684850788,185.03307356015966)" />
<path d="M 3.00 0.00 C -35.76 91.72, 189.36 92.81, 195.00 41.00 C 224.60 53.17, 197.93 1.56, 210.00 0.00 Z" fill="rgb(126.00641025641026,127.50641025641026,130.07692307692307)" />
<path d="M 4.00 0.00 C -37.15 83.84, 104.88 10.97, 108.00 41.00 C 135.93 21.89, 242.53 79.27, 208.00 0.00 Z" fill="rgb(127.7744378422463,138.71501805895375,140.8047302807876)" />
<path d="M 138.00 678.00 C 127.66 682.61, 110.52 676.08, 103.00 685.00 C 110.23 701.82, 87.83 691.31, 82.00 701.00 C 83.43 709.99, 78.86 725.42, 87.00 728.00 C 100.68 730.84, 109.94 737.50, 123.00 735.00 C 131.12 733.17, 135.08 739.95, 141.00 742.00 C 166.52 737.22, 186.00 739.60, 203.00 736.00 C 219.46 732.30, 230.81 728.35, 242.00 724.00 C 248.16 724.28, 253.10 726.10, 258.00 728.00 C 273.83 731.24, 285.45 729.10, 297.00 732.00 C 328.43 732.47, 342.53 734.79, 349.00 727.00 C 354.77 725.15, 355.16 721.42, 351.00 721.00 C 335.80 713.25, 314.87 728.96, 305.00 718.00 C 234.45 711.35, 212.61 722.33, 200.00 711.00 C 190.84 707.09, 188.88 699.69, 183.00 696.00 C 166.07 691.19, 158.05 678.52, 145.00 678.00 Z" fill="rgb(70.13571428571429,70.36428571428571,74.50714285714285)" />
<path d="M 1794.00 600.00 C 1769.40 603.29, 1745.39 608.03, 1719.00 607.00 C 1705.46 608.40, 1714.03 626.52, 1706.00 633.00 C 1702.63 642.63, 1696.66 652.92, 1687.00 656.00 C 1677.70 662.15, 1667.46 662.64, 1658.00 665.00 C 1649.40 668.65, 1640.46 666.77, 1633.00 666.00 C 1629.82 672.33, 1630.42 677.48, 1632.00 682.00 C 1645.77 679.00, 1660.03 682.96, 1673.00 679.00 C 1699.52 676.32, 1714.66 672.71, 1731.00 672.00 C 1742.40 670.92, 1753.45 673.51, 1763.00 670.00 C 1806.41 659.52, 1850.60 686.75, 1799.00 600.00 Z" fill="rgb(214.16750237159508,209.49342729367123,209.32063965306952)" />
<path d="M 81.00 845.00 C 71.39 850.80, 61.41 843.11, 53.00 849.00 C 42.00 851.46, 31.45 849.46, 21.00 851.00 C 5.47 833.35, 8.80 857.81, 0.00 853.00 C 11.67 903.53, 10.31 880.59, 24.00 894.00 C 53.80 893.79, 82.40 892.10, 110.00 888.00 C 154.36 883.80, 187.08 882.86, 219.00 880.00 C 258.52 877.04, 278.76 878.23, 298.00 877.00 C 311.99 868.17, 285.77 868.18, 279.00 868.00 C 234.13 870.84, 194.13 864.98, 150.00 868.00 C 139.78 865.39, 131.92 872.36, 123.00 868.00 C 114.99 865.64, 112.76 859.48, 108.00 857.00 C 98.16 859.47, 89.91 852.33, 88.00 845.00 Z" fill="rgb(66.91202688879146,73.0856349554289,96.35349992693263)" />
<path d="M 1794.00 664.00 C 1784.28 666.68, 1772.98 665.53, 1764.00 670.00 C 1738.15 673.97, 1711.24 672.96, 1686.00 676.00 C 1676.64 674.64, 1669.70 677.02, 1663.00 678.00 C 1652.99 683.58, 1634.60 677.05, 1630.00 686.00 C 1628.44 696.13, 1625.24 704.15, 1624.00 713.00 C 1619.23 718.95, 1626.37 726.15, 1633.00 721.00 C 1644.09 720.36, 1652.84 717.48, 1663.00 718.00 C 1689.47 715.67, 1714.58 713.46, 1740.00 712.00 C 1751.89 711.68, 1761.17 708.47, 1772.00 709.00 C 1794.21 705.83, 1827.19 713.20, 1799.00 664.00 Z" fill="rgb(116.22845010615711,110.55895258315641,110.9312101910828)" />
<path d="M 1351.00 689.00 C 1345.33 691.94, 1337.26 689.08, 1332.00 693.00 C 1325.79 699.79, 1315.53 694.40, 1309.00 698.00 C 1273.62 700.84, 1259.06 698.40, 1247.00 702.00 C 1236.14 703.23, 1237.26 711.37, 1243.00 715.00 C 1250.60 726.13, 1261.22 732.15, 1271.00 739.00 C 1277.96 742.56, 1284.73 744.19, 1291.00 747.00 C 1319.97 750.87, 1349.86 748.22, 1375.00 743.00 C 1385.63 737.26, 1396.28 731.51, 1403.00 721.00 C 1400.59 716.32, 1396.90 712.35, 1394.00 715.00 C 1387.41 725.89, 1375.10 718.92, 1367.00 718.00 C 1354.87 710.30, 1365.01 693.68, 1354.00 689.00 Z" fill="rgb(7.3883677298311445,5.211694809255785,8.143839899937461)" />
<path d="M 1613.00 523.00 C 1594.40 520.88, 1607.79 539.08, 1614.00 545.00 C 1618.70 553.79, 1626.01 560.50, 1629.00 569.00 C 1633.68 576.72, 1635.39 584.25, 1639.00 591.00 C 1642.23 598.22, 1640.52 604.47, 1643.00 609.00 C 1650.27 620.28, 1639.90 638.21, 1646.00 645.00 C 1660.19 643.60, 1668.87 638.55, 1679.00 637.00 C 1674.60 627.82, 1685.28 625.89, 1687.00 619.00 C 1688.79 590.74, 1686.84 566.44, 1681.00 545.00 C 1679.16 526.71, 1655.79 519.18, 1641.00 523.00 Z" fill="rgb(44.17948303715671,42.089499192245555,52.948142164781906)" />
<path d="M 130.00 679.00 C 121.64 681.87, 110.82 678.82, 103.00 683.00 C 103.40 689.11, 111.49 690.63, 105.00 694.00 C 93.20 696.68, 85.61 694.26, 84.00 700.00 C 84.79 711.08, 78.82 730.66, 94.00 730.00 C 99.38 732.21, 104.01 732.85, 108.00 735.00 C 121.01 732.34, 126.64 732.75, 131.00 735.00 C 137.59 739.02, 144.18 747.12, 152.00 741.00 C 169.29 736.82, 186.32 739.25, 201.00 736.00 C 215.47 732.53, 224.68 730.84, 233.00 727.00 C 237.23 725.74, 243.42 724.42, 241.00 721.00 C 230.89 712.64, 214.56 720.29, 204.00 714.00 C 191.37 708.44, 186.87 693.53, 174.00 692.00 C 164.51 687.38, 157.04 681.30, 148.00 679.00 Z" fill="rgb(41.89620570711822,41.43320790216369,49.44261523988711)" />
<path d="M 96.00 686.00 C 82.93 690.24, 66.94 687.44, 54.00 692.00 C 6.15 698.75, -46.88 675.97, 0.00 756.00 C 7.79 752.09, 15.15 756.77, 19.00 753.00 C 52.29 750.23, 80.14 756.02, 104.00 749.00 C 114.41 745.57, 123.11 745.27, 131.00 743.00 C 129.69 734.97, 116.82 739.08, 110.00 739.00 C 104.10 736.10, 99.28 733.98, 94.00 733.00 C 87.09 730.27, 78.55 728.61, 82.00 719.00 C 80.13 712.26, 78.78 693.26, 90.00 693.00 C 94.56 692.91, 101.68 690.45, 97.00 686.00 Z" fill="rgb(113.30601092896175,125.22222222222223,139.18214936247722)" />
<path d="M 55.00 692.00 C 47.85 694.10, 40.72 696.26, 33.00 697.00 C 24.98 701.03, 14.54 695.82, 8.00 700.00 C -45.71 746.38, -5.52 762.36, 14.00 754.00 C 46.31 749.05, 78.36 753.15, 107.00 749.00 C 115.46 748.72, 120.10 742.63, 127.00 742.00 C 131.63 733.89, 114.61 740.97, 108.00 738.00 C 101.80 735.82, 96.79 734.18, 92.00 732.00 C 87.09 729.30, 80.09 729.27, 82.00 722.00 C 81.18 711.97, 79.56 705.34, 81.00 697.00 C 85.05 686.86, 74.55 695.24, 72.00 692.00 Z" fill="rgb(165.01295576531555,166.05663520266518,164.08957986303906)" />
<path d="M 0.00 331.00 C -23.54 378.38, 23.10 349.72, 37.00 361.00 C 122.79 358.98, 134.56 362.78, 147.00 360.00 C 160.40 360.52, 173.50 362.21, 178.00 349.00 C 179.85 345.02, 179.22 341.01, 181.00 338.00 C 191.36 323.34, 156.34 337.57, 152.00 332.00 C 93.96 332.94, 47.43 332.08, 5.00 331.00 Z" fill="rgb(193.48097878034793,192.90384247753775,192.3223093098834)" />
<path d="M 1726.00 0.00 C 1724.36 13.88, 1726.27 30.00, 1728.00 44.00 C 1708.91 110.12, 1880.25 72.61, 1799.00 0.00 Z" fill="rgb(97.50642099385819,35.7677275265215,53.60524846454495)" />
<path d="M 167.00 524.00 C 156.43 533.98, 173.34 555.34, 162.00 565.00 C 164.94 577.34, 161.95 590.13, 166.00 600.00 C 168.84 614.51, 166.90 624.60, 170.00 630.00 C 185.85 628.50, 202.46 630.24, 217.00 627.00 C 221.41 606.81, 215.89 587.27, 213.00 568.00 C 207.24 549.43, 189.06 535.80, 175.00 524.00 Z" fill="rgb(85.24918614974844,29.36726842261024,44.31311038768867)" />
<path d="M 37.00 90.00 C 20.92 89.45, 29.45 109.54, 29.00 120.00 C 31.00 123.33, 31.69 125.79, 33.00 128.00 C 37.37 151.55, 27.81 169.93, 28.00 191.00 C 29.63 198.44, 35.64 204.30, 30.00 210.00 C 29.33 217.13, 26.99 224.31, 30.00 229.00 C 26.08 244.88, 54.06 240.28, 63.00 235.00 C 66.35 219.96, 56.79 210.00, 58.00 199.00 C 63.52 186.34, 59.61 172.01, 56.00 161.00 C 54.13 145.80, 50.23 132.81, 57.00 124.00 C 61.65 112.59, 65.06 89.49, 50.00 90.00 Z" fill="rgb(78.44,78.584,86.584)" />
<path d="M 30.00 90.00 C 27.69 99.64, 27.04 112.20, 31.00 122.00 C 39.39 135.72, 32.82 151.77, 32.00 165.00 C 27.07 179.27, 29.83 193.35, 33.00 206.00 C 27.00 215.85, 24.31 235.56, 37.00 237.00 C 67.18 224.27, 55.75 210.59, 59.00 198.00 C 63.87 185.46, 58.55 171.78, 57.00 160.00 C 53.30 149.06, 50.47 135.96, 55.00 126.00 C 60.86 115.07, 62.11 99.88, 58.00 90.00 Z" fill="rgb(182.5822634331907,182.6414645744175,189.41631003328578)" />
<path d="M 93.00 557.00 C 78.14 573.29, 43.86 542.71, 29.00 559.00 C -26.88 585.97, 16.18 604.24, 30.00 589.00 C 140.02 565.41, 124.99 548.47, 104.00 557.00 Z" fill="rgb(133.8351780558229,148.5493262752647,161.92035611164582)" />
<path d="M 97.00 89.00 C 87.20 93.28, 92.86 111.42, 95.00 120.00 C 103.06 132.58, 97.81 149.51, 97.00 163.00 C 94.71 174.52, 88.31 189.01, 97.00 198.00 C 100.17 201.54, 97.10 206.09, 95.00 208.00 C 87.98 224.43, 89.26 258.85, 123.00 237.00 C 121.83 223.32, 121.49 208.47, 121.00 197.00 C 125.65 185.27, 123.30 172.33, 120.00 162.00 C 117.58 146.12, 114.74 131.81, 121.00 121.00 C 123.03 110.34, 126.78 95.92, 121.00 89.00 Z" fill="rgb(189.5020618556701,190.08247422680412,196.6090206185567)" />
<path d="M 1671.00 511.00 C 1668.57 512.31, 1661.78 513.52, 1666.00 518.00 C 1671.03 526.21, 1676.16 529.44, 1680.00 535.00 C 1687.93 554.48, 1686.69 575.77, 1688.00 596.00 C 1688.92 606.38, 1688.53 615.63, 1686.00 624.00 C 1686.81 634.78, 1677.27 639.05, 1674.00 640.00 C 1669.27 641.85, 1666.12 644.10, 1662.00 644.00 C 1654.28 642.85, 1654.65 661.40, 1657.00 660.00 C 1663.83 659.92, 1670.97 662.01, 1676.00 659.00 C 1685.69 654.66, 1696.87 650.64, 1701.00 640.00 C 1706.65 630.16, 1709.86 620.71, 1710.00 610.00 C 1707.92 570.60, 1710.99 545.31, 1704.00 527.00 C 1700.37 517.51, 1691.47 513.80, 1684.00 511.00 Z" fill="rgb(108.15690269994906,106.49745287824759,121.99184921039226)" />
<path d="M 749.00 0.00 C 747.00 5.25, 749.49 10.24, 749.00 16.00 C 751.46 30.53, 738.14 54.20, 752.00 61.00 C 771.83 61.36, 787.42 65.44, 795.00 60.00 C 807.34 41.70, 796.29 19.37, 803.00 0.00 Z" fill="rgb(158.6717933836332,70.69994196169472,82.80295995356936)" />
<path d="M 1742.00 374.00 C 1739.62 376.40, 1740.18 380.08, 1742.00 383.00 C 1743.90 397.76, 1743.98 410.28, 1746.00 422.00 C 1756.99 434.86, 1788.19 415.15, 1795.00 433.00 C 1792.69 460.04, 1799.77 493.88, 1796.00 520.00 C 1793.26 624.40, 1858.02 360.20, 1794.00 378.00 C 1774.01 375.04, 1765.33 376.15, 1758.00 374.00 Z" fill="rgb(96.58878504672897,56.18691588785047,63.570093457943926)" />
<path d="M 1792.00 564.00 C 1766.16 567.00, 1737.94 564.24, 1712.00 567.00 C 1726.97 567.19, 1699.99 606.92, 1717.00 606.00 C 1731.97 603.92, 1747.29 606.12, 1760.00 602.00 C 1788.71 594.26, 1825.28 612.44, 1799.00 564.00 Z" fill="rgb(92.03846153846153,55.282051282051285,61.85897435897436)" />
<path d="M 1741.00 373.00 C 1739.90 388.49, 1744.60 405.74, 1745.00 422.00 C 1755.90 433.91, 1780.61 421.63, 1793.00 428.00 C 1797.59 462.75, 1795.95 502.90, 1798.00 539.00 C 1910.63 338.21, 1812.50 389.29, 1747.00 373.00 Z" fill="rgb(154.91176470588235,135.78781512605042,140.84453781512605)" />
<path d="M 1725.00 0.00 C 1725.63 13.35, 1726.55 26.58, 1727.00 40.00 C 1731.35 50.71, 1753.26 35.50, 1760.00 45.00 C 1786.27 40.72, 1828.60 59.83, 1799.00 0.00 Z" fill="rgb(96.99129390573401,34.15971179825878,50.37075953167217)" />
<path d="M 1791.00 564.00 C 1786.51 569.93, 1775.49 560.07, 1771.00 566.00 C 1724.72 571.45, 1708.44 561.08, 1711.00 573.00 C 1711.39 587.76, 1704.48 618.35, 1732.00 604.00 C 1744.66 605.59, 1756.25 601.04, 1768.00 602.00 C 1787.72 596.89, 1821.82 606.96, 1799.00 564.00 Z" fill="rgb(141.31873111782477,86.39274924471299,94.83021148036254)" />
<path d="M 122.00 141.00 C 112.76 146.16, 122.11 158.90, 121.00 167.00 C 127.07 183.69, 119.27 198.11, 122.00 214.00 C 121.65 225.52, 123.02 244.34, 138.00 238.00 C 174.32 231.18, 129.77 181.12, 155.00 175.00 C 151.64 168.23, 160.47 145.77, 150.00 141.00 Z" fill="rgb(157.6426626323752,159.00514372163389,163.75249621785173)" />
<path d="M 204.00 331.00 C 197.70 337.79, 186.19 338.75, 184.00 349.00 C 182.24 355.52, 178.84 359.93, 177.00 365.00 C 169.45 380.05, 164.20 391.81, 160.00 404.00 C 155.12 415.52, 150.85 425.88, 146.00 436.00 C 139.82 449.18, 136.41 462.50, 131.00 475.00 C 137.04 482.35, 145.94 478.35, 153.00 477.00 C 157.34 465.98, 162.54 460.97, 163.00 454.00 C 167.24 439.55, 172.50 426.93, 177.00 414.00 C 180.83 400.04, 187.65 388.74, 191.00 376.00 C 196.91 360.57, 203.69 346.92, 205.00 331.00 Z" fill="rgb(152.20216606498195,150.6759927797834,160.0072202166065)" />
<path d="M 382.00 732.00 C 376.32 742.48, 386.54 751.94, 388.00 762.00 C 397.94 776.45, 408.29 791.18, 423.00 799.00 C 432.13 803.82, 439.59 809.27, 449.00 810.00 C 466.81 817.30, 462.81 805.30, 459.00 799.00 C 457.20 794.31, 453.64 791.76, 453.00 788.00 C 448.80 777.42, 446.08 767.64, 443.00 758.00 C 438.40 755.52, 434.94 753.68, 431.00 753.00 C 415.42 746.22, 428.93 778.06, 426.00 783.00 C 421.60 790.48, 418.57 785.19, 417.00 782.00 C 413.35 768.49, 416.13 754.31, 412.00 743.00 C 404.21 737.34, 394.66 736.96, 387.00 732.00 Z" fill="rgb(11.913833255705637,10.386120167675827,12.571960875640428)" />
<path d="M 1741.00 373.00 C 1739.09 382.43, 1743.40 392.81, 1743.00 403.00 C 1745.93 409.81, 1742.69 417.76, 1746.00 423.00 C 1754.66 429.85, 1770.44 418.49, 1778.00 427.00 C 1786.17 424.21, 1791.44 427.96, 1791.00 424.00 C 1813.07 431.51, 1814.66 369.53, 1792.00 377.00 C 1776.22 376.62, 1761.08 376.07, 1747.00 373.00 Z" fill="rgb(117.41577308889657,107.05084745762711,110.23901764095469)" />
<path d="M 813.00 740.00 C 801.69 745.27, 787.74 744.17, 775.00 746.00 C 759.83 748.17, 755.53 745.81, 758.00 751.00 C 763.59 764.16, 753.89 776.50, 763.00 784.00 C 781.11 791.42, 795.81 785.21, 804.00 783.00 C 828.28 781.26, 822.08 777.02, 825.00 775.00 C 822.82 758.74, 824.52 745.93, 814.00 740.00 Z" fill="rgb(92.66180422264875,81.65067178502879,76.07178502879079)" />
<path d="M 753.00 712.00 C 740.46 719.31, 713.57 705.33, 706.00 720.00 C 702.79 725.35, 703.51 732.03, 707.00 736.00 C 710.35 746.28, 718.97 752.43, 729.00 753.00 C 740.57 752.52, 750.07 748.44, 759.00 743.00 C 769.08 733.08, 779.85 730.18, 778.00 721.00 C 775.96 714.86, 770.90 713.96, 767.00 712.00 Z" fill="rgb(17.705263157894738,15.213894736842105,20.077052631578947)" />
<path d="M 58.00 798.00 C 45.23 799.56, 32.01 800.04, 19.00 801.00 C 7.99 792.64, 8.82 809.48, 0.00 803.00 C 5.85 809.64, 4.73 819.13, 8.00 818.00 C 15.72 822.06, 20.89 825.45, 26.00 829.00 C 38.06 835.41, 49.62 840.61, 64.00 839.00 C 87.67 843.57, 65.38 812.26, 73.00 804.00 C 71.95 799.74, 69.06 799.77, 67.00 798.00 Z" fill="rgb(184.11111111111111,176.3988170680186,174.85762568652302)" />
<path d="M 1250.00 381.00 C 1247.10 383.20, 1245.69 388.61, 1247.00 391.00 C 1250.88 411.81, 1246.33 426.10, 1250.00 437.00 C 1264.39 445.89, 1283.02 447.79, 1290.00 437.00 C 1288.05 421.18, 1281.33 411.32, 1283.00 398.00 C 1283.01 387.66, 1274.41 382.90, 1267.00 381.00 Z" fill="rgb(71.00649631875271,69.58120398440883,83.36466002598527)" />
<path d="M 1016.00 469.00 C 1007.36 468.04, 1003.58 478.80, 995.00 478.00 C 986.69 476.51, 976.75 483.03, 982.00 491.00 C 987.85 497.90, 997.50 493.67, 1004.00 497.00 C 1008.29 500.17, 1011.32 504.65, 1017.00 503.00 C 1029.64 502.07, 1043.91 506.49, 1052.00 496.00 C 1056.37 491.34, 1065.35 494.21, 1068.00 489.00 C 1071.50 480.57, 1065.20 477.42, 1060.00 476.00 C 1046.37 471.16, 1040.23 469.98, 1034.00 469.00 Z" fill="rgb(68.34755555555556,63.13733333333333,78.34933333333333)" />
<path d="M 195.00 357.00 C 188.03 364.50, 174.92 363.46, 173.00 375.00 C 169.36 385.35, 166.18 394.88, 162.00 404.00 C 158.14 413.59, 155.17 422.54, 151.00 431.00 C 147.04 442.35, 141.63 451.10, 139.00 461.00 C 133.39 464.12, 141.80 465.95, 143.00 465.00 C 148.19 461.92, 157.68 469.45, 159.00 462.00 C 161.69 457.01, 163.02 452.87, 165.00 449.00 C 169.33 436.61, 171.49 426.32, 176.00 417.00 C 180.15 406.87, 182.19 396.86, 187.00 388.00 C 190.20 376.67, 197.03 366.73, 196.00 357.00 Z" fill="rgb(135.7970177970178,136.05820105820106,139.75228475228477)" />
<path d="M 1380.00 631.00 C 1373.07 640.71, 1376.12 654.55, 1371.00 665.00 C 1362.36 681.38, 1354.41 692.38, 1360.00 709.00 C 1359.34 717.52, 1368.15 718.52, 1373.00 719.00 C 1379.53 719.83, 1388.10 723.38, 1390.00 717.00 C 1386.56 671.99, 1390.15 649.06, 1382.00 631.00 Z" fill="rgb(16.852654387865655,15.275189599133261,21.366197183098592)" />
<path d="M 1794.00 749.00 C 1772.70 751.56, 1750.99 753.10, 1729.00 754.00 C 1726.07 754.39, 1711.65 755.04, 1721.00 760.00 C 1724.88 762.10, 1728.29 760.49, 1730.00 763.00 C 1718.25 766.67, 1724.58 774.90, 1731.00 776.00 C 1742.66 775.41, 1762.30 782.48, 1772.00 777.00 C 1790.16 771.45, 1819.43 785.63, 1799.00 749.00 Z" fill="rgb(204.51357466063348,202.19230769230768,203.17307692307693)" />
<path d="M 81.00 97.00 C 75.17 100.98, 66.18 102.17, 62.00 105.00 C 57.10 127.17, 52.65 140.33, 58.00 152.00 C 69.93 152.78, 83.30 153.10, 94.00 152.00 C 98.25 144.63, 97.11 135.44, 96.00 128.00 C 94.41 124.16, 92.88 121.72, 92.00 119.00 C 86.48 112.55, 93.99 98.76, 85.00 97.00 Z" fill="rgb(75.31520591341076,87.57391763463569,97.33790918690602)" />
<path d="M 246.00 717.00 C 237.02 722.50, 253.48 726.64, 258.00 728.00 C 287.76 735.05, 321.27 729.53, 349.00 734.00 C 352.35 736.84, 356.74 734.15, 359.00 733.00 C 367.55 728.92, 382.80 735.59, 378.00 722.00 C 341.95 718.12, 304.73 717.96, 268.00 717.00 Z" fill="rgb(19.431297709923665,14.767175572519085,19.117230098146127)" />
<path d="M 1189.00 403.00 C 1183.99 404.17, 1179.96 407.36, 1178.00 412.00 C 1167.57 441.75, 1181.90 463.71, 1235.00 433.00 C 1237.87 424.84, 1237.89 413.21, 1229.00 409.00 C 1223.55 404.06, 1216.82 404.64, 1211.00 403.00 Z" fill="rgb(51.19005030743432,53.354387926215765,66.80435997764114)" />
<path d="M 1052.00 402.00 C 1041.91 403.05, 1039.39 414.59, 1039.00 423.00 C 1049.59 446.48, 1058.62 411.66, 1075.00 438.00 C 1092.08 439.83, 1079.45 410.40, 1078.00 402.00 Z" fill="rgb(56.568666666666665,56.87866666666667,68.72066666666667)" />
<path d="M 1144.00 394.00 C 1136.02 400.76, 1125.51 410.50, 1122.00 421.00 C 1120.56 425.23, 1118.15 427.65, 1118.00 431.00 C 1117.38 440.45, 1128.47 434.24, 1133.00 434.00 C 1139.43 435.24, 1146.39 431.23, 1152.00 435.00 C 1165.74 432.53, 1160.22 422.04, 1164.00 417.00 C 1162.42 406.01, 1161.64 396.77, 1154.00 394.00 Z" fill="rgb(53.2596089008766,56.360755225893456,67.59946055293324)" />
<path d="M 171.00 561.00 C 154.61 559.91, 166.13 583.53, 165.00 592.00 C 168.36 608.50, 188.55 596.13, 197.00 600.00 C 205.61 594.45, 197.93 582.21, 199.00 575.00 C 197.79 568.92, 197.15 563.16, 192.00 561.00 Z" fill="rgb(157.4314404432133,150.6246537396122,155.99307479224376)" />
<path d="M 959.00 1015.00 C 953.26 1015.39, 954.79 1021.61, 959.00 1023.00 C 967.92 1024.44, 972.01 1028.17, 975.00 1026.00 C 993.16 1032.83, 1006.64 1031.66, 1017.00 1038.00 C 1024.36 1042.02, 1031.72 1042.45, 1039.00 1041.00 C 1048.34 1036.50, 1036.52 1029.85, 1034.00 1027.00 C 1014.73 1016.54, 993.48 1014.28, 971.00 1015.00 Z" fill="rgb(189.3639240506329,184.3639240506329,190.3639240506329)" />
<path d="M 128.00 93.00 C 118.68 99.34, 126.09 115.00, 129.00 120.00 C 124.59 128.80, 127.41 136.83, 131.00 140.00 C 150.23 139.39, 151.39 138.23, 152.00 133.00 C 143.32 119.21, 162.14 92.44, 143.00 93.00 Z" fill="rgb(78.25042881646655,88.91938250428817,97.55746140651802)" />
<path d="M 136.00 539.00 C 128.94 549.29, 130.24 563.05, 132.00 577.00 C 135.58 588.11, 152.17 582.90, 159.00 582.00 C 160.78 569.48, 157.97 557.37, 156.00 547.00 C 151.86 539.18, 143.14 543.41, 138.00 539.00 Z" fill="rgb(162.69451697127937,166.26196692776327,175.384682332463)" />
<path d="M 1347.00 588.00 C 1342.42 599.60, 1346.14 614.63, 1341.00 626.00 C 1334.97 638.76, 1351.42 633.21, 1357.00 631.00 C 1365.88 628.42, 1356.37 618.38, 1366.00 620.00 C 1375.50 614.72, 1371.78 603.01, 1376.00 596.00 C 1365.88 590.17, 1355.39 597.37, 1347.00 589.00 Z" fill="rgb(153.5355239786856,159.23712255772648,175.0133214920071)" />
<path d="M 1785.00 761.00 C 1769.48 764.29, 1751.57 761.81, 1736.00 765.00 C 1727.57 765.02, 1718.13 770.34, 1726.00 773.00 C 1736.56 778.47, 1748.37 777.53, 1760.00 777.00 C 1768.05 783.41, 1767.57 770.65, 1775.00 777.00 C 1785.77 772.83, 1809.61 783.89, 1799.00 761.00 Z" fill="rgb(220.67441860465115,218.5125581395349,219.5125581395349)" />
<path d="M 1729.00 70.00 C 1720.02 82.24, 1732.17 85.21, 1740.00 84.00 C 1782.38 73.47, 1811.06 98.29, 1799.00 70.00 Z" fill="rgb(213.59103908484272,180.32888465204957,186.93612964728314)" />
<path d="M 1387.00 682.00 C 1384.10 684.38, 1380.30 684.58, 1377.00 686.00 C 1373.16 690.12, 1359.86 680.03, 1361.00 688.00 C 1366.60 696.15, 1354.80 710.93, 1364.00 717.00 C 1371.23 718.61, 1378.94 721.87, 1384.00 720.00 C 1392.62 709.36, 1391.86 693.34, 1387.00 683.00 Z" fill="rgb(25.105110896817745,21.725168756027,26.234329797492766)" />
<path d="M 145.00 643.00 C 142.72 646.23, 146.44 650.63, 147.00 654.00 C 150.13 663.81, 156.19 668.40, 155.00 676.00 C 160.83 683.85, 171.98 691.48, 179.00 690.00 C 183.56 676.51, 178.97 666.15, 172.00 657.00 C 166.07 649.28, 155.41 648.48, 148.00 643.00 Z" fill="rgb(105.62864721485411,107.56233421750663,117.0185676392573)" />
<path d="M 31.00 240.00 C 29.59 241.61, 27.41 241.39, 26.00 243.00 C 15.22 241.43, -15.84 245.81, 7.00 252.00 C 40.24 252.21, 70.36 251.83, 102.00 249.00 C 108.00 243.88, 114.04 251.20, 117.00 248.00 C 103.79 246.69, 101.33 246.00, 99.00 245.00 C 79.46 249.21, 64.78 238.60, 47.00 240.00 Z" fill="rgb(166.02766798418972,167.0583003952569,172.12450592885375)" />
<path d="M 1083.00 0.00 C 1079.76 9.47, 1086.65 20.93, 1081.00 28.00 C 1072.86 32.03, 1063.11 29.42, 1056.00 31.00 C 1053.71 34.48, 1050.13 35.00, 1047.00 36.00 C 1045.88 41.69, 1054.18 41.17, 1053.00 47.00 C 1042.07 52.20, 1053.79 52.89, 1056.00 50.00 C 1062.27 45.21, 1067.14 39.91, 1075.00 40.00 C 1084.20 37.91, 1091.57 32.86, 1092.00 27.00 C 1090.93 15.32, 1103.24 10.54, 1099.00 0.00 Z" fill="rgb(116.13732394366197,56.56572769953052,65.62323943661971)" />
<path d="M 1012.00 0.00 C 1011.30 5.12, 1008.36 9.32, 1009.00 15.00 C 1008.50 20.87, 1007.51 29.41, 1015.00 28.00 C 1024.78 29.21, 1050.44 33.88, 1043.00 15.00 C 1043.18 8.43, 1038.04 5.48, 1039.00 0.00 Z" fill="rgb(183.86962365591398,148.18817204301075,141.79569892473117)" />
<path d="M 686.00 0.00 C 685.58 9.00, 676.28 28.37, 690.00 30.00 C 721.82 29.78, 713.20 9.71, 712.00 0.00 Z" fill="rgb(195.1815286624204,156.31740976645435,150.37898089171975)" />
<path d="M 641.00 0.00 C 640.41 11.49, 626.00 38.72, 654.00 29.00 C 659.32 28.49, 665.34 31.09, 669.00 28.00 C 666.66 9.36, 667.16 4.54, 667.00 0.00 Z" fill="rgb(206.19093851132686,173.90507011866237,166.1866235167206)" />
<path d="M 457.00 0.00 C 457.82 6.28, 454.47 10.84, 455.00 17.00 C 446.37 36.16, 483.67 38.52, 486.00 24.00 C 486.74 14.61, 482.30 7.96, 481.00 0.00 Z" fill="rgb(214.47608453837597,172.39822024471636,163.15572858731923)" />
<path d="M 1058.00 0.00 C 1058.55 6.39, 1052.07 11.90, 1055.00 18.00 C 1094.14 49.89, 1087.45 15.87, 1082.00 0.00 Z" fill="rgb(195.32235294117646,165.96,156.8541176470588)" />
<path d="M 1074.00 710.00 C 1064.80 713.99, 1053.66 713.29, 1046.00 721.00 C 1050.85 726.92, 1059.16 723.47, 1065.00 726.00 C 1070.35 729.89, 1073.10 730.05, 1077.00 729.00 C 1088.93 726.77, 1097.49 719.84, 1109.00 720.00 C 1120.41 717.19, 1111.60 715.74, 1108.00 715.00 C 1101.29 712.64, 1097.29 710.97, 1093.00 710.00 Z" fill="rgb(192.52941176470588,181.35294117647058,170.35882352941175)" />
<path d="M 921.00 0.00 C 921.94 4.14, 919.25 6.77, 918.00 10.00 C 904.56 31.98, 936.86 32.28, 945.00 27.00 C 954.11 16.22, 945.13 8.72, 943.00 0.00 Z" fill="rgb(197.1774834437086,166.05033112582782,158.31523178807947)" />
<path d="M 0.00 818.00 C -20.11 861.23, 17.99 845.65, 36.00 844.00 C 46.95 841.51, 36.20 833.00, 31.00 832.00 C 21.56 826.11, 12.79 822.03, 4.00 818.00 Z" fill="rgb(234.85034802784222,231.2354988399072,231.0904872389791)" />
<path d="M 782.00 726.00 C 776.47 729.53, 771.04 733.30, 766.00 738.00 C 753.91 749.73, 783.31 745.33, 791.00 743.00 C 802.61 741.19, 809.23 741.84, 814.00 738.00 C 821.64 736.04, 818.13 728.16, 814.00 726.00 Z" fill="rgb(151.02333722287048,135.92998833138856,70.41890315052508)" />
<path d="M 415.00 0.00 C 414.78 4.32, 414.70 8.71, 412.00 12.00 C 404.93 25.81, 415.81 29.95, 424.00 28.00 C 441.51 36.37, 444.53 21.60, 441.00 11.00 C 439.04 6.65, 436.64 3.90, 437.00 0.00 Z" fill="rgb(216.13776722090262,165.93705463182897,155.69239904988123)" />
<path d="M 943.00 0.00 C 938.41 10.79, 948.08 15.67, 947.00 25.00 C 948.69 33.48, 961.68 29.83, 963.00 24.00 C 964.07 12.03, 969.17 10.86, 973.00 15.00 C 990.57 11.27, 979.43 3.62, 976.00 0.00 Z" fill="rgb(154.92399049881234,74.91805225653206,83.93942992874109)" />
<path d="M 876.00 0.00 C 875.32 7.48, 865.84 30.56, 880.00 26.00 C 887.57 32.19, 901.53 30.11, 905.00 24.00 C 907.03 11.14, 899.58 7.20, 900.00 0.00 Z" fill="rgb(198.9205378973105,167.3753056234719,159.82640586797066)" />
<path d="M 1098.00 0.00 C 1098.30 9.10, 1094.80 18.51, 1097.00 27.00 C 1103.36 28.02, 1108.06 26.41, 1112.00 23.00 C 1122.31 16.16, 1133.80 11.96, 1138.00 0.00 Z" fill="rgb(168.9623786407767,139.04368932038835,131.23300970873785)" />
<path d="M 11.00 120.00 C 8.81 123.16, 6.20 125.28, 3.00 126.00 C -8.79 124.67, -6.02 157.48, 3.00 150.00 C 8.83 149.18, 19.16 144.54, 18.00 150.00 C 31.64 159.03, 36.36 140.60, 28.00 133.00 C 22.61 128.14, 18.66 121.88, 12.00 120.00 Z" fill="rgb(56.964763061968405,63.826245443499396,73.0498177399757)" />
<path d="M 837.00 0.00 C 839.03 6.98, 823.17 24.52, 837.00 26.00 C 873.67 45.06, 864.51 12.97, 859.00 0.00 Z" fill="rgb(195.5519801980198,161.91336633663366,155.9492574257426)" />
<path d="M 1144.00 805.00 C 1137.68 809.13, 1125.78 802.90, 1122.00 811.00 C 1114.18 819.76, 1126.94 828.80, 1135.00 822.00 C 1152.91 820.11, 1158.72 820.41, 1163.00 817.00 C 1167.03 813.82, 1174.20 811.99, 1172.00 806.00 C 1168.54 800.69, 1162.83 810.23, 1159.00 805.00 Z" fill="rgb(36.948035487959444,34.60836501901141,47.79467680608365)" />
<path d="M 506.00 0.00 C 505.95 6.67, 501.56 11.54, 501.00 18.00 C 523.25 44.55, 533.78 27.32, 528.00 11.00 C 526.75 6.49, 521.92 4.89, 525.00 0.00 Z" fill="rgb(210.18441558441558,173.75324675324674,164.85064935064935)" />
<path d="M 1034.00 0.00 C 1032.62 4.83, 1044.10 13.07, 1033.00 13.00 C 1027.48 12.77, 1026.52 19.54, 1031.00 19.00 C 1044.89 22.50, 1033.33 31.75, 1030.00 37.00 C 1031.49 40.55, 1033.60 43.32, 1037.00 43.00 C 1046.64 40.05, 1037.18 31.46, 1043.00 29.00 C 1046.81 26.92, 1051.99 27.19, 1051.00 23.00 C 1052.41 14.01, 1059.58 8.82, 1058.00 0.00 Z" fill="rgb(156.11631016042782,98.25,102.07352941176471)" />
<path d="M 418.00 718.00 C 405.77 723.34, 416.51 739.34, 413.00 749.00 C 414.74 762.25, 414.10 775.06, 418.00 786.00 C 430.35 796.44, 424.19 773.88, 425.00 768.00 C 422.06 750.78, 426.33 731.99, 419.00 718.00 Z" fill="rgb(71.11668928086839,67.86838534599728,65.86567164179104)" />
<path d="M 94.00 861.00 C 91.53 863.36, 80.06 860.11, 85.00 867.00 C 89.50 873.46, 94.99 878.51, 97.00 885.00 C 113.47 883.19, 118.87 883.62, 123.00 881.00 C 120.64 869.74, 112.94 863.30, 106.00 861.00 Z" fill="rgb(82.24400564174894,99.28490832157969,128.50070521861778)" />
<path d="M 388.00 730.00 C 380.16 730.10, 382.23 737.57, 383.00 743.00 C 382.34 752.18, 395.71 752.99, 394.00 761.00 C 399.45 766.72, 403.25 783.13, 410.00 771.00 C 408.63 761.23, 412.85 752.03, 407.00 745.00 C 403.33 735.24, 402.14 745.69, 396.00 745.00 C 393.05 736.51, 393.37 732.01, 389.00 730.00 Z" fill="rgb(9.092198581560284,7.001418439716312,10.112056737588652)" />
<path d="M 1075.00 710.00 C 1068.07 712.98, 1059.87 712.88, 1053.00 716.00 C 1041.95 718.96, 1054.63 736.18, 1061.00 724.00 C 1066.09 725.44, 1070.03 726.25, 1074.00 727.00 C 1084.35 728.39, 1090.10 722.10, 1098.00 721.00 C 1109.34 717.16, 1094.92 708.53, 1090.00 710.00 Z" fill="rgb(177.4943181818182,169.7911931818182,144.11647727272728)" />
<path d="M 366.00 732.00 C 361.79 734.99, 348.87 730.33, 354.00 742.00 C 355.50 748.49, 355.40 754.22, 360.00 758.00 C 382.45 770.72, 385.49 739.92, 376.00 732.00 Z" fill="rgb(83.26527570789865,78.05663189269747,79.7913561847988)" />
<path d="M 161.00 652.00 C 159.13 660.16, 156.03 671.88, 162.00 679.00 C 165.67 686.28, 173.66 692.59, 179.00 690.00 C 180.89 680.02, 182.41 670.67, 176.00 664.00 C 173.77 655.99, 168.22 654.08, 162.00 652.00 Z" fill="rgb(151.03500761035008,156.7199391171994,169.54337899543378)" />
<path d="M 1616.00 447.00 C 1622.61 459.58, 1634.45 469.98, 1640.00 483.00 C 1648.51 492.39, 1651.32 505.91, 1659.00 510.00 C 1656.04 494.71, 1651.99 486.87, 1648.00 479.00 C 1640.44 466.87, 1633.21 453.06, 1621.00 447.00 Z" fill="rgb(150.20098039215685,151.8856209150327,167.97222222222223)" />
<path d="M 1190.00 273.00 C 1181.98 277.55, 1194.49 288.65, 1199.00 291.00 C 1220.57 294.74, 1204.97 272.94, 1195.00 273.00 Z" fill="rgb(164.29969418960243,127.11009174311927,122.80733944954129)" />
<path d="M 979.00 686.00 C 965.18 681.01, 964.47 702.91, 978.00 699.00 C 986.29 697.25, 992.68 692.57, 996.00 686.00 Z" fill="rgb(31.15593220338983,26.505084745762712,30.796610169491526)" />
<path d="M 998.00 0.00 C 997.05 6.99, 991.47 29.34, 1003.00 27.00 C 1003.61 17.06, 1005.82 8.10, 1010.00 0.00 Z" fill="rgb(149.02919708029196,63.7956204379562,75.57299270072993)" />
<path d="M 244.00 727.00 C 240.53 729.62, 236.42 730.68, 232.00 731.00 C 228.14 739.88, 250.47 734.05, 254.00 736.00 C 266.19 735.53, 275.93 733.91, 262.00 732.00 C 255.80 730.95, 251.42 728.92, 247.00 727.00 Z" fill="rgb(142.15037593984962,139.98872180451127,136.46616541353384)" />
<path d="M 199.00 46.00 C 193.73 53.12, 183.75 50.39, 177.00 51.00 C 172.80 47.10, 162.72 51.54, 170.00 54.00 C 180.79 50.92, 190.21 51.78, 197.00 54.00 C 206.18 60.96, 213.50 51.90, 208.00 46.00 Z" fill="rgb(176.3386454183267,177.42629482071712,181.88446215139442)" />
<path d="M 260.00 384.00 C 256.26 389.00, 247.93 404.92, 259.00 406.00 C 266.46 401.37, 268.89 390.16, 265.00 384.00 Z" fill="rgb(90.48547717842324,96.4356846473029,110.40248962655602)" />
<path d="M 584.00 10.00 C 579.04 11.55, 577.49 20.31, 582.00 24.00 C 584.01 31.93, 598.21 31.24, 594.00 26.00 C 590.08 20.78, 591.03 13.41, 585.00 11.00 Z" fill="rgb(213.43627450980392,189.1813725490196,194.19117647058823)" />
<path d="M 912.00 0.00 C 907.43 7.58, 906.55 13.85, 909.00 23.00 C 914.33 15.65, 921.93 10.61, 919.00 0.00 Z" fill="rgb(155.33823529411765,73.41176470588235,82.23039215686275)" />
<path d="M 868.00 0.00 C 864.51 7.04, 863.58 18.25, 868.00 24.00 C 866.35 13.41, 878.63 9.58, 877.00 0.00 Z" fill="rgb(156.98387096774192,75.74193548387096,83.98924731182795)" />
<path d="M 1668.00 630.00 C 1659.66 629.08, 1651.83 646.55, 1664.00 642.00 C 1668.12 639.14, 1671.55 638.05, 1675.00 637.00 C 1679.31 633.68, 1673.61 630.02, 1671.00 630.00 Z" fill="rgb(38.50828729281768,35.39779005524862,42.35911602209945)" />
<path d="M 115.00 112.00 C 111.18 120.17, 114.22 131.38, 115.00 140.00 C 114.21 131.53, 121.70 120.56, 117.00 112.00 Z" fill="rgb(205.68939393939394,205.53787878787878,207.28030303030303)" />
<path d="M 828.00 0.00 C 829.71 4.16, 821.73 9.89, 827.00 12.00 C 834.75 16.87, 834.74 4.41, 835.00 0.00 Z" fill="rgb(161.62295081967213,74.54918032786885,82.42622950819673)" />
<path d="M 12.00 95.00 C 7.95 101.16, 21.77 99.53, 20.00 106.00 C 28.52 110.00, 24.91 88.58, 15.00 95.00 Z" fill="rgb(93.36697247706422,105.57798165137615,114.5045871559633)" />
<path d="M 859.00 466.00 C 852.32 466.71, 856.12 473.06, 857.00 477.00 C 864.45 482.53, 867.27 468.06, 861.00 466.00 Z" fill="rgb(37.198019801980195,39.01980198019802,49.42574257425743)" />
</svg>