<svg xmlns="http://www.w3.org/2000/svg" width="128" height="128" viewbox="0 0 128 128">
<path d="M 0.50 0.50 C -40.84 306.43, 306.43 -40.84, 0.50 0.50 Z" fill="rgb(40.6105550500455,62.88898999090082,121.13921747042767)" stroke="rgb(40.6105550500455,62.88898999090082,121.13921747042767)" stroke-width="1"/>
<path d="M 122.50 6.50 C 84.56 29.49, 85.36 90.31, 73.50 64.50 C 43.64 135.34, 65.32 36.55, 4.50 85.50 C -12.23 148.56, 66.45 115.22, 103.50 123.50 C 144.79 118.46, 113.73 42.06, 123.50 6.50 Z" fill="rgb(46.305045428184805,162.35781944712932,219.9592112893872)" stroke="rgb(46.305045428184805,162.35781944712932,219.9592112893872)" stroke-width="1"/>
<path d="M 0.50 0.50 C 0.83 44.67, -12.24 109.13, 43.50 66.50 C 42.04 48.66, 22.03 58.71, 62.50 5.50 C 84.97 4.56, 119.83 13.86, 80.50 19.50 C 64.82 47.69, 114.26 31.55, 120.50 6.50 C 98.10 -5.99, 38.86 3.70, 1.50 0.50 Z" fill="rgb(2.947228381374723,6.110643015521064,8.267627494456763)" stroke="rgb(2.947228381374723,6.110643015521064,8.267627494456763)" stroke-width="1"/>
<path d="M 91.50 64.50 C 64.16 87.23, 58.49 92.28, 32.50 90.50 C -2.28 111.60, 38.34 126.39, 56.50 109.50 C 68.95 100.24, 118.03 72.80, 92.50 64.50 Z" fill="rgb(173.11552795031056,212.4832298136646,150.65900621118013)" stroke="rgb(173.11552795031056,212.4832298136646,150.65900621118013)" stroke-width="1"/>
<path d="M 69.50 50.50 C 20.03 100.20, 79.64 94.72, 69.50 50.50 Z" fill="rgb(141.55757575757576,150.9212121212121,134.3151515151515)" stroke="rgb(141.55757575757576,150.9212121212121,134.3151515151515)" stroke-width="1"/>
<path d="M 70.50 29.50 C 11.70 34.74, 91.33 72.73, 70.50 29.50 Z" fill="rgb(92.21190476190476,26.785714285714285,229.05714285714285)" stroke="rgb(92.21190476190476,26.785714285714285,229.05714285714285)" stroke-width="1"/>
<path d="M 125.50 0.50 C 119.59 139.13, 132.74 132.35, 125.50 0.50 Z" fill="rgb(3.1470588235294117,98.05882352941177,149.1764705882353)" stroke="rgb(3.1470588235294117,98.05882352941177,149.1764705882353)" stroke-width="1"/>
<path d="M 126.50 0.50 C 121.87 40.73, 125.80 88.25, 124.50 127.50 C 130.16 89.16, 126.17 42.17, 127.50 0.50 Z" fill="rgb(0.0,0.0,0.0)" stroke="rgb(0.0,0.0,0.0)" stroke-width="1"/>
<path d="M 63.50 6.50 C 39.50 39.25, 142.54 5.96, 63.50 6.50 Z" fill="rgb(32.44117647058823,30.41176470588235,30.107843137254903)" stroke="rgb(32.44117647058823,30.41176470588235,30.107843137254903)" stroke-width="1"/>
<path d="M 3.50 122.50 C 106.86 134.96, 145.85 121.99, 3.50 122.50 Z" fill="rgb(36.33884297520661,175.37190082644628,239.8512396694215)" stroke="rgb(36.33884297520661,175.37190082644628,239.8512396694215)" stroke-width="1"/>
<path d="M 2.50 124.50 C 29.09 131.44, 83.25 125.54, 120.50 127.50 C 96.06 120.59, 40.58 126.43, 3.50 124.50 Z" fill="rgb(0.0,0.0,0.0)" stroke="rgb(0.0,0.0,0.0)" stroke-width="1"/>
<path d="M 69.50 50.50 C 20.48 71.05, 92.47 74.19, 69.50 50.50 Z" fill="rgb(122.38775510204081,119.69795918367348,130.13877551020408)" stroke="rgb(122.38775510204081,119.69795918367348,130.13877551020408)" stroke-width="1"/>
<path d="M 63.50 6.50 C 36.10 22.85, 103.82 27.83, 63.50 6.50 Z" fill="rgb(42.645161290322584,39.134408602150536,38.784946236559136)" stroke="rgb(42.645161290322584,39.134408602150536,38.784946236559136)" stroke-width="1"/>
<path d="M 44.50 35.50 C 11.40 68.50, 50.00 65.03, 44.50 35.50 Z" fill="rgb(95.98514851485149,71.03465346534654,63.28712871287129)" stroke="rgb(95.98514851485149,71.03465346534654,63.28712871287129)" stroke-width="1"/>
<path d="M 64.50 71.50 C 36.38 88.72, 58.02 113.82, 64.50 71.50 Z" fill="rgb(109.79245283018868,101.13207547169812,92.32704402515724)" stroke="rgb(109.79245283018868,101.13207547169812,92.32704402515724)" stroke-width="1"/>
<path d="M 56.50 16.50 C 49.39 48.87, 88.31 19.45, 56.50 16.50 Z" fill="rgb(100.11827956989248,74.95161290322581,67.29569892473118)" stroke="rgb(100.11827956989248,74.95161290322581,67.29569892473118)" stroke-width="1"/>
<path d="M 77.50 7.50 C 81.49 33.17, 118.33 2.81, 77.50 7.50 Z" fill="rgb(45.272222222222226,42.87222222222222,42.34444444444444)" stroke="rgb(45.272222222222226,42.87222222222222,42.34444444444444)" stroke-width="1"/>
<path d="M 79.50 55.50 C 62.81 89.41, 95.59 77.74, 79.50 55.50 Z" fill="rgb(93.60606060606061,78.74545454545455,55.806060606060605)" stroke="rgb(93.60606060606061,78.74545454545455,55.806060606060605)" stroke-width="1"/>
<path d="M 81.50 35.50 C 69.67 51.52, 123.64 37.67, 81.50 35.50 Z" fill="rgb(58.152671755725194,48.23664122137404,48.38167938931298)" stroke="rgb(58.152671755725194,48.23664122137404,48.38167938931298)" stroke-width="1"/>
<path d="M 118.50 45.50 C 97.67 60.65, 116.18 62.92, 118.50 45.50 Z" fill="rgb(64.23529411764706,152.64705882352942,215.88235294117646)" stroke="rgb(64.23529411764706,152.64705882352942,215.88235294117646)" stroke-width="1"/>
<path d="M 49.50 89.50 C 45.90 109.91, 66.72 91.58, 49.50 89.50 Z" fill="rgb(109.51470588235294,82.8970588235294,73.97058823529412)" stroke="rgb(109.51470588235294,82.8970588235294,73.97058823529412)" stroke-width="1"/>
<path d="M 65.50 62.50 C 62.16 80.72, 82.60 61.80, 65.50 62.50 Z" fill="rgb(43.90163934426229,151.98360655737704,206.0655737704918)" stroke="rgb(43.90163934426229,151.98360655737704,206.0655737704918)" stroke-width="1"/>
<path d="M 117.50 61.50 C 99.22 76.49, 117.57 73.93, 117.50 61.50 Z" fill="rgb(50.38,138.22,212.04)" stroke="rgb(50.38,138.22,212.04)" stroke-width="1"/>
<path d="M 75.50 42.50 C 63.00 57.23, 92.32 43.89, 75.50 42.50 Z" fill="rgb(7.9423076923076925,5.538461538461538,19.326923076923077)" stroke="rgb(7.9423076923076925,5.538461538461538,19.326923076923077)" stroke-width="1"/>
<path d="M 111.50 82.50 C 91.14 88.11, 131.22 84.38, 111.50 82.50 Z" fill="rgb(208.21621621621622,232.78378378378378,249.43243243243242)" stroke="rgb(208.21621621621622,232.78378378378378,249.43243243243242)" stroke-width="1"/>
<path d="M 118.50 45.50 C 104.60 55.20, 122.45 54.60, 118.50 45.50 Z" fill="rgb(186.44444444444446,221.02777777777777,244.30555555555554)" stroke="rgb(186.44444444444446,221.02777777777777,244.30555555555554)" stroke-width="1"/>
<path d="M 111.50 50.50 C 102.43 61.81, 111.76 64.64, 111.50 50.50 Z" fill="rgb(34.21212121212121,133.3030303030303,209.4848484848485)" stroke="rgb(34.21212121212121,133.3030303030303,209.4848484848485)" stroke-width="1"/>
<path d="M 97.50 53.50 C 90.72 62.02, 100.91 54.98, 97.50 53.50 Z" fill="rgb(53.07692307692308,132.53846153846155,208.92307692307693)" stroke="rgb(53.07692307692308,132.53846153846155,208.92307692307693)" stroke-width="1"/>
<path d="M 56.50 28.50 C 55.93 30.42, 60.44 27.35, 56.50 28.50 Z" fill="rgb(42.5,33.75,35.75)" stroke="rgb(42.5,33.75,35.75)" stroke-width="1"/>
</svg>